<svg width="263" height="397" viewBox="0 0 263 397" fill="none" xmlns="http://www.w3.org/2000/svg">
<ellipse cx="132" cy="257.869" rx="131" ry="138.525" fill="black" fill-opacity="0.12"/>
<ellipse cx="132" cy="256.271" rx="121" ry="128.402" fill="black" fill-opacity="0.4"/>
<g filter="url(#filter0_ii_3_11306)">
<path fill-rule="evenodd" clip-rule="evenodd" d="M220.259 338.125C217.942 340.86 215.546 343.42 213.077 345.814C192.723 367.099 163.706 380.41 131.5 380.41C101.56 380.41 74.3764 368.907 54.3461 350.187C49.0034 345.539 43.9675 340.182 39.2984 334.05C32.3153 325.366 26.689 315.665 22.7159 305.225C10.9479 277.92 4 241.317 4 193.089C4 51.3628 65.5 2.13086 129.625 2.13086C193.75 2.13086 259 51.3628 259 193.089C259 241.56 252.039 278.034 240.32 305.131C235.713 317.272 228.871 328.416 220.259 338.125Z" fill="#713F12"/>
</g>
<path opacity="0.2" d="M75 353.466C75 348.464 76.9168 343.115 81.0323 343.115C85.1477 343.115 86 347.17 86 352.172C86 357.174 85.1477 361.229 81.0323 361.229C76.9168 361.229 75 358.468 75 353.466Z" fill="#713F12"/>
<g filter="url(#filter1_i_3_11306)">
<path fill-rule="evenodd" clip-rule="evenodd" d="M174 198.301L182.206 201.793C185.886 209.371 188.842 222.06 190.955 237.285C193.098 252.73 194.357 270.647 194.663 288.185C194.969 305.726 194.322 322.856 192.663 336.732C191.833 343.671 190.753 349.77 189.422 354.688C188.083 359.638 186.245 364.453 184.525 366.557L185.279 366.156L187.999 364.75C189.39 362.323 190.579 359.119 191.597 355.353C192.971 350.276 194.069 344.046 194.908 337.035C196.585 323.011 197.234 305.759 196.926 288.14C196.619 270.519 195.354 252.498 193.194 236.934C191.04 221.412 187.977 208.194 184.013 200.274C183.887 200.024 183.682 199.828 183.434 199.723L174.841 196.065L174 198.301Z" fill="black" fill-opacity="0.2"/>
</g>
<g filter="url(#filter2_i_3_11306)">
<path fill-rule="evenodd" clip-rule="evenodd" d="M113.801 257.869C114.398 257.869 114.882 258.408 114.882 259.072C114.882 265.87 114.199 272.664 113.522 279.404C113.427 280.352 113.331 281.299 113.238 282.244C112.48 289.944 111.852 297.589 112.325 305.287C113.428 323.242 115.52 358.934 114.881 377.077L114.839 378.279L112.679 378.185L112.721 376.983C113.355 359 111.275 323.461 110.169 305.451C109.681 297.52 110.331 289.688 111.09 281.982C111.184 281.029 111.279 280.078 111.374 279.129C112.053 272.377 112.721 265.726 112.721 259.072C112.721 258.408 113.204 257.869 113.801 257.869Z" fill="black" fill-opacity="0.2"/>
</g>
<path fill-rule="evenodd" clip-rule="evenodd" d="M56 178.053L47.6448 181.542C43.907 189.104 41.0623 201.701 39.1586 216.802C37.2276 232.12 36.2812 249.871 36.3051 267.245C36.329 284.622 37.3234 301.589 39.2639 315.343C40.2344 322.221 41.438 328.27 42.8658 333.154C44.3029 338.07 45.8296 342.069 47.5881 344.18L45.2835 341.774C42.9789 339.369 42.1253 338.863 40.6616 333.856C39.1886 328.818 37.9642 322.642 36.9839 315.693C35.0228 301.794 34.0244 284.705 34.0004 267.249C33.9764 249.79 34.9269 231.931 36.8736 216.488C38.8148 201.089 41.763 187.948 45.8046 180.025C45.9325 179.775 46.1411 179.579 46.3937 179.474L55.1439 175.819L56 178.053Z" fill="black" fill-opacity="0.2"/>
<path fill-rule="evenodd" clip-rule="evenodd" d="M56 178.053L47.6448 181.542C43.907 189.104 41.0623 201.701 39.1586 216.802C37.2276 232.12 36.2812 249.871 36.3051 267.245C36.329 284.622 37.3234 301.589 39.2639 315.343C40.2344 322.221 41.438 328.27 42.8658 333.154C44.3029 338.07 45.8296 342.069 47.5881 344.18L45.2835 341.774C42.9789 339.369 42.1253 338.863 40.6616 333.856C39.1886 328.818 37.9642 322.642 36.9839 315.693C35.0228 301.794 34.0244 284.705 34.0004 267.249C33.9764 249.79 34.9269 231.931 36.8736 216.488C38.8148 201.089 41.763 187.948 45.8046 180.025C45.9325 179.775 46.1411 179.579 46.3937 179.474L55.1439 175.819L56 178.053Z" fill="black" fill-opacity="0.2"/>
<g filter="url(#filter3_ii_3_11306)">
<ellipse cx="131.5" cy="230.164" rx="131.5" ry="121.475" fill="#78716C"/>
</g>
<ellipse cx="131.5" cy="235.492" rx="128.5" ry="121.475" fill="black" fill-opacity="0.2"/>
<ellipse cx="131.5" cy="215.246" rx="131.5" ry="121.475" fill="#A8A29E"/>
<g filter="url(#filter4_ii_3_11306)">
<path d="M259.995 204.613C259.995 273.455 202.241 329.262 130.997 329.262C59.7541 329.262 2 273.455 2 204.613C2 190.091 3.15389 168.389 5.41001 152.785C6.16236 139.981 9.5469 117.575 12.1793 112.373C36.17 80.8561 85.6903 79.9639 130.997 79.9639C177.132 79.9639 227.547 77.2677 250.601 113.173C255.114 126.377 258.874 157.586 258.874 176.792C258.874 181.193 260.088 195.151 259.995 204.613Z" fill="#713F12"/>
</g>
<g filter="url(#filter5_i_3_11306)">
<path fill-rule="evenodd" clip-rule="evenodd" d="M113.427 207.787C114.096 207.787 114.639 208.326 114.639 208.99C114.639 215.062 114.332 220.995 114.027 226.878C113.945 228.464 113.863 230.046 113.787 231.627C113.43 239.088 113.21 246.539 113.743 254.282C114.985 272.312 115.353 308.895 114.638 326.995L114.59 328.197L112.168 328.103L112.215 326.901C112.928 308.876 112.56 272.38 111.325 254.446C110.781 246.56 111.008 238.995 111.366 231.513C111.442 229.912 111.525 228.316 111.608 226.722C111.912 220.847 112.215 214.994 112.215 208.99C112.215 208.326 112.757 207.787 113.427 207.787Z" fill="black" fill-opacity="0.2"/>
</g>
<g filter="url(#filter6_i_3_11306)">
<path fill-rule="evenodd" clip-rule="evenodd" d="M191 234.786L191.179 235.977C194.663 259.109 195.918 288.43 194.903 313.278L197.703 311.672C198.723 286.689 197.062 258.918 193.552 235.617L193.373 234.426L191 234.786Z" fill="black" fill-opacity="0.2"/>
</g>
<path fill-rule="evenodd" clip-rule="evenodd" d="M21.3181 128.935H31V131.322H22.233C17.0318 136.733 12.8511 145.267 9.65949 155.68C6.40934 166.284 4.22534 179 3 191.803L3.75567 175.489C4.99199 162.571 4.18926 165.755 7.50206 154.947C10.8075 144.162 15.242 135.055 20.9894 129.266L21.3181 128.935Z" fill="black" fill-opacity="0.2"/>
<path fill-rule="evenodd" clip-rule="evenodd" d="M56 178.054L47.6667 181.545C43.0851 190.841 39.8636 207.706 38.0617 227.393C36.2401 247.296 35.8045 270.76 36.8833 290.901L34.5849 288.495C33.4999 268.238 33.9404 247.193 35.7736 227.163C37.6013 207.194 40.9114 189.701 45.8314 180.027C45.9589 179.776 46.167 179.581 46.4189 179.475L55.1462 175.819L56 178.054Z" fill="black" fill-opacity="0.2"/>
<path fill-rule="evenodd" clip-rule="evenodd" d="M56 178.054L47.6667 181.545C43.0851 190.841 39.8636 207.706 38.0617 227.393C36.2401 247.296 35.8045 270.76 36.8833 290.901L34.5849 288.495C33.4999 268.238 33.9404 247.193 35.7736 227.163C37.6013 207.194 40.9114 189.701 45.8314 180.027C45.9589 179.776 46.167 179.581 46.4189 179.475L55.1462 175.819L56 178.054Z" fill="black" fill-opacity="0.2"/>
<path fill-rule="evenodd" clip-rule="evenodd" d="M234.502 152.377H225.241L224 154.792H233.196C238.379 160.341 244.027 170.569 248.302 182.714C252.652 195.069 257.053 211.943 258.255 224.836C258.255 224.836 259 220.005 259 219.2C259 218.395 254.801 194.383 250.39 181.855C245.993 169.364 240.477 158.556 234.825 152.712L234.502 152.377Z" fill="black" fill-opacity="0.2"/>
<g filter="url(#filter7_dii_3_11306)">
<ellipse cx="131" cy="139.59" rx="120" ry="110.82" fill="#78716C"/>
</g>
<ellipse cx="131" cy="123.607" rx="120" ry="110.82" fill="#A8A29E"/>
<g filter="url(#filter8_ii_3_11306)">
<ellipse cx="130.5" cy="118.279" rx="114.5" ry="110.82" fill="#713F12"/>
</g>
<ellipse cx="132" cy="108.689" rx="112" ry="108.689" fill="#A16207"/>
<ellipse cx="131.5" cy="108.688" rx="103.5" ry="101.23" fill="black" fill-opacity="0.4"/>
<g filter="url(#filter9_i_3_11306)">
<path fill-rule="evenodd" clip-rule="evenodd" d="M116 208.214L114.533 216.273V228.033H112V216.058L113.506 207.787L116 208.214Z" fill="black" fill-opacity="0.2"/>
</g>
<g filter="url(#filter10_i_3_11306)">
<path fill-rule="evenodd" clip-rule="evenodd" d="M177 199.414L183.524 204.691C183.524 204.691 185.629 210.13 186.977 215.245L189 214.107C187.574 208.698 185.826 203.473 185.826 203.473L179.302 198.196L177 199.414Z" fill="black" fill-opacity="0.2"/>
</g>
<path fill-rule="evenodd" clip-rule="evenodd" d="M25.75 73.5244L34 74.7284L33.25 100.012L32.5 104.426L33.25 77.1363L25 75.9323L25.75 73.5244Z" fill="black" fill-opacity="0.2"/>
<path fill-rule="evenodd" clip-rule="evenodd" d="M56.9566 27.7041L64 32.1931V44.844L62.0436 46.8844V33.8255L55 29.3365L56.9566 27.7041Z" fill="#713F12"/>
<path fill-rule="evenodd" clip-rule="evenodd" d="M56.9566 27.7041L64 32.1931V56.4746L62.0436 58.5151V33.8255L55 29.3365L56.9566 27.7041Z" fill="url(#paint0_linear_3_11306)"/>
<path fill-rule="evenodd" clip-rule="evenodd" d="M102.8 3.19629L110 8.83199V37.9577L107.84 38.3602V9.42024L101 3.59884L102.8 3.19629Z" fill="black" fill-opacity="0.2"/>
<path fill-rule="evenodd" clip-rule="evenodd" d="M238.92 75.6553L231 76.4522V109.681L231.358 112.95L232.08 79.2414L240 78.4445L238.92 75.6553Z" fill="black" fill-opacity="0.2"/>
<path fill-rule="evenodd" clip-rule="evenodd" d="M207.043 28.7705L200 33.1373L200.783 64.0807L203.13 66.0656L202.348 35.1222L209 30.3584L207.043 28.7705Z" fill="black" fill-opacity="0.2"/>
<path fill-rule="evenodd" clip-rule="evenodd" d="M160.93 4.26172L154 10.0578V39.0283L156.25 39.4257V10.4552L163 4.89189L160.93 4.26172Z" fill="black" fill-opacity="0.2"/>
<path fill-rule="evenodd" clip-rule="evenodd" d="M21.9186 128.934H30.459L31 131.19H22.5519C21.4345 132.285 19.4072 133.968 18.3793 135.327L18 132.318C18.9185 131.104 19.3425 130.689 20.0996 129.984C20.6182 129.5 21.2402 129.139 21.9186 128.934Z" fill="black" fill-opacity="0.2"/>
<path fill-rule="evenodd" clip-rule="evenodd" d="M55 177.433L47.2548 181.215C46.0701 183.708 44.8642 187.203 43.8571 190.737L42 188.729C43.0864 184.916 44.1324 182.427 45.4754 179.688C45.599 179.436 45.8008 179.239 46.045 179.133L53.5143 175.819L55 177.433Z" fill="black" fill-opacity="0.2"/>
<path fill-rule="evenodd" clip-rule="evenodd" d="M55 177.433L47.2548 181.215C46.0701 183.708 44.8642 187.203 43.8571 190.737L42 188.729C43.0864 184.916 44.1324 182.427 45.4754 179.688C45.599 179.436 45.8008 179.239 46.045 179.133L53.5143 175.819L55 177.433Z" fill="black" fill-opacity="0.2"/>
<path fill-rule="evenodd" clip-rule="evenodd" d="M234.216 151.699L225.135 151.312L224 153.636L233.081 154.024L236.865 159.836L238 157.511L234.216 151.699Z" fill="black" fill-opacity="0.2"/>
<g filter="url(#filter11_i_3_11306)">
<mask id="mask0_3_11306" style="mask-type:alpha" maskUnits="userSpaceOnUse" x="28" y="33" width="207" height="194">
<ellipse cx="131.5" cy="130" rx="103.5" ry="96.9672" fill="#93C5FD"/>
</mask>
<g mask="url(#mask0_3_11306)">
<ellipse cx="131.5" cy="108.688" rx="103.5" ry="101.23" fill="#93C5FD"/>
</g>
</g>
<rect opacity="0.75" width="40" height="11.7213" rx="5.86066" transform="matrix(-1 0 0 1 182 60.7383)" fill="#60A5FA"/>
<rect opacity="0.75" width="32" height="8.5246" rx="4.2623" transform="matrix(-1 0 0 1 162 149.181)" fill="#BFDBFE"/>
<rect opacity="0.75" width="16" height="4.26229" rx="2.13115" transform="matrix(-1 0 0 1 196 123.606)" fill="#BFDBFE"/>
<rect opacity="0.75" x="90" y="93.7705" width="35" height="10.6557" rx="5.32787" fill="#DBEAFE"/>
<rect opacity="0.75" width="18" height="4.2623" rx="2.13115" transform="matrix(-1 0 0 1 76 130)" fill="#60A5FA"/>
<rect opacity="0.75" width="12" height="4.26229" rx="2.13115" transform="matrix(-1 0 0 1 109 47.9512)" fill="#60A5FA"/>
<g opacity="0.2">
<path d="M129 294.099C129 300.278 130.046 306.886 132.29 306.886C134.535 306.886 135 301.877 135 295.697C135 289.518 134.535 284.509 132.29 284.509C130.046 284.509 129 287.92 129 294.099Z" fill="#1C1917"/>
<path d="M200 247.517C200 252.52 201.394 257.869 204.387 257.869C207.38 257.869 208 253.814 208 248.811C208 243.809 207.38 239.754 204.387 239.754C201.394 239.754 200 242.515 200 247.517Z" fill="white"/>
<path d="M92 258.478C92 264.363 94.2654 270.656 99.129 270.656C103.993 270.656 105 265.885 105 260C105 254.115 103.993 249.345 99.129 249.345C94.2654 249.345 92 252.593 92 258.478Z" fill="#1C1917"/>
<path d="M234 236.557C234 240.677 235.568 245.082 238.935 245.082C242.303 245.082 243 241.743 243 237.623C243 233.504 242.303 230.164 238.935 230.164C235.568 230.164 234 232.438 234 236.557Z" fill="#1C1917"/>
<path d="M28 251.171C28 246.169 26.0832 240.82 21.9677 240.82C17.8523 240.82 17 244.875 17 249.877C17 254.879 17.8523 258.935 21.9677 258.935C26.0832 258.935 28 256.173 28 251.171Z" fill="#1C1917"/>
<path d="M90 358.642C90 362.467 91.3941 366.558 94.3871 366.558C97.3801 366.558 98 363.457 98 359.631C98 355.806 97.3801 352.705 94.3871 352.705C91.3941 352.705 90 354.817 90 358.642Z" fill="white"/>
</g>
<g filter="url(#filter12_i_3_11306)">
<path d="M137.414 84.8819C138.09 100.098 127.568 111.511 114.472 112.559C113.513 112.726 112.538 112.794 111.561 112.757C110.381 112.791 109.201 112.674 108.047 112.413C96.1108 110.603 86.6425 99.7393 86.05 86.2044L85.8737 82.1748C85.4023 71.4069 96.7923 61.6788 109.014 61.2134C125.192 60.5973 135.723 67.9755 137.414 84.8819Z" fill="#EF4444"/>
</g>
<g filter="url(#filter13_f_3_11306)">
<ellipse cx="9.12947" cy="8.11508" rx="9.12947" ry="8.11508" transform="matrix(-1 0 0 1 121.184 69.3281)" fill="black" fill-opacity="0.12"/>
</g>
<g filter="url(#filter14_f_3_11306)">
<ellipse cx="4.39567" cy="4.05754" rx="4.39567" ry="4.05754" transform="matrix(-1 0 0 1 117.126 74.0625)" fill="black" fill-opacity="0.2"/>
</g>
<g filter="url(#filter15_f_3_11306)">
<ellipse cx="2.3669" cy="2.02877" rx="2.3669" ry="2.02877" transform="matrix(-1 0 0 1 114.421 76.0908)" fill="black" fill-opacity="0.2"/>
</g>
<g filter="url(#filter16_di_3_11306)">
<path d="M112.326 77.7818C113.068 76.4293 112.73 71.3574 109.621 68.6523" stroke="#82644D" stroke-width="6" stroke-linecap="round"/>
</g>
<g filter="url(#filter17_f_3_11306)">
<rect width="10.1439" height="8.11508" rx="4.05754" transform="matrix(-0.979866 -0.199659 -0.199659 0.979866 109.043 88.0059)" fill="white" fill-opacity="0.2"/>
</g>
<path fill-rule="evenodd" clip-rule="evenodd" d="M137.865 80C136.709 93.1409 125.236 103.46 111.252 103.46C99.0212 103.46 88.7103 95.565 85.5449 84.7922C85.1875 86.4326 85 88.1301 85 89.8682C85 103.951 97.3122 115.368 112.5 115.368C127.688 115.368 140 103.951 140 89.8682C140 86.3695 139.24 83.0354 137.865 80Z" fill="#93C5FD"/>
<path opacity="0.5" fill-rule="evenodd" clip-rule="evenodd" d="M112 112C95.9837 112 83 99.9117 83 85C83 70.0883 95.9837 58 112 58C128.016 58 141 70.0883 141 85C141 99.9117 128.016 112 112 112ZM111 103.621C98.2975 103.621 88 94.2418 88 82.6724C88 71.103 98.2975 61.7241 111 61.7241C123.703 61.7241 134 71.103 134 82.6724C134 94.2418 123.703 103.621 111 103.621Z" fill="black" fill-opacity="0.12"/>
<ellipse cx="94.6748" cy="147.873" rx="25" ry="24" fill="black" fill-opacity="0.12"/>
<ellipse cx="95.1748" cy="146.873" rx="24.5" ry="23" fill="black" fill-opacity="0.12"/>
<g filter="url(#filter18_iii_3_11306)">
<path d="M69.5865 144.984C68.9102 129.769 79.432 118.356 92.528 117.308C93.4869 117.14 94.4624 117.072 95.4392 117.109C96.6187 117.075 97.7994 117.192 98.9532 117.453C110.889 119.264 120.358 130.127 120.95 143.662L121.126 147.691C121.598 158.459 110.208 168.187 97.9858 168.653C81.8077 169.269 71.2771 161.891 69.5865 144.984Z" fill="#EF4444"/>
</g>
<g filter="url(#filter19_f_3_11306)">
<ellipse cx="9.12947" cy="8.11508" rx="9.12947" ry="8.11508" transform="matrix(1 0 0 -1 85.8164 167.539)" fill="black" fill-opacity="0.12"/>
</g>
<g filter="url(#filter20_f_3_11306)">
<ellipse cx="4.39567" cy="4.05754" rx="4.39567" ry="4.05754" transform="matrix(1 0 0 -1 89.874 162.805)" fill="black" fill-opacity="0.2"/>
</g>
<g filter="url(#filter21_f_3_11306)">
<ellipse cx="2.3669" cy="2.02877" rx="2.3669" ry="2.02877" transform="matrix(1 0 0 -1 92.5791 160.775)" fill="black" fill-opacity="0.2"/>
</g>
<g filter="url(#filter22_di_3_11306)">
<path d="M94.674 159.085C93.932 160.438 94.2698 165.51 97.3791 168.215" stroke="#82644D" stroke-width="6" stroke-linecap="round"/>
</g>
<g filter="url(#filter23_f_3_11306)">
<rect width="10.1439" height="8.11508" rx="4.05754" transform="matrix(0.979866 0.199659 0.199659 -0.979866 97.957 148.861)" fill="white" fill-opacity="0.2"/>
</g>
<path fill-rule="evenodd" clip-rule="evenodd" d="M120.904 139.632C119.769 152.773 108.504 163.092 94.7751 163.092C82.7663 163.092 72.6428 155.197 69.535 144.424C69.1841 146.064 69 147.762 69 149.5C69 163.583 81.0883 175 96 175C110.912 175 123 163.583 123 149.5C123 146.001 122.254 142.667 120.904 139.632Z" fill="#93C5FD"/>
<path opacity="0.5" fill-rule="evenodd" clip-rule="evenodd" d="M95 172C111.016 172 124 159.016 124 143C124 126.984 111.016 114 95 114C78.9837 114 66 126.984 66 143C66 159.016 78.9837 172 95 172ZM96 163C108.703 163 119 152.926 119 140.5C119 128.074 108.703 118 96 118C83.2975 118 73 128.074 73 140.5C73 152.926 83.2975 163 96 163Z" fill="black" fill-opacity="0.12"/>
<g filter="url(#filter24_i_3_11306)">
<path d="M143.586 114.882C142.91 130.098 153.432 141.511 166.528 142.559C167.487 142.726 168.462 142.794 169.439 142.757C170.619 142.791 171.799 142.674 172.953 142.413C184.889 140.603 194.358 129.739 194.95 116.204L195.126 112.175C195.598 101.407 184.208 91.6788 171.986 91.2134C155.808 90.5973 145.277 97.9755 143.586 114.882Z" fill="#EF4444"/>
</g>
<g filter="url(#filter25_f_3_11306)">
<ellipse cx="168.946" cy="107.443" rx="9.12947" ry="8.11508" fill="black" fill-opacity="0.12"/>
</g>
<g filter="url(#filter26_f_3_11306)">
<ellipse cx="168.27" cy="108.12" rx="4.39567" ry="4.05754" fill="black" fill-opacity="0.2"/>
</g>
<g filter="url(#filter27_f_3_11306)">
<ellipse cx="168.946" cy="108.12" rx="2.3669" ry="2.02877" fill="black" fill-opacity="0.2"/>
</g>
<g filter="url(#filter28_di_3_11306)">
<path d="M168.674 107.782C167.932 106.429 168.27 101.357 171.379 98.6523" stroke="#82644D" stroke-width="6" stroke-linecap="round"/>
</g>
<g filter="url(#filter29_f_3_11306)">
<rect x="171.957" y="118.006" width="10.1439" height="8.11508" rx="4.05754" transform="rotate(-11.517 171.957 118.006)" fill="white" fill-opacity="0.2"/>
</g>
<path fill-rule="evenodd" clip-rule="evenodd" d="M195.275 117C192.473 128.531 181.873 137.108 169.225 137.108C156.578 137.108 145.978 128.531 143.175 117C142.701 118.951 142.45 120.987 142.45 123.079C142.45 137.542 154.438 149.267 169.225 149.267C184.013 149.267 196 137.542 196 123.079C196 120.986 195.749 118.951 195.275 117Z" fill="#93C5FD"/>
<path opacity="0.5" fill-rule="evenodd" clip-rule="evenodd" d="M170 144C186.016 144 199 131.016 199 115C199 98.9837 186.016 86 170 86C153.984 86 141 98.9837 141 115C141 131.016 153.984 144 170 144ZM171 135C183.703 135 194 124.926 194 112.5C194 100.074 183.703 90 171 90C158.297 90 148 100.074 148 112.5C148 124.926 158.297 135 171 135Z" fill="black" fill-opacity="0.12"/>
<defs>
<filter id="filter0_ii_3_11306" x="-43.05" y="2.13086" width="348.35" height="425.328" filterUnits="userSpaceOnUse" color-interpolation-filters="sRGB">
<feFlood flood-opacity="0" result="BackgroundImageFix"/>
<feBlend mode="normal" in="SourceGraphic" in2="BackgroundImageFix" result="shape"/>
<feColorMatrix in="SourceAlpha" type="matrix" values="0 0 0 0 0 0 0 0 0 0 0 0 0 0 0 0 0 0 127 0" result="hardAlpha"/>
<feOffset dx="78.02" dy="75.01"/>
<feGaussianBlur stdDeviation="23.15"/>
<feComposite in2="hardAlpha" operator="arithmetic" k2="-1" k3="1"/>
<feColorMatrix type="matrix" values="0 0 0 0 0 0 0 0 0 0 0 0 0 0 0 0 0 0 0.25 0"/>
<feBlend mode="normal" in2="shape" result="effect1_innerShadow_3_11306"/>
<feColorMatrix in="SourceAlpha" type="matrix" values="0 0 0 0 0 0 0 0 0 0 0 0 0 0 0 0 0 0 127 0" result="hardAlpha"/>
<feOffset dx="-56.02" dy="83.01"/>
<feGaussianBlur stdDeviation="23.525"/>
<feComposite in2="hardAlpha" operator="arithmetic" k2="-1" k3="1"/>
<feColorMatrix type="matrix" values="0 0 0 0 1 0 0 0 0 1 0 0 0 0 1 0 0 0 0.2 0"/>
<feBlend mode="normal" in2="effect1_innerShadow_3_11306" result="effect2_innerShadow_3_11306"/>
</filter>
<filter id="filter1_i_3_11306" x="174" y="196.065" width="23.7524" height="173.502" filterUnits="userSpaceOnUse" color-interpolation-filters="sRGB">
<feFlood flood-opacity="0" result="BackgroundImageFix"/>
<feBlend mode="normal" in="SourceGraphic" in2="BackgroundImageFix" result="shape"/>
<feColorMatrix in="SourceAlpha" type="matrix" values="0 0 0 0 0 0 0 0 0 0 0 0 0 0 0 0 0 0 127 0" result="hardAlpha"/>
<feOffset dx="0.752418" dy="3.00967"/>
<feGaussianBlur stdDeviation="1.50484"/>
<feComposite in2="hardAlpha" operator="arithmetic" k2="-1" k3="1"/>
<feColorMatrix type="matrix" values="0 0 0 0 0 0 0 0 0 0 0 0 0 0 0 0 0 0 0.25 0"/>
<feBlend mode="normal" in2="shape" result="effect1_innerShadow_3_11306"/>
</filter>
<filter id="filter2_i_3_11306" x="108.495" y="257.869" width="6.50484" height="123.42" filterUnits="userSpaceOnUse" color-interpolation-filters="sRGB">
<feFlood flood-opacity="0" result="BackgroundImageFix"/>
<feBlend mode="normal" in="SourceGraphic" in2="BackgroundImageFix" result="shape"/>
<feColorMatrix in="SourceAlpha" type="matrix" values="0 0 0 0 0 0 0 0 0 0 0 0 0 0 0 0 0 0 127 0" result="hardAlpha"/>
<feOffset dx="-1.50484" dy="3.00967"/>
<feGaussianBlur stdDeviation="1.50484"/>
<feComposite in2="hardAlpha" operator="arithmetic" k2="-1" k3="1"/>
<feColorMatrix type="matrix" values="0 0 0 0 0 0 0 0 0 0 0 0 0 0 0 0 0 0 0.25 0"/>
<feBlend mode="normal" in2="shape" result="effect1_innerShadow_3_11306"/>
</filter>
<filter id="filter3_ii_3_11306" x="-47.05" y="108.688" width="356.35" height="290.001" filterUnits="userSpaceOnUse" color-interpolation-filters="sRGB">
<feFlood flood-opacity="0" result="BackgroundImageFix"/>
<feBlend mode="normal" in="SourceGraphic" in2="BackgroundImageFix" result="shape"/>
<feColorMatrix in="SourceAlpha" type="matrix" values="0 0 0 0 0 0 0 0 0 0 0 0 0 0 0 0 0 0 127 0" result="hardAlpha"/>
<feOffset dx="78.02" dy="75.01"/>
<feGaussianBlur stdDeviation="23.15"/>
<feComposite in2="hardAlpha" operator="arithmetic" k2="-1" k3="1"/>
<feColorMatrix type="matrix" values="0 0 0 0 0 0 0 0 0 0 0 0 0 0 0 0 0 0 0.25 0"/>
<feBlend mode="normal" in2="shape" result="effect1_innerShadow_3_11306"/>
<feColorMatrix in="SourceAlpha" type="matrix" values="0 0 0 0 0 0 0 0 0 0 0 0 0 0 0 0 0 0 127 0" result="hardAlpha"/>
<feOffset dx="-56.02" dy="83.01"/>
<feGaussianBlur stdDeviation="23.525"/>
<feComposite in2="hardAlpha" operator="arithmetic" k2="-1" k3="1"/>
<feColorMatrix type="matrix" values="0 0 0 0 1 0 0 0 0 1 0 0 0 0 1 0 0 0 0.2 0"/>
<feBlend mode="normal" in2="effect1_innerShadow_3_11306" result="effect2_innerShadow_3_11306"/>
</filter>
<filter id="filter4_ii_3_11306" x="-45.05" y="79.918" width="351.35" height="296.395" filterUnits="userSpaceOnUse" color-interpolation-filters="sRGB">
<feFlood flood-opacity="0" result="BackgroundImageFix"/>
<feBlend mode="normal" in="SourceGraphic" in2="BackgroundImageFix" result="shape"/>
<feColorMatrix in="SourceAlpha" type="matrix" values="0 0 0 0 0 0 0 0 0 0 0 0 0 0 0 0 0 0 127 0" result="hardAlpha"/>
<feOffset dx="78.02" dy="75.01"/>
<feGaussianBlur stdDeviation="23.15"/>
<feComposite in2="hardAlpha" operator="arithmetic" k2="-1" k3="1"/>
<feColorMatrix type="matrix" values="0 0 0 0 0 0 0 0 0 0 0 0 0 0 0 0 0 0 0.25 0"/>
<feBlend mode="normal" in2="shape" result="effect1_innerShadow_3_11306"/>
<feColorMatrix in="SourceAlpha" type="matrix" values="0 0 0 0 0 0 0 0 0 0 0 0 0 0 0 0 0 0 127 0" result="hardAlpha"/>
<feOffset dx="-56.02" dy="83.01"/>
<feGaussianBlur stdDeviation="23.525"/>
<feComposite in2="hardAlpha" operator="arithmetic" k2="-1" k3="1"/>
<feColorMatrix type="matrix" values="0 0 0 0 1 0 0 0 0 1 0 0 0 0 1 0 0 0 0.2 0"/>
<feBlend mode="normal" in2="effect1_innerShadow_3_11306" result="effect2_innerShadow_3_11306"/>
</filter>
<filter id="filter5_i_3_11306" x="109.495" y="207.787" width="5.50484" height="123.42" filterUnits="userSpaceOnUse" color-interpolation-filters="sRGB">
<feFlood flood-opacity="0" result="BackgroundImageFix"/>
<feBlend mode="normal" in="SourceGraphic" in2="BackgroundImageFix" result="shape"/>
<feColorMatrix in="SourceAlpha" type="matrix" values="0 0 0 0 0 0 0 0 0 0 0 0 0 0 0 0 0 0 127 0" result="hardAlpha"/>
<feOffset dx="-1.50484" dy="3.00967"/>
<feGaussianBlur stdDeviation="1.50484"/>
<feComposite in2="hardAlpha" operator="arithmetic" k2="-1" k3="1"/>
<feColorMatrix type="matrix" values="0 0 0 0 0 0 0 0 0 0 0 0 0 0 0 0 0 0 0.43 0"/>
<feBlend mode="normal" in2="shape" result="effect1_innerShadow_3_11306"/>
</filter>
<filter id="filter6_i_3_11306" x="191" y="234.426" width="10.0097" height="81.8622" filterUnits="userSpaceOnUse" color-interpolation-filters="sRGB">
<feFlood flood-opacity="0" result="BackgroundImageFix"/>
<feBlend mode="normal" in="SourceGraphic" in2="BackgroundImageFix" result="shape"/>
<feColorMatrix in="SourceAlpha" type="matrix" values="0 0 0 0 0 0 0 0 0 0 0 0 0 0 0 0 0 0 127 0" result="hardAlpha"/>
<feOffset dx="3.76209" dy="3.00967"/>
<feGaussianBlur stdDeviation="1.50484"/>
<feComposite in2="hardAlpha" operator="arithmetic" k2="-1" k3="1"/>
<feColorMatrix type="matrix" values="0 0 0 0 0 0 0 0 0 0 0 0 0 0 0 0 0 0 0.25 0"/>
<feBlend mode="normal" in2="shape" result="effect1_innerShadow_3_11306"/>
</filter>
<filter id="filter7_dii_3_11306" x="-36.05" y="28.7705" width="333.35" height="268.69" filterUnits="userSpaceOnUse" color-interpolation-filters="sRGB">
<feFlood flood-opacity="0" result="BackgroundImageFix"/>
<feColorMatrix in="SourceAlpha" type="matrix" values="0 0 0 0 0 0 0 0 0 0 0 0 0 0 0 0 0 0 127 0" result="hardAlpha"/>
<feOffset dy="4"/>
<feComposite in2="hardAlpha" operator="out"/>
<feColorMatrix type="matrix" values="0 0 0 0 0 0 0 0 0 0 0 0 0 0 0 0 0 0 0.25 0"/>
<feBlend mode="normal" in2="BackgroundImageFix" result="effect1_dropShadow_3_11306"/>
<feBlend mode="normal" in="SourceGraphic" in2="effect1_dropShadow_3_11306" result="shape"/>
<feColorMatrix in="SourceAlpha" type="matrix" values="0 0 0 0 0 0 0 0 0 0 0 0 0 0 0 0 0 0 127 0" result="hardAlpha"/>
<feOffset dx="78.02" dy="75.01"/>
<feGaussianBlur stdDeviation="23.15"/>
<feComposite in2="hardAlpha" operator="arithmetic" k2="-1" k3="1"/>
<feColorMatrix type="matrix" values="0 0 0 0 0 0 0 0 0 0 0 0 0 0 0 0 0 0 0.25 0"/>
<feBlend mode="normal" in2="shape" result="effect2_innerShadow_3_11306"/>
<feColorMatrix in="SourceAlpha" type="matrix" values="0 0 0 0 0 0 0 0 0 0 0 0 0 0 0 0 0 0 127 0" result="hardAlpha"/>
<feOffset dx="-56.02" dy="83.01"/>
<feGaussianBlur stdDeviation="23.525"/>
<feComposite in2="hardAlpha" operator="arithmetic" k2="-1" k3="1"/>
<feColorMatrix type="matrix" values="0 0 0 0 1 0 0 0 0 1 0 0 0 0 1 0 0 0 0.2 0"/>
<feBlend mode="normal" in2="effect2_innerShadow_3_11306" result="effect3_innerShadow_3_11306"/>
</filter>
<filter id="filter8_ii_3_11306" x="-31.05" y="7.45898" width="322.35" height="268.69" filterUnits="userSpaceOnUse" color-interpolation-filters="sRGB">
<feFlood flood-opacity="0" result="BackgroundImageFix"/>
<feBlend mode="normal" in="SourceGraphic" in2="BackgroundImageFix" result="shape"/>
<feColorMatrix in="SourceAlpha" type="matrix" values="0 0 0 0 0 0 0 0 0 0 0 0 0 0 0 0 0 0 127 0" result="hardAlpha"/>
<feOffset dx="78.02" dy="75.01"/>
<feGaussianBlur stdDeviation="23.15"/>
<feComposite in2="hardAlpha" operator="arithmetic" k2="-1" k3="1"/>
<feColorMatrix type="matrix" values="0 0 0 0 0 0 0 0 0 0 0 0 0 0 0 0 0 0 0.25 0"/>
<feBlend mode="normal" in2="shape" result="effect1_innerShadow_3_11306"/>
<feColorMatrix in="SourceAlpha" type="matrix" values="0 0 0 0 0 0 0 0 0 0 0 0 0 0 0 0 0 0 127 0" result="hardAlpha"/>
<feOffset dx="-56.02" dy="83.01"/>
<feGaussianBlur stdDeviation="23.525"/>
<feComposite in2="hardAlpha" operator="arithmetic" k2="-1" k3="1"/>
<feColorMatrix type="matrix" values="0 0 0 0 1 0 0 0 0 1 0 0 0 0 1 0 0 0 0.2 0"/>
<feBlend mode="normal" in2="effect1_innerShadow_3_11306" result="effect2_innerShadow_3_11306"/>
</filter>
<filter id="filter9_i_3_11306" x="109.743" y="204.777" width="6.25725" height="23.2558" filterUnits="userSpaceOnUse" color-interpolation-filters="sRGB">
<feFlood flood-opacity="0" result="BackgroundImageFix"/>
<feBlend mode="normal" in="SourceGraphic" in2="BackgroundImageFix" result="shape"/>
<feColorMatrix in="SourceAlpha" type="matrix" values="0 0 0 0 0 0 0 0 0 0 0 0 0 0 0 0 0 0 127 0" result="hardAlpha"/>
<feOffset dx="-2.25725" dy="-10.5338"/>
<feGaussianBlur stdDeviation="1.50484"/>
<feComposite in2="hardAlpha" operator="arithmetic" k2="-1" k3="1"/>
<feColorMatrix type="matrix" values="0 0 0 0 0 0 0 0 0 0 0 0 0 0 0 0 0 0 0.25 0"/>
<feBlend mode="normal" in2="shape" result="effect1_innerShadow_3_11306"/>
</filter>
<filter id="filter10_i_3_11306" x="177" y="198.196" width="15.0097" height="20.0585" filterUnits="userSpaceOnUse" color-interpolation-filters="sRGB">
<feFlood flood-opacity="0" result="BackgroundImageFix"/>
<feBlend mode="normal" in="SourceGraphic" in2="BackgroundImageFix" result="shape"/>
<feColorMatrix in="SourceAlpha" type="matrix" values="0 0 0 0 0 0 0 0 0 0 0 0 0 0 0 0 0 0 127 0" result="hardAlpha"/>
<feOffset dx="4.51451" dy="4.51451"/>
<feGaussianBlur stdDeviation="1.50484"/>
<feComposite in2="hardAlpha" operator="arithmetic" k2="-1" k3="1"/>
<feColorMatrix type="matrix" values="0 0 0 0 0 0 0 0 0 0 0 0 0 0 0 0 0 0 0.25 0"/>
<feBlend mode="normal" in2="shape" result="effect1_innerShadow_3_11306"/>
</filter>
<filter id="filter11_i_3_11306" x="8" y="17.0332" width="227" height="192.885" filterUnits="userSpaceOnUse" color-interpolation-filters="sRGB">
<feFlood flood-opacity="0" result="BackgroundImageFix"/>
<feBlend mode="normal" in="SourceGraphic" in2="BackgroundImageFix" result="shape"/>
<feColorMatrix in="SourceAlpha" type="matrix" values="0 0 0 0 0 0 0 0 0 0 0 0 0 0 0 0 0 0 127 0" result="hardAlpha"/>
<feOffset dx="-24" dy="-16"/>
<feGaussianBlur stdDeviation="10"/>
<feComposite in2="hardAlpha" operator="arithmetic" k2="-1" k3="1"/>
<feColorMatrix type="matrix" values="0 0 0 0 0 0 0 0 0 0 0 0 0 0 0 0 0 0 0.25 0"/>
<feBlend mode="normal" in2="shape" result="effect1_innerShadow_3_11306"/>
</filter>
<filter id="filter12_i_3_11306" x="85.8594" y="61.1777" width="65.585" height="67.5898" filterUnits="userSpaceOnUse" color-interpolation-filters="sRGB">
<feFlood flood-opacity="0" result="BackgroundImageFix"/>
<feBlend mode="normal" in="SourceGraphic" in2="BackgroundImageFix" result="shape"/>
<feColorMatrix in="SourceAlpha" type="matrix" values="0 0 0 0 0 0 0 0 0 0 0 0 0 0 0 0 0 0 127 0" result="hardAlpha"/>
<feOffset dx="14" dy="21"/>
<feGaussianBlur stdDeviation="8"/>
<feComposite in2="hardAlpha" operator="arithmetic" k2="-1" k3="1"/>
<feColorMatrix type="matrix" values="0 0 0 0 0 0 0 0 0 0 0 0 0 0 0 0 0 0 0.25 0"/>
<feBlend mode="normal" in2="shape" result="effect1_innerShadow_3_11306"/>
</filter>
<filter id="filter13_f_3_11306" x="100.22" y="66.6231" width="23.6688" height="21.6405" filterUnits="userSpaceOnUse" color-interpolation-filters="sRGB">
<feFlood flood-opacity="0" result="BackgroundImageFix"/>
<feBlend mode="normal" in="SourceGraphic" in2="BackgroundImageFix" result="shape"/>
<feGaussianBlur stdDeviation="1.35251" result="effect1_foregroundBlur_3_11306"/>
</filter>
<filter id="filter14_f_3_11306" x="105.63" y="71.3575" width="14.2011" height="13.5253" filterUnits="userSpaceOnUse" color-interpolation-filters="sRGB">
<feFlood flood-opacity="0" result="BackgroundImageFix"/>
<feBlend mode="normal" in="SourceGraphic" in2="BackgroundImageFix" result="shape"/>
<feGaussianBlur stdDeviation="1.35251" result="effect1_foregroundBlur_3_11306"/>
</filter>
<filter id="filter15_f_3_11306" x="106.982" y="73.3858" width="10.1435" height="9.46767" filterUnits="userSpaceOnUse" color-interpolation-filters="sRGB">
<feFlood flood-opacity="0" result="BackgroundImageFix"/>
<feBlend mode="normal" in="SourceGraphic" in2="BackgroundImageFix" result="shape"/>
<feGaussianBlur stdDeviation="1.35251" result="effect1_foregroundBlur_3_11306"/>
</filter>
<filter id="filter16_di_3_11306" x="105.945" y="64.9761" width="10.3896" height="17.1587" filterUnits="userSpaceOnUse" color-interpolation-filters="sRGB">
<feFlood flood-opacity="0" result="BackgroundImageFix"/>
<feColorMatrix in="SourceAlpha" type="matrix" values="0 0 0 0 0 0 0 0 0 0 0 0 0 0 0 0 0 0 127 0" result="hardAlpha"/>
<feOffset dy="0.676257"/>
<feGaussianBlur stdDeviation="0.338128"/>
<feComposite in2="hardAlpha" operator="out"/>
<feColorMatrix type="matrix" values="0 0 0 0 0 0 0 0 0 0 0 0 0 0 0 0 0 0 0.25 0"/>
<feBlend mode="normal" in2="BackgroundImageFix" result="effect1_dropShadow_3_11306"/>
<feBlend mode="normal" in="SourceGraphic" in2="effect1_dropShadow_3_11306" result="shape"/>
<feColorMatrix in="SourceAlpha" type="matrix" values="0 0 0 0 0 0 0 0 0 0 0 0 0 0 0 0 0 0 127 0" result="hardAlpha"/>
<feOffset dx="1.35251" dy="-1.35251"/>
<feGaussianBlur stdDeviation="0.338128"/>
<feComposite in2="hardAlpha" operator="arithmetic" k2="-1" k3="1"/>
<feColorMatrix type="matrix" values="0 0 0 0 0 0 0 0 0 0 0 0 0 0 0 0 0 0 0.25 0"/>
<feBlend mode="normal" in2="shape" result="effect2_innerShadow_3_11306"/>
</filter>
<filter id="filter17_f_3_11306" x="96.8584" y="85.3555" width="12.8095" height="11.2265" filterUnits="userSpaceOnUse" color-interpolation-filters="sRGB">
<feFlood flood-opacity="0" result="BackgroundImageFix"/>
<feBlend mode="normal" in="SourceGraphic" in2="BackgroundImageFix" result="shape"/>
<feGaussianBlur stdDeviation="0.676257" result="effect1_foregroundBlur_3_11306"/>
</filter>
<filter id="filter18_iii_3_11306" x="61.5557" y="111.099" width="64.585" height="65.5898" filterUnits="userSpaceOnUse" color-interpolation-filters="sRGB">
<feFlood flood-opacity="0" result="BackgroundImageFix"/>
<feBlend mode="normal" in="SourceGraphic" in2="BackgroundImageFix" result="shape"/>
<feColorMatrix in="SourceAlpha" type="matrix" values="0 0 0 0 0 0 0 0 0 0 0 0 0 0 0 0 0 0 127 0" result="hardAlpha"/>
<feOffset dx="3.38128" dy="-5.41005"/>
<feGaussianBlur stdDeviation="2.02877"/>
<feComposite in2="hardAlpha" operator="arithmetic" k2="-1" k3="1"/>
<feColorMatrix type="matrix" values="0 0 0 0 0 0 0 0 0 0 0 0 0 0 0 0 0 0 0.12 0"/>
<feBlend mode="normal" in2="shape" result="effect1_innerShadow_3_11306"/>
<feColorMatrix in="SourceAlpha" type="matrix" values="0 0 0 0 0 0 0 0 0 0 0 0 0 0 0 0 0 0 127 0" result="hardAlpha"/>
<feOffset dx="5" dy="-6"/>
<feGaussianBlur stdDeviation="4"/>
<feComposite in2="hardAlpha" operator="arithmetic" k2="-1" k3="1"/>
<feColorMatrix type="matrix" values="0 0 0 0 0 0 0 0 0 0 0 0 0 0 0 0 0 0 0.2 0"/>
<feBlend mode="normal" in2="effect1_innerShadow_3_11306" result="effect2_innerShadow_3_11306"/>
<feColorMatrix in="SourceAlpha" type="matrix" values="0 0 0 0 0 0 0 0 0 0 0 0 0 0 0 0 0 0 127 0" result="hardAlpha"/>
<feOffset dx="-12" dy="8.32"/>
<feGaussianBlur stdDeviation="4"/>
<feComposite in2="hardAlpha" operator="arithmetic" k2="-1" k3="1"/>
<feColorMatrix type="matrix" values="0 0 0 0 1 0 0 0 0 1 0 0 0 0 1 0 0 0 0.15 0"/>
<feBlend mode="normal" in2="effect2_innerShadow_3_11306" result="effect3_innerShadow_3_11306"/>
</filter>
<filter id="filter19_f_3_11306" x="83.1114" y="148.604" width="23.6688" height="21.6405" filterUnits="userSpaceOnUse" color-interpolation-filters="sRGB">
<feFlood flood-opacity="0" result="BackgroundImageFix"/>
<feBlend mode="normal" in="SourceGraphic" in2="BackgroundImageFix" result="shape"/>
<feGaussianBlur stdDeviation="1.35251" result="effect1_foregroundBlur_3_11306"/>
</filter>
<filter id="filter20_f_3_11306" x="87.169" y="151.984" width="14.2011" height="13.5253" filterUnits="userSpaceOnUse" color-interpolation-filters="sRGB">
<feFlood flood-opacity="0" result="BackgroundImageFix"/>
<feBlend mode="normal" in="SourceGraphic" in2="BackgroundImageFix" result="shape"/>
<feGaussianBlur stdDeviation="1.35251" result="effect1_foregroundBlur_3_11306"/>
</filter>
<filter id="filter21_f_3_11306" x="89.8741" y="154.013" width="10.1435" height="9.46767" filterUnits="userSpaceOnUse" color-interpolation-filters="sRGB">
<feFlood flood-opacity="0" result="BackgroundImageFix"/>
<feBlend mode="normal" in="SourceGraphic" in2="BackgroundImageFix" result="shape"/>
<feGaussianBlur stdDeviation="1.35251" result="effect1_foregroundBlur_3_11306"/>
</filter>
<filter id="filter22_di_3_11306" x="90.6655" y="155.409" width="10.3896" height="17.1587" filterUnits="userSpaceOnUse" color-interpolation-filters="sRGB">
<feFlood flood-opacity="0" result="BackgroundImageFix"/>
<feColorMatrix in="SourceAlpha" type="matrix" values="0 0 0 0 0 0 0 0 0 0 0 0 0 0 0 0 0 0 127 0" result="hardAlpha"/>
<feOffset dy="0.676257"/>
<feGaussianBlur stdDeviation="0.338128"/>
<feComposite in2="hardAlpha" operator="out"/>
<feColorMatrix type="matrix" values="0 0 0 0 0 0 0 0 0 0 0 0 0 0 0 0 0 0 0.25 0"/>
<feBlend mode="normal" in2="BackgroundImageFix" result="effect1_dropShadow_3_11306"/>
<feBlend mode="normal" in="SourceGraphic" in2="effect1_dropShadow_3_11306" result="shape"/>
<feColorMatrix in="SourceAlpha" type="matrix" values="0 0 0 0 0 0 0 0 0 0 0 0 0 0 0 0 0 0 127 0" result="hardAlpha"/>
<feOffset dx="1.35251" dy="-1.35251"/>
<feGaussianBlur stdDeviation="0.338128"/>
<feComposite in2="hardAlpha" operator="arithmetic" k2="-1" k3="1"/>
<feColorMatrix type="matrix" values="0 0 0 0 0 0 0 0 0 0 0 0 0 0 0 0 0 0 0.25 0"/>
<feBlend mode="normal" in2="shape" result="effect2_innerShadow_3_11306"/>
</filter>
<filter id="filter23_f_3_11306" x="97.3321" y="140.285" width="12.8095" height="11.2265" filterUnits="userSpaceOnUse" color-interpolation-filters="sRGB">
<feFlood flood-opacity="0" result="BackgroundImageFix"/>
<feBlend mode="normal" in="SourceGraphic" in2="BackgroundImageFix" result="shape"/>
<feGaussianBlur stdDeviation="0.676257" result="effect1_foregroundBlur_3_11306"/>
</filter>
<filter id="filter24_i_3_11306" x="143.556" y="91.1777" width="65.585" height="67.5898" filterUnits="userSpaceOnUse" color-interpolation-filters="sRGB">
<feFlood flood-opacity="0" result="BackgroundImageFix"/>
<feBlend mode="normal" in="SourceGraphic" in2="BackgroundImageFix" result="shape"/>
<feColorMatrix in="SourceAlpha" type="matrix" values="0 0 0 0 0 0 0 0 0 0 0 0 0 0 0 0 0 0 127 0" result="hardAlpha"/>
<feOffset dx="14" dy="21"/>
<feGaussianBlur stdDeviation="8"/>
<feComposite in2="hardAlpha" operator="arithmetic" k2="-1" k3="1"/>
<feColorMatrix type="matrix" values="0 0 0 0 0 0 0 0 0 0 0 0 0 0 0 0 0 0 0.25 0"/>
<feBlend mode="normal" in2="shape" result="effect1_innerShadow_3_11306"/>
</filter>
<filter id="filter25_f_3_11306" x="157.111" y="96.6231" width="23.6688" height="21.6405" filterUnits="userSpaceOnUse" color-interpolation-filters="sRGB">
<feFlood flood-opacity="0" result="BackgroundImageFix"/>
<feBlend mode="normal" in="SourceGraphic" in2="BackgroundImageFix" result="shape"/>
<feGaussianBlur stdDeviation="1.35251" result="effect1_foregroundBlur_3_11306"/>
</filter>
<filter id="filter26_f_3_11306" x="161.169" y="101.357" width="14.2011" height="13.5253" filterUnits="userSpaceOnUse" color-interpolation-filters="sRGB">
<feFlood flood-opacity="0" result="BackgroundImageFix"/>
<feBlend mode="normal" in="SourceGraphic" in2="BackgroundImageFix" result="shape"/>
<feGaussianBlur stdDeviation="1.35251" result="effect1_foregroundBlur_3_11306"/>
</filter>
<filter id="filter27_f_3_11306" x="163.874" y="103.386" width="10.1435" height="9.46767" filterUnits="userSpaceOnUse" color-interpolation-filters="sRGB">
<feFlood flood-opacity="0" result="BackgroundImageFix"/>
<feBlend mode="normal" in="SourceGraphic" in2="BackgroundImageFix" result="shape"/>
<feGaussianBlur stdDeviation="1.35251" result="effect1_foregroundBlur_3_11306"/>
</filter>
<filter id="filter28_di_3_11306" x="164.666" y="94.9761" width="10.3896" height="17.1587" filterUnits="userSpaceOnUse" color-interpolation-filters="sRGB">
<feFlood flood-opacity="0" result="BackgroundImageFix"/>
<feColorMatrix in="SourceAlpha" type="matrix" values="0 0 0 0 0 0 0 0 0 0 0 0 0 0 0 0 0 0 127 0" result="hardAlpha"/>
<feOffset dy="0.676257"/>
<feGaussianBlur stdDeviation="0.338128"/>
<feComposite in2="hardAlpha" operator="out"/>
<feColorMatrix type="matrix" values="0 0 0 0 0 0 0 0 0 0 0 0 0 0 0 0 0 0 0.25 0"/>
<feBlend mode="normal" in2="BackgroundImageFix" result="effect1_dropShadow_3_11306"/>
<feBlend mode="normal" in="SourceGraphic" in2="effect1_dropShadow_3_11306" result="shape"/>
<feColorMatrix in="SourceAlpha" type="matrix" values="0 0 0 0 0 0 0 0 0 0 0 0 0 0 0 0 0 0 127 0" result="hardAlpha"/>
<feOffset dx="1.35251" dy="-1.35251"/>
<feGaussianBlur stdDeviation="0.338128"/>
<feComposite in2="hardAlpha" operator="arithmetic" k2="-1" k3="1"/>
<feColorMatrix type="matrix" values="0 0 0 0 0 0 0 0 0 0 0 0 0 0 0 0 0 0 0.25 0"/>
<feBlend mode="normal" in2="shape" result="effect2_innerShadow_3_11306"/>
</filter>
<filter id="filter29_f_3_11306" x="171.332" y="115.355" width="12.8095" height="11.2265" filterUnits="userSpaceOnUse" color-interpolation-filters="sRGB">
<feFlood flood-opacity="0" result="BackgroundImageFix"/>
<feBlend mode="normal" in="SourceGraphic" in2="BackgroundImageFix" result="shape"/>
<feGaussianBlur stdDeviation="0.676257" result="effect1_foregroundBlur_3_11306"/>
</filter>
<linearGradient id="paint0_linear_3_11306" x1="59.5" y1="27.7041" x2="59.5" y2="46.8844" gradientUnits="userSpaceOnUse">
<stop stop-color="#AC711B" stop-opacity="0"/>
<stop offset="0.291667" stop-color="#613B04" stop-opacity="0.0844156"/>
<stop offset="1" stop-color="#613B04"/>
</linearGradient>
</defs>
</svg>
