<svg width="460" height="540" viewBox="0 0 460 540" fill="none" xmlns="http://www.w3.org/2000/svg">
<g clip-path="url(#clip0_2621_326225)">
<g filter="url(#filter0_i_2621_326225)">
<path d="M251 188.241C257.964 187.725 274.212 179.266 283.496 149.555C290.857 126 287.493 104.814 283.496 87.6569C279.5 70.5 268.796 12.6058 351.584 1C340.494 12.09 320.854 41.0073 326.5 65C332.146 88.9927 351.326 96.1679 357 95.3942C347.715 100.552 333.5 111.5 329.146 134.5C324.991 156.451 334.405 185.452 337.963 188.053C338.123 188.115 338.279 188.178 338.431 188.241C338.289 188.241 338.133 188.177 337.963 188.053C323.081 182.285 269.303 181.342 251 213V188.241Z" fill="#292524"/>
</g>
<g filter="url(#filter1_i_2621_326225)">
<path d="M209 188.241C202.036 187.725 185.788 179.266 176.504 149.555C169.143 126 172.507 104.814 176.504 87.6569C180.5 70.5 191.204 12.6058 108.416 1C119.506 12.09 139.146 41.0073 133.5 65C127.854 88.9927 108.674 96.1679 103 95.3942C112.285 100.552 126.5 111.5 130.854 134.5C135.009 156.451 125.595 185.452 122.037 188.053C121.877 188.115 121.721 188.178 121.569 188.241C121.711 188.241 121.867 188.177 122.037 188.053C136.919 182.285 190.697 181.342 209 213V188.241Z" fill="#292524"/>
</g>
<g filter="url(#filter2_d_2621_326225)">
<path d="M344.498 4.5C323.665 13.1667 288.5 36 288.5 108.5" stroke="white" stroke-opacity="0.2" shape-rendering="crispEdges"/>
</g>
<g filter="url(#filter3_d_2621_326225)">
<path d="M115.502 4.5C136.335 13.1667 171.5 36 171.5 108.5" stroke="white" stroke-opacity="0.2" shape-rendering="crispEdges"/>
</g>
<g filter="url(#filter4_d_2621_326225)">
<path d="M349 97C307.5 105.5 290.5 153.5 286.5 161.5C282.5 169.5 274.1 183.7 254.5 190.5" stroke="white" stroke-opacity="0.2" shape-rendering="crispEdges"/>
</g>
<g filter="url(#filter5_d_2621_326225)">
<path d="M111 97C152.5 105.5 169.5 153.5 173.5 161.5C177.5 169.5 185.9 183.7 205.5 190.5" stroke="white" stroke-opacity="0.2" shape-rendering="crispEdges"/>
</g>
<path d="M332 182.501C307 157.5 277.5 188 254 196.001" stroke="white" stroke-opacity="0.2"/>
<path d="M128 182.501C153 157.5 182.5 188 206 196.001" stroke="white" stroke-opacity="0.2"/>
<path d="M237 159.412C237 161.946 234.538 164 231.5 164C228.462 164 226 161.946 226 159.412C226 156.878 228.462 152 231.5 152C234.538 152 237 156.878 237 159.412Z" fill="#292524"/>
<g filter="url(#filter6_i_2621_326225)">
<path d="M260 200C260 214.359 247.24 226 231.5 226C215.76 226 203 214.359 203 200C203 185.641 215.76 158 231.5 158C247.24 158 260 185.641 260 200Z" fill="#292524"/>
</g>
<g filter="url(#filter7_ii_2621_326225)">
<ellipse cx="231.5" cy="206" rx="28.5" ry="26" fill="#292524"/>
</g>
<g filter="url(#filter8_i_2621_326225)">
<path d="M241.575 214.499C240.305 212.299 242.294 211.605 244.504 210.329C246.715 209.053 248.31 207.677 249.58 209.877C250.849 212.076 250.087 214.894 247.876 216.17C245.666 217.446 242.844 216.698 241.575 214.499Z" fill="#EAB308"/>
</g>
<g style="mix-blend-mode:soft-light" filter="url(#filter9_f_2621_326225)">
<path d="M241.575 214.499C240.305 212.299 242.294 211.605 244.504 210.329C246.715 209.053 248.31 207.677 249.58 209.877C250.849 212.076 250.087 214.894 247.876 216.17C245.666 217.446 242.844 216.698 241.575 214.499Z" fill="#EAB308"/>
</g>
<g style="mix-blend-mode:overlay" filter="url(#filter10_f_2621_326225)">
<path d="M243.367 213.989C242.586 212.637 243.808 212.211 245.167 211.426C246.525 210.642 247.506 209.797 248.286 211.148C249.067 212.5 248.598 214.232 247.239 215.016C245.881 215.8 244.147 215.34 243.367 213.989Z" fill="#FEF9C3"/>
</g>
<g filter="url(#filter11_i_2621_326225)">
<path d="M221.304 214.499C222.574 212.299 220.585 211.605 218.375 210.329C216.164 209.053 214.569 207.677 213.299 209.877C212.029 212.076 212.792 214.894 215.003 216.17C217.213 217.446 220.034 216.698 221.304 214.499Z" fill="#EAB308"/>
</g>
<g style="mix-blend-mode:soft-light" filter="url(#filter12_f_2621_326225)">
<path d="M221.304 214.499C222.574 212.299 220.585 211.605 218.375 210.329C216.164 209.053 214.569 207.677 213.299 209.877C212.029 212.076 212.792 214.894 215.003 216.17C217.213 217.446 220.034 216.698 221.304 214.499Z" fill="#EAB308"/>
</g>
<g style="mix-blend-mode:overlay" filter="url(#filter13_f_2621_326225)">
<path d="M219.512 213.989C220.293 212.637 219.07 212.211 217.712 211.426C216.353 210.642 215.373 209.797 214.593 211.148C213.812 212.5 214.281 214.232 215.639 215.016C216.998 215.8 218.732 215.34 219.512 213.989Z" fill="#FEF9C3"/>
</g>
<g filter="url(#filter14_i_2621_326225)">
<path d="M195.412 181.174C194.592 190.05 200.71 198.597 204.612 202.562C205.174 203.132 206.036 203.268 206.738 202.885C212.6 199.693 216.24 193.675 217.735 190.1C218.027 189.4 217.84 188.6 217.282 188.086C209.311 180.743 199.467 180.388 195.412 181.174Z" fill="#292524"/>
</g>
<g filter="url(#filter15_i_2621_326225)">
<path d="M268.244 181.246C269.064 190.122 262.947 198.669 259.044 202.634C258.482 203.204 257.62 203.34 256.918 202.957C251.056 199.765 247.416 193.747 245.921 190.172C245.629 189.472 245.816 188.672 246.374 188.158C254.345 180.815 264.19 180.46 268.244 181.246Z" fill="#292524"/>
</g>
<g filter="url(#filter16_f_2621_326225)">
<path d="M261.358 188.185C262.019 195.337 256.612 202.202 253.826 204.74C248.42 202.281 245.33 196.525 244.46 193.955C250.483 187.887 258.235 187.58 261.358 188.185Z" fill="#44403C"/>
</g>
<g filter="url(#filter17_f_2621_326225)">
<path d="M202.791 188.185C202.13 195.337 207.537 202.202 210.323 204.74C215.728 202.281 218.819 196.525 219.688 193.955C213.665 187.887 205.914 187.58 202.791 188.185Z" fill="#44403C"/>
</g>
<g filter="url(#filter18_i_2621_326225)">
<path d="M243.062 231.089C239.825 231.446 238.8 232.054 234.926 231.9L238.155 237.844C238.547 238.566 239.594 238.533 239.941 237.789L243.062 231.089Z" fill="#E7E5E4"/>
</g>
<g filter="url(#filter19_i_2621_326225)">
<path d="M220 231.089C223.237 231.446 224.262 232.054 228.136 231.9L224.906 237.844C224.514 238.566 223.468 238.533 223.121 237.789L220 231.089Z" fill="#E7E5E4"/>
</g>
<g filter="url(#filter20_ii_2621_326225)">
<path d="M246 223.531C246 230.78 239.508 236 231.5 236C223.492 236 217 230.78 217 223.531C217 216.283 223.492 215 231.5 215C239.508 215 246 216.283 246 223.531Z" fill="#292524"/>
</g>
<rect x="231.25" y="225.25" width="0.5" height="10.5" fill="black" stroke="black" stroke-width="0.5"/>
<g opacity="0.7" filter="url(#filter21_i_2621_326225)">
<path d="M227.716 225.21C230.516 225.515 232.562 225.51 235.259 225.215C236.029 225.131 236.393 224.23 235.877 223.652C234.942 222.604 234.006 221.767 232.585 220.749C231.935 220.284 231.06 220.276 230.404 220.734C228.929 221.763 227.999 222.606 227.087 223.656C226.583 224.237 226.951 225.127 227.716 225.21Z" fill="#F87171"/>
</g>
<g filter="url(#filter22_f_2621_326225)">
<ellipse cx="230.5" cy="462.5" rx="86.5" ry="48.5" fill="black" fill-opacity="0.12"/>
</g>
</g>
<defs>
<filter id="filter0_i_2621_326225" x="243" y="1" width="114" height="216" filterUnits="userSpaceOnUse" color-interpolation-filters="sRGB">
<feFlood flood-opacity="0" result="BackgroundImageFix"/>
<feBlend mode="normal" in="SourceGraphic" in2="BackgroundImageFix" result="shape"/>
<feColorMatrix in="SourceAlpha" type="matrix" values="0 0 0 0 0 0 0 0 0 0 0 0 0 0 0 0 0 0 127 0" result="hardAlpha"/>
<feOffset dx="-8" dy="4"/>
<feGaussianBlur stdDeviation="14"/>
<feComposite in2="hardAlpha" operator="arithmetic" k2="-1" k3="1"/>
<feColorMatrix type="matrix" values="0 0 0 0 1 0 0 0 0 1 0 0 0 0 1 0 0 0 0.25 0"/>
<feBlend mode="normal" in2="shape" result="effect1_innerShadow_2621_326225"/>
</filter>
<filter id="filter1_i_2621_326225" x="95" y="1" width="114" height="216" filterUnits="userSpaceOnUse" color-interpolation-filters="sRGB">
<feFlood flood-opacity="0" result="BackgroundImageFix"/>
<feBlend mode="normal" in="SourceGraphic" in2="BackgroundImageFix" result="shape"/>
<feColorMatrix in="SourceAlpha" type="matrix" values="0 0 0 0 0 0 0 0 0 0 0 0 0 0 0 0 0 0 127 0" result="hardAlpha"/>
<feOffset dx="-8" dy="4"/>
<feGaussianBlur stdDeviation="14"/>
<feComposite in2="hardAlpha" operator="arithmetic" k2="-1" k3="1"/>
<feColorMatrix type="matrix" values="0 0 0 0 1 0 0 0 0 1 0 0 0 0 1 0 0 0 0.25 0"/>
<feBlend mode="normal" in2="shape" result="effect1_innerShadow_2621_326225"/>
</filter>
<filter id="filter2_d_2621_326225" x="286" y="4.03906" width="60.6904" height="108.461" filterUnits="userSpaceOnUse" color-interpolation-filters="sRGB">
<feFlood flood-opacity="0" result="BackgroundImageFix"/>
<feColorMatrix in="SourceAlpha" type="matrix" values="0 0 0 0 0 0 0 0 0 0 0 0 0 0 0 0 0 0 127 0" result="hardAlpha"/>
<feOffset dy="2"/>
<feGaussianBlur stdDeviation="1"/>
<feComposite in2="hardAlpha" operator="out"/>
<feColorMatrix type="matrix" values="0 0 0 0 0 0 0 0 0 0 0 0 0 0 0 0 0 0 0.38 0"/>
<feBlend mode="normal" in2="BackgroundImageFix" result="effect1_dropShadow_2621_326225"/>
<feBlend mode="normal" in="SourceGraphic" in2="effect1_dropShadow_2621_326225" result="shape"/>
</filter>
<filter id="filter3_d_2621_326225" x="113.31" y="4.03906" width="60.6904" height="108.461" filterUnits="userSpaceOnUse" color-interpolation-filters="sRGB">
<feFlood flood-opacity="0" result="BackgroundImageFix"/>
<feColorMatrix in="SourceAlpha" type="matrix" values="0 0 0 0 0 0 0 0 0 0 0 0 0 0 0 0 0 0 127 0" result="hardAlpha"/>
<feOffset dy="2"/>
<feGaussianBlur stdDeviation="1"/>
<feComposite in2="hardAlpha" operator="out"/>
<feColorMatrix type="matrix" values="0 0 0 0 0 0 0 0 0 0 0 0 0 0 0 0 0 0 0.38 0"/>
<feBlend mode="normal" in2="BackgroundImageFix" result="effect1_dropShadow_2621_326225"/>
<feBlend mode="normal" in="SourceGraphic" in2="effect1_dropShadow_2621_326225" result="shape"/>
</filter>
<filter id="filter4_d_2621_326225" x="252.336" y="96.5098" width="98.7646" height="98.4629" filterUnits="userSpaceOnUse" color-interpolation-filters="sRGB">
<feFlood flood-opacity="0" result="BackgroundImageFix"/>
<feColorMatrix in="SourceAlpha" type="matrix" values="0 0 0 0 0 0 0 0 0 0 0 0 0 0 0 0 0 0 127 0" result="hardAlpha"/>
<feOffset dy="2"/>
<feGaussianBlur stdDeviation="1"/>
<feComposite in2="hardAlpha" operator="out"/>
<feColorMatrix type="matrix" values="0 0 0 0 0 0 0 0 0 0 0 0 0 0 0 0 0 0 0.38 0"/>
<feBlend mode="normal" in2="BackgroundImageFix" result="effect1_dropShadow_2621_326225"/>
<feBlend mode="normal" in="SourceGraphic" in2="effect1_dropShadow_2621_326225" result="shape"/>
</filter>
<filter id="filter5_d_2621_326225" x="108.899" y="96.5098" width="98.7646" height="98.4629" filterUnits="userSpaceOnUse" color-interpolation-filters="sRGB">
<feFlood flood-opacity="0" result="BackgroundImageFix"/>
<feColorMatrix in="SourceAlpha" type="matrix" values="0 0 0 0 0 0 0 0 0 0 0 0 0 0 0 0 0 0 127 0" result="hardAlpha"/>
<feOffset dy="2"/>
<feGaussianBlur stdDeviation="1"/>
<feComposite in2="hardAlpha" operator="out"/>
<feColorMatrix type="matrix" values="0 0 0 0 0 0 0 0 0 0 0 0 0 0 0 0 0 0 0.38 0"/>
<feBlend mode="normal" in2="BackgroundImageFix" result="effect1_dropShadow_2621_326225"/>
<feBlend mode="normal" in="SourceGraphic" in2="effect1_dropShadow_2621_326225" result="shape"/>
</filter>
<filter id="filter6_i_2621_326225" x="195" y="158" width="65" height="72" filterUnits="userSpaceOnUse" color-interpolation-filters="sRGB">
<feFlood flood-opacity="0" result="BackgroundImageFix"/>
<feBlend mode="normal" in="SourceGraphic" in2="BackgroundImageFix" result="shape"/>
<feColorMatrix in="SourceAlpha" type="matrix" values="0 0 0 0 0 0 0 0 0 0 0 0 0 0 0 0 0 0 127 0" result="hardAlpha"/>
<feOffset dx="-8" dy="4"/>
<feGaussianBlur stdDeviation="14"/>
<feComposite in2="hardAlpha" operator="arithmetic" k2="-1" k3="1"/>
<feColorMatrix type="matrix" values="0 0 0 0 1 0 0 0 0 1 0 0 0 0 1 0 0 0 0.25 0"/>
<feBlend mode="normal" in2="shape" result="effect1_innerShadow_2621_326225"/>
</filter>
<filter id="filter7_ii_2621_326225" x="195" y="176" width="65" height="60" filterUnits="userSpaceOnUse" color-interpolation-filters="sRGB">
<feFlood flood-opacity="0" result="BackgroundImageFix"/>
<feBlend mode="normal" in="SourceGraphic" in2="BackgroundImageFix" result="shape"/>
<feColorMatrix in="SourceAlpha" type="matrix" values="0 0 0 0 0 0 0 0 0 0 0 0 0 0 0 0 0 0 127 0" result="hardAlpha"/>
<feOffset dy="-20"/>
<feGaussianBlur stdDeviation="2"/>
<feComposite in2="hardAlpha" operator="arithmetic" k2="-1" k3="1"/>
<feColorMatrix type="matrix" values="0 0 0 0 0 0 0 0 0 0 0 0 0 0 0 0 0 0 0.25 0"/>
<feBlend mode="normal" in2="shape" result="effect1_innerShadow_2621_326225"/>
<feColorMatrix in="SourceAlpha" type="matrix" values="0 0 0 0 0 0 0 0 0 0 0 0 0 0 0 0 0 0 127 0" result="hardAlpha"/>
<feOffset dx="-8" dy="4"/>
<feGaussianBlur stdDeviation="14"/>
<feComposite in2="hardAlpha" operator="arithmetic" k2="-1" k3="1"/>
<feColorMatrix type="matrix" values="0 0 0 0 1 0 0 0 0 1 0 0 0 0 1 0 0 0 0.25 0"/>
<feBlend mode="normal" in2="effect1_innerShadow_2621_326225" result="effect2_innerShadow_2621_326225"/>
</filter>
<filter id="filter8_i_2621_326225" x="241.177" y="208.112" width="9.62096" height="8.68053" filterUnits="userSpaceOnUse" color-interpolation-filters="sRGB">
<feFlood flood-opacity="0" result="BackgroundImageFix"/>
<feBlend mode="normal" in="SourceGraphic" in2="BackgroundImageFix" result="shape"/>
<feColorMatrix in="SourceAlpha" type="matrix" values="0 0 0 0 0 0 0 0 0 0 0 0 0 0 0 0 0 0 127 0" result="hardAlpha"/>
<feOffset dx="0.604355" dy="-0.604355"/>
<feGaussianBlur stdDeviation="0.402903"/>
<feComposite in2="hardAlpha" operator="arithmetic" k2="-1" k3="1"/>
<feColorMatrix type="matrix" values="0 0 0 0 0 0 0 0 0 0 0 0 0 0 0 0 0 0 0.25 0"/>
<feBlend mode="normal" in2="shape" result="effect1_innerShadow_2621_326225"/>
</filter>
<filter id="filter9_f_2621_326225" x="238.155" y="205.695" width="15.0602" height="14.1197" filterUnits="userSpaceOnUse" color-interpolation-filters="sRGB">
<feFlood flood-opacity="0" result="BackgroundImageFix"/>
<feBlend mode="normal" in="SourceGraphic" in2="BackgroundImageFix" result="shape"/>
<feGaussianBlur stdDeviation="1.51089" result="effect1_foregroundBlur_2621_326225"/>
</filter>
<filter id="filter10_f_2621_326225" x="240.1" y="207.414" width="11.5855" height="11.0064" filterUnits="userSpaceOnUse" color-interpolation-filters="sRGB">
<feFlood flood-opacity="0" result="BackgroundImageFix"/>
<feBlend mode="normal" in="SourceGraphic" in2="BackgroundImageFix" result="shape"/>
<feGaussianBlur stdDeviation="1.51089" result="effect1_foregroundBlur_2621_326225"/>
</filter>
<filter id="filter11_i_2621_326225" x="212.686" y="208.112" width="9.62096" height="8.68053" filterUnits="userSpaceOnUse" color-interpolation-filters="sRGB">
<feFlood flood-opacity="0" result="BackgroundImageFix"/>
<feBlend mode="normal" in="SourceGraphic" in2="BackgroundImageFix" result="shape"/>
<feColorMatrix in="SourceAlpha" type="matrix" values="0 0 0 0 0 0 0 0 0 0 0 0 0 0 0 0 0 0 127 0" result="hardAlpha"/>
<feOffset dx="0.604355" dy="-0.604355"/>
<feGaussianBlur stdDeviation="0.402903"/>
<feComposite in2="hardAlpha" operator="arithmetic" k2="-1" k3="1"/>
<feColorMatrix type="matrix" values="0 0 0 0 0 0 0 0 0 0 0 0 0 0 0 0 0 0 0.25 0"/>
<feBlend mode="normal" in2="shape" result="effect1_innerShadow_2621_326225"/>
</filter>
<filter id="filter12_f_2621_326225" x="209.664" y="205.695" width="15.0602" height="14.1197" filterUnits="userSpaceOnUse" color-interpolation-filters="sRGB">
<feFlood flood-opacity="0" result="BackgroundImageFix"/>
<feBlend mode="normal" in="SourceGraphic" in2="BackgroundImageFix" result="shape"/>
<feGaussianBlur stdDeviation="1.51089" result="effect1_foregroundBlur_2621_326225"/>
</filter>
<filter id="filter13_f_2621_326225" x="211.193" y="207.414" width="11.5855" height="11.0064" filterUnits="userSpaceOnUse" color-interpolation-filters="sRGB">
<feFlood flood-opacity="0" result="BackgroundImageFix"/>
<feBlend mode="normal" in="SourceGraphic" in2="BackgroundImageFix" result="shape"/>
<feGaussianBlur stdDeviation="1.51089" result="effect1_foregroundBlur_2621_326225"/>
</filter>
<filter id="filter14_i_2621_326225" x="195.338" y="180.883" width="26.5342" height="22.2188" filterUnits="userSpaceOnUse" color-interpolation-filters="sRGB">
<feFlood flood-opacity="0" result="BackgroundImageFix"/>
<feBlend mode="normal" in="SourceGraphic" in2="BackgroundImageFix" result="shape"/>
<feColorMatrix in="SourceAlpha" type="matrix" values="0 0 0 0 0 0 0 0 0 0 0 0 0 0 0 0 0 0 127 0" result="hardAlpha"/>
<feOffset dx="8"/>
<feGaussianBlur stdDeviation="2"/>
<feComposite in2="hardAlpha" operator="arithmetic" k2="-1" k3="1"/>
<feColorMatrix type="matrix" values="0 0 0 0 0 0 0 0 0 0 0 0 0 0 0 0 0 0 0.25 0"/>
<feBlend mode="normal" in2="shape" result="effect1_innerShadow_2621_326225"/>
</filter>
<filter id="filter15_i_2621_326225" x="245.784" y="180.955" width="26.5342" height="22.2188" filterUnits="userSpaceOnUse" color-interpolation-filters="sRGB">
<feFlood flood-opacity="0" result="BackgroundImageFix"/>
<feBlend mode="normal" in="SourceGraphic" in2="BackgroundImageFix" result="shape"/>
<feColorMatrix in="SourceAlpha" type="matrix" values="0 0 0 0 0 0 0 0 0 0 0 0 0 0 0 0 0 0 127 0" result="hardAlpha"/>
<feOffset dx="8"/>
<feGaussianBlur stdDeviation="2"/>
<feComposite in2="hardAlpha" operator="arithmetic" k2="-1" k3="1"/>
<feColorMatrix type="matrix" values="0 0 0 0 0 0 0 0 0 0 0 0 0 0 0 0 0 0 0.25 0"/>
<feBlend mode="normal" in2="shape" result="effect1_innerShadow_2621_326225"/>
</filter>
<filter id="filter16_f_2621_326225" x="240.46" y="183.969" width="24.9531" height="24.7715" filterUnits="userSpaceOnUse" color-interpolation-filters="sRGB">
<feFlood flood-opacity="0" result="BackgroundImageFix"/>
<feBlend mode="normal" in="SourceGraphic" in2="BackgroundImageFix" result="shape"/>
<feGaussianBlur stdDeviation="2" result="effect1_foregroundBlur_2621_326225"/>
</filter>
<filter id="filter17_f_2621_326225" x="198.735" y="183.969" width="24.9531" height="24.7715" filterUnits="userSpaceOnUse" color-interpolation-filters="sRGB">
<feFlood flood-opacity="0" result="BackgroundImageFix"/>
<feBlend mode="normal" in="SourceGraphic" in2="BackgroundImageFix" result="shape"/>
<feGaussianBlur stdDeviation="2" result="effect1_foregroundBlur_2621_326225"/>
</filter>
<filter id="filter18_i_2621_326225" x="234.926" y="231.09" width="9.13574" height="8.27734" filterUnits="userSpaceOnUse" color-interpolation-filters="sRGB">
<feFlood flood-opacity="0" result="BackgroundImageFix"/>
<feBlend mode="normal" in="SourceGraphic" in2="BackgroundImageFix" result="shape"/>
<feColorMatrix in="SourceAlpha" type="matrix" values="0 0 0 0 0 0 0 0 0 0 0 0 0 0 0 0 0 0 127 0" result="hardAlpha"/>
<feOffset dx="2" dy="1"/>
<feGaussianBlur stdDeviation="0.5"/>
<feComposite in2="hardAlpha" operator="arithmetic" k2="-1" k3="1"/>
<feColorMatrix type="matrix" values="0 0 0 0 0 0 0 0 0 0 0 0 0 0 0 0 0 0 0.25 0"/>
<feBlend mode="normal" in2="shape" result="effect1_innerShadow_2621_326225"/>
</filter>
<filter id="filter19_i_2621_326225" x="220" y="231.09" width="9.13574" height="8.27734" filterUnits="userSpaceOnUse" color-interpolation-filters="sRGB">
<feFlood flood-opacity="0" result="BackgroundImageFix"/>
<feBlend mode="normal" in="SourceGraphic" in2="BackgroundImageFix" result="shape"/>
<feColorMatrix in="SourceAlpha" type="matrix" values="0 0 0 0 0 0 0 0 0 0 0 0 0 0 0 0 0 0 127 0" result="hardAlpha"/>
<feOffset dx="2" dy="1"/>
<feGaussianBlur stdDeviation="0.5"/>
<feComposite in2="hardAlpha" operator="arithmetic" k2="-1" k3="1"/>
<feColorMatrix type="matrix" values="0 0 0 0 0 0 0 0 0 0 0 0 0 0 0 0 0 0 0.25 0"/>
<feBlend mode="normal" in2="shape" result="effect1_innerShadow_2621_326225"/>
</filter>
<filter id="filter20_ii_2621_326225" x="209" y="211" width="37" height="29" filterUnits="userSpaceOnUse" color-interpolation-filters="sRGB">
<feFlood flood-opacity="0" result="BackgroundImageFix"/>
<feBlend mode="normal" in="SourceGraphic" in2="BackgroundImageFix" result="shape"/>
<feColorMatrix in="SourceAlpha" type="matrix" values="0 0 0 0 0 0 0 0 0 0 0 0 0 0 0 0 0 0 127 0" result="hardAlpha"/>
<feOffset dy="-20"/>
<feGaussianBlur stdDeviation="2"/>
<feComposite in2="hardAlpha" operator="arithmetic" k2="-1" k3="1"/>
<feColorMatrix type="matrix" values="0 0 0 0 0 0 0 0 0 0 0 0 0 0 0 0 0 0 0.25 0"/>
<feBlend mode="normal" in2="shape" result="effect1_innerShadow_2621_326225"/>
<feColorMatrix in="SourceAlpha" type="matrix" values="0 0 0 0 0 0 0 0 0 0 0 0 0 0 0 0 0 0 127 0" result="hardAlpha"/>
<feOffset dx="-8" dy="4"/>
<feGaussianBlur stdDeviation="4"/>
<feComposite in2="hardAlpha" operator="arithmetic" k2="-1" k3="1"/>
<feColorMatrix type="matrix" values="0 0 0 0 1 0 0 0 0 1 0 0 0 0 1 0 0 0 0.15 0"/>
<feBlend mode="normal" in2="effect1_innerShadow_2621_326225" result="effect2_innerShadow_2621_326225"/>
</filter>
<filter id="filter21_i_2621_326225" x="226.855" y="219.395" width="10.2617" height="6.04297" filterUnits="userSpaceOnUse" color-interpolation-filters="sRGB">
<feFlood flood-opacity="0" result="BackgroundImageFix"/>
<feBlend mode="normal" in="SourceGraphic" in2="BackgroundImageFix" result="shape"/>
<feColorMatrix in="SourceAlpha" type="matrix" values="0 0 0 0 0 0 0 0 0 0 0 0 0 0 0 0 0 0 127 0" result="hardAlpha"/>
<feOffset dx="1" dy="-1"/>
<feGaussianBlur stdDeviation="1"/>
<feComposite in2="hardAlpha" operator="arithmetic" k2="-1" k3="1"/>
<feColorMatrix type="matrix" values="0 0 0 0 0 0 0 0 0 0 0 0 0 0 0 0 0 0 0.25 0"/>
<feBlend mode="normal" in2="shape" result="effect1_innerShadow_2621_326225"/>
</filter>
<filter id="filter22_f_2621_326225" x="108" y="378" width="245" height="169" filterUnits="userSpaceOnUse" color-interpolation-filters="sRGB">
<feFlood flood-opacity="0" result="BackgroundImageFix"/>
<feBlend mode="normal" in="SourceGraphic" in2="BackgroundImageFix" result="shape"/>
<feGaussianBlur stdDeviation="18" result="effect1_foregroundBlur_2621_326225"/>
</filter>
<clipPath id="clip0_2621_326225">
<rect width="460" height="540" fill="white"/>
</clipPath>
</defs>
</svg>
