<svg width="276" height="237" viewBox="0 0 276 237" fill="none" xmlns="http://www.w3.org/2000/svg">
<g filter="url(#filter0_i_14_63598)">
<path d="M80 116.477C80 119.614 78.8946 121.75 77.0681 123.947C74.8679 126.594 71.6213 129 68 129C63.7196 129 59.9626 126.661 57.8384 123.141C56.6738 121.211 56 118.926 56 116.477C56 113.34 58.469 110.911 60.2955 108.714C62.4957 106.067 64.3787 105 68 105C71.6213 105 74.0498 106.067 76.25 108.714C78.0765 110.911 80 113.34 80 116.477Z" fill="#C8A078"/>
</g>
<g filter="url(#filter1_i_14_63598)">
<path d="M220 141.466C220 160.37 215.391 177.76 203.659 191C189.527 206.949 172.181 216.927 148.922 216.927C121.429 216.927 83.0169 220.791 57.8838 172.217C46.7135 129.715 89.0808 141.359 84.0537 111C77.91 98.3045 99.0703 86.8668 114.709 77.1044C130.347 67.342 132.367 70.4807 155.627 70.4807C178.886 70.4807 189.527 77.7143 203.659 93.6637C215.391 106.904 220 122.562 220 141.466Z" fill="#A6815E"/>
</g>
<g filter="url(#filter2_d_14_63598)">
<g filter="url(#filter3_ii_14_63598)">
<path d="M166.815 190.443C167.161 192.063 166.13 193.661 164.51 194.011L139.099 199.514C137.48 199.865 135.886 198.836 135.539 197.216L112.518 89.6517C110.668 81.0108 116.17 72.4899 124.807 70.6196C133.443 68.7494 141.944 74.2381 143.793 82.8789L166.815 190.443Z" fill="#A16207"/>
</g>
<g filter="url(#filter4_i_14_63598)">
<rect width="32" height="32" rx="16" transform="matrix(-0.977346 0.211648 -0.209287 -0.977854 171 210)" fill="#CA8A04"/>
</g>
<path opacity="0.2" d="M140.312 152.624C139.561 149.113 139.439 145.212 140.901 144.895C142.364 144.579 143.276 147.359 144.027 150.869C144.779 154.379 145.085 157.291 143.622 157.607C142.16 157.924 141.064 156.134 140.312 152.624Z" fill="white"/>
<path opacity="0.2" d="M128.52 121.413C127.768 117.903 127.816 113.964 129.645 113.569C131.473 113.173 132.461 115.936 133.212 119.447C133.963 122.957 134.194 125.885 132.365 126.281C130.537 126.677 129.271 124.923 128.52 121.413Z" fill="#1C1917"/>
<path opacity="0.2" d="M146.483 171.897C146.02 169.737 146.377 167.243 148.206 166.847C150.034 166.451 150.787 168.12 151.25 170.28C151.712 172.441 151.708 174.274 149.88 174.67C148.052 175.066 146.945 174.058 146.483 171.897Z" fill="#1C1917"/>
<path opacity="0.2" d="M130.158 95.6245C129.696 93.4643 130.053 90.9699 131.881 90.574C133.71 90.1781 134.463 91.8473 134.926 94.0075C135.388 96.1677 135.384 98.0009 133.556 98.3969C131.728 98.7928 130.621 97.7848 130.158 95.6245Z" fill="white"/>
</g>
<g filter="url(#filter5_i_14_63598)">
<circle cx="18" cy="18" r="18" transform="matrix(0.605907 0.795536 -0.79209 0.610405 90.4111 128.891)" fill="black" fill-opacity="0.2"/>
<g filter="url(#filter6_ii_14_63598)">
<path d="M158.158 79.2082C159.47 78.1968 161.348 78.4455 162.352 79.7636L178.105 100.447C179.109 101.766 178.859 103.654 177.547 104.665L96.7538 166.927C89.7544 172.32 79.74 170.994 74.3858 163.964C69.0317 156.935 70.3654 146.863 77.3648 141.469L158.158 79.2082Z" fill="#A16207"/>
</g>
<g filter="url(#filter7_i_14_63598)">
<rect width="32" height="32" rx="16" transform="matrix(0.605907 0.795536 -0.79209 0.610405 174 67)" fill="#CA8A04"/>
</g>
<path opacity="0.2" d="M138.513 117.072C135.669 119.263 132.206 121.052 131.299 119.861C130.393 118.671 132.51 116.648 135.353 114.456C138.197 112.265 140.69 110.735 141.596 111.926C142.503 113.116 141.356 114.88 138.513 117.072Z" fill="white"/>
<path opacity="0.2" d="M115.404 141.193C112.56 143.384 108.992 145.034 107.858 143.546C106.725 142.058 108.795 139.973 111.639 137.782C114.482 135.591 117.022 134.123 118.155 135.611C119.289 137.099 118.247 139.002 115.404 141.193Z" fill="#1C1917"/>
<path opacity="0.2" d="M153.256 103.185C151.506 104.534 149.107 105.283 147.974 103.794C146.84 102.306 148.024 100.905 149.774 99.5564C151.524 98.2079 153.177 97.423 154.311 98.9111C155.444 100.399 155.006 101.837 153.256 103.185Z" fill="#1C1917"/>
<path opacity="0.2" d="M91.473 150.797C89.7231 152.146 87.3241 152.894 86.1906 151.406C85.0572 149.918 86.241 148.517 87.9908 147.168C89.7407 145.82 91.3939 145.035 92.5274 146.523C93.6608 148.011 93.2228 149.449 91.473 150.797Z" fill="white"/>
</g>
<circle cx="18" cy="18" r="18" transform="matrix(0.356456 -0.934312 0.932905 0.360122 173.114 159)" fill="black" fill-opacity="0.2"/>
<g filter="url(#filter8_ii_14_63598)">
<path d="M106.658 131.202C105.112 130.606 104.338 128.867 104.929 127.319L114.197 103.027C114.787 101.479 116.519 100.708 118.065 101.304L202.026 133.715C210.27 136.898 214.399 146.17 211.249 154.426C208.1 162.682 198.863 166.796 190.62 163.613L106.658 131.202Z" fill="#A16207"/>
</g>
<g filter="url(#filter9_ii_14_63598)">
<rect width="32" height="32" rx="16" transform="matrix(0.356456 -0.934312 0.932905 0.360122 88 124)" fill="#CA8A04"/>
</g>
<path opacity="0.2" d="M143.46 126.114C146.809 127.407 150.142 129.441 149.609 130.839C149.075 132.237 146.25 131.479 142.901 130.186C139.552 128.893 136.947 127.556 137.481 126.157C138.014 124.759 140.111 124.822 143.46 126.114Z" fill="white"/>
<path opacity="0.2" d="M176.029 133.327C179.378 134.62 182.648 136.816 181.981 138.564C181.315 140.312 178.462 139.626 175.113 138.333C171.764 137.04 169.187 135.63 169.854 133.882C170.521 132.135 172.68 132.034 176.029 133.327Z" fill="#1C1917"/>
<path opacity="0.2" d="M123.956 120.729C126.017 121.525 127.911 123.189 127.244 124.937C126.577 126.685 124.768 126.402 122.707 125.607C120.646 124.811 119.114 123.804 119.78 122.056C120.447 120.309 121.895 119.934 123.956 120.729Z" fill="#1C1917"/>
<path opacity="0.2" d="M196.723 148.819C198.784 149.614 200.677 151.279 200.01 153.027C199.344 154.774 197.535 154.491 195.474 153.696C193.413 152.9 191.88 151.893 192.547 150.146C193.214 148.398 194.662 148.023 196.723 148.819Z" fill="white"/>
<path d="M112.09 81.3239C112.14 71.9721 98.9738 64.3187 82.6816 64.2295C66.3895 64.1404 53.1413 71.6493 53.091 81.0011C53.0407 90.3529 66.2074 98.0063 82.4996 98.0955C98.7918 98.1846 112.04 90.6758 112.09 81.3239Z" fill="black" fill-opacity="0.12"/>
<path d="M108.425 79.1995C108.469 70.9987 96.9334 64.2873 82.6597 64.2092C68.386 64.1311 56.7792 70.7159 56.7351 78.9167C56.691 87.1175 68.2264 93.8289 82.5001 93.907C96.7737 93.9851 108.381 87.4004 108.425 79.1995Z" fill="black" fill-opacity="0.12"/>
<g filter="url(#filter10_diii_14_63598)">
<path d="M100.417 74.2364C99.8646 72.2756 98.9925 67.5554 93.529 63.793C86.5274 58.9713 76.863 58.5704 69.3456 62.5402C64.3345 65.1865 60.8375 69.189 59.3707 73.4034C58.7525 75.702 58.3404 78.0005 59.3707 80.2991C60.195 82.3886 61.4314 84.2692 63.2859 85.7319C65.7586 87.8215 68.4374 89.0754 71.5283 90.1202C73.795 90.956 76.0616 91.3739 78.3283 91.5829C82.3935 91.9577 84.2209 92.537 88.0534 91.3711C92.1746 90.1173 95.6776 88.2368 98.5624 84.8934C100.005 83.2218 101.035 81.1321 101.035 78.8336C101.035 77.3709 100.829 75.6992 100.417 74.2364Z" fill="#A8A29E"/>
</g>
<path opacity="0.1" d="M62.816 78.5931C62.4119 80.5666 62.9806 82.6769 65.1294 82.6769C67.2781 82.6769 68.0507 81.0771 68.4548 79.1036C68.8589 77.1301 68.7415 75.5303 66.5927 75.5303C64.444 75.5303 63.2201 76.6196 62.816 78.5931Z" fill="black"/>
<path opacity="0.05" d="M70.9615 73.9357C70.7595 74.9225 70.9984 75.9776 71.9751 75.9776C72.9518 75.9776 73.3178 75.1777 73.5199 74.191C73.7219 73.2042 73.6835 72.4043 72.7068 72.4043C71.73 72.4043 71.1636 72.949 70.9615 73.9357Z" fill="black"/>
<path opacity="0.05" d="M74.0201 68.3712C74.1067 68.7941 73.9263 69.2463 73.3403 69.2463C72.7543 69.2463 72.5627 68.9034 72.4761 68.4806C72.3895 68.0577 72.4407 67.7148 73.0267 67.7148C73.6128 67.7148 73.9335 67.9483 74.0201 68.3712Z" fill="black"/>
<path opacity="0.05" d="M91.7721 82.4386C91.8586 82.8614 91.6783 83.3137 91.0923 83.3137C90.5062 83.3137 90.3147 82.9708 90.2281 82.5479C90.1415 82.125 90.1927 81.7822 90.7787 81.7822C91.3647 81.7822 91.6855 82.0157 91.7721 82.4386Z" fill="black"/>
<path opacity="0.1" d="M70.8873 87.128C70.9739 87.5509 70.7935 88.0031 70.2075 88.0031C69.6215 88.0031 69.4299 87.6603 69.3433 87.2374C69.2567 86.8145 69.3079 86.4717 69.8939 86.4717C70.4799 86.4717 70.8007 86.7051 70.8873 87.128Z" fill="black"/>
<path opacity="0.1" d="M65.7399 68.7253C65.5378 69.712 65.7767 70.7672 66.7534 70.7672C67.7301 70.7672 68.0962 69.9673 68.2982 68.9805C68.5003 67.9938 68.4618 67.1938 67.4851 67.1938C66.5084 67.1938 65.9419 67.7385 65.7399 68.7253Z" fill="white"/>
<path opacity="0.1" d="M75.5865 81.3966C75.6731 81.8194 75.4927 82.2717 74.9067 82.2717C74.3207 82.2717 74.1291 81.9288 74.0425 81.5059C73.9559 81.0831 74.0071 80.7402 74.5931 80.7402C75.1792 80.7402 75.4999 80.9737 75.5865 81.3966Z" fill="white"/>
<path d="M212 142.337C212 177.497 179.541 206 139.5 206C99.4594 206 67 177.497 67 142.337C67 126.501 73.237 112.272 84.0998 85.1162C84.887 83.1483 87.4485 82.6132 89.0422 84.0106C126.482 116.837 91.2058 36.0923 134.5 3.5C139 62.5 212 107.176 212 142.337Z" fill="#F97316"/>
<path d="M186 146.316C186 169.89 163.838 189 136.5 189C109.162 189 87 169.89 87 146.316C87 135.948 95.1357 127.739 102.799 110.506C103.652 108.588 106.19 108.094 107.911 109.298C132.035 126.186 113.685 43.5 127.5 43.5C158.5 76.5 186 122.743 186 146.316Z" fill="#FACC15"/>
<path d="M97.2496 49.0474C94.7907 49.455 92.3626 47.2507 91.8263 44.124C91.3599 41.4049 93.9464 39.4947 94.4062 34.9641C94.4932 34.1065 95.4925 33.6315 96.0693 34.2767C97.5625 35.9471 99.1594 38.493 100.731 42.6478C101.267 45.7746 99.7085 48.6397 97.2496 49.0474Z" fill="#FDBA74"/>
<path d="M96.7552 47.2897C95.4438 47.5071 94.112 46.1164 93.7804 44.1835C93.7666 44.1026 93.7565 44.023 93.7499 43.9443C93.5429 41.4627 97.5649 40.7166 98.4111 43.0626C98.4628 43.2061 98.544 43.4718 98.5633 43.6229C98.7978 45.4636 98.0152 47.0808 96.7552 47.2897Z" fill="#FDE047"/>
<path d="M275.116 183.46C275.181 171.381 258.22 161.495 237.234 161.38C216.247 161.265 199.182 170.964 199.117 183.043C199.052 195.123 216.013 205.008 236.999 205.124C257.986 205.239 275.051 195.54 275.116 183.46Z" fill="black" fill-opacity="0.12"/>
<path d="M270.394 180.716C270.451 170.123 255.592 161.455 237.205 161.354C218.819 161.253 203.868 169.758 203.811 180.351C203.754 190.944 218.613 199.613 237 199.713C255.386 199.814 270.337 191.309 270.394 180.716Z" fill="black" fill-opacity="0.12"/>
<g filter="url(#filter11_diii_14_63598)">
<path d="M260.08 174.305C259.274 171.435 257.938 163.988 248.066 158.951C240.474 155.076 231.295 154.526 223.372 157.67C215.142 160.935 209.405 166.897 207.207 173.229C206.411 176.198 205.88 179.167 207.207 182.136C208.269 184.835 209.861 187.264 212.25 189.154C215.435 191.853 218.886 193.472 222.867 194.822C225.787 195.901 228.707 196.441 231.627 196.711C236.863 197.195 239.217 197.944 244.154 196.438C249.463 194.818 253.975 192.389 257.691 188.071C259.549 185.911 260.876 183.212 260.876 180.243C260.876 178.354 260.611 176.195 260.08 174.305Z" fill="#A8A29E"/>
</g>
<path opacity="0.1" d="M211.644 179.932C211.123 182.481 211.856 185.207 214.623 185.207C217.391 185.207 218.387 183.141 218.907 180.592C219.428 178.043 219.276 175.976 216.508 175.976C213.741 175.976 212.164 177.383 211.644 179.932Z" fill="black"/>
<path opacity="0.05" d="M222.136 173.917C221.875 175.191 222.183 176.554 223.441 176.554C224.699 176.554 225.171 175.521 225.431 174.246C225.691 172.972 225.642 171.938 224.384 171.938C223.126 171.938 222.396 172.642 222.136 173.917Z" fill="black"/>
<path opacity="0.05" d="M226.076 166.729C226.187 167.275 225.955 167.859 225.2 167.859C224.445 167.859 224.198 167.417 224.087 166.87C223.975 166.324 224.041 165.881 224.796 165.881C225.551 165.881 225.964 166.183 226.076 166.729Z" fill="black"/>
<path opacity="0.05" d="M248.943 184.9C249.054 185.446 248.822 186.03 248.067 186.03C247.312 186.03 247.065 185.588 246.954 185.041C246.842 184.495 246.908 184.052 247.663 184.052C248.418 184.052 248.831 184.354 248.943 184.9Z" fill="black"/>
<path opacity="0.1" d="M222.04 190.957C222.152 191.503 221.92 192.087 221.165 192.087C220.41 192.087 220.163 191.644 220.052 191.098C219.94 190.552 220.006 190.109 220.761 190.109C221.516 190.109 221.929 190.41 222.04 190.957Z" fill="black"/>
<path opacity="0.1" d="M215.41 167.187C215.15 168.461 215.457 169.824 216.716 169.824C217.974 169.824 218.445 168.791 218.705 167.516C218.966 166.242 218.916 165.208 217.658 165.208C216.4 165.208 215.67 165.912 215.41 167.187Z" fill="white"/>
<path opacity="0.1" d="M228.093 183.554C228.205 184.1 227.972 184.684 227.218 184.684C226.463 184.684 226.216 184.241 226.104 183.695C225.993 183.149 226.059 182.706 226.814 182.706C227.568 182.706 227.982 183.008 228.093 183.554Z" fill="white"/>
<path d="M235.092 218.976C235.143 209.43 221.753 201.617 205.185 201.526C188.616 201.435 175.144 209.1 175.093 218.647C175.041 228.194 188.431 236.006 205 236.097C221.568 236.188 235.041 228.523 235.092 218.976Z" fill="black" fill-opacity="0.12"/>
<path d="M231.364 216.808C231.408 208.436 219.678 201.585 205.162 201.506C190.646 201.426 178.843 208.148 178.798 216.519C178.753 224.891 190.484 231.742 205 231.822C219.515 231.902 231.319 225.18 231.364 216.808Z" fill="black" fill-opacity="0.12"/>
<g filter="url(#filter12_diii_14_63598)">
<path d="M228 210.678C227.162 207.691 220.456 187 204.111 187C192.376 187.427 183.994 203.638 181.479 210.891C180.85 213.237 180.431 215.584 181.479 217.93C182.317 220.063 183.575 221.983 185.461 223.476C187.975 225.609 190.699 226.889 193.843 227.956C196.148 228.809 198.453 229.236 200.758 229.449C205.787 229.662 210.607 229.662 215.427 228.169C219.618 226.889 223.18 224.97 226.114 221.557C227.581 219.85 228.628 217.717 228.628 215.37C228.628 213.877 228.419 212.171 228 210.678Z" fill="#A8A29E"/>
</g>
<path opacity="0.1" d="M184.981 216.189C184.571 218.203 185.149 220.358 187.334 220.358C189.519 220.358 190.305 218.724 190.716 216.71C191.127 214.695 191.007 213.062 188.822 213.062C186.637 213.062 185.392 214.174 184.981 216.189Z" fill="black"/>
<path opacity="0.05" d="M193.265 211.434C193.059 212.441 193.302 213.518 194.295 213.518C195.288 213.518 195.661 212.702 195.866 211.694C196.072 210.687 196.033 209.871 195.039 209.871C194.046 209.871 193.47 210.427 193.265 211.434Z" fill="black"/>
<path opacity="0.05" d="M196.375 205.753C196.463 206.185 196.28 206.647 195.684 206.647C195.088 206.647 194.893 206.297 194.805 205.865C194.717 205.433 194.769 205.083 195.365 205.083C195.961 205.083 196.287 205.322 196.375 205.753Z" fill="black"/>
<path opacity="0.05" d="M225.048 219.583C225.136 220.014 224.953 220.476 224.357 220.476C223.761 220.476 223.566 220.126 223.478 219.694C223.39 219.263 223.442 218.913 224.038 218.913C224.634 218.913 224.96 219.151 225.048 219.583Z" fill="black"/>
<path opacity="0.1" d="M193.19 224.901C193.278 225.333 193.094 225.794 192.498 225.794C191.902 225.794 191.707 225.444 191.619 225.013C191.531 224.581 191.583 224.231 192.179 224.231C192.775 224.231 193.101 224.469 193.19 224.901Z" fill="black"/>
<path opacity="0.1" d="M187.955 206.115C187.749 207.122 187.992 208.2 188.986 208.2C189.979 208.2 190.351 207.383 190.557 206.376C190.762 205.368 190.723 204.552 189.73 204.552C188.736 204.552 188.16 205.108 187.955 206.115Z" fill="white"/>
<path opacity="0.1" d="M197.968 219.05C198.056 219.482 197.873 219.944 197.277 219.944C196.681 219.944 196.486 219.594 196.398 219.162C196.31 218.73 196.362 218.38 196.958 218.38C197.554 218.38 197.88 218.619 197.968 219.05Z" fill="white"/>
<path d="M252.055 96.9247C252.086 91.2746 244.052 86.6507 234.111 86.5968C224.17 86.5429 216.086 91.0796 216.056 96.7296C216.025 102.38 224.059 107.004 234 107.057C243.941 107.111 252.024 102.575 252.055 96.9247Z" fill="black" fill-opacity="0.12"/>
<path d="M249.819 95.6415C249.845 90.6869 242.807 86.6321 234.098 86.5849C225.388 86.5377 218.306 90.516 218.279 95.4707C218.252 100.425 225.291 104.48 234 104.527C242.71 104.575 249.792 100.596 249.819 95.6415Z" fill="black" fill-opacity="0.12"/>
<g filter="url(#filter13_diii_14_63598)">
<path d="M247.8 92.0133C247.297 90.2458 243.274 78 233.467 78C226.426 78.2525 221.397 87.8472 219.888 92.1396C219.511 93.5283 219.259 94.917 219.888 96.3057C220.391 97.5681 221.145 98.7043 222.277 99.588C223.786 100.85 225.42 101.608 227.306 102.239C228.689 102.744 230.072 102.997 231.455 103.123C234.473 103.249 237.365 103.249 240.256 102.365C242.771 101.608 244.908 100.472 246.669 98.4519C247.549 97.4419 248.177 96.1794 248.177 94.7907C248.177 93.907 248.052 92.897 247.8 92.0133Z" fill="#A8A29E"/>
</g>
<path opacity="0.1" d="M221.989 95.2748C221.742 96.4671 222.089 97.7421 223.4 97.7421C224.712 97.7421 225.183 96.7755 225.43 95.5832C225.676 94.3909 225.604 93.4243 224.293 93.4243C222.982 93.4243 222.235 94.0825 221.989 95.2748Z" fill="black"/>
<path opacity="0.05" d="M226.959 92.4609C226.836 93.057 226.981 93.6945 227.577 93.6945C228.173 93.6945 228.397 93.2112 228.52 92.6151C228.643 92.0189 228.62 91.5356 228.024 91.5356C227.428 91.5356 227.082 91.8647 226.959 92.4609Z" fill="black"/>
<path opacity="0.05" d="M228.825 89.0992C228.878 89.3547 228.768 89.6279 228.41 89.6279C228.053 89.6279 227.936 89.4208 227.883 89.1653C227.83 88.9098 227.861 88.7026 228.219 88.7026C228.576 88.7026 228.772 88.8437 228.825 89.0992Z" fill="black"/>
<path opacity="0.05" d="M246.029 97.2832C246.082 97.5387 245.972 97.812 245.614 97.812C245.257 97.812 245.14 97.6048 245.087 97.3493C245.034 97.0938 245.065 96.8867 245.423 96.8867C245.78 96.8867 245.976 97.0278 246.029 97.2832Z" fill="black"/>
<path opacity="0.1" d="M226.914 100.431C226.967 100.687 226.857 100.96 226.499 100.96C226.141 100.96 226.024 100.753 225.972 100.497C225.919 100.242 225.95 100.035 226.308 100.035C226.665 100.035 226.861 100.176 226.914 100.431Z" fill="black"/>
<path opacity="0.1" d="M223.773 89.3129C223.65 89.9091 223.796 90.5466 224.392 90.5466C224.988 90.5466 225.211 90.0633 225.334 89.4671C225.458 88.871 225.434 88.3877 224.838 88.3877C224.242 88.3877 223.897 88.7168 223.773 89.3129Z" fill="white"/>
<path opacity="0.1" d="M229.781 96.9688C229.834 97.2243 229.724 97.4975 229.366 97.4975C229.009 97.4975 228.892 97.2904 228.839 97.0349C228.786 96.7794 228.817 96.5723 229.175 96.5723C229.532 96.5723 229.728 96.7133 229.781 96.9688Z" fill="white"/>
<path d="M60.0917 184.976C60.1428 175.43 46.753 167.617 30.1847 167.526C13.6164 167.435 0.143676 175.1 0.0925575 184.647C0.0414394 194.194 13.4313 202.006 29.9996 202.097C46.5679 202.188 60.0405 194.523 60.0917 184.976Z" fill="black" fill-opacity="0.12"/>
<path d="M56.3636 182.808C56.4084 174.436 44.6776 167.585 30.162 167.506C15.6464 167.426 3.84279 174.148 3.79796 182.519C3.75314 190.891 15.484 197.742 29.9996 197.822C44.5152 197.902 56.3187 191.18 56.3636 182.808Z" fill="black" fill-opacity="0.12"/>
<g filter="url(#filter14_diii_14_63598)">
<path d="M52.9998 176.678C52.1616 173.691 45.4558 153 29.1107 153C17.3757 153.427 8.99365 169.638 6.47901 176.891C5.85036 179.237 5.43125 181.584 6.47901 183.93C7.31723 186.063 8.5746 187.983 10.4606 189.476C12.9752 191.609 15.6994 192.889 18.8427 193.956C21.1478 194.809 23.4528 195.236 25.7579 195.449C30.7872 195.662 35.6069 195.662 40.4266 194.169C44.6177 192.889 48.18 190.97 51.1138 187.557C52.5806 185.85 53.6284 183.717 53.6284 181.37C53.6284 179.877 53.4189 178.171 52.9998 176.678Z" fill="#A8A29E"/>
</g>
<path opacity="0.1" d="M9.98146 182.189C9.57051 184.203 10.1489 186.358 12.334 186.358C14.5192 186.358 15.3049 184.724 15.7159 182.71C16.1268 180.695 16.0074 179.062 13.8222 179.062C11.637 179.062 10.3924 180.174 9.98146 182.189Z" fill="black"/>
<path opacity="0.05" d="M18.2645 177.434C18.059 178.441 18.302 179.518 19.2952 179.518C20.2885 179.518 20.6608 178.702 20.8662 177.694C21.0717 176.687 21.0326 175.871 20.0393 175.871C19.046 175.871 18.47 176.427 18.2645 177.434Z" fill="black"/>
<path opacity="0.05" d="M21.3751 171.753C21.4632 172.185 21.2797 172.647 20.6838 172.647C20.0878 172.647 19.893 172.297 19.805 171.865C19.7169 171.433 19.7689 171.083 20.3649 171.083C20.9608 171.083 21.287 171.322 21.3751 171.753Z" fill="black"/>
<path opacity="0.05" d="M50.048 185.583C50.136 186.014 49.9526 186.476 49.3566 186.476C48.7607 186.476 48.5659 186.126 48.4778 185.694C48.3897 185.263 48.4418 184.913 49.0377 184.913C49.6337 184.913 49.9599 185.151 50.048 185.583Z" fill="black"/>
<path opacity="0.1" d="M18.1896 190.901C18.2776 191.333 18.0942 191.794 17.4982 191.794C16.9023 191.794 16.7075 191.444 16.6194 191.013C16.5313 190.581 16.5834 190.231 17.1793 190.231C17.7753 190.231 18.1015 190.469 18.1896 190.901Z" fill="black"/>
<path opacity="0.1" d="M12.9549 172.115C12.7495 173.122 12.9924 174.2 13.9856 174.2C14.9789 174.2 15.3512 173.383 15.5567 172.376C15.7621 171.368 15.723 170.552 14.7297 170.552C13.7365 170.552 13.1604 171.108 12.9549 172.115Z" fill="white"/>
<path opacity="0.1" d="M22.9679 185.05C23.0559 185.482 22.8725 185.944 22.2766 185.944C21.6806 185.944 21.4858 185.594 21.3977 185.162C21.3097 184.73 21.3617 184.38 21.9577 184.38C22.5536 184.38 22.8798 184.619 22.9679 185.05Z" fill="white"/>
<defs>
<filter id="filter0_i_14_63598" x="54" y="104" width="26" height="25" filterUnits="userSpaceOnUse" color-interpolation-filters="sRGB">
<feFlood flood-opacity="0" result="BackgroundImageFix"/>
<feBlend mode="normal" in="SourceGraphic" in2="BackgroundImageFix" result="shape"/>
<feColorMatrix in="SourceAlpha" type="matrix" values="0 0 0 0 0 0 0 0 0 0 0 0 0 0 0 0 0 0 127 0" result="hardAlpha"/>
<feOffset dx="-2" dy="-1"/>
<feGaussianBlur stdDeviation="3.5"/>
<feComposite in2="hardAlpha" operator="arithmetic" k2="-1" k3="1"/>
<feColorMatrix type="matrix" values="0 0 0 0 1 0 0 0 0 1 0 0 0 0 1 0 0 0 0.25 0"/>
<feBlend mode="normal" in2="shape" result="effect1_innerShadow_14_63598"/>
</filter>
<filter id="filter1_i_14_63598" x="40" y="70" width="180" height="151" filterUnits="userSpaceOnUse" color-interpolation-filters="sRGB">
<feFlood flood-opacity="0" result="BackgroundImageFix"/>
<feBlend mode="normal" in="SourceGraphic" in2="BackgroundImageFix" result="shape"/>
<feColorMatrix in="SourceAlpha" type="matrix" values="0 0 0 0 0 0 0 0 0 0 0 0 0 0 0 0 0 0 127 0" result="hardAlpha"/>
<feOffset dx="-16" dy="4"/>
<feGaussianBlur stdDeviation="14"/>
<feComposite in2="hardAlpha" operator="arithmetic" k2="-1" k3="1"/>
<feColorMatrix type="matrix" values="0 0 0 0 1 0 0 0 0 1 0 0 0 0 1 0 0 0 0.25 0"/>
<feBlend mode="normal" in2="shape" result="effect1_innerShadow_14_63598"/>
</filter>
<filter id="filter2_d_14_63598" x="109.169" y="67.2334" width="61.8311" height="153.54" filterUnits="userSpaceOnUse" color-interpolation-filters="sRGB">
<feFlood flood-opacity="0" result="BackgroundImageFix"/>
<feColorMatrix in="SourceAlpha" type="matrix" values="0 0 0 0 0 0 0 0 0 0 0 0 0 0 0 0 0 0 127 0" result="hardAlpha"/>
<feOffset dy="4"/>
<feComposite in2="hardAlpha" operator="out"/>
<feColorMatrix type="matrix" values="0 0 0 0 0 0 0 0 0 0 0 0 0 0 0 0 0 0 0.25 0"/>
<feBlend mode="normal" in2="BackgroundImageFix" result="effect1_dropShadow_14_63598"/>
<feBlend mode="normal" in="SourceGraphic" in2="effect1_dropShadow_14_63598" result="shape"/>
</filter>
<filter id="filter3_ii_14_63598" x="104.16" y="62.2539" width="70.7217" height="145.329" filterUnits="userSpaceOnUse" color-interpolation-filters="sRGB">
<feFlood flood-opacity="0" result="BackgroundImageFix"/>
<feBlend mode="normal" in="SourceGraphic" in2="BackgroundImageFix" result="shape"/>
<feColorMatrix in="SourceAlpha" type="matrix" values="0 0 0 0 0 0 0 0 0 0 0 0 0 0 0 0 0 0 127 0" result="hardAlpha"/>
<feOffset dx="8" dy="-8"/>
<feGaussianBlur stdDeviation="4"/>
<feComposite in2="hardAlpha" operator="arithmetic" k2="-1" k3="1"/>
<feColorMatrix type="matrix" values="0 0 0 0 0 0 0 0 0 0 0 0 0 0 0 0 0 0 0.25 0"/>
<feBlend mode="normal" in2="shape" result="effect1_innerShadow_14_63598"/>
<feColorMatrix in="SourceAlpha" type="matrix" values="0 0 0 0 0 0 0 0 0 0 0 0 0 0 0 0 0 0 127 0" result="hardAlpha"/>
<feOffset dx="-8" dy="8"/>
<feGaussianBlur stdDeviation="4"/>
<feComposite in2="hardAlpha" operator="arithmetic" k2="-1" k3="1"/>
<feColorMatrix type="matrix" values="0 0 0 0 1 0 0 0 0 1 0 0 0 0 1 0 0 0 0.25 0"/>
<feBlend mode="normal" in2="effect1_innerShadow_14_63598" result="effect2_innerShadow_14_63598"/>
</filter>
<filter id="filter4_i_14_63598" x="136.019" y="181.729" width="31.9902" height="32.0225" filterUnits="userSpaceOnUse" color-interpolation-filters="sRGB">
<feFlood flood-opacity="0" result="BackgroundImageFix"/>
<feBlend mode="normal" in="SourceGraphic" in2="BackgroundImageFix" result="shape"/>
<feColorMatrix in="SourceAlpha" type="matrix" values="0 0 0 0 0 0 0 0 0 0 0 0 0 0 0 0 0 0 127 0" result="hardAlpha"/>
<feOffset dx="-1" dy="-1"/>
<feComposite in2="hardAlpha" operator="arithmetic" k2="-1" k3="1"/>
<feColorMatrix type="matrix" values="0 0 0 0 1 0 0 0 0 1 0 0 0 0 1 0 0 0 0.15 0"/>
<feBlend mode="normal" in2="shape" result="effect1_innerShadow_14_63598"/>
</filter>
<filter id="filter5_i_14_63598" x="64.6914" y="63" width="132.697" height="113.693" filterUnits="userSpaceOnUse" color-interpolation-filters="sRGB">
<feFlood flood-opacity="0" result="BackgroundImageFix"/>
<feBlend mode="normal" in="SourceGraphic" in2="BackgroundImageFix" result="shape"/>
<feColorMatrix in="SourceAlpha" type="matrix" values="0 0 0 0 0 0 0 0 0 0 0 0 0 0 0 0 0 0 127 0" result="hardAlpha"/>
<feOffset dx="40" dy="-32"/>
<feGaussianBlur stdDeviation="2"/>
<feComposite in2="hardAlpha" operator="arithmetic" k2="-1" k3="1"/>
<feColorMatrix type="matrix" values="0 0 0 0 0 0 0 0 0 0 0 0 0 0 0 0 0 0 0.25 0"/>
<feBlend mode="normal" in2="shape" result="effect1_innerShadow_14_63598"/>
</filter>
<filter id="filter6_ii_14_63598" x="63.1025" y="70.5864" width="123.618" height="107.656" filterUnits="userSpaceOnUse" color-interpolation-filters="sRGB">
<feFlood flood-opacity="0" result="BackgroundImageFix"/>
<feBlend mode="normal" in="SourceGraphic" in2="BackgroundImageFix" result="shape"/>
<feColorMatrix in="SourceAlpha" type="matrix" values="0 0 0 0 0 0 0 0 0 0 0 0 0 0 0 0 0 0 127 0" result="hardAlpha"/>
<feOffset dx="8" dy="-8"/>
<feGaussianBlur stdDeviation="4"/>
<feComposite in2="hardAlpha" operator="arithmetic" k2="-1" k3="1"/>
<feColorMatrix type="matrix" values="0 0 0 0 0 0 0 0 0 0 0 0 0 0 0 0 0 0 0.25 0"/>
<feBlend mode="normal" in2="shape" result="effect1_innerShadow_14_63598"/>
<feColorMatrix in="SourceAlpha" type="matrix" values="0 0 0 0 0 0 0 0 0 0 0 0 0 0 0 0 0 0 127 0" result="hardAlpha"/>
<feOffset dx="-8" dy="8"/>
<feGaussianBlur stdDeviation="4"/>
<feComposite in2="hardAlpha" operator="arithmetic" k2="-1" k3="1"/>
<feColorMatrix type="matrix" values="0 0 0 0 1 0 0 0 0 1 0 0 0 0 1 0 0 0 0.25 0"/>
<feBlend mode="normal" in2="effect1_innerShadow_14_63598" result="effect2_innerShadow_14_63598"/>
</filter>
<filter id="filter7_i_14_63598" x="155.064" y="73.4507" width="31.9141" height="32.0889" filterUnits="userSpaceOnUse" color-interpolation-filters="sRGB">
<feFlood flood-opacity="0" result="BackgroundImageFix"/>
<feBlend mode="normal" in="SourceGraphic" in2="BackgroundImageFix" result="shape"/>
<feColorMatrix in="SourceAlpha" type="matrix" values="0 0 0 0 0 0 0 0 0 0 0 0 0 0 0 0 0 0 127 0" result="hardAlpha"/>
<feOffset dx="-1" dy="-1"/>
<feComposite in2="hardAlpha" operator="arithmetic" k2="-1" k3="1"/>
<feColorMatrix type="matrix" values="0 0 0 0 1 0 0 0 0 1 0 0 0 0 1 0 0 0 0.15 0"/>
<feBlend mode="normal" in2="shape" result="effect1_innerShadow_14_63598"/>
</filter>
<filter id="filter8_ii_14_63598" x="96.7305" y="93.1025" width="123.576" height="79.5874" filterUnits="userSpaceOnUse" color-interpolation-filters="sRGB">
<feFlood flood-opacity="0" result="BackgroundImageFix"/>
<feBlend mode="normal" in="SourceGraphic" in2="BackgroundImageFix" result="shape"/>
<feColorMatrix in="SourceAlpha" type="matrix" values="0 0 0 0 0 0 0 0 0 0 0 0 0 0 0 0 0 0 127 0" result="hardAlpha"/>
<feOffset dx="8" dy="-8"/>
<feGaussianBlur stdDeviation="4"/>
<feComposite in2="hardAlpha" operator="arithmetic" k2="-1" k3="1"/>
<feColorMatrix type="matrix" values="0 0 0 0 0 0 0 0 0 0 0 0 0 0 0 0 0 0 0.25 0"/>
<feBlend mode="normal" in2="shape" result="effect1_innerShadow_14_63598"/>
<feColorMatrix in="SourceAlpha" type="matrix" values="0 0 0 0 0 0 0 0 0 0 0 0 0 0 0 0 0 0 127 0" result="hardAlpha"/>
<feOffset dx="-8" dy="8"/>
<feGaussianBlur stdDeviation="4"/>
<feComposite in2="hardAlpha" operator="arithmetic" k2="-1" k3="1"/>
<feColorMatrix type="matrix" values="0 0 0 0 1 0 0 0 0 1 0 0 0 0 1 0 0 0 0.25 0"/>
<feBlend mode="normal" in2="effect1_innerShadow_14_63598" result="effect2_innerShadow_14_63598"/>
</filter>
<filter id="filter9_ii_14_63598" x="92.6465" y="98.7876" width="31.9668" height="32.0508" filterUnits="userSpaceOnUse" color-interpolation-filters="sRGB">
<feFlood flood-opacity="0" result="BackgroundImageFix"/>
<feBlend mode="normal" in="SourceGraphic" in2="BackgroundImageFix" result="shape"/>
<feColorMatrix in="SourceAlpha" type="matrix" values="0 0 0 0 0 0 0 0 0 0 0 0 0 0 0 0 0 0 127 0" result="hardAlpha"/>
<feOffset dx="-1" dy="-1"/>
<feComposite in2="hardAlpha" operator="arithmetic" k2="-1" k3="1"/>
<feColorMatrix type="matrix" values="0 0 0 0 1 0 0 0 0 1 0 0 0 0 1 0 0 0 0.15 0"/>
<feBlend mode="normal" in2="shape" result="effect1_innerShadow_14_63598"/>
<feColorMatrix in="SourceAlpha" type="matrix" values="0 0 0 0 0 0 0 0 0 0 0 0 0 0 0 0 0 0 127 0" result="hardAlpha"/>
<feOffset dy="60"/>
<feGaussianBlur stdDeviation="2.5"/>
<feComposite in2="hardAlpha" operator="arithmetic" k2="-1" k3="1"/>
<feColorMatrix type="matrix" values="0 0 0 0 0 0 0 0 0 0 0 0 0 0 0 0 0 0 0.1 0"/>
<feBlend mode="normal" in2="effect1_innerShadow_14_63598" result="effect2_innerShadow_14_63598"/>
</filter>
<filter id="filter10_diii_14_63598" x="56.7432" y="56.8408" width="54.292" height="39.2217" filterUnits="userSpaceOnUse" color-interpolation-filters="sRGB">
<feFlood flood-opacity="0" result="BackgroundImageFix"/>
<feColorMatrix in="SourceAlpha" type="matrix" values="0 0 0 0 0 0 0 0 0 0 0 0 0 0 0 0 0 0 127 0" result="hardAlpha"/>
<feOffset dy="1"/>
<feGaussianBlur stdDeviation="0.5"/>
<feComposite in2="hardAlpha" operator="out"/>
<feColorMatrix type="matrix" values="0 0 0 0 0 0 0 0 0 0 0 0 0 0 0 0 0 0 0.25 0"/>
<feBlend mode="normal" in2="BackgroundImageFix" result="effect1_dropShadow_14_63598"/>
<feBlend mode="normal" in="SourceGraphic" in2="effect1_dropShadow_14_63598" result="shape"/>
<feColorMatrix in="SourceAlpha" type="matrix" values="0 0 0 0 0 0 0 0 0 0 0 0 0 0 0 0 0 0 127 0" result="hardAlpha"/>
<feOffset dx="16" dy="-3"/>
<feGaussianBlur stdDeviation="5"/>
<feComposite in2="hardAlpha" operator="arithmetic" k2="-1" k3="1"/>
<feColorMatrix type="matrix" values="0 0 0 0 0 0 0 0 0 0 0 0 0 0 0 0 0 0 0.25 0"/>
<feBlend mode="normal" in2="shape" result="effect2_innerShadow_14_63598"/>
<feColorMatrix in="SourceAlpha" type="matrix" values="0 0 0 0 0 0 0 0 0 0 0 0 0 0 0 0 0 0 127 0" result="hardAlpha"/>
<feOffset dx="-2" dy="-1"/>
<feGaussianBlur stdDeviation="3.5"/>
<feComposite in2="hardAlpha" operator="arithmetic" k2="-1" k3="1"/>
<feColorMatrix type="matrix" values="0 0 0 0 0 0 0 0 0 0 0 0 0 0 0 0 0 0 0.25 0"/>
<feBlend mode="normal" in2="effect2_innerShadow_14_63598" result="effect3_innerShadow_14_63598"/>
<feColorMatrix in="SourceAlpha" type="matrix" values="0 0 0 0 0 0 0 0 0 0 0 0 0 0 0 0 0 0 127 0" result="hardAlpha"/>
<feOffset dy="4"/>
<feGaussianBlur stdDeviation="2"/>
<feComposite in2="hardAlpha" operator="arithmetic" k2="-1" k3="1"/>
<feColorMatrix type="matrix" values="0 0 0 0 1 0 0 0 0 1 0 0 0 0 1 0 0 0 0.25 0"/>
<feBlend mode="normal" in2="effect3_innerShadow_14_63598" result="effect4_innerShadow_14_63598"/>
</filter>
<filter id="filter11_diii_14_63598" x="204.398" y="152.634" width="66.4775" height="48.6973" filterUnits="userSpaceOnUse" color-interpolation-filters="sRGB">
<feFlood flood-opacity="0" result="BackgroundImageFix"/>
<feColorMatrix in="SourceAlpha" type="matrix" values="0 0 0 0 0 0 0 0 0 0 0 0 0 0 0 0 0 0 127 0" result="hardAlpha"/>
<feOffset dy="1"/>
<feGaussianBlur stdDeviation="0.5"/>
<feComposite in2="hardAlpha" operator="out"/>
<feColorMatrix type="matrix" values="0 0 0 0 0 0 0 0 0 0 0 0 0 0 0 0 0 0 0.25 0"/>
<feBlend mode="normal" in2="BackgroundImageFix" result="effect1_dropShadow_14_63598"/>
<feBlend mode="normal" in="SourceGraphic" in2="effect1_dropShadow_14_63598" result="shape"/>
<feColorMatrix in="SourceAlpha" type="matrix" values="0 0 0 0 0 0 0 0 0 0 0 0 0 0 0 0 0 0 127 0" result="hardAlpha"/>
<feOffset dx="16" dy="-3"/>
<feGaussianBlur stdDeviation="5"/>
<feComposite in2="hardAlpha" operator="arithmetic" k2="-1" k3="1"/>
<feColorMatrix type="matrix" values="0 0 0 0 0 0 0 0 0 0 0 0 0 0 0 0 0 0 0.25 0"/>
<feBlend mode="normal" in2="shape" result="effect2_innerShadow_14_63598"/>
<feColorMatrix in="SourceAlpha" type="matrix" values="0 0 0 0 0 0 0 0 0 0 0 0 0 0 0 0 0 0 127 0" result="hardAlpha"/>
<feOffset dx="-2" dy="-1"/>
<feGaussianBlur stdDeviation="3.5"/>
<feComposite in2="hardAlpha" operator="arithmetic" k2="-1" k3="1"/>
<feColorMatrix type="matrix" values="0 0 0 0 0 0 0 0 0 0 0 0 0 0 0 0 0 0 0.25 0"/>
<feBlend mode="normal" in2="effect2_innerShadow_14_63598" result="effect3_innerShadow_14_63598"/>
<feColorMatrix in="SourceAlpha" type="matrix" values="0 0 0 0 0 0 0 0 0 0 0 0 0 0 0 0 0 0 127 0" result="hardAlpha"/>
<feOffset dy="4"/>
<feGaussianBlur stdDeviation="2"/>
<feComposite in2="hardAlpha" operator="arithmetic" k2="-1" k3="1"/>
<feColorMatrix type="matrix" values="0 0 0 0 1 0 0 0 0 1 0 0 0 0 1 0 0 0 0.25 0"/>
<feBlend mode="normal" in2="effect3_innerShadow_14_63598" result="effect4_innerShadow_14_63598"/>
</filter>
<filter id="filter12_diii_14_63598" x="178.841" y="184" width="59.7881" height="49.5503" filterUnits="userSpaceOnUse" color-interpolation-filters="sRGB">
<feFlood flood-opacity="0" result="BackgroundImageFix"/>
<feColorMatrix in="SourceAlpha" type="matrix" values="0 0 0 0 0 0 0 0 0 0 0 0 0 0 0 0 0 0 127 0" result="hardAlpha"/>
<feOffset dy="1"/>
<feGaussianBlur stdDeviation="0.5"/>
<feComposite in2="hardAlpha" operator="out"/>
<feColorMatrix type="matrix" values="0 0 0 0 0 0 0 0 0 0 0 0 0 0 0 0 0 0 0.25 0"/>
<feBlend mode="normal" in2="BackgroundImageFix" result="effect1_dropShadow_14_63598"/>
<feBlend mode="normal" in="SourceGraphic" in2="effect1_dropShadow_14_63598" result="shape"/>
<feColorMatrix in="SourceAlpha" type="matrix" values="0 0 0 0 0 0 0 0 0 0 0 0 0 0 0 0 0 0 127 0" result="hardAlpha"/>
<feOffset dx="16" dy="-3"/>
<feGaussianBlur stdDeviation="5"/>
<feComposite in2="hardAlpha" operator="arithmetic" k2="-1" k3="1"/>
<feColorMatrix type="matrix" values="0 0 0 0 0 0 0 0 0 0 0 0 0 0 0 0 0 0 0.25 0"/>
<feBlend mode="normal" in2="shape" result="effect2_innerShadow_14_63598"/>
<feColorMatrix in="SourceAlpha" type="matrix" values="0 0 0 0 0 0 0 0 0 0 0 0 0 0 0 0 0 0 127 0" result="hardAlpha"/>
<feOffset dx="-2" dy="-1"/>
<feGaussianBlur stdDeviation="3.5"/>
<feComposite in2="hardAlpha" operator="arithmetic" k2="-1" k3="1"/>
<feColorMatrix type="matrix" values="0 0 0 0 0 0 0 0 0 0 0 0 0 0 0 0 0 0 0.25 0"/>
<feBlend mode="normal" in2="effect2_innerShadow_14_63598" result="effect3_innerShadow_14_63598"/>
<feColorMatrix in="SourceAlpha" type="matrix" values="0 0 0 0 0 0 0 0 0 0 0 0 0 0 0 0 0 0 127 0" result="hardAlpha"/>
<feOffset dy="4"/>
<feGaussianBlur stdDeviation="2"/>
<feComposite in2="hardAlpha" operator="arithmetic" k2="-1" k3="1"/>
<feColorMatrix type="matrix" values="0 0 0 0 1 0 0 0 0 1 0 0 0 0 1 0 0 0 0.25 0"/>
<feBlend mode="normal" in2="effect3_innerShadow_14_63598" result="effect4_innerShadow_14_63598"/>
</filter>
<filter id="filter13_diii_14_63598" x="217.505" y="75" width="40.6729" height="32.1826" filterUnits="userSpaceOnUse" color-interpolation-filters="sRGB">
<feFlood flood-opacity="0" result="BackgroundImageFix"/>
<feColorMatrix in="SourceAlpha" type="matrix" values="0 0 0 0 0 0 0 0 0 0 0 0 0 0 0 0 0 0 127 0" result="hardAlpha"/>
<feOffset dy="1"/>
<feGaussianBlur stdDeviation="0.5"/>
<feComposite in2="hardAlpha" operator="out"/>
<feColorMatrix type="matrix" values="0 0 0 0 0 0 0 0 0 0 0 0 0 0 0 0 0 0 0.25 0"/>
<feBlend mode="normal" in2="BackgroundImageFix" result="effect1_dropShadow_14_63598"/>
<feBlend mode="normal" in="SourceGraphic" in2="effect1_dropShadow_14_63598" result="shape"/>
<feColorMatrix in="SourceAlpha" type="matrix" values="0 0 0 0 0 0 0 0 0 0 0 0 0 0 0 0 0 0 127 0" result="hardAlpha"/>
<feOffset dx="16" dy="-3"/>
<feGaussianBlur stdDeviation="5"/>
<feComposite in2="hardAlpha" operator="arithmetic" k2="-1" k3="1"/>
<feColorMatrix type="matrix" values="0 0 0 0 0 0 0 0 0 0 0 0 0 0 0 0 0 0 0.25 0"/>
<feBlend mode="normal" in2="shape" result="effect2_innerShadow_14_63598"/>
<feColorMatrix in="SourceAlpha" type="matrix" values="0 0 0 0 0 0 0 0 0 0 0 0 0 0 0 0 0 0 127 0" result="hardAlpha"/>
<feOffset dx="-2" dy="-1"/>
<feGaussianBlur stdDeviation="3.5"/>
<feComposite in2="hardAlpha" operator="arithmetic" k2="-1" k3="1"/>
<feColorMatrix type="matrix" values="0 0 0 0 0 0 0 0 0 0 0 0 0 0 0 0 0 0 0.25 0"/>
<feBlend mode="normal" in2="effect2_innerShadow_14_63598" result="effect3_innerShadow_14_63598"/>
<feColorMatrix in="SourceAlpha" type="matrix" values="0 0 0 0 0 0 0 0 0 0 0 0 0 0 0 0 0 0 127 0" result="hardAlpha"/>
<feOffset dy="4"/>
<feGaussianBlur stdDeviation="2"/>
<feComposite in2="hardAlpha" operator="arithmetic" k2="-1" k3="1"/>
<feColorMatrix type="matrix" values="0 0 0 0 1 0 0 0 0 1 0 0 0 0 1 0 0 0 0.25 0"/>
<feBlend mode="normal" in2="effect3_innerShadow_14_63598" result="effect4_innerShadow_14_63598"/>
</filter>
<filter id="filter14_diii_14_63598" x="3.84082" y="150" width="59.7881" height="49.5503" filterUnits="userSpaceOnUse" color-interpolation-filters="sRGB">
<feFlood flood-opacity="0" result="BackgroundImageFix"/>
<feColorMatrix in="SourceAlpha" type="matrix" values="0 0 0 0 0 0 0 0 0 0 0 0 0 0 0 0 0 0 127 0" result="hardAlpha"/>
<feOffset dy="1"/>
<feGaussianBlur stdDeviation="0.5"/>
<feComposite in2="hardAlpha" operator="out"/>
<feColorMatrix type="matrix" values="0 0 0 0 0 0 0 0 0 0 0 0 0 0 0 0 0 0 0.25 0"/>
<feBlend mode="normal" in2="BackgroundImageFix" result="effect1_dropShadow_14_63598"/>
<feBlend mode="normal" in="SourceGraphic" in2="effect1_dropShadow_14_63598" result="shape"/>
<feColorMatrix in="SourceAlpha" type="matrix" values="0 0 0 0 0 0 0 0 0 0 0 0 0 0 0 0 0 0 127 0" result="hardAlpha"/>
<feOffset dx="16" dy="-3"/>
<feGaussianBlur stdDeviation="5"/>
<feComposite in2="hardAlpha" operator="arithmetic" k2="-1" k3="1"/>
<feColorMatrix type="matrix" values="0 0 0 0 0 0 0 0 0 0 0 0 0 0 0 0 0 0 0.25 0"/>
<feBlend mode="normal" in2="shape" result="effect2_innerShadow_14_63598"/>
<feColorMatrix in="SourceAlpha" type="matrix" values="0 0 0 0 0 0 0 0 0 0 0 0 0 0 0 0 0 0 127 0" result="hardAlpha"/>
<feOffset dx="-2" dy="-1"/>
<feGaussianBlur stdDeviation="3.5"/>
<feComposite in2="hardAlpha" operator="arithmetic" k2="-1" k3="1"/>
<feColorMatrix type="matrix" values="0 0 0 0 0 0 0 0 0 0 0 0 0 0 0 0 0 0 0.25 0"/>
<feBlend mode="normal" in2="effect2_innerShadow_14_63598" result="effect3_innerShadow_14_63598"/>
<feColorMatrix in="SourceAlpha" type="matrix" values="0 0 0 0 0 0 0 0 0 0 0 0 0 0 0 0 0 0 127 0" result="hardAlpha"/>
<feOffset dy="4"/>
<feGaussianBlur stdDeviation="2"/>
<feComposite in2="hardAlpha" operator="arithmetic" k2="-1" k3="1"/>
<feColorMatrix type="matrix" values="0 0 0 0 1 0 0 0 0 1 0 0 0 0 1 0 0 0 0.25 0"/>
<feBlend mode="normal" in2="effect3_innerShadow_14_63598" result="effect4_innerShadow_14_63598"/>
</filter>
</defs>
</svg>
