<svg width="49" height="70" viewBox="0 0 49 70" fill="none" xmlns="http://www.w3.org/2000/svg">
<g filter="url(#filter0_d_3_11224)">
<path fill-rule="evenodd" clip-rule="evenodd" d="M29.9778 12.6441C27.8857 7.83607 21.0665 7.83608 18.9743 12.6441L6.08753 42.2603C5.60881 43.3604 5.34415 44.4823 5.26879 45.588C5.09201 46.5351 5 47.508 5 48.5002C5 58.1652 13.7304 66.0002 24.5 66.0002C35.2696 66.0002 44 58.1652 44 48.5002C44 47.3564 43.8777 46.2383 43.6443 45.1557C43.5355 44.1907 43.281 43.2173 42.8646 42.2603L29.9778 12.6441Z" fill="#FACC15"/>
<mask id="mask0_3_11224" style="mask-type:alpha" maskUnits="userSpaceOnUse" x="5" y="9" width="39" height="48">
<path d="M18.9742 12.6439C21.0663 7.83587 27.8856 7.83586 29.9777 12.6439L42.8645 42.2601C45.7384 48.8648 40.8979 56.25 33.695 56.25H15.257C8.05402 56.25 3.21349 48.8648 6.08741 42.2601L18.9742 12.6439Z" fill="#FACC15"/>
</mask>
<g mask="url(#mask0_3_11224)">
<ellipse cx="24.5" cy="32.5" rx="15.5" ry="18.5" fill="#F97316"/>
<ellipse cx="25" cy="15" rx="12" ry="15" fill="#FFF7ED"/>
</g>
<path d="M32.8184 30.559C32.8755 30.3831 33.1245 30.3831 33.1816 30.559C33.2072 30.6377 33.2805 30.691 33.3633 30.691C33.5483 30.691 33.6252 30.9277 33.4755 31.0365C33.4086 31.0851 33.3806 31.1713 33.4061 31.25C33.4633 31.426 33.2619 31.5723 33.1123 31.4635C33.0453 31.4149 32.9547 31.4149 32.8877 31.4635C32.7381 31.5723 32.5367 31.426 32.5939 31.25C32.6194 31.1713 32.5914 31.0851 32.5245 31.0365C32.3748 30.9277 32.4517 30.691 32.6367 30.691C32.7195 30.691 32.7928 30.6377 32.8184 30.559Z" fill="white" fill-opacity="0.2"/>
<path opacity="0.69" d="M30.4144 39.2463C30.4309 38.8767 30.9108 38.7441 31.1147 39.0528C31.2059 39.1909 31.3757 39.2546 31.5352 39.2105C31.8918 39.112 32.1662 39.5274 31.9356 39.8168C31.8324 39.9462 31.8243 40.1273 31.9155 40.2653C32.1195 40.5741 31.8092 40.9634 31.4627 40.8335C31.3078 40.7754 31.133 40.8237 31.0299 40.9531C30.7993 41.2424 30.3331 41.0676 30.3496 40.698C30.357 40.5326 30.2571 40.3814 30.1021 40.3233C29.7557 40.1933 29.7779 39.696 30.1345 39.5975C30.294 39.5534 30.407 39.4116 30.4144 39.2463Z" fill="white" fill-opacity="0.2"/>
<path d="M18.7258 36.6098C18.743 36.4256 18.9858 36.371 19.0802 36.5301C19.1224 36.6012 19.2057 36.6371 19.2864 36.6189C19.4669 36.5783 19.5939 36.7924 19.4718 36.9314C19.4172 36.9935 19.4088 37.0837 19.451 37.1549C19.5454 37.314 19.381 37.501 19.2111 37.4277C19.1352 37.395 19.0467 37.4149 18.9921 37.477C18.87 37.616 18.6414 37.5175 18.6585 37.3333C18.6662 37.2509 18.6199 37.1729 18.5439 37.1402C18.374 37.0669 18.3971 36.8191 18.5776 36.7785C18.6583 36.7603 18.7182 36.6922 18.7258 36.6098Z" fill="white" fill-opacity="0.2"/>
<path d="M34.9211 52.8051C34.9383 52.6209 35.1811 52.5663 35.2755 52.7254C35.3178 52.7965 35.401 52.8324 35.4817 52.8143C35.6622 52.7736 35.7892 52.9877 35.6671 53.1267C35.6125 53.1888 35.6041 53.2791 35.6463 53.3502C35.7407 53.5093 35.5763 53.6963 35.4064 53.6231C35.3305 53.5903 35.242 53.6102 35.1874 53.6724C35.0653 53.8113 34.8367 53.7128 34.8538 53.5286C34.8615 53.4462 34.8152 53.3682 34.7392 53.3355C34.5693 53.2623 34.5924 53.0144 34.7729 52.9738C34.8536 52.9556 34.9135 52.8875 34.9211 52.8051Z" fill="white" fill-opacity="0.2"/>
<path d="M41.2365 45.7197C41.368 45.5896 41.5892 45.7037 41.5593 45.8863C41.546 45.968 41.5867 46.0489 41.6602 46.0869C41.8246 46.1717 41.7844 46.4174 41.6015 46.4454C41.5198 46.4579 41.4553 46.5217 41.442 46.6033C41.4121 46.7859 41.166 46.8236 41.0829 46.6583C41.0457 46.5844 40.9652 46.5428 40.8834 46.5553C40.7005 46.5833 40.5886 46.3609 40.7201 46.2308C40.7789 46.1726 40.7936 46.0831 40.7564 46.0092C40.6732 45.844 40.8502 45.6688 41.0146 45.7537C41.0881 45.7916 41.1777 45.7779 41.2365 45.7197Z" fill="white" fill-opacity="0.2"/>
<path d="M24.9721 44.0533C24.9348 43.8721 25.1513 43.7491 25.2879 43.8738C25.349 43.9296 25.4391 43.9397 25.511 43.8988C25.6719 43.8074 25.8557 43.9752 25.7793 44.1437C25.7452 44.2191 25.7634 44.3079 25.8245 44.3637C25.9612 44.4884 25.8584 44.7151 25.6745 44.6945C25.5923 44.6853 25.5135 44.7301 25.4793 44.8054C25.4029 44.9739 25.1555 44.9462 25.1183 44.765C25.1016 44.684 25.0347 44.6229 24.9525 44.6137C24.7686 44.5931 24.7185 44.3492 24.8794 44.2578C24.9513 44.2169 24.9887 44.1344 24.9721 44.0533Z" fill="white" fill-opacity="0.2"/>
<path d="M6.9877 45.0699C6.95047 44.8887 7.16689 44.7657 7.30353 44.8904C7.36464 44.9462 7.45472 44.9563 7.52665 44.9154C7.6875 44.824 7.87135 44.9918 7.79495 45.1603C7.76079 45.2357 7.77903 45.3245 7.84014 45.3803C7.97678 45.505 7.87399 45.7317 7.69013 45.7111C7.6079 45.7019 7.5291 45.7467 7.49493 45.822C7.41854 45.9905 7.17115 45.9628 7.13392 45.7816C7.11727 45.7006 7.05032 45.6395 6.9681 45.6303C6.78424 45.6097 6.73414 45.3658 6.89499 45.2744C6.96692 45.2335 7.00435 45.151 6.9877 45.0699Z" fill="white" fill-opacity="0.2"/>
<path d="M16.9877 22.0699C16.9505 21.8887 17.1669 21.7657 17.3035 21.8904C17.3646 21.9462 17.4547 21.9563 17.5266 21.9154C17.6875 21.824 17.8714 21.9918 17.795 22.1603C17.7608 22.2357 17.779 22.3245 17.8401 22.3803C17.9768 22.505 17.874 22.7317 17.6901 22.7111C17.6079 22.7019 17.5291 22.7467 17.4949 22.822C17.4185 22.9905 17.1712 22.9628 17.1339 22.7816C17.1173 22.7006 17.0503 22.6395 16.9681 22.6303C16.7842 22.6097 16.7341 22.3658 16.895 22.2744C16.9669 22.2335 17.0044 22.151 16.9877 22.0699Z" fill="white" fill-opacity="0.2"/>
<path d="M13.3889 50.8721C13.5204 50.7419 13.7416 50.8561 13.7117 51.0386C13.6983 51.1203 13.739 51.2013 13.8126 51.2392C13.977 51.3241 13.9368 51.5697 13.7539 51.5977C13.6721 51.6102 13.6077 51.674 13.5943 51.7556C13.5644 51.9382 13.3184 51.9759 13.2352 51.8106C13.1981 51.7367 13.1175 51.6951 13.0357 51.7077C12.8528 51.7357 12.741 51.5133 12.8725 51.3831C12.9313 51.3249 12.9459 51.2355 12.9087 51.1616C12.8256 50.9963 13.0025 50.8212 13.1669 50.906C13.2405 50.944 13.33 50.9303 13.3889 50.8721Z" fill="white" fill-opacity="0.2"/>
<path d="M30.3722 21.0584C30.4521 20.9793 30.5866 21.0487 30.5684 21.1597C30.5603 21.2093 30.5851 21.2586 30.6298 21.2816C30.7297 21.3332 30.7053 21.4825 30.5941 21.4995C30.5444 21.5072 30.5052 21.5459 30.4971 21.5956C30.4789 21.7065 30.3293 21.7294 30.2788 21.629C30.2562 21.584 30.2072 21.5588 30.1575 21.5664C30.0463 21.5834 29.9783 21.4482 30.0583 21.3691C30.094 21.3337 30.1029 21.2794 30.0803 21.2344C30.0298 21.134 30.1373 21.0275 30.2373 21.0791C30.282 21.1021 30.3364 21.0938 30.3722 21.0584Z" fill="black" fill-opacity="0.12"/>
<path opacity="0.68" d="M25.8711 23.2163C26.0381 23.0511 26.3188 23.196 26.2809 23.4278C26.2639 23.5314 26.3156 23.6342 26.409 23.6823C26.6177 23.79 26.5666 24.1019 26.3345 24.1374C26.2307 24.1533 26.1489 24.2342 26.1319 24.3379C26.094 24.5696 25.7817 24.6174 25.6761 24.4076C25.629 24.3138 25.5267 24.2611 25.4229 24.277C25.1908 24.3125 25.0488 24.0302 25.2157 23.865C25.2903 23.7912 25.3089 23.6776 25.2617 23.5838C25.1562 23.374 25.3808 23.1517 25.5894 23.2594C25.6828 23.3076 25.7965 23.2902 25.8711 23.2163Z" fill="black" fill-opacity="0.12"/>
</g>
<defs>
<filter id="filter0_d_3_11224" x="0" y="0" width="48.9512" height="70" filterUnits="userSpaceOnUse" color-interpolation-filters="sRGB">
<feFlood flood-opacity="0" result="BackgroundImageFix"/>
<feColorMatrix in="SourceAlpha" type="matrix" values="0 0 0 0 0 0 0 0 0 0 0 0 0 0 0 0 0 0 127 0" result="hardAlpha"/>
<feOffset dy="4"/>
<feComposite in2="hardAlpha" operator="out"/>
<feColorMatrix type="matrix" values="0 0 0 0 0 0 0 0 0 0 0 0 0 0 0 0 0 0 0.25 0"/>
<feBlend mode="normal" in2="BackgroundImageFix" result="effect1_dropShadow_3_11224"/>
<feBlend mode="normal" in="SourceGraphic" in2="effect1_dropShadow_3_11224" result="shape"/>
</filter>
</defs>
</svg>
