<svg width="47" height="81" viewBox="0 0 47 81" fill="none" xmlns="http://www.w3.org/2000/svg">
<rect y="61" width="47" height="14" rx="2" fill="black" fill-opacity="0.2"/>
<rect x="2" width="43" height="15" rx="2" fill="#CBD5E1"/>
<g filter="url(#filter0_i_3_72079)">
<rect x="2" y="6" width="43" height="67" rx="2" fill="#CBD5E1"/>
</g>
<rect x="2" y="12" width="43" height="55" fill="#16A34A"/>
<mask id="mask0_3_72079" style="mask-type:alpha" maskUnits="userSpaceOnUse" x="2" y="12" width="43" height="55">
<rect x="2" y="12" width="43" height="55" fill="#16A34A"/>
</mask>
<g mask="url(#mask0_3_72079)">
<rect x="-9" y="27.6709" width="85.8009" height="7" transform="rotate(-45 -9 27.6709)" fill="#EAB308"/>
<rect x="-9" y="48.6709" width="85.8009" height="7" transform="rotate(-45 -9 48.6709)" fill="#EAB308"/>
<rect x="-9" y="69.6709" width="85.8009" height="7" transform="rotate(-45 -9 69.6709)" fill="#EAB308"/>
<rect x="-9" y="90.6709" width="85.8009" height="7" transform="rotate(-45 -9 90.6709)" fill="#EAB308"/>
<rect x="-9" y="111.671" width="85.8009" height="7" transform="rotate(-45 -9 111.671)" fill="#EAB308"/>
<mask id="path-11-outside-1_3_72079" maskUnits="userSpaceOnUse" x="8" y="25" width="32" height="29" fill="black">
<rect fill="white" x="8" y="25" width="32" height="29"/>
<path d="M24.5826 36.3318C25.1851 36.3318 25.6181 36.4542 25.8816 36.699C26.1452 36.9249 26.277 37.2261 26.277 37.6026C26.277 37.998 26.1264 38.3181 25.8252 38.5628C25.5239 38.7887 25.1098 38.9017 24.5826 38.9017H21.1091V36.3318H24.5826ZM23.566 45.0015C24.3755 45.0015 24.9215 45.1333 25.2039 45.3969C25.4863 45.6416 25.6275 46.1311 25.6275 46.8654V48.6445C25.6275 48.8892 25.684 49.1434 25.7969 49.407C25.9099 49.6517 26.1076 49.8494 26.39 50H35.7374C35.4362 49.8494 35.2008 49.6329 35.0314 49.3505C34.862 49.0681 34.7772 48.748 34.7772 48.3903V47.0913C34.7772 46.037 34.6925 45.1615 34.5231 44.465C34.3536 43.7495 34.0336 43.1659 33.5629 42.7141C33.337 42.507 33.0452 42.3187 32.6875 42.1493C32.3486 41.9798 31.9438 41.8386 31.4732 41.7257C32.7534 41.2362 33.6853 40.5678 34.2689 39.7206C34.8526 38.8734 35.1444 37.8286 35.1444 36.586C35.1444 35.0234 34.8149 33.7338 34.156 32.7171C33.497 31.6817 32.3863 30.9192 30.8236 30.4297C30.0329 30.1661 29.0916 29.9778 27.9996 29.8649C26.9265 29.7331 25.7028 29.6672 24.3284 29.6672H12.5241V50H21.1091V45.0015H23.566Z"/>
</mask>
<path d="M24.5826 36.3318C25.1851 36.3318 25.6181 36.4542 25.8816 36.699C26.1452 36.9249 26.277 37.2261 26.277 37.6026C26.277 37.998 26.1264 38.3181 25.8252 38.5628C25.5239 38.7887 25.1098 38.9017 24.5826 38.9017H21.1091V36.3318H24.5826ZM23.566 45.0015C24.3755 45.0015 24.9215 45.1333 25.2039 45.3969C25.4863 45.6416 25.6275 46.1311 25.6275 46.8654V48.6445C25.6275 48.8892 25.684 49.1434 25.7969 49.407C25.9099 49.6517 26.1076 49.8494 26.39 50H35.7374C35.4362 49.8494 35.2008 49.6329 35.0314 49.3505C34.862 49.0681 34.7772 48.748 34.7772 48.3903V47.0913C34.7772 46.037 34.6925 45.1615 34.5231 44.465C34.3536 43.7495 34.0336 43.1659 33.5629 42.7141C33.337 42.507 33.0452 42.3187 32.6875 42.1493C32.3486 41.9798 31.9438 41.8386 31.4732 41.7257C32.7534 41.2362 33.6853 40.5678 34.2689 39.7206C34.8526 38.8734 35.1444 37.8286 35.1444 36.586C35.1444 35.0234 34.8149 33.7338 34.156 32.7171C33.497 31.6817 32.3863 30.9192 30.8236 30.4297C30.0329 30.1661 29.0916 29.9778 27.9996 29.8649C26.9265 29.7331 25.7028 29.6672 24.3284 29.6672H12.5241V50H21.1091V45.0015H23.566Z" fill="#9A3412"/>
<path d="M25.8816 36.699L23.1598 39.6301C23.1987 39.6662 23.2382 39.7015 23.2785 39.736L25.8816 36.699ZM25.8252 38.5628L28.2252 41.7628C28.2666 41.7317 28.3074 41.6999 28.3475 41.6673L25.8252 38.5628ZM21.1091 38.9017H17.1091C17.1091 41.1108 18.8999 42.9017 21.1091 42.9017V38.9017ZM21.1091 36.3318V32.3318C18.8999 32.3318 17.1091 34.1227 17.1091 36.3318H21.1091ZM25.2039 45.3969L22.4746 48.3211C22.5105 48.3546 22.547 48.3875 22.5842 48.4196L25.2039 45.3969ZM25.7969 49.407L22.1203 50.9826C22.1348 51.0164 22.1497 51.0499 22.1651 51.0832L25.7969 49.407ZM26.39 50L24.5076 53.5294C25.0869 53.8384 25.7334 54 26.39 54V50ZM35.7374 50V54C37.5925 54 39.2042 52.7245 39.6304 50.919C40.0566 49.1135 39.1855 47.2519 37.5263 46.4223L35.7374 50ZM35.0314 49.3505L38.4614 47.2925V47.2925L35.0314 49.3505ZM34.5231 44.465L30.6308 45.3868C30.6326 45.3947 30.6345 45.4025 30.6364 45.4104L34.5231 44.465ZM33.5629 42.7141L36.3331 39.8285C36.3109 39.8073 36.2885 39.7862 36.2658 39.7655L33.5629 42.7141ZM32.6875 42.1493L30.8986 45.727C30.924 45.7397 30.9495 45.7521 30.9751 45.7642L32.6875 42.1493ZM31.4732 41.7257L30.0446 37.9895C28.407 38.6156 27.368 40.2352 27.4816 41.9848C27.5951 43.7344 28.8348 45.2061 30.5397 45.6152L31.4732 41.7257ZM34.2689 39.7206L30.9749 37.4514L30.9749 37.4514L34.2689 39.7206ZM34.156 32.7171L30.7813 34.8646C30.7873 34.874 30.7933 34.8834 30.7994 34.8927L34.156 32.7171ZM30.8236 30.4297L29.5587 34.2244C29.5817 34.2321 29.6048 34.2395 29.6279 34.2468L30.8236 30.4297ZM27.9996 29.8649L27.5121 33.8351C27.5374 33.8382 27.5627 33.841 27.588 33.8436L27.9996 29.8649ZM12.5241 29.6672V25.6672C10.315 25.6672 8.52413 27.4581 8.52413 29.6672H12.5241ZM12.5241 50H8.52413C8.52413 52.2091 10.315 54 12.5241 54V50ZM21.1091 50V54C23.3182 54 25.1091 52.2091 25.1091 50H21.1091ZM21.1091 45.0015V41.0015C18.8999 41.0015 17.1091 42.7924 17.1091 45.0015H21.1091ZM24.5826 40.3318C24.6319 40.3318 24.5053 40.339 24.2714 40.2729C24.0279 40.2041 23.5943 40.0336 23.1598 39.6301L28.6035 33.7678C27.2381 32.5 25.5586 32.3318 24.5826 32.3318V40.3318ZM23.2785 39.736C22.9792 39.4794 22.7025 39.1294 22.5135 38.6976C22.3284 38.2744 22.277 37.8865 22.277 37.6026H30.277C30.277 36.1703 29.7165 34.7177 28.4848 33.6619L23.2785 39.736ZM22.277 37.6026C22.277 37.2813 22.3412 36.8685 22.5448 36.436C22.7493 36.0014 23.0332 35.6774 23.3028 35.4583L28.3475 41.6673C29.6037 40.6467 30.277 39.1764 30.277 37.6026H22.277ZM23.4252 35.3628C24.045 34.8979 24.5821 34.9017 24.5826 34.9017V42.9017C25.6374 42.9017 27.0029 42.6795 28.2252 41.7628L23.4252 35.3628ZM24.5826 34.9017H21.1091V42.9017H24.5826V34.9017ZM25.1091 38.9017V36.3318H17.1091V38.9017H25.1091ZM21.1091 40.3318H24.5826V32.3318H21.1091V40.3318ZM23.566 49.0015C23.7805 49.0015 23.7805 49.0216 23.644 48.9887C23.5315 48.9615 23.015 48.8254 22.4746 48.3211L27.9332 42.4727C27.1104 41.7047 26.1797 41.371 25.5212 41.212C24.8387 41.0473 24.161 41.0015 23.566 41.0015V49.0015ZM22.5842 48.4196C21.9646 47.8827 21.7465 47.2926 21.6783 47.0562C21.6103 46.8203 21.6275 46.7233 21.6275 46.8654H29.6275C29.6275 45.9723 29.5285 43.8517 27.8236 42.3741L22.5842 48.4196ZM21.6275 46.8654V48.6445H29.6275V46.8654H21.6275ZM21.6275 48.6445C21.6275 49.5158 21.8302 50.3055 22.1203 50.9826L29.4735 47.8313C29.5378 47.9812 29.6275 48.2627 29.6275 48.6445H21.6275ZM22.1651 51.0832C22.7085 52.2606 23.6046 53.0478 24.5076 53.5294L28.2723 46.4706C28.6106 46.651 29.1113 47.0428 29.4288 47.7307L22.1651 51.0832ZM26.39 54H35.7374V46H26.39V54ZM37.5263 46.4223C37.8892 46.6038 38.2302 46.9071 38.4614 47.2925L31.6014 51.4085C32.1715 52.3586 32.9832 53.095 33.9486 53.5777L37.5263 46.4223ZM38.4614 47.2925C38.6968 47.6849 38.7772 48.0877 38.7772 48.3903H30.7772C30.7772 49.4084 31.0271 50.4512 31.6014 51.4085L38.4614 47.2925ZM38.7772 48.3903V47.0913H30.7772V48.3903H38.7772ZM38.7772 47.0913C38.7772 45.8528 38.6807 44.6334 38.4098 43.5196L30.6364 45.4104C30.7044 45.6896 30.7772 46.2212 30.7772 47.0913H38.7772ZM38.4154 43.5431C38.0918 42.1767 37.4273 40.879 36.3331 39.8285L30.7928 45.5996C30.729 45.5384 30.6801 45.4712 30.6487 45.414C30.619 45.3599 30.6203 45.3426 30.6308 45.3868L38.4154 43.5431ZM36.2658 39.7655C35.6735 39.2225 35.0197 38.8279 34.3998 38.5343L30.9751 45.7642C31.0179 45.7845 31.0251 45.791 31.0061 45.7787C30.9871 45.7665 30.9335 45.73 30.86 45.6627L36.2658 39.7655ZM34.4763 38.5716C33.8022 38.2345 33.0961 38.0016 32.4067 37.8361L30.5397 45.6152C30.6615 45.6445 30.7508 45.6716 30.8123 45.6931C30.874 45.7146 30.9002 45.7278 30.8986 45.727L34.4763 38.5716ZM32.9017 45.4619C34.6908 44.7778 36.3901 43.6924 37.563 41.9899L30.9749 37.4514C30.9733 37.4538 30.9347 37.511 30.8011 37.6068C30.6619 37.7066 30.4245 37.8442 30.0446 37.9895L32.9017 45.4619ZM37.563 41.9899C38.6947 40.3469 39.1444 38.4678 39.1444 36.586H31.1444C31.1444 37.1893 31.0104 37.3999 30.9749 37.4514L37.563 41.9899ZM39.1444 36.586C39.1444 34.4725 38.6974 32.3696 37.5126 30.5415L30.7994 34.8927C30.9324 35.0979 31.1444 35.5743 31.1444 36.586H39.1444ZM37.5306 30.5696C36.2172 28.5057 34.1793 27.2892 32.0194 26.6126L29.6279 34.2468C30.5933 34.5492 30.7768 34.8576 30.7813 34.8646L37.5306 30.5696ZM32.0886 26.6349C30.9497 26.2553 29.7078 26.0202 28.4112 25.8861L27.588 33.8436C28.4753 33.9354 29.1161 34.0769 29.5587 34.2244L32.0886 26.6349ZM28.4872 25.8947C27.2159 25.7386 25.8244 25.6672 24.3284 25.6672V33.6672C25.5812 33.6672 26.6371 33.7276 27.5121 33.8351L28.4872 25.8947ZM24.3284 25.6672H12.5241V33.6672H24.3284V25.6672ZM8.52413 29.6672V50H16.5241V29.6672H8.52413ZM12.5241 54H21.1091V46H12.5241V54ZM25.1091 50V45.0015H17.1091V50H25.1091ZM21.1091 49.0015H23.566V41.0015H21.1091V49.0015Z" fill="#E2E8F0" mask="url(#path-11-outside-1_3_72079)"/>
</g>
<defs>
<filter id="filter0_i_3_72079" x="2" y="6" width="43" height="67" filterUnits="userSpaceOnUse" color-interpolation-filters="sRGB">
<feFlood flood-opacity="0" result="BackgroundImageFix"/>
<feBlend mode="normal" in="SourceGraphic" in2="BackgroundImageFix" result="shape"/>
<feColorMatrix in="SourceAlpha" type="matrix" values="0 0 0 0 0 0 0 0 0 0 0 0 0 0 0 0 0 0 127 0" result="hardAlpha"/>
<feOffset dx="72"/>
<feComposite in2="hardAlpha" operator="arithmetic" k2="-1" k3="1"/>
<feColorMatrix type="matrix" values="0 0 0 0 0 0 0 0 0 0 0 0 0 0 0 0 0 0 0.15 0"/>
<feBlend mode="normal" in2="shape" result="effect1_innerShadow_3_72079"/>
</filter>
</defs>
</svg>
