<svg width="47" height="75" viewBox="0 0 47 75" fill="none" xmlns="http://www.w3.org/2000/svg">
<rect y="4" width="47" height="71" rx="2" fill="black" fill-opacity="0.2"/>
<g filter="url(#filter0_i_3_72093)">
<rect x="2" y="58" width="43" height="15" rx="2" fill="#CBD5E1"/>
</g>
<rect x="2" width="43" height="67" rx="2" fill="#CBD5E1"/>
<rect x="2" y="6" width="43" height="55" fill="#16A34A"/>
<mask id="mask0_3_72093" style="mask-type:alpha" maskUnits="userSpaceOnUse" x="2" y="6" width="43" height="55">
<rect x="2" y="6" width="43" height="55" fill="#16A34A"/>
</mask>
<g mask="url(#mask0_3_72093)">
<rect x="-9" y="21.6709" width="85.8009" height="7" transform="rotate(-45 -9 21.6709)" fill="#EAB308"/>
<rect x="-9" y="42.6709" width="85.8009" height="7" transform="rotate(-45 -9 42.6709)" fill="#EAB308"/>
<rect x="-9" y="63.6709" width="85.8009" height="7" transform="rotate(-45 -9 63.6709)" fill="#EAB308"/>
<rect x="-9" y="84.6709" width="85.8009" height="7" transform="rotate(-45 -9 84.6709)" fill="#EAB308"/>
<rect x="-9" y="105.671" width="85.8009" height="7" transform="rotate(-45 -9 105.671)" fill="#EAB308"/>
<mask id="path-11-outside-1_3_72093" maskUnits="userSpaceOnUse" x="8" y="19" width="32" height="29" fill="black">
<rect fill="white" x="8" y="19" width="32" height="29"/>
<path d="M24.5826 30.3318C25.1851 30.3318 25.6181 30.4542 25.8816 30.699C26.1452 30.9249 26.277 31.2261 26.277 31.6026C26.277 31.998 26.1264 32.3181 25.8252 32.5628C25.5239 32.7887 25.1098 32.9017 24.5826 32.9017H21.1091V30.3318H24.5826ZM23.566 39.0015C24.3755 39.0015 24.9215 39.1333 25.2039 39.3969C25.4863 39.6416 25.6275 40.1311 25.6275 40.8654V42.6445C25.6275 42.8892 25.684 43.1434 25.7969 43.407C25.9099 43.6517 26.1076 43.8494 26.39 44H35.7374C35.4362 43.8494 35.2008 43.6329 35.0314 43.3505C34.862 43.0681 34.7772 42.748 34.7772 42.3903V41.0913C34.7772 40.037 34.6925 39.1615 34.5231 38.465C34.3536 37.7495 34.0336 37.1659 33.5629 36.7141C33.337 36.507 33.0452 36.3187 32.6875 36.1493C32.3486 35.9798 31.9438 35.8386 31.4732 35.7257C32.7534 35.2362 33.6853 34.5678 34.2689 33.7206C34.8526 32.8734 35.1444 31.8286 35.1444 30.586C35.1444 29.0234 34.8149 27.7338 34.156 26.7171C33.497 25.6817 32.3863 24.9192 30.8236 24.4297C30.0329 24.1661 29.0916 23.9778 27.9996 23.8649C26.9265 23.7331 25.7028 23.6672 24.3284 23.6672H12.5241V44H21.1091V39.0015H23.566Z"/>
</mask>
<path d="M24.5826 30.3318C25.1851 30.3318 25.6181 30.4542 25.8816 30.699C26.1452 30.9249 26.277 31.2261 26.277 31.6026C26.277 31.998 26.1264 32.3181 25.8252 32.5628C25.5239 32.7887 25.1098 32.9017 24.5826 32.9017H21.1091V30.3318H24.5826ZM23.566 39.0015C24.3755 39.0015 24.9215 39.1333 25.2039 39.3969C25.4863 39.6416 25.6275 40.1311 25.6275 40.8654V42.6445C25.6275 42.8892 25.684 43.1434 25.7969 43.407C25.9099 43.6517 26.1076 43.8494 26.39 44H35.7374C35.4362 43.8494 35.2008 43.6329 35.0314 43.3505C34.862 43.0681 34.7772 42.748 34.7772 42.3903V41.0913C34.7772 40.037 34.6925 39.1615 34.5231 38.465C34.3536 37.7495 34.0336 37.1659 33.5629 36.7141C33.337 36.507 33.0452 36.3187 32.6875 36.1493C32.3486 35.9798 31.9438 35.8386 31.4732 35.7257C32.7534 35.2362 33.6853 34.5678 34.2689 33.7206C34.8526 32.8734 35.1444 31.8286 35.1444 30.586C35.1444 29.0234 34.8149 27.7338 34.156 26.7171C33.497 25.6817 32.3863 24.9192 30.8236 24.4297C30.0329 24.1661 29.0916 23.9778 27.9996 23.8649C26.9265 23.7331 25.7028 23.6672 24.3284 23.6672H12.5241V44H21.1091V39.0015H23.566Z" fill="#9A3412"/>
<path d="M25.8816 30.699L23.1598 33.6301C23.1987 33.6662 23.2382 33.7015 23.2785 33.736L25.8816 30.699ZM25.8252 32.5628L28.2252 35.7628C28.2666 35.7317 28.3074 35.6999 28.3475 35.6673L25.8252 32.5628ZM21.1091 32.9017H17.1091C17.1091 35.1108 18.8999 36.9017 21.1091 36.9017V32.9017ZM21.1091 30.3318V26.3318C18.8999 26.3318 17.1091 28.1227 17.1091 30.3318H21.1091ZM25.2039 39.3969L22.4746 42.3211C22.5105 42.3546 22.547 42.3875 22.5842 42.4196L25.2039 39.3969ZM25.7969 43.407L22.1203 44.9826C22.1348 45.0164 22.1497 45.0499 22.1651 45.0832L25.7969 43.407ZM26.39 44L24.5076 47.5294C25.0869 47.8384 25.7334 48 26.39 48V44ZM35.7374 44V48C37.5925 48 39.2042 46.7245 39.6304 44.919C40.0566 43.1135 39.1855 41.2519 37.5263 40.4223L35.7374 44ZM35.0314 43.3505L38.4614 41.2925V41.2925L35.0314 43.3505ZM34.5231 38.465L30.6308 39.3868C30.6326 39.3947 30.6345 39.4025 30.6364 39.4104L34.5231 38.465ZM33.5629 36.7141L36.3331 33.8285C36.3109 33.8073 36.2885 33.7862 36.2658 33.7655L33.5629 36.7141ZM32.6875 36.1493L30.8986 39.727C30.924 39.7397 30.9495 39.7521 30.9751 39.7642L32.6875 36.1493ZM31.4732 35.7257L30.0446 31.9895C28.407 32.6156 27.368 34.2352 27.4816 35.9848C27.5951 37.7344 28.8348 39.2061 30.5397 39.6152L31.4732 35.7257ZM34.2689 33.7206L30.9749 31.4514L30.9749 31.4514L34.2689 33.7206ZM34.156 26.7171L30.7813 28.8646C30.7873 28.874 30.7933 28.8834 30.7994 28.8927L34.156 26.7171ZM30.8236 24.4297L29.5587 28.2244C29.5817 28.2321 29.6048 28.2395 29.6279 28.2468L30.8236 24.4297ZM27.9996 23.8649L27.5121 27.8351C27.5374 27.8382 27.5627 27.841 27.588 27.8436L27.9996 23.8649ZM12.5241 23.6672V19.6672C10.315 19.6672 8.52413 21.4581 8.52413 23.6672H12.5241ZM12.5241 44H8.52413C8.52413 46.2091 10.315 48 12.5241 48V44ZM21.1091 44V48C23.3182 48 25.1091 46.2091 25.1091 44H21.1091ZM21.1091 39.0015V35.0015C18.8999 35.0015 17.1091 36.7924 17.1091 39.0015H21.1091ZM24.5826 34.3318C24.6319 34.3318 24.5053 34.339 24.2714 34.2729C24.0279 34.2041 23.5943 34.0336 23.1598 33.6301L28.6035 27.7678C27.2381 26.5 25.5586 26.3318 24.5826 26.3318V34.3318ZM23.2785 33.736C22.9792 33.4794 22.7025 33.1294 22.5135 32.6976C22.3284 32.2744 22.277 31.8865 22.277 31.6026H30.277C30.277 30.1703 29.7165 28.7177 28.4848 27.6619L23.2785 33.736ZM22.277 31.6026C22.277 31.2813 22.3412 30.8685 22.5448 30.436C22.7493 30.0014 23.0332 29.6774 23.3028 29.4583L28.3475 35.6673C29.6037 34.6467 30.277 33.1764 30.277 31.6026H22.277ZM23.4252 29.3628C24.045 28.8979 24.5821 28.9017 24.5826 28.9017V36.9017C25.6374 36.9017 27.0029 36.6795 28.2252 35.7628L23.4252 29.3628ZM24.5826 28.9017H21.1091V36.9017H24.5826V28.9017ZM25.1091 32.9017V30.3318H17.1091V32.9017H25.1091ZM21.1091 34.3318H24.5826V26.3318H21.1091V34.3318ZM23.566 43.0015C23.7805 43.0015 23.7805 43.0216 23.644 42.9887C23.5315 42.9615 23.015 42.8254 22.4746 42.3211L27.9332 36.4727C27.1104 35.7047 26.1797 35.371 25.5212 35.212C24.8387 35.0473 24.161 35.0015 23.566 35.0015V43.0015ZM22.5842 42.4196C21.9646 41.8827 21.7465 41.2926 21.6783 41.0562C21.6103 40.8203 21.6275 40.7233 21.6275 40.8654H29.6275C29.6275 39.9723 29.5285 37.8517 27.8236 36.3741L22.5842 42.4196ZM21.6275 40.8654V42.6445H29.6275V40.8654H21.6275ZM21.6275 42.6445C21.6275 43.5158 21.8302 44.3055 22.1203 44.9826L29.4735 41.8313C29.5378 41.9812 29.6275 42.2627 29.6275 42.6445H21.6275ZM22.1651 45.0832C22.7085 46.2606 23.6046 47.0478 24.5076 47.5294L28.2723 40.4706C28.6106 40.651 29.1113 41.0428 29.4288 41.7307L22.1651 45.0832ZM26.39 48H35.7374V40H26.39V48ZM37.5263 40.4223C37.8892 40.6038 38.2302 40.9071 38.4614 41.2925L31.6014 45.4085C32.1715 46.3586 32.9832 47.095 33.9486 47.5777L37.5263 40.4223ZM38.4614 41.2925C38.6968 41.6849 38.7772 42.0877 38.7772 42.3903H30.7772C30.7772 43.4084 31.0271 44.4512 31.6014 45.4085L38.4614 41.2925ZM38.7772 42.3903V41.0913H30.7772V42.3903H38.7772ZM38.7772 41.0913C38.7772 39.8528 38.6807 38.6334 38.4098 37.5196L30.6364 39.4104C30.7044 39.6896 30.7772 40.2212 30.7772 41.0913H38.7772ZM38.4154 37.5431C38.0918 36.1767 37.4273 34.879 36.3331 33.8285L30.7928 39.5996C30.729 39.5384 30.6801 39.4712 30.6487 39.414C30.619 39.3599 30.6203 39.3426 30.6308 39.3868L38.4154 37.5431ZM36.2658 33.7655C35.6735 33.2225 35.0197 32.8279 34.3998 32.5343L30.9751 39.7642C31.0179 39.7845 31.0251 39.791 31.0061 39.7787C30.9871 39.7665 30.9335 39.73 30.86 39.6627L36.2658 33.7655ZM34.4763 32.5716C33.8022 32.2345 33.0961 32.0016 32.4067 31.8361L30.5397 39.6152C30.6615 39.6445 30.7508 39.6716 30.8123 39.6931C30.874 39.7146 30.9002 39.7278 30.8986 39.727L34.4763 32.5716ZM32.9017 39.4619C34.6908 38.7778 36.3901 37.6924 37.563 35.9899L30.9749 31.4514C30.9733 31.4538 30.9347 31.511 30.8011 31.6068C30.6619 31.7066 30.4245 31.8442 30.0446 31.9895L32.9017 39.4619ZM37.563 35.9899C38.6947 34.3469 39.1444 32.4678 39.1444 30.586H31.1444C31.1444 31.1893 31.0104 31.3999 30.9749 31.4514L37.563 35.9899ZM39.1444 30.586C39.1444 28.4725 38.6974 26.3696 37.5126 24.5415L30.7994 28.8927C30.9324 29.0979 31.1444 29.5743 31.1444 30.586H39.1444ZM37.5306 24.5696C36.2172 22.5057 34.1793 21.2892 32.0194 20.6126L29.6279 28.2468C30.5933 28.5492 30.7768 28.8576 30.7813 28.8646L37.5306 24.5696ZM32.0886 20.6349C30.9497 20.2553 29.7078 20.0202 28.4112 19.8861L27.588 27.8436C28.4753 27.9354 29.1161 28.0769 29.5587 28.2244L32.0886 20.6349ZM28.4872 19.8947C27.2159 19.7386 25.8244 19.6672 24.3284 19.6672V27.6672C25.5812 27.6672 26.6371 27.7276 27.5121 27.8351L28.4872 19.8947ZM24.3284 19.6672H12.5241V27.6672H24.3284V19.6672ZM8.52413 23.6672V44H16.5241V23.6672H8.52413ZM12.5241 48H21.1091V40H12.5241V48ZM25.1091 44V39.0015H17.1091V44H25.1091ZM21.1091 43.0015H23.566V35.0015H21.1091V43.0015Z" fill="#E2E8F0" mask="url(#path-11-outside-1_3_72093)"/>
</g>
<defs>
<filter id="filter0_i_3_72093" x="2" y="58" width="43" height="15" filterUnits="userSpaceOnUse" color-interpolation-filters="sRGB">
<feFlood flood-opacity="0" result="BackgroundImageFix"/>
<feBlend mode="normal" in="SourceGraphic" in2="BackgroundImageFix" result="shape"/>
<feColorMatrix in="SourceAlpha" type="matrix" values="0 0 0 0 0 0 0 0 0 0 0 0 0 0 0 0 0 0 127 0" result="hardAlpha"/>
<feOffset dy="36"/>
<feGaussianBlur stdDeviation="2"/>
<feComposite in2="hardAlpha" operator="arithmetic" k2="-1" k3="1"/>
<feColorMatrix type="matrix" values="0 0 0 0 0 0 0 0 0 0 0 0 0 0 0 0 0 0 0.15 0"/>
<feBlend mode="normal" in2="shape" result="effect1_innerShadow_3_72093"/>
</filter>
</defs>
</svg>
