<svg width="297" height="270" viewBox="0 0 297 270" fill="none" xmlns="http://www.w3.org/2000/svg">
<ellipse cx="148.385" cy="163.874" rx="127.734" ry="106.126" fill="black" fill-opacity="0.12"/>
<path d="M240.17 148.385C240.17 200.133 198.991 242.082 148.194 242.082C97.3968 242.082 56.2178 200.133 56.2178 148.385C56.2178 96.638 97.3968 54.6885 148.194 54.6885C198.991 54.6885 240.17 96.638 240.17 148.385Z" fill="black" fill-opacity="0.2"/>
<g filter="url(#filter0_d_3_11312)">
<g filter="url(#filter1_ii_3_11312)">
<path d="M275.924 182.029C270.193 164.358 257.718 141.713 253.591 134.571C248.066 124.142 240.638 117.452 234.054 110.411C222.044 97.5661 213.251 86.0645 205.054 90.392C196.787 94.7565 206.727 100.648 210.736 117.992C212.881 127.271 207.633 147.294 213.072 157.559L220.035 175.58C221.35 178.254 226.532 176.589 226.237 173.626C225.502 166.23 225.32 159.345 226.123 155.306C226.395 153.938 227.929 153.876 228.561 155.121C232.763 163.384 237.309 177.761 240.363 189.195C241.376 192.987 245.659 192.954 245.692 189.03C245.764 180.481 244.455 171.149 243.111 164.188C242.737 162.249 244.859 161.235 245.896 162.917C250.589 170.529 255.308 181.709 258.772 190.99C260.102 194.552 263.928 194.155 263.537 190.375C262.898 184.221 261.341 177.6 259.739 171.959C259.154 169.9 261.735 168.56 262.949 170.324C265.971 174.712 268.85 179.313 271.342 183.552C273.379 187.018 277.165 185.852 275.924 182.029Z" fill="#4D7C0F"/>
</g>
<g filter="url(#filter2_ii_3_11312)">
<path d="M20.4643 184.324C26.1957 166.653 38.6703 144.008 42.7975 136.866C48.3226 126.437 55.751 119.747 62.3344 112.706C74.3443 99.8611 83.1378 88.3594 91.3348 92.6869C99.6019 97.0514 89.6615 102.943 85.6526 120.287C83.5077 129.566 88.7552 149.589 83.3164 159.854L76.3541 177.875C75.0391 180.548 69.8568 178.884 70.1515 175.921C70.8869 168.525 71.0692 161.64 70.2655 157.601C69.9933 156.233 68.46 156.171 67.8273 157.415C63.6259 165.679 59.0796 180.056 56.0256 191.49C55.0126 195.282 50.7297 195.249 50.6965 191.325C50.6243 182.776 51.9337 173.444 53.2776 166.483C53.6518 164.544 51.5294 163.53 50.4927 165.212C45.8 172.824 41.0806 184.004 37.6165 193.285C36.2871 196.847 32.4602 196.45 32.8521 192.67C33.4902 186.515 35.048 179.895 36.6499 174.254C37.2346 172.195 34.654 170.855 33.4395 172.619C30.4174 177.007 27.5382 181.608 25.047 185.847C23.0096 189.313 19.2241 188.147 20.4643 184.324Z" fill="#4D7C0F"/>
</g>
</g>
<g filter="url(#filter3_i_3_11312)">
<path d="M219.26 62.0799C204.338 85.7557 199.208 105.169 211.23 112.729C223.253 120.29 238.994 109.667 253.915 85.9913C268.837 62.3154 277.289 34.552 265.267 26.9914C253.245 19.4309 234.181 38.404 219.26 62.0799Z" fill="#65A30D"/>
</g>
<g filter="url(#filter4_i_3_11312)">
<path d="M214.707 27.3145C191.634 43.0748 178.941 68.5774 189.974 84.6955C201.008 100.814 197.058 129.681 220.132 113.921C243.205 98.1606 284.564 43.7404 273.53 27.6223C262.496 11.5042 237.78 11.5542 214.707 27.3145Z" fill="#65A30D"/>
</g>
<g filter="url(#filter5_i_3_11312)">
<path d="M77.511 62.0799C92.4328 85.7557 97.5626 105.169 85.5402 112.729C73.5179 120.29 57.777 109.667 42.8552 85.9913C27.9333 62.3154 19.4811 34.552 31.5035 26.9914C43.5258 19.4309 62.5891 38.404 77.511 62.0799Z" fill="#65A30D"/>
</g>
<g filter="url(#filter6_i_3_11312)">
<path d="M82.0635 27.3145C105.137 43.0748 117.83 68.5774 106.796 84.6955C95.7625 100.814 99.7121 129.681 76.6389 113.921C53.5656 98.1606 12.2069 43.7404 23.2406 27.6223C34.2743 11.5042 58.9902 11.5542 82.0635 27.3145Z" fill="#65A30D"/>
</g>
<g filter="url(#filter7_d_3_11312)">
<path d="M82.1008 203.769C86.3928 197.048 104.965 196.496 123.584 202.535C136.554 206.743 146.605 215.044 151.667 221.153C152.752 222.462 150.806 223.952 149.125 223.162C141.697 219.672 129.933 214.563 122.478 212.392C121.315 212.054 120.245 213.404 121.002 214.172C125.167 218.398 131.174 226.065 134.831 231.977C135.737 233.443 133.709 234.718 132.225 233.647C125.911 229.088 116.487 222.562 110.683 220.267C109.904 219.959 109.038 220.546 109.239 221.255C110.278 224.921 113.931 232.665 118.096 238.599C119.09 240.015 117.087 242.009 115.39 241.162C106.863 236.906 102.619 229.541 96.8674 223.056C78.8841 215.554 79.8842 207.239 82.1008 203.769Z" fill="#4D7C0F"/>
</g>
<g filter="url(#filter8_d_3_11312)">
<path d="M218.004 202.604C213.56 195.894 194.843 195.538 176.197 201.809C163.178 206.188 153.188 214.669 148.209 220.869C147.149 222.189 149.124 223.651 150.794 222.843C158.224 219.247 170.045 213.954 177.529 211.695C178.687 211.345 179.78 212.676 179.036 213.45C174.904 217.748 168.95 225.573 165.367 231.577C164.488 233.05 166.544 234.297 168.01 233.21C174.293 228.555 183.705 221.863 189.522 219.492C190.296 219.177 191.173 219.75 190.986 220.459C190.008 224.16 186.445 232.036 182.334 238.062C181.363 239.485 183.398 241.447 185.086 240.585C193.637 236.218 197.785 228.751 203.476 222.154C221.456 214.418 220.299 206.07 218.004 202.604Z" fill="#4D7C0F"/>
</g>
<g filter="url(#filter9_i_3_11312)">
<path d="M217.766 175.168L212.632 170.938C209.883 168.674 205.975 168.474 203.01 170.447L202.158 171.014C197.99 173.787 197.755 179.825 201.694 182.915C205.086 185.574 205.471 190.569 202.527 193.717L200.693 195.678C196.089 200.602 198.135 208.639 204.534 210.76C208.539 212.088 212.936 210.534 215.217 206.983L221.274 197.552C225.944 190.279 224.437 180.663 217.766 175.168Z" fill="#4D7C0F"/>
</g>
<g filter="url(#filter10_i_3_11312)">
<path d="M82.0637 175.168L87.1978 170.938C89.9473 168.674 93.8548 168.474 96.8205 170.447L97.6717 171.014C101.84 173.787 102.075 179.825 98.1356 182.915C94.7438 185.574 94.3588 190.569 97.3029 193.717L99.1371 195.678C103.741 200.602 101.695 208.639 95.2964 210.76C91.2906 212.088 86.894 210.534 84.6135 206.983L78.5565 197.552C73.8859 190.279 75.3926 180.663 82.0637 175.168Z" fill="#4D7C0F"/>
</g>
<g filter="url(#filter11_ii_3_11312)">
<path d="M220.283 141.809C220.283 167.094 200.067 190.836 149.087 190.836C98.1077 190.836 79.5469 163.233 79.5469 137.948C79.5469 126.626 86.9219 109.691 95.6092 95.2104C101.329 85.6765 105.547 61.2051 115.927 56.1009C124.99 51.6441 135.965 59.1677 149.087 59.1677C161.625 59.1677 172.302 51.6413 181.275 56.1009C191.618 61.2413 193.576 85.6748 199.632 95.2104C209.685 111.04 220.283 129.91 220.283 141.809Z" fill="#65A30D"/>
</g>
<path d="M95.7381 112.369C95.8089 104.447 106.484 91.6263 112.014 91.6761C117.544 91.7259 124.093 106.397 124.022 114.32C123.951 122.242 111.152 126.854 105.623 126.804C100.093 126.754 95.6674 120.292 95.7381 112.369Z" fill="black" fill-opacity="0.12"/>
<path d="M135.7 87.1586C135.665 83.1974 130.185 76.7886 127.345 76.8141C124.505 76.8397 121.141 84.1762 121.176 88.1375C121.211 92.0987 127.783 94.403 130.623 94.3774C133.462 94.3518 135.736 91.1199 135.7 87.1586Z" fill="black" fill-opacity="0.12"/>
<path d="M204.092 112.121C204.021 120.044 193.346 132.864 187.816 132.814C182.286 132.764 175.737 118.093 175.808 110.17C175.879 102.248 188.678 97.6363 194.207 97.6861C199.737 97.7359 204.163 104.199 204.092 112.121Z" fill="black" fill-opacity="0.12"/>
<path d="M139.741 112.986C139.824 103.685 148.379 88.5995 152.788 88.6392C157.197 88.6789 162.369 105.879 162.286 115.18C162.203 124.48 151.982 129.937 147.573 129.897C143.165 129.857 139.658 122.286 139.741 112.986Z" fill="black" fill-opacity="0.12"/>
<path d="M157.105 76.2211C157.077 79.4073 152.201 81.8937 150.376 81.8773C148.551 81.8608 146.399 75.9647 146.427 72.7784C146.456 69.5922 150.683 67.7293 152.508 67.7457C154.334 67.7622 157.134 73.0349 157.105 76.2211Z" fill="black" fill-opacity="0.12"/>
<path d="M179.009 87.8643C179.025 91.2229 174.484 96.7199 172.093 96.7313C169.702 96.7428 166.784 90.5625 166.768 87.204C166.752 83.8454 172.259 81.8154 174.65 81.8039C177.041 81.7924 178.993 84.5058 179.009 87.8643Z" fill="black" fill-opacity="0.12"/>
<g filter="url(#filter12_iii_3_11312)">
<path d="M220.665 149.633C220.665 172.896 188.989 215.694 149.915 215.694C110.84 215.694 79.1641 172.896 79.1641 149.633C79.1641 126.37 110.84 95.2266 149.915 95.2266C188.989 95.2266 220.665 126.37 220.665 149.633Z" fill="#65A30D"/>
</g>
<path d="M118.282 113.405C123.252 107.235 139.666 103.92 144.018 107.451C148.371 110.982 144.462 126.627 139.492 132.797C134.523 138.967 121.517 134.502 117.164 130.971C112.812 127.44 113.312 119.575 118.282 113.405Z" fill="black" fill-opacity="0.12"/>
<path d="M167.732 110.071C172.886 110.432 180.835 117.568 180.596 120.997C180.358 124.427 170.565 127.904 165.41 127.544C160.256 127.184 157.73 119.058 157.968 115.628C158.206 112.199 162.577 109.711 167.732 110.071Z" fill="black" fill-opacity="0.12"/>
<path d="M142.149 138.212C142.644 134.368 149.395 128.874 152.507 129.278C155.62 129.682 158.466 137.258 157.971 141.102C157.476 144.945 150 146.306 146.888 145.903C143.775 145.499 141.653 142.055 142.149 138.212Z" fill="black" fill-opacity="0.12"/>
<g filter="url(#filter13_i_3_11312)">
<ellipse cx="130.411" cy="188.54" rx="3.44193" ry="2.29462" transform="rotate(-90 130.411 188.54)" fill="#365314"/>
</g>
<ellipse cx="130.411" cy="189.305" rx="2.29462" ry="1.91218" transform="rotate(-90 130.411 189.305)" fill="black" fill-opacity="0.4"/>
<g filter="url(#filter14_i_3_11312)">
<ellipse cx="169.801" cy="188.54" rx="3.44193" ry="2.29462" transform="rotate(-90 169.801 188.54)" fill="#365314"/>
</g>
<ellipse cx="169.801" cy="189.305" rx="2.29462" ry="1.91218" transform="rotate(-90 169.801 189.305)" fill="black" fill-opacity="0.4"/>
<g filter="url(#filter15_dii_3_11312)">
<ellipse cx="32.6983" cy="33.272" rx="32.6983" ry="33.272" transform="matrix(0.988688 -0.149984 0.149015 0.988835 68.8389 115.496)" fill="#65A30D"/>
</g>
<g filter="url(#filter16_ii_3_11312)">
<path d="M112.428 145.919C114.776 161.481 109.92 174.723 100.36 176.172C90.7995 177.62 76.299 165.365 73.9509 149.803C71.6028 134.241 81.3055 121.812 90.8659 120.364C100.426 118.915 110.08 130.357 112.428 145.919Z" fill="#4D7C0F"/>
</g>
<g filter="url(#filter17_ii_3_11312)">
<path d="M112.402 145.693C114.749 161.249 109.892 174.486 100.332 175.935C90.7717 177.383 76.272 165.134 73.9249 149.578C71.5778 134.022 88.9737 133.674 88.9737 133.674C106.487 133.688 112.402 145.693 112.402 145.693Z" fill="#FACC15"/>
</g>
<g filter="url(#filter18_dii_3_11312)">
<ellipse cx="32.6983" cy="33.272" rx="32.6983" ry="33.272" transform="matrix(-0.988716 -0.149803 -0.149195 0.988808 230.992 115.496)" fill="#65A30D"/>
</g>
<g filter="url(#filter19_ii_3_11312)">
<path d="M188.16 146.409C185.813 161.968 189.716 174.689 199.106 176.112C208.496 177.534 223.884 163.415 226.231 147.857C228.579 132.298 218.803 122.236 209.413 120.814C200.023 119.391 190.508 130.85 188.16 146.409Z" fill="#4D7C0F"/>
</g>
<g filter="url(#filter20_ii_3_11312)">
<path d="M188.194 145.693C185.847 161.249 190.703 174.486 200.264 175.935C209.824 177.383 224.324 165.134 226.671 149.578C229.018 134.022 211.622 133.674 211.622 133.674C194.108 133.688 188.194 145.693 188.194 145.693Z" fill="#FACC15"/>
</g>
<path d="M216.765 165.165C221.612 160.304 221.972 152.79 217.569 148.381C213.166 143.971 213.893 149.821 209.046 154.681C204.199 159.542 195.613 161.573 200.016 165.982C204.419 170.392 211.918 170.026 216.765 165.165Z" fill="#292524"/>
<path d="M84.2123 165.165C79.3651 160.304 79.0051 152.79 83.4081 148.381C87.8111 143.971 87.0842 149.821 91.9314 154.681C96.7786 159.542 105.364 161.573 100.961 165.982C96.5582 170.392 89.0595 170.026 84.2123 165.165Z" fill="#292524"/>
<ellipse opacity="0.9" cx="3.82436" cy="3.63314" rx="3.82436" ry="3.63314" transform="matrix(-1 0 0 1 205.368 156.8)" fill="white"/>
<ellipse opacity="0.9" cx="7.45751" cy="7.64873" rx="7.45751" ry="7.64873" transform="matrix(-1 0 0 1 217.988 141.502)" fill="white"/>
<ellipse opacity="0.9" cx="4.78045" cy="4.58924" rx="4.78045" ry="4.58924" transform="matrix(-1 0 0 1 216.076 161.006)" fill="white"/>
<path d="M192.309 168.011C189.065 166.472 188.68 168.652 188.894 169.935C187.756 173.213 188.723 179.513 201.699 178.487C217.919 177.204 223.041 164.804 224.962 162.025C226.882 159.245 226.882 158.177 224.962 156.039C223.041 153.901 221.974 161.17 218.986 164.804C215.998 168.439 211.73 172.287 208.955 171.218C206.181 170.149 203.62 173.142 200.419 173.57C197.217 173.997 196.364 169.935 192.309 168.011Z" fill="#BFDBFE"/>
<ellipse opacity="0.9" cx="100.963" cy="160.624" rx="3.44193" ry="3.44193" fill="white"/>
<ellipse opacity="0.9" cx="91.7854" cy="149.151" rx="7.64872" ry="7.64873" fill="white"/>
<ellipse opacity="0.9" cx="92.5498" cy="167.125" rx="4.97167" ry="4.97167" fill="white"/>
<path d="M107.904 168.393C111.148 166.854 111.532 169.034 111.319 170.317C112.457 173.595 111.49 179.895 98.5138 178.869C82.2941 177.586 77.172 165.186 75.2513 162.407C73.3305 159.627 73.3305 158.558 75.2513 156.42C77.172 154.283 78.2391 161.551 81.227 165.186C84.2148 168.82 88.4832 172.669 91.2576 171.6C94.0321 170.531 96.5931 173.524 99.7944 173.951C102.996 174.379 103.849 170.317 107.904 168.393Z" fill="#BFDBFE"/>
<path d="M192.113 64.1803C192.184 56.2578 203.003 43.4384 208.607 43.4886C214.212 43.5388 220.85 58.2109 220.779 66.1334C220.708 74.0559 207.737 78.6664 202.132 78.6161C196.528 78.5659 192.042 72.1027 192.113 64.1803Z" fill="black" fill-opacity="0.12"/>
<path d="M79.7292 60.9986C79.798 53.3345 88.6915 47.328 92.0159 47.3577C95.3404 47.3875 99.2292 61.5585 99.1605 69.2226C99.0918 76.8868 91.3815 81.3903 88.0571 81.3605C84.7326 81.3307 79.6605 68.6628 79.7292 60.9986Z" fill="black" fill-opacity="0.12"/>
<path d="M229.135 30.6852C233.396 27.7627 244.057 28.4109 246.002 31.2452C247.948 34.0795 242.438 42.893 238.177 45.8155C233.916 48.738 226.887 43.943 224.941 41.1087C222.996 38.2744 224.874 33.6076 229.135 30.6852Z" fill="black" fill-opacity="0.12"/>
<path d="M74.1376 29.9205C69.8765 26.998 59.2152 27.6463 57.27 30.4806C55.3248 33.3148 60.834 42.1283 65.0952 45.0508C69.3563 47.9733 76.3859 43.1783 78.331 40.3441C80.2762 37.5098 78.3988 32.843 74.1376 29.9205Z" fill="black" fill-opacity="0.12"/>
<path d="M216.301 89.9632C216.97 86.672 220.998 81.9032 222.536 82.2156C224.074 82.528 224.697 88.9755 224.028 92.2667C223.359 95.558 219.412 96.8007 217.874 96.4883C216.336 96.1759 215.632 93.2545 216.301 89.9632Z" fill="black" fill-opacity="0.12"/>
<path d="M225.083 69.9693C223.083 66.6503 224.956 58.147 227.645 56.5276C230.333 54.9082 237.27 59.0733 239.271 62.3923C241.271 65.7114 236.262 71.4273 233.574 73.0467C230.885 74.6661 227.084 73.2883 225.083 69.9693Z" fill="black" fill-opacity="0.12"/>
<path d="M56.4292 66.1451C54.4287 62.826 56.3019 54.3228 58.9905 52.7034C61.6791 51.084 68.6162 55.2491 70.6166 58.5681C72.6171 61.8871 67.6081 67.6031 64.9195 69.2225C62.2309 70.8419 58.4296 69.4641 56.4292 66.1451Z" fill="black" fill-opacity="0.12"/>
<defs>
<filter id="filter0_d_3_11312" x="20.2197" y="89.4639" width="255.949" height="109.34" filterUnits="userSpaceOnUse" color-interpolation-filters="sRGB">
<feFlood flood-opacity="0" result="BackgroundImageFix"/>
<feColorMatrix in="SourceAlpha" type="matrix" values="0 0 0 0 0 0 0 0 0 0 0 0 0 0 0 0 0 0 127 0" result="hardAlpha"/>
<feOffset dy="3.05949"/>
<feComposite in2="hardAlpha" operator="out"/>
<feColorMatrix type="matrix" values="0 0 0 0 0 0 0 0 0 0 0 0 0 0 0 0 0 0 0.15 0"/>
<feBlend mode="normal" in2="BackgroundImageFix" result="effect1_dropShadow_3_11312"/>
<feBlend mode="normal" in="SourceGraphic" in2="effect1_dropShadow_3_11312" result="shape"/>
</filter>
<filter id="filter1_ii_3_11312" x="201.862" y="86.4044" width="81.9554" height="114.694" filterUnits="userSpaceOnUse" color-interpolation-filters="sRGB">
<feFlood flood-opacity="0" result="BackgroundImageFix"/>
<feBlend mode="normal" in="SourceGraphic" in2="BackgroundImageFix" result="shape"/>
<feColorMatrix in="SourceAlpha" type="matrix" values="0 0 0 0 0 0 0 0 0 0 0 0 0 0 0 0 0 0 127 0" result="hardAlpha"/>
<feOffset dy="-5.73654"/>
<feGaussianBlur stdDeviation="1.52974"/>
<feComposite in2="hardAlpha" operator="arithmetic" k2="-1" k3="1"/>
<feColorMatrix type="matrix" values="0 0 0 0 0 0 0 0 0 0 0 0 0 0 0 0 0 0 0.15 0"/>
<feBlend mode="normal" in2="shape" result="effect1_innerShadow_3_11312"/>
<feColorMatrix in="SourceAlpha" type="matrix" values="0 0 0 0 0 0 0 0 0 0 0 0 0 0 0 0 0 0 127 0" result="hardAlpha"/>
<feOffset dx="27.5354" dy="19.8867"/>
<feGaussianBlur stdDeviation="3.82436"/>
<feComposite in2="hardAlpha" operator="arithmetic" k2="-1" k3="1"/>
<feColorMatrix type="matrix" values="0 0 0 0 0 0 0 0 0 0 0 0 0 0 0 0 0 0 0.25 0"/>
<feBlend mode="normal" in2="effect1_innerShadow_3_11312" result="effect2_innerShadow_3_11312"/>
</filter>
<filter id="filter2_ii_3_11312" x="9.51151" y="88.6993" width="85.0149" height="117.753" filterUnits="userSpaceOnUse" color-interpolation-filters="sRGB">
<feFlood flood-opacity="0" result="BackgroundImageFix"/>
<feBlend mode="normal" in="SourceGraphic" in2="BackgroundImageFix" result="shape"/>
<feColorMatrix in="SourceAlpha" type="matrix" values="0 0 0 0 0 0 0 0 0 0 0 0 0 0 0 0 0 0 127 0" result="hardAlpha"/>
<feOffset dy="-5.73654"/>
<feGaussianBlur stdDeviation="1.52974"/>
<feComposite in2="hardAlpha" operator="arithmetic" k2="-1" k3="1"/>
<feColorMatrix type="matrix" values="0 0 0 0 0 0 0 0 0 0 0 0 0 0 0 0 0 0 0.15 0"/>
<feBlend mode="normal" in2="shape" result="effect1_innerShadow_3_11312"/>
<feColorMatrix in="SourceAlpha" type="matrix" values="0 0 0 0 0 0 0 0 0 0 0 0 0 0 0 0 0 0 127 0" result="hardAlpha"/>
<feOffset dx="-24.4759" dy="19.8867"/>
<feGaussianBlur stdDeviation="5.35411"/>
<feComposite in2="hardAlpha" operator="arithmetic" k2="-1" k3="1"/>
<feColorMatrix type="matrix" values="0 0 0 0 0 0 0 0 0 0 0 0 0 0 0 0 0 0 0.25 0"/>
<feBlend mode="normal" in2="effect1_innerShadow_3_11312" result="effect2_innerShadow_3_11312"/>
</filter>
<filter id="filter3_i_3_11312" x="204.551" y="10.3916" width="80.9652" height="104.743" filterUnits="userSpaceOnUse" color-interpolation-filters="sRGB">
<feFlood flood-opacity="0" result="BackgroundImageFix"/>
<feBlend mode="normal" in="SourceGraphic" in2="BackgroundImageFix" result="shape"/>
<feColorMatrix in="SourceAlpha" type="matrix" values="0 0 0 0 0 0 0 0 0 0 0 0 0 0 0 0 0 0 127 0" result="hardAlpha"/>
<feOffset dx="14.5326" dy="-18.3569"/>
<feGaussianBlur stdDeviation="7.45751"/>
<feComposite in2="hardAlpha" operator="arithmetic" k2="-1" k3="1"/>
<feColorMatrix type="matrix" values="0 0 0 0 0 0 0 0 0 0 0 0 0 0 0 0 0 0 0.35 0"/>
<feBlend mode="normal" in2="shape" result="effect1_innerShadow_3_11312"/>
</filter>
<filter id="filter4_i_3_11312" x="185.939" y="0.598659" width="103.958" height="117.883" filterUnits="userSpaceOnUse" color-interpolation-filters="sRGB">
<feFlood flood-opacity="0" result="BackgroundImageFix"/>
<feBlend mode="normal" in="SourceGraphic" in2="BackgroundImageFix" result="shape"/>
<feColorMatrix in="SourceAlpha" type="matrix" values="0 0 0 0 0 0 0 0 0 0 0 0 0 0 0 0 0 0 127 0" result="hardAlpha"/>
<feOffset dx="14.5326" dy="-18.3569"/>
<feGaussianBlur stdDeviation="7.45751"/>
<feComposite in2="hardAlpha" operator="arithmetic" k2="-1" k3="1"/>
<feColorMatrix type="matrix" values="0 0 0 0 0 0 0 0 0 0 0 0 0 0 0 0 0 0 0.25 0"/>
<feBlend mode="normal" in2="shape" result="effect1_innerShadow_3_11312"/>
</filter>
<filter id="filter5_i_3_11312" x="25.7871" y="10.3916" width="80.9652" height="104.743" filterUnits="userSpaceOnUse" color-interpolation-filters="sRGB">
<feFlood flood-opacity="0" result="BackgroundImageFix"/>
<feBlend mode="normal" in="SourceGraphic" in2="BackgroundImageFix" result="shape"/>
<feColorMatrix in="SourceAlpha" type="matrix" values="0 0 0 0 0 0 0 0 0 0 0 0 0 0 0 0 0 0 127 0" result="hardAlpha"/>
<feOffset dx="14.5326" dy="-18.3569"/>
<feGaussianBlur stdDeviation="7.45751"/>
<feComposite in2="hardAlpha" operator="arithmetic" k2="-1" k3="1"/>
<feColorMatrix type="matrix" values="0 0 0 0 0 0 0 0 0 0 0 0 0 0 0 0 0 0 0.35 0"/>
<feBlend mode="normal" in2="shape" result="effect1_innerShadow_3_11312"/>
</filter>
<filter id="filter6_i_3_11312" x="21.4053" y="0.598659" width="103.958" height="117.883" filterUnits="userSpaceOnUse" color-interpolation-filters="sRGB">
<feFlood flood-opacity="0" result="BackgroundImageFix"/>
<feBlend mode="normal" in="SourceGraphic" in2="BackgroundImageFix" result="shape"/>
<feColorMatrix in="SourceAlpha" type="matrix" values="0 0 0 0 0 0 0 0 0 0 0 0 0 0 0 0 0 0 127 0" result="hardAlpha"/>
<feOffset dx="14.5326" dy="-18.3569"/>
<feGaussianBlur stdDeviation="7.45751"/>
<feComposite in2="hardAlpha" operator="arithmetic" k2="-1" k3="1"/>
<feColorMatrix type="matrix" values="0 0 0 0 0 0 0 0 0 0 0 0 0 0 0 0 0 0 0.25 0"/>
<feBlend mode="normal" in2="shape" result="effect1_innerShadow_3_11312"/>
</filter>
<filter id="filter7_d_3_11312" x="80.9121" y="198.344" width="71.0684" height="46.08" filterUnits="userSpaceOnUse" color-interpolation-filters="sRGB">
<feFlood flood-opacity="0" result="BackgroundImageFix"/>
<feColorMatrix in="SourceAlpha" type="matrix" values="0 0 0 0 0 0 0 0 0 0 0 0 0 0 0 0 0 0 127 0" result="hardAlpha"/>
<feOffset dy="3.05949"/>
<feComposite in2="hardAlpha" operator="out"/>
<feColorMatrix type="matrix" values="0 0 0 0 0 0 0 0 0 0 0 0 0 0 0 0 0 0 0.25 0"/>
<feBlend mode="normal" in2="BackgroundImageFix" result="effect1_dropShadow_3_11312"/>
<feBlend mode="normal" in="SourceGraphic" in2="effect1_dropShadow_3_11312" result="shape"/>
</filter>
<filter id="filter8_d_3_11312" x="147.91" y="197.329" width="71.3662" height="46.5263" filterUnits="userSpaceOnUse" color-interpolation-filters="sRGB">
<feFlood flood-opacity="0" result="BackgroundImageFix"/>
<feColorMatrix in="SourceAlpha" type="matrix" values="0 0 0 0 0 0 0 0 0 0 0 0 0 0 0 0 0 0 127 0" result="hardAlpha"/>
<feOffset dy="3.05949"/>
<feComposite in2="hardAlpha" operator="out"/>
<feColorMatrix type="matrix" values="0 0 0 0 0 0 0 0 0 0 0 0 0 0 0 0 0 0 0.25 0"/>
<feBlend mode="normal" in2="BackgroundImageFix" result="effect1_dropShadow_3_11312"/>
<feBlend mode="normal" in="SourceGraphic" in2="effect1_dropShadow_3_11312" result="shape"/>
</filter>
<filter id="filter9_i_3_11312" x="198.197" y="166.033" width="31.1363" height="45.1972" filterUnits="userSpaceOnUse" color-interpolation-filters="sRGB">
<feFlood flood-opacity="0" result="BackgroundImageFix"/>
<feBlend mode="normal" in="SourceGraphic" in2="BackgroundImageFix" result="shape"/>
<feColorMatrix in="SourceAlpha" type="matrix" values="0 0 0 0 0 0 0 0 0 0 0 0 0 0 0 0 0 0 127 0" result="hardAlpha"/>
<feOffset dx="5.35411" dy="-3.05949"/>
<feGaussianBlur stdDeviation="3.05949"/>
<feComposite in2="hardAlpha" operator="arithmetic" k2="-1" k3="1"/>
<feColorMatrix type="matrix" values="0 0 0 0 0 0 0 0 0 0 0 0 0 0 0 0 0 0 0.25 0"/>
<feBlend mode="normal" in2="shape" result="effect1_innerShadow_3_11312"/>
</filter>
<filter id="filter10_i_3_11312" x="75.8506" y="166.033" width="31.9012" height="45.1972" filterUnits="userSpaceOnUse" color-interpolation-filters="sRGB">
<feFlood flood-opacity="0" result="BackgroundImageFix"/>
<feBlend mode="normal" in="SourceGraphic" in2="BackgroundImageFix" result="shape"/>
<feColorMatrix in="SourceAlpha" type="matrix" values="0 0 0 0 0 0 0 0 0 0 0 0 0 0 0 0 0 0 127 0" result="hardAlpha"/>
<feOffset dx="8.4136" dy="-3.05949"/>
<feGaussianBlur stdDeviation="3.05949"/>
<feComposite in2="hardAlpha" operator="arithmetic" k2="-1" k3="1"/>
<feColorMatrix type="matrix" values="0 0 0 0 0 0 0 0 0 0 0 0 0 0 0 0 0 0 0.25 0"/>
<feBlend mode="normal" in2="shape" result="effect1_innerShadow_3_11312"/>
</filter>
<filter id="filter11_ii_3_11312" x="79.5469" y="27.5355" width="167.507" height="163.3" filterUnits="userSpaceOnUse" color-interpolation-filters="sRGB">
<feFlood flood-opacity="0" result="BackgroundImageFix"/>
<feBlend mode="normal" in="SourceGraphic" in2="BackgroundImageFix" result="shape"/>
<feColorMatrix in="SourceAlpha" type="matrix" values="0 0 0 0 0 0 0 0 0 0 0 0 0 0 0 0 0 0 127 0" result="hardAlpha"/>
<feOffset dx="26.7705" dy="-36.7139"/>
<feGaussianBlur stdDeviation="13.5765"/>
<feComposite in2="hardAlpha" operator="arithmetic" k2="-1" k3="1"/>
<feColorMatrix type="matrix" values="0 0 0 0 0 0 0 0 0 0 0 0 0 0 0 0 0 0 0.25 0"/>
<feBlend mode="normal" in2="shape" result="effect1_innerShadow_3_11312"/>
<feColorMatrix in="SourceAlpha" type="matrix" values="0 0 0 0 0 0 0 0 0 0 0 0 0 0 0 0 0 0 127 0" result="hardAlpha"/>
<feOffset dy="-16.8272"/>
<feGaussianBlur stdDeviation="8.03116"/>
<feComposite in2="hardAlpha" operator="arithmetic" k2="-1" k3="1"/>
<feColorMatrix type="matrix" values="0 0 0 0 0 0 0 0 0 0 0 0 0 0 0 0 0 0 0.25 0"/>
<feBlend mode="normal" in2="effect1_innerShadow_3_11312" result="effect2_innerShadow_3_11312"/>
</filter>
<filter id="filter12_iii_3_11312" x="73.0451" y="77.2521" width="147.62" height="149.15" filterUnits="userSpaceOnUse" color-interpolation-filters="sRGB">
<feFlood flood-opacity="0" result="BackgroundImageFix"/>
<feBlend mode="normal" in="SourceGraphic" in2="BackgroundImageFix" result="shape"/>
<feColorMatrix in="SourceAlpha" type="matrix" values="0 0 0 0 0 0 0 0 0 0 0 0 0 0 0 0 0 0 127 0" result="hardAlpha"/>
<feOffset dy="-21.4164"/>
<feGaussianBlur stdDeviation="8.98725"/>
<feComposite in2="hardAlpha" operator="arithmetic" k2="-1" k3="1"/>
<feColorMatrix type="matrix" values="0 0 0 0 0 0 0 0 0 0 0 0 0 0 0 0 0 0 0.25 0"/>
<feBlend mode="normal" in2="shape" result="effect1_innerShadow_3_11312"/>
<feColorMatrix in="SourceAlpha" type="matrix" values="0 0 0 0 0 0 0 0 0 0 0 0 0 0 0 0 0 0 127 0" result="hardAlpha"/>
<feOffset dx="-6.11898" dy="10.7082"/>
<feGaussianBlur stdDeviation="6.88385"/>
<feComposite in2="hardAlpha" operator="arithmetic" k2="-1" k3="1"/>
<feColorMatrix type="matrix" values="0 0 0 0 1 0 0 0 0 1 0 0 0 0 1 0 0 0 0.25 0"/>
<feBlend mode="normal" in2="effect1_innerShadow_3_11312" result="effect2_innerShadow_3_11312"/>
<feColorMatrix in="SourceAlpha" type="matrix" values="0 0 0 0 0 0 0 0 0 0 0 0 0 0 0 0 0 0 127 0" result="hardAlpha"/>
<feOffset dy="-4.58923"/>
<feGaussianBlur stdDeviation="5.35411"/>
<feComposite in2="hardAlpha" operator="arithmetic" k2="-1" k3="1"/>
<feColorMatrix type="matrix" values="0 0 0 0 0 0 0 0 0 0 0 0 0 0 0 0 0 0 0.25 0"/>
<feBlend mode="normal" in2="effect2_innerShadow_3_11312" result="effect3_innerShadow_3_11312"/>
</filter>
<filter id="filter13_i_3_11312" x="128.116" y="185.099" width="4.9713" height="7.26623" filterUnits="userSpaceOnUse" color-interpolation-filters="sRGB">
<feFlood flood-opacity="0" result="BackgroundImageFix"/>
<feBlend mode="normal" in="SourceGraphic" in2="BackgroundImageFix" result="shape"/>
<feColorMatrix in="SourceAlpha" type="matrix" values="0 0 0 0 0 0 0 0 0 0 0 0 0 0 0 0 0 0 127 0" result="hardAlpha"/>
<feOffset dx="0.382436" dy="0.382436"/>
<feGaussianBlur stdDeviation="0.191218"/>
<feComposite in2="hardAlpha" operator="arithmetic" k2="-1" k3="1"/>
<feColorMatrix type="matrix" values="0 0 0 0 0 0 0 0 0 0 0 0 0 0 0 0 0 0 0.25 0"/>
<feBlend mode="normal" in2="shape" result="effect1_innerShadow_3_11312"/>
</filter>
<filter id="filter14_i_3_11312" x="167.507" y="185.099" width="4.9713" height="7.26623" filterUnits="userSpaceOnUse" color-interpolation-filters="sRGB">
<feFlood flood-opacity="0" result="BackgroundImageFix"/>
<feBlend mode="normal" in="SourceGraphic" in2="BackgroundImageFix" result="shape"/>
<feColorMatrix in="SourceAlpha" type="matrix" values="0 0 0 0 0 0 0 0 0 0 0 0 0 0 0 0 0 0 127 0" result="hardAlpha"/>
<feOffset dx="0.382436" dy="0.382436"/>
<feGaussianBlur stdDeviation="0.191218"/>
<feComposite in2="hardAlpha" operator="arithmetic" k2="-1" k3="1"/>
<feColorMatrix type="matrix" values="0 0 0 0 0 0 0 0 0 0 0 0 0 0 0 0 0 0 0.25 0"/>
<feBlend mode="normal" in2="shape" result="effect1_innerShadow_3_11312"/>
</filter>
<filter id="filter15_dii_3_11312" x="64.2356" y="110.224" width="89.1329" height="74.1858" filterUnits="userSpaceOnUse" color-interpolation-filters="sRGB">
<feFlood flood-opacity="0" result="BackgroundImageFix"/>
<feColorMatrix in="SourceAlpha" type="matrix" values="0 0 0 0 0 0 0 0 0 0 0 0 0 0 0 0 0 0 127 0" result="hardAlpha"/>
<feOffset dy="4.58923"/>
<feComposite in2="hardAlpha" operator="out"/>
<feColorMatrix type="matrix" values="0 0 0 0 0 0 0 0 0 0 0 0 0 0 0 0 0 0 0.25 0"/>
<feBlend mode="normal" in2="BackgroundImageFix" result="effect1_dropShadow_3_11312"/>
<feBlend mode="normal" in="SourceGraphic" in2="effect1_dropShadow_3_11312" result="shape"/>
<feColorMatrix in="SourceAlpha" type="matrix" values="0 0 0 0 0 0 0 0 0 0 0 0 0 0 0 0 0 0 127 0" result="hardAlpha"/>
<feOffset dx="14.5326"/>
<feGaussianBlur stdDeviation="13.5765"/>
<feComposite in2="hardAlpha" operator="arithmetic" k2="-1" k3="1"/>
<feColorMatrix type="matrix" values="0 0 0 0 0 0 0 0 0 0 0 0 0 0 0 0 0 0 0.25 0"/>
<feBlend mode="normal" in2="shape" result="effect2_innerShadow_3_11312"/>
<feColorMatrix in="SourceAlpha" type="matrix" values="0 0 0 0 0 0 0 0 0 0 0 0 0 0 0 0 0 0 127 0" result="hardAlpha"/>
<feOffset dx="-9.17847" dy="7.64873"/>
<feGaussianBlur stdDeviation="6.88385"/>
<feComposite in2="hardAlpha" operator="arithmetic" k2="-1" k3="1"/>
<feColorMatrix type="matrix" values="0 0 0 0 1 0 0 0 0 1 0 0 0 0 1 0 0 0 0.25 0"/>
<feBlend mode="normal" in2="effect2_innerShadow_3_11312" result="effect3_innerShadow_3_11312"/>
</filter>
<filter id="filter16_ii_3_11312" x="73.5957" y="120.24" width="39.418" height="63.6966" filterUnits="userSpaceOnUse" color-interpolation-filters="sRGB">
<feFlood flood-opacity="0" result="BackgroundImageFix"/>
<feBlend mode="normal" in="SourceGraphic" in2="BackgroundImageFix" result="shape"/>
<feColorMatrix in="SourceAlpha" type="matrix" values="0 0 0 0 0 0 0 0 0 0 0 0 0 0 0 0 0 0 127 0" result="hardAlpha"/>
<feOffset dy="3.05949"/>
<feComposite in2="hardAlpha" operator="arithmetic" k2="-1" k3="1"/>
<feColorMatrix type="matrix" values="0 0 0 0 0 0 0 0 0 0 0 0 0 0 0 0 0 0 0.25 0"/>
<feBlend mode="normal" in2="shape" result="effect1_innerShadow_3_11312"/>
<feColorMatrix in="SourceAlpha" type="matrix" values="0 0 0 0 0 0 0 0 0 0 0 0 0 0 0 0 0 0 127 0" result="hardAlpha"/>
<feOffset dy="8.4136"/>
<feGaussianBlur stdDeviation="3.82436"/>
<feComposite in2="hardAlpha" operator="arithmetic" k2="-1" k3="1"/>
<feColorMatrix type="matrix" values="0 0 0 0 0 0 0 0 0 0 0 0 0 0 0 0 0 0 0.25 0"/>
<feBlend mode="normal" in2="effect1_innerShadow_3_11312" result="effect2_innerShadow_3_11312"/>
</filter>
<filter id="filter17_ii_3_11312" x="73.707" y="126.791" width="39.2803" height="49.2598" filterUnits="userSpaceOnUse" color-interpolation-filters="sRGB">
<feFlood flood-opacity="0" result="BackgroundImageFix"/>
<feBlend mode="normal" in="SourceGraphic" in2="BackgroundImageFix" result="shape"/>
<feColorMatrix in="SourceAlpha" type="matrix" values="0 0 0 0 0 0 0 0 0 0 0 0 0 0 0 0 0 0 127 0" result="hardAlpha"/>
<feOffset dy="1.52974"/>
<feComposite in2="hardAlpha" operator="arithmetic" k2="-1" k3="1"/>
<feColorMatrix type="matrix" values="0 0 0 0 0 0 0 0 0 0 0 0 0 0 0 0 0 0 0.25 0"/>
<feBlend mode="normal" in2="shape" result="effect1_innerShadow_3_11312"/>
<feColorMatrix in="SourceAlpha" type="matrix" values="0 0 0 0 0 0 0 0 0 0 0 0 0 0 0 0 0 0 127 0" result="hardAlpha"/>
<feOffset dy="-6.88385"/>
<feGaussianBlur stdDeviation="3.82436"/>
<feComposite in2="hardAlpha" operator="arithmetic" k2="-1" k3="1"/>
<feColorMatrix type="matrix" values="0 0 0 0 0 0 0 0 0 0 0 0 0 0 0 0 0 0 0.25 0"/>
<feBlend mode="normal" in2="effect1_innerShadow_3_11312" result="effect2_innerShadow_3_11312"/>
</filter>
<filter id="filter18_dii_3_11312" x="151.808" y="110.23" width="76.8989" height="74.1819" filterUnits="userSpaceOnUse" color-interpolation-filters="sRGB">
<feFlood flood-opacity="0" result="BackgroundImageFix"/>
<feColorMatrix in="SourceAlpha" type="matrix" values="0 0 0 0 0 0 0 0 0 0 0 0 0 0 0 0 0 0 127 0" result="hardAlpha"/>
<feOffset dy="4.58923"/>
<feComposite in2="hardAlpha" operator="out"/>
<feColorMatrix type="matrix" values="0 0 0 0 0 0 0 0 0 0 0 0 0 0 0 0 0 0 0.25 0"/>
<feBlend mode="normal" in2="BackgroundImageFix" result="effect1_dropShadow_3_11312"/>
<feBlend mode="normal" in="SourceGraphic" in2="effect1_dropShadow_3_11312" result="shape"/>
<feColorMatrix in="SourceAlpha" type="matrix" values="0 0 0 0 0 0 0 0 0 0 0 0 0 0 0 0 0 0 127 0" result="hardAlpha"/>
<feOffset dx="2.29462"/>
<feGaussianBlur stdDeviation="13.5765"/>
<feComposite in2="hardAlpha" operator="arithmetic" k2="-1" k3="1"/>
<feColorMatrix type="matrix" values="0 0 0 0 0 0 0 0 0 0 0 0 0 0 0 0 0 0 0.25 0"/>
<feBlend mode="normal" in2="shape" result="effect2_innerShadow_3_11312"/>
<feColorMatrix in="SourceAlpha" type="matrix" values="0 0 0 0 0 0 0 0 0 0 0 0 0 0 0 0 0 0 127 0" result="hardAlpha"/>
<feOffset dx="-9.17847" dy="7.64873"/>
<feGaussianBlur stdDeviation="6.88385"/>
<feComposite in2="hardAlpha" operator="arithmetic" k2="-1" k3="1"/>
<feColorMatrix type="matrix" values="0 0 0 0 1 0 0 0 0 1 0 0 0 0 1 0 0 0 0.25 0"/>
<feBlend mode="normal" in2="effect2_innerShadow_3_11312" result="effect3_innerShadow_3_11312"/>
</filter>
<filter id="filter19_ii_3_11312" x="187.494" y="120.694" width="39.0908" height="63.1653" filterUnits="userSpaceOnUse" color-interpolation-filters="sRGB">
<feFlood flood-opacity="0" result="BackgroundImageFix"/>
<feBlend mode="normal" in="SourceGraphic" in2="BackgroundImageFix" result="shape"/>
<feColorMatrix in="SourceAlpha" type="matrix" values="0 0 0 0 0 0 0 0 0 0 0 0 0 0 0 0 0 0 127 0" result="hardAlpha"/>
<feOffset dy="3.05949"/>
<feComposite in2="hardAlpha" operator="arithmetic" k2="-1" k3="1"/>
<feColorMatrix type="matrix" values="0 0 0 0 0 0 0 0 0 0 0 0 0 0 0 0 0 0 0.25 0"/>
<feBlend mode="normal" in2="shape" result="effect1_innerShadow_3_11312"/>
<feColorMatrix in="SourceAlpha" type="matrix" values="0 0 0 0 0 0 0 0 0 0 0 0 0 0 0 0 0 0 127 0" result="hardAlpha"/>
<feOffset dy="8.4136"/>
<feGaussianBlur stdDeviation="3.82436"/>
<feComposite in2="hardAlpha" operator="arithmetic" k2="-1" k3="1"/>
<feColorMatrix type="matrix" values="0 0 0 0 0 0 0 0 0 0 0 0 0 0 0 0 0 0 0.25 0"/>
<feBlend mode="normal" in2="effect1_innerShadow_3_11312" result="effect2_innerShadow_3_11312"/>
</filter>
<filter id="filter20_ii_3_11312" x="187.608" y="126.791" width="39.2803" height="49.2598" filterUnits="userSpaceOnUse" color-interpolation-filters="sRGB">
<feFlood flood-opacity="0" result="BackgroundImageFix"/>
<feBlend mode="normal" in="SourceGraphic" in2="BackgroundImageFix" result="shape"/>
<feColorMatrix in="SourceAlpha" type="matrix" values="0 0 0 0 0 0 0 0 0 0 0 0 0 0 0 0 0 0 127 0" result="hardAlpha"/>
<feOffset dy="1.52974"/>
<feComposite in2="hardAlpha" operator="arithmetic" k2="-1" k3="1"/>
<feColorMatrix type="matrix" values="0 0 0 0 0 0 0 0 0 0 0 0 0 0 0 0 0 0 0.25 0"/>
<feBlend mode="normal" in2="shape" result="effect1_innerShadow_3_11312"/>
<feColorMatrix in="SourceAlpha" type="matrix" values="0 0 0 0 0 0 0 0 0 0 0 0 0 0 0 0 0 0 127 0" result="hardAlpha"/>
<feOffset dy="-6.88385"/>
<feGaussianBlur stdDeviation="3.82436"/>
<feComposite in2="hardAlpha" operator="arithmetic" k2="-1" k3="1"/>
<feColorMatrix type="matrix" values="0 0 0 0 0 0 0 0 0 0 0 0 0 0 0 0 0 0 0.25 0"/>
<feBlend mode="normal" in2="effect1_innerShadow_3_11312" result="effect2_innerShadow_3_11312"/>
</filter>
</defs>
</svg>
