<svg width="175" height="161" viewBox="0 0 175 161" fill="none" xmlns="http://www.w3.org/2000/svg">
<path d="M39.7754 126C39.7754 123.791 41.5663 122 43.7754 122H128.775C130.985 122 132.775 123.791 132.775 126V157C132.775 159.209 130.985 161 128.775 161H43.7754C41.5663 161 39.7754 159.209 39.7754 157V126Z" fill="black" fill-opacity="0.2"/>
<g filter="url(#filter0_ii_3_11240)">
<path d="M43.7754 114C43.7754 101.85 53.6251 92 65.7754 92H106.775C118.926 92 128.775 101.85 128.775 114V153C128.775 155.209 126.985 157 124.775 157H47.7754C45.5663 157 43.7754 155.209 43.7754 153V114Z" fill="#C8A078"/>
</g>
<path d="M43.7754 143C43.7754 130.85 53.6251 121 65.7754 121H106.775C118.926 121 128.775 130.85 128.775 143V153C128.775 155.209 126.985 157 124.775 157H47.7754C45.5663 157 43.7754 155.209 43.7754 153V143Z" fill="#9A7858"/>
<circle cx="116.771" cy="109" r="6" fill="#3C2D24"/>
<circle cx="87.2754" cy="102.5" r="6.5" fill="#3C2D24"/>
<circle cx="57.7754" cy="108" r="6" fill="#3C2D24"/>
<g filter="url(#filter1_i_3_11240)">
<rect x="44.6455" y="75.1025" width="9" height="40" rx="4.5" transform="rotate(-15 44.6455 75.1025)" fill="#EA580C"/>
</g>
<g filter="url(#filter2_i_3_11240)">
<rect y="16.666" width="64" height="72" rx="32" transform="rotate(-15 0 16.666)" fill="#F472B6"/>
</g>
<circle cx="41.2623" cy="47.021" r="32" transform="rotate(165 41.2623 47.021)" fill="#EC4899"/>
<mask id="mask0_3_11240" style="mask-type:alpha" maskUnits="userSpaceOnUse" x="9" y="15" width="65" height="65">
<circle cx="41.2623" cy="47.021" r="32" transform="rotate(165 41.2623 47.021)" fill="#C4C4C4"/>
</mask>
<g mask="url(#mask0_3_11240)">
<path d="M55.5001 77.3862C62.7132 72.4287 67.6767 64.7986 69.2988 56.1738C70.9209 47.5504 69.0691 38.6383 64.1504 31.399C58.7294 23.4203 49.4792 18.9622 39.8839 19.7041C30.289 20.447 21.8067 26.2768 17.6325 34.9974C13.4586 43.719 14.2274 54.0063 19.6484 61.985C23.8646 68.1903 31.059 71.6581 38.522 71.0803C45.9856 70.5035 52.5823 65.9697 55.8283 59.1859C59.0751 52.4028 58.477 44.4014 54.2609 38.196C51.249 33.7631 46.1101 31.2861 40.779 31.6986C35.4494 32.1114 30.7369 35.3503 28.4171 40.1949C26.0988 45.0397 26.5251 50.7556 29.537 55.1886C31.344 57.8481 34.4276 59.3332 37.6261 59.0864C40.8252 58.839 43.6519 56.8962 45.0437 53.9883C46.4345 51.081 46.1792 47.652 44.3722 44.9924C43.4408 43.6215 41.5792 43.2722 40.2133 44.2109C38.8483 45.1491 38.4956 47.0204 39.427 48.3912C40.3578 49.7613 40.0065 51.6328 38.6407 52.5715C37.2748 53.5103 35.4135 53.1594 34.4827 51.7894C32.6757 49.1299 32.4189 45.7006 33.8112 42.7935C35.2021 39.8862 38.0295 37.943 41.2279 37.6961C44.4265 37.4478 47.51 38.9343 49.317 41.5939C52.3289 46.0268 52.7555 51.7412 50.4363 56.5867C48.1171 61.4321 43.4055 64.6704 38.0744 65.083C32.7433 65.4955 27.605 63.0194 24.5932 58.5865C20.3764 52.3802 19.7789 44.3797 23.0253 37.5959C26.2721 30.8128 32.8696 26.2784 40.3324 25.7008C47.7951 25.1246 54.9899 28.5908 59.2065 34.7969C64.6275 42.7756 65.3952 53.0636 61.2209 61.7842C57.047 70.5058 48.5657 76.335 38.9695 77.0775C29.3746 77.8204 20.1238 73.3628 14.7027 65.3841C13.7713 64.0132 11.9106 63.6632 10.5447 64.602C9.17891 65.5407 8.82702 67.4115 9.75842 68.7823C14.6773 76.0219 22.2597 80.9953 30.8369 82.6085C39.4154 84.2221 48.2869 82.3438 55.5001 77.3862Z" fill="#EAB308"/>
</g>
<g filter="url(#filter3_f_3_11240)">
<ellipse cx="58.7715" cy="47" rx="15" ry="21" fill="black" fill-opacity="0.2"/>
</g>
<g filter="url(#filter4_i_3_11240)">
<rect x="82.7754" y="68" width="9" height="40" rx="4.5" fill="#EA580C"/>
</g>
<g filter="url(#filter5_i_3_11240)">
<rect x="54.7754" width="64" height="72" rx="32" fill="#C084FC"/>
</g>
<circle cx="86.7754" cy="40" r="32" transform="rotate(-180 86.7754 40)" fill="#9333EA"/>
<mask id="mask1_3_11240" style="mask-type:alpha" maskUnits="userSpaceOnUse" x="54" y="8" width="65" height="64">
<circle cx="86.7754" cy="40" r="32" transform="rotate(-180 86.7754 40)" fill="#C4C4C4"/>
</mask>
<g mask="url(#mask1_3_11240)">
<path d="M92.6691 73.0154C100.92 70.0936 107.689 64.0081 111.488 56.0971C115.287 48.1873 115.804 39.0997 112.927 30.8339C109.756 21.724 101.975 15.0237 92.5143 13.2569C83.0541 11.4911 73.352 14.9269 67.0629 22.27C60.7739 29.6141 58.8539 39.7499 62.0252 48.8598C64.4916 55.9449 70.5434 61.1565 77.9017 62.5301C85.2602 63.9046 92.8055 61.2326 97.6967 55.5201C102.589 49.8084 104.082 41.9249 101.615 34.8398C99.8534 29.7784 95.5306 26.0557 90.2745 25.0744C85.0196 24.0938 79.6294 26.0026 76.1348 30.0817C72.6415 34.1614 71.574 39.7929 73.3359 44.8543C74.393 47.8909 76.9871 50.1235 80.1405 50.7129C83.2946 51.302 86.5278 50.157 88.6248 47.7084C90.7208 45.2601 91.3616 41.8819 90.3046 38.8452C89.7597 37.28 88.0519 36.4607 86.4897 37.0139C84.9283 37.5668 84.1033 39.2831 84.6482 40.8483C85.1927 42.4126 84.3689 44.1294 82.8067 44.6827C81.2444 45.2359 79.5373 44.4152 78.9928 42.851C77.9357 39.8144 78.5753 36.4355 80.6725 33.9879C82.7685 31.5396 86.0025 30.3944 89.1558 30.9837C92.3097 31.5718 94.9033 33.8057 95.9604 36.8423C97.7224 41.9037 96.6555 47.5338 93.1612 51.6139C89.667 55.694 84.2777 57.6025 79.0215 56.6212C73.7653 55.6399 69.443 51.9183 67.681 46.8569C65.2143 39.7707 66.7078 31.8882 71.5994 26.1758C76.4912 20.4642 84.0375 17.7918 91.3954 19.1654C98.753 20.5403 104.805 25.7506 107.272 32.8365C110.443 41.9464 108.522 52.0826 102.233 59.4256C95.9441 66.7698 86.243 70.2052 76.7817 68.4387C67.3214 66.673 59.5396 59.9729 56.3683 50.863C55.8234 49.2978 54.1167 48.4782 52.5544 49.0314C50.9921 49.5846 50.1681 51.3006 50.7129 52.8658C53.5904 61.1318 59.6273 67.8982 67.4947 71.6763C75.3633 75.4552 84.4186 75.9371 92.6691 73.0154Z" fill="#84CC16"/>
</g>
<g filter="url(#filter6_f_3_11240)">
<ellipse cx="14.8535" cy="21.0656" rx="14.8535" ry="21.0656" transform="matrix(0.978717 0.205215 -0.23092 0.972973 97.9316 23.4561)" fill="black" fill-opacity="0.2"/>
</g>
<g filter="url(#filter7_i_3_11240)">
<rect x="121.675" y="73.5391" width="9" height="40" rx="4.5" transform="rotate(15 121.675 73.5391)" fill="#EA580C"/>
</g>
<g filter="url(#filter8_i_3_11240)">
<rect x="112.229" y="0.608398" width="64" height="72" rx="32" transform="rotate(15 112.229 0.608398)" fill="#5EEAD4"/>
</g>
<circle cx="132.786" cy="47.5279" r="32" transform="rotate(-165 132.786 47.5279)" fill="#2DD4BF"/>
<mask id="mask2_3_11240" style="mask-type:alpha" maskUnits="userSpaceOnUse" x="100" y="15" width="65" height="65">
<circle cx="132.786" cy="47.5279" r="32" transform="rotate(-165 132.786 47.5279)" fill="#C4C4C4"/>
</mask>
<g mask="url(#mask2_3_11240)">
<path d="M129.933 80.9442C138.659 80.2574 146.772 76.1313 152.49 69.4731C158.206 62.8161 161.058 54.1721 160.418 45.4433C159.713 35.823 153.931 27.3371 145.25 23.1819C136.569 19.0279 126.309 19.8355 118.333 25.3006C110.358 30.7668 105.88 40.0602 106.585 49.6805C107.134 57.1626 111.631 63.763 118.383 66.9942C125.135 70.2264 133.115 69.5983 139.318 65.3464C145.521 61.0954 149.004 53.867 148.455 46.3849C148.063 41.0399 144.851 36.3253 140.028 34.0171C135.206 31.7098 129.506 32.1585 125.074 35.1941C120.644 38.2307 118.156 43.394 118.547 48.739C118.783 51.9457 120.71 54.7737 123.604 56.1591C126.498 57.5444 129.917 57.2753 132.577 55.4528C135.235 53.6305 136.728 50.5332 136.493 47.3264C136.372 45.6735 134.934 44.4401 133.282 44.5702C131.631 44.7002 130.39 46.1444 130.511 47.7973C130.632 49.4492 129.392 50.8944 127.74 51.0244C126.088 51.1545 124.651 49.9199 124.53 48.2681C124.295 45.0613 125.787 41.9631 128.447 40.1417C131.105 38.3193 134.525 38.0501 137.418 39.4355C140.312 40.8198 142.24 43.6489 142.475 46.8556C142.867 52.2006 140.379 57.3627 135.948 60.3994C131.517 63.4361 125.817 63.8847 120.994 61.5765C116.171 59.2682 112.959 54.5547 112.567 49.2097C112.018 41.7265 115.501 34.4992 121.704 30.2475C127.908 25.9965 135.889 25.3684 142.64 28.5996C149.391 31.8319 153.889 38.4311 154.438 45.914C155.143 55.5343 150.664 64.8278 142.689 70.2929C134.713 75.7591 124.453 76.5667 115.772 72.4116C107.091 68.2575 101.308 59.7717 100.603 50.1514C100.482 48.4985 99.0452 47.265 97.3929 47.3951C95.7407 47.5251 94.5006 48.9693 94.6218 50.6222C95.2618 59.3513 99.3417 67.4496 105.963 73.1353C112.586 78.8219 121.208 81.631 129.933 80.9442Z" fill="#F97316"/>
</g>
<defs>
<filter id="filter0_ii_3_11240" x="35.7754" y="84" width="101" height="73" filterUnits="userSpaceOnUse" color-interpolation-filters="sRGB">
<feFlood flood-opacity="0" result="BackgroundImageFix"/>
<feBlend mode="normal" in="SourceGraphic" in2="BackgroundImageFix" result="shape"/>
<feColorMatrix in="SourceAlpha" type="matrix" values="0 0 0 0 0 0 0 0 0 0 0 0 0 0 0 0 0 0 127 0" result="hardAlpha"/>
<feOffset dx="8" dy="-8"/>
<feGaussianBlur stdDeviation="8"/>
<feComposite in2="hardAlpha" operator="arithmetic" k2="-1" k3="1"/>
<feColorMatrix type="matrix" values="0 0 0 0 0 0 0 0 0 0 0 0 0 0 0 0 0 0 0.25 0"/>
<feBlend mode="normal" in2="shape" result="effect1_innerShadow_3_11240"/>
<feColorMatrix in="SourceAlpha" type="matrix" values="0 0 0 0 0 0 0 0 0 0 0 0 0 0 0 0 0 0 127 0" result="hardAlpha"/>
<feOffset dx="-8" dy="-8"/>
<feGaussianBlur stdDeviation="8"/>
<feComposite in2="hardAlpha" operator="arithmetic" k2="-1" k3="1"/>
<feColorMatrix type="matrix" values="0 0 0 0 1 0 0 0 0 1 0 0 0 0 1 0 0 0 0.25 0"/>
<feBlend mode="normal" in2="effect1_innerShadow_3_11240" result="effect2_innerShadow_3_11240"/>
</filter>
<filter id="filter1_i_3_11240" x="45.6553" y="73.7832" width="19.0264" height="38.9463" filterUnits="userSpaceOnUse" color-interpolation-filters="sRGB">
<feFlood flood-opacity="0" result="BackgroundImageFix"/>
<feBlend mode="normal" in="SourceGraphic" in2="BackgroundImageFix" result="shape"/>
<feColorMatrix in="SourceAlpha" type="matrix" values="0 0 0 0 0 0 0 0 0 0 0 0 0 0 0 0 0 0 127 0" result="hardAlpha"/>
<feOffset dx="5"/>
<feGaussianBlur stdDeviation="1"/>
<feComposite in2="hardAlpha" operator="arithmetic" k2="-1" k3="1"/>
<feColorMatrix type="matrix" values="0 0 0 0 0 0 0 0 0 0 0 0 0 0 0 0 0 0 0.15 0"/>
<feBlend mode="normal" in2="shape" result="effect1_innerShadow_3_11240"/>
</filter>
<filter id="filter2_i_3_11240" x="7.18359" y="-0.714844" width="73.0869" height="79.7432" filterUnits="userSpaceOnUse" color-interpolation-filters="sRGB">
<feFlood flood-opacity="0" result="BackgroundImageFix"/>
<feBlend mode="normal" in="SourceGraphic" in2="BackgroundImageFix" result="shape"/>
<feColorMatrix in="SourceAlpha" type="matrix" values="0 0 0 0 0 0 0 0 0 0 0 0 0 0 0 0 0 0 127 0" result="hardAlpha"/>
<feOffset dx="7" dy="-8"/>
<feGaussianBlur stdDeviation="6.5"/>
<feComposite in2="hardAlpha" operator="arithmetic" k2="-1" k3="1"/>
<feColorMatrix type="matrix" values="0 0 0 0 0 0 0 0 0 0 0 0 0 0 0 0 0 0 0.25 0"/>
<feBlend mode="normal" in2="shape" result="effect1_innerShadow_3_11240"/>
</filter>
<filter id="filter3_f_3_11240" x="35.7715" y="18" width="46" height="58" filterUnits="userSpaceOnUse" color-interpolation-filters="sRGB">
<feFlood flood-opacity="0" result="BackgroundImageFix"/>
<feBlend mode="normal" in="SourceGraphic" in2="BackgroundImageFix" result="shape"/>
<feGaussianBlur stdDeviation="4" result="effect1_foregroundBlur_3_11240"/>
</filter>
<filter id="filter4_i_3_11240" x="82.7754" y="68" width="11" height="40" filterUnits="userSpaceOnUse" color-interpolation-filters="sRGB">
<feFlood flood-opacity="0" result="BackgroundImageFix"/>
<feBlend mode="normal" in="SourceGraphic" in2="BackgroundImageFix" result="shape"/>
<feColorMatrix in="SourceAlpha" type="matrix" values="0 0 0 0 0 0 0 0 0 0 0 0 0 0 0 0 0 0 127 0" result="hardAlpha"/>
<feOffset dx="5"/>
<feGaussianBlur stdDeviation="1"/>
<feComposite in2="hardAlpha" operator="arithmetic" k2="-1" k3="1"/>
<feColorMatrix type="matrix" values="0 0 0 0 0 0 0 0 0 0 0 0 0 0 0 0 0 0 0.15 0"/>
<feBlend mode="normal" in2="shape" result="effect1_innerShadow_3_11240"/>
</filter>
<filter id="filter5_i_3_11240" x="54.7754" y="-8" width="71" height="80" filterUnits="userSpaceOnUse" color-interpolation-filters="sRGB">
<feFlood flood-opacity="0" result="BackgroundImageFix"/>
<feBlend mode="normal" in="SourceGraphic" in2="BackgroundImageFix" result="shape"/>
<feColorMatrix in="SourceAlpha" type="matrix" values="0 0 0 0 0 0 0 0 0 0 0 0 0 0 0 0 0 0 127 0" result="hardAlpha"/>
<feOffset dx="7" dy="-8"/>
<feGaussianBlur stdDeviation="6.5"/>
<feComposite in2="hardAlpha" operator="arithmetic" k2="-1" k3="1"/>
<feColorMatrix type="matrix" values="0 0 0 0 0 0 0 0 0 0 0 0 0 0 0 0 0 0 0.25 0"/>
<feBlend mode="normal" in2="shape" result="effect1_innerShadow_3_11240"/>
</filter>
<filter id="filter6_f_3_11240" x="84.2705" y="18.2764" width="46.668" height="57.4482" filterUnits="userSpaceOnUse" color-interpolation-filters="sRGB">
<feFlood flood-opacity="0" result="BackgroundImageFix"/>
<feBlend mode="normal" in="SourceGraphic" in2="BackgroundImageFix" result="shape"/>
<feGaussianBlur stdDeviation="4" result="effect1_foregroundBlur_3_11240"/>
</filter>
<filter id="filter7_i_3_11240" x="112.332" y="74.5488" width="19.0254" height="38.9463" filterUnits="userSpaceOnUse" color-interpolation-filters="sRGB">
<feFlood flood-opacity="0" result="BackgroundImageFix"/>
<feBlend mode="normal" in="SourceGraphic" in2="BackgroundImageFix" result="shape"/>
<feColorMatrix in="SourceAlpha" type="matrix" values="0 0 0 0 0 0 0 0 0 0 0 0 0 0 0 0 0 0 127 0" result="hardAlpha"/>
<feOffset dx="5"/>
<feGaussianBlur stdDeviation="1"/>
<feComposite in2="hardAlpha" operator="arithmetic" k2="-1" k3="1"/>
<feColorMatrix type="matrix" values="0 0 0 0 0 0 0 0 0 0 0 0 0 0 0 0 0 0 0.15 0"/>
<feBlend mode="normal" in2="shape" result="effect1_innerShadow_3_11240"/>
</filter>
<filter id="filter8_i_3_11240" x="100.777" y="-0.208008" width="73.0869" height="79.7432" filterUnits="userSpaceOnUse" color-interpolation-filters="sRGB">
<feFlood flood-opacity="0" result="BackgroundImageFix"/>
<feBlend mode="normal" in="SourceGraphic" in2="BackgroundImageFix" result="shape"/>
<feColorMatrix in="SourceAlpha" type="matrix" values="0 0 0 0 0 0 0 0 0 0 0 0 0 0 0 0 0 0 127 0" result="hardAlpha"/>
<feOffset dx="7" dy="-8"/>
<feGaussianBlur stdDeviation="6.5"/>
<feComposite in2="hardAlpha" operator="arithmetic" k2="-1" k3="1"/>
<feColorMatrix type="matrix" values="0 0 0 0 0 0 0 0 0 0 0 0 0 0 0 0 0 0 0.25 0"/>
<feBlend mode="normal" in2="shape" result="effect1_innerShadow_3_11240"/>
</filter>
</defs>
</svg>
