<svg width="106" height="174" viewBox="0 0 106 174" fill="none" xmlns="http://www.w3.org/2000/svg">
<circle cx="53.6182" cy="122.5" r="41.5" fill="black" fill-opacity="0.2"/>
<circle cx="53.6182" cy="122.5" r="51.5" fill="black" fill-opacity="0.12"/>
<circle cx="53.6484" cy="108.5" r="48.5" fill="url(#paint0_linear_3_11305)"/>
<path d="M100.148 108.738C100.148 134.288 79.3297 155 53.6484 155C27.9672 155 7.14844 134.288 7.14844 108.738C7.14844 108.738 27.9672 103 53.6484 103C79.3297 103 100.148 108.738 100.148 108.738Z" fill="#6B21A8"/>
<g filter="url(#filter0_i_3_11305)">
<ellipse cx="53.6484" cy="108.5" rx="46.5" ry="30.5" fill="#9333EA"/>
</g>
<g filter="url(#filter1_i_3_11305)">
<ellipse cx="54.1484" cy="108" rx="32" ry="21" fill="#9333EA"/>
</g>
<g filter="url(#filter2_i_3_11305)">
<ellipse cx="53.6484" cy="108.5" rx="15.5" ry="10.5" fill="#9333EA"/>
</g>
<circle cx="25.6484" cy="110.5" r="2.5" fill="white" fill-opacity="0.2"/>
<circle cx="80.1484" cy="112" r="2" fill="white" fill-opacity="0.2"/>
<circle cx="41.6484" cy="118.5" r="1.5" fill="white" fill-opacity="0.2"/>
<circle cx="60.6484" cy="112.5" r="1.5" fill="white" fill-opacity="0.2"/>
<circle cx="2.5" cy="2.5" r="2.5" transform="matrix(-0.738817 0.673906 -0.675569 -0.737297 74.1484 89)" fill="white" fill-opacity="0.2"/>
<circle cx="2" cy="2" r="2" transform="matrix(-0.738817 0.673906 -0.675569 -0.737297 32.1484 126)" fill="white" fill-opacity="0.2"/>
<circle cx="1.5" cy="1.5" r="1.5" transform="matrix(-0.738817 0.673906 -0.675569 -0.737297 56.1484 95)" fill="white" fill-opacity="0.2"/>
<circle cx="1.5" cy="1.5" r="1.5" transform="matrix(-0.738817 0.673906 -0.675569 -0.737297 46.1484 111)" fill="white" fill-opacity="0.2"/>
<circle cx="2.5" cy="2.5" r="2.5" transform="matrix(-0.738817 0.673906 -0.675569 -0.737297 43.1484 93)" fill="white" fill-opacity="0.2"/>
<circle cx="2" cy="2" r="2" transform="matrix(-0.738817 0.673906 -0.675569 -0.737297 73.1484 126)" fill="white" fill-opacity="0.2"/>
<circle cx="1.5" cy="1.5" r="1.5" transform="matrix(-0.738817 0.673906 -0.675569 -0.737297 86.1484 111)" fill="white" fill-opacity="0.2"/>
<g filter="url(#filter3_ii_3_11305)">
<path fill-rule="evenodd" clip-rule="evenodd" d="M34.4677 63.9405C36.04 59.2429 37.3975 54.334 38.3307 49.4081C39.8111 41.5938 46.1951 35 54.1484 35C62.1018 35 68.4858 41.5938 69.9662 49.4081C70.9343 54.5182 72.359 59.6101 74.0065 64.4667C90.6224 72.1617 102.148 88.9848 102.148 108.5C102.148 135.286 80.4342 157 53.6484 157C26.8626 157 5.14844 135.286 5.14844 108.5C5.14844 88.5272 17.2214 71.3741 34.4677 63.9405Z" fill="white" fill-opacity="0.4"/>
</g>
<path d="M95.1484 113.396C95.1484 133.059 76.3444 149 53.1484 149C29.9525 149 11.1484 133.059 11.1484 113.396C11.1484 93.7322 29.9525 105.484 53.1484 105.484C76.3444 105.484 95.1484 93.7322 95.1484 113.396Z" fill="black" fill-opacity="0.7"/>
<g opacity="0.5" filter="url(#filter4_f_3_11305)">
<path d="M31.7406 131.305C36.1544 138.022 46.2039 139.74 50.4352 138.078C55.3719 137.511 77.5747 129.175 80.8573 114.89C87.8059 84.6509 63.9056 65.7377 64.5022 62.0048C65.0989 58.2718 61.4001 53.6001 60.1356 54.7006C58.8711 55.8012 68.1513 93.1799 58.6584 96.6269C51.064 99.3845 35.9708 58.2014 36.2504 59.5201C35.5409 61.1522 39.9 74.197 38.3828 74.2134C29.7862 74.4211 29.1126 80.3971 29.8504 83.3591C21.7492 86.0076 25.6568 91.4944 28.6232 93.9068C26.331 95.7471 27.3305 97.5756 28.1168 98.2598C22.2258 97.5401 20.4154 100.262 20.2466 101.713C14.1375 102.869 16.0479 107.101 17.7667 109.073C13.3028 109.485 11.9011 112.043 11.7583 113.271C8.26947 118.698 16.8225 122.771 21.5352 124.13C21.9058 127.642 28.4932 130.377 31.7406 131.305Z" fill="url(#paint1_linear_3_11305)"/>
</g>
<path opacity="0.5" d="M74.8621 85.2353C81.4269 82.5375 89.653 87.3858 93.2355 96.0643C96.8181 104.743 94.4006 113.965 87.8358 116.663C81.271 119.361 79.2885 111.947 75.7059 103.268C72.1233 94.5896 68.2974 87.9331 74.8621 85.2353Z" fill="white"/>
<rect x="33.1484" y="15" width="42" height="53.2683" rx="21" fill="white" fill-opacity="0.7"/>
<g filter="url(#filter5_dii_3_11305)">
<path d="M54.1484 56C60.3971 56 65.4627 51.044 65.4627 44.9304L66.1484 31H42.1484L42.8342 44.9304C42.8342 51.044 47.8997 56 54.1484 56Z" fill="#A16207"/>
</g>
<rect x="33.1484" y="15" width="42" height="42" rx="21" fill="white" fill-opacity="0.6"/>
<g filter="url(#filter6_dii_3_11305)">
<path d="M54.1484 47C61.4839 47 67.4305 41.3074 67.4305 34.2853L68.1484 14H40.1484L40.8664 34.2853C40.8664 41.3074 46.813 47 54.1484 47Z" fill="#A16207"/>
</g>
<circle cx="54.1484" cy="14" r="14" fill="#CA8A04"/>
<path d="M68.1484 51.8487C68.9791 50.9261 69.4283 50.3542 70.1484 49V57.1513C69.4323 58.6558 68.9765 59.1666 68.1484 60V51.8487Z" fill="white"/>
<path d="M63.1484 55.33C64.8463 54.4516 65.7286 53.3053 67.1484 52V61.67C66.1484 62.8227 64.7262 64.2408 63.1484 65V55.33Z" fill="white"/>
<ellipse cx="43.6484" cy="29.5" rx="0.5" ry="1.5" fill="#713F12"/>
<ellipse cx="47.6484" cy="40.5" rx="0.5" ry="1.5" fill="#713F12"/>
<ellipse cx="64.6484" cy="26.5" rx="0.5" ry="1.5" fill="#854D0E"/>
<ellipse cx="59.6484" cy="37.5" rx="0.5" ry="1.5" fill="#854D0E"/>
<ellipse cx="49.6484" cy="33" rx="1.5" ry="3" fill="#713F12"/>
<ellipse cx="56.6484" cy="42" rx="1.5" ry="2" fill="#854D0E"/>
<defs>
<filter id="filter0_i_3_11305" x="7.14844" y="78" width="93" height="61" filterUnits="userSpaceOnUse" color-interpolation-filters="sRGB">
<feFlood flood-opacity="0" result="BackgroundImageFix"/>
<feBlend mode="normal" in="SourceGraphic" in2="BackgroundImageFix" result="shape"/>
<feColorMatrix in="SourceAlpha" type="matrix" values="0 0 0 0 0 0 0 0 0 0 0 0 0 0 0 0 0 0 127 0" result="hardAlpha"/>
<feOffset/>
<feGaussianBlur stdDeviation="8.62222"/>
<feComposite in2="hardAlpha" operator="arithmetic" k2="-1" k3="1"/>
<feColorMatrix type="matrix" values="0 0 0 0 1 0 0 0 0 1 0 0 0 0 1 0 0 0 0.25 0"/>
<feBlend mode="normal" in2="shape" result="effect1_innerShadow_3_11305"/>
</filter>
<filter id="filter1_i_3_11305" x="22.1484" y="87" width="64" height="42" filterUnits="userSpaceOnUse" color-interpolation-filters="sRGB">
<feFlood flood-opacity="0" result="BackgroundImageFix"/>
<feBlend mode="normal" in="SourceGraphic" in2="BackgroundImageFix" result="shape"/>
<feColorMatrix in="SourceAlpha" type="matrix" values="0 0 0 0 0 0 0 0 0 0 0 0 0 0 0 0 0 0 127 0" result="hardAlpha"/>
<feOffset/>
<feGaussianBlur stdDeviation="8.62222"/>
<feComposite in2="hardAlpha" operator="arithmetic" k2="-1" k3="1"/>
<feColorMatrix type="matrix" values="0 0 0 0 1 0 0 0 0 1 0 0 0 0 1 0 0 0 0.25 0"/>
<feBlend mode="normal" in2="shape" result="effect1_innerShadow_3_11305"/>
</filter>
<filter id="filter2_i_3_11305" x="38.1484" y="98" width="31" height="21" filterUnits="userSpaceOnUse" color-interpolation-filters="sRGB">
<feFlood flood-opacity="0" result="BackgroundImageFix"/>
<feBlend mode="normal" in="SourceGraphic" in2="BackgroundImageFix" result="shape"/>
<feColorMatrix in="SourceAlpha" type="matrix" values="0 0 0 0 0 0 0 0 0 0 0 0 0 0 0 0 0 0 127 0" result="hardAlpha"/>
<feOffset/>
<feGaussianBlur stdDeviation="5.74815"/>
<feComposite in2="hardAlpha" operator="arithmetic" k2="-1" k3="1"/>
<feColorMatrix type="matrix" values="0 0 0 0 1 0 0 0 0 1 0 0 0 0 1 0 0 0 0.25 0"/>
<feBlend mode="normal" in2="shape" result="effect1_innerShadow_3_11305"/>
</filter>
<filter id="filter3_ii_3_11305" x="-9.22193" y="32.1259" width="117.119" height="139.244" filterUnits="userSpaceOnUse" color-interpolation-filters="sRGB">
<feFlood flood-opacity="0" result="BackgroundImageFix"/>
<feBlend mode="normal" in="SourceGraphic" in2="BackgroundImageFix" result="shape"/>
<feColorMatrix in="SourceAlpha" type="matrix" values="0 0 0 0 0 0 0 0 0 0 0 0 0 0 0 0 0 0 127 0" result="hardAlpha"/>
<feOffset dx="-22.9926" dy="31.6148"/>
<feGaussianBlur stdDeviation="7.18519"/>
<feComposite in2="hardAlpha" operator="arithmetic" k2="-1" k3="1"/>
<feColorMatrix type="matrix" values="0 0 0 0 1 0 0 0 0 1 0 0 0 0 1 0 0 0 0.25 0"/>
<feBlend mode="normal" in2="shape" result="effect1_innerShadow_3_11305"/>
<feColorMatrix in="SourceAlpha" type="matrix" values="0 0 0 0 0 0 0 0 0 0 0 0 0 0 0 0 0 0 127 0" result="hardAlpha"/>
<feOffset dx="5.74815" dy="-2.87407"/>
<feGaussianBlur stdDeviation="7.18519"/>
<feComposite in2="hardAlpha" operator="arithmetic" k2="-1" k3="1"/>
<feColorMatrix type="matrix" values="0 0 0 0 0 0 0 0 0 0 0 0 0 0 0 0 0 0 0.25 0"/>
<feBlend mode="normal" in2="effect1_innerShadow_3_11305" result="effect2_innerShadow_3_11305"/>
</filter>
<filter id="filter4_f_3_11305" x="0.000322342" y="43.5941" width="93.0677" height="106.018" filterUnits="userSpaceOnUse" color-interpolation-filters="sRGB">
<feFlood flood-opacity="0" result="BackgroundImageFix"/>
<feBlend mode="normal" in="SourceGraphic" in2="BackgroundImageFix" result="shape"/>
<feGaussianBlur stdDeviation="5.47152" result="effect1_foregroundBlur_3_11305"/>
</filter>
<filter id="filter5_dii_3_11305" x="33.5262" y="31" width="41.2444" height="42.963" filterUnits="userSpaceOnUse" color-interpolation-filters="sRGB">
<feFlood flood-opacity="0" result="BackgroundImageFix"/>
<feColorMatrix in="SourceAlpha" type="matrix" values="0 0 0 0 0 0 0 0 0 0 0 0 0 0 0 0 0 0 127 0" result="hardAlpha"/>
<feOffset dy="9.34074"/>
<feGaussianBlur stdDeviation="4.31111"/>
<feComposite in2="hardAlpha" operator="out"/>
<feColorMatrix type="matrix" values="0 0 0 0 0 0 0 0 0 0 0 0 0 0 0 0 0 0 0.25 0"/>
<feBlend mode="normal" in2="BackgroundImageFix" result="effect1_dropShadow_3_11305"/>
<feBlend mode="normal" in="SourceGraphic" in2="effect1_dropShadow_3_11305" result="shape"/>
<feColorMatrix in="SourceAlpha" type="matrix" values="0 0 0 0 0 0 0 0 0 0 0 0 0 0 0 0 0 0 127 0" result="hardAlpha"/>
<feOffset dx="5.74815" dy="2.87407"/>
<feGaussianBlur stdDeviation="4.31111"/>
<feComposite in2="hardAlpha" operator="arithmetic" k2="-1" k3="1"/>
<feColorMatrix type="matrix" values="0 0 0 0 0 0 0 0 0 0 0 0 0 0 0 0 0 0 0.25 0"/>
<feBlend mode="normal" in2="shape" result="effect2_innerShadow_3_11305"/>
<feColorMatrix in="SourceAlpha" type="matrix" values="0 0 0 0 0 0 0 0 0 0 0 0 0 0 0 0 0 0 127 0" result="hardAlpha"/>
<feOffset dy="8.62222"/>
<feGaussianBlur stdDeviation="3.59259"/>
<feComposite in2="hardAlpha" operator="arithmetic" k2="-1" k3="1"/>
<feColorMatrix type="matrix" values="0 0 0 0 0 0 0 0 0 0 0 0 0 0 0 0 0 0 0.25 0"/>
<feBlend mode="normal" in2="effect2_innerShadow_3_11305" result="effect3_innerShadow_3_11305"/>
</filter>
<filter id="filter6_dii_3_11305" x="34.4003" y="14" width="44.5259" height="35.8741" filterUnits="userSpaceOnUse" color-interpolation-filters="sRGB">
<feFlood flood-opacity="0" result="BackgroundImageFix"/>
<feColorMatrix in="SourceAlpha" type="matrix" values="0 0 0 0 0 0 0 0 0 0 0 0 0 0 0 0 0 0 127 0" result="hardAlpha"/>
<feOffset dy="2.87407"/>
<feComposite in2="hardAlpha" operator="out"/>
<feColorMatrix type="matrix" values="0 0 0 0 0 0 0 0 0 0 0 0 0 0 0 0 0 0 0.25 0"/>
<feBlend mode="normal" in2="BackgroundImageFix" result="effect1_dropShadow_3_11305"/>
<feBlend mode="normal" in="SourceGraphic" in2="effect1_dropShadow_3_11305" result="shape"/>
<feColorMatrix in="SourceAlpha" type="matrix" values="0 0 0 0 0 0 0 0 0 0 0 0 0 0 0 0 0 0 127 0" result="hardAlpha"/>
<feOffset dx="10.7778" dy="2.87407"/>
<feGaussianBlur stdDeviation="7.18519"/>
<feComposite in2="hardAlpha" operator="arithmetic" k2="-1" k3="1"/>
<feColorMatrix type="matrix" values="0 0 0 0 0 0 0 0 0 0 0 0 0 0 0 0 0 0 0.25 0"/>
<feBlend mode="normal" in2="shape" result="effect2_innerShadow_3_11305"/>
<feColorMatrix in="SourceAlpha" type="matrix" values="0 0 0 0 0 0 0 0 0 0 0 0 0 0 0 0 0 0 127 0" result="hardAlpha"/>
<feOffset dx="-5.74815" dy="2.87407"/>
<feGaussianBlur stdDeviation="4.67037"/>
<feComposite in2="hardAlpha" operator="arithmetic" k2="-1" k3="1"/>
<feColorMatrix type="matrix" values="0 0 0 0 1 0 0 0 0 1 0 0 0 0 1 0 0 0 0.25 0"/>
<feBlend mode="normal" in2="effect2_innerShadow_3_11305" result="effect3_innerShadow_3_11305"/>
</filter>
<linearGradient id="paint0_linear_3_11305" x1="47.541" y1="96.2852" x2="6.739" y2="158.051" gradientUnits="userSpaceOnUse">
<stop stop-opacity="0"/>
<stop offset="1" stop-opacity="0.24"/>
</linearGradient>
<linearGradient id="paint1_linear_3_11305" x1="36.1788" y1="92.6704" x2="57.01" y2="95.094" gradientUnits="userSpaceOnUse">
<stop stop-color="#BEFBFF"/>
<stop offset="1" stop-color="#FF86FA"/>
</linearGradient>
</defs>
</svg>
