<svg width="76" height="165" viewBox="0 0 76 165" fill="none" xmlns="http://www.w3.org/2000/svg">
<g filter="url(#filter0_ii_14_63612)">
<path d="M29.401 152.867C32.4767 152.522 33.9365 131.435 31.3938 106.568C30.394 96.7907 29.6496 87.2719 27.855 79.8465C23.7015 62.6607 19.3937 62.9425 18.2334 80.4759C17.7321 88.0515 18.8707 97.5446 19.5586 107.342C21.2684 131.698 26.418 153.203 29.401 152.867Z" fill="#B91C1C"/>
</g>
<g filter="url(#filter1_ii_14_63612)">
<path d="M46.2189 150.142C49.3195 150.137 53.9217 129.375 55.1217 104.423C55.5935 94.6118 56.2799 85.0854 55.6119 77.5205C54.0659 60.0121 49.7536 59.818 45.98 77.087C44.3496 84.5484 44.0579 94.0926 43.2738 103.89C41.3247 128.243 43.2118 150.146 46.2189 150.142Z" fill="#B91C1C"/>
</g>
<g filter="url(#filter2_ii_14_63612)">
<path d="M40.2226 164.194C43.3196 164.081 46.6623 143.18 46.3533 118.213C46.2319 108.395 46.3418 98.8551 45.2174 91.3215C42.6151 73.8854 38.2956 73.8419 35.5695 91.2243C34.3917 98.7347 34.677 108.279 34.4858 118.093C34.0102 142.489 37.2189 164.303 40.2226 164.194Z" fill="#B91C1C"/>
</g>
<g filter="url(#filter3_ii_14_63612)">
<path d="M36.3057 161.126C39.3777 160.774 40.6293 139.682 37.8413 114.82C36.7451 105.044 35.9068 95.5258 34.039 88.1035C29.7161 70.9252 25.4115 71.2159 24.4244 88.7527C23.9979 96.3299 25.2302 105.821 26.0147 115.618C27.9648 139.972 33.3263 161.467 36.3057 161.126Z" fill="#B91C1C"/>
</g>
<g filter="url(#filter4_ii_14_63612)">
<path d="M37.3799 155.264C40.1519 155.073 42.5777 134.089 41.6206 109.13C41.2443 99.3159 41.0829 89.7731 39.8702 82.2682C37.0635 64.8983 33.1919 64.9637 31.2228 82.4143C30.372 89.9542 30.8877 99.491 30.9837 109.31C31.2222 133.717 34.6916 155.449 37.3799 155.264Z" fill="#B91C1C"/>
</g>
<g filter="url(#filter5_ii_14_63612)">
<path d="M19.6199 75.1875C24.2639 93.7596 36.5474 101.661 28.3517 99.8019C17.7812 94.6291 10.7401 79.5422 8.2107 67.5001C5.6813 55.4579 7.68974 39.3146 14.655 37.5729C21.6202 35.8313 14.976 56.6153 19.6199 75.1875Z" fill="#3B82F6"/>
</g>
<g filter="url(#filter6_ii_14_63612)">
<path d="M13.4914 34.3568C5.81057 36.1396 6.41723 61.5708 6.90763 66.0823C7.39802 70.5938 8.4532 73.514 9.66659 76.0161C10.88 78.5182 11.4599 73.6036 16.0289 77.5587C20.598 81.5138 19.085 77.8241 19.062 75.8384C14.4376 55.9155 21.1723 32.5739 13.4914 34.3568Z" fill="url(#paint0_linear_14_63612)"/>
</g>
<g filter="url(#filter7_ii_14_63612)">
<path d="M23.2105 21.5C16.0606 20.8462 8.20931 33.2388 6.71019 44.5004C6.14809 48.723 5.17994 54.3336 5.90845 58.9709C6.05972 59.9338 7.36898 59.9013 8.01997 59.1758C8.80688 58.299 9.88765 58.1296 11.2118 60C13.6118 63.39 15.2382 58.5875 15.7515 55.7624C17.3609 38.1627 30.3604 22.1539 23.2105 21.5Z" fill="#DC2626"/>
</g>
<g filter="url(#filter8_i_14_63612)">
<g filter="url(#filter9_ii_14_63612)">
<path d="M54.6706 75.1874C50.0266 93.7596 37.7431 101.661 45.9388 99.8019C56.5094 94.629 62.6813 79.5426 65.2107 67.5005C67.7401 55.4583 66.6008 39.3145 59.6355 37.5728C52.6703 35.8312 59.3145 56.6152 54.6706 75.1874Z" fill="#3B82F6"/>
</g>
<g filter="url(#filter10_ii_14_63612)">
<path d="M61.848 34.404C69.3567 36.4476 67.7278 61.8203 67.0611 66.3083C66.3943 70.7962 65.2346 73.6758 63.9356 76.1326C62.6367 78.5894 62.2634 73.6622 57.5936 77.4547C52.9238 81.2472 54.5666 77.6149 54.6697 75.6329C60.0409 55.8982 54.3393 32.3603 61.848 34.404Z" fill="url(#paint1_linear_14_63612)"/>
</g>
<g filter="url(#filter11_ii_14_63612)">
<path d="M51.0805 21.5C58.2304 20.8462 66.0817 33.2388 67.5808 44.5004C68.1429 48.723 69.1111 54.3336 68.3826 58.9709C68.2313 59.9338 66.922 59.9013 66.271 59.1758C65.4841 58.299 64.4034 58.1296 63.0792 60C60.6792 63.39 59.0528 58.5875 58.5395 55.7624C56.9301 38.1627 43.9306 22.1539 51.0805 21.5Z" fill="#DC2626"/>
</g>
</g>
<g filter="url(#filter12_i_14_63612)">
<path fill-rule="evenodd" clip-rule="evenodd" d="M23.7246 98.7625C22.9954 99.2557 22.0163 99.1534 21.405 98.5202C20.7999 97.8934 20.7285 96.9251 21.2351 96.2166L27.3766 87.6268C28.7247 85.7413 31.4569 85.5407 33.0672 87.2089C33.3237 87.4746 33.5316 87.767 33.6922 88.076C35.8578 88.0889 37.5864 89.9748 37.3568 92.1733L36.2598 102.676C36.1693 103.542 35.4738 104.219 34.6052 104.287C33.7278 104.356 32.927 103.784 32.7081 102.931L31.6314 98.7374L29.3964 102.187C28.9159 102.929 27.9741 103.22 27.1588 102.878C26.3192 102.526 25.8648 101.61 26.0925 100.728L27.2091 96.4057L23.7246 98.7625Z" fill="#78716C"/>
</g>
<g filter="url(#filter13_i_14_63612)">
<path fill-rule="evenodd" clip-rule="evenodd" d="M51.9941 98.7625C52.7234 99.2557 53.7025 99.1534 54.3137 98.5202C54.9188 97.8934 54.9903 96.9251 54.4837 96.2166L48.3422 87.6268C46.9941 85.7413 44.2619 85.5407 42.6515 87.2089C42.3951 87.4746 42.1871 87.767 42.0265 88.076C39.861 88.0889 38.1323 89.9748 38.362 92.1733L39.459 102.676C39.5495 103.542 40.2449 104.219 41.1135 104.287C41.9909 104.356 42.7917 103.784 43.0106 102.931L44.0874 98.7374L46.3223 102.187C46.8028 102.929 47.7446 103.22 48.56 102.878C49.3995 102.526 49.8539 101.61 49.6262 100.728L48.5096 96.4057L51.9941 98.7625Z" fill="#78716C"/>
</g>
<g filter="url(#filter14_diii_14_63612)">
<path d="M37.0695 96.0003C49.7986 95.8562 60.2339 74.9171 58.5988 49.9467C57.9559 40.1284 61.2685 30.5848 56.5365 23.0607C45.5846 5.64682 27.8282 5.64682 16.8763 23.0608C12.1443 30.5848 16.4569 40.1284 15.814 49.9467C14.2159 74.3532 24.7244 96.1401 37.0695 96.0003Z" fill="#DC2626"/>
</g>
<g filter="url(#filter15_di_14_63612)">
<ellipse cx="6.88323" cy="17.4795" rx="6.88323" ry="17.4795" transform="matrix(-0.914421 0.404764 -0.547023 -0.837118 63.9629 40.9131)" fill="#EF4444"/>
<ellipse cx="6.88323" cy="17.4795" rx="6.88323" ry="17.4795" transform="matrix(-0.582618 0.812746 -0.896113 -0.443825 66.0586 26.5156)" fill="#EF4444"/>
<ellipse cx="6.99495" cy="17.4795" rx="6.99495" ry="17.4795" transform="matrix(0.903197 0.429226 0.569354 -0.822093 10.9395 40.4033)" fill="#EF4444"/>
<ellipse cx="6.99495" cy="17.4795" rx="6.99495" ry="17.4795" transform="matrix(0.686877 0.726774 0.828093 -0.560591 8.71094 26.5977)" fill="#EF4444"/>
<ellipse cx="37.209" cy="41" rx="7.5" ry="18" transform="rotate(-180 37.209 41)" fill="#EF4444"/>
<ellipse cx="30.066" cy="39.931" rx="6.38431" ry="14.3556" transform="rotate(-157.251 30.066 39.931)" fill="#EF4444"/>
<ellipse cx="44.5239" cy="40.4139" rx="5.96008" ry="14.3556" transform="rotate(150 44.5239 40.4139)" fill="#EF4444"/>
</g>
<g filter="url(#filter16_dii_14_63612)">
<path d="M37.2103 2.00034C26.4471 2.07265 16.4569 12.55 17.8395 25.0808C18.3831 30.0079 20.2109 33 26.7611 35.4459C36.0216 44.1847 39.4611 44.1847 48.7216 35.4459C54.2109 33.5 56.0474 30.0079 56.591 25.0808C57.9423 12.8329 47.6489 1.9302 37.2103 2.00034Z" fill="#F1F5F9"/>
</g>
<path d="M28.7109 27H46.7109V34C46.7109 38.4183 43.1292 42 38.7109 42H36.7109C32.2927 42 28.7109 38.4183 28.7109 34V27Z" fill="#44403C"/>
<g filter="url(#filter17_di_14_63612)">
<path d="M37.3516 49.9976C38.7109 49.9976 45.4729 40.002 45.4729 37.232L46.7109 24.0005C46.7109 21.4153 45.4729 12.5 37.3516 12.5C29.2302 12.5 28.7109 21.4652 28.7109 24.0005L29.9525 37.232C29.9525 39.502 35.9922 49.9976 37.3516 49.9976Z" fill="#E4CEB8"/>
</g>
<g opacity="0.4" filter="url(#filter18_f_14_63612)">
<path d="M34.1532 16.9755C33.9175 14.8548 35.5776 13 37.7115 13C39.8453 13 41.5054 14.8548 41.2697 16.9755L39.9323 29.0122C39.8066 30.1439 38.8501 31 37.7115 31C36.5729 31 35.6163 30.1439 35.4906 29.0122L34.1532 16.9755Z" fill="white"/>
</g>
<path d="M26.7109 26C26.7109 23.7909 25.3678 22 23.7109 22C22.0541 22 20.7109 23.7909 20.7109 26" stroke="black" stroke-opacity="0.7" stroke-width="2" stroke-linecap="round" stroke-linejoin="round"/>
<path d="M54.7109 26C54.7109 23.7909 53.3678 22 51.7109 22C50.0541 22 48.7109 23.7909 48.7109 26" stroke="black" stroke-opacity="0.7" stroke-width="2" stroke-linecap="round" stroke-linejoin="round"/>
<g filter="url(#filter19_ii_14_63612)">
<path d="M37.5819 0.000454073C26.8187 0.0727697 17.711 7.00002 17.7109 13.581C18.2545 18.5081 27.7109 19 28.7109 23.9461C29.7109 11.5 45.2109 11 46.7109 23.9461C48.7109 17.5 55.9188 18.5081 56.4624 13.581C56.4624 8.00003 48.0205 -0.0696804 37.5819 0.000454073Z" fill="#EF4444"/>
</g>
<defs>
<filter id="filter0_ii_14_63612" x="18.1094" y="66.1392" width="16.5859" height="90.7319" filterUnits="userSpaceOnUse" color-interpolation-filters="sRGB">
<feFlood flood-opacity="0" result="BackgroundImageFix"/>
<feBlend mode="normal" in="SourceGraphic" in2="BackgroundImageFix" result="shape"/>
<feColorMatrix in="SourceAlpha" type="matrix" values="0 0 0 0 0 0 0 0 0 0 0 0 0 0 0 0 0 0 127 0" result="hardAlpha"/>
<feOffset dx="2" dy="27"/>
<feGaussianBlur stdDeviation="2"/>
<feComposite in2="hardAlpha" operator="arithmetic" k2="-1" k3="1"/>
<feColorMatrix type="matrix" values="0 0 0 0 0 0 0 0 0 0 0 0 0 0 0 0 0 0 0.25 0"/>
<feBlend mode="normal" in2="shape" result="effect1_innerShadow_14_63612"/>
<feColorMatrix in="SourceAlpha" type="matrix" values="0 0 0 0 0 0 0 0 0 0 0 0 0 0 0 0 0 0 127 0" result="hardAlpha"/>
<feOffset dy="-2"/>
<feGaussianBlur stdDeviation="0.5"/>
<feComposite in2="hardAlpha" operator="arithmetic" k2="-1" k3="1"/>
<feColorMatrix type="matrix" values="0 0 0 0 0 0 0 0 0 0 0 0 0 0 0 0 0 0 0.07 0"/>
<feBlend mode="normal" in2="effect1_innerShadow_14_63612" result="effect2_innerShadow_14_63612"/>
</filter>
<filter id="filter1_ii_14_63612" x="42.4785" y="63.2612" width="15.4121" height="90.8804" filterUnits="userSpaceOnUse" color-interpolation-filters="sRGB">
<feFlood flood-opacity="0" result="BackgroundImageFix"/>
<feBlend mode="normal" in="SourceGraphic" in2="BackgroundImageFix" result="shape"/>
<feColorMatrix in="SourceAlpha" type="matrix" values="0 0 0 0 0 0 0 0 0 0 0 0 0 0 0 0 0 0 127 0" result="hardAlpha"/>
<feOffset dx="2" dy="27"/>
<feGaussianBlur stdDeviation="2"/>
<feComposite in2="hardAlpha" operator="arithmetic" k2="-1" k3="1"/>
<feColorMatrix type="matrix" values="0 0 0 0 0 0 0 0 0 0 0 0 0 0 0 0 0 0 0.25 0"/>
<feBlend mode="normal" in2="shape" result="effect1_innerShadow_14_63612"/>
<feColorMatrix in="SourceAlpha" type="matrix" values="0 0 0 0 0 0 0 0 0 0 0 0 0 0 0 0 0 0 127 0" result="hardAlpha"/>
<feOffset dy="-2"/>
<feGaussianBlur stdDeviation="0.5"/>
<feComposite in2="hardAlpha" operator="arithmetic" k2="-1" k3="1"/>
<feColorMatrix type="matrix" values="0 0 0 0 0 0 0 0 0 0 0 0 0 0 0 0 0 0 0.07 0"/>
<feBlend mode="normal" in2="effect1_innerShadow_14_63612" result="effect2_innerShadow_14_63612"/>
</filter>
<filter id="filter2_ii_14_63612" x="34.4395" y="77.2158" width="13.9336" height="90.9785" filterUnits="userSpaceOnUse" color-interpolation-filters="sRGB">
<feFlood flood-opacity="0" result="BackgroundImageFix"/>
<feBlend mode="normal" in="SourceGraphic" in2="BackgroundImageFix" result="shape"/>
<feColorMatrix in="SourceAlpha" type="matrix" values="0 0 0 0 0 0 0 0 0 0 0 0 0 0 0 0 0 0 127 0" result="hardAlpha"/>
<feOffset dx="2" dy="27"/>
<feGaussianBlur stdDeviation="2"/>
<feComposite in2="hardAlpha" operator="arithmetic" k2="-1" k3="1"/>
<feColorMatrix type="matrix" values="0 0 0 0 0 0 0 0 0 0 0 0 0 0 0 0 0 0 0.25 0"/>
<feBlend mode="normal" in2="shape" result="effect1_innerShadow_14_63612"/>
<feColorMatrix in="SourceAlpha" type="matrix" values="0 0 0 0 0 0 0 0 0 0 0 0 0 0 0 0 0 0 127 0" result="hardAlpha"/>
<feOffset dy="-2"/>
<feGaussianBlur stdDeviation="0.5"/>
<feComposite in2="hardAlpha" operator="arithmetic" k2="-1" k3="1"/>
<feColorMatrix type="matrix" values="0 0 0 0 0 0 0 0 0 0 0 0 0 0 0 0 0 0 0.07 0"/>
<feBlend mode="normal" in2="effect1_innerShadow_14_63612" result="effect2_innerShadow_14_63612"/>
</filter>
<filter id="filter3_ii_14_63612" x="24.3379" y="74.4077" width="17.0547" height="90.7222" filterUnits="userSpaceOnUse" color-interpolation-filters="sRGB">
<feFlood flood-opacity="0" result="BackgroundImageFix"/>
<feBlend mode="normal" in="SourceGraphic" in2="BackgroundImageFix" result="shape"/>
<feColorMatrix in="SourceAlpha" type="matrix" values="0 0 0 0 0 0 0 0 0 0 0 0 0 0 0 0 0 0 127 0" result="hardAlpha"/>
<feOffset dx="2" dy="27"/>
<feGaussianBlur stdDeviation="2"/>
<feComposite in2="hardAlpha" operator="arithmetic" k2="-1" k3="1"/>
<feColorMatrix type="matrix" values="0 0 0 0 0 0 0 0 0 0 0 0 0 0 0 0 0 0 0.25 0"/>
<feBlend mode="normal" in2="shape" result="effect1_innerShadow_14_63612"/>
<feColorMatrix in="SourceAlpha" type="matrix" values="0 0 0 0 0 0 0 0 0 0 0 0 0 0 0 0 0 0 127 0" result="hardAlpha"/>
<feOffset dy="-2"/>
<feGaussianBlur stdDeviation="0.5"/>
<feComposite in2="hardAlpha" operator="arithmetic" k2="-1" k3="1"/>
<feColorMatrix type="matrix" values="0 0 0 0 0 0 0 0 0 0 0 0 0 0 0 0 0 0 0.07 0"/>
<feBlend mode="normal" in2="effect1_innerShadow_14_63612" result="effect2_innerShadow_14_63612"/>
</filter>
<filter id="filter4_ii_14_63612" x="30.7422" y="68.2832" width="13.0918" height="90.9819" filterUnits="userSpaceOnUse" color-interpolation-filters="sRGB">
<feFlood flood-opacity="0" result="BackgroundImageFix"/>
<feBlend mode="normal" in="SourceGraphic" in2="BackgroundImageFix" result="shape"/>
<feColorMatrix in="SourceAlpha" type="matrix" values="0 0 0 0 0 0 0 0 0 0 0 0 0 0 0 0 0 0 127 0" result="hardAlpha"/>
<feOffset dx="2" dy="27"/>
<feGaussianBlur stdDeviation="2"/>
<feComposite in2="hardAlpha" operator="arithmetic" k2="-1" k3="1"/>
<feColorMatrix type="matrix" values="0 0 0 0 0 0 0 0 0 0 0 0 0 0 0 0 0 0 0.25 0"/>
<feBlend mode="normal" in2="shape" result="effect1_innerShadow_14_63612"/>
<feColorMatrix in="SourceAlpha" type="matrix" values="0 0 0 0 0 0 0 0 0 0 0 0 0 0 0 0 0 0 127 0" result="hardAlpha"/>
<feOffset dy="-2"/>
<feGaussianBlur stdDeviation="0.5"/>
<feComposite in2="hardAlpha" operator="arithmetic" k2="-1" k3="1"/>
<feColorMatrix type="matrix" values="0 0 0 0 0 0 0 0 0 0 0 0 0 0 0 0 0 0 0.07 0"/>
<feBlend mode="normal" in2="effect1_innerShadow_14_63612" result="effect2_innerShadow_14_63612"/>
</filter>
<filter id="filter5_ii_14_63612" x="7.16211" y="33.4702" width="25.9395" height="66.5962" filterUnits="userSpaceOnUse" color-interpolation-filters="sRGB">
<feFlood flood-opacity="0" result="BackgroundImageFix"/>
<feBlend mode="normal" in="SourceGraphic" in2="BackgroundImageFix" result="shape"/>
<feColorMatrix in="SourceAlpha" type="matrix" values="0 0 0 0 0 0 0 0 0 0 0 0 0 0 0 0 0 0 127 0" result="hardAlpha"/>
<feOffset dx="2" dy="-4"/>
<feGaussianBlur stdDeviation="5"/>
<feComposite in2="hardAlpha" operator="arithmetic" k2="-1" k3="1"/>
<feColorMatrix type="matrix" values="0 0 0 0 0 0 0 0 0 0 0 0 0 0 0 0 0 0 0.25 0"/>
<feBlend mode="normal" in2="shape" result="effect1_innerShadow_14_63612"/>
<feColorMatrix in="SourceAlpha" type="matrix" values="0 0 0 0 0 0 0 0 0 0 0 0 0 0 0 0 0 0 127 0" result="hardAlpha"/>
<feOffset dy="-2"/>
<feGaussianBlur stdDeviation="0.5"/>
<feComposite in2="hardAlpha" operator="arithmetic" k2="-1" k3="1"/>
<feColorMatrix type="matrix" values="0 0 0 0 0 0 0 0 0 0 0 0 0 0 0 0 0 0 0.07 0"/>
<feBlend mode="normal" in2="effect1_innerShadow_14_63612" result="effect2_innerShadow_14_63612"/>
</filter>
<filter id="filter6_ii_14_63612" x="6.64844" y="30.2607" width="14.6719" height="49.0527" filterUnits="userSpaceOnUse" color-interpolation-filters="sRGB">
<feFlood flood-opacity="0" result="BackgroundImageFix"/>
<feBlend mode="normal" in="SourceGraphic" in2="BackgroundImageFix" result="shape"/>
<feColorMatrix in="SourceAlpha" type="matrix" values="0 0 0 0 0 0 0 0 0 0 0 0 0 0 0 0 0 0 127 0" result="hardAlpha"/>
<feOffset dx="2" dy="-4"/>
<feGaussianBlur stdDeviation="2"/>
<feComposite in2="hardAlpha" operator="arithmetic" k2="-1" k3="1"/>
<feColorMatrix type="matrix" values="0 0 0 0 0 0 0 0 0 0 0 0 0 0 0 0 0 0 0.25 0"/>
<feBlend mode="normal" in2="shape" result="effect1_innerShadow_14_63612"/>
<feColorMatrix in="SourceAlpha" type="matrix" values="0 0 0 0 0 0 0 0 0 0 0 0 0 0 0 0 0 0 127 0" result="hardAlpha"/>
<feOffset dy="-2"/>
<feGaussianBlur stdDeviation="0.5"/>
<feComposite in2="hardAlpha" operator="arithmetic" k2="-1" k3="1"/>
<feColorMatrix type="matrix" values="0 0 0 0 0 0 0 0 0 0 0 0 0 0 0 0 0 0 0.07 0"/>
<feBlend mode="normal" in2="effect1_innerShadow_14_63612" result="effect2_innerShadow_14_63612"/>
</filter>
<filter id="filter7_ii_14_63612" x="5.64648" y="17.4751" width="21.6953" height="43.6909" filterUnits="userSpaceOnUse" color-interpolation-filters="sRGB">
<feFlood flood-opacity="0" result="BackgroundImageFix"/>
<feBlend mode="normal" in="SourceGraphic" in2="BackgroundImageFix" result="shape"/>
<feColorMatrix in="SourceAlpha" type="matrix" values="0 0 0 0 0 0 0 0 0 0 0 0 0 0 0 0 0 0 127 0" result="hardAlpha"/>
<feOffset dx="2" dy="-4"/>
<feGaussianBlur stdDeviation="5"/>
<feComposite in2="hardAlpha" operator="arithmetic" k2="-1" k3="1"/>
<feColorMatrix type="matrix" values="0 0 0 0 0 0 0 0 0 0 0 0 0 0 0 0 0 0 0.25 0"/>
<feBlend mode="normal" in2="shape" result="effect1_innerShadow_14_63612"/>
<feColorMatrix in="SourceAlpha" type="matrix" values="0 0 0 0 0 0 0 0 0 0 0 0 0 0 0 0 0 0 127 0" result="hardAlpha"/>
<feOffset dy="-2"/>
<feGaussianBlur stdDeviation="0.5"/>
<feComposite in2="hardAlpha" operator="arithmetic" k2="-1" k3="1"/>
<feColorMatrix type="matrix" values="0 0 0 0 0 0 0 0 0 0 0 0 0 0 0 0 0 0 0.07 0"/>
<feBlend mode="normal" in2="effect1_innerShadow_14_63612" result="effect2_innerShadow_14_63612"/>
</filter>
<filter id="filter8_i_14_63612" x="39.1875" y="21.4751" width="29.457" height="82.5913" filterUnits="userSpaceOnUse" color-interpolation-filters="sRGB">
<feFlood flood-opacity="0" result="BackgroundImageFix"/>
<feBlend mode="normal" in="SourceGraphic" in2="BackgroundImageFix" result="shape"/>
<feColorMatrix in="SourceAlpha" type="matrix" values="0 0 0 0 0 0 0 0 0 0 0 0 0 0 0 0 0 0 127 0" result="hardAlpha"/>
<feOffset dx="-6" dy="4"/>
<feGaussianBlur stdDeviation="2"/>
<feComposite in2="hardAlpha" operator="arithmetic" k2="-1" k3="1"/>
<feColorMatrix type="matrix" values="0 0 0 0 1 0 0 0 0 1 0 0 0 0 1 0 0 0 0.25 0"/>
<feBlend mode="normal" in2="shape" result="effect1_innerShadow_14_63612"/>
</filter>
<filter id="filter9_ii_14_63612" x="43.1875" y="33.4702" width="25.2539" height="66.5962" filterUnits="userSpaceOnUse" color-interpolation-filters="sRGB">
<feFlood flood-opacity="0" result="BackgroundImageFix"/>
<feBlend mode="normal" in="SourceGraphic" in2="BackgroundImageFix" result="shape"/>
<feColorMatrix in="SourceAlpha" type="matrix" values="0 0 0 0 0 0 0 0 0 0 0 0 0 0 0 0 0 0 127 0" result="hardAlpha"/>
<feOffset dx="2" dy="-4"/>
<feGaussianBlur stdDeviation="5"/>
<feComposite in2="hardAlpha" operator="arithmetic" k2="-1" k3="1"/>
<feColorMatrix type="matrix" values="0 0 0 0 0 0 0 0 0 0 0 0 0 0 0 0 0 0 0.25 0"/>
<feBlend mode="normal" in2="shape" result="effect1_innerShadow_14_63612"/>
<feColorMatrix in="SourceAlpha" type="matrix" values="0 0 0 0 0 0 0 0 0 0 0 0 0 0 0 0 0 0 127 0" result="hardAlpha"/>
<feOffset dy="-2"/>
<feGaussianBlur stdDeviation="0.5"/>
<feComposite in2="hardAlpha" operator="arithmetic" k2="-1" k3="1"/>
<feColorMatrix type="matrix" values="0 0 0 0 0 0 0 0 0 0 0 0 0 0 0 0 0 0 0.07 0"/>
<feBlend mode="normal" in2="effect1_innerShadow_14_63612" result="effect2_innerShadow_14_63612"/>
</filter>
<filter id="filter10_ii_14_63612" x="54.3066" y="30.2798" width="15.3789" height="48.8325" filterUnits="userSpaceOnUse" color-interpolation-filters="sRGB">
<feFlood flood-opacity="0" result="BackgroundImageFix"/>
<feBlend mode="normal" in="SourceGraphic" in2="BackgroundImageFix" result="shape"/>
<feColorMatrix in="SourceAlpha" type="matrix" values="0 0 0 0 0 0 0 0 0 0 0 0 0 0 0 0 0 0 127 0" result="hardAlpha"/>
<feOffset dx="2" dy="-4"/>
<feGaussianBlur stdDeviation="2"/>
<feComposite in2="hardAlpha" operator="arithmetic" k2="-1" k3="1"/>
<feColorMatrix type="matrix" values="0 0 0 0 0 0 0 0 0 0 0 0 0 0 0 0 0 0 0.25 0"/>
<feBlend mode="normal" in2="shape" result="effect1_innerShadow_14_63612"/>
<feColorMatrix in="SourceAlpha" type="matrix" values="0 0 0 0 0 0 0 0 0 0 0 0 0 0 0 0 0 0 127 0" result="hardAlpha"/>
<feOffset dy="-2"/>
<feGaussianBlur stdDeviation="0.5"/>
<feComposite in2="hardAlpha" operator="arithmetic" k2="-1" k3="1"/>
<feColorMatrix type="matrix" values="0 0 0 0 0 0 0 0 0 0 0 0 0 0 0 0 0 0 0.07 0"/>
<feBlend mode="normal" in2="effect1_innerShadow_14_63612" result="effect2_innerShadow_14_63612"/>
</filter>
<filter id="filter11_ii_14_63612" x="48.9492" y="17.4751" width="21.6953" height="43.6909" filterUnits="userSpaceOnUse" color-interpolation-filters="sRGB">
<feFlood flood-opacity="0" result="BackgroundImageFix"/>
<feBlend mode="normal" in="SourceGraphic" in2="BackgroundImageFix" result="shape"/>
<feColorMatrix in="SourceAlpha" type="matrix" values="0 0 0 0 0 0 0 0 0 0 0 0 0 0 0 0 0 0 127 0" result="hardAlpha"/>
<feOffset dx="2" dy="-4"/>
<feGaussianBlur stdDeviation="5"/>
<feComposite in2="hardAlpha" operator="arithmetic" k2="-1" k3="1"/>
<feColorMatrix type="matrix" values="0 0 0 0 0 0 0 0 0 0 0 0 0 0 0 0 0 0 0.25 0"/>
<feBlend mode="normal" in2="shape" result="effect1_innerShadow_14_63612"/>
<feColorMatrix in="SourceAlpha" type="matrix" values="0 0 0 0 0 0 0 0 0 0 0 0 0 0 0 0 0 0 127 0" result="hardAlpha"/>
<feOffset dy="-2"/>
<feGaussianBlur stdDeviation="0.5"/>
<feComposite in2="hardAlpha" operator="arithmetic" k2="-1" k3="1"/>
<feColorMatrix type="matrix" values="0 0 0 0 0 0 0 0 0 0 0 0 0 0 0 0 0 0 0.07 0"/>
<feBlend mode="normal" in2="effect1_innerShadow_14_63612" result="effect2_innerShadow_14_63612"/>
</filter>
<filter id="filter12_i_14_63612" x="20.8984" y="86.0752" width="16.4785" height="18.2178" filterUnits="userSpaceOnUse" color-interpolation-filters="sRGB">
<feFlood flood-opacity="0" result="BackgroundImageFix"/>
<feBlend mode="normal" in="SourceGraphic" in2="BackgroundImageFix" result="shape"/>
<feColorMatrix in="SourceAlpha" type="matrix" values="0 0 0 0 0 0 0 0 0 0 0 0 0 0 0 0 0 0 127 0" result="hardAlpha"/>
<feOffset dy="-2"/>
<feComposite in2="hardAlpha" operator="arithmetic" k2="-1" k3="1"/>
<feColorMatrix type="matrix" values="0 0 0 0 0 0 0 0 0 0 0 0 0 0 0 0 0 0 0.25 0"/>
<feBlend mode="normal" in2="shape" result="effect1_innerShadow_14_63612"/>
</filter>
<filter id="filter13_i_14_63612" x="38.3418" y="86.0752" width="16.4785" height="18.2178" filterUnits="userSpaceOnUse" color-interpolation-filters="sRGB">
<feFlood flood-opacity="0" result="BackgroundImageFix"/>
<feBlend mode="normal" in="SourceGraphic" in2="BackgroundImageFix" result="shape"/>
<feColorMatrix in="SourceAlpha" type="matrix" values="0 0 0 0 0 0 0 0 0 0 0 0 0 0 0 0 0 0 127 0" result="hardAlpha"/>
<feOffset dy="-2"/>
<feComposite in2="hardAlpha" operator="arithmetic" k2="-1" k3="1"/>
<feColorMatrix type="matrix" values="0 0 0 0 0 0 0 0 0 0 0 0 0 0 0 0 0 0 0.25 0"/>
<feBlend mode="normal" in2="shape" result="effect1_innerShadow_14_63612"/>
</filter>
<filter id="filter14_diii_14_63612" x="2.62891" y="6.00049" width="58.5039" height="102" filterUnits="userSpaceOnUse" color-interpolation-filters="sRGB">
<feFlood flood-opacity="0" result="BackgroundImageFix"/>
<feColorMatrix in="SourceAlpha" type="matrix" values="0 0 0 0 0 0 0 0 0 0 0 0 0 0 0 0 0 0 127 0" result="hardAlpha"/>
<feOffset dy="2"/>
<feComposite in2="hardAlpha" operator="out"/>
<feColorMatrix type="matrix" values="0 0 0 0 0 0 0 0 0 0 0 0 0 0 0 0 0 0 0.25 0"/>
<feBlend mode="normal" in2="BackgroundImageFix" result="effect1_dropShadow_14_63612"/>
<feBlend mode="normal" in="SourceGraphic" in2="effect1_dropShadow_14_63612" result="shape"/>
<feColorMatrix in="SourceAlpha" type="matrix" values="0 0 0 0 0 0 0 0 0 0 0 0 0 0 0 0 0 0 127 0" result="hardAlpha"/>
<feOffset dx="2" dy="-4"/>
<feGaussianBlur stdDeviation="5"/>
<feComposite in2="hardAlpha" operator="arithmetic" k2="-1" k3="1"/>
<feColorMatrix type="matrix" values="0 0 0 0 0 0 0 0 0 0 0 0 0 0 0 0 0 0 0.25 0"/>
<feBlend mode="normal" in2="shape" result="effect2_innerShadow_14_63612"/>
<feColorMatrix in="SourceAlpha" type="matrix" values="0 0 0 0 0 0 0 0 0 0 0 0 0 0 0 0 0 0 127 0" result="hardAlpha"/>
<feOffset dy="-2"/>
<feGaussianBlur stdDeviation="0.5"/>
<feComposite in2="hardAlpha" operator="arithmetic" k2="-1" k3="1"/>
<feColorMatrix type="matrix" values="0 0 0 0 0 0 0 0 0 0 0 0 0 0 0 0 0 0 0.07 0"/>
<feBlend mode="normal" in2="effect2_innerShadow_14_63612" result="effect3_innerShadow_14_63612"/>
<feColorMatrix in="SourceAlpha" type="matrix" values="0 0 0 0 0 0 0 0 0 0 0 0 0 0 0 0 0 0 127 0" result="hardAlpha"/>
<feOffset dx="-16" dy="12"/>
<feGaussianBlur stdDeviation="6"/>
<feComposite in2="hardAlpha" operator="arithmetic" k2="-1" k3="1"/>
<feColorMatrix type="matrix" values="0 0 0 0 1 0 0 0 0 1 0 0 0 0 1 0 0 0 0.15 0"/>
<feBlend mode="normal" in2="effect3_innerShadow_14_63612" result="effect4_innerShadow_14_63612"/>
</filter>
<filter id="filter15_di_14_63612" x="12.7344" y="8.84131" width="50.8223" height="51.1587" filterUnits="userSpaceOnUse" color-interpolation-filters="sRGB">
<feFlood flood-opacity="0" result="BackgroundImageFix"/>
<feColorMatrix in="SourceAlpha" type="matrix" values="0 0 0 0 0 0 0 0 0 0 0 0 0 0 0 0 0 0 127 0" result="hardAlpha"/>
<feOffset dy="1"/>
<feComposite in2="hardAlpha" operator="out"/>
<feColorMatrix type="matrix" values="0 0 0 0 0 0 0 0 0 0 0 0 0 0 0 0 0 0 0.25 0"/>
<feBlend mode="normal" in2="BackgroundImageFix" result="effect1_dropShadow_14_63612"/>
<feBlend mode="normal" in="SourceGraphic" in2="effect1_dropShadow_14_63612" result="shape"/>
<feColorMatrix in="SourceAlpha" type="matrix" values="0 0 0 0 0 0 0 0 0 0 0 0 0 0 0 0 0 0 127 0" result="hardAlpha"/>
<feOffset dx="1" dy="-2"/>
<feGaussianBlur stdDeviation="2.5"/>
<feComposite in2="hardAlpha" operator="arithmetic" k2="-1" k3="1"/>
<feColorMatrix type="matrix" values="0 0 0 0 0 0 0 0 0 0 0 0 0 0 0 0 0 0 0.2 0"/>
<feBlend mode="normal" in2="shape" result="effect2_innerShadow_14_63612"/>
</filter>
<filter id="filter16_dii_14_63612" x="17.7109" y="-2" width="42" height="46" filterUnits="userSpaceOnUse" color-interpolation-filters="sRGB">
<feFlood flood-opacity="0" result="BackgroundImageFix"/>
<feColorMatrix in="SourceAlpha" type="matrix" values="0 0 0 0 0 0 0 0 0 0 0 0 0 0 0 0 0 0 127 0" result="hardAlpha"/>
<feOffset dy="2"/>
<feComposite in2="hardAlpha" operator="out"/>
<feColorMatrix type="matrix" values="0 0 0 0 0 0 0 0 0 0 0 0 0 0 0 0 0 0 0.25 0"/>
<feBlend mode="normal" in2="BackgroundImageFix" result="effect1_dropShadow_14_63612"/>
<feBlend mode="normal" in="SourceGraphic" in2="effect1_dropShadow_14_63612" result="shape"/>
<feColorMatrix in="SourceAlpha" type="matrix" values="0 0 0 0 0 0 0 0 0 0 0 0 0 0 0 0 0 0 127 0" result="hardAlpha"/>
<feOffset dx="3" dy="-4"/>
<feGaussianBlur stdDeviation="2"/>
<feComposite in2="hardAlpha" operator="arithmetic" k2="-1" k3="1"/>
<feColorMatrix type="matrix" values="0 0 0 0 0 0 0 0 0 0 0 0 0 0 0 0 0 0 0.1 0"/>
<feBlend mode="normal" in2="shape" result="effect2_innerShadow_14_63612"/>
<feColorMatrix in="SourceAlpha" type="matrix" values="0 0 0 0 0 0 0 0 0 0 0 0 0 0 0 0 0 0 127 0" result="hardAlpha"/>
<feOffset dy="-2"/>
<feGaussianBlur stdDeviation="2"/>
<feComposite in2="hardAlpha" operator="arithmetic" k2="-1" k3="1"/>
<feColorMatrix type="matrix" values="0 0 0 0 0 0 0 0 0 0 0 0 0 0 0 0 0 0 0.07 0"/>
<feBlend mode="normal" in2="effect2_innerShadow_14_63612" result="effect3_innerShadow_14_63612"/>
</filter>
<filter id="filter17_di_14_63612" x="27.7109" y="11.5" width="20" height="40.4976" filterUnits="userSpaceOnUse" color-interpolation-filters="sRGB">
<feFlood flood-opacity="0" result="BackgroundImageFix"/>
<feColorMatrix in="SourceAlpha" type="matrix" values="0 0 0 0 0 0 0 0 0 0 0 0 0 0 0 0 0 0 127 0" result="hardAlpha"/>
<feOffset dy="1"/>
<feGaussianBlur stdDeviation="0.5"/>
<feComposite in2="hardAlpha" operator="out"/>
<feColorMatrix type="matrix" values="0 0 0 0 0 0 0 0 0 0 0 0 0 0 0 0 0 0 0.25 0"/>
<feBlend mode="normal" in2="BackgroundImageFix" result="effect1_dropShadow_14_63612"/>
<feBlend mode="normal" in="SourceGraphic" in2="effect1_dropShadow_14_63612" result="shape"/>
<feColorMatrix in="SourceAlpha" type="matrix" values="0 0 0 0 0 0 0 0 0 0 0 0 0 0 0 0 0 0 127 0" result="hardAlpha"/>
<feOffset dy="-1"/>
<feGaussianBlur stdDeviation="1"/>
<feComposite in2="hardAlpha" operator="arithmetic" k2="-1" k3="1"/>
<feColorMatrix type="matrix" values="0 0 0 0 0 0 0 0 0 0 0 0 0 0 0 0 0 0 0.2 0"/>
<feBlend mode="normal" in2="shape" result="effect2_innerShadow_14_63612"/>
</filter>
<filter id="filter18_f_14_63612" x="32.1309" y="11" width="11.1621" height="22" filterUnits="userSpaceOnUse" color-interpolation-filters="sRGB">
<feFlood flood-opacity="0" result="BackgroundImageFix"/>
<feBlend mode="normal" in="SourceGraphic" in2="BackgroundImageFix" result="shape"/>
<feGaussianBlur stdDeviation="1" result="effect1_foregroundBlur_14_63612"/>
</filter>
<filter id="filter19_ii_14_63612" x="17.7109" y="-4" width="41.752" height="27.9463" filterUnits="userSpaceOnUse" color-interpolation-filters="sRGB">
<feFlood flood-opacity="0" result="BackgroundImageFix"/>
<feBlend mode="normal" in="SourceGraphic" in2="BackgroundImageFix" result="shape"/>
<feColorMatrix in="SourceAlpha" type="matrix" values="0 0 0 0 0 0 0 0 0 0 0 0 0 0 0 0 0 0 127 0" result="hardAlpha"/>
<feOffset dx="3" dy="-4"/>
<feGaussianBlur stdDeviation="2"/>
<feComposite in2="hardAlpha" operator="arithmetic" k2="-1" k3="1"/>
<feColorMatrix type="matrix" values="0 0 0 0 0 0 0 0 0 0 0 0 0 0 0 0 0 0 0.1 0"/>
<feBlend mode="normal" in2="shape" result="effect1_innerShadow_14_63612"/>
<feColorMatrix in="SourceAlpha" type="matrix" values="0 0 0 0 0 0 0 0 0 0 0 0 0 0 0 0 0 0 127 0" result="hardAlpha"/>
<feOffset dy="-2"/>
<feGaussianBlur stdDeviation="2"/>
<feComposite in2="hardAlpha" operator="arithmetic" k2="-1" k3="1"/>
<feColorMatrix type="matrix" values="0 0 0 0 0 0 0 0 0 0 0 0 0 0 0 0 0 0 0.07 0"/>
<feBlend mode="normal" in2="effect1_innerShadow_14_63612" result="effect2_innerShadow_14_63612"/>
</filter>
<linearGradient id="paint0_linear_14_63612" x1="12.9299" y1="65.2493" x2="15.769" y2="79.187" gradientUnits="userSpaceOnUse">
<stop stop-color="#EAB308"/>
<stop offset="1" stop-color="#479A06"/>
</linearGradient>
<linearGradient id="paint1_linear_14_63612" x1="61.1509" y1="65.2699" x2="57.7941" y2="79.0919" gradientUnits="userSpaceOnUse">
<stop stop-color="#EAB308"/>
<stop offset="1" stop-color="#479A06"/>
</linearGradient>
</defs>
</svg>
