<svg width="103" height="165" viewBox="0 0 103 165" fill="none" xmlns="http://www.w3.org/2000/svg">
<circle cx="51.5" cy="113.5" r="51.5" fill="black" fill-opacity="0.12"/>
<circle cx="51.5" cy="113.5" r="43.5" fill="black" fill-opacity="0.12"/>
<path opacity="0.5" d="M63.6873 54.8847C70.2521 52.187 78.4781 57.0352 82.0607 65.7137C85.6433 74.3921 83.2258 83.6144 76.661 86.3122C70.0962 89.01 68.1137 81.5959 64.5311 72.9175C60.9485 64.239 57.1226 57.5825 63.6873 54.8847Z" fill="white"/>
<g filter="url(#filter0_ii_3_11337)">
<rect x="13" y="77" width="76" height="76" rx="38" fill="black" fill-opacity="0.12"/>
</g>
<g filter="url(#filter1_ii_3_11337)">
<rect x="11" y="25" width="80" height="128" rx="40" fill="white" fill-opacity="0.4"/>
</g>
<g filter="url(#filter2_ii_3_11337)">
<rect x="11" y="25" width="80" height="128" rx="40" fill="white" fill-opacity="0.4"/>
</g>
<g filter="url(#filter3_ii_3_11337)">
<rect x="13" y="36" width="76" height="114" rx="38" fill="#334155"/>
</g>
<circle cx="1.5" cy="1.5" r="1.5" transform="matrix(-0.738817 0.673906 -0.675569 -0.737297 28.2422 105.212)" fill="black" fill-opacity="0.2"/>
<circle cx="1.5" cy="1.5" r="1.5" transform="matrix(-0.738817 0.673906 -0.675569 -0.737297 70.2432 85.2119)" fill="black" fill-opacity="0.2"/>
<circle cx="2.64048" cy="2.64048" r="2.64048" transform="matrix(-0.738817 0.673906 -0.675569 -0.737297 51.8555 127.284)" fill="black" fill-opacity="0.2"/>
<circle cx="0.686289" cy="0.686289" r="0.686289" transform="matrix(0.738817 -0.673906 -0.675569 -0.737297 56.0781 104.086)" fill="black" fill-opacity="0.2"/>
<circle cx="0.686289" cy="0.686289" r="0.686289" transform="matrix(0.738817 -0.673906 -0.675569 -0.737297 29.9277 119.938)" fill="black" fill-opacity="0.2"/>
<g filter="url(#filter4_ii_3_11337)">
<path fill-rule="evenodd" clip-rule="evenodd" d="M51 36C30.0132 36 13 53.0132 13 74V106C13 107.351 13.0705 108.685 13.208 110C15.2068 90.8934 31.3641 76 51 76C70.6359 76 86.7932 90.8934 88.792 110C88.9295 108.685 89 107.351 89 106V74C89 53.0132 71.9868 36 51 36Z" fill="#334155"/>
</g>
<g filter="url(#filter5_ii_3_11337)">
<path fill-rule="evenodd" clip-rule="evenodd" d="M17.901 55.0755C16.6682 58.7349 16 62.6539 16 66.729V75.3791C19.3393 88.2113 31.0045 97.6841 44.8821 97.6841H58.1579C74.6392 97.6841 87.9999 84.3234 87.9999 67.842C87.9999 51.3607 74.6392 38 58.1579 38H44.8821C32.9687 38 22.6858 44.981 17.901 55.0755Z" fill="black" fill-opacity="0.12"/>
</g>
<rect x="30" y="4" width="42" height="53.2683" rx="21" fill="white" fill-opacity="0.7"/>
<g filter="url(#filter6_dii_3_11337)">
<path d="M51 45C57.2487 45 62.3143 40.044 62.3143 33.9304L63 20H39L39.6857 33.9304C39.6857 40.044 44.7513 45 51 45Z" fill="#A16207"/>
</g>
<rect x="30" y="4" width="42" height="42" rx="21" fill="white" fill-opacity="0.6"/>
<g filter="url(#filter7_dii_3_11337)">
<path d="M51 36C58.3355 36 64.2821 30.3074 64.2821 23.2853L65 14H37L37.7179 23.2853C37.7179 30.3074 43.6645 36 51 36Z" fill="#A16207"/>
</g>
<path d="M65 40.8487C65.8306 39.9261 66.2799 39.3542 67 38V46.1513C66.2839 47.6558 65.828 48.1666 65 49V40.8487Z" fill="white"/>
<path d="M60 44.33C61.6979 43.4516 62.5801 42.3053 64 41V50.67C63 51.8227 61.5778 53.2408 60 54V44.33Z" fill="white"/>
<ellipse cx="40.5" cy="18.5" rx="0.5" ry="1.5" fill="#713F12"/>
<ellipse cx="44.5" cy="29.5" rx="0.5" ry="1.5" fill="#713F12"/>
<ellipse cx="59.5" cy="29" rx="1.5" ry="3" fill="#713F12"/>
<ellipse cx="53.5" cy="31" rx="1.5" ry="2" fill="#854D0E"/>
<circle cx="51" cy="14" r="14" fill="#CA8A04"/>
<path opacity="0.5" d="M73.8643 63.9353C79.4794 62.8666 85.1871 68.02 86.6126 75.4456C88.0382 82.8713 84.6419 89.7574 79.0268 90.8261C73.4116 91.8948 73.0443 85.725 71.6188 78.2994C70.1932 70.8737 68.2492 65.0041 73.8643 63.9353Z" fill="white"/>
<path fill-rule="evenodd" clip-rule="evenodd" d="M59.1084 102.012L62.2681 100.182C63.3058 99.5805 64.2116 101.491 63.807 102.075C63.0515 103.165 63.5897 103.861 65.3251 103.956C66.2006 104.003 69.0638 104.327 68.0392 105.409L66.3581 107.184C65.7756 107.799 64.6057 107.836 63.5752 107.868C62.3797 107.905 61.1066 108.379 60.2384 109.02C60.2384 109.02 56.3618 111.134 53.5846 113.183C53.3289 113.371 53.0154 113.609 52.6569 113.885C53.3189 114.368 54.0063 114.866 54.7159 115.375C61.5429 120.276 62.376 120.48 62.376 120.48C62.9947 120.724 63.829 120.764 64.6576 120.803C65.7492 120.854 66.8308 120.905 67.3965 121.423L69.9055 123.719C70.7295 124.474 68.1031 125.136 67.3017 124.843C65.8052 124.295 64.8474 124.688 64.7147 125.952C64.6478 126.589 64.1979 128.673 62.7131 127.93L60.2768 126.709C59.4327 126.287 59.385 125.435 59.343 124.685C59.2942 123.815 58.6447 122.889 57.7661 122.259C57.7661 122.259 54.8695 119.441 52.0591 117.423C51.5716 117.073 50.8455 116.574 49.9783 115.988C46.1597 119.023 41.2107 123.061 41.2107 123.061C40.6134 123.861 40.2994 124.521 40.0143 125.12C39.4548 126.296 39.0067 127.237 36.7466 128.547C36.3732 128.763 35.6978 128.302 35.234 127.869C34.4656 127.151 34.4077 126.708 34.3595 126.339C34.2862 125.778 34.2355 125.39 31.7427 124.475C31.119 124.246 30.4297 123.896 30.9754 123.32L32.6566 121.544C33.2499 120.918 34.3877 120.772 35.5828 120.619C36.7413 120.471 37.9537 120.315 38.7762 119.709C38.7762 119.709 42.4072 117.519 47.2423 114.16C43.2396 111.505 38.5109 108.435 38.5109 108.435C37.4125 108.002 36.5064 107.775 35.6838 107.569C34.0692 107.163 32.7762 106.839 30.9814 105.196C30.685 104.925 31.32 104.433 31.9158 104.094C32.903 103.534 33.5126 103.491 34.0195 103.455C34.7904 103.401 35.3236 103.363 36.5857 101.547C36.9015 101.092 37.3829 100.59 38.1739 100.986L40.6102 102.207C41.47 102.637 41.668 103.465 41.8759 104.335C42.0775 105.178 42.2885 106.06 43.1208 106.657C43.1208 106.657 45.8733 108.861 50.1901 112.069C50.5848 111.783 50.9836 111.491 51.3856 111.195C58.132 106.217 57.804 105.668 57.804 105.668C58.1404 105.217 58.196 104.61 58.2512 104.007C58.324 103.212 58.3961 102.425 59.1084 102.012Z" fill="white" fill-opacity="0.4"/>
<path fill-rule="evenodd" clip-rule="evenodd" d="M40.318 83.8214L38 88.0718L38.8915 90.9847L40.0684 95.4L43.4562 99.0641L45.4532 104.285L47.6107 103.676L49.26 105L50.9094 104.989L53.1025 103.644L54.8678 102.875L56.8291 102.692L58.1129 101.922L58.8618 97.1954L60.2704 97.0122L62 88.0718L60.734 84.829L53.5126 81.8061L49.162 81L40.318 83.8214ZM42.1112 92.5624L41.8166 93.1821C41.6352 93.5638 41.662 94.0153 41.8871 94.3715L43.2476 96.5238C43.4789 96.8897 43.8841 97.0992 44.308 97.072L46.3659 96.9399C46.6517 96.9215 46.9212 96.7967 47.1239 96.5888L48.8173 94.8522C49.2108 94.4485 49.2757 93.8169 48.9728 93.3377L47.8162 91.508C47.6232 91.2027 47.3065 91.003 46.9542 90.9643L45.0025 90.7503C44.7337 90.7209 44.4633 90.7874 44.2366 90.9386L42.5277 92.0791C42.3488 92.1984 42.2048 92.3655 42.1112 92.5624ZM58.1122 91.3427L58.9842 92.7346C59.1817 93.0497 59.2257 93.4411 59.1035 93.7942L58.3894 95.8577C58.296 96.1277 58.1123 96.3548 57.871 96.4986L56.6685 97.2152C56.3768 97.3891 56.0264 97.426 55.7064 97.3166L54.4998 96.9039C54.3207 96.8427 54.1585 96.7381 54.0271 96.5989L52.2807 94.7506C51.8726 94.3186 51.8359 93.644 52.1946 93.168L53.7128 91.1539C53.9459 90.8446 54.3102 90.6703 54.6907 90.686L57.1702 90.789C57.5532 90.8048 57.9047 91.0115 58.1122 91.3427ZM50.4779 95.6646L49.31 97.1066C49.2822 97.141 49.2614 97.1809 49.249 97.2238L48.4729 99.9147C48.4008 100.165 48.6263 100.398 48.87 100.325L50.797 99.751C50.857 99.7332 50.9207 99.7337 50.9804 99.7524L52.7073 100.296C52.9626 100.376 53.1961 100.12 53.1012 99.8633L52.3034 97.7073C52.2946 97.6837 52.2833 97.6612 52.2695 97.6402L50.9907 95.6912C50.8711 95.509 50.6147 95.4957 50.4779 95.6646Z" fill="white" fill-opacity="0.4"/>
<defs>
<filter id="filter0_ii_3_11337" x="-1.37037" y="74.1259" width="96.1185" height="93.2444" filterUnits="userSpaceOnUse" color-interpolation-filters="sRGB">
<feFlood flood-opacity="0" result="BackgroundImageFix"/>
<feBlend mode="normal" in="SourceGraphic" in2="BackgroundImageFix" result="shape"/>
<feColorMatrix in="SourceAlpha" type="matrix" values="0 0 0 0 0 0 0 0 0 0 0 0 0 0 0 0 0 0 127 0" result="hardAlpha"/>
<feOffset dx="-22.9926" dy="31.6148"/>
<feGaussianBlur stdDeviation="7.18519"/>
<feComposite in2="hardAlpha" operator="arithmetic" k2="-1" k3="1"/>
<feColorMatrix type="matrix" values="0 0 0 0 1 0 0 0 0 1 0 0 0 0 1 0 0 0 0.25 0"/>
<feBlend mode="normal" in2="shape" result="effect1_innerShadow_3_11337"/>
<feColorMatrix in="SourceAlpha" type="matrix" values="0 0 0 0 0 0 0 0 0 0 0 0 0 0 0 0 0 0 127 0" result="hardAlpha"/>
<feOffset dx="5.74815" dy="-2.87407"/>
<feGaussianBlur stdDeviation="7.18519"/>
<feComposite in2="hardAlpha" operator="arithmetic" k2="-1" k3="1"/>
<feColorMatrix type="matrix" values="0 0 0 0 0 0 0 0 0 0 0 0 0 0 0 0 0 0 0.25 0"/>
<feBlend mode="normal" in2="effect1_innerShadow_3_11337" result="effect2_innerShadow_3_11337"/>
</filter>
<filter id="filter1_ii_3_11337" x="-3.37037" y="22.1259" width="100.119" height="145.244" filterUnits="userSpaceOnUse" color-interpolation-filters="sRGB">
<feFlood flood-opacity="0" result="BackgroundImageFix"/>
<feBlend mode="normal" in="SourceGraphic" in2="BackgroundImageFix" result="shape"/>
<feColorMatrix in="SourceAlpha" type="matrix" values="0 0 0 0 0 0 0 0 0 0 0 0 0 0 0 0 0 0 127 0" result="hardAlpha"/>
<feOffset dx="-22.9926" dy="31.6148"/>
<feGaussianBlur stdDeviation="7.18519"/>
<feComposite in2="hardAlpha" operator="arithmetic" k2="-1" k3="1"/>
<feColorMatrix type="matrix" values="0 0 0 0 1 0 0 0 0 1 0 0 0 0 1 0 0 0 0.25 0"/>
<feBlend mode="normal" in2="shape" result="effect1_innerShadow_3_11337"/>
<feColorMatrix in="SourceAlpha" type="matrix" values="0 0 0 0 0 0 0 0 0 0 0 0 0 0 0 0 0 0 127 0" result="hardAlpha"/>
<feOffset dx="5.74815" dy="-2.87407"/>
<feGaussianBlur stdDeviation="7.18519"/>
<feComposite in2="hardAlpha" operator="arithmetic" k2="-1" k3="1"/>
<feColorMatrix type="matrix" values="0 0 0 0 0 0 0 0 0 0 0 0 0 0 0 0 0 0 0.25 0"/>
<feBlend mode="normal" in2="effect1_innerShadow_3_11337" result="effect2_innerShadow_3_11337"/>
</filter>
<filter id="filter2_ii_3_11337" x="-3.37037" y="22.1259" width="100.119" height="145.244" filterUnits="userSpaceOnUse" color-interpolation-filters="sRGB">
<feFlood flood-opacity="0" result="BackgroundImageFix"/>
<feBlend mode="normal" in="SourceGraphic" in2="BackgroundImageFix" result="shape"/>
<feColorMatrix in="SourceAlpha" type="matrix" values="0 0 0 0 0 0 0 0 0 0 0 0 0 0 0 0 0 0 127 0" result="hardAlpha"/>
<feOffset dx="-22.9926" dy="31.6148"/>
<feGaussianBlur stdDeviation="7.18519"/>
<feComposite in2="hardAlpha" operator="arithmetic" k2="-1" k3="1"/>
<feColorMatrix type="matrix" values="0 0 0 0 1 0 0 0 0 1 0 0 0 0 1 0 0 0 0.25 0"/>
<feBlend mode="normal" in2="shape" result="effect1_innerShadow_3_11337"/>
<feColorMatrix in="SourceAlpha" type="matrix" values="0 0 0 0 0 0 0 0 0 0 0 0 0 0 0 0 0 0 127 0" result="hardAlpha"/>
<feOffset dx="5.74815" dy="-2.87407"/>
<feGaussianBlur stdDeviation="7.18519"/>
<feComposite in2="hardAlpha" operator="arithmetic" k2="-1" k3="1"/>
<feColorMatrix type="matrix" values="0 0 0 0 0 0 0 0 0 0 0 0 0 0 0 0 0 0 0.25 0"/>
<feBlend mode="normal" in2="effect1_innerShadow_3_11337" result="effect2_innerShadow_3_11337"/>
</filter>
<filter id="filter3_ii_3_11337" x="1.09954" y="33.6199" width="92.6606" height="128.281" filterUnits="userSpaceOnUse" color-interpolation-filters="sRGB">
<feFlood flood-opacity="0" result="BackgroundImageFix"/>
<feBlend mode="normal" in="SourceGraphic" in2="BackgroundImageFix" result="shape"/>
<feColorMatrix in="SourceAlpha" type="matrix" values="0 0 0 0 0 0 0 0 0 0 0 0 0 0 0 0 0 0 127 0" result="hardAlpha"/>
<feOffset dx="-19.0407" dy="26.181"/>
<feGaussianBlur stdDeviation="5.95023"/>
<feComposite in2="hardAlpha" operator="arithmetic" k2="-1" k3="1"/>
<feColorMatrix type="matrix" values="0 0 0 0 1 0 0 0 0 1 0 0 0 0 1 0 0 0 0.25 0"/>
<feBlend mode="normal" in2="shape" result="effect1_innerShadow_3_11337"/>
<feColorMatrix in="SourceAlpha" type="matrix" values="0 0 0 0 0 0 0 0 0 0 0 0 0 0 0 0 0 0 127 0" result="hardAlpha"/>
<feOffset dx="4.76019" dy="-2.38009"/>
<feGaussianBlur stdDeviation="5.95023"/>
<feComposite in2="hardAlpha" operator="arithmetic" k2="-1" k3="1"/>
<feColorMatrix type="matrix" values="0 0 0 0 0 0 0 0 0 0 0 0 0 0 0 0 0 0 0.25 0"/>
<feBlend mode="normal" in2="effect1_innerShadow_3_11337" result="effect2_innerShadow_3_11337"/>
</filter>
<filter id="filter4_ii_3_11337" x="1.09954" y="33.6199" width="92.6606" height="88.2806" filterUnits="userSpaceOnUse" color-interpolation-filters="sRGB">
<feFlood flood-opacity="0" result="BackgroundImageFix"/>
<feBlend mode="normal" in="SourceGraphic" in2="BackgroundImageFix" result="shape"/>
<feColorMatrix in="SourceAlpha" type="matrix" values="0 0 0 0 0 0 0 0 0 0 0 0 0 0 0 0 0 0 127 0" result="hardAlpha"/>
<feOffset dx="-19.0407" dy="26.181"/>
<feGaussianBlur stdDeviation="5.95023"/>
<feComposite in2="hardAlpha" operator="arithmetic" k2="-1" k3="1"/>
<feColorMatrix type="matrix" values="0 0 0 0 1 0 0 0 0 1 0 0 0 0 1 0 0 0 0.25 0"/>
<feBlend mode="normal" in2="shape" result="effect1_innerShadow_3_11337"/>
<feColorMatrix in="SourceAlpha" type="matrix" values="0 0 0 0 0 0 0 0 0 0 0 0 0 0 0 0 0 0 127 0" result="hardAlpha"/>
<feOffset dx="4.76019" dy="-2.38009"/>
<feGaussianBlur stdDeviation="5.95023"/>
<feComposite in2="hardAlpha" operator="arithmetic" k2="-1" k3="1"/>
<feColorMatrix type="matrix" values="0 0 0 0 0 0 0 0 0 0 0 0 0 0 0 0 0 0 0.25 0"/>
<feBlend mode="normal" in2="effect1_innerShadow_3_11337" result="effect2_innerShadow_3_11337"/>
</filter>
<filter id="filter5_ii_3_11337" x="1.62963" y="35.1259" width="92.1185" height="76.929" filterUnits="userSpaceOnUse" color-interpolation-filters="sRGB">
<feFlood flood-opacity="0" result="BackgroundImageFix"/>
<feBlend mode="normal" in="SourceGraphic" in2="BackgroundImageFix" result="shape"/>
<feColorMatrix in="SourceAlpha" type="matrix" values="0 0 0 0 0 0 0 0 0 0 0 0 0 0 0 0 0 0 127 0" result="hardAlpha"/>
<feOffset dx="-22.9926" dy="31.6148"/>
<feGaussianBlur stdDeviation="7.18519"/>
<feComposite in2="hardAlpha" operator="arithmetic" k2="-1" k3="1"/>
<feColorMatrix type="matrix" values="0 0 0 0 1 0 0 0 0 1 0 0 0 0 1 0 0 0 0.25 0"/>
<feBlend mode="normal" in2="shape" result="effect1_innerShadow_3_11337"/>
<feColorMatrix in="SourceAlpha" type="matrix" values="0 0 0 0 0 0 0 0 0 0 0 0 0 0 0 0 0 0 127 0" result="hardAlpha"/>
<feOffset dx="5.74815" dy="-2.87407"/>
<feGaussianBlur stdDeviation="7.18519"/>
<feComposite in2="hardAlpha" operator="arithmetic" k2="-1" k3="1"/>
<feColorMatrix type="matrix" values="0 0 0 0 0 0 0 0 0 0 0 0 0 0 0 0 0 0 0.25 0"/>
<feBlend mode="normal" in2="effect1_innerShadow_3_11337" result="effect2_innerShadow_3_11337"/>
</filter>
<filter id="filter6_dii_3_11337" x="30.3778" y="20" width="41.2444" height="42.963" filterUnits="userSpaceOnUse" color-interpolation-filters="sRGB">
<feFlood flood-opacity="0" result="BackgroundImageFix"/>
<feColorMatrix in="SourceAlpha" type="matrix" values="0 0 0 0 0 0 0 0 0 0 0 0 0 0 0 0 0 0 127 0" result="hardAlpha"/>
<feOffset dy="9.34074"/>
<feGaussianBlur stdDeviation="4.31111"/>
<feComposite in2="hardAlpha" operator="out"/>
<feColorMatrix type="matrix" values="0 0 0 0 0 0 0 0 0 0 0 0 0 0 0 0 0 0 0.25 0"/>
<feBlend mode="normal" in2="BackgroundImageFix" result="effect1_dropShadow_3_11337"/>
<feBlend mode="normal" in="SourceGraphic" in2="effect1_dropShadow_3_11337" result="shape"/>
<feColorMatrix in="SourceAlpha" type="matrix" values="0 0 0 0 0 0 0 0 0 0 0 0 0 0 0 0 0 0 127 0" result="hardAlpha"/>
<feOffset dx="5.74815" dy="2.87407"/>
<feGaussianBlur stdDeviation="4.31111"/>
<feComposite in2="hardAlpha" operator="arithmetic" k2="-1" k3="1"/>
<feColorMatrix type="matrix" values="0 0 0 0 0 0 0 0 0 0 0 0 0 0 0 0 0 0 0.25 0"/>
<feBlend mode="normal" in2="shape" result="effect2_innerShadow_3_11337"/>
<feColorMatrix in="SourceAlpha" type="matrix" values="0 0 0 0 0 0 0 0 0 0 0 0 0 0 0 0 0 0 127 0" result="hardAlpha"/>
<feOffset dy="8.62222"/>
<feGaussianBlur stdDeviation="3.59259"/>
<feComposite in2="hardAlpha" operator="arithmetic" k2="-1" k3="1"/>
<feColorMatrix type="matrix" values="0 0 0 0 0 0 0 0 0 0 0 0 0 0 0 0 0 0 0.25 0"/>
<feBlend mode="normal" in2="effect2_innerShadow_3_11337" result="effect3_innerShadow_3_11337"/>
</filter>
<filter id="filter7_dii_3_11337" x="31.2519" y="14" width="44.5259" height="24.8741" filterUnits="userSpaceOnUse" color-interpolation-filters="sRGB">
<feFlood flood-opacity="0" result="BackgroundImageFix"/>
<feColorMatrix in="SourceAlpha" type="matrix" values="0 0 0 0 0 0 0 0 0 0 0 0 0 0 0 0 0 0 127 0" result="hardAlpha"/>
<feOffset dy="2.87407"/>
<feComposite in2="hardAlpha" operator="out"/>
<feColorMatrix type="matrix" values="0 0 0 0 0 0 0 0 0 0 0 0 0 0 0 0 0 0 0.25 0"/>
<feBlend mode="normal" in2="BackgroundImageFix" result="effect1_dropShadow_3_11337"/>
<feBlend mode="normal" in="SourceGraphic" in2="effect1_dropShadow_3_11337" result="shape"/>
<feColorMatrix in="SourceAlpha" type="matrix" values="0 0 0 0 0 0 0 0 0 0 0 0 0 0 0 0 0 0 127 0" result="hardAlpha"/>
<feOffset dx="10.7778" dy="2.87407"/>
<feGaussianBlur stdDeviation="7.18519"/>
<feComposite in2="hardAlpha" operator="arithmetic" k2="-1" k3="1"/>
<feColorMatrix type="matrix" values="0 0 0 0 0 0 0 0 0 0 0 0 0 0 0 0 0 0 0.25 0"/>
<feBlend mode="normal" in2="shape" result="effect2_innerShadow_3_11337"/>
<feColorMatrix in="SourceAlpha" type="matrix" values="0 0 0 0 0 0 0 0 0 0 0 0 0 0 0 0 0 0 127 0" result="hardAlpha"/>
<feOffset dx="-5.74815" dy="2.87407"/>
<feGaussianBlur stdDeviation="4.67037"/>
<feComposite in2="hardAlpha" operator="arithmetic" k2="-1" k3="1"/>
<feColorMatrix type="matrix" values="0 0 0 0 1 0 0 0 0 1 0 0 0 0 1 0 0 0 0.25 0"/>
<feBlend mode="normal" in2="effect2_innerShadow_3_11337" result="effect3_innerShadow_3_11337"/>
</filter>
</defs>
</svg>
