<svg width="237" height="246" viewBox="0 0 237 246" fill="none" xmlns="http://www.w3.org/2000/svg">
<ellipse cx="115" cy="99" rx="115" ry="99" transform="matrix(1 0 0 -1 0 245.727)" fill="black" fill-opacity="0.12"/>
<path fill-rule="evenodd" clip-rule="evenodd" d="M166.126 209.764C199.852 201.894 225 171.286 225 134.727C225 92.2006 190.974 57.7266 149 57.7266C137.568 57.7266 126.726 60.2838 117 64.8644C107.274 60.2838 96.4318 57.7266 85 57.7266C43.0264 57.7266 9 92.2006 9 134.727C9 172.183 35.3967 203.392 70.3707 210.301C82.755 223.576 99.53 231.727 118 231.727C136.718 231.727 153.695 223.355 166.126 209.764Z" fill="black" fill-opacity="0.2"/>
<g filter="url(#filter0_i_3_11307)">
<g filter="url(#filter1_ii_3_11307)">
<path d="M66 60.6432C66 31.4181 89.7289 7.72656 119 7.72656C148.271 7.72656 172 31.4182 172 60.6432C172 89.8683 143.808 134.727 114.537 134.727C85.2657 134.727 66 89.8683 66 60.6432Z" fill="#EA580C"/>
</g>
<g filter="url(#filter2_iii_3_11307)">
<path d="M125 81.84C125 111.048 101.047 134.727 71.5 134.727C41.9528 134.727 18 111.048 18 81.84C18 52.6315 41.9528 26.7266 71.5 26.7266C101.047 26.7266 125 52.6315 125 81.84Z" fill="#EA580C"/>
</g>
<g filter="url(#filter3_iii_3_11307)">
<path d="M216 81.84C216 111.048 192.271 134.727 163 134.727C133.729 134.727 110 111.048 110 81.84C110 52.6315 133.729 26.7266 163 26.7266C192.271 26.7266 216 52.6315 216 81.84Z" fill="#F97316"/>
</g>
<g filter="url(#filter4_iii_3_11307)">
<path d="M129 133.096C129 167.573 97.2468 201.727 67 201.727C36.7532 201.727 5 167.573 5 133.096C5 79.3226 40.1333 55.067 80.4333 61.8363C110.68 61.8363 129 98.6187 129 133.096Z" fill="#EA580C"/>
</g>
<g filter="url(#filter5_iiii_3_11307)">
<path d="M230 133.096C230 167.573 198.247 201.727 168 201.727C137.753 201.727 106 167.573 106 133.096C106 79.3226 141.133 55.067 181.433 61.8363C211.68 61.8363 230 98.6187 230 133.096Z" fill="#EA580C"/>
</g>
<g filter="url(#filter6_iii_3_11307)">
<path d="M183 164.727C183 194.887 152.825 226.727 116.26 226.727C79.6957 226.727 51 189.887 51 159.727C51 129.566 69.806 70.7266 119.76 70.7266C169.715 70.7266 183 134.566 183 164.727Z" fill="#EA580C"/>
</g>
<g filter="url(#filter7_f_3_11307)">
<path d="M129.222 30.4615C124.602 26.1153 117.398 26.1153 112.778 30.4615L111.546 31.62C109.374 33.6633 106.519 34.8247 103.538 34.8777L99.1968 34.955C93.5742 35.0551 89.5461 40.4642 90.9627 45.9063C91.7092 48.774 90.9149 51.8561 88.8532 53.9846C84.6541 58.3197 86.192 65.5287 91.7946 67.7728L93.6048 68.4979C96.3144 69.5833 98.3992 71.8201 99.2913 74.5994L99.4144 74.9829C101.254 80.7134 107.471 83.7843 113.139 81.7623L116.969 80.3965C119.576 79.4666 122.424 79.4666 125.031 80.3965L128.861 81.7623C134.529 83.7843 140.746 80.7134 142.586 74.9829L142.709 74.5994C143.601 71.8201 145.686 69.5833 148.395 68.4979L150.205 67.7728C155.808 65.5287 157.346 58.3197 153.147 53.9846C151.085 51.8561 150.291 48.774 151.037 45.9063C152.454 40.4642 148.426 35.0551 142.803 34.955L138.462 34.8777C135.481 34.8247 132.626 33.6633 130.454 31.62L129.222 30.4615Z" fill="black" fill-opacity="0.2"/>
</g>
<g filter="url(#filter8_i_3_11307)">
<path d="M128.301 31.2438C123.998 26.7643 116.833 26.7643 112.53 31.2438L112.38 31.3999C110.466 33.3925 107.839 34.5427 105.077 34.5971L102.827 34.6414C97.3569 34.7492 93.3914 39.9271 94.6442 45.2534C95.2682 47.9064 94.5785 50.7192 92.7835 52.77C89.0342 57.0538 90.5113 63.7446 95.7157 66.0516L96.64 66.4614C99.119 67.5603 100.986 69.698 101.741 72.3023L101.802 72.5106C103.386 77.9744 109.328 80.8905 114.619 78.8016L116.275 78.1479C118.936 77.0978 121.895 77.0978 124.556 78.1479L126.212 78.8016C131.503 80.8905 137.445 77.9744 139.029 72.5106L139.09 72.3023C139.845 69.698 141.712 67.5603 144.191 66.4614L145.115 66.0516C150.32 63.7446 151.797 57.0538 148.048 52.77C146.253 50.7192 145.563 47.9064 146.187 45.2534C147.44 39.9271 143.474 34.7492 138.004 34.6414L135.754 34.5971C132.992 34.5427 130.365 33.3925 128.451 31.3999L128.301 31.2438Z" fill="#166534"/>
</g>
<g filter="url(#filter9_f_3_11307)">
<rect width="38.2154" height="31.0773" rx="15.5386" transform="matrix(1 -7.54712e-08 -0.00298185 -0.999996 100.892 62.8037)" fill="white" fill-opacity="0.2"/>
</g>
<g filter="url(#filter10_ii_3_11307)">
<path d="M122.978 33.3713C118.452 30.0873 112.194 31.5349 110.177 36.3325L110.07 36.5864C109.472 38.0077 108.406 39.1788 107.027 39.9291L106.155 40.4038C101.825 42.7598 101.79 48.8161 106.089 51.7468C107.516 52.7188 108.559 54.1357 109.024 55.7336L109.069 55.8858C110.451 60.6279 116.152 62.988 120.338 60.5513L121.731 59.7406C123.151 58.914 124.821 58.5278 126.529 58.6307L128.205 58.7316C133.241 59.0349 136.811 54.5303 135.262 49.8268L135.212 49.6759C134.69 48.091 134.773 46.4137 135.445 44.9563C137.471 40.5623 133.934 35.3324 128.819 35.1612L127.788 35.1267C126.159 35.0721 124.558 34.5181 123.217 33.5451L122.978 33.3713Z" fill="#166534"/>
</g>
<g filter="url(#filter11_ii_3_11307)">
<path d="M120.29 42.0572C120.29 42.0572 118.502 14.8721 97.3989 7.39655" stroke="#14532D" stroke-width="15" stroke-linecap="round"/>
</g>
</g>
<g filter="url(#filter12_f_3_11307)">
<rect width="42.873" height="29.0527" rx="14.5263" transform="matrix(-0.89786 -0.440281 0.44259 -0.896724 197.696 107.545)" fill="white" fill-opacity="0.4"/>
</g>
<g filter="url(#filter13_f_3_11307)">
<rect width="57.0771" height="53.0002" rx="26.5001" transform="matrix(-1 -8.74228e-08 0.00257421 -0.999997 167.5 142.727)" fill="white" fill-opacity="0.2"/>
</g>
<path d="M117.986 215.727C136.756 215.727 151.971 200.952 151.971 182.727L144.32 185.833C127.433 192.69 108.538 192.69 91.6514 185.833L84 182.727C84 200.952 99.2159 215.727 117.986 215.727Z" fill="#F97316"/>
<mask id="mask0_3_11307" style="mask-type:alpha" maskUnits="userSpaceOnUse" x="84" y="182" width="68" height="34">
<path d="M117.986 215.727C136.756 215.727 151.971 200.952 151.971 182.727L144.32 185.833C127.433 192.69 108.538 192.69 91.6514 185.833L84 182.727C84 200.952 99.2159 215.727 117.986 215.727Z" fill="#7C2D12"/>
</mask>
<g mask="url(#mask0_3_11307)">
<g filter="url(#filter14_i_3_11307)">
<path d="M117.783 208.19C138.049 208.19 154.477 193.362 154.477 175.071L142.501 179.591C126.571 185.604 108.996 185.604 93.0661 179.591L81.0898 175.071C81.0898 193.362 97.5181 208.19 117.783 208.19Z" fill="#7C2D12"/>
</g>
<path d="M97.3975 184.545C97.3975 183.551 98.2036 182.727 99.198 182.727H111.868C112.883 182.727 113.706 183.549 113.706 184.564V187.562C113.706 192.092 110.81 196.116 106.514 197.554C106.185 197.665 105.826 197.641 105.514 197.487L105.344 197.403C100.479 195.007 97.3975 189.968 97.3975 184.545Z" fill="#EA580C"/>
<path d="M123 184.545C123 183.551 123.806 182.727 124.801 182.727H137.47C138.485 182.727 139.308 183.549 139.308 184.564V187.562C139.308 192.092 136.413 196.116 132.117 197.554C131.788 197.665 131.428 197.641 131.117 197.487L130.946 197.403C126.081 195.007 123 189.968 123 184.545Z" fill="#EA580C"/>
</g>
<path fill-rule="evenodd" clip-rule="evenodd" d="M55.4248 134.645C55.1243 136.031 54.9418 137.463 54.8888 138.93L54.4792 150.267C53.9964 163.629 64.4367 174.852 77.7981 175.335C86.001 175.631 93.3979 171.81 97.9985 165.725C91.7089 149.091 76.4186 136.684 57.6664 134.859L55.56 134.654C55.5147 134.649 55.4696 134.646 55.4248 134.645Z" fill="#F97316"/>
<g filter="url(#filter15_i_3_11307)">
<path fill-rule="evenodd" clip-rule="evenodd" d="M53.1221 146.024L54.0194 150.016C56.8169 162.459 69.0243 170.403 81.5342 167.921C87.1523 166.806 91.9027 163.776 95.241 159.644C89.3555 142.707 74.274 129.872 55.54 127.548C54.4228 127.409 53.4319 128.269 53.4123 129.395L53.1221 146.024Z" fill="#7C2D12"/>
</g>
<path fill-rule="evenodd" clip-rule="evenodd" d="M180.487 133.155C180.893 134.514 181.185 135.927 181.35 137.386L182.627 148.659C184.133 161.944 174.583 173.934 161.298 175.439C153.142 176.364 145.474 173.121 140.42 167.405C145.417 150.339 159.711 136.796 178.268 133.54L180.353 133.174C180.398 133.166 180.443 133.16 180.487 133.155Z" fill="#F97316"/>
<g filter="url(#filter16_i_3_11307)">
<path fill-rule="evenodd" clip-rule="evenodd" d="M183.656 144.325L183.067 148.372C181.232 160.993 169.669 169.849 157.006 168.333C151.319 167.653 146.35 164.995 142.705 161.131C147.275 143.793 161.328 129.84 179.829 126.087C180.932 125.863 181.986 126.645 182.092 127.765L183.656 144.325Z" fill="#7C2D12"/>
</g>
<defs>
<filter id="filter0_i_3_11307" x="5" y="-9" width="231" height="235.727" filterUnits="userSpaceOnUse" color-interpolation-filters="sRGB">
<feFlood flood-opacity="0" result="BackgroundImageFix"/>
<feBlend mode="normal" in="SourceGraphic" in2="BackgroundImageFix" result="shape"/>
<feColorMatrix in="SourceAlpha" type="matrix" values="0 0 0 0 0 0 0 0 0 0 0 0 0 0 0 0 0 0 127 0" result="hardAlpha"/>
<feOffset dx="6" dy="-9"/>
<feGaussianBlur stdDeviation="10.5"/>
<feComposite in2="hardAlpha" operator="arithmetic" k2="-1" k3="1"/>
<feColorMatrix type="matrix" values="0 0 0 0 0 0 0 0 0 0 0 0 0 0 0 0 0 0 0.15 0"/>
<feBlend mode="normal" in2="shape" result="effect1_innerShadow_3_11307"/>
</filter>
<filter id="filter1_ii_3_11307" x="42" y="-16.2734" width="133.381" height="151" filterUnits="userSpaceOnUse" color-interpolation-filters="sRGB">
<feFlood flood-opacity="0" result="BackgroundImageFix"/>
<feBlend mode="normal" in="SourceGraphic" in2="BackgroundImageFix" result="shape"/>
<feColorMatrix in="SourceAlpha" type="matrix" values="0 0 0 0 0 0 0 0 0 0 0 0 0 0 0 0 0 0 127 0" result="hardAlpha"/>
<feOffset dx="3.38128" dy="-5.41005"/>
<feGaussianBlur stdDeviation="2.02877"/>
<feComposite in2="hardAlpha" operator="arithmetic" k2="-1" k3="1"/>
<feColorMatrix type="matrix" values="0 0 0 0 0 0 0 0 0 0 0 0 0 0 0 0 0 0 0.12 0"/>
<feBlend mode="normal" in2="shape" result="effect1_innerShadow_3_11307"/>
<feColorMatrix in="SourceAlpha" type="matrix" values="0 0 0 0 0 0 0 0 0 0 0 0 0 0 0 0 0 0 127 0" result="hardAlpha"/>
<feOffset dx="-43" dy="-50"/>
<feGaussianBlur stdDeviation="12"/>
<feComposite in2="hardAlpha" operator="arithmetic" k2="-1" k3="1"/>
<feColorMatrix type="matrix" values="0 0 0 0 1 0 0 0 0 1 0 0 0 0 1 0 0 0 0.25 0"/>
<feBlend mode="normal" in2="effect1_innerShadow_3_11307" result="effect2_innerShadow_3_11307"/>
</filter>
<filter id="filter2_iii_3_11307" x="10" y="20.7266" width="120" height="122" filterUnits="userSpaceOnUse" color-interpolation-filters="sRGB">
<feFlood flood-opacity="0" result="BackgroundImageFix"/>
<feBlend mode="normal" in="SourceGraphic" in2="BackgroundImageFix" result="shape"/>
<feColorMatrix in="SourceAlpha" type="matrix" values="0 0 0 0 0 0 0 0 0 0 0 0 0 0 0 0 0 0 127 0" result="hardAlpha"/>
<feOffset dx="3.38128" dy="-5.41005"/>
<feGaussianBlur stdDeviation="2.02877"/>
<feComposite in2="hardAlpha" operator="arithmetic" k2="-1" k3="1"/>
<feColorMatrix type="matrix" values="0 0 0 0 0 0 0 0 0 0 0 0 0 0 0 0 0 0 0.12 0"/>
<feBlend mode="normal" in2="shape" result="effect1_innerShadow_3_11307"/>
<feColorMatrix in="SourceAlpha" type="matrix" values="0 0 0 0 0 0 0 0 0 0 0 0 0 0 0 0 0 0 127 0" result="hardAlpha"/>
<feOffset dx="5" dy="-6"/>
<feGaussianBlur stdDeviation="4"/>
<feComposite in2="hardAlpha" operator="arithmetic" k2="-1" k3="1"/>
<feColorMatrix type="matrix" values="0 0 0 0 0 0 0 0 0 0 0 0 0 0 0 0 0 0 0.2 0"/>
<feBlend mode="normal" in2="effect1_innerShadow_3_11307" result="effect2_innerShadow_3_11307"/>
<feColorMatrix in="SourceAlpha" type="matrix" values="0 0 0 0 0 0 0 0 0 0 0 0 0 0 0 0 0 0 127 0" result="hardAlpha"/>
<feOffset dx="-12" dy="8.32"/>
<feGaussianBlur stdDeviation="4"/>
<feComposite in2="hardAlpha" operator="arithmetic" k2="-1" k3="1"/>
<feColorMatrix type="matrix" values="0 0 0 0 1 0 0 0 0 1 0 0 0 0 1 0 0 0 0.05 0"/>
<feBlend mode="normal" in2="effect2_innerShadow_3_11307" result="effect3_innerShadow_3_11307"/>
</filter>
<filter id="filter3_iii_3_11307" x="109" y="22.669" width="110.381" height="115.058" filterUnits="userSpaceOnUse" color-interpolation-filters="sRGB">
<feFlood flood-opacity="0" result="BackgroundImageFix"/>
<feBlend mode="normal" in="SourceGraphic" in2="BackgroundImageFix" result="shape"/>
<feColorMatrix in="SourceAlpha" type="matrix" values="0 0 0 0 0 0 0 0 0 0 0 0 0 0 0 0 0 0 127 0" result="hardAlpha"/>
<feOffset dx="3.38128" dy="-5.41005"/>
<feGaussianBlur stdDeviation="2.02877"/>
<feComposite in2="hardAlpha" operator="arithmetic" k2="-1" k3="1"/>
<feColorMatrix type="matrix" values="0 0 0 0 0 0 0 0 0 0 0 0 0 0 0 0 0 0 0.12 0"/>
<feBlend mode="normal" in2="shape" result="effect1_innerShadow_3_11307"/>
<feColorMatrix in="SourceAlpha" type="matrix" values="0 0 0 0 0 0 0 0 0 0 0 0 0 0 0 0 0 0 127 0" result="hardAlpha"/>
<feOffset dx="-1" dy="3"/>
<feGaussianBlur stdDeviation="3"/>
<feComposite in2="hardAlpha" operator="arithmetic" k2="-1" k3="1"/>
<feColorMatrix type="matrix" values="0 0 0 0 1 0 0 0 0 1 0 0 0 0 1 0 0 0 0.25 0"/>
<feBlend mode="normal" in2="effect1_innerShadow_3_11307" result="effect2_innerShadow_3_11307"/>
<feColorMatrix in="SourceAlpha" type="matrix" values="0 0 0 0 0 0 0 0 0 0 0 0 0 0 0 0 0 0 127 0" result="hardAlpha"/>
<feOffset dx="2" dy="1"/>
<feGaussianBlur stdDeviation="1"/>
<feComposite in2="hardAlpha" operator="arithmetic" k2="-1" k3="1"/>
<feColorMatrix type="matrix" values="0 0 0 0 0 0 0 0 0 0 0 0 0 0 0 0 0 0 0.05 0"/>
<feBlend mode="normal" in2="effect2_innerShadow_3_11307" result="effect3_innerShadow_3_11307"/>
</filter>
<filter id="filter4_iii_3_11307" x="-7" y="33.7266" width="147" height="177" filterUnits="userSpaceOnUse" color-interpolation-filters="sRGB">
<feFlood flood-opacity="0" result="BackgroundImageFix"/>
<feBlend mode="normal" in="SourceGraphic" in2="BackgroundImageFix" result="shape"/>
<feColorMatrix in="SourceAlpha" type="matrix" values="0 0 0 0 0 0 0 0 0 0 0 0 0 0 0 0 0 0 127 0" result="hardAlpha"/>
<feOffset dy="-8"/>
<feGaussianBlur stdDeviation="8"/>
<feComposite in2="hardAlpha" operator="arithmetic" k2="-1" k3="1"/>
<feColorMatrix type="matrix" values="0 0 0 0 0 0 0 0 0 0 0 0 0 0 0 0 0 0 0.15 0"/>
<feBlend mode="normal" in2="shape" result="effect1_innerShadow_3_11307"/>
<feColorMatrix in="SourceAlpha" type="matrix" values="0 0 0 0 0 0 0 0 0 0 0 0 0 0 0 0 0 0 127 0" result="hardAlpha"/>
<feOffset dx="11" dy="-27"/>
<feGaussianBlur stdDeviation="16"/>
<feComposite in2="hardAlpha" operator="arithmetic" k2="-1" k3="1"/>
<feColorMatrix type="matrix" values="0 0 0 0 0 0 0 0 0 0 0 0 0 0 0 0 0 0 0.15 0"/>
<feBlend mode="normal" in2="effect1_innerShadow_3_11307" result="effect2_innerShadow_3_11307"/>
<feColorMatrix in="SourceAlpha" type="matrix" values="0 0 0 0 0 0 0 0 0 0 0 0 0 0 0 0 0 0 127 0" result="hardAlpha"/>
<feOffset dx="-12" dy="9"/>
<feGaussianBlur stdDeviation="8.5"/>
<feComposite in2="hardAlpha" operator="arithmetic" k2="-1" k3="1"/>
<feColorMatrix type="matrix" values="0 0 0 0 1 0 0 0 0 1 0 0 0 0 1 0 0 0 0.15 0"/>
<feBlend mode="normal" in2="effect2_innerShadow_3_11307" result="effect3_innerShadow_3_11307"/>
</filter>
<filter id="filter5_iiii_3_11307" x="94" y="45.7266" width="142" height="164" filterUnits="userSpaceOnUse" color-interpolation-filters="sRGB">
<feFlood flood-opacity="0" result="BackgroundImageFix"/>
<feBlend mode="normal" in="SourceGraphic" in2="BackgroundImageFix" result="shape"/>
<feColorMatrix in="SourceAlpha" type="matrix" values="0 0 0 0 0 0 0 0 0 0 0 0 0 0 0 0 0 0 127 0" result="hardAlpha"/>
<feOffset dx="3" dy="-4"/>
<feGaussianBlur stdDeviation="1.5"/>
<feComposite in2="hardAlpha" operator="arithmetic" k2="-1" k3="1"/>
<feColorMatrix type="matrix" values="0 0 0 0 0 0 0 0 0 0 0 0 0 0 0 0 0 0 0.12 0"/>
<feBlend mode="normal" in2="shape" result="effect1_innerShadow_3_11307"/>
<feColorMatrix in="SourceAlpha" type="matrix" values="0 0 0 0 0 0 0 0 0 0 0 0 0 0 0 0 0 0 127 0" result="hardAlpha"/>
<feOffset dx="6" dy="-15"/>
<feGaussianBlur stdDeviation="11"/>
<feComposite in2="hardAlpha" operator="arithmetic" k2="-1" k3="1"/>
<feColorMatrix type="matrix" values="0 0 0 0 0 0 0 0 0 0 0 0 0 0 0 0 0 0 0.2 0"/>
<feBlend mode="normal" in2="effect1_innerShadow_3_11307" result="effect2_innerShadow_3_11307"/>
<feColorMatrix in="SourceAlpha" type="matrix" values="0 0 0 0 0 0 0 0 0 0 0 0 0 0 0 0 0 0 127 0" result="hardAlpha"/>
<feOffset dx="-12" dy="8"/>
<feGaussianBlur stdDeviation="7"/>
<feComposite in2="hardAlpha" operator="arithmetic" k2="-1" k3="1"/>
<feColorMatrix type="matrix" values="0 0 0 0 1 0 0 0 0 1 0 0 0 0 1 0 0 0 0.15 0"/>
<feBlend mode="normal" in2="effect2_innerShadow_3_11307" result="effect3_innerShadow_3_11307"/>
<feColorMatrix in="SourceAlpha" type="matrix" values="0 0 0 0 0 0 0 0 0 0 0 0 0 0 0 0 0 0 127 0" result="hardAlpha"/>
<feOffset dy="4"/>
<feGaussianBlur stdDeviation="6"/>
<feComposite in2="hardAlpha" operator="arithmetic" k2="-1" k3="1"/>
<feColorMatrix type="matrix" values="0 0 0 0 1 0 0 0 0 1 0 0 0 0 1 0 0 0 0.25 0"/>
<feBlend mode="normal" in2="effect3_innerShadow_3_11307" result="effect4_innerShadow_3_11307"/>
</filter>
<filter id="filter6_iii_3_11307" x="43" y="47.7266" width="142" height="179" filterUnits="userSpaceOnUse" color-interpolation-filters="sRGB">
<feFlood flood-opacity="0" result="BackgroundImageFix"/>
<feBlend mode="normal" in="SourceGraphic" in2="BackgroundImageFix" result="shape"/>
<feColorMatrix in="SourceAlpha" type="matrix" values="0 0 0 0 0 0 0 0 0 0 0 0 0 0 0 0 0 0 127 0" result="hardAlpha"/>
<feOffset dx="2" dy="-23"/>
<feGaussianBlur stdDeviation="12"/>
<feComposite in2="hardAlpha" operator="arithmetic" k2="-1" k3="1"/>
<feColorMatrix type="matrix" values="0 0 0 0 0 0 0 0 0 0 0 0 0 0 0 0 0 0 0.15 0"/>
<feBlend mode="normal" in2="shape" result="effect1_innerShadow_3_11307"/>
<feColorMatrix in="SourceAlpha" type="matrix" values="0 0 0 0 0 0 0 0 0 0 0 0 0 0 0 0 0 0 127 0" result="hardAlpha"/>
<feOffset dx="2" dy="-8"/>
<feGaussianBlur stdDeviation="16"/>
<feComposite in2="hardAlpha" operator="arithmetic" k2="-1" k3="1"/>
<feColorMatrix type="matrix" values="0 0 0 0 0 0 0 0 0 0 0 0 0 0 0 0 0 0 0.1 0"/>
<feBlend mode="normal" in2="effect1_innerShadow_3_11307" result="effect2_innerShadow_3_11307"/>
<feColorMatrix in="SourceAlpha" type="matrix" values="0 0 0 0 0 0 0 0 0 0 0 0 0 0 0 0 0 0 127 0" result="hardAlpha"/>
<feOffset dx="-8"/>
<feGaussianBlur stdDeviation="7"/>
<feComposite in2="hardAlpha" operator="arithmetic" k2="-1" k3="1"/>
<feColorMatrix type="matrix" values="0 0 0 0 1 0 0 0 0 1 0 0 0 0 1 0 0 0 0.2 0"/>
<feBlend mode="normal" in2="effect2_innerShadow_3_11307" result="effect3_innerShadow_3_11307"/>
</filter>
<filter id="filter7_f_3_11307" x="79.459" y="20.2021" width="83.082" height="69.1826" filterUnits="userSpaceOnUse" color-interpolation-filters="sRGB">
<feFlood flood-opacity="0" result="BackgroundImageFix"/>
<feBlend mode="normal" in="SourceGraphic" in2="BackgroundImageFix" result="shape"/>
<feGaussianBlur stdDeviation="3.5" result="effect1_foregroundBlur_3_11307"/>
</filter>
<filter id="filter8_i_3_11307" x="90.6914" y="22.8838" width="62.4482" height="56.5957" filterUnits="userSpaceOnUse" color-interpolation-filters="sRGB">
<feFlood flood-opacity="0" result="BackgroundImageFix"/>
<feBlend mode="normal" in="SourceGraphic" in2="BackgroundImageFix" result="shape"/>
<feColorMatrix in="SourceAlpha" type="matrix" values="0 0 0 0 0 0 0 0 0 0 0 0 0 0 0 0 0 0 127 0" result="hardAlpha"/>
<feOffset dx="3" dy="-5"/>
<feGaussianBlur stdDeviation="3.5"/>
<feComposite in2="hardAlpha" operator="arithmetic" k2="-1" k3="1"/>
<feColorMatrix type="matrix" values="0 0 0 0 0 0 0 0 0 0 0 0 0 0 0 0 0 0 0.25 0"/>
<feBlend mode="normal" in2="shape" result="effect1_innerShadow_3_11307"/>
</filter>
<filter id="filter9_f_3_11307" x="95.8447" y="26.7266" width="48.2158" height="41.0771" filterUnits="userSpaceOnUse" color-interpolation-filters="sRGB">
<feFlood flood-opacity="0" result="BackgroundImageFix"/>
<feBlend mode="normal" in="SourceGraphic" in2="BackgroundImageFix" result="shape"/>
<feGaussianBlur stdDeviation="2.5" result="effect1_foregroundBlur_3_11307"/>
</filter>
<filter id="filter10_ii_3_11307" x="102.886" y="27.5996" width="35.1396" height="33.9238" filterUnits="userSpaceOnUse" color-interpolation-filters="sRGB">
<feFlood flood-opacity="0" result="BackgroundImageFix"/>
<feBlend mode="normal" in="SourceGraphic" in2="BackgroundImageFix" result="shape"/>
<feColorMatrix in="SourceAlpha" type="matrix" values="0 0 0 0 0 0 0 0 0 0 0 0 0 0 0 0 0 0 127 0" result="hardAlpha"/>
<feOffset dx="2" dy="-4"/>
<feGaussianBlur stdDeviation="2.5"/>
<feComposite in2="hardAlpha" operator="arithmetic" k2="-1" k3="1"/>
<feColorMatrix type="matrix" values="0 0 0 0 0 0 0 0 0 0 0 0 0 0 0 0 0 0 0.25 0"/>
<feBlend mode="normal" in2="shape" result="effect1_innerShadow_3_11307"/>
<feColorMatrix in="SourceAlpha" type="matrix" values="0 0 0 0 0 0 0 0 0 0 0 0 0 0 0 0 0 0 127 0" result="hardAlpha"/>
<feOffset dx="2" dy="-4"/>
<feGaussianBlur stdDeviation="5.5"/>
<feComposite in2="hardAlpha" operator="arithmetic" k2="-1" k3="1"/>
<feColorMatrix type="matrix" values="0 0 0 0 0 0 0 0 0 0 0 0 0 0 0 0 0 0 0.1 0"/>
<feBlend mode="normal" in2="effect1_innerShadow_3_11307" result="effect2_innerShadow_3_11307"/>
</filter>
<filter id="filter11_ii_3_11307" x="86.793" y="-2" width="45.1006" height="52.4521" filterUnits="userSpaceOnUse" color-interpolation-filters="sRGB">
<feFlood flood-opacity="0" result="BackgroundImageFix"/>
<feBlend mode="normal" in="SourceGraphic" in2="BackgroundImageFix" result="shape"/>
<feColorMatrix in="SourceAlpha" type="matrix" values="0 0 0 0 0 0 0 0 0 0 0 0 0 0 0 0 0 0 127 0" result="hardAlpha"/>
<feOffset dx="4" dy="1"/>
<feGaussianBlur stdDeviation="3"/>
<feComposite in2="hardAlpha" operator="arithmetic" k2="-1" k3="1"/>
<feColorMatrix type="matrix" values="0 0 0 0 0 0 0 0 0 0 0 0 0 0 0 0 0 0 0.25 0"/>
<feBlend mode="normal" in2="shape" result="effect1_innerShadow_3_11307"/>
<feColorMatrix in="SourceAlpha" type="matrix" values="0 0 0 0 0 0 0 0 0 0 0 0 0 0 0 0 0 0 127 0" result="hardAlpha"/>
<feOffset dx="-3" dy="-2"/>
<feGaussianBlur stdDeviation="3.5"/>
<feComposite in2="hardAlpha" operator="arithmetic" k2="-1" k3="1"/>
<feColorMatrix type="matrix" values="0 0 0 0 1 0 0 0 0 1 0 0 0 0 1 0 0 0 0.25 0"/>
<feBlend mode="normal" in2="effect1_innerShadow_3_11307" result="effect2_innerShadow_3_11307"/>
</filter>
<filter id="filter12_f_3_11307" x="133.13" y="36.5234" width="103.497" height="97.1143" filterUnits="userSpaceOnUse" color-interpolation-filters="sRGB">
<feFlood flood-opacity="0" result="BackgroundImageFix"/>
<feBlend mode="normal" in="SourceGraphic" in2="BackgroundImageFix" result="shape"/>
<feGaussianBlur stdDeviation="15.5" result="effect1_foregroundBlur_3_11307"/>
</filter>
<filter id="filter13_f_3_11307" x="87.4912" y="66.7266" width="103.077" height="99" filterUnits="userSpaceOnUse" color-interpolation-filters="sRGB">
<feFlood flood-opacity="0" result="BackgroundImageFix"/>
<feBlend mode="normal" in="SourceGraphic" in2="BackgroundImageFix" result="shape"/>
<feGaussianBlur stdDeviation="11.5" result="effect1_foregroundBlur_3_11307"/>
</filter>
<filter id="filter14_i_3_11307" x="81.0898" y="167.08" width="85.818" height="41.1091" filterUnits="userSpaceOnUse" color-interpolation-filters="sRGB">
<feFlood flood-opacity="0" result="BackgroundImageFix"/>
<feBlend mode="normal" in="SourceGraphic" in2="BackgroundImageFix" result="shape"/>
<feColorMatrix in="SourceAlpha" type="matrix" values="0 0 0 0 0 0 0 0 0 0 0 0 0 0 0 0 0 0 127 0" result="hardAlpha"/>
<feOffset dx="15.0939" dy="-7.99089"/>
<feGaussianBlur stdDeviation="6.21514"/>
<feComposite in2="hardAlpha" operator="arithmetic" k2="-1" k3="1"/>
<feColorMatrix type="matrix" values="0 0 0 0 0 0 0 0 0 0 0 0 0 0 0 0 0 0 0.32 0"/>
<feBlend mode="normal" in2="shape" result="effect1_innerShadow_3_11307"/>
</filter>
<filter id="filter15_i_3_11307" x="48.1221" y="127.533" width="47.1191" height="44.8408" filterUnits="userSpaceOnUse" color-interpolation-filters="sRGB">
<feFlood flood-opacity="0" result="BackgroundImageFix"/>
<feBlend mode="normal" in="SourceGraphic" in2="BackgroundImageFix" result="shape"/>
<feColorMatrix in="SourceAlpha" type="matrix" values="0 0 0 0 0 0 0 0 0 0 0 0 0 0 0 0 0 0 127 0" result="hardAlpha"/>
<feOffset dx="-5" dy="4"/>
<feGaussianBlur stdDeviation="5"/>
<feComposite in2="hardAlpha" operator="arithmetic" k2="-1" k3="1"/>
<feColorMatrix type="matrix" values="0 0 0 0 0 0 0 0 0 0 0 0 0 0 0 0 0 0 0.35 0"/>
<feBlend mode="normal" in2="shape" result="effect1_innerShadow_3_11307"/>
</filter>
<filter id="filter16_i_3_11307" x="137.704" y="126.049" width="45.9521" height="46.4531" filterUnits="userSpaceOnUse" color-interpolation-filters="sRGB">
<feFlood flood-opacity="0" result="BackgroundImageFix"/>
<feBlend mode="normal" in="SourceGraphic" in2="BackgroundImageFix" result="shape"/>
<feColorMatrix in="SourceAlpha" type="matrix" values="0 0 0 0 0 0 0 0 0 0 0 0 0 0 0 0 0 0 127 0" result="hardAlpha"/>
<feOffset dx="-5" dy="4"/>
<feGaussianBlur stdDeviation="5"/>
<feComposite in2="hardAlpha" operator="arithmetic" k2="-1" k3="1"/>
<feColorMatrix type="matrix" values="0 0 0 0 0 0 0 0 0 0 0 0 0 0 0 0 0 0 0.35 0"/>
<feBlend mode="normal" in2="shape" result="effect1_innerShadow_3_11307"/>
</filter>
</defs>
</svg>
