<svg width="258" height="275" viewBox="0 0 258 275" fill="none" xmlns="http://www.w3.org/2000/svg">
<g clip-path="url(#clip0_2621_326148)">
<ellipse cx="128.529" cy="110.647" rx="128.529" ry="110.647" transform="matrix(1 0 0 -1 0 275)" fill="black" fill-opacity="0.12"/>
<path fill-rule="evenodd" clip-rule="evenodd" d="M185.67 234.806C223.364 226.01 251.47 191.801 251.47 150.941C251.47 103.412 213.441 64.8818 166.529 64.8818C153.752 64.8818 141.635 67.7399 130.764 72.8595C119.894 67.7399 107.776 64.8818 94.9998 64.8818C48.0881 64.8818 10.0586 103.412 10.0586 150.941C10.0586 192.803 39.5608 227.685 78.6494 235.407C92.4906 250.242 111.239 259.352 131.882 259.352C152.802 259.352 171.777 249.996 185.67 234.806Z" fill="black" fill-opacity="0.2"/>
<g filter="url(#filter0_i_2621_326148)">
<g filter="url(#filter1_ii_2621_326148)">
<path d="M73.7657 68.1424C73.7657 35.4791 100.286 9.00022 133.001 9.00023C165.716 9.00023 192.236 35.4791 192.236 68.1424C192.236 100.806 160.728 150.941 128.013 150.941C95.298 150.941 73.7657 100.806 73.7657 68.1424Z" fill="#EA580C"/>
</g>
<g filter="url(#filter2_iii_2621_326148)">
<path d="M139.706 91.8327C139.706 124.477 112.936 150.941 79.9123 150.941C46.8889 150.941 20.1182 124.477 20.1182 91.8327C20.1182 59.1879 46.8889 30.2354 79.9123 30.2354C112.936 30.2354 139.706 59.1879 139.706 91.8327Z" fill="#EA580C"/>
</g>
<g filter="url(#filter3_iii_2621_326148)">
<path d="M241.412 91.8327C241.412 124.477 214.891 150.941 182.177 150.941C149.462 150.941 122.941 124.477 122.941 91.8327C122.941 59.1879 149.462 30.2354 182.177 30.2354C214.891 30.2354 241.412 59.1879 241.412 91.8327Z" fill="#F97316"/>
</g>
<g filter="url(#filter4_iii_2621_326148)">
<path d="M144.177 149.119C144.177 187.652 108.688 225.824 74.883 225.824C41.0777 225.824 5.58887 187.652 5.58887 149.119C5.58887 89.0191 44.8555 61.91 89.8967 69.4756C123.702 69.4756 144.177 110.585 144.177 149.119Z" fill="#EA580C"/>
</g>
<g filter="url(#filter5_iiii_2621_326148)">
<path d="M257.06 149.119C257.06 187.652 221.571 225.824 187.766 225.824C153.961 225.824 118.472 187.652 118.472 149.119C118.472 89.0191 157.738 61.91 202.78 69.4756C236.585 69.4756 257.06 110.585 257.06 149.119Z" fill="#EA580C"/>
</g>
<g filter="url(#filter6_iii_2621_326148)">
<path d="M204.53 184.471C204.53 218.18 170.805 253.765 129.939 253.765C89.0726 253.765 57.001 212.591 57.001 178.883C57.001 145.174 78.0195 79.4121 133.851 79.4121C189.682 79.4121 204.53 150.762 204.53 184.471Z" fill="#EA580C"/>
</g>
<g filter="url(#filter7_f_2621_326148)">
<path d="M144.426 34.4106C139.263 29.5531 131.21 29.5531 126.047 34.4106L124.671 35.7053C122.243 37.989 119.052 39.287 115.72 39.3463L110.868 39.4327C104.584 39.5446 100.082 45.5901 101.665 51.6724V51.6724C102.5 54.8775 101.612 58.3222 99.3078 60.7011V60.7011C94.6147 65.5462 96.3335 73.6033 102.595 76.1115L104.618 76.9218C107.647 78.1349 109.977 80.6349 110.974 83.7412L111.111 84.1698C113.167 90.5744 120.116 94.0066 126.451 91.7468L130.731 90.2203C133.645 89.1809 136.828 89.1809 139.742 90.2203L144.022 91.7468C150.357 94.0066 157.306 90.5744 159.362 84.1698L159.499 83.7412C160.496 80.6349 162.826 78.1349 165.855 76.9218L167.878 76.1115C174.14 73.6033 175.858 65.5462 171.165 60.7011V60.7011C168.861 58.3222 167.973 54.8775 168.808 51.6724V51.6724C170.391 45.5901 165.889 39.5446 159.605 39.4327L154.753 39.3463C151.421 39.287 148.23 37.989 145.803 35.7053L144.426 34.4106Z" fill="black" fill-opacity="0.2"/>
</g>
<g filter="url(#filter8_i_2621_326148)">
<path d="M143.396 35.2868C138.588 30.2802 130.579 30.2802 125.77 35.2868L125.603 35.4613C123.464 37.6883 120.527 38.9738 117.44 39.0346L114.926 39.0841C108.812 39.2045 104.38 44.9917 105.78 50.9446V50.9446C106.478 53.9097 105.707 57.0534 103.701 59.3455V59.3455C99.5102 64.1333 101.161 71.6112 106.978 74.1897L108.011 74.6476C110.781 75.8758 112.868 78.265 113.712 81.1756L113.78 81.4085C115.551 87.5151 122.191 90.7742 128.105 88.4396L129.956 87.709C132.929 86.5354 136.237 86.5354 139.211 87.709L141.061 88.4396C146.976 90.7742 153.616 87.5151 155.387 81.4085L155.455 81.1756C156.299 78.265 158.385 75.8758 161.156 74.6476L162.189 74.1897C168.006 71.6112 169.657 64.1333 165.466 59.3455V59.3455C163.46 57.0534 162.689 53.9097 163.387 50.9446V50.9446C164.787 44.9917 160.355 39.2045 154.241 39.0841L151.727 39.0346C148.64 38.9738 145.703 37.6883 143.564 35.4613L143.396 35.2868Z" fill="#166534"/>
</g>
<g filter="url(#filter9_f_2621_326148)">
<rect width="42.7113" height="34.7334" rx="17.3667" transform="matrix(1 -7.54712e-08 -0.00298185 -0.999996 112.762 70.5596)" fill="white" fill-opacity="0.2"/>
</g>
<g filter="url(#filter10_ii_2621_326148)">
<path d="M137.446 37.6643C132.388 33.9938 125.394 35.6118 123.139 40.9738L123.02 41.2575C122.352 42.8461 121.161 44.1549 119.619 44.9936L118.644 45.5241C113.804 48.1573 113.765 54.9261 118.571 58.2015V58.2015C120.165 59.2879 121.331 60.8716 121.851 62.6574L121.901 62.8274C123.446 68.1275 129.817 70.7653 134.496 68.0419L136.053 67.1358C137.64 66.212 139.506 65.7803 141.415 65.8953L143.288 66.0081C148.917 66.3471 152.908 61.3125 151.176 56.0556L151.12 55.887C150.537 54.1157 150.629 52.241 151.38 50.6121V50.6121C153.645 45.7012 149.691 39.8561 143.975 39.6647L142.823 39.6261C141.002 39.5652 139.213 38.9459 137.714 37.8585L137.446 37.6643Z" fill="#166534"/>
</g>
<g filter="url(#filter11_ii_2621_326148)">
<path d="M134.441 47.371C134.441 47.371 132.443 16.9875 108.857 8.63254" stroke="#14532D" stroke-width="16.7647" stroke-linecap="round"/>
</g>
</g>
<g filter="url(#filter12_f_2621_326148)">
<rect width="47.9169" height="32.4707" rx="16.2353" transform="matrix(-0.89786 -0.440281 0.44259 -0.896724 220.953 120.562)" fill="white" fill-opacity="0.4"/>
</g>
<g filter="url(#filter13_f_2621_326148)">
<rect width="63.7921" height="59.2355" rx="29.6177" transform="matrix(-1 -8.74228e-08 0.00257421 -0.999997 187.206 159.883)" fill="white" fill-opacity="0.2"/>
</g>
<path d="M131.866 241.472C152.844 241.472 169.85 224.959 169.85 204.59L161.298 208.062C142.425 215.725 121.307 215.725 102.433 208.062L93.8818 204.59C93.8818 224.959 110.888 241.472 131.866 241.472Z" fill="#F97316"/>
<mask id="mask0_2621_326148" style="mask-type:alpha" maskUnits="userSpaceOnUse" x="93" y="204" width="77" height="38">
<path d="M131.866 241.472C152.844 241.472 169.85 224.959 169.85 204.59L161.298 208.062C142.425 215.725 121.307 215.725 102.433 208.062L93.8818 204.59C93.8818 224.959 110.888 241.472 131.866 241.472Z" fill="#7C2D12"/>
</mask>
<g mask="url(#mask0_2621_326148)">
<g filter="url(#filter14_i_2621_326148)">
<path d="M131.639 233.05C154.289 233.05 172.65 216.478 172.65 196.035L159.265 201.087C141.461 207.806 121.818 207.806 104.014 201.087L90.6289 196.035C90.6289 216.478 108.99 233.05 131.639 233.05Z" fill="#FACC15"/>
</g>
<path d="M108.854 206.622C108.854 205.511 109.755 204.59 110.867 204.59H125.027C126.162 204.59 127.081 205.51 127.081 206.644V209.994C127.081 215.058 123.845 219.554 119.044 221.162C118.676 221.285 118.274 221.258 117.926 221.087L117.735 220.993C112.298 218.315 108.854 212.683 108.854 206.622Z" fill="#EA580C"/>
<path d="M137.47 206.622C137.47 205.511 138.371 204.59 139.482 204.59H153.643C154.777 204.59 155.697 205.51 155.697 206.644V209.994C155.697 215.058 152.46 219.554 147.659 221.162C147.291 221.285 146.89 221.258 146.541 221.087L146.351 220.993C140.913 218.315 137.47 212.683 137.47 206.622Z" fill="#EA580C"/>
</g>
<path fill-rule="evenodd" clip-rule="evenodd" d="M61.9443 150.854C61.6084 152.403 61.4045 154.003 61.3452 155.643L60.8874 168.314C60.3478 183.247 72.0164 195.791 86.9498 196.33C96.1182 196.662 104.386 192.391 109.527 185.589C102.498 166.999 85.4087 153.133 64.4509 151.093L62.0967 150.864C62.0456 150.859 61.9948 150.855 61.9443 150.854Z" fill="#F97316"/>
<g filter="url(#filter15_i_2621_326148)">
<path fill-rule="evenodd" clip-rule="evenodd" d="M59.3696 163.567L60.3732 168.031C63.4998 181.938 77.1434 190.817 91.125 188.043C97.4038 186.797 102.713 183.411 106.444 178.793C99.866 159.863 83.0101 145.518 62.0719 142.92C60.8233 142.765 59.7158 143.727 59.6938 144.985L59.3696 163.567Z" fill="#FACC15"/>
</g>
<path fill-rule="evenodd" clip-rule="evenodd" d="M201.723 149.186C202.177 150.704 202.503 152.284 202.688 153.914L204.115 166.513C205.797 181.361 195.125 194.761 180.276 196.444C171.161 197.477 162.591 193.853 156.943 187.466C162.528 168.392 178.504 153.256 199.244 149.616L201.574 149.207C201.624 149.198 201.674 149.191 201.723 149.186Z" fill="#F97316"/>
<g filter="url(#filter16_i_2621_326148)">
<path fill-rule="evenodd" clip-rule="evenodd" d="M205.263 161.665L204.605 166.194C202.553 180.3 189.63 190.198 175.477 188.504C169.121 187.743 163.568 184.773 159.494 180.455C164.602 161.077 180.309 145.482 200.987 141.287C202.22 141.037 203.398 141.911 203.516 143.163L205.263 161.665Z" fill="#FACC15"/>
</g>
</g>
<defs>
<filter id="filter0_i_2621_326148" x="5.58887" y="-9.69359" width="258.177" height="263.458" filterUnits="userSpaceOnUse" color-interpolation-filters="sRGB">
<feFlood flood-opacity="0" result="BackgroundImageFix"/>
<feBlend mode="normal" in="SourceGraphic" in2="BackgroundImageFix" result="shape"/>
<feColorMatrix in="SourceAlpha" type="matrix" values="0 0 0 0 0 0 0 0 0 0 0 0 0 0 0 0 0 0 127 0" result="hardAlpha"/>
<feOffset dx="6.70588" dy="-10.0588"/>
<feGaussianBlur stdDeviation="11.7353"/>
<feComposite in2="hardAlpha" operator="arithmetic" k2="-1" k3="1"/>
<feColorMatrix type="matrix" values="0 0 0 0 0 0 0 0 0 0 0 0 0 0 0 0 0 0 0.15 0"/>
<feBlend mode="normal" in2="shape" result="effect1_innerShadow_2621_326148"/>
</filter>
<filter id="filter1_ii_2621_326148" x="46.9421" y="-17.8235" width="149.073" height="168.765" filterUnits="userSpaceOnUse" color-interpolation-filters="sRGB">
<feFlood flood-opacity="0" result="BackgroundImageFix"/>
<feBlend mode="normal" in="SourceGraphic" in2="BackgroundImageFix" result="shape"/>
<feColorMatrix in="SourceAlpha" type="matrix" values="0 0 0 0 0 0 0 0 0 0 0 0 0 0 0 0 0 0 127 0" result="hardAlpha"/>
<feOffset dx="3.77908" dy="-6.04653"/>
<feGaussianBlur stdDeviation="2.26745"/>
<feComposite in2="hardAlpha" operator="arithmetic" k2="-1" k3="1"/>
<feColorMatrix type="matrix" values="0 0 0 0 0 0 0 0 0 0 0 0 0 0 0 0 0 0 0.12 0"/>
<feBlend mode="normal" in2="shape" result="effect1_innerShadow_2621_326148"/>
<feColorMatrix in="SourceAlpha" type="matrix" values="0 0 0 0 0 0 0 0 0 0 0 0 0 0 0 0 0 0 127 0" result="hardAlpha"/>
<feOffset dx="-48.0588" dy="-55.8824"/>
<feGaussianBlur stdDeviation="13.4118"/>
<feComposite in2="hardAlpha" operator="arithmetic" k2="-1" k3="1"/>
<feColorMatrix type="matrix" values="0 0 0 0 1 0 0 0 0 1 0 0 0 0 1 0 0 0 0.25 0"/>
<feBlend mode="normal" in2="effect1_innerShadow_2621_326148" result="effect2_innerShadow_2621_326148"/>
</filter>
<filter id="filter2_iii_2621_326148" x="11.177" y="23.5295" width="134.117" height="136.353" filterUnits="userSpaceOnUse" color-interpolation-filters="sRGB">
<feFlood flood-opacity="0" result="BackgroundImageFix"/>
<feBlend mode="normal" in="SourceGraphic" in2="BackgroundImageFix" result="shape"/>
<feColorMatrix in="SourceAlpha" type="matrix" values="0 0 0 0 0 0 0 0 0 0 0 0 0 0 0 0 0 0 127 0" result="hardAlpha"/>
<feOffset dx="3.77908" dy="-6.04653"/>
<feGaussianBlur stdDeviation="2.26745"/>
<feComposite in2="hardAlpha" operator="arithmetic" k2="-1" k3="1"/>
<feColorMatrix type="matrix" values="0 0 0 0 0 0 0 0 0 0 0 0 0 0 0 0 0 0 0.12 0"/>
<feBlend mode="normal" in2="shape" result="effect1_innerShadow_2621_326148"/>
<feColorMatrix in="SourceAlpha" type="matrix" values="0 0 0 0 0 0 0 0 0 0 0 0 0 0 0 0 0 0 127 0" result="hardAlpha"/>
<feOffset dx="5.58824" dy="-6.70588"/>
<feGaussianBlur stdDeviation="4.47059"/>
<feComposite in2="hardAlpha" operator="arithmetic" k2="-1" k3="1"/>
<feColorMatrix type="matrix" values="0 0 0 0 0 0 0 0 0 0 0 0 0 0 0 0 0 0 0.2 0"/>
<feBlend mode="normal" in2="effect1_innerShadow_2621_326148" result="effect2_innerShadow_2621_326148"/>
<feColorMatrix in="SourceAlpha" type="matrix" values="0 0 0 0 0 0 0 0 0 0 0 0 0 0 0 0 0 0 127 0" result="hardAlpha"/>
<feOffset dx="-13.4118" dy="9.29882"/>
<feGaussianBlur stdDeviation="4.47059"/>
<feComposite in2="hardAlpha" operator="arithmetic" k2="-1" k3="1"/>
<feColorMatrix type="matrix" values="0 0 0 0 1 0 0 0 0 1 0 0 0 0 1 0 0 0 0.05 0"/>
<feBlend mode="normal" in2="effect2_innerShadow_2621_326148" result="effect3_innerShadow_2621_326148"/>
</filter>
<filter id="filter3_iii_2621_326148" x="121.824" y="25.7005" width="123.367" height="128.594" filterUnits="userSpaceOnUse" color-interpolation-filters="sRGB">
<feFlood flood-opacity="0" result="BackgroundImageFix"/>
<feBlend mode="normal" in="SourceGraphic" in2="BackgroundImageFix" result="shape"/>
<feColorMatrix in="SourceAlpha" type="matrix" values="0 0 0 0 0 0 0 0 0 0 0 0 0 0 0 0 0 0 127 0" result="hardAlpha"/>
<feOffset dx="3.77908" dy="-6.04653"/>
<feGaussianBlur stdDeviation="2.26745"/>
<feComposite in2="hardAlpha" operator="arithmetic" k2="-1" k3="1"/>
<feColorMatrix type="matrix" values="0 0 0 0 0 0 0 0 0 0 0 0 0 0 0 0 0 0 0.12 0"/>
<feBlend mode="normal" in2="shape" result="effect1_innerShadow_2621_326148"/>
<feColorMatrix in="SourceAlpha" type="matrix" values="0 0 0 0 0 0 0 0 0 0 0 0 0 0 0 0 0 0 127 0" result="hardAlpha"/>
<feOffset dx="-1.11765" dy="3.35294"/>
<feGaussianBlur stdDeviation="3.35294"/>
<feComposite in2="hardAlpha" operator="arithmetic" k2="-1" k3="1"/>
<feColorMatrix type="matrix" values="0 0 0 0 1 0 0 0 0 1 0 0 0 0 1 0 0 0 0.25 0"/>
<feBlend mode="normal" in2="effect1_innerShadow_2621_326148" result="effect2_innerShadow_2621_326148"/>
<feColorMatrix in="SourceAlpha" type="matrix" values="0 0 0 0 0 0 0 0 0 0 0 0 0 0 0 0 0 0 127 0" result="hardAlpha"/>
<feOffset dx="2.23529" dy="1.11765"/>
<feGaussianBlur stdDeviation="1.11765"/>
<feComposite in2="hardAlpha" operator="arithmetic" k2="-1" k3="1"/>
<feColorMatrix type="matrix" values="0 0 0 0 0 0 0 0 0 0 0 0 0 0 0 0 0 0 0.05 0"/>
<feBlend mode="normal" in2="effect2_innerShadow_2621_326148" result="effect3_innerShadow_2621_326148"/>
</filter>
<filter id="filter4_iii_2621_326148" x="-7.8229" y="38.0589" width="164.294" height="197.823" filterUnits="userSpaceOnUse" color-interpolation-filters="sRGB">
<feFlood flood-opacity="0" result="BackgroundImageFix"/>
<feBlend mode="normal" in="SourceGraphic" in2="BackgroundImageFix" result="shape"/>
<feColorMatrix in="SourceAlpha" type="matrix" values="0 0 0 0 0 0 0 0 0 0 0 0 0 0 0 0 0 0 127 0" result="hardAlpha"/>
<feOffset dy="-8.94118"/>
<feGaussianBlur stdDeviation="8.94118"/>
<feComposite in2="hardAlpha" operator="arithmetic" k2="-1" k3="1"/>
<feColorMatrix type="matrix" values="0 0 0 0 0 0 0 0 0 0 0 0 0 0 0 0 0 0 0.15 0"/>
<feBlend mode="normal" in2="shape" result="effect1_innerShadow_2621_326148"/>
<feColorMatrix in="SourceAlpha" type="matrix" values="0 0 0 0 0 0 0 0 0 0 0 0 0 0 0 0 0 0 127 0" result="hardAlpha"/>
<feOffset dx="12.2941" dy="-30.1765"/>
<feGaussianBlur stdDeviation="17.8824"/>
<feComposite in2="hardAlpha" operator="arithmetic" k2="-1" k3="1"/>
<feColorMatrix type="matrix" values="0 0 0 0 0 0 0 0 0 0 0 0 0 0 0 0 0 0 0.15 0"/>
<feBlend mode="normal" in2="effect1_innerShadow_2621_326148" result="effect2_innerShadow_2621_326148"/>
<feColorMatrix in="SourceAlpha" type="matrix" values="0 0 0 0 0 0 0 0 0 0 0 0 0 0 0 0 0 0 127 0" result="hardAlpha"/>
<feOffset dx="-13.4118" dy="10.0588"/>
<feGaussianBlur stdDeviation="9.5"/>
<feComposite in2="hardAlpha" operator="arithmetic" k2="-1" k3="1"/>
<feColorMatrix type="matrix" values="0 0 0 0 1 0 0 0 0 1 0 0 0 0 1 0 0 0 0.15 0"/>
<feBlend mode="normal" in2="effect2_innerShadow_2621_326148" result="effect3_innerShadow_2621_326148"/>
</filter>
<filter id="filter5_iiii_2621_326148" x="105.06" y="51.4706" width="158.706" height="183.294" filterUnits="userSpaceOnUse" color-interpolation-filters="sRGB">
<feFlood flood-opacity="0" result="BackgroundImageFix"/>
<feBlend mode="normal" in="SourceGraphic" in2="BackgroundImageFix" result="shape"/>
<feColorMatrix in="SourceAlpha" type="matrix" values="0 0 0 0 0 0 0 0 0 0 0 0 0 0 0 0 0 0 127 0" result="hardAlpha"/>
<feOffset dx="3.35294" dy="-4.47059"/>
<feGaussianBlur stdDeviation="1.67647"/>
<feComposite in2="hardAlpha" operator="arithmetic" k2="-1" k3="1"/>
<feColorMatrix type="matrix" values="0 0 0 0 0 0 0 0 0 0 0 0 0 0 0 0 0 0 0.12 0"/>
<feBlend mode="normal" in2="shape" result="effect1_innerShadow_2621_326148"/>
<feColorMatrix in="SourceAlpha" type="matrix" values="0 0 0 0 0 0 0 0 0 0 0 0 0 0 0 0 0 0 127 0" result="hardAlpha"/>
<feOffset dx="6.70588" dy="-16.7647"/>
<feGaussianBlur stdDeviation="12.2941"/>
<feComposite in2="hardAlpha" operator="arithmetic" k2="-1" k3="1"/>
<feColorMatrix type="matrix" values="0 0 0 0 0 0 0 0 0 0 0 0 0 0 0 0 0 0 0.2 0"/>
<feBlend mode="normal" in2="effect1_innerShadow_2621_326148" result="effect2_innerShadow_2621_326148"/>
<feColorMatrix in="SourceAlpha" type="matrix" values="0 0 0 0 0 0 0 0 0 0 0 0 0 0 0 0 0 0 127 0" result="hardAlpha"/>
<feOffset dx="-13.4118" dy="8.94118"/>
<feGaussianBlur stdDeviation="7.82353"/>
<feComposite in2="hardAlpha" operator="arithmetic" k2="-1" k3="1"/>
<feColorMatrix type="matrix" values="0 0 0 0 1 0 0 0 0 1 0 0 0 0 1 0 0 0 0.15 0"/>
<feBlend mode="normal" in2="effect2_innerShadow_2621_326148" result="effect3_innerShadow_2621_326148"/>
<feColorMatrix in="SourceAlpha" type="matrix" values="0 0 0 0 0 0 0 0 0 0 0 0 0 0 0 0 0 0 127 0" result="hardAlpha"/>
<feOffset dy="4.47059"/>
<feGaussianBlur stdDeviation="6.70588"/>
<feComposite in2="hardAlpha" operator="arithmetic" k2="-1" k3="1"/>
<feColorMatrix type="matrix" values="0 0 0 0 1 0 0 0 0 1 0 0 0 0 1 0 0 0 0.25 0"/>
<feBlend mode="normal" in2="effect3_innerShadow_2621_326148" result="effect4_innerShadow_2621_326148"/>
</filter>
<filter id="filter6_iii_2621_326148" x="48.0598" y="53.7062" width="158.706" height="200.058" filterUnits="userSpaceOnUse" color-interpolation-filters="sRGB">
<feFlood flood-opacity="0" result="BackgroundImageFix"/>
<feBlend mode="normal" in="SourceGraphic" in2="BackgroundImageFix" result="shape"/>
<feColorMatrix in="SourceAlpha" type="matrix" values="0 0 0 0 0 0 0 0 0 0 0 0 0 0 0 0 0 0 127 0" result="hardAlpha"/>
<feOffset dx="2.23529" dy="-25.7059"/>
<feGaussianBlur stdDeviation="13.4118"/>
<feComposite in2="hardAlpha" operator="arithmetic" k2="-1" k3="1"/>
<feColorMatrix type="matrix" values="0 0 0 0 0 0 0 0 0 0 0 0 0 0 0 0 0 0 0.15 0"/>
<feBlend mode="normal" in2="shape" result="effect1_innerShadow_2621_326148"/>
<feColorMatrix in="SourceAlpha" type="matrix" values="0 0 0 0 0 0 0 0 0 0 0 0 0 0 0 0 0 0 127 0" result="hardAlpha"/>
<feOffset dx="2.23529" dy="-8.94118"/>
<feGaussianBlur stdDeviation="17.8824"/>
<feComposite in2="hardAlpha" operator="arithmetic" k2="-1" k3="1"/>
<feColorMatrix type="matrix" values="0 0 0 0 0 0 0 0 0 0 0 0 0 0 0 0 0 0 0.1 0"/>
<feBlend mode="normal" in2="effect1_innerShadow_2621_326148" result="effect2_innerShadow_2621_326148"/>
<feColorMatrix in="SourceAlpha" type="matrix" values="0 0 0 0 0 0 0 0 0 0 0 0 0 0 0 0 0 0 127 0" result="hardAlpha"/>
<feOffset dx="-8.94118"/>
<feGaussianBlur stdDeviation="7.82353"/>
<feComposite in2="hardAlpha" operator="arithmetic" k2="-1" k3="1"/>
<feColorMatrix type="matrix" values="0 0 0 0 1 0 0 0 0 1 0 0 0 0 1 0 0 0 0.2 0"/>
<feBlend mode="normal" in2="effect2_innerShadow_2621_326148" result="effect3_innerShadow_2621_326148"/>
</filter>
<filter id="filter7_f_2621_326148" x="88.8083" y="22.944" width="92.857" height="77.3219" filterUnits="userSpaceOnUse" color-interpolation-filters="sRGB">
<feFlood flood-opacity="0" result="BackgroundImageFix"/>
<feBlend mode="normal" in="SourceGraphic" in2="BackgroundImageFix" result="shape"/>
<feGaussianBlur stdDeviation="3.91176" result="effect1_foregroundBlur_2621_326148"/>
</filter>
<filter id="filter8_i_2621_326148" x="101.362" y="25.944" width="69.7953" height="63.2533" filterUnits="userSpaceOnUse" color-interpolation-filters="sRGB">
<feFlood flood-opacity="0" result="BackgroundImageFix"/>
<feBlend mode="normal" in="SourceGraphic" in2="BackgroundImageFix" result="shape"/>
<feColorMatrix in="SourceAlpha" type="matrix" values="0 0 0 0 0 0 0 0 0 0 0 0 0 0 0 0 0 0 127 0" result="hardAlpha"/>
<feOffset dx="3.35294" dy="-5.58824"/>
<feGaussianBlur stdDeviation="3.91176"/>
<feComposite in2="hardAlpha" operator="arithmetic" k2="-1" k3="1"/>
<feColorMatrix type="matrix" values="0 0 0 0 0 0 0 0 0 0 0 0 0 0 0 0 0 0 0.25 0"/>
<feBlend mode="normal" in2="shape" result="effect1_innerShadow_2621_326148"/>
</filter>
<filter id="filter9_f_2621_326148" x="107.122" y="30.2379" width="53.8874" height="45.9099" filterUnits="userSpaceOnUse" color-interpolation-filters="sRGB">
<feFlood flood-opacity="0" result="BackgroundImageFix"/>
<feBlend mode="normal" in="SourceGraphic" in2="BackgroundImageFix" result="shape"/>
<feGaussianBlur stdDeviation="2.79412" result="effect1_foregroundBlur_2621_326148"/>
</filter>
<filter id="filter10_ii_2621_326148" x="114.99" y="31.213" width="39.2744" height="37.9159" filterUnits="userSpaceOnUse" color-interpolation-filters="sRGB">
<feFlood flood-opacity="0" result="BackgroundImageFix"/>
<feBlend mode="normal" in="SourceGraphic" in2="BackgroundImageFix" result="shape"/>
<feColorMatrix in="SourceAlpha" type="matrix" values="0 0 0 0 0 0 0 0 0 0 0 0 0 0 0 0 0 0 127 0" result="hardAlpha"/>
<feOffset dx="2.23529" dy="-4.47059"/>
<feGaussianBlur stdDeviation="2.79412"/>
<feComposite in2="hardAlpha" operator="arithmetic" k2="-1" k3="1"/>
<feColorMatrix type="matrix" values="0 0 0 0 0 0 0 0 0 0 0 0 0 0 0 0 0 0 0.25 0"/>
<feBlend mode="normal" in2="shape" result="effect1_innerShadow_2621_326148"/>
<feColorMatrix in="SourceAlpha" type="matrix" values="0 0 0 0 0 0 0 0 0 0 0 0 0 0 0 0 0 0 127 0" result="hardAlpha"/>
<feOffset dx="2.23529" dy="-4.47059"/>
<feGaussianBlur stdDeviation="6.14706"/>
<feComposite in2="hardAlpha" operator="arithmetic" k2="-1" k3="1"/>
<feColorMatrix type="matrix" values="0 0 0 0 0 0 0 0 0 0 0 0 0 0 0 0 0 0 0.1 0"/>
<feBlend mode="normal" in2="effect1_innerShadow_2621_326148" result="effect2_innerShadow_2621_326148"/>
</filter>
<filter id="filter11_ii_2621_326148" x="97.0035" y="-1.87006" width="50.4075" height="58.6234" filterUnits="userSpaceOnUse" color-interpolation-filters="sRGB">
<feFlood flood-opacity="0" result="BackgroundImageFix"/>
<feBlend mode="normal" in="SourceGraphic" in2="BackgroundImageFix" result="shape"/>
<feColorMatrix in="SourceAlpha" type="matrix" values="0 0 0 0 0 0 0 0 0 0 0 0 0 0 0 0 0 0 127 0" result="hardAlpha"/>
<feOffset dx="4.47059" dy="1.11765"/>
<feGaussianBlur stdDeviation="3.35294"/>
<feComposite in2="hardAlpha" operator="arithmetic" k2="-1" k3="1"/>
<feColorMatrix type="matrix" values="0 0 0 0 0 0 0 0 0 0 0 0 0 0 0 0 0 0 0.25 0"/>
<feBlend mode="normal" in2="shape" result="effect1_innerShadow_2621_326148"/>
<feColorMatrix in="SourceAlpha" type="matrix" values="0 0 0 0 0 0 0 0 0 0 0 0 0 0 0 0 0 0 127 0" result="hardAlpha"/>
<feOffset dx="-3.35294" dy="-2.23529"/>
<feGaussianBlur stdDeviation="3.91176"/>
<feComposite in2="hardAlpha" operator="arithmetic" k2="-1" k3="1"/>
<feColorMatrix type="matrix" values="0 0 0 0 1 0 0 0 0 1 0 0 0 0 1 0 0 0 0.25 0"/>
<feBlend mode="normal" in2="effect1_innerShadow_2621_326148" result="effect2_innerShadow_2621_326148"/>
</filter>
<filter id="filter12_f_2621_326148" x="148.79" y="41.185" width="115.674" height="108.539" filterUnits="userSpaceOnUse" color-interpolation-filters="sRGB">
<feFlood flood-opacity="0" result="BackgroundImageFix"/>
<feBlend mode="normal" in="SourceGraphic" in2="BackgroundImageFix" result="shape"/>
<feGaussianBlur stdDeviation="17.3235" result="effect1_foregroundBlur_2621_326148"/>
</filter>
<filter id="filter13_f_2621_326148" x="97.7844" y="74.9416" width="115.204" height="110.647" filterUnits="userSpaceOnUse" color-interpolation-filters="sRGB">
<feFlood flood-opacity="0" result="BackgroundImageFix"/>
<feBlend mode="normal" in="SourceGraphic" in2="BackgroundImageFix" result="shape"/>
<feGaussianBlur stdDeviation="12.8529" result="effect1_foregroundBlur_2621_326148"/>
</filter>
<filter id="filter14_i_2621_326148" x="90.6289" y="196.035" width="95.9142" height="50.9073" filterUnits="userSpaceOnUse" color-interpolation-filters="sRGB">
<feFlood flood-opacity="0" result="BackgroundImageFix"/>
<feBlend mode="normal" in="SourceGraphic" in2="BackgroundImageFix" result="shape"/>
<feColorMatrix in="SourceAlpha" type="matrix" values="0 0 0 0 0 0 0 0 0 0 0 0 0 0 0 0 0 0 127 0" result="hardAlpha"/>
<feOffset dx="16.8697" dy="15.07"/>
<feGaussianBlur stdDeviation="6.94633"/>
<feComposite in2="hardAlpha" operator="arithmetic" k2="-1" k3="1"/>
<feColorMatrix type="matrix" values="0 0 0 0 1 0 0 0 0 0 0 0 0 0 0 0 0 0 0.42 0"/>
<feBlend mode="normal" in2="shape" result="effect1_innerShadow_2621_326148"/>
</filter>
<filter id="filter15_i_2621_326148" x="59.3701" y="142.903" width="57.4832" height="58.1165" filterUnits="userSpaceOnUse" color-interpolation-filters="sRGB">
<feFlood flood-opacity="0" result="BackgroundImageFix"/>
<feBlend mode="normal" in="SourceGraphic" in2="BackgroundImageFix" result="shape"/>
<feColorMatrix in="SourceAlpha" type="matrix" values="0 0 0 0 0 0 0 0 0 0 0 0 0 0 0 0 0 0 127 0" result="hardAlpha"/>
<feOffset dx="10.41" dy="12.47"/>
<feGaussianBlur stdDeviation="9.59"/>
<feComposite in2="hardAlpha" operator="arithmetic" k2="-1" k3="1"/>
<feColorMatrix type="matrix" values="0 0 0 0 1 0 0 0 0 0 0 0 0 0 0 0 0 0 0.65 0"/>
<feBlend mode="normal" in2="shape" result="effect1_innerShadow_2621_326148"/>
</filter>
<filter id="filter16_i_2621_326148" x="145.904" y="141.244" width="59.3595" height="66.6282" filterUnits="userSpaceOnUse" color-interpolation-filters="sRGB">
<feFlood flood-opacity="0" result="BackgroundImageFix"/>
<feBlend mode="normal" in="SourceGraphic" in2="BackgroundImageFix" result="shape"/>
<feColorMatrix in="SourceAlpha" type="matrix" values="0 0 0 0 0 0 0 0 0 0 0 0 0 0 0 0 0 0 127 0" result="hardAlpha"/>
<feOffset dx="-13.59" dy="20.47"/>
<feGaussianBlur stdDeviation="9.59"/>
<feComposite in2="hardAlpha" operator="arithmetic" k2="-1" k3="1"/>
<feColorMatrix type="matrix" values="0 0 0 0 1 0 0 0 0 0 0 0 0 0 0 0 0 0 0.65 0"/>
<feBlend mode="normal" in2="shape" result="effect1_innerShadow_2621_326148"/>
</filter>
<clipPath id="clip0_2621_326148">
<rect width="258" height="275" fill="white"/>
</clipPath>
</defs>
</svg>
