<svg width="232" height="374" viewBox="0 0 232 374" fill="none" xmlns="http://www.w3.org/2000/svg">
<g filter="url(#filter0_i_3_11298)">
<path d="M225.136 287.213C252.227 322.659 194.679 355.379 130.316 355.379C65.9542 355.379 0 350.077 0 310.86C0 268.072 41.7771 255.997 88.0476 248.546C149.004 238.73 198.044 251.766 225.136 287.213Z" fill="#82644D"/>
<path opacity="0.5" d="M143.502 294.291C146.539 294.231 149.823 295.038 149.902 296.907C149.981 298.776 147.536 299.211 144.499 299.271C141.462 299.33 138.984 298.992 138.904 297.123C138.825 295.254 140.465 294.35 143.502 294.291Z" fill="black" fill-opacity="0.12"/>
<path opacity="0.25" d="M46.1892 300.277C49.7783 300.207 53.6827 301.698 53.8253 305.062C53.968 308.427 51.0879 309.181 47.4987 309.251C43.9096 309.322 40.9705 308.682 40.8279 305.318C40.6853 301.954 42.6 300.348 46.1892 300.277Z" fill="white"/>
<path opacity="0.25" d="M92.6674 305.523C87.6978 305.62 82.3172 304.158 82.1746 300.794C82.032 297.43 86.0312 296.654 91.0008 296.556C95.9704 296.458 100.029 297.076 100.171 300.44C100.314 303.804 97.637 305.425 92.6674 305.523Z" fill="white"/>
<path opacity="0.5" d="M120.332 271.235C125.301 271.138 130.682 272.6 130.824 275.964C130.967 279.328 126.968 280.104 121.998 280.202C117.029 280.3 112.97 279.682 112.828 276.318C112.685 272.954 115.362 271.333 120.332 271.235Z" fill="black" fill-opacity="0.12"/>
<path opacity="0.25" d="M115.416 329.234C120.386 329.136 125.752 330.25 125.863 332.867C125.974 335.483 121.968 336.104 116.998 336.202C112.029 336.3 107.977 335.837 107.866 333.22C107.755 330.604 110.447 329.331 115.416 329.234Z" fill="white"/>
<path opacity="0.5" d="M66.4984 315.467C63.4614 315.527 60.177 314.72 60.0978 312.851C60.0185 310.982 62.4641 310.547 65.5011 310.487C68.538 310.427 71.0164 310.766 71.0956 312.635C71.1749 314.504 69.5354 315.407 66.4984 315.467Z" fill="black" fill-opacity="0.12"/>
<path opacity="0.25" d="M181.726 314.423C180.069 314.456 178.246 313.272 178.135 310.655C178.024 308.039 179.344 307.47 181.001 307.438C182.657 307.405 184.023 307.921 184.134 310.537C184.245 313.154 183.382 314.391 181.726 314.423Z" fill="white"/>
<path opacity="0.25" d="M162.726 287.423C161.069 287.456 159.246 286.272 159.135 283.655C159.024 281.039 160.344 280.47 162.001 280.438C163.657 280.405 165.023 280.921 165.134 283.537C165.245 286.154 164.382 287.391 162.726 287.423Z" fill="white"/>
</g>
<path d="M161.805 285.944C174.416 312.69 147.626 337.379 117.665 337.379C87.7028 337.379 57 333.378 57 303.788C57 271.502 76.448 262.39 97.9877 256.768C126.364 249.362 149.193 259.198 161.805 285.944Z" fill="black" fill-opacity="0.12"/>
<circle cx="112.352" cy="314.763" r="39.5" transform="rotate(2.15385 112.352 314.763)" fill="black" fill-opacity="0.12"/>
<circle cx="112.24" cy="317.761" r="15.5" transform="rotate(2.15385 112.24 317.761)" fill="black" fill-opacity="0.12"/>
<circle cx="111.646" cy="320.24" r="8" transform="rotate(2.15385 111.646 320.24)" fill="black" fill-opacity="0.12"/>
<g filter="url(#filter1_iii_3_11298)">
<path d="M78.3139 213.912C77.3779 213.877 76.5906 214.607 76.5554 215.543L74.8785 260.131C73.8488 287.511 88.384 313.12 112.419 326.274C137.375 314.962 153.792 290.517 154.822 263.137L156.499 218.55C156.534 217.614 155.804 216.827 154.868 216.792L78.3139 213.912Z" fill="#64748B"/>
</g>
<rect x="76.6191" y="213.849" width="80" height="5" transform="rotate(2.15385 76.6191 213.849)" fill="#A6B4C8"/>
<g filter="url(#filter2_ii_3_11298)">
<path d="M109.331 206.547C107.761 206.488 106.463 207.761 106.491 209.332L107.361 257.742C107.393 259.512 107.951 261.238 108.959 262.694C111.764 266.746 117.685 266.984 120.787 263.153C121.911 261.766 122.599 260.076 122.765 258.298L127.267 210.113C127.413 208.548 126.214 207.182 124.644 207.123L109.331 206.547Z" fill="#64748B"/>
</g>
<path d="M115.228 198.692C110.542 198.516 106.6 202.172 106.424 206.858L106.375 208.167C106.157 213.961 110.677 218.835 116.471 219.053C122.328 219.273 127.255 214.703 127.475 208.846L127.522 207.598C127.698 202.941 124.065 199.024 119.408 198.849L115.228 198.692Z" fill="#A6B4C8"/>
<g filter="url(#filter3_ii_3_11298)">
<path d="M108.858 208.099L116.339 9.1965C116.505 4.78134 120.219 1.33676 124.634 1.50281C129.049 1.66886 132.494 5.38266 132.328 9.79782L124.85 208.614C124.683 213.053 120.949 216.516 116.51 216.349C112.119 216.184 108.693 212.491 108.858 208.099Z" fill="#A16207"/>
</g>
<rect width="8" height="2" rx="1" transform="matrix(-0.0375829 0.999294 0.999294 0.0375829 113.552 30.1064)" fill="white" fill-opacity="0.2"/>
<rect width="6" height="3" rx="1.5" transform="matrix(-0.0375829 0.999294 0.999294 0.0375829 112.723 185.186)" fill="white" fill-opacity="0.2"/>
<rect width="11" height="5" rx="2.5" transform="matrix(-0.0375829 0.999294 0.999294 0.0375829 116.729 105.279)" fill="black" fill-opacity="0.12"/>
<rect width="23" height="3" rx="1.5" transform="matrix(-0.0375829 0.999294 0.999294 0.0375829 121.634 134.484)" fill="black" fill-opacity="0.12"/>
<rect width="7" height="3" rx="1.5" transform="matrix(-0.0375829 0.999294 0.999294 0.0375829 119.043 70.3418)" fill="black" fill-opacity="0.12"/>
<rect width="17" height="3" rx="1.5" transform="matrix(-0.0375829 0.999294 0.999294 0.0375829 126.295 10.5723)" fill="black" fill-opacity="0.12"/>
<path d="M94.0147 283.475C93.9094 286.277 91.9753 288.479 89.1734 288.373C86.3714 288.268 82.8853 286.709 82.9907 283.907C83.0961 281.105 85.5165 277.228 88.3185 277.333C91.1204 277.439 94.1201 280.673 94.0147 283.475Z" fill="black" fill-opacity="0.12"/>
<path d="M92.1615 297.675C90.8877 297.719 89.825 296.915 89.7794 295.642C89.7337 294.368 90.3241 292.736 91.5978 292.691C92.8715 292.646 94.7099 293.616 94.7556 294.889C94.8013 296.163 93.4352 297.63 92.1615 297.675Z" fill="black" fill-opacity="0.12"/>
<path d="M145.51 271.717C144.174 271.765 143.058 270.862 143.006 269.435C142.955 268.009 146.011 263.695 147.346 263.648C148.682 263.601 148.905 266.493 148.956 267.919C149.007 269.345 146.845 271.67 145.51 271.717Z" fill="black" fill-opacity="0.12"/>
<g filter="url(#filter4_i_3_11298)">
<mask id="mask0_3_11298" style="mask-type:alpha" maskUnits="userSpaceOnUse" x="78" y="221" width="82" height="112">
<path d="M79.6959 221.379C78.7593 221.379 78 222.138 78 223.075L78 267.694C78 295.093 93.4874 320.138 118 332.379L121.137 330.038C139.236 316.536 150.954 296.157 153.518 273.722L159.284 223.267C159.399 222.261 158.612 221.379 157.599 221.379L79.6959 221.379Z" fill="#64748B"/>
</mask>
<g mask="url(#mask0_3_11298)">
<path fill-rule="evenodd" clip-rule="evenodd" d="M138.613 361.484C128.116 367.087 115.506 370.379 102.448 370.379C62.2214 370.379 21 365.318 21 327.884C21 287.04 47.1107 275.514 76.0297 268.402C101.81 262.061 124.179 265.709 141.196 279.215C165.163 272.835 184.415 283.103 195.189 309.705C206.283 337.095 182.718 362.379 156.362 362.379C150.371 362.379 144.347 362.167 138.613 361.484Z" fill="black" fill-opacity="0.12"/>
</g>
<path fill-rule="evenodd" clip-rule="evenodd" d="M138.713 365.736C128.251 370.574 116.016 373.379 103.38 373.379C61.2114 373.379 18 368.318 18 330.884C18 290.04 45.3712 278.514 75.6864 271.402C101.577 265.327 124.187 268.421 141.725 280.568C165.342 275.579 184.284 286.307 195.071 312.466C206.632 340.501 182.074 366.379 154.609 366.379C149.265 366.379 143.896 366.22 138.713 365.736Z" fill="#82644D"/>
<path opacity="0.5" d="M111.854 314.295C113.786 314.239 115.878 315.05 115.932 316.92C115.986 318.79 114.431 319.223 112.499 319.278C110.566 319.334 108.989 318.992 108.935 317.122C108.881 315.252 109.922 314.35 111.854 314.295Z" fill="black" fill-opacity="0.12"/>
<path opacity="0.25" d="M47.1667 320.284C49.3749 320.22 51.7816 321.72 51.8791 325.086C51.9765 328.452 50.2066 329.2 47.9983 329.264C45.7901 329.327 43.9798 328.682 43.8824 325.316C43.7849 321.95 44.9585 320.348 47.1667 320.284Z" fill="white"/>
<path opacity="0.25" d="M78.1197 325.523C74.8074 325.619 71.2201 324.153 71.1226 320.787C71.0252 317.421 73.6901 316.647 77.0025 316.552C80.3148 316.456 83.0202 317.076 83.1176 320.442C83.2151 323.807 81.4321 325.428 78.1197 325.523Z" fill="white"/>
<path opacity="0.5" d="M95.8812 291.235C99.1936 291.139 102.781 292.605 102.878 295.971C102.976 299.336 100.311 300.111 96.9985 300.206C93.6862 300.302 90.9808 299.682 90.8833 296.316C90.7859 292.95 92.5689 291.33 95.8812 291.235Z" fill="black" fill-opacity="0.12"/>
<path opacity="0.25" d="M92.9381 347.234C96.2505 347.138 99.8277 348.256 99.9035 350.874C99.9793 353.491 97.3099 354.111 93.9975 354.206C90.6852 354.302 87.9843 353.837 87.9085 351.219C87.8327 348.601 89.6258 347.329 92.9381 347.234Z" fill="white"/>
<path opacity="0.5" d="M61.146 334.464C59.2138 334.52 57.1224 333.708 57.0683 331.838C57.0141 329.969 58.5693 329.536 60.5014 329.481C62.4336 329.425 64.0112 329.767 64.0654 331.637C64.1195 333.507 63.0781 334.408 61.146 334.464Z" fill="black" fill-opacity="0.12"/>
<path opacity="0.25" d="M136.489 333.426C135.385 333.458 134.169 332.273 134.093 329.655C134.017 327.037 134.897 326.469 136.001 326.437C137.105 326.406 138.016 326.922 138.091 329.54C138.167 332.158 137.593 333.394 136.489 333.426Z" fill="white"/>
<path opacity="0.25" d="M124.489 308.425C123.385 308.457 122.169 307.272 122.093 304.654C122.017 302.036 122.897 301.468 124.001 301.436C125.105 301.405 126.016 301.921 126.091 304.539C126.167 307.157 125.593 308.394 124.489 308.425Z" fill="white"/>
</g>
<defs>
<filter id="filter0_i_3_11298" x="0" y="245.379" width="243" height="114" filterUnits="userSpaceOnUse" color-interpolation-filters="sRGB">
<feFlood flood-opacity="0" result="BackgroundImageFix"/>
<feBlend mode="normal" in="SourceGraphic" in2="BackgroundImageFix" result="shape"/>
<feColorMatrix in="SourceAlpha" type="matrix" values="0 0 0 0 0 0 0 0 0 0 0 0 0 0 0 0 0 0 127 0" result="hardAlpha"/>
<feOffset dx="11" dy="4"/>
<feGaussianBlur stdDeviation="8.5"/>
<feComposite in2="hardAlpha" operator="arithmetic" k2="-1" k3="1"/>
<feColorMatrix type="matrix" values="0 0 0 0 0 0 0 0 0 0 0 0 0 0 0 0 0 0 0.25 0"/>
<feBlend mode="normal" in2="shape" result="effect1_innerShadow_3_11298"/>
</filter>
<filter id="filter1_iii_3_11298" x="55.3239" y="212.215" width="125.176" height="118.058" filterUnits="userSpaceOnUse" color-interpolation-filters="sRGB">
<feFlood flood-opacity="0" result="BackgroundImageFix"/>
<feBlend mode="normal" in="SourceGraphic" in2="BackgroundImageFix" result="shape"/>
<feColorMatrix in="SourceAlpha" type="matrix" values="0 0 0 0 0 0 0 0 0 0 0 0 0 0 0 0 0 0 127 0" result="hardAlpha"/>
<feOffset dx="-1.7" dy="-0.847966"/>
<feGaussianBlur stdDeviation="0.847966"/>
<feComposite in2="hardAlpha" operator="arithmetic" k2="-1" k3="1"/>
<feColorMatrix type="matrix" values="0 0 0 0 1 0 0 0 0 1 0 0 0 0 1 0 0 0 0.25 0"/>
<feBlend mode="normal" in2="shape" result="effect1_innerShadow_3_11298"/>
<feColorMatrix in="SourceAlpha" type="matrix" values="0 0 0 0 0 0 0 0 0 0 0 0 0 0 0 0 0 0 127 0" result="hardAlpha"/>
<feOffset dx="-31.52" dy="-1.69593"/>
<feGaussianBlur stdDeviation="9.75161"/>
<feComposite in2="hardAlpha" operator="arithmetic" k2="-1" k3="1"/>
<feColorMatrix type="matrix" values="0 0 0 0 0 0 0 0 0 0 0 0 0 0 0 0 0 0 0.1 0"/>
<feBlend mode="normal" in2="effect1_innerShadow_3_11298" result="effect2_innerShadow_3_11298"/>
<feColorMatrix in="SourceAlpha" type="matrix" values="0 0 0 0 0 0 0 0 0 0 0 0 0 0 0 0 0 0 127 0" result="hardAlpha"/>
<feOffset dx="24" dy="4"/>
<feGaussianBlur stdDeviation="14"/>
<feComposite in2="hardAlpha" operator="arithmetic" k2="-1" k3="1"/>
<feColorMatrix type="matrix" values="0 0 0 0 1 0 0 0 0 1 0 0 0 0 1 0 0 0 0.15 0"/>
<feBlend mode="normal" in2="effect2_innerShadow_3_11298" result="effect3_innerShadow_3_11298"/>
</filter>
<filter id="filter2_ii_3_11298" x="101.016" y="203.808" width="32.4209" height="66.7659" filterUnits="userSpaceOnUse" color-interpolation-filters="sRGB">
<feFlood flood-opacity="0" result="BackgroundImageFix"/>
<feBlend mode="normal" in="SourceGraphic" in2="BackgroundImageFix" result="shape"/>
<feColorMatrix in="SourceAlpha" type="matrix" values="0 0 0 0 0 0 0 0 0 0 0 0 0 0 0 0 0 0 127 0" result="hardAlpha"/>
<feOffset dx="7.52776" dy="-2.73737"/>
<feGaussianBlur stdDeviation="3.07954"/>
<feComposite in2="hardAlpha" operator="arithmetic" k2="-1" k3="1"/>
<feColorMatrix type="matrix" values="0 0 0 0 0 0 0 0 0 0 0 0 0 0 0 0 0 0 0.25 0"/>
<feBlend mode="normal" in2="shape" result="effect1_innerShadow_3_11298"/>
<feColorMatrix in="SourceAlpha" type="matrix" values="0 0 0 0 0 0 0 0 0 0 0 0 0 0 0 0 0 0 127 0" result="hardAlpha"/>
<feOffset dx="-5.47473" dy="4.68774"/>
<feGaussianBlur stdDeviation="4.79039"/>
<feComposite in2="hardAlpha" operator="arithmetic" k2="-1" k3="1"/>
<feColorMatrix type="matrix" values="0 0 0 0 1 0 0 0 0 1 0 0 0 0 1 0 0 0 0.25 0"/>
<feBlend mode="normal" in2="effect1_innerShadow_3_11298" result="effect2_innerShadow_3_11298"/>
</filter>
<filter id="filter3_ii_3_11298" x="105.206" y="-3.45656" width="32.788" height="221.935" filterUnits="userSpaceOnUse" color-interpolation-filters="sRGB">
<feFlood flood-opacity="0" result="BackgroundImageFix"/>
<feBlend mode="normal" in="SourceGraphic" in2="BackgroundImageFix" result="shape"/>
<feColorMatrix in="SourceAlpha" type="matrix" values="0 0 0 0 0 0 0 0 0 0 0 0 0 0 0 0 0 0 127 0" result="hardAlpha"/>
<feOffset dx="-3.64625" dy="2.12298"/>
<feGaussianBlur stdDeviation="2.85137"/>
<feComposite in2="hardAlpha" operator="arithmetic" k2="-1" k3="1"/>
<feColorMatrix type="matrix" values="0 0 0 0 1 0 0 0 0 1 0 0 0 0 1 0 0 0 0.3 0"/>
<feBlend mode="normal" in2="shape" result="effect1_innerShadow_3_11298"/>
<feColorMatrix in="SourceAlpha" type="matrix" values="0 0 0 0 0 0 0 0 0 0 0 0 0 0 0 0 0 0 127 0" result="hardAlpha"/>
<feOffset dx="5.66129" dy="-4.95363"/>
<feGaussianBlur stdDeviation="5.30746"/>
<feComposite in2="hardAlpha" operator="arithmetic" k2="-1" k3="1"/>
<feColorMatrix type="matrix" values="0 0 0 0 0 0 0 0 0 0 0 0 0 0 0 0 0 0 0.25 0"/>
<feBlend mode="normal" in2="effect1_innerShadow_3_11298" result="effect2_innerShadow_3_11298"/>
</filter>
<filter id="filter4_i_3_11298" x="18" y="256.379" width="182" height="117" filterUnits="userSpaceOnUse" color-interpolation-filters="sRGB">
<feFlood flood-opacity="0" result="BackgroundImageFix"/>
<feBlend mode="normal" in="SourceGraphic" in2="BackgroundImageFix" result="shape"/>
<feColorMatrix in="SourceAlpha" type="matrix" values="0 0 0 0 0 0 0 0 0 0 0 0 0 0 0 0 0 0 127 0" result="hardAlpha"/>
<feOffset dx="2" dy="-9"/>
<feGaussianBlur stdDeviation="7.5"/>
<feComposite in2="hardAlpha" operator="arithmetic" k2="-1" k3="1"/>
<feColorMatrix type="matrix" values="0 0 0 0 0 0 0 0 0 0 0 0 0 0 0 0 0 0 0.25 0"/>
<feBlend mode="normal" in2="shape" result="effect1_innerShadow_3_11298"/>
</filter>
</defs>
</svg>
