<svg width="1535" height="465" viewBox="0 0 1535 465" fill="none" xmlns="http://www.w3.org/2000/svg">
<path d="M592.055 462.368C645.18 346.941 695.38 228.482 742.513 107.307C755.786 73.1331 768.85 38.8027 781.635 4.21097C781.948 3.37491 782.854 3.11365 783.272 3.89746C850.263 123.035 917.253 242.121 984.209 361.258L1040.37 461.114C1041.24 462.63 1039.77 464.877 1038.9 463.309C971.912 344.171 904.921 225.086 837.965 105.948C819.258 72.6629 800.551 39.3775 781.844 6.14438L783.481 5.83087C738.089 128.469 689.597 248.495 638.143 365.647C623.651 398.672 608.881 431.434 593.901 463.988C593.135 465.66 591.323 464.093 592.089 462.421L592.055 462.368Z" fill="url(#paint0_linear_3_11324)" fill-opacity="0.4"/>
<path d="M618.217 403.218C625.602 379.181 643.194 368.417 658.906 360.474C681.41 349.083 704.367 339.678 727.568 332.153C775.538 316.582 824.623 309.371 873.707 309.371C901.995 309.371 930.247 311.774 958.395 316.216L957.35 317.783C958.673 236.007 961.53 153.29 974.977 73.708C978.809 51.0823 983.512 28.8746 989.295 7.18945L991.037 8.7048C948.188 64.5637 918.716 144.355 908.718 228.064C908.613 228.953 907.952 229.266 907.429 229.162C835.979 213.434 763.241 216.882 692.418 237.627C691.826 237.784 691.025 237.209 691.094 236.111C696.39 153.656 675.906 65.452 635.6 8.23453C634.973 7.34622 635.426 5.46509 636.332 5.56961C680.435 9.54086 722.064 43.5056 748.261 96.8562L746.624 96.5427C767.979 67.0718 799.157 62.7348 825.633 77.8883L824.344 79.8216C817.934 55.3148 825.319 22.7087 840.473 9.38412C841.623 8.33905 842.703 11.0562 841.518 12.1013C827.096 24.7989 820.268 55.7851 826.33 79.0378C826.608 80.1352 825.737 81.3893 825.041 80.9712C799.262 66.288 768.884 70.0503 748.052 98.8419C747.53 99.5734 746.833 99.3644 746.415 98.5284C720.671 46.1705 679.564 12.7283 636.297 8.80933L637.028 6.14441C668.799 51.239 687.959 115.04 692.836 179.887C694.23 198.594 694.369 217.457 693.15 236.216L691.826 234.701C747.46 218.398 804.313 212.441 860.887 218.502C876.634 220.174 892.345 222.787 907.952 226.236L906.663 227.333C916.696 143.153 946.446 62.787 989.539 6.61465C990.235 5.6741 991.698 6.56241 991.28 8.13C970.936 84.4722 964.073 167.137 961.112 248.705C960.276 271.748 959.788 294.844 959.405 317.94C959.405 318.724 958.917 319.612 958.36 319.508C861.619 304.354 763.276 314.283 670.262 358.437C651.938 367.111 628.772 376.359 620.028 404.994C619.471 406.823 617.659 405.256 618.217 403.427V403.218Z" fill="white" fill-opacity="0.4"/>
<path d="M1001.17 395.223C1004.87 373.068 1009.4 351.017 1016.75 330.951C1023.44 312.61 1032.21 295.68 1040.78 279.221C1058.2 245.831 1077.78 214.949 1098.93 186.784C1141.01 130.769 1189.22 85.3083 1240.57 50.9779C1269.55 31.5919 1299.51 15.7591 1330.17 3.58411C1331.46 3.06155 1332.02 6.09222 1330.73 6.61475C1276.84 28.0386 1224.96 60.7493 1177.31 104.172C1129.83 147.438 1086.45 201.415 1050.85 265.53C1040.71 283.767 1030.99 302.839 1022.42 322.8C1012.84 345.06 1007.48 370.559 1003.23 396.059C1002.92 397.992 1000.9 397.209 1001.21 395.223H1001.17Z" fill="white" fill-opacity="0.4"/>
<path d="M990.583 377.196C982.989 315.955 995.182 254.923 1012.04 199.482C1026.81 150.939 1044.06 102.813 1066.77 61.4808C1079.07 39.0641 1093.25 18.7376 1109.9 3.68863C1111.05 2.64355 1112.09 5.36075 1110.94 6.40582C1081.51 33.0551 1059.91 75.6938 1042.42 119.273C1033.64 141.115 1025.77 163.741 1018.38 186.68C1009.53 214.217 1001.63 242.591 996.401 272.219C990.409 306.236 988.284 341.611 992.604 376.36C992.847 378.345 990.827 379.181 990.583 377.196Z" fill="white" fill-opacity="0.4"/>
<path d="M667.44 293.538C635.321 188.718 578.538 101.872 511.756 45.6478C492.77 29.6583 472.844 16.2292 452.221 5.6218C450.967 4.99475 451.489 1.96405 452.778 2.59109C525.83 40.109 591.044 113.525 636.227 207.32C649.012 233.864 660.125 262.186 669.252 291.918C669.809 293.747 667.998 295.314 667.44 293.486V293.538Z" fill="white" fill-opacity="0.4"/>
<path d="M657.164 315.119C652.844 297.039 643.368 283.819 633.963 271.435C625.114 259.73 616.196 248.13 607.243 236.582C589.267 213.277 571.083 190.286 552.48 168.13C515.31 123.924 476.188 82.8004 433.653 50.9781C409.302 32.7939 383.941 17.8495 357.709 7.13754C356.42 6.61499 356.978 3.58429 358.267 4.10681C453.127 42.8266 532.136 135.42 605.362 229.998C615.778 243.479 626.194 256.961 636.506 270.599C645.842 282.983 654.865 296.255 659.184 314.231C659.637 316.112 657.617 316.948 657.164 315.067V315.119Z" fill="white" fill-opacity="0.4"/>
<path d="M1001.28 394.857C1036.71 312.715 1090.32 248.757 1144.91 197.078C1174.28 169.279 1205 145.661 1236.53 124.028C1271.02 100.357 1305.85 77.7838 1341.39 57.9276C1381.8 35.3018 1423.15 16.2293 1465.47 3.53177C1466.8 3.11374 1467.36 6.14444 1466.03 6.56247C1391.41 28.9792 1320.17 70.8864 1250.99 117.601C1219.63 138.763 1188.73 160.971 1159.19 187.568C1129.65 214.165 1101.33 243.949 1075.13 277.444C1047.92 312.245 1022.53 351.278 1003.06 396.425C1002.32 398.097 1000.51 396.529 1001.24 394.857H1001.28Z" fill="white" fill-opacity="0.4"/>
<path d="M902.099 215.314C889.453 145.034 891.056 69.9977 906.697 1.07552C907.115 -0.805603 909.136 -0.0217896 908.718 1.91159C893.216 70.3112 891.578 144.72 904.119 214.478C904.468 216.412 902.447 217.248 902.099 215.314Z" fill="white" fill-opacity="0.4"/>
<path d="M787.696 2.80026C867.96 91.004 960.172 150.207 1049.11 215.419C1076.39 235.432 1103.7 255.445 1130.98 275.458C1132.19 276.347 1131.11 279.064 1129.93 278.176C1083.01 243.741 1036.15 209.149 989.051 175.236C944.67 143.31 900.218 111.383 857.544 74.4396C833.123 53.3293 809.365 30.4945 786.651 5.51743C785.571 4.31561 786.651 1.59845 787.696 2.80026Z" fill="url(#paint1_linear_3_11324)" fill-opacity="0.4"/>
<path d="M348.06 247.346C371.644 225.504 397.702 211.186 423.62 197.026C452.499 181.245 481.379 165.465 510.258 149.632C567.46 118.332 624.661 87.0323 681.863 55.7848C714.295 38.0709 746.693 20.3048 779.126 2.59088C780.38 1.91159 780.938 4.94229 779.684 5.62158C722.761 36.7646 665.803 67.9076 608.88 99.0506C551.957 130.194 495 161.337 438.077 192.48C407.769 209.044 376.73 224.511 349.14 250.063C347.99 251.108 346.945 248.391 348.094 247.346H348.06Z" fill="url(#paint2_linear_3_11324)" fill-opacity="0.4"/>
<path d="M228.257 2.53912C255.847 20.9846 283.995 38.7507 309.077 64.3549C332.488 88.2346 351.334 119.534 364.642 157C372.097 177.954 377.775 200.214 382.443 222.892L381.154 221.794C397.074 215.837 413.726 212.023 429.995 217.457C446.264 222.892 460.965 236.216 475.422 247.398C508.934 273.264 541.576 302.317 570.734 338.319C587.282 358.75 602.575 381.48 615.987 406.614C616.823 408.182 615.36 410.429 614.524 408.809C591.288 365.23 562.513 329.436 531.404 299.129C516.076 284.185 500.26 270.547 484.131 257.692C476.188 251.37 468.141 245.204 460.094 239.195C452.639 233.656 445.184 227.699 437.276 223.675C419.021 214.374 400.14 217.823 381.781 224.72C381.224 224.929 380.666 224.459 380.492 223.623C372.236 183.44 360.461 144.616 342.172 112.323C323.883 80.0309 298.348 55.6285 272.43 36.2426C257.589 25.1649 242.4 15.2367 227.247 5.15179C226.027 4.31573 227.072 1.65082 228.292 2.43463L228.257 2.53912Z" fill="white" fill-opacity="0.4"/>
<path d="M412.125 210.037C479.673 221.585 548.161 233.185 612.539 267.724C630.201 277.182 647.41 288.417 664.027 301.532C665.212 302.473 664.167 305.19 662.982 304.249C602.889 256.856 535.759 236.686 469.013 223.466C450.096 219.703 431.111 216.464 412.125 213.224C410.801 213.015 410.801 209.88 412.125 210.089V210.037Z" fill="white" fill-opacity="0.4"/>
<path d="M666.57 279.639C661.937 211.709 649.918 138.398 611.807 94.9753C611.424 94.5051 611.215 93.9303 611.319 93.1987C614.873 67.6469 600.59 46.3275 587.491 33.7867C572.825 19.7827 556.382 10.5862 539.277 6.35364C537.954 6.04013 538.511 3.0094 539.835 3.32294C556.626 7.5032 572.79 16.3863 587.247 29.8676C598.883 40.6841 611.041 56.7259 613.618 77.9407C614.106 82.0687 613.932 85.9878 613.827 90.168C613.688 95.4456 618.112 98.4241 620.621 101.873C626.194 109.45 631.211 117.967 635.67 127.007C645.041 145.922 651.939 167.346 656.92 189.658C663.4 218.764 666.605 249.227 668.695 279.639C668.834 281.624 666.744 281.624 666.605 279.639H666.57Z" fill="white" fill-opacity="0.4"/>
<path d="M696.25 226.131C703.635 185.948 728.857 161.389 754.601 152.088C770.591 146.34 787.103 145.347 803.476 145.191C821.87 144.982 840.229 145.818 858.588 147.49L858.065 150.416C822.915 126.118 785.536 109.815 747.181 101.873C745.857 101.611 746.414 98.5806 747.738 98.8419C786.267 106.784 823.786 123.296 859.11 147.699C860.051 148.326 859.598 150.729 858.588 150.625C841.971 149.057 825.319 148.274 808.632 148.274C792.329 148.274 775.851 148.744 759.826 153.551C733.107 161.598 705.934 185.164 698.235 226.915C697.887 228.848 695.867 228.012 696.215 226.079L696.25 226.131Z" fill="white" fill-opacity="0.4"/>
<path d="M905.269 225.766C913.7 189.397 935.403 161.86 960.764 155.642L960.032 157.575C950.139 106.68 958.639 49.9852 982.014 10.2727C982.92 8.75734 984.383 11.0042 983.477 12.4673C960.59 51.3438 952.334 106.941 962.018 156.739C962.157 157.47 961.844 158.515 961.287 158.672C936.657 164.681 915.442 191.174 907.255 226.602C906.802 228.483 904.782 227.699 905.235 225.766H905.269Z" fill="white" fill-opacity="0.4"/>
<path d="M926.415 126.275C918.193 84.0545 926.589 36.6607 947.735 6.19701C948.71 4.78617 950.173 7.03306 949.198 8.39164C928.575 38.1238 920.353 84.2635 928.4 125.439C928.784 127.373 926.763 128.209 926.38 126.275H926.415Z" fill="white" fill-opacity="0.4"/>
<path d="M614.246 93.2507C619.61 80.2919 619.297 64.5637 619.332 49.8805C619.367 33.7864 619.018 17.6401 615.604 2.27765C615.186 0.344276 617.207 -0.439545 617.625 1.44157C621.248 17.5879 621.492 34.6747 621.422 51.5526C621.352 66.288 621.422 81.8595 616.057 94.8183C615.36 96.5427 613.549 94.9751 614.246 93.2507Z" fill="white" fill-opacity="0.4"/>
<path d="M477.616 169.436C475.352 149.789 467.688 133.486 458.631 119.325C449.573 105.164 440.376 93.6685 430.622 82.016C410.138 57.5615 387.599 36.2421 363.074 22.1859C349.244 14.2434 334.822 8.80908 320.121 6.30092C318.797 6.0919 318.797 2.95671 320.121 3.16573C346.492 7.65952 371.574 21.5589 394.531 41.2584C417.489 60.9579 439.819 86.3531 458.596 114.831C468.489 129.828 477.164 147.333 479.602 168.6C479.846 170.585 477.825 171.422 477.582 169.436H477.616Z" fill="white" fill-opacity="0.4"/>
<path d="M609.871 400.264C610.819 334.328 583.591 270.685 542.54 242.507C541.312 241.691 542.4 239.042 543.593 239.857C585.276 268.443 612.924 333.309 611.976 400.213C611.976 402.2 609.836 402.2 609.871 400.213V400.264Z" fill="white" fill-opacity="0.4"/>
<path d="M549.206 245.83C553.734 208.678 546.001 169.436 528.757 141.898C527.851 140.435 529.314 138.188 530.22 139.704C548.021 168.077 555.894 208.365 551.226 246.666C550.982 248.652 548.962 247.816 549.206 245.83Z" fill="white" fill-opacity="0.4"/>
<path d="M811.733 312.244C872.767 313.864 933.208 334.661 988.633 373.067C989.852 373.903 988.807 376.621 987.588 375.785C932.511 337.587 872.418 316.947 811.768 315.38C810.409 315.38 810.409 312.192 811.768 312.244H811.733Z" fill="white" fill-opacity="0.4"/>
<path d="M671.691 282.774C703.985 250.586 740.493 228.796 778.674 218.972C779.998 218.659 780.555 221.637 779.232 222.003C741.19 231.775 704.891 253.407 672.737 285.491C671.622 286.588 670.577 283.871 671.691 282.774Z" fill="white" fill-opacity="0.4"/>
<path d="M1014.03 190.808C1040.5 142.891 1074.12 105.844 1111.88 80.2395C1150.41 54.1129 1191.76 39.2729 1233.36 29.2402C1258.41 23.1788 1283.59 18.7896 1308.78 14.348C1310.1 14.139 1310.1 17.2742 1308.78 17.4832C1225.21 32.1142 1136.83 48.156 1066.11 122.722C1047.23 142.63 1030.23 166.405 1015.49 193.055C1014.62 194.622 1013.16 192.375 1014.03 190.86V190.808Z" fill="white" fill-opacity="0.4"/>
<path d="M875.902 170.743C873.672 155.641 873.22 140.07 874.718 124.76C875.867 113.055 879.351 99.4167 888.164 97.2221C889.488 96.9086 890.046 99.9393 888.722 100.253C879.664 102.5 877.295 117.549 876.425 129.149C875.414 142.787 875.937 156.53 877.922 169.907C878.201 171.892 876.215 172.728 875.902 170.743Z" fill="white" fill-opacity="0.4"/>
<path d="M999.327 380.592C997.341 344.485 1000.72 305.713 1014.83 275.302C1026.92 249.28 1046.36 230.625 1067.85 230.155C1069.21 230.155 1069.21 233.238 1067.85 233.29C1046.25 233.76 1026.67 253.355 1015.18 280.109C1002.46 309.685 999.536 346.105 1001.42 380.54C1001.52 382.526 999.431 382.526 999.327 380.54V380.592Z" fill="white" fill-opacity="0.4"/>
<path d="M605.745 432.74C649.5 399.455 697.783 389.213 746.032 382.055C799.262 374.112 852.701 363.87 906.315 365.229C935.926 365.961 965.467 370.559 994.277 380.853C995.6 381.323 995.043 384.354 993.719 383.884C942.092 365.543 888.862 366.117 836.258 372.231C809.922 375.314 783.655 379.651 757.354 383.57C732.864 387.228 708.339 390.676 684.128 397.522C657.303 405.046 631.176 416.96 606.791 435.51C605.606 436.398 604.526 433.733 605.745 432.793V432.74Z" fill="white" fill-opacity="0.4"/>
<path d="M381.335 223.048C364.535 97.0517 272.002 24.5536 227.835 4.05411L1469.33 3.30411C1321.33 44.703 1154.83 178.8 1095.33 250.798C1051.73 294.597 1015.17 365.545 1002.33 395.544L995.835 383.544C975.835 369.745 912.168 366.795 882.835 367.045C851.235 368.245 775.335 378.544 741.335 383.544C671.735 392.544 622.335 420.793 606.335 433.793L616.835 410.544C590.035 348.145 515.668 280.047 481.835 253.798C433.435 206.399 394.668 213.549 381.335 223.048Z" fill="url(#paint3_radial_3_11324)" fill-opacity="0.2"/>
<defs>
<linearGradient id="paint0_linear_3_11324" x1="816.268" y1="401.703" x2="816.268" y2="450.703" gradientUnits="userSpaceOnUse">
<stop stop-color="white"/>
<stop offset="1" stop-color="white" stop-opacity="0"/>
</linearGradient>
<linearGradient id="paint1_linear_3_11324" x1="1083" y1="242.703" x2="1132" y2="278.703" gradientUnits="userSpaceOnUse">
<stop stop-color="white"/>
<stop offset="1" stop-color="white" stop-opacity="0"/>
</linearGradient>
<linearGradient id="paint2_linear_3_11324" x1="395" y1="214.703" x2="348" y2="250.703" gradientUnits="userSpaceOnUse">
<stop stop-color="white"/>
<stop offset="1" stop-color="white" stop-opacity="0"/>
</linearGradient>
<radialGradient id="paint3_radial_3_11324" cx="0" cy="0" r="1" gradientTransform="matrix(3.00001 380.99 415.788 -7.36615 822.835 2.55419)" gradientUnits="userSpaceOnUse">
<stop stop-color="white"/>
<stop offset="1" stop-color="white" stop-opacity="0"/>
</radialGradient>
</defs>
</svg>
