<svg width="405" height="602" viewBox="0 0 405 602" fill="none" xmlns="http://www.w3.org/2000/svg">
<path d="M312.067 0.640968C289.702 44.7439 267.059 88.7076 244.311 132.636C218.566 182.418 192.683 232.164 166.765 281.841C140.846 331.518 117.018 377.084 92.11 424.671C72.4274 462.294 52.7447 499.917 33.097 537.541C22.8202 557.258 12.2996 576.941 2.44087 596.867C2.02283 597.703 1.63963 598.539 1.22159 599.376C0.76872 600.386 1.67447 601.222 2.64989 600.804C12.9963 596.414 23.3079 591.955 33.6195 587.496C59.5379 576.314 85.4214 565.027 111.27 553.67C145.34 538.69 179.34 523.606 213.236 508.243C247.132 492.88 281.725 476.995 315.656 460.761C342.758 447.802 369.826 434.669 396.128 420.177C398.601 418.818 401.075 417.425 403.548 416.031C404.733 415.369 403.653 413.558 402.503 414.22C377.734 428.328 352.06 440.904 326.42 453.271C292.977 469.435 259.29 485.007 225.499 500.37C191.707 515.733 156.697 531.375 122.139 546.563C94.862 558.582 67.5851 570.496 40.2384 582.306C31.5642 586.068 22.8899 589.796 14.2156 593.523C11.6029 594.638 8.99013 595.753 6.34256 596.902C5.36713 597.32 2.85891 597.843 2.16218 598.679C2.05767 598.783 1.74414 598.853 1.6048 598.923L3.03309 600.351C11.1848 583.107 20.4165 566.316 29.2301 549.42C47.9025 513.573 66.6445 477.796 85.3865 441.984C109.877 395.199 134.332 348.414 158.752 301.628C184.775 251.777 210.763 201.856 236.646 151.936C260.022 106.857 283.293 61.7093 306.319 16.4567C308.828 11.51 311.371 6.56317 313.879 1.58155C314.471 0.397112 312.695 -0.682818 312.067 0.536458V0.640968Z" fill="url(#paint0_linear_3_11320)" fill-opacity="0.4"/>
<path d="M373.097 431.343C304.697 420.543 297.93 350.176 303.097 316.343L298.597 319.843L297.597 316.343C242.797 252.743 261.097 126.843 277.097 71.8428L158.597 299.843L12.5967 577.843L2.59668 600.343L248.097 491.343L373.097 431.343Z" fill="url(#paint1_radial_3_11320)" fill-opacity="0.2"/>
<path d="M1.77903 600.734C44.175 552.869 89.3231 507.511 136.004 463.861C182.789 420.142 231.108 378.129 279.913 336.743C307.539 313.333 335.338 290.132 363.103 266.966C364.148 266.095 362.65 264.632 361.64 265.503C312.486 306.54 263.331 347.577 215.118 389.729C166.904 431.882 119.77 475.044 74.6221 520.331C49.1218 545.936 24.2834 572.203 0.281058 599.271C-0.624691 600.281 0.873278 601.744 1.74419 600.734H1.77903Z" fill="url(#paint2_linear_3_11320)" fill-opacity="0.4"/>
<path d="M274.061 76.5147C265.596 115.566 259.918 155.385 259.744 195.412C259.604 225.545 263.68 255.4 276.082 283.06C279.809 291.351 284.199 299.329 289.32 306.854C291.619 310.233 295.381 313.647 297.088 317.339C297.437 318.106 297.088 316.852 297.158 317.479C297.228 318.35 296.949 319.429 296.844 320.266C296.426 324.063 296.008 327.86 295.625 331.657C294.371 343.954 293.326 356.252 292.664 368.584C291.898 382.832 291.793 396.941 294.615 410.98C298.203 428.746 305.972 445.328 317.886 459.019C318.757 460.029 320.255 458.566 319.349 457.556C298.795 433.937 293.222 403.838 294.476 373.426C294.998 361.268 295.974 349.11 297.158 336.987C297.611 332.458 298.064 327.895 298.552 323.366C298.726 321.624 299.562 319.011 299.248 317.27C298.795 314.761 295.59 312.044 294.127 310.058C289.633 303.962 285.662 297.517 282.144 290.829C269.08 265.851 262.914 237.738 262.008 209.66C260.545 165.104 266.641 120.513 276.082 77.0721C276.361 75.7483 274.34 75.191 274.061 76.5147Z" fill="white" fill-opacity="0.4"/>
<path d="M161.644 296.228C162.759 335.175 194.425 369.803 233.059 374.541L232.049 373.217C223.409 394.676 225.639 421.047 239.817 439.72C252.498 456.406 273.852 468.32 294.65 470.724C295.973 470.863 295.973 468.773 294.65 468.634C274.305 466.3 253.02 454.281 240.897 437.699C227.624 419.515 225.743 394.397 234.069 373.809C234.348 373.112 233.651 372.555 233.059 372.485C195.575 367.887 164.814 333.956 163.734 296.263C163.699 294.904 161.609 294.904 161.644 296.263V296.228Z" fill="white" fill-opacity="0.4"/>
<path d="M102.597 411.607C103.502 422.232 107.578 432.195 114.302 440.486C117.716 444.701 121.791 448.429 126.285 451.425C128.689 453.027 131.197 454.421 133.81 455.57C135.029 456.093 136.249 456.615 137.503 457.033C139.419 457.73 140.011 457.521 140.081 459.646C140.359 467.449 138.896 475.357 139.07 483.195C139.245 490.058 139.976 496.956 141.788 503.575C144.853 514.966 150.88 525.348 160.425 532.489C161.505 533.29 162.55 531.479 161.47 530.678C138.652 513.643 140.29 482.429 142.38 457.138C142.415 456.685 142.031 456.232 141.613 456.128C121.582 450.519 106.463 432.369 104.687 411.607C104.582 410.283 102.492 410.248 102.597 411.607Z" fill="white" fill-opacity="0.4"/>
<path d="M97.4056 498.037C91.8666 517.44 106.15 538.203 121.443 548.828C122.557 549.595 123.603 547.783 122.488 547.017C107.961 536.949 94.1658 517.057 99.4261 498.594C99.8093 497.305 97.7888 496.748 97.4056 498.037Z" fill="white" fill-opacity="0.4"/>
<path d="M46.6834 514.061C47.6937 523.154 55.2532 530.678 64.3455 531.723C65.6693 531.863 65.6693 529.772 64.3455 529.633C56.4725 528.727 49.6794 521.934 48.7736 514.061C48.6343 512.737 46.5441 512.737 46.6834 514.061Z" fill="white" fill-opacity="0.4"/>
<path d="M106.358 397.742C107.508 409.481 112.35 420.42 120.711 428.781C129.072 437.142 140.463 442.541 152.168 444.98C153.492 445.258 154.049 443.238 152.726 442.959C141.578 440.625 130.848 435.748 122.627 427.701C114.405 419.654 109.598 409.063 108.448 397.707C108.309 396.383 106.219 396.383 106.358 397.707V397.742Z" fill="white" fill-opacity="0.4"/>
<path d="M171.259 271.32C168.298 273.41 169.204 276.859 170.353 279.82C172.304 284.941 174.812 289.853 177.704 294.487C183.73 304.101 191.534 312.567 200.487 319.499C220.065 334.688 244.52 341.969 269.08 343.188C270.438 343.258 270.404 341.167 269.08 341.098C247.028 340.018 225.047 333.956 206.688 321.45C198.431 315.806 191.011 308.944 184.845 301.071C181.849 297.204 179.132 293.128 176.798 288.808C175.335 286.126 168.786 275.64 172.339 273.167C173.419 272.4 172.374 270.589 171.294 271.355L171.259 271.32Z" fill="white" fill-opacity="0.4"/>
<path d="M301.547 317.931C298.899 331.657 300.502 345.487 303.672 358.969C306.354 370.325 309.733 381.682 314.924 392.168C319.732 401.852 326.281 410.736 335.164 417.041C345.511 424.461 358.017 427.945 370.14 431.289C371.429 431.638 371.986 429.617 370.697 429.269C359.445 426.134 347.879 422.929 338.021 416.449C328.162 409.969 321.717 401.121 316.77 391.088C311.824 381.055 308.688 370.604 306.111 359.979C302.801 346.358 300.885 332.354 303.602 318.454C303.846 317.13 301.86 316.573 301.582 317.897L301.547 317.931Z" fill="white" fill-opacity="0.4"/>
<path d="M223.548 170.783C214.491 201.961 224.663 234.081 235.741 263.308C245.46 288.948 258.245 319.047 287.682 326.293C288.971 326.606 289.529 324.586 288.24 324.272C258.454 316.957 246.262 285.534 236.612 259.755C226.126 231.746 216.895 201.056 225.534 171.34C225.917 170.051 223.897 169.494 223.513 170.783H223.548Z" fill="white" fill-opacity="0.4"/>
<path d="M262.46 346.95C260.753 369.037 267.72 390.287 277.614 409.76C282.665 419.759 288.448 429.408 294.509 438.814C299.456 446.513 305.065 454.003 313.948 457.312C315.202 457.765 315.76 455.779 314.506 455.292C304.786 451.669 299.247 442.437 293.987 434.041C288.727 425.646 283.327 416.519 278.728 407.322C269.392 388.545 262.948 368.131 264.55 346.95C264.655 345.592 262.564 345.626 262.46 346.95Z" fill="white" fill-opacity="0.4"/>
<path d="M118.306 481.141C115.763 485.321 119.038 491.035 120.71 494.971C123.114 500.649 126.075 506.084 129.837 510.996C136.456 519.67 145.479 526.463 156.209 528.902L156.487 526.846C150.077 526.986 143.842 525.871 137.606 524.582C131.997 523.432 126.145 522.353 121.128 519.426C116.495 516.709 112.872 512.668 109.667 508.453C106.462 504.238 102.63 499.639 101.341 494.518C100.993 493.229 99.007 493.752 99.3205 495.076C100.679 500.406 104.616 505.178 107.89 509.498C111.165 513.818 114.753 517.859 119.352 520.75C124.403 523.92 130.255 525.174 136.003 526.359C142.762 527.752 149.555 529.041 156.487 528.902C157.637 528.902 157.95 527.125 156.766 526.846C147.116 524.652 138.86 518.799 132.624 511.17C129.384 507.199 126.737 502.774 124.472 498.176C123.253 495.703 122.173 493.16 121.198 490.582C120.222 488.004 118.515 484.729 120.118 482.151C120.815 481.002 119.003 479.957 118.306 481.106V481.141Z" fill="white" fill-opacity="0.4"/>
<path d="M46.2306 522.91C46.997 521.865 45.9171 520.471 44.7326 520.576C43.3392 520.715 43.0256 522.248 42.8863 523.398C42.4683 526.045 42.6424 528.762 43.3043 531.34C44.663 536.601 48.0421 541.269 52.745 543.986C53.8946 544.648 54.9746 542.871 53.7901 542.175C50.4458 540.224 47.8679 537.228 46.3003 533.709C45.5339 531.967 45.0113 530.086 44.8371 528.24C44.7326 527.334 44.7326 526.428 44.7675 525.523C44.7675 525 44.8371 524.478 44.9068 523.99C44.9068 523.781 44.9765 523.572 45.0113 523.398C45.0113 523.258 45.081 523.119 45.1158 522.945C45.2552 522.527 45.0462 522.178 44.4539 521.9C43.6875 522.98 45.499 524.025 46.2654 522.945L46.2306 522.91Z" fill="white" fill-opacity="0.4"/>
<defs>
<linearGradient id="paint0_linear_3_11320" x1="304.097" y1="305.343" x2="375.097" y2="285.343" gradientUnits="userSpaceOnUse">
<stop stop-color="white"/>
<stop offset="1" stop-color="white" stop-opacity="0"/>
</linearGradient>
<radialGradient id="paint1_radial_3_11320" cx="0" cy="0" r="1" gradientUnits="userSpaceOnUse" gradientTransform="translate(2.09667 600.343) rotate(-49.9954) scale(479.117 335.881)">
<stop stop-color="white"/>
<stop offset="1" stop-color="white" stop-opacity="0"/>
</radialGradient>
<linearGradient id="paint2_linear_3_11320" x1="312.097" y1="323.343" x2="377.097" y2="276.343" gradientUnits="userSpaceOnUse">
<stop stop-color="white"/>
<stop offset="1" stop-color="white" stop-opacity="0"/>
</linearGradient>
</defs>
</svg>
