<svg width="1535" height="465" viewBox="0 0 1535 465" fill="none" xmlns="http://www.w3.org/2000/svg">
<path d="M592.055 2.33472C645.18 117.762 695.38 236.221 742.513 357.396C755.786 391.57 768.85 425.9 781.635 460.492C781.948 461.328 782.854 461.589 783.272 460.806C850.263 341.668 917.253 222.583 984.209 103.445L1040.37 3.5888C1041.24 2.07345 1039.77 -0.173446 1038.9 1.39416C971.912 120.532 904.921 239.617 837.965 358.755C819.258 392.04 800.551 425.326 781.844 458.559L783.481 458.872C738.089 336.234 689.597 216.208 638.143 99.0557C623.651 66.0316 608.881 33.2687 593.901 0.714862C593.135 -0.957246 591.323 0.610355 592.089 2.28246L592.055 2.33472Z" fill="url(#paint0_linear_3_11323)" fill-opacity="0.4"/>
<path d="M618.217 61.4854C625.602 85.5219 643.194 96.2861 658.906 104.229C681.41 115.62 704.367 125.025 727.568 132.55C775.538 148.121 824.623 155.332 873.707 155.332C901.995 155.332 930.247 152.929 958.395 148.487L957.35 146.92C958.673 228.696 961.53 311.413 974.977 390.995C978.809 413.621 983.512 435.829 989.295 457.514L991.037 455.998C948.188 400.139 918.716 320.349 908.718 236.639C908.613 235.75 907.952 235.437 907.429 235.541C835.979 251.27 763.241 247.821 692.418 227.076C691.826 226.92 691.025 227.494 691.094 228.592C696.39 311.047 675.906 399.251 635.6 456.469C634.973 457.357 635.426 459.238 636.332 459.134C680.435 455.162 722.064 421.198 748.261 367.847L746.624 368.16C767.979 397.631 799.157 401.968 825.633 386.815L824.344 384.882C817.934 409.388 825.319 441.994 840.473 455.319C841.623 456.364 842.703 453.647 841.518 452.602C827.096 439.904 820.268 408.918 826.33 385.665C826.608 384.568 825.737 383.314 825.041 383.732C799.262 398.415 768.884 394.653 748.052 365.861C747.53 365.13 746.833 365.339 746.415 366.175C720.671 418.533 679.564 451.975 636.297 455.894L637.028 458.559C668.799 413.464 687.959 349.663 692.836 284.816C694.23 266.11 694.369 247.246 693.15 228.487L691.826 230.003C747.46 246.306 804.313 252.262 860.887 246.201C876.634 244.529 892.345 241.916 907.952 238.468L906.663 237.37C916.696 321.55 946.446 401.916 989.539 458.088C990.235 459.029 991.698 458.141 991.28 456.573C970.936 380.231 964.073 297.566 961.112 215.999C960.276 192.955 959.788 169.859 959.405 146.763C959.405 145.979 958.917 145.091 958.36 145.195C861.619 160.349 763.276 150.421 670.262 106.267C651.938 97.5925 628.772 88.3436 620.028 59.7088C619.471 57.8799 617.659 59.4475 618.217 61.2764V61.4854Z" fill="white" fill-opacity="0.4"/>
<path d="M1001.17 69.4801C1004.87 91.6355 1009.4 113.686 1016.75 133.752C1023.43 152.093 1032.21 169.023 1040.78 185.483C1058.2 218.872 1077.78 249.754 1098.92 277.919C1141.01 333.934 1189.22 379.395 1240.57 413.725C1269.55 433.111 1299.51 448.944 1330.17 461.119C1331.46 461.642 1332.02 458.611 1330.73 458.088C1276.83 436.664 1224.96 403.954 1177.31 360.531C1129.82 317.266 1086.45 263.288 1050.85 199.173C1040.71 180.937 1030.99 161.864 1022.42 141.903C1012.84 119.643 1007.48 94.1437 1003.23 68.644C1002.92 66.7107 1000.9 67.4945 1001.21 69.4801H1001.17Z" fill="white" fill-opacity="0.4"/>
<path d="M990.584 87.5074C982.99 148.748 995.183 209.78 1012.04 265.221C1026.81 313.764 1044.06 361.89 1066.77 403.222C1079.07 425.639 1093.25 445.966 1109.9 461.014C1111.05 462.06 1112.09 459.342 1110.94 458.297C1081.51 431.648 1059.91 389.009 1042.42 345.43C1033.64 323.588 1025.77 300.962 1018.38 278.023C1009.54 250.486 1001.63 222.112 996.402 192.484C990.41 158.468 988.285 123.092 992.605 88.3435C992.848 86.3579 990.828 85.5218 990.584 87.5074Z" fill="white" fill-opacity="0.4"/>
<path d="M667.44 171.165C635.321 275.986 578.538 362.831 511.756 419.055C492.77 435.045 472.844 448.474 452.221 459.081C450.967 459.708 451.489 462.739 452.778 462.112C525.83 424.594 591.044 351.178 636.227 257.383C649.012 230.839 660.125 202.517 669.252 172.785C669.809 170.956 667.998 169.389 667.44 171.218V171.165Z" fill="white" fill-opacity="0.4"/>
<path d="M657.164 149.584C652.844 167.664 643.368 180.884 633.963 193.268C625.114 204.973 616.196 216.573 607.243 228.121C589.267 251.426 571.083 274.418 552.48 296.573C515.31 340.779 476.188 381.903 433.653 413.725C409.302 431.909 383.941 446.854 357.709 457.566C356.42 458.088 356.978 461.119 358.267 460.596C453.127 421.877 532.136 329.284 605.362 234.705C615.778 221.224 626.194 207.742 636.506 194.104C645.842 181.72 654.865 168.448 659.184 150.473C659.637 148.591 657.617 147.755 657.164 149.637V149.584Z" fill="white" fill-opacity="0.4"/>
<path d="M1001.28 69.8459C1036.71 151.988 1090.32 215.946 1144.91 267.625C1174.28 295.424 1205 319.042 1236.53 340.675C1271.02 364.346 1305.85 386.919 1341.39 406.776C1381.8 429.401 1423.15 448.474 1465.47 461.171C1466.8 461.589 1467.36 458.559 1466.03 458.141C1391.41 435.724 1320.17 393.817 1250.99 347.102C1219.63 325.94 1188.73 303.732 1159.19 277.135C1129.65 250.538 1101.33 220.754 1075.13 187.259C1047.92 152.459 1022.53 113.425 1003.06 68.2783C1002.32 66.6062 1000.51 68.1738 1001.24 69.8459H1001.28Z" fill="white" fill-opacity="0.4"/>
<path d="M902.099 249.389C889.453 319.67 891.056 394.705 906.697 463.628C907.115 465.509 909.136 464.725 908.718 462.792C893.216 394.392 891.578 319.983 904.119 250.225C904.468 248.292 902.447 247.455 902.099 249.389Z" fill="white" fill-opacity="0.4"/>
<path d="M787.696 461.903C867.96 373.699 960.172 314.496 1049.11 249.284C1076.39 229.271 1103.7 209.258 1130.98 189.245C1132.19 188.356 1131.11 185.639 1129.93 186.528C1083.01 220.963 1036.15 255.554 989.051 289.467C944.67 321.394 900.218 353.32 857.544 390.263C833.123 411.374 809.365 434.209 786.651 459.186C785.571 460.388 786.651 463.105 787.696 461.903Z" fill="url(#paint1_linear_3_11323)" fill-opacity="0.4"/>
<path d="M348.06 217.358C371.644 239.199 397.702 253.517 423.62 267.677C452.499 283.458 481.379 299.239 510.258 315.071C567.46 346.371 624.661 377.671 681.863 408.918C714.295 426.632 746.693 444.398 779.126 462.112C780.38 462.792 780.938 459.761 779.684 459.082C722.761 427.939 665.803 396.796 608.88 365.653C551.957 334.51 495 303.367 438.077 272.224C407.769 255.659 376.73 240.192 349.14 214.64C347.99 213.595 346.945 216.312 348.094 217.358H348.06Z" fill="url(#paint2_linear_3_11323)" fill-opacity="0.4"/>
<path d="M228.257 462.164C255.847 443.719 283.995 425.952 309.077 400.348C332.488 376.469 351.334 345.169 364.642 307.703C372.097 286.749 377.775 264.49 382.443 241.812L381.154 242.909C397.074 248.866 413.726 252.68 429.995 247.246C446.264 241.812 460.965 228.487 475.422 217.305C508.934 191.439 541.576 162.386 570.734 126.384C587.282 105.953 602.575 83.2227 615.987 58.0888C616.823 56.5212 615.36 54.2743 614.524 55.8942C591.288 99.4734 562.513 135.267 531.404 165.574C516.076 180.518 500.26 194.157 484.131 207.011C476.188 213.334 468.141 219.499 460.094 225.509C452.639 231.047 445.184 237.004 437.276 241.028C419.021 250.329 400.14 246.88 381.781 239.983C381.224 239.774 380.666 240.244 380.492 241.08C372.236 281.263 360.461 320.087 342.172 352.38C323.883 384.672 298.348 409.075 272.43 428.461C257.589 439.538 242.4 449.466 227.247 459.551C226.027 460.387 227.072 463.052 228.292 462.268L228.257 462.164Z" fill="white" fill-opacity="0.4"/>
<path d="M412.125 254.667C479.673 243.119 548.161 231.518 612.539 196.979C630.201 187.521 647.41 176.287 664.027 163.171C665.212 162.23 664.167 159.513 662.982 160.454C602.889 207.848 535.759 228.017 469.013 241.237C450.096 245 431.111 248.239 412.125 251.479C410.801 251.688 410.801 254.823 412.125 254.614V254.667Z" fill="white" fill-opacity="0.4"/>
<path d="M666.569 185.064C661.936 252.994 649.917 326.305 611.806 369.728C611.423 370.198 611.214 370.773 611.318 371.504C614.872 397.056 600.589 418.376 587.49 430.916C572.824 444.92 556.381 454.117 539.276 458.349C537.953 458.663 538.51 461.694 539.834 461.38C556.625 457.2 572.789 448.317 587.246 434.835C598.882 424.019 611.04 407.977 613.617 386.762C614.105 382.634 613.931 378.715 613.826 374.535C613.687 369.258 618.111 366.279 620.62 362.83C626.193 355.254 631.21 346.736 635.669 337.697C645.04 318.781 651.938 297.357 656.919 275.045C663.399 245.94 666.604 215.476 668.694 185.064C668.833 183.079 666.743 183.079 666.604 185.064H666.569Z" fill="white" fill-opacity="0.4"/>
<path d="M696.251 238.572C703.636 278.755 728.858 303.314 754.602 312.615C770.592 318.363 787.104 319.356 803.477 319.512C821.871 319.722 840.23 318.885 858.589 317.213L858.066 314.287C822.916 338.585 785.537 354.888 747.182 362.831C745.858 363.092 746.415 366.123 747.739 365.861C786.268 357.919 823.787 341.407 859.111 317.004C860.052 316.377 859.599 313.974 858.589 314.078C841.972 315.646 825.32 316.43 808.633 316.43C792.33 316.43 775.852 315.959 759.827 311.152C733.108 303.105 705.935 279.539 698.236 237.788C697.888 235.855 695.868 236.691 696.216 238.624L696.251 238.572Z" fill="white" fill-opacity="0.4"/>
<path d="M905.269 238.938C913.7 275.306 935.403 302.843 960.764 309.062L960.032 307.128C950.139 358.023 958.639 414.718 982.014 454.43C982.92 455.946 984.383 453.699 983.477 452.236C960.59 413.359 952.334 357.762 962.018 307.964C962.157 307.233 961.844 306.188 961.287 306.031C936.657 300.022 915.442 273.529 907.255 238.102C906.802 236.22 904.782 237.004 905.235 238.938H905.269Z" fill="white" fill-opacity="0.4"/>
<path d="M926.415 338.428C918.193 380.649 926.589 428.042 947.735 458.506C948.71 459.917 950.173 457.67 949.198 456.311C928.575 426.579 920.353 380.44 928.4 339.264C928.784 337.331 926.763 336.495 926.38 338.428H926.415Z" fill="white" fill-opacity="0.4"/>
<path d="M614.246 371.452C619.61 384.411 619.297 400.139 619.332 414.823C619.367 430.917 619.018 447.063 615.604 462.425C615.186 464.359 617.207 465.143 617.625 463.262C621.248 447.115 621.492 430.028 621.422 413.151C621.352 398.415 621.422 382.844 616.057 369.885C615.36 368.16 613.549 369.728 614.246 371.452Z" fill="white" fill-opacity="0.4"/>
<path d="M477.616 295.267C475.352 314.914 467.688 331.217 458.631 345.378C449.573 359.539 440.376 371.035 430.622 382.687C410.138 407.142 387.599 428.461 363.074 442.517C349.244 450.46 334.822 455.894 320.121 458.402C318.797 458.611 318.797 461.746 320.121 461.537C346.492 457.044 371.574 443.144 394.531 423.445C417.489 403.745 439.819 378.35 458.596 349.872C468.489 334.875 477.164 317.37 479.602 296.103C479.846 294.118 477.825 293.282 477.582 295.267H477.616Z" fill="white" fill-opacity="0.4"/>
<path d="M609.871 64.4395C610.819 130.375 583.591 194.018 542.54 222.196C541.312 223.012 542.4 225.661 543.593 224.846C585.276 196.26 612.924 131.394 611.976 64.4904C611.976 62.5032 609.836 62.5032 609.871 64.4904V64.4395Z" fill="white" fill-opacity="0.4"/>
<path d="M549.206 218.873C553.734 256.025 546.001 295.267 528.757 322.805C527.851 324.268 529.314 326.515 530.22 324.999C548.021 296.626 555.894 256.338 551.226 218.037C550.982 216.051 548.962 216.887 549.206 218.873Z" fill="white" fill-opacity="0.4"/>
<path d="M811.733 152.459C872.767 150.839 933.208 130.042 988.633 91.6358C989.852 90.7997 988.807 88.0825 987.588 88.9186C932.511 127.116 872.418 147.756 811.768 149.323C810.409 149.323 810.409 152.511 811.768 152.459H811.733Z" fill="white" fill-opacity="0.4"/>
<path d="M671.691 181.929C703.985 214.117 740.493 235.907 778.674 245.731C779.998 246.044 780.555 243.066 779.232 242.7C741.19 232.929 704.891 211.296 672.737 179.212C671.622 178.115 670.577 180.832 671.691 181.929Z" fill="white" fill-opacity="0.4"/>
<path d="M1014.03 273.895C1040.5 321.812 1074.12 358.859 1111.88 384.464C1150.41 410.59 1191.76 425.43 1233.36 435.463C1258.41 441.524 1283.59 445.914 1308.78 450.355C1310.1 450.564 1310.1 447.429 1308.78 447.22C1225.21 432.589 1136.83 416.547 1066.11 341.982C1047.23 322.073 1030.23 298.298 1015.49 271.649C1014.62 270.081 1013.16 272.328 1014.03 273.843V273.895Z" fill="white" fill-opacity="0.4"/>
<path d="M875.903 293.961C873.673 309.062 873.221 324.633 874.718 339.944C875.868 351.648 879.352 365.286 888.165 367.481C889.489 367.795 890.047 364.764 888.723 364.45C879.665 362.203 877.296 347.154 876.426 335.554C875.415 321.916 875.938 308.173 877.923 294.797C878.202 292.811 876.216 291.975 875.903 293.961Z" fill="white" fill-opacity="0.4"/>
<path d="M999.328 84.1108C997.342 120.218 1000.72 158.99 1014.83 189.401C1026.92 215.423 1046.36 234.078 1067.85 234.548C1069.21 234.548 1069.21 231.465 1067.85 231.413C1046.25 230.943 1026.67 211.348 1015.18 184.594C1002.46 155.019 999.537 118.598 1001.42 84.163C1001.52 82.1774 999.432 82.1774 999.328 84.163V84.1108Z" fill="white" fill-opacity="0.4"/>
<path d="M605.745 31.9627C649.5 65.2481 697.783 75.4898 746.032 82.6485C799.262 90.591 852.701 100.833 906.315 99.4741C935.926 98.7425 965.467 94.1442 994.277 83.8503C995.6 83.38 995.043 80.3493 993.719 80.8196C942.092 99.1605 888.862 98.5858 836.258 92.4721C809.922 89.3892 783.655 85.0521 757.354 81.1331C732.864 77.4754 708.339 74.0267 684.128 67.1815C657.303 59.657 631.176 47.7432 606.791 29.1933C605.606 28.305 604.526 30.9699 605.745 31.9105V31.9627Z" fill="white" fill-opacity="0.4"/>
<path d="M381.334 241.655C364.534 367.651 272.001 440.15 227.834 460.649L1469.33 461.399C1321.33 420 1154.83 285.904 1095.33 213.905C1051.73 170.107 1015.17 99.1584 1002.33 69.1592L995.834 81.1589C975.834 94.9585 912.167 97.9084 882.834 97.6584C851.234 96.4585 775.334 86.1587 741.334 81.1589C671.734 72.1591 622.334 43.9098 606.334 30.9102L616.834 54.1596C590.034 116.558 515.667 184.656 481.834 210.905C433.434 258.304 394.667 251.154 381.334 241.655Z" fill="url(#paint3_radial_3_11323)" fill-opacity="0.2"/>
<defs>
<linearGradient id="paint0_linear_3_11323" x1="816.268" y1="63" x2="816.268" y2="14" gradientUnits="userSpaceOnUse">
<stop stop-color="white"/>
<stop offset="1" stop-color="white" stop-opacity="0"/>
</linearGradient>
<linearGradient id="paint1_linear_3_11323" x1="1083" y1="222" x2="1132" y2="186" gradientUnits="userSpaceOnUse">
<stop stop-color="white"/>
<stop offset="1" stop-color="white" stop-opacity="0"/>
</linearGradient>
<linearGradient id="paint2_linear_3_11323" x1="395" y1="250" x2="348" y2="214" gradientUnits="userSpaceOnUse">
<stop stop-color="white"/>
<stop offset="1" stop-color="white" stop-opacity="0"/>
</linearGradient>
<radialGradient id="paint3_radial_3_11323" cx="0" cy="0" r="1" gradientTransform="matrix(3.00001 -380.99 415.788 7.36615 822.834 462.149)" gradientUnits="userSpaceOnUse">
<stop stop-color="white"/>
<stop offset="1" stop-color="white" stop-opacity="0"/>
</radialGradient>
</defs>
</svg>
