<svg width="438" height="451" viewBox="0 0 438 451" fill="none" xmlns="http://www.w3.org/2000/svg">
<path fill-rule="evenodd" clip-rule="evenodd" d="M63.8342 357.048C52.59 354.475 44.9999 349.591 44.9999 343.99C44.9999 335.711 61.5802 329 82.033 329C95.3812 329 107.08 331.858 113.597 336.146C126.752 333.579 141.432 332.145 156.914 332.145C213.454 332.145 259.288 351.266 259.288 374.854C259.288 398.441 213.454 417.562 156.914 417.562C131.161 417.562 107.629 413.595 89.6379 407.046C90.1846 408.328 90.4767 409.679 90.4767 411.074C90.4767 419.398 80.0725 426.147 67.2384 426.147C54.4042 426.147 44 419.398 44 411.074C44 402.749 54.4042 396 67.2384 396C67.4795 396 67.7197 396.002 67.959 396.007C59.4196 389.771 54.5397 382.55 54.5397 374.854C54.5397 368.499 57.8669 362.468 63.8342 357.048Z" fill="black" fill-opacity="0.2"/>
<ellipse cx="75.3676" cy="33.2874" rx="75.3676" ry="33.2874" transform="matrix(-1 0 0 1 246.728 337.17)" fill="black" fill-opacity="0.2"/>
<ellipse cx="36.9714" cy="15.0276" rx="36.9714" ry="15.0276" transform="matrix(-0.996785 -0.0801262 -0.121291 0.992617 281.369 328.021)" fill="black" fill-opacity="0.2"/>
<g filter="url(#filter0_i_3_11355)">
<path d="M217.838 295.461L220.79 345.426C243.938 339.66 232.84 353.301 268.848 348.58C271.67 348.21 274.179 346.379 274.998 343.653C283.174 316.451 252.723 288.816 217.838 295.461Z" fill="#82644D"/>
</g>
<path fill-rule="evenodd" clip-rule="evenodd" d="M250.55 309.614C250.713 309.962 250.932 310.256 251.19 310.446C251.257 310.497 251.326 310.548 251.395 310.6L251.395 310.601C252.224 311.227 253.163 311.935 253.863 310.868C254.621 309.712 255.555 308.026 254.678 307.376C253.802 306.727 251.39 305.645 250.631 306.801C250.58 306.879 250.535 306.959 250.494 307.043C250.444 307.019 250.388 307.004 250.326 307.001C249.704 306.967 248.196 307.225 248.151 308.049C248.106 308.872 248.852 309.64 249.474 309.674C249.522 309.676 249.57 309.679 249.62 309.683L249.62 309.683C249.945 309.703 250.295 309.725 250.55 309.614ZM246.55 310.491C245.984 310.46 245.297 309.913 245.328 309.335C245.36 308.757 246.729 308.593 247.294 308.624C247.86 308.654 247.891 309.458 247.86 310.036C247.83 310.569 247.221 310.532 246.683 310.499L246.683 310.499C246.638 310.496 246.593 310.493 246.55 310.491ZM252.547 313.154C252.515 313.73 252.987 314.264 253.383 314.286C253.413 314.287 253.444 314.289 253.476 314.291C253.852 314.315 254.277 314.343 254.306 313.811C254.338 313.235 254.329 312.435 253.934 312.413C253.539 312.392 252.578 312.578 252.547 313.154ZM258.673 310.786C258.308 310.961 257.653 310.724 257.433 310.204C257.368 310.05 257.391 309.886 257.465 309.727C257.268 309.574 257.202 309.145 257.212 308.948C257.223 308.709 257.655 308.697 257.965 308.712C258.143 308.72 258.205 308.822 258.223 308.952C258.273 308.921 258.32 308.895 258.362 308.875C258.727 308.7 259.079 309.397 259.299 309.917C259.502 310.397 259.107 310.582 258.759 310.745L258.759 310.745C258.73 310.759 258.701 310.772 258.673 310.786Z" fill="white" fill-opacity="0.2"/>
<g filter="url(#filter1_i_3_11355)">
<path d="M116.026 318.533C125.107 315.974 124.827 306.286 123.552 301.762C132.984 319.288 149.804 354.918 141.632 357.221C131.416 360.1 93.7701 348.245 89.5999 346.49C84.2261 344.229 80.9383 349.439 72.292 351.368C63.6457 353.297 56.8276 350.843 55.5628 346.355C54.2981 341.867 54.1283 324.959 71.1556 320.161C95.2777 313.363 104.676 321.731 116.026 318.533Z" fill="#82644D"/>
</g>
<path d="M65.5682 333.741C65.5682 332.312 64.2684 331.6 62.6232 331.6C60.978 331.6 60.9307 332.491 60.9307 333.919C60.9307 335.348 62.4336 335.644 64.0788 335.644C65.724 335.644 65.5682 335.169 65.5682 333.741Z" fill="black" fill-opacity="0.12"/>
<path d="M60.0595 337.64C59.445 338.261 58.0911 338.374 57.6675 337.914C57.244 337.455 57.3988 336.579 58.0133 335.959C58.6278 335.338 59.4693 335.207 59.8929 335.667C60.3164 336.126 60.6741 337.02 60.0595 337.64Z" fill="black" fill-opacity="0.12"/>
<path fill-rule="evenodd" clip-rule="evenodd" d="M80.0487 319.868C80.2115 320.216 80.4313 320.51 80.6886 320.7C80.7561 320.75 80.8246 320.802 80.8938 320.854L80.8938 320.854C81.7235 321.481 82.6619 322.189 83.3618 321.122C84.1202 319.966 85.054 318.28 84.1774 317.63C83.3009 316.981 80.8886 315.899 80.1302 317.055C80.0793 317.132 80.0337 317.213 79.9933 317.297C79.9427 317.272 79.8867 317.258 79.8246 317.255C79.2031 317.221 77.6953 317.479 77.6502 318.303C77.6052 319.126 78.3512 319.894 78.9727 319.928C79.0205 319.93 79.0694 319.933 79.1187 319.936L79.1187 319.936C79.4445 319.957 79.7937 319.979 80.0487 319.868ZM76.0489 320.745C75.4832 320.714 74.7957 320.166 74.8273 319.589C74.8589 319.011 76.2276 318.847 76.7933 318.878C77.3591 318.908 77.3901 319.712 77.3585 320.29C77.3294 320.823 76.7203 320.785 76.1818 320.753L76.1818 320.753C76.1369 320.75 76.0924 320.747 76.0489 320.745ZM82.046 323.408C82.0145 323.984 82.4864 324.518 82.8816 324.54C82.9121 324.541 82.9431 324.543 82.9745 324.545C83.3507 324.569 83.7761 324.597 83.8052 324.065C83.8367 323.489 83.8281 322.689 83.4329 322.667C83.0377 322.646 82.0775 322.831 82.046 323.408ZM88.1717 321.04C87.8069 321.215 87.152 320.978 86.9321 320.458C86.8669 320.304 86.8899 320.14 86.9641 319.981C86.767 319.827 86.701 319.399 86.7106 319.202C86.7222 318.962 87.1537 318.951 87.4643 318.965C87.6416 318.974 87.7035 319.076 87.7219 319.206C87.7723 319.175 87.8193 319.149 87.8608 319.129C88.2256 318.954 88.5782 319.651 88.7981 320.171C89.001 320.651 88.6065 320.836 88.2577 320.999L88.2576 320.999C88.2285 321.013 88.1998 321.026 88.1717 321.04Z" fill="white" fill-opacity="0.2"/>
<g filter="url(#filter2_iii_3_11355)">
<path d="M114.208 92.2157L108.361 127.78C107.948 130.289 108.418 132.863 109.689 135.065L124.237 160.257C126.615 164.375 131.37 166.499 136.024 165.522L224.984 146.836C230.076 145.766 233.723 141.274 233.723 136.071V94.4971C233.723 92.5349 233.198 90.6085 232.203 88.9175L224.01 74.9974C223.488 74.1103 223.093 73.1543 222.836 72.1574L211.122 26.6012C210.377 23.7042 207.272 22.1051 204.481 23.1812L173.414 35.1586C170.15 36.417 167.679 39.1531 166.759 42.5283L156.05 81.7982C155.833 82.596 155.51 83.3614 155.091 84.0742C152.624 88.2676 147.349 89.8617 142.973 87.736L135.499 84.1057C134.001 83.3782 132.358 83.0002 130.693 83.0002H125.062C119.675 83.0002 115.081 86.9007 114.208 92.2157Z" fill="#A6815E"/>
</g>
<path d="M207 91.7297C207 94.3419 205.985 96.5 203.5 96.5C202.028 96.5 201.321 95.6485 200.5 94.5C199.935 93.7094 198 92.3893 198 91.3243C198 88.7122 200.015 87 202.5 87C204.985 87 207 89.1176 207 91.7297Z" fill="black" fill-opacity="0.12"/>
<g filter="url(#filter3_i_3_11355)">
<path d="M232.311 147.122C232.311 176.233 207.17 193.244 176.156 193.244C145.142 193.244 120 176.233 120 147.122C120 118.011 145.142 101 176.156 101C207.17 101 232.311 118.011 232.311 147.122Z" fill="#C8A078"/>
<path fill-rule="evenodd" clip-rule="evenodd" d="M144.777 122.218C136.874 128.028 132.034 136.456 132.034 147.122C132.034 157.787 136.874 166.215 144.777 172.026C152.719 177.864 163.794 181.077 176.156 181.077C188.519 181.077 199.594 177.864 207.535 172.026C215.438 166.215 220.278 157.787 220.278 147.122C220.278 136.456 215.438 128.028 207.535 122.218C199.594 116.379 188.519 113.167 176.156 113.167C163.794 113.167 152.719 116.379 144.777 122.218ZM143.01 119.752C151.582 113.45 163.32 110.12 176.156 110.12C188.993 110.12 200.731 113.45 209.303 119.752C217.913 126.083 223.287 135.394 223.287 147.122C223.287 158.85 217.913 168.161 209.303 174.491C200.731 180.793 188.993 184.124 176.156 184.124C163.32 184.124 151.582 180.793 143.01 174.491C134.399 168.161 129.025 158.85 129.025 147.122C129.025 135.394 134.399 126.083 143.01 119.752Z" fill="#9A7858"/>
<path fill-rule="evenodd" clip-rule="evenodd" d="M157.171 132.683C152.443 136.072 149.583 140.952 149.583 147.122C149.583 153.292 152.443 158.171 157.171 161.56C161.939 164.978 168.632 166.885 176.156 166.885C183.68 166.885 190.374 164.978 195.141 161.56C199.869 158.171 202.73 153.292 202.73 147.122C202.73 140.952 199.869 136.072 195.141 132.683C190.374 129.266 183.68 127.358 176.156 127.358C168.632 127.358 161.939 129.266 157.171 132.683ZM155.433 130.196C160.828 126.329 168.173 124.312 176.156 124.312C184.139 124.312 191.485 126.329 196.879 130.196C202.314 134.092 205.738 139.856 205.738 147.122C205.738 154.388 202.314 160.152 196.879 164.047C191.485 167.914 184.139 169.932 176.156 169.932C168.173 169.932 160.828 167.914 155.433 164.047C149.999 160.152 146.574 154.388 146.574 147.122C146.574 139.856 149.999 134.092 155.433 130.196Z" fill="#9A7858"/>
<path fill-rule="evenodd" clip-rule="evenodd" d="M169.64 140.011C168.087 141.249 167.13 143.03 167.13 145.348C167.13 147.666 168.087 149.447 169.64 150.685C171.227 151.949 173.51 152.694 176.155 152.694C178.8 152.694 181.084 151.949 182.671 150.685C184.224 149.447 185.18 147.666 185.18 145.348C185.18 143.03 184.224 141.249 182.671 140.011C181.084 138.747 178.8 138.002 176.155 138.002C173.51 138.002 171.227 138.747 169.64 140.011ZM167.78 137.616C170.004 135.845 172.985 134.955 176.155 134.955C179.326 134.955 182.307 135.845 184.531 137.616C186.788 139.414 188.189 142.068 188.189 145.348C188.189 148.628 186.788 151.282 184.531 153.08C182.307 154.851 179.326 155.741 176.155 155.741C172.985 155.741 170.004 154.851 167.78 153.08C165.523 151.282 164.122 148.628 164.122 145.348C164.122 142.068 165.523 139.414 167.78 137.616Z" fill="#9A7858"/>
<path fill-rule="evenodd" clip-rule="evenodd" d="M174.083 145.566C174.081 145.566 174.086 145.559 174.1 145.547C174.091 145.56 174.084 145.567 174.083 145.566ZM174.483 145.348C174.866 145.205 175.44 145.098 176.156 145.098C176.871 145.098 177.445 145.205 177.828 145.348C177.445 145.491 176.871 145.599 176.156 145.599C175.44 145.599 174.866 145.491 174.483 145.348ZM178.228 145.566C178.227 145.567 178.22 145.56 178.211 145.547C178.225 145.559 178.23 145.566 178.228 145.566ZM178.211 145.149C178.22 145.136 178.227 145.13 178.228 145.13C178.23 145.13 178.225 145.137 178.211 145.149ZM174.1 145.149C174.086 145.137 174.081 145.13 174.083 145.13C174.084 145.13 174.091 145.136 174.1 145.149ZM173.032 142.664C173.931 142.234 175.047 142.051 176.156 142.051C177.264 142.051 178.38 142.234 179.279 142.664C180.151 143.08 181.169 143.932 181.169 145.348C181.169 146.764 180.151 147.616 179.279 148.033C178.38 148.462 177.264 148.645 176.156 148.645C175.047 148.645 173.931 148.462 173.032 148.033C172.16 147.616 171.142 146.764 171.142 145.348C171.142 143.932 172.16 143.08 173.032 142.664Z" fill="#9A7858"/>
</g>
<g filter="url(#filter4_i_3_11355)">
<path d="M50.692 174.56C55.1852 182.076 28.9651 198.655 30.2864 207.013C38.6415 210.788 54.9019 199.487 71.7975 189.37C73.6888 186.754 73.7593 187.579 73.2775 185.731C72.7958 183.882 56.4549 175.979 50.692 174.56Z" fill="#82644D"/>
</g>
<g filter="url(#filter5_i_3_11355)">
<path d="M177.383 185.724C185.002 176.202 185.725 161.993 178.244 150.708C169.301 143.03 162.668 135.286 149.661 143.909C147.237 145.516 145.157 147.454 143.435 149.634C133.335 168.289 122.452 176.536 122.452 176.536C116.449 178.603 103.237 181.115 81.7452 179.104C-77.5085 140.248 100.496 215.46 125.899 202.16C136.522 198.669 155.162 202.551 167.572 193.919C170.898 191.605 173.353 189.897 174.436 189.219C175.663 188.052 176.637 186.886 177.383 185.724Z" fill="#82644D"/>
</g>
<g filter="url(#filter6_iii_3_11355)">
<path fill-rule="evenodd" clip-rule="evenodd" d="M130.209 119.369C125.897 118.527 121.703 121.067 120.31 125.234L115.223 140.453L129.86 205.608C122.679 228.956 112.63 325.369 110.245 348.959C109.248 352.474 108.723 356.123 108.723 359.867C108.723 388.107 138.615 411 175.489 411C212.364 411 242.256 388.107 242.256 359.867C242.256 356.351 241.793 352.919 240.911 349.603C241.867 347.668 242.384 345.478 242.33 343.163L237.36 131.392L241.266 117.883C242.746 112.767 238.907 107.66 233.581 107.66H199.679C193.243 107.66 187.247 110.917 183.715 116.297C181.353 119.893 178.433 124.32 175.318 129C175.056 129.394 174.861 132.665 174.665 135.951C174.467 139.267 174.269 142.597 174 143C173.306 142.733 172.54 139.601 171.771 136.457C170.993 133.276 170.212 130.081 169.5 129.828C154.728 124.567 139.141 121.115 130.209 119.369Z" fill="#82644D"/>
</g>
<path d="M225 315.73C225 318.342 223.985 320.5 221.5 320.5C220.028 320.5 219.321 319.649 218.5 318.5C217.935 317.709 216 316.389 216 315.324C216 312.712 218.015 311 220.5 311C222.985 311 225 313.118 225 315.73Z" fill="black" fill-opacity="0.12"/>
<path d="M208.993 308.503C208.199 308.729 207.451 308.59 207.225 307.793C207.09 307.321 207.285 307.021 207.558 306.659C207.747 306.409 207.971 305.675 208.295 305.583C209.088 305.357 209.792 305.855 210.019 306.652C210.246 307.449 209.786 308.277 208.993 308.503Z" fill="black" fill-opacity="0.12"/>
<path d="M138.993 367.503C138.199 367.729 137.451 367.59 137.225 366.793C137.09 366.321 137.285 366.021 137.558 365.659C137.747 365.409 137.971 364.675 138.295 364.583C139.088 364.357 139.792 364.855 140.019 365.652C140.246 366.449 139.786 367.277 138.993 367.503Z" fill="black" fill-opacity="0.12"/>
<path d="M230.993 439.503C230.199 439.729 229.451 439.59 229.225 438.793C229.09 438.321 229.285 438.021 229.558 437.659C229.747 437.409 229.971 436.675 230.295 436.583C231.088 436.357 231.792 436.855 232.019 437.652C232.246 438.449 231.786 439.277 230.993 439.503Z" fill="black" fill-opacity="0.12"/>
<path d="M136.993 300.503C136.199 300.729 135.451 300.59 135.225 299.793C135.09 299.321 135.285 299.021 135.558 298.659C135.747 298.409 135.971 297.675 136.295 297.583C137.088 297.357 137.792 297.855 138.019 298.652C138.246 299.449 137.786 300.277 136.993 300.503Z" fill="black" fill-opacity="0.12"/>
<ellipse cx="8.32255" cy="25.2393" rx="8.32255" ry="25.2393" transform="matrix(-0.969254 0.246062 0.246062 0.969254 222.56 149.922)" fill="black" fill-opacity="0.2"/>
<path d="M359.484 99.4888C337.464 94.0553 318.296 51.8935 316.077 54.502C314.271 56.626 327.35 90.0206 339.479 107.263C342.003 110.141 355.215 117.177 356.55 118.05C357.885 118.923 359.793 102.261 359.484 99.4888Z" fill="#82644D"/>
<g filter="url(#filter7_i_3_11355)">
<path d="M339.773 125.279C339.773 125.279 399.796 40.1142 403.774 39.779C404.031 52.4081 384.632 93.2664 358.773 138.279C354.405 142.197 234.359 191.501 234.359 191.501C215.38 204.302 203.006 152.428 219.332 149.513C258.379 123.582 261.559 165.607 339.773 125.279Z" fill="#82644D"/>
</g>
<g filter="url(#filter8_i_3_11355)">
<path d="M382.651 72.3052C406.077 74.0073 436.373 36.4384 437.722 39.7176C438.821 42.3878 415.245 71.0854 397.778 84.181C394.371 86.2063 385.39 94.9598 377.511 89.3359C375.917 89.7682 374.638 74.3514 382.651 72.3052Z" fill="#82644D"/>
</g>
<path d="M225.704 281.671C214.82 273.703 207.621 249.508 209.403 236C210.863 241.883 211.794 252.424 214.972 261.328C218.252 270.519 223.788 278.039 225.704 281.671Z" fill="black" fill-opacity="0.2"/>
<path d="M261 433.958C261 443.323 275.06 450.915 292.403 450.915C309.747 450.915 323.807 443.323 323.807 433.958C323.807 424.592 309.747 417 292.403 417C275.06 417 261 424.592 261 433.958Z" fill="black" fill-opacity="0.2"/>
<path d="M179.877 345.134C179.849 331.95 185.164 315.825 187.826 309.41C186.986 314.697 184.996 325.924 183.754 328.532C182.203 331.793 183.822 344.592 182.335 347.013C180.848 349.434 184.086 375.032 185.154 378.071C186.221 381.111 185.026 388.201 184.153 391.092C183.455 393.404 184.77 402.828 185.514 407.251C184.155 402.358 181.573 390.809 182.115 383.753C182.792 374.933 179.912 361.614 179.877 345.134Z" fill="black" fill-opacity="0.12"/>
<g filter="url(#filter9_i_3_11355)">
<path d="M274.329 371.3C262.327 368.147 250.327 352.445 244.609 336.575C241.239 327.223 232.848 318.563 223.391 321.624C179.675 335.775 184.991 402.573 204.753 408.415C226.868 414.952 233.321 411.828 247.14 416.186C260.96 420.544 265.815 437.32 279.638 439.499C293.461 441.679 321.319 454.111 321.319 432.319C321.319 410.527 290.917 375.658 274.329 371.3Z" fill="#82644D"/>
</g>
<path d="M278.931 385.802C278.931 389.493 280.365 392.542 283.876 392.542C285.956 392.542 286.955 391.339 288.115 389.716C288.914 388.599 291.647 386.734 291.647 385.229C291.647 381.538 288.801 379.119 285.289 379.119C281.778 379.119 278.931 382.111 278.931 385.802Z" fill="black" fill-opacity="0.12"/>
<path d="M307.629 395.738C308.607 395.105 309.007 393.952 308.009 392.411C307.418 391.498 306.815 391.267 306.055 391.036C305.532 390.878 304.26 389.998 303.861 390.257C302.883 390.89 303.052 392.555 304.05 394.096C305.048 395.637 306.651 396.372 307.629 395.738Z" fill="black" fill-opacity="0.12"/>
<g filter="url(#filter10_i_3_11355)">
<path d="M85.2218 363.204C94.4637 360.729 103.704 348.131 107.839 335.671C110.097 328.868 115.685 322.544 122.8 323.413C170.668 329.255 160.657 395.22 145.316 399.844C128.739 404.841 112.157 406.506 101.798 409.837C91.4395 413.168 91.4395 424.826 81.0783 426.491C70.7171 428.157 50 426.491 50 409.837C50 393.183 72.7881 366.534 85.2218 363.204Z" fill="#82644D"/>
</g>
<g filter="url(#filter11_iii_3_11355)">
<path d="M283.846 409.134C286.788 412.101 286.441 400.328 287.73 398.74C289.821 398.288 290.481 400.211 292.062 399.795C296.752 398.561 295.823 412.612 300.484 416.817C302.138 418.31 303.299 405.94 306.852 404.917C310.167 403.961 308.865 398.325 308.05 395.857C306.311 388.791 304.573 387.931 302.754 384.262C302.135 383.013 301.63 381.721 300.484 380.822C299.547 380.088 295.843 376.092 294.751 375.542C291.64 373.973 286.324 373.016 282.611 372.461C279.721 372.03 276.254 369.113 273.388 370.269C272.527 370.616 271.28 371.434 270.401 371.775C269.555 372.104 268.035 372.734 267.263 373.179C266.62 373.55 267.095 375.919 266.4 376.347C265.565 376.862 264.85 377.413 263.971 377.856C261.969 378.866 258.945 381.554 260.657 384.093C261.861 385.879 263.874 384.355 265.308 383.722C266.128 383.36 267.161 383.227 268.045 383.425C269.239 383.693 269.888 383.594 269.726 384.737C269.346 387.419 273.634 387.894 276.376 387.894C277.116 388.093 278.785 389.227 279.543 392.173C280.134 393.697 280.286 395.317 280.758 396.863C281.388 398.928 282.287 407.563 283.846 409.134Z" fill="#579858"/>
</g>
<path d="M274.045 375.175C274.045 374.536 274.966 374.218 276.131 374.218C277.296 374.218 277.329 374.616 277.329 375.254C277.329 375.893 276.265 376.025 275.1 376.025C273.935 376.025 274.045 375.813 274.045 375.175Z" fill="white" fill-opacity="0.2"/>
<path d="M294.714 392.372C294.714 391.414 295.635 390.937 296.8 390.937C297.965 390.937 297.998 391.534 297.998 392.492C297.998 393.45 296.934 393.648 295.769 393.648C294.604 393.648 294.714 393.33 294.714 392.372Z" fill="black" fill-opacity="0.12"/>
<path d="M298.472 396.139C298.91 396.566 299.863 396.657 300.156 396.351C300.449 396.045 300.331 395.45 299.893 395.024C299.454 394.597 298.861 394.499 298.568 394.805C298.275 395.111 298.033 395.712 298.472 396.139Z" fill="black" fill-opacity="0.12"/>
<path d="M278.67 374.328C278.67 374.832 279.634 375.241 280.196 375.241C280.758 375.241 281.214 374.832 281.214 374.328C281.214 373.825 280.25 373.188 279.688 373.188C279.126 373.188 278.67 373.825 278.67 374.328Z" fill="white" fill-opacity="0.4"/>
<path d="M277.329 376.779C277.329 377.195 277.664 377.532 278.076 377.532C278.489 377.532 278.823 377.195 278.823 376.779C278.823 376.363 278.041 376.025 277.628 376.025C277.216 376.025 277.329 376.363 277.329 376.779Z" fill="white" fill-opacity="0.2"/>
<path d="M137 369.983C137 372.183 137.902 374 140.111 374C141.42 374 142.048 373.283 142.778 372.316C143.28 371.65 145 370.538 145 369.642C145 367.442 143.209 366 141 366C138.791 366 137 367.783 137 369.983Z" fill="black" fill-opacity="0.12"/>
<path d="M114.402 340.572C113.723 341.231 112.246 341.373 111.791 340.899C111.337 340.426 111.52 339.507 112.2 338.847C112.88 338.187 113.799 338.036 114.253 338.51C114.707 338.983 115.082 339.912 114.402 340.572Z" fill="black" fill-opacity="0.12"/>
<g filter="url(#filter12_i_3_11355)">
<ellipse cx="187.502" cy="205.049" rx="14.5" ry="25.5" fill="black" fill-opacity="0.12"/>
</g>
<ellipse cx="187.502" cy="205.049" rx="14.5" ry="25.5" fill="black" fill-opacity="0.12"/>
<g filter="url(#filter13_i_3_11355)">
<path d="M202.002 199.812C202.002 212.66 197.405 223.049 190.502 223.049C183.598 223.049 175.002 214.397 175.002 201.549C174.501 188.049 182.598 176.549 189.502 176.549C193.517 176.549 198.215 180.072 200.502 185.549C202.146 189.488 202.002 194.437 202.002 199.812Z" fill="#3C2D24"/>
</g>
<g filter="url(#filter14_i_3_11355)">
<path d="M151.495 241.938C145.024 243.58 136.24 235.356 133.492 223.123C120.262 164.224 188.794 232.475 151.495 241.938Z" fill="black" fill-opacity="0.12"/>
</g>
<path d="M151.495 241.938C145.024 243.58 136.24 235.356 133.492 223.123C120.262 164.224 188.794 232.475 151.495 241.938Z" fill="black" fill-opacity="0.12"/>
<g filter="url(#filter15_i_3_11355)">
<path d="M152.484 235.623C146.655 237.015 138.648 229.657 136.058 218.808C123.578 166.532 186.045 227.611 152.484 235.623Z" fill="#3C2D24"/>
</g>
<g filter="url(#filter16_i_3_11355)">
<path d="M146.5 267.799C146.5 260.755 152.211 255.044 159.255 255.044C160.451 255.044 161.557 255.681 162.158 256.715L168.558 267.739C169.137 268.736 170.435 269.039 171.395 268.401L171.5 268.331L172.729 257.878C172.919 256.262 174.289 255.044 175.916 255.044C176.879 255.044 177.791 255.477 178.4 256.222L181.866 260.463C182.653 261.427 184.119 261.445 184.931 260.502L189.625 255.044C191.566 255.044 193.181 256.536 193.336 258.471L196.5 298.179C194.42 300.218 191.315 300.8 188.638 299.653L186.348 298.671C184.5 297.879 182.372 298.098 180.724 299.251L179.216 300.305C178.058 301.115 176.68 301.549 175.268 301.549C172.98 301.549 170.911 300.191 170.001 298.092L164.641 285.734C163.532 283.177 160.001 282.935 158.553 285.317C156.374 288.903 154.948 292.896 154.361 297.052L154.312 297.397L153.784 299.154C153.355 300.576 152.046 301.549 150.561 301.549C148.318 301.549 146.5 299.731 146.5 297.488V267.799Z" fill="#9A7858"/>
</g>
<g filter="url(#filter17_i_3_11355)">
<path d="M143.164 262.841C145.127 255.873 151.5 251 158.739 251C160.255 251 161.656 251.807 162.417 253.118L168.558 263.695C169.137 264.692 170.435 264.995 171.395 264.357L171.5 264.287L172.729 253.834C172.919 252.218 174.289 251 175.916 251C176.879 251 177.791 251.433 178.4 252.178L181.866 256.419C182.653 257.383 184.119 257.401 184.931 256.458L189.625 251C191.607 251 193.297 252.437 193.615 254.393L197.437 277.841C198.141 282.162 198.165 286.566 197.506 290.895L196.973 294.396C196.701 296.184 195.164 297.505 193.355 297.505C193.162 297.505 192.971 297.466 192.794 297.39L186.976 294.896C184.737 293.936 182.161 294.202 180.165 295.598L179.319 296.189C178.094 297.046 176.636 297.505 175.142 297.505C172.9 297.505 170.84 296.27 169.784 294.293L163.297 282.148C162.332 280.34 159.798 280.19 158.625 281.87C156.406 285.052 154.968 288.711 154.426 292.551L154.312 293.353C153.57 295.818 151.3 297.505 148.726 297.505H146.5L144.392 291.918C140.89 282.632 140.473 272.393 143.164 262.841Z" fill="black" fill-opacity="0.7"/>
</g>
<path d="M126.47 299.549C120.872 287.423 125.536 262.665 133 251.549C131.623 257.433 127.743 267.191 126.47 276.549C125.155 286.209 126.47 295.443 126.47 299.549Z" fill="black" fill-opacity="0.2"/>
<path d="M164.5 208.549C158.902 196.423 171.536 185.665 179 174.549C178.345 177.345 177.077 179.968 175.226 182.917C170.252 190.838 164.5 199.196 164.5 208.549Z" fill="black" fill-opacity="0.2"/>
<path d="M124.687 177.864C137.972 176.487 144.068 191.92 152.174 202.576C149.739 201.053 147.667 199.005 145.475 196.3C139.587 189.033 133.538 180.887 124.687 177.864Z" fill="black" fill-opacity="0.2"/>
<path d="M203.073 264.14C208.108 273.245 205.884 292.743 200.714 301.801C201.451 297.152 203.914 289.351 204.374 282.009C204.849 274.43 203.306 267.33 203.073 264.14Z" fill="black" fill-opacity="0.2"/>
<path d="M175.461 163.046C174.64 161.434 173 157.613 173 155.223C173 127.955 176.558 150.105 174.23 157.641C173.984 158.438 174.948 161.576 175.461 163.046Z" fill="black" fill-opacity="0.12"/>
<path d="M172.889 382.086C173.578 392.576 170.88 405.733 169.445 411C169.732 406.741 170.478 397.686 171.167 395.534C172.028 392.845 170.306 382.759 171.167 380.741C172.028 378.724 168.584 358.552 167.722 356.198C166.861 353.845 167.292 348.129 167.722 345.776C168.067 343.893 166.718 336.474 166 333C167.148 336.81 169.445 345.843 169.445 351.491C169.445 358.552 172.028 368.974 172.889 382.086Z" fill="black" fill-opacity="0.12"/>
<path d="M151.111 321.198C150.422 315.684 153.12 308.769 154.555 306C154.268 308.239 153.522 312.998 152.833 314.129C151.972 315.543 153.694 320.845 152.833 321.905C151.972 322.966 155.416 333.569 156.278 334.806C157.139 336.043 156.708 339.047 156.278 340.284C155.933 341.274 157.282 345.174 158 347C156.852 344.997 154.555 340.249 154.555 337.28C154.555 333.569 151.972 328.091 151.111 321.198Z" fill="black" fill-opacity="0.12"/>
<path d="M194 235.549C202.4 234.349 204.166 223.715 204 218.549C204 222.949 199.333 229.715 197 232.549C192.5 234.049 185.6 236.749 194 235.549Z" fill="black" fill-opacity="0.2"/>
<path d="M134.755 238.272C136.984 244.973 145.955 244.843 150.161 243.94C146.558 244.592 141.59 243.482 138.923 241.992C135.923 238.992 132.526 231.571 134.755 238.272Z" fill="black" fill-opacity="0.2"/>
<defs>
<filter id="filter0_i_3_11355" x="217.838" y="275.946" width="77.0173" height="73.6472" filterUnits="userSpaceOnUse" color-interpolation-filters="sRGB">
<feFlood flood-opacity="0" result="BackgroundImageFix"/>
<feBlend mode="normal" in="SourceGraphic" in2="BackgroundImageFix" result="shape"/>
<feColorMatrix in="SourceAlpha" type="matrix" values="0 0 0 0 0 0 0 0 0 0 0 0 0 0 0 0 0 0 127 0" result="hardAlpha"/>
<feOffset dx="23" dy="-18.5153"/>
<feGaussianBlur stdDeviation="9.25766"/>
<feComposite in2="hardAlpha" operator="arithmetic" k2="-1" k3="1"/>
<feColorMatrix type="matrix" values="0 0 0 0 0 0 0 0 0 0 0 0 0 0 0 0 0 0 0.28 0"/>
<feBlend mode="normal" in2="shape" result="effect1_innerShadow_3_11355"/>
</filter>
<filter id="filter1_i_3_11355" x="55.0586" y="292.039" width="89.6776" height="65.6297" filterUnits="userSpaceOnUse" color-interpolation-filters="sRGB">
<feFlood flood-opacity="0" result="BackgroundImageFix"/>
<feBlend mode="normal" in="SourceGraphic" in2="BackgroundImageFix" result="shape"/>
<feColorMatrix in="SourceAlpha" type="matrix" values="0 0 0 0 0 0 0 0 0 0 0 0 0 0 0 0 0 0 127 0" result="hardAlpha"/>
<feOffset dx="0.929534" dy="-9.72242"/>
<feGaussianBlur stdDeviation="5.02451"/>
<feComposite in2="hardAlpha" operator="arithmetic" k2="-1" k3="1"/>
<feColorMatrix type="matrix" values="0 0 0 0 0 0 0 0 0 0 0 0 0 0 0 0 0 0 0.28 0"/>
<feBlend mode="normal" in2="shape" result="effect1_innerShadow_3_11355"/>
</filter>
<filter id="filter2_iii_3_11355" x="76.2148" y="-4.15527" width="157.508" height="173.912" filterUnits="userSpaceOnUse" color-interpolation-filters="sRGB">
<feFlood flood-opacity="0" result="BackgroundImageFix"/>
<feBlend mode="normal" in="SourceGraphic" in2="BackgroundImageFix" result="shape"/>
<feColorMatrix in="SourceAlpha" type="matrix" values="0 0 0 0 0 0 0 0 0 0 0 0 0 0 0 0 0 0 127 0" result="hardAlpha"/>
<feOffset dy="4"/>
<feGaussianBlur stdDeviation="2"/>
<feComposite in2="hardAlpha" operator="arithmetic" k2="-1" k3="1"/>
<feColorMatrix type="matrix" values="0 0 0 0 1 0 0 0 0 1 0 0 0 0 1 0 0 0 0.31 0"/>
<feBlend mode="normal" in2="shape" result="effect1_innerShadow_3_11355"/>
<feColorMatrix in="SourceAlpha" type="matrix" values="0 0 0 0 0 0 0 0 0 0 0 0 0 0 0 0 0 0 127 0" result="hardAlpha"/>
<feOffset dx="-2" dy="-49"/>
<feGaussianBlur stdDeviation="13.5"/>
<feComposite in2="hardAlpha" operator="arithmetic" k2="-1" k3="1"/>
<feColorMatrix type="matrix" values="0 0 0 0 0 0 0 0 0 0 0 0 0 0 0 0 0 0 0.25 0"/>
<feBlend mode="normal" in2="effect1_innerShadow_3_11355" result="effect2_innerShadow_3_11355"/>
<feColorMatrix in="SourceAlpha" type="matrix" values="0 0 0 0 0 0 0 0 0 0 0 0 0 0 0 0 0 0 127 0" result="hardAlpha"/>
<feOffset dx="-32" dy="-16"/>
<feGaussianBlur stdDeviation="21.5"/>
<feComposite in2="hardAlpha" operator="arithmetic" k2="-1" k3="1"/>
<feColorMatrix type="matrix" values="0 0 0 0 0 0 0 0 0 0 0 0 0 0 0 0 0 0 0.25 0"/>
<feBlend mode="normal" in2="effect2_innerShadow_3_11355" result="effect3_innerShadow_3_11355"/>
</filter>
<filter id="filter3_i_3_11355" x="120" y="101" width="120.312" height="94.2432" filterUnits="userSpaceOnUse" color-interpolation-filters="sRGB">
<feFlood flood-opacity="0" result="BackgroundImageFix"/>
<feBlend mode="normal" in="SourceGraphic" in2="BackgroundImageFix" result="shape"/>
<feColorMatrix in="SourceAlpha" type="matrix" values="0 0 0 0 0 0 0 0 0 0 0 0 0 0 0 0 0 0 127 0" result="hardAlpha"/>
<feOffset dx="8" dy="2"/>
<feGaussianBlur stdDeviation="8"/>
<feComposite in2="hardAlpha" operator="arithmetic" k2="-1" k3="1"/>
<feColorMatrix type="matrix" values="0 0 0 0 0 0 0 0 0 0 0 0 0 0 0 0 0 0 0.25 0"/>
<feBlend mode="normal" in2="shape" result="effect1_innerShadow_3_11355"/>
</filter>
<filter id="filter4_i_3_11355" x="30.2383" y="174.561" width="43.29" height="33.1973" filterUnits="userSpaceOnUse" color-interpolation-filters="sRGB">
<feFlood flood-opacity="0" result="BackgroundImageFix"/>
<feBlend mode="normal" in="SourceGraphic" in2="BackgroundImageFix" result="shape"/>
<feColorMatrix in="SourceAlpha" type="matrix" values="0 0 0 0 0 0 0 0 0 0 0 0 0 0 0 0 0 0 127 0" result="hardAlpha"/>
<feOffset dx="7" dy="23.8664"/>
<feComposite in2="hardAlpha" operator="arithmetic" k2="-1" k3="1"/>
<feColorMatrix type="matrix" values="0 0 0 0 0 0 0 0 0 0 0 0 0 0 0 0 0 0 0.15 0"/>
<feBlend mode="normal" in2="shape" result="effect1_innerShadow_3_11355"/>
</filter>
<filter id="filter5_i_3_11355" x="16.2471" y="122.532" width="177.293" height="81.2254" filterUnits="userSpaceOnUse" color-interpolation-filters="sRGB">
<feFlood flood-opacity="0" result="BackgroundImageFix"/>
<feBlend mode="normal" in="SourceGraphic" in2="BackgroundImageFix" result="shape"/>
<feColorMatrix in="SourceAlpha" type="matrix" values="0 0 0 0 0 0 0 0 0 0 0 0 0 0 0 0 0 0 127 0" result="hardAlpha"/>
<feOffset dx="10.049" dy="-17.5858"/>
<feGaussianBlur stdDeviation="10.049"/>
<feComposite in2="hardAlpha" operator="arithmetic" k2="-1" k3="1"/>
<feColorMatrix type="matrix" values="0 0 0 0 0 0 0 0 0 0 0 0 0 0 0 0 0 0 0.25 0"/>
<feBlend mode="normal" in2="shape" result="effect1_innerShadow_3_11355"/>
</filter>
<filter id="filter6_iii_3_11355" x="88.7227" y="69.6602" width="186.611" height="347.62" filterUnits="userSpaceOnUse" color-interpolation-filters="sRGB">
<feFlood flood-opacity="0" result="BackgroundImageFix"/>
<feBlend mode="normal" in="SourceGraphic" in2="BackgroundImageFix" result="shape"/>
<feColorMatrix in="SourceAlpha" type="matrix" values="0 0 0 0 0 0 0 0 0 0 0 0 0 0 0 0 0 0 127 0" result="hardAlpha"/>
<feOffset dx="15" dy="-17"/>
<feGaussianBlur stdDeviation="16"/>
<feComposite in2="hardAlpha" operator="arithmetic" k2="-1" k3="1"/>
<feColorMatrix type="matrix" values="0 0 0 0 0 0 0 0 0 0 0 0 0 0 0 0 0 0 0.25 0"/>
<feBlend mode="normal" in2="shape" result="effect1_innerShadow_3_11355"/>
<feColorMatrix in="SourceAlpha" type="matrix" values="0 0 0 0 0 0 0 0 0 0 0 0 0 0 0 0 0 0 127 0" result="hardAlpha"/>
<feOffset dx="-21" dy="6.28064"/>
<feGaussianBlur stdDeviation="10"/>
<feComposite in2="hardAlpha" operator="arithmetic" k2="-1" k3="1"/>
<feColorMatrix type="matrix" values="0 0 0 0 1 0 0 0 0 1 0 0 0 0 1 0 0 0 0.15 0"/>
<feBlend mode="normal" in2="effect1_innerShadow_3_11355" result="effect2_innerShadow_3_11355"/>
<feColorMatrix in="SourceAlpha" type="matrix" values="0 0 0 0 0 0 0 0 0 0 0 0 0 0 0 0 0 0 127 0" result="hardAlpha"/>
<feOffset dx="33" dy="-39"/>
<feGaussianBlur stdDeviation="19"/>
<feComposite in2="hardAlpha" operator="arithmetic" k2="-1" k3="1"/>
<feColorMatrix type="matrix" values="0 0 0 0 0 0 0 0 0 0 0 0 0 0 0 0 0 0 0.25 0"/>
<feBlend mode="normal" in2="effect2_innerShadow_3_11355" result="effect3_innerShadow_3_11355"/>
</filter>
<filter id="filter7_i_3_11355" x="211.75" y="36.0109" width="203.332" height="157.517" filterUnits="userSpaceOnUse" color-interpolation-filters="sRGB">
<feFlood flood-opacity="0" result="BackgroundImageFix"/>
<feBlend mode="normal" in="SourceGraphic" in2="BackgroundImageFix" result="shape"/>
<feColorMatrix in="SourceAlpha" type="matrix" values="0 0 0 0 0 0 0 0 0 0 0 0 0 0 0 0 0 0 127 0" result="hardAlpha"/>
<feOffset dx="11.3051" dy="-3.76838"/>
<feGaussianBlur stdDeviation="7.53676"/>
<feComposite in2="hardAlpha" operator="arithmetic" k2="-1" k3="1"/>
<feColorMatrix type="matrix" values="0 0 0 0 0 0 0 0 0 0 0 0 0 0 0 0 0 0 0.25 0"/>
<feBlend mode="normal" in2="shape" result="effect1_innerShadow_3_11355"/>
</filter>
<filter id="filter8_i_3_11355" x="376.322" y="29.4656" width="71.4865" height="61.7268" filterUnits="userSpaceOnUse" color-interpolation-filters="sRGB">
<feFlood flood-opacity="0" result="BackgroundImageFix"/>
<feBlend mode="normal" in="SourceGraphic" in2="BackgroundImageFix" result="shape"/>
<feColorMatrix in="SourceAlpha" type="matrix" values="0 0 0 0 0 0 0 0 0 0 0 0 0 0 0 0 0 0 127 0" result="hardAlpha"/>
<feOffset dx="10.049" dy="-10.049"/>
<feGaussianBlur stdDeviation="7.53676"/>
<feComposite in2="hardAlpha" operator="arithmetic" k2="-1" k3="1"/>
<feColorMatrix type="matrix" values="0 0 0 0 0 0 0 0 0 0 0 0 0 0 0 0 0 0 0.25 0"/>
<feBlend mode="normal" in2="shape" result="effect1_innerShadow_3_11355"/>
</filter>
<filter id="filter9_i_3_11355" x="190" y="308.048" width="144.269" height="136.952" filterUnits="userSpaceOnUse" color-interpolation-filters="sRGB">
<feFlood flood-opacity="0" result="BackgroundImageFix"/>
<feBlend mode="normal" in="SourceGraphic" in2="BackgroundImageFix" result="shape"/>
<feColorMatrix in="SourceAlpha" type="matrix" values="0 0 0 0 0 0 0 0 0 0 0 0 0 0 0 0 0 0 127 0" result="hardAlpha"/>
<feOffset dx="18" dy="-12.9494"/>
<feGaussianBlur stdDeviation="6.47472"/>
<feComposite in2="hardAlpha" operator="arithmetic" k2="-1" k3="1"/>
<feColorMatrix type="matrix" values="0 0 0 0 0 0 0 0 0 0 0 0 0 0 0 0 0 0 0.28 0"/>
<feBlend mode="normal" in2="shape" result="effect1_innerShadow_3_11355"/>
</filter>
<filter id="filter10_i_3_11355" x="50" y="308.306" width="110" height="118.694" filterUnits="userSpaceOnUse" color-interpolation-filters="sRGB">
<feFlood flood-opacity="0" result="BackgroundImageFix"/>
<feBlend mode="normal" in="SourceGraphic" in2="BackgroundImageFix" result="shape"/>
<feColorMatrix in="SourceAlpha" type="matrix" values="0 0 0 0 0 0 0 0 0 0 0 0 0 0 0 0 0 0 127 0" result="hardAlpha"/>
<feOffset dx="2" dy="-20"/>
<feGaussianBlur stdDeviation="7.51362"/>
<feComposite in2="hardAlpha" operator="arithmetic" k2="-1" k3="1"/>
<feColorMatrix type="matrix" values="0 0 0 0 0 0 0 0 0 0 0 0 0 0 0 0 0 0 0.28 0"/>
<feBlend mode="normal" in2="shape" result="effect1_innerShadow_3_11355"/>
</filter>
<filter id="filter11_iii_3_11355" x="260.151" y="347" width="56.8486" height="69.9424" filterUnits="userSpaceOnUse" color-interpolation-filters="sRGB">
<feFlood flood-opacity="0" result="BackgroundImageFix"/>
<feBlend mode="normal" in="SourceGraphic" in2="BackgroundImageFix" result="shape"/>
<feColorMatrix in="SourceAlpha" type="matrix" values="0 0 0 0 0 0 0 0 0 0 0 0 0 0 0 0 0 0 127 0" result="hardAlpha"/>
<feOffset dx="8" dy="-35"/>
<feGaussianBlur stdDeviation="11.5"/>
<feComposite in2="hardAlpha" operator="arithmetic" k2="-1" k3="1"/>
<feColorMatrix type="matrix" values="0 0 0 0 0 0 0 0 0 0 0 0 0 0 0 0 0 0 0.25 0"/>
<feBlend mode="normal" in2="shape" result="effect1_innerShadow_3_11355"/>
<feColorMatrix in="SourceAlpha" type="matrix" values="0 0 0 0 0 0 0 0 0 0 0 0 0 0 0 0 0 0 127 0" result="hardAlpha"/>
<feOffset dx="-56" dy="74"/>
<feGaussianBlur stdDeviation="10"/>
<feComposite in2="hardAlpha" operator="arithmetic" k2="-1" k3="1"/>
<feColorMatrix type="matrix" values="0 0 0 0 1 0 0 0 0 1 0 0 0 0 1 0 0 0 0.25 0"/>
<feBlend mode="normal" in2="effect1_innerShadow_3_11355" result="effect2_innerShadow_3_11355"/>
<feColorMatrix in="SourceAlpha" type="matrix" values="0 0 0 0 0 0 0 0 0 0 0 0 0 0 0 0 0 0 127 0" result="hardAlpha"/>
<feOffset dx="5" dy="-5"/>
<feGaussianBlur stdDeviation="4"/>
<feComposite in2="hardAlpha" operator="arithmetic" k2="-1" k3="1"/>
<feColorMatrix type="matrix" values="0 0 0 0 0 0 0 0 0 0 0 0 0 0 0 0 0 0 0.25 0"/>
<feBlend mode="normal" in2="effect2_innerShadow_3_11355" result="effect3_innerShadow_3_11355"/>
</filter>
<filter id="filter12_i_3_11355" x="173.002" y="179.549" width="35" height="55" filterUnits="userSpaceOnUse" color-interpolation-filters="sRGB">
<feFlood flood-opacity="0" result="BackgroundImageFix"/>
<feBlend mode="normal" in="SourceGraphic" in2="BackgroundImageFix" result="shape"/>
<feColorMatrix in="SourceAlpha" type="matrix" values="0 0 0 0 0 0 0 0 0 0 0 0 0 0 0 0 0 0 127 0" result="hardAlpha"/>
<feOffset dx="10" dy="4"/>
<feGaussianBlur stdDeviation="3"/>
<feComposite in2="hardAlpha" operator="arithmetic" k2="-1" k3="1"/>
<feColorMatrix type="matrix" values="0 0 0 0 0 0 0 0 0 0 0 0 0 0 0 0 0 0 0.25 0"/>
<feBlend mode="normal" in2="shape" result="effect1_innerShadow_3_11355"/>
</filter>
<filter id="filter13_i_3_11355" x="174.979" y="176.549" width="33.0254" height="49.5" filterUnits="userSpaceOnUse" color-interpolation-filters="sRGB">
<feFlood flood-opacity="0" result="BackgroundImageFix"/>
<feBlend mode="normal" in="SourceGraphic" in2="BackgroundImageFix" result="shape"/>
<feColorMatrix in="SourceAlpha" type="matrix" values="0 0 0 0 0 0 0 0 0 0 0 0 0 0 0 0 0 0 127 0" result="hardAlpha"/>
<feOffset dx="13" dy="3"/>
<feGaussianBlur stdDeviation="3"/>
<feComposite in2="hardAlpha" operator="arithmetic" k2="-1" k3="1"/>
<feColorMatrix type="matrix" values="0 0 0 0 0 0 0 0 0 0 0 0 0 0 0 0 0 0 0.25 0"/>
<feBlend mode="normal" in2="shape" result="effect1_innerShadow_3_11355"/>
</filter>
<filter id="filter14_i_3_11355" x="125.771" y="199.42" width="36.9727" height="45.7266" filterUnits="userSpaceOnUse" color-interpolation-filters="sRGB">
<feFlood flood-opacity="0" result="BackgroundImageFix"/>
<feBlend mode="normal" in="SourceGraphic" in2="BackgroundImageFix" result="shape"/>
<feColorMatrix in="SourceAlpha" type="matrix" values="0 0 0 0 0 0 0 0 0 0 0 0 0 0 0 0 0 0 127 0" result="hardAlpha"/>
<feOffset dx="-12" dy="3"/>
<feGaussianBlur stdDeviation="3"/>
<feComposite in2="hardAlpha" operator="arithmetic" k2="-1" k3="1"/>
<feColorMatrix type="matrix" values="0 0 0 0 0 0 0 0 0 0 0 0 0 0 0 0 0 0 0.25 0"/>
<feBlend mode="normal" in2="shape" result="effect1_innerShadow_3_11355"/>
</filter>
<filter id="filter15_i_3_11355" x="128.384" y="197.865" width="34.1299" height="40.9268" filterUnits="userSpaceOnUse" color-interpolation-filters="sRGB">
<feFlood flood-opacity="0" result="BackgroundImageFix"/>
<feBlend mode="normal" in="SourceGraphic" in2="BackgroundImageFix" result="shape"/>
<feColorMatrix in="SourceAlpha" type="matrix" values="0 0 0 0 0 0 0 0 0 0 0 0 0 0 0 0 0 0 127 0" result="hardAlpha"/>
<feOffset dx="-12" dy="3"/>
<feGaussianBlur stdDeviation="3"/>
<feComposite in2="hardAlpha" operator="arithmetic" k2="-1" k3="1"/>
<feColorMatrix type="matrix" values="0 0 0 0 0 0 0 0 0 0 0 0 0 0 0 0 0 0 0.25 0"/>
<feBlend mode="normal" in2="shape" result="effect1_innerShadow_3_11355"/>
</filter>
<filter id="filter16_i_3_11355" x="146.5" y="253.044" width="52" height="48.5049" filterUnits="userSpaceOnUse" color-interpolation-filters="sRGB">
<feFlood flood-opacity="0" result="BackgroundImageFix"/>
<feBlend mode="normal" in="SourceGraphic" in2="BackgroundImageFix" result="shape"/>
<feColorMatrix in="SourceAlpha" type="matrix" values="0 0 0 0 0 0 0 0 0 0 0 0 0 0 0 0 0 0 127 0" result="hardAlpha"/>
<feOffset dx="2" dy="-2"/>
<feGaussianBlur stdDeviation="3"/>
<feComposite in2="hardAlpha" operator="arithmetic" k2="-1" k3="1"/>
<feColorMatrix type="matrix" values="0 0 0 0 0 0 0 0 0 0 0 0 0 0 0 0 0 0 0.25 0"/>
<feBlend mode="normal" in2="shape" result="effect1_innerShadow_3_11355"/>
</filter>
<filter id="filter17_i_3_11355" x="139.415" y="251" width="58.5684" height="52.5049" filterUnits="userSpaceOnUse" color-interpolation-filters="sRGB">
<feFlood flood-opacity="0" result="BackgroundImageFix"/>
<feBlend mode="normal" in="SourceGraphic" in2="BackgroundImageFix" result="shape"/>
<feColorMatrix in="SourceAlpha" type="matrix" values="0 0 0 0 0 0 0 0 0 0 0 0 0 0 0 0 0 0 127 0" result="hardAlpha"/>
<feOffset dx="-2" dy="14"/>
<feGaussianBlur stdDeviation="3"/>
<feComposite in2="hardAlpha" operator="arithmetic" k2="-1" k3="1"/>
<feColorMatrix type="matrix" values="0 0 0 0 0 0 0 0 0 0 0 0 0 0 0 0 0 0 0.25 0"/>
<feBlend mode="normal" in2="shape" result="effect1_innerShadow_3_11355"/>
</filter>
</defs>
</svg>
