<svg width="417" height="624" viewBox="0 0 417 624" fill="none" xmlns="http://www.w3.org/2000/svg">
<path fill-rule="evenodd" clip-rule="evenodd" d="M76.1387 522.342C76.1387 530.621 92.719 537.332 113.172 537.332C116.247 537.332 119.235 537.18 122.092 536.894C112.853 543.311 107.541 550.824 107.541 558.854C107.541 564.652 110.31 570.18 115.327 575.22C103.256 575.764 93.7234 582.289 93.7234 590.257C93.7234 598.582 104.128 605.33 116.962 605.33C129.796 605.33 140.2 598.582 140.2 590.257C140.2 590.214 140.2 590.172 140.199 590.129C158.477 597.223 182.981 601.562 209.915 601.562C266.455 601.562 312.289 582.441 312.289 558.854C312.289 535.267 266.455 516.145 209.915 516.145C187.501 516.145 166.769 519.15 149.909 524.247C150.104 523.624 150.205 522.988 150.205 522.342C150.205 514.064 133.625 507.353 113.172 507.353C92.719 507.353 76.1387 514.064 76.1387 522.342Z" fill="black" fill-opacity="0.2"/>
<ellipse cx="75.3676" cy="33.2874" rx="75.3676" ry="33.2874" transform="matrix(-1 0 0 1 299.727 521.17)" fill="black" fill-opacity="0.2"/>
<ellipse cx="36.9714" cy="15.0276" rx="36.9714" ry="15.0276" transform="matrix(-0.996785 -0.0801262 -0.121291 0.992617 334.369 512.021)" fill="black" fill-opacity="0.2"/>
<g filter="url(#filter0_i_3_11353)">
<path d="M270.838 479.461L273.79 529.426C296.938 523.66 285.84 537.301 321.848 532.58C324.67 532.21 327.179 530.379 327.998 527.653C336.174 500.451 305.723 472.816 270.838 479.461Z" fill="#82644D"/>
</g>
<g filter="url(#filter1_i_3_11353)">
<path d="M160.568 485.274C172.245 481.983 171.885 469.525 170.245 463.708C182.374 486.246 204.003 532.062 193.494 535.024C180.358 538.726 131.948 523.482 126.585 521.225C119.675 518.317 115.447 525.018 104.329 527.498C93.2102 529.978 84.4426 526.822 82.8162 521.051C81.1898 515.28 80.9715 493.538 102.867 487.368C133.887 478.626 145.972 489.387 160.568 485.274Z" fill="#82644D"/>
</g>
<g filter="url(#filter2_iii_3_11353)">
<path d="M84.3048 517.476C80.7989 516.455 81.5803 509.833 82.2155 507.379L82.9577 505.111C83.9259 502.198 86.9534 499.155 88.3461 497.998C90.7659 495.532 91.9108 491.771 93.4047 488.728C94.0986 487.314 94.6636 485.852 95.9477 484.835C96.9969 484.003 98.0648 482.853 99.2879 482.23C101.79 480.956 105.21 481.922 107.948 481.922C110.886 481.922 113.391 479.835 116.264 479.402C119.501 478.913 125.738 478.697 126.752 479.094C131.832 480.004 133.982 482.61 134.423 483.799C135.134 485.341 135.763 489.104 132.581 491.808C131.243 492.111 130.516 492 130.697 493.293C131.123 496.328 130.016 498.558 126.945 498.558C124.814 498.558 123.218 498.141 121.185 499.062C120.504 499.37 119.951 501.056 119.701 501.708C119.039 503.432 118.868 505.266 118.34 507.015C117.634 509.352 117.474 511.762 115.728 513.541C112.433 516.898 111 510.549 109.556 508.752C107.339 505.991 104.866 512.382 103.123 513.037C102.309 513.342 101.136 513.28 100.415 512.813C99.9166 512.489 99.5672 511.903 98.9855 511.72C96.9265 511.075 95.728 513.395 94.4768 514.535C93.7271 515.218 91.5976 516.794 91.3703 514.941C91.2901 514.287 90.5116 511.901 89.7482 511.678C87.6395 511.065 87.3088 518.35 84.3048 517.476Z" fill="#579858"/>
</g>
<path d="M95.6609 504.642C95.6609 502.845 93.9807 501.949 91.8539 501.949C89.7272 501.949 89.666 503.069 89.666 504.867C89.666 506.664 91.6088 507.036 93.7355 507.036C95.8622 507.036 95.6609 506.439 95.6609 504.642Z" fill="black" fill-opacity="0.12"/>
<path d="M88.5408 509.548C87.7464 510.329 85.9962 510.471 85.4486 509.893C84.9011 509.315 85.1012 508.213 85.8956 507.432C86.69 506.652 87.7778 506.487 88.3254 507.065C88.8729 507.643 89.3352 508.767 88.5408 509.548Z" fill="black" fill-opacity="0.12"/>
<path fill-rule="evenodd" clip-rule="evenodd" d="M114.39 487.188C114.602 487.622 114.885 487.987 115.216 488.226C115.304 488.289 115.392 488.355 115.482 488.421C116.559 489.213 117.776 490.109 118.676 488.772C119.651 487.324 120.849 485.21 119.712 484.389C118.575 483.567 115.449 482.193 114.475 483.641C114.406 483.743 114.345 483.85 114.291 483.96C114.229 483.933 114.161 483.917 114.087 483.913C113.28 483.867 111.326 484.181 111.272 485.212C111.217 486.244 112.189 487.21 112.995 487.256C113.058 487.259 113.121 487.263 113.185 487.268C113.607 487.295 114.06 487.325 114.39 487.188ZM109.214 488.285C108.481 488.243 107.587 487.554 107.625 486.831C107.662 486.109 109.436 485.912 110.169 485.954C110.903 485.995 110.947 487.001 110.909 487.723C110.874 488.39 110.084 488.34 109.386 488.295C109.328 488.291 109.27 488.288 109.214 488.285ZM116.956 491.637C116.918 492.359 117.534 493.032 118.047 493.061C118.086 493.063 118.126 493.066 118.167 493.068L118.167 493.068L118.167 493.068C118.655 493.101 119.208 493.138 119.243 492.472C119.28 491.75 119.265 490.747 118.752 490.718C118.239 490.689 116.994 490.916 116.956 491.637ZM124.884 488.667C124.414 488.886 123.568 488.583 123.281 487.926C123.196 487.732 123.225 487.526 123.319 487.326C123.064 487.132 122.976 486.596 122.987 486.349C123.001 486.049 123.561 486.037 123.964 486.058C124.19 486.069 124.272 486.192 124.298 486.351C124.361 486.313 124.42 486.281 124.473 486.257C124.942 486.038 125.401 486.919 125.688 487.576C125.952 488.182 125.444 488.412 124.995 488.616L124.995 488.616C124.957 488.633 124.92 488.65 124.884 488.667Z" fill="white" fill-opacity="0.2"/>
<path d="M328.88 71.4486C318.472 49.5288 345.986 3.20246 341.601 2.44872C338.031 1.83496 322.361 28.6378 313.029 47.2776C311.838 50.8294 307.049 75.8358 307.105 77.4149C307.161 78.9941 326.176 72.9978 328.88 71.4486Z" fill="#82644D"/>
<g filter="url(#filter3_iii_3_11353)">
<path fill-rule="evenodd" clip-rule="evenodd" d="M282.311 144.549C252.442 159.296 218.473 163.042 218.473 163.042L181.576 314.384C174.199 342.178 154.022 487.21 150.048 516.027C149.215 519.767 148.777 523.634 148.777 527.591C148.777 560.315 178.67 586.843 215.544 586.843C252.418 586.843 282.311 560.315 282.311 527.591C282.311 519.809 280.62 512.377 277.547 505.57C277.523 505.423 277.497 505.277 277.469 505.13C271.043 472.038 260.5 391.669 260.5 220.549C263.093 217.511 268.726 213.514 275.547 208.674C291.311 197.489 313.421 181.802 319 163.042C321.935 153.176 325.248 134.021 319 106.549C315.648 91.8095 331.96 74.7749 344.419 61.7638C352.264 53.571 358.582 46.9734 357.5 43.5488C338.5 49.5488 284.804 81.1197 285 103.049C285.034 106.749 285.185 110.159 285.329 113.412C285.794 123.914 286.187 132.786 282.311 144.549Z" fill="#82644D"/>
</g>
<path d="M259.354 449.632C259.354 452.244 258.339 454.402 255.854 454.402C254.381 454.402 253.675 453.551 252.854 452.402C252.288 451.612 250.354 450.292 250.354 449.227C250.354 446.615 252.368 444.902 254.854 444.902C257.339 444.902 259.354 447.02 259.354 449.632Z" fill="black" fill-opacity="0.12"/>
<path d="M249.269 435.843C248.476 436.069 247.728 435.93 247.501 435.133C247.367 434.661 247.561 434.361 247.835 433.999C248.023 433.749 248.248 433.015 248.571 432.923C249.365 432.697 250.069 433.195 250.295 433.992C250.522 434.788 250.063 435.617 249.269 435.843Z" fill="black" fill-opacity="0.12"/>
<path d="M179.269 494.843C178.476 495.069 177.728 494.93 177.501 494.133C177.367 493.661 177.561 493.361 177.835 492.999C178.023 492.749 178.248 492.015 178.571 491.923C179.365 491.697 180.069 492.195 180.295 492.992C180.522 493.788 180.063 494.617 179.269 494.843Z" fill="black" fill-opacity="0.12"/>
<path d="M271.269 566.843C270.476 567.069 269.728 566.93 269.501 566.133C269.367 565.661 269.561 565.361 269.835 564.999C270.023 564.749 270.248 564.015 270.571 563.923C271.365 563.697 272.069 564.195 272.295 564.992C272.522 565.788 272.063 566.617 271.269 566.843Z" fill="black" fill-opacity="0.12"/>
<path d="M177.269 427.843C176.476 428.069 175.728 427.93 175.501 427.133C175.367 426.661 175.561 426.361 175.835 425.999C176.023 425.749 176.248 425.015 176.571 424.923C177.365 424.697 178.069 425.195 178.295 425.992C178.522 426.788 178.063 427.617 177.269 427.843Z" fill="black" fill-opacity="0.12"/>
<ellipse cx="219.753" cy="201.072" rx="8.32255" ry="22.9124" transform="rotate(12.6278 219.753 201.072)" fill="black" fill-opacity="0.2"/>
<path d="M85.7909 118.038C107.811 112.604 126.98 70.4424 129.198 73.0508C131.004 75.1748 117.925 108.569 105.797 125.812C103.272 128.69 90.0599 135.726 88.7252 136.599C87.3905 137.472 85.4827 120.81 85.7909 118.038Z" fill="#82644D"/>
<g filter="url(#filter4_ii_3_11353)">
<path d="M105.502 143.828C105.502 143.828 45.4799 58.663 41.5018 58.3278C41.2446 70.9569 60.643 111.815 86.5022 156.828C90.8708 160.746 210.916 210.049 210.916 210.049C229.896 222.851 242.269 170.977 225.943 168.061C186.896 142.131 183.716 184.156 105.502 143.828Z" fill="#82644D"/>
</g>
<g filter="url(#filter5_i_3_11353)">
<path d="M62.6256 90.854C39.1998 92.5561 8.90299 54.9873 7.55406 58.2665C6.45564 60.9367 30.0314 89.6342 47.4981 102.73C50.9057 104.755 59.8866 113.509 67.765 107.885C69.359 108.317 70.6387 92.9003 62.6256 90.854Z" fill="#82644D"/>
</g>
<ellipse cx="217.417" cy="297.811" rx="20.3696" ry="36.8878" transform="rotate(-0.236948 217.417 297.811)" fill="black" fill-opacity="0.2"/>
<path d="M208.583 338.05C197.974 329.937 190.546 305.863 191.96 292.549C193.488 298.396 194.609 308.837 197.85 317.708C201.195 326.865 206.667 334.418 208.583 338.05Z" fill="black" fill-opacity="0.2"/>
<ellipse cx="244.546" cy="248.321" rx="13.624" ry="23.7227" transform="rotate(-4.76118 244.546 248.321)" fill="black" fill-opacity="0.2"/>
<g filter="url(#filter6_i_3_11353)">
<path d="M109.581 314.343C115.727 320.579 94.1844 342.901 97.4491 350.707C106.461 352.395 119.579 337.561 133.595 323.728C134.813 320.738 135.077 321.523 134.17 319.841C133.264 318.159 115.516 314.355 109.581 314.343Z" fill="#82644D"/>
</g>
<g filter="url(#filter7_ii_3_11353)">
<path d="M235.307 295.159C240.452 284.103 237.786 270.127 227.843 260.937C217.336 255.598 209.056 249.646 198.463 261.107C196.49 263.242 194.928 265.618 193.772 268.144C188.381 288.661 179.763 299.253 179.763 299.253C174.422 302.684 162.181 308.256 140.825 311.396C-23.0999 311.396 167.66 342.272 189.186 323.33C198.679 317.42 217.707 316.773 227.718 305.445C230.401 302.409 232.381 300.168 233.273 299.253C234.188 297.828 234.858 296.465 235.307 295.159Z" fill="#82644D"/>
</g>
<path d="M389.225 218.229C377.042 199.098 392.274 155.36 388.869 155.716C386.096 156.006 372.509 189.197 369.383 210.045C369.224 213.87 373.927 228.081 374.29 229.634C374.653 231.187 387.535 220.447 389.225 218.229Z" fill="#82644D"/>
<g filter="url(#filter8_ii_3_11353)">
<path fill-rule="evenodd" clip-rule="evenodd" d="M256.221 262.656C264.729 261.243 274.644 259.595 283.629 261.36C303.433 265.251 320.553 265.77 329.141 265.251C360.242 263.371 367.51 260.746 372.56 252.101C373.28 250.87 374.098 249.486 374.994 247.978C394.092 245.414 414.803 239.021 415.284 236.728C415.649 234.987 403.585 235.657 391.884 236.306C388.315 236.505 384.779 236.701 381.641 236.827C393.504 216.876 409.129 189.904 405.501 187.51C400.778 184.395 380.715 206.169 357.47 236.896C344.858 243.424 328.837 239.684 320.553 235.727C319.794 235.364 318.462 234.689 316.673 233.781C303.316 227.005 264.465 207.297 248.011 208.292C233.083 209.194 226.66 237.091 235.697 260.376C237.772 265.721 245.975 264.358 256.221 262.656Z" fill="#82644D"/>
</g>
<g opacity="0.78" filter="url(#filter9_i_3_11353)">
<path d="M370.467 236.133C370.638 238.957 415.987 233.375 415.285 236.726C414.713 239.455 385.499 247.988 364.441 248.968C360.351 246.948 364.888 237.604 370.467 236.133Z" fill="black" fill-opacity="0.12"/>
</g>
<path d="M294.703 606.702C294.703 616.067 308.763 623.66 326.107 623.66C343.45 623.66 357.51 616.067 357.51 606.702C357.51 597.336 343.45 589.744 326.107 589.744C308.763 589.744 294.703 597.336 294.703 606.702Z" fill="black" fill-opacity="0.2"/>
<path d="M161.088 485.388C161.678 468.708 165.97 448.06 168.043 439.821C167.238 446.549 165.391 460.845 164.442 464.203C163.256 468.401 163.746 484.52 162.641 487.651C161.537 490.783 162.515 523.021 163.087 526.818C163.66 530.614 162.534 539.641 161.818 543.338C161.246 546.296 161.688 558.159 161.98 563.721C161.299 557.593 160.109 543.1 160.797 534.147C161.657 522.956 160.35 506.237 161.088 485.388Z" fill="black" fill-opacity="0.12"/>
<g filter="url(#filter10_i_3_11353)">
<path d="M310.792 540.553C298.794 537.316 286.798 520.032 282.267 503.813C280.339 496.912 274.826 490.68 267.682 491.244C205.883 496.116 218.218 579.905 237.284 585.692C257.561 591.848 277.845 593.899 290.516 598.003C303.187 602.107 303.187 616.469 315.861 618.521C328.535 620.573 353.877 618.521 353.877 598.003C353.877 577.485 326.002 544.655 310.792 540.553Z" fill="#82644D"/>
</g>
<g filter="url(#filter11_i_3_11353)">
<path d="M129.257 542.781C140.998 539.697 152.735 519.646 152.736 505.766C197 505.766 194.152 564.422 178.5 569.049C162.848 573.676 158.281 571.464 148.5 574.549C138.719 577.634 135.283 589.507 125.5 591.049C115.717 592.591 96 601.39 96 585.967C96 570.544 117.517 545.865 129.257 542.781Z" fill="#82644D"/>
</g>
<path d="M136 562.279C136 564.891 134.985 567.049 132.5 567.049C131.028 567.049 130.321 566.197 129.5 565.049C128.935 564.258 127 562.938 127 561.873C127 559.261 129.015 557.549 131.5 557.549C133.985 557.549 136 559.666 136 562.279Z" fill="black" fill-opacity="0.12"/>
<path d="M115.69 569.311C114.997 568.863 114.714 568.047 115.42 566.956C115.839 566.31 116.266 566.146 116.803 565.983C117.174 565.871 118.074 565.248 118.356 565.431C119.048 565.88 118.929 567.058 118.223 568.149C117.516 569.239 116.382 569.76 115.69 569.311Z" fill="black" fill-opacity="0.12"/>
<g filter="url(#filter12_iii_3_11353)">
<path d="M304.258 595.654C309.842 601.272 309.184 578.979 311.63 575.972C315.6 575.116 316.852 578.756 319.853 577.969C328.753 575.633 326.99 602.239 335.837 610.203C338.977 613.029 341.18 589.606 347.923 587.667C354.214 585.859 351.745 575.185 350.196 570.511C346.896 557.132 343.598 555.504 340.146 548.556C338.97 546.191 338.013 543.745 335.837 542.042C334.059 540.651 327.029 533.085 324.957 532.042C319.051 529.072 308.961 527.26 301.915 526.21C296.43 525.392 289.85 519.869 284.411 522.058C282.776 522.716 280.409 524.265 278.74 524.911C277.134 525.532 274.25 526.727 272.786 527.569C271.565 528.271 272.466 532.757 271.148 533.567C269.561 534.542 268.205 535.587 266.536 536.426C262.737 538.337 256.998 543.428 260.247 548.236C262.533 551.617 266.353 548.731 269.075 547.533C270.63 546.848 272.591 546.595 274.269 546.97C276.535 547.477 277.767 547.291 277.459 549.454C276.738 554.534 284.878 555.433 290.081 555.433C291.486 555.81 294.654 557.957 296.092 563.537C297.214 566.421 297.502 569.49 298.398 572.418C299.594 576.328 301.3 592.678 304.258 595.654Z" fill="#579858"/>
</g>
<path d="M285.658 531.348C285.658 530.139 287.405 529.536 289.616 529.536C291.827 529.536 291.891 530.29 291.891 531.499C291.891 532.709 289.871 532.959 287.66 532.959C285.449 532.959 285.658 532.557 285.658 531.348Z" fill="white" fill-opacity="0.2"/>
<path d="M324.887 563.914C324.887 562.1 326.633 561.195 328.844 561.195C331.055 561.195 331.119 562.326 331.119 564.14C331.119 565.954 329.099 566.33 326.888 566.33C324.677 566.33 324.887 565.728 324.887 563.914Z" fill="black" fill-opacity="0.12"/>
<path d="M332.017 571.046C332.849 571.854 334.658 572.027 335.214 571.447C335.771 570.867 335.547 569.742 334.714 568.934C333.882 568.126 332.756 567.941 332.2 568.52C331.644 569.1 331.185 570.238 332.017 571.046Z" fill="black" fill-opacity="0.12"/>
<path d="M294.434 529.745C294.434 530.698 296.264 531.472 297.331 531.472C298.397 531.472 299.262 530.698 299.262 529.745C299.262 528.791 297.432 527.586 296.365 527.586C295.298 527.586 294.434 528.791 294.434 529.745Z" fill="white" fill-opacity="0.4"/>
<path d="M291.891 534.385C291.891 535.173 292.526 535.812 293.309 535.812C294.092 535.812 294.727 535.173 294.727 534.385C294.727 533.598 293.241 532.959 292.458 532.959C291.675 532.959 291.891 533.598 291.891 534.385Z" fill="white" fill-opacity="0.2"/>
<path d="M247 549.279C247 551.891 245.985 554.049 243.5 554.049C242.028 554.049 241.321 553.197 240.5 552.049C239.935 551.258 238 549.938 238 548.873C238 546.261 240.015 544.549 242.5 544.549C244.985 544.549 247 546.666 247 549.279Z" fill="black" fill-opacity="0.12"/>
<path d="M275.16 513.124C275.992 513.932 277.801 514.105 278.357 513.525C278.913 512.945 278.689 511.82 277.857 511.012C277.024 510.204 275.899 510.019 275.343 510.599C274.787 511.178 274.327 512.316 275.16 513.124Z" fill="black" fill-opacity="0.12"/>
<g filter="url(#filter13_i_3_11353)">
<path d="M202.726 399.907C205.474 412.14 202.456 423.388 195.986 425.03C189.516 426.671 180.732 418.448 177.984 406.215C175.236 393.982 173.758 384.918 186.035 380.73C189.707 379.799 196.451 381.484 199.721 385.936C202.215 389.33 201.538 394.616 202.726 399.907Z" fill="black" fill-opacity="0.12"/>
</g>
<path d="M202.726 399.907C205.474 412.14 202.456 423.388 195.986 425.03C189.516 426.671 180.732 418.448 177.984 406.215C175.236 393.982 173.758 384.918 186.035 380.73C189.707 379.799 196.451 381.484 199.721 385.936C202.215 389.33 201.538 394.616 202.726 399.907Z" fill="black" fill-opacity="0.12"/>
<g filter="url(#filter14_i_3_11353)">
<ellipse cx="240.502" cy="389.049" rx="14.5" ry="25.5" fill="black" fill-opacity="0.12"/>
</g>
<ellipse cx="240.502" cy="389.049" rx="14.5" ry="25.5" fill="black" fill-opacity="0.12"/>
<g filter="url(#filter15_i_3_11353)">
<path d="M255.003 383.812C255.003 396.66 250.406 407.049 243.503 407.049C236.599 407.049 228.003 398.397 228.003 385.549C227.502 372.049 235.599 360.549 242.503 360.549C246.518 360.549 251.216 364.072 253.503 369.549C255.147 373.488 255.003 378.437 255.003 383.812Z" fill="#3C2D24"/>
</g>
<g filter="url(#filter16_i_3_11353)">
<path d="M202.84 396.551C205.43 407.4 202.804 417.323 196.975 418.714C191.145 420.106 183.139 412.748 180.549 401.899C177.959 391.05 176.544 383.017 187.596 379.427C190.903 378.638 197.01 380.192 200.003 384.161C202.285 387.188 201.72 391.858 202.84 396.551Z" fill="#3C2D24"/>
</g>
<path d="M202.84 396.551C205.43 407.4 202.804 417.323 196.975 418.714C191.145 420.106 183.139 412.748 180.549 401.899C177.959 391.05 176.544 383.017 187.596 379.427C190.903 378.638 197.01 380.192 200.003 384.161C202.285 387.188 201.72 391.858 202.84 396.551Z" fill="black" fill-opacity="0.12"/>
<g filter="url(#filter17_i_3_11353)">
<path d="M191 447C191 440.123 196.575 434.549 203.451 434.549C204.8 434.549 206.011 435.375 206.502 436.631L213.166 453.66C213.62 454.82 215.113 455.138 216 454.263L217.352 437.209C217.471 435.707 218.724 434.549 220.231 434.549C221.284 434.549 222.253 435.122 222.761 436.044L226.168 442.23C226.918 443.593 228.87 443.615 229.65 442.268L234.125 434.549C236.053 434.549 237.643 436.057 237.747 437.981L241 498.549C239.082 501.339 235.299 502.11 232.442 500.293L230.89 499.305C229.135 498.19 226.838 498.464 225.396 499.96L223.606 501.818C222.54 502.924 221.07 503.549 219.533 503.549C217.439 503.549 215.596 502.167 215.009 500.158L209.708 482.023C208.646 478.391 203.601 478.127 202.167 481.629L201.769 482.6C200.43 485.87 199.58 489.318 199.246 492.835L198.812 497.388L198.089 500.952C197.783 502.463 196.454 503.549 194.912 503.549C192.752 503.549 191 501.797 191 499.636V447Z" fill="#9A7858"/>
</g>
<g filter="url(#filter18_i_3_11353)">
<path d="M188.749 440.406C190.055 433.527 196.067 428.549 203.069 428.549C204.648 428.549 206.066 429.516 206.642 430.987L213.166 447.66C213.62 448.82 215.113 449.138 216 448.263L217.352 431.209C217.471 429.707 218.724 428.549 220.231 428.549C221.284 428.549 222.253 429.122 222.761 430.044L226.168 436.23C226.918 437.593 228.87 437.615 229.65 436.268L234.125 428.549C236.081 428.549 237.724 430.021 237.938 431.966L242.169 470.488C242.722 475.515 242.74 480.585 242.224 485.615L241.312 494.51C241.135 496.236 239.681 497.549 237.945 497.549C237.695 497.549 237.45 497.478 237.239 497.343L231.931 493.967C229.571 492.467 226.48 492.835 224.54 494.849L223.67 495.751C222.563 496.9 221.036 497.549 219.441 497.549C217.376 497.549 215.534 496.254 214.835 494.312L208.555 476.867C207.497 473.928 203.414 473.737 202.086 476.563C200.54 479.85 199.574 483.38 199.23 486.996L198.812 491.388C198.085 494.973 194.934 497.549 191.276 497.549H191L186.452 479.659C184.508 472.012 184.263 464.032 185.735 456.28L188.749 440.406Z" fill="black" fill-opacity="0.7"/>
</g>
<path d="M179.47 483.549C173.872 471.423 178.536 446.665 186 435.549C184.623 441.433 180.743 451.191 179.47 460.549C178.155 470.209 179.47 479.443 179.47 483.549Z" fill="black" fill-opacity="0.2"/>
<path d="M217.501 392.549C211.903 380.423 224.537 369.665 232 358.549C231.346 361.345 230.078 363.968 228.227 366.917C223.253 374.838 217.501 383.196 217.501 392.549Z" fill="black" fill-opacity="0.2"/>
<path d="M177.687 361.864C190.972 360.487 197.068 375.92 205.174 386.576C202.739 385.053 200.667 383.005 198.475 380.3C192.587 373.033 186.538 364.887 177.687 361.864Z" fill="black" fill-opacity="0.2"/>
<path d="M245.828 460.27C250.863 469.374 248.639 488.873 243.469 497.931C244.206 493.282 246.669 485.481 247.129 478.139C247.604 470.56 246.06 463.46 245.828 460.27Z" fill="black" fill-opacity="0.2"/>
<path d="M255.111 308.514C254.422 291.838 257.12 270.922 258.555 262.549C258.268 269.319 257.522 283.714 256.833 287.135C255.972 291.411 257.694 307.445 256.833 310.652C255.972 313.859 259.416 345.928 260.278 349.67C261.139 353.411 260.708 362.497 260.278 366.238C259.933 369.232 261.282 381.026 262 386.549C260.852 380.491 258.555 366.132 258.555 357.152C258.555 345.928 255.972 329.359 255.111 308.514Z" fill="black" fill-opacity="0.12"/>
<path d="M208.889 555.635C209.578 566.125 206.88 579.282 205.445 584.549C205.732 580.29 206.478 571.235 207.167 569.083C208.028 566.394 206.306 556.307 207.167 554.29C208.028 552.273 204.584 532.101 203.722 529.747C202.861 527.394 203.292 521.678 203.722 519.325C204.067 517.442 202.718 510.023 202 506.549C203.148 510.359 205.445 519.392 205.445 525.04C205.445 532.101 208.028 542.523 208.889 555.635Z" fill="black" fill-opacity="0.12"/>
<path d="M210.111 516.747C209.422 511.233 212.12 504.318 213.555 501.549C213.268 503.787 212.522 508.547 211.833 509.678C210.972 511.092 212.694 516.394 211.833 517.454C210.972 518.514 214.416 529.118 215.278 530.355C216.139 531.592 215.708 534.596 215.278 535.833C214.933 536.823 216.282 540.723 217 542.549C215.852 540.546 213.555 535.798 213.555 532.829C213.555 529.118 210.972 523.639 210.111 516.747Z" fill="black" fill-opacity="0.12"/>
<path d="M246.999 419.549C255.399 418.349 257.165 407.715 256.999 402.549C256.999 406.949 252.332 413.715 249.999 416.549C245.499 418.049 238.599 420.749 246.999 419.549Z" fill="black" fill-opacity="0.2"/>
<path d="M180.832 420.83C183.061 427.531 192.031 427.4 196.238 426.497C192.634 427.15 187.666 426.04 185 424.549C182 421.549 178.603 414.128 180.832 420.83Z" fill="black" fill-opacity="0.2"/>
<defs>
<filter id="filter0_i_3_11353" x="270.838" y="459.946" width="64.456" height="73.6472" filterUnits="userSpaceOnUse" color-interpolation-filters="sRGB">
<feFlood flood-opacity="0" result="BackgroundImageFix"/>
<feBlend mode="normal" in="SourceGraphic" in2="BackgroundImageFix" result="shape"/>
<feColorMatrix in="SourceAlpha" type="matrix" values="0 0 0 0 0 0 0 0 0 0 0 0 0 0 0 0 0 0 127 0" result="hardAlpha"/>
<feOffset dx="5.95404" dy="-18.5153"/>
<feGaussianBlur stdDeviation="9.25766"/>
<feComposite in2="hardAlpha" operator="arithmetic" k2="-1" k3="1"/>
<feColorMatrix type="matrix" values="0 0 0 0 0 0 0 0 0 0 0 0 0 0 0 0 0 0 0.28 0"/>
<feBlend mode="normal" in2="shape" result="effect1_innerShadow_3_11353"/>
</filter>
<filter id="filter1_i_3_11353" x="82.168" y="453.986" width="115.053" height="81.615" filterUnits="userSpaceOnUse" color-interpolation-filters="sRGB">
<feFlood flood-opacity="0" result="BackgroundImageFix"/>
<feBlend mode="normal" in="SourceGraphic" in2="BackgroundImageFix" result="shape"/>
<feColorMatrix in="SourceAlpha" type="matrix" values="0 0 0 0 0 0 0 0 0 0 0 0 0 0 0 0 0 0 127 0" result="hardAlpha"/>
<feOffset dx="0.929534" dy="-9.72242"/>
<feGaussianBlur stdDeviation="5.02451"/>
<feComposite in2="hardAlpha" operator="arithmetic" k2="-1" k3="1"/>
<feColorMatrix type="matrix" values="0 0 0 0 0 0 0 0 0 0 0 0 0 0 0 0 0 0 0.28 0"/>
<feBlend mode="normal" in2="shape" result="effect1_innerShadow_3_11353"/>
</filter>
<filter id="filter2_iii_3_11353" x="81.666" y="455.888" width="61.334" height="61.6611" filterUnits="userSpaceOnUse" color-interpolation-filters="sRGB">
<feFlood flood-opacity="0" result="BackgroundImageFix"/>
<feBlend mode="normal" in="SourceGraphic" in2="BackgroundImageFix" result="shape"/>
<feColorMatrix in="SourceAlpha" type="matrix" values="0 0 0 0 0 0 0 0 0 0 0 0 0 0 0 0 0 0 127 0" result="hardAlpha"/>
<feOffset dx="8" dy="-35"/>
<feGaussianBlur stdDeviation="11.5"/>
<feComposite in2="hardAlpha" operator="arithmetic" k2="-1" k3="1"/>
<feColorMatrix type="matrix" values="0 0 0 0 0 0 0 0 0 0 0 0 0 0 0 0 0 0 0.25 0"/>
<feBlend mode="normal" in2="shape" result="effect1_innerShadow_3_11353"/>
<feColorMatrix in="SourceAlpha" type="matrix" values="0 0 0 0 0 0 0 0 0 0 0 0 0 0 0 0 0 0 127 0" result="hardAlpha"/>
<feOffset dx="-80" dy="52"/>
<feGaussianBlur stdDeviation="10"/>
<feComposite in2="hardAlpha" operator="arithmetic" k2="-1" k3="1"/>
<feColorMatrix type="matrix" values="0 0 0 0 1 0 0 0 0 1 0 0 0 0 1 0 0 0 0.25 0"/>
<feBlend mode="normal" in2="effect1_innerShadow_3_11353" result="effect2_innerShadow_3_11353"/>
<feColorMatrix in="SourceAlpha" type="matrix" values="0 0 0 0 0 0 0 0 0 0 0 0 0 0 0 0 0 0 127 0" result="hardAlpha"/>
<feOffset dx="4" dy="-6"/>
<feGaussianBlur stdDeviation="6"/>
<feComposite in2="hardAlpha" operator="arithmetic" k2="-1" k3="1"/>
<feColorMatrix type="matrix" values="0 0 0 0 0 0 0 0 0 0 0 0 0 0 0 0 0 0 0.25 0"/>
<feBlend mode="normal" in2="effect2_innerShadow_3_11353" result="effect3_innerShadow_3_11353"/>
</filter>
<filter id="filter3_iii_3_11353" x="139.984" y="26.5488" width="232.637" height="579.137" filterUnits="userSpaceOnUse" color-interpolation-filters="sRGB">
<feFlood flood-opacity="0" result="BackgroundImageFix"/>
<feBlend mode="normal" in="SourceGraphic" in2="BackgroundImageFix" result="shape"/>
<feColorMatrix in="SourceAlpha" type="matrix" values="0 0 0 0 0 0 0 0 0 0 0 0 0 0 0 0 0 0 127 0" result="hardAlpha"/>
<feOffset dx="15" dy="-17"/>
<feGaussianBlur stdDeviation="16"/>
<feComposite in2="hardAlpha" operator="arithmetic" k2="-1" k3="1"/>
<feColorMatrix type="matrix" values="0 0 0 0 0 0 0 0 0 0 0 0 0 0 0 0 0 0 0.25 0"/>
<feBlend mode="normal" in2="shape" result="effect1_innerShadow_3_11353"/>
<feColorMatrix in="SourceAlpha" type="matrix" values="0 0 0 0 0 0 0 0 0 0 0 0 0 0 0 0 0 0 127 0" result="hardAlpha"/>
<feOffset dx="-8.79289" dy="21.3542"/>
<feGaussianBlur stdDeviation="9.42095"/>
<feComposite in2="hardAlpha" operator="arithmetic" k2="-1" k3="1"/>
<feColorMatrix type="matrix" values="0 0 0 0 1 0 0 0 0 1 0 0 0 0 1 0 0 0 0.15 0"/>
<feBlend mode="normal" in2="effect1_innerShadow_3_11353" result="effect2_innerShadow_3_11353"/>
<feColorMatrix in="SourceAlpha" type="matrix" values="0 0 0 0 0 0 0 0 0 0 0 0 0 0 0 0 0 0 127 0" result="hardAlpha"/>
<feOffset dx="-2.51225" dy="6.28064"/>
<feGaussianBlur stdDeviation="5.885"/>
<feComposite in2="hardAlpha" operator="arithmetic" k2="-1" k3="1"/>
<feColorMatrix type="matrix" values="0 0 0 0 1 0 0 0 0 1 0 0 0 0 1 0 0 0 0.15 0"/>
<feBlend mode="normal" in2="effect2_innerShadow_3_11353" result="effect3_innerShadow_3_11353"/>
</filter>
<filter id="filter4_ii_3_11353" x="41.5" y="54.5597" width="205.843" height="171.335" filterUnits="userSpaceOnUse" color-interpolation-filters="sRGB">
<feFlood flood-opacity="0" result="BackgroundImageFix"/>
<feBlend mode="normal" in="SourceGraphic" in2="BackgroundImageFix" result="shape"/>
<feColorMatrix in="SourceAlpha" type="matrix" values="0 0 0 0 0 0 0 0 0 0 0 0 0 0 0 0 0 0 127 0" result="hardAlpha"/>
<feOffset dx="11.3051" dy="-3.76838"/>
<feGaussianBlur stdDeviation="7.53676"/>
<feComposite in2="hardAlpha" operator="arithmetic" k2="-1" k3="1"/>
<feColorMatrix type="matrix" values="0 0 0 0 0 0 0 0 0 0 0 0 0 0 0 0 0 0 0.25 0"/>
<feBlend mode="normal" in2="shape" result="effect1_innerShadow_3_11353"/>
<feColorMatrix in="SourceAlpha" type="matrix" values="0 0 0 0 0 0 0 0 0 0 0 0 0 0 0 0 0 0 127 0" result="hardAlpha"/>
<feOffset dx="17.5858" dy="17.5858"/>
<feGaussianBlur stdDeviation="6.9087"/>
<feComposite in2="hardAlpha" operator="arithmetic" k2="-1" k3="1"/>
<feColorMatrix type="matrix" values="0 0 0 0 1 0 0 0 0 1 0 0 0 0 1 0 0 0 0.1 0"/>
<feBlend mode="normal" in2="effect1_innerShadow_3_11353" result="effect2_innerShadow_3_11353"/>
</filter>
<filter id="filter5_i_3_11353" x="7.51758" y="48.0145" width="71.4846" height="61.7268" filterUnits="userSpaceOnUse" color-interpolation-filters="sRGB">
<feFlood flood-opacity="0" result="BackgroundImageFix"/>
<feBlend mode="normal" in="SourceGraphic" in2="BackgroundImageFix" result="shape"/>
<feColorMatrix in="SourceAlpha" type="matrix" values="0 0 0 0 0 0 0 0 0 0 0 0 0 0 0 0 0 0 127 0" result="hardAlpha"/>
<feOffset dx="10.049" dy="-10.049"/>
<feGaussianBlur stdDeviation="7.53676"/>
<feComposite in2="hardAlpha" operator="arithmetic" k2="-1" k3="1"/>
<feColorMatrix type="matrix" values="0 0 0 0 0 0 0 0 0 0 0 0 0 0 0 0 0 0 0.25 0"/>
<feBlend mode="normal" in2="shape" result="effect1_innerShadow_3_11353"/>
</filter>
<filter id="filter6_i_3_11353" x="97.1094" y="314.343" width="37.6016" height="36.4961" filterUnits="userSpaceOnUse" color-interpolation-filters="sRGB">
<feFlood flood-opacity="0" result="BackgroundImageFix"/>
<feBlend mode="normal" in="SourceGraphic" in2="BackgroundImageFix" result="shape"/>
<feColorMatrix in="SourceAlpha" type="matrix" values="0 0 0 0 0 0 0 0 0 0 0 0 0 0 0 0 0 0 127 0" result="hardAlpha"/>
<feOffset dx="-13.8174" dy="23.8664"/>
<feComposite in2="hardAlpha" operator="arithmetic" k2="-1" k3="1"/>
<feColorMatrix type="matrix" values="0 0 0 0 0 0 0 0 0 0 0 0 0 0 0 0 0 0 0.15 0"/>
<feBlend mode="normal" in2="shape" result="effect1_innerShadow_3_11353"/>
</filter>
<filter id="filter7_ii_3_11353" x="74.9004" y="236.96" width="178.04" height="92.5174" filterUnits="userSpaceOnUse" color-interpolation-filters="sRGB">
<feFlood flood-opacity="0" result="BackgroundImageFix"/>
<feBlend mode="normal" in="SourceGraphic" in2="BackgroundImageFix" result="shape"/>
<feColorMatrix in="SourceAlpha" type="matrix" values="0 0 0 0 0 0 0 0 0 0 0 0 0 0 0 0 0 0 127 0" result="hardAlpha"/>
<feOffset dx="10.049" dy="-17.5858"/>
<feGaussianBlur stdDeviation="10.049"/>
<feComposite in2="hardAlpha" operator="arithmetic" k2="-1" k3="1"/>
<feColorMatrix type="matrix" values="0 0 0 0 0 0 0 0 0 0 0 0 0 0 0 0 0 0 0.25 0"/>
<feBlend mode="normal" in2="shape" result="effect1_innerShadow_3_11353"/>
<feColorMatrix in="SourceAlpha" type="matrix" values="0 0 0 0 0 0 0 0 0 0 0 0 0 0 0 0 0 0 127 0" result="hardAlpha"/>
<feOffset dx="30.1471" dy="-5.02451"/>
<feGaussianBlur stdDeviation="7.53676"/>
<feComposite in2="hardAlpha" operator="arithmetic" k2="-1" k3="1"/>
<feColorMatrix type="matrix" values="0 0 0 0 1 0 0 0 0 1 0 0 0 0 1 0 0 0 0.1 0"/>
<feBlend mode="normal" in2="effect1_innerShadow_3_11353" result="effect2_innerShadow_3_11353"/>
</filter>
<filter id="filter8_ii_3_11353" x="215.211" y="179.677" width="200.08" height="90.7673" filterUnits="userSpaceOnUse" color-interpolation-filters="sRGB">
<feFlood flood-opacity="0" result="BackgroundImageFix"/>
<feBlend mode="normal" in="SourceGraphic" in2="BackgroundImageFix" result="shape"/>
<feColorMatrix in="SourceAlpha" type="matrix" values="0 0 0 0 0 0 0 0 0 0 0 0 0 0 0 0 0 0 127 0" result="hardAlpha"/>
<feOffset dx="-16.3297" dy="5.02451"/>
<feGaussianBlur stdDeviation="8.16483"/>
<feComposite in2="hardAlpha" operator="arithmetic" k2="-1" k3="1"/>
<feColorMatrix type="matrix" values="0 0 0 0 1 0 0 0 0 1 0 0 0 0 1 0 0 0 0.15 0"/>
<feBlend mode="normal" in2="shape" result="effect1_innerShadow_3_11353"/>
<feColorMatrix in="SourceAlpha" type="matrix" values="0 0 0 0 0 0 0 0 0 0 0 0 0 0 0 0 0 0 127 0" result="hardAlpha"/>
<feOffset dx="-5.02451" dy="-7.53676"/>
<feGaussianBlur stdDeviation="5.02451"/>
<feComposite in2="hardAlpha" operator="arithmetic" k2="-1" k3="1"/>
<feColorMatrix type="matrix" values="0 0 0 0 0 0 0 0 0 0 0 0 0 0 0 0 0 0 0.25 0"/>
<feBlend mode="normal" in2="effect1_innerShadow_3_11353" result="effect2_innerShadow_3_11353"/>
</filter>
<filter id="filter9_i_3_11353" x="361.609" y="235.617" width="53.6839" height="15.8638" filterUnits="userSpaceOnUse" color-interpolation-filters="sRGB">
<feFlood flood-opacity="0" result="BackgroundImageFix"/>
<feBlend mode="normal" in="SourceGraphic" in2="BackgroundImageFix" result="shape"/>
<feColorMatrix in="SourceAlpha" type="matrix" values="0 0 0 0 0 0 0 0 0 0 0 0 0 0 0 0 0 0 127 0" result="hardAlpha"/>
<feOffset dx="-1.25613" dy="2.51225"/>
<feGaussianBlur stdDeviation="1.25613"/>
<feComposite in2="hardAlpha" operator="arithmetic" k2="-1" k3="1"/>
<feColorMatrix type="matrix" values="0 0 0 0 1 0 0 0 0 1 0 0 0 0 1 0 0 0 0.16 0"/>
<feBlend mode="normal" in2="shape" result="effect1_innerShadow_3_11353"/>
</filter>
<filter id="filter10_i_3_11353" x="221.217" y="481.339" width="132.66" height="137.809" filterUnits="userSpaceOnUse" color-interpolation-filters="sRGB">
<feFlood flood-opacity="0" result="BackgroundImageFix"/>
<feBlend mode="normal" in="SourceGraphic" in2="BackgroundImageFix" result="shape"/>
<feColorMatrix in="SourceAlpha" type="matrix" values="0 0 0 0 0 0 0 0 0 0 0 0 0 0 0 0 0 0 127 0" result="hardAlpha"/>
<feOffset dx="-0.550196" dy="-9.86914"/>
<feGaussianBlur stdDeviation="7.51362"/>
<feComposite in2="hardAlpha" operator="arithmetic" k2="-1" k3="1"/>
<feColorMatrix type="matrix" values="0 0 0 0 0 0 0 0 0 0 0 0 0 0 0 0 0 0 0.28 0"/>
<feBlend mode="normal" in2="shape" result="effect1_innerShadow_3_11353"/>
</filter>
<filter id="filter11_i_3_11353" x="96" y="492.816" width="96.1788" height="102.126" filterUnits="userSpaceOnUse" color-interpolation-filters="sRGB">
<feFlood flood-opacity="0" result="BackgroundImageFix"/>
<feBlend mode="normal" in="SourceGraphic" in2="BackgroundImageFix" result="shape"/>
<feColorMatrix in="SourceAlpha" type="matrix" values="0 0 0 0 0 0 0 0 0 0 0 0 0 0 0 0 0 0 127 0" result="hardAlpha"/>
<feOffset dx="3.23736" dy="-12.9494"/>
<feGaussianBlur stdDeviation="6.47472"/>
<feComposite in2="hardAlpha" operator="arithmetic" k2="-1" k3="1"/>
<feColorMatrix type="matrix" values="0 0 0 0 0 0 0 0 0 0 0 0 0 0 0 0 0 0 0.28 0"/>
<feBlend mode="normal" in2="shape" result="effect1_innerShadow_3_11353"/>
</filter>
<filter id="filter12_iii_3_11353" x="239.287" y="498.549" width="120.713" height="131.89" filterUnits="userSpaceOnUse" color-interpolation-filters="sRGB">
<feFlood flood-opacity="0" result="BackgroundImageFix"/>
<feBlend mode="normal" in="SourceGraphic" in2="BackgroundImageFix" result="shape"/>
<feColorMatrix in="SourceAlpha" type="matrix" values="0 0 0 0 0 0 0 0 0 0 0 0 0 0 0 0 0 0 127 0" result="hardAlpha"/>
<feOffset dx="8" dy="-35"/>
<feGaussianBlur stdDeviation="11.5"/>
<feComposite in2="hardAlpha" operator="arithmetic" k2="-1" k3="1"/>
<feColorMatrix type="matrix" values="0 0 0 0 0 0 0 0 0 0 0 0 0 0 0 0 0 0 0.25 0"/>
<feBlend mode="normal" in2="shape" result="effect1_innerShadow_3_11353"/>
<feColorMatrix in="SourceAlpha" type="matrix" values="0 0 0 0 0 0 0 0 0 0 0 0 0 0 0 0 0 0 127 0" result="hardAlpha"/>
<feOffset dx="-56" dy="74"/>
<feGaussianBlur stdDeviation="10"/>
<feComposite in2="hardAlpha" operator="arithmetic" k2="-1" k3="1"/>
<feColorMatrix type="matrix" values="0 0 0 0 1 0 0 0 0 1 0 0 0 0 1 0 0 0 0.25 0"/>
<feBlend mode="normal" in2="effect1_innerShadow_3_11353" result="effect2_innerShadow_3_11353"/>
<feColorMatrix in="SourceAlpha" type="matrix" values="0 0 0 0 0 0 0 0 0 0 0 0 0 0 0 0 0 0 127 0" result="hardAlpha"/>
<feOffset dx="5" dy="-5"/>
<feGaussianBlur stdDeviation="4"/>
<feComposite in2="hardAlpha" operator="arithmetic" k2="-1" k3="1"/>
<feColorMatrix type="matrix" values="0 0 0 0 0 0 0 0 0 0 0 0 0 0 0 0 0 0 0.25 0"/>
<feBlend mode="normal" in2="effect2_innerShadow_3_11353" result="effect3_innerShadow_3_11353"/>
</filter>
<filter id="filter13_i_3_11353" x="170.086" y="380.482" width="33.6562" height="47.7559" filterUnits="userSpaceOnUse" color-interpolation-filters="sRGB">
<feFlood flood-opacity="0" result="BackgroundImageFix"/>
<feBlend mode="normal" in="SourceGraphic" in2="BackgroundImageFix" result="shape"/>
<feColorMatrix in="SourceAlpha" type="matrix" values="0 0 0 0 0 0 0 0 0 0 0 0 0 0 0 0 0 0 127 0" result="hardAlpha"/>
<feOffset dx="-12" dy="3"/>
<feGaussianBlur stdDeviation="3"/>
<feComposite in2="hardAlpha" operator="arithmetic" k2="-1" k3="1"/>
<feColorMatrix type="matrix" values="0 0 0 0 0 0 0 0 0 0 0 0 0 0 0 0 0 0 0.25 0"/>
<feBlend mode="normal" in2="shape" result="effect1_innerShadow_3_11353"/>
</filter>
<filter id="filter14_i_3_11353" x="226.002" y="363.549" width="35" height="55" filterUnits="userSpaceOnUse" color-interpolation-filters="sRGB">
<feFlood flood-opacity="0" result="BackgroundImageFix"/>
<feBlend mode="normal" in="SourceGraphic" in2="BackgroundImageFix" result="shape"/>
<feColorMatrix in="SourceAlpha" type="matrix" values="0 0 0 0 0 0 0 0 0 0 0 0 0 0 0 0 0 0 127 0" result="hardAlpha"/>
<feOffset dx="10" dy="4"/>
<feGaussianBlur stdDeviation="3"/>
<feComposite in2="hardAlpha" operator="arithmetic" k2="-1" k3="1"/>
<feColorMatrix type="matrix" values="0 0 0 0 0 0 0 0 0 0 0 0 0 0 0 0 0 0 0.25 0"/>
<feBlend mode="normal" in2="shape" result="effect1_innerShadow_3_11353"/>
</filter>
<filter id="filter15_i_3_11353" x="227.98" y="360.549" width="33.0254" height="49.5" filterUnits="userSpaceOnUse" color-interpolation-filters="sRGB">
<feFlood flood-opacity="0" result="BackgroundImageFix"/>
<feBlend mode="normal" in="SourceGraphic" in2="BackgroundImageFix" result="shape"/>
<feColorMatrix in="SourceAlpha" type="matrix" values="0 0 0 0 0 0 0 0 0 0 0 0 0 0 0 0 0 0 127 0" result="hardAlpha"/>
<feOffset dx="13" dy="3"/>
<feGaussianBlur stdDeviation="3"/>
<feComposite in2="hardAlpha" operator="arithmetic" k2="-1" k3="1"/>
<feColorMatrix type="matrix" values="0 0 0 0 0 0 0 0 0 0 0 0 0 0 0 0 0 0 0.25 0"/>
<feBlend mode="normal" in2="shape" result="effect1_innerShadow_3_11353"/>
</filter>
<filter id="filter16_i_3_11353" x="172.725" y="379.229" width="31.1133" height="42.6543" filterUnits="userSpaceOnUse" color-interpolation-filters="sRGB">
<feFlood flood-opacity="0" result="BackgroundImageFix"/>
<feBlend mode="normal" in="SourceGraphic" in2="BackgroundImageFix" result="shape"/>
<feColorMatrix in="SourceAlpha" type="matrix" values="0 0 0 0 0 0 0 0 0 0 0 0 0 0 0 0 0 0 127 0" result="hardAlpha"/>
<feOffset dx="-12" dy="3"/>
<feGaussianBlur stdDeviation="3"/>
<feComposite in2="hardAlpha" operator="arithmetic" k2="-1" k3="1"/>
<feColorMatrix type="matrix" values="0 0 0 0 0 0 0 0 0 0 0 0 0 0 0 0 0 0 0.25 0"/>
<feBlend mode="normal" in2="shape" result="effect1_innerShadow_3_11353"/>
</filter>
<filter id="filter17_i_3_11353" x="191" y="432.549" width="52" height="71" filterUnits="userSpaceOnUse" color-interpolation-filters="sRGB">
<feFlood flood-opacity="0" result="BackgroundImageFix"/>
<feBlend mode="normal" in="SourceGraphic" in2="BackgroundImageFix" result="shape"/>
<feColorMatrix in="SourceAlpha" type="matrix" values="0 0 0 0 0 0 0 0 0 0 0 0 0 0 0 0 0 0 127 0" result="hardAlpha"/>
<feOffset dx="2" dy="-2"/>
<feGaussianBlur stdDeviation="3"/>
<feComposite in2="hardAlpha" operator="arithmetic" k2="-1" k3="1"/>
<feColorMatrix type="matrix" values="0 0 0 0 0 0 0 0 0 0 0 0 0 0 0 0 0 0 0.25 0"/>
<feBlend mode="normal" in2="shape" result="effect1_innerShadow_3_11353"/>
</filter>
<filter id="filter18_i_3_11353" x="182.787" y="428.549" width="59.8105" height="75" filterUnits="userSpaceOnUse" color-interpolation-filters="sRGB">
<feFlood flood-opacity="0" result="BackgroundImageFix"/>
<feBlend mode="normal" in="SourceGraphic" in2="BackgroundImageFix" result="shape"/>
<feColorMatrix in="SourceAlpha" type="matrix" values="0 0 0 0 0 0 0 0 0 0 0 0 0 0 0 0 0 0 127 0" result="hardAlpha"/>
<feOffset dx="-2" dy="14"/>
<feGaussianBlur stdDeviation="3"/>
<feComposite in2="hardAlpha" operator="arithmetic" k2="-1" k3="1"/>
<feColorMatrix type="matrix" values="0 0 0 0 0 0 0 0 0 0 0 0 0 0 0 0 0 0 0.25 0"/>
<feBlend mode="normal" in2="shape" result="effect1_innerShadow_3_11353"/>
</filter>
</defs>
</svg>
