<svg width="179" height="229" viewBox="0 0 179 229" fill="none" xmlns="http://www.w3.org/2000/svg">
<rect y="151" width="179" height="78" rx="8" fill="black" fill-opacity="0.2"/>
<rect x="4" y="174" width="171" height="50" rx="8" fill="#78716C"/>
<rect x="4" y="141" width="171" height="67" rx="8" fill="#A8A29E"/>
<rect x="26" y="145" width="127" height="50" rx="8" fill="#78716C"/>
<rect x="21" y="142" width="137" height="58" rx="8" fill="black" fill-opacity="0.2"/>
<rect x="26" y="129" width="127" height="50" rx="8" fill="#A8A29E"/>
<rect x="35" y="134" width="109" height="35" rx="8" fill="black" fill-opacity="0.2"/>
<g filter="url(#filter0_i_3_11313)">
<path d="M139 57.402C139 27.9089 115.091 4 85.598 4C54.1521 4 29.5139 31.0355 32.4253 62.3463L40.5758 150H139V57.402Z" fill="#A8A29E"/>
</g>
<path d="M139 70.9481C139 41.7057 115.294 18 86.0519 18C54.8907 18 30.4676 44.7772 33.3272 75.8069L41.1332 160.513C41.3153 162.489 42.9724 164 44.9563 164H135C137.209 164 139 162.209 139 160V70.9481Z" fill="#78716C"/>
<g opacity="0.2" filter="url(#filter1_i_3_11313)">
<path d="M70.8877 130.649L69.7977 131.744C68.0214 133.529 67.1105 135.999 67.3027 138.51C67.6353 142.855 71.1462 146.275 75.4982 146.494L79.4246 146.691C83.114 146.876 86.5215 144.722 87.9365 141.31C89.2016 138.259 88.6387 134.755 86.4814 132.254L85.5482 131.172C81.7454 126.763 74.9948 126.522 70.8877 130.649Z" fill="#D6D3D1"/>
</g>
<g opacity="0.2" filter="url(#filter2_i_3_11313)">
<path d="M93.3072 118.594L91.3122 118.167C88.4168 117.546 85.6305 119.597 85.3625 122.546C85.1512 124.87 86.5962 127.024 88.8265 127.711L90.7765 128.311C93.6828 129.205 96.7111 127.333 97.211 124.334C97.6525 121.685 95.9331 119.157 93.3072 118.594Z" fill="#D6D3D1"/>
</g>
<g opacity="0.2" filter="url(#filter3_i_3_11313)">
<path d="M127.828 135.118L128.49 140.971C128.814 143.835 127.886 146.7 125.944 148.831L119.259 156.167C116.142 159.587 111.085 160.422 107.034 158.185L104.468 156.768C101.535 155.148 99.6078 152.166 99.3357 148.826L98.4529 137.993C98.1714 134.538 99.6992 131.184 102.491 129.128L107.156 125.693C110.226 123.432 114.315 123.114 117.697 124.872L122.503 127.37C125.457 128.905 127.453 131.81 127.828 135.118Z" fill="#292524"/>
</g>
<g filter="url(#filter4_ii_3_11313)">
<path d="M34.1756 52.6998C29.3467 51.3184 30.423 42.3534 31.2978 39.0316L32.3202 35.9605C33.6536 32.0173 37.8236 27.8973 39.742 26.3301C43.0749 22.9929 44.6517 17.9008 46.7093 13.7803C47.6651 11.8663 48.4433 9.88757 50.212 8.51019C51.6572 7.38466 53.128 5.82753 54.8127 4.98411C58.2583 3.25911 62.9693 4.56705 66.7405 4.56705C70.7871 4.56705 74.2376 1.74177 78.1951 1.15472C82.6538 0.493312 91.2445 0.201157 92.641 0.737659C99.637 1.97009 102.599 5.49763 103.206 7.10734C104.186 9.19621 105.052 14.2894 100.669 17.951C98.8258 18.361 97.8251 18.2103 98.0748 19.9604C98.6611 24.0701 97.1362 27.0884 92.9061 27.0884C89.9719 27.0884 87.7735 26.5247 84.9731 27.7709C84.0354 28.1882 83.2733 30.4711 82.9283 31.3538C82.0165 33.6871 81.7819 36.1699 81.054 38.5387C80.0819 41.7019 79.8616 44.9648 77.4567 47.3728C72.9179 51.9174 70.9438 43.3225 68.9557 40.8894C65.9013 37.1514 62.4964 45.8045 60.095 46.6904C58.9733 47.1042 57.3582 47.0198 56.3652 46.387C55.6786 45.9496 55.1973 45.1552 54.3962 44.9084C51.5602 44.0346 49.9094 47.1749 48.1861 48.7188C47.1534 49.644 44.2204 51.777 43.9072 49.2686C43.7968 48.3837 42.7246 45.1523 41.6731 44.8515C38.7687 44.0206 38.3132 53.8835 34.1756 52.6998Z" fill="#579858"/>
</g>
<path d="M49.8167 35.3256C49.8167 32.8925 47.5024 31.6796 44.5731 31.6796C41.6439 31.6796 41.5596 33.1963 41.5596 35.6294C41.5596 38.0625 44.2355 38.5664 47.1648 38.5664C50.094 38.5664 49.8167 37.7587 49.8167 35.3256Z" fill="black" fill-opacity="0.12"/>
<path d="M40.0079 41.9665C38.9137 43.0236 36.5031 43.2157 35.7489 42.4333C34.9948 41.6509 35.2704 40.1596 36.3646 39.1025C37.4587 38.0454 38.9571 37.8228 39.7112 38.6052C40.4653 39.3876 41.102 40.9094 40.0079 41.9665Z" fill="black" fill-opacity="0.12"/>
<path fill-rule="evenodd" clip-rule="evenodd" d="M75.6225 11.6951C75.9154 12.2783 76.3056 12.77 76.7597 13.0928C76.8806 13.1788 77.0033 13.2676 77.1273 13.3574C78.6133 14.4331 80.2941 15.6499 81.5287 13.8448C82.8663 11.8891 84.5102 9.03457 82.9403 7.91846C81.3704 6.80235 77.0585 4.93103 75.721 6.88673C75.6236 7.02905 75.5376 7.17761 75.4625 7.33119C75.3804 7.29816 75.2906 7.27797 75.1927 7.27225C74.0794 7.2073 71.3823 7.6235 71.3114 9.01544C71.2405 10.4074 72.5857 11.7159 73.699 11.7808C73.7847 11.7859 73.8721 11.7917 73.9605 11.7976L73.9605 11.7976L73.9606 11.7976L73.9606 11.7977L73.9606 11.7977C74.543 11.8367 75.1673 11.8786 75.6225 11.6951ZM68.4887 13.1743C67.4766 13.1152 66.2407 12.1821 66.2903 11.2078C66.3399 10.2334 68.7858 9.9746 69.7978 10.0337C70.8099 10.0927 70.875 11.4492 70.8254 12.4236C70.7796 13.3229 69.6899 13.2519 68.7266 13.1892L68.7265 13.1892C68.6461 13.184 68.5666 13.1788 68.4887 13.1743ZM79.1433 17.7157C79.0937 18.69 79.9457 19.6007 80.6542 19.6421C80.7088 19.6453 80.7644 19.649 80.8207 19.6529C81.4949 19.6987 82.2576 19.7505 82.3034 18.8512C82.353 17.8769 82.328 16.5227 81.6196 16.4814C80.9111 16.44 79.1929 16.7413 79.1433 17.7157ZM90.0708 13.7014C89.4251 13.9959 88.2592 13.583 87.8624 12.6917C87.7451 12.428 87.7836 12.1485 87.9127 11.878C87.5596 11.6149 87.4369 10.8921 87.4516 10.5592C87.4696 10.1541 88.2426 10.1403 88.7994 10.169C89.1066 10.1848 89.2218 10.3471 89.2602 10.5574C89.3454 10.5078 89.425 10.4662 89.4957 10.4339C90.1414 10.1394 90.7759 11.3342 91.1726 12.2255C91.5388 13.0481 90.8404 13.3587 90.223 13.6332L90.223 13.6332C90.1715 13.6561 90.1205 13.6787 90.0708 13.7014Z" fill="white" fill-opacity="0.2"/>
<g filter="url(#filter5_d_3_11313)">
<rect x="47.0918" y="68.3066" width="77" height="33" rx="4" transform="rotate(-3.39147 47.0918 68.3066)" fill="black" fill-opacity="0.2" shape-rendering="crispEdges"/>
</g>
<g filter="url(#filter6_d_3_11313)">
<path d="M66.8579 81.2378C67.4868 81.2005 67.9505 81.2482 68.2488 81.3808C68.5566 81.5028 68.7223 81.7634 68.746 82.1627L68.7522 82.2675C68.777 82.6868 68.6189 82.9767 68.2778 83.1371C67.9461 83.287 67.5007 83.3785 66.9417 83.4117L64.5309 83.5545L64.4023 81.3833L66.8579 81.2378ZM66.846 86.107C67.5647 86.0644 68.0604 86.1453 68.3329 86.3495C68.6149 86.5432 68.7733 86.9345 68.8082 87.5234L68.8561 88.332C68.8638 88.4618 68.8968 88.5951 68.955 88.7319C69.0131 88.8687 69.1142 88.9679 69.2581 89.0295L73.0464 88.805C72.902 88.7334 72.7956 88.6295 72.7274 88.4933C72.6593 88.3571 72.6204 88.2091 72.611 88.0494L72.5702 87.3606C72.5175 86.4722 72.3331 85.8119 72.017 85.3799C71.7003 84.9378 71.1623 84.6491 70.403 84.5138C71.1181 84.241 71.632 83.87 71.9448 83.4007C72.2676 82.9307 72.4074 82.3314 72.3642 81.6027C72.3163 80.7941 72.0972 80.1409 71.7071 79.6431C71.327 79.1448 70.7252 78.7947 69.9018 78.5931C69.4954 78.497 69.0209 78.4349 68.4783 78.407C67.9351 78.3691 67.3241 78.3702 66.6453 78.4104L60.7007 78.7627L61.337 89.4989L64.8708 89.2895L64.6898 86.2348L66.846 86.107ZM76.4741 88.8272C77.2428 88.7817 77.7791 88.6197 78.0832 88.3412C78.3966 88.0521 78.5318 87.5432 78.4886 86.8145C78.4436 86.0559 78.244 85.5618 77.8898 85.3324C77.5351 85.0929 76.9883 84.9951 76.2496 85.0389C75.5109 85.0826 74.9795 85.2444 74.6555 85.524C74.3309 85.7937 74.1911 86.3079 74.236 87.0665C74.2662 87.5756 74.3542 87.9611 74.4999 88.223C74.6457 88.4848 74.8765 88.6614 75.1925 88.7529C75.3452 88.794 75.5269 88.8182 75.7377 88.8258C75.9591 88.8427 76.2046 88.8432 76.4741 88.8272ZM88.8513 87.8683L88.6588 84.619L85.9785 84.7779L85.7247 80.4954L88.405 80.3365L88.2151 77.1322L79.3956 77.6548L79.5855 80.8592L82.2508 80.7013L82.5046 84.9837L79.8392 85.1417L80.0318 88.391L88.8513 87.8683ZM92.3983 87.8835C93.167 87.838 93.7033 87.676 94.0074 87.3975C94.3208 87.1084 94.456 86.5996 94.4128 85.8708C94.3678 85.1122 94.1682 84.6181 93.8141 84.3887C93.4593 84.1492 92.9125 84.0514 92.1738 84.0952C91.4351 84.139 90.9038 84.3007 90.5797 84.5803C90.2551 84.85 90.1153 85.3642 90.1602 86.1228C90.1904 86.632 90.2784 87.0174 90.4241 87.2793C90.5699 87.5411 90.8007 87.7178 91.1167 87.8092C91.2694 87.8503 91.4511 87.8745 91.6619 87.8821C91.8833 87.899 92.1288 87.8995 92.3983 87.8835ZM101.544 79.3025C102.293 79.2581 102.836 79.306 103.175 79.4462C103.524 79.5758 103.713 79.9002 103.744 80.4193C103.769 80.8485 103.633 81.1622 103.334 81.3602C103.044 81.5476 102.51 81.6644 101.732 81.7106L99.4558 81.8455L99.3129 79.4347L101.544 79.3025ZM102.017 84.5036C103.895 84.4023 105.263 83.9907 106.122 83.2686C106.99 82.5459 107.385 81.5208 107.307 80.1931C107.224 78.7956 106.723 77.7784 105.804 77.1417C104.884 76.495 103.416 76.2314 101.399 76.3509L95.6492 76.6916L96.2854 87.4278L99.7743 87.221L99.6217 84.6455L102.017 84.5036ZM110.136 86.8324C110.904 86.7868 111.441 86.6248 111.745 86.3463C112.058 86.0573 112.193 85.5484 112.15 84.8197C112.105 84.061 111.906 83.567 111.551 83.3375C111.197 83.0981 110.65 83.0003 109.911 83.044C109.173 83.0878 108.641 83.2495 108.317 83.5292C107.993 83.7989 107.853 84.313 107.898 85.0717C107.928 85.5808 108.016 85.9663 108.162 86.2281C108.307 86.49 108.538 86.6666 108.854 86.7581C109.007 86.7991 109.189 86.8234 109.399 86.8309C109.621 86.8479 109.866 86.8484 110.136 86.8324Z" fill="#78716C"/>
</g>
<defs>
<filter id="filter0_i_3_11313" x="32.1914" y="-40" width="150.809" height="190" filterUnits="userSpaceOnUse" color-interpolation-filters="sRGB">
<feFlood flood-opacity="0" result="BackgroundImageFix"/>
<feBlend mode="normal" in="SourceGraphic" in2="BackgroundImageFix" result="shape"/>
<feColorMatrix in="SourceAlpha" type="matrix" values="0 0 0 0 0 0 0 0 0 0 0 0 0 0 0 0 0 0 127 0" result="hardAlpha"/>
<feOffset dx="56" dy="-52"/>
<feGaussianBlur stdDeviation="22"/>
<feComposite in2="hardAlpha" operator="arithmetic" k2="-1" k3="1"/>
<feColorMatrix type="matrix" values="0 0 0 0 0 0 0 0 0 0 0 0 0 0 0 0 0 0 0.25 0"/>
<feBlend mode="normal" in2="shape" result="effect1_innerShadow_3_11313"/>
</filter>
<filter id="filter1_i_3_11313" x="67.2773" y="127.703" width="21.3262" height="18.999" filterUnits="userSpaceOnUse" color-interpolation-filters="sRGB">
<feFlood flood-opacity="0" result="BackgroundImageFix"/>
<feBlend mode="normal" in="SourceGraphic" in2="BackgroundImageFix" result="shape"/>
<feColorMatrix in="SourceAlpha" type="matrix" values="0 0 0 0 0 0 0 0 0 0 0 0 0 0 0 0 0 0 127 0" result="hardAlpha"/>
<feOffset dx="-2" dy="4"/>
<feComposite in2="hardAlpha" operator="arithmetic" k2="-1" k3="1"/>
<feColorMatrix type="matrix" values="0 0 0 0 1 0 0 0 0 1 0 0 0 0 1 0 0 0 0.9 0"/>
<feBlend mode="normal" in2="shape" result="effect1_innerShadow_3_11313"/>
</filter>
<filter id="filter2_i_3_11313" x="85.3418" y="118.056" width="11.9385" height="10.4795" filterUnits="userSpaceOnUse" color-interpolation-filters="sRGB">
<feFlood flood-opacity="0" result="BackgroundImageFix"/>
<feBlend mode="normal" in="SourceGraphic" in2="BackgroundImageFix" result="shape"/>
<feColorMatrix in="SourceAlpha" type="matrix" values="0 0 0 0 0 0 0 0 0 0 0 0 0 0 0 0 0 0 127 0" result="hardAlpha"/>
<feOffset dx="-2" dy="4"/>
<feComposite in2="hardAlpha" operator="arithmetic" k2="-1" k3="1"/>
<feColorMatrix type="matrix" values="0 0 0 0 1 0 0 0 0 1 0 0 0 0 1 0 0 0 0.9 0"/>
<feBlend mode="normal" in2="shape" result="effect1_innerShadow_3_11313"/>
</filter>
<filter id="filter3_i_3_11313" x="98.4199" y="123.745" width="30.1338" height="35.6855" filterUnits="userSpaceOnUse" color-interpolation-filters="sRGB">
<feFlood flood-opacity="0" result="BackgroundImageFix"/>
<feBlend mode="normal" in="SourceGraphic" in2="BackgroundImageFix" result="shape"/>
<feColorMatrix in="SourceAlpha" type="matrix" values="0 0 0 0 0 0 0 0 0 0 0 0 0 0 0 0 0 0 127 0" result="hardAlpha"/>
<feOffset dx="-2" dy="4"/>
<feComposite in2="hardAlpha" operator="arithmetic" k2="-1" k3="1"/>
<feColorMatrix type="matrix" values="0 0 0 0 1 0 0 0 0 1 0 0 0 0 1 0 0 0 0.53 0"/>
<feBlend mode="normal" in2="shape" result="effect1_innerShadow_3_11313"/>
</filter>
<filter id="filter4_ii_3_11313" x="30.541" y="-10.1008" width="84.0187" height="62.8996" filterUnits="userSpaceOnUse" color-interpolation-filters="sRGB">
<feFlood flood-opacity="0" result="BackgroundImageFix"/>
<feBlend mode="normal" in="SourceGraphic" in2="BackgroundImageFix" result="shape"/>
<feColorMatrix in="SourceAlpha" type="matrix" values="0 0 0 0 0 0 0 0 0 0 0 0 0 0 0 0 0 0 127 0" result="hardAlpha"/>
<feOffset dx="15.67" dy="-16.0692"/>
<feGaussianBlur stdDeviation="5.27987"/>
<feComposite in2="hardAlpha" operator="arithmetic" k2="-1" k3="1"/>
<feColorMatrix type="matrix" values="0 0 0 0 0 0 0 0 0 0 0 0 0 0 0 0 0 0 0.25 0"/>
<feBlend mode="normal" in2="shape" result="effect1_innerShadow_3_11313"/>
<feColorMatrix in="SourceAlpha" type="matrix" values="0 0 0 0 0 0 0 0 0 0 0 0 0 0 0 0 0 0 127 0" result="hardAlpha"/>
<feOffset dx="1.83648" dy="-2.75472"/>
<feGaussianBlur stdDeviation="2.75472"/>
<feComposite in2="hardAlpha" operator="arithmetic" k2="-1" k3="1"/>
<feColorMatrix type="matrix" values="0 0 0 0 0 0 0 0 0 0 0 0 0 0 0 0 0 0 0.25 0"/>
<feBlend mode="normal" in2="effect1_innerShadow_3_11313" result="effect2_innerShadow_3_11313"/>
</filter>
<filter id="filter5_d_3_11313" x="45.3213" y="63.9814" width="80.3584" height="39.0381" filterUnits="userSpaceOnUse" color-interpolation-filters="sRGB">
<feFlood flood-opacity="0" result="BackgroundImageFix"/>
<feColorMatrix in="SourceAlpha" type="matrix" values="0 0 0 0 0 0 0 0 0 0 0 0 0 0 0 0 0 0 127 0" result="hardAlpha"/>
<feOffset dx="-2" dy="2"/>
<feComposite in2="hardAlpha" operator="out"/>
<feColorMatrix type="matrix" values="0 0 0 0 1 0 0 0 0 1 0 0 0 0 1 0 0 0 0.25 0"/>
<feBlend mode="normal" in2="BackgroundImageFix" result="effect1_dropShadow_3_11313"/>
<feBlend mode="normal" in="SourceGraphic" in2="effect1_dropShadow_3_11313" result="shape"/>
</filter>
<filter id="filter6_d_3_11313" x="58.7012" y="75.7461" width="53.5605" height="15.9775" filterUnits="userSpaceOnUse" color-interpolation-filters="sRGB">
<feFlood flood-opacity="0" result="BackgroundImageFix"/>
<feColorMatrix in="SourceAlpha" type="matrix" values="0 0 0 0 0 0 0 0 0 0 0 0 0 0 0 0 0 0 127 0" result="hardAlpha"/>
<feOffset dx="-2" dy="2"/>
<feComposite in2="hardAlpha" operator="out"/>
<feColorMatrix type="matrix" values="0 0 0 0 0 0 0 0 0 0 0 0 0 0 0 0 0 0 0.25 0"/>
<feBlend mode="normal" in2="BackgroundImageFix" result="effect1_dropShadow_3_11313"/>
<feBlend mode="normal" in="SourceGraphic" in2="effect1_dropShadow_3_11313" result="shape"/>
</filter>
</defs>
</svg>
