<svg width="93" height="197" viewBox="0 0 93 197" fill="none" xmlns="http://www.w3.org/2000/svg">
<circle cx="49.5" cy="159.5" r="37.5" fill="black" fill-opacity="0.12"/>
<circle cx="49.5" cy="159.5" r="30.5" fill="black" fill-opacity="0.2"/>
<g filter="url(#filter0_iii_3_11292)">
<path fill-rule="evenodd" clip-rule="evenodd" d="M70.5258 85.0103C77.5631 80.7512 83.0003 68.4333 83.0003 51.6376C83.0003 44.0581 85.5003 38.1376 89.0003 32.1376C87.7535 28.1203 84.563 28.5274 80.3563 29.0642C74.5314 29.8073 66.7583 30.7991 59.4998 20.6377C54.6515 20.6377 49.5465 19.9153 44.6187 19.2179C33.9439 17.7072 24.1006 16.3141 19.4997 22.6376C20.4997 32.2293 18.9998 36.6376 16.4998 39.1376C16.2744 44.5504 13.1424 46.3369 10.6178 47.777C8.62935 48.9112 7.01774 49.8305 7.50029 52.1376C8.05862 54.8069 8.87587 56.4787 10.5816 59.9679C12.0708 63.0144 14.2374 67.4464 17.5003 75.1376C19.8979 80.7892 23.6448 83.9184 28.4193 85.5901C28.4155 85.6367 28.4119 85.6834 28.4085 85.7301L23.097 157.715C21.9646 173.062 34.1108 186.138 49.4998 186.138C64.8887 186.138 77.035 173.062 75.9026 157.715L70.5911 85.7301C70.5733 85.489 70.5515 85.249 70.5258 85.0103Z" fill="#65A30D"/>
</g>
<g filter="url(#filter1_dii_3_11292)">
<path d="M33.6069 55.8206C29.2536 51.7698 26.9774 56.5431 26.3834 59.4361C30.8702 65.0814 28.8371 68.7638 27.2598 69.8994C29.4531 72.1241 29.1996 75.0889 28.7988 76.2933C32.2527 74.3984 35.0552 77.1073 36.0247 78.6986C40.5508 78.8212 38.057 73.0091 34.5667 67.2804C31.0764 61.5517 39.0485 60.8841 33.6069 55.8206Z" fill="#7E22CE"/>
</g>
<ellipse cx="50.5" cy="64" rx="19.5" ry="15" fill="black" fill-opacity="0.2"/>
<g filter="url(#filter2_iii_3_11292)">
<circle cx="50.5" cy="51.5" r="23.5" fill="#E2E8F0"/>
</g>
<mask id="mask0_3_11292" style="mask-type:alpha" maskUnits="userSpaceOnUse" x="27" y="28" width="47" height="47">
<circle cx="50.5" cy="51.5" r="23.5" fill="#E2E8F0"/>
</mask>
<g mask="url(#mask0_3_11292)">
<path opacity="0.5" d="M48.5 28L52.5 35L51.5 36.25M52 39.5L50.5 37.5L51.5 36.25M51.5 36.25L47 37L45.5 38.5M52 33L58.3125 35L59.5 37.5M72.5 42.5L70.8333 44.5M64 45.5L66 44.5L70 45.5L70.8333 44.5M70.8333 44.5C71.0556 45.3333 71.5 47.1 71.5 47.5C71.5 47.9 70.8333 49.3333 70.5 50M29.5 61.5L32 61L34 62M32 60.5L32.5 59L34 58.1875M66 69L65 68.25M64 67.5L65 68.25M65 68.25L61.75 69" stroke="#7F1D1D" stroke-linecap="round" stroke-linejoin="round"/>
</g>
<g filter="url(#filter3_i_3_11292)">
<circle cx="50.5" cy="56.5" r="14.5" fill="#F97316"/>
</g>
<circle cx="50.5" cy="56.5" r="13" stroke="#1E293B" stroke-width="3"/>
<g filter="url(#filter4_i_3_11292)">
<circle cx="50.5" cy="56.5" r="7.5" fill="#1E293B"/>
</g>
<circle cx="56.5" cy="51.5" r="3.5" fill="#F8FAFC"/>
<circle cx="46.5" cy="61.5" r="1.5" fill="#F8FAFC"/>
<g filter="url(#filter5_f_3_11292)">
<path d="M67.2848 56.0275C66.6543 58.8373 62.1221 51.052 59.8414 50.5402C57.5608 50.0284 49.2064 42.7076 49.837 39.8979C50.4675 37.0882 59.8442 39.8535 62.1248 40.3653C64.4055 40.8771 67.9154 53.2178 67.2848 56.0275Z" fill="#F8FAFC"/>
</g>
<g filter="url(#filter6_f_3_11292)">
<path fill-rule="evenodd" clip-rule="evenodd" d="M50.1006 93.9914L50.1006 93.9914C43.9066 96.2617 32.2658 100.528 30.2344 82.2539C39.1395 89.8939 42.8892 92.5673 52.4785 93.1849C51.8439 93.3524 51.0341 93.6492 50.1006 93.9914ZM52.1916 90.585C60.9062 105.797 66.3504 95.8194 70.5669 84.965C70.0705 85.2584 69.4113 85.7492 68.622 86.337L68.622 86.3371C64.9037 89.1061 58.2964 94.0266 52.1916 90.585ZM50.4994 183.138L47.14 99.6353C47.0633 97.7271 48.5895 96.1382 50.4994 96.1382C52.4092 96.1382 53.9354 97.7271 53.8587 99.6353L50.4994 183.138Z" fill="black" fill-opacity="0.2"/>
</g>
<mask id="mask1_3_11292" style="mask-type:alpha" maskUnits="userSpaceOnUse" x="23" y="66" width="53" height="121">
<path d="M28.4087 85.7301C29.2238 74.6838 38.4237 66.1377 49.5 66.1377C60.5763 66.1377 69.7762 74.6838 70.5913 85.7301L75.9028 157.715C77.0352 173.062 64.8889 186.138 49.5 186.138C34.1111 186.138 21.9648 173.062 23.0972 157.715L28.4087 85.7301Z" fill="#D9D9D9"/>
</mask>
<g mask="url(#mask1_3_11292)">
<g filter="url(#filter7_dii_3_11292)">
<path d="M27 169.638L22 161.138L24 132.138L27 135.138C26.5 137.638 26.2 142.638 29 142.638C32.5 142.638 36.5 148.638 35 154.138C33.5 159.638 50.5 162.638 49.5 167.638C48.5 172.638 40.5 173.638 36.5 168.638C33.3 164.638 28.8333 167.638 27 169.638Z" fill="#7E22CE"/>
</g>
<g filter="url(#filter8_dii_3_11292)">
<path d="M76 141.138L73.5 103.54C69.4999 103.54 71 102.54 68.5 99.0401C65.9999 95.5401 65 103.04 64 107.54C63 112.04 68.5 113.04 66 121.04C64 127.44 61.1667 126.04 60 124.54V131.54C63.8333 132.707 71.4 136.04 71 140.04C70.5 145.04 62.5 145.54 61 153.04C59.5 160.54 72 156.138 73.5 151.138C74.7 147.138 73.8333 141.471 76 141.138Z" fill="#7E22CE"/>
</g>
</g>
<path fill-rule="evenodd" clip-rule="evenodd" d="M52.9699 35.0976C51.7607 35.7616 50.3819 36.1377 48.9185 36.1377C47.1651 36.1377 45.5333 35.5978 44.1689 34.6696C42.6649 37.3421 39.8713 39.1377 36.6736 39.1377C35.4942 39.1377 34.3698 38.8934 33.3447 38.451C35.2548 41.3842 36 45.9214 36 50.6377C32.394 55.2739 32.4637 58.9814 32.5108 61.4867C32.5552 63.8447 32.5795 65.1377 29.5 65.1377C28.1399 65.1377 26.04 62.7292 23.8441 60.2107C22.0037 58.0998 20.0959 55.9117 18.5 54.9998C18.5 46.9916 21.1489 35.1377 27.5001 35.1377C28.2943 35.1377 29.0228 35.2548 29.6896 35.4755C28.6277 33.9821 28.0001 32.1359 28.0001 30.1377C28.0001 25.1671 31.8834 21.1377 36.6736 21.1377C38.427 21.1377 40.0588 21.6776 41.4232 22.6058C42.9272 19.9333 45.7208 18.1377 48.9185 18.1377C52.7094 18.1377 55.9323 20.6613 57.112 24.1778C58.3212 23.5138 59.7 23.1377 61.1634 23.1377C64.1913 23.1377 66.8568 24.7476 68.4082 27.1876C68.71 27.1546 69.0164 27.1377 69.3267 27.1377C74.1169 27.1377 78.0001 31.1671 78.0001 36.1377C78.0001 41.1083 74.1169 45.1377 69.3267 45.1377C66.2988 45.1377 63.6333 43.5278 62.0818 41.0878C61.78 41.1208 61.4736 41.1377 61.1634 41.1377C57.3725 41.1377 54.1496 38.6141 52.9699 35.0976Z" fill="black" fill-opacity="0.2"/>
<g filter="url(#filter9_i_3_11292)">
<path d="M46.9267 32.6942C41.8501 32.9742 37.4396 29.2381 36.881 24.1845L35.5346 12.005C34.8758 6.04492 39.391 0.768557 45.3814 0.498513C51.3732 0.228402 56.3455 5.07949 56.2234 11.0762L55.9739 23.3272C55.872 28.3351 51.9281 32.4184 46.9267 32.6942Z" fill="#65A30D"/>
</g>
<g filter="url(#filter10_di_3_11292)">
<path d="M42.97 30.5265C41.3865 30.6094 40.0041 29.4641 39.7911 27.8928L38.863 21.0445C38.3824 17.4983 41.4536 14.4814 44.9955 14.9927C45.6568 15.0881 46.3336 15.0568 46.9829 14.8993C50.3768 14.0763 53.611 16.7402 53.4536 20.2288L53.095 28.1718C53.0482 29.2094 52.2216 30.042 51.1844 30.0963C50.351 30.1399 49.5768 29.6662 49.2362 28.9043L48.6569 27.6081C48.3839 26.9973 47.5327 26.9552 47.2008 27.5361L46.9861 27.9118C46.3512 29.023 45.3279 29.8601 44.1129 30.2622L43.768 30.3764C43.5099 30.4618 43.2415 30.5123 42.97 30.5265Z" fill="#14532D"/>
</g>
<g filter="url(#filter11_f_3_11292)">
<rect x="48.1777" y="16.1377" width="3" height="9" rx="1.5" transform="rotate(1.13433 48.1777 16.1377)" fill="white" fill-opacity="0.2"/>
</g>
<g filter="url(#filter12_i_3_11292)">
<path d="M58.8656 36.4814C54.698 34.59 52.6685 29.8259 54.192 25.5102L58.8781 12.2352C60.7226 7.01003 66.5769 4.40605 71.6926 6.53532C76.8363 8.67624 79.1055 14.7143 76.6449 19.713L70.4277 32.3436C68.3233 36.6187 63.2046 38.4506 58.8656 36.4814Z" fill="#65A30D"/>
</g>
<g filter="url(#filter13_di_3_11292)">
<path d="M58.3656 32.6115C55.7767 32.3961 54.1486 29.7208 55.1469 27.3224L57.2093 22.3673C58.6411 18.9272 62.5906 17.2992 66.0306 18.7311C69.6673 20.2447 71.2392 24.539 69.4392 28.0428L67.1251 32.5472C65.8893 34.9528 62.6994 35.5155 60.7151 33.678L60.6505 33.6182C60.0227 33.0369 59.2183 32.6825 58.3656 32.6115Z" fill="#14532D"/>
</g>
<g filter="url(#filter14_f_3_11292)">
<rect x="65.8359" y="21.1387" width="3" height="9" rx="1.5" transform="rotate(25.2337 65.8359 21.1387)" fill="white" fill-opacity="0.2"/>
</g>
<g filter="url(#filter15_i_3_11292)">
<path d="M34.7691 36.5305C30.5408 38.6791 25.3715 36.9879 23.2308 32.7556L16.6606 19.7658C14.1565 14.8152 16.4403 8.78287 21.5951 6.73179C26.5402 4.76413 32.1336 7.27057 33.9563 12.271L38.9415 25.9476C40.427 30.0228 38.6359 34.5655 34.7691 36.5305Z" fill="#65A30D"/>
</g>
<g filter="url(#filter16_di_3_11292)">
<path d="M35.2946 34.1484C33.7718 36.3204 30.5048 36.163 29.198 33.8546L27.3289 30.5532C25.9151 28.0559 26.4656 24.9074 28.6428 23.038L28.8029 22.9005C29.937 21.9267 31.3824 21.3914 32.8772 21.3914L34.358 21.3914C36.0255 21.3914 37.5245 22.4082 38.141 23.9576L40.6211 30.1905C41.1733 31.5784 39.697 32.9022 38.3773 32.2024C37.6617 31.823 36.7756 32.036 36.3107 32.6992L35.2946 34.1484Z" fill="#14532D"/>
</g>
<g filter="url(#filter17_f_3_11292)">
<rect x="33" y="23.2246" width="2.3076" height="7.29495" rx="1.1538" transform="rotate(-28.096 33 23.2246)" fill="white" fill-opacity="0.2"/>
</g>
<g filter="url(#filter18_i_3_11292)">
<path d="M5.78065 50.1962C2.81295 44.519 5.86176 37.5532 12.046 35.8816L20.6161 33.565C25.9167 32.1322 31.3879 35.2104 32.9152 40.4845C34.5685 46.1943 30.9416 52.0861 25.0991 53.1816L21.8693 53.7872C20.6431 54.0171 19.495 54.5536 18.5319 55.3467C14.9076 58.3315 9.45518 57.2257 7.2801 53.0647L5.78065 50.1962Z" fill="#65A30D"/>
</g>
<g filter="url(#filter19_di_3_11292)">
<path d="M16.8282 43.5775C14.9845 38.8073 18.5046 33.6728 23.6188 33.6728L29.7195 33.6728C32.2417 33.6728 34.1557 35.9451 33.7271 38.4306L33.2456 41.2229C33.1757 41.6286 33.3273 42.0407 33.6435 42.3043C34.8387 43.3006 34.4158 45.2302 32.9134 45.6353L28.4039 46.851L26.4043 47.6791C22.6269 49.2435 18.3022 47.3912 16.8282 43.5775Z" fill="#14532D"/>
</g>
<g filter="url(#filter20_f_3_11292)">
<rect x="32.3594" y="35.3516" width="2.3076" height="5.19078" rx="1.1538" transform="rotate(91.6788 32.3594 35.3516)" fill="white" fill-opacity="0.2"/>
</g>
<g filter="url(#filter21_i_3_11292)">
<path d="M67.2338 43.0853C64.8393 40.2244 64.9786 36.0206 67.5572 33.3245L76.0386 24.4564C79.0387 21.3195 84.0384 21.2849 87.0817 24.3798C90.1223 27.472 90.0067 32.4652 86.8263 35.4134L77.8271 43.7557C74.7545 46.604 69.9228 46.2982 67.2338 43.0853Z" fill="#65A30D"/>
</g>
<g filter="url(#filter22_di_3_11292)">
<path d="M66.8064 37.8931C66.3886 36.2845 66.802 34.5737 67.908 33.3333L68.9637 32.1496C70.9628 29.9078 74.4408 29.8231 76.5467 31.9648C78.6277 34.0811 78.5163 37.5076 76.3021 39.4842L74.3783 41.2016C73.3733 42.0988 71.879 42.1747 70.7882 41.384L70.6564 41.2884C70.1261 40.904 69.77 40.3248 69.6664 39.6781C69.5704 39.0785 69.0532 38.6376 68.446 38.6376L67.6654 38.6376C67.2734 38.6376 66.931 38.3727 66.8324 37.9933L66.8064 37.8931Z" fill="#14532D"/>
</g>
<g filter="url(#filter23_f_3_11292)">
<rect x="75.8516" y="34.2148" width="2.11928" height="6.58528" rx="1.05964" transform="rotate(47.4564 75.8516 34.2148)" fill="white" fill-opacity="0.2"/>
</g>
<path d="M81.5 23.1377C82.3974 23.2377 84.6538 23.9777 86.5 26.1377" stroke="black" stroke-opacity="0.12" stroke-linecap="round"/>
<path d="M79 24.6377C80.5 25.1377 83.5 26.4377 83.5 27.6377" stroke="black" stroke-opacity="0.12" stroke-linecap="round"/>
<path d="M67 7.6377C68.1667 7.6377 71.5 8.5377 75.5 12.1377" stroke="black" stroke-opacity="0.12" stroke-linecap="round" stroke-linejoin="round"/>
<path d="M65 10.1377C66.6667 10.1377 70.5 10.6377 72.5 12.6377" stroke="black" stroke-opacity="0.12" stroke-linecap="round" stroke-linejoin="round"/>
<path d="M40.5 4.13811C42.5 3.30477 47.3 2.03811 50.5 3.63811M18.5 14.1381C19 12.4714 21.7 8.93806 28.5 8.13806M30 10.6381C26.4999 10.6381 25.1999 12.3381 23.9999 13.1381M41.9999 5.63806C43.6666 5.30473 47.4999 4.83806 49.4999 5.63806" stroke="black" stroke-opacity="0.12" stroke-linecap="round" stroke-linejoin="round"/>
<path d="M9.36078 39.5764C8.56464 40.1337 7.09318 41.9592 7.57651 44.8029M11.3723 38.2177C10.7611 39.5875 9.96454 42.8456 11.6674 44.9194" stroke="black" stroke-opacity="0.12" stroke-linecap="round" stroke-linejoin="round"/>
<defs>
<filter id="filter0_iii_3_11292" x="-0.585938" y="17.9385" width="105.586" height="180.199" filterUnits="userSpaceOnUse" color-interpolation-filters="sRGB">
<feFlood flood-opacity="0" result="BackgroundImageFix"/>
<feBlend mode="normal" in="SourceGraphic" in2="BackgroundImageFix" result="shape"/>
<feColorMatrix in="SourceAlpha" type="matrix" values="0 0 0 0 0 0 0 0 0 0 0 0 0 0 0 0 0 0 127 0" result="hardAlpha"/>
<feOffset dx="16" dy="4"/>
<feGaussianBlur stdDeviation="10"/>
<feComposite in2="hardAlpha" operator="arithmetic" k2="-1" k3="1"/>
<feColorMatrix type="matrix" values="0 0 0 0 0 0 0 0 0 0 0 0 0 0 0 0 0 0 0.25 0"/>
<feBlend mode="normal" in2="shape" result="effect1_innerShadow_3_11292"/>
<feColorMatrix in="SourceAlpha" type="matrix" values="0 0 0 0 0 0 0 0 0 0 0 0 0 0 0 0 0 0 127 0" result="hardAlpha"/>
<feOffset dy="28"/>
<feGaussianBlur stdDeviation="6"/>
<feComposite in2="hardAlpha" operator="arithmetic" k2="-1" k3="1"/>
<feColorMatrix type="matrix" values="0 0 0 0 0 0 0 0 0 0 0 0 0 0 0 0 0 0 0.25 0"/>
<feBlend mode="normal" in2="effect1_innerShadow_3_11292" result="effect2_innerShadow_3_11292"/>
<feColorMatrix in="SourceAlpha" type="matrix" values="0 0 0 0 0 0 0 0 0 0 0 0 0 0 0 0 0 0 127 0" result="hardAlpha"/>
<feOffset dx="-8" dy="4"/>
<feGaussianBlur stdDeviation="6"/>
<feComposite in2="hardAlpha" operator="arithmetic" k2="-1" k3="1"/>
<feColorMatrix type="matrix" values="0 0 0 0 1 0 0 0 0 1 0 0 0 0 1 0 0 0 0.25 0"/>
<feBlend mode="normal" in2="effect2_innerShadow_3_11292" result="effect3_innerShadow_3_11292"/>
</filter>
<filter id="filter1_dii_3_11292" x="22.3828" y="50.2578" width="20.0918" height="32.4424" filterUnits="userSpaceOnUse" color-interpolation-filters="sRGB">
<feFlood flood-opacity="0" result="BackgroundImageFix"/>
<feColorMatrix in="SourceAlpha" type="matrix" values="0 0 0 0 0 0 0 0 0 0 0 0 0 0 0 0 0 0 127 0" result="hardAlpha"/>
<feOffset/>
<feGaussianBlur stdDeviation="2"/>
<feComposite in2="hardAlpha" operator="out"/>
<feColorMatrix type="matrix" values="0 0 0 0 1 0 0 0 0 1 0 0 0 0 1 0 0 0 0.25 0"/>
<feBlend mode="normal" in2="BackgroundImageFix" result="effect1_dropShadow_3_11292"/>
<feBlend mode="normal" in="SourceGraphic" in2="effect1_dropShadow_3_11292" result="shape"/>
<feColorMatrix in="SourceAlpha" type="matrix" values="0 0 0 0 0 0 0 0 0 0 0 0 0 0 0 0 0 0 127 0" result="hardAlpha"/>
<feOffset dy="3"/>
<feComposite in2="hardAlpha" operator="arithmetic" k2="-1" k3="1"/>
<feColorMatrix type="matrix" values="0 0 0 0 0 0 0 0 0 0 0 0 0 0 0 0 0 0 0.25 0"/>
<feBlend mode="normal" in2="shape" result="effect2_innerShadow_3_11292"/>
<feColorMatrix in="SourceAlpha" type="matrix" values="0 0 0 0 0 0 0 0 0 0 0 0 0 0 0 0 0 0 127 0" result="hardAlpha"/>
<feOffset dx="7" dy="12"/>
<feComposite in2="hardAlpha" operator="arithmetic" k2="-1" k3="1"/>
<feColorMatrix type="matrix" values="0 0 0 0 0 0 0 0 0 0 0 0 0 0 0 0 0 0 0.25 0"/>
<feBlend mode="normal" in2="effect2_innerShadow_3_11292" result="effect3_innerShadow_3_11292"/>
</filter>
<filter id="filter2_iii_3_11292" x="23" y="20" width="59" height="59" filterUnits="userSpaceOnUse" color-interpolation-filters="sRGB">
<feFlood flood-opacity="0" result="BackgroundImageFix"/>
<feBlend mode="normal" in="SourceGraphic" in2="BackgroundImageFix" result="shape"/>
<feColorMatrix in="SourceAlpha" type="matrix" values="0 0 0 0 0 0 0 0 0 0 0 0 0 0 0 0 0 0 127 0" result="hardAlpha"/>
<feOffset dx="8" dy="-8"/>
<feGaussianBlur stdDeviation="6"/>
<feComposite in2="hardAlpha" operator="arithmetic" k2="-1" k3="1"/>
<feColorMatrix type="matrix" values="0 0 0 0 0 0 0 0 0 0 0 0 0 0 0 0 0 0 0.25 0"/>
<feBlend mode="normal" in2="shape" result="effect1_innerShadow_3_11292"/>
<feColorMatrix in="SourceAlpha" type="matrix" values="0 0 0 0 0 0 0 0 0 0 0 0 0 0 0 0 0 0 127 0" result="hardAlpha"/>
<feOffset dx="-8" dy="4"/>
<feGaussianBlur stdDeviation="2"/>
<feComposite in2="hardAlpha" operator="arithmetic" k2="-1" k3="1"/>
<feColorMatrix type="matrix" values="0 0 0 0 1 0 0 0 0 1 0 0 0 0 1 0 0 0 0.45 0"/>
<feBlend mode="normal" in2="effect1_innerShadow_3_11292" result="effect2_innerShadow_3_11292"/>
<feColorMatrix in="SourceAlpha" type="matrix" values="0 0 0 0 0 0 0 0 0 0 0 0 0 0 0 0 0 0 127 0" result="hardAlpha"/>
<feOffset dx="8" dy="-4"/>
<feGaussianBlur stdDeviation="6"/>
<feComposite in2="hardAlpha" operator="arithmetic" k2="-1" k3="1"/>
<feColorMatrix type="matrix" values="0 0 0 0 0 0 0 0 0 0 0 0 0 0 0 0 0 0 0.25 0"/>
<feBlend mode="normal" in2="effect2_innerShadow_3_11292" result="effect3_innerShadow_3_11292"/>
</filter>
<filter id="filter3_i_3_11292" x="36" y="34" width="37" height="37" filterUnits="userSpaceOnUse" color-interpolation-filters="sRGB">
<feFlood flood-opacity="0" result="BackgroundImageFix"/>
<feBlend mode="normal" in="SourceGraphic" in2="BackgroundImageFix" result="shape"/>
<feColorMatrix in="SourceAlpha" type="matrix" values="0 0 0 0 0 0 0 0 0 0 0 0 0 0 0 0 0 0 127 0" result="hardAlpha"/>
<feOffset dx="8" dy="-8"/>
<feGaussianBlur stdDeviation="6"/>
<feComposite in2="hardAlpha" operator="arithmetic" k2="-1" k3="1"/>
<feColorMatrix type="matrix" values="0 0 0 0 0 0 0 0 0 0 0 0 0 0 0 0 0 0 0.25 0"/>
<feBlend mode="normal" in2="shape" result="effect1_innerShadow_3_11292"/>
</filter>
<filter id="filter4_i_3_11292" x="43" y="41" width="23" height="23" filterUnits="userSpaceOnUse" color-interpolation-filters="sRGB">
<feFlood flood-opacity="0" result="BackgroundImageFix"/>
<feBlend mode="normal" in="SourceGraphic" in2="BackgroundImageFix" result="shape"/>
<feColorMatrix in="SourceAlpha" type="matrix" values="0 0 0 0 0 0 0 0 0 0 0 0 0 0 0 0 0 0 127 0" result="hardAlpha"/>
<feOffset dx="8" dy="-8"/>
<feGaussianBlur stdDeviation="6"/>
<feComposite in2="hardAlpha" operator="arithmetic" k2="-1" k3="1"/>
<feColorMatrix type="matrix" values="0 0 0 0 0 0 0 0 0 0 0 0 0 0 0 0 0 0 0.25 0"/>
<feBlend mode="normal" in2="shape" result="effect1_innerShadow_3_11292"/>
</filter>
<filter id="filter5_f_3_11292" x="38.8027" y="27.6562" width="39.5566" height="39.9805" filterUnits="userSpaceOnUse" color-interpolation-filters="sRGB">
<feFlood flood-opacity="0" result="BackgroundImageFix"/>
<feBlend mode="normal" in="SourceGraphic" in2="BackgroundImageFix" result="shape"/>
<feGaussianBlur stdDeviation="5.5" result="effect1_foregroundBlur_3_11292"/>
</filter>
<filter id="filter6_f_3_11292" x="24.2344" y="76.2539" width="52.333" height="112.884" filterUnits="userSpaceOnUse" color-interpolation-filters="sRGB">
<feFlood flood-opacity="0" result="BackgroundImageFix"/>
<feBlend mode="normal" in="SourceGraphic" in2="BackgroundImageFix" result="shape"/>
<feGaussianBlur stdDeviation="3" result="effect1_foregroundBlur_3_11292"/>
</filter>
<filter id="filter7_dii_3_11292" x="18" y="128.138" width="35.543" height="47.7871" filterUnits="userSpaceOnUse" color-interpolation-filters="sRGB">
<feFlood flood-opacity="0" result="BackgroundImageFix"/>
<feColorMatrix in="SourceAlpha" type="matrix" values="0 0 0 0 0 0 0 0 0 0 0 0 0 0 0 0 0 0 127 0" result="hardAlpha"/>
<feOffset/>
<feGaussianBlur stdDeviation="2"/>
<feComposite in2="hardAlpha" operator="out"/>
<feColorMatrix type="matrix" values="0 0 0 0 1 0 0 0 0 1 0 0 0 0 1 0 0 0 0.25 0"/>
<feBlend mode="normal" in2="BackgroundImageFix" result="effect1_dropShadow_3_11292"/>
<feBlend mode="normal" in="SourceGraphic" in2="effect1_dropShadow_3_11292" result="shape"/>
<feColorMatrix in="SourceAlpha" type="matrix" values="0 0 0 0 0 0 0 0 0 0 0 0 0 0 0 0 0 0 127 0" result="hardAlpha"/>
<feOffset dy="3"/>
<feComposite in2="hardAlpha" operator="arithmetic" k2="-1" k3="1"/>
<feColorMatrix type="matrix" values="0 0 0 0 0 0 0 0 0 0 0 0 0 0 0 0 0 0 0.25 0"/>
<feBlend mode="normal" in2="shape" result="effect2_innerShadow_3_11292"/>
<feColorMatrix in="SourceAlpha" type="matrix" values="0 0 0 0 0 0 0 0 0 0 0 0 0 0 0 0 0 0 127 0" result="hardAlpha"/>
<feOffset dx="7" dy="12"/>
<feComposite in2="hardAlpha" operator="arithmetic" k2="-1" k3="1"/>
<feColorMatrix type="matrix" values="0 0 0 0 0 0 0 0 0 0 0 0 0 0 0 0 0 0 0.25 0"/>
<feBlend mode="normal" in2="effect2_innerShadow_3_11292" result="effect3_innerShadow_3_11292"/>
</filter>
<filter id="filter8_dii_3_11292" x="56" y="94.1377" width="24" height="66.917" filterUnits="userSpaceOnUse" color-interpolation-filters="sRGB">
<feFlood flood-opacity="0" result="BackgroundImageFix"/>
<feColorMatrix in="SourceAlpha" type="matrix" values="0 0 0 0 0 0 0 0 0 0 0 0 0 0 0 0 0 0 127 0" result="hardAlpha"/>
<feOffset/>
<feGaussianBlur stdDeviation="2"/>
<feComposite in2="hardAlpha" operator="out"/>
<feColorMatrix type="matrix" values="0 0 0 0 1 0 0 0 0 1 0 0 0 0 1 0 0 0 0.25 0"/>
<feBlend mode="normal" in2="BackgroundImageFix" result="effect1_dropShadow_3_11292"/>
<feBlend mode="normal" in="SourceGraphic" in2="effect1_dropShadow_3_11292" result="shape"/>
<feColorMatrix in="SourceAlpha" type="matrix" values="0 0 0 0 0 0 0 0 0 0 0 0 0 0 0 0 0 0 127 0" result="hardAlpha"/>
<feOffset dy="3"/>
<feComposite in2="hardAlpha" operator="arithmetic" k2="-1" k3="1"/>
<feColorMatrix type="matrix" values="0 0 0 0 0 0 0 0 0 0 0 0 0 0 0 0 0 0 0.25 0"/>
<feBlend mode="normal" in2="shape" result="effect2_innerShadow_3_11292"/>
<feColorMatrix in="SourceAlpha" type="matrix" values="0 0 0 0 0 0 0 0 0 0 0 0 0 0 0 0 0 0 127 0" result="hardAlpha"/>
<feOffset dx="7" dy="12"/>
<feComposite in2="hardAlpha" operator="arithmetic" k2="-1" k3="1"/>
<feColorMatrix type="matrix" values="0 0 0 0 0 0 0 0 0 0 0 0 0 0 0 0 0 0 0.25 0"/>
<feBlend mode="normal" in2="effect2_innerShadow_3_11292" result="effect3_innerShadow_3_11292"/>
</filter>
<filter id="filter9_i_3_11292" x="35.4707" y="-1.5127" width="25.7559" height="34.2217" filterUnits="userSpaceOnUse" color-interpolation-filters="sRGB">
<feFlood flood-opacity="0" result="BackgroundImageFix"/>
<feBlend mode="normal" in="SourceGraphic" in2="BackgroundImageFix" result="shape"/>
<feColorMatrix in="SourceAlpha" type="matrix" values="0 0 0 0 0 0 0 0 0 0 0 0 0 0 0 0 0 0 127 0" result="hardAlpha"/>
<feOffset dx="5" dy="-2"/>
<feGaussianBlur stdDeviation="4"/>
<feComposite in2="hardAlpha" operator="arithmetic" k2="-1" k3="1"/>
<feColorMatrix type="matrix" values="0 0 0 0 0 0 0 0 0 0 0 0 0 0 0 0 0 0 0.25 0"/>
<feBlend mode="normal" in2="shape" result="effect1_innerShadow_3_11292"/>
</filter>
<filter id="filter10_di_3_11292" x="34.8125" y="13.749" width="23.6465" height="24.7812" filterUnits="userSpaceOnUse" color-interpolation-filters="sRGB">
<feFlood flood-opacity="0" result="BackgroundImageFix"/>
<feColorMatrix in="SourceAlpha" type="matrix" values="0 0 0 0 0 0 0 0 0 0 0 0 0 0 0 0 0 0 127 0" result="hardAlpha"/>
<feOffset dy="4"/>
<feGaussianBlur stdDeviation="2"/>
<feComposite in2="hardAlpha" operator="out"/>
<feColorMatrix type="matrix" values="0 0 0 0 0 0 0 0 0 0 0 0 0 0 0 0 0 0 0.25 0"/>
<feBlend mode="normal" in2="BackgroundImageFix" result="effect1_dropShadow_3_11292"/>
<feBlend mode="normal" in="SourceGraphic" in2="effect1_dropShadow_3_11292" result="shape"/>
<feColorMatrix in="SourceAlpha" type="matrix" values="0 0 0 0 0 0 0 0 0 0 0 0 0 0 0 0 0 0 127 0" result="hardAlpha"/>
<feOffset dx="5" dy="-1"/>
<feGaussianBlur stdDeviation="4"/>
<feComposite in2="hardAlpha" operator="arithmetic" k2="-1" k3="1"/>
<feColorMatrix type="matrix" values="0 0 0 0 0 0 0 0 0 0 0 0 0 0 0 0 0 0 0.25 0"/>
<feBlend mode="normal" in2="shape" result="effect2_innerShadow_3_11292"/>
</filter>
<filter id="filter11_f_3_11292" x="45.0293" y="13.167" width="9.11914" height="14.999" filterUnits="userSpaceOnUse" color-interpolation-filters="sRGB">
<feFlood flood-opacity="0" result="BackgroundImageFix"/>
<feBlend mode="normal" in="SourceGraphic" in2="BackgroundImageFix" result="shape"/>
<feGaussianBlur stdDeviation="1.5" result="effect1_foregroundBlur_3_11292"/>
</filter>
<filter id="filter12_i_3_11292" x="53.6875" y="4.79102" width="28.9531" height="32.4805" filterUnits="userSpaceOnUse" color-interpolation-filters="sRGB">
<feFlood flood-opacity="0" result="BackgroundImageFix"/>
<feBlend mode="normal" in="SourceGraphic" in2="BackgroundImageFix" result="shape"/>
<feColorMatrix in="SourceAlpha" type="matrix" values="0 0 0 0 0 0 0 0 0 0 0 0 0 0 0 0 0 0 127 0" result="hardAlpha"/>
<feOffset dx="5" dy="-1"/>
<feGaussianBlur stdDeviation="4"/>
<feComposite in2="hardAlpha" operator="arithmetic" k2="-1" k3="1"/>
<feColorMatrix type="matrix" values="0 0 0 0 0 0 0 0 0 0 0 0 0 0 0 0 0 0 0.25 0"/>
<feBlend mode="normal" in2="shape" result="effect1_innerShadow_3_11292"/>
</filter>
<filter id="filter13_di_3_11292" x="50.8496" y="17.2109" width="24.3369" height="25.5557" filterUnits="userSpaceOnUse" color-interpolation-filters="sRGB">
<feFlood flood-opacity="0" result="BackgroundImageFix"/>
<feColorMatrix in="SourceAlpha" type="matrix" values="0 0 0 0 0 0 0 0 0 0 0 0 0 0 0 0 0 0 127 0" result="hardAlpha"/>
<feOffset dy="4"/>
<feGaussianBlur stdDeviation="2"/>
<feComposite in2="hardAlpha" operator="out"/>
<feColorMatrix type="matrix" values="0 0 0 0 0 0 0 0 0 0 0 0 0 0 0 0 0 0 0.25 0"/>
<feBlend mode="normal" in2="BackgroundImageFix" result="effect1_dropShadow_3_11292"/>
<feBlend mode="normal" in="SourceGraphic" in2="effect1_dropShadow_3_11292" result="shape"/>
<feColorMatrix in="SourceAlpha" type="matrix" values="0 0 0 0 0 0 0 0 0 0 0 0 0 0 0 0 0 0 127 0" result="hardAlpha"/>
<feOffset dx="5" dy="-1"/>
<feGaussianBlur stdDeviation="4"/>
<feComposite in2="hardAlpha" operator="arithmetic" k2="-1" k3="1"/>
<feColorMatrix type="matrix" values="0 0 0 0 0 0 0 0 0 0 0 0 0 0 0 0 0 0 0.25 0"/>
<feBlend mode="normal" in2="shape" result="effect2_innerShadow_3_11292"/>
</filter>
<filter id="filter14_f_3_11292" x="59.4941" y="18.6348" width="11.5596" height="14.4277" filterUnits="userSpaceOnUse" color-interpolation-filters="sRGB">
<feFlood flood-opacity="0" result="BackgroundImageFix"/>
<feBlend mode="normal" in="SourceGraphic" in2="BackgroundImageFix" result="shape"/>
<feGaussianBlur stdDeviation="1.5" result="effect1_foregroundBlur_3_11292"/>
</filter>
<filter id="filter15_i_3_11292" x="15.6406" y="5.05957" width="30.8203" height="32.4033" filterUnits="userSpaceOnUse" color-interpolation-filters="sRGB">
<feFlood flood-opacity="0" result="BackgroundImageFix"/>
<feBlend mode="normal" in="SourceGraphic" in2="BackgroundImageFix" result="shape"/>
<feColorMatrix in="SourceAlpha" type="matrix" values="0 0 0 0 0 0 0 0 0 0 0 0 0 0 0 0 0 0 127 0" result="hardAlpha"/>
<feOffset dx="7" dy="-1"/>
<feGaussianBlur stdDeviation="4"/>
<feComposite in2="hardAlpha" operator="arithmetic" k2="-1" k3="1"/>
<feColorMatrix type="matrix" values="0 0 0 0 0 0 0 0 0 0 0 0 0 0 0 0 0 0 0.25 0"/>
<feBlend mode="normal" in2="shape" result="effect1_innerShadow_3_11292"/>
</filter>
<filter id="filter16_di_3_11292" x="22.5488" y="20.3916" width="25.1914" height="23.2939" filterUnits="userSpaceOnUse" color-interpolation-filters="sRGB">
<feFlood flood-opacity="0" result="BackgroundImageFix"/>
<feColorMatrix in="SourceAlpha" type="matrix" values="0 0 0 0 0 0 0 0 0 0 0 0 0 0 0 0 0 0 127 0" result="hardAlpha"/>
<feOffset dy="4"/>
<feGaussianBlur stdDeviation="2"/>
<feComposite in2="hardAlpha" operator="out"/>
<feColorMatrix type="matrix" values="0 0 0 0 0 0 0 0 0 0 0 0 0 0 0 0 0 0 0.25 0"/>
<feBlend mode="normal" in2="BackgroundImageFix" result="effect1_dropShadow_3_11292"/>
<feBlend mode="normal" in="SourceGraphic" in2="effect1_dropShadow_3_11292" result="shape"/>
<feColorMatrix in="SourceAlpha" type="matrix" values="0 0 0 0 0 0 0 0 0 0 0 0 0 0 0 0 0 0 127 0" result="hardAlpha"/>
<feOffset dx="7" dy="-1"/>
<feGaussianBlur stdDeviation="4"/>
<feComposite in2="hardAlpha" operator="arithmetic" k2="-1" k3="1"/>
<feColorMatrix type="matrix" values="0 0 0 0 0 0 0 0 0 0 0 0 0 0 0 0 0 0 0.25 0"/>
<feBlend mode="normal" in2="shape" result="effect2_innerShadow_3_11292"/>
</filter>
<filter id="filter17_f_3_11292" x="30.4062" y="19.5449" width="10.6582" height="12.708" filterUnits="userSpaceOnUse" color-interpolation-filters="sRGB">
<feFlood flood-opacity="0" result="BackgroundImageFix"/>
<feBlend mode="normal" in="SourceGraphic" in2="BackgroundImageFix" result="shape"/>
<feGaussianBlur stdDeviation="1.5" result="effect1_foregroundBlur_3_11292"/>
</filter>
<filter id="filter18_i_3_11292" x="4.63477" y="25.2139" width="34.6816" height="31.8203" filterUnits="userSpaceOnUse" color-interpolation-filters="sRGB">
<feFlood flood-opacity="0" result="BackgroundImageFix"/>
<feBlend mode="normal" in="SourceGraphic" in2="BackgroundImageFix" result="shape"/>
<feColorMatrix in="SourceAlpha" type="matrix" values="0 0 0 0 0 0 0 0 0 0 0 0 0 0 0 0 0 0 127 0" result="hardAlpha"/>
<feOffset dx="6" dy="-8"/>
<feGaussianBlur stdDeviation="4"/>
<feComposite in2="hardAlpha" operator="arithmetic" k2="-1" k3="1"/>
<feColorMatrix type="matrix" values="0 0 0 0 0 0 0 0 0 0 0 0 0 0 0 0 0 0 0.35 0"/>
<feBlend mode="normal" in2="shape" result="effect1_innerShadow_3_11292"/>
</filter>
<filter id="filter19_di_3_11292" x="12.332" y="25.6729" width="30.0039" height="30.5625" filterUnits="userSpaceOnUse" color-interpolation-filters="sRGB">
<feFlood flood-opacity="0" result="BackgroundImageFix"/>
<feColorMatrix in="SourceAlpha" type="matrix" values="0 0 0 0 0 0 0 0 0 0 0 0 0 0 0 0 0 0 127 0" result="hardAlpha"/>
<feOffset dy="4"/>
<feGaussianBlur stdDeviation="2"/>
<feComposite in2="hardAlpha" operator="out"/>
<feColorMatrix type="matrix" values="0 0 0 0 0 0 0 0 0 0 0 0 0 0 0 0 0 0 0.25 0"/>
<feBlend mode="normal" in2="BackgroundImageFix" result="effect1_dropShadow_3_11292"/>
<feBlend mode="normal" in="SourceGraphic" in2="effect1_dropShadow_3_11292" result="shape"/>
<feColorMatrix in="SourceAlpha" type="matrix" values="0 0 0 0 0 0 0 0 0 0 0 0 0 0 0 0 0 0 127 0" result="hardAlpha"/>
<feOffset dx="9" dy="-8"/>
<feGaussianBlur stdDeviation="4"/>
<feComposite in2="hardAlpha" operator="arithmetic" k2="-1" k3="1"/>
<feColorMatrix type="matrix" values="0 0 0 0 0 0 0 0 0 0 0 0 0 0 0 0 0 0 0.25 0"/>
<feBlend mode="normal" in2="shape" result="effect2_innerShadow_3_11292"/>
</filter>
<filter id="filter20_f_3_11292" x="24.1367" y="32.2324" width="11.1895" height="8.39258" filterUnits="userSpaceOnUse" color-interpolation-filters="sRGB">
<feFlood flood-opacity="0" result="BackgroundImageFix"/>
<feBlend mode="normal" in="SourceGraphic" in2="BackgroundImageFix" result="shape"/>
<feGaussianBlur stdDeviation="1.5" result="effect1_foregroundBlur_3_11292"/>
</filter>
<filter id="filter21_i_3_11292" x="65.5273" y="18.0811" width="27.7617" height="27.627" filterUnits="userSpaceOnUse" color-interpolation-filters="sRGB">
<feFlood flood-opacity="0" result="BackgroundImageFix"/>
<feBlend mode="normal" in="SourceGraphic" in2="BackgroundImageFix" result="shape"/>
<feColorMatrix in="SourceAlpha" type="matrix" values="0 0 0 0 0 0 0 0 0 0 0 0 0 0 0 0 0 0 127 0" result="hardAlpha"/>
<feOffset dx="4" dy="-4"/>
<feGaussianBlur stdDeviation="4"/>
<feComposite in2="hardAlpha" operator="arithmetic" k2="-1" k3="1"/>
<feColorMatrix type="matrix" values="0 0 0 0 0 0 0 0 0 0 0 0 0 0 0 0 0 0 0.25 0"/>
<feBlend mode="normal" in2="shape" result="effect1_innerShadow_3_11292"/>
</filter>
<filter id="filter22_di_3_11292" x="62.6465" y="26.4121" width="19.3916" height="23.5176" filterUnits="userSpaceOnUse" color-interpolation-filters="sRGB">
<feFlood flood-opacity="0" result="BackgroundImageFix"/>
<feColorMatrix in="SourceAlpha" type="matrix" values="0 0 0 0 0 0 0 0 0 0 0 0 0 0 0 0 0 0 127 0" result="hardAlpha"/>
<feOffset dy="4"/>
<feGaussianBlur stdDeviation="2"/>
<feComposite in2="hardAlpha" operator="out"/>
<feColorMatrix type="matrix" values="0 0 0 0 0 0 0 0 0 0 0 0 0 0 0 0 0 0 0.25 0"/>
<feBlend mode="normal" in2="BackgroundImageFix" result="effect1_dropShadow_3_11292"/>
<feBlend mode="normal" in="SourceGraphic" in2="effect1_dropShadow_3_11292" result="shape"/>
<feColorMatrix in="SourceAlpha" type="matrix" values="0 0 0 0 0 0 0 0 0 0 0 0 0 0 0 0 0 0 127 0" result="hardAlpha"/>
<feOffset dx="4" dy="-4"/>
<feGaussianBlur stdDeviation="4"/>
<feComposite in2="hardAlpha" operator="arithmetic" k2="-1" k3="1"/>
<feColorMatrix type="matrix" values="0 0 0 0 0 0 0 0 0 0 0 0 0 0 0 0 0 0 0.25 0"/>
<feBlend mode="normal" in2="shape" result="effect2_innerShadow_3_11292"/>
</filter>
<filter id="filter23_f_3_11292" x="68.4375" y="31.6523" width="11.4092" height="11.1387" filterUnits="userSpaceOnUse" color-interpolation-filters="sRGB">
<feFlood flood-opacity="0" result="BackgroundImageFix"/>
<feBlend mode="normal" in="SourceGraphic" in2="BackgroundImageFix" result="shape"/>
<feGaussianBlur stdDeviation="1.5" result="effect1_foregroundBlur_3_11292"/>
</filter>
</defs>
</svg>
