<svg width="1502" height="1300" viewBox="0 0 1502 1300" fill="none" xmlns="http://www.w3.org/2000/svg">
<mask id="mask0_1_4211" style="mask-type:alpha" maskUnits="userSpaceOnUse" x="0" y="0" width="1502" height="1300">
<path d="M1126 1300H751H376L188 975L0 650L188 325L376 0H751H1126L1314 325L1502 650L1314 975L1126 1300Z" fill="#7AB87B"/>
</mask>
<g mask="url(#mask0_1_4211)">
<g filter="url(#filter0_dd_1_4211)">
<path d="M108 281L188 325L200.142 332.009C238.358 354.07 270.46 385.333 293.526 422.95C324.906 474.123 372.743 513.124 429.189 533.55L495.802 557.655C624.986 604.401 675.245 760.544 597.584 873.869C549.436 944.127 463.623 978.35 380.34 960.506L337.831 951.399C286.688 940.441 233.298 948.851 188 975L108 1029" stroke="#D7B99A" stroke-width="200"/>
</g>
<path d="M108 281L188 325L200.142 332.009C238.358 354.07 270.46 385.333 293.526 422.95C324.906 474.123 372.743 513.124 429.189 533.55L495.802 557.655C624.986 604.401 675.245 760.544 597.584 873.869C549.436 944.127 463.623 978.35 380.34 960.506L337.831 951.399C286.688 940.441 233.298 948.851 188 975L108 1029" stroke="#E4CEB8" stroke-width="175"/>
<g filter="url(#filter1_i_1_4211)">
<path d="M271.223 370.974L261.57 372.762C259.006 373.237 257.237 375.603 257.507 378.196L257.991 382.839C258.146 384.326 258.958 385.665 260.204 386.49L265.2 389.797C266.232 390.481 267.483 390.757 268.707 390.572L271.896 390.09C273.4 389.862 274.719 388.963 275.479 387.646L278.351 382.672C279.148 381.291 279.239 379.614 278.596 378.155L276.708 373.873C275.773 371.752 273.502 370.551 271.223 370.974Z" fill="white" fill-opacity="0.2"/>
</g>
<g filter="url(#filter2_i_1_4211)">
<path d="M300.184 968.291L297.307 973.626C296.661 974.825 296.531 976.234 296.948 977.53L298.235 981.531C298.577 982.594 299.265 983.512 300.189 984.139L301.236 984.849C302.006 985.371 302.906 985.668 303.836 985.706L310.808 985.994C312.023 986.044 313.215 985.649 314.16 984.884L315.605 983.715C316.78 982.764 317.461 981.333 317.459 979.822L317.452 974.15C317.45 972.52 316.653 970.993 315.317 970.059L309.937 966.297C308.946 965.604 307.737 965.294 306.535 965.424L304.047 965.693C302.41 965.87 300.966 966.842 300.184 968.291Z" fill="white" fill-opacity="0.2"/>
</g>
<g filter="url(#filter3_i_1_4211)">
<path d="M315.728 1009.91L313.644 1009.85C312.744 1009.82 311.87 1009.55 311.116 1009.06L310.79 1008.84C308.796 1007.55 308.166 1004.91 309.356 1002.85C310.147 1001.48 311.601 1000.63 313.182 1000.61L315.305 1000.59C316.763 1000.57 318.152 1001.21 319.094 1002.32L319.279 1002.54C320.499 1003.98 320.683 1006.03 319.738 1007.67C318.914 1009.1 317.375 1009.96 315.728 1009.91Z" fill="white" fill-opacity="0.2"/>
</g>
<g filter="url(#filter4_i_1_4211)">
<path d="M662.719 659.341L663.814 661.116C664.287 661.882 664.961 662.503 665.763 662.91L666.111 663.086C668.233 664.163 670.826 663.393 672.016 661.332C672.807 659.963 672.817 658.278 672.042 656.899L671.002 655.048C670.288 653.777 669.044 652.891 667.609 652.632L667.327 652.581C665.468 652.246 663.598 653.113 662.653 654.75C661.829 656.176 661.855 657.939 662.719 659.341Z" fill="white" fill-opacity="0.2"/>
</g>
<g filter="url(#filter5_i_1_4211)">
<path d="M636.893 685.703L637.159 688.327C637.272 689.437 637.752 690.476 638.523 691.281L639.703 692.514C641.072 693.943 643.154 694.431 645.015 693.758L648.49 692.501C649.703 692.062 650.7 691.172 651.271 690.016L653.302 685.909C654.212 684.072 653.906 681.865 652.533 680.343L651.585 679.292C650.619 678.222 649.239 677.621 647.797 677.643L646.443 677.663C645.632 677.675 644.836 677.885 644.124 678.273L639.474 680.809C637.708 681.772 636.691 683.701 636.893 685.703Z" fill="white" fill-opacity="0.2"/>
</g>
<g filter="url(#filter6_i_1_4211)">
<path d="M568.484 884.381L567.863 881.344C567.657 880.335 567.145 879.415 566.396 878.708L563.329 875.815C562.09 874.646 560.341 874.188 558.689 874.6L553.553 875.88C552.103 876.241 550.891 877.232 550.248 878.581L548.263 882.748C547.349 884.667 547.747 886.954 549.256 888.45L551.822 890.993C552.671 891.835 553.794 892.344 554.987 892.429L557.916 892.638C558.709 892.695 559.504 892.561 560.235 892.249L565.549 889.981C567.733 889.048 568.959 886.708 568.484 884.381Z" fill="white" fill-opacity="0.2"/>
</g>
<path opacity="0.25" d="M557.036 816.263C560.281 816.263 563.751 818.409 563.751 823.017C563.751 827.624 561.121 828.578 557.876 828.578C554.631 828.578 552 827.624 552 823.017C552 818.409 553.791 816.263 557.036 816.263Z" fill="white"/>
<path opacity="0.25" d="M650.233 830.315C645.771 830.315 641 828.169 641 823.562C641 818.954 644.617 818 649.079 818C653.541 818 657.158 818.954 657.158 823.562C657.158 828.169 654.695 830.315 650.233 830.315Z" fill="white"/>
<path opacity="0.25" d="M619.285 847.353C623.791 847.353 628.609 849.034 628.609 852.643C628.609 856.253 624.956 857 620.45 857C615.944 857 612.291 856.253 612.291 852.643C612.291 849.034 614.778 847.353 619.285 847.353Z" fill="white"/>
<path opacity="0.25" d="M585.357 827.236C583.734 827.236 581.999 825.627 581.999 822.171C581.999 818.716 583.315 818 584.937 818C586.56 818 587.875 818.716 587.875 822.171C587.875 825.627 586.979 827.236 585.357 827.236Z" fill="white"/>
<path opacity="0.25" d="M663.357 808.236C661.734 808.236 659.999 806.627 659.999 803.171C659.999 799.716 661.315 799 662.937 799C664.56 799 665.875 799.716 665.875 803.171C665.875 806.627 664.979 808.236 663.357 808.236Z" fill="white"/>
</g>
<defs>
<filter id="filter0_dd_1_4211" x="52.0527" y="185.379" width="682.442" height="932.506" filterUnits="userSpaceOnUse" color-interpolation-filters="sRGB">
<feFlood flood-opacity="0" result="BackgroundImageFix"/>
<feColorMatrix in="SourceAlpha" type="matrix" values="0 0 0 0 0 0 0 0 0 0 0 0 0 0 0 0 0 0 127 0" result="hardAlpha"/>
<feOffset dy="-8"/>
<feComposite in2="hardAlpha" operator="out"/>
<feColorMatrix type="matrix" values="0 0 0 0 0 0 0 0 0 0 0 0 0 0 0 0 0 0 0.15 0"/>
<feBlend mode="normal" in2="BackgroundImageFix" result="effect1_dropShadow_1_4211"/>
<feColorMatrix in="SourceAlpha" type="matrix" values="0 0 0 0 0 0 0 0 0 0 0 0 0 0 0 0 0 0 127 0" result="hardAlpha"/>
<feOffset dy="6"/>
<feComposite in2="hardAlpha" operator="out"/>
<feColorMatrix type="matrix" values="0 0 0 0 1 0 0 0 0 1 0 0 0 0 1 0 0 0 0.15 0"/>
<feBlend mode="normal" in2="effect1_dropShadow_1_4211" result="effect2_dropShadow_1_4211"/>
<feBlend mode="normal" in="SourceGraphic" in2="effect2_dropShadow_1_4211" result="shape"/>
</filter>
<filter id="filter1_i_1_4211" x="257.48" y="370.89" width="21.5403" height="19.7383" filterUnits="userSpaceOnUse" color-interpolation-filters="sRGB">
<feFlood flood-opacity="0" result="BackgroundImageFix"/>
<feBlend mode="normal" in="SourceGraphic" in2="BackgroundImageFix" result="shape"/>
<feColorMatrix in="SourceAlpha" type="matrix" values="0 0 0 0 0 0 0 0 0 0 0 0 0 0 0 0 0 0 127 0" result="hardAlpha"/>
<feOffset dy="-2"/>
<feComposite in2="hardAlpha" operator="arithmetic" k2="-1" k3="1"/>
<feColorMatrix type="matrix" values="0 0 0 0 0 0 0 0 0 0 0 0 0 0 0 0 0 0 0.1 0"/>
<feBlend mode="normal" in2="shape" result="effect1_innerShadow_1_4211"/>
</filter>
<filter id="filter2_i_1_4211" x="296.708" y="965.395" width="20.7515" height="20.6035" filterUnits="userSpaceOnUse" color-interpolation-filters="sRGB">
<feFlood flood-opacity="0" result="BackgroundImageFix"/>
<feBlend mode="normal" in="SourceGraphic" in2="BackgroundImageFix" result="shape"/>
<feColorMatrix in="SourceAlpha" type="matrix" values="0 0 0 0 0 0 0 0 0 0 0 0 0 0 0 0 0 0 127 0" result="hardAlpha"/>
<feOffset dy="-2"/>
<feComposite in2="hardAlpha" operator="arithmetic" k2="-1" k3="1"/>
<feColorMatrix type="matrix" values="0 0 0 0 0 0 0 0 0 0 0 0 0 0 0 0 0 0 0.1 0"/>
<feBlend mode="normal" in2="shape" result="effect1_innerShadow_1_4211"/>
</filter>
<filter id="filter3_i_1_4211" x="308.755" y="1000.59" width="11.5828" height="9.32031" filterUnits="userSpaceOnUse" color-interpolation-filters="sRGB">
<feFlood flood-opacity="0" result="BackgroundImageFix"/>
<feBlend mode="normal" in="SourceGraphic" in2="BackgroundImageFix" result="shape"/>
<feColorMatrix in="SourceAlpha" type="matrix" values="0 0 0 0 0 0 0 0 0 0 0 0 0 0 0 0 0 0 127 0" result="hardAlpha"/>
<feOffset dy="-2"/>
<feComposite in2="hardAlpha" operator="arithmetic" k2="-1" k3="1"/>
<feColorMatrix type="matrix" values="0 0 0 0 0 0 0 0 0 0 0 0 0 0 0 0 0 0 0.1 0"/>
<feBlend mode="normal" in2="shape" result="effect1_innerShadow_1_4211"/>
</filter>
<filter id="filter4_i_1_4211" x="662.052" y="652.51" width="10.5637" height="11.0625" filterUnits="userSpaceOnUse" color-interpolation-filters="sRGB">
<feFlood flood-opacity="0" result="BackgroundImageFix"/>
<feBlend mode="normal" in="SourceGraphic" in2="BackgroundImageFix" result="shape"/>
<feColorMatrix in="SourceAlpha" type="matrix" values="0 0 0 0 0 0 0 0 0 0 0 0 0 0 0 0 0 0 127 0" result="hardAlpha"/>
<feOffset dy="-2"/>
<feComposite in2="hardAlpha" operator="arithmetic" k2="-1" k3="1"/>
<feColorMatrix type="matrix" values="0 0 0 0 0 0 0 0 0 0 0 0 0 0 0 0 0 0 0.1 0"/>
<feBlend mode="normal" in2="shape" result="effect1_innerShadow_1_4211"/>
</filter>
<filter id="filter5_i_1_4211" x="636.868" y="677.643" width="16.9529" height="16.4141" filterUnits="userSpaceOnUse" color-interpolation-filters="sRGB">
<feFlood flood-opacity="0" result="BackgroundImageFix"/>
<feBlend mode="normal" in="SourceGraphic" in2="BackgroundImageFix" result="shape"/>
<feColorMatrix in="SourceAlpha" type="matrix" values="0 0 0 0 0 0 0 0 0 0 0 0 0 0 0 0 0 0 127 0" result="hardAlpha"/>
<feOffset dy="-2"/>
<feComposite in2="hardAlpha" operator="arithmetic" k2="-1" k3="1"/>
<feColorMatrix type="matrix" values="0 0 0 0 0 0 0 0 0 0 0 0 0 0 0 0 0 0 0.1 0"/>
<feBlend mode="normal" in2="shape" result="effect1_innerShadow_1_4211"/>
</filter>
<filter id="filter6_i_1_4211" x="547.776" y="874.451" width="20.8093" height="18.1992" filterUnits="userSpaceOnUse" color-interpolation-filters="sRGB">
<feFlood flood-opacity="0" result="BackgroundImageFix"/>
<feBlend mode="normal" in="SourceGraphic" in2="BackgroundImageFix" result="shape"/>
<feColorMatrix in="SourceAlpha" type="matrix" values="0 0 0 0 0 0 0 0 0 0 0 0 0 0 0 0 0 0 127 0" result="hardAlpha"/>
<feOffset dy="-2"/>
<feComposite in2="hardAlpha" operator="arithmetic" k2="-1" k3="1"/>
<feColorMatrix type="matrix" values="0 0 0 0 0 0 0 0 0 0 0 0 0 0 0 0 0 0 0.1 0"/>
<feBlend mode="normal" in2="shape" result="effect1_innerShadow_1_4211"/>
</filter>
</defs>
</svg>
