<svg width="1545" height="1320" viewBox="0 0 1545 1320" fill="none" xmlns="http://www.w3.org/2000/svg">
<path d="M376 8.9407e-07H751H1126L1314 325L1502 650L1314 975L1126 1300H751H376L188 975L0 650L188 325L376 8.9407e-07Z" fill="#FEF08A"/>
<path d="M376 8.9407e-07H751H1126L1314 325L1502 650L1314 975L1126 1300H751H376L188 975L0 650L188 325L376 8.9407e-07Z" fill="#FEF08A"/>
<rect x="459" y="481" width="9" height="9" rx="4.5" fill="black" fill-opacity="0.08"/>
<rect x="1013" y="661" width="9" height="9" rx="4.5" fill="black" fill-opacity="0.08"/>
<rect x="836" y="822" width="6" height="6" rx="3" fill="black" fill-opacity="0.08"/>
<rect x="836" y="842" width="9" height="9" rx="4.5" fill="black" fill-opacity="0.08"/>
<rect x="1170" y="940" width="9" height="9" rx="4.5" fill="black" fill-opacity="0.08"/>
<rect x="1221" y="919" width="6" height="6" rx="3" fill="black" fill-opacity="0.08"/>
<rect x="556" y="1066" width="9" height="9" rx="4.5" fill="black" fill-opacity="0.08"/>
<rect x="256" y="957" width="9" height="9" rx="4.5" fill="black" fill-opacity="0.08"/>
<rect x="567" y="363" width="7" height="7" rx="3.5" fill="black" fill-opacity="0.08"/>
<rect x="452" y="1052" width="7" height="7" rx="3.5" fill="black" fill-opacity="0.08"/>
<rect x="313" y="319" width="7" height="7" rx="3.5" fill="black" fill-opacity="0.08"/>
<rect x="982" y="297" width="7" height="7" rx="3.5" fill="black" fill-opacity="0.08"/>
<rect x="433" y="523" width="7" height="7" rx="3.5" fill="black" fill-opacity="0.08"/>
<rect x="534" y="334" width="10" height="10" rx="5" fill="white" fill-opacity="0.5"/>
<rect x="301" y="332" width="9" height="9" rx="4.5" fill="white" fill-opacity="0.5"/>
<rect x="302" y="724" width="9" height="9" rx="4.5" fill="white" fill-opacity="0.5"/>
<rect x="529" y="953" width="10" height="10" rx="5" fill="white" fill-opacity="0.5"/>
<rect x="1000" y="312" width="10" height="10" rx="5" fill="white" fill-opacity="0.5"/>
<rect x="1109" y="700" width="9" height="9" rx="4.5" fill="white" fill-opacity="0.5"/>
<rect x="459" y="1034" width="11" height="11" rx="5.5" fill="white" fill-opacity="0.5"/>
<rect x="470" y="512" width="9" height="9" rx="4.5" fill="white" fill-opacity="0.5"/>
<rect x="1151" y="451" width="9" height="9" rx="4.5" fill="white" fill-opacity="0.5"/>
<rect x="1058" y="622" width="7" height="7" rx="3.5" fill="white" fill-opacity="0.5"/>
<rect x="1191" y="891" width="7" height="7" rx="3.5" fill="white" fill-opacity="0.5"/>
<rect x="979" y="319" width="7" height="7" rx="3.5" fill="white" fill-opacity="0.5"/>
<rect x="815" y="842" width="7" height="7" rx="3.5" fill="white" fill-opacity="0.5"/>
<rect x="1184" y="925" width="7" height="7" rx="3.5" fill="white" fill-opacity="0.5"/>
<rect x="433" y="505" width="7" height="7" rx="3.5" fill="white" fill-opacity="0.5"/>
<rect x="527" y="988" width="7" height="7" rx="3.5" fill="white" fill-opacity="0.5"/>
<rect x="860" y="835" width="7" height="7" rx="3.5" fill="white" fill-opacity="0.5"/>
<rect x="901" y="264" width="9" height="9" rx="4.5" fill="black" fill-opacity="0.08"/>
<mask id="mask0_1_3361" style="mask-type:alpha" maskUnits="userSpaceOnUse" x="0" y="0" width="1502" height="1300">
<path d="M1126 1300H751H376L188 975L0 650L188 325L376 0H751H1126L1314 325L1502 650L1314 975L1126 1300Z" fill="#7AB87B"/>
</mask>
<g mask="url(#mask0_1_3361)">
<g filter="url(#filter0_ii_1_3361)">
<path d="M8 195L188 325C438.204 469.434 751 288.9 751 0V-175L306 -93L8 195Z" fill="#7AB87B"/>
</g>
<mask id="mask1_1_3361" style="mask-type:alpha" maskUnits="userSpaceOnUse" x="8" y="-175" width="743" height="551">
<path d="M8 195L188 325C438.204 469.434 751 288.9 751 0V-175L306 -93L8 195Z" fill="#7AB87B"/>
</mask>
<g mask="url(#mask1_1_3361)">
<rect opacity="0.2" x="497" y="259" width="31" height="13" rx="6.5" fill="black" fill-opacity="0.12"/>
<rect opacity="0.2" x="605" y="141" width="30" height="7" rx="3.5" fill="black" fill-opacity="0.2"/>
<rect opacity="0.2" x="572" y="112" width="26" height="10" rx="5" fill="white" fill-opacity="0.2"/>
<rect opacity="0.5" x="339" y="110" width="21" height="9" rx="4.5" fill="white" fill-opacity="0.2"/>
<path fill-rule="evenodd" clip-rule="evenodd" d="M525.186 179.941C524.656 178.214 524.126 176.39 523.587 174.523C518.907 158.311 507.989 162.09 515.128 177.387C515.668 178.544 516.234 179.665 516.821 180.739C507.703 173.23 503.799 177.08 513.194 185.284C516.513 188.182 519.945 189.756 522.657 188.952C524.69 191.026 526.78 192.357 528.787 192.634C529.047 193.29 529.321 193.957 529.61 194.637C533.387 190.901 532.951 185.642 532.442 179.495C532.211 176.712 531.966 173.748 532.089 170.66C532.218 167.419 528.995 164.821 527.169 167.49C525.228 170.327 524.415 174.392 525.186 179.941Z" fill="url(#paint0_linear_1_3361)" fill-opacity="0.4"/>
</g>
</g>
<defs>
<filter id="filter0_ii_1_3361" x="8" y="-175" width="743" height="550.834" filterUnits="userSpaceOnUse" color-interpolation-filters="sRGB">
<feFlood flood-opacity="0" result="BackgroundImageFix"/>
<feBlend mode="normal" in="SourceGraphic" in2="BackgroundImageFix" result="shape"/>
<feColorMatrix in="SourceAlpha" type="matrix" values="0 0 0 0 0 0 0 0 0 0 0 0 0 0 0 0 0 0 127 0" result="hardAlpha"/>
<feOffset dy="-16"/>
<feComposite in2="hardAlpha" operator="arithmetic" k2="-1" k3="1"/>
<feColorMatrix type="matrix" values="0 0 0 0 0 0 0 0 0 0 0 0 0 0 0 0 0 0 0.15 0"/>
<feBlend mode="normal" in2="shape" result="effect1_innerShadow_1_3361"/>
<feColorMatrix in="SourceAlpha" type="matrix" values="0 0 0 0 0 0 0 0 0 0 0 0 0 0 0 0 0 0 127 0" result="hardAlpha"/>
<feOffset dy="12"/>
<feComposite in2="hardAlpha" operator="arithmetic" k2="-1" k3="1"/>
<feColorMatrix type="matrix" values="0 0 0 0 1 0 0 0 0 1 0 0 0 0 1 0 0 0 0.15 0"/>
<feBlend mode="normal" in2="effect1_innerShadow_1_3361" result="effect2_innerShadow_1_3361"/>
</filter>
<linearGradient id="paint0_linear_1_3361" x1="532.566" y1="180.202" x2="518.862" y2="156.664" gradientUnits="userSpaceOnUse">
<stop stop-color="white" stop-opacity="0"/>
<stop offset="1" stop-color="white"/>
</linearGradient>
</defs>
</svg>
