<svg width="418" height="407" viewBox="0 0 418 407" fill="none" xmlns="http://www.w3.org/2000/svg">
<ellipse opacity="0.5" cx="215.083" cy="252.805" rx="152.017" ry="152.282" fill="black" fill-opacity="0.12"/>
<ellipse opacity="0.5" cx="215.082" cy="252.805" rx="123.134" ry="123.492" fill="black" fill-opacity="0.2"/>
<g filter="url(#filter0_i_1142_269344)">
<path d="M376.225 232.34C367.279 224.897 358.263 218.384 349.572 213.635C345.199 211.246 340.684 213.81 339.741 218.703C338.427 225.354 329.744 234.536 329.1 226.279C328.321 215.576 325.063 204.986 314.629 207.494C313.865 207.678 313.114 207.879 312.378 208.096C298.596 212.321 286.56 216.855 280.454 229.31C271.786 246.071 271.039 269.854 287.75 280.24C295.071 284.79 300.253 294.937 300.217 303.557C302.368 325.475 327.312 334.079 342.781 323.255C343.631 322.738 344.429 322.243 345.213 321.758C346.814 320.769 345.821 316.788 344.302 315.679C340.734 312.738 344.766 307.756 348.862 309.618C350.67 310.407 354.088 311.491 357.425 312.537C360.805 313.597 364.371 314.046 367.881 313.565C379.077 312.029 389.597 308.499 397.508 297.496C409.152 279.699 417.347 258.292 417.27 258.099C417.257 258.074 416.986 258.51 415.75 258.099C409.979 255.968 391.179 247.235 376.225 232.34Z" fill="#427A42"/>
</g>
<g opacity="0.5" filter="url(#filter1_dd_1142_269344)">
<path d="M369.362 250.113C343.144 246.389 315.662 268.765 304.359 281.51C303.82 282.118 303.857 283.031 304.426 283.611C305.042 284.24 306.064 284.232 306.689 283.612C335.627 254.911 360.485 249.316 369.362 250.113Z" fill="white" fill-opacity="0.1" shape-rendering="crispEdges"/>
</g>
<g filter="url(#filter2_i_1142_269344)">
<path fill-rule="evenodd" clip-rule="evenodd" d="M348.13 211.653C348.628 220.548 349.118 229.308 349.284 237.8C349.422 244.849 344.149 251.829 337.102 251.608C328.305 251.289 311.374 257.221 321.929 260.735C334.455 264.884 346.419 273.644 340.759 285.554C340.129 286.88 339.457 288.19 338.743 289.485C328.929 306.963 319.385 322.91 302.376 325.937C283.278 329.057 257.716 322.07 242.862 305.936C231.848 293.973 213.562 281.161 197.343 282.242C161.86 286.855 142.804 264.922 154.594 224.763C156.729 217.031 160.236 209.822 164.382 201.768C165.673 199.26 169.304 199.943 171.242 201.995C179.32 210.158 181.611 201.869 181.859 194.394C182.146 185.461 181.648 182.794 180.286 177.73C179.739 175.632 179.415 173.659 180.614 171.855C195.761 149.07 214.461 131.46 243.967 126.062C284.468 122.626 337.758 134.55 338.247 134.931C338.286 134.959 338.272 135.327 338.249 135.896C338.215 136.781 338.161 138.15 338.261 139.477C338.299 140.084 338.34 140.759 338.384 141.497C338.911 150.259 339.972 167.914 343.682 186.045C343.613 186.105 343.546 186.163 343.48 186.22C341.958 187.546 341.056 188.332 336.884 189.941C328.149 193.334 315.831 206.207 327.112 205.446C333.777 204.985 339.451 201.295 345.352 197.455C345.645 197.265 345.939 197.073 346.234 196.882C346.382 197.433 346.534 197.982 346.688 198.53C347.26 200.563 347.635 202.646 347.749 204.754C347.872 207.061 348.001 209.362 348.13 211.653Z" fill="#579858"/>
</g>
<g opacity="0.5" filter="url(#filter3_dd_1142_269344)">
<path d="M264.935 171.848C229.518 192.901 217.224 247.851 215.532 274.722C215.457 275.91 216.323 276.93 217.503 277.089C218.821 277.266 220.016 276.272 220.122 274.945C225.053 213.025 253.407 179.538 264.935 171.848Z" fill="white" fill-opacity="0.05" shape-rendering="crispEdges"/>
</g>
<g filter="url(#filter4_i_1142_269344)">
<path d="M319.974 155.07C295.088 181.487 228.566 191.393 231.804 255.076" stroke="#427A42" stroke-width="6.44998" stroke-linecap="round"/>
</g>
<g filter="url(#filter5_i_1142_269344)">
<path d="M260.206 122.135C228.893 152.624 214.085 167.903 220.218 254.838" stroke="#427A42" stroke-width="10.32" stroke-linecap="round"/>
</g>
<g filter="url(#filter6_i_1142_269344)">
<path d="M374.702 121.735C365.755 114.292 356.739 107.779 348.048 103.03C343.675 100.64 339.16 103.204 338.217 108.098C336.904 114.749 328.22 123.93 327.576 115.674C326.798 104.971 323.539 94.381 313.105 96.8887C312.341 97.0723 311.59 97.2731 310.854 97.491C297.072 101.715 285.036 106.249 278.931 118.704C270.263 135.466 269.516 159.249 286.226 169.635C293.547 174.185 298.729 184.332 298.693 192.951C300.844 214.87 325.788 223.474 341.258 212.649C342.108 212.133 342.906 211.637 343.69 211.153C345.29 210.164 344.298 206.182 342.778 205.073C339.21 202.133 343.242 197.15 347.338 199.012C349.146 199.801 352.565 200.885 355.901 201.931C359.282 202.992 362.848 203.44 366.358 202.959C377.553 201.424 388.073 197.893 395.984 186.89C407.628 169.094 415.823 147.687 415.746 147.494C415.733 147.468 415.463 147.905 414.226 147.494C408.456 145.363 389.656 136.63 374.702 121.735Z" fill="#427A42"/>
</g>
<g opacity="0.5" filter="url(#filter7_dd_1142_269344)">
<path d="M367.839 139.508C341.622 135.784 314.14 158.16 302.837 170.904C302.298 171.512 302.335 172.426 302.904 173.006C303.52 173.634 304.542 173.626 305.167 173.007C334.104 144.305 358.963 138.711 367.839 139.508Z" fill="white" fill-opacity="0.1" shape-rendering="crispEdges"/>
</g>
<g filter="url(#filter8_i_1142_269344)">
<path d="M165.464 92.4888C173.329 95.4491 182.65 98.5592 188.297 102.167C190.161 103.332 202.375 108.055 199.977 113.358C199.73 113.903 199.223 114.275 198.761 114.656L198.728 114.683C197.365 115.831 198.457 118.297 198.113 120.044C197.11 123.99 194.6 141.696 201.66 138.003C207.782 134.814 215.466 130.921 219.052 136.802C221.637 141.044 223.656 146.212 224.712 152.765C225.43 157.642 227.08 160.65 228.53 163.004C230.081 165.539 231.179 167.746 230.868 172.894C228.015 190.532 221.421 192.978 209.777 197.299L209.421 197.431C206.198 198.567 203.261 199.277 199.597 200.678C195.841 202.114 192.529 204.774 191.327 208.607C190.127 212.431 189.755 216.837 189.804 220.841C189.798 229.771 190.655 238.269 181.244 243.738C178.917 245.084 175.25 246.161 172.446 247.896C161.109 254.859 147.343 264.385 137.604 263.056C134.861 262.647 133.449 260.846 130.907 258.367C126.205 253.684 119.291 247.119 105.675 246.206C98.5137 245.43 97.7233 240.985 97.0683 236.398C96.6894 233.947 98.9659 231.689 101.449 231.653C101.917 231.646 102.401 231.616 102.907 231.544C114.934 229.466 129.261 225.706 130.431 220.891C130.626 220.069 124.896 217.832 118.244 219.582C111.59 221.15 109.704 221.782 105.565 221.952C103.234 222.048 100.841 222.22 98.5849 221.633C96.9561 221.208 95.039 220.546 93.1711 219.913C92.2909 219.609 91.4142 219.317 90.5622 219.053C86.6854 217.852 82.6982 216.096 80.1168 212.968C80.0375 212.872 79.9584 212.776 79.8795 212.68C73.0447 204.359 80.3931 192.057 90.9449 189.81C98.9563 187.84 104.553 184.238 105.582 180.797C106.031 179.275 99.7172 180.741 94.9764 182.685C93.1898 183.418 91.4105 184.178 89.5586 184.725C84.1208 186.33 75.9573 188.672 69.8669 187.888C68.6441 187.73 67.4871 187.281 66.3122 186.909C62.0799 185.568 57.4077 185.086 50.3542 176.408C47.8974 173.386 46.3412 169.686 44.9378 166.053C44.3304 164.48 43.6948 162.818 43.2199 161.298C42.2965 158.341 43.9539 155.403 47.0515 155.225C52.6043 154.907 59.9753 157.688 61.0364 157.868C61.3934 157.92 62.54 157.98 64.0652 158.02C72.3551 158.239 73.1277 153.419 65.1789 151.071C64.0355 150.734 62.7531 150.421 61.3071 150.147C37.8335 144.285 42.688 148.171 26.2929 132.759C24.8822 131.433 24.6479 129.242 25.8219 127.698C52.8059 92.2155 93.8518 83.6129 114.783 89.4536C115.705 89.7109 115.45 90.5099 115.878 91.3649C116.908 93.8168 117.736 97.0473 118.567 99.7813C119.133 101.624 119.817 102.944 120.476 104.901C121.94 109.139 123.756 116.956 123.593 118.089C123.11 122.031 127.956 117.889 127.6 113.935C127.343 111.084 126.761 107.652 125.614 102.995C125.411 102.185 126.401 101.185 126.314 100.046C126.233 98.9797 125.515 97.5931 124.959 96.3605C124.539 95.4276 124.377 94.3337 124.258 93.3171C123.95 90.6982 125.461 87.8493 128.091 87.6101C133.52 87.1162 138.396 87.4838 142.945 88.3745C145.72 88.9179 147.6 91.4206 148.229 94.1754C148.545 95.5648 148.843 96.6705 148.779 97.5447C148.643 98.8412 147.661 102.028 147.028 104.917C145.258 113.656 143.378 126.468 148.396 125.478C155.812 124.078 155.965 111.175 155.759 98.9416C155.678 94.0914 160.923 90.7796 165.464 92.4888Z" fill="#427A42"/>
</g>
<g filter="url(#filter9_f_1142_269344)">
<path d="M199.642 294.5C199.642 327.361 171.883 354 137.642 354C103.4 354 75.6416 327.361 75.6416 294.5C75.6416 261.639 103.4 235 137.642 235C171.883 235 199.642 261.639 199.642 294.5Z" fill="black" fill-opacity="0.2"/>
</g>
<g filter="url(#filter10_f_1142_269344)">
<path d="M313.642 322.5C313.642 355.361 285.883 382 251.642 382C217.4 382 189.642 355.361 189.642 322.5C189.642 289.639 217.4 263 251.642 263C285.883 263 313.642 289.639 313.642 322.5Z" fill="black" fill-opacity="0.2"/>
</g>
<g filter="url(#filter11_i_1142_269344)">
<path fill-rule="evenodd" clip-rule="evenodd" d="M186.05 329.354C188.218 335.051 182.474 340.481 176.749 338.377C167.944 335.141 158.219 330.806 147.31 326.134C143.94 324.691 140.294 323.971 136.633 324.221C103.244 326.497 66.7908 341.004 54.0444 347.038C51.1107 348.462 50.5981 349.443 50.4781 349.436C49.9106 349.374 28.9585 309.993 30.0736 263.683C31.2444 231.506 41.1698 207.324 54.5732 187.73C60.2356 179.452 70.7334 176.211 80.2966 179.201C87.3408 181.402 94.2142 183.812 97.9689 185.749C107.556 190.557 110.925 180.221 100.877 170.876C100.243 170.248 99.4959 169.641 98.6545 169.057C91.6752 164.213 89.3561 153.784 97.6792 152.02C98.2153 151.906 98.663 151.866 99.2109 151.862C127.535 151.664 169.991 175.048 181.012 191.462C181.559 192.277 181.874 192.91 182.131 193.858C184.905 204.089 195.409 214.097 205.914 215.583C231.88 219.258 241.802 249.123 237.683 279.145C237.131 301.755 229.934 316.194 219.753 331.243C219.272 331.848 218.777 332.438 218.268 333.013C209.561 342.854 196.728 334.375 192.731 321.881C191.478 317.962 190.277 314.811 189.248 312.994C182.618 301.613 182.432 319.728 186.05 329.354ZM118.527 302.402C116.78 296.862 131.464 290.976 136.649 288.928C141.8 286.987 147.681 289.252 149.499 294.501C151.322 299.654 149.062 305.225 143.897 307.309C138.7 309.482 120.3 307.882 118.527 302.402Z" fill="#579858"/>
</g>
<g opacity="0.5" filter="url(#filter12_dd_1142_269344)">
<path d="M65.3684 302.857C70.0589 220.057 122.996 184.404 186.603 208.752C186.634 208.763 186.664 208.778 186.691 208.795C187.222 209.121 186.832 210.004 186.23 209.847C137.076 197.024 74.3706 225.943 65.3684 302.857Z" fill="white" fill-opacity="0.05" shape-rendering="crispEdges"/>
</g>
<g filter="url(#filter13_i_1142_269344)">
<path fill-rule="evenodd" clip-rule="evenodd" d="M346.609 101.044C347.107 109.939 347.598 118.699 347.764 127.191C347.902 134.239 342.629 141.22 335.581 140.999C326.785 140.68 309.854 146.612 320.409 150.126C332.935 154.274 344.899 163.035 339.239 174.944C338.609 176.27 337.937 177.581 337.223 178.876C327.409 196.353 317.865 212.301 300.856 215.327C281.758 218.447 256.196 211.461 241.342 195.327C230.328 183.364 212.042 170.552 195.823 171.632C160.34 176.246 141.284 154.313 153.074 114.153C155.208 106.421 158.716 99.2124 162.862 91.1583C164.153 88.6506 167.784 89.3339 169.722 91.3856C177.799 99.5486 180.091 91.2592 180.339 83.7844C180.626 74.8514 180.128 72.1849 178.765 67.1204C178.219 65.0227 177.895 63.0494 179.094 61.2452C194.241 38.4605 212.941 20.8506 242.447 15.4522C282.948 12.0162 336.238 23.9409 336.727 24.322C336.766 24.3496 336.752 24.7179 336.729 25.2866C336.695 26.1713 336.641 27.541 336.741 28.8677C336.779 29.4745 336.82 30.1494 336.864 30.8874C337.391 39.6495 338.451 57.305 342.162 75.4369C342.094 75.496 342.027 75.554 341.961 75.6111C340.44 76.9369 339.538 77.7225 335.366 79.3314C326.63 82.7249 314.313 95.5974 325.593 94.8368C332.259 94.3759 337.932 90.6853 343.834 86.846C344.126 86.6555 344.42 86.4646 344.714 86.2737C344.862 86.8239 345.014 87.373 345.168 87.9207C345.74 89.9532 346.115 92.037 346.229 94.1451C346.352 96.4521 346.481 98.7524 346.609 101.044Z" fill="#579858"/>
</g>
<g opacity="0.5" filter="url(#filter14_dd_1142_269344)">
<path d="M263.416 61.2351C227.999 82.2881 215.704 137.238 214.013 164.109C213.938 165.297 214.804 166.317 215.984 166.475C217.302 166.652 218.497 165.658 218.603 164.332C223.534 102.411 251.888 68.9252 263.416 61.2351Z" fill="white" fill-opacity="0.05" shape-rendering="crispEdges"/>
</g>
<g filter="url(#filter15_i_1142_269344)">
<path d="M370.14 174.771C375.026 179.682 372.892 188.439 366.683 191.511C344.829 202.322 322.33 214.493 316.934 223.259C312.738 230.076 328.567 219.914 342.777 211.137C350.28 206.324 357.698 202.095 361.019 200.53C363.287 199.54 366.115 198.409 369.211 197.229C378.915 193.533 390.294 196.21 395.592 205.141C400.076 212.701 403.167 221.273 404.16 232.023C405.286 244.2 394.11 253.415 382.301 256.594C381.078 256.901 380.857 257.934 379.261 258.109C377.768 258.253 375.687 257.913 373.831 257.896C372.375 257.883 370.927 258.153 369.487 258.366C361.095 259.609 353.477 263.683 353.418 270.231C353.379 273.83 359.527 272.449 362.539 271.746C365.461 271.044 368.777 269.945 371.66 268.716C375.161 267.165 378.131 265.297 382.301 264.17C388.981 262.254 400.596 260.73 402.063 261.14C402.866 261.375 403.457 261.818 403.271 262.633C401.926 268.496 399.258 274.515 397.503 280.838C395.289 288.957 386.185 311.997 379.261 327.81C376.352 334.613 374.223 340.125 373.18 342.963C370.606 350.087 367.42 360.772 365.579 370.237C363.494 382.92 363.207 394.197 361.019 395.996C359.062 397.562 351.402 392.765 344.297 388.42C338.106 384.851 332.557 381.18 329.095 380.844C328.393 380.783 327.264 380.726 326.089 380.716C324.301 380.701 323.474 379.541 323.014 377.813C322.294 375.063 320.618 371.326 319.974 368.722C319.099 364.772 318.943 361.889 318.454 358.115C318.389 357.647 318.531 355.86 318.454 355.085C318.184 351.003 317.434 343.951 315.413 344.478C311.784 345.429 311.075 356.797 313.893 365.691C314.37 367.652 314.641 369.807 315.413 371.752C316.006 373.215 316.586 373.73 316.934 374.783C318.322 378.682 315.964 382.81 311.826 382.72C309.409 382.667 306.974 382.519 304.772 382.359C294.438 382.814 284.434 383.009 274.562 382.112C264.21 381.171 256.607 372.643 255.707 362.287C254.472 348.081 253.753 330.735 255.467 322.583C255.803 320.987 256.569 319.545 257.368 318.122C261.907 310.045 266.545 298.016 263.728 299.021C257.884 301.083 250.377 312.632 245.486 326.295C244.872 328.12 244.304 329.988 243.778 331.883C238.741 350.041 219.04 360.933 205.713 347.612C197.165 339.068 189.192 329.307 181.638 318.719C181.592 318.656 181.658 318.675 181.69 318.604C186.934 306.929 191.811 295.849 196.84 289.929C198.14 288.569 198.387 287.49 199.88 285.384C203.729 280 208.855 273.382 218.122 268.716C229.346 262.777 230.231 255.108 228.764 255.079C219.381 254.774 187.965 277.155 166.381 296.529C161.587 300.832 154.97 299.348 155.795 292.96C159.299 273.298 158.156 267.111 157.57 259.576C157.263 255.629 156.494 251.566 156.898 247.628C157.624 240.563 160.864 230.406 161.876 227.804C167.102 215.735 171.925 208.734 186.199 197.499C189.365 194.735 193.029 192.235 195.32 189.923C203.158 181.351 214.501 193.203 227.243 203.56C234.582 209.101 241.77 214.286 247.451 216.018C252.074 217.428 255.933 213.415 257.004 208.702C259.037 199.763 257.968 189.604 256.127 180.832C251.995 165.998 246.748 154.143 260.687 153.557C267.38 152.416 272.686 153.323 277.409 153.557C281.875 153.748 285.778 153.607 294.131 152.042C311.241 148.709 313.735 164.588 298.688 173.388C290.237 178.331 283.903 183.005 281.97 186.893C277.323 195.86 295.188 187.406 309.333 179.317C315.447 175.718 320.196 172.94 323.014 171.74C327.278 170.085 333.751 167.407 339.973 164.881C348.285 161.506 357.462 163.295 363.647 169.794C363.784 169.938 363.922 170.082 364.059 170.225C365.874 172.141 368.222 172.854 370.14 174.771Z" fill="#61A560"/>
</g>
<g opacity="0.5" filter="url(#filter16_dd_1142_269344)">
<path d="M327.708 308.86C323.832 263.062 300.45 220.09 256.712 215.365C255.918 215.279 255.142 215.678 254.744 216.37C253.995 217.672 254.884 219.312 256.377 219.497C308.162 225.934 325.69 294.002 327.708 308.86Z" fill="white" fill-opacity="0.1" shape-rendering="crispEdges"/>
</g>
<defs>
<filter id="filter0_i_1142_269344" x="274.424" y="207.121" width="178.966" height="124.667" filterUnits="userSpaceOnUse" color-interpolation-filters="sRGB">
<feFlood flood-opacity="0" result="BackgroundImageFix"/>
<feBlend mode="normal" in="SourceGraphic" in2="BackgroundImageFix" result="shape"/>
<feColorMatrix in="SourceAlpha" type="matrix" values="0 0 0 0 0 0 0 0 0 0 0 0 0 0 0 0 0 0 127 0" result="hardAlpha"/>
<feOffset dx="51.5999" dy="3.86999"/>
<feGaussianBlur stdDeviation="18.06"/>
<feComposite in2="hardAlpha" operator="arithmetic" k2="-1" k3="1"/>
<feColorMatrix type="matrix" values="0 0 0 0 0 0 0 0 0 0 0 0 0 0 0 0 0 0 0.25 0"/>
<feBlend mode="normal" in2="shape" result="effect1_innerShadow_1142_269344"/>
</filter>
<filter id="filter1_dd_1142_269344" x="274.306" y="230.349" width="115.695" height="74.3688" filterUnits="userSpaceOnUse" color-interpolation-filters="sRGB">
<feFlood flood-opacity="0" result="BackgroundImageFix"/>
<feColorMatrix in="SourceAlpha" type="matrix" values="0 0 0 0 0 0 0 0 0 0 0 0 0 0 0 0 0 0 127 0" result="hardAlpha"/>
<feOffset dx="5.15999" dy="5.15999"/>
<feGaussianBlur stdDeviation="7.73998"/>
<feComposite in2="hardAlpha" operator="out"/>
<feColorMatrix type="matrix" values="0 0 0 0 0 0 0 0 0 0 0 0 0 0 0 0 0 0 0.5 0"/>
<feBlend mode="normal" in2="BackgroundImageFix" result="effect1_dropShadow_1142_269344"/>
<feColorMatrix in="SourceAlpha" type="matrix" values="0 0 0 0 0 0 0 0 0 0 0 0 0 0 0 0 0 0 127 0" result="hardAlpha"/>
<feOffset dx="-14.19" dy="-3.86999"/>
<feGaussianBlur stdDeviation="7.73998"/>
<feComposite in2="hardAlpha" operator="out"/>
<feColorMatrix type="matrix" values="0 0 0 0 1 0 0 0 0 1 0 0 0 0 1 0 0 0 0.35 0"/>
<feBlend mode="normal" in2="effect1_dropShadow_1142_269344" result="effect2_dropShadow_1142_269344"/>
<feBlend mode="normal" in="SourceGraphic" in2="effect2_dropShadow_1142_269344" result="shape"/>
</filter>
<filter id="filter2_i_1142_269344" x="151.106" y="88.0315" width="229.141" height="238.633" filterUnits="userSpaceOnUse" color-interpolation-filters="sRGB">
<feFlood flood-opacity="0" result="BackgroundImageFix"/>
<feBlend mode="normal" in="SourceGraphic" in2="BackgroundImageFix" result="shape"/>
<feColorMatrix in="SourceAlpha" type="matrix" values="0 0 0 0 0 0 0 0 0 0 0 0 0 0 0 0 0 0 127 0" result="hardAlpha"/>
<feOffset dx="30.9599" dy="-46.4399"/>
<feGaussianBlur stdDeviation="18.705"/>
<feComposite in2="hardAlpha" operator="arithmetic" k2="-1" k3="1"/>
<feColorMatrix type="matrix" values="0 0 0 0 0 0 0 0 0 0 0 0 0 0 0 0 0 0 0.25 0"/>
<feBlend mode="normal" in2="shape" result="effect1_innerShadow_1142_269344"/>
</filter>
<filter id="filter3_dd_1142_269344" x="185.858" y="152.498" width="99.7175" height="145.252" filterUnits="userSpaceOnUse" color-interpolation-filters="sRGB">
<feFlood flood-opacity="0" result="BackgroundImageFix"/>
<feColorMatrix in="SourceAlpha" type="matrix" values="0 0 0 0 0 0 0 0 0 0 0 0 0 0 0 0 0 0 127 0" result="hardAlpha"/>
<feOffset dx="5.15999" dy="5.15999"/>
<feGaussianBlur stdDeviation="7.73998"/>
<feComposite in2="hardAlpha" operator="out"/>
<feColorMatrix type="matrix" values="0 0 0 0 0 0 0 0 0 0 0 0 0 0 0 0 0 0 0.5 0"/>
<feBlend mode="normal" in2="BackgroundImageFix" result="effect1_dropShadow_1142_269344"/>
<feColorMatrix in="SourceAlpha" type="matrix" values="0 0 0 0 0 0 0 0 0 0 0 0 0 0 0 0 0 0 127 0" result="hardAlpha"/>
<feOffset dx="-14.19" dy="-3.86999"/>
<feGaussianBlur stdDeviation="7.73998"/>
<feComposite in2="hardAlpha" operator="out"/>
<feColorMatrix type="matrix" values="0 0 0 0 1 0 0 0 0 1 0 0 0 0 1 0 0 0 0.35 0"/>
<feBlend mode="normal" in2="effect1_dropShadow_1142_269344" result="effect2_dropShadow_1142_269344"/>
<feBlend mode="normal" in="SourceGraphic" in2="effect2_dropShadow_1142_269344" result="shape"/>
</filter>
<filter id="filter4_i_1142_269344" x="224.595" y="151.844" width="98.604" height="106.457" filterUnits="userSpaceOnUse" color-interpolation-filters="sRGB">
<feFlood flood-opacity="0" result="BackgroundImageFix"/>
<feBlend mode="normal" in="SourceGraphic" in2="BackgroundImageFix" result="shape"/>
<feColorMatrix in="SourceAlpha" type="matrix" values="0 0 0 0 0 0 0 0 0 0 0 0 0 0 0 0 0 0 127 0" result="hardAlpha"/>
<feOffset dx="-3.86999"/>
<feGaussianBlur stdDeviation="2.57999"/>
<feComposite in2="hardAlpha" operator="arithmetic" k2="-1" k3="1"/>
<feColorMatrix type="matrix" values="0 0 0 0 0 0 0 0 0 0 0 0 0 0 0 0 0 0 0.25 0"/>
<feBlend mode="normal" in2="shape" result="effect1_innerShadow_1142_269344"/>
</filter>
<filter id="filter5_i_1142_269344" x="209.824" y="116.977" width="55.5432" height="143.02" filterUnits="userSpaceOnUse" color-interpolation-filters="sRGB">
<feFlood flood-opacity="0" result="BackgroundImageFix"/>
<feBlend mode="normal" in="SourceGraphic" in2="BackgroundImageFix" result="shape"/>
<feColorMatrix in="SourceAlpha" type="matrix" values="0 0 0 0 0 0 0 0 0 0 0 0 0 0 0 0 0 0 127 0" result="hardAlpha"/>
<feOffset dx="-3.86999"/>
<feGaussianBlur stdDeviation="2.57999"/>
<feComposite in2="hardAlpha" operator="arithmetic" k2="-1" k3="1"/>
<feColorMatrix type="matrix" values="0 0 0 0 0 0 0 0 0 0 0 0 0 0 0 0 0 0 0.25 0"/>
<feBlend mode="normal" in2="shape" result="effect1_innerShadow_1142_269344"/>
</filter>
<filter id="filter6_i_1142_269344" x="272.9" y="96.5156" width="178.966" height="124.667" filterUnits="userSpaceOnUse" color-interpolation-filters="sRGB">
<feFlood flood-opacity="0" result="BackgroundImageFix"/>
<feBlend mode="normal" in="SourceGraphic" in2="BackgroundImageFix" result="shape"/>
<feColorMatrix in="SourceAlpha" type="matrix" values="0 0 0 0 0 0 0 0 0 0 0 0 0 0 0 0 0 0 127 0" result="hardAlpha"/>
<feOffset dx="51.5999" dy="3.86999"/>
<feGaussianBlur stdDeviation="18.06"/>
<feComposite in2="hardAlpha" operator="arithmetic" k2="-1" k3="1"/>
<feColorMatrix type="matrix" values="0 0 0 0 0 0 0 0 0 0 0 0 0 0 0 0 0 0 0.25 0"/>
<feBlend mode="normal" in2="shape" result="effect1_innerShadow_1142_269344"/>
</filter>
<filter id="filter7_dd_1142_269344" x="272.784" y="119.744" width="115.695" height="74.3688" filterUnits="userSpaceOnUse" color-interpolation-filters="sRGB">
<feFlood flood-opacity="0" result="BackgroundImageFix"/>
<feColorMatrix in="SourceAlpha" type="matrix" values="0 0 0 0 0 0 0 0 0 0 0 0 0 0 0 0 0 0 127 0" result="hardAlpha"/>
<feOffset dx="5.15999" dy="5.15999"/>
<feGaussianBlur stdDeviation="7.73998"/>
<feComposite in2="hardAlpha" operator="out"/>
<feColorMatrix type="matrix" values="0 0 0 0 0 0 0 0 0 0 0 0 0 0 0 0 0 0 0.5 0"/>
<feBlend mode="normal" in2="BackgroundImageFix" result="effect1_dropShadow_1142_269344"/>
<feColorMatrix in="SourceAlpha" type="matrix" values="0 0 0 0 0 0 0 0 0 0 0 0 0 0 0 0 0 0 127 0" result="hardAlpha"/>
<feOffset dx="-14.19" dy="-3.86999"/>
<feGaussianBlur stdDeviation="7.73998"/>
<feComposite in2="hardAlpha" operator="out"/>
<feColorMatrix type="matrix" values="0 0 0 0 1 0 0 0 0 1 0 0 0 0 1 0 0 0 0.35 0"/>
<feBlend mode="normal" in2="effect1_dropShadow_1142_269344" result="effect2_dropShadow_1142_269344"/>
<feBlend mode="normal" in="SourceGraphic" in2="effect2_dropShadow_1142_269344" result="shape"/>
</filter>
<filter id="filter8_i_1142_269344" x="-21.3697" y="40.9507" width="252.291" height="222.229" filterUnits="userSpaceOnUse" color-interpolation-filters="sRGB">
<feFlood flood-opacity="0" result="BackgroundImageFix"/>
<feBlend mode="normal" in="SourceGraphic" in2="BackgroundImageFix" result="shape"/>
<feColorMatrix in="SourceAlpha" type="matrix" values="0 0 0 0 0 0 0 0 0 0 0 0 0 0 0 0 0 0 127 0" result="hardAlpha"/>
<feOffset dx="-82.5598" dy="-102.44"/>
<feGaussianBlur stdDeviation="23.2199"/>
<feComposite in2="hardAlpha" operator="arithmetic" k2="-1" k3="1"/>
<feColorMatrix type="matrix" values="0 0 0 0 0 0 0 0 0 0 0 0 0 0 0 0 0 0 0.25 0"/>
<feBlend mode="normal" in2="shape" result="effect1_innerShadow_1142_269344"/>
</filter>
<filter id="filter9_f_1142_269344" x="50.6416" y="210" width="174" height="169" filterUnits="userSpaceOnUse" color-interpolation-filters="sRGB">
<feFlood flood-opacity="0" result="BackgroundImageFix"/>
<feBlend mode="normal" in="SourceGraphic" in2="BackgroundImageFix" result="shape"/>
<feGaussianBlur stdDeviation="12.5" result="effect1_foregroundBlur_1142_269344"/>
</filter>
<filter id="filter10_f_1142_269344" x="164.642" y="238" width="174" height="169" filterUnits="userSpaceOnUse" color-interpolation-filters="sRGB">
<feFlood flood-opacity="0" result="BackgroundImageFix"/>
<feBlend mode="normal" in="SourceGraphic" in2="BackgroundImageFix" result="shape"/>
<feGaussianBlur stdDeviation="12.5" result="effect1_foregroundBlur_1142_269344"/>
</filter>
<filter id="filter11_i_1142_269344" x="-16.4093" y="115.739" width="254.992" height="233.698" filterUnits="userSpaceOnUse" color-interpolation-filters="sRGB">
<feFlood flood-opacity="0" result="BackgroundImageFix"/>
<feBlend mode="normal" in="SourceGraphic" in2="BackgroundImageFix" result="shape"/>
<feColorMatrix in="SourceAlpha" type="matrix" values="0 0 0 0 0 0 0 0 0 0 0 0 0 0 0 0 0 0 127 0" result="hardAlpha"/>
<feOffset dx="-61.9199" dy="-36.1199"/>
<feGaussianBlur stdDeviation="23.2199"/>
<feComposite in2="hardAlpha" operator="arithmetic" k2="-1" k3="1"/>
<feColorMatrix type="matrix" values="0 0 0 0 0 0 0 0 0 0 0 0 0 0 0 0 0 0 0.25 0"/>
<feBlend mode="normal" in2="shape" result="effect1_innerShadow_1142_269344"/>
</filter>
<filter id="filter12_dd_1142_269344" x="55.5061" y="178.017" width="155.014" height="136.239" filterUnits="userSpaceOnUse" color-interpolation-filters="sRGB">
<feFlood flood-opacity="0" result="BackgroundImageFix"/>
<feColorMatrix in="SourceAlpha" type="matrix" values="0 0 0 0 0 0 0 0 0 0 0 0 0 0 0 0 0 0 127 0" result="hardAlpha"/>
<feOffset dx="5.61764" dy="-7.73377"/>
<feGaussianBlur stdDeviation="7.73998"/>
<feComposite in2="hardAlpha" operator="out"/>
<feColorMatrix type="matrix" values="0 0 0 0 0 0 0 0 0 0 0 0 0 0 0 0 0 0 0.6 0"/>
<feBlend mode="normal" in2="BackgroundImageFix" result="effect1_dropShadow_1142_269344"/>
<feColorMatrix in="SourceAlpha" type="matrix" values="0 0 0 0 0 0 0 0 0 0 0 0 0 0 0 0 0 0 127 0" result="hardAlpha"/>
<feOffset dx="8.09915" dy="-4.08002"/>
<feGaussianBlur stdDeviation="7.73998"/>
<feComposite in2="hardAlpha" operator="out"/>
<feColorMatrix type="matrix" values="0 0 0 0 1 0 0 0 0 1 0 0 0 0 1 0 0 0 0.35 0"/>
<feBlend mode="normal" in2="effect1_dropShadow_1142_269344" result="effect2_dropShadow_1142_269344"/>
<feBlend mode="normal" in="SourceGraphic" in2="effect2_dropShadow_1142_269344" result="shape"/>
</filter>
<filter id="filter13_i_1142_269344" x="149.586" y="-22.5779" width="229.141" height="238.633" filterUnits="userSpaceOnUse" color-interpolation-filters="sRGB">
<feFlood flood-opacity="0" result="BackgroundImageFix"/>
<feBlend mode="normal" in="SourceGraphic" in2="BackgroundImageFix" result="shape"/>
<feColorMatrix in="SourceAlpha" type="matrix" values="0 0 0 0 0 0 0 0 0 0 0 0 0 0 0 0 0 0 127 0" result="hardAlpha"/>
<feOffset dx="30.9599" dy="-46.4399"/>
<feGaussianBlur stdDeviation="18.705"/>
<feComposite in2="hardAlpha" operator="arithmetic" k2="-1" k3="1"/>
<feColorMatrix type="matrix" values="0 0 0 0 0 0 0 0 0 0 0 0 0 0 0 0 0 0 0.25 0"/>
<feBlend mode="normal" in2="shape" result="effect1_innerShadow_1142_269344"/>
</filter>
<filter id="filter14_dd_1142_269344" x="184.338" y="41.8844" width="99.7175" height="145.252" filterUnits="userSpaceOnUse" color-interpolation-filters="sRGB">
<feFlood flood-opacity="0" result="BackgroundImageFix"/>
<feColorMatrix in="SourceAlpha" type="matrix" values="0 0 0 0 0 0 0 0 0 0 0 0 0 0 0 0 0 0 127 0" result="hardAlpha"/>
<feOffset dx="5.15999" dy="5.15999"/>
<feGaussianBlur stdDeviation="7.73998"/>
<feComposite in2="hardAlpha" operator="out"/>
<feColorMatrix type="matrix" values="0 0 0 0 0 0 0 0 0 0 0 0 0 0 0 0 0 0 0.5 0"/>
<feBlend mode="normal" in2="BackgroundImageFix" result="effect1_dropShadow_1142_269344"/>
<feColorMatrix in="SourceAlpha" type="matrix" values="0 0 0 0 0 0 0 0 0 0 0 0 0 0 0 0 0 0 127 0" result="hardAlpha"/>
<feOffset dx="-14.19" dy="-3.86999"/>
<feGaussianBlur stdDeviation="7.73998"/>
<feComposite in2="hardAlpha" operator="out"/>
<feColorMatrix type="matrix" values="0 0 0 0 1 0 0 0 0 1 0 0 0 0 1 0 0 0 0.35 0"/>
<feBlend mode="normal" in2="effect1_dropShadow_1142_269344" result="effect2_dropShadow_1142_269344"/>
<feBlend mode="normal" in="SourceGraphic" in2="effect2_dropShadow_1142_269344" result="shape"/>
</filter>
<filter id="filter15_i_1142_269344" x="145.405" y="105.15" width="258.833" height="291.151" filterUnits="userSpaceOnUse" color-interpolation-filters="sRGB">
<feFlood flood-opacity="0" result="BackgroundImageFix"/>
<feBlend mode="normal" in="SourceGraphic" in2="BackgroundImageFix" result="shape"/>
<feColorMatrix in="SourceAlpha" type="matrix" values="0 0 0 0 0 0 0 0 0 0 0 0 0 0 0 0 0 0 127 0" result="hardAlpha"/>
<feOffset dx="-10.32" dy="-67.0798"/>
<feGaussianBlur stdDeviation="23.2199"/>
<feComposite in2="hardAlpha" operator="arithmetic" k2="-1" k3="1"/>
<feColorMatrix type="matrix" values="0 0 0 0 0 0 0 0 0 0 0 0 0 0 0 0 0 0 0.25 0"/>
<feBlend mode="normal" in2="shape" result="effect1_innerShadow_1142_269344"/>
</filter>
<filter id="filter16_dd_1142_269344" x="214.484" y="184.392" width="123.544" height="136.078" filterUnits="userSpaceOnUse" color-interpolation-filters="sRGB">
<feFlood flood-opacity="0" result="BackgroundImageFix"/>
<feColorMatrix in="SourceAlpha" type="matrix" values="0 0 0 0 0 0 0 0 0 0 0 0 0 0 0 0 0 0 127 0" result="hardAlpha"/>
<feOffset dx="-5.15999" dy="-15.48"/>
<feGaussianBlur stdDeviation="7.73998"/>
<feComposite in2="hardAlpha" operator="out"/>
<feColorMatrix type="matrix" values="0 0 0 0 0 0 0 0 0 0 0 0 0 0 0 0 0 0 0.5 0"/>
<feBlend mode="normal" in2="BackgroundImageFix" result="effect1_dropShadow_1142_269344"/>
<feColorMatrix in="SourceAlpha" type="matrix" values="0 0 0 0 0 0 0 0 0 0 0 0 0 0 0 0 0 0 127 0" result="hardAlpha"/>
<feOffset dx="-24.5099" dy="-3.86999"/>
<feGaussianBlur stdDeviation="7.73998"/>
<feComposite in2="hardAlpha" operator="out"/>
<feColorMatrix type="matrix" values="0 0 0 0 1 0 0 0 0 1 0 0 0 0 1 0 0 0 0.35 0"/>
<feBlend mode="normal" in2="effect1_dropShadow_1142_269344" result="effect2_dropShadow_1142_269344"/>
<feBlend mode="normal" in="SourceGraphic" in2="effect2_dropShadow_1142_269344" result="shape"/>
</filter>
</defs>
</svg>
