<svg width="606" height="948" viewBox="0 0 606 948" fill="none" xmlns="http://www.w3.org/2000/svg">
<path fill-rule="evenodd" clip-rule="evenodd" d="M281.157 214.5C125.879 214.5 0 342.346 0 497.625C0 569.45 26.9327 635.406 71.25 685.555V858.522C71.25 866.807 77.9657 873.522 86.25 873.522H520.5C528.784 873.522 535.5 866.807 535.5 858.522V684.702C579.371 634.66 606 569.044 606 497.625C606 342.346 480.121 214.5 324.843 214.5H281.157Z" fill="black" fill-opacity="0.12"/>
<path fill-rule="evenodd" clip-rule="evenodd" d="M291.375 224.25C140.394 224.25 18 346.644 18 497.625C18 575.095 50.2242 645.038 102 694.783V851.25C102 854.564 104.686 857.25 108 857.25H498.75C502.064 857.25 504.75 854.564 504.75 851.25V694.059C556.087 644.362 588 574.72 588 497.625C588 346.644 465.606 224.25 314.625 224.25H291.375Z" fill="black" fill-opacity="0.2"/>
<g filter="url(#filter0_iii_1142_275670)">
<path d="M108 799.5H498.75V843C498.75 846.314 496.063 849 492.749 849C460.531 849 431.291 849 403.722 849C399.187 849 399.307 843.75 394.857 843.75C392.124 843.75 384.797 849 382.092 849C343.41 849 305.719 847.125 268.626 847.125C241.303 847.125 215.116 849 184.944 849C180.387 849 169.751 845.625 165.088 845.625C159.727 845.625 160.321 849 154.805 849C141.703 849 128.138 849 114 849C110.686 849 108 846.314 108 843V799.5Z" fill="#C8A078"/>
</g>
<g filter="url(#filter1_i_1142_275670)">
<path d="M96.75 409.5H510V804.75C510 808.064 507.314 810.75 504 810.75H102.75C99.4363 810.75 96.75 808.064 96.75 804.75V409.5Z" fill="#C8A078"/>
</g>
<g filter="url(#filter2_ii_1142_275670)">
<path d="M21.75 438H584.25V487.593C584.25 642.872 458.279 768.75 303 768.75C147.721 768.75 21.75 642.872 21.75 487.593V438Z" fill="#C8A078"/>
</g>
<g filter="url(#filter3_di_1142_275670)">
<path d="M21.75 436.5C21.75 281.221 147.721 155.25 303 155.25C458.279 155.25 584.25 281.221 584.25 436.5C584.25 486.18 571.355 532.861 548.731 573.375C546.318 577.696 537.006 583.823 534.375 588C531.374 592.765 535.023 595.559 531.75 600.125C480.711 671.336 397.255 717.75 303 717.75C208.855 717.75 125.484 671.444 74.429 600.375C72.0428 597.053 71.9928 589.553 69.75 586.125C67.8262 583.185 63.6903 584.332 61.875 581.317C36.4033 539.01 21.75 489.46 21.75 436.5Z" fill="#C8A078"/>
</g>
<path fill-rule="evenodd" clip-rule="evenodd" d="M303 140.25C147.721 140.25 21.75 266.221 21.75 421.5C21.75 495.307 50.2101 562.492 96.7501 612.676V792.186C96.7501 796.205 100.625 799.088 104.474 797.933L115.5 794.625L148.406 800.25H200.063H303.375L428.625 802.5L444.75 800.25H504C507.314 800.25 510 797.564 510 794.25V611.863C556.096 561.768 584.25 494.909 584.25 421.5C584.25 266.221 458.279 140.25 303 140.25Z" fill="#C8A078"/>
<g filter="url(#filter4_f_1142_275670)">
<path fill-rule="evenodd" clip-rule="evenodd" d="M303 146.414C150.569 146.414 27 269.983 27 422.414C27 497.528 57.0062 565.634 105.686 615.399L108.75 623.253L100.6 650.297V698.229V781.15C100.6 786.259 106.578 789.031 110.477 785.729L118.125 779.253L126.375 790.878L151.292 794.093H201.984H303.368H404.752L424.5 787.878L430.098 794.093H455.444H500.136C503.45 794.093 506.136 791.406 506.136 788.093V698.229L496.5 665.253L506.136 650.297V609.263C551.375 560.106 579 494.486 579 422.414C579 269.983 455.431 146.414 303 146.414Z" fill="#D7B99A"/>
</g>
<g filter="url(#filter5_ii_1142_275670)">
<path d="M174 700.5H431.25V720.75C431.25 724.064 428.564 726.75 425.25 726.75H399.094L381.375 722.25L366.938 726.75H302.625L282.375 722.25L270.469 726.75H238.312H180C176.686 726.75 174 724.064 174 720.75V700.5Z" fill="#C8A078"/>
</g>
<rect x="165" y="510" width="276" height="224.25" rx="7.5" fill="black" fill-opacity="0.12"/>
<circle cx="302.625" cy="350.625" r="220.875" fill="black" fill-opacity="0.12"/>
<circle cx="302.625" cy="350.625" r="206.625" fill="black" fill-opacity="0.2"/>
<g filter="url(#filter6_ii_1142_275670)">
<path d="M96.75 239.319C96.75 121.644 189.091 26.25 303 26.25C416.909 26.25 509.25 121.644 509.25 239.319V340.431C509.25 376.509 500.57 410.492 485.25 440.275C484.361 442.003 481.683 438.575 480.75 440.275C479.82 441.968 480.635 448.788 479.662 450.452C443.545 512.211 377.94 553.5 303 553.5C227.747 553.5 161.907 511.865 125.887 449.677C124.63 447.507 131.25 444.253 125.887 441.154C127.5 433.019 120.603 440.003 119.819 438.443C105.079 409.102 96.75 375.771 96.75 340.431V239.319Z" fill="#C8A078"/>
</g>
<g filter="url(#filter7_i_1142_275670)">
<path d="M169.5 487.5L172.479 488.339C257.587 512.313 347.663 512.313 432.771 488.339L435.75 487.5V702C435.75 705.314 433.064 708 429.75 708H402.469L386.25 712.125L369.188 708H335.906L318.375 703.875L302.625 708H175.5C172.186 708 169.5 705.314 169.5 702V487.5Z" fill="#C8A078"/>
</g>
<g filter="url(#filter8_dii_1142_275670)">
<path d="M96.75 235.5H509.25V258.75C509.25 372.659 416.909 465 303 465C189.091 465 96.75 372.659 96.75 258.75V235.5Z" fill="#C8A078"/>
</g>
<ellipse cx="121.5" cy="530.273" rx="10.5" ry="6.375" fill="black" fill-opacity="0.12"/>
<g filter="url(#filter9_i_1142_275670)">
<path fill-rule="evenodd" clip-rule="evenodd" d="M121.5 505.148C116.529 505.148 112.5 509.178 112.5 514.148V529.148C112.5 532.462 116.529 535.148 121.5 535.148C126.471 535.148 130.5 532.462 130.5 529.148V514.148C130.5 509.178 126.471 505.148 121.5 505.148Z" fill="#579858"/>
</g>
<ellipse cx="111" cy="537.023" rx="10.5" ry="6.375" fill="black" fill-opacity="0.12"/>
<g filter="url(#filter10_i_1142_275670)">
<path fill-rule="evenodd" clip-rule="evenodd" d="M111 523.898C106.029 523.898 102 527.928 102 532.898V535.898C102 539.212 106.029 541.898 111 541.898C115.971 541.898 120 539.212 120 535.898V532.898C120 527.928 115.971 523.898 111 523.898Z" fill="#579858"/>
</g>
<g filter="url(#filter11_f_1142_275670)">
<path d="M171.75 490.5C257.279 515.007 347.971 515.007 433.5 490.5V692.743C433.5 696.669 429.792 699.537 425.992 698.55L416.173 696L400.781 700.5H368.062H302.625H237.188L226.312 696L204.469 700.5H177.75C174.436 700.5 171.75 697.814 171.75 694.5V490.5Z" fill="#D7B99A"/>
</g>
<g filter="url(#filter12_ii_1142_275670)">
<path d="M199.5 612.75H406.5V633C406.5 636.314 403.814 639 400.5 639H354.75L341.625 643.125L328.875 639H303H251.25L235.875 635.625L225.375 639H205.5C202.186 639 199.5 636.314 199.5 633V612.75Z" fill="#C8A078"/>
</g>
<rect x="192.75" y="495" width="220.5" height="150.75" rx="7.5" fill="black" fill-opacity="0.12"/>
<g filter="url(#filter13_i_1142_275670)">
<path d="M196.5 477C266.725 491.836 339.275 491.836 409.5 477V614.25C409.5 617.564 406.814 620.25 403.5 620.25H382.875L377.25 622.875L366.375 616.875L356.25 620.25H303L284.25 616.875L276.375 620.25H249.75H202.5C199.186 620.25 196.5 617.564 196.5 614.25V477Z" fill="#C8A078"/>
</g>
<g filter="url(#filter14_f_1142_275670)">
<path d="M199.5 480C267.704 494.827 338.296 494.827 406.5 480V496.969L401.762 503.25L406.5 513.938V544.875V606.75C406.5 610.064 403.814 612.75 400.5 612.75H380.625L371.15 606.375L354.75 612.75H303H205.5C202.186 612.75 199.5 610.064 199.5 606.75V578.812L206.424 566.625L199.5 561.844V544.875V480Z" fill="#D7B99A"/>
</g>
<g filter="url(#filter15_ii_1142_275670)">
<path d="M225.75 531.75H380.25V552C380.25 555.314 377.564 558 374.25 558H356.812L348.188 559.5L337.5 558H303H264.375L254.625 555.75L245.062 558H231.75C228.436 558 225.75 555.314 225.75 552V531.75Z" fill="#C8A078"/>
</g>
<rect x="219.75" y="483.75" width="166.5" height="80.25" rx="7.5" fill="black" fill-opacity="0.12"/>
<g filter="url(#filter16_i_1142_275670)">
<path d="M222.75 465L244.486 469.082C282.91 476.298 322.34 476.298 360.764 469.082L382.5 465V533.25C382.5 536.564 379.814 539.25 376.5 539.25H342.562L332.625 536.625L322.594 539.25H302.625H228.75C225.436 539.25 222.75 536.564 222.75 533.25V465Z" fill="#C8A078"/>
</g>
<g filter="url(#filter17_f_1142_275670)">
<path d="M225 468L242.861 471.451C282.339 479.08 322.911 479.08 362.389 471.451L380.25 468V507L376.5 515.625L378.539 524.391C379.414 528.153 376.557 531.75 372.695 531.75H302.625H263.812L242.25 528.375L232.152 530.351C228.446 531.076 225 528.238 225 524.462V499.5V484.125L227.625 476.25L225 468Z" fill="#D7B99A"/>
</g>
<g filter="url(#filter18_f_1142_275670)">
<path d="M303.75 29.25C192.741 29.25 102.75 119.241 102.75 230.25C102.75 264.306 111.22 296.384 126.167 324.492C127.691 327.356 126.864 334.597 128.519 337.376C130.222 340.235 134.412 338.631 136.25 341.396C162.396 380.721 202.022 410.31 248.53 423.57L262.151 420.574L264.36 427.937L275.404 429.267C284.665 430.574 294.128 431.25 303.75 431.25C367.943 431.25 425.107 401.158 461.906 354.31C463.427 352.375 460.597 343.049 462.047 341.058C463.465 339.109 469.164 344.496 470.514 342.496C492.131 310.442 504.75 271.82 504.75 230.25C504.75 127.591 427.789 42.9075 328.415 30.7482C324.521 30.2718 324.275 35.0224 320.316 34.772C316.056 34.5025 308.078 29.25 303.75 29.25Z" fill="#D7B99A"/>
</g>
<g filter="url(#filter19_i_1142_275670)">
<path d="M473.746 227.278C473.746 320.828 397.909 396.665 304.359 396.665C233.063 396.665 172.055 352.617 147.064 290.25C146.074 287.778 142.848 289.027 141.972 286.5C141.158 284.148 142.685 278.022 141.972 275.625C137.418 260.305 134.973 244.077 134.973 227.278C134.973 133.728 210.81 57.8913 304.359 57.8913C315.966 57.8913 327.3 59.0586 338.25 61.2824C343.337 62.3153 348.341 56.4134 353.25 57.8911C357.576 59.1929 361.828 67.8257 366 69.4564C429.071 94.1085 473.746 155.476 473.746 227.278Z" fill="#C8A078"/>
</g>
<g opacity="0.65">
<g filter="url(#filter20_di_1142_275670)">
<path fill-rule="evenodd" clip-rule="evenodd" d="M286.899 85.2718C276.011 85.2718 267.184 94.0989 267.184 104.988V120.644C267.184 144.521 241.796 159.836 220.675 148.7L212.313 144.292C202.681 139.213 190.756 142.905 185.678 152.537L177.531 167.99L170.625 173.247L169.384 183.442C164.306 193.074 167.997 204.999 177.629 210.078L188.571 215.846C206.823 225.469 207.123 251.503 189.096 261.543C179.583 266.841 176.167 278.848 181.465 288.361L184.875 301.497L189.966 303.622L190.875 314.247L198.466 318.883C203.764 328.396 215.771 331.812 225.284 326.514L228.938 324.478C246.087 314.927 267.184 327.325 267.184 346.954C267.184 357.843 276.011 366.67 286.899 366.67L291 368.247L295.634 366.67H304.368H321.837C332.726 366.67 341.553 357.843 341.553 346.954C341.553 324.042 365.914 309.346 386.182 320.032L391.669 322.925C401.301 328.003 413.226 324.311 418.305 314.679L426.452 299.227L434.599 293.247V283.774C439.677 274.142 435.985 262.217 426.353 257.139C409.439 248.221 409.162 224.097 425.866 214.793L436.672 208.774C446.185 203.476 449.601 191.469 444.303 181.956L440.053 174.326L435.802 166.695L427.302 151.434C422.004 141.921 409.997 138.505 400.484 143.803L388.703 150.365C367.562 162.14 341.553 146.856 341.553 122.657V104.988C341.553 94.0989 332.726 85.2718 321.837 85.2718H286.899ZM286.899 70.6992C267.962 70.6992 252.611 86.0507 252.611 104.988V120.644C252.611 133.55 238.888 141.829 227.471 135.809L219.109 131.401C202.358 122.569 181.619 128.989 172.787 145.741L171.75 155.622L164.64 161.193L156.493 176.646C147.661 193.397 154.081 214.137 170.833 222.968L181.774 228.737C189.793 232.964 189.924 244.401 182.005 248.812C165.461 258.027 159.52 278.908 168.734 295.452L185.735 325.974C194.95 342.518 215.831 348.46 232.375 339.245L236.029 337.209C243.464 333.068 252.611 338.444 252.611 346.954C252.611 365.891 267.962 381.242 286.899 381.242H304.368H313.103L317.25 379.122L321.837 381.242C340.774 381.242 356.125 365.891 356.125 346.954C356.125 335.012 368.822 327.353 379.385 332.922L384.873 335.815C401.624 344.647 422.364 338.227 431.195 321.476L447.489 290.57C456.321 273.819 449.901 253.08 433.15 244.248C426.469 240.726 426.36 231.198 432.957 227.524L443.763 221.505C460.307 212.291 466.248 191.409 457.034 174.865L440.053 157.497L440.033 144.343C430.819 127.799 409.937 121.858 393.393 131.072L381.612 137.634C370.184 143.999 356.125 135.737 356.125 122.657V104.988C356.125 86.0507 340.774 70.6992 321.837 70.6992H286.899ZM389.052 114.352C389.052 117.334 387.665 119.993 385.5 121.717C385.103 122.034 384.678 121.591 384.232 121.125C383.8 120.674 383.346 120.201 382.875 120.373C382.422 120.539 381.951 121.242 381.468 121.966C380.877 122.849 380.267 123.762 379.642 123.762C374.445 123.762 370.232 119.549 370.232 114.352C370.232 109.155 374.445 104.941 379.642 104.941C384.839 104.941 389.052 109.155 389.052 114.352ZM304.359 306.806C343.086 306.806 374.48 275.412 374.48 236.686C374.48 236.24 375.258 235.153 376.04 234.061L376.04 234.061C376.839 232.945 377.642 231.823 377.625 231.372C377.609 230.932 376.789 231.15 375.965 231.369C375.142 231.588 374.314 231.807 374.281 231.372C373.572 221.908 370.985 212.968 366.89 204.923C365.595 206.944 363.329 208.284 360.75 208.284L360.027 208.284H360.026C352.705 208.283 347.358 208.283 342.906 208.84C338.513 209.391 335.592 210.429 333.148 212.198C332.653 212.556 331.971 213.342 331.399 214.739C330.837 216.112 330.537 217.713 330.537 219.183C330.537 219.809 330.59 220.314 330.659 220.705C334.15 220.675 337.909 220.511 340.911 219.641C342.612 219.149 343.429 218.598 343.756 218.27L343.77 218.257C343.9 218.127 344.089 217.939 344.089 217.139C344.089 213.115 347.351 209.853 351.375 209.853C355.399 209.853 358.662 213.115 358.662 217.139C358.662 221.74 356.989 225.64 354.073 228.563C351.353 231.289 347.951 232.774 344.964 233.639C339.271 235.288 332.787 235.285 329.171 235.284L328.875 235.284C323.839 235.284 320.289 232.35 318.36 229.036C316.571 225.963 315.964 222.368 315.964 219.183C315.964 218.946 316.644 218.744 317.332 218.54C318.03 218.333 318.736 218.123 318.75 217.873C318.764 217.65 318.125 216.851 317.474 216.037L317.473 216.037C316.792 215.186 316.099 214.318 316.125 214.077C316.748 208.483 319.23 204.283 324.603 200.393C329.659 196.733 335.175 195.122 341.095 194.381C346.481 193.706 352.684 193.709 359.495 193.711L359.772 193.711C354.71 187.194 348.524 181.594 341.505 177.201C341.827 178.15 342.001 179.166 342.001 180.223C342.001 185.42 337.788 189.633 332.591 189.633C330.925 189.633 329.361 189.201 328.003 188.441C327.55 188.188 327.257 187.316 326.975 186.478C326.751 185.812 326.535 185.167 326.25 184.871C325.917 184.525 325.509 184.581 325.125 184.633C324.707 184.691 324.318 184.744 324.09 184.264C323.507 183.04 323.18 181.669 323.18 180.223C323.18 176.044 325.904 172.501 329.673 171.273C321.821 168.233 313.285 166.565 304.359 166.565C295.433 166.565 286.897 168.232 279.045 171.273C282.814 172.501 285.539 176.044 285.539 180.223C285.539 185.42 281.325 189.633 276.128 189.633C270.931 189.633 266.718 185.42 266.718 180.223C266.718 179.166 266.892 178.149 267.214 177.201C260.194 181.593 254.007 187.194 248.946 193.712C266.962 193.756 276.848 195.533 283.956 200.416C290.514 204.922 293.037 213.014 293.037 219.243C293.037 222.475 292.382 226.118 290.471 229.216C288.492 232.423 285.086 235.033 280.5 235.267C280.39 235.272 280.26 234.77 280.129 234.265L280.129 234.265C279.997 233.758 279.864 233.247 279.75 233.247C279.703 233.247 279.085 233.797 278.46 234.354L278.46 234.354L278.459 234.355L278.459 234.355C277.82 234.923 277.176 235.497 277.125 235.497C273.312 235.498 268.99 235.287 263.096 233.667C260.029 232.824 256.528 231.377 253.714 228.7C250.676 225.81 248.859 221.873 248.859 217.149C248.859 213.125 252.121 209.863 256.145 209.863C260.169 209.863 263.432 213.125 263.432 217.149C263.432 217.832 263.581 217.973 263.745 218.13L263.758 218.142C264.151 218.515 265.091 219.102 266.958 219.615C270.329 220.542 274.547 220.686 278.336 220.707C278.413 220.311 278.464 219.818 278.464 219.243C278.464 218.598 279.183 217.899 279.898 217.204C280.731 216.394 281.561 215.588 281.25 214.872C280.851 213.949 278.648 213.33 277.124 212.901C276.437 212.708 275.887 212.553 275.704 212.427C272.54 210.253 266.635 208.284 248.251 208.284C245.566 208.284 243.221 206.832 241.957 204.671C237.023 214.268 234.238 225.152 234.238 236.686C234.238 265.028 251.053 289.442 275.25 300.498C276.079 300.877 276.662 302.225 277.247 303.58C277.859 304.997 278.473 306.42 279.375 306.747C279.948 306.955 282.337 305.9 284.706 304.854C287.015 303.834 289.304 302.823 289.875 302.997C292.018 303.65 293.548 304.288 294.894 304.849C297.619 305.985 299.589 306.806 304.359 306.806ZM304.359 321.379C351.134 321.379 389.052 283.46 389.052 236.686C389.052 194.816 358.671 160.043 318.75 153.21C317.745 153.038 317.024 153.522 316.293 154.013C315.586 154.488 314.869 154.97 313.875 154.872C312.599 154.746 311.073 154.121 309.521 153.485C307.718 152.746 305.881 151.992 304.359 151.992C257.584 151.992 219.666 189.911 219.666 236.686C219.666 283.46 257.584 321.379 304.359 321.379ZM233.625 122.591C236.524 120.987 238.486 117.899 238.486 114.352C238.486 109.155 234.273 104.941 229.076 104.941C227.648 104.941 226.54 105.654 225.421 106.373C225.158 106.542 224.894 106.712 224.625 106.873C224.329 107.05 223.972 107.131 223.618 107.212C223.154 107.318 222.693 107.423 222.375 107.744C220.7 109.443 219.666 111.777 219.666 114.352C219.666 119.549 223.879 123.762 229.076 123.762C229.524 123.762 229.966 123.457 230.397 123.158C230.729 122.929 231.056 122.703 231.375 122.623C231.733 122.533 232.082 122.596 232.422 122.657C232.838 122.732 233.24 122.805 233.625 122.591ZM163.204 236.687C163.204 241.884 158.99 246.097 153.793 246.097C151.123 246.097 148.713 244.985 147 243.199C146.887 243.081 147.128 242.755 147.37 242.428C147.61 242.104 147.85 241.779 147.75 241.65C147.651 241.523 147.217 241.589 146.781 241.655C146.334 241.723 145.884 241.791 145.797 241.65C144.9 240.209 144.383 238.508 144.383 236.687C144.383 231.49 148.596 227.276 153.793 227.276C157.777 227.276 161.182 229.752 162.555 233.248C162.661 233.518 162.399 233.654 162.125 233.796C161.854 233.937 161.571 234.083 161.625 234.373C161.675 234.637 162.018 235.024 162.371 235.423C162.78 235.886 163.204 236.364 163.204 236.687ZM229.076 368.432C234.273 368.432 238.486 364.219 238.486 359.022C238.486 353.824 234.273 349.611 229.076 349.611C225.125 349.611 221.742 352.046 220.348 355.498C220.229 355.792 220.474 355.82 220.739 355.851C221.013 355.883 221.309 355.918 221.25 356.248C221.207 356.493 220.872 356.976 220.521 357.482C220.105 358.083 219.666 358.716 219.666 359.022C219.666 364.219 223.879 368.432 229.076 368.432ZM389.052 359.022C389.052 364.219 384.839 368.432 379.642 368.432C374.445 368.432 370.232 364.219 370.232 359.022C370.232 356.172 371.499 353.617 373.5 351.892C373.929 351.522 374.963 351.636 375.965 351.746C376.777 351.835 377.569 351.922 378 351.748C378.511 351.542 378.63 351.057 378.741 350.602C378.867 350.088 378.983 349.611 379.642 349.611C384.839 349.611 389.052 353.824 389.052 359.022ZM457.5 245.74C461.446 244.621 464.336 240.991 464.336 236.687C464.336 231.49 460.123 227.276 454.926 227.276C449.728 227.276 445.515 231.49 445.515 236.687C445.515 240.385 447.648 243.584 450.75 245.123C451.39 245.44 452.071 244.207 452.782 242.918C453.471 241.672 454.188 240.373 454.926 240.373C455.372 240.373 455.811 241.774 456.242 243.146C456.671 244.516 457.091 245.857 457.5 245.74ZM342.001 268.937C346.932 268.937 350.93 264.939 350.93 260.007C350.93 255.075 346.932 251.077 342 251.077H304.359L299.625 253.123L294.949 251.077L291.375 251.623L287.625 248.623L285.538 251.077H266.717C261.786 251.077 257.788 255.075 257.788 260.007C257.788 264.939 261.786 268.937 266.718 268.937H342.001ZM342.001 278.828C348.911 278.828 354.951 275.104 358.224 269.554C359.874 266.755 360.821 263.492 360.821 260.007C360.821 249.613 352.395 241.187 342 241.187H266.717C256.323 241.187 247.897 249.613 247.897 260.007C247.897 270.402 256.323 278.828 266.718 278.828H304.359H323.18L327.75 275.998L332.59 278.828H342.001Z" fill="#D7B99A"/>
</g>
</g>
<ellipse cx="540" cy="351.773" rx="10.5" ry="6.375" fill="black" fill-opacity="0.12"/>
<g filter="url(#filter21_i_1142_275670)">
<path fill-rule="evenodd" clip-rule="evenodd" d="M540 308.648C535.029 308.648 531 312.678 531 317.648V350.648C531 353.962 535.029 356.648 540 356.648C544.971 356.648 549 353.962 549 350.648V317.648C549 312.678 544.971 308.648 540 308.648Z" fill="#579858"/>
</g>
<ellipse cx="529.5" cy="358.523" rx="10.5" ry="6.375" fill="black" fill-opacity="0.12"/>
<g filter="url(#filter22_i_1142_275670)">
<path fill-rule="evenodd" clip-rule="evenodd" d="M529.5 345.398C524.529 345.398 520.5 349.428 520.5 354.398V357.398C520.5 360.712 524.529 363.398 529.5 363.398C534.471 363.398 538.5 360.712 538.5 357.398V354.398C538.5 349.428 534.471 345.398 529.5 345.398Z" fill="#579858"/>
</g>
<ellipse cx="552" cy="363.023" rx="10.5" ry="6.375" fill="black" fill-opacity="0.12"/>
<g filter="url(#filter23_i_1142_275670)">
<path fill-rule="evenodd" clip-rule="evenodd" d="M552 337.898C547.029 337.898 543 341.928 543 346.898V361.898C543 365.212 547.029 367.898 552 367.898C556.971 367.898 561 365.212 561 361.898V346.898C561 341.928 556.971 337.898 552 337.898Z" fill="#579858"/>
</g>
<path d="M131.25 851.25C131.25 847.108 134.608 843.75 138.75 843.75H467.25C471.392 843.75 474.75 847.108 474.75 851.25V936.75C474.75 940.892 471.392 944.25 467.25 944.25H138.75C134.608 944.25 131.25 940.892 131.25 936.75V851.25Z" fill="black" fill-opacity="0.2"/>
<g filter="url(#filter24_ii_1142_275670)">
<path d="M133.5 914.25H471.75V934.5C471.75 937.814 469.064 940.5 465.75 940.5H429.469L406.171 936L387.188 940.5H302.625L275.999 936L260.344 940.5H218.062H139.5C136.186 940.5 133.5 937.814 133.5 934.5V914.25Z" fill="#C8A078"/>
</g>
<path d="M121.5 855C121.5 850.858 124.858 847.5 129 847.5H477C481.142 847.5 484.5 850.858 484.5 855V940.5C484.5 944.642 481.142 948 477 948H129C124.858 948 121.5 944.642 121.5 940.5V855Z" fill="black" fill-opacity="0.12"/>
<g filter="url(#filter25_i_1142_275670)">
<path d="M127.5 827.25H296.212H477.75V915.391C477.75 918.704 475.064 921.391 471.75 921.391H433.969L412.633 925.5L390.188 921.391H346.406L323.344 917.281L302.625 921.391H133.5C130.186 921.391 127.5 918.704 127.5 915.391V827.25Z" fill="#C8A078"/>
</g>
<g filter="url(#filter26_f_1142_275670)">
<path d="M130.5 830.25H302.625H474.75V906.949C474.75 910.73 471.296 913.568 467.588 912.836L451.962 909.75L431.719 914.25H388.688H302.625H216.562L202.259 909.75L173.531 914.25H136.5C133.186 914.25 130.5 911.564 130.5 908.25V830.25Z" fill="#D7B99A"/>
</g>
<g filter="url(#filter27_i_1142_275670)">
<path d="M104.926 284.457C102.282 286.346 111.452 291.695 106.368 297.893C101.284 304.091 106.828 311.34 111.301 313.292C115.774 315.245 115.187 317.109 114.364 319.719C113.542 322.329 107.667 340.97 116.387 361.742C121.023 372.786 115.319 380.035 110.019 388.161C104.718 396.287 100.636 410.194 109.857 424.696C115.614 433.75 119.13 449.057 110.627 453.681" stroke="#9A7858" stroke-width="3.92238" stroke-linecap="round"/>
</g>
<g filter="url(#filter28_i_1142_275670)">
<path d="M102.476 285.298C100.214 286.253 113.917 292.122 108.333 298.233C102.748 304.344 104.28 311.096 109.566 313.189C114.852 315.283 112.671 317.923 111.849 320.533C97.4517 338.4 112.669 336.528 123.828 357.721C129.762 368.99 110.6 378.383 104.862 386.434C99.8534 391.65 101.118 412.374 107.922 424.361C117.645 436.854 126.97 447.901 117.342 452.331" stroke="#4D7C0F" stroke-width="2.45149" stroke-linecap="round"/>
</g>
<g filter="url(#filter29_i_1142_275670)">
<path d="M132.942 350.321C132.858 350.998 131.9 351.494 130.459 351.727C128.481 349.754 128.048 350.095 128.579 351.873C127.863 351.878 127.092 351.834 126.293 351.735C122.772 351.299 119.767 352.163 119.917 350.946C120.068 349.729 123.317 346.892 126.839 347.328C130.36 347.764 133.093 349.104 132.942 350.321Z" fill="#65A30D"/>
</g>
<g filter="url(#filter30_i_1142_275670)">
<path d="M117.181 387.09C116.606 388.234 113.364 388.553 109.939 387.801C110.574 386.478 109.871 386.524 108.243 387.518C107.855 387.471 107.478 387.434 107.116 387.404C104.922 387.219 103.328 387.259 103.739 386.441C104.314 385.297 108.598 382.906 112.023 383.657C112.42 383.745 112.802 383.842 113.167 383.949C113.326 385.422 113.876 385.412 114.654 384.471C116.535 385.259 117.591 386.274 117.181 387.09Z" fill="#65A30D"/>
</g>
<g filter="url(#filter31_i_1142_275670)">
<path d="M131.645 437.704C131.582 438.218 131.014 438.627 130.115 438.897C128.298 436.96 127.856 437.146 128.609 439.183C127.562 439.295 126.317 439.282 124.996 439.118C121.475 438.682 118.47 439.546 118.62 438.329C118.771 437.112 122.021 434.275 125.542 434.711C129.063 435.147 131.796 436.487 131.645 437.704Z" fill="#65A30D"/>
</g>
<g filter="url(#filter32_i_1142_275670)">
<path d="M105.565 448.574C105.415 449.791 108.147 451.131 111.668 451.567C115.19 452.003 117.894 453.573 118.044 452.356C118.195 451.139 115.735 447.596 112.214 447.16C111.421 448.103 110.801 448.058 110.314 447.024C107.68 446.981 105.688 447.584 105.565 448.574Z" fill="#65A30D"/>
</g>
<g filter="url(#filter33_i_1142_275670)">
<path d="M103.072 372.434C102.946 373.449 104.829 374.55 107.502 375.14C108.729 373.848 109.189 374.155 109.175 375.426C109.924 375.519 110.637 375.663 111.295 375.821C112.402 374.822 112.503 375.287 112.348 376.092C114.21 376.598 115.451 377.029 115.551 376.216C115.631 375.573 114.982 374.281 113.833 373.14C113.486 372.796 113.094 372.466 112.662 372.171C111.816 371.595 110.82 371.155 109.721 371.019C106.199 370.583 103.223 371.217 103.072 372.434Z" fill="#65A30D"/>
</g>
<g filter="url(#filter34_i_1142_275670)">
<path d="M92.0818 412.766C91.9311 413.983 94.6636 415.322 98.185 415.758C101.706 416.194 104.41 417.765 104.561 416.548C104.712 415.331 102.252 411.787 98.7305 411.351C95.2092 410.915 92.2324 411.549 92.0818 412.766Z" fill="#65A30D"/>
</g>
<g filter="url(#filter35_i_1142_275670)">
<path d="M244.189 32.0085C246.999 37.1624 228.51 39.9254 232.033 54.2817C235.556 68.6379 221.43 77.2696 212.893 77.4792C204.356 77.6888 203.92 81.3382 203.31 86.4474C202.7 91.5565 198.342 128.051 169.245 157.875C153.775 173.732 157.51 190.351 159.961 208.205C162.412 226.058 158.685 253.07 133.394 271.666C117.603 283.278 100.783 307.322 110.89 321.377" stroke="#9A7858" stroke-width="5.25222" stroke-linecap="round"/>
</g>
<g filter="url(#filter36_i_1142_275670)">
<path d="M247.461 35.2066C250.352 38.4686 224.282 38.9151 228.664 53.4767C233.045 68.0383 225.656 78.6575 215.725 78.5334C205.793 78.4092 207.317 84.5365 206.707 89.6457C216.453 130.848 193.661 116.797 160.38 145.62C142.685 160.945 166.216 190.838 169.419 208.871C173.542 221.472 156.319 256.507 136.713 272.462C112.101 287.218 89.1808 299.751 101.219 314.268" stroke="#4D7C0F" stroke-width="3.28264" stroke-linecap="round"/>
</g>
<g filter="url(#filter37_i_1142_275670)">
<path d="M151.342 126.313C150.978 127.547 152.135 129.088 154.252 130.513C158.842 128.498 159.28 129.397 157.132 132.102C158.265 132.62 159.521 133.091 160.862 133.487C166.774 135.231 170.912 138.863 171.566 136.646C172.221 134.429 169.143 127.203 163.231 125.458C157.319 123.714 151.996 124.096 151.342 126.313Z" fill="#65A30D"/>
</g>
<g filter="url(#filter38_i_1142_275670)">
<path d="M149.372 201.26C149.446 203.653 154.361 206.508 160.35 207.637C160.315 204.891 161.398 205.47 163.252 208.35C163.902 208.543 164.529 208.748 165.126 208.952C168.745 210.189 171.248 211.391 171.195 209.68C171.122 207.288 166.074 200.101 160.085 198.972C159.389 198.841 158.71 198.739 158.053 198.665C156.718 201.106 155.854 200.698 155.308 198.513C151.743 198.544 149.32 199.554 149.372 201.26Z" fill="#65A30D"/>
</g>
<g filter="url(#filter39_i_1142_275670)">
<path d="M89.2431 278.751C88.9669 279.687 89.5671 280.8 90.7979 281.906C95.1038 279.838 95.6694 280.474 92.9789 283.472C94.5599 284.409 96.5454 285.27 98.763 285.924C104.675 287.669 108.813 291.3 109.468 289.083C110.122 286.866 107.044 279.64 101.132 277.896C95.2204 276.151 89.8974 276.534 89.2431 278.751Z" fill="#65A30D"/>
</g>
<g filter="url(#filter40_i_1142_275670)">
<path d="M122.676 316.114C122.021 318.331 116.698 318.714 110.786 316.969C104.874 315.224 99.4276 316.027 100.082 313.81C100.736 311.593 107.244 307.196 113.156 308.94C113.722 311.137 114.74 311.501 116.273 310.055C120.488 311.849 123.208 314.31 122.676 316.114Z" fill="#65A30D"/>
</g>
<g filter="url(#filter41_i_1142_275670)">
<path d="M182.541 185.864C181.995 187.714 178.197 188.287 173.519 187.411C172.519 184.3 171.563 184.505 170.652 186.719C169.394 186.348 168.157 186.092 166.995 185.898C165.971 183.379 165.47 184.114 165.125 185.62C161.796 185.174 159.51 185.041 159.947 183.56C160.293 182.389 162.272 180.609 164.934 179.448C165.737 179.097 166.603 178.803 167.505 178.599C169.271 178.2 171.175 178.145 173.021 178.69C178.933 180.435 183.195 183.647 182.541 185.864Z" fill="#65A30D"/>
</g>
<g filter="url(#filter42_i_1142_275670)">
<path d="M170.379 263.606C169.725 265.823 164.402 266.206 158.49 264.461C152.578 262.716 147.131 263.519 147.785 261.302C148.439 259.085 154.947 254.688 160.859 256.432C166.771 258.177 171.033 261.389 170.379 263.606Z" fill="#65A30D"/>
</g>
<path fill-rule="evenodd" clip-rule="evenodd" d="M222.287 541.802C221.754 540.061 221.163 527.771 221.074 518.184C221.017 512.136 225.541 510.577 229.796 514.876C238.248 523.414 249.468 528.336 261.158 531.105C279.19 535.375 277.105 541.021 272.079 548.614C270.01 551.133 265.617 555.157 264.599 551.104C263.326 546.038 257.888 547.266 257.707 548.755C257.526 550.244 251.082 556.638 250.609 554.313C250.379 553.182 251.125 550.647 251.833 548.242L251.833 548.242C252.58 545.707 253.284 543.316 252.757 542.864C251.936 542.16 244.57 542.876 240.99 543.322C238.242 542.106 233.122 540.929 234.627 545.948C236.132 550.966 233.155 550.805 231.478 550.098C231.017 546.642 229.979 541.302 229.516 547.592C229.053 553.883 226.328 554.13 225.024 553.468C224.472 550.756 223.152 544.627 222.287 541.802ZM230.25 525.372C230.25 527.236 228.907 528.747 227.25 528.747C225.593 528.747 224.25 527.236 224.25 525.372C224.25 523.508 225.593 521.997 227.25 521.997C228.907 521.997 230.25 523.508 230.25 525.372ZM233.25 530.247C234.078 530.247 234.75 529.408 234.75 528.372C234.75 527.337 234.078 526.497 233.25 526.497C232.421 526.497 231.75 527.337 231.75 528.372C231.75 529.408 232.421 530.247 233.25 530.247Z" fill="#7AB87B"/>
<path fill-rule="evenodd" clip-rule="evenodd" d="M509.626 789.652L509.626 790.129C509.626 794.275 508.365 808.043 507.813 810.754C506.508 811.417 501.047 801.199 500.584 794.909C500.409 792.539 499.66 793.701 498.774 795.076C497.552 796.972 496.068 799.273 495.473 793.264C495.114 789.646 492.619 791.748 490.206 793.78C489.142 794.676 488.094 795.559 487.253 795.931C485.559 795.72 483.355 794.953 481.417 794.279L481.417 794.279L481.417 794.279C479.26 793.529 477.432 792.893 477 793.264C476.587 793.619 476.309 796.212 475.984 799.248C475.502 803.756 474.915 809.241 473.625 809.828C470.943 811.047 470.126 807.163 469.495 804.158C469.155 802.542 468.869 801.18 468.375 801.004C466.527 800.347 466.257 797.988 466.141 796.977C466.109 796.694 466.088 796.516 466.049 796.512C465.982 796.504 465.862 796.983 465.54 798.265L465.501 798.421C464.483 802.473 460.09 798.45 458.021 795.931C452.995 788.337 450.909 782.692 468.941 778.422C480.632 775.653 491.851 770.731 500.304 762.193C504.559 757.894 509.211 759.44 509.378 765.487C509.635 774.759 509.628 786.671 509.626 789.652ZM462.001 791.257C460.758 791.257 459.751 790.082 459.751 788.632C459.751 787.182 460.758 786.007 462.001 786.007C463.243 786.007 464.251 787.182 464.251 788.632C464.251 790.082 463.243 791.257 462.001 791.257ZM495.35 775.689C495.35 776.724 496.022 777.564 496.85 777.564C497.679 777.564 498.35 776.724 498.35 775.689C498.35 774.653 497.679 773.814 496.85 773.814C496.022 773.814 495.35 774.653 495.35 775.689ZM503.251 780.007C502.422 780.007 501.751 779.168 501.751 778.132C501.751 777.097 502.422 776.257 503.251 776.257C504.079 776.257 504.751 777.097 504.751 778.132C504.751 779.168 504.079 780.007 503.251 780.007Z" fill="#7AB87B"/>
<path fill-rule="evenodd" clip-rule="evenodd" d="M101.061 795.979C101.142 798.865 101.223 801.765 99.42 801.502C98.9021 800.609 98.4477 795.925 98.0234 791.55L98.0234 791.55C97.6469 787.668 97.2941 784.031 96.9415 783.502C96.5493 782.914 97.0399 772.549 97.5974 760.774L97.5974 760.774L97.5974 760.774L97.5974 760.774L97.5974 760.773C98.1059 750.031 98.67 738.114 98.67 731.377C98.67 730.625 98.6554 729.596 98.638 728.372L98.638 728.371L98.638 728.371C98.5267 720.53 98.3014 704.668 101.065 702.127C109.869 695.565 111.039 704.104 114.274 727.721L114.274 727.721L114.274 727.723C114.7 730.827 115.16 734.192 115.679 737.817C117.945 753.654 126.092 767.983 138.071 778.587C144.102 783.926 142.012 791.008 136.839 797.182C134.763 799.66 133.11 802.803 132.561 806.757C128.866 833.352 120.561 806.758 122.818 793.259C122.349 793.823 121.595 794.909 120.678 796.231C117.731 800.476 113.1 807.149 110.815 806.758C107.163 806.133 105.311 798.913 104.134 794.328C103.592 792.214 103.193 790.66 102.828 790.57C100.896 790.094 100.979 793.029 101.061 795.979ZM128.287 787.992C128.164 785.789 130.074 783.891 132.552 783.752C135.03 783.614 137.139 785.288 137.262 787.49C137.385 789.693 135.476 791.591 132.997 791.73C130.519 791.868 128.41 790.194 128.287 787.992ZM106.558 724.389C105.181 724.466 104.115 725.422 104.176 726.523C104.238 727.624 105.404 728.455 106.78 728.378C108.157 728.301 109.223 727.346 109.162 726.245C109.1 725.143 107.934 724.313 106.558 724.389ZM101.681 717.445C101.601 716.005 103.112 714.749 105.057 714.64C107.002 714.531 108.644 715.611 108.724 717.052C108.805 718.493 107.293 719.749 105.348 719.857C103.403 719.966 101.761 718.886 101.681 717.445Z" fill="#7AB87B"/>
<path fill-rule="evenodd" clip-rule="evenodd" d="M435.824 682.714C435.67 695.663 435.01 711.209 434.411 712.962C433.389 715.955 431.831 722.447 431.179 725.319C429.638 726.021 426.42 725.759 425.873 719.095C425.729 717.342 425.622 715.744 425.533 714.408L425.533 714.408L425.533 714.408C425.282 710.667 425.169 708.979 424.768 711.676C422.787 712.426 419.271 712.596 421.048 707.28C421.971 704.52 418.752 708.466 414.988 713.08C411.502 717.352 407.55 722.196 405.989 722.816C403.32 722.517 401.392 718.82 400.089 716.321C399.328 714.862 398.78 713.812 398.422 714.087C397.801 714.565 398.632 717.098 399.514 719.783C400.35 722.331 401.232 725.016 400.96 726.215C400.401 728.677 392.79 721.904 392.576 720.327C392.362 718.75 385.939 706.687 384.436 712.053C383.234 716.346 332.694 711.001 330.25 708.333C325.655 702.107 337.23 686.205 358.206 687.395C363.484 687.695 369.505 690.816 375.918 694.321C394.033 704.224 412.76 695.327 424.712 679.133C429.967 672.014 435.931 673.782 435.824 682.714ZM427.536 695.125C425.603 695.4 423.819 694.393 423.551 692.876C423.283 691.359 424.633 689.907 426.565 689.632C428.498 689.358 430.282 690.365 430.55 691.882C430.818 693.398 429.468 694.851 427.536 695.125ZM347.607 702.292C347.875 703.809 349.659 704.816 351.591 704.541C353.524 704.267 354.874 702.814 354.606 701.298C354.338 699.781 352.554 698.774 350.621 699.048C348.689 699.323 347.339 700.775 347.607 702.292ZM420.675 696.902C419.709 697.04 418.801 696.448 418.648 695.582C418.495 694.715 419.155 693.901 420.121 693.764C421.087 693.626 421.995 694.218 422.148 695.084C422.301 695.951 421.642 696.765 420.675 696.902Z" fill="#7AB87B"/>
<defs>
<filter id="filter0_iii_1142_275670" x="108" y="795" width="390.75" height="54" filterUnits="userSpaceOnUse" color-interpolation-filters="sRGB">
<feFlood flood-opacity="0" result="BackgroundImageFix"/>
<feBlend mode="normal" in="SourceGraphic" in2="BackgroundImageFix" result="shape"/>
<feColorMatrix in="SourceAlpha" type="matrix" values="0 0 0 0 0 0 0 0 0 0 0 0 0 0 0 0 0 0 127 0" result="hardAlpha"/>
<feOffset dy="18"/>
<feComposite in2="hardAlpha" operator="arithmetic" k2="-1" k3="1"/>
<feColorMatrix type="matrix" values="0 0 0 0 0 0 0 0 0 0 0 0 0 0 0 0 0 0 0.25 0"/>
<feBlend mode="normal" in2="shape" result="effect1_innerShadow_1142_275670"/>
<feColorMatrix in="SourceAlpha" type="matrix" values="0 0 0 0 0 0 0 0 0 0 0 0 0 0 0 0 0 0 127 0" result="hardAlpha"/>
<feOffset dy="-4.5"/>
<feGaussianBlur stdDeviation="5.25"/>
<feComposite in2="hardAlpha" operator="arithmetic" k2="-1" k3="1"/>
<feColorMatrix type="matrix" values="0 0 0 0 0 0 0 0 0 0 0 0 0 0 0 0 0 0 0.25 0"/>
<feBlend mode="normal" in2="effect1_innerShadow_1142_275670" result="effect2_innerShadow_1142_275670"/>
<feColorMatrix in="SourceAlpha" type="matrix" values="0 0 0 0 0 0 0 0 0 0 0 0 0 0 0 0 0 0 127 0" result="hardAlpha"/>
<feOffset dy="-57"/>
<feGaussianBlur stdDeviation="1.5"/>
<feComposite in2="hardAlpha" operator="arithmetic" k2="-1" k3="1"/>
<feColorMatrix type="matrix" values="0 0 0 0 0 0 0 0 0 0 0 0 0 0 0 0 0 0 0.1 0"/>
<feBlend mode="normal" in2="effect2_innerShadow_1142_275670" result="effect3_innerShadow_1142_275670"/>
</filter>
<filter id="filter1_i_1142_275670" x="96.75" y="406.5" width="413.25" height="404.25" filterUnits="userSpaceOnUse" color-interpolation-filters="sRGB">
<feFlood flood-opacity="0" result="BackgroundImageFix"/>
<feBlend mode="normal" in="SourceGraphic" in2="BackgroundImageFix" result="shape"/>
<feColorMatrix in="SourceAlpha" type="matrix" values="0 0 0 0 0 0 0 0 0 0 0 0 0 0 0 0 0 0 127 0" result="hardAlpha"/>
<feOffset dy="-27"/>
<feGaussianBlur stdDeviation="1.5"/>
<feComposite in2="hardAlpha" operator="arithmetic" k2="-1" k3="1"/>
<feColorMatrix type="matrix" values="0 0 0 0 0 0 0 0 0 0 0 0 0 0 0 0 0 0 0.1 0"/>
<feBlend mode="normal" in2="shape" result="effect1_innerShadow_1142_275670"/>
</filter>
<filter id="filter2_ii_1142_275670" x="-20.25" y="438" width="657" height="359.25" filterUnits="userSpaceOnUse" color-interpolation-filters="sRGB">
<feFlood flood-opacity="0" result="BackgroundImageFix"/>
<feBlend mode="normal" in="SourceGraphic" in2="BackgroundImageFix" result="shape"/>
<feColorMatrix in="SourceAlpha" type="matrix" values="0 0 0 0 0 0 0 0 0 0 0 0 0 0 0 0 0 0 127 0" result="hardAlpha"/>
<feOffset dx="52.5" dy="28.5"/>
<feGaussianBlur stdDeviation="46.125"/>
<feComposite in2="hardAlpha" operator="arithmetic" k2="-1" k3="1"/>
<feColorMatrix type="matrix" values="0 0 0 0 0 0 0 0 0 0 0 0 0 0 0 0 0 0 0.15 0"/>
<feBlend mode="normal" in2="shape" result="effect1_innerShadow_1142_275670"/>
<feColorMatrix in="SourceAlpha" type="matrix" values="0 0 0 0 0 0 0 0 0 0 0 0 0 0 0 0 0 0 127 0" result="hardAlpha"/>
<feOffset dx="-42" dy="25.5"/>
<feGaussianBlur stdDeviation="24.75"/>
<feComposite in2="hardAlpha" operator="arithmetic" k2="-1" k3="1"/>
<feColorMatrix type="matrix" values="0 0 0 0 1 0 0 0 0 1 0 0 0 0 1 0 0 0 0.15 0"/>
<feBlend mode="normal" in2="effect1_innerShadow_1142_275670" result="effect2_innerShadow_1142_275670"/>
</filter>
<filter id="filter3_di_1142_275670" x="21.75" y="152.25" width="562.5" height="573" filterUnits="userSpaceOnUse" color-interpolation-filters="sRGB">
<feFlood flood-opacity="0" result="BackgroundImageFix"/>
<feColorMatrix in="SourceAlpha" type="matrix" values="0 0 0 0 0 0 0 0 0 0 0 0 0 0 0 0 0 0 127 0" result="hardAlpha"/>
<feOffset dy="7.5"/>
<feComposite in2="hardAlpha" operator="out"/>
<feColorMatrix type="matrix" values="0 0 0 0 0 0 0 0 0 0 0 0 0 0 0 0 0 0 0.25 0"/>
<feBlend mode="normal" in2="BackgroundImageFix" result="effect1_dropShadow_1142_275670"/>
<feBlend mode="normal" in="SourceGraphic" in2="effect1_dropShadow_1142_275670" result="shape"/>
<feColorMatrix in="SourceAlpha" type="matrix" values="0 0 0 0 0 0 0 0 0 0 0 0 0 0 0 0 0 0 127 0" result="hardAlpha"/>
<feOffset dy="-79.5"/>
<feGaussianBlur stdDeviation="1.5"/>
<feComposite in2="hardAlpha" operator="arithmetic" k2="-1" k3="1"/>
<feColorMatrix type="matrix" values="0 0 0 0 0 0 0 0 0 0 0 0 0 0 0 0 0 0 0.1 0"/>
<feBlend mode="normal" in2="shape" result="effect2_innerShadow_1142_275670"/>
</filter>
<filter id="filter4_f_1142_275670" x="24" y="143.414" width="558" height="653.68" filterUnits="userSpaceOnUse" color-interpolation-filters="sRGB">
<feFlood flood-opacity="0" result="BackgroundImageFix"/>
<feBlend mode="normal" in="SourceGraphic" in2="BackgroundImageFix" result="shape"/>
<feGaussianBlur stdDeviation="1.5" result="effect1_foregroundBlur_1142_275670"/>
</filter>
<filter id="filter5_ii_1142_275670" x="174" y="698.25" width="257.25" height="28.5" filterUnits="userSpaceOnUse" color-interpolation-filters="sRGB">
<feFlood flood-opacity="0" result="BackgroundImageFix"/>
<feBlend mode="normal" in="SourceGraphic" in2="BackgroundImageFix" result="shape"/>
<feColorMatrix in="SourceAlpha" type="matrix" values="0 0 0 0 0 0 0 0 0 0 0 0 0 0 0 0 0 0 127 0" result="hardAlpha"/>
<feOffset dy="13.5"/>
<feComposite in2="hardAlpha" operator="arithmetic" k2="-1" k3="1"/>
<feColorMatrix type="matrix" values="0 0 0 0 0 0 0 0 0 0 0 0 0 0 0 0 0 0 0.25 0"/>
<feBlend mode="normal" in2="shape" result="effect1_innerShadow_1142_275670"/>
<feColorMatrix in="SourceAlpha" type="matrix" values="0 0 0 0 0 0 0 0 0 0 0 0 0 0 0 0 0 0 127 0" result="hardAlpha"/>
<feOffset dy="-2.25"/>
<feGaussianBlur stdDeviation="3"/>
<feComposite in2="hardAlpha" operator="arithmetic" k2="-1" k3="1"/>
<feColorMatrix type="matrix" values="0 0 0 0 0 0 0 0 0 0 0 0 0 0 0 0 0 0 0.25 0"/>
<feBlend mode="normal" in2="effect1_innerShadow_1142_275670" result="effect2_innerShadow_1142_275670"/>
</filter>
<filter id="filter6_ii_1142_275670" x="54.75" y="-5.25" width="507" height="584.25" filterUnits="userSpaceOnUse" color-interpolation-filters="sRGB">
<feFlood flood-opacity="0" result="BackgroundImageFix"/>
<feBlend mode="normal" in="SourceGraphic" in2="BackgroundImageFix" result="shape"/>
<feColorMatrix in="SourceAlpha" type="matrix" values="0 0 0 0 0 0 0 0 0 0 0 0 0 0 0 0 0 0 127 0" result="hardAlpha"/>
<feOffset dx="52.5" dy="-31.5"/>
<feGaussianBlur stdDeviation="46.125"/>
<feComposite in2="hardAlpha" operator="arithmetic" k2="-1" k3="1"/>
<feColorMatrix type="matrix" values="0 0 0 0 0 0 0 0 0 0 0 0 0 0 0 0 0 0 0.15 0"/>
<feBlend mode="normal" in2="shape" result="effect1_innerShadow_1142_275670"/>
<feColorMatrix in="SourceAlpha" type="matrix" values="0 0 0 0 0 0 0 0 0 0 0 0 0 0 0 0 0 0 127 0" result="hardAlpha"/>
<feOffset dx="-42" dy="25.5"/>
<feGaussianBlur stdDeviation="24.75"/>
<feComposite in2="hardAlpha" operator="arithmetic" k2="-1" k3="1"/>
<feColorMatrix type="matrix" values="0 0 0 0 1 0 0 0 0 1 0 0 0 0 1 0 0 0 0.15 0"/>
<feBlend mode="normal" in2="effect1_innerShadow_1142_275670" result="effect2_innerShadow_1142_275670"/>
</filter>
<filter id="filter7_i_1142_275670" x="169.5" y="487.5" width="266.25" height="227.625" filterUnits="userSpaceOnUse" color-interpolation-filters="sRGB">
<feFlood flood-opacity="0" result="BackgroundImageFix"/>
<feBlend mode="normal" in="SourceGraphic" in2="BackgroundImageFix" result="shape"/>
<feColorMatrix in="SourceAlpha" type="matrix" values="0 0 0 0 0 0 0 0 0 0 0 0 0 0 0 0 0 0 127 0" result="hardAlpha"/>
<feOffset dy="12"/>
<feGaussianBlur stdDeviation="1.5"/>
<feComposite in2="hardAlpha" operator="arithmetic" k2="-1" k3="1"/>
<feColorMatrix type="matrix" values="0 0 0 0 0 0 0 0 0 0 0 0 0 0 0 0 0 0 0.05 0"/>
<feBlend mode="normal" in2="shape" result="effect1_innerShadow_1142_275670"/>
</filter>
<filter id="filter8_dii_1142_275670" x="54.75" y="235.5" width="507" height="258" filterUnits="userSpaceOnUse" color-interpolation-filters="sRGB">
<feFlood flood-opacity="0" result="BackgroundImageFix"/>
<feColorMatrix in="SourceAlpha" type="matrix" values="0 0 0 0 0 0 0 0 0 0 0 0 0 0 0 0 0 0 127 0" result="hardAlpha"/>
<feOffset dy="8.25"/>
<feComposite in2="hardAlpha" operator="out"/>
<feColorMatrix type="matrix" values="0 0 0 0 0 0 0 0 0 0 0 0 0 0 0 0 0 0 0.25 0"/>
<feBlend mode="normal" in2="BackgroundImageFix" result="effect1_dropShadow_1142_275670"/>
<feBlend mode="normal" in="SourceGraphic" in2="effect1_dropShadow_1142_275670" result="shape"/>
<feColorMatrix in="SourceAlpha" type="matrix" values="0 0 0 0 0 0 0 0 0 0 0 0 0 0 0 0 0 0 127 0" result="hardAlpha"/>
<feOffset dx="52.5" dy="28.5"/>
<feGaussianBlur stdDeviation="46.125"/>
<feComposite in2="hardAlpha" operator="arithmetic" k2="-1" k3="1"/>
<feColorMatrix type="matrix" values="0 0 0 0 0 0 0 0 0 0 0 0 0 0 0 0 0 0 0.15 0"/>
<feBlend mode="normal" in2="shape" result="effect2_innerShadow_1142_275670"/>
<feColorMatrix in="SourceAlpha" type="matrix" values="0 0 0 0 0 0 0 0 0 0 0 0 0 0 0 0 0 0 127 0" result="hardAlpha"/>
<feOffset dx="-42" dy="25.5"/>
<feGaussianBlur stdDeviation="24.75"/>
<feComposite in2="hardAlpha" operator="arithmetic" k2="-1" k3="1"/>
<feColorMatrix type="matrix" values="0 0 0 0 1 0 0 0 0 1 0 0 0 0 1 0 0 0 0.15 0"/>
<feBlend mode="normal" in2="effect2_innerShadow_1142_275670" result="effect3_innerShadow_1142_275670"/>
</filter>
<filter id="filter9_i_1142_275670" x="112.5" y="505.148" width="24" height="30" filterUnits="userSpaceOnUse" color-interpolation-filters="sRGB">
<feFlood flood-opacity="0" result="BackgroundImageFix"/>
<feBlend mode="normal" in="SourceGraphic" in2="BackgroundImageFix" result="shape"/>
<feColorMatrix in="SourceAlpha" type="matrix" values="0 0 0 0 0 0 0 0 0 0 0 0 0 0 0 0 0 0 127 0" result="hardAlpha"/>
<feOffset dx="6"/>
<feGaussianBlur stdDeviation="3"/>
<feComposite in2="hardAlpha" operator="arithmetic" k2="-1" k3="1"/>
<feColorMatrix type="matrix" values="0 0 0 0 0 0 0 0 0 0 0 0 0 0 0 0 0 0 0.25 0"/>
<feBlend mode="normal" in2="shape" result="effect1_innerShadow_1142_275670"/>
</filter>
<filter id="filter10_i_1142_275670" x="102" y="523.898" width="24" height="18" filterUnits="userSpaceOnUse" color-interpolation-filters="sRGB">
<feFlood flood-opacity="0" result="BackgroundImageFix"/>
<feBlend mode="normal" in="SourceGraphic" in2="BackgroundImageFix" result="shape"/>
<feColorMatrix in="SourceAlpha" type="matrix" values="0 0 0 0 0 0 0 0 0 0 0 0 0 0 0 0 0 0 127 0" result="hardAlpha"/>
<feOffset dx="6"/>
<feGaussianBlur stdDeviation="3"/>
<feComposite in2="hardAlpha" operator="arithmetic" k2="-1" k3="1"/>
<feColorMatrix type="matrix" values="0 0 0 0 0 0 0 0 0 0 0 0 0 0 0 0 0 0 0.25 0"/>
<feBlend mode="normal" in2="shape" result="effect1_innerShadow_1142_275670"/>
</filter>
<filter id="filter11_f_1142_275670" x="168.75" y="487.5" width="267.75" height="216" filterUnits="userSpaceOnUse" color-interpolation-filters="sRGB">
<feFlood flood-opacity="0" result="BackgroundImageFix"/>
<feBlend mode="normal" in="SourceGraphic" in2="BackgroundImageFix" result="shape"/>
<feGaussianBlur stdDeviation="1.5" result="effect1_foregroundBlur_1142_275670"/>
</filter>
<filter id="filter12_ii_1142_275670" x="199.5" y="610.5" width="207" height="32.625" filterUnits="userSpaceOnUse" color-interpolation-filters="sRGB">
<feFlood flood-opacity="0" result="BackgroundImageFix"/>
<feBlend mode="normal" in="SourceGraphic" in2="BackgroundImageFix" result="shape"/>
<feColorMatrix in="SourceAlpha" type="matrix" values="0 0 0 0 0 0 0 0 0 0 0 0 0 0 0 0 0 0 127 0" result="hardAlpha"/>
<feOffset dy="12.75"/>
<feComposite in2="hardAlpha" operator="arithmetic" k2="-1" k3="1"/>
<feColorMatrix type="matrix" values="0 0 0 0 0 0 0 0 0 0 0 0 0 0 0 0 0 0 0.25 0"/>
<feBlend mode="normal" in2="shape" result="effect1_innerShadow_1142_275670"/>
<feColorMatrix in="SourceAlpha" type="matrix" values="0 0 0 0 0 0 0 0 0 0 0 0 0 0 0 0 0 0 127 0" result="hardAlpha"/>
<feOffset dy="-2.25"/>
<feGaussianBlur stdDeviation="3"/>
<feComposite in2="hardAlpha" operator="arithmetic" k2="-1" k3="1"/>
<feColorMatrix type="matrix" values="0 0 0 0 0 0 0 0 0 0 0 0 0 0 0 0 0 0 0.25 0"/>
<feBlend mode="normal" in2="effect1_innerShadow_1142_275670" result="effect2_innerShadow_1142_275670"/>
</filter>
<filter id="filter13_i_1142_275670" x="196.5" y="477" width="213" height="148.875" filterUnits="userSpaceOnUse" color-interpolation-filters="sRGB">
<feFlood flood-opacity="0" result="BackgroundImageFix"/>
<feBlend mode="normal" in="SourceGraphic" in2="BackgroundImageFix" result="shape"/>
<feColorMatrix in="SourceAlpha" type="matrix" values="0 0 0 0 0 0 0 0 0 0 0 0 0 0 0 0 0 0 127 0" result="hardAlpha"/>
<feOffset dy="12"/>
<feGaussianBlur stdDeviation="1.5"/>
<feComposite in2="hardAlpha" operator="arithmetic" k2="-1" k3="1"/>
<feColorMatrix type="matrix" values="0 0 0 0 0 0 0 0 0 0 0 0 0 0 0 0 0 0 0.05 0"/>
<feBlend mode="normal" in2="shape" result="effect1_innerShadow_1142_275670"/>
</filter>
<filter id="filter14_f_1142_275670" x="196.5" y="477" width="213" height="138.75" filterUnits="userSpaceOnUse" color-interpolation-filters="sRGB">
<feFlood flood-opacity="0" result="BackgroundImageFix"/>
<feBlend mode="normal" in="SourceGraphic" in2="BackgroundImageFix" result="shape"/>
<feGaussianBlur stdDeviation="1.5" result="effect1_foregroundBlur_1142_275670"/>
</filter>
<filter id="filter15_ii_1142_275670" x="225.75" y="529.5" width="154.5" height="30" filterUnits="userSpaceOnUse" color-interpolation-filters="sRGB">
<feFlood flood-opacity="0" result="BackgroundImageFix"/>
<feBlend mode="normal" in="SourceGraphic" in2="BackgroundImageFix" result="shape"/>
<feColorMatrix in="SourceAlpha" type="matrix" values="0 0 0 0 0 0 0 0 0 0 0 0 0 0 0 0 0 0 127 0" result="hardAlpha"/>
<feOffset dy="12.75"/>
<feComposite in2="hardAlpha" operator="arithmetic" k2="-1" k3="1"/>
<feColorMatrix type="matrix" values="0 0 0 0 0 0 0 0 0 0 0 0 0 0 0 0 0 0 0.25 0"/>
<feBlend mode="normal" in2="shape" result="effect1_innerShadow_1142_275670"/>
<feColorMatrix in="SourceAlpha" type="matrix" values="0 0 0 0 0 0 0 0 0 0 0 0 0 0 0 0 0 0 127 0" result="hardAlpha"/>
<feOffset dy="-2.25"/>
<feGaussianBlur stdDeviation="2.625"/>
<feComposite in2="hardAlpha" operator="arithmetic" k2="-1" k3="1"/>
<feColorMatrix type="matrix" values="0 0 0 0 0 0 0 0 0 0 0 0 0 0 0 0 0 0 0.25 0"/>
<feBlend mode="normal" in2="effect1_innerShadow_1142_275670" result="effect2_innerShadow_1142_275670"/>
</filter>
<filter id="filter16_i_1142_275670" x="222.75" y="465" width="159.75" height="77.25" filterUnits="userSpaceOnUse" color-interpolation-filters="sRGB">
<feFlood flood-opacity="0" result="BackgroundImageFix"/>
<feBlend mode="normal" in="SourceGraphic" in2="BackgroundImageFix" result="shape"/>
<feColorMatrix in="SourceAlpha" type="matrix" values="0 0 0 0 0 0 0 0 0 0 0 0 0 0 0 0 0 0 127 0" result="hardAlpha"/>
<feOffset dy="12"/>
<feGaussianBlur stdDeviation="1.5"/>
<feComposite in2="hardAlpha" operator="arithmetic" k2="-1" k3="1"/>
<feColorMatrix type="matrix" values="0 0 0 0 0 0 0 0 0 0 0 0 0 0 0 0 0 0 0.05 0"/>
<feBlend mode="normal" in2="shape" result="effect1_innerShadow_1142_275670"/>
</filter>
<filter id="filter17_f_1142_275670" x="222" y="465" width="161.25" height="69.75" filterUnits="userSpaceOnUse" color-interpolation-filters="sRGB">
<feFlood flood-opacity="0" result="BackgroundImageFix"/>
<feBlend mode="normal" in="SourceGraphic" in2="BackgroundImageFix" result="shape"/>
<feGaussianBlur stdDeviation="1.5" result="effect1_foregroundBlur_1142_275670"/>
</filter>
<filter id="filter18_f_1142_275670" x="99.75" y="26.25" width="408" height="408" filterUnits="userSpaceOnUse" color-interpolation-filters="sRGB">
<feFlood flood-opacity="0" result="BackgroundImageFix"/>
<feBlend mode="normal" in="SourceGraphic" in2="BackgroundImageFix" result="shape"/>
<feGaussianBlur stdDeviation="1.5" result="effect1_foregroundBlur_1142_275670"/>
</filter>
<filter id="filter19_i_1142_275670" x="134.973" y="57.6523" width="338.773" height="339.012" filterUnits="userSpaceOnUse" color-interpolation-filters="sRGB">
<feFlood flood-opacity="0" result="BackgroundImageFix"/>
<feBlend mode="normal" in="SourceGraphic" in2="BackgroundImageFix" result="shape"/>
<feColorMatrix in="SourceAlpha" type="matrix" values="0 0 0 0 0 0 0 0 0 0 0 0 0 0 0 0 0 0 127 0" result="hardAlpha"/>
<feOffset dy="5.4675"/>
<feComposite in2="hardAlpha" operator="arithmetic" k2="-1" k3="1"/>
<feColorMatrix type="matrix" values="0 0 0 0 0 0 0 0 0 0 0 0 0 0 0 0 0 0 0.25 0"/>
<feBlend mode="normal" in2="shape" result="effect1_innerShadow_1142_275670"/>
</filter>
<filter id="filter20_di_1142_275670" x="144.383" y="70.6992" width="319.953" height="316.543" filterUnits="userSpaceOnUse" color-interpolation-filters="sRGB">
<feFlood flood-opacity="0" result="BackgroundImageFix"/>
<feColorMatrix in="SourceAlpha" type="matrix" values="0 0 0 0 0 0 0 0 0 0 0 0 0 0 0 0 0 0 127 0" result="hardAlpha"/>
<feOffset dy="6"/>
<feComposite in2="hardAlpha" operator="out"/>
<feColorMatrix type="matrix" values="0 0 0 0 0 0 0 0 0 0 0 0 0 0 0 0 0 0 0.25 0"/>
<feBlend mode="normal" in2="BackgroundImageFix" result="effect1_dropShadow_1142_275670"/>
<feBlend mode="normal" in="SourceGraphic" in2="effect1_dropShadow_1142_275670" result="shape"/>
<feColorMatrix in="SourceAlpha" type="matrix" values="0 0 0 0 0 0 0 0 0 0 0 0 0 0 0 0 0 0 127 0" result="hardAlpha"/>
<feOffset dy="3"/>
<feGaussianBlur stdDeviation="1.5"/>
<feComposite in2="hardAlpha" operator="arithmetic" k2="-1" k3="1"/>
<feColorMatrix type="matrix" values="0 0 0 0 1 0 0 0 0 1 0 0 0 0 1 0 0 0 0.25 0"/>
<feBlend mode="normal" in2="shape" result="effect2_innerShadow_1142_275670"/>
</filter>
<filter id="filter21_i_1142_275670" x="531" y="308.648" width="24" height="48" filterUnits="userSpaceOnUse" color-interpolation-filters="sRGB">
<feFlood flood-opacity="0" result="BackgroundImageFix"/>
<feBlend mode="normal" in="SourceGraphic" in2="BackgroundImageFix" result="shape"/>
<feColorMatrix in="SourceAlpha" type="matrix" values="0 0 0 0 0 0 0 0 0 0 0 0 0 0 0 0 0 0 127 0" result="hardAlpha"/>
<feOffset dx="6"/>
<feGaussianBlur stdDeviation="3"/>
<feComposite in2="hardAlpha" operator="arithmetic" k2="-1" k3="1"/>
<feColorMatrix type="matrix" values="0 0 0 0 0 0 0 0 0 0 0 0 0 0 0 0 0 0 0.25 0"/>
<feBlend mode="normal" in2="shape" result="effect1_innerShadow_1142_275670"/>
</filter>
<filter id="filter22_i_1142_275670" x="520.5" y="345.398" width="24" height="18" filterUnits="userSpaceOnUse" color-interpolation-filters="sRGB">
<feFlood flood-opacity="0" result="BackgroundImageFix"/>
<feBlend mode="normal" in="SourceGraphic" in2="BackgroundImageFix" result="shape"/>
<feColorMatrix in="SourceAlpha" type="matrix" values="0 0 0 0 0 0 0 0 0 0 0 0 0 0 0 0 0 0 127 0" result="hardAlpha"/>
<feOffset dx="6"/>
<feGaussianBlur stdDeviation="3"/>
<feComposite in2="hardAlpha" operator="arithmetic" k2="-1" k3="1"/>
<feColorMatrix type="matrix" values="0 0 0 0 0 0 0 0 0 0 0 0 0 0 0 0 0 0 0.25 0"/>
<feBlend mode="normal" in2="shape" result="effect1_innerShadow_1142_275670"/>
</filter>
<filter id="filter23_i_1142_275670" x="543" y="337.898" width="24" height="30" filterUnits="userSpaceOnUse" color-interpolation-filters="sRGB">
<feFlood flood-opacity="0" result="BackgroundImageFix"/>
<feBlend mode="normal" in="SourceGraphic" in2="BackgroundImageFix" result="shape"/>
<feColorMatrix in="SourceAlpha" type="matrix" values="0 0 0 0 0 0 0 0 0 0 0 0 0 0 0 0 0 0 127 0" result="hardAlpha"/>
<feOffset dx="6"/>
<feGaussianBlur stdDeviation="3"/>
<feComposite in2="hardAlpha" operator="arithmetic" k2="-1" k3="1"/>
<feColorMatrix type="matrix" values="0 0 0 0 0 0 0 0 0 0 0 0 0 0 0 0 0 0 0.25 0"/>
<feBlend mode="normal" in2="shape" result="effect1_innerShadow_1142_275670"/>
</filter>
<filter id="filter24_ii_1142_275670" x="133.5" y="912" width="338.25" height="28.5" filterUnits="userSpaceOnUse" color-interpolation-filters="sRGB">
<feFlood flood-opacity="0" result="BackgroundImageFix"/>
<feBlend mode="normal" in="SourceGraphic" in2="BackgroundImageFix" result="shape"/>
<feColorMatrix in="SourceAlpha" type="matrix" values="0 0 0 0 0 0 0 0 0 0 0 0 0 0 0 0 0 0 127 0" result="hardAlpha"/>
<feOffset dy="13.5"/>
<feComposite in2="hardAlpha" operator="arithmetic" k2="-1" k3="1"/>
<feColorMatrix type="matrix" values="0 0 0 0 0 0 0 0 0 0 0 0 0 0 0 0 0 0 0.25 0"/>
<feBlend mode="normal" in2="shape" result="effect1_innerShadow_1142_275670"/>
<feColorMatrix in="SourceAlpha" type="matrix" values="0 0 0 0 0 0 0 0 0 0 0 0 0 0 0 0 0 0 127 0" result="hardAlpha"/>
<feOffset dy="-2.25"/>
<feGaussianBlur stdDeviation="3"/>
<feComposite in2="hardAlpha" operator="arithmetic" k2="-1" k3="1"/>
<feColorMatrix type="matrix" values="0 0 0 0 0 0 0 0 0 0 0 0 0 0 0 0 0 0 0.25 0"/>
<feBlend mode="normal" in2="effect1_innerShadow_1142_275670" result="effect2_innerShadow_1142_275670"/>
</filter>
<filter id="filter25_i_1142_275670" x="127.5" y="827.25" width="350.25" height="101.25" filterUnits="userSpaceOnUse" color-interpolation-filters="sRGB">
<feFlood flood-opacity="0" result="BackgroundImageFix"/>
<feBlend mode="normal" in="SourceGraphic" in2="BackgroundImageFix" result="shape"/>
<feColorMatrix in="SourceAlpha" type="matrix" values="0 0 0 0 0 0 0 0 0 0 0 0 0 0 0 0 0 0 127 0" result="hardAlpha"/>
<feOffset dy="12"/>
<feGaussianBlur stdDeviation="1.5"/>
<feComposite in2="hardAlpha" operator="arithmetic" k2="-1" k3="1"/>
<feColorMatrix type="matrix" values="0 0 0 0 0 0 0 0 0 0 0 0 0 0 0 0 0 0 0.05 0"/>
<feBlend mode="normal" in2="shape" result="effect1_innerShadow_1142_275670"/>
</filter>
<filter id="filter26_f_1142_275670" x="127.5" y="827.25" width="350.25" height="90" filterUnits="userSpaceOnUse" color-interpolation-filters="sRGB">
<feFlood flood-opacity="0" result="BackgroundImageFix"/>
<feBlend mode="normal" in="SourceGraphic" in2="BackgroundImageFix" result="shape"/>
<feGaussianBlur stdDeviation="1.5" result="effect1_foregroundBlur_1142_275670"/>
</filter>
<filter id="filter27_i_1142_275670" x="102.321" y="281.084" width="19.7551" height="174.498" filterUnits="userSpaceOnUse" color-interpolation-filters="sRGB">
<feFlood flood-opacity="0" result="BackgroundImageFix"/>
<feBlend mode="normal" in="SourceGraphic" in2="BackgroundImageFix" result="shape"/>
<feColorMatrix in="SourceAlpha" type="matrix" values="0 0 0 0 0 0 0 0 0 0 0 0 0 0 0 0 0 0 127 0" result="hardAlpha"/>
<feOffset dx="2.45149" dy="-1.47089"/>
<feGaussianBlur stdDeviation="0.980596"/>
<feComposite in2="hardAlpha" operator="arithmetic" k2="-1" k3="1"/>
<feColorMatrix type="matrix" values="0 0 0 0 0 0 0 0 0 0 0 0 0 0 0 0 0 0 0.25 0"/>
<feBlend mode="normal" in2="shape" result="effect1_innerShadow_1142_275670"/>
</filter>
<filter id="filter28_i_1142_275670" x="100.552" y="283.129" width="26.1563" height="170.391" filterUnits="userSpaceOnUse" color-interpolation-filters="sRGB">
<feFlood flood-opacity="0" result="BackgroundImageFix"/>
<feBlend mode="normal" in="SourceGraphic" in2="BackgroundImageFix" result="shape"/>
<feColorMatrix in="SourceAlpha" type="matrix" values="0 0 0 0 0 0 0 0 0 0 0 0 0 0 0 0 0 0 127 0" result="hardAlpha"/>
<feOffset dx="0.490298" dy="-0.980596"/>
<feGaussianBlur stdDeviation="0.490298"/>
<feComposite in2="hardAlpha" operator="arithmetic" k2="-1" k3="1"/>
<feColorMatrix type="matrix" values="0 0 0 0 0 0 0 0 0 0 0 0 0 0 0 0 0 0 0.25 0"/>
<feBlend mode="normal" in2="shape" result="effect1_innerShadow_1142_275670"/>
</filter>
<filter id="filter29_i_1142_275670" x="119.912" y="343.363" width="16.9585" height="8.50832" filterUnits="userSpaceOnUse" color-interpolation-filters="sRGB">
<feFlood flood-opacity="0" result="BackgroundImageFix"/>
<feBlend mode="normal" in="SourceGraphic" in2="BackgroundImageFix" result="shape"/>
<feColorMatrix in="SourceAlpha" type="matrix" values="0 0 0 0 0 0 0 0 0 0 0 0 0 0 0 0 0 0 127 0" result="hardAlpha"/>
<feOffset dx="3.92238" dy="-3.92238"/>
<feGaussianBlur stdDeviation="2.94179"/>
<feComposite in2="hardAlpha" operator="arithmetic" k2="-1" k3="1"/>
<feColorMatrix type="matrix" values="0 0 0 0 0 0 0 0 0 0 0 0 0 0 0 0 0 0 0.25 0"/>
<feBlend mode="normal" in2="shape" result="effect1_innerShadow_1142_275670"/>
</filter>
<filter id="filter30_i_1142_275670" x="103.674" y="379.593" width="17.5181" height="8.61379" filterUnits="userSpaceOnUse" color-interpolation-filters="sRGB">
<feFlood flood-opacity="0" result="BackgroundImageFix"/>
<feBlend mode="normal" in="SourceGraphic" in2="BackgroundImageFix" result="shape"/>
<feColorMatrix in="SourceAlpha" type="matrix" values="0 0 0 0 0 0 0 0 0 0 0 0 0 0 0 0 0 0 127 0" result="hardAlpha"/>
<feOffset dx="3.92238" dy="-3.92238"/>
<feGaussianBlur stdDeviation="2.94179"/>
<feComposite in2="hardAlpha" operator="arithmetic" k2="-1" k3="1"/>
<feColorMatrix type="matrix" values="0 0 0 0 0 0 0 0 0 0 0 0 0 0 0 0 0 0 0.25 0"/>
<feBlend mode="normal" in2="shape" result="effect1_innerShadow_1142_275670"/>
</filter>
<filter id="filter31_i_1142_275670" x="118.615" y="430.746" width="16.9585" height="8.50832" filterUnits="userSpaceOnUse" color-interpolation-filters="sRGB">
<feFlood flood-opacity="0" result="BackgroundImageFix"/>
<feBlend mode="normal" in="SourceGraphic" in2="BackgroundImageFix" result="shape"/>
<feColorMatrix in="SourceAlpha" type="matrix" values="0 0 0 0 0 0 0 0 0 0 0 0 0 0 0 0 0 0 127 0" result="hardAlpha"/>
<feOffset dx="3.92238" dy="-3.92238"/>
<feGaussianBlur stdDeviation="2.94179"/>
<feComposite in2="hardAlpha" operator="arithmetic" k2="-1" k3="1"/>
<feColorMatrix type="matrix" values="0 0 0 0 0 0 0 0 0 0 0 0 0 0 0 0 0 0 0.25 0"/>
<feBlend mode="normal" in2="shape" result="effect1_innerShadow_1142_275670"/>
</filter>
<filter id="filter32_i_1142_275670" x="101.637" y="445.062" width="16.4136" height="7.74635" filterUnits="userSpaceOnUse" color-interpolation-filters="sRGB">
<feFlood flood-opacity="0" result="BackgroundImageFix"/>
<feBlend mode="normal" in="SourceGraphic" in2="BackgroundImageFix" result="shape"/>
<feColorMatrix in="SourceAlpha" type="matrix" values="0 0 0 0 0 0 0 0 0 0 0 0 0 0 0 0 0 0 127 0" result="hardAlpha"/>
<feOffset dx="-3.92238" dy="-1.96119"/>
<feGaussianBlur stdDeviation="2.94179"/>
<feComposite in2="hardAlpha" operator="arithmetic" k2="-1" k3="1"/>
<feColorMatrix type="matrix" values="0 0 0 0 0 0 0 0 0 0 0 0 0 0 0 0 0 0 0.25 0"/>
<feBlend mode="normal" in2="shape" result="effect1_innerShadow_1142_275670"/>
</filter>
<filter id="filter33_i_1142_275670" x="99.144" y="368.922" width="16.4136" height="7.74635" filterUnits="userSpaceOnUse" color-interpolation-filters="sRGB">
<feFlood flood-opacity="0" result="BackgroundImageFix"/>
<feBlend mode="normal" in="SourceGraphic" in2="BackgroundImageFix" result="shape"/>
<feColorMatrix in="SourceAlpha" type="matrix" values="0 0 0 0 0 0 0 0 0 0 0 0 0 0 0 0 0 0 127 0" result="hardAlpha"/>
<feOffset dx="-3.92238" dy="-1.96119"/>
<feGaussianBlur stdDeviation="2.94179"/>
<feComposite in2="hardAlpha" operator="arithmetic" k2="-1" k3="1"/>
<feColorMatrix type="matrix" values="0 0 0 0 0 0 0 0 0 0 0 0 0 0 0 0 0 0 0.25 0"/>
<feBlend mode="normal" in2="shape" result="effect1_innerShadow_1142_275670"/>
</filter>
<filter id="filter34_i_1142_275670" x="88.1538" y="409.254" width="16.4136" height="7.74635" filterUnits="userSpaceOnUse" color-interpolation-filters="sRGB">
<feFlood flood-opacity="0" result="BackgroundImageFix"/>
<feBlend mode="normal" in="SourceGraphic" in2="BackgroundImageFix" result="shape"/>
<feColorMatrix in="SourceAlpha" type="matrix" values="0 0 0 0 0 0 0 0 0 0 0 0 0 0 0 0 0 0 127 0" result="hardAlpha"/>
<feOffset dx="-3.92238" dy="-1.96119"/>
<feGaussianBlur stdDeviation="2.94179"/>
<feComposite in2="hardAlpha" operator="arithmetic" k2="-1" k3="1"/>
<feColorMatrix type="matrix" values="0 0 0 0 0 0 0 0 0 0 0 0 0 0 0 0 0 0 0.25 0"/>
<feBlend mode="normal" in2="shape" result="effect1_innerShadow_1142_275670"/>
</filter>
<filter id="filter35_i_1142_275670" x="105.253" y="27.3585" width="144.427" height="296.696" filterUnits="userSpaceOnUse" color-interpolation-filters="sRGB">
<feFlood flood-opacity="0" result="BackgroundImageFix"/>
<feBlend mode="normal" in="SourceGraphic" in2="BackgroundImageFix" result="shape"/>
<feColorMatrix in="SourceAlpha" type="matrix" values="0 0 0 0 0 0 0 0 0 0 0 0 0 0 0 0 0 0 127 0" result="hardAlpha"/>
<feOffset dx="3.28264" dy="-1.96958"/>
<feGaussianBlur stdDeviation="1.31305"/>
<feComposite in2="hardAlpha" operator="arithmetic" k2="-1" k3="1"/>
<feColorMatrix type="matrix" values="0 0 0 0 0 0 0 0 0 0 0 0 0 0 0 0 0 0 0.25 0"/>
<feBlend mode="normal" in2="shape" result="effect1_innerShadow_1142_275670"/>
</filter>
<filter id="filter36_i_1142_275670" x="96.3066" y="32.2182" width="153.644" height="283.723" filterUnits="userSpaceOnUse" color-interpolation-filters="sRGB">
<feFlood flood-opacity="0" result="BackgroundImageFix"/>
<feBlend mode="normal" in="SourceGraphic" in2="BackgroundImageFix" result="shape"/>
<feColorMatrix in="SourceAlpha" type="matrix" values="0 0 0 0 0 0 0 0 0 0 0 0 0 0 0 0 0 0 127 0" result="hardAlpha"/>
<feOffset dx="0.656527" dy="-1.31305"/>
<feGaussianBlur stdDeviation="0.656527"/>
<feComposite in2="hardAlpha" operator="arithmetic" k2="-1" k3="1"/>
<feColorMatrix type="matrix" values="0 0 0 0 0 0 0 0 0 0 0 0 0 0 0 0 0 0 0.25 0"/>
<feBlend mode="normal" in2="shape" result="effect1_innerShadow_1142_275670"/>
</filter>
<filter id="filter37_i_1142_275670" x="151.275" y="119.111" width="25.6301" height="18.2327" filterUnits="userSpaceOnUse" color-interpolation-filters="sRGB">
<feFlood flood-opacity="0" result="BackgroundImageFix"/>
<feBlend mode="normal" in="SourceGraphic" in2="BackgroundImageFix" result="shape"/>
<feColorMatrix in="SourceAlpha" type="matrix" values="0 0 0 0 0 0 0 0 0 0 0 0 0 0 0 0 0 0 127 0" result="hardAlpha"/>
<feOffset dx="5.25222" dy="-5.25222"/>
<feGaussianBlur stdDeviation="3.93916"/>
<feComposite in2="hardAlpha" operator="arithmetic" k2="-1" k3="1"/>
<feColorMatrix type="matrix" values="0 0 0 0 0 0 0 0 0 0 0 0 0 0 0 0 0 0 0.25 0"/>
<feBlend mode="normal" in2="shape" result="effect1_innerShadow_1142_275670"/>
</filter>
<filter id="filter38_i_1142_275670" x="149.371" y="193.26" width="27.0774" height="17.2717" filterUnits="userSpaceOnUse" color-interpolation-filters="sRGB">
<feFlood flood-opacity="0" result="BackgroundImageFix"/>
<feBlend mode="normal" in="SourceGraphic" in2="BackgroundImageFix" result="shape"/>
<feColorMatrix in="SourceAlpha" type="matrix" values="0 0 0 0 0 0 0 0 0 0 0 0 0 0 0 0 0 0 127 0" result="hardAlpha"/>
<feOffset dx="5.25222" dy="-5.25222"/>
<feGaussianBlur stdDeviation="3.93916"/>
<feComposite in2="hardAlpha" operator="arithmetic" k2="-1" k3="1"/>
<feColorMatrix type="matrix" values="0 0 0 0 0 0 0 0 0 0 0 0 0 0 0 0 0 0 0.25 0"/>
<feBlend mode="normal" in2="shape" result="effect1_innerShadow_1142_275670"/>
</filter>
<filter id="filter39_i_1142_275670" x="89.1768" y="271.549" width="25.6301" height="18.2327" filterUnits="userSpaceOnUse" color-interpolation-filters="sRGB">
<feFlood flood-opacity="0" result="BackgroundImageFix"/>
<feBlend mode="normal" in="SourceGraphic" in2="BackgroundImageFix" result="shape"/>
<feColorMatrix in="SourceAlpha" type="matrix" values="0 0 0 0 0 0 0 0 0 0 0 0 0 0 0 0 0 0 127 0" result="hardAlpha"/>
<feOffset dx="5.25222" dy="-5.25222"/>
<feGaussianBlur stdDeviation="3.93916"/>
<feComposite in2="hardAlpha" operator="arithmetic" k2="-1" k3="1"/>
<feColorMatrix type="matrix" values="0 0 0 0 0 0 0 0 0 0 0 0 0 0 0 0 0 0 0.25 0"/>
<feBlend mode="normal" in2="shape" result="effect1_innerShadow_1142_275670"/>
</filter>
<filter id="filter40_i_1142_275670" x="94.7761" y="305.913" width="27.9661" height="12.1495" filterUnits="userSpaceOnUse" color-interpolation-filters="sRGB">
<feFlood flood-opacity="0" result="BackgroundImageFix"/>
<feBlend mode="normal" in="SourceGraphic" in2="BackgroundImageFix" result="shape"/>
<feColorMatrix in="SourceAlpha" type="matrix" values="0 0 0 0 0 0 0 0 0 0 0 0 0 0 0 0 0 0 127 0" result="hardAlpha"/>
<feOffset dx="-5.25222" dy="-2.62611"/>
<feGaussianBlur stdDeviation="3.93916"/>
<feComposite in2="hardAlpha" operator="arithmetic" k2="-1" k3="1"/>
<feColorMatrix type="matrix" values="0 0 0 0 0 0 0 0 0 0 0 0 0 0 0 0 0 0 0.25 0"/>
<feBlend mode="normal" in2="shape" result="effect1_innerShadow_1142_275670"/>
</filter>
<filter id="filter41_i_1142_275670" x="154.641" y="175.663" width="27.9661" height="12.1495" filterUnits="userSpaceOnUse" color-interpolation-filters="sRGB">
<feFlood flood-opacity="0" result="BackgroundImageFix"/>
<feBlend mode="normal" in="SourceGraphic" in2="BackgroundImageFix" result="shape"/>
<feColorMatrix in="SourceAlpha" type="matrix" values="0 0 0 0 0 0 0 0 0 0 0 0 0 0 0 0 0 0 127 0" result="hardAlpha"/>
<feOffset dx="-5.25222" dy="-2.62611"/>
<feGaussianBlur stdDeviation="3.93916"/>
<feComposite in2="hardAlpha" operator="arithmetic" k2="-1" k3="1"/>
<feColorMatrix type="matrix" values="0 0 0 0 0 0 0 0 0 0 0 0 0 0 0 0 0 0 0.25 0"/>
<feBlend mode="normal" in2="shape" result="effect1_innerShadow_1142_275670"/>
</filter>
<filter id="filter42_i_1142_275670" x="142.479" y="253.405" width="27.9661" height="12.1495" filterUnits="userSpaceOnUse" color-interpolation-filters="sRGB">
<feFlood flood-opacity="0" result="BackgroundImageFix"/>
<feBlend mode="normal" in="SourceGraphic" in2="BackgroundImageFix" result="shape"/>
<feColorMatrix in="SourceAlpha" type="matrix" values="0 0 0 0 0 0 0 0 0 0 0 0 0 0 0 0 0 0 127 0" result="hardAlpha"/>
<feOffset dx="-5.25222" dy="-2.62611"/>
<feGaussianBlur stdDeviation="3.93916"/>
<feComposite in2="hardAlpha" operator="arithmetic" k2="-1" k3="1"/>
<feColorMatrix type="matrix" values="0 0 0 0 0 0 0 0 0 0 0 0 0 0 0 0 0 0 0.25 0"/>
<feBlend mode="normal" in2="shape" result="effect1_innerShadow_1142_275670"/>
</filter>
</defs>
</svg>
