<svg width="1037" height="461" viewBox="0 0 1037 461" fill="none" xmlns="http://www.w3.org/2000/svg">
<rect x="120" y="164" width="828" height="229" rx="90" fill="black" fill-opacity="0.12"/>
<rect x="154" y="176" width="760" height="205" rx="90" fill="black" fill-opacity="0.12"/>
<path d="M0 288.5C0 193.231 206.777 116 397.079 116H725.244C915.546 116 1037 193.231 1037 288.5C1037 383.769 823.693 461 725.244 461H397.079C206.777 461 0 383.769 0 288.5Z" fill="url(#paint0_radial_1142_276301)" fill-opacity="0.4"/>
<path d="M76 258.106C76 203.924 119.924 160 174.106 160H893.894C948.076 160 992 203.924 992 258.106C992 346.965 919.965 419 831.106 419H236.894C148.035 419 76 346.965 76 258.106Z" fill="url(#paint1_radial_1142_276301)" fill-opacity="0.4"/>
<path d="M120 10L133 0L162.364 43.253C190.283 84.377 236.761 109 286.467 109H781.533C831.239 109 877.716 84.377 905.636 43.253L935 0L948 10V68C948 145.32 885.32 208 808 208H260C182.68 208 120 145.32 120 68V10Z" fill="#FACC15"/>
<g filter="url(#filter0_ii_1142_276301)">
<path d="M120 29L133 19L162.364 62.253C190.283 103.377 236.761 128 286.467 128H781.533C831.239 128 877.716 103.377 905.636 62.253L935 19L948 29V87C948 164.32 885.32 227 808 227H260C182.68 227 120 164.32 120 87V29Z" fill="#A16207"/>
</g>
<path d="M120 79L133 69L162.364 112.253C190.283 153.377 236.761 178 286.467 178H781.533C831.239 178 877.716 153.377 905.636 112.253L935 69L948 79V137C948 214.32 885.32 277 808 277H260C182.68 277 120 214.32 120 137V79Z" fill="#CA8A04"/>
<g filter="url(#filter1_i_1142_276301)">
<path d="M120 79L133 69L162.364 112.253C190.283 153.377 236.761 178 286.467 178C270.857 236.388 211.38 281.55 166.435 241.144C137.928 215.516 120 178.351 120 137V79Z" fill="#CA8A04"/>
</g>
<g filter="url(#filter2_i_1142_276301)">
<path d="M948 79L935 69L905.636 112.253C877.717 153.377 831.706 178 782 178C797.32 236.333 856.591 281.507 901.476 241.224C930.035 215.593 948 178.394 948 137V79Z" fill="#CA8A04"/>
</g>
<g filter="url(#filter3_i_1142_276301)">
<path d="M120 79L133 69L162.364 112.253C190.283 153.377 236.761 178 286.467 178H781.533C831.239 178 877.716 153.377 905.636 112.253L935 69L948 79V137C948 214.32 885.32 277 808 277H260C182.68 277 120 214.32 120 137V79Z" fill="black" fill-opacity="0.12"/>
</g>
<g filter="url(#filter4_i_1142_276301)">
<path d="M395 170C395 167.791 396.791 166 399 166H411C413.209 166 415 167.791 415 170V270H395V170Z" fill="#EAB308"/>
</g>
<g filter="url(#filter5_i_1142_276301)">
<path d="M524 173C524 170.791 525.791 169 528 169H540C542.209 169 544 170.791 544 173V273H524V173Z" fill="#EAB308"/>
</g>
<g filter="url(#filter6_i_1142_276301)">
<path d="M653 173C653 170.791 654.791 169 657 169H669C671.209 169 673 170.791 673 173V273H653V173Z" fill="#EAB308"/>
</g>
<path d="M142.169 13.5L133 0V210L142.169 213.5V13.5Z" fill="#FACC15"/>
<g filter="url(#filter7_i_1142_276301)">
<path d="M782 170C782 167.791 783.791 166 786 166H798C800.209 166 802 167.791 802 170V270H782V170Z" fill="#EAB308"/>
</g>
<g filter="url(#filter8_i_1142_276301)">
<path d="M266 170C266 167.791 267.791 166 270 166H282C284.209 166 286 167.791 286 170V270H266V170Z" fill="#EAB308"/>
</g>
<path d="M926 13.5L935.169 0V210L926 213.5V13.5Z" fill="#FACC15"/>
<g opacity="0.5">
<path opacity="0.2" d="M365.714 176C361.02 176 356 175.303 356 173.806C356 172.31 359.806 172 364.5 172C369.194 172 373 172.31 373 173.806C373 175.303 370.409 176 365.714 176Z" fill="white"/>
<path opacity="0.2" d="M885.714 123C881.02 123 876 122.303 876 120.806C876 119.31 879.806 119 884.5 119C889.194 119 893 119.31 893 120.806C893 122.303 890.409 123 885.714 123Z" fill="white"/>
<path opacity="0.2" d="M160.714 156C156.02 156 151 155.303 151 153.806C151 152.31 154.806 152 159.5 152C164.194 152 168 152.31 168 153.806C168 155.303 165.409 156 160.714 156Z" fill="white"/>
<path opacity="0.2" d="M554.714 171C550.02 171 545 170.303 545 168.806C545 167.31 548.806 167 553.5 167C558.194 167 562 167.31 562 168.806C562 170.303 559.409 171 554.714 171Z" fill="white"/>
<path opacity="0.2" d="M289.714 170C286.953 170 284 169.303 284 167.806C284 166.31 286.239 166 289 166C291.761 166 294 166.31 294 167.806C294 169.303 292.476 170 289.714 170Z" fill="#1C1917"/>
<path opacity="0.2" d="M683.714 225C680.953 225 678 224.303 678 222.806C678 221.31 680.239 221 683 221C685.761 221 688 221.31 688 222.806C688 224.303 686.476 225 683.714 225Z" fill="#1C1917"/>
<path opacity="0.2" d="M523.714 148C520.953 148 518 147.303 518 145.806C518 144.31 520.239 144 523 144C525.761 144 528 144.31 528 145.806C528 147.303 526.476 148 523.714 148Z" fill="#1C1917"/>
<path opacity="0.2" d="M393.714 164C390.953 164 388 163.129 388 161.258C388 159.387 390.239 159 393 159C395.761 159 398 159.387 398 161.258C398 163.129 396.476 164 393.714 164Z" fill="white"/>
<path opacity="0.2" d="M919.714 112C916.953 112 914 111.129 914 109.258C914 107.387 916.239 107 919 107C921.761 107 924 107.387 924 109.258C924 111.129 922.476 112 919.714 112Z" fill="white"/>
<path opacity="0.2" d="M787.714 219C784.953 219 782 218.129 782 216.258C782 214.387 784.239 214 787 214C789.761 214 792 214.387 792 216.258C792 218.129 790.476 219 787.714 219Z" fill="white"/>
<path opacity="0.2" d="M231.143 208C226.725 208 222 207.303 222 205.806C222 204.31 225.582 204 230 204C234.418 204 238 204.31 238 205.806C238 207.303 235.561 208 231.143 208Z" fill="white"/>
<path opacity="0.2" d="M625.143 231C620.725 231 616 230.303 616 228.806C616 227.31 619.582 227 624 227C628.418 227 632 227.31 632 228.806C632 230.303 629.561 231 625.143 231Z" fill="white"/>
<path opacity="0.2" d="M200.286 168C197.248 168 194 167.129 194 165.258C194 163.387 196.462 163 199.5 163C202.538 163 205 163.387 205 165.258C205 167.129 203.323 168 200.286 168Z" fill="#1C1917"/>
<path opacity="0.2" d="M594.286 223C591.248 223 588 222.129 588 220.258C588 218.387 590.462 218 593.5 218C596.538 218 599 218.387 599 220.258C599 222.129 597.323 223 594.286 223Z" fill="#1C1917"/>
<path opacity="0.2" d="M334.429 215C338.571 215 343 213.954 343 211.71C343 209.465 339.642 209 335.5 209C331.358 209 328 209.465 328 211.71C328 213.954 330.286 215 334.429 215Z" fill="#1C1917"/>
<path opacity="0.2" d="M665.429 163C669.571 163 674 161.954 674 159.71C674 157.465 670.642 157 666.5 157C662.358 157 659 157.465 659 159.71C659 161.954 661.286 163 665.429 163Z" fill="#1C1917"/>
<path opacity="0.2" d="M912.429 146C916.571 146 921 144.954 921 142.71C921 140.465 917.642 140 913.5 140C909.358 140 906 140.465 906 142.71C906 144.954 908.286 146 912.429 146Z" fill="#1C1917"/>
<path opacity="0.2" d="M174.429 138C178.571 138 183 136.954 183 134.71C183 132.465 179.642 132 175.5 132C171.358 132 168 132.465 168 134.71C168 136.954 170.286 138 174.429 138Z" fill="#1C1917"/>
<path opacity="0.2" d="M384.286 221C387.047 221 390 220.303 390 218.806C390 217.31 387.761 217 385 217C382.239 217 380 217.31 380 218.806C380 220.303 381.524 221 384.286 221Z" fill="#1C1917"/>
<path opacity="0.2" d="M715.286 169C718.047 169 721 168.303 721 166.806C721 165.31 718.761 165 716 165C713.239 165 711 165.31 711 166.806C711 168.303 712.524 169 715.286 169Z" fill="#1C1917"/>
<path opacity="0.2" d="M224.286 144C227.047 144 230 143.303 230 141.806C230 140.31 227.761 140 225 140C222.239 140 220 140.31 220 141.806C220 143.303 221.524 144 224.286 144Z" fill="#1C1917"/>
<path opacity="0.2" d="M618.286 199C621.047 199 624 198.303 624 196.806C624 195.31 621.761 195 619 195C616.239 195 614 195.31 614 196.806C614 198.303 615.524 199 618.286 199Z" fill="#1C1917"/>
<path opacity="0.2" d="M873.286 178C876.047 178 879 177.303 879 175.806C879 174.31 876.761 174 874 174C871.239 174 869 174.31 869 175.806C869 177.303 870.524 178 873.286 178Z" fill="#1C1917"/>
<path opacity="0.2" d="M750.286 201C753.047 201 756 200.303 756 198.806C756 197.31 753.761 197 751 197C748.239 197 746 197.31 746 198.806C746 200.303 747.524 201 750.286 201Z" fill="#1C1917"/>
<path opacity="0.2" d="M299.857 239C302.342 239 305 237.954 305 235.71C305 233.465 302.985 233 300.5 233C298.015 233 296 233.465 296 235.71C296 237.954 297.372 239 299.857 239Z" fill="white"/>
<path opacity="0.2" d="M619.857 163C622.342 163 625 161.954 625 159.71C625 157.465 622.985 157 620.5 157C618.015 157 616 157.465 616 159.71C616 161.954 617.372 163 619.857 163Z" fill="white"/>
<path opacity="0.2" d="M437.429 228C441.571 228 446 227.129 446 225.258C446 223.387 442.642 223 438.5 223C434.358 223 431 223.387 431 225.258C431 227.129 433.286 228 437.429 228Z" fill="white"/>
<path opacity="0.2" d="M716.429 254C720.571 254 725 253.129 725 251.258C725 249.387 721.642 249 717.5 249C713.358 249 710 249.387 710 251.258C710 253.129 712.286 254 716.429 254Z" fill="white"/>
<path opacity="0.2" d="M768.429 176C772.571 176 777 175.129 777 173.258C777 171.387 773.642 171 769.5 171C765.358 171 762 171.387 762 173.258C762 175.129 764.286 176 768.429 176Z" fill="white"/>
<path opacity="0.2" d="M466.286 219C469.047 219 472 218.129 472 216.258C472 214.387 469.761 214 467 214C464.239 214 462 214.387 462 216.258C462 218.129 463.524 219 466.286 219Z" fill="#1C1917"/>
<path opacity="0.2" d="M745.286 245C748.047 245 751 244.129 751 242.258C751 240.387 748.761 240 746 240C743.239 240 741 240.387 741 242.258C741 244.129 742.524 245 745.286 245Z" fill="#1C1917"/>
<path opacity="0.2" d="M797.286 167C800.047 167 803 166.129 803 164.258C803 162.387 800.761 162 798 162C795.239 162 793 162.387 793 164.258C793 166.129 794.524 167 797.286 167Z" fill="#1C1917"/>
<path opacity="0.2" d="M492.286 225C495.047 225 498 224.129 498 222.258C498 220.387 495.761 220 493 220C490.239 220 488 220.387 488 222.258C488 224.129 489.524 225 492.286 225Z" fill="white"/>
<path opacity="0.2" d="M771.286 251C774.047 251 777 250.129 777 248.258C777 246.387 774.761 246 772 246C769.239 246 767 246.387 767 248.258C767 250.129 768.524 251 771.286 251Z" fill="white"/>
<path opacity="0.2" d="M819.286 155C822.047 155 825 154.129 825 152.258C825 150.387 822.761 150 820 150C817.239 150 815 150.387 815 152.258C815 154.129 816.524 155 819.286 155Z" fill="white"/>
</g>
<path d="M120 160L133 150L162.364 193.253C190.283 234.377 236.761 259 286.467 259H781.533C831.239 259 877.716 234.377 905.636 193.253L935 150L948 160V218C948 295.32 885.32 358 808 358H260C182.68 358 120 295.32 120 218V160Z" fill="#FACC15"/>
<g filter="url(#filter9_i_1142_276301)">
<path d="M120 179L133 169L162.364 212.253C190.283 253.377 236.761 278 286.467 278H781.533C831.239 278 877.716 253.377 905.636 212.253L935 169L948 179V237C948 314.32 885.32 377 808 377H260C182.68 377 120 314.32 120 237V179Z" fill="#CA8A04"/>
</g>
<g opacity="0.5">
<path opacity="0.2" d="M365.714 318C361.02 318 356 317.303 356 315.806C356 314.31 359.806 314 364.5 314C369.194 314 373 314.31 373 315.806C373 317.303 370.409 318 365.714 318Z" fill="white"/>
<path opacity="0.2" d="M893.714 266C889.02 266 884 265.303 884 263.806C884 262.31 887.806 262 892.5 262C897.194 262 901 262.31 901 263.806C901 265.303 898.409 266 893.714 266Z" fill="white"/>
<path opacity="0.2" d="M160.714 258C156.02 258 151 257.303 151 255.806C151 254.31 154.806 254 159.5 254C164.194 254 168 254.31 168 255.806C168 257.303 165.409 258 160.714 258Z" fill="white"/>
<path opacity="0.2" d="M554.714 313C550.02 313 545 312.303 545 310.806C545 309.31 548.806 309 553.5 309C558.194 309 562 309.31 562 310.806C562 312.303 559.409 313 554.714 313Z" fill="white"/>
<path opacity="0.2" d="M289.714 312C286.953 312 284 311.303 284 309.806C284 308.31 286.239 308 289 308C291.761 308 294 308.31 294 309.806C294 311.303 292.476 312 289.714 312Z" fill="#1C1917"/>
<path opacity="0.2" d="M683.714 367C680.953 367 678 366.303 678 364.806C678 363.31 680.239 363 683 363C685.761 363 688 363.31 688 364.806C688 366.303 686.476 367 683.714 367Z" fill="#1C1917"/>
<path opacity="0.2" d="M129.714 235C126.953 235 124 234.303 124 232.806C124 231.31 126.239 231 129 231C131.761 231 134 231.31 134 232.806C134 234.303 132.476 235 129.714 235Z" fill="#1C1917"/>
<path opacity="0.2" d="M523.714 290C520.953 290 518 289.303 518 287.806C518 286.31 520.239 286 523 286C525.761 286 528 286.31 528 287.806C528 289.303 526.476 290 523.714 290Z" fill="#1C1917"/>
<path opacity="0.2" d="M393.714 306C390.953 306 388 305.129 388 303.258C388 301.387 390.239 301 393 301C395.761 301 398 301.387 398 303.258C398 305.129 396.476 306 393.714 306Z" fill="white"/>
<path opacity="0.2" d="M921.714 254C918.953 254 916 253.129 916 251.258C916 249.387 918.239 249 921 249C923.761 249 926 249.387 926 251.258C926 253.129 924.476 254 921.714 254Z" fill="white"/>
<path opacity="0.2" d="M787.714 361C784.953 361 782 360.129 782 358.258C782 356.387 784.239 356 787 356C789.761 356 792 356.387 792 358.258C792 360.129 790.476 361 787.714 361Z" fill="white"/>
<path opacity="0.2" d="M231.143 318C226.725 318 222 317.303 222 315.806C222 314.31 225.582 314 230 314C234.418 314 238 314.31 238 315.806C238 317.303 235.561 318 231.143 318Z" fill="white"/>
<path opacity="0.2" d="M625.143 373C620.725 373 616 372.303 616 370.806C616 369.31 619.582 369 624 369C628.418 369 632 369.31 632 370.806C632 372.303 629.561 373 625.143 373Z" fill="white"/>
<path opacity="0.2" d="M200.286 310C197.248 310 194 309.129 194 307.258C194 305.387 196.462 305 199.5 305C202.538 305 205 305.387 205 307.258C205 309.129 203.323 310 200.286 310Z" fill="#1C1917"/>
<path opacity="0.2" d="M594.286 365C591.248 365 588 364.129 588 362.258C588 360.387 590.462 360 593.5 360C596.538 360 599 360.387 599 362.258C599 364.129 597.323 365 594.286 365Z" fill="#1C1917"/>
<path opacity="0.2" d="M334.429 357C338.571 357 343 355.954 343 353.71C343 351.465 339.642 351 335.5 351C331.358 351 328 351.465 328 353.71C328 355.954 330.286 357 334.429 357Z" fill="#1C1917"/>
<path opacity="0.2" d="M665.429 305C669.571 305 674 303.954 674 301.71C674 299.465 670.642 299 666.5 299C662.358 299 659 299.465 659 301.71C659 303.954 661.286 305 665.429 305Z" fill="#1C1917"/>
<path opacity="0.2" d="M920.429 284C924.571 284 929 282.954 929 280.71C929 278.465 925.642 278 921.5 278C917.358 278 914 278.465 914 280.71C914 282.954 916.286 284 920.429 284Z" fill="#1C1917"/>
<path opacity="0.2" d="M174.429 280C178.571 280 183 278.954 183 276.71C183 274.465 179.642 274 175.5 274C171.358 274 168 274.465 168 276.71C168 278.954 170.286 280 174.429 280Z" fill="#1C1917"/>
<path opacity="0.2" d="M384.286 363C387.047 363 390 362.303 390 360.806C390 359.31 387.761 359 385 359C382.239 359 380 359.31 380 360.806C380 362.303 381.524 363 384.286 363Z" fill="#1C1917"/>
<path opacity="0.2" d="M715.286 311C718.047 311 721 310.303 721 308.806C721 307.31 718.761 307 716 307C713.239 307 711 307.31 711 308.806C711 310.303 712.524 311 715.286 311Z" fill="#1C1917"/>
<path opacity="0.2" d="M224.286 286C227.047 286 230 285.303 230 283.806C230 282.31 227.761 282 225 282C222.239 282 220 282.31 220 283.806C220 285.303 221.524 286 224.286 286Z" fill="#1C1917"/>
<path opacity="0.2" d="M618.286 341C621.047 341 624 340.303 624 338.806C624 337.31 621.761 337 619 337C616.239 337 614 337.31 614 338.806C614 340.303 615.524 341 618.286 341Z" fill="#1C1917"/>
<path opacity="0.2" d="M873.286 320C876.047 320 879 319.303 879 317.806C879 316.31 876.761 316 874 316C871.239 316 869 316.31 869 317.806C869 319.303 870.524 320 873.286 320Z" fill="#1C1917"/>
<path opacity="0.2" d="M288.857 357C291.342 357 294 355.954 294 353.71C294 351.465 291.985 351 289.5 351C287.015 351 285 351.465 285 353.71C285 355.954 286.372 357 288.857 357Z" fill="white"/>
<path opacity="0.2" d="M619.857 305C622.342 305 625 303.954 625 301.71C625 299.465 622.985 299 620.5 299C618.015 299 616 299.465 616 301.71C616 303.954 617.372 305 619.857 305Z" fill="white"/>
<path opacity="0.2" d="M437.429 370C441.571 370 446 369.129 446 367.258C446 365.387 442.642 365 438.5 365C434.358 365 431 365.387 431 367.258C431 369.129 433.286 370 437.429 370Z" fill="white"/>
<path opacity="0.2" d="M768.429 318C772.571 318 777 317.129 777 315.258C777 313.387 773.642 313 769.5 313C765.358 313 762 313.387 762 315.258C762 317.129 764.286 318 768.429 318Z" fill="white"/>
<path opacity="0.2" d="M466.286 361C469.047 361 472 360.129 472 358.258C472 356.387 469.761 356 467 356C464.239 356 462 356.387 462 358.258C462 360.129 463.524 361 466.286 361Z" fill="#1C1917"/>
<path opacity="0.2" d="M797.286 309C800.047 309 803 308.129 803 306.258C803 304.387 800.761 304 798 304C795.239 304 793 304.387 793 306.258C793 308.129 794.524 309 797.286 309Z" fill="#1C1917"/>
<path opacity="0.2" d="M492.286 367C495.047 367 498 366.129 498 364.258C498 362.387 495.761 362 493 362C490.239 362 488 362.387 488 364.258C488 366.129 489.524 367 492.286 367Z" fill="white"/>
<path opacity="0.2" d="M823.286 315C826.047 315 829 314.129 829 312.258C829 310.387 826.761 310 824 310C821.239 310 819 310.387 819 312.258C819 314.129 820.524 315 823.286 315Z" fill="white"/>
</g>
<g filter="url(#filter10_i_1142_276301)">
<path d="M120 10L133 0V169L120 179V10Z" fill="#EAB308"/>
</g>
<g filter="url(#filter11_i_1142_276301)">
<path d="M935 0L948 10V179L935 169L935 0Z" fill="#EAB308"/>
</g>
<defs>
<filter id="filter0_ii_1142_276301" x="120" y="19" width="828" height="216" filterUnits="userSpaceOnUse" color-interpolation-filters="sRGB">
<feFlood flood-opacity="0" result="BackgroundImageFix"/>
<feBlend mode="normal" in="SourceGraphic" in2="BackgroundImageFix" result="shape"/>
<feColorMatrix in="SourceAlpha" type="matrix" values="0 0 0 0 0 0 0 0 0 0 0 0 0 0 0 0 0 0 127 0" result="hardAlpha"/>
<feOffset dy="20"/>
<feGaussianBlur stdDeviation="4"/>
<feComposite in2="hardAlpha" operator="arithmetic" k2="-1" k3="1"/>
<feColorMatrix type="matrix" values="0 0 0 0 0 0 0 0 0 0 0 0 0 0 0 0 0 0 0.15 0"/>
<feBlend mode="normal" in2="shape" result="effect1_innerShadow_1142_276301"/>
<feColorMatrix in="SourceAlpha" type="matrix" values="0 0 0 0 0 0 0 0 0 0 0 0 0 0 0 0 0 0 127 0" result="hardAlpha"/>
<feOffset dy="12"/>
<feComposite in2="hardAlpha" operator="arithmetic" k2="-1" k3="1"/>
<feColorMatrix type="matrix" values="0 0 0 0 0.792157 0 0 0 0 0.541176 0 0 0 0 0.0156863 0 0 0 1 0"/>
<feBlend mode="normal" in2="effect1_innerShadow_1142_276301" result="effect2_innerShadow_1142_276301"/>
</filter>
<filter id="filter1_i_1142_276301" x="120" y="69" width="210.467" height="207.586" filterUnits="userSpaceOnUse" color-interpolation-filters="sRGB">
<feFlood flood-opacity="0" result="BackgroundImageFix"/>
<feBlend mode="normal" in="SourceGraphic" in2="BackgroundImageFix" result="shape"/>
<feColorMatrix in="SourceAlpha" type="matrix" values="0 0 0 0 0 0 0 0 0 0 0 0 0 0 0 0 0 0 127 0" result="hardAlpha"/>
<feOffset dx="60" dy="20"/>
<feGaussianBlur stdDeviation="22"/>
<feComposite in2="hardAlpha" operator="arithmetic" k2="-1" k3="1"/>
<feColorMatrix type="matrix" values="0 0 0 0 0 0 0 0 0 0 0 0 0 0 0 0 0 0 0.15 0"/>
<feBlend mode="normal" in2="shape" result="effect1_innerShadow_1142_276301"/>
</filter>
<filter id="filter2_i_1142_276301" x="738" y="69" width="210" height="207.59" filterUnits="userSpaceOnUse" color-interpolation-filters="sRGB">
<feFlood flood-opacity="0" result="BackgroundImageFix"/>
<feBlend mode="normal" in="SourceGraphic" in2="BackgroundImageFix" result="shape"/>
<feColorMatrix in="SourceAlpha" type="matrix" values="0 0 0 0 0 0 0 0 0 0 0 0 0 0 0 0 0 0 127 0" result="hardAlpha"/>
<feOffset dx="-60" dy="20"/>
<feGaussianBlur stdDeviation="22"/>
<feComposite in2="hardAlpha" operator="arithmetic" k2="-1" k3="1"/>
<feColorMatrix type="matrix" values="0 0 0 0 0 0 0 0 0 0 0 0 0 0 0 0 0 0 0.15 0"/>
<feBlend mode="normal" in2="shape" result="effect1_innerShadow_1142_276301"/>
</filter>
<filter id="filter3_i_1142_276301" x="120" y="69" width="828" height="232" filterUnits="userSpaceOnUse" color-interpolation-filters="sRGB">
<feFlood flood-opacity="0" result="BackgroundImageFix"/>
<feBlend mode="normal" in="SourceGraphic" in2="BackgroundImageFix" result="shape"/>
<feColorMatrix in="SourceAlpha" type="matrix" values="0 0 0 0 0 0 0 0 0 0 0 0 0 0 0 0 0 0 127 0" result="hardAlpha"/>
<feOffset dy="24"/>
<feGaussianBlur stdDeviation="15"/>
<feComposite in2="hardAlpha" operator="arithmetic" k2="-1" k3="1"/>
<feColorMatrix type="matrix" values="0 0 0 0 0 0 0 0 0 0 0 0 0 0 0 0 0 0 0.25 0"/>
<feBlend mode="normal" in2="shape" result="effect1_innerShadow_1142_276301"/>
</filter>
<filter id="filter4_i_1142_276301" x="395" y="166" width="20" height="104" filterUnits="userSpaceOnUse" color-interpolation-filters="sRGB">
<feFlood flood-opacity="0" result="BackgroundImageFix"/>
<feBlend mode="normal" in="SourceGraphic" in2="BackgroundImageFix" result="shape"/>
<feColorMatrix in="SourceAlpha" type="matrix" values="0 0 0 0 0 0 0 0 0 0 0 0 0 0 0 0 0 0 127 0" result="hardAlpha"/>
<feOffset dy="114"/>
<feGaussianBlur stdDeviation="2"/>
<feComposite in2="hardAlpha" operator="arithmetic" k2="-1" k3="1"/>
<feColorMatrix type="matrix" values="0 0 0 0 0 0 0 0 0 0 0 0 0 0 0 0 0 0 0.05 0"/>
<feBlend mode="normal" in2="shape" result="effect1_innerShadow_1142_276301"/>
</filter>
<filter id="filter5_i_1142_276301" x="524" y="169" width="20" height="104" filterUnits="userSpaceOnUse" color-interpolation-filters="sRGB">
<feFlood flood-opacity="0" result="BackgroundImageFix"/>
<feBlend mode="normal" in="SourceGraphic" in2="BackgroundImageFix" result="shape"/>
<feColorMatrix in="SourceAlpha" type="matrix" values="0 0 0 0 0 0 0 0 0 0 0 0 0 0 0 0 0 0 127 0" result="hardAlpha"/>
<feOffset dy="114"/>
<feGaussianBlur stdDeviation="2"/>
<feComposite in2="hardAlpha" operator="arithmetic" k2="-1" k3="1"/>
<feColorMatrix type="matrix" values="0 0 0 0 0 0 0 0 0 0 0 0 0 0 0 0 0 0 0.05 0"/>
<feBlend mode="normal" in2="shape" result="effect1_innerShadow_1142_276301"/>
</filter>
<filter id="filter6_i_1142_276301" x="653" y="169" width="20" height="104" filterUnits="userSpaceOnUse" color-interpolation-filters="sRGB">
<feFlood flood-opacity="0" result="BackgroundImageFix"/>
<feBlend mode="normal" in="SourceGraphic" in2="BackgroundImageFix" result="shape"/>
<feColorMatrix in="SourceAlpha" type="matrix" values="0 0 0 0 0 0 0 0 0 0 0 0 0 0 0 0 0 0 127 0" result="hardAlpha"/>
<feOffset dy="114"/>
<feGaussianBlur stdDeviation="2"/>
<feComposite in2="hardAlpha" operator="arithmetic" k2="-1" k3="1"/>
<feColorMatrix type="matrix" values="0 0 0 0 0 0 0 0 0 0 0 0 0 0 0 0 0 0 0.05 0"/>
<feBlend mode="normal" in2="shape" result="effect1_innerShadow_1142_276301"/>
</filter>
<filter id="filter7_i_1142_276301" x="782" y="166" width="20" height="104" filterUnits="userSpaceOnUse" color-interpolation-filters="sRGB">
<feFlood flood-opacity="0" result="BackgroundImageFix"/>
<feBlend mode="normal" in="SourceGraphic" in2="BackgroundImageFix" result="shape"/>
<feColorMatrix in="SourceAlpha" type="matrix" values="0 0 0 0 0 0 0 0 0 0 0 0 0 0 0 0 0 0 127 0" result="hardAlpha"/>
<feOffset dy="114"/>
<feGaussianBlur stdDeviation="2"/>
<feComposite in2="hardAlpha" operator="arithmetic" k2="-1" k3="1"/>
<feColorMatrix type="matrix" values="0 0 0 0 0 0 0 0 0 0 0 0 0 0 0 0 0 0 0.05 0"/>
<feBlend mode="normal" in2="shape" result="effect1_innerShadow_1142_276301"/>
</filter>
<filter id="filter8_i_1142_276301" x="266" y="166" width="20" height="104" filterUnits="userSpaceOnUse" color-interpolation-filters="sRGB">
<feFlood flood-opacity="0" result="BackgroundImageFix"/>
<feBlend mode="normal" in="SourceGraphic" in2="BackgroundImageFix" result="shape"/>
<feColorMatrix in="SourceAlpha" type="matrix" values="0 0 0 0 0 0 0 0 0 0 0 0 0 0 0 0 0 0 127 0" result="hardAlpha"/>
<feOffset dy="114"/>
<feGaussianBlur stdDeviation="2"/>
<feComposite in2="hardAlpha" operator="arithmetic" k2="-1" k3="1"/>
<feColorMatrix type="matrix" values="0 0 0 0 0 0 0 0 0 0 0 0 0 0 0 0 0 0 0.05 0"/>
<feBlend mode="normal" in2="shape" result="effect1_innerShadow_1142_276301"/>
</filter>
<filter id="filter9_i_1142_276301" x="120" y="153" width="828" height="224" filterUnits="userSpaceOnUse" color-interpolation-filters="sRGB">
<feFlood flood-opacity="0" result="BackgroundImageFix"/>
<feBlend mode="normal" in="SourceGraphic" in2="BackgroundImageFix" result="shape"/>
<feColorMatrix in="SourceAlpha" type="matrix" values="0 0 0 0 0 0 0 0 0 0 0 0 0 0 0 0 0 0 127 0" result="hardAlpha"/>
<feOffset dy="-16"/>
<feGaussianBlur stdDeviation="17"/>
<feComposite in2="hardAlpha" operator="arithmetic" k2="-1" k3="1"/>
<feColorMatrix type="matrix" values="0 0 0 0 0 0 0 0 0 0 0 0 0 0 0 0 0 0 0.15 0"/>
<feBlend mode="normal" in2="shape" result="effect1_innerShadow_1142_276301"/>
</filter>
<filter id="filter10_i_1142_276301" x="120" y="-6" width="19" height="185" filterUnits="userSpaceOnUse" color-interpolation-filters="sRGB">
<feFlood flood-opacity="0" result="BackgroundImageFix"/>
<feBlend mode="normal" in="SourceGraphic" in2="BackgroundImageFix" result="shape"/>
<feColorMatrix in="SourceAlpha" type="matrix" values="0 0 0 0 0 0 0 0 0 0 0 0 0 0 0 0 0 0 127 0" result="hardAlpha"/>
<feOffset dx="6" dy="-6"/>
<feGaussianBlur stdDeviation="6"/>
<feComposite in2="hardAlpha" operator="arithmetic" k2="-1" k3="1"/>
<feColorMatrix type="matrix" values="0 0 0 0 0 0 0 0 0 0 0 0 0 0 0 0 0 0 0.25 0"/>
<feBlend mode="normal" in2="shape" result="effect1_innerShadow_1142_276301"/>
</filter>
<filter id="filter11_i_1142_276301" x="930" y="-1" width="18" height="180" filterUnits="userSpaceOnUse" color-interpolation-filters="sRGB">
<feFlood flood-opacity="0" result="BackgroundImageFix"/>
<feBlend mode="normal" in="SourceGraphic" in2="BackgroundImageFix" result="shape"/>
<feColorMatrix in="SourceAlpha" type="matrix" values="0 0 0 0 0 0 0 0 0 0 0 0 0 0 0 0 0 0 127 0" result="hardAlpha"/>
<feOffset dx="-5" dy="-1"/>
<feGaussianBlur stdDeviation="6"/>
<feComposite in2="hardAlpha" operator="arithmetic" k2="-1" k3="1"/>
<feColorMatrix type="matrix" values="0 0 0 0 1 0 0 0 0 1 0 0 0 0 1 0 0 0 0.25 0"/>
<feBlend mode="normal" in2="shape" result="effect1_innerShadow_1142_276301"/>
</filter>
<radialGradient id="paint0_radial_1142_276301" cx="0" cy="0" r="1" gradientUnits="userSpaceOnUse" gradientTransform="translate(561.161 288.5) rotate(90) scale(172.5 508.655)">
<stop offset="0.779747" stop-color="white" stop-opacity="0"/>
<stop offset="1" stop-color="white"/>
</radialGradient>
<radialGradient id="paint1_radial_1142_276301" cx="0" cy="0" r="1" gradientUnits="userSpaceOnUse" gradientTransform="translate(534 289.5) rotate(90) scale(129.5 458)">
<stop offset="0.779747" stop-color="white" stop-opacity="0"/>
<stop offset="1" stop-color="white"/>
</radialGradient>
</defs>
</svg>
