<svg width="128" height="48" viewBox="0 0 128 48" fill="none" xmlns="http://www.w3.org/2000/svg">
<g filter="url(#filter0_ii_1142_274128)">
<path d="M16.7589 6.37441C11.7665 5.1791 5.53176 4.20186 2.8362 3.80294C2.2701 3.71916 1.85604 4.31081 2.11974 4.81871L3.13743 6.77883C3.39564 7.27617 3.64931 7.77049 3.90776 8.2677C4.61269 9.62384 6.19879 12.6249 7.88766 15.4836C9.78619 18.6972 18.0827 20.7708 14.4213 21.4957C11.9348 21.9879 10.4268 24.5731 8.45385 27.0735C6.94922 28.9803 3.79397 31.7639 1.79252 33.4604C1.25171 33.9188 1.61694 34.8221 2.3237 34.7665L14.1546 33.836C18.636 33.4835 23.3396 33.3259 27.2317 31.0768C27.5162 30.9124 27.7929 30.7385 28.0645 30.5535C30.5941 28.8303 32.0493 25.9868 33.1922 23.1474L33.2407 23.0268C33.2484 23.0077 33.2617 22.9915 33.2789 22.9802C34.6907 22.057 34.6704 19.9816 33.2409 19.0861L32.3231 18.5112C32.1971 18.4323 32.2014 18.2363 32.2781 18.1089C33.1137 16.7196 29.424 11.4145 24.8752 8.87147C22.4032 7.48943 19.5132 7.03386 16.7589 6.37441Z" fill="#C084FC"/>
</g>
<g opacity="0.64" filter="url(#filter1_f_1142_274128)">
<path d="M24.8641 27.0742C20.8858 29.0432 17.4048 30.1261 13.4265 30.5199C8.45365 31.0121 5.96723 30.5199 4.97266 31.0121" stroke="white" stroke-opacity="0.6" stroke-linecap="round"/>
</g>
<g opacity="0.64" filter="url(#filter2_f_1142_274128)">
<path d="M21.8804 23.1367C16.9076 26.0902 14.4212 25.6964 10.4429 26.0902" stroke="white" stroke-opacity="0.6" stroke-linecap="round"/>
</g>
<g opacity="0.64" filter="url(#filter3_f_1142_274128)">
<path d="M4.97249 9.35616C9.41787 9.50298 13.9924 10.2123 17.679 11.7437C22.2874 13.658 24.2359 15.2642 25.3472 15.3009" stroke="white" stroke-opacity="0.6" stroke-linecap="round"/>
</g>
<g opacity="0.64" filter="url(#filter4_f_1142_274128)">
<path d="M7.95694 14.4106C13.7508 14.1614 15.7467 15.681 19.4334 17.2125" stroke="white" stroke-opacity="0.6" stroke-linecap="round"/>
</g>
<g filter="url(#filter5_i_1142_274128)">
<path d="M45.8578 36.9176C50.7352 36.4851 52.8357 31.204 50.9389 28.0971C50.7544 27.7948 50.4288 27.6138 50.078 27.5511C42.7702 26.2434 35.4311 23.918 38.4017 27.0604C40.8434 29.6433 37.0993 31.8832 40.0836 32.8559C40.4313 32.9692 40.733 33.0567 41.0187 33.1408C42.9083 33.6971 43.4991 35.627 45.106 36.7595C45.2827 36.8841 45.5224 36.9473 45.8578 36.9176Z" fill="#A855F7"/>
</g>
<g filter="url(#filter6_iii_1142_274128)">
<path d="M94.4135 8.70052C78.8195 5.57127 47.987 16.0179 31.9674 16.7261C32.6794 17.7888 33.0913 18.5583 27.7328 19.56C27.2537 20.3974 26.7422 21.2529 26.9837 22.0397C27.4618 23.598 29.507 24.8862 30.8998 25.2278C33.7351 25.9231 49.7674 39.3972 94.4135 36.1682C101.13 35.6825 109.331 33.5638 115.324 31.3005C119.65 29.6665 122.371 27.5894 124.411 25.7416C126.013 24.2891 125.938 21.7008 124.183 20.4363C121.985 18.8531 118.903 16.8918 115.324 15.3064C109.165 12.5782 101.74 10.1707 94.4135 8.70052Z" fill="#FACC15"/>
</g>
<g filter="url(#filter7_di_1142_274128)">
<path d="M115.91 31.24C120.212 29.6613 122.933 27.488 124.973 25.5742C126.581 24.0657 126.485 21.4 124.675 20.1409C122.479 18.6131 119.435 16.7433 115.91 15.2264C113.131 14.0304 110.094 12.8977 106.926 11.8828C106.45 12.1926 108.712 12.4723 104.426 15.9196C100.927 18.7339 101.212 33.9654 106.926 33.9654C110.141 33.169 113.243 32.2183 115.91 31.24Z" fill="#C084FC"/>
</g>
<g filter="url(#filter8_dd_1142_274128)">
<ellipse cx="1.72805" cy="1.71053" rx="1.72805" ry="1.71053" transform="matrix(0.999825 -0.0187009 0.0190861 0.999818 117.541 20.4258)" fill="#334155"/>
</g>
<ellipse cx="0.494136" cy="0.489127" rx="0.494136" ry="0.489127" transform="matrix(0.999825 -0.0187009 0.0190861 0.999818 119.402 20.8789)" fill="#E2E8F0"/>
<g opacity="0.84" filter="url(#filter9_f_1142_274128)">
<path d="M31.826 18.2336C46.6184 18.2436 44.1533 17.735 54.0139 16.2603C69.9854 13.8716 95.4251 5.43368 120.582 19.2641" stroke="white" stroke-linecap="round"/>
</g>
<g filter="url(#filter10_ii_1142_274128)">
<path d="M55.3384 8.31395C59.5739 8.73813 64.7206 11.3147 65.6277 13.5846C65.7373 13.8588 65.5423 14.1349 65.2551 14.2028C59.8817 15.4738 54.8739 15.9683 52.7535 16.1338C52.0532 16.1884 51.356 16.0404 50.7601 15.6672C49.5982 14.9398 48.1794 13.9174 47.9391 13.7433C47.9148 13.7257 47.8884 13.7085 47.8627 13.693C40.4324 9.2142 51.848 7.96439 55.3384 8.31395Z" fill="#C084FC"/>
</g>
<g filter="url(#filter11_ii_1142_274128)">
<path d="M88.7094 0.00589732C92.1672 -0.226381 95.8659 6.45564 98.325 10.7219C98.5953 11.1908 98.139 11.7759 97.6118 11.6538C89.5674 9.79168 78.0752 11.9988 75.0876 12.636C74.5975 12.7405 74.0964 12.8193 73.612 12.6906C70.8817 11.9651 66.7016 7.72731 71.3809 4.74793C73.6129 3.32675 76.2787 0.840923 88.7094 0.00589732Z" fill="#C084FC"/>
</g>
<g filter="url(#filter12_ii_1142_274128)">
<path d="M93.6577 38.9534C92.7452 42.7605 91.2719 44.6536 89.6918 45.6707C86.6565 47.6244 82.3093 46.528 79.6972 44.0323C76.4169 40.8983 75.8844 37.7119 79.0329 35.9016C86.5354 31.588 83.4058 31.5692 85.7343 30.3389C86.5344 29.9162 88.9332 29.799 90.9401 30.0384C91.6898 30.1278 92.4315 30.4143 92.727 31.1091C93.5744 33.1014 93.9524 37.724 93.6577 38.9534Z" fill="#C084FC"/>
</g>
<g opacity="0.6">
<path d="M71.3931 20.3047H70.4355C69.9172 20.3047 69.4971 20.7248 69.4971 21.2431C69.4971 21.7613 69.9172 22.1815 70.4355 22.1815H71.3931" stroke="#FDE047" stroke-width="0.635455" stroke-linecap="round"/>
<path d="M73.2891 21.5547H72.3315C71.8132 21.5547 71.3931 21.9748 71.3931 22.4931C71.3931 23.0113 71.8132 23.4315 72.3315 23.4315H73.2891" stroke="#FDE047" stroke-width="0.635455" stroke-linecap="round"/>
</g>
<g opacity="0.6">
<path d="M90.353 15.75H89.3954C88.8772 15.75 88.457 16.1701 88.457 16.6884C88.457 17.2066 88.8772 17.6268 89.3954 17.6268H90.353" stroke="#FEF08A" stroke-width="0.635455" stroke-linecap="round"/>
<path d="M92.2495 17H91.2919C90.7736 17 90.3535 17.4201 90.3535 17.9384C90.3535 18.4566 90.7736 18.8768 91.2919 18.8768H92.2495" stroke="#FEF08A" stroke-width="0.635455" stroke-linecap="round"/>
<path d="M88.4571 17H87.4994C86.9812 17 86.561 17.4201 86.561 17.9384C86.561 18.4566 86.9812 18.8768 87.4994 18.8768H88.4571" stroke="#FEF08A" stroke-width="0.635455" stroke-linecap="round"/>
</g>
<g opacity="0.6">
<path d="M50.5366 19.5039H49.579C49.0608 19.5039 48.6406 19.924 48.6406 20.4423C48.6406 20.9606 49.0608 21.3807 49.579 21.3807H50.5366" stroke="#CA8A04" stroke-width="0.635455" stroke-linecap="round"/>
<path d="M50.5366 21.3789H49.579C49.0608 21.3789 48.6406 21.799 48.6406 22.3173C48.6406 22.8356 49.0608 23.2557 49.579 23.2557H50.5366" stroke="#CA8A04" stroke-width="0.635455" stroke-linecap="round"/>
<path d="M48.6406 20.7539H47.683C47.1648 20.7539 46.7446 21.174 46.7446 21.6923C46.7446 22.2106 47.1648 22.6307 47.683 22.6307H48.6406" stroke="#CA8A04" stroke-width="0.635455" stroke-linecap="round"/>
</g>
<defs>
<filter id="filter0_ii_1142_274128" x="1.53271" y="-0.203125" width="32.793" height="34.9727" filterUnits="userSpaceOnUse" color-interpolation-filters="sRGB">
<feFlood flood-opacity="0" result="BackgroundImageFix"/>
<feBlend mode="normal" in="SourceGraphic" in2="BackgroundImageFix" result="shape"/>
<feColorMatrix in="SourceAlpha" type="matrix" values="0 0 0 0 0 0 0 0 0 0 0 0 0 0 0 0 0 0 127 0" result="hardAlpha"/>
<feOffset dx="-1" dy="1.21"/>
<feComposite in2="hardAlpha" operator="arithmetic" k2="-1" k3="1"/>
<feColorMatrix type="matrix" values="0 0 0 0 1 0 0 0 0 1 0 0 0 0 1 0 0 0 0.54 0"/>
<feBlend mode="normal" in2="shape" result="effect1_innerShadow_1142_274128"/>
<feColorMatrix in="SourceAlpha" type="matrix" values="0 0 0 0 0 0 0 0 0 0 0 0 0 0 0 0 0 0 127 0" result="hardAlpha"/>
<feOffset dy="-4"/>
<feGaussianBlur stdDeviation="3.5"/>
<feComposite in2="hardAlpha" operator="arithmetic" k2="-1" k3="1"/>
<feColorMatrix type="matrix" values="0 0 0 0 0 0 0 0 0 0 0 0 0 0 0 0 0 0 0.15 0"/>
<feBlend mode="normal" in2="effect1_innerShadow_1142_274128" result="effect2_innerShadow_1142_274128"/>
</filter>
<filter id="filter1_f_1142_274128" x="2.47266" y="24.5742" width="24.8916" height="8.9375" filterUnits="userSpaceOnUse" color-interpolation-filters="sRGB">
<feFlood flood-opacity="0" result="BackgroundImageFix"/>
<feBlend mode="normal" in="SourceGraphic" in2="BackgroundImageFix" result="shape"/>
<feGaussianBlur stdDeviation="1" result="effect1_foregroundBlur_1142_274128"/>
</filter>
<filter id="filter2_f_1142_274128" x="7.94287" y="20.6367" width="16.4375" height="7.95312" filterUnits="userSpaceOnUse" color-interpolation-filters="sRGB">
<feFlood flood-opacity="0" result="BackgroundImageFix"/>
<feBlend mode="normal" in="SourceGraphic" in2="BackgroundImageFix" result="shape"/>
<feGaussianBlur stdDeviation="1" result="effect1_foregroundBlur_1142_274128"/>
</filter>
<filter id="filter3_f_1142_274128" x="2.4707" y="6.85938" width="25.3784" height="10.9414" filterUnits="userSpaceOnUse" color-interpolation-filters="sRGB">
<feFlood flood-opacity="0" result="BackgroundImageFix"/>
<feBlend mode="normal" in="SourceGraphic" in2="BackgroundImageFix" result="shape"/>
<feGaussianBlur stdDeviation="1" result="effect1_foregroundBlur_1142_274128"/>
</filter>
<filter id="filter4_f_1142_274128" x="5.45508" y="11.8867" width="16.48" height="7.82422" filterUnits="userSpaceOnUse" color-interpolation-filters="sRGB">
<feFlood flood-opacity="0" result="BackgroundImageFix"/>
<feBlend mode="normal" in="SourceGraphic" in2="BackgroundImageFix" result="shape"/>
<feGaussianBlur stdDeviation="1" result="effect1_foregroundBlur_1142_274128"/>
</filter>
<filter id="filter5_i_1142_274128" x="37.7251" y="25.4883" width="13.9062" height="11.4375" filterUnits="userSpaceOnUse" color-interpolation-filters="sRGB">
<feFlood flood-opacity="0" result="BackgroundImageFix"/>
<feBlend mode="normal" in="SourceGraphic" in2="BackgroundImageFix" result="shape"/>
<feColorMatrix in="SourceAlpha" type="matrix" values="0 0 0 0 0 0 0 0 0 0 0 0 0 0 0 0 0 0 127 0" result="hardAlpha"/>
<feOffset dx="4.33" dy="7.51"/>
<feComposite in2="hardAlpha" operator="arithmetic" k2="-1" k3="1"/>
<feColorMatrix type="matrix" values="0 0 0 0 0.3375 0 0 0 0 0.3375 0 0 0 0 0.3375 0 0 0 0.18 0"/>
<feBlend mode="normal" in2="shape" result="effect1_innerShadow_1142_274128"/>
</filter>
<filter id="filter6_iii_1142_274128" x="23.9219" y="4.11719" width="101.636" height="35.5508" filterUnits="userSpaceOnUse" color-interpolation-filters="sRGB">
<feFlood flood-opacity="0" result="BackgroundImageFix"/>
<feBlend mode="normal" in="SourceGraphic" in2="BackgroundImageFix" result="shape"/>
<feColorMatrix in="SourceAlpha" type="matrix" values="0 0 0 0 0 0 0 0 0 0 0 0 0 0 0 0 0 0 127 0" result="hardAlpha"/>
<feOffset dx="-10.51" dy="-9.13"/>
<feComposite in2="hardAlpha" operator="arithmetic" k2="-1" k3="1"/>
<feColorMatrix type="matrix" values="0 0 0 0 1 0 0 0 0 1 0 0 0 0 1 0 0 0 0.9 0"/>
<feBlend mode="normal" in2="shape" result="effect1_innerShadow_1142_274128"/>
<feColorMatrix in="SourceAlpha" type="matrix" values="0 0 0 0 0 0 0 0 0 0 0 0 0 0 0 0 0 0 127 0" result="hardAlpha"/>
<feOffset dy="-4"/>
<feGaussianBlur stdDeviation="4"/>
<feComposite in2="hardAlpha" operator="arithmetic" k2="-1" k3="1"/>
<feColorMatrix type="matrix" values="0 0 0 0 0 0 0 0 0 0 0 0 0 0 0 0 0 0 0.29 0"/>
<feBlend mode="normal" in2="effect1_innerShadow_1142_274128" result="effect2_innerShadow_1142_274128"/>
<feColorMatrix in="SourceAlpha" type="matrix" values="0 0 0 0 0 0 0 0 0 0 0 0 0 0 0 0 0 0 127 0" result="hardAlpha"/>
<feOffset dx="-7" dy="3"/>
<feGaussianBlur stdDeviation="1.5"/>
<feComposite in2="hardAlpha" operator="arithmetic" k2="-1" k3="1"/>
<feColorMatrix type="matrix" values="0 0 0 0 1 0 0 0 0 1 0 0 0 0 1 0 0 0 0.54 0"/>
<feBlend mode="normal" in2="effect2_innerShadow_1142_274128" result="effect3_innerShadow_1142_274128"/>
</filter>
<filter id="filter7_di_1142_274128" x="101.141" y="6.61281" width="28.8592" height="27.352" filterUnits="userSpaceOnUse" color-interpolation-filters="sRGB">
<feFlood flood-opacity="0" result="BackgroundImageFix"/>
<feColorMatrix in="SourceAlpha" type="matrix" values="0 0 0 0 0 0 0 0 0 0 0 0 0 0 0 0 0 0 127 0" result="hardAlpha"/>
<feOffset dx="-1"/>
<feComposite in2="hardAlpha" operator="out"/>
<feColorMatrix type="matrix" values="0 0 0 0 0 0 0 0 0 0 0 0 0 0 0 0 0 0 0.15 0"/>
<feBlend mode="normal" in2="BackgroundImageFix" result="effect1_dropShadow_1142_274128"/>
<feBlend mode="normal" in="SourceGraphic" in2="effect1_dropShadow_1142_274128" result="shape"/>
<feColorMatrix in="SourceAlpha" type="matrix" values="0 0 0 0 0 0 0 0 0 0 0 0 0 0 0 0 0 0 127 0" result="hardAlpha"/>
<feOffset dx="3.89" dy="-6.06"/>
<feGaussianBlur stdDeviation="2.635"/>
<feComposite in2="hardAlpha" operator="arithmetic" k2="-1" k3="1"/>
<feColorMatrix type="matrix" values="0 0 0 0 0 0 0 0 0 0 0 0 0 0 0 0 0 0 0.15 0"/>
<feBlend mode="normal" in2="shape" result="effect2_innerShadow_1142_274128"/>
</filter>
<filter id="filter8_dd_1142_274128" x="113.749" y="18.1001" width="9.57441" height="9.53632" filterUnits="userSpaceOnUse" color-interpolation-filters="sRGB">
<feFlood flood-opacity="0" result="BackgroundImageFix"/>
<feColorMatrix in="SourceAlpha" type="matrix" values="0 0 0 0 0 0 0 0 0 0 0 0 0 0 0 0 0 0 127 0" result="hardAlpha"/>
<feOffset dx="0.764794" dy="-0.764794"/>
<feGaussianBlur stdDeviation="0.764794"/>
<feComposite in2="hardAlpha" operator="out"/>
<feColorMatrix type="matrix" values="0 0 0 0 0 0 0 0 0 0 0 0 0 0 0 0 0 0 0.25 0"/>
<feBlend mode="normal" in2="BackgroundImageFix" result="effect1_dropShadow_1142_274128"/>
<feColorMatrix in="SourceAlpha" type="matrix" values="0 0 0 0 0 0 0 0 0 0 0 0 0 0 0 0 0 0 127 0" result="hardAlpha"/>
<feOffset dx="-0.764794" dy="0.764794"/>
<feGaussianBlur stdDeviation="1.52959"/>
<feComposite in2="hardAlpha" operator="out"/>
<feColorMatrix type="matrix" values="0 0 0 0 1 0 0 0 0 1 0 0 0 0 1 0 0 0 0.25 0"/>
<feBlend mode="normal" in2="effect1_dropShadow_1142_274128" result="effect2_dropShadow_1142_274128"/>
<feBlend mode="normal" in="SourceGraphic" in2="effect2_dropShadow_1142_274128" result="shape"/>
</filter>
<filter id="filter9_f_1142_274128" x="28.3262" y="8.02344" width="95.7559" height="14.7422" filterUnits="userSpaceOnUse" color-interpolation-filters="sRGB">
<feFlood flood-opacity="0" result="BackgroundImageFix"/>
<feBlend mode="normal" in="SourceGraphic" in2="BackgroundImageFix" result="shape"/>
<feGaussianBlur stdDeviation="1.5" result="effect1_foregroundBlur_1142_274128"/>
</filter>
<filter id="filter10_ii_1142_274128" x="45.3989" y="5.91781" width="20.2598" height="10.2267" filterUnits="userSpaceOnUse" color-interpolation-filters="sRGB">
<feFlood flood-opacity="0" result="BackgroundImageFix"/>
<feBlend mode="normal" in="SourceGraphic" in2="BackgroundImageFix" result="shape"/>
<feColorMatrix in="SourceAlpha" type="matrix" values="0 0 0 0 0 0 0 0 0 0 0 0 0 0 0 0 0 0 127 0" result="hardAlpha"/>
<feOffset dy="1"/>
<feComposite in2="hardAlpha" operator="arithmetic" k2="-1" k3="1"/>
<feColorMatrix type="matrix" values="0 0 0 0 1 0 0 0 0 1 0 0 0 0 1 0 0 0 0.25 0"/>
<feBlend mode="normal" in2="shape" result="effect1_innerShadow_1142_274128"/>
<feColorMatrix in="SourceAlpha" type="matrix" values="0 0 0 0 0 0 0 0 0 0 0 0 0 0 0 0 0 0 127 0" result="hardAlpha"/>
<feOffset dy="-2.83554"/>
<feGaussianBlur stdDeviation="1.17"/>
<feComposite in2="hardAlpha" operator="arithmetic" k2="-1" k3="1"/>
<feColorMatrix type="matrix" values="0 0 0 0 0 0 0 0 0 0 0 0 0 0 0 0 0 0 0.13 0"/>
<feBlend mode="normal" in2="effect1_innerShadow_1142_274128" result="effect2_innerShadow_1142_274128"/>
</filter>
<filter id="filter11_ii_1142_274128" x="69.272" y="-2.34" width="29.1333" height="15.0978" filterUnits="userSpaceOnUse" color-interpolation-filters="sRGB">
<feFlood flood-opacity="0" result="BackgroundImageFix"/>
<feBlend mode="normal" in="SourceGraphic" in2="BackgroundImageFix" result="shape"/>
<feColorMatrix in="SourceAlpha" type="matrix" values="0 0 0 0 0 0 0 0 0 0 0 0 0 0 0 0 0 0 127 0" result="hardAlpha"/>
<feOffset dy="1.84"/>
<feComposite in2="hardAlpha" operator="arithmetic" k2="-1" k3="1"/>
<feColorMatrix type="matrix" values="0 0 0 0 1 0 0 0 0 1 0 0 0 0 1 0 0 0 0.25 0"/>
<feBlend mode="normal" in2="shape" result="effect1_innerShadow_1142_274128"/>
<feColorMatrix in="SourceAlpha" type="matrix" values="0 0 0 0 0 0 0 0 0 0 0 0 0 0 0 0 0 0 127 0" result="hardAlpha"/>
<feOffset dy="-2.83554"/>
<feGaussianBlur stdDeviation="1.17"/>
<feComposite in2="hardAlpha" operator="arithmetic" k2="-1" k3="1"/>
<feColorMatrix type="matrix" values="0 0 0 0 0 0 0 0 0 0 0 0 0 0 0 0 0 0 0.13 0"/>
<feBlend mode="normal" in2="effect1_innerShadow_1142_274128" result="effect2_innerShadow_1142_274128"/>
</filter>
<filter id="filter12_ii_1142_274128" x="76.9336" y="29.9141" width="17.8232" height="17.7578" filterUnits="userSpaceOnUse" color-interpolation-filters="sRGB">
<feFlood flood-opacity="0" result="BackgroundImageFix"/>
<feBlend mode="normal" in="SourceGraphic" in2="BackgroundImageFix" result="shape"/>
<feColorMatrix in="SourceAlpha" type="matrix" values="0 0 0 0 0 0 0 0 0 0 0 0 0 0 0 0 0 0 127 0" result="hardAlpha"/>
<feOffset dx="0.33" dy="-1.49"/>
<feComposite in2="hardAlpha" operator="arithmetic" k2="-1" k3="1"/>
<feColorMatrix type="matrix" values="0 0 0 0 0.3375 0 0 0 0 0.3375 0 0 0 0 0.3375 0 0 0 0.24 0"/>
<feBlend mode="normal" in2="shape" result="effect1_innerShadow_1142_274128"/>
<feColorMatrix in="SourceAlpha" type="matrix" values="0 0 0 0 0 0 0 0 0 0 0 0 0 0 0 0 0 0 127 0" result="hardAlpha"/>
<feOffset dx="1" dy="1"/>
<feGaussianBlur stdDeviation="2"/>
<feComposite in2="hardAlpha" operator="arithmetic" k2="-1" k3="1"/>
<feColorMatrix type="matrix" values="0 0 0 0 0 0 0 0 0 0 0 0 0 0 0 0 0 0 0.15 0"/>
<feBlend mode="normal" in2="effect1_innerShadow_1142_274128" result="effect2_innerShadow_1142_274128"/>
</filter>
</defs>
</svg>
