<svg width="419" height="920" viewBox="0 0 419 920" fill="none" xmlns="http://www.w3.org/2000/svg">
<g filter="url(#filter0_i_1142_270838)">
<path d="M124.872 113.139C130.063 120.471 114.003 137.25 124.406 160.438C134.809 183.627 125.755 208.008 117.814 213.865C109.872 219.722 111.262 226.472 113.208 235.922C115.154 245.372 129.052 312.874 116.346 384.446C109.591 422.501 121.31 449.566 132.428 479.644C143.547 509.722 153.361 560.008 138.703 609.228C129.551 639.962 125.562 693.398 142.021 711.822" stroke="#9A7858" stroke-width="5.51343" stroke-linecap="round"/>
</g>
<g filter="url(#filter1_i_1142_270838)">
<path d="M129.532 116.706C133.866 120.631 109.519 138.174 120.832 161.175C132.146 184.177 130.422 207.752 121.002 213.913C111.581 220.075 116.04 229.959 117.986 239.409C147.498 306.196 119.087 295.929 101.945 368.415C92.8302 406.955 129.754 444.834 141.669 474.748C151.772 494.44 152.826 567.622 142.222 608.505C126.308 650.481 110.893 687.43 129.4 705.432" stroke="#4D7C0F" stroke-width="3.44589" stroke-linecap="round"/>
</g>
<g filter="url(#filter2_i_1142_270838)">
<path d="M83.9028 339.996C84.1683 342.416 86.0196 344.405 88.7175 345.572C92.0489 339.049 92.9046 340.362 92.2153 346.538C93.5384 346.728 94.9544 346.757 96.4132 346.597C102.845 345.891 108.537 349.67 108.059 345.319C107.582 340.968 101.117 330.134 94.6849 330.84C88.2529 331.545 83.4256 335.645 83.9028 339.996Z" fill="#65A30D"/>
</g>
<g filter="url(#filter3_i_1142_270838)">
<path d="M119.024 474.141C120.274 478.336 126.314 480.239 132.515 478.392C131.127 473.548 132.433 473.877 135.601 477.792C136.31 477.716 137.002 477.677 137.664 477.655C141.685 477.523 144.637 478.045 143.744 475.047C142.494 470.852 134.191 461.353 127.99 463.2C127.27 463.415 126.58 463.67 125.924 463.961C125.871 469.148 124.855 468.98 123.263 465.457C119.918 467.802 118.133 471.15 119.024 474.141Z" fill="#65A30D"/>
</g>
<g filter="url(#filter4_i_1142_270838)">
<path d="M100.591 650.152C100.793 651.989 101.908 653.577 103.613 654.746C106.651 648.314 107.497 649.078 106.441 656.121C108.393 656.767 110.689 657.017 113.102 656.753C119.534 656.047 125.225 659.826 124.748 655.475C124.271 651.124 117.805 640.291 111.373 640.996C104.941 641.702 100.114 645.801 100.591 650.152Z" fill="#65A30D"/>
</g>
<g filter="url(#filter5_i_1142_270838)">
<path d="M150.533 694.921C151.01 699.272 146.183 703.371 139.751 704.077C133.319 704.782 128.582 709.705 128.105 705.354C127.628 701.003 131.591 689.026 138.023 688.32C139.64 691.851 140.779 691.842 141.51 688.293C146.367 688.767 150.145 691.382 150.533 694.921Z" fill="#65A30D"/>
</g>
<g filter="url(#filter6_i_1142_270838)">
<path d="M142.685 425.527C143.083 429.158 139.787 432.613 134.947 434.068C132.469 429.193 131.67 430.172 131.903 434.682C130.534 434.832 129.242 435.173 128.052 435.575C125.844 431.768 125.735 433.393 126.153 436.285C122.796 437.634 120.576 438.867 120.257 435.96C120.005 433.661 120.992 429.234 122.927 425.465C123.511 424.328 124.182 423.25 124.931 422.309C126.398 420.465 128.166 419.146 130.175 418.926C136.607 418.22 142.208 421.175 142.685 425.527Z" fill="#65A30D"/>
</g>
<g filter="url(#filter7_i_1142_270838)">
<path d="M169.579 571.175C170.056 575.526 165.229 579.625 158.797 580.331C152.365 581.036 147.628 585.959 147.151 581.608C146.673 577.257 150.637 565.28 157.069 564.574C163.501 563.869 169.102 566.824 169.579 571.175Z" fill="#65A30D"/>
</g>
<ellipse cx="283.5" cy="782.566" rx="36.5" ry="36" fill="black" fill-opacity="0.2"/>
<ellipse opacity="0.5" cx="283.5" cy="783.5" rx="135.5" ry="136.5" fill="black" fill-opacity="0.12"/>
<ellipse opacity="0.5" cx="283.5" cy="783" rx="76.5" ry="77" fill="black" fill-opacity="0.12"/>
<g filter="url(#filter8_i_1142_270838)">
<path fill-rule="evenodd" clip-rule="evenodd" d="M290.593 278.625C290.593 278.625 288.185 297.563 286.99 304.156L281.674 333.476C279.41 345.966 275.199 358.035 269.198 369.234L266.185 374.857C259.189 387.912 249.872 399.579 238.699 409.274L212.274 429.106C207.215 433.497 202.218 433.678 197.892 428.627C193.565 423.575 195.492 417.317 200.551 412.926L229.934 394.68C238.857 386.937 247.284 378.148 252.871 367.723L255.884 362.1C260.677 353.156 266.505 344.84 268.313 334.864L275.601 306.602C276.796 300.008 284.044 277.476 290.593 278.625Z" fill="#9A7858"/>
</g>
<g filter="url(#filter9_i_1142_270838)">
<path d="M90.8586 136.968C90.8586 136.968 97.3879 144.845 100.426 157.776L127.283 272.07C131.871 291.597 140.839 309.83 153.509 325.392L173.081 349.433C183.252 361.925 191.705 375.72 198.215 390.451L245.008 586.852C249.285 596.53 254.706 605.661 261.157 614.051L278.614 633.213C298.279 654.798 309.976 682.453 311.766 711.59L315.955 779.777C317.074 797.994 302.904 813.52 284.659 814.067C266.419 814.614 251.332 799.975 251.332 781.73L251.332 699.48C251.332 686.601 247.445 674.019 240.18 663.38L229.456 647.676C223.98 640.554 218.005 626.151 212.869 613.114C207.557 599.63 203.605 585.604 201.329 571.293L175.153 406.741C170.378 395.934 167.596 378.877 160.135 369.712L141.78 339.232C133.946 326.8 120.024 300.701 113.77 274.083L92.294 162.986C89.2556 150.055 88.0991 134.927 90.8586 136.968Z" fill="#9A7858"/>
</g>
<g filter="url(#filter10_i_1142_270838)">
<path fill-rule="evenodd" clip-rule="evenodd" d="M308.068 537.182C308.068 537.182 307.303 548.518 306.825 552.478L304.696 570.084C303.789 577.585 301.709 584.904 298.533 591.771L296.939 595.218C293.236 603.222 289.287 612.997 282.981 619.154L267.956 631.874C265.1 634.662 260.949 632.435 258.196 629.588C255.443 626.741 256.368 622.955 259.224 620.167L276.066 608.282C281.102 603.366 285.807 597.845 288.764 591.453L290.359 588.006C292.895 582.522 296.07 577.374 296.794 571.384L300.134 554.335C300.612 550.376 304.13 536.733 308.068 537.182Z" fill="#9A7858"/>
</g>
<g filter="url(#filter11_i_1142_270838)">
<path d="M311.471 485.434C340.566 485.61 380.493 518.552 376.756 548.987C376.059 554.657 370.1 557.091 367.306 562.384C364.203 568.263 364.019 576.931 358.327 581.757C351.391 587.639 339.046 587.677 330.383 590.298C322.928 592.555 319.292 597.818 311.471 597.661C302.895 597.488 291.86 589.158 283.907 586.084C277.122 583.462 273.258 586.491 267.675 581.757C261.983 576.931 261.8 567.21 258.696 561.33C255.902 556.037 249.943 554.657 249.247 548.987C245.594 519.239 283.253 485.264 311.471 485.434Z" fill="#579858"/>
</g>
<path opacity="0.5" d="M357.756 532.261C355.154 532.732 353.972 543.165 362.209 541.894C367.91 541.015 362.526 532.844 357.756 532.261Z" fill="black" fill-opacity="0.12"/>
<path opacity="0.3" d="M275.649 537.644C281.611 540.421 285.363 533.638 286.818 529.265C287.311 527.782 285.672 526.9 283.877 527.673C277.117 530.586 271.116 535.533 275.649 537.644Z" fill="black" fill-opacity="0.12"/>
<path opacity="0.8" d="M351.703 572.85C344.505 574.05 344.667 566.598 345.643 562.223C345.971 560.755 347.652 560.334 348.873 561.382C353.891 565.685 357.2 571.934 351.703 572.85Z" fill="black" fill-opacity="0.12"/>
<path d="M285.078 569.633C279.137 568.246 280.969 564.018 285.329 560.474C287.56 558.661 290.679 560.114 290.307 562.406C289.603 566.733 289.095 570.571 285.078 569.633Z" fill="black" fill-opacity="0.12"/>
<path d="M307.837 538.929C309.63 539.245 310.554 546.927 304.88 546.089C300.952 545.508 304.564 539.416 307.837 538.929Z" fill="black" fill-opacity="0.12"/>
<path opacity="0.5" d="M310.866 564.793C308.163 564.762 302.816 574.488 311.285 574.798C317.148 575.013 315.24 566.23 310.866 564.793Z" fill="white" fill-opacity="0.2"/>
<g filter="url(#filter12_i_1142_270838)">
<path fill-rule="evenodd" clip-rule="evenodd" d="M77.8037 263.467C77.8037 263.467 85.0346 286.16 87.8546 294.144L100.394 329.649C105.736 344.775 112.611 359.862 120.764 374.352L124.857 381.628C134.361 398.519 145.171 418.99 157.291 432.932L185.107 462.286C190.596 468.599 195.158 465.322 197.437 460.43C199.716 455.538 196.369 447.775 190.88 441.461L160.993 413.268C151.314 402.134 141.767 389.893 134.177 376.404L130.084 369.129C123.573 357.557 116.357 346.475 112.091 334.396L98.1705 299.665C95.3505 291.681 83.0353 263.656 77.8037 263.467Z" fill="#9A7858"/>
</g>
<g filter="url(#filter13_i_1142_270838)">
<path d="M199.656 22.5841C108.507 23.1316 -10.9093 121.921 0.798863 216.793C3.14385 235.794 25.2875 246.138 35.2299 263.722C44.8061 280.659 41.9064 304.919 58.5308 318.944C76.5162 334.118 97.0645 329.036 119 337.25C144.617 346.843 172.127 368.464 199.656 368.564C225.964 368.66 244.29 347.647 269 339.074C292.835 330.805 323.166 335.279 342.527 318.944C359.152 304.919 364.252 280.659 373.828 263.722C383.771 246.138 397.914 235.794 400.259 216.793C411.703 124.063 288.056 22.0531 199.656 22.5841Z" fill="#579858"/>
</g>
<path opacity="0.2" d="M117.086 101.743C117.679 106.204 120.317 123.949 107.852 118.273C99.2236 114.344 106.198 106.797 117.086 101.743Z" fill="white" fill-opacity="0.2"/>
<path opacity="0.5" d="M112.786 145.161C113.88 151.401 118.635 176.223 100.248 168.32C87.5197 162.85 97.2474 152.267 112.786 145.161Z" fill="black" fill-opacity="0.12"/>
<path opacity="0.5" d="M283.085 191.838C277.226 193.192 274.459 222.855 293.006 219.193C305.845 216.658 293.814 193.466 283.085 191.838Z" fill="black" fill-opacity="0.12"/>
<path opacity="0.3" d="M43.5416 212.271C57.1161 220.426 65.2016 199.875 67.9934 187.767C68.7586 184.449 65.4142 182.299 62.1673 184.011C47.104 191.955 33.3567 206.151 43.5416 212.271Z" fill="black" fill-opacity="0.12"/>
<path d="M346.517 235.734C361.734 234.244 359.666 219.875 351.34 207.635C348.363 203.258 341.936 205.486 341.224 210.509C339.32 223.941 336.18 236.746 346.517 235.734Z" fill="black" fill-opacity="0.12"/>
<path d="M133.467 324.525C118.691 319.902 124.357 306.311 135.709 296.119C139.714 292.524 145.554 296.013 145.016 300.996C143.559 314.496 143.508 327.667 133.467 324.525Z" fill="black" fill-opacity="0.12"/>
<path d="M293.878 312.058C301.851 309.533 300.741 303.16 295.973 297.403C292.625 293.36 286.565 296.677 287.009 301.608C287.618 308.362 288.504 313.76 293.878 312.058Z" fill="black" fill-opacity="0.12"/>
<path opacity="0.5" d="M69.3209 295.864C84.4066 301.837 88.4471 281.67 88.8935 269.213C89.0358 265.243 84.8495 263.357 81.5061 265.878C68.2537 275.87 57.9041 291.344 69.3209 295.864Z" fill="black" fill-opacity="0.12"/>
<path opacity="0.7" d="M275.094 111.785C280.427 109.25 305.623 129.279 289.231 137.76C277.884 143.631 268.539 119.431 275.094 111.785Z" fill="white" fill-opacity="0.2"/>
<path opacity="0.5" d="M224.589 155.645C229.062 155.26 239.592 175.053 225.616 176.699C215.941 177.838 217.591 159.175 224.589 155.645Z" fill="white" fill-opacity="0.2"/>
<path d="M161.83 189.993C165.853 190.872 168.086 211.718 155.359 209.372C146.549 207.748 154.511 191.272 161.83 189.993Z" fill="black" fill-opacity="0.12"/>
<path opacity="0.5" d="M192.054 269.859C185.983 269.75 174.088 297.524 193.109 298.467C206.276 299.121 201.892 273.997 192.054 269.859Z" fill="white" fill-opacity="0.2"/>
<path d="M202.847 11.0529C132.836 11.4816 38.6058 70.7201 47.5986 145.006C49.2627 158.753 58.7019 171.226 62.129 184.07C65.9836 198.517 64.4392 213.142 78.2162 224.991C93.7743 238.372 112.745 239.554 133.365 246.023C155.361 252.923 179.235 264.633 202.847 263.668C226.054 262.719 249.008 249.228 269.676 240.68C284.586 234.514 298.306 235.113 310.074 224.991C323.851 213.142 326.153 198.517 333.628 184.07C340.273 171.226 352.753 158.753 354.417 145.006C363.207 72.3976 270.745 10.6371 202.847 11.0529Z" fill="black" fill-opacity="0.12"/>
<g filter="url(#filter14_i_1142_270838)">
<path d="M202.775 0.568171C135.492 0.979467 44.9328 65.8593 53.5753 137.129C55.1746 150.318 64.2459 162.284 67.5395 174.607C71.244 188.467 69.7598 202.498 83 213.866C97.9519 226.703 116.183 227.838 136 234.044C157.14 240.664 180.083 251.898 202.775 250.972C225.078 250.062 247.137 237.119 267 228.918C281.329 223.002 294.515 223.576 305.824 213.866C319.065 202.498 321.277 188.467 328.46 174.607C334.847 162.284 346.84 150.318 348.44 137.129C356.887 67.4688 268.028 0.169279 202.775 0.568171Z" fill="#579858"/>
</g>
<path opacity="0.3" d="M78.1357 99.2731C92.6254 107.641 101.557 85.8452 104.619 73.3575C105.421 70.0879 102.054 68.0026 98.7322 69.6991C82.4313 78.0249 67.2851 93.0066 78.1357 99.2731Z" fill="black" fill-opacity="0.12"/>
<path opacity="0.8" d="M267.969 191.89C250.488 195.454 251.589 172.578 254.112 160.393C254.773 157.201 258.428 156.263 260.786 158.649C272.861 170.872 281.085 189.216 267.969 191.89Z" fill="black" fill-opacity="0.12"/>
<path d="M317.938 137.583C328.929 134.276 325.966 125.274 318.323 117.896C314.505 114.211 308.638 117.478 309.089 122.288C309.959 131.567 310.501 139.821 317.938 137.583Z" fill="black" fill-opacity="0.12"/>
<path d="M131.508 117.64C135.84 118.557 138.189 140.477 124.482 138.035C114.994 136.345 123.618 119.001 131.508 117.64Z" fill="black" fill-opacity="0.12"/>
<path opacity="0.5" d="M164.378 152.434C157.978 152.347 145.269 181.123 165.32 182.015C179.2 182.633 174.727 156.669 164.378 152.434Z" fill="white" fill-opacity="0.2"/>
<rect opacity="0.5" x="281" y="713.133" width="7" height="28" rx="3.5" fill="black" fill-opacity="0.12"/>
<rect width="4" height="18" rx="2" transform="matrix(0.829953 0.557833 -0.557808 0.82997 374 398.133)" fill="white" fill-opacity="0.2"/>
<rect opacity="0.5" width="7" height="18" rx="3.5" transform="matrix(0.915086 -0.403259 0.403237 0.915096 373 264.133)" fill="white" fill-opacity="0.2"/>
<rect opacity="0.5" width="6" height="33" rx="3" transform="matrix(0.849669 -0.527317 0.527292 0.849684 249 634.133)" fill="white" fill-opacity="0.2"/>
<rect width="7" height="26" rx="3.5" transform="matrix(0.99827 -0.0587924 0.0587886 0.99827 299 763.133)" fill="white" fill-opacity="0.2"/>
<defs>
<filter id="filter0_i_1142_270838" x="108.944" y="108.315" width="42.6688" height="606.263" filterUnits="userSpaceOnUse" color-interpolation-filters="sRGB">
<feFlood flood-opacity="0" result="BackgroundImageFix"/>
<feBlend mode="normal" in="SourceGraphic" in2="BackgroundImageFix" result="shape"/>
<feColorMatrix in="SourceAlpha" type="matrix" values="0 0 0 0 0 0 0 0 0 0 0 0 0 0 0 0 0 0 127 0" result="hardAlpha"/>
<feOffset dx="3.44589" dy="-2.06754"/>
<feGaussianBlur stdDeviation="1.37836"/>
<feComposite in2="hardAlpha" operator="arithmetic" k2="-1" k3="1"/>
<feColorMatrix type="matrix" values="0 0 0 0 0 0 0 0 0 0 0 0 0 0 0 0 0 0 0.25 0"/>
<feBlend mode="normal" in2="shape" result="effect1_innerShadow_1142_270838"/>
</filter>
<filter id="filter1_i_1142_270838" x="98.79" y="113.606" width="53.3445" height="593.55" filterUnits="userSpaceOnUse" color-interpolation-filters="sRGB">
<feFlood flood-opacity="0" result="BackgroundImageFix"/>
<feBlend mode="normal" in="SourceGraphic" in2="BackgroundImageFix" result="shape"/>
<feColorMatrix in="SourceAlpha" type="matrix" values="0 0 0 0 0 0 0 0 0 0 0 0 0 0 0 0 0 0 127 0" result="hardAlpha"/>
<feOffset dx="0.689179" dy="-1.37836"/>
<feGaussianBlur stdDeviation="0.689179"/>
<feComposite in2="hardAlpha" operator="arithmetic" k2="-1" k3="1"/>
<feColorMatrix type="matrix" values="0 0 0 0 0 0 0 0 0 0 0 0 0 0 0 0 0 0 0.25 0"/>
<feBlend mode="normal" in2="shape" result="effect1_innerShadow_1142_270838"/>
</filter>
<filter id="filter2_i_1142_270838" x="83.8701" y="325.295" width="29.7307" height="22.1541" filterUnits="userSpaceOnUse" color-interpolation-filters="sRGB">
<feFlood flood-opacity="0" result="BackgroundImageFix"/>
<feBlend mode="normal" in="SourceGraphic" in2="BackgroundImageFix" result="shape"/>
<feColorMatrix in="SourceAlpha" type="matrix" values="0 0 0 0 0 0 0 0 0 0 0 0 0 0 0 0 0 0 127 0" result="hardAlpha"/>
<feOffset dx="5.51343" dy="-5.51343"/>
<feGaussianBlur stdDeviation="4.13507"/>
<feComposite in2="hardAlpha" operator="arithmetic" k2="-1" k3="1"/>
<feColorMatrix type="matrix" values="0 0 0 0 0 0 0 0 0 0 0 0 0 0 0 0 0 0 0.25 0"/>
<feBlend mode="normal" in2="shape" result="effect1_innerShadow_1142_270838"/>
</filter>
<filter id="filter3_i_1142_270838" x="118.796" y="457.451" width="30.6213" height="21.6462" filterUnits="userSpaceOnUse" color-interpolation-filters="sRGB">
<feFlood flood-opacity="0" result="BackgroundImageFix"/>
<feBlend mode="normal" in="SourceGraphic" in2="BackgroundImageFix" result="shape"/>
<feColorMatrix in="SourceAlpha" type="matrix" values="0 0 0 0 0 0 0 0 0 0 0 0 0 0 0 0 0 0 127 0" result="hardAlpha"/>
<feOffset dx="5.51343" dy="-5.51343"/>
<feGaussianBlur stdDeviation="4.13507"/>
<feComposite in2="hardAlpha" operator="arithmetic" k2="-1" k3="1"/>
<feColorMatrix type="matrix" values="0 0 0 0 0 0 0 0 0 0 0 0 0 0 0 0 0 0 0.25 0"/>
<feBlend mode="normal" in2="shape" result="effect1_innerShadow_1142_270838"/>
</filter>
<filter id="filter4_i_1142_270838" x="100.559" y="635.451" width="29.7307" height="22.1541" filterUnits="userSpaceOnUse" color-interpolation-filters="sRGB">
<feFlood flood-opacity="0" result="BackgroundImageFix"/>
<feBlend mode="normal" in="SourceGraphic" in2="BackgroundImageFix" result="shape"/>
<feColorMatrix in="SourceAlpha" type="matrix" values="0 0 0 0 0 0 0 0 0 0 0 0 0 0 0 0 0 0 127 0" result="hardAlpha"/>
<feOffset dx="5.51343" dy="-5.51343"/>
<feGaussianBlur stdDeviation="4.13507"/>
<feComposite in2="hardAlpha" operator="arithmetic" k2="-1" k3="1"/>
<feColorMatrix type="matrix" values="0 0 0 0 0 0 0 0 0 0 0 0 0 0 0 0 0 0 0.25 0"/>
<feBlend mode="normal" in2="shape" result="effect1_innerShadow_1142_270838"/>
</filter>
<filter id="filter5_i_1142_270838" x="122.552" y="685.536" width="28.0129" height="21.5927" filterUnits="userSpaceOnUse" color-interpolation-filters="sRGB">
<feFlood flood-opacity="0" result="BackgroundImageFix"/>
<feBlend mode="normal" in="SourceGraphic" in2="BackgroundImageFix" result="shape"/>
<feColorMatrix in="SourceAlpha" type="matrix" values="0 0 0 0 0 0 0 0 0 0 0 0 0 0 0 0 0 0 127 0" result="hardAlpha"/>
<feOffset dx="-5.51343" dy="-2.75672"/>
<feGaussianBlur stdDeviation="4.13507"/>
<feComposite in2="hardAlpha" operator="arithmetic" k2="-1" k3="1"/>
<feColorMatrix type="matrix" values="0 0 0 0 0 0 0 0 0 0 0 0 0 0 0 0 0 0 0.25 0"/>
<feBlend mode="normal" in2="shape" result="effect1_innerShadow_1142_270838"/>
</filter>
<filter id="filter6_i_1142_270838" x="114.704" y="416.064" width="28.0129" height="21.6708" filterUnits="userSpaceOnUse" color-interpolation-filters="sRGB">
<feFlood flood-opacity="0" result="BackgroundImageFix"/>
<feBlend mode="normal" in="SourceGraphic" in2="BackgroundImageFix" result="shape"/>
<feColorMatrix in="SourceAlpha" type="matrix" values="0 0 0 0 0 0 0 0 0 0 0 0 0 0 0 0 0 0 127 0" result="hardAlpha"/>
<feOffset dx="-5.51343" dy="-2.75672"/>
<feGaussianBlur stdDeviation="4.13507"/>
<feComposite in2="hardAlpha" operator="arithmetic" k2="-1" k3="1"/>
<feColorMatrix type="matrix" values="0 0 0 0 0 0 0 0 0 0 0 0 0 0 0 0 0 0 0.25 0"/>
<feBlend mode="normal" in2="shape" result="effect1_innerShadow_1142_270838"/>
</filter>
<filter id="filter7_i_1142_270838" x="141.598" y="561.712" width="28.0129" height="21.6708" filterUnits="userSpaceOnUse" color-interpolation-filters="sRGB">
<feFlood flood-opacity="0" result="BackgroundImageFix"/>
<feBlend mode="normal" in="SourceGraphic" in2="BackgroundImageFix" result="shape"/>
<feColorMatrix in="SourceAlpha" type="matrix" values="0 0 0 0 0 0 0 0 0 0 0 0 0 0 0 0 0 0 127 0" result="hardAlpha"/>
<feOffset dx="-5.51343" dy="-2.75672"/>
<feGaussianBlur stdDeviation="4.13507"/>
<feComposite in2="hardAlpha" operator="arithmetic" k2="-1" k3="1"/>
<feColorMatrix type="matrix" values="0 0 0 0 0 0 0 0 0 0 0 0 0 0 0 0 0 0 0.25 0"/>
<feBlend mode="normal" in2="shape" result="effect1_innerShadow_1142_270838"/>
</filter>
<filter id="filter8_i_1142_270838" x="195.497" y="278.582" width="111.096" height="157.828" filterUnits="userSpaceOnUse" color-interpolation-filters="sRGB">
<feFlood flood-opacity="0" result="BackgroundImageFix"/>
<feBlend mode="normal" in="SourceGraphic" in2="BackgroundImageFix" result="shape"/>
<feColorMatrix in="SourceAlpha" type="matrix" values="0 0 0 0 0 0 0 0 0 0 0 0 0 0 0 0 0 0 127 0" result="hardAlpha"/>
<feOffset dx="16" dy="4"/>
<feGaussianBlur stdDeviation="10"/>
<feComposite in2="hardAlpha" operator="arithmetic" k2="-1" k3="1"/>
<feColorMatrix type="matrix" values="0 0 0 0 0 0 0 0 0 0 0 0 0 0 0 0 0 0 0.25 0"/>
<feBlend mode="normal" in2="shape" result="effect1_innerShadow_1142_270838"/>
</filter>
<filter id="filter9_i_1142_270838" x="89.2964" y="136.781" width="242.721" height="681.301" filterUnits="userSpaceOnUse" color-interpolation-filters="sRGB">
<feFlood flood-opacity="0" result="BackgroundImageFix"/>
<feBlend mode="normal" in="SourceGraphic" in2="BackgroundImageFix" result="shape"/>
<feColorMatrix in="SourceAlpha" type="matrix" values="0 0 0 0 0 0 0 0 0 0 0 0 0 0 0 0 0 0 127 0" result="hardAlpha"/>
<feOffset dx="16" dy="4"/>
<feGaussianBlur stdDeviation="10"/>
<feComposite in2="hardAlpha" operator="arithmetic" k2="-1" k3="1"/>
<feColorMatrix type="matrix" values="0 0 0 0 0 0 0 0 0 0 0 0 0 0 0 0 0 0 0.25 0"/>
<feBlend mode="normal" in2="shape" result="effect1_innerShadow_1142_270838"/>
</filter>
<filter id="filter10_i_1142_270838" x="255.544" y="537.172" width="52.5239" height="104.984" filterUnits="userSpaceOnUse" color-interpolation-filters="sRGB">
<feFlood flood-opacity="0" result="BackgroundImageFix"/>
<feBlend mode="normal" in="SourceGraphic" in2="BackgroundImageFix" result="shape"/>
<feColorMatrix in="SourceAlpha" type="matrix" values="0 0 0 0 0 0 0 0 0 0 0 0 0 0 0 0 0 0 127 0" result="hardAlpha"/>
<feOffset dx="-1" dy="9"/>
<feGaussianBlur stdDeviation="10"/>
<feComposite in2="hardAlpha" operator="arithmetic" k2="-1" k3="1"/>
<feColorMatrix type="matrix" values="0 0 0 0 0 0 0 0 0 0 0 0 0 0 0 0 0 0 0.25 0"/>
<feBlend mode="normal" in2="shape" result="effect1_innerShadow_1142_270838"/>
</filter>
<filter id="filter11_i_1142_270838" x="249" y="448.561" width="128" height="149.103" filterUnits="userSpaceOnUse" color-interpolation-filters="sRGB">
<feFlood flood-opacity="0" result="BackgroundImageFix"/>
<feBlend mode="normal" in="SourceGraphic" in2="BackgroundImageFix" result="shape"/>
<feColorMatrix in="SourceAlpha" type="matrix" values="0 0 0 0 0 0 0 0 0 0 0 0 0 0 0 0 0 0 127 0" result="hardAlpha"/>
<feOffset dy="-36.8724"/>
<feGaussianBlur stdDeviation="21.5967"/>
<feComposite in2="hardAlpha" operator="arithmetic" k2="-1" k3="1"/>
<feColorMatrix type="matrix" values="0 0 0 0 0 0 0 0 0 0 0 0 0 0 0 0 0 0 0.25 0"/>
<feBlend mode="normal" in2="shape" result="effect1_innerShadow_1142_270838"/>
</filter>
<filter id="filter12_i_1142_270838" x="77.8037" y="263.465" width="136.358" height="206.305" filterUnits="userSpaceOnUse" color-interpolation-filters="sRGB">
<feFlood flood-opacity="0" result="BackgroundImageFix"/>
<feBlend mode="normal" in="SourceGraphic" in2="BackgroundImageFix" result="shape"/>
<feColorMatrix in="SourceAlpha" type="matrix" values="0 0 0 0 0 0 0 0 0 0 0 0 0 0 0 0 0 0 127 0" result="hardAlpha"/>
<feOffset dx="16" dy="4"/>
<feGaussianBlur stdDeviation="10"/>
<feComposite in2="hardAlpha" operator="arithmetic" k2="-1" k3="1"/>
<feColorMatrix type="matrix" values="0 0 0 0 0 0 0 0 0 0 0 0 0 0 0 0 0 0 0.25 0"/>
<feBlend mode="normal" in2="shape" result="effect1_innerShadow_1142_270838"/>
</filter>
<filter id="filter13_i_1142_270838" x="0" y="-47.418" width="401" height="415.984" filterUnits="userSpaceOnUse" color-interpolation-filters="sRGB">
<feFlood flood-opacity="0" result="BackgroundImageFix"/>
<feBlend mode="normal" in="SourceGraphic" in2="BackgroundImageFix" result="shape"/>
<feColorMatrix in="SourceAlpha" type="matrix" values="0 0 0 0 0 0 0 0 0 0 0 0 0 0 0 0 0 0 127 0" result="hardAlpha"/>
<feOffset dy="-70"/>
<feGaussianBlur stdDeviation="41"/>
<feComposite in2="hardAlpha" operator="arithmetic" k2="-1" k3="1"/>
<feColorMatrix type="matrix" values="0 0 0 0 0 0 0 0 0 0 0 0 0 0 0 0 0 0 0.25 0"/>
<feBlend mode="normal" in2="shape" result="effect1_innerShadow_1142_270838"/>
</filter>
<filter id="filter14_i_1142_270838" x="53" y="-69.4336" width="296" height="320.461" filterUnits="userSpaceOnUse" color-interpolation-filters="sRGB">
<feFlood flood-opacity="0" result="BackgroundImageFix"/>
<feBlend mode="normal" in="SourceGraphic" in2="BackgroundImageFix" result="shape"/>
<feColorMatrix in="SourceAlpha" type="matrix" values="0 0 0 0 0 0 0 0 0 0 0 0 0 0 0 0 0 0 127 0" result="hardAlpha"/>
<feOffset dy="-70"/>
<feGaussianBlur stdDeviation="41"/>
<feComposite in2="hardAlpha" operator="arithmetic" k2="-1" k3="1"/>
<feColorMatrix type="matrix" values="0 0 0 0 0 0 0 0 0 0 0 0 0 0 0 0 0 0 0.25 0"/>
<feBlend mode="normal" in2="shape" result="effect1_innerShadow_1142_270838"/>
</filter>
</defs>
</svg>
