<svg width="231" height="216" viewBox="0 0 231 216" fill="none" xmlns="http://www.w3.org/2000/svg">
<ellipse cx="113.402" cy="180.734" rx="35" ry="34.5" fill="black" fill-opacity="0.12"/>
<circle cx="112.902" cy="179.734" r="10.5" fill="black" fill-opacity="0.2"/>
<g filter="url(#filter0_i_1148_281266)">
<path d="M112.88 72.3867C114.537 72.3933 115.875 73.7417 115.868 75.3985L120.097 179.194C120.263 183.275 116.999 186.675 112.914 186.675C108.832 186.675 105.569 183.279 105.732 179.2L109.868 75.3749C109.875 73.7181 111.223 72.3802 112.88 72.3867Z" fill="#4D7C0F"/>
</g>
<g filter="url(#filter1_ii_1148_281266)">
<path d="M204.322 120.234C165.492 58.7927 133.587 82.8652 120.842 96.4771C120.073 97.2976 120.279 98.607 121.218 99.2222C131.903 106.217 128.789 106.849 141.277 112.665C157.4 120.175 180.601 122.836 192.777 122.666C197.432 122.601 199.931 123.742 202.221 124.305C204.51 124.867 205.583 122.229 204.322 120.234Z" fill="#84CC16"/>
</g>
<g opacity="0.71" filter="url(#filter2_df_1148_281266)">
<path d="M192.777 112.664C164.277 82.6639 139.236 89.0904 122.155 96.8744L126.277 99.6641C152.777 81.6641 183.533 104.223 192.777 112.664Z" fill="black" fill-opacity="0.12" shape-rendering="crispEdges"/>
</g>
<g filter="url(#filter3_ii_1148_281266)">
<path d="M114.219 21.6383C161.431 9.78569 144.342 63.5291 115.417 85.2836C114.723 85.8052 113.76 85.7704 113.08 85.2384C67.814 49.8441 80.3647 10.8597 111.744 21.5356C112.519 21.7993 113.423 21.8381 114.219 21.6383Z" fill="#65A30D"/>
</g>
<g filter="url(#filter4_df_1148_281266)">
<path d="M113.163 25.5815L115.173 84.1074C114.466 84.8801 113.253 86.1725 111.609 83.6551L112.284 25.58C113 25.6984 112.531 25.7775 113.163 25.5815Z" fill="black" fill-opacity="0.12" shape-rendering="crispEdges"/>
</g>
<g filter="url(#filter5_i_1148_281266)">
<path d="M145.546 56.7746C122.79 94.965 121.61 101.957 119.447 128.862" stroke="#65A30D" stroke-width="6" stroke-linecap="round"/>
</g>
<g filter="url(#filter6_ii_1148_281266)">
<path d="M205.394 43.5348C145.528 10.6508 130.607 59.1175 128.555 83.0838C128.448 84.3404 129.265 85.4903 130.506 85.7218C150.22 89.4011 180.507 71.7398 184.908 67.0103L192.615 59.3614C192.716 59.2619 192.812 59.1494 192.895 59.0353C199.992 49.3359 200.838 49.3742 205.452 46.9027C206.794 46.184 206.73 44.2682 205.394 43.5348Z" fill="#84CC16"/>
</g>
<g opacity="0.71" filter="url(#filter7_df_1148_281266)">
<path d="M192.902 44.7357C146.389 37.3443 130.837 70.1902 128.523 83.9445C128.44 84.4428 128.644 84.9287 129.039 85.2447C129.883 85.9205 131.149 85.4433 131.391 84.3897C139.063 50.8679 170.839 42.7162 192.902 44.7357Z" fill="black" fill-opacity="0.12" shape-rendering="crispEdges"/>
</g>
<g filter="url(#filter8_i_1148_281266)">
<path d="M80.9426 56.7746C103.698 94.965 104.878 101.957 107.041 128.862" stroke="#65A30D" stroke-width="6" stroke-linecap="round"/>
</g>
<g filter="url(#filter9_ii_1148_281266)">
<path d="M23.824 47.5595C82.3778 15.883 98.7406 63.532 98.2098 83.2153C98.1774 84.4154 97.2762 85.3927 96.0803 85.5059C83.1318 86.7309 63.8651 79.0652 53.5124 73.2703C48.8359 70.6527 44.7815 67.0747 40.5616 63.7722C37.1322 61.0883 34.2632 57.7054 30.7635 55.1137C26.4786 51.9408 23.9323 53.3443 22.2712 52.7785C20.0413 52.0189 21.7507 48.6811 23.824 47.5595Z" fill="#65A30D"/>
</g>
<g opacity="0.71" filter="url(#filter10_df_1148_281266)">
<path d="M33.5866 47.7346C77.7435 40.1776 93.204 70.2051 97.7819 83.805C97.972 84.3697 97.7789 84.9799 97.3134 85.3525C96.5007 86.0028 95.282 85.5876 94.9855 84.5908C84.5438 49.4863 53.1951 44.5947 33.5866 47.7346Z" fill="black" fill-opacity="0.12" shape-rendering="crispEdges"/>
</g>
<g filter="url(#filter11_ii_1148_281266)">
<path d="M170.591 166.144C170.443 108.717 125.857 107.247 104.898 109.807C104.078 109.907 103.588 110.753 103.89 111.523C109.397 125.57 115.834 134.408 123.835 142.732C133.206 152.481 149.427 160.096 158.335 163.732C163.532 165.854 165.351 167.585 167.921 168.407C169.318 168.853 170.595 167.613 170.591 166.144Z" fill="#84CC16"/>
</g>
<g filter="url(#filter12_df_1148_281266)">
<path d="M162.215 146.679C148.987 114.862 121.234 109.011 105.786 109.916L105.057 113.459C143.911 111.923 157.622 137.441 162.215 146.679Z" fill="black" fill-opacity="0.12" shape-rendering="crispEdges"/>
</g>
<g filter="url(#filter13_ii_1148_281266)">
<path d="M62.85 175.527C52.5731 125.25 91.2222 115.551 110.266 113.85C111.123 113.774 111.813 114.531 111.669 115.38C109.376 128.868 104.869 139.849 99.3771 148.655C92.7759 159.239 83.0474 164.661 75.7278 169.534C71.6504 172.248 68.802 175.363 65.9953 177.134C64.7032 177.949 63.1567 177.027 62.85 175.527Z" fill="#65A30D"/>
</g>
<g filter="url(#filter14_df_1148_281266)">
<path d="M66.6991 157.121C72.4587 126.524 95.9036 116.173 109.729 114.092L111.035 117.089C76.3975 122.978 69.0361 148.097 66.6991 157.121Z" fill="black" fill-opacity="0.12" shape-rendering="crispEdges"/>
</g>
<g filter="url(#filter15_ii_1148_281266)">
<path d="M29.6138 124.232C57.4007 76.0636 91.3393 83.2979 106.497 102.175C106.979 102.775 106.808 103.657 106.162 104.075C95.9317 110.698 99.0154 111.209 87.5067 116.57C72.8651 123.39 51.796 125.806 40.7393 125.651C35.8535 125.583 33.5831 126.978 31.1971 127.334C29.5516 127.579 28.7809 125.676 29.6138 124.232Z" fill="#65A30D"/>
</g>
<g opacity="0.71" filter="url(#filter16_df_1148_281266)">
<path d="M104.871 102.229C88.011 91.4406 69.7186 85.8651 46.129 112.539C44.3001 114.472 42.711 116.405 41.4019 118.231C43.0013 116.189 44.5766 114.294 46.129 112.539C58.5781 99.3767 82.1436 86.1683 104.21 106.158L104.871 102.229Z" fill="black" fill-opacity="0.12" shape-rendering="crispEdges"/>
</g>
<g filter="url(#filter17_i_1148_281266)">
<path d="M94.9404 67.17C97.6338 68.3724 99.9878 69.6109 102.043 70.8802M115.745 96.3522C116.029 87.5263 114.594 78.6296 102.043 70.8802M102.043 70.8802C102.135 70.1206 102.808 68.1214 104.766 66.2005" stroke="#ECFCCB" stroke-width="1.55689" stroke-linecap="round"/>
</g>
<g filter="url(#filter18_i_1148_281266)">
<path d="M133.864 72.1197C122.047 72.9075 118.341 77.4741 115.902 87.3576" stroke="#ECFCCB" stroke-width="1.55689" stroke-linecap="round"/>
</g>
<g filter="url(#filter19_i_1148_281266)">
<path d="M92.6257 73.2857C96.6236 73.4469 100.069 74.8087 102.903 76.9366M112.056 94.5668C111.525 87.9162 108.338 81.0176 102.903 76.9366M102.903 76.9366C101.823 79.6999 99.9073 82.1653 94.4627 82.5862" stroke="#ECFCCB" stroke-width="1.55689" stroke-linecap="round"/>
</g>
<g filter="url(#filter20_i_1148_281266)">
<path d="M124.248 65.2045C115.804 66.9602 111.871 72.7626 110.642 77.4403" stroke="#ECFCCB" stroke-width="1.55689" stroke-linecap="round"/>
</g>
<g filter="url(#filter21_i_1148_281266)">
<path d="M117.661 97.8098C118.064 89.1674 123.16 84.3484 127.572 82.3856" stroke="#ECFCCB" stroke-width="1.55689" stroke-linecap="round"/>
</g>
<g filter="url(#filter22_i_1148_281266)">
<rect width="5.18106" height="5.20038" rx="2.59053" transform="matrix(0.980552 0.19626 -0.185685 0.982609 123.364 62.0938)" fill="#EF4444"/>
</g>
<path opacity="0.5" d="M126.944 65.0818C126.535 65.3326 126.588 64.8671 126.337 64.4575C126.086 64.0479 125.626 63.8493 126.036 63.5986C126.446 63.3478 126.981 63.4766 127.232 63.8862C127.482 64.2958 127.354 64.8311 126.944 65.0818Z" fill="white"/>
<g filter="url(#filter23_i_1148_281266)">
<rect width="5.18106" height="5.20038" rx="2.59053" transform="matrix(0.980552 0.19626 -0.185685 0.982609 133.404 69.9062)" fill="#EF4444"/>
</g>
<path opacity="0.5" d="M136.984 72.8943C136.575 73.1451 136.628 72.6796 136.377 72.27C136.126 71.8604 135.667 71.6618 136.076 71.4111C136.486 71.1603 137.021 71.2891 137.272 71.6987C137.523 72.1083 137.394 72.6436 136.984 72.8943Z" fill="white"/>
<g filter="url(#filter24_i_1148_281266)">
<rect width="5.18106" height="5.20038" rx="2.59053" transform="matrix(0.980552 0.19626 -0.185685 0.982609 127.827 78.8281)" fill="#EF4444"/>
</g>
<path opacity="0.5" d="M131.407 81.8162C130.997 82.067 131.051 81.6014 130.8 81.1918C130.549 80.7822 130.089 80.5837 130.499 80.3329C130.909 80.0822 131.444 80.2109 131.695 80.6205C131.945 81.0301 131.817 81.5655 131.407 81.8162Z" fill="white"/>
<g filter="url(#filter25_i_1148_281266)">
<rect width="5.18106" height="5.20038" rx="2.59053" transform="matrix(0.980552 0.19626 -0.185685 0.982609 117.785 74.9219)" fill="#EF4444"/>
</g>
<path opacity="0.5" d="M121.365 77.91C120.955 78.1607 121.009 77.6952 120.758 77.2856C120.507 76.876 120.047 76.6774 120.457 76.4267C120.867 76.1759 121.402 76.3047 121.653 76.7143C121.903 77.1239 121.775 77.6592 121.365 77.91Z" fill="white"/>
<g filter="url(#filter26_i_1148_281266)">
<rect width="5.18106" height="5.20038" rx="2.59053" transform="matrix(0.980552 0.19626 -0.185685 0.982609 110.533 67.6719)" fill="#EF4444"/>
</g>
<path opacity="0.5" d="M114.113 70.66C113.703 70.9107 113.757 70.4452 113.506 70.0356C113.255 69.626 112.795 69.4274 113.205 69.1767C113.615 68.9259 114.15 69.0547 114.401 69.4643C114.651 69.8739 114.523 70.4092 114.113 70.66Z" fill="white"/>
<g filter="url(#filter27_i_1148_281266)">
<rect width="5.18106" height="5.20038" rx="2.59053" transform="matrix(0.980552 0.19626 -0.185685 0.982609 102.723 62.0938)" fill="#EF4444"/>
</g>
<path opacity="0.5" d="M106.304 65.0818C105.894 65.3326 105.947 64.8671 105.697 64.4575C105.446 64.0479 104.986 63.8493 105.395 63.5986C105.805 63.3478 106.34 63.4766 106.591 63.8862C106.842 64.2958 106.713 64.8311 106.304 65.0818Z" fill="white"/>
<g filter="url(#filter28_i_1148_281266)">
<rect width="5.18106" height="5.20038" rx="2.59053" transform="matrix(0.980552 0.19626 -0.185685 0.982609 91.0085 63.207)" fill="#EF4444"/>
</g>
<path opacity="0.5" d="M94.5887 66.1951C94.1791 66.4459 94.2324 65.9803 93.9817 65.5707C93.7309 65.1611 93.271 64.9626 93.6806 64.7118C94.0902 64.4611 94.6255 64.5899 94.8763 64.9995C95.127 65.409 94.9983 65.9444 94.5887 66.1951Z" fill="white"/>
<g filter="url(#filter29_i_1148_281266)">
<rect width="5.18106" height="5.20038" rx="2.59053" transform="matrix(0.980552 0.19626 -0.185685 0.982609 87.6609 69.9062)" fill="#EF4444"/>
</g>
<path opacity="0.5" d="M91.241 72.8943C90.8314 73.1451 90.8848 72.6796 90.634 72.27C90.3833 71.8604 89.9233 71.6618 90.3329 71.4111C90.7425 71.1603 91.2779 71.2891 91.5286 71.6987C91.7794 72.1083 91.6506 72.6436 91.241 72.8943Z" fill="white"/>
<g filter="url(#filter30_i_1148_281266)">
<rect width="5.18106" height="5.20038" rx="2.59053" transform="matrix(0.980552 0.19626 -0.185685 0.982609 92.682 80.5039)" fill="#EF4444"/>
</g>
<path opacity="0.5" d="M96.2621 83.492C95.8525 83.7427 95.9059 83.2772 95.6552 82.8676C95.4044 82.458 94.9445 82.2595 95.3541 82.0087C95.7637 81.758 96.299 81.8867 96.5497 82.2963C96.8005 82.7059 96.6717 83.2412 96.2621 83.492Z" fill="white"/>
<g filter="url(#filter31_i_1148_281266)">
<rect width="5.18106" height="5.20038" rx="2.59053" transform="matrix(0.980552 0.19626 -0.185685 0.982609 103.837 79.9414)" fill="#EF4444"/>
</g>
<path opacity="0.5" d="M107.417 82.9295C107.008 83.1802 107.061 82.7147 106.81 82.3051C106.56 81.8955 106.1 81.697 106.509 81.4462C106.919 81.1955 107.454 81.3242 107.705 81.7338C107.956 82.1434 107.827 82.6787 107.417 82.9295Z" fill="white"/>
<g filter="url(#filter32_ii_1148_281266)">
<path d="M93.4016 137.233C81.7807 111.545 85.6815 79.67 111.642 87.8062C112.664 88.1266 113.822 88.1453 114.8 87.8504C142.205 79.5891 143.183 113.669 131.401 137.232C126.834 148.198 121.438 155.063 114.068 161.982C113.441 162.57 112.332 162.634 111.591 162.052C104.571 156.535 94.8855 140.513 93.4016 137.233Z" fill="#65A30D"/>
</g>
<g filter="url(#filter33_df_1148_281266)">
<path d="M113.022 146.897L111.783 87.3296C113.941 88.4653 113.943 87.814 115.028 86.7534L114.025 116.825L113.022 146.897Z" fill="black" fill-opacity="0.12" shape-rendering="crispEdges"/>
</g>
<defs>
<filter id="filter0_i_1148_281266" x="105.726" y="72.3867" width="19.3871" height="120.937" filterUnits="userSpaceOnUse" color-interpolation-filters="sRGB">
<feFlood flood-opacity="0" result="BackgroundImageFix"/>
<feBlend mode="normal" in="SourceGraphic" in2="BackgroundImageFix" result="shape"/>
<feColorMatrix in="SourceAlpha" type="matrix" values="0 0 0 0 0 0 0 0 0 0 0 0 0 0 0 0 0 0 127 0" result="hardAlpha"/>
<feOffset dx="5.01" dy="8"/>
<feGaussianBlur stdDeviation="3.32394"/>
<feComposite in2="hardAlpha" operator="arithmetic" k2="-1" k3="1"/>
<feColorMatrix type="matrix" values="0 0 0 0 0 0 0 0 0 0 0 0 0 0 0 0 0 0 0.25 0"/>
<feBlend mode="normal" in2="shape" result="effect1_innerShadow_1148_281266"/>
</filter>
<filter id="filter1_ii_1148_281266" x="98.5574" y="75.1309" width="128.84" height="71.0654" filterUnits="userSpaceOnUse" color-interpolation-filters="sRGB">
<feFlood flood-opacity="0" result="BackgroundImageFix"/>
<feBlend mode="normal" in="SourceGraphic" in2="BackgroundImageFix" result="shape"/>
<feColorMatrix in="SourceAlpha" type="matrix" values="0 0 0 0 0 0 0 0 0 0 0 0 0 0 0 0 0 0 127 0" result="hardAlpha"/>
<feOffset dx="22.54" dy="-5.08"/>
<feGaussianBlur stdDeviation="19.0868"/>
<feComposite in2="hardAlpha" operator="arithmetic" k2="-1" k3="1"/>
<feColorMatrix type="matrix" values="0 0 0 0 0 0 0 0 0 0 0 0 0 0 0 0 0 0 0.25 0"/>
<feBlend mode="normal" in2="shape" result="effect1_innerShadow_1148_281266"/>
<feColorMatrix in="SourceAlpha" type="matrix" values="0 0 0 0 0 0 0 0 0 0 0 0 0 0 0 0 0 0 127 0" result="hardAlpha"/>
<feOffset dx="-29.0847" dy="21.8135"/>
<feGaussianBlur stdDeviation="10.9068"/>
<feComposite in2="hardAlpha" operator="arithmetic" k2="-1" k3="1"/>
<feColorMatrix type="matrix" values="0 0 0 0 1 0 0 0 0 1 0 0 0 0 1 0 0 0 0.25 0"/>
<feBlend mode="normal" in2="effect1_innerShadow_1148_281266" result="effect2_innerShadow_1148_281266"/>
</filter>
<filter id="filter2_df_1148_281266" x="116.792" y="89.43" width="81.3488" height="33.9609" filterUnits="userSpaceOnUse" color-interpolation-filters="sRGB">
<feFlood flood-opacity="0" result="BackgroundImageFix"/>
<feColorMatrix in="SourceAlpha" type="matrix" values="0 0 0 0 0 0 0 0 0 0 0 0 0 0 0 0 0 0 127 0" result="hardAlpha"/>
<feOffset dy="5.3634"/>
<feGaussianBlur stdDeviation="2.6817"/>
<feComposite in2="hardAlpha" operator="out"/>
<feColorMatrix type="matrix" values="0 0 0 0 1 0 0 0 0 1 0 0 0 0 1 0 0 0 0.25 0"/>
<feBlend mode="normal" in2="BackgroundImageFix" result="effect1_dropShadow_1148_281266"/>
<feBlend mode="normal" in="SourceGraphic" in2="effect1_dropShadow_1148_281266" result="shape"/>
<feGaussianBlur stdDeviation="0.472516" result="effect2_foregroundBlur_1148_281266"/>
</filter>
<filter id="filter3_ii_1148_281266" x="79.5326" y="-6.52184" width="82.4341" height="106.127" filterUnits="userSpaceOnUse" color-interpolation-filters="sRGB">
<feFlood flood-opacity="0" result="BackgroundImageFix"/>
<feBlend mode="normal" in="SourceGraphic" in2="BackgroundImageFix" result="shape"/>
<feColorMatrix in="SourceAlpha" type="matrix" values="0 0 0 0 0 0 0 0 0 0 0 0 0 0 0 0 0 0 127 0" result="hardAlpha"/>
<feOffset dx="18.2935" dy="-26.264"/>
<feGaussianBlur stdDeviation="17.8687"/>
<feComposite in2="hardAlpha" operator="arithmetic" k2="-1" k3="1"/>
<feColorMatrix type="matrix" values="0 0 0 0 0 0 0 0 0 0 0 0 0 0 0 0 0 0 0.25 0"/>
<feBlend mode="normal" in2="shape" result="effect1_innerShadow_1148_281266"/>
<feColorMatrix in="SourceAlpha" type="matrix" values="0 0 0 0 0 0 0 0 0 0 0 0 0 0 0 0 0 0 127 0" result="hardAlpha"/>
<feOffset dx="-3.98551" dy="13.9493"/>
<feGaussianBlur stdDeviation="7.97102"/>
<feComposite in2="hardAlpha" operator="arithmetic" k2="-1" k3="1"/>
<feColorMatrix type="matrix" values="0 0 0 0 1 0 0 0 0 1 0 0 0 0 1 0 0 0 0.25 0"/>
<feBlend mode="normal" in2="effect1_innerShadow_1148_281266" result="effect2_innerShadow_1148_281266"/>
</filter>
<filter id="filter4_df_1148_281266" x="107.624" y="24.8759" width="11.5349" height="68.228" filterUnits="userSpaceOnUse" color-interpolation-filters="sRGB">
<feFlood flood-opacity="0" result="BackgroundImageFix"/>
<feColorMatrix in="SourceAlpha" type="matrix" values="0 0 0 0 0 0 0 0 0 0 0 0 0 0 0 0 0 0 127 0" result="hardAlpha"/>
<feOffset dy="3.98551"/>
<feGaussianBlur stdDeviation="1.99275"/>
<feComposite in2="hardAlpha" operator="out"/>
<feColorMatrix type="matrix" values="0 0 0 0 1 0 0 0 0 1 0 0 0 0 1 0 0 0 0.25 0"/>
<feBlend mode="normal" in2="BackgroundImageFix" result="effect1_dropShadow_1148_281266"/>
<feBlend mode="normal" in="SourceGraphic" in2="effect1_dropShadow_1148_281266" result="shape"/>
<feGaussianBlur stdDeviation="0.351123" result="effect2_foregroundBlur_1148_281266"/>
</filter>
<filter id="filter5_i_1148_281266" x="111.461" y="53.7734" width="37.0858" height="78.0898" filterUnits="userSpaceOnUse" color-interpolation-filters="sRGB">
<feFlood flood-opacity="0" result="BackgroundImageFix"/>
<feBlend mode="normal" in="SourceGraphic" in2="BackgroundImageFix" result="shape"/>
<feColorMatrix in="SourceAlpha" type="matrix" values="0 0 0 0 0 0 0 0 0 0 0 0 0 0 0 0 0 0 127 0" result="hardAlpha"/>
<feOffset dx="-4.98591"/>
<feGaussianBlur stdDeviation="3.32394"/>
<feComposite in2="hardAlpha" operator="arithmetic" k2="-1" k3="1"/>
<feColorMatrix type="matrix" values="0 0 0 0 0 0 0 0 0 0 0 0 0 0 0 0 0 0 0.25 0"/>
<feBlend mode="normal" in2="shape" result="effect1_innerShadow_1148_281266"/>
</filter>
<filter id="filter6_ii_1148_281266" x="96.3656" y="32.4531" width="163.696" height="75.2231" filterUnits="userSpaceOnUse" color-interpolation-filters="sRGB">
<feFlood flood-opacity="0" result="BackgroundImageFix"/>
<feBlend mode="normal" in="SourceGraphic" in2="BackgroundImageFix" result="shape"/>
<feColorMatrix in="SourceAlpha" type="matrix" values="0 0 0 0 0 0 0 0 0 0 0 0 0 0 0 0 0 0 127 0" result="hardAlpha"/>
<feOffset dx="53.634"/>
<feGaussianBlur stdDeviation="28.1579"/>
<feComposite in2="hardAlpha" operator="arithmetic" k2="-1" k3="1"/>
<feColorMatrix type="matrix" values="0 0 0 0 0 0 0 0 0 0 0 0 0 0 0 0 0 0 0.25 0"/>
<feBlend mode="normal" in2="shape" result="effect1_innerShadow_1148_281266"/>
<feColorMatrix in="SourceAlpha" type="matrix" values="0 0 0 0 0 0 0 0 0 0 0 0 0 0 0 0 0 0 127 0" result="hardAlpha"/>
<feOffset dx="-32.1804" dy="21.4536"/>
<feGaussianBlur stdDeviation="16.0902"/>
<feComposite in2="hardAlpha" operator="arithmetic" k2="-1" k3="1"/>
<feColorMatrix type="matrix" values="0 0 0 0 1 0 0 0 0 1 0 0 0 0 1 0 0 0 0.25 0"/>
<feBlend mode="normal" in2="effect1_innerShadow_1148_281266" result="effect2_innerShadow_1148_281266"/>
</filter>
<filter id="filter7_df_1148_281266" x="123.141" y="42.719" width="75.1235" height="53.5664" filterUnits="userSpaceOnUse" color-interpolation-filters="sRGB">
<feFlood flood-opacity="0" result="BackgroundImageFix"/>
<feColorMatrix in="SourceAlpha" type="matrix" values="0 0 0 0 0 0 0 0 0 0 0 0 0 0 0 0 0 0 127 0" result="hardAlpha"/>
<feOffset dy="5.3634"/>
<feGaussianBlur stdDeviation="2.6817"/>
<feComposite in2="hardAlpha" operator="out"/>
<feColorMatrix type="matrix" values="0 0 0 0 1 0 0 0 0 1 0 0 0 0 1 0 0 0 0.25 0"/>
<feBlend mode="normal" in2="BackgroundImageFix" result="effect1_dropShadow_1148_281266"/>
<feBlend mode="normal" in="SourceGraphic" in2="effect1_dropShadow_1148_281266" result="shape"/>
<feGaussianBlur stdDeviation="0.472516" result="effect2_foregroundBlur_1148_281266"/>
</filter>
<filter id="filter8_i_1148_281266" x="72.9559" y="53.7734" width="37.0858" height="78.0898" filterUnits="userSpaceOnUse" color-interpolation-filters="sRGB">
<feFlood flood-opacity="0" result="BackgroundImageFix"/>
<feBlend mode="normal" in="SourceGraphic" in2="BackgroundImageFix" result="shape"/>
<feColorMatrix in="SourceAlpha" type="matrix" values="0 0 0 0 0 0 0 0 0 0 0 0 0 0 0 0 0 0 127 0" result="hardAlpha"/>
<feOffset dx="-4.98591"/>
<feGaussianBlur stdDeviation="3.32394"/>
<feComposite in2="hardAlpha" operator="arithmetic" k2="-1" k3="1"/>
<feColorMatrix type="matrix" values="0 0 0 0 0 0 0 0 0 0 0 0 0 0 0 0 0 0 0.25 0"/>
<feBlend mode="normal" in2="shape" result="effect1_innerShadow_1148_281266"/>
</filter>
<filter id="filter9_ii_1148_281266" x="-10.9585" y="36.9766" width="162.815" height="70.1138" filterUnits="userSpaceOnUse" color-interpolation-filters="sRGB">
<feFlood flood-opacity="0" result="BackgroundImageFix"/>
<feBlend mode="normal" in="SourceGraphic" in2="BackgroundImageFix" result="shape"/>
<feColorMatrix in="SourceAlpha" type="matrix" values="0 0 0 0 0 0 0 0 0 0 0 0 0 0 0 0 0 0 127 0" result="hardAlpha"/>
<feOffset dx="53.634"/>
<feGaussianBlur stdDeviation="28.1579"/>
<feComposite in2="hardAlpha" operator="arithmetic" k2="-1" k3="1"/>
<feColorMatrix type="matrix" values="0 0 0 0 0 0 0 0 0 0 0 0 0 0 0 0 0 0 0.25 0"/>
<feBlend mode="normal" in2="shape" result="effect1_innerShadow_1148_281266"/>
<feColorMatrix in="SourceAlpha" type="matrix" values="0 0 0 0 0 0 0 0 0 0 0 0 0 0 0 0 0 0 127 0" result="hardAlpha"/>
<feOffset dx="-32.1804" dy="21.4536"/>
<feGaussianBlur stdDeviation="16.0902"/>
<feComposite in2="hardAlpha" operator="arithmetic" k2="-1" k3="1"/>
<feColorMatrix type="matrix" values="0 0 0 0 1 0 0 0 0 1 0 0 0 0 1 0 0 0 0.25 0"/>
<feBlend mode="normal" in2="effect1_innerShadow_1148_281266" result="effect2_innerShadow_1148_281266"/>
</filter>
<filter id="filter10_df_1148_281266" x="28.2233" y="45.5862" width="74.9946" height="50.8047" filterUnits="userSpaceOnUse" color-interpolation-filters="sRGB">
<feFlood flood-opacity="0" result="BackgroundImageFix"/>
<feColorMatrix in="SourceAlpha" type="matrix" values="0 0 0 0 0 0 0 0 0 0 0 0 0 0 0 0 0 0 127 0" result="hardAlpha"/>
<feOffset dy="5.3634"/>
<feGaussianBlur stdDeviation="2.6817"/>
<feComposite in2="hardAlpha" operator="out"/>
<feColorMatrix type="matrix" values="0 0 0 0 1 0 0 0 0 1 0 0 0 0 1 0 0 0 0.25 0"/>
<feBlend mode="normal" in2="BackgroundImageFix" result="effect1_dropShadow_1148_281266"/>
<feBlend mode="normal" in="SourceGraphic" in2="effect1_dropShadow_1148_281266" result="shape"/>
<feGaussianBlur stdDeviation="0.472516" result="effect2_foregroundBlur_1148_281266"/>
</filter>
<filter id="filter11_ii_1148_281266" x="88.3666" y="109.102" width="109.232" height="86.4065" filterUnits="userSpaceOnUse" color-interpolation-filters="sRGB">
<feFlood flood-opacity="0" result="BackgroundImageFix"/>
<feBlend mode="normal" in="SourceGraphic" in2="BackgroundImageFix" result="shape"/>
<feColorMatrix in="SourceAlpha" type="matrix" values="0 0 0 0 0 0 0 0 0 0 0 0 0 0 0 0 0 0 127 0" result="hardAlpha"/>
<feOffset dx="34.29" dy="28.42"/>
<feGaussianBlur stdDeviation="13.504"/>
<feComposite in2="hardAlpha" operator="arithmetic" k2="-1" k3="1"/>
<feColorMatrix type="matrix" values="0 0 0 0 0 0 0 0 0 0 0 0 0 0 0 0 0 0 0.25 0"/>
<feBlend mode="normal" in2="shape" result="effect1_innerShadow_1148_281266"/>
<feColorMatrix in="SourceAlpha" type="matrix" values="0 0 0 0 0 0 0 0 0 0 0 0 0 0 0 0 0 0 127 0" result="hardAlpha"/>
<feOffset dx="-20.5775" dy="15.4332"/>
<feGaussianBlur stdDeviation="7.71658"/>
<feComposite in2="hardAlpha" operator="arithmetic" k2="-1" k3="1"/>
<feColorMatrix type="matrix" values="0 0 0 0 1 0 0 0 0 1 0 0 0 0 1 0 0 0 0.25 0"/>
<feBlend mode="normal" in2="effect1_innerShadow_1148_281266" result="effect2_innerShadow_1148_281266"/>
</filter>
<filter id="filter12_df_1148_281266" x="102.485" y="109.379" width="62.3019" height="42.4453" filterUnits="userSpaceOnUse" color-interpolation-filters="sRGB">
<feFlood flood-opacity="0" result="BackgroundImageFix"/>
<feColorMatrix in="SourceAlpha" type="matrix" values="0 0 0 0 0 0 0 0 0 0 0 0 0 0 0 0 0 0 127 0" result="hardAlpha"/>
<feOffset dy="2.57219"/>
<feGaussianBlur stdDeviation="1.2861"/>
<feComposite in2="hardAlpha" operator="out"/>
<feColorMatrix type="matrix" values="0 0 0 0 1 0 0 0 0 1 0 0 0 0 1 0 0 0 0.25 0"/>
<feBlend mode="normal" in2="BackgroundImageFix" result="effect1_dropShadow_1148_281266"/>
<feBlend mode="normal" in="SourceGraphic" in2="effect1_dropShadow_1148_281266" result="shape"/>
<feGaussianBlur stdDeviation="0.22661" result="effect2_foregroundBlur_1148_281266"/>
</filter>
<filter id="filter13_ii_1148_281266" x="32.9951" y="113.844" width="78.693" height="79.6772" filterUnits="userSpaceOnUse" color-interpolation-filters="sRGB">
<feFlood flood-opacity="0" result="BackgroundImageFix"/>
<feBlend mode="normal" in="SourceGraphic" in2="BackgroundImageFix" result="shape"/>
<feColorMatrix in="SourceAlpha" type="matrix" values="0 0 0 0 0 0 0 0 0 0 0 0 0 0 0 0 0 0 127 0" result="hardAlpha"/>
<feOffset dx="-32" dy="16"/>
<feGaussianBlur stdDeviation="14.0731"/>
<feComposite in2="hardAlpha" operator="arithmetic" k2="-1" k3="1"/>
<feColorMatrix type="matrix" values="0 0 0 0 0 0 0 0 0 0 0 0 0 0 0 0 0 0 0.35 0"/>
<feBlend mode="normal" in2="shape" result="effect1_innerShadow_1148_281266"/>
<feColorMatrix in="SourceAlpha" type="matrix" values="0 0 0 0 0 0 0 0 0 0 0 0 0 0 0 0 0 0 127 0" result="hardAlpha"/>
<feOffset dx="-21.4447" dy="16.0835"/>
<feGaussianBlur stdDeviation="8.04175"/>
<feComposite in2="hardAlpha" operator="arithmetic" k2="-1" k3="1"/>
<feColorMatrix type="matrix" values="0 0 0 0 1 0 0 0 0 1 0 0 0 0 1 0 0 0 0.25 0"/>
<feBlend mode="normal" in2="effect1_innerShadow_1148_281266" result="effect2_innerShadow_1148_281266"/>
</filter>
<filter id="filter14_df_1148_281266" x="64.0185" y="113.621" width="49.6969" height="48.8608" filterUnits="userSpaceOnUse" color-interpolation-filters="sRGB">
<feFlood flood-opacity="0" result="BackgroundImageFix"/>
<feColorMatrix in="SourceAlpha" type="matrix" values="0 0 0 0 0 0 0 0 0 0 0 0 0 0 0 0 0 0 127 0" result="hardAlpha"/>
<feOffset dy="2.68058"/>
<feGaussianBlur stdDeviation="1.34029"/>
<feComposite in2="hardAlpha" operator="out"/>
<feColorMatrix type="matrix" values="0 0 0 0 1 0 0 0 0 1 0 0 0 0 1 0 0 0 0.25 0"/>
<feBlend mode="normal" in2="BackgroundImageFix" result="effect1_dropShadow_1148_281266"/>
<feBlend mode="normal" in="SourceGraphic" in2="effect1_dropShadow_1148_281266" result="shape"/>
<feGaussianBlur stdDeviation="0.236159" result="effect2_foregroundBlur_1148_281266"/>
</filter>
<filter id="filter15_ii_1148_281266" x="13.4679" y="66.6696" width="103.844" height="76.4932" filterUnits="userSpaceOnUse" color-interpolation-filters="sRGB">
<feFlood flood-opacity="0" result="BackgroundImageFix"/>
<feBlend mode="normal" in="SourceGraphic" in2="BackgroundImageFix" result="shape"/>
<feColorMatrix in="SourceAlpha" type="matrix" values="0 0 0 0 0 0 0 0 0 0 0 0 0 0 0 0 0 0 127 0" result="hardAlpha"/>
<feOffset dx="10.5382" dy="-21.0765"/>
<feGaussianBlur stdDeviation="13.8314"/>
<feComposite in2="hardAlpha" operator="arithmetic" k2="-1" k3="1"/>
<feColorMatrix type="matrix" values="0 0 0 0 0 0 0 0 0 0 0 0 0 0 0 0 0 0 0.25 0"/>
<feBlend mode="normal" in2="shape" result="effect1_innerShadow_1148_281266"/>
<feColorMatrix in="SourceAlpha" type="matrix" values="0 0 0 0 0 0 0 0 0 0 0 0 0 0 0 0 0 0 127 0" result="hardAlpha"/>
<feOffset dx="-21.0765" dy="15.8074"/>
<feGaussianBlur stdDeviation="7.90368"/>
<feComposite in2="hardAlpha" operator="arithmetic" k2="-1" k3="1"/>
<feColorMatrix type="matrix" values="0 0 0 0 1 0 0 0 0 1 0 0 0 0 1 0 0 0 0.25 0"/>
<feBlend mode="normal" in2="effect1_innerShadow_1148_281266" result="effect2_innerShadow_1148_281266"/>
</filter>
<filter id="filter16_df_1148_281266" x="37.5152" y="92.5925" width="71.2426" height="33.4112" filterUnits="userSpaceOnUse" color-interpolation-filters="sRGB">
<feFlood flood-opacity="0" result="BackgroundImageFix"/>
<feColorMatrix in="SourceAlpha" type="matrix" values="0 0 0 0 0 0 0 0 0 0 0 0 0 0 0 0 0 0 127 0" result="hardAlpha"/>
<feOffset dy="3.88664"/>
<feGaussianBlur stdDeviation="1.94332"/>
<feComposite in2="hardAlpha" operator="out"/>
<feColorMatrix type="matrix" values="0 0 0 0 1 0 0 0 0 1 0 0 0 0 1 0 0 0 0.25 0"/>
<feBlend mode="normal" in2="BackgroundImageFix" result="effect1_dropShadow_1148_281266"/>
<feBlend mode="normal" in="SourceGraphic" in2="effect1_dropShadow_1148_281266" result="shape"/>
<feGaussianBlur stdDeviation="0.342413" result="effect2_foregroundBlur_1148_281266"/>
</filter>
<filter id="filter17_i_1148_281266" x="93.9574" y="65.4219" width="22.5965" height="31.7109" filterUnits="userSpaceOnUse" color-interpolation-filters="sRGB">
<feFlood flood-opacity="0" result="BackgroundImageFix"/>
<feBlend mode="normal" in="SourceGraphic" in2="BackgroundImageFix" result="shape"/>
<feColorMatrix in="SourceAlpha" type="matrix" values="0 0 0 0 0 0 0 0 0 0 0 0 0 0 0 0 0 0 127 0" result="hardAlpha"/>
<feOffset dx="-0.204818"/>
<feGaussianBlur stdDeviation="1.83811"/>
<feComposite in2="hardAlpha" operator="arithmetic" k2="-1" k3="1"/>
<feColorMatrix type="matrix" values="0 0 0 0 0 0 0 0 0 0 0 0 0 0 0 0 0 0 0.35 0"/>
<feBlend mode="normal" in2="shape" result="effect1_innerShadow_1148_281266"/>
</filter>
<filter id="filter18_i_1148_281266" x="111.243" y="71.3398" width="23.3988" height="16.7969" filterUnits="userSpaceOnUse" color-interpolation-filters="sRGB">
<feFlood flood-opacity="0" result="BackgroundImageFix"/>
<feBlend mode="normal" in="SourceGraphic" in2="BackgroundImageFix" result="shape"/>
<feColorMatrix in="SourceAlpha" type="matrix" values="0 0 0 0 0 0 0 0 0 0 0 0 0 0 0 0 0 0 127 0" result="hardAlpha"/>
<feOffset dx="-3.88126"/>
<feGaussianBlur stdDeviation="2.5875"/>
<feComposite in2="hardAlpha" operator="arithmetic" k2="-1" k3="1"/>
<feColorMatrix type="matrix" values="0 0 0 0 0 0 0 0 0 0 0 0 0 0 0 0 0 0 0.25 0"/>
<feBlend mode="normal" in2="shape" result="effect1_innerShadow_1148_281266"/>
</filter>
<filter id="filter19_i_1148_281266" x="87.966" y="72.5078" width="24.8689" height="22.8359" filterUnits="userSpaceOnUse" color-interpolation-filters="sRGB">
<feFlood flood-opacity="0" result="BackgroundImageFix"/>
<feBlend mode="normal" in="SourceGraphic" in2="BackgroundImageFix" result="shape"/>
<feColorMatrix in="SourceAlpha" type="matrix" values="0 0 0 0 0 0 0 0 0 0 0 0 0 0 0 0 0 0 127 0" result="hardAlpha"/>
<feOffset dx="-3.88126"/>
<feGaussianBlur stdDeviation="2.5875"/>
<feComposite in2="hardAlpha" operator="arithmetic" k2="-1" k3="1"/>
<feColorMatrix type="matrix" values="0 0 0 0 0 0 0 0 0 0 0 0 0 0 0 0 0 0 0.25 0"/>
<feBlend mode="normal" in2="shape" result="effect1_innerShadow_1148_281266"/>
</filter>
<filter id="filter20_i_1148_281266" x="105.983" y="64.4258" width="19.0441" height="13.793" filterUnits="userSpaceOnUse" color-interpolation-filters="sRGB">
<feFlood flood-opacity="0" result="BackgroundImageFix"/>
<feBlend mode="normal" in="SourceGraphic" in2="BackgroundImageFix" result="shape"/>
<feColorMatrix in="SourceAlpha" type="matrix" values="0 0 0 0 0 0 0 0 0 0 0 0 0 0 0 0 0 0 127 0" result="hardAlpha"/>
<feOffset dx="-3.88126"/>
<feGaussianBlur stdDeviation="2.5875"/>
<feComposite in2="hardAlpha" operator="arithmetic" k2="-1" k3="1"/>
<feColorMatrix type="matrix" values="0 0 0 0 0 0 0 0 0 0 0 0 0 0 0 0 0 0 0.25 0"/>
<feBlend mode="normal" in2="shape" result="effect1_innerShadow_1148_281266"/>
</filter>
<filter id="filter21_i_1148_281266" x="113.002" y="81.6055" width="15.3477" height="16.9844" filterUnits="userSpaceOnUse" color-interpolation-filters="sRGB">
<feFlood flood-opacity="0" result="BackgroundImageFix"/>
<feBlend mode="normal" in="SourceGraphic" in2="BackgroundImageFix" result="shape"/>
<feColorMatrix in="SourceAlpha" type="matrix" values="0 0 0 0 0 0 0 0 0 0 0 0 0 0 0 0 0 0 127 0" result="hardAlpha"/>
<feOffset dx="-3.88126"/>
<feGaussianBlur stdDeviation="2.5875"/>
<feComposite in2="hardAlpha" operator="arithmetic" k2="-1" k3="1"/>
<feColorMatrix type="matrix" values="0 0 0 0 0 0 0 0 0 0 0 0 0 0 0 0 0 0 0.25 0"/>
<feBlend mode="normal" in2="shape" result="effect1_innerShadow_1148_281266"/>
</filter>
<filter id="filter22_i_1148_281266" x="122.836" y="61.9897" width="5.17163" height="5.77206" filterUnits="userSpaceOnUse" color-interpolation-filters="sRGB">
<feFlood flood-opacity="0" result="BackgroundImageFix"/>
<feBlend mode="normal" in="SourceGraphic" in2="BackgroundImageFix" result="shape"/>
<feColorMatrix in="SourceAlpha" type="matrix" values="0 0 0 0 0 0 0 0 0 0 0 0 0 0 0 0 0 0 127 0" result="hardAlpha"/>
<feOffset dy="-0.56112"/>
<feGaussianBlur stdDeviation="0.56112"/>
<feComposite in2="hardAlpha" operator="arithmetic" k2="-1" k3="1"/>
<feColorMatrix type="matrix" values="0 0 0 0 0 0 0 0 0 0 0 0 0 0 0 0 0 0 0.45 0"/>
<feBlend mode="normal" in2="shape" result="effect1_innerShadow_1148_281266"/>
</filter>
<filter id="filter23_i_1148_281266" x="132.876" y="69.8022" width="5.17163" height="5.77206" filterUnits="userSpaceOnUse" color-interpolation-filters="sRGB">
<feFlood flood-opacity="0" result="BackgroundImageFix"/>
<feBlend mode="normal" in="SourceGraphic" in2="BackgroundImageFix" result="shape"/>
<feColorMatrix in="SourceAlpha" type="matrix" values="0 0 0 0 0 0 0 0 0 0 0 0 0 0 0 0 0 0 127 0" result="hardAlpha"/>
<feOffset dy="-0.56112"/>
<feGaussianBlur stdDeviation="0.56112"/>
<feComposite in2="hardAlpha" operator="arithmetic" k2="-1" k3="1"/>
<feColorMatrix type="matrix" values="0 0 0 0 0 0 0 0 0 0 0 0 0 0 0 0 0 0 0.45 0"/>
<feBlend mode="normal" in2="shape" result="effect1_innerShadow_1148_281266"/>
</filter>
<filter id="filter24_i_1148_281266" x="127.298" y="78.724" width="5.17163" height="5.77206" filterUnits="userSpaceOnUse" color-interpolation-filters="sRGB">
<feFlood flood-opacity="0" result="BackgroundImageFix"/>
<feBlend mode="normal" in="SourceGraphic" in2="BackgroundImageFix" result="shape"/>
<feColorMatrix in="SourceAlpha" type="matrix" values="0 0 0 0 0 0 0 0 0 0 0 0 0 0 0 0 0 0 127 0" result="hardAlpha"/>
<feOffset dy="-0.56112"/>
<feGaussianBlur stdDeviation="0.56112"/>
<feComposite in2="hardAlpha" operator="arithmetic" k2="-1" k3="1"/>
<feColorMatrix type="matrix" values="0 0 0 0 0 0 0 0 0 0 0 0 0 0 0 0 0 0 0.45 0"/>
<feBlend mode="normal" in2="shape" result="effect1_innerShadow_1148_281266"/>
</filter>
<filter id="filter25_i_1148_281266" x="117.256" y="74.8178" width="5.17163" height="5.77206" filterUnits="userSpaceOnUse" color-interpolation-filters="sRGB">
<feFlood flood-opacity="0" result="BackgroundImageFix"/>
<feBlend mode="normal" in="SourceGraphic" in2="BackgroundImageFix" result="shape"/>
<feColorMatrix in="SourceAlpha" type="matrix" values="0 0 0 0 0 0 0 0 0 0 0 0 0 0 0 0 0 0 127 0" result="hardAlpha"/>
<feOffset dy="-0.56112"/>
<feGaussianBlur stdDeviation="0.56112"/>
<feComposite in2="hardAlpha" operator="arithmetic" k2="-1" k3="1"/>
<feColorMatrix type="matrix" values="0 0 0 0 0 0 0 0 0 0 0 0 0 0 0 0 0 0 0.45 0"/>
<feBlend mode="normal" in2="shape" result="effect1_innerShadow_1148_281266"/>
</filter>
<filter id="filter26_i_1148_281266" x="110.005" y="67.5678" width="5.17163" height="5.77206" filterUnits="userSpaceOnUse" color-interpolation-filters="sRGB">
<feFlood flood-opacity="0" result="BackgroundImageFix"/>
<feBlend mode="normal" in="SourceGraphic" in2="BackgroundImageFix" result="shape"/>
<feColorMatrix in="SourceAlpha" type="matrix" values="0 0 0 0 0 0 0 0 0 0 0 0 0 0 0 0 0 0 127 0" result="hardAlpha"/>
<feOffset dy="-0.56112"/>
<feGaussianBlur stdDeviation="0.56112"/>
<feComposite in2="hardAlpha" operator="arithmetic" k2="-1" k3="1"/>
<feColorMatrix type="matrix" values="0 0 0 0 0 0 0 0 0 0 0 0 0 0 0 0 0 0 0.45 0"/>
<feBlend mode="normal" in2="shape" result="effect1_innerShadow_1148_281266"/>
</filter>
<filter id="filter27_i_1148_281266" x="102.195" y="61.9897" width="5.17163" height="5.77206" filterUnits="userSpaceOnUse" color-interpolation-filters="sRGB">
<feFlood flood-opacity="0" result="BackgroundImageFix"/>
<feBlend mode="normal" in="SourceGraphic" in2="BackgroundImageFix" result="shape"/>
<feColorMatrix in="SourceAlpha" type="matrix" values="0 0 0 0 0 0 0 0 0 0 0 0 0 0 0 0 0 0 127 0" result="hardAlpha"/>
<feOffset dy="-0.56112"/>
<feGaussianBlur stdDeviation="0.56112"/>
<feComposite in2="hardAlpha" operator="arithmetic" k2="-1" k3="1"/>
<feColorMatrix type="matrix" values="0 0 0 0 0 0 0 0 0 0 0 0 0 0 0 0 0 0 0.45 0"/>
<feBlend mode="normal" in2="shape" result="effect1_innerShadow_1148_281266"/>
</filter>
<filter id="filter28_i_1148_281266" x="90.4801" y="63.1029" width="5.17163" height="5.77206" filterUnits="userSpaceOnUse" color-interpolation-filters="sRGB">
<feFlood flood-opacity="0" result="BackgroundImageFix"/>
<feBlend mode="normal" in="SourceGraphic" in2="BackgroundImageFix" result="shape"/>
<feColorMatrix in="SourceAlpha" type="matrix" values="0 0 0 0 0 0 0 0 0 0 0 0 0 0 0 0 0 0 127 0" result="hardAlpha"/>
<feOffset dy="-0.56112"/>
<feGaussianBlur stdDeviation="0.56112"/>
<feComposite in2="hardAlpha" operator="arithmetic" k2="-1" k3="1"/>
<feColorMatrix type="matrix" values="0 0 0 0 0 0 0 0 0 0 0 0 0 0 0 0 0 0 0.45 0"/>
<feBlend mode="normal" in2="shape" result="effect1_innerShadow_1148_281266"/>
</filter>
<filter id="filter29_i_1148_281266" x="87.1324" y="69.8022" width="5.17163" height="5.77206" filterUnits="userSpaceOnUse" color-interpolation-filters="sRGB">
<feFlood flood-opacity="0" result="BackgroundImageFix"/>
<feBlend mode="normal" in="SourceGraphic" in2="BackgroundImageFix" result="shape"/>
<feColorMatrix in="SourceAlpha" type="matrix" values="0 0 0 0 0 0 0 0 0 0 0 0 0 0 0 0 0 0 127 0" result="hardAlpha"/>
<feOffset dy="-0.56112"/>
<feGaussianBlur stdDeviation="0.56112"/>
<feComposite in2="hardAlpha" operator="arithmetic" k2="-1" k3="1"/>
<feColorMatrix type="matrix" values="0 0 0 0 0 0 0 0 0 0 0 0 0 0 0 0 0 0 0.45 0"/>
<feBlend mode="normal" in2="shape" result="effect1_innerShadow_1148_281266"/>
</filter>
<filter id="filter30_i_1148_281266" x="92.1536" y="80.3998" width="5.17163" height="5.77206" filterUnits="userSpaceOnUse" color-interpolation-filters="sRGB">
<feFlood flood-opacity="0" result="BackgroundImageFix"/>
<feBlend mode="normal" in="SourceGraphic" in2="BackgroundImageFix" result="shape"/>
<feColorMatrix in="SourceAlpha" type="matrix" values="0 0 0 0 0 0 0 0 0 0 0 0 0 0 0 0 0 0 127 0" result="hardAlpha"/>
<feOffset dy="-0.56112"/>
<feGaussianBlur stdDeviation="0.56112"/>
<feComposite in2="hardAlpha" operator="arithmetic" k2="-1" k3="1"/>
<feColorMatrix type="matrix" values="0 0 0 0 0 0 0 0 0 0 0 0 0 0 0 0 0 0 0.45 0"/>
<feBlend mode="normal" in2="shape" result="effect1_innerShadow_1148_281266"/>
</filter>
<filter id="filter31_i_1148_281266" x="103.309" y="79.8373" width="5.17163" height="5.77206" filterUnits="userSpaceOnUse" color-interpolation-filters="sRGB">
<feFlood flood-opacity="0" result="BackgroundImageFix"/>
<feBlend mode="normal" in="SourceGraphic" in2="BackgroundImageFix" result="shape"/>
<feColorMatrix in="SourceAlpha" type="matrix" values="0 0 0 0 0 0 0 0 0 0 0 0 0 0 0 0 0 0 127 0" result="hardAlpha"/>
<feOffset dy="-0.56112"/>
<feGaussianBlur stdDeviation="0.56112"/>
<feComposite in2="hardAlpha" operator="arithmetic" k2="-1" k3="1"/>
<feColorMatrix type="matrix" values="0 0 0 0 0 0 0 0 0 0 0 0 0 0 0 0 0 0 0.45 0"/>
<feBlend mode="normal" in2="shape" result="effect1_innerShadow_1148_281266"/>
</filter>
<filter id="filter32_ii_1148_281266" x="72.9292" y="65.1294" width="87.0088" height="118.71" filterUnits="userSpaceOnUse" color-interpolation-filters="sRGB">
<feFlood flood-opacity="0" result="BackgroundImageFix"/>
<feBlend mode="normal" in="SourceGraphic" in2="BackgroundImageFix" result="shape"/>
<feColorMatrix in="SourceAlpha" type="matrix" values="0 0 0 0 0 0 0 0 0 0 0 0 0 0 0 0 0 0 127 0" result="hardAlpha"/>
<feOffset dx="21.3823" dy="-21.3823"/>
<feGaussianBlur stdDeviation="18.7095"/>
<feComposite in2="hardAlpha" operator="arithmetic" k2="-1" k3="1"/>
<feColorMatrix type="matrix" values="0 0 0 0 0 0 0 0 0 0 0 0 0 0 0 0 0 0 0.25 0"/>
<feBlend mode="normal" in2="shape" result="effect1_innerShadow_1148_281266"/>
<feColorMatrix in="SourceAlpha" type="matrix" values="0 0 0 0 0 0 0 0 0 0 0 0 0 0 0 0 0 0 127 0" result="hardAlpha"/>
<feOffset dx="-14.2549" dy="21.3823"/>
<feGaussianBlur stdDeviation="10.6911"/>
<feComposite in2="hardAlpha" operator="arithmetic" k2="-1" k3="1"/>
<feColorMatrix type="matrix" values="0 0 0 0 1 0 0 0 0 1 0 0 0 0 1 0 0 0 0.25 0"/>
<feBlend mode="normal" in2="effect1_innerShadow_1148_281266" result="effect2_innerShadow_1148_281266"/>
</filter>
<filter id="filter33_df_1148_281266" x="108.219" y="86.126" width="10.3725" height="67.8999" filterUnits="userSpaceOnUse" color-interpolation-filters="sRGB">
<feFlood flood-opacity="0" result="BackgroundImageFix"/>
<feColorMatrix in="SourceAlpha" type="matrix" values="0 0 0 0 0 0 0 0 0 0 0 0 0 0 0 0 0 0 127 0" result="hardAlpha"/>
<feOffset dy="3.56371"/>
<feGaussianBlur stdDeviation="1.78186"/>
<feComposite in2="hardAlpha" operator="out"/>
<feColorMatrix type="matrix" values="0 0 0 0 1 0 0 0 0 1 0 0 0 0 1 0 0 0 0.25 0"/>
<feBlend mode="normal" in2="BackgroundImageFix" result="effect1_dropShadow_1148_281266"/>
<feBlend mode="normal" in="SourceGraphic" in2="effect1_dropShadow_1148_281266" result="shape"/>
<feGaussianBlur stdDeviation="0.313963" result="effect2_foregroundBlur_1148_281266"/>
</filter>
</defs>
</svg>
