<svg width="268" height="714" viewBox="0 0 268 714" fill="none" xmlns="http://www.w3.org/2000/svg">
<path opacity="0.3" d="M187.74 691.74C158.06 721.42 109.94 721.42 80.2599 691.74C50.58 662.06 50.58 613.94 80.2599 584.26C109.94 554.58 158.06 554.58 187.74 584.26C217.42 613.94 217.42 662.06 187.74 691.74Z" fill="black" fill-opacity="0.12"/>
<path d="M154.627 660.627C142.131 673.124 121.869 673.124 109.373 660.627C96.8758 648.131 96.8758 627.869 109.373 615.373C121.869 602.876 142.131 602.876 154.627 615.373C167.124 627.869 167.124 648.131 154.627 660.627Z" fill="black" fill-opacity="0.12"/>
<g filter="url(#filter0_ii_242_166639)">
<path d="M112 217H152V638C152 649.046 143.046 658 132 658C120.954 658 112 649.046 112 638V217Z" fill="#A6815E"/>
</g>
<path d="M112 343H152V361C152 372.046 143.046 381 132 381C120.954 381 112 372.046 112 361V343Z" fill="url(#paint0_linear_242_166639)"/>
<path opacity="0.1" d="M123.451 559.446C125.936 559.446 128.594 561.199 128.594 564.964C128.594 568.729 126.579 569.508 124.094 569.508C121.608 569.508 119.594 568.729 119.594 564.964C119.594 561.199 120.966 559.446 123.451 559.446Z" fill="black"/>
<path opacity="0.1" d="M127.714 482.525C125.176 482.141 122.608 480.927 122.919 479.201C123.231 477.475 125.353 477.428 127.891 477.812C130.429 478.195 132.422 478.864 132.11 480.59C131.799 482.316 130.252 482.908 127.714 482.525Z" fill="black"/>
<path opacity="0.1" d="M132.688 502.987C127.236 503.134 121.362 501.876 121.27 498.839C121.178 495.801 125.579 495.053 131.032 494.906C136.485 494.76 140.924 495.27 141.016 498.307C141.108 501.344 138.141 502.84 132.688 502.987Z" fill="black"/>
<path opacity="0.1" d="M138.766 435.82C135.303 436.42 131.424 436.209 131.048 434.379C130.672 432.55 133.402 431.685 136.865 431.086C140.329 430.486 143.215 430.379 143.591 432.208C143.967 434.038 142.23 435.221 138.766 435.82Z" fill="black"/>
<path opacity="0.1" d="M138.594 631.783C134.728 631.783 130.594 633.215 130.594 636.289C130.594 639.364 133.728 640 137.594 640C141.46 640 144.594 639.364 144.594 636.289C144.594 633.215 142.46 631.783 138.594 631.783Z" fill="black"/>
<path opacity="0.2" d="M124.496 575.464C130.498 575.905 133.447 576.277 133.202 579.064C132.957 581.85 129.809 583.738 123.808 583.297C117.806 582.855 115.461 579.632 115.706 576.845C115.951 574.058 118.495 575.022 124.496 575.464Z" fill="#E2E8F0"/>
<path opacity="0.2" d="M135.674 521.259C129.65 521.501 125.868 520.431 126.022 523.637C126.176 526.843 130.112 528.319 136.137 528.078C142.161 527.836 144.731 525.022 144.578 521.816C144.424 518.61 141.699 521.017 135.674 521.259Z" fill="#E2E8F0"/>
<path opacity="0.2" d="M136.639 616.287C129.896 617.492 121.235 615.235 122.184 619.675C123.132 624.116 130.843 625.864 137.586 624.659C144.328 623.454 147.563 621.36 146.615 616.919C145.666 612.478 143.382 615.082 136.639 616.287Z" fill="#E2E8F0"/>
<path opacity="0.2" d="M129.561 439.302C122.704 439.695 114.439 436.427 114.746 440.942C115.053 445.458 122.448 448.108 129.305 447.715C136.163 447.322 139.669 445.63 139.362 441.115C139.055 436.599 136.418 438.909 129.561 439.302Z" fill="#E2E8F0"/>
<g filter="url(#filter1_i_242_166639)">
<path d="M133.096 0.000993238C72.1782 0.455575 -7.28887 144.217 0.53601 222.987C3.61273 253.959 16.474 284.066 39.1199 307.8C91.5326 362.733 176.51 362.733 228.923 307.8C251.569 284.065 264.43 253.959 267.507 222.987C275.155 145.996 192.176 -0.439878 133.096 0.000993238Z" fill="#14B8A6"/>
</g>
<path opacity="0.2" d="M193.509 111.081C193.057 114.975 191.049 130.466 200.586 125.518C207.189 122.092 201.846 115.499 193.509 111.081Z" fill="white" fill-opacity="0.2"/>
<path opacity="0.5" d="M196.504 148.657C195.626 154.04 191.825 175.452 206.02 168.55C215.846 163.772 208.421 154.702 196.504 148.657Z" fill="black" fill-opacity="0.12"/>
<path d="M200.807 203.757C204.929 201.826 222.965 220.184 210.262 226.709C201.469 231.226 195.536 210.018 200.807 203.757Z" fill="white" fill-opacity="0.2"/>
<path opacity="0.5" d="M67.7528 188.92C72.1527 190.085 74.1994 215.739 60.2709 212.589C50.6292 210.409 59.6913 190.338 67.7528 188.92Z" fill="black" fill-opacity="0.12"/>
<path opacity="0.3" d="M248.754 207.114C238.992 213.807 232.908 198.116 230.456 187.473C229.633 183.9 233.058 181.478 236.126 183.488C246.945 190.574 256.127 202.059 248.754 207.114Z" fill="black" fill-opacity="0.12"/>
<path opacity="0.8" d="M97.5076 268.204C109.001 271.036 109.177 254.208 107.729 243.383C107.242 239.748 103.185 238.686 101.019 241.647C93.3841 252.085 88.8287 266.066 97.5076 268.204Z" fill="black" fill-opacity="0.12"/>
<path d="M19.6254 227.557C9.07721 226.378 9.3506 216.038 14.2091 206.188C16.6033 201.334 23.4024 203.651 24.1235 209.014L24.1518 209.224C25.5324 219.49 26.7242 228.351 19.6254 227.557Z" fill="black" fill-opacity="0.12"/>
<path d="M181.316 303.827C191.326 300.298 188.728 290.287 181.773 281.786C178.346 277.597 172.245 281.388 172.752 286.775L172.772 286.987C173.742 297.299 174.579 306.201 181.316 303.827Z" fill="black" fill-opacity="0.12"/>
<path d="M58.9903 293.873C54.1072 292.139 53.7905 288.103 55.8151 283.899C58.149 279.052 64.7239 282.647 63.9655 287.972C63.363 292.203 62.2369 295.026 58.9903 293.873Z" fill="black" fill-opacity="0.12"/>
<path opacity="0.5" d="M229.753 279.812C219.498 284.508 216.004 269.75 215.18 258.914C214.846 254.526 219.352 252.376 222.481 255.472C231.343 264.237 237.55 276.242 229.753 279.812Z" fill="black" fill-opacity="0.12"/>
<path opacity="0.7" d="M74.0412 120.571C70.0355 118.409 50.9858 135.713 63.2969 142.949C71.819 147.958 78.9483 127.122 74.0412 120.571Z" fill="white" fill-opacity="0.2"/>
<path opacity="0.5" d="M112.017 158.508C108.803 158.22 101.014 175.34 111.052 176.624C118 177.513 117.014 161.478 112.017 158.508Z" fill="white" fill-opacity="0.2"/>
<path d="M159.633 188.153C156.503 188.94 154.791 207.671 164.691 205.576C171.544 204.125 165.329 189.311 159.633 188.153Z" fill="black" fill-opacity="0.12"/>
<path opacity="0.5" d="M136.364 256.778C140.915 256.696 149.899 280.812 135.64 281.591C125.769 282.131 128.998 260.347 136.364 256.778Z" fill="white" fill-opacity="0.2"/>
<path d="M41.4998 72C43.4997 54.9999 55.2548 38.3999 69.755 38.3999C89.755 -6.10011 168.396 3.05237 184 22C198 38.9999 189.755 53.9999 172.755 57.3999C160.255 59.8999 107.755 63.3999 100.755 101.9C93.755 140.4 64.255 134.9 63.255 109.4C62.255 83.8999 38.3431 98.8334 41.4998 72Z" fill="black" fill-opacity="0.12"/>
<g filter="url(#filter2_ii_242_166639)">
<path d="M38.2551 64.3999C39.9612 49.8974 51.1283 36.8504 63.3749 33.3299C67.1585 32.2423 70.714 30.0211 72.8247 26.698C96.9645 -11.3074 171.855 -2.69301 186.755 15.3999C200.755 32.3999 189.755 47.9999 172.755 51.3999C160.255 53.8999 107.755 57.3999 100.755 95.8999C93.7551 134.4 64.2551 128.9 63.2551 103.4C62.2551 77.8999 35.0985 91.2334 38.2551 64.3999Z" fill="#E2E8F0"/>
</g>
<path d="M197.787 175.33C192.929 157.614 183.942 158.585 180.785 147.179C173.047 119.229 224.99 112.234 228.876 143.782C230.152 154.138 221.104 159.07 222.804 172.903C224.504 186.735 222.561 196.2 215.032 196.928C207.502 197.656 202.644 193.045 197.787 175.33Z" fill="black" fill-opacity="0.12"/>
<g filter="url(#filter3_ii_242_166639)">
<path d="M197.787 168.33C192.929 150.614 183.942 151.585 180.785 140.179C173.047 112.229 224.99 105.234 228.876 136.782C230.152 147.138 221.104 152.07 222.804 165.903C224.504 179.735 222.561 189.2 215.032 189.928C207.502 190.656 202.644 186.045 197.787 168.33Z" fill="#E2E8F0"/>
</g>
<defs>
<filter id="filter0_ii_242_166639" x="96" y="209" width="72" height="472" filterUnits="userSpaceOnUse" color-interpolation-filters="sRGB">
<feFlood flood-opacity="0" result="BackgroundImageFix"/>
<feBlend mode="normal" in="SourceGraphic" in2="BackgroundImageFix" result="shape"/>
<feColorMatrix in="SourceAlpha" type="matrix" values="0 0 0 0 0 0 0 0 0 0 0 0 0 0 0 0 0 0 127 0" result="hardAlpha"/>
<feOffset dx="16" dy="-8"/>
<feGaussianBlur stdDeviation="12"/>
<feComposite in2="hardAlpha" operator="arithmetic" k2="-1" k3="1"/>
<feColorMatrix type="matrix" values="0 0 0 0 0 0 0 0 0 0 0 0 0 0 0 0 0 0 0.25 0"/>
<feBlend mode="normal" in2="shape" result="effect1_innerShadow_242_166639"/>
<feColorMatrix in="SourceAlpha" type="matrix" values="0 0 0 0 0 0 0 0 0 0 0 0 0 0 0 0 0 0 127 0" result="hardAlpha"/>
<feOffset dx="-16" dy="24"/>
<feGaussianBlur stdDeviation="11.5"/>
<feComposite in2="hardAlpha" operator="arithmetic" k2="-1" k3="1"/>
<feColorMatrix type="matrix" values="0 0 0 0 1 0 0 0 0 1 0 0 0 0 1 0 0 0 0.25 0"/>
<feBlend mode="normal" in2="effect1_innerShadow_242_166639" result="effect2_innerShadow_242_166639"/>
</filter>
<filter id="filter1_i_242_166639" x="0" y="-50" width="281" height="399" filterUnits="userSpaceOnUse" color-interpolation-filters="sRGB">
<feFlood flood-opacity="0" result="BackgroundImageFix"/>
<feBlend mode="normal" in="SourceGraphic" in2="BackgroundImageFix" result="shape"/>
<feColorMatrix in="SourceAlpha" type="matrix" values="0 0 0 0 0 0 0 0 0 0 0 0 0 0 0 0 0 0 127 0" result="hardAlpha"/>
<feOffset dx="13" dy="-70"/>
<feGaussianBlur stdDeviation="25"/>
<feComposite in2="hardAlpha" operator="arithmetic" k2="-1" k3="1"/>
<feColorMatrix type="matrix" values="0 0 0 0 0 0 0 0 0 0 0 0 0 0 0 0 0 0 0.25 0"/>
<feBlend mode="normal" in2="shape" result="effect1_innerShadow_242_166639"/>
</filter>
<filter id="filter2_ii_242_166639" x="38" y="-29.352" width="180.297" height="153.008" filterUnits="userSpaceOnUse" color-interpolation-filters="sRGB">
<feFlood flood-opacity="0" result="BackgroundImageFix"/>
<feBlend mode="normal" in="SourceGraphic" in2="BackgroundImageFix" result="shape"/>
<feColorMatrix in="SourceAlpha" type="matrix" values="0 0 0 0 0 0 0 0 0 0 0 0 0 0 0 0 0 0 127 0" result="hardAlpha"/>
<feOffset dy="-5.24142"/>
<feGaussianBlur stdDeviation="4.19314"/>
<feComposite in2="hardAlpha" operator="arithmetic" k2="-1" k3="1"/>
<feColorMatrix type="matrix" values="0 0 0 0 0 0 0 0 0 0 0 0 0 0 0 0 0 0 0.15 0"/>
<feBlend mode="normal" in2="shape" result="effect1_innerShadow_242_166639"/>
<feColorMatrix in="SourceAlpha" type="matrix" values="0 0 0 0 0 0 0 0 0 0 0 0 0 0 0 0 0 0 127 0" result="hardAlpha"/>
<feOffset dx="25.1588" dy="-29.352"/>
<feGaussianBlur stdDeviation="14.676"/>
<feComposite in2="hardAlpha" operator="arithmetic" k2="-1" k3="1"/>
<feColorMatrix type="matrix" values="0 0 0 0 0 0 0 0 0 0 0 0 0 0 0 0 0 0 0.11 0"/>
<feBlend mode="normal" in2="effect1_innerShadow_242_166639" result="effect2_innerShadow_242_166639"/>
</filter>
<filter id="filter3_ii_242_166639" x="180" y="86.648" width="74.1588" height="103.352" filterUnits="userSpaceOnUse" color-interpolation-filters="sRGB">
<feFlood flood-opacity="0" result="BackgroundImageFix"/>
<feBlend mode="normal" in="SourceGraphic" in2="BackgroundImageFix" result="shape"/>
<feColorMatrix in="SourceAlpha" type="matrix" values="0 0 0 0 0 0 0 0 0 0 0 0 0 0 0 0 0 0 127 0" result="hardAlpha"/>
<feOffset dy="-5.24142"/>
<feGaussianBlur stdDeviation="4.19314"/>
<feComposite in2="hardAlpha" operator="arithmetic" k2="-1" k3="1"/>
<feColorMatrix type="matrix" values="0 0 0 0 0 0 0 0 0 0 0 0 0 0 0 0 0 0 0.15 0"/>
<feBlend mode="normal" in2="shape" result="effect1_innerShadow_242_166639"/>
<feColorMatrix in="SourceAlpha" type="matrix" values="0 0 0 0 0 0 0 0 0 0 0 0 0 0 0 0 0 0 127 0" result="hardAlpha"/>
<feOffset dx="25.1588" dy="-29.352"/>
<feGaussianBlur stdDeviation="14.676"/>
<feComposite in2="hardAlpha" operator="arithmetic" k2="-1" k3="1"/>
<feColorMatrix type="matrix" values="0 0 0 0 0 0 0 0 0 0 0 0 0 0 0 0 0 0 0.11 0"/>
<feBlend mode="normal" in2="effect1_innerShadow_242_166639" result="effect2_innerShadow_242_166639"/>
</filter>
<linearGradient id="paint0_linear_242_166639" x1="132" y1="343" x2="132" y2="381" gradientUnits="userSpaceOnUse">
<stop stop-opacity="0.24"/>
<stop offset="1" stop-opacity="0"/>
</linearGradient>
</defs>
</svg>
