<svg width="143" height="210" viewBox="0 0 143 210" fill="none" xmlns="http://www.w3.org/2000/svg">
<path d="M122.058 189.058C94.1356 216.981 48.8643 216.981 20.9419 189.058C-6.98062 161.136 -6.98062 115.864 20.9419 87.9419C48.8644 60.0194 94.1357 60.0194 122.058 87.9419C149.981 115.864 149.981 161.136 122.058 189.058Z" fill="black" fill-opacity="0.12"/>
<path d="M117.815 184.815C92.2362 210.395 50.7638 210.395 25.1845 184.815C-0.394837 159.236 -0.394834 117.764 25.1845 92.1845C50.7639 66.6052 92.2362 66.6052 117.815 92.1845C143.395 117.764 143.395 159.236 117.815 184.815Z" fill="black" fill-opacity="0.2"/>
<g filter="url(#filter0_ii_242_167182)">
<path fill-rule="evenodd" clip-rule="evenodd" d="M71.5 6C36.4299 6 8 34.4299 8 69.5V137.491C8 137.497 8 137.503 8 137.509V140H8.04893C8.65225 155.408 14.8355 170.638 26.5987 182.401C51.397 207.2 91.603 207.2 116.401 182.401C128.164 170.638 134.348 155.408 134.951 140H135V137.522C135 137.507 135 137.493 135 137.478V69.5C135 34.4299 106.57 6 71.5 6Z" fill="#14B8A6"/>
</g>
<path opacity="0.7" d="M101.037 23.3766C93.16 18.9206 84.3322 18.2492 83.2697 19.6647C81.4677 22.0652 89.0538 26.1406 95.4035 30.8004C100.899 34.8337 102.337 40.4927 108.838 38.6367C116.319 36.501 109.227 28.009 101.037 23.3766Z" fill="#E2E8F0"/>
<g filter="url(#filter1_di_242_167182)">
<path d="M99.5005 23.9974C104.987 23.4898 114.566 27.1954 116.791 22.0001C119.017 16.8048 103.365 0.650378 73.5799 0.0158394C43.7953 -0.618699 25.7285 18.0001 28.2302 22.0001C30.732 26.0001 41.4558 18.8156 50.2456 20.3048C60.2525 22.0001 65.4942 42 81.2671 42C97.0401 42 92.6427 24.632 99.5005 23.9974Z" fill="#E2E8F0"/>
</g>
<defs>
<filter id="filter0_ii_242_167182" x="-16" y="6" width="181" height="219" filterUnits="userSpaceOnUse" color-interpolation-filters="sRGB">
<feFlood flood-opacity="0" result="BackgroundImageFix"/>
<feBlend mode="normal" in="SourceGraphic" in2="BackgroundImageFix" result="shape"/>
<feColorMatrix in="SourceAlpha" type="matrix" values="0 0 0 0 0 0 0 0 0 0 0 0 0 0 0 0 0 0 127 0" result="hardAlpha"/>
<feOffset dx="30"/>
<feGaussianBlur stdDeviation="21"/>
<feComposite in2="hardAlpha" operator="arithmetic" k2="-1" k3="1"/>
<feColorMatrix type="matrix" values="0 0 0 0 0 0 0 0 0 0 0 0 0 0 0 0 0 0 0.25 0"/>
<feBlend mode="normal" in2="shape" result="effect1_innerShadow_242_167182"/>
<feColorMatrix in="SourceAlpha" type="matrix" values="0 0 0 0 0 0 0 0 0 0 0 0 0 0 0 0 0 0 127 0" result="hardAlpha"/>
<feOffset dx="-24" dy="24"/>
<feGaussianBlur stdDeviation="20"/>
<feComposite in2="hardAlpha" operator="arithmetic" k2="-1" k3="1"/>
<feColorMatrix type="matrix" values="0 0 0 0 1 0 0 0 0 1 0 0 0 0 1 0 0 0 0.25 0"/>
<feBlend mode="normal" in2="effect1_innerShadow_242_167182" result="effect2_innerShadow_242_167182"/>
</filter>
<filter id="filter1_di_242_167182" x="28" y="-4" width="95" height="49" filterUnits="userSpaceOnUse" color-interpolation-filters="sRGB">
<feFlood flood-opacity="0" result="BackgroundImageFix"/>
<feColorMatrix in="SourceAlpha" type="matrix" values="0 0 0 0 0 0 0 0 0 0 0 0 0 0 0 0 0 0 127 0" result="hardAlpha"/>
<feOffset dy="3"/>
<feComposite in2="hardAlpha" operator="out"/>
<feColorMatrix type="matrix" values="0 0 0 0 0 0 0 0 0 0 0 0 0 0 0 0 0 0 0.2 0"/>
<feBlend mode="normal" in2="BackgroundImageFix" result="effect1_dropShadow_242_167182"/>
<feBlend mode="normal" in="SourceGraphic" in2="effect1_dropShadow_242_167182" result="shape"/>
<feColorMatrix in="SourceAlpha" type="matrix" values="0 0 0 0 0 0 0 0 0 0 0 0 0 0 0 0 0 0 127 0" result="hardAlpha"/>
<feOffset dx="6" dy="-4"/>
<feGaussianBlur stdDeviation="4"/>
<feComposite in2="hardAlpha" operator="arithmetic" k2="-1" k3="1"/>
<feColorMatrix type="matrix" values="0 0 0 0 0 0 0 0 0 0 0 0 0 0 0 0 0 0 0.25 0"/>
<feBlend mode="normal" in2="shape" result="effect2_innerShadow_242_167182"/>
</filter>
</defs>
</svg>
