<svg width="313" height="375" viewBox="0 0 313 375" fill="none" xmlns="http://www.w3.org/2000/svg">
<circle cx="31.7572" cy="31.7572" r="31.7572" transform="matrix(-0.998108 -0.0614837 -0.0614837 0.998108 244.137 267.582)" fill="black" fill-opacity="0.2"/>
<circle cx="45.8715" cy="45.8715" r="45.8715" transform="matrix(-0.998108 -0.0614837 -0.0614837 0.998108 259.092 254.362)" fill="black" fill-opacity="0.12"/>
<g filter="url(#filter0_ii_242_172266)">
<mask id="mask0_242_172266" style="mask-type:alpha" maskUnits="userSpaceOnUse" x="54" y="33" width="183" height="290">
<path d="M210.176 99.6609C204.429 57.6895 165.054 28.4184 123.082 34.1649C80.3388 40.0172 49.727 79.5086 55.5793 122.252L58.7473 145.391C60.678 159.492 73.6742 169.358 87.7752 167.427C101.876 165.496 111.742 152.5 109.811 138.399L106.643 115.261C104.652 100.719 114.827 87.3167 129.368 85.3257C143.91 83.3347 157.312 93.509 159.303 108.051L163.673 139.966L185.631 300.339C187.561 314.44 200.558 324.306 214.659 322.375C228.76 320.445 238.626 307.449 236.695 293.348L210.176 99.6609Z" fill="#CBD5E1"/>
</mask>
<g mask="url(#mask0_242_172266)">
<path d="M210.176 99.6609C204.429 57.6895 165.054 28.4184 123.082 34.1649C80.3388 40.0172 49.727 79.5086 55.5793 122.252L58.7473 145.391C60.678 159.492 73.6742 169.358 87.7752 167.427C101.876 165.496 111.742 152.5 109.811 138.399L106.643 115.261C104.652 100.719 114.827 87.3167 129.368 85.3257C143.91 83.3347 157.312 93.509 159.303 108.051L163.673 139.966L185.631 300.339C187.561 314.44 200.558 324.306 214.659 322.375C228.76 320.445 238.626 307.449 236.695 293.348L210.176 99.6609Z" fill="#CBD5E1"/>
<path fill-rule="evenodd" clip-rule="evenodd" d="M206.609 260.642C187.595 251.438 176.587 239.908 174.903 228.653L178.3 258.668C180.087 270.616 190.95 282.529 210.066 291.783C229.503 301.191 240.622 313.589 241.96 325.14L238.48 294.553C237.058 282.279 226.148 270.1 206.609 260.642Z" fill="#DC2626"/>
<path fill-rule="evenodd" clip-rule="evenodd" d="M198.525 201.599C179.511 192.395 168.503 180.865 166.819 169.61L170.216 199.625C172.003 211.573 182.866 223.486 201.982 232.74C221.419 242.148 232.538 254.546 233.876 266.097L230.396 235.51C228.974 223.236 218.064 211.057 198.525 201.599Z" fill="#DC2626"/>
<path fill-rule="evenodd" clip-rule="evenodd" d="M214.693 319.684C195.679 310.481 184.671 298.95 182.987 287.695L185.51 311.328C187.297 323.275 198.16 335.189 217.276 344.442C236.713 353.851 247.832 366.248 249.17 377.8L246.564 353.595C245.142 341.321 234.232 329.143 214.693 319.684Z" fill="#DC2626"/>
<path fill-rule="evenodd" clip-rule="evenodd" d="M190.004 139.364C170.99 130.161 159.982 118.63 158.298 107.376L161.695 137.391C163.482 149.338 174.345 161.252 193.461 170.505C212.898 179.914 224.017 192.312 225.355 203.863L221.875 173.276C220.453 161.001 209.543 148.823 190.004 139.364Z" fill="#DC2626"/>
<path fill-rule="evenodd" clip-rule="evenodd" d="M184.28 82.6844C163.24 74.4333 148.451 88.1548 140.178 87.0967L151.752 94.4535C160.244 103.045 165.825 99.017 184.94 108.27C204.378 117.679 215.496 130.077 216.835 141.628L214.01 115.828C212.588 103.554 203.819 92.1428 184.28 82.6844Z" fill="#DC2626"/>
<path fill-rule="evenodd" clip-rule="evenodd" d="M68.4547 121.302C79.3066 135.26 87.8319 138.157 104.094 161.941L112.39 145.361C109.222 122.223 91.6016 124.635 80.4443 96.271C73.3186 75.8861 74.1945 59.2559 81.4005 50.1291L61.6819 71.8335C54.0248 81.5315 57.6028 107.344 68.4547 121.302Z" fill="#DC2626"/>
<path fill-rule="evenodd" clip-rule="evenodd" d="M115.618 50.2034C95.3662 73.5316 115.785 93.8512 108.196 102.856L118.041 92.5668C130.261 86.8295 121.326 74.1819 136.732 59.5632C152.397 44.699 168.772 43.0478 180.052 45.8732L154.04 35.6102C142.053 32.6079 131.365 35.2609 115.618 50.2034Z" fill="#DC2626"/>
</g>
</g>
<defs>
<filter id="filter0_ii_242_172266" x="43.0999" y="27.1718" width="201.677" height="301.718" filterUnits="userSpaceOnUse" color-interpolation-filters="sRGB">
<feFlood flood-opacity="0" result="BackgroundImageFix"/>
<feBlend mode="normal" in="SourceGraphic" in2="BackgroundImageFix" result="shape"/>
<feColorMatrix in="SourceAlpha" type="matrix" values="0 0 0 0 0 0 0 0 0 0 0 0 0 0 0 0 0 0 127 0" result="hardAlpha"/>
<feOffset dx="-12.5461" dy="6.27303"/>
<feGaussianBlur stdDeviation="5.88096"/>
<feComposite in2="hardAlpha" operator="arithmetic" k2="-1" k3="1"/>
<feColorMatrix type="matrix" values="0 0 0 0 1 0 0 0 0 1 0 0 0 0 1 0 0 0 0.45 0"/>
<feBlend mode="normal" in2="shape" result="effect1_innerShadow_242_172266"/>
<feColorMatrix in="SourceAlpha" type="matrix" values="0 0 0 0 0 0 0 0 0 0 0 0 0 0 0 0 0 0 127 0" result="hardAlpha"/>
<feOffset dx="7.84128" dy="-6.27303"/>
<feGaussianBlur stdDeviation="10.9778"/>
<feComposite in2="hardAlpha" operator="arithmetic" k2="-1" k3="1"/>
<feColorMatrix type="matrix" values="0 0 0 0 0 0 0 0 0 0 0 0 0 0 0 0 0 0 0.45 0"/>
<feBlend mode="normal" in2="effect1_innerShadow_242_172266" result="effect2_innerShadow_242_172266"/>
</filter>
</defs>
</svg>
