<svg width="342" height="441" viewBox="0 0 342 441" fill="none" xmlns="http://www.w3.org/2000/svg">
<g opacity="0.3">
<path fill-rule="evenodd" clip-rule="evenodd" d="M159.092 226.314C159.092 245.838 146.804 262.573 129.333 269.616C134.687 274.753 139.218 280.698 142.713 287.248C152.639 283.021 163.619 280.673 175.168 280.673C184.105 280.673 192.701 282.079 200.731 284.674C203.998 279.135 208.022 274.071 212.667 269.616C195.196 262.573 182.908 245.838 182.908 226.314C182.908 200.433 204.499 179.452 231.134 179.452C255.099 179.452 274.982 196.438 278.726 218.696C301.992 222.035 319.846 241.518 319.846 265.052C319.846 268.398 319.486 271.662 318.8 274.809C329.122 286.918 335.327 302.461 335.327 319.411C335.327 350.318 314.7 376.546 286.089 385.813C280.619 405.858 261.82 420.632 239.469 420.632C234.586 420.632 229.872 419.926 225.429 418.615C211.664 429.259 194.188 435.627 175.168 435.627C154.931 435.627 136.442 428.419 122.312 416.521C116.276 419.162 109.579 420.632 102.53 420.632C80.1796 420.632 61.3804 405.858 55.9107 385.813C27.2996 376.546 6.67285 350.318 6.67285 319.411C6.67285 302.461 12.8769 286.918 23.1996 274.809C22.5137 271.662 22.1529 268.398 22.1529 265.052C22.1529 241.518 40.0077 222.035 63.2731 218.696C67.0176 196.438 86.9001 179.452 110.865 179.452C137.5 179.452 159.092 200.433 159.092 226.314Z" fill="black" fill-opacity="0.12"/>
</g>
<path d="M152.843 200.866C144.561 188.03 129.547 179.452 112.4 179.452C88.648 179.452 68.9887 195.911 65.6441 217.349C43.2017 220.799 26.076 239.097 26.076 261.153C26.076 263.606 26.2879 266.013 26.6955 268.358C16.0934 279.928 9.69336 294.934 9.69336 311.331C9.69336 340.897 30.5012 365.94 59.2324 374.469C64.6889 393.321 83.0402 407.184 104.839 407.184C111.249 407.184 117.361 405.985 122.935 403.813C136.865 415.512 155.253 422.624 175.41 422.624C194.397 422.624 211.815 416.313 225.416 405.803C229.171 406.705 233.106 407.184 237.16 407.184C258.959 407.184 277.31 393.321 282.766 374.469C311.498 365.94 332.305 340.897 332.305 311.331C332.305 294.934 325.905 279.928 315.303 268.358C315.711 266.013 315.923 263.606 315.923 261.153C315.923 239.097 298.797 220.799 276.355 217.349C273.01 195.911 253.351 179.452 229.599 179.452C213.355 179.452 199.026 187.15 190.52 198.874C185.419 197.131 179.905 196.179 174.15 196.179C166.485 196.179 159.245 197.868 152.843 200.866Z" fill="black" fill-opacity="0.2"/>
<g filter="url(#filter0_i_242_168347)">
<path d="M228 180.753C221.938 180.753 216.159 181.898 210.89 183.973C202.786 173.357 189.603 166.449 174.717 166.449C158.851 166.449 144.919 174.297 137.01 186.119C130.571 182.701 123.145 180.753 115.239 180.753C92.9912 180.753 74.5473 196.183 71.1798 216.363C49.8123 219.5 33.4565 237.003 33.4565 258.125C33.4565 261.171 33.7965 264.141 34.4424 267.004C24.5521 278.111 18.5869 292.487 18.5869 308.19C18.5869 336.423 37.8691 360.367 64.577 368.732C69.4965 387.005 86.9848 400.517 107.804 400.517C114.089 400.517 120.07 399.286 125.493 397.064C138.605 408.115 155.839 414.821 174.717 414.821C192.711 414.821 209.212 408.728 222.072 398.588C226.291 399.842 230.78 400.517 235.435 400.517C256.254 400.517 273.743 387.005 278.662 368.732C305.37 360.367 324.652 336.423 324.652 308.19C324.652 292.487 318.687 278.111 308.797 267.004C309.443 264.141 309.783 261.171 309.783 258.125C309.783 237.003 293.427 219.5 272.059 216.363C268.692 196.183 250.248 180.753 228 180.753Z" fill="#0D9488"/>
</g>
<path d="M130.504 139.985C140.407 122.244 158.729 110.335 179.694 110.335C199.221 110.335 216.454 120.666 226.728 136.417H231.748C265.284 136.417 292.471 165.026 292.471 200.317C292.471 204.938 292.005 209.444 291.119 213.787C301.64 224.039 306.366 240.341 301.92 255.256L299.324 263.964C293.486 283.55 274.041 293.326 255.893 285.799C253.537 284.821 251.319 283.6 249.255 282.173L248.495 284.72C238.56 318.051 205.47 334.687 174.587 321.877C170.054 319.997 165.82 317.587 161.928 314.738C156.729 316.937 151.158 318.394 145.324 318.972L137.916 319.705C111.376 322.334 87.6304 305.96 78.5997 281.171H78.07C54.7998 281.171 35.9355 261.319 35.9355 236.832C35.9355 220.419 44.4091 206.09 57.0036 198.424V193.799C57.0036 162.108 81.4172 136.417 111.533 136.417C118.204 136.417 124.596 137.677 130.504 139.985Z" fill="black" fill-opacity="0.12"/>
<g filter="url(#filter1_i_242_168347)">
<path d="M130.499 141.481C140.401 123.742 158.722 111.833 179.686 111.833C199.212 111.833 216.444 122.163 226.718 137.913H230.497C264.032 137.913 291.217 158.521 291.217 193.81C291.217 198.471 290.743 203.015 289.842 207.392C301.249 217.81 306.536 235.015 301.926 250.68L299.36 259.399C293.488 279.35 273.786 289.245 255.353 281.502C251.983 280.086 248.889 278.179 246.118 275.885C235.577 307.335 203.793 322.642 174.012 310.132C170.335 308.587 166.855 306.688 163.597 304.486C157.759 307.297 151.401 309.145 144.693 309.819L137.286 310.563C111.805 313.123 88.9446 297.967 79.4741 274.658H78.0677C54.7987 274.658 35.9355 254.808 35.9355 230.322C35.9355 213.911 44.4087 199.582 57.0025 191.917V187.292C57.0025 155.603 81.4147 137.913 111.529 137.913C118.2 137.913 124.591 139.174 130.499 141.481Z" fill="#0D9488"/>
</g>
<path d="M82.625 240.605C92.7993 248.809 94.1915 230.087 94.6828 218.889C94.8095 216.003 91.836 213.882 89.5042 215.475C79.2331 222.489 75.0748 234.518 82.625 240.605Z" fill="black" fill-opacity="0.12"/>
<path d="M254.001 201.487C256.159 196.609 279.124 206.003 272.885 221.559C268.566 232.328 253.95 211.165 254.001 201.487Z" fill="white" fill-opacity="0.2"/>
<g filter="url(#filter2_di_242_168347)">
<path d="M272.439 220.832C272.439 223.042 270.649 224.832 268.439 224.832C266.23 224.832 264.439 223.042 264.439 220.832C264.439 218.623 266.23 216.832 268.439 216.832C270.649 216.832 272.439 218.623 272.439 220.832Z" fill="#B91C1C"/>
</g>
<path opacity="0.5" d="M270.342 219.708C270.038 220.093 269.82 219.654 269.434 219.35C269.048 219.047 268.641 218.993 268.945 218.608C269.249 218.222 269.808 218.155 270.193 218.459C270.579 218.763 270.645 219.322 270.342 219.708Z" fill="white"/>
<g filter="url(#filter3_di_242_168347)">
<path d="M205.888 271.431C205.888 274.714 203.227 277.375 199.944 277.375C196.661 277.375 194 274.714 194 271.431C194 268.149 196.661 265.487 199.944 265.487C203.227 265.487 205.888 268.149 205.888 271.431Z" fill="#B91C1C"/>
</g>
<path opacity="0.5" d="M202.771 269.76C202.319 270.333 201.995 269.681 201.422 269.229C200.849 268.778 200.244 268.698 200.695 268.125C201.147 267.552 201.977 267.453 202.55 267.905C203.123 268.356 203.222 269.187 202.771 269.76Z" fill="white"/>
<g filter="url(#filter4_di_242_168347)">
<path d="M267.411 222.491C267.411 226.184 264.417 229.178 260.724 229.178C257.031 229.178 254.037 226.184 254.037 222.491C254.037 218.798 257.031 215.804 260.724 215.804C264.417 215.804 267.411 218.798 267.411 222.491Z" fill="#B91C1C"/>
</g>
<path opacity="0.5" d="M263.905 220.611C263.397 221.256 263.032 220.522 262.387 220.014C261.742 219.506 261.062 219.417 261.57 218.772C262.078 218.127 263.012 218.016 263.657 218.524C264.301 219.032 264.412 219.966 263.905 220.611Z" fill="white"/>
<g filter="url(#filter5_di_242_168347)">
<path d="M274.841 228.435C274.841 231.307 272.513 233.636 269.64 233.636C266.768 233.636 264.439 231.307 264.439 228.435C264.439 225.563 266.768 223.234 269.64 223.234C272.513 223.234 274.841 225.563 274.841 228.435Z" fill="#B91C1C"/>
</g>
<path opacity="0.5" d="M272.114 226.972C271.719 227.474 271.436 226.903 270.934 226.508C270.433 226.113 269.904 226.044 270.299 225.542C270.693 225.041 271.42 224.954 271.922 225.349C272.423 225.744 272.509 226.471 272.114 226.972Z" fill="white"/>
<g filter="url(#filter6_di_242_168347)">
<path d="M79.3738 223.174C79.3738 226.867 76.38 229.861 72.6869 229.861C68.9938 229.861 66 226.867 66 223.174C66 219.481 68.9938 216.487 72.6869 216.487C76.38 216.487 79.3738 219.481 79.3738 223.174Z" fill="#B91C1C"/>
</g>
<path opacity="0.5" d="M75.8674 221.294C75.3596 221.939 74.9946 221.205 74.3499 220.697C73.7052 220.189 73.0249 220.1 73.5327 219.455C74.0405 218.81 74.9748 218.699 75.6195 219.207C76.2642 219.715 76.3752 220.649 75.8674 221.294Z" fill="white"/>
<g filter="url(#filter7_di_242_168347)">
<path d="M82.4956 232.211C82.4956 235.083 80.167 237.412 77.2947 237.412C74.4223 237.412 72.0938 235.083 72.0938 232.211C72.0938 229.338 74.4223 227.01 77.2947 227.01C80.167 227.01 82.4956 229.338 82.4956 232.211Z" fill="#B91C1C"/>
</g>
<path opacity="0.5" d="M79.7687 230.748C79.3738 231.25 79.0899 230.679 78.5885 230.284C78.087 229.889 77.5579 229.819 77.9528 229.318C78.3478 228.816 79.0745 228.73 79.5759 229.125C80.0774 229.52 80.1637 230.247 79.7687 230.748Z" fill="white"/>
<path d="M172.59 245.602C180.045 242.799 179.919 232.377 178.925 227.516C186.132 230.04 184.871 226.275 188.243 224.012C185.229 231.078 193.403 236.874 197.866 238.888C198.348 246.109 201.285 248.098 202.99 248.25C203.108 248.249 203.229 248.25 203.351 248.254C203.239 248.262 203.118 248.261 202.99 248.25C194.845 248.311 195.736 259.878 197.228 265.738C190.918 257.572 184.989 258.97 182.814 260.689C180.569 250.157 175.063 246.243 172.59 245.602Z" fill="black" fill-opacity="0.12"/>
<path d="M122.887 92.9772C107.432 103.261 78.1577 103.135 87.4224 119.831C79.2635 126.442 72.1252 150.006 75.4228 159.947C80.2115 178.789 100.13 187.255 111.039 182.259C118.578 202.217 145.214 211.931 166.515 203.992C169.146 203.011 171.634 201.806 173.965 200.409C178.141 202.193 182.688 203.366 187.487 203.793L192.784 204.265C211.011 205.89 234.719 193.757 238.621 176.202C257.476 172.3 265.278 161.081 265.278 145.542C265.278 135.127 260.914 118.677 251.906 113.812C258.345 90.8817 212.242 93.1733 201.691 85.1749L122.887 92.9772Z" fill="black" fill-opacity="0.12"/>
<path d="M178 266.5C209.593 255.986 217.683 224.674 224.031 211.144C226.718 198.779 123.365 176.488 71.3524 166.888C58.3205 199.412 90.8854 221.93 108.5 233C126.116 244.07 138.51 279.643 178 266.5Z" fill="black" fill-opacity="0.12"/>
<g filter="url(#filter8_ii_242_168347)">
<path d="M178.406 260.629C211.937 252.329 220.203 216.003 226.501 204C228.911 192.909 127.243 163.694 71.001 153C58.2555 181.94 84.0344 213.365 103.383 224.065C122.732 234.765 136.492 271.005 178.406 260.629Z" fill="#E2E8F0"/>
</g>
<path d="M208.143 30.9142C200.473 16.7943 186.289 13 170.051 13C154.927 13 141.58 21.2223 133.622 33.7586C133.622 33.7586 123.783 34.497 107.047 47.3952C90.3119 60.2934 72.9615 98.2714 82.9942 119.212C74.1591 127.504 67.4029 156.826 70.9738 169.294L72.9615 176.235C77.5095 192.114 99.7286 199.991 114.006 193.827C122.17 218.86 146.984 228.006 170.051 218.048C172.9 216.818 175.594 215.307 178.118 213.554C182.64 215.792 187.564 217.263 192.761 217.799L198.497 218.392C218.234 220.429 235.941 206.933 243.277 188.38H244.366C262.389 188.38 277 172.581 277 153.091C277 140.028 273.682 114.503 263.928 108.401C270.901 79.6407 254.702 57.4271 243.277 47.3952C231.851 37.3633 215.116 30.9142 208.143 30.9142Z" fill="black" fill-opacity="0.12"/>
<g filter="url(#filter9_i_242_168347)">
<path d="M208.81 28.4856C201.103 14.7035 186.851 11 170.534 11C155.338 11 141.926 19.0256 133.93 31.262C133.93 31.262 124.043 31.9827 107.226 44.5723C90.41 57.162 72.9759 94.2314 83.057 114.671C74.1792 122.765 64.4145 146.556 68.0027 158.726L70 165.5C74.5699 181 99.8723 193.517 114.218 187.501C122.422 211.935 147.356 220.862 170.534 211.143C173.397 209.942 176.104 208.467 178.64 206.756C183.184 208.94 188.132 210.376 193.354 210.9L199.118 211.478C218.95 213.466 236.743 200.293 244.114 182.185H245.208C263.319 182.185 282 163.524 282 144.5C282 131.75 274.666 110.075 264.865 104.119C271.871 76.0464 255.594 54.3643 244.114 44.5723C232.633 34.7804 215.817 28.4856 208.81 28.4856Z" fill="#0D9488"/>
</g>
<path d="M55.8354 314.629C44.4126 307 56.3489 299.275 64.5056 295.176C66.9204 293.962 69.7072 295.823 69.5894 298.636C69.0591 311.305 64.4787 320.402 55.8354 314.629Z" fill="black" fill-opacity="0.12"/>
<path d="M234.419 360.557C222.005 366.609 218.606 344.195 218.234 331.701C218.144 328.689 221.291 327.167 223.451 329.184C234.546 339.546 243.661 356.051 234.419 360.557Z" fill="black" fill-opacity="0.12"/>
<path d="M139.56 153.806C140.009 150.78 139.373 148.437 137.375 146.3C139.936 143.261 140.394 138.444 139.004 133.69C140.757 134.64 146.271 132.073 148.134 131.128C147.156 135.388 149.908 141.445 151.45 141.229C146.711 143.159 145.517 146.467 147.294 150.032C145.25 150.812 140.465 151.781 139.56 153.806C139.521 154.073 139.472 154.346 139.416 154.624C139.394 154.333 139.446 154.061 139.56 153.806Z" fill="white" fill-opacity="0.2"/>
<path d="M270.437 290.714C272.013 294.847 271.845 298.353 269.688 301.994C274.252 305.488 276.398 312.148 275.917 319.294C278.096 317.408 286.682 319.316 289.608 320.07C286.9 314.359 288.899 304.947 291.144 304.772C283.851 303.522 281.135 299.222 282.534 293.635C279.404 293.17 272.346 293.291 270.437 290.714C270.298 290.349 270.145 289.979 269.979 289.603C270.037 290.021 270.196 290.389 270.437 290.714Z" fill="white" fill-opacity="0.2"/>
<path d="M214.308 138.117C228.236 135.409 225.753 122.939 217.832 114.05C215.731 111.693 211.981 113.506 211.401 116.682C209.335 127.992 204.854 139.956 214.308 138.117Z" fill="black" fill-opacity="0.12"/>
<g filter="url(#filter10_di_242_168347)">
<path d="M153 101C153 103.209 151.209 105 149 105C146.791 105 145 103.209 145 101C145 98.7909 146.791 97 149 97C151.209 97 153 98.7909 153 101Z" fill="#B91C1C"/>
</g>
<path opacity="0.5" d="M150.902 99.8752C150.598 100.261 150.38 99.8219 149.995 99.5181C149.609 99.2143 149.202 99.1608 149.506 98.7751C149.809 98.3895 150.368 98.3231 150.754 98.6268C151.14 98.9306 151.206 99.4895 150.902 99.8752Z" fill="white"/>
<g filter="url(#filter11_di_242_168347)">
<path d="M162.29 100.201C162.29 103.073 159.961 105.402 157.089 105.402C154.216 105.402 151.888 103.073 151.888 100.201C151.888 97.3285 154.216 95 157.089 95C159.961 95 162.29 97.3285 162.29 100.201Z" fill="#B91C1C"/>
</g>
<path opacity="0.5" d="M159.563 98.7383C159.168 99.2397 158.884 98.669 158.382 98.274C157.881 97.8791 157.352 97.8095 157.747 97.308C158.142 96.8066 158.868 96.7203 159.37 97.1152C159.871 97.5102 159.958 98.2369 159.563 98.7383Z" fill="white"/>
<g filter="url(#filter12_di_242_168347)">
<path d="M104.402 327.201C104.402 330.073 102.073 332.402 99.2009 332.402C96.3285 332.402 94 330.073 94 327.201C94 324.329 96.3285 322 99.2009 322C102.073 322 104.402 324.329 104.402 327.201Z" fill="#B91C1C"/>
</g>
<path opacity="0.5" d="M101.675 325.738C101.28 326.24 100.996 325.669 100.495 325.274C99.9933 324.879 99.4641 324.809 99.8591 324.308C100.254 323.807 100.981 323.72 101.482 324.115C101.984 324.51 102.07 325.237 101.675 325.738Z" fill="white"/>
<g filter="url(#filter13_di_242_168347)">
<path d="M215.86 97.0698C215.86 99.9422 213.531 102.271 210.659 102.271C207.787 102.271 205.458 99.9422 205.458 97.0698C205.458 94.1974 207.787 91.8689 210.659 91.8689C213.531 91.8689 215.86 94.1974 215.86 97.0698Z" fill="#B91C1C"/>
</g>
<path opacity="0.5" d="M213.133 95.6072C212.738 96.1086 212.454 95.5379 211.953 95.1429C211.451 94.748 210.922 94.6784 211.317 94.1769C211.712 93.6755 212.439 93.5892 212.94 93.9841C213.442 94.3791 213.528 95.1057 213.133 95.6072Z" fill="white"/>
<g filter="url(#filter14_di_242_168347)">
<path d="M309.402 286.201C309.402 289.073 307.073 291.402 304.201 291.402C301.329 291.402 299 289.073 299 286.201C299 283.329 301.329 281 304.201 281C307.073 281 309.402 283.329 309.402 286.201Z" fill="#B91C1C"/>
</g>
<path opacity="0.5" d="M306.675 284.738C306.28 285.24 305.996 284.669 305.495 284.274C304.993 283.879 304.464 283.809 304.859 283.308C305.254 282.807 305.981 282.72 306.482 283.115C306.984 283.51 307.07 284.237 306.675 284.738Z" fill="white"/>
<g filter="url(#filter15_di_242_168347)">
<path d="M159.317 110.089C159.317 113.782 156.323 116.776 152.63 116.776C148.937 116.776 145.943 113.782 145.943 110.089C145.943 106.396 148.937 103.402 152.63 103.402C156.323 103.402 159.317 106.396 159.317 110.089Z" fill="#B91C1C"/>
</g>
<path opacity="0.5" d="M155.811 108.208C155.303 108.853 154.938 108.119 154.293 107.611C153.649 107.104 152.968 107.014 153.476 106.369C153.984 105.725 154.918 105.614 155.563 106.121C156.208 106.629 156.319 107.564 155.811 108.208Z" fill="white"/>
<path d="M110.773 342.311C116.534 344.478 116.437 352.532 115.668 356.288C121.238 354.338 120.263 357.248 122.869 358.997C120.54 353.536 126.857 349.057 130.306 347.5C130.679 341.92 132.948 340.383 134.266 340.265C134.357 340.266 134.45 340.265 134.545 340.262C134.458 340.256 134.365 340.257 134.266 340.265C127.971 340.218 128.66 331.279 129.813 326.751C124.937 333.061 120.355 331.981 118.674 330.652C116.939 338.792 112.684 341.816 110.773 342.311Z" fill="black" fill-opacity="0.12"/>
<path d="M131.834 94.6321C127.865 88.6673 120.496 92.2997 117.308 94.8615C117.221 89.377 115.481 87.5801 113.922 87.2606C113.432 87.3924 112.907 87.4451 112.347 87.4055C112.783 87.2279 113.34 87.1413 113.922 87.2606C118.525 86.0238 120.137 77.8196 120.36 73.466C125.361 70.5836 125.994 67.1906 125.65 65.5583C125.618 65.4488 125.587 65.3366 125.558 65.2218C125.593 65.3234 125.624 65.4359 125.65 65.5583C127.854 73.0879 135.833 68.3601 139.599 65C135.473 73.6041 138.039 78.6283 139.837 80.0649C132.952 85.6989 131.633 92.1239 131.834 94.6321Z" fill="black" fill-opacity="0.12"/>
<path d="M169.605 3.65533C148.77 3.65533 129.854 23.455 123 35.1825C139.449 31.9841 154.984 47.9762 156.812 66.2528C158.639 84.5294 163.666 111.487 185.141 105.091C206.616 98.6938 196.107 61.6836 212.099 55.7437C224.892 50.9918 228.7 38.8378 229.004 35.1825C214.383 7.76758 195.65 3.65533 169.605 3.65533Z" fill="black" fill-opacity="0.12"/>
<g filter="url(#filter16_ii_242_168347)">
<path d="M169.605 0C148.77 0 129.854 23.455 123 35.1825C139.449 31.9841 154.984 44.3208 156.812 62.5975C158.639 80.8741 163.666 107.832 185.141 101.435C206.616 95.0385 196.107 58.0283 212.099 52.0884C224.892 47.3365 228.7 38.8378 229.004 35.1825C214.383 7.76757 195.65 0 169.605 0Z" fill="#E2E8F0"/>
</g>
<defs>
<filter id="filter0_i_242_168347" x="18.5869" y="119.815" width="306.065" height="295.007" filterUnits="userSpaceOnUse" color-interpolation-filters="sRGB">
<feFlood flood-opacity="0" result="BackgroundImageFix"/>
<feBlend mode="normal" in="SourceGraphic" in2="BackgroundImageFix" result="shape"/>
<feColorMatrix in="SourceAlpha" type="matrix" values="0 0 0 0 0 0 0 0 0 0 0 0 0 0 0 0 0 0 127 0" result="hardAlpha"/>
<feOffset dy="-46.6341"/>
<feGaussianBlur stdDeviation="23.3171"/>
<feComposite in2="hardAlpha" operator="arithmetic" k2="-1" k3="1"/>
<feColorMatrix type="matrix" values="0 0 0 0 0 0 0 0 0 0 0 0 0 0 0 0 0 0 0.25 0"/>
<feBlend mode="normal" in2="shape" result="effect1_innerShadow_242_168347"/>
</filter>
<filter id="filter1_i_242_168347" x="35.9355" y="65.1989" width="267.652" height="249.296" filterUnits="userSpaceOnUse" color-interpolation-filters="sRGB">
<feFlood flood-opacity="0" result="BackgroundImageFix"/>
<feBlend mode="normal" in="SourceGraphic" in2="BackgroundImageFix" result="shape"/>
<feColorMatrix in="SourceAlpha" type="matrix" values="0 0 0 0 0 0 0 0 0 0 0 0 0 0 0 0 0 0 127 0" result="hardAlpha"/>
<feOffset dy="-46.6341"/>
<feGaussianBlur stdDeviation="23.3171"/>
<feComposite in2="hardAlpha" operator="arithmetic" k2="-1" k3="1"/>
<feColorMatrix type="matrix" values="0 0 0 0 0 0 0 0 0 0 0 0 0 0 0 0 0 0 0.25 0"/>
<feBlend mode="normal" in2="shape" result="effect1_innerShadow_242_168347"/>
</filter>
<filter id="filter2_di_242_168347" x="262.154" y="214.547" width="12.5709" height="12.5709" filterUnits="userSpaceOnUse" color-interpolation-filters="sRGB">
<feFlood flood-opacity="0" result="BackgroundImageFix"/>
<feColorMatrix in="SourceAlpha" type="matrix" values="0 0 0 0 0 0 0 0 0 0 0 0 0 0 0 0 0 0 127 0" result="hardAlpha"/>
<feOffset dx="-2.28545" dy="2.28545"/>
<feComposite in2="hardAlpha" operator="out"/>
<feColorMatrix type="matrix" values="0 0 0 0 0 0 0 0 0 0 0 0 0 0 0 0 0 0 0.12 0"/>
<feBlend mode="normal" in2="BackgroundImageFix" result="effect1_dropShadow_242_168347"/>
<feBlend mode="normal" in="SourceGraphic" in2="effect1_dropShadow_242_168347" result="shape"/>
<feColorMatrix in="SourceAlpha" type="matrix" values="0 0 0 0 0 0 0 0 0 0 0 0 0 0 0 0 0 0 127 0" result="hardAlpha"/>
<feOffset dx="2.28545" dy="-2.28545"/>
<feGaussianBlur stdDeviation="1.14272"/>
<feComposite in2="hardAlpha" operator="arithmetic" k2="-1" k3="1"/>
<feColorMatrix type="matrix" values="0 0 0 0 0 0 0 0 0 0 0 0 0 0 0 0 0 0 0.25 0"/>
<feBlend mode="normal" in2="shape" result="effect2_innerShadow_242_168347"/>
</filter>
<filter id="filter3_di_242_168347" x="191.715" y="263.202" width="16.4586" height="16.4587" filterUnits="userSpaceOnUse" color-interpolation-filters="sRGB">
<feFlood flood-opacity="0" result="BackgroundImageFix"/>
<feColorMatrix in="SourceAlpha" type="matrix" values="0 0 0 0 0 0 0 0 0 0 0 0 0 0 0 0 0 0 127 0" result="hardAlpha"/>
<feOffset dx="-2.28545" dy="2.28545"/>
<feComposite in2="hardAlpha" operator="out"/>
<feColorMatrix type="matrix" values="0 0 0 0 0 0 0 0 0 0 0 0 0 0 0 0 0 0 0.12 0"/>
<feBlend mode="normal" in2="BackgroundImageFix" result="effect1_dropShadow_242_168347"/>
<feBlend mode="normal" in="SourceGraphic" in2="effect1_dropShadow_242_168347" result="shape"/>
<feColorMatrix in="SourceAlpha" type="matrix" values="0 0 0 0 0 0 0 0 0 0 0 0 0 0 0 0 0 0 127 0" result="hardAlpha"/>
<feOffset dx="2.28545" dy="-2.28545"/>
<feGaussianBlur stdDeviation="1.14272"/>
<feComposite in2="hardAlpha" operator="arithmetic" k2="-1" k3="1"/>
<feColorMatrix type="matrix" values="0 0 0 0 0 0 0 0 0 0 0 0 0 0 0 0 0 0 0.25 0"/>
<feBlend mode="normal" in2="shape" result="effect2_innerShadow_242_168347"/>
</filter>
<filter id="filter4_di_242_168347" x="251.752" y="213.519" width="17.9449" height="17.9447" filterUnits="userSpaceOnUse" color-interpolation-filters="sRGB">
<feFlood flood-opacity="0" result="BackgroundImageFix"/>
<feColorMatrix in="SourceAlpha" type="matrix" values="0 0 0 0 0 0 0 0 0 0 0 0 0 0 0 0 0 0 127 0" result="hardAlpha"/>
<feOffset dx="-2.28545" dy="2.28545"/>
<feComposite in2="hardAlpha" operator="out"/>
<feColorMatrix type="matrix" values="0 0 0 0 0 0 0 0 0 0 0 0 0 0 0 0 0 0 0.12 0"/>
<feBlend mode="normal" in2="BackgroundImageFix" result="effect1_dropShadow_242_168347"/>
<feBlend mode="normal" in="SourceGraphic" in2="effect1_dropShadow_242_168347" result="shape"/>
<feColorMatrix in="SourceAlpha" type="matrix" values="0 0 0 0 0 0 0 0 0 0 0 0 0 0 0 0 0 0 127 0" result="hardAlpha"/>
<feOffset dx="2.28545" dy="-2.28545"/>
<feGaussianBlur stdDeviation="1.14272"/>
<feComposite in2="hardAlpha" operator="arithmetic" k2="-1" k3="1"/>
<feColorMatrix type="matrix" values="0 0 0 0 0 0 0 0 0 0 0 0 0 0 0 0 0 0 0.25 0"/>
<feBlend mode="normal" in2="shape" result="effect2_innerShadow_242_168347"/>
</filter>
<filter id="filter5_di_242_168347" x="262.154" y="220.949" width="14.9723" height="14.9727" filterUnits="userSpaceOnUse" color-interpolation-filters="sRGB">
<feFlood flood-opacity="0" result="BackgroundImageFix"/>
<feColorMatrix in="SourceAlpha" type="matrix" values="0 0 0 0 0 0 0 0 0 0 0 0 0 0 0 0 0 0 127 0" result="hardAlpha"/>
<feOffset dx="-2.28545" dy="2.28545"/>
<feComposite in2="hardAlpha" operator="out"/>
<feColorMatrix type="matrix" values="0 0 0 0 0 0 0 0 0 0 0 0 0 0 0 0 0 0 0.12 0"/>
<feBlend mode="normal" in2="BackgroundImageFix" result="effect1_dropShadow_242_168347"/>
<feBlend mode="normal" in="SourceGraphic" in2="effect1_dropShadow_242_168347" result="shape"/>
<feColorMatrix in="SourceAlpha" type="matrix" values="0 0 0 0 0 0 0 0 0 0 0 0 0 0 0 0 0 0 127 0" result="hardAlpha"/>
<feOffset dx="2.28545" dy="-2.28545"/>
<feGaussianBlur stdDeviation="1.14272"/>
<feComposite in2="hardAlpha" operator="arithmetic" k2="-1" k3="1"/>
<feColorMatrix type="matrix" values="0 0 0 0 0 0 0 0 0 0 0 0 0 0 0 0 0 0 0.25 0"/>
<feBlend mode="normal" in2="shape" result="effect2_innerShadow_242_168347"/>
</filter>
<filter id="filter6_di_242_168347" x="63.7146" y="214.202" width="17.9449" height="17.9447" filterUnits="userSpaceOnUse" color-interpolation-filters="sRGB">
<feFlood flood-opacity="0" result="BackgroundImageFix"/>
<feColorMatrix in="SourceAlpha" type="matrix" values="0 0 0 0 0 0 0 0 0 0 0 0 0 0 0 0 0 0 127 0" result="hardAlpha"/>
<feOffset dx="-2.28545" dy="2.28545"/>
<feComposite in2="hardAlpha" operator="out"/>
<feColorMatrix type="matrix" values="0 0 0 0 0 0 0 0 0 0 0 0 0 0 0 0 0 0 0.12 0"/>
<feBlend mode="normal" in2="BackgroundImageFix" result="effect1_dropShadow_242_168347"/>
<feBlend mode="normal" in="SourceGraphic" in2="effect1_dropShadow_242_168347" result="shape"/>
<feColorMatrix in="SourceAlpha" type="matrix" values="0 0 0 0 0 0 0 0 0 0 0 0 0 0 0 0 0 0 127 0" result="hardAlpha"/>
<feOffset dx="2.28545" dy="-2.28545"/>
<feGaussianBlur stdDeviation="1.14272"/>
<feComposite in2="hardAlpha" operator="arithmetic" k2="-1" k3="1"/>
<feColorMatrix type="matrix" values="0 0 0 0 0 0 0 0 0 0 0 0 0 0 0 0 0 0 0.25 0"/>
<feBlend mode="normal" in2="shape" result="effect2_innerShadow_242_168347"/>
</filter>
<filter id="filter7_di_242_168347" x="69.8083" y="224.724" width="14.9723" height="14.9727" filterUnits="userSpaceOnUse" color-interpolation-filters="sRGB">
<feFlood flood-opacity="0" result="BackgroundImageFix"/>
<feColorMatrix in="SourceAlpha" type="matrix" values="0 0 0 0 0 0 0 0 0 0 0 0 0 0 0 0 0 0 127 0" result="hardAlpha"/>
<feOffset dx="-2.28545" dy="2.28545"/>
<feComposite in2="hardAlpha" operator="out"/>
<feColorMatrix type="matrix" values="0 0 0 0 0 0 0 0 0 0 0 0 0 0 0 0 0 0 0.12 0"/>
<feBlend mode="normal" in2="BackgroundImageFix" result="effect1_dropShadow_242_168347"/>
<feBlend mode="normal" in="SourceGraphic" in2="effect1_dropShadow_242_168347" result="shape"/>
<feColorMatrix in="SourceAlpha" type="matrix" values="0 0 0 0 0 0 0 0 0 0 0 0 0 0 0 0 0 0 127 0" result="hardAlpha"/>
<feOffset dx="2.28545" dy="-2.28545"/>
<feGaussianBlur stdDeviation="1.14272"/>
<feComposite in2="hardAlpha" operator="arithmetic" k2="-1" k3="1"/>
<feColorMatrix type="matrix" values="0 0 0 0 0 0 0 0 0 0 0 0 0 0 0 0 0 0 0.25 0"/>
<feBlend mode="normal" in2="shape" result="effect2_innerShadow_242_168347"/>
</filter>
<filter id="filter8_ii_242_168347" x="67.5977" y="132.746" width="176.306" height="129.73" filterUnits="userSpaceOnUse" color-interpolation-filters="sRGB">
<feFlood flood-opacity="0" result="BackgroundImageFix"/>
<feBlend mode="normal" in="SourceGraphic" in2="BackgroundImageFix" result="shape"/>
<feColorMatrix in="SourceAlpha" type="matrix" values="0 0 0 0 0 0 0 0 0 0 0 0 0 0 0 0 0 0 127 0" result="hardAlpha"/>
<feOffset dy="-3.61679"/>
<feGaussianBlur stdDeviation="2.89343"/>
<feComposite in2="hardAlpha" operator="arithmetic" k2="-1" k3="1"/>
<feColorMatrix type="matrix" values="0 0 0 0 0 0 0 0 0 0 0 0 0 0 0 0 0 0 0.15 0"/>
<feBlend mode="normal" in2="shape" result="effect1_innerShadow_242_168347"/>
<feColorMatrix in="SourceAlpha" type="matrix" values="0 0 0 0 0 0 0 0 0 0 0 0 0 0 0 0 0 0 127 0" result="hardAlpha"/>
<feOffset dx="17.3606" dy="-20.254"/>
<feGaussianBlur stdDeviation="10.127"/>
<feComposite in2="hardAlpha" operator="arithmetic" k2="-1" k3="1"/>
<feColorMatrix type="matrix" values="0 0 0 0 0 0 0 0 0 0 0 0 0 0 0 0 0 0 0.11 0"/>
<feBlend mode="normal" in2="effect1_innerShadow_242_168347" result="effect2_innerShadow_242_168347"/>
</filter>
<filter id="filter9_i_242_168347" x="67.2402" y="-35.6341" width="214.76" height="250.634" filterUnits="userSpaceOnUse" color-interpolation-filters="sRGB">
<feFlood flood-opacity="0" result="BackgroundImageFix"/>
<feBlend mode="normal" in="SourceGraphic" in2="BackgroundImageFix" result="shape"/>
<feColorMatrix in="SourceAlpha" type="matrix" values="0 0 0 0 0 0 0 0 0 0 0 0 0 0 0 0 0 0 127 0" result="hardAlpha"/>
<feOffset dy="-46.6341"/>
<feGaussianBlur stdDeviation="23.3171"/>
<feComposite in2="hardAlpha" operator="arithmetic" k2="-1" k3="1"/>
<feColorMatrix type="matrix" values="0 0 0 0 0 0 0 0 0 0 0 0 0 0 0 0 0 0 0.25 0"/>
<feBlend mode="normal" in2="shape" result="effect1_innerShadow_242_168347"/>
</filter>
<filter id="filter10_di_242_168347" x="142.715" y="94.7146" width="12.5709" height="12.5709" filterUnits="userSpaceOnUse" color-interpolation-filters="sRGB">
<feFlood flood-opacity="0" result="BackgroundImageFix"/>
<feColorMatrix in="SourceAlpha" type="matrix" values="0 0 0 0 0 0 0 0 0 0 0 0 0 0 0 0 0 0 127 0" result="hardAlpha"/>
<feOffset dx="-2.28545" dy="2.28545"/>
<feComposite in2="hardAlpha" operator="out"/>
<feColorMatrix type="matrix" values="0 0 0 0 0 0 0 0 0 0 0 0 0 0 0 0 0 0 0.12 0"/>
<feBlend mode="normal" in2="BackgroundImageFix" result="effect1_dropShadow_242_168347"/>
<feBlend mode="normal" in="SourceGraphic" in2="effect1_dropShadow_242_168347" result="shape"/>
<feColorMatrix in="SourceAlpha" type="matrix" values="0 0 0 0 0 0 0 0 0 0 0 0 0 0 0 0 0 0 127 0" result="hardAlpha"/>
<feOffset dx="2.28545" dy="-2.28545"/>
<feGaussianBlur stdDeviation="1.14272"/>
<feComposite in2="hardAlpha" operator="arithmetic" k2="-1" k3="1"/>
<feColorMatrix type="matrix" values="0 0 0 0 0 0 0 0 0 0 0 0 0 0 0 0 0 0 0.25 0"/>
<feBlend mode="normal" in2="shape" result="effect2_innerShadow_242_168347"/>
</filter>
<filter id="filter11_di_242_168347" x="149.602" y="92.7146" width="14.9723" height="14.9727" filterUnits="userSpaceOnUse" color-interpolation-filters="sRGB">
<feFlood flood-opacity="0" result="BackgroundImageFix"/>
<feColorMatrix in="SourceAlpha" type="matrix" values="0 0 0 0 0 0 0 0 0 0 0 0 0 0 0 0 0 0 127 0" result="hardAlpha"/>
<feOffset dx="-2.28545" dy="2.28545"/>
<feComposite in2="hardAlpha" operator="out"/>
<feColorMatrix type="matrix" values="0 0 0 0 0 0 0 0 0 0 0 0 0 0 0 0 0 0 0.12 0"/>
<feBlend mode="normal" in2="BackgroundImageFix" result="effect1_dropShadow_242_168347"/>
<feBlend mode="normal" in="SourceGraphic" in2="effect1_dropShadow_242_168347" result="shape"/>
<feColorMatrix in="SourceAlpha" type="matrix" values="0 0 0 0 0 0 0 0 0 0 0 0 0 0 0 0 0 0 127 0" result="hardAlpha"/>
<feOffset dx="2.28545" dy="-2.28545"/>
<feGaussianBlur stdDeviation="1.14272"/>
<feComposite in2="hardAlpha" operator="arithmetic" k2="-1" k3="1"/>
<feColorMatrix type="matrix" values="0 0 0 0 0 0 0 0 0 0 0 0 0 0 0 0 0 0 0.25 0"/>
<feBlend mode="normal" in2="shape" result="effect2_innerShadow_242_168347"/>
</filter>
<filter id="filter12_di_242_168347" x="91.7146" y="319.715" width="14.9723" height="14.9727" filterUnits="userSpaceOnUse" color-interpolation-filters="sRGB">
<feFlood flood-opacity="0" result="BackgroundImageFix"/>
<feColorMatrix in="SourceAlpha" type="matrix" values="0 0 0 0 0 0 0 0 0 0 0 0 0 0 0 0 0 0 127 0" result="hardAlpha"/>
<feOffset dx="-2.28545" dy="2.28545"/>
<feComposite in2="hardAlpha" operator="out"/>
<feColorMatrix type="matrix" values="0 0 0 0 0 0 0 0 0 0 0 0 0 0 0 0 0 0 0.12 0"/>
<feBlend mode="normal" in2="BackgroundImageFix" result="effect1_dropShadow_242_168347"/>
<feBlend mode="normal" in="SourceGraphic" in2="effect1_dropShadow_242_168347" result="shape"/>
<feColorMatrix in="SourceAlpha" type="matrix" values="0 0 0 0 0 0 0 0 0 0 0 0 0 0 0 0 0 0 127 0" result="hardAlpha"/>
<feOffset dx="2.28545" dy="-2.28545"/>
<feGaussianBlur stdDeviation="1.14272"/>
<feComposite in2="hardAlpha" operator="arithmetic" k2="-1" k3="1"/>
<feColorMatrix type="matrix" values="0 0 0 0 0 0 0 0 0 0 0 0 0 0 0 0 0 0 0.25 0"/>
<feBlend mode="normal" in2="shape" result="effect2_innerShadow_242_168347"/>
</filter>
<filter id="filter13_di_242_168347" x="203.173" y="89.5834" width="14.9723" height="14.9727" filterUnits="userSpaceOnUse" color-interpolation-filters="sRGB">
<feFlood flood-opacity="0" result="BackgroundImageFix"/>
<feColorMatrix in="SourceAlpha" type="matrix" values="0 0 0 0 0 0 0 0 0 0 0 0 0 0 0 0 0 0 127 0" result="hardAlpha"/>
<feOffset dx="-2.28545" dy="2.28545"/>
<feComposite in2="hardAlpha" operator="out"/>
<feColorMatrix type="matrix" values="0 0 0 0 0 0 0 0 0 0 0 0 0 0 0 0 0 0 0.12 0"/>
<feBlend mode="normal" in2="BackgroundImageFix" result="effect1_dropShadow_242_168347"/>
<feBlend mode="normal" in="SourceGraphic" in2="effect1_dropShadow_242_168347" result="shape"/>
<feColorMatrix in="SourceAlpha" type="matrix" values="0 0 0 0 0 0 0 0 0 0 0 0 0 0 0 0 0 0 127 0" result="hardAlpha"/>
<feOffset dx="2.28545" dy="-2.28545"/>
<feGaussianBlur stdDeviation="1.14272"/>
<feComposite in2="hardAlpha" operator="arithmetic" k2="-1" k3="1"/>
<feColorMatrix type="matrix" values="0 0 0 0 0 0 0 0 0 0 0 0 0 0 0 0 0 0 0.25 0"/>
<feBlend mode="normal" in2="shape" result="effect2_innerShadow_242_168347"/>
</filter>
<filter id="filter14_di_242_168347" x="296.715" y="278.715" width="14.9723" height="14.9727" filterUnits="userSpaceOnUse" color-interpolation-filters="sRGB">
<feFlood flood-opacity="0" result="BackgroundImageFix"/>
<feColorMatrix in="SourceAlpha" type="matrix" values="0 0 0 0 0 0 0 0 0 0 0 0 0 0 0 0 0 0 127 0" result="hardAlpha"/>
<feOffset dx="-2.28545" dy="2.28545"/>
<feComposite in2="hardAlpha" operator="out"/>
<feColorMatrix type="matrix" values="0 0 0 0 0 0 0 0 0 0 0 0 0 0 0 0 0 0 0.12 0"/>
<feBlend mode="normal" in2="BackgroundImageFix" result="effect1_dropShadow_242_168347"/>
<feBlend mode="normal" in="SourceGraphic" in2="effect1_dropShadow_242_168347" result="shape"/>
<feColorMatrix in="SourceAlpha" type="matrix" values="0 0 0 0 0 0 0 0 0 0 0 0 0 0 0 0 0 0 127 0" result="hardAlpha"/>
<feOffset dx="2.28545" dy="-2.28545"/>
<feGaussianBlur stdDeviation="1.14272"/>
<feComposite in2="hardAlpha" operator="arithmetic" k2="-1" k3="1"/>
<feColorMatrix type="matrix" values="0 0 0 0 0 0 0 0 0 0 0 0 0 0 0 0 0 0 0.25 0"/>
<feBlend mode="normal" in2="shape" result="effect2_innerShadow_242_168347"/>
</filter>
<filter id="filter15_di_242_168347" x="143.658" y="101.116" width="17.9449" height="17.9447" filterUnits="userSpaceOnUse" color-interpolation-filters="sRGB">
<feFlood flood-opacity="0" result="BackgroundImageFix"/>
<feColorMatrix in="SourceAlpha" type="matrix" values="0 0 0 0 0 0 0 0 0 0 0 0 0 0 0 0 0 0 127 0" result="hardAlpha"/>
<feOffset dx="-2.28545" dy="2.28545"/>
<feComposite in2="hardAlpha" operator="out"/>
<feColorMatrix type="matrix" values="0 0 0 0 0 0 0 0 0 0 0 0 0 0 0 0 0 0 0.12 0"/>
<feBlend mode="normal" in2="BackgroundImageFix" result="effect1_dropShadow_242_168347"/>
<feBlend mode="normal" in="SourceGraphic" in2="effect1_dropShadow_242_168347" result="shape"/>
<feColorMatrix in="SourceAlpha" type="matrix" values="0 0 0 0 0 0 0 0 0 0 0 0 0 0 0 0 0 0 127 0" result="hardAlpha"/>
<feOffset dx="2.28545" dy="-2.28545"/>
<feGaussianBlur stdDeviation="1.14272"/>
<feComposite in2="hardAlpha" operator="arithmetic" k2="-1" k3="1"/>
<feColorMatrix type="matrix" values="0 0 0 0 0 0 0 0 0 0 0 0 0 0 0 0 0 0 0.25 0"/>
<feBlend mode="normal" in2="shape" result="effect2_innerShadow_242_168347"/>
</filter>
<filter id="filter16_ii_242_168347" x="123" y="-26.8227" width="128.996" height="129.219" filterUnits="userSpaceOnUse" color-interpolation-filters="sRGB">
<feFlood flood-opacity="0" result="BackgroundImageFix"/>
<feBlend mode="normal" in="SourceGraphic" in2="BackgroundImageFix" result="shape"/>
<feColorMatrix in="SourceAlpha" type="matrix" values="0 0 0 0 0 0 0 0 0 0 0 0 0 0 0 0 0 0 127 0" result="hardAlpha"/>
<feOffset dy="-4.78978"/>
<feGaussianBlur stdDeviation="3.83182"/>
<feComposite in2="hardAlpha" operator="arithmetic" k2="-1" k3="1"/>
<feColorMatrix type="matrix" values="0 0 0 0 0 0 0 0 0 0 0 0 0 0 0 0 0 0 0.15 0"/>
<feBlend mode="normal" in2="shape" result="effect1_innerShadow_242_168347"/>
<feColorMatrix in="SourceAlpha" type="matrix" values="0 0 0 0 0 0 0 0 0 0 0 0 0 0 0 0 0 0 127 0" result="hardAlpha"/>
<feOffset dx="22.9909" dy="-26.8227"/>
<feGaussianBlur stdDeviation="13.4114"/>
<feComposite in2="hardAlpha" operator="arithmetic" k2="-1" k3="1"/>
<feColorMatrix type="matrix" values="0 0 0 0 0 0 0 0 0 0 0 0 0 0 0 0 0 0 0.11 0"/>
<feBlend mode="normal" in2="effect1_innerShadow_242_168347" result="effect2_innerShadow_242_168347"/>
</filter>
</defs>
</svg>
