<svg width="1273" height="1264" viewBox="0 0 1273 1264" fill="none" xmlns="http://www.w3.org/2000/svg">
<g filter="url(#filter0_d_242_169083)">
<path d="M1055.7 483.597C1142.7 650.597 1095.04 842.021 905.345 932.531C833.049 967.026 817.699 1093.76 614.699 1157.76C411.699 1221.76 323.409 972.617 266.699 853.761C224.922 766.201 6.6733 573.8 74.6991 455.761C142.725 337.722 294.137 273.775 397.346 224.531C505.096 173.12 786.699 123.761 926.699 211.761C1066.7 299.761 968.699 316.597 1055.7 483.597Z" fill="#93C5FD"/>
</g>
<g filter="url(#filter1_i_242_169083)">
<path d="M244.7 467.761C222.675 513.921 170.7 535.761 182.7 607.761C194.7 679.761 299.843 716.297 344.033 743.796C386.349 770.128 292.699 921.761 404.699 957.761C516.7 993.761 460.699 1043.76 586.699 1043.76C712.7 1043.76 727.508 945.727 824.104 906.744C920.699 867.761 918.719 791.959 941.699 743.796C958.877 707.794 1025.78 674.097 1020.49 624.421C1015.2 574.745 995.587 491.57 971.786 442.593C950.298 398.376 952.226 321.527 920.699 288.204C895.074 261.119 776.088 271.783 746.7 257.761C708.101 239.344 620.072 214.305 569.613 221.907C521.93 229.091 486.39 298.187 439.328 321.457C394.482 343.63 309.861 339.227 275.237 369.847C241.766 399.449 259.954 435.79 244.7 467.761Z" fill="#60A5FA"/>
</g>
<g filter="url(#filter2_di_242_169083)">
<path d="M429.199 831.806C447.199 830.825 492.502 846.112 497.349 862.531C499.42 869.546 501.409 880.414 484.581 882.418C467.753 884.423 454.528 888.68 444.699 889.899C424.506 892.405 372.699 894.306 372.699 857.806C372.699 838.072 411.199 832.787 429.199 831.806Z" fill="#E2E8F0"/>
</g>
<g filter="url(#filter3_di_242_169083)">
<path d="M789.79 211.591C731.703 218.591 674.702 241.591 683.626 291.713C687.264 312.146 722.999 332.823 789.79 338.268C856.581 343.713 852.381 370.838 891.392 374.151C971.541 380.957 935.107 306.686 930.239 294.436C909.688 242.711 847.877 204.591 789.79 211.591Z" fill="#E2E8F0"/>
</g>
<g filter="url(#filter4_di_242_169083)">
<path d="M538.122 1067.46C596.208 1060.46 596.463 995.832 644.285 987.339C756.209 967.461 638.999 890.906 572.208 885.461C505.417 880.017 475.531 908.214 436.52 904.901C356.371 898.095 392.805 972.366 397.672 984.617C418.224 1036.34 480.035 1074.46 538.122 1067.46Z" fill="#E2E8F0"/>
</g>
<mask id="mask0_242_169083" style="mask-type:alpha" maskUnits="userSpaceOnUse" x="707" y="560" width="188" height="156">
<path d="M880.859 622.765C885.821 633.164 898.525 646.603 893.842 654.539C889.162 662.47 862.289 672.108 852.333 678.303C842.799 684.236 835.616 696.443 825.155 701.434C815.4 706.089 796.296 700.898 784.846 703.298C771.752 706.042 755.484 717.585 744.177 715.014C732.617 712.386 730.765 694.824 725.588 683.973C721.718 675.862 706.645 668.271 707.836 657.079C709.028 645.887 725.125 627.64 730.487 616.605C735.328 606.644 728.53 590.587 735.632 583.079C741.406 576.977 760.788 578.821 767.409 575.662C776.105 571.513 790.143 559.013 801.511 560.726C812.254 562.344 820.261 577.911 830.864 583.153C840.967 588.149 860.032 587.157 867.832 594.055C875.373 600.724 877.422 615.562 880.859 622.765Z" fill="black"/>
</mask>
<g mask="url(#mask0_242_169083)">
<path d="M1182.36 293.735L1207.08 314.725L283.068 1023.52L258.346 1002.53L1182.36 293.735Z" fill="white" fill-opacity="0.25"/>
<path d="M1221.44 313.791L1235.79 314.857L311.779 1023.65L297.423 1022.59L1221.44 313.791Z" fill="white" fill-opacity="0.25"/>
</g>
<mask id="mask1_242_169083" style="mask-type:alpha" maskUnits="userSpaceOnUse" x="336" y="650" width="188" height="156">
<path d="M509.859 712.765C514.821 723.164 527.525 736.603 522.842 744.539C518.162 752.47 491.289 762.108 481.333 768.303C471.799 774.236 464.616 786.443 454.155 791.434C444.4 796.089 425.296 790.898 413.846 793.298C400.752 796.042 384.484 807.585 373.177 805.014C361.617 802.386 359.765 784.824 354.588 773.973C350.718 765.862 335.645 758.271 336.836 747.079C338.028 735.887 354.125 717.64 359.487 706.605C364.328 696.644 357.53 680.587 364.632 673.079C370.406 666.977 389.788 668.821 396.409 665.662C405.105 661.513 419.143 649.013 430.511 650.726C441.254 652.344 449.261 667.911 459.864 673.153C469.967 678.149 489.032 677.157 496.832 684.055C504.373 690.724 506.422 705.562 509.859 712.765Z" fill="black"/>
</mask>
<g mask="url(#mask1_242_169083)">
<path d="M811.359 383.735L836.081 404.725L-87.9321 1113.52L-112.654 1092.53L811.359 383.735Z" fill="white" fill-opacity="0.25"/>
<path d="M850.437 403.791L864.792 404.857L-59.2213 1113.65L-73.5766 1112.59L850.437 403.791Z" fill="white" fill-opacity="0.25"/>
</g>
<mask id="mask2_242_169083" style="mask-type:alpha" maskUnits="userSpaceOnUse" x="501" y="309" width="188" height="156">
<path d="M674.859 371.765C679.821 382.164 692.525 395.603 687.842 403.539C683.162 411.47 656.289 421.108 646.333 427.303C636.799 433.236 629.616 445.443 619.155 450.434C609.4 455.089 590.296 449.898 578.846 452.298C565.752 455.042 549.484 466.585 538.177 464.014C526.617 461.386 524.765 443.824 519.588 432.973C515.718 424.862 500.645 417.271 501.836 406.079C503.028 394.887 519.125 376.64 524.487 365.605C529.328 355.644 522.53 339.587 529.632 332.079C535.406 325.977 554.788 327.821 561.409 324.662C570.105 320.513 584.143 308.013 595.511 309.726C606.254 311.344 614.261 326.911 624.864 332.153C634.967 337.149 654.032 336.157 661.832 343.055C669.373 349.724 671.422 364.562 674.859 371.765Z" fill="black"/>
</mask>
<g mask="url(#mask2_242_169083)">
<path d="M976.359 42.735L1001.08 63.7255L77.0679 772.521L52.3458 751.531L976.359 42.735Z" fill="white" fill-opacity="0.25"/>
<path d="M1015.44 62.7913L1029.79 63.8572L105.779 772.653L91.4234 771.587L1015.44 62.7913Z" fill="white" fill-opacity="0.25"/>
</g>
<g filter="url(#filter5_di_242_169083)">
<path d="M776.703 334.854C794.703 333.874 806.506 340.568 811.353 356.986C813.424 364.002 815.413 374.869 798.585 376.873C781.757 378.878 768.532 383.135 758.703 384.354C738.51 386.86 721.703 374.354 725.203 356.986C729.101 337.641 758.703 335.835 776.703 334.854Z" fill="#E2E8F0"/>
</g>
<g filter="url(#filter6_di_242_169083)">
<path d="M698.703 358.261C690.962 357.866 685.485 357.298 682.867 348.348C682.867 328.954 700.066 330.496 708.665 333.691C717.265 336.887 717.086 345.343 716.424 347.802C713.627 358.182 706.444 358.656 698.703 358.261Z" fill="#E2E8F0"/>
</g>
<g filter="url(#filter7_di_242_169083)">
<path d="M564.479 1105.4C548.402 1105.08 545.096 1098.4 542.479 1089.45C542.479 1070.05 572.099 1067.76 580.699 1070.95C589.298 1074.15 594.699 1077.9 594.699 1089.45C594.699 1100.2 580.555 1105.72 564.479 1105.4Z" fill="#E2E8F0"/>
</g>
<defs>
<filter id="filter0_d_242_169083" x="33.6602" y="119.433" width="1091.95" height="1060.67" filterUnits="userSpaceOnUse" color-interpolation-filters="sRGB">
<feFlood flood-opacity="0" result="BackgroundImageFix"/>
<feColorMatrix in="SourceAlpha" type="matrix" values="0 0 0 0 0 0 0 0 0 0 0 0 0 0 0 0 0 0 127 0" result="hardAlpha"/>
<feOffset dy="-16"/>
<feGaussianBlur stdDeviation="14"/>
<feComposite in2="hardAlpha" operator="out"/>
<feColorMatrix type="matrix" values="0 0 0 0 0 0 0 0 0 0 0 0 0 0 0 0 0 0 0.25 0"/>
<feBlend mode="normal" in2="BackgroundImageFix" result="effect1_dropShadow_242_169083"/>
<feBlend mode="normal" in="SourceGraphic" in2="effect1_dropShadow_242_169083" result="shape"/>
</filter>
<filter id="filter1_i_242_169083" x="180.925" y="220.509" width="839.865" height="827.251" filterUnits="userSpaceOnUse" color-interpolation-filters="sRGB">
<feFlood flood-opacity="0" result="BackgroundImageFix"/>
<feBlend mode="normal" in="SourceGraphic" in2="BackgroundImageFix" result="shape"/>
<feColorMatrix in="SourceAlpha" type="matrix" values="0 0 0 0 0 0 0 0 0 0 0 0 0 0 0 0 0 0 127 0" result="hardAlpha"/>
<feOffset dy="4"/>
<feGaussianBlur stdDeviation="54"/>
<feComposite in2="hardAlpha" operator="arithmetic" k2="-1" k3="1"/>
<feColorMatrix type="matrix" values="0 0 0 0 1 0 0 0 0 1 0 0 0 0 1 0 0 0 0.25 0"/>
<feBlend mode="normal" in2="shape" result="effect1_innerShadow_242_169083"/>
</filter>
<filter id="filter2_di_242_169083" x="372.699" y="819.761" width="126" height="75.3154" filterUnits="userSpaceOnUse" color-interpolation-filters="sRGB">
<feFlood flood-opacity="0" result="BackgroundImageFix"/>
<feColorMatrix in="SourceAlpha" type="matrix" values="0 0 0 0 0 0 0 0 0 0 0 0 0 0 0 0 0 0 127 0" result="hardAlpha"/>
<feOffset dy="4"/>
<feComposite in2="hardAlpha" operator="out"/>
<feColorMatrix type="matrix" values="0 0 0 0 0 0 0 0 0 0 0 0 0 0 0 0 0 0 0.15 0"/>
<feBlend mode="normal" in2="BackgroundImageFix" result="effect1_dropShadow_242_169083"/>
<feBlend mode="normal" in="SourceGraphic" in2="effect1_dropShadow_242_169083" result="shape"/>
<feColorMatrix in="SourceAlpha" type="matrix" values="0 0 0 0 0 0 0 0 0 0 0 0 0 0 0 0 0 0 127 0" result="hardAlpha"/>
<feOffset dy="-12"/>
<feGaussianBlur stdDeviation="8"/>
<feComposite in2="hardAlpha" operator="arithmetic" k2="-1" k3="1"/>
<feColorMatrix type="matrix" values="0 0 0 0 0 0 0 0 0 0 0 0 0 0 0 0 0 0 0.15 0"/>
<feBlend mode="normal" in2="shape" result="effect2_innerShadow_242_169083"/>
</filter>
<filter id="filter3_di_242_169083" x="682.699" y="190.761" width="268.004" height="187.83" filterUnits="userSpaceOnUse" color-interpolation-filters="sRGB">
<feFlood flood-opacity="0" result="BackgroundImageFix"/>
<feColorMatrix in="SourceAlpha" type="matrix" values="0 0 0 0 0 0 0 0 0 0 0 0 0 0 0 0 0 0 127 0" result="hardAlpha"/>
<feOffset dy="4"/>
<feComposite in2="hardAlpha" operator="out"/>
<feColorMatrix type="matrix" values="0 0 0 0 0 0 0 0 0 0 0 0 0 0 0 0 0 0 0.15 0"/>
<feBlend mode="normal" in2="BackgroundImageFix" result="effect1_dropShadow_242_169083"/>
<feBlend mode="normal" in="SourceGraphic" in2="effect1_dropShadow_242_169083" result="shape"/>
<feColorMatrix in="SourceAlpha" type="matrix" values="0 0 0 0 0 0 0 0 0 0 0 0 0 0 0 0 0 0 127 0" result="hardAlpha"/>
<feOffset dx="8" dy="-20"/>
<feGaussianBlur stdDeviation="16"/>
<feComposite in2="hardAlpha" operator="arithmetic" k2="-1" k3="1"/>
<feColorMatrix type="matrix" values="0 0 0 0 0 0 0 0 0 0 0 0 0 0 0 0 0 0 0.15 0"/>
<feBlend mode="normal" in2="shape" result="effect2_innerShadow_242_169083"/>
</filter>
<filter id="filter4_di_242_169083" x="385.208" y="864.761" width="313.491" height="207.53" filterUnits="userSpaceOnUse" color-interpolation-filters="sRGB">
<feFlood flood-opacity="0" result="BackgroundImageFix"/>
<feColorMatrix in="SourceAlpha" type="matrix" values="0 0 0 0 0 0 0 0 0 0 0 0 0 0 0 0 0 0 127 0" result="hardAlpha"/>
<feOffset dy="4"/>
<feComposite in2="hardAlpha" operator="out"/>
<feColorMatrix type="matrix" values="0 0 0 0 0 0 0 0 0 0 0 0 0 0 0 0 0 0 0.15 0"/>
<feBlend mode="normal" in2="BackgroundImageFix" result="effect1_dropShadow_242_169083"/>
<feBlend mode="normal" in="SourceGraphic" in2="effect1_dropShadow_242_169083" result="shape"/>
<feColorMatrix in="SourceAlpha" type="matrix" values="0 0 0 0 0 0 0 0 0 0 0 0 0 0 0 0 0 0 127 0" result="hardAlpha"/>
<feOffset dx="8" dy="-20"/>
<feGaussianBlur stdDeviation="16"/>
<feComposite in2="hardAlpha" operator="arithmetic" k2="-1" k3="1"/>
<feColorMatrix type="matrix" values="0 0 0 0 0 0 0 0 0 0 0 0 0 0 0 0 0 0 0.15 0"/>
<feBlend mode="normal" in2="shape" result="effect2_innerShadow_242_169083"/>
</filter>
<filter id="filter5_di_242_169083" x="724.739" y="322.761" width="87.9639" height="65.9133" filterUnits="userSpaceOnUse" color-interpolation-filters="sRGB">
<feFlood flood-opacity="0" result="BackgroundImageFix"/>
<feColorMatrix in="SourceAlpha" type="matrix" values="0 0 0 0 0 0 0 0 0 0 0 0 0 0 0 0 0 0 127 0" result="hardAlpha"/>
<feOffset dy="4"/>
<feComposite in2="hardAlpha" operator="out"/>
<feColorMatrix type="matrix" values="0 0 0 0 0 0 0 0 0 0 0 0 0 0 0 0 0 0 0.15 0"/>
<feBlend mode="normal" in2="BackgroundImageFix" result="effect1_dropShadow_242_169083"/>
<feBlend mode="normal" in="SourceGraphic" in2="effect1_dropShadow_242_169083" result="shape"/>
<feColorMatrix in="SourceAlpha" type="matrix" values="0 0 0 0 0 0 0 0 0 0 0 0 0 0 0 0 0 0 127 0" result="hardAlpha"/>
<feOffset dy="-12"/>
<feGaussianBlur stdDeviation="8"/>
<feComposite in2="hardAlpha" operator="arithmetic" k2="-1" k3="1"/>
<feColorMatrix type="matrix" values="0 0 0 0 0 0 0 0 0 0 0 0 0 0 0 0 0 0 0.15 0"/>
<feBlend mode="normal" in2="shape" result="effect2_innerShadow_242_169083"/>
</filter>
<filter id="filter6_di_242_169083" x="682.867" y="319.761" width="33.8359" height="42.5901" filterUnits="userSpaceOnUse" color-interpolation-filters="sRGB">
<feFlood flood-opacity="0" result="BackgroundImageFix"/>
<feColorMatrix in="SourceAlpha" type="matrix" values="0 0 0 0 0 0 0 0 0 0 0 0 0 0 0 0 0 0 127 0" result="hardAlpha"/>
<feOffset dy="4"/>
<feComposite in2="hardAlpha" operator="out"/>
<feColorMatrix type="matrix" values="0 0 0 0 0 0 0 0 0 0 0 0 0 0 0 0 0 0 0.15 0"/>
<feBlend mode="normal" in2="BackgroundImageFix" result="effect1_dropShadow_242_169083"/>
<feBlend mode="normal" in="SourceGraphic" in2="effect1_dropShadow_242_169083" result="shape"/>
<feColorMatrix in="SourceAlpha" type="matrix" values="0 0 0 0 0 0 0 0 0 0 0 0 0 0 0 0 0 0 127 0" result="hardAlpha"/>
<feOffset dy="-12"/>
<feGaussianBlur stdDeviation="8"/>
<feComposite in2="hardAlpha" operator="arithmetic" k2="-1" k3="1"/>
<feColorMatrix type="matrix" values="0 0 0 0 0 0 0 0 0 0 0 0 0 0 0 0 0 0 0.15 0"/>
<feBlend mode="normal" in2="shape" result="effect2_innerShadow_242_169083"/>
</filter>
<filter id="filter7_di_242_169083" x="542.479" y="1057.76" width="52.2197" height="51.6566" filterUnits="userSpaceOnUse" color-interpolation-filters="sRGB">
<feFlood flood-opacity="0" result="BackgroundImageFix"/>
<feColorMatrix in="SourceAlpha" type="matrix" values="0 0 0 0 0 0 0 0 0 0 0 0 0 0 0 0 0 0 127 0" result="hardAlpha"/>
<feOffset dy="4"/>
<feComposite in2="hardAlpha" operator="out"/>
<feColorMatrix type="matrix" values="0 0 0 0 0 0 0 0 0 0 0 0 0 0 0 0 0 0 0.15 0"/>
<feBlend mode="normal" in2="BackgroundImageFix" result="effect1_dropShadow_242_169083"/>
<feBlend mode="normal" in="SourceGraphic" in2="effect1_dropShadow_242_169083" result="shape"/>
<feColorMatrix in="SourceAlpha" type="matrix" values="0 0 0 0 0 0 0 0 0 0 0 0 0 0 0 0 0 0 127 0" result="hardAlpha"/>
<feOffset dy="-12"/>
<feGaussianBlur stdDeviation="8"/>
<feComposite in2="hardAlpha" operator="arithmetic" k2="-1" k3="1"/>
<feColorMatrix type="matrix" values="0 0 0 0 0 0 0 0 0 0 0 0 0 0 0 0 0 0 0.15 0"/>
<feBlend mode="normal" in2="shape" result="effect2_innerShadow_242_169083"/>
</filter>
</defs>
</svg>
