<svg width="180" height="319" viewBox="0 0 180 319" fill="none" xmlns="http://www.w3.org/2000/svg">
<rect y="45" width="180" height="274" rx="48" fill="black" fill-opacity="0.12"/>
<rect x="8" y="45" width="164" height="266" rx="40" fill="black" fill-opacity="0.2"/>
<g filter="url(#filter0_ii_242_168569)">
<path d="M10 40C10 17.9086 27.9086 0 50 0C72.0914 0 90 17.9086 90 40V270H10V40Z" fill="#A6815E"/>
</g>
<path d="M50 230.5C50.5592 230.5 51.1161 230.511 51.6699 230.531C53.0834 230.584 53.8655 231.561 54.1553 231.983C54.2557 231.904 54.3588 231.826 54.4629 231.753C54.6836 231.598 54.9947 231.402 55.3711 231.255C55.6958 231.128 56.1865 230.991 56.7715 231.035L57.0283 231.065L57.8379 231.208C74.7908 234.35 87.5 247.807 87.5 268.5C87.5 280.315 83.3528 289.865 76.4795 296.457C69.6249 303.031 60.229 306.5 50 306.5C41.8318 306.5 34.1963 304.289 27.9541 300.045C27.1472 299.496 26.8419 298.712 26.7246 298.226C26.6074 297.739 26.6081 297.28 26.624 296.963C26.6307 296.831 26.6418 296.696 26.6562 296.561C26.5437 296.597 26.4315 296.632 26.3203 296.661C26.0127 296.743 25.557 296.839 25.0479 296.819C24.5303 296.8 23.698 296.646 23.0059 295.953C16.4381 289.38 12.5 280.014 12.5 268.5C12.5 256.685 16.6472 247.135 23.5205 240.543C30.3751 233.969 39.771 230.5 50 230.5Z" fill="#C8A078" stroke="#82644D" stroke-width="5"/>
<path opacity="0.5" fill-rule="evenodd" clip-rule="evenodd" d="M30.0263 248.482C24.9959 253.035 21.9149 259.641 21.9149 268C21.9149 276.359 24.9959 282.965 30.0263 287.518C35.0814 292.094 42.131 294.612 50 294.612C57.869 294.612 64.9186 292.094 69.9737 287.518C75.0041 282.965 78.0851 276.359 78.0851 268C78.0851 259.641 75.0041 253.035 69.9737 248.482C64.9186 243.906 57.869 241.388 50 241.388C42.131 241.388 35.0814 243.906 30.0263 248.482ZM28.9014 246.549C34.3576 241.61 41.8293 239 50 239C58.1707 239 65.6424 241.61 71.0986 246.549C76.5796 251.511 80 258.808 80 268C80 277.192 76.5796 284.489 71.0986 289.451C65.6424 294.39 58.1707 297 50 297C41.8293 297 34.3576 294.39 28.9014 289.451C23.4204 284.489 20 277.192 20 268C20 258.808 23.4204 251.511 28.9014 246.549Z" fill="#A6815E"/>
<path opacity="0.5" fill-rule="evenodd" clip-rule="evenodd" d="M38.6271 257.423C35.6704 260.023 33.8814 263.766 33.8814 268.5C33.8814 273.234 35.6704 276.977 38.6271 279.577C41.6086 282.199 45.7946 283.663 50.5 283.663C55.2054 283.663 59.3914 282.199 62.3729 279.577C65.3296 276.977 67.1186 273.234 67.1186 268.5C67.1186 263.766 65.3296 260.023 62.3729 257.423C59.3914 254.801 55.2054 253.337 50.5 253.337C45.7946 253.337 41.6086 254.801 38.6271 257.423ZM37.5402 255.515C40.914 252.548 45.5076 251 50.5 251C55.4924 251 60.086 252.548 63.4598 255.515C66.8583 258.503 69 262.926 69 268.5C69 274.074 66.8583 278.497 63.4598 281.485C60.086 284.452 55.4924 286 50.5 286C45.5076 286 40.914 284.452 37.5402 281.485C34.1417 278.497 32 274.074 32 268.5C32 262.926 34.1417 258.503 37.5402 255.515Z" fill="#A6815E"/>
<path opacity="0.5" fill-rule="evenodd" clip-rule="evenodd" d="M46.4391 262.892C45.4709 263.844 44.875 265.215 44.875 267C44.875 268.785 45.4709 270.156 46.4391 271.108C47.4283 272.081 48.8515 272.655 50.5 272.655C52.1485 272.655 53.5717 272.081 54.5609 271.108C55.5291 270.156 56.125 268.785 56.125 267C56.125 265.215 55.5291 263.844 54.5609 262.892C53.5717 261.919 52.1485 261.345 50.5 261.345C48.8515 261.345 47.4283 261.919 46.4391 262.892ZM45.2801 261.049C46.6661 259.685 48.5241 259 50.5 259C52.4759 259 54.3339 259.685 55.7199 261.049C57.1269 262.433 58 264.475 58 267C58 269.525 57.1269 271.567 55.7199 272.951C54.3339 274.315 52.4759 275 50.5 275C48.5241 275 46.6661 274.315 45.2801 272.951C43.8731 271.567 43 269.525 43 267C43 264.475 43.8731 262.433 45.2801 261.049Z" fill="#A6815E"/>
<path opacity="0.5" fill-rule="evenodd" clip-rule="evenodd" d="M48.7598 267.665C48.759 267.665 48.7617 267.66 48.7701 267.651C48.7647 267.661 48.7605 267.666 48.7598 267.665ZM48.9996 267.5C49.2283 267.391 49.5716 267.31 50 267.31C50.4284 267.31 50.7717 267.391 51.0004 267.5C50.7717 267.609 50.4284 267.69 50 267.69C49.5716 267.69 49.2283 267.609 48.9996 267.5ZM51.2402 267.665C51.2395 267.666 51.2353 267.661 51.2299 267.651C51.2383 267.66 51.241 267.665 51.2402 267.665ZM51.2299 267.349C51.2353 267.339 51.2395 267.334 51.2402 267.335C51.241 267.335 51.2383 267.34 51.2299 267.349ZM48.7701 267.349C48.7617 267.34 48.759 267.335 48.7598 267.335C48.7605 267.334 48.7647 267.339 48.7701 267.349ZM48.131 265.465C48.669 265.139 49.3368 265 50 265C50.6632 265 51.331 265.139 51.869 265.465C52.3908 265.781 53 266.426 53 267.5C53 268.574 52.3908 269.219 51.869 269.535C51.331 269.861 50.6632 270 50 270C49.3368 270 48.669 269.861 48.131 269.535C47.6092 269.219 47 268.574 47 267.5C47 266.426 47.6092 265.781 48.131 265.465Z" fill="#A6815E"/>
<path opacity="0.1" d="M40 125.714C40 121.02 39.1287 116 37.2581 116C35.3874 116 35 119.806 35 124.5C35 129.194 35.3874 133 37.2581 133C39.1287 133 40 130.409 40 125.714Z" fill="black"/>
<path opacity="0.1" d="M60 94.5714C60 90.4293 59.1287 86 57.2581 86C55.3874 86 55 89.3579 55 93.5C55 97.6421 55.3874 101 57.2581 101C59.1287 101 60 98.7136 60 94.5714Z" fill="#F1F5F9"/>
<path opacity="0.1" d="M55 149.714C55 146.953 53.6059 144 50.6129 144C47.6199 144 47 146.239 47 149C47 151.761 47.6199 154 50.6129 154C53.6059 154 55 152.476 55 149.714Z" fill="black"/>
<path opacity="0.1" d="M23 85.7142C23 82.9528 22.1287 79.9999 20.2581 79.9999C18.3874 79.9999 18 82.2385 18 84.9999C18 87.7613 18.3874 89.9999 20.2581 89.9999C22.1287 89.9999 23 88.4756 23 85.7142Z" fill="#F1F5F9"/>
<path opacity="0.1" d="M34 70.4286C34 64.9057 32.9544 59 30.7097 59C28.4649 59 28 63.4772 28 69C28 74.5228 28.4649 79 30.7097 79C32.9544 79 34 75.9514 34 70.4286Z" fill="black"/>
<path opacity="0.1" d="M15 157.286C15 152.315 15.8713 147 17.7419 147C19.6126 147 20 151.029 20 156C20 160.97 19.6126 165 17.7419 165C15.8713 165 15 162.256 15 157.286Z" fill="#F1F5F9"/>
<path opacity="0.1" d="M20 180.857C20 177.543 21.2198 174 23.8387 174C26.4576 174 27 176.686 27 180C27 183.314 26.4576 186 23.8387 186C21.2198 186 20 184.171 20 180.857Z" fill="black"/>
<path opacity="0.1" d="M64 173.429C64 169.839 64.8713 166 66.7419 166C68.6126 166 69 168.91 69 172.5C69 176.09 68.6126 179 66.7419 179C64.8713 179 64 177.018 64 173.429Z" fill="#F1F5F9"/>
<path opacity="0.1" d="M59 58.4286C59 54.8388 59.8713 51.0001 61.7419 51.0001C63.6126 51.0001 64 53.9102 64 57.5001C64 61.0899 63.6126 64.0001 61.7419 64.0001C59.8713 64.0001 59 62.0185 59 58.4286Z" fill="#F1F5F9"/>
<path opacity="0.1" d="M78 152.571C78 148.429 78.8713 144 80.7419 144C82.6126 144 83 147.358 83 151.5C83 155.642 82.6126 159 80.7419 159C78.8713 159 78 156.714 78 152.571Z" fill="#F1F5F9"/>
<path opacity="0.1" d="M72 110.429C72 102.973 73.2198 95 75.8387 95C78.4576 95 79 101.044 79 108.5C79 115.956 78.4576 122 75.8387 122C73.2198 122 72 117.884 72 110.429Z" fill="black"/>
<g filter="url(#filter1_ii_242_168569)">
<path d="M90 64C90 41.9086 107.909 24 130 24C152.091 24 170 41.9086 170 64V270H90V64Z" fill="#A6815E"/>
</g>
<path d="M92.5 269C92.5 268.441 92.5106 267.884 92.5313 267.33C92.584 265.917 93.5609 265.135 93.9834 264.845C93.9039 264.744 93.8259 264.641 93.7529 264.537C93.5982 264.316 93.4023 264.005 93.2549 263.629C93.1277 263.304 92.9906 262.814 93.0352 262.229L93.0654 261.972L93.208 261.162C96.3497 244.209 109.807 231.5 130.5 231.5C142.315 231.5 151.865 235.647 158.457 242.521C165.031 249.375 168.5 258.771 168.5 269C168.5 277.168 166.289 284.804 162.045 291.046C161.496 291.853 160.712 292.158 160.226 292.275C159.739 292.393 159.28 292.392 158.963 292.376C158.831 292.369 158.696 292.358 158.561 292.344C158.597 292.456 158.632 292.569 158.661 292.68C158.743 292.987 158.839 293.443 158.819 293.952C158.8 294.47 158.646 295.302 157.953 295.994C151.38 302.562 142.014 306.5 130.5 306.5C118.685 306.5 109.135 302.353 102.543 295.479C95.9694 288.625 92.5 279.229 92.5 269Z" fill="#C8A078" stroke="#82644D" stroke-width="5"/>
<path opacity="0.5" fill-rule="evenodd" clip-rule="evenodd" d="M110.482 288.974C115.035 294.004 121.641 297.085 130 297.085C138.359 297.085 144.965 294.004 149.518 288.974C154.094 283.919 156.612 276.869 156.612 269C156.612 261.131 154.094 254.081 149.518 249.026C144.965 243.996 138.359 240.915 130 240.915C121.641 240.915 115.035 243.996 110.482 249.026C105.906 254.081 103.388 261.131 103.388 269C103.388 276.869 105.906 283.919 110.482 288.974ZM108.549 290.099C103.61 284.642 101 277.171 101 269C101 260.829 103.61 253.358 108.549 247.901C113.511 242.42 120.808 239 130 239C139.192 239 146.489 242.42 151.451 247.901C156.39 253.358 159 260.829 159 269C159 277.171 156.39 284.642 151.451 290.099C146.489 295.58 139.192 299 130 299C120.808 299 113.511 295.58 108.549 290.099Z" fill="#A6815E"/>
<path opacity="0.5" fill-rule="evenodd" clip-rule="evenodd" d="M119.423 280.373C122.023 283.33 125.766 285.119 130.5 285.119C135.234 285.119 138.977 283.33 141.577 280.373C144.199 277.391 145.663 273.205 145.663 268.5C145.663 263.795 144.199 259.609 141.577 256.627C138.977 253.67 135.234 251.881 130.5 251.881C125.766 251.881 122.023 253.67 119.423 256.627C116.801 259.609 115.337 263.795 115.337 268.5C115.337 273.205 116.801 277.391 119.423 280.373ZM117.515 281.46C114.548 278.086 113 273.492 113 268.5C113 263.508 114.548 258.914 117.515 255.54C120.503 252.142 124.926 250 130.5 250C136.074 250 140.497 252.142 143.485 255.54C146.452 258.914 148 263.508 148 268.5C148 273.492 146.452 278.086 143.485 281.46C140.497 284.858 136.074 287 130.5 287C124.926 287 120.503 284.858 117.515 281.46Z" fill="#A6815E"/>
<path opacity="0.5" fill-rule="evenodd" clip-rule="evenodd" d="M124.892 273.561C125.844 274.529 127.215 275.125 129 275.125C130.785 275.125 132.156 274.529 133.108 273.561C134.081 272.572 134.655 271.149 134.655 269.5C134.655 267.851 134.081 266.428 133.108 265.439C132.156 264.471 130.785 263.875 129 263.875C127.215 263.875 125.844 264.471 124.892 265.439C123.919 266.428 123.345 267.851 123.345 269.5C123.345 271.149 123.919 272.572 124.892 273.561ZM123.049 274.72C121.685 273.334 121 271.476 121 269.5C121 267.524 121.685 265.666 123.049 264.28C124.433 262.873 126.475 262 129 262C131.525 262 133.567 262.873 134.951 264.28C136.315 265.666 137 267.524 137 269.5C137 271.476 136.315 273.334 134.951 274.72C133.567 276.127 131.525 277 129 277C126.475 277 124.433 276.127 123.049 274.72Z" fill="#A6815E"/>
<path opacity="0.5" fill-rule="evenodd" clip-rule="evenodd" d="M129.665 270.24C129.665 270.241 129.66 270.238 129.651 270.23C129.661 270.235 129.666 270.239 129.665 270.24ZM129.5 270C129.391 269.772 129.31 269.428 129.31 269C129.31 268.572 129.391 268.228 129.5 268C129.609 268.228 129.69 268.572 129.69 269C129.69 269.428 129.609 269.772 129.5 270ZM129.665 267.76C129.666 267.761 129.661 267.765 129.651 267.77C129.66 267.762 129.665 267.759 129.665 267.76ZM129.349 267.77C129.339 267.765 129.334 267.761 129.335 267.76C129.335 267.759 129.34 267.762 129.349 267.77ZM129.349 270.23C129.34 270.238 129.335 270.241 129.335 270.24C129.334 270.239 129.339 270.235 129.349 270.23ZM127.465 270.869C127.139 270.331 127 269.663 127 269C127 268.337 127.139 267.669 127.465 267.131C127.781 266.609 128.426 266 129.5 266C130.574 266 131.219 266.609 131.535 267.131C131.861 267.669 132 268.337 132 269C132 269.663 131.861 270.331 131.535 270.869C131.219 271.391 130.574 272 129.5 272C128.426 272 127.781 271.391 127.465 270.869Z" fill="#A6815E"/>
<path opacity="0.1" d="M138 136.714C138 132.02 138.871 127 140.742 127C142.613 127 143 130.805 143 135.5C143 140.194 142.613 144 140.742 144C138.871 144 138 141.409 138 136.714Z" fill="#F1F5F9"/>
<path opacity="0.1" d="M113 91.5714C113 87.4293 113.871 83 115.742 83C117.613 83 118 86.3579 118 90.5C118 94.6421 117.613 98 115.742 98C113.871 98 113 95.7136 113 91.5714Z" fill="black"/>
<path opacity="0.1" d="M123 160.714C123 157.953 124.394 155 127.387 155C130.38 155 131 157.239 131 160C131 162.761 130.38 165 127.387 165C124.394 165 123 163.476 123 160.714Z" fill="black"/>
<path opacity="0.1" d="M155 108.714C155 105.953 155.871 103 157.742 103C159.613 103 160 105.239 160 108C160 110.761 159.613 113 157.742 113C155.871 113 155 111.476 155 108.714Z" fill="#F1F5F9"/>
<path opacity="0.1" d="M145 84.4286C145 78.9057 146.046 73 148.29 73C150.535 73 151 77.4772 151 83C151 88.5228 150.535 93 148.29 93C146.046 93 145 89.9514 145 84.4286Z" fill="black"/>
<path opacity="0.1" d="M163 168.286C163 163.315 162.129 158 160.258 158C158.387 158 158 162.029 158 167C158 171.971 158.387 176 160.258 176C162.129 176 163 173.256 163 168.286Z" fill="#F1F5F9"/>
<path opacity="0.1" d="M158 191.857C158 188.543 156.78 185 154.161 185C151.542 185 151 187.686 151 191C151 194.314 151.542 197 154.161 197C156.78 197 158 195.171 158 191.857Z" fill="black"/>
<path opacity="0.1" d="M113 186.429C113 182.839 112.129 179 110.258 179C108.387 179 108 181.91 108 185.5C108 189.09 108.387 192 110.258 192C112.129 192 113 190.018 113 186.429Z" fill="#F1F5F9"/>
<path opacity="0.1" d="M113 77.4286C113 73.8387 112.129 70 110.258 70C108.387 70 108 72.9101 108 76.5C108 80.0899 108.387 83 110.258 83C112.129 83 113 81.0184 113 77.4286Z" fill="#F1F5F9"/>
<path opacity="0.1" d="M106 124.571C106 120.429 105.129 116 103.258 116C101.387 116 101 119.358 101 123.5C101 127.642 101.387 131 103.258 131C105.129 131 106 128.714 106 124.571Z" fill="#F1F5F9"/>
<path opacity="0.1" d="M107 157.429C107 149.973 105.78 142 103.161 142C100.542 142 100 148.044 100 155.5C100 162.956 100.542 169 103.161 169C105.78 169 107 164.884 107 157.429Z" fill="black"/>
<g filter="url(#filter2_ii_242_168569)">
<path d="M74.7886 286.83C70.7832 294.856 60.3219 301.394 57.7258 303.995C53.3134 309.011 56.5003 312.054 60.1435 312.823C68.0937 314.499 78.277 310.483 92.0003 312.823C108.579 315.649 116.898 314.432 121.176 312.198C124.151 310.645 124.114 306.884 122.109 304.193C117.29 297.724 107.686 286.8 100.561 281.7C88.8786 273.34 79.7953 276.798 74.7886 286.83Z" fill="#F1F5F9"/>
</g>
<g filter="url(#filter3_ii_242_168569)">
<path d="M42.4818 221.862C71.5 217 87.1667 242 90 245.5C124.5 188.5 50 10 52.5 61.5C55 113 25.9818 113 25.9818 139.362C25.9818 152.563 45 148.5 22.5 180.5C4.76837e-06 212.5 24.4238 224.888 42.4818 221.862Z" fill="#F1F5F9"/>
</g>
<g filter="url(#filter4_dd_242_168569)">
<g filter="url(#filter5_ii_242_168569)">
<path d="M50 40C50 17.9086 67.9086 0 90 0C112.091 0 130 17.9086 130 40V190H50V40Z" fill="#A6815E"/>
</g>
<path d="M90 226.5C89.4408 226.5 88.8839 226.489 88.3301 226.469C86.9166 226.416 86.1345 225.439 85.8447 225.017C85.7443 225.096 85.6412 225.174 85.5371 225.247C85.3164 225.402 85.0053 225.598 84.6289 225.745C84.3042 225.872 83.8135 226.009 83.2285 225.965L82.9717 225.935L82.1621 225.792C65.2092 222.65 52.5 209.193 52.5 188.5C52.5 186.436 53.113 184.69 53.6768 183.283C54.2886 181.757 54.7533 180.795 54.9854 179.693C55.221 178.575 55.2017 177.409 55.2529 175.799C55.2988 174.357 55.4055 172.5 56.2031 170.794C62.3306 157.691 75.2916 150.5 90 150.5C98.1682 150.5 105.804 152.711 112.046 156.955C112.853 157.504 113.158 158.288 113.275 158.774C113.393 159.261 113.392 159.72 113.376 160.037C113.369 160.169 113.358 160.304 113.344 160.439C113.456 160.403 113.569 160.368 113.68 160.339C113.987 160.257 114.443 160.161 114.952 160.181C115.47 160.2 116.302 160.354 116.994 161.047C123.562 167.62 127.5 176.986 127.5 188.5C127.5 200.315 123.353 209.865 116.479 216.457C109.625 223.031 100.229 226.5 90 226.5Z" fill="#C8A078" stroke="#82644D" stroke-width="5"/>
<path opacity="0.5" fill-rule="evenodd" clip-rule="evenodd" d="M109.974 208.518C115.004 203.965 118.085 197.359 118.085 189C118.085 180.641 115.004 174.035 109.974 169.482C104.919 164.906 97.869 162.388 90 162.388C82.131 162.388 75.0814 164.906 70.0263 169.482C64.9959 174.035 61.9149 180.641 61.9149 189C61.9149 197.359 64.9959 203.965 70.0263 208.518C75.0814 213.094 82.131 215.612 90 215.612C97.869 215.612 104.919 213.094 109.974 208.518ZM111.099 210.451C105.642 215.39 98.1707 218 90 218C81.8293 218 74.3576 215.39 68.9014 210.451C63.4204 205.489 60 198.192 60 189C60 179.808 63.4204 172.511 68.9014 167.549C74.3576 162.61 81.8293 160 90 160C98.1707 160 105.642 162.61 111.099 167.549C116.58 172.511 120 179.808 120 189C120 198.192 116.58 205.489 111.099 210.451Z" fill="#A6815E"/>
<path opacity="0.5" fill-rule="evenodd" clip-rule="evenodd" d="M101.373 199.577C104.33 196.977 106.119 193.234 106.119 188.5C106.119 183.766 104.33 180.023 101.373 177.423C98.3914 174.801 94.2054 173.337 89.5 173.337C84.7946 173.337 80.6086 174.801 77.6271 177.423C74.6704 180.023 72.8814 183.766 72.8814 188.5C72.8814 193.234 74.6704 196.977 77.6271 199.577C80.6086 202.199 84.7946 203.663 89.5 203.663C94.2054 203.663 98.3914 202.199 101.373 199.577ZM102.46 201.485C99.086 204.452 94.4924 206 89.5 206C84.5076 206 79.914 204.452 76.5402 201.485C73.1417 198.497 71 194.074 71 188.5C71 182.926 73.1417 178.503 76.5402 175.515C79.914 172.548 84.5076 171 89.5 171C94.4924 171 99.086 172.548 102.46 175.515C105.858 178.503 108 182.926 108 188.5C108 194.074 105.858 198.497 102.46 201.485Z" fill="#A6815E"/>
<path opacity="0.5" fill-rule="evenodd" clip-rule="evenodd" d="M93.5609 194.108C94.5291 193.156 95.125 191.785 95.125 190C95.125 188.215 94.5291 186.844 93.5609 185.892C92.5717 184.919 91.1485 184.345 89.5 184.345C87.8515 184.345 86.4283 184.919 85.4391 185.892C84.4709 186.844 83.875 188.215 83.875 190C83.875 191.785 84.4709 193.156 85.4391 194.108C86.4283 195.081 87.8515 195.655 89.5 195.655C91.1485 195.655 92.5717 195.081 93.5609 194.108ZM94.7199 195.951C93.3339 197.315 91.4759 198 89.5 198C87.5241 198 85.6661 197.315 84.2801 195.951C82.8731 194.567 82 192.525 82 190C82 187.475 82.8731 185.433 84.2801 184.049C85.6661 182.685 87.5241 182 89.5 182C91.4759 182 93.3339 182.685 94.7199 184.049C96.1269 185.433 97 187.475 97 190C97 192.525 96.1269 194.567 94.7199 195.951Z" fill="#A6815E"/>
<path opacity="0.5" fill-rule="evenodd" clip-rule="evenodd" d="M91.2402 189.335C91.241 189.335 91.2383 189.34 91.2299 189.349C91.2353 189.339 91.2395 189.334 91.2402 189.335ZM91.0004 189.5C90.7717 189.609 90.4284 189.69 90 189.69C89.5716 189.69 89.2283 189.609 88.9996 189.5C89.2283 189.391 89.5716 189.31 90 189.31C90.4284 189.31 90.7717 189.391 91.0004 189.5ZM88.7598 189.335C88.7605 189.334 88.7647 189.339 88.7701 189.349C88.7617 189.34 88.759 189.335 88.7598 189.335ZM88.7701 189.651C88.7647 189.661 88.7605 189.666 88.7598 189.665C88.759 189.665 88.7617 189.66 88.7701 189.651ZM91.2299 189.651C91.2383 189.66 91.241 189.665 91.2402 189.665C91.2395 189.666 91.2353 189.661 91.2299 189.651ZM91.869 191.535C91.331 191.861 90.6632 192 90 192C89.3368 192 88.669 191.861 88.131 191.535C87.6092 191.219 87 190.574 87 189.5C87 188.426 87.6092 187.781 88.131 187.465C88.669 187.139 89.3368 187 90 187C90.6632 187 91.331 187.139 91.869 187.465C92.3908 187.781 93 188.426 93 189.5C93 190.574 92.3908 191.219 91.869 191.535Z" fill="#A6815E"/>
<path opacity="0.1" d="M98 70.2857C98 74.9801 98.8713 80 100.742 80C102.613 80 103 76.1944 103 71.5C103 66.8056 102.613 63 100.742 63C98.8713 63 98 65.5913 98 70.2857Z" fill="#F1F5F9"/>
<path opacity="0.1" d="M78 101.429C78 105.571 78.8713 110 80.7419 110C82.6126 110 83 106.642 83 102.5C83 98.3579 82.6126 95 80.7419 95C78.8713 95 78 97.2865 78 101.429Z" fill="#F1F5F9"/>
<path opacity="0.1" d="M83 51.2857C83 54.0471 84.3941 57 87.3871 57C90.3801 57 91 54.7614 91 52C91 49.2386 90.3801 47 87.3871 47C84.3941 47 83 48.5243 83 51.2857Z" fill="black"/>
<path opacity="0.1" d="M115 111.286C115 114.047 115.871 117 117.742 117C119.613 117 120 114.761 120 112C120 109.239 119.613 107 117.742 107C115.871 107 115 108.524 115 111.286Z" fill="#F1F5F9"/>
<path opacity="0.1" d="M104 126.571C104 132.094 105.046 138 107.29 138C109.535 138 110 133.523 110 128C110 122.477 109.535 118 107.29 118C105.046 118 104 121.049 104 126.571Z" fill="black"/>
<path opacity="0.1" d="M123 52.7142C123 57.6848 122.129 62.9999 120.258 62.9999C118.387 62.9999 118 58.9705 118 53.9999C118 49.0294 118.387 44.9999 120.258 44.9999C122.129 44.9999 123 47.7437 123 52.7142Z" fill="#F1F5F9"/>
<path opacity="0.1" d="M118 29.1428C118 32.4565 116.78 36 114.161 36C111.542 36 111 33.3137 111 30C111 26.6863 111.542 24 114.161 24C116.78 24 118 25.8291 118 29.1428Z" fill="black"/>
<path opacity="0.1" d="M74 22.5714C74 26.1613 73.1287 30 71.2581 30C69.3874 30 69 27.0899 69 23.5C69 19.9101 69.3874 17 71.2581 17C73.1287 17 74 18.9816 74 22.5714Z" fill="#F1F5F9"/>
<path opacity="0.1" d="M73 123.571C73 127.161 72.1287 131 70.2581 131C68.3874 131 68 128.09 68 124.5C68 120.91 68.3874 118 70.2581 118C72.1287 118 73 119.982 73 123.571Z" fill="black"/>
<path opacity="0.1" d="M61 43.4286C61 47.5707 59.9544 52 57.7097 52C55.4649 52 55 48.6421 55 44.5C55 40.3579 55.4649 37 57.7097 37C59.9544 37 61 39.2864 61 43.4286Z" fill="#F1F5F9"/>
<path opacity="0.1" d="M66 83.5714C66 89.0943 64.7802 95 62.1613 95C59.5424 95 59 90.5228 59 85C59 79.4771 59.5424 75 62.1613 75C64.7802 75 66 78.0486 66 83.5714Z" fill="black"/>
</g>
<path d="M130.5 143C126 101.5 76 108 76 78C76 48.3756 142.95 43 136.5 86C133.5 106 136.5 108 143.5 121C151.734 136.291 131.108 148.607 130.5 143Z" fill="black" fill-opacity="0.12"/>
<g filter="url(#filter6_ii_242_168569)">
<path d="M130 144C130 90 76 102 76 72C76 42.3756 142.95 37 136.5 80C133.5 100 136.5 102 143.5 115C151.734 130.291 130 149.64 130 144Z" fill="#F1F5F9"/>
</g>
<defs>
<filter id="filter0_ii_242_168569" x="-6" y="-8" width="104" height="278" filterUnits="userSpaceOnUse" color-interpolation-filters="sRGB">
<feFlood flood-opacity="0" result="BackgroundImageFix"/>
<feBlend mode="normal" in="SourceGraphic" in2="BackgroundImageFix" result="shape"/>
<feColorMatrix in="SourceAlpha" type="matrix" values="0 0 0 0 0 0 0 0 0 0 0 0 0 0 0 0 0 0 127 0" result="hardAlpha"/>
<feOffset dx="8" dy="-8"/>
<feGaussianBlur stdDeviation="16"/>
<feComposite in2="hardAlpha" operator="arithmetic" k2="-1" k3="1"/>
<feColorMatrix type="matrix" values="0 0 0 0 0 0 0 0 0 0 0 0 0 0 0 0 0 0 0.45 0"/>
<feBlend mode="normal" in2="shape" result="effect1_innerShadow_242_168569"/>
<feColorMatrix in="SourceAlpha" type="matrix" values="0 0 0 0 0 0 0 0 0 0 0 0 0 0 0 0 0 0 127 0" result="hardAlpha"/>
<feOffset dx="-16"/>
<feGaussianBlur stdDeviation="12"/>
<feComposite in2="hardAlpha" operator="arithmetic" k2="-1" k3="1"/>
<feColorMatrix type="matrix" values="0 0 0 0 1 0 0 0 0 1 0 0 0 0 1 0 0 0 0.25 0"/>
<feBlend mode="normal" in2="effect1_innerShadow_242_168569" result="effect2_innerShadow_242_168569"/>
</filter>
<filter id="filter1_ii_242_168569" x="74" y="16" width="104" height="254" filterUnits="userSpaceOnUse" color-interpolation-filters="sRGB">
<feFlood flood-opacity="0" result="BackgroundImageFix"/>
<feBlend mode="normal" in="SourceGraphic" in2="BackgroundImageFix" result="shape"/>
<feColorMatrix in="SourceAlpha" type="matrix" values="0 0 0 0 0 0 0 0 0 0 0 0 0 0 0 0 0 0 127 0" result="hardAlpha"/>
<feOffset dx="8" dy="-8"/>
<feGaussianBlur stdDeviation="16"/>
<feComposite in2="hardAlpha" operator="arithmetic" k2="-1" k3="1"/>
<feColorMatrix type="matrix" values="0 0 0 0 0 0 0 0 0 0 0 0 0 0 0 0 0 0 0.45 0"/>
<feBlend mode="normal" in2="shape" result="effect1_innerShadow_242_168569"/>
<feColorMatrix in="SourceAlpha" type="matrix" values="0 0 0 0 0 0 0 0 0 0 0 0 0 0 0 0 0 0 127 0" result="hardAlpha"/>
<feOffset dx="-16"/>
<feGaussianBlur stdDeviation="12"/>
<feComposite in2="hardAlpha" operator="arithmetic" k2="-1" k3="1"/>
<feColorMatrix type="matrix" values="0 0 0 0 1 0 0 0 0 1 0 0 0 0 1 0 0 0 0.25 0"/>
<feBlend mode="normal" in2="effect1_innerShadow_242_168569" result="effect2_innerShadow_242_168569"/>
</filter>
<filter id="filter2_ii_242_168569" x="55.5791" y="237.977" width="101.395" height="76.492" filterUnits="userSpaceOnUse" color-interpolation-filters="sRGB">
<feFlood flood-opacity="0" result="BackgroundImageFix"/>
<feBlend mode="normal" in="SourceGraphic" in2="BackgroundImageFix" result="shape"/>
<feColorMatrix in="SourceAlpha" type="matrix" values="0 0 0 0 0 0 0 0 0 0 0 0 0 0 0 0 0 0 127 0" result="hardAlpha"/>
<feOffset dy="-6.96842"/>
<feGaussianBlur stdDeviation="5.57473"/>
<feComposite in2="hardAlpha" operator="arithmetic" k2="-1" k3="1"/>
<feColorMatrix type="matrix" values="0 0 0 0 0 0 0 0 0 0 0 0 0 0 0 0 0 0 0.15 0"/>
<feBlend mode="normal" in2="shape" result="effect1_innerShadow_242_168569"/>
<feColorMatrix in="SourceAlpha" type="matrix" values="0 0 0 0 0 0 0 0 0 0 0 0 0 0 0 0 0 0 127 0" result="hardAlpha"/>
<feOffset dx="33.4484" dy="-39.0231"/>
<feGaussianBlur stdDeviation="19.5116"/>
<feComposite in2="hardAlpha" operator="arithmetic" k2="-1" k3="1"/>
<feColorMatrix type="matrix" values="0 0 0 0 0 0 0 0 0 0 0 0 0 0 0 0 0 0 0.11 0"/>
<feBlend mode="normal" in2="effect1_innerShadow_242_168569" result="effect2_innerShadow_242_168569"/>
</filter>
<filter id="filter3_ii_242_168569" x="13.4629" y="22.9292" width="110.833" height="222.571" filterUnits="userSpaceOnUse" color-interpolation-filters="sRGB">
<feFlood flood-opacity="0" result="BackgroundImageFix"/>
<feBlend mode="normal" in="SourceGraphic" in2="BackgroundImageFix" result="shape"/>
<feColorMatrix in="SourceAlpha" type="matrix" values="0 0 0 0 0 0 0 0 0 0 0 0 0 0 0 0 0 0 127 0" result="hardAlpha"/>
<feOffset dy="-5.24142"/>
<feGaussianBlur stdDeviation="4.19314"/>
<feComposite in2="hardAlpha" operator="arithmetic" k2="-1" k3="1"/>
<feColorMatrix type="matrix" values="0 0 0 0 0 0 0 0 0 0 0 0 0 0 0 0 0 0 0.15 0"/>
<feBlend mode="normal" in2="shape" result="effect1_innerShadow_242_168569"/>
<feColorMatrix in="SourceAlpha" type="matrix" values="0 0 0 0 0 0 0 0 0 0 0 0 0 0 0 0 0 0 127 0" result="hardAlpha"/>
<feOffset dx="25.1588" dy="-29.352"/>
<feGaussianBlur stdDeviation="14.676"/>
<feComposite in2="hardAlpha" operator="arithmetic" k2="-1" k3="1"/>
<feColorMatrix type="matrix" values="0 0 0 0 0 0 0 0 0 0 0 0 0 0 0 0 0 0 0.11 0"/>
<feBlend mode="normal" in2="effect1_innerShadow_242_168569" result="effect2_innerShadow_242_168569"/>
</filter>
<filter id="filter4_dd_242_168569" x="34" y="0" width="96" height="240" filterUnits="userSpaceOnUse" color-interpolation-filters="sRGB">
<feFlood flood-opacity="0" result="BackgroundImageFix"/>
<feColorMatrix in="SourceAlpha" type="matrix" values="0 0 0 0 0 0 0 0 0 0 0 0 0 0 0 0 0 0 127 0" result="hardAlpha"/>
<feOffset dx="-16" dy="8"/>
<feComposite in2="hardAlpha" operator="out"/>
<feColorMatrix type="matrix" values="0 0 0 0 0 0 0 0 0 0 0 0 0 0 0 0 0 0 0.25 0"/>
<feBlend mode="normal" in2="BackgroundImageFix" result="effect1_dropShadow_242_168569"/>
<feColorMatrix in="SourceAlpha" type="matrix" values="0 0 0 0 0 0 0 0 0 0 0 0 0 0 0 0 0 0 127 0" result="hardAlpha"/>
<feOffset dx="-4" dy="11"/>
<feComposite in2="hardAlpha" operator="out"/>
<feColorMatrix type="matrix" values="0 0 0 0 0 0 0 0 0 0 0 0 0 0 0 0 0 0 0.25 0"/>
<feBlend mode="normal" in2="effect1_dropShadow_242_168569" result="effect2_dropShadow_242_168569"/>
<feBlend mode="normal" in="SourceGraphic" in2="effect2_dropShadow_242_168569" result="shape"/>
</filter>
<filter id="filter5_ii_242_168569" x="34" y="-8" width="104" height="198" filterUnits="userSpaceOnUse" color-interpolation-filters="sRGB">
<feFlood flood-opacity="0" result="BackgroundImageFix"/>
<feBlend mode="normal" in="SourceGraphic" in2="BackgroundImageFix" result="shape"/>
<feColorMatrix in="SourceAlpha" type="matrix" values="0 0 0 0 0 0 0 0 0 0 0 0 0 0 0 0 0 0 127 0" result="hardAlpha"/>
<feOffset dx="8" dy="-8"/>
<feGaussianBlur stdDeviation="16"/>
<feComposite in2="hardAlpha" operator="arithmetic" k2="-1" k3="1"/>
<feColorMatrix type="matrix" values="0 0 0 0 0 0 0 0 0 0 0 0 0 0 0 0 0 0 0.45 0"/>
<feBlend mode="normal" in2="shape" result="effect1_innerShadow_242_168569"/>
<feColorMatrix in="SourceAlpha" type="matrix" values="0 0 0 0 0 0 0 0 0 0 0 0 0 0 0 0 0 0 127 0" result="hardAlpha"/>
<feOffset dx="-16"/>
<feGaussianBlur stdDeviation="12"/>
<feComposite in2="hardAlpha" operator="arithmetic" k2="-1" k3="1"/>
<feColorMatrix type="matrix" values="0 0 0 0 1 0 0 0 0 1 0 0 0 0 1 0 0 0 0.25 0"/>
<feBlend mode="normal" in2="effect1_innerShadow_242_168569" result="effect2_innerShadow_242_168569"/>
</filter>
<filter id="filter6_ii_242_168569" x="76" y="19.405" width="94.5211" height="125.596" filterUnits="userSpaceOnUse" color-interpolation-filters="sRGB">
<feFlood flood-opacity="0" result="BackgroundImageFix"/>
<feBlend mode="normal" in="SourceGraphic" in2="BackgroundImageFix" result="shape"/>
<feColorMatrix in="SourceAlpha" type="matrix" values="0 0 0 0 0 0 0 0 0 0 0 0 0 0 0 0 0 0 127 0" result="hardAlpha"/>
<feOffset dy="-5.24142"/>
<feGaussianBlur stdDeviation="4.19314"/>
<feComposite in2="hardAlpha" operator="arithmetic" k2="-1" k3="1"/>
<feColorMatrix type="matrix" values="0 0 0 0 0 0 0 0 0 0 0 0 0 0 0 0 0 0 0.15 0"/>
<feBlend mode="normal" in2="shape" result="effect1_innerShadow_242_168569"/>
<feColorMatrix in="SourceAlpha" type="matrix" values="0 0 0 0 0 0 0 0 0 0 0 0 0 0 0 0 0 0 127 0" result="hardAlpha"/>
<feOffset dx="25.1588" dy="-29.352"/>
<feGaussianBlur stdDeviation="14.676"/>
<feComposite in2="hardAlpha" operator="arithmetic" k2="-1" k3="1"/>
<feColorMatrix type="matrix" values="0 0 0 0 0 0 0 0 0 0 0 0 0 0 0 0 0 0 0.11 0"/>
<feBlend mode="normal" in2="effect1_innerShadow_242_168569" result="effect2_innerShadow_242_168569"/>
</filter>
</defs>
</svg>
