<svg width="199" height="415" viewBox="0 0 199 415" fill="none" xmlns="http://www.w3.org/2000/svg">
<path opacity="0.3" d="M169.857 385.857C131 424.714 68 424.714 29.1429 385.857C-9.71429 347 -9.71429 284 29.1429 245.143C68 206.286 131 206.286 169.857 245.143C208.714 284 208.714 347 169.857 385.857Z" fill="black" fill-opacity="0.12"/>
<path d="M141.193 357.193C118.167 380.22 80.8334 380.22 57.807 357.193C34.7805 334.167 34.7805 296.833 57.807 273.807C80.8334 250.78 118.167 250.78 141.193 273.807C164.22 296.833 164.22 334.167 141.193 357.193Z" fill="black" fill-opacity="0.12"/>
<path d="M120.347 335.118C108.833 346.631 90.1667 346.631 78.6535 335.118C67.1402 323.605 67.1402 304.938 78.6535 293.425C90.1667 281.912 108.833 281.912 120.347 293.425C131.86 304.938 131.86 323.605 120.347 335.118Z" fill="black" fill-opacity="0.2"/>
<g filter="url(#filter0_ii_242_166904)">
<path d="M81.0742 122.84H117.926V315.5C117.926 325.676 109.677 333.926 99.5001 333.926C89.3238 333.926 81.0742 325.676 81.0742 315.5V122.84Z" fill="#82644D"/>
</g>
<path d="M81.0742 278.846H117.926V296.043C117.926 306.22 109.677 314.469 99.5001 314.469C89.3238 314.469 81.0742 306.22 81.0742 296.043V278.846Z" fill="url(#paint0_linear_242_166904)"/>
<g filter="url(#filter1_i_242_166904)">
<path d="M19.6536 242.332C19.6536 249.216 25.7175 250.781 27.6281 257.075C29.4917 263.213 34.2475 271.16 37.6694 276.488C41.5873 282.589 49.5093 278.092 55.1096 282.785C61.7169 288.321 66.2945 295.688 74.6602 298.706C82.7677 301.63 91.5526 297.354 100.728 297.354C109.903 297.354 118.688 301.63 126.795 298.706C135.161 295.688 139.739 288.321 146.346 282.785C151.946 278.092 159.868 275.542 163.786 269.442C167.208 264.113 169.305 256.166 171.169 250.028C173.08 243.734 181.802 242.17 181.802 235.285C181.802 208.504 143.858 131.254 119.887 85.121C107.554 61.3875 93.8268 61.3632 81.9013 85.3038C57.9497 133.387 19.6536 215.427 19.6536 242.332Z" fill="#0D9488"/>
</g>
<path d="M180.643 224.43C179.023 215.397 174.173 200.41 168.757 185.289C157.076 152.673 126.075 148.635 128.59 183.185C129.328 193.319 133.927 202.042 142.482 207.673C163.4 221.443 158.674 229.948 164.572 234.018C174.358 240.771 181.66 230.099 180.643 224.43Z" fill="black" fill-opacity="0.12"/>
<g filter="url(#filter2_ii_242_166904)">
<path d="M182.408 197.402C181.339 191.331 178.713 184.037 175.38 176.531C161.447 145.16 126.817 143.536 128.496 177.816C129.015 188.406 133.6 197.538 142.357 203.367C163.177 217.227 161.674 229.983 166.758 232.491C184.891 241.435 183.414 203.118 182.408 197.402Z" fill="#E2E8F0"/>
</g>
<path d="M65.812 98.1211C58.8552 109.163 52.8827 120.126 50.4281 128.406C47.1865 139.341 40.3099 175.661 60.9433 175.661C81.5768 175.661 81.3843 159.277 98.9276 156.339C127.064 151.626 148.636 146.982 148.636 131.361C148.636 123.84 141.883 110.853 133.368 97.5163C113.421 66.2687 85.5732 66.7553 65.812 98.1211Z" fill="black" fill-opacity="0.12"/>
<g filter="url(#filter3_ii_242_166904)">
<path d="M124.708 81.1951C134.815 96.4394 144.842 113.333 148.264 124.857C151.565 135.974 132.452 148.839 105.63 152.015C78.807 155.191 80.4937 171.015 64.8274 172.947C32.6402 176.917 47.2719 133.592 49.2266 126.446C52.8361 113.249 62.8389 95.9205 72.9524 80.6793C88.6996 56.948 108.969 57.4583 124.708 81.1951Z" fill="#E2E8F0"/>
</g>
<path d="M78.7597 220.984C69.9741 234.712 60.5829 249.962 55.7522 259.625C44.3187 282.496 68.44 302.04 91.6227 285.173C114.805 268.306 115.403 294.197 129.152 295.881C151.001 298.559 144.381 267.239 142.665 261.009C139.377 249.068 130.044 233.245 120.832 219.605C107.487 199.847 91.6115 200.901 78.7597 220.984Z" fill="black" fill-opacity="0.12"/>
<g filter="url(#filter4_ii_242_166904)">
<path d="M78.7245 215.856C69.9617 229.72 60.5484 245.193 55.7248 254.969C44.398 277.925 68.2942 297.541 91.2605 280.612C114.227 263.682 114.643 295.356 128.264 297.047C156.247 300.521 143.526 262.611 141.827 256.358C138.546 244.285 129.188 228.26 119.998 214.502C106.891 194.881 91.3314 195.91 78.7245 215.856Z" fill="#E2E8F0"/>
</g>
<defs>
<filter id="filter0_ii_242_166904" x="66.3304" y="115.468" width="66.3392" height="239.653" filterUnits="userSpaceOnUse" color-interpolation-filters="sRGB">
<feFlood flood-opacity="0" result="BackgroundImageFix"/>
<feBlend mode="normal" in="SourceGraphic" in2="BackgroundImageFix" result="shape"/>
<feColorMatrix in="SourceAlpha" type="matrix" values="0 0 0 0 0 0 0 0 0 0 0 0 0 0 0 0 0 0 127 0" result="hardAlpha"/>
<feOffset dx="14.7438" dy="-7.3719"/>
<feGaussianBlur stdDeviation="11.0579"/>
<feComposite in2="hardAlpha" operator="arithmetic" k2="-1" k3="1"/>
<feColorMatrix type="matrix" values="0 0 0 0 0 0 0 0 0 0 0 0 0 0 0 0 0 0 0.25 0"/>
<feBlend mode="normal" in2="shape" result="effect1_innerShadow_242_166904"/>
<feColorMatrix in="SourceAlpha" type="matrix" values="0 0 0 0 0 0 0 0 0 0 0 0 0 0 0 0 0 0 127 0" result="hardAlpha"/>
<feOffset dx="-14.7438" dy="22.1157"/>
<feGaussianBlur stdDeviation="10.5971"/>
<feComposite in2="hardAlpha" operator="arithmetic" k2="-1" k3="1"/>
<feColorMatrix type="matrix" values="0 0 0 0 1 0 0 0 0 1 0 0 0 0 1 0 0 0 0.25 0"/>
<feBlend mode="normal" in2="effect1_innerShadow_242_166904" result="effect2_innerShadow_242_166904"/>
</filter>
<filter id="filter1_i_242_166904" x="19.6533" y="34.5637" width="162.148" height="265.165" filterUnits="userSpaceOnUse" color-interpolation-filters="sRGB">
<feFlood flood-opacity="0" result="BackgroundImageFix"/>
<feBlend mode="normal" in="SourceGraphic" in2="BackgroundImageFix" result="shape"/>
<feColorMatrix in="SourceAlpha" type="matrix" values="0 0 0 0 0 0 0 0 0 0 0 0 0 0 0 0 0 0 127 0" result="hardAlpha"/>
<feOffset dy="-32.7708"/>
<feGaussianBlur stdDeviation="16.3854"/>
<feComposite in2="hardAlpha" operator="arithmetic" k2="-1" k3="1"/>
<feColorMatrix type="matrix" values="0 0 0 0 0 0 0 0 0 0 0 0 0 0 0 0 0 0 0.25 0"/>
<feBlend mode="normal" in2="shape" result="effect1_innerShadow_242_166904"/>
</filter>
<filter id="filter2_ii_242_166904" x="128.437" y="122.597" width="80.1784" height="111.24" filterUnits="userSpaceOnUse" color-interpolation-filters="sRGB">
<feFlood flood-opacity="0" result="BackgroundImageFix"/>
<feBlend mode="normal" in="SourceGraphic" in2="BackgroundImageFix" result="shape"/>
<feColorMatrix in="SourceAlpha" type="matrix" values="0 0 0 0 0 0 0 0 0 0 0 0 0 0 0 0 0 0 127 0" result="hardAlpha"/>
<feOffset dy="-5.34946"/>
<feGaussianBlur stdDeviation="4.27957"/>
<feComposite in2="hardAlpha" operator="arithmetic" k2="-1" k3="1"/>
<feColorMatrix type="matrix" values="0 0 0 0 0 0 0 0 0 0 0 0 0 0 0 0 0 0 0.15 0"/>
<feBlend mode="normal" in2="shape" result="effect1_innerShadow_242_166904"/>
<feColorMatrix in="SourceAlpha" type="matrix" values="0 0 0 0 0 0 0 0 0 0 0 0 0 0 0 0 0 0 127 0" result="hardAlpha"/>
<feOffset dx="25.6774" dy="-29.957"/>
<feGaussianBlur stdDeviation="14.9785"/>
<feComposite in2="hardAlpha" operator="arithmetic" k2="-1" k3="1"/>
<feColorMatrix type="matrix" values="0 0 0 0 0 0 0 0 0 0 0 0 0 0 0 0 0 0 0.11 0"/>
<feBlend mode="normal" in2="effect1_innerShadow_242_166904" result="effect2_innerShadow_242_166904"/>
</filter>
<filter id="filter3_ii_242_166904" x="44.2207" y="33.1775" width="130.091" height="140.026" filterUnits="userSpaceOnUse" color-interpolation-filters="sRGB">
<feFlood flood-opacity="0" result="BackgroundImageFix"/>
<feBlend mode="normal" in="SourceGraphic" in2="BackgroundImageFix" result="shape"/>
<feColorMatrix in="SourceAlpha" type="matrix" values="0 0 0 0 0 0 0 0 0 0 0 0 0 0 0 0 0 0 127 0" result="hardAlpha"/>
<feOffset dy="-5.34946"/>
<feGaussianBlur stdDeviation="4.27957"/>
<feComposite in2="hardAlpha" operator="arithmetic" k2="-1" k3="1"/>
<feColorMatrix type="matrix" values="0 0 0 0 0 0 0 0 0 0 0 0 0 0 0 0 0 0 0.15 0"/>
<feBlend mode="normal" in2="shape" result="effect1_innerShadow_242_166904"/>
<feColorMatrix in="SourceAlpha" type="matrix" values="0 0 0 0 0 0 0 0 0 0 0 0 0 0 0 0 0 0 127 0" result="hardAlpha"/>
<feOffset dx="25.6774" dy="-29.957"/>
<feGaussianBlur stdDeviation="14.9785"/>
<feComposite in2="hardAlpha" operator="arithmetic" k2="-1" k3="1"/>
<feColorMatrix type="matrix" values="0 0 0 0 0 0 0 0 0 0 0 0 0 0 0 0 0 0 0.11 0"/>
<feBlend mode="normal" in2="effect1_innerShadow_242_166904" result="effect2_innerShadow_242_166904"/>
</filter>
<filter id="filter4_ii_242_166904" x="52.8203" y="177.125" width="113.247" height="120.147" filterUnits="userSpaceOnUse" color-interpolation-filters="sRGB">
<feFlood flood-opacity="0" result="BackgroundImageFix"/>
<feBlend mode="normal" in="SourceGraphic" in2="BackgroundImageFix" result="shape"/>
<feColorMatrix in="SourceAlpha" type="matrix" values="0 0 0 0 0 0 0 0 0 0 0 0 0 0 0 0 0 0 127 0" result="hardAlpha"/>
<feOffset dy="-4.14349"/>
<feGaussianBlur stdDeviation="3.31479"/>
<feComposite in2="hardAlpha" operator="arithmetic" k2="-1" k3="1"/>
<feColorMatrix type="matrix" values="0 0 0 0 0 0 0 0 0 0 0 0 0 0 0 0 0 0 0.15 0"/>
<feBlend mode="normal" in2="shape" result="effect1_innerShadow_242_166904"/>
<feColorMatrix in="SourceAlpha" type="matrix" values="0 0 0 0 0 0 0 0 0 0 0 0 0 0 0 0 0 0 127 0" result="hardAlpha"/>
<feOffset dx="19.8887" dy="-23.2035"/>
<feGaussianBlur stdDeviation="11.6018"/>
<feComposite in2="hardAlpha" operator="arithmetic" k2="-1" k3="1"/>
<feColorMatrix type="matrix" values="0 0 0 0 0 0 0 0 0 0 0 0 0 0 0 0 0 0 0.11 0"/>
<feBlend mode="normal" in2="effect1_innerShadow_242_166904" result="effect2_innerShadow_242_166904"/>
</filter>
<linearGradient id="paint0_linear_242_166904" x1="99.5001" y1="291.97" x2="99.5001" y2="330.875" gradientUnits="userSpaceOnUse">
<stop stop-opacity="0.24"/>
<stop offset="1" stop-opacity="0"/>
</linearGradient>
</defs>
</svg>
