<svg width="378" height="110" viewBox="0 0 378 110" fill="none" xmlns="http://www.w3.org/2000/svg">
<path d="M4 56C4 28.8382 26.8042 7.24556 53.9256 8.72691L129.4 12.8493H242.399L324.068 8.59878C351.214 7.1859 374 28.8164 374 56C374 83.1836 351.214 104.814 324.068 103.401L242.399 99.1507H129.4L53.9255 103.273C26.8042 104.754 4 83.1618 4 56Z" fill="#2563EB"/>
<path d="M0 56C0 26.6499 24.6154 3.30292 53.9245 4.85429L129.4 8.84932H242.399L324.069 4.7241C353.404 3.24238 378 26.6278 378 56C378 85.3722 353.404 108.758 324.069 107.276L242.399 103.151H129.4L53.9245 107.146C24.6154 108.697 0 85.3502 0 56Z" fill="black" fill-opacity="0.2"/>
<path d="M4 50C4 22.8382 26.8042 1.24556 53.9256 2.72691L129.4 6.84932H242.399L324.068 2.59878C351.214 1.1859 374 22.8164 374 50C374 77.1836 351.214 98.8141 324.068 97.4012L242.399 93.1507H129.4L53.9255 97.2731C26.8042 98.7544 4 77.1618 4 50Z" fill="#3B82F6"/>
<g filter="url(#filter0_i_242_172142)">
<mask id="mask0_242_172142" style="mask-type:alpha" maskUnits="userSpaceOnUse" x="2" y="1" width="372" height="104">
<path d="M2.53891 54.4528C1.71596 23.7293 27.6606 -0.954923 58.305 1.39575L129.4 6.84932H242.399L321.072 2.7547C349.847 1.25705 374 24.1854 374 53C374 81.8146 349.847 104.743 321.072 103.245L242.399 99.1507H129.4L58.3993 104.727C28.8203 107.051 3.33336 84.1122 2.53891 54.4528Z" fill="#60A5FA"/>
</mask>
<g mask="url(#mask0_242_172142)">
<path d="M99 -109H283L61 183H-123L99 -109Z" fill="#EF4444"/>
<path d="M271 -109H300L78 183H49L271 -109Z" fill="#FB923C"/>
<path d="M283 -109H304L82 183H61L283 -109Z" fill="#E2E8F0"/>
</g>
</g>
<g filter="url(#filter1_d_242_172142)">
<mask id="path-8-outside-1_242_172142" maskUnits="userSpaceOnUse" x="67" y="23" width="262" height="54" fill="black">
<rect fill="white" x="67" y="23" width="262" height="54"/>
<path d="M98.325 71C105.208 71 110.538 70.0363 114.314 68.109C118.09 66.1817 119.978 63.035 119.978 58.669C119.978 55.7977 119.152 53.6147 117.5 52.12C115.848 50.6253 113.252 49.5633 109.712 48.934C112.544 48.344 114.747 47.3607 116.32 45.984C117.893 44.568 118.68 42.6013 118.68 40.084C118.68 37.4487 117.992 35.2853 116.615 33.594C115.238 31.9027 112.996 30.6243 109.889 29.759C108.355 29.3657 106.546 29.0707 104.461 28.874C102.416 28.638 100.095 28.52 97.499 28.52H71.539V71H98.325ZM95.552 41.264C96.9287 41.264 97.8727 41.4607 98.384 41.854C98.8954 42.2473 99.1314 42.6997 99.092 43.211C99.092 43.7223 98.856 44.1943 98.384 44.627C97.912 45.0597 96.968 45.276 95.552 45.276H90.065V41.264H95.552ZM95.257 53.654C97.027 53.654 98.207 53.831 98.797 54.185C99.4264 54.539 99.741 55.0307 99.741 55.66C99.741 56.2893 99.446 56.8203 98.856 57.253C98.3054 57.6463 97.1057 57.843 95.257 57.843H90.065V53.654H95.257ZM147.475 72.121C152.824 72.121 157.406 71.3147 161.222 69.702C165.076 68.0893 168.046 65.6507 170.131 62.386C171.193 60.734 171.979 58.8657 172.491 56.781C173.002 54.6963 173.258 52.3953 173.258 49.878C173.258 45.1973 172.196 41.1853 170.072 37.842C167.948 34.4593 164.978 31.883 161.163 30.113C159.275 29.2083 157.21 28.5397 154.968 28.107C152.765 27.635 150.385 27.399 147.829 27.399C142.597 27.399 138.015 28.3037 134.082 30.113C130.148 31.883 127.1 34.4593 124.937 37.842C123.875 39.494 123.068 41.323 122.518 43.329C121.967 45.335 121.692 47.518 121.692 49.878C121.692 57.43 123.953 63.035 128.477 66.693C133 70.3117 139.333 72.121 147.475 72.121ZM147.475 56.132C145.469 56.132 143.856 55.601 142.637 54.539C141.457 53.4377 140.867 51.884 140.867 49.878C140.867 47.9507 141.457 46.4167 142.637 45.276C143.856 44.096 145.469 43.506 147.475 43.506C149.481 43.506 151.074 44.096 152.254 45.276C153.473 46.4167 154.083 47.9507 154.083 49.878C154.083 51.884 153.473 53.4377 152.254 54.539C151.074 55.601 149.481 56.132 147.475 56.132ZM218.941 44.863V28.52H175.281V44.863H187.553V71H206.433V44.863H218.941ZM246.807 72.121C252.156 72.121 256.738 71.3147 260.554 69.702C264.409 68.0893 267.378 65.6507 269.463 62.386C270.525 60.734 271.312 58.8657 271.823 56.781C272.334 54.6963 272.59 52.3953 272.59 49.878C272.59 45.1973 271.528 41.1853 269.404 37.842C267.28 34.4593 264.31 31.883 260.495 30.113C258.607 29.2083 256.542 28.5397 254.3 28.107C252.097 27.635 249.717 27.399 247.161 27.399C241.929 27.399 237.347 28.3037 233.414 30.113C229.48 31.883 226.432 34.4593 224.269 37.842C223.207 39.494 222.4 41.323 221.85 43.329C221.299 45.335 221.024 47.518 221.024 49.878C221.024 57.43 223.285 63.035 227.809 66.693C232.332 70.3117 238.665 72.121 246.807 72.121ZM246.807 56.132C244.801 56.132 243.188 55.601 241.969 54.539C240.789 53.4377 240.199 51.884 240.199 49.878C240.199 47.9507 240.789 46.4167 241.969 45.276C243.188 44.096 244.801 43.506 246.807 43.506C248.813 43.506 250.406 44.096 251.586 45.276C252.805 46.4167 253.415 47.9507 253.415 49.878C253.415 51.884 252.805 53.4377 251.586 54.539C250.406 55.601 248.813 56.132 246.807 56.132ZM299.798 72.239C305.541 72.239 310.202 71.59 313.781 70.292C317.36 68.9547 319.996 67.1257 321.687 64.805C322.513 63.6643 323.123 62.445 323.516 61.147C323.949 59.8097 324.165 58.4133 324.165 56.958C324.165 53.8507 323.418 51.3727 321.923 49.524C320.468 47.6753 318.304 46.279 315.433 45.335C314.017 44.863 312.424 44.4893 310.654 44.214C308.923 43.8993 307.016 43.6633 304.931 43.506C301.627 43.27 299.149 43.0733 297.497 42.916C295.884 42.7193 294.803 42.503 294.252 42.267C294.016 42.1883 293.819 42.0703 293.662 41.913C293.544 41.7557 293.485 41.5983 293.485 41.441C293.485 41.0083 293.78 40.615 294.37 40.261C294.96 39.907 296.061 39.73 297.674 39.73C299.523 39.73 300.998 39.9463 302.099 40.379C303.2 40.8117 303.908 41.4607 304.223 42.326H323.693C322.67 38.5893 321.077 35.6197 318.914 33.417C316.751 31.175 313.958 29.5623 310.536 28.579C308.845 28.107 306.976 27.753 304.931 27.517C302.886 27.2417 300.663 27.104 298.264 27.104C293.387 27.104 289.198 27.7333 285.697 28.992C282.196 30.2113 279.502 32.001 277.614 34.361C276.67 35.541 275.962 36.839 275.49 38.255C275.018 39.6317 274.782 41.146 274.782 42.798C274.782 47.046 276.336 50.173 279.443 52.179C282.59 54.185 287.31 55.4043 293.603 55.837C297.025 56.073 299.582 56.2893 301.273 56.486C303.004 56.6827 304.144 56.9187 304.695 57.194C305.01 57.312 305.226 57.4497 305.344 57.607C305.501 57.7643 305.58 57.961 305.58 58.197C305.58 58.669 305.265 59.0427 304.636 59.318C304.046 59.554 303.004 59.672 301.509 59.672C299.975 59.672 298.5 59.4753 297.084 59.082C295.668 58.6887 294.803 58.0003 294.488 57.017H273.72C274.231 60.2423 275.352 62.9957 277.083 65.277C278.853 67.519 281.547 69.2497 285.166 70.469C286.975 71.059 289.099 71.4917 291.538 71.767C293.977 72.0817 296.73 72.239 299.798 72.239Z"/>
</mask>
<path d="M98.325 71C105.208 71 110.538 70.0363 114.314 68.109C118.09 66.1817 119.978 63.035 119.978 58.669C119.978 55.7977 119.152 53.6147 117.5 52.12C115.848 50.6253 113.252 49.5633 109.712 48.934C112.544 48.344 114.747 47.3607 116.32 45.984C117.893 44.568 118.68 42.6013 118.68 40.084C118.68 37.4487 117.992 35.2853 116.615 33.594C115.238 31.9027 112.996 30.6243 109.889 29.759C108.355 29.3657 106.546 29.0707 104.461 28.874C102.416 28.638 100.095 28.52 97.499 28.52H71.539V71H98.325ZM95.552 41.264C96.9287 41.264 97.8727 41.4607 98.384 41.854C98.8954 42.2473 99.1314 42.6997 99.092 43.211C99.092 43.7223 98.856 44.1943 98.384 44.627C97.912 45.0597 96.968 45.276 95.552 45.276H90.065V41.264H95.552ZM95.257 53.654C97.027 53.654 98.207 53.831 98.797 54.185C99.4264 54.539 99.741 55.0307 99.741 55.66C99.741 56.2893 99.446 56.8203 98.856 57.253C98.3054 57.6463 97.1057 57.843 95.257 57.843H90.065V53.654H95.257ZM147.475 72.121C152.824 72.121 157.406 71.3147 161.222 69.702C165.076 68.0893 168.046 65.6507 170.131 62.386C171.193 60.734 171.979 58.8657 172.491 56.781C173.002 54.6963 173.258 52.3953 173.258 49.878C173.258 45.1973 172.196 41.1853 170.072 37.842C167.948 34.4593 164.978 31.883 161.163 30.113C159.275 29.2083 157.21 28.5397 154.968 28.107C152.765 27.635 150.385 27.399 147.829 27.399C142.597 27.399 138.015 28.3037 134.082 30.113C130.148 31.883 127.1 34.4593 124.937 37.842C123.875 39.494 123.068 41.323 122.518 43.329C121.967 45.335 121.692 47.518 121.692 49.878C121.692 57.43 123.953 63.035 128.477 66.693C133 70.3117 139.333 72.121 147.475 72.121ZM147.475 56.132C145.469 56.132 143.856 55.601 142.637 54.539C141.457 53.4377 140.867 51.884 140.867 49.878C140.867 47.9507 141.457 46.4167 142.637 45.276C143.856 44.096 145.469 43.506 147.475 43.506C149.481 43.506 151.074 44.096 152.254 45.276C153.473 46.4167 154.083 47.9507 154.083 49.878C154.083 51.884 153.473 53.4377 152.254 54.539C151.074 55.601 149.481 56.132 147.475 56.132ZM218.941 44.863V28.52H175.281V44.863H187.553V71H206.433V44.863H218.941ZM246.807 72.121C252.156 72.121 256.738 71.3147 260.554 69.702C264.409 68.0893 267.378 65.6507 269.463 62.386C270.525 60.734 271.312 58.8657 271.823 56.781C272.334 54.6963 272.59 52.3953 272.59 49.878C272.59 45.1973 271.528 41.1853 269.404 37.842C267.28 34.4593 264.31 31.883 260.495 30.113C258.607 29.2083 256.542 28.5397 254.3 28.107C252.097 27.635 249.717 27.399 247.161 27.399C241.929 27.399 237.347 28.3037 233.414 30.113C229.48 31.883 226.432 34.4593 224.269 37.842C223.207 39.494 222.4 41.323 221.85 43.329C221.299 45.335 221.024 47.518 221.024 49.878C221.024 57.43 223.285 63.035 227.809 66.693C232.332 70.3117 238.665 72.121 246.807 72.121ZM246.807 56.132C244.801 56.132 243.188 55.601 241.969 54.539C240.789 53.4377 240.199 51.884 240.199 49.878C240.199 47.9507 240.789 46.4167 241.969 45.276C243.188 44.096 244.801 43.506 246.807 43.506C248.813 43.506 250.406 44.096 251.586 45.276C252.805 46.4167 253.415 47.9507 253.415 49.878C253.415 51.884 252.805 53.4377 251.586 54.539C250.406 55.601 248.813 56.132 246.807 56.132ZM299.798 72.239C305.541 72.239 310.202 71.59 313.781 70.292C317.36 68.9547 319.996 67.1257 321.687 64.805C322.513 63.6643 323.123 62.445 323.516 61.147C323.949 59.8097 324.165 58.4133 324.165 56.958C324.165 53.8507 323.418 51.3727 321.923 49.524C320.468 47.6753 318.304 46.279 315.433 45.335C314.017 44.863 312.424 44.4893 310.654 44.214C308.923 43.8993 307.016 43.6633 304.931 43.506C301.627 43.27 299.149 43.0733 297.497 42.916C295.884 42.7193 294.803 42.503 294.252 42.267C294.016 42.1883 293.819 42.0703 293.662 41.913C293.544 41.7557 293.485 41.5983 293.485 41.441C293.485 41.0083 293.78 40.615 294.37 40.261C294.96 39.907 296.061 39.73 297.674 39.73C299.523 39.73 300.998 39.9463 302.099 40.379C303.2 40.8117 303.908 41.4607 304.223 42.326H323.693C322.67 38.5893 321.077 35.6197 318.914 33.417C316.751 31.175 313.958 29.5623 310.536 28.579C308.845 28.107 306.976 27.753 304.931 27.517C302.886 27.2417 300.663 27.104 298.264 27.104C293.387 27.104 289.198 27.7333 285.697 28.992C282.196 30.2113 279.502 32.001 277.614 34.361C276.67 35.541 275.962 36.839 275.49 38.255C275.018 39.6317 274.782 41.146 274.782 42.798C274.782 47.046 276.336 50.173 279.443 52.179C282.59 54.185 287.31 55.4043 293.603 55.837C297.025 56.073 299.582 56.2893 301.273 56.486C303.004 56.6827 304.144 56.9187 304.695 57.194C305.01 57.312 305.226 57.4497 305.344 57.607C305.501 57.7643 305.58 57.961 305.58 58.197C305.58 58.669 305.265 59.0427 304.636 59.318C304.046 59.554 303.004 59.672 301.509 59.672C299.975 59.672 298.5 59.4753 297.084 59.082C295.668 58.6887 294.803 58.0003 294.488 57.017H273.72C274.231 60.2423 275.352 62.9957 277.083 65.277C278.853 67.519 281.547 69.2497 285.166 70.469C286.975 71.059 289.099 71.4917 291.538 71.767C293.977 72.0817 296.73 72.239 299.798 72.239Z" fill="#E2E8F0"/>
<path d="M117.5 52.12L120.184 49.1539V49.1539L117.5 52.12ZM109.712 48.934L108.896 45.0181L109.012 52.8722L109.712 48.934ZM116.32 45.984L118.954 48.9943L118.975 48.9759L118.996 48.9572L116.32 45.984ZM116.615 33.594L119.717 31.0689V31.0689L116.615 33.594ZM109.889 29.759L110.962 25.9056L110.922 25.8946L110.883 25.8843L109.889 29.759ZM104.461 28.874L104.003 32.8476L104.044 32.8524L104.085 32.8563L104.461 28.874ZM71.539 28.52V24.52H67.539V28.52H71.539ZM71.539 71H67.539V75H71.539V71ZM98.384 41.854L95.9452 45.0245L95.9452 45.0245L98.384 41.854ZM99.092 43.211L95.1038 42.9042L95.092 43.0574V43.211H99.092ZM98.384 44.627L101.087 47.5756L98.384 44.627ZM90.065 45.276H86.065V49.276H90.065V45.276ZM90.065 41.264V37.264H86.065V41.264H90.065ZM98.797 54.185L96.7391 57.615L96.7871 57.6438L96.836 57.6713L98.797 54.185ZM98.856 57.253L101.181 60.5079L101.201 60.4934L101.221 60.4786L98.856 57.253ZM90.065 57.843H86.065V61.843H90.065V57.843ZM90.065 53.654V49.654H86.065V53.654H90.065ZM98.325 75C105.49 75 111.548 74.0119 116.133 71.6717L112.496 64.5463C109.528 66.0608 104.926 67 98.325 67V75ZM116.133 71.6717C118.582 70.4213 120.606 68.6722 121.992 66.3615C123.374 64.0575 123.978 61.4384 123.978 58.669H115.978C115.978 60.2656 115.638 61.4028 115.132 62.2455C114.63 63.0815 113.822 63.8693 112.496 64.5463L116.133 71.6717ZM123.978 58.669C123.978 55.0142 122.901 51.612 120.184 49.1539L114.816 55.0861C115.404 55.6174 115.978 56.5811 115.978 58.669H123.978ZM120.184 49.1539C117.73 46.9342 114.281 45.6835 110.412 44.9958L109.012 52.8722C112.224 53.4432 113.966 54.3165 114.816 55.0861L120.184 49.1539ZM110.528 52.8499C113.788 52.1708 116.702 50.9652 118.954 48.9943L113.686 42.9737C112.792 43.7561 111.301 44.5172 108.896 45.0181L110.528 52.8499ZM118.996 48.9572C121.572 46.6388 122.68 43.5009 122.68 40.084H114.68C114.68 41.7017 114.215 42.4972 113.644 43.0108L118.996 48.9572ZM122.68 40.084C122.68 36.7276 121.789 33.614 119.717 31.0689L113.513 36.1191C114.195 36.9567 114.68 38.1698 114.68 40.084H122.68ZM119.717 31.0689C117.622 28.4949 114.504 26.892 110.962 25.9056L108.816 33.6124C111.489 34.3566 112.855 35.3105 113.513 36.1191L119.717 31.0689ZM110.883 25.8843C109.093 25.4255 107.068 25.1021 104.837 24.8917L104.085 32.8563C106.024 33.0392 107.617 33.3058 108.896 33.6337L110.883 25.8843ZM104.92 24.9004C102.689 24.643 100.211 24.52 97.499 24.52V32.52C99.9793 32.52 102.143 32.633 104.003 32.8476L104.92 24.9004ZM97.499 24.52H71.539V32.52H97.499V24.52ZM67.539 28.52V71H75.539V28.52H67.539ZM71.539 75H98.325V67H71.539V75ZM95.552 45.264C95.8031 45.264 96.0059 45.273 96.1656 45.2866C96.3268 45.3002 96.4269 45.317 96.4767 45.3274C96.5288 45.3383 96.5004 45.3368 96.4166 45.3028C96.3334 45.2691 96.1578 45.188 95.9452 45.0245L100.823 38.6835C99.912 37.9828 98.9035 37.6612 98.1084 37.4956C97.2811 37.3232 96.4086 37.264 95.552 37.264V45.264ZM95.9452 45.0245C95.8581 44.9575 95.6103 44.7451 95.3982 44.3385C95.1681 43.8975 95.0664 43.3906 95.1038 42.9042L103.08 43.5178C103.25 41.3085 102.091 39.659 100.823 38.6835L95.9452 45.0245ZM95.092 43.211C95.092 42.8255 95.1868 42.4607 95.3373 42.1596C95.4788 41.8767 95.6318 41.7236 95.6811 41.6784L101.087 47.5756C102.162 46.5899 103.092 45.1142 103.092 43.211H95.092ZM95.6811 41.6784C95.9287 41.4514 96.1518 41.3311 96.2749 41.2747C96.3973 41.2186 96.4599 41.2076 96.4285 41.2148C96.3999 41.2214 96.3153 41.2379 96.1604 41.2521C96.0074 41.2662 95.8068 41.276 95.552 41.276V49.276C96.4361 49.276 97.3498 49.2111 98.2155 49.0127C99.0439 48.8228 100.144 48.4402 101.087 47.5756L95.6811 41.6784ZM95.552 41.276H90.065V49.276H95.552V41.276ZM94.065 45.276V41.264H86.065V45.276H94.065ZM90.065 45.264H95.552V37.264H90.065V45.264ZM95.257 57.654C96.0286 57.654 96.5519 57.6939 96.8762 57.7425C97.0342 57.7662 97.099 57.7853 97.0945 57.784C97.0898 57.7826 97.0557 57.7722 96.9992 57.7485C96.9433 57.725 96.8524 57.683 96.7391 57.615L100.855 50.755C99.8963 50.1798 98.8465 49.9486 98.0629 49.831C97.2072 49.7026 96.2555 49.654 95.257 49.654V57.654ZM96.836 57.6713C96.7127 57.602 96.4061 57.3975 96.136 56.9755C95.849 56.5271 95.741 56.0473 95.741 55.66H103.741C103.741 53.3463 102.424 51.6355 100.758 50.6987L96.836 57.6713ZM95.741 55.66C95.741 55.3204 95.8284 54.9383 96.0232 54.5877C96.2071 54.2566 96.4139 54.0836 96.4906 54.0274L101.221 60.4786C102.649 59.4321 103.741 57.7826 103.741 55.66H95.741ZM96.5311 53.9981C96.807 53.801 97.015 53.7303 97.0437 53.7207C97.083 53.7074 97.0448 53.7238 96.8962 53.7482C96.5899 53.7984 96.0639 53.843 95.257 53.843V61.843C96.2989 61.843 97.297 61.7893 98.1904 61.6428C98.9865 61.5123 100.154 61.2417 101.181 60.5079L96.5311 53.9981ZM95.257 53.843H90.065V61.843H95.257V53.843ZM94.065 57.843V53.654H86.065V57.843H94.065ZM90.065 57.654H95.257V49.654H90.065V57.654ZM161.222 69.702L159.678 66.0119L159.671 66.0148L159.664 66.0176L161.222 69.702ZM170.131 62.386L166.766 60.223L166.76 60.2332L170.131 62.386ZM172.491 56.781L168.606 55.8281V55.8281L172.491 56.781ZM170.072 37.842L166.684 39.9691L166.69 39.978L166.696 39.9869L170.072 37.842ZM161.163 30.113L159.434 33.7203L159.457 33.731L159.479 33.7415L161.163 30.113ZM154.968 28.107L154.13 32.0182L154.17 32.0268L154.21 32.0345L154.968 28.107ZM134.082 30.113L135.723 33.7607L135.738 33.7539L135.753 33.747L134.082 30.113ZM124.937 37.842L128.302 40.005L128.307 39.9971L124.937 37.842ZM122.518 43.329L126.375 44.3879V44.3879L122.518 43.329ZM128.477 66.693L125.962 69.8032L125.97 69.8099L125.978 69.8165L128.477 66.693ZM142.637 54.539L139.908 57.4632L139.958 57.5102L140.01 57.5553L142.637 54.539ZM142.637 45.276L145.417 48.152L145.418 48.1504L142.637 45.276ZM152.254 45.276L149.425 48.1044L149.473 48.1516L149.521 48.1971L152.254 45.276ZM152.254 54.539L154.93 57.5122L154.935 57.5074L152.254 54.539ZM147.475 76.121C153.21 76.121 158.35 75.2585 162.779 73.3864L159.664 66.0176C156.463 67.3709 152.438 68.121 147.475 68.121V76.121ZM162.766 73.3921C167.31 71.491 170.944 68.5447 173.502 64.5388L166.76 60.2332C165.148 62.7566 162.843 64.6876 159.678 66.0119L162.766 73.3921ZM173.496 64.549C174.818 62.4922 175.769 60.2081 176.376 57.7339L168.606 55.8281C168.19 57.5232 167.568 58.9758 166.766 60.223L173.496 64.549ZM176.376 57.7339C176.975 55.2892 177.258 52.6628 177.258 49.878H169.258C169.258 52.1279 169.029 54.1034 168.606 55.8281L176.376 57.7339ZM177.258 49.878C177.258 44.5777 176.049 39.7904 173.448 35.6971L166.696 39.9869C168.343 42.5802 169.258 45.817 169.258 49.878H177.258ZM173.459 35.7149C170.902 31.6421 167.324 28.5616 162.846 26.4845L159.479 33.7415C162.633 35.2044 164.994 37.2766 166.684 39.9691L173.459 35.7149ZM162.891 26.5057C160.668 25.4406 158.273 24.6711 155.726 24.1795L154.21 32.0345C156.146 32.4082 157.881 32.9761 159.434 33.7203L162.891 26.5057ZM155.806 24.1958C153.294 23.6575 150.63 23.399 147.829 23.399V31.399C150.141 31.399 152.236 31.6125 154.13 32.0182L155.806 24.1958ZM147.829 23.399C142.138 23.399 136.965 24.3836 132.41 26.479L135.753 33.747C139.065 32.2237 143.057 31.399 147.829 31.399V23.399ZM132.44 26.4653C127.853 28.5296 124.181 31.6003 121.567 35.6869L128.307 39.9971C130.02 37.3184 132.444 35.2364 135.723 33.7607L132.44 26.4653ZM121.572 35.679C120.278 37.6916 119.312 39.8964 118.66 42.2701L126.375 44.3879C126.825 42.7495 127.471 41.2964 128.302 40.005L121.572 35.679ZM118.66 42.2701C118.003 44.6638 117.692 47.2074 117.692 49.878H125.692C125.692 47.8286 125.931 46.0062 126.375 44.3879L118.66 42.2701ZM117.692 49.878C117.692 58.2487 120.233 65.171 125.962 69.8032L130.992 63.5828C127.673 60.899 125.692 56.6113 125.692 49.878H117.692ZM125.978 69.8165C131.449 74.1934 138.786 76.121 147.475 76.121V68.121C139.879 68.121 134.551 66.4299 130.976 63.5695L125.978 69.8165ZM147.475 52.132C146.193 52.132 145.592 51.8082 145.264 51.5227L140.01 57.5553C142.121 59.3938 144.744 60.132 147.475 60.132V52.132ZM145.366 51.6148C145.186 51.4463 144.867 51.0633 144.867 49.878H136.867C136.867 52.7047 137.728 55.429 139.908 57.4632L145.366 51.6148ZM144.867 49.878C144.867 48.8302 145.152 48.4076 145.417 48.152L139.857 42.4C137.761 44.4258 136.867 47.0711 136.867 49.878H144.867ZM145.418 48.1504C145.758 47.8218 146.305 47.506 147.475 47.506V39.506C144.633 39.506 141.954 40.3702 139.855 42.4016L145.418 48.1504ZM147.475 47.506C148.649 47.506 149.143 47.8225 149.425 48.1044L155.082 42.4476C153.004 40.3695 150.312 39.506 147.475 39.506V47.506ZM149.521 48.1971C149.805 48.4625 150.083 48.8708 150.083 49.878H158.083C158.083 47.0306 157.141 44.3709 154.986 42.3549L149.521 48.1971ZM150.083 49.878C150.083 51.023 149.771 51.3918 149.573 51.5706L154.935 57.5074C157.176 55.4836 158.083 52.745 158.083 49.878H150.083ZM149.578 51.5658C149.311 51.8061 148.762 52.132 147.475 52.132V60.132C150.199 60.132 152.837 59.3959 154.93 57.5122L149.578 51.5658ZM218.941 44.863V48.863H222.941V44.863H218.941ZM218.941 28.52H222.941V24.52H218.941V28.52ZM175.281 28.52V24.52H171.281V28.52H175.281ZM175.281 44.863H171.281V48.863H175.281V44.863ZM187.553 44.863H191.553V40.863H187.553V44.863ZM187.553 71H183.553V75H187.553V71ZM206.433 71V75H210.433V71H206.433ZM206.433 44.863V40.863H202.433V44.863H206.433ZM222.941 44.863V28.52H214.941V44.863H222.941ZM218.941 24.52H175.281V32.52H218.941V24.52ZM171.281 28.52V44.863H179.281V28.52H171.281ZM175.281 48.863H187.553V40.863H175.281V48.863ZM183.553 44.863V71H191.553V44.863H183.553ZM187.553 75H206.433V67H187.553V75ZM210.433 71V44.863H202.433V71H210.433ZM206.433 48.863H218.941V40.863H206.433V48.863ZM260.554 69.702L259.01 66.0119L259.003 66.0148L258.997 66.0176L260.554 69.702ZM269.463 62.386L266.098 60.223L266.092 60.2332L269.463 62.386ZM271.823 56.781L267.938 55.8281V55.8281L271.823 56.781ZM269.404 37.842L266.016 39.9691L266.022 39.978L266.028 39.9869L269.404 37.842ZM260.495 30.113L258.766 33.7203L258.789 33.731L258.811 33.7415L260.495 30.113ZM254.3 28.107L253.462 32.0182L253.502 32.0268L253.542 32.0345L254.3 28.107ZM233.414 30.113L235.055 33.7607L235.07 33.7539L235.085 33.747L233.414 30.113ZM224.269 37.842L227.634 40.005L227.639 39.9971L224.269 37.842ZM221.85 43.329L225.707 44.3879V44.3879L221.85 43.329ZM227.809 66.693L225.294 69.8032L225.302 69.8099L225.31 69.8165L227.809 66.693ZM241.969 54.539L239.24 57.4632L239.29 57.5102L239.342 57.5553L241.969 54.539ZM241.969 45.276L244.749 48.152L244.751 48.1504L241.969 45.276ZM251.586 45.276L248.757 48.1044L248.805 48.1516L248.853 48.1971L251.586 45.276ZM251.586 54.539L254.262 57.5122L254.267 57.5074L251.586 54.539ZM246.807 76.121C252.542 76.121 257.682 75.2585 262.111 73.3864L258.997 66.0176C255.795 67.3709 251.77 68.121 246.807 68.121V76.121ZM262.098 73.3921C266.642 71.491 270.276 68.5447 272.834 64.5388L266.092 60.2332C264.48 62.7566 262.175 64.6876 259.01 66.0119L262.098 73.3921ZM272.828 64.549C274.15 62.4922 275.101 60.2081 275.708 57.7339L267.938 55.8281C267.522 57.5232 266.9 58.9758 266.098 60.223L272.828 64.549ZM275.708 57.7339C276.307 55.2892 276.59 52.6628 276.59 49.878H268.59C268.59 52.1279 268.361 54.1034 267.938 55.8281L275.708 57.7339ZM276.59 49.878C276.59 44.5777 275.381 39.7904 272.78 35.6971L266.028 39.9869C267.675 42.5802 268.59 45.817 268.59 49.878H276.59ZM272.791 35.7149C270.234 31.6421 266.656 28.5616 262.178 26.4845L258.811 33.7415C261.965 35.2044 264.326 37.2766 266.016 39.9691L272.791 35.7149ZM262.223 26.5057C260 25.4406 257.606 24.6711 255.058 24.1795L253.542 32.0345C255.478 32.4082 257.213 32.9761 258.766 33.7203L262.223 26.5057ZM255.138 24.1958C252.626 23.6575 249.962 23.399 247.161 23.399V31.399C249.473 31.399 251.569 31.6125 253.462 32.0182L255.138 24.1958ZM247.161 23.399C241.47 23.399 236.297 24.3836 231.742 26.479L235.085 33.747C238.397 32.2237 242.389 31.399 247.161 31.399V23.399ZM231.772 26.4653C227.185 28.5296 223.513 31.6003 220.899 35.6869L227.639 39.9971C229.352 37.3184 231.776 35.2364 235.055 33.7607L231.772 26.4653ZM220.904 35.679C219.61 37.6916 218.644 39.8964 217.993 42.2701L225.707 44.3879C226.157 42.7495 226.803 41.2964 227.634 40.005L220.904 35.679ZM217.993 42.2701C217.335 44.6638 217.024 47.2074 217.024 49.878H225.024C225.024 47.8286 225.263 46.0062 225.707 44.3879L217.993 42.2701ZM217.024 49.878C217.024 58.2487 219.566 65.171 225.294 69.8032L230.324 63.5828C227.005 60.899 225.024 56.6113 225.024 49.878H217.024ZM225.31 69.8165C230.781 74.1934 238.118 76.121 246.807 76.121V68.121C239.211 68.121 233.883 66.4299 230.308 63.5695L225.31 69.8165ZM246.807 52.132C245.526 52.132 244.924 51.8082 244.596 51.5227L239.342 57.5553C241.453 59.3938 244.076 60.132 246.807 60.132V52.132ZM244.698 51.6148C244.518 51.4463 244.199 51.0633 244.199 49.878H236.199C236.199 52.7047 237.06 55.429 239.24 57.4632L244.698 51.6148ZM244.199 49.878C244.199 48.8302 244.484 48.4076 244.749 48.152L239.189 42.4C237.093 44.4258 236.199 47.0711 236.199 49.878H244.199ZM244.751 48.1504C245.09 47.8218 245.637 47.506 246.807 47.506V39.506C243.965 39.506 241.286 40.3702 239.187 42.4016L244.751 48.1504ZM246.807 47.506C247.981 47.506 248.475 47.8225 248.757 48.1044L254.414 42.4476C252.336 40.3695 249.644 39.506 246.807 39.506V47.506ZM248.853 48.1971C249.137 48.4625 249.415 48.8708 249.415 49.878H257.415C257.415 47.0306 256.473 44.3709 254.318 42.3549L248.853 48.1971ZM249.415 49.878C249.415 51.023 249.103 51.3918 248.905 51.5706L254.267 57.5074C256.508 55.4836 257.415 52.745 257.415 49.878H249.415ZM248.91 51.5658C248.643 51.8061 248.095 52.132 246.807 52.132V60.132C249.531 60.132 252.169 59.3959 254.262 57.5122L248.91 51.5658ZM313.781 70.292L315.145 74.0524L315.163 74.0458L315.181 74.039L313.781 70.292ZM321.687 64.805L324.92 67.161L324.927 67.151L321.687 64.805ZM323.516 61.147L319.71 59.9157L319.699 59.9512L319.688 59.987L323.516 61.147ZM321.923 49.524L318.78 51.9982L318.796 52.0187L318.813 52.0389L321.923 49.524ZM315.433 45.335L314.168 49.1297L314.176 49.1323L314.184 49.1349L315.433 45.335ZM310.654 44.214L309.939 48.1495L309.989 48.1586L310.039 48.1665L310.654 44.214ZM304.931 43.506L305.232 39.5173L305.224 39.5167L305.216 39.5162L304.931 43.506ZM297.497 42.916L297.013 46.8866L297.065 46.893L297.118 46.898L297.497 42.916ZM294.252 42.267L295.828 38.5904L295.675 38.5249L295.517 38.4723L294.252 42.267ZM293.662 41.913L290.462 44.313L290.633 44.5404L290.834 44.7414L293.662 41.913ZM294.37 40.261L296.428 43.691V43.691L294.37 40.261ZM302.099 40.379L303.562 36.656L303.562 36.656L302.099 40.379ZM304.223 42.326L300.464 43.693L301.421 46.326H304.223V42.326ZM323.693 42.326V46.326H328.935L327.551 41.2701L323.693 42.326ZM318.914 33.417L316.036 36.1945L316.048 36.2072L316.06 36.2198L318.914 33.417ZM310.536 28.579L311.641 24.7346L311.626 24.7303L311.611 24.7262L310.536 28.579ZM304.931 27.517L304.397 31.4812L304.435 31.4863L304.473 31.4906L304.931 27.517ZM285.697 28.992L287.013 32.7694L287.032 32.7628L287.05 32.7561L285.697 28.992ZM277.614 34.361L274.491 31.8622V31.8622L277.614 34.361ZM275.49 38.255L279.274 39.5523L279.279 39.5361L279.285 39.5199L275.49 38.255ZM279.443 52.179L277.274 55.5396L277.283 55.5458L277.293 55.5519L279.443 52.179ZM293.603 55.837L293.878 51.8465L293.877 51.8464L293.603 55.837ZM301.273 56.486L300.811 60.4592L300.821 60.4604L301.273 56.486ZM304.695 57.194L302.906 60.7717L303.094 60.8656L303.291 60.9393L304.695 57.194ZM305.344 57.607L302.144 60.007L302.315 60.2344L302.516 60.4354L305.344 57.607ZM304.636 59.318L306.122 63.0319L306.181 63.0082L306.239 62.9826L304.636 59.318ZM297.084 59.082L298.155 55.2279V55.2279L297.084 59.082ZM294.488 57.017L298.298 55.7979L297.408 53.017H294.488V57.017ZM273.72 57.017V53.017H269.036L269.769 57.6433L273.72 57.017ZM277.083 65.277L273.896 67.6945L273.92 67.7253L273.944 67.7556L277.083 65.277ZM285.166 70.469L283.889 74.2596L283.907 74.2658L283.926 74.2719L285.166 70.469ZM291.538 71.767L292.05 67.7999L292.018 67.7958L291.987 67.7923L291.538 71.767ZM299.798 76.239C305.794 76.239 310.965 75.568 315.145 74.0524L312.417 66.5316C309.438 67.612 305.288 68.239 299.798 68.239V76.239ZM315.181 74.039C319.257 72.5163 322.637 70.2927 324.92 67.1609L318.454 62.4491C317.354 63.9586 315.464 65.393 312.381 66.545L315.181 74.039ZM324.927 67.151C326.003 65.6644 326.817 64.0465 327.344 62.307L319.688 59.987C319.428 60.8435 319.023 61.6642 318.447 62.459L324.927 67.151ZM327.322 62.3783C327.888 60.6292 328.165 58.8164 328.165 56.958H320.165C320.165 58.0102 320.01 58.9901 319.71 59.9157L327.322 62.3783ZM328.165 56.958C328.165 53.219 327.26 49.7627 325.034 47.0091L318.813 52.0389C319.576 52.9826 320.165 54.4823 320.165 56.958H328.165ZM325.066 47.0498C323.002 44.4282 320.09 42.6555 316.682 41.5351L314.184 49.1349C316.518 49.9025 317.933 50.9224 318.78 51.9982L325.066 47.0498ZM316.698 41.5403C315.033 40.9853 313.217 40.5646 311.269 40.2615L310.039 48.1665C311.631 48.414 313.001 48.7407 314.168 49.1297L316.698 41.5403ZM311.37 40.2785C309.479 39.9348 307.431 39.6833 305.232 39.5173L304.63 47.4947C306.601 47.6434 308.368 47.8639 309.939 48.1495L311.37 40.2785ZM305.216 39.5162C301.919 39.2807 299.479 39.0867 297.876 38.934L297.118 46.898C298.819 47.06 301.335 47.2593 304.646 47.4958L305.216 39.5162ZM297.981 38.9454C297.233 38.8542 296.668 38.7653 296.261 38.6839C295.805 38.5929 295.719 38.5439 295.828 38.5904L292.676 45.9436C293.825 46.436 295.456 46.6968 297.013 46.8866L297.981 38.9454ZM295.517 38.4723C295.8 38.5665 296.159 38.7533 296.49 39.0846L290.834 44.7414C291.48 45.3874 292.232 45.8101 292.987 46.0617L295.517 38.4723ZM296.862 39.513C297.132 39.8724 297.485 40.5363 297.485 41.441H289.485C289.485 42.6603 289.957 43.639 290.462 44.313L296.862 39.513ZM297.485 41.441C297.485 42.2059 297.204 42.8245 296.906 43.2215C296.77 43.4027 296.644 43.5222 296.564 43.59C296.483 43.6579 296.431 43.689 296.428 43.691L292.312 36.831C291.266 37.4586 289.485 38.908 289.485 41.441H297.485ZM296.428 43.691C296.241 43.8034 296.115 43.8425 296.107 43.845C296.094 43.8491 296.142 43.8331 296.273 43.8121C296.544 43.7685 296.995 43.73 297.674 43.73V35.73C296.74 35.73 295.834 35.78 295.004 35.9134C294.224 36.0388 293.232 36.2793 292.312 36.831L296.428 43.691ZM297.674 43.73C299.272 43.73 300.188 43.9258 300.636 44.102L303.562 36.656C301.808 35.9669 299.773 35.73 297.674 35.73V43.73ZM300.636 44.102C300.832 44.1789 300.835 44.2136 300.753 44.1389C300.711 44.1001 300.655 44.0397 300.598 43.9562C300.542 43.8721 300.496 43.7819 300.464 43.693L307.982 40.959C307.17 38.7255 305.406 37.3805 303.562 36.656L300.636 44.102ZM304.223 46.326H323.693V38.326H304.223V46.326ZM327.551 41.2701C326.393 37.0401 324.517 33.413 321.768 30.6142L316.06 36.2198C317.638 37.8264 318.947 40.1386 319.835 43.3819L327.551 41.2701ZM321.793 30.6395C319.076 27.8238 315.64 25.8836 311.641 24.7346L309.431 32.4234C312.277 33.241 314.426 34.5262 316.036 36.1945L321.793 30.6395ZM311.611 24.7262C309.687 24.1892 307.609 23.7994 305.39 23.5434L304.473 31.4906C306.344 31.7066 308.003 32.0248 309.461 32.4318L311.611 24.7262ZM305.465 23.5528C303.217 23.2502 300.814 23.104 298.264 23.104V31.104C300.513 31.104 302.555 31.2332 304.397 31.4812L305.465 23.5528ZM298.264 23.104C293.061 23.104 288.39 23.7731 284.344 25.2279L287.05 32.7561C290.005 31.6936 293.713 31.104 298.264 31.104V23.104ZM284.381 25.2146C280.331 26.6253 276.945 28.7939 274.491 31.8622L280.738 36.8598C282.059 35.2081 284.062 33.7973 287.013 32.7694L284.381 25.2146ZM274.491 31.8622C273.256 33.406 272.318 35.1208 271.695 36.9901L279.285 39.5199C279.606 38.5572 280.085 37.676 280.738 36.8598L274.491 31.8622ZM271.706 36.9577C271.073 38.8041 270.782 40.7634 270.782 42.798H278.782C278.782 41.5286 278.963 40.4592 279.274 39.5523L271.706 36.9577ZM270.782 42.798C270.782 48.1679 272.84 52.6772 277.274 55.5396L281.613 48.8184C279.832 47.6688 278.782 45.9241 278.782 42.798H270.782ZM277.293 55.5519C281.267 58.0856 286.772 59.3768 293.329 59.8276L293.877 51.8464C287.847 51.4318 283.912 50.2844 281.593 48.8061L277.293 55.5519ZM293.328 59.8275C296.737 60.0626 299.217 60.2738 300.811 60.4592L301.735 52.5128C299.947 52.3048 297.314 52.0834 293.878 51.8465L293.328 59.8275ZM300.821 60.4604C301.619 60.5511 302.207 60.6429 302.616 60.7275C302.819 60.7695 302.946 60.8032 303.014 60.8237C303.093 60.8477 303.038 60.8375 302.906 60.7717L306.484 53.6163C305.735 53.2417 304.902 53.0311 304.237 52.8935C303.505 52.7421 302.658 52.6176 301.725 52.5116L300.821 60.4604ZM303.291 60.9393C303.263 60.9291 303.131 60.8782 302.946 60.7604C302.764 60.645 302.447 60.4113 302.144 60.007L308.544 55.207C307.747 54.1445 306.68 53.6665 306.1 53.4487L303.291 60.9393ZM302.516 60.4354C302.231 60.1507 301.979 59.7879 301.807 59.3581C301.637 58.9329 301.58 58.5299 301.58 58.197H309.58C309.58 56.9715 309.129 55.7351 308.172 54.7786L302.516 60.4354ZM301.58 58.197C301.58 57.4549 301.858 56.7616 302.284 56.2547C302.65 55.8209 302.999 55.6681 303.033 55.6534L306.239 62.9826C307.557 62.4063 309.58 60.9546 309.58 58.197H301.58ZM303.15 55.6041C303.332 55.5313 303.326 55.5676 302.962 55.6089C302.638 55.6456 302.163 55.672 301.509 55.672V63.672C303.007 63.672 304.747 63.5817 306.122 63.0319L303.15 55.6041ZM301.509 55.672C300.321 55.672 299.207 55.5203 298.155 55.2279L296.013 62.9361C297.793 63.4304 299.629 63.672 301.509 63.672V55.672ZM298.155 55.2279C297.802 55.1301 297.762 55.0602 297.863 55.1403C297.92 55.1855 298.007 55.2674 298.095 55.3925C298.185 55.5194 298.253 55.6593 298.298 55.7979L290.678 58.2361C291.562 60.9981 293.895 62.3476 296.013 62.9361L298.155 55.2279ZM294.488 53.017H273.72V61.017H294.488V53.017ZM269.769 57.6433C270.369 61.4272 271.714 64.8184 273.896 67.6945L280.27 62.8595C278.99 61.1729 278.093 59.0575 277.671 56.3907L269.769 57.6433ZM273.944 67.7556C276.331 70.7795 279.777 72.8741 283.889 74.2596L286.443 66.6784C283.318 65.6252 281.375 64.2585 280.223 62.7984L273.944 67.7556ZM283.926 74.2719C286.054 74.9658 288.455 75.4443 291.089 75.7417L291.987 67.7923C289.744 67.5391 287.897 67.1522 286.406 66.6661L283.926 74.2719ZM291.026 75.7341C293.67 76.0753 296.599 76.239 299.798 76.239V68.239C296.861 68.239 294.283 68.0881 292.05 67.7999L291.026 75.7341Z" fill="#44403C" mask="url(#path-8-outside-1_242_172142)"/>
</g>
<g filter="url(#filter2_i_242_172142)">
<circle cx="66.5" cy="68.5" r="20.5" fill="#CA8A04"/>
</g>
<ellipse cx="66.5" cy="67.1629" rx="20.5" ry="20.9457" fill="#EAB308"/>
<path fill-rule="evenodd" clip-rule="evenodd" d="M78.528 58.4973C79.1292 59.0985 79.1292 60.0733 78.528 60.6745L76.8432 62.3593L79.0018 63.6545C79.7309 64.0919 79.9673 65.0376 79.5298 65.7667C79.0924 66.4958 78.1467 66.7322 77.4176 66.2947L74.599 64.6035L72.3699 66.8326C71.7687 67.4338 70.7939 67.4338 70.1927 66.8326C69.5915 66.2314 69.5915 65.2566 70.1927 64.6554L71.8775 62.9706L69.72 61.6762C68.9909 61.2387 68.7545 60.293 69.192 59.5639C69.6294 58.8349 70.5751 58.5984 71.3042 59.0359L74.1217 60.7264L76.3508 58.4973C76.952 57.8961 77.9268 57.8961 78.528 58.4973ZM61.5932 60.0371C62.1945 60.6383 62.1945 61.6131 61.5932 62.2143L59.9085 63.899L62.0666 65.1938C62.7957 65.6313 63.0321 66.5769 62.5946 67.306C62.1572 68.0351 61.2115 68.2715 60.4824 67.8341L57.6643 66.1432L55.4351 68.3724C54.8339 68.9736 53.8591 68.9736 53.2579 68.3724C52.6567 67.7712 52.6567 66.7964 53.2579 66.1952L54.9428 64.5103L52.7848 63.2155C52.0557 62.778 51.8193 61.8324 52.2567 61.1033C52.6942 60.3742 53.6399 60.1378 54.3689 60.5752L57.187 62.2661L59.416 60.0371C60.0172 59.4358 60.992 59.4358 61.5932 60.0371ZM79.363 71.0839C80.1864 70.8718 80.6819 70.0324 80.4698 69.209C80.2578 68.3856 79.4183 67.8901 78.595 68.1021C77.2048 68.4602 76.2115 69.0894 75.4815 69.8927C74.7846 70.6597 74.3966 71.5182 74.1185 72.1389C73.8055 72.8378 73.6453 73.185 73.4196 73.4369C73.2762 73.597 73.0567 73.7744 72.4707 73.8348C71.7346 73.9106 71.2273 73.8311 70.8322 73.7031C70.4172 73.5687 70.0537 73.3597 69.5806 73.0579C69.5158 73.0166 69.4495 72.9738 69.3814 72.9298C68.4508 72.3288 67.1942 71.5174 65.1572 71.5174C62.9067 71.5174 61.5201 72.5944 60.5528 73.4336C60.4351 73.5357 60.3294 73.6287 60.2324 73.7141L60.2323 73.7141L60.2323 73.7141C59.9044 74.0026 59.6759 74.2037 59.4242 74.3696C59.1536 74.5481 58.9784 74.5965 58.8067 74.5965C58.5148 74.5965 58.4436 74.528 57.6129 73.611C57.2635 73.2253 56.7593 72.7 56.0446 72.3318C55.289 71.9426 54.4105 71.7822 53.3802 71.9149C52.5369 72.0235 51.9413 72.7952 52.0499 73.6385C52.1585 74.4818 52.9302 75.0773 53.7735 74.9687C54.2373 74.909 54.4795 74.9892 54.6345 75.069C54.8303 75.1699 55.0265 75.3421 55.3309 75.6782C55.3785 75.7307 55.4318 75.7926 55.4911 75.8615L55.4911 75.8616C56.0262 76.4835 57.0518 77.6755 58.8067 77.6755C59.7556 77.6755 60.5143 77.339 61.1192 76.9401C61.5689 76.6436 62.0056 76.2576 62.3533 75.9503L62.3534 75.9502C62.4305 75.8821 62.5031 75.8179 62.5706 75.7593C63.3777 75.059 64.0457 74.5965 65.1572 74.5965C66.2725 74.5965 66.8523 74.9675 67.7714 75.5558L67.9249 75.6539C68.4324 75.9776 69.0728 76.3699 69.8836 76.6324C70.7143 76.9014 71.6544 77.0142 72.7862 76.8976C74.068 76.7656 75.0159 76.2695 75.7129 75.4915C76.2797 74.8589 76.6244 74.0824 76.8685 73.5325L76.8685 73.5325C76.8892 73.4858 76.9092 73.4408 76.9285 73.3977C77.2108 72.7674 77.4299 72.327 77.7603 71.9634C78.0576 71.6362 78.5117 71.3031 79.363 71.0839Z" fill="#334155"/>
<path d="M4 50C4 22.8382 26.8042 1.24556 53.9256 2.72691L129.4 6.84932H242.399L324.068 2.59878C351.214 1.1859 374 22.8164 374 50C374 77.1836 351.214 98.8141 324.068 97.4012L242.399 93.1507H129.4L53.9255 97.2731C26.8042 98.7544 4 77.1618 4 50Z" fill="url(#paint0_linear_242_172142)"/>
<defs>
<filter id="filter0_i_242_172142" x="2.51953" y="1.24072" width="301.48" height="103.649" filterUnits="userSpaceOnUse" color-interpolation-filters="sRGB">
<feFlood flood-opacity="0" result="BackgroundImageFix"/>
<feBlend mode="normal" in="SourceGraphic" in2="BackgroundImageFix" result="shape"/>
<feColorMatrix in="SourceAlpha" type="matrix" values="0 0 0 0 0 0 0 0 0 0 0 0 0 0 0 0 0 0 127 0" result="hardAlpha"/>
<feOffset dx="4" dy="-6"/>
<feComposite in2="hardAlpha" operator="arithmetic" k2="-1" k3="1"/>
<feColorMatrix type="matrix" values="0 0 0 0 0 0 0 0 0 0 0 0 0 0 0 0 0 0 0.25 0"/>
<feBlend mode="normal" in2="shape" result="effect1_innerShadow_242_172142"/>
</filter>
<filter id="filter1_d_242_172142" x="63.5391" y="23.104" width="265.396" height="57.1348" filterUnits="userSpaceOnUse" color-interpolation-filters="sRGB">
<feFlood flood-opacity="0" result="BackgroundImageFix"/>
<feColorMatrix in="SourceAlpha" type="matrix" values="0 0 0 0 0 0 0 0 0 0 0 0 0 0 0 0 0 0 127 0" result="hardAlpha"/>
<feOffset dx="-4" dy="4"/>
<feComposite in2="hardAlpha" operator="out"/>
<feColorMatrix type="matrix" values="0 0 0 0 0.266667 0 0 0 0 0.25098 0 0 0 0 0.235294 0 0 0 1 0"/>
<feBlend mode="normal" in2="BackgroundImageFix" result="effect1_dropShadow_242_172142"/>
<feBlend mode="normal" in="SourceGraphic" in2="effect1_dropShadow_242_172142" result="shape"/>
</filter>
<filter id="filter2_i_242_172142" x="46" y="48" width="45" height="45" filterUnits="userSpaceOnUse" color-interpolation-filters="sRGB">
<feFlood flood-opacity="0" result="BackgroundImageFix"/>
<feBlend mode="normal" in="SourceGraphic" in2="BackgroundImageFix" result="shape"/>
<feColorMatrix in="SourceAlpha" type="matrix" values="0 0 0 0 0 0 0 0 0 0 0 0 0 0 0 0 0 0 127 0" result="hardAlpha"/>
<feOffset dx="8" dy="4"/>
<feGaussianBlur stdDeviation="2"/>
<feComposite in2="hardAlpha" operator="arithmetic" k2="-1" k3="1"/>
<feColorMatrix type="matrix" values="0 0 0 0 0 0 0 0 0 0 0 0 0 0 0 0 0 0 0.25 0"/>
<feBlend mode="normal" in2="shape" result="effect1_innerShadow_242_172142"/>
</filter>
<linearGradient id="paint0_linear_242_172142" x1="374" y1="50" x2="4" y2="50" gradientUnits="userSpaceOnUse">
<stop offset="0.145833" stop-opacity="0.1"/>
<stop offset="0.260417" stop-color="#7F7F7F" stop-opacity="0"/>
<stop offset="0.686486" stop-color="#8E8E8E" stop-opacity="0"/>
<stop offset="0.856757" stop-color="white" stop-opacity="0.1"/>
</linearGradient>
</defs>
</svg>
