<svg width="406" height="450" viewBox="0 0 406 450" fill="none" xmlns="http://www.w3.org/2000/svg">
<circle opacity="0.5" cx="217" cy="343" r="107" fill="black" fill-opacity="0.12"/>
<g filter="url(#filter0_ii_242_172499)">
<path fill-rule="evenodd" clip-rule="evenodd" d="M232.806 436.111C235.633 434.962 238.493 433.866 241.454 433.127C252.238 430.436 262.351 425.93 271.486 419.934C274.638 417.864 278.09 416.289 281.554 414.798C293.289 409.748 302.296 399.155 305.614 386.125C306.484 382.71 307.492 379.314 308.967 376.114C311.039 371.621 312.817 366.951 314.276 362.133C315.152 359.24 316.362 356.459 317.761 353.78C322.376 344.941 325 334.793 325 324C325 307.956 319.201 293.335 309.684 282.326C307.684 280.012 305.843 277.557 304.307 274.912C303.19 272.989 302.016 271.106 300.788 269.266C299.221 266.917 297.929 264.395 296.717 261.845C292.174 252.285 284.338 244.75 274.766 240.873C271.988 239.748 269.221 238.57 266.626 237.071C252.201 228.74 235.628 224 218 224C181.666 224 149.814 244.135 132.02 274.354C129.749 278.21 126.791 281.618 123.733 284.886C116.476 292.644 112 303.274 112 315C112 320.202 112.881 325.189 114.495 329.804C115.939 333.935 117.209 338.159 117.696 342.508C118.578 350.385 120.283 357.998 122.719 365.25C122.908 365.814 123 366.405 123 367C123 382.82 131.146 396.645 143.28 404.113C146.491 406.089 149.672 408.158 152.482 410.674C164.423 421.366 178.767 429.189 194.545 433.127C197.506 433.866 200.367 434.962 203.194 436.111C207.786 437.977 212.779 439 218 439C223.221 439 228.214 437.977 232.806 436.111Z" fill="#E2E8F0"/>
</g>
<ellipse cx="217.5" cy="255" rx="76.5" ry="76" fill="black" fill-opacity="0.2"/>
<g filter="url(#filter1_ii_242_172499)">
<path fill-rule="evenodd" clip-rule="evenodd" d="M287.048 282.386C287.456 281.186 287.906 280 288.447 278.854C293.29 268.593 296 257.115 296 245C296 243.509 295.959 242.029 295.878 240.558C295.719 237.667 296.097 234.773 296.585 231.919C296.858 230.322 297 228.678 297 227C297 218.552 293.392 210.978 287.687 205.844C285.453 203.833 283.262 201.738 281.528 199.283C267.302 179.141 243.926 166 217.5 166C191.383 166 168.244 178.836 153.974 198.581C152.48 200.647 150.603 202.419 148.935 204.347C147.329 206.203 146.136 208.449 145.506 210.93C144.895 213.337 144.489 215.813 143.65 218.15C142.055 222.592 140.845 227.22 140.059 231.991C139.806 233.532 139.407 235.045 138.932 236.532C137.678 240.456 137 244.647 137 249C137 256.697 139.119 263.886 142.793 269.986C143.101 270.499 143.362 271.039 143.562 271.603C143.973 272.76 144.118 273.992 144.049 275.219C144.017 275.808 144 276.402 144 277C144 290.634 152.659 302.212 164.693 306.363C167.845 307.45 170.966 308.718 173.727 310.588C186.233 319.057 201.293 324 217.5 324C238.509 324 257.591 315.694 271.679 302.167C272.601 301.283 273.59 300.472 274.606 299.698C280.3 295.36 284.684 289.349 287.048 282.386Z" fill="#E2E8F0"/>
</g>
<g filter="url(#filter2_ddi_242_172499)">
<path d="M217.301 267.449C213.755 268 211.261 268.586 210.537 274.731C211.582 287.841 219.425 286.166 223.217 283.69C227.008 281.215 227.991 276.419 227.553 274.782C225.705 267.868 220.848 266.898 217.301 267.449Z" fill="#334155"/>
</g>
<g filter="url(#filter3_ddi_242_172499)">
<path d="M221.699 311.551C225.245 311 227.739 310.414 228.463 304.269C227.418 291.159 219.575 292.834 215.783 295.31C211.992 297.785 211.009 302.581 211.447 304.218C213.295 311.132 218.152 312.102 221.699 311.551Z" fill="#334155"/>
</g>
<g filter="url(#filter4_dii_242_172499)">
<path d="M219.248 277.316C214.28 268.44 213.087 249.823 213.087 249.823C226.483 245.388 228.474 245.9 235.405 240.93C240.25 245.046 245.887 257.22 249.407 266.24C249.752 267.123 249.424 268.125 248.604 268.6C240.202 273.464 225.858 277.836 220.743 278.164C220.119 278.204 219.553 277.862 219.248 277.316Z" fill="#B91C1C"/>
</g>
<g filter="url(#filter5_ii_242_172499)">
<path d="M216.999 222.795C181.712 222.795 163.403 200.324 156.337 186.503C155.793 185.438 153.293 185.966 153.395 187.157C156.01 217.588 172.117 254 216.999 254C263.807 254 279.319 213.945 280.868 184.905C280.926 183.818 279.46 183.488 278.986 184.469C272.633 197.607 256.35 222.795 216.999 222.795Z" fill="#B91C1C"/>
</g>
<path d="M216.999 222.795C181.712 222.795 163.403 200.324 156.337 186.503C155.793 185.438 153.293 185.966 153.395 187.157C156.01 217.588 172.117 254 216.999 254C263.807 254 279.319 213.945 280.868 184.905C280.926 183.818 279.46 183.488 278.986 184.469C272.633 197.607 256.35 222.795 216.999 222.795Z" fill="url(#paint0_linear_242_172499)"/>
<g filter="url(#filter6_dii_242_172499)">
<path d="M175.439 245.677C175.433 220.148 185.115 213.385 192.924 216.243C201.013 219.204 208.047 222.007 221.925 219.538C223.829 219.199 225.298 221.527 224.207 223.124C214.737 236.982 218.252 245.505 219.523 255.512C220.629 264.216 220.246 287.152 217.308 300.303C217.101 301.226 216.26 301.851 215.319 301.766C202.091 300.573 180.407 291.762 173.502 287.6C172.513 287.004 172.126 285.831 172.384 284.705C175.011 273.221 175.443 264.267 175.439 245.677Z" fill="#B91C1C"/>
</g>
<path d="M192 233.499C193.844 222.451 198.915 219.772 203.012 220.015L209.927 221.468H213C207.622 222.922 204.549 222.195 202.244 244C200.707 239.639 199.171 224.376 205.317 221.468C197.327 221.468 193.537 230.107 192 233.499Z" fill="black" fill-opacity="0.12"/>
<circle cx="218" cy="160" r="69" fill="black" fill-opacity="0.2"/>
<g filter="url(#filter7_ii_242_172499)">
<path fill-rule="evenodd" clip-rule="evenodd" d="M217.431 74.5465C222.743 75.6312 227.919 77.5302 233.216 78.6841C237.253 79.5633 241.165 80.7741 244.924 82.2867C250.315 84.4561 256.077 85.8428 261.436 88.0906C267.021 90.4332 271.651 94.5991 274.583 99.8438C277.424 104.925 279.45 110.505 282.216 115.627C283.934 118.807 285.423 122.128 286.663 125.568C288.692 131.195 291.597 136.565 293.541 142.221C294.487 144.973 295 147.927 295 151C295 154.263 294.421 157.39 293.361 160.285C291.305 165.898 288.298 171.206 286.16 176.787C282.924 185.232 278.176 192.928 272.246 199.543C269.759 202.317 267.531 205.34 265.032 208.103C262.314 211.109 258.93 213.5 255.112 215.043C251.638 216.447 248.009 217.494 244.526 218.872C236.16 222.182 227.043 224 217.5 224C212.216 224 207.063 223.443 202.095 222.383C200.751 222.096 199.375 222 198 222C191.68 222 185.867 219.828 181.266 216.191C177.962 213.578 174.942 210.58 171.652 207.951C164.05 201.876 157.68 194.324 152.977 185.729C149.966 180.226 146.047 175.147 143.115 169.602C141.126 165.84 140 161.551 140 157C140 154.901 140.24 152.857 140.693 150.896C142.116 144.737 144.652 138.786 146.182 132.653C146.809 130.139 147.565 127.676 148.444 125.272C150.463 119.746 151.669 113.866 153.768 108.37C155.96 102.629 160.056 97.8281 165.283 94.739C170.363 91.7369 175.976 89.5582 181.1 86.6317C182.855 85.6296 184.655 84.6977 186.496 83.8398C191.376 81.5661 195.98 78.6053 200.885 76.3866C204.275 74.8535 208.038 74 212 74C213.86 74 215.677 74.1882 217.431 74.5465Z" fill="#E2E8F0"/>
</g>
<g filter="url(#filter8_ddi_242_172499)">
<path d="M195.731 188.751C200.722 188.022 204.235 187.268 205.348 179.75C204.084 163.753 193.038 165.922 187.673 169.006C182.308 172.09 182.975 179.055 183.564 181.049C186.053 189.464 190.74 189.481 195.731 188.751Z" fill="#334155"/>
</g>
<g filter="url(#filter9_ddi_242_172499)">
<path d="M239.019 160.313C234.637 160.993 231.556 161.713 230.65 169.228C231.916 185.251 241.607 183.189 246.294 180.155C250.981 177.121 252.204 171.257 251.667 169.256C249.397 160.809 243.4 159.632 239.019 160.313Z" fill="#334155"/>
</g>
<g filter="url(#filter10_ddi_242_172499)">
<path d="M217.301 370.449C213.755 371 211.261 371.586 210.537 377.731C211.582 390.841 219.425 389.166 223.217 386.69C227.008 384.215 227.991 379.419 227.553 377.782C225.705 370.868 220.848 369.898 217.301 370.449Z" fill="#334155"/>
</g>
<g filter="url(#filter11_ddi_242_172499)">
<path d="M215.59 337.35C211.416 337.981 208.48 338.644 207.596 345.479C208.757 360.045 217.991 358.143 222.462 355.372C226.934 352.6 228.115 347.265 227.608 345.447C225.471 337.772 219.763 336.719 215.59 337.35Z" fill="#334155"/>
</g>
<ellipse cx="216" cy="203" rx="12" ry="14" fill="black" fill-opacity="0.12"/>
<g filter="url(#filter12_i_242_172499)">
<path d="M207.435 200.884C205.678 193.269 211.461 186 219.275 186C226.206 186 231.733 191.788 231.413 198.712L230.877 210.333C230.626 215.767 229.885 221.166 228.662 226.466L224.022 246.572C223.424 249.164 221.116 251 218.455 251C215.403 251 212.889 248.6 212.748 245.55L211.836 225.78C211.612 220.937 210.952 216.123 209.861 211.399L207.435 200.884Z" fill="#F97316"/>
</g>
<mask id="mask0_242_172499" style="mask-type:alpha" maskUnits="userSpaceOnUse" x="207" y="186" width="25" height="65">
<path d="M207.435 200.884C205.678 193.269 211.461 186 219.275 186C226.206 186 231.733 191.788 231.413 198.712L230.619 215.913C230.54 217.634 230.305 219.345 229.918 221.024L224.022 246.572C223.424 249.164 221.116 251 218.455 251C215.403 251 212.889 248.6 212.748 245.55L211.603 220.74C211.535 219.25 211.331 217.769 210.996 216.315L207.435 200.884Z" fill="#EA580C"/>
</mask>
<g mask="url(#mask0_242_172499)">
<path opacity="0.15" d="M207 208C207 204.483 210 201 217 201" stroke="black" stroke-width="4" stroke-linecap="round"/>
<path opacity="0.15" d="M232 223C232 221.254 229.711 219.394 227 218.5C225.422 217.979 224.032 218 222 218" stroke="black" stroke-width="4" stroke-linecap="round"/>
<path opacity="0.15" d="M226 244C226 242.174 223.5 240 221 240" stroke="black" stroke-width="4" stroke-linecap="round"/>
<path opacity="0.15" d="M211 233C211 231.19 213.917 229 218 229" stroke="black" stroke-width="4" stroke-linecap="round"/>
</g>
<ellipse cx="152" cy="241.5" rx="11" ry="13.5" fill="black" fill-opacity="0.12"/>
<g filter="url(#filter13_i_242_172499)">
<path d="M82.9931 186.089L62.1289 192.224C60.8481 192.6 61.1181 194.484 62.4524 194.481L90.1415 194.413L123.927 219.633C124.608 220.141 125.222 220.734 125.753 221.396L143.403 243.398C148.502 249.755 158.694 247.592 160.795 239.708C161.658 236.47 160.829 233.019 158.59 230.531L136.824 206.336C135.771 205.165 134.487 204.223 133.053 203.568L96.746 186.985L63.4708 155.883C62.131 154.631 60.5101 153.716 58.7429 153.217L27.5771 144.402C26.2257 144.02 25.4882 145.925 26.748 146.544L56.0114 160.922C57.0761 161.445 58.0531 162.129 58.9079 162.95L82.9931 186.089Z" fill="#82644D"/>
</g>
<ellipse cx="284" cy="239" rx="10" ry="14" fill="black" fill-opacity="0.12"/>
<g filter="url(#filter14_i_242_172499)">
<path d="M326.363 161.373L317.73 195.125L279.173 226.598C274.105 230.734 273.664 238.322 278.219 243.027C282.326 247.269 289.068 247.589 292.696 242.938C299.068 234.77 303.558 225.454 310.34 219.454C335.151 197.503 352.694 178.439 358.535 171.905C359.939 170.334 361.713 169.146 363.712 168.478L381.094 162.672C382.443 162.221 381.967 160.207 380.558 160.405L363.933 162.741C362.114 162.996 360.381 163.677 358.875 164.727L346.883 173.088L326.42 187.056L328.661 161.768C328.788 160.336 326.719 159.98 326.363 161.373Z" fill="#82644D"/>
</g>
<path d="M288 124.083C288 154.845 263.098 175 215.741 175C168.384 175 143 155.906 143 124.083C143 99.7701 168.384 79 215.741 79C263.098 79 288 99.7701 288 124.083Z" fill="black" fill-opacity="0.2"/>
<path d="M300 114.109C300 146.064 262.168 167 215.5 167C168.832 167 131 147.166 131 114.109C131 88.8531 168.832 70 215.5 70C262.168 70 300 88.8531 300 114.109Z" fill="#334155"/>
<g filter="url(#filter15_ii_242_172499)">
<ellipse cx="215.5" cy="115" rx="84.5" ry="48" fill="#475569"/>
</g>
<ellipse cx="216" cy="112" rx="59" ry="33" fill="black" fill-opacity="0.12"/>
<ellipse cx="216" cy="111.253" rx="51" ry="26.3377" fill="black" fill-opacity="0.2"/>
<g filter="url(#filter16_i_242_172499)">
<path fill-rule="evenodd" clip-rule="evenodd" d="M156.011 38.8835C156.073 40.5694 156.39 42.2226 156.944 43.833L169.043 108.008C169.015 108.356 169 108.706 169 109.058C169 122.392 189.819 133.201 215.5 133.201C240.473 133.201 260.848 122.98 261.953 110.156H262.552L275.056 43.8331C275.61 42.2226 275.927 40.5694 275.989 38.8835L276 38.8247H275.991C275.997 38.6422 276 38.4592 276 38.276C276 21.0027 249.137 7 216 7C182.863 7 156 21.0027 156 38.276C156 38.4592 156.003 38.6422 156.009 38.8247H156L156.011 38.8835Z" fill="#334155"/>
</g>
<g filter="url(#filter17_i_242_172499)">
<path d="M269 90.5C269 87.5 268.5 84 267.5 84C257.448 102.163 238.569 108.914 216.483 108.914C194.584 108.914 173.115 103.239 164.5 83C164.5 83 162.757 86.1684 163.5 90.5L166.922 112.808H167.042C168.83 126.043 190.283 136.493 216.483 136.493C242.684 136.493 264.136 126.043 265.924 112.808H266.044L269 90.5Z" fill="#1E293B"/>
</g>
<g filter="url(#filter18_ii_242_172499)">
<ellipse cx="216" cy="38.276" rx="60" ry="31.276" fill="#475569"/>
</g>
<defs>
<filter id="filter0_ii_242_172499" x="16" y="204" width="333" height="327.03" filterUnits="userSpaceOnUse" color-interpolation-filters="sRGB">
<feFlood flood-opacity="0" result="BackgroundImageFix"/>
<feBlend mode="normal" in="SourceGraphic" in2="BackgroundImageFix" result="shape"/>
<feColorMatrix in="SourceAlpha" type="matrix" values="0 0 0 0 0 0 0 0 0 0 0 0 0 0 0 0 0 0 127 0" result="hardAlpha"/>
<feOffset dx="-96" dy="92.03"/>
<feGaussianBlur stdDeviation="70.65"/>
<feComposite in2="hardAlpha" operator="arithmetic" k2="-1" k3="1"/>
<feColorMatrix type="matrix" values="0 0 0 0 1 0 0 0 0 1 0 0 0 0 1 0 0 0 0.35 0"/>
<feBlend mode="normal" in2="shape" result="effect1_innerShadow_242_172499"/>
<feColorMatrix in="SourceAlpha" type="matrix" values="0 0 0 0 0 0 0 0 0 0 0 0 0 0 0 0 0 0 127 0" result="hardAlpha"/>
<feOffset dx="24" dy="-20"/>
<feGaussianBlur stdDeviation="36"/>
<feComposite in2="hardAlpha" operator="arithmetic" k2="-1" k3="1"/>
<feColorMatrix type="matrix" values="0 0 0 0 0 0 0 0 0 0 0 0 0 0 0 0 0 0 0.25 0"/>
<feBlend mode="normal" in2="effect1_innerShadow_242_172499" result="effect2_innerShadow_242_172499"/>
</filter>
<filter id="filter1_ii_242_172499" x="41" y="146" width="280" height="270.03" filterUnits="userSpaceOnUse" color-interpolation-filters="sRGB">
<feFlood flood-opacity="0" result="BackgroundImageFix"/>
<feBlend mode="normal" in="SourceGraphic" in2="BackgroundImageFix" result="shape"/>
<feColorMatrix in="SourceAlpha" type="matrix" values="0 0 0 0 0 0 0 0 0 0 0 0 0 0 0 0 0 0 127 0" result="hardAlpha"/>
<feOffset dx="-96" dy="92.03"/>
<feGaussianBlur stdDeviation="70.65"/>
<feComposite in2="hardAlpha" operator="arithmetic" k2="-1" k3="1"/>
<feColorMatrix type="matrix" values="0 0 0 0 1 0 0 0 0 1 0 0 0 0 1 0 0 0 0.35 0"/>
<feBlend mode="normal" in2="shape" result="effect1_innerShadow_242_172499"/>
<feColorMatrix in="SourceAlpha" type="matrix" values="0 0 0 0 0 0 0 0 0 0 0 0 0 0 0 0 0 0 127 0" result="hardAlpha"/>
<feOffset dx="24" dy="-20"/>
<feGaussianBlur stdDeviation="20"/>
<feComposite in2="hardAlpha" operator="arithmetic" k2="-1" k3="1"/>
<feColorMatrix type="matrix" values="0 0 0 0 0 0 0 0 0 0 0 0 0 0 0 0 0 0 0.25 0"/>
<feBlend mode="normal" in2="effect1_innerShadow_242_172499" result="effect2_innerShadow_242_172499"/>
</filter>
<filter id="filter2_ddi_242_172499" x="202.537" y="259.319" width="33.1123" height="34.0825" filterUnits="userSpaceOnUse" color-interpolation-filters="sRGB">
<feFlood flood-opacity="0" result="BackgroundImageFix"/>
<feColorMatrix in="SourceAlpha" type="matrix" values="0 0 0 0 0 0 0 0 0 0 0 0 0 0 0 0 0 0 127 0" result="hardAlpha"/>
<feOffset dx="2" dy="-2"/>
<feGaussianBlur stdDeviation="3"/>
<feComposite in2="hardAlpha" operator="out"/>
<feColorMatrix type="matrix" values="0 0 0 0 0 0 0 0 0 0 0 0 0 0 0 0 0 0 0.25 0"/>
<feBlend mode="normal" in2="BackgroundImageFix" result="effect1_dropShadow_242_172499"/>
<feColorMatrix in="SourceAlpha" type="matrix" values="0 0 0 0 0 0 0 0 0 0 0 0 0 0 0 0 0 0 127 0" result="hardAlpha"/>
<feOffset dx="-4" dy="4"/>
<feGaussianBlur stdDeviation="2"/>
<feComposite in2="hardAlpha" operator="out"/>
<feColorMatrix type="matrix" values="0 0 0 0 1 0 0 0 0 1 0 0 0 0 1 0 0 0 0.55 0"/>
<feBlend mode="normal" in2="effect1_dropShadow_242_172499" result="effect2_dropShadow_242_172499"/>
<feBlend mode="normal" in="SourceGraphic" in2="effect2_dropShadow_242_172499" result="shape"/>
<feColorMatrix in="SourceAlpha" type="matrix" values="0 0 0 0 0 0 0 0 0 0 0 0 0 0 0 0 0 0 127 0" result="hardAlpha"/>
<feOffset dx="-2" dy="2"/>
<feGaussianBlur stdDeviation="2"/>
<feComposite in2="hardAlpha" operator="arithmetic" k2="-1" k3="1"/>
<feColorMatrix type="matrix" values="0 0 0 0 1 0 0 0 0 1 0 0 0 0 1 0 0 0 0.29 0"/>
<feBlend mode="normal" in2="shape" result="effect3_innerShadow_242_172499"/>
</filter>
<filter id="filter3_ddi_242_172499" x="203.351" y="285.599" width="33.1123" height="34.0825" filterUnits="userSpaceOnUse" color-interpolation-filters="sRGB">
<feFlood flood-opacity="0" result="BackgroundImageFix"/>
<feColorMatrix in="SourceAlpha" type="matrix" values="0 0 0 0 0 0 0 0 0 0 0 0 0 0 0 0 0 0 127 0" result="hardAlpha"/>
<feOffset dx="2" dy="-2"/>
<feGaussianBlur stdDeviation="3"/>
<feComposite in2="hardAlpha" operator="out"/>
<feColorMatrix type="matrix" values="0 0 0 0 0 0 0 0 0 0 0 0 0 0 0 0 0 0 0.25 0"/>
<feBlend mode="normal" in2="BackgroundImageFix" result="effect1_dropShadow_242_172499"/>
<feColorMatrix in="SourceAlpha" type="matrix" values="0 0 0 0 0 0 0 0 0 0 0 0 0 0 0 0 0 0 127 0" result="hardAlpha"/>
<feOffset dx="-4" dy="4"/>
<feGaussianBlur stdDeviation="2"/>
<feComposite in2="hardAlpha" operator="out"/>
<feColorMatrix type="matrix" values="0 0 0 0 1 0 0 0 0 1 0 0 0 0 1 0 0 0 0.55 0"/>
<feBlend mode="normal" in2="effect1_dropShadow_242_172499" result="effect2_dropShadow_242_172499"/>
<feBlend mode="normal" in="SourceGraphic" in2="effect2_dropShadow_242_172499" result="shape"/>
<feColorMatrix in="SourceAlpha" type="matrix" values="0 0 0 0 0 0 0 0 0 0 0 0 0 0 0 0 0 0 127 0" result="hardAlpha"/>
<feOffset dx="-2" dy="2"/>
<feGaussianBlur stdDeviation="2"/>
<feComposite in2="hardAlpha" operator="arithmetic" k2="-1" k3="1"/>
<feColorMatrix type="matrix" values="0 0 0 0 1 0 0 0 0 1 0 0 0 0 1 0 0 0 0.29 0"/>
<feBlend mode="normal" in2="shape" result="effect3_innerShadow_242_172499"/>
</filter>
<filter id="filter4_dii_242_172499" x="209.088" y="240.93" width="45.4551" height="42.2373" filterUnits="userSpaceOnUse" color-interpolation-filters="sRGB">
<feFlood flood-opacity="0" result="BackgroundImageFix"/>
<feColorMatrix in="SourceAlpha" type="matrix" values="0 0 0 0 0 0 0 0 0 0 0 0 0 0 0 0 0 0 127 0" result="hardAlpha"/>
<feOffset dx="-2" dy="3"/>
<feComposite in2="hardAlpha" operator="out"/>
<feColorMatrix type="matrix" values="0 0 0 0 0 0 0 0 0 0 0 0 0 0 0 0 0 0 0.25 0"/>
<feBlend mode="normal" in2="BackgroundImageFix" result="effect1_dropShadow_242_172499"/>
<feBlend mode="normal" in="SourceGraphic" in2="effect1_dropShadow_242_172499" result="shape"/>
<feColorMatrix in="SourceAlpha" type="matrix" values="0 0 0 0 0 0 0 0 0 0 0 0 0 0 0 0 0 0 127 0" result="hardAlpha"/>
<feOffset dx="-4" dy="2"/>
<feGaussianBlur stdDeviation="2"/>
<feComposite in2="hardAlpha" operator="arithmetic" k2="-1" k3="1"/>
<feColorMatrix type="matrix" values="0 0 0 0 1 0 0 0 0 1 0 0 0 0 1 0 0 0 0.25 0"/>
<feBlend mode="normal" in2="shape" result="effect2_innerShadow_242_172499"/>
<feColorMatrix in="SourceAlpha" type="matrix" values="0 0 0 0 0 0 0 0 0 0 0 0 0 0 0 0 0 0 127 0" result="hardAlpha"/>
<feOffset dx="5" dy="8"/>
<feGaussianBlur stdDeviation="2.5"/>
<feComposite in2="hardAlpha" operator="arithmetic" k2="-1" k3="1"/>
<feColorMatrix type="matrix" values="0 0 0 0 0 0 0 0 0 0 0 0 0 0 0 0 0 0 0.25 0"/>
<feBlend mode="normal" in2="effect2_innerShadow_242_172499" result="effect3_innerShadow_242_172499"/>
</filter>
<filter id="filter5_ii_242_172499" x="129.393" y="183.885" width="151.478" height="75.1147" filterUnits="userSpaceOnUse" color-interpolation-filters="sRGB">
<feFlood flood-opacity="0" result="BackgroundImageFix"/>
<feBlend mode="normal" in="SourceGraphic" in2="BackgroundImageFix" result="shape"/>
<feColorMatrix in="SourceAlpha" type="matrix" values="0 0 0 0 0 0 0 0 0 0 0 0 0 0 0 0 0 0 127 0" result="hardAlpha"/>
<feOffset dy="5"/>
<feGaussianBlur stdDeviation="4.5"/>
<feComposite in2="hardAlpha" operator="arithmetic" k2="-1" k3="1"/>
<feColorMatrix type="matrix" values="0 0 0 0 0 0 0 0 0 0 0 0 0 0 0 0 0 0 0.25 0"/>
<feBlend mode="normal" in2="shape" result="effect1_innerShadow_242_172499"/>
<feColorMatrix in="SourceAlpha" type="matrix" values="0 0 0 0 0 0 0 0 0 0 0 0 0 0 0 0 0 0 127 0" result="hardAlpha"/>
<feOffset dx="-24" dy="4"/>
<feGaussianBlur stdDeviation="18"/>
<feComposite in2="hardAlpha" operator="arithmetic" k2="-1" k3="1"/>
<feColorMatrix type="matrix" values="0 0 0 0 1 0 0 0 0 1 0 0 0 0 1 0 0 0 0.1 0"/>
<feBlend mode="normal" in2="effect1_innerShadow_242_172499" result="effect2_innerShadow_242_172499"/>
</filter>
<filter id="filter6_dii_242_172499" x="169.307" y="215.633" width="82.2734" height="89.1406" filterUnits="userSpaceOnUse" color-interpolation-filters="sRGB">
<feFlood flood-opacity="0" result="BackgroundImageFix"/>
<feColorMatrix in="SourceAlpha" type="matrix" values="0 0 0 0 0 0 0 0 0 0 0 0 0 0 0 0 0 0 127 0" result="hardAlpha"/>
<feOffset dx="-3" dy="1"/>
<feComposite in2="hardAlpha" operator="out"/>
<feColorMatrix type="matrix" values="0 0 0 0 0 0 0 0 0 0 0 0 0 0 0 0 0 0 0.25 0"/>
<feBlend mode="normal" in2="BackgroundImageFix" result="effect1_dropShadow_242_172499"/>
<feBlend mode="normal" in="SourceGraphic" in2="effect1_dropShadow_242_172499" result="shape"/>
<feColorMatrix in="SourceAlpha" type="matrix" values="0 0 0 0 0 0 0 0 0 0 0 0 0 0 0 0 0 0 127 0" result="hardAlpha"/>
<feOffset dx="-2" dy="1"/>
<feGaussianBlur stdDeviation="2"/>
<feComposite in2="hardAlpha" operator="arithmetic" k2="-1" k3="1"/>
<feColorMatrix type="matrix" values="0 0 0 0 1 0 0 0 0 1 0 0 0 0 1 0 0 0 0.25 0"/>
<feBlend mode="normal" in2="shape" result="effect2_innerShadow_242_172499"/>
<feColorMatrix in="SourceAlpha" type="matrix" values="0 0 0 0 0 0 0 0 0 0 0 0 0 0 0 0 0 0 127 0" result="hardAlpha"/>
<feOffset dx="27" dy="3"/>
<feGaussianBlur stdDeviation="14.5"/>
<feComposite in2="hardAlpha" operator="arithmetic" k2="-1" k3="1"/>
<feColorMatrix type="matrix" values="0 0 0 0 0 0 0 0 0 0 0 0 0 0 0 0 0 0 0.25 0"/>
<feBlend mode="normal" in2="effect2_innerShadow_242_172499" result="effect3_innerShadow_242_172499"/>
</filter>
<filter id="filter7_ii_242_172499" x="44" y="54" width="269" height="262.03" filterUnits="userSpaceOnUse" color-interpolation-filters="sRGB">
<feFlood flood-opacity="0" result="BackgroundImageFix"/>
<feBlend mode="normal" in="SourceGraphic" in2="BackgroundImageFix" result="shape"/>
<feColorMatrix in="SourceAlpha" type="matrix" values="0 0 0 0 0 0 0 0 0 0 0 0 0 0 0 0 0 0 127 0" result="hardAlpha"/>
<feOffset dx="-96" dy="92.03"/>
<feGaussianBlur stdDeviation="70.65"/>
<feComposite in2="hardAlpha" operator="arithmetic" k2="-1" k3="1"/>
<feColorMatrix type="matrix" values="0 0 0 0 1 0 0 0 0 1 0 0 0 0 1 0 0 0 0.35 0"/>
<feBlend mode="normal" in2="shape" result="effect1_innerShadow_242_172499"/>
<feColorMatrix in="SourceAlpha" type="matrix" values="0 0 0 0 0 0 0 0 0 0 0 0 0 0 0 0 0 0 127 0" result="hardAlpha"/>
<feOffset dx="18" dy="-20"/>
<feGaussianBlur stdDeviation="20"/>
<feComposite in2="hardAlpha" operator="arithmetic" k2="-1" k3="1"/>
<feColorMatrix type="matrix" values="0 0 0 0 0 0 0 0 0 0 0 0 0 0 0 0 0 0 0.25 0"/>
<feBlend mode="normal" in2="effect1_innerShadow_242_172499" result="effect2_innerShadow_242_172499"/>
</filter>
<filter id="filter8_ddi_242_172499" x="175.175" y="158.832" width="38.1738" height="38.2109" filterUnits="userSpaceOnUse" color-interpolation-filters="sRGB">
<feFlood flood-opacity="0" result="BackgroundImageFix"/>
<feColorMatrix in="SourceAlpha" type="matrix" values="0 0 0 0 0 0 0 0 0 0 0 0 0 0 0 0 0 0 127 0" result="hardAlpha"/>
<feOffset dx="2" dy="-2"/>
<feGaussianBlur stdDeviation="3"/>
<feComposite in2="hardAlpha" operator="out"/>
<feColorMatrix type="matrix" values="0 0 0 0 0 0 0 0 0 0 0 0 0 0 0 0 0 0 0.25 0"/>
<feBlend mode="normal" in2="BackgroundImageFix" result="effect1_dropShadow_242_172499"/>
<feColorMatrix in="SourceAlpha" type="matrix" values="0 0 0 0 0 0 0 0 0 0 0 0 0 0 0 0 0 0 127 0" result="hardAlpha"/>
<feOffset dx="-4" dy="4"/>
<feGaussianBlur stdDeviation="2"/>
<feComposite in2="hardAlpha" operator="out"/>
<feColorMatrix type="matrix" values="0 0 0 0 1 0 0 0 0 1 0 0 0 0 1 0 0 0 0.55 0"/>
<feBlend mode="normal" in2="effect1_dropShadow_242_172499" result="effect2_dropShadow_242_172499"/>
<feBlend mode="normal" in="SourceGraphic" in2="effect2_dropShadow_242_172499" result="shape"/>
<feColorMatrix in="SourceAlpha" type="matrix" values="0 0 0 0 0 0 0 0 0 0 0 0 0 0 0 0 0 0 127 0" result="hardAlpha"/>
<feOffset dx="-2" dy="2"/>
<feGaussianBlur stdDeviation="2"/>
<feComposite in2="hardAlpha" operator="arithmetic" k2="-1" k3="1"/>
<feColorMatrix type="matrix" values="0 0 0 0 1 0 0 0 0 1 0 0 0 0 1 0 0 0 0.29 0"/>
<feBlend mode="normal" in2="shape" result="effect3_innerShadow_242_172499"/>
</filter>
<filter id="filter9_ddi_242_172499" x="222.65" y="152.15" width="37.1338" height="38.1069" filterUnits="userSpaceOnUse" color-interpolation-filters="sRGB">
<feFlood flood-opacity="0" result="BackgroundImageFix"/>
<feColorMatrix in="SourceAlpha" type="matrix" values="0 0 0 0 0 0 0 0 0 0 0 0 0 0 0 0 0 0 127 0" result="hardAlpha"/>
<feOffset dx="2" dy="-2"/>
<feGaussianBlur stdDeviation="3"/>
<feComposite in2="hardAlpha" operator="out"/>
<feColorMatrix type="matrix" values="0 0 0 0 0 0 0 0 0 0 0 0 0 0 0 0 0 0 0.25 0"/>
<feBlend mode="normal" in2="BackgroundImageFix" result="effect1_dropShadow_242_172499"/>
<feColorMatrix in="SourceAlpha" type="matrix" values="0 0 0 0 0 0 0 0 0 0 0 0 0 0 0 0 0 0 127 0" result="hardAlpha"/>
<feOffset dx="-4" dy="4"/>
<feGaussianBlur stdDeviation="2"/>
<feComposite in2="hardAlpha" operator="out"/>
<feColorMatrix type="matrix" values="0 0 0 0 1 0 0 0 0 1 0 0 0 0 1 0 0 0 0.55 0"/>
<feBlend mode="normal" in2="effect1_dropShadow_242_172499" result="effect2_dropShadow_242_172499"/>
<feBlend mode="normal" in="SourceGraphic" in2="effect2_dropShadow_242_172499" result="shape"/>
<feColorMatrix in="SourceAlpha" type="matrix" values="0 0 0 0 0 0 0 0 0 0 0 0 0 0 0 0 0 0 127 0" result="hardAlpha"/>
<feOffset dx="-2" dy="2"/>
<feGaussianBlur stdDeviation="2"/>
<feComposite in2="hardAlpha" operator="arithmetic" k2="-1" k3="1"/>
<feColorMatrix type="matrix" values="0 0 0 0 1 0 0 0 0 1 0 0 0 0 1 0 0 0 0.29 0"/>
<feBlend mode="normal" in2="shape" result="effect3_innerShadow_242_172499"/>
</filter>
<filter id="filter10_ddi_242_172499" x="202.537" y="362.319" width="33.1123" height="34.0825" filterUnits="userSpaceOnUse" color-interpolation-filters="sRGB">
<feFlood flood-opacity="0" result="BackgroundImageFix"/>
<feColorMatrix in="SourceAlpha" type="matrix" values="0 0 0 0 0 0 0 0 0 0 0 0 0 0 0 0 0 0 127 0" result="hardAlpha"/>
<feOffset dx="2" dy="-2"/>
<feGaussianBlur stdDeviation="3"/>
<feComposite in2="hardAlpha" operator="out"/>
<feColorMatrix type="matrix" values="0 0 0 0 0 0 0 0 0 0 0 0 0 0 0 0 0 0 0.25 0"/>
<feBlend mode="normal" in2="BackgroundImageFix" result="effect1_dropShadow_242_172499"/>
<feColorMatrix in="SourceAlpha" type="matrix" values="0 0 0 0 0 0 0 0 0 0 0 0 0 0 0 0 0 0 127 0" result="hardAlpha"/>
<feOffset dx="-4" dy="4"/>
<feGaussianBlur stdDeviation="2"/>
<feComposite in2="hardAlpha" operator="out"/>
<feColorMatrix type="matrix" values="0 0 0 0 1 0 0 0 0 1 0 0 0 0 1 0 0 0 0.55 0"/>
<feBlend mode="normal" in2="effect1_dropShadow_242_172499" result="effect2_dropShadow_242_172499"/>
<feBlend mode="normal" in="SourceGraphic" in2="effect2_dropShadow_242_172499" result="shape"/>
<feColorMatrix in="SourceAlpha" type="matrix" values="0 0 0 0 0 0 0 0 0 0 0 0 0 0 0 0 0 0 127 0" result="hardAlpha"/>
<feOffset dx="-2" dy="2"/>
<feGaussianBlur stdDeviation="2"/>
<feComposite in2="hardAlpha" operator="arithmetic" k2="-1" k3="1"/>
<feColorMatrix type="matrix" values="0 0 0 0 1 0 0 0 0 1 0 0 0 0 1 0 0 0 0.29 0"/>
<feBlend mode="normal" in2="shape" result="effect3_innerShadow_242_172499"/>
</filter>
<filter id="filter11_ddi_242_172499" x="199.597" y="329.196" width="36.1211" height="36.1045" filterUnits="userSpaceOnUse" color-interpolation-filters="sRGB">
<feFlood flood-opacity="0" result="BackgroundImageFix"/>
<feColorMatrix in="SourceAlpha" type="matrix" values="0 0 0 0 0 0 0 0 0 0 0 0 0 0 0 0 0 0 127 0" result="hardAlpha"/>
<feOffset dx="2" dy="-2"/>
<feGaussianBlur stdDeviation="3"/>
<feComposite in2="hardAlpha" operator="out"/>
<feColorMatrix type="matrix" values="0 0 0 0 0 0 0 0 0 0 0 0 0 0 0 0 0 0 0.25 0"/>
<feBlend mode="normal" in2="BackgroundImageFix" result="effect1_dropShadow_242_172499"/>
<feColorMatrix in="SourceAlpha" type="matrix" values="0 0 0 0 0 0 0 0 0 0 0 0 0 0 0 0 0 0 127 0" result="hardAlpha"/>
<feOffset dx="-4" dy="4"/>
<feGaussianBlur stdDeviation="2"/>
<feComposite in2="hardAlpha" operator="out"/>
<feColorMatrix type="matrix" values="0 0 0 0 1 0 0 0 0 1 0 0 0 0 1 0 0 0 0.55 0"/>
<feBlend mode="normal" in2="effect1_dropShadow_242_172499" result="effect2_dropShadow_242_172499"/>
<feBlend mode="normal" in="SourceGraphic" in2="effect2_dropShadow_242_172499" result="shape"/>
<feColorMatrix in="SourceAlpha" type="matrix" values="0 0 0 0 0 0 0 0 0 0 0 0 0 0 0 0 0 0 127 0" result="hardAlpha"/>
<feOffset dx="-2" dy="2"/>
<feGaussianBlur stdDeviation="2"/>
<feComposite in2="hardAlpha" operator="arithmetic" k2="-1" k3="1"/>
<feColorMatrix type="matrix" values="0 0 0 0 1 0 0 0 0 1 0 0 0 0 1 0 0 0 0.29 0"/>
<feBlend mode="normal" in2="shape" result="effect3_innerShadow_242_172499"/>
</filter>
<filter id="filter12_i_242_172499" x="207.118" y="179" width="29.3086" height="72" filterUnits="userSpaceOnUse" color-interpolation-filters="sRGB">
<feFlood flood-opacity="0" result="BackgroundImageFix"/>
<feBlend mode="normal" in="SourceGraphic" in2="BackgroundImageFix" result="shape"/>
<feColorMatrix in="SourceAlpha" type="matrix" values="0 0 0 0 0 0 0 0 0 0 0 0 0 0 0 0 0 0 127 0" result="hardAlpha"/>
<feOffset dx="5" dy="-7"/>
<feGaussianBlur stdDeviation="5.5"/>
<feComposite in2="hardAlpha" operator="arithmetic" k2="-1" k3="1"/>
<feColorMatrix type="matrix" values="0 0 0 0 0 0 0 0 0 0 0 0 0 0 0 0 0 0 0.25 0"/>
<feBlend mode="normal" in2="shape" result="effect1_innerShadow_242_172499"/>
</filter>
<filter id="filter13_i_242_172499" x="26.0996" y="140.893" width="135.03" height="106.223" filterUnits="userSpaceOnUse" color-interpolation-filters="sRGB">
<feFlood flood-opacity="0" result="BackgroundImageFix"/>
<feBlend mode="normal" in="SourceGraphic" in2="BackgroundImageFix" result="shape"/>
<feColorMatrix in="SourceAlpha" type="matrix" values="0 0 0 0 0 0 0 0 0 0 0 0 0 0 0 0 0 0 127 0" result="hardAlpha"/>
<feOffset dy="-3.45918"/>
<feGaussianBlur stdDeviation="4.09336"/>
<feComposite in2="hardAlpha" operator="arithmetic" k2="-1" k3="1"/>
<feColorMatrix type="matrix" values="0 0 0 0 0 0 0 0 0 0 0 0 0 0 0 0 0 0 0.32 0"/>
<feBlend mode="normal" in2="shape" result="effect1_innerShadow_242_172499"/>
</filter>
<filter id="filter14_i_242_172499" x="275.068" y="156.883" width="106.826" height="89.4348" filterUnits="userSpaceOnUse" color-interpolation-filters="sRGB">
<feFlood flood-opacity="0" result="BackgroundImageFix"/>
<feBlend mode="normal" in="SourceGraphic" in2="BackgroundImageFix" result="shape"/>
<feColorMatrix in="SourceAlpha" type="matrix" values="0 0 0 0 0 0 0 0 0 0 0 0 0 0 0 0 0 0 127 0" result="hardAlpha"/>
<feOffset dy="-3.50801"/>
<feGaussianBlur stdDeviation="4.15114"/>
<feComposite in2="hardAlpha" operator="arithmetic" k2="-1" k3="1"/>
<feColorMatrix type="matrix" values="0 0 0 0 0 0 0 0 0 0 0 0 0 0 0 0 0 0 0.32 0"/>
<feBlend mode="normal" in2="shape" result="effect1_innerShadow_242_172499"/>
</filter>
<filter id="filter15_ii_242_172499" x="117.69" y="63" width="196.31" height="102.851" filterUnits="userSpaceOnUse" color-interpolation-filters="sRGB">
<feFlood flood-opacity="0" result="BackgroundImageFix"/>
<feBlend mode="normal" in="SourceGraphic" in2="BackgroundImageFix" result="shape"/>
<feColorMatrix in="SourceAlpha" type="matrix" values="0 0 0 0 0 0 0 0 0 0 0 0 0 0 0 0 0 0 127 0" result="hardAlpha"/>
<feOffset dx="-24" dy="2.85139"/>
<feGaussianBlur stdDeviation="6.655"/>
<feComposite in2="hardAlpha" operator="arithmetic" k2="-1" k3="1"/>
<feColorMatrix type="matrix" values="0 0 0 0 1 0 0 0 0 1 0 0 0 0 1 0 0 0 0.05 0"/>
<feBlend mode="normal" in2="shape" result="effect1_innerShadow_242_172499"/>
<feColorMatrix in="SourceAlpha" type="matrix" values="0 0 0 0 0 0 0 0 0 0 0 0 0 0 0 0 0 0 127 0" result="hardAlpha"/>
<feOffset dx="14" dy="-4"/>
<feGaussianBlur stdDeviation="14"/>
<feComposite in2="hardAlpha" operator="arithmetic" k2="-1" k3="1"/>
<feColorMatrix type="matrix" values="0 0 0 0 0 0 0 0 0 0 0 0 0 0 0 0 0 0 0.1 0"/>
<feBlend mode="normal" in2="effect1_innerShadow_242_172499" result="effect2_innerShadow_242_172499"/>
</filter>
<filter id="filter16_i_242_172499" x="156" y="-16.7616" width="152" height="149.963" filterUnits="userSpaceOnUse" color-interpolation-filters="sRGB">
<feFlood flood-opacity="0" result="BackgroundImageFix"/>
<feBlend mode="normal" in="SourceGraphic" in2="BackgroundImageFix" result="shape"/>
<feColorMatrix in="SourceAlpha" type="matrix" values="0 0 0 0 0 0 0 0 0 0 0 0 0 0 0 0 0 0 127 0" result="hardAlpha"/>
<feOffset dx="32" dy="-23.7616"/>
<feGaussianBlur stdDeviation="18.655"/>
<feComposite in2="hardAlpha" operator="arithmetic" k2="-1" k3="1"/>
<feColorMatrix type="matrix" values="0 0 0 0 0 0 0 0 0 0 0 0 0 0 0 0 0 0 0.25 0"/>
<feBlend mode="normal" in2="shape" result="effect1_innerShadow_242_172499"/>
</filter>
<filter id="filter17_i_242_172499" x="163.315" y="78.6279" width="136.995" height="57.8658" filterUnits="userSpaceOnUse" color-interpolation-filters="sRGB">
<feFlood flood-opacity="0" result="BackgroundImageFix"/>
<feBlend mode="normal" in="SourceGraphic" in2="BackgroundImageFix" result="shape"/>
<feColorMatrix in="SourceAlpha" type="matrix" values="0 0 0 0 0 0 0 0 0 0 0 0 0 0 0 0 0 0 127 0" result="hardAlpha"/>
<feOffset dx="32" dy="-4.37214"/>
<feGaussianBlur stdDeviation="15.655"/>
<feComposite in2="hardAlpha" operator="arithmetic" k2="-1" k3="1"/>
<feColorMatrix type="matrix" values="0 0 0 0 0 0 0 0 0 0 0 0 0 0 0 0 0 0 0.25 0"/>
<feBlend mode="normal" in2="shape" result="effect1_innerShadow_242_172499"/>
</filter>
<filter id="filter18_ii_242_172499" x="133.53" y="-3" width="158.47" height="73.585" filterUnits="userSpaceOnUse" color-interpolation-filters="sRGB">
<feFlood flood-opacity="0" result="BackgroundImageFix"/>
<feBlend mode="normal" in="SourceGraphic" in2="BackgroundImageFix" result="shape"/>
<feColorMatrix in="SourceAlpha" type="matrix" values="0 0 0 0 0 0 0 0 0 0 0 0 0 0 0 0 0 0 127 0" result="hardAlpha"/>
<feOffset dx="-24" dy="1.03322"/>
<feGaussianBlur stdDeviation="11.235"/>
<feComposite in2="hardAlpha" operator="arithmetic" k2="-1" k3="1"/>
<feColorMatrix type="matrix" values="0 0 0 0 0 0 0 0 0 0 0 0 0 0 0 0 0 0 0.1 0"/>
<feBlend mode="normal" in2="shape" result="effect1_innerShadow_242_172499"/>
<feColorMatrix in="SourceAlpha" type="matrix" values="0 0 0 0 0 0 0 0 0 0 0 0 0 0 0 0 0 0 127 0" result="hardAlpha"/>
<feOffset dx="16" dy="-10"/>
<feGaussianBlur stdDeviation="14"/>
<feComposite in2="hardAlpha" operator="arithmetic" k2="-1" k3="1"/>
<feColorMatrix type="matrix" values="0 0 0 0 1 0 0 0 0 1 0 0 0 0 1 0 0 0 0.05 0"/>
<feBlend mode="normal" in2="effect1_innerShadow_242_172499" result="effect2_innerShadow_242_172499"/>
</filter>
<linearGradient id="paint0_linear_242_172499" x1="157" y1="254" x2="263" y2="254" gradientUnits="userSpaceOnUse">
<stop stop-opacity="0.24"/>
<stop offset="1" stop-opacity="0"/>
</linearGradient>
</defs>
</svg>
