<svg width="412" height="714" viewBox="0 0 412 714" fill="none" xmlns="http://www.w3.org/2000/svg">
<path d="M274.635 608.953C231.482 650.349 161.518 650.349 118.365 608.953C75.2118 567.558 75.2118 500.442 118.365 459.047C161.518 417.651 231.482 417.651 274.635 459.047C317.788 500.442 317.788 567.558 274.635 608.953Z" fill="black" fill-opacity="0.12"/>
<path opacity="0.3" d="M329.082 661.279C255.859 731.574 137.141 731.574 63.9175 661.279C-9.30583 590.985 -9.30582 477.015 63.9175 406.721C137.141 336.426 255.859 336.426 329.083 406.721C402.306 477.015 402.306 590.985 329.082 661.279Z" fill="black" fill-opacity="0.12"/>
<path fill-rule="evenodd" clip-rule="evenodd" d="M275.944 542.984C275.944 550.659 272.038 557.845 265.237 563.997C278.149 565.562 287.737 571.37 287.737 578.295C287.737 586.421 274.537 593.008 258.255 593.008C243.766 593.008 231.718 587.792 229.24 580.917C220.039 583.018 209.918 584.18 199.291 584.18C193.669 584.18 188.189 583.855 182.911 583.237C177.68 587.342 168.485 590.065 158.016 590.065C141.734 590.065 128.534 583.478 128.534 575.352C128.534 571.728 131.16 568.41 135.514 565.846C133.204 563.988 131.167 562.023 129.435 559.969C114.791 560.551 102.887 555.489 102.144 547.992C101.412 540.602 111.777 533.403 125.936 530.993C135.49 514.089 164.717 501.788 199.291 501.788C214.838 501.788 229.304 504.275 241.386 508.55C246.621 506.177 253.573 504.73 261.203 504.73C277.486 504.73 290.685 511.318 290.685 519.443C290.685 525.362 283.681 530.465 273.584 532.8C275.125 536.057 275.944 539.469 275.944 542.984Z" fill="black" fill-opacity="0.2"/>
<ellipse cx="195.922" cy="532.876" rx="58.5428" ry="42.4765" fill="black" fill-opacity="0.2"/>
<g filter="url(#filter0_i_242_166422)">
<path d="M217.576 498.988C208.143 498.988 205.785 487.122 205.785 481.19C201.461 505.711 194.936 554.754 203.426 554.754C214.039 554.754 247.055 527.464 250.593 523.905C255.152 519.318 259.729 524.522 268.574 523.905C277.418 523.287 283.315 517.972 283.315 512.087C283.315 506.202 278.892 485.604 261.203 485.604C236.143 485.604 229.368 498.988 217.576 498.988Z" fill="#82644D"/>
</g>
<g filter="url(#filter1_i_242_166422)">
<path d="M154.47 499.827L152.119 548.869C133.724 543.22 142.496 556.552 114.011 551.989C111.683 551.616 109.701 549.976 109.107 547.695C102.113 520.814 126.501 493.259 154.47 499.827Z" fill="#82644D"/>
</g>
<path opacity="0.1" d="M255.701 498.046C251.206 499.954 247.592 503.557 245.865 499.505C244.139 495.452 246.78 492.597 251.276 490.689C255.771 488.782 260.418 488.544 262.144 492.596C263.87 496.649 260.196 496.138 255.701 498.046Z" fill="#E2E8F0"/>
<path opacity="0.1" d="M134.825 515.701C130.33 517.609 126.716 521.212 124.989 517.16C123.263 513.107 125.904 510.252 130.4 508.345C134.895 506.437 139.542 506.199 141.268 510.252C142.994 514.304 139.321 513.794 134.825 515.701Z" fill="#E2E8F0"/>
<g filter="url(#filter2_i_242_166422)">
<path d="M146.645 419.996H240.145V523.125C240.145 548.944 219.214 569.875 193.395 569.875C167.575 569.875 146.645 548.944 146.645 523.125V419.996Z" fill="#82644D"/>
</g>
<path d="M240.565 423.261C240.565 447.406 219.446 461.515 193.394 461.515C167.342 461.515 146.223 447.406 146.223 423.261C146.223 399.116 167.342 385.008 193.394 385.008C219.446 385.008 240.565 399.116 240.565 423.261Z" fill="#C8A078"/>
<path fill-rule="evenodd" clip-rule="evenodd" d="M167.035 402.606C160.397 407.425 156.331 414.415 156.331 423.261C156.331 432.107 160.397 439.098 167.035 443.917C173.706 448.759 183.009 451.424 193.394 451.424C203.778 451.424 213.081 448.759 219.753 443.917C226.391 439.098 230.457 432.107 230.457 423.261C230.457 414.415 226.391 407.425 219.753 402.606C213.081 397.763 203.778 395.099 193.394 395.099C183.009 395.099 173.706 397.763 167.035 402.606ZM165.551 400.561C172.751 395.334 182.611 392.572 193.394 392.572C204.176 392.572 214.037 395.334 221.237 400.561C228.47 405.812 232.984 413.534 232.984 423.261C232.984 432.988 228.47 440.711 221.237 445.962C214.037 451.189 204.176 453.951 193.394 453.951C182.611 453.951 172.751 451.189 165.551 445.962C158.318 440.711 153.804 432.988 153.804 423.261C153.804 413.534 158.318 405.812 165.551 400.561Z" fill="#9A7858"/>
<path fill-rule="evenodd" clip-rule="evenodd" d="M177.446 411.286C173.475 414.097 171.072 418.144 171.072 423.261C171.072 428.379 173.475 432.426 177.446 435.237C181.451 438.071 187.074 439.653 193.394 439.653C199.714 439.653 205.337 438.071 209.342 435.237C213.313 432.426 215.716 428.379 215.716 423.261C215.716 418.144 213.313 414.097 209.342 411.286C205.337 408.452 199.714 406.869 193.394 406.869C187.074 406.869 181.451 408.452 177.446 411.286ZM175.987 409.223C180.518 406.016 186.688 404.342 193.394 404.342C200.1 404.342 206.27 406.016 210.801 409.223C215.366 412.454 218.243 417.235 218.243 423.261C218.243 429.288 215.366 434.069 210.801 437.299C206.27 440.507 200.1 442.18 193.394 442.18C186.688 442.18 180.518 440.507 175.987 437.299C171.422 434.069 168.545 429.288 168.545 423.261C168.545 417.235 171.422 412.454 175.987 409.223Z" fill="#9A7858"/>
<path fill-rule="evenodd" clip-rule="evenodd" d="M187.921 417.364C186.616 418.39 185.813 419.867 185.813 421.79C185.813 423.713 186.616 425.19 187.921 426.216C189.254 427.265 191.172 427.883 193.394 427.883C195.616 427.883 197.534 427.265 198.867 426.216C200.172 425.19 200.975 423.713 200.975 421.79C200.975 419.867 200.172 418.39 198.867 417.364C197.534 416.315 195.616 415.697 193.394 415.697C191.172 415.697 189.254 416.315 187.921 417.364ZM186.359 415.377C188.227 413.908 190.731 413.17 193.394 413.17C196.057 413.17 198.561 413.908 200.429 415.377C202.326 416.869 203.502 419.07 203.502 421.79C203.502 424.511 202.326 426.712 200.429 428.203C198.561 429.672 196.057 430.41 193.394 430.41C190.731 430.41 188.227 429.672 186.359 428.203C184.463 426.712 183.286 424.511 183.286 421.79C183.286 419.07 184.463 416.869 186.359 415.377Z" fill="#9A7858"/>
<path fill-rule="evenodd" clip-rule="evenodd" d="M191.652 421.971C191.651 421.971 191.655 421.965 191.667 421.955C191.659 421.966 191.653 421.971 191.652 421.971ZM191.989 421.79C192.31 421.671 192.792 421.582 193.393 421.582C193.995 421.582 194.477 421.671 194.798 421.79C194.477 421.909 193.995 421.998 193.393 421.998C192.792 421.998 192.31 421.909 191.989 421.79ZM195.135 421.971C195.133 421.971 195.128 421.966 195.12 421.955C195.132 421.965 195.136 421.971 195.135 421.971ZM195.12 421.625C195.128 421.614 195.133 421.609 195.135 421.609C195.136 421.609 195.132 421.615 195.12 421.625ZM191.667 421.625C191.655 421.615 191.651 421.609 191.652 421.609C191.653 421.609 191.659 421.614 191.667 421.625ZM190.769 419.564C191.525 419.207 192.462 419.055 193.393 419.055C194.324 419.055 195.262 419.207 196.017 419.564C196.75 419.909 197.605 420.616 197.605 421.79C197.605 422.965 196.75 423.671 196.017 424.017C195.262 424.373 194.324 424.525 193.393 424.525C192.462 424.525 191.525 424.373 190.769 424.017C190.037 423.671 189.182 422.965 189.182 421.79C189.182 420.616 190.037 419.909 190.769 419.564Z" fill="#9A7858"/>
<path opacity="0.1" d="M169.809 462.273C169.809 467.148 167.754 472.362 163.342 472.362C158.93 472.362 158.017 468.41 158.017 463.534C158.017 458.659 158.93 454.706 163.342 454.706C167.754 454.706 169.809 457.398 169.809 462.273Z" fill="#E2E8F0"/>
<path opacity="0.1" d="M222.876 484.132C222.876 495.508 216.711 507.673 203.475 507.673C190.239 507.673 187.498 498.451 187.498 487.075C187.498 475.699 190.239 466.477 203.475 466.477C216.711 466.477 222.876 472.756 222.876 484.132Z" fill="black"/>
<path opacity="0.1" d="M228.771 542.984C228.771 554.36 222.606 566.525 209.37 566.525C184.252 566.525 189.801 516.501 211.081 516.501C224.317 516.501 228.771 531.608 228.771 542.984Z" fill="black"/>
<path opacity="0.1" d="M181.602 507.673C181.602 513.361 178.006 519.443 170.285 519.443C162.564 519.443 160.965 514.832 160.965 509.144C160.965 503.456 162.564 498.845 170.285 498.845C178.006 498.845 181.602 501.985 181.602 507.673Z" fill="black"/>
<g filter="url(#filter3_i_242_166422)">
<path d="M258.255 532.685C249.409 529.743 240.566 510.616 240.565 497.374C196.343 492.96 203.708 560.64 215.502 565.054C227.295 569.468 239.093 570.939 246.462 573.882C253.832 576.824 253.832 587.123 261.203 588.595C268.575 590.066 283.314 588.595 283.314 573.882C283.314 559.169 267.101 535.627 258.255 532.685Z" fill="#82644D"/>
</g>
<path opacity="0.1" d="M243.037 524.948C247.093 530.392 249.014 538.005 243.826 541.856C238.638 545.707 234.276 542.092 230.22 536.649C226.165 531.206 223.951 525.996 229.139 522.145C234.327 518.294 238.982 519.505 243.037 524.948Z" fill="black"/>
<g filter="url(#filter4_i_242_166422)">
<path d="M148.789 546.274C154.899 544.295 161.006 531.431 161.007 522.525C191.549 519.556 186.462 565.076 178.317 568.045C170.172 571.014 162.024 572.003 156.934 573.982C151.844 575.961 151.844 582.888 146.753 583.878C141.662 584.867 131.482 583.878 131.482 573.982C131.482 564.087 142.68 548.253 148.789 546.274Z" fill="#82644D"/>
</g>
<path opacity="0.1" d="M159.371 541.269C156.614 544.969 155.309 550.144 158.835 552.761C162.361 555.379 165.326 552.922 168.083 549.222C170.839 545.522 172.344 541.981 168.818 539.363C165.292 536.746 162.128 537.569 159.371 541.269Z" fill="black"/>
<g filter="url(#filter5_ii_242_166422)">
<path d="M125.678 539.287C117.872 542.57 116.561 553 119.565 553C129.5 553 129.885 558.357 141 551.5C152.114 544.643 149.329 534.653 140.682 532.43C132.346 530.287 131.791 536.715 125.678 539.287Z" fill="#E2E8F0"/>
</g>
<g filter="url(#filter6_ii_242_166422)">
<path d="M168.909 560.502L168.869 560.542C164.904 565.042 164.726 572.348 169.858 570.966C178.858 568.542 176.869 567.466 195.369 571.966C210.169 575.566 217.536 569.799 219.369 566.466C218.036 563.299 213.269 555.466 204.869 549.466C194.369 541.966 186.445 548.202 177.869 553.466C172.887 556.524 171.222 558.189 168.909 560.502Z" fill="#E2E8F0"/>
</g>
<g filter="url(#filter7_ii_242_166422)">
<path d="M265.601 558.548C263.601 554.548 256.767 548.214 253.601 545.548C250.601 542.889 250.101 539.548 252.601 535.548C255.101 531.548 264.101 532.048 272.101 538.548C280.101 545.048 285.101 554.548 280.601 560.548C276.101 566.548 268.101 563.548 265.601 558.548Z" fill="#E2E8F0"/>
</g>
<g filter="url(#filter8_ii_242_166422)">
<path fill-rule="evenodd" clip-rule="evenodd" d="M271.213 204.761C264.486 204.761 258.056 206.032 252.151 208.349C242.628 195.601 227.419 187.348 210.283 187.348C191.788 187.348 175.539 196.961 166.259 211.464C158.691 207.196 149.951 204.761 140.643 204.761C114.548 204.761 92.9226 223.899 89.0376 248.905C64.0317 252.79 44.8936 274.415 44.8936 300.51C44.8936 304.082 45.2522 307.57 45.9354 310.941C34.4255 324.578 27.4883 342.199 27.4883 361.441C27.4883 396.213 50.1419 425.693 81.4954 435.929C87.4649 458.201 107.79 474.599 131.946 474.599C139.341 474.599 146.377 473.062 152.753 470.29C168.091 483.807 188.228 492.008 210.279 492.008C231.104 492.008 250.22 484.695 265.201 472.497C269.868 473.865 274.807 474.599 279.917 474.599C304.074 474.599 324.4 458.199 330.368 435.926C361.717 425.688 384.367 396.21 384.367 361.441C384.367 342.199 377.43 324.578 365.92 310.941C366.603 307.57 366.962 304.082 366.962 300.51C366.962 274.415 347.824 252.79 322.818 248.905C318.933 223.899 297.308 204.761 271.213 204.761Z" fill="#14B8A6"/>
</g>
<path d="M186.398 474.071C170.317 471.119 172.218 457.938 180.695 447.754C183.759 444.074 189.453 446.672 190.434 451.357C193.039 463.796 197.271 476.068 186.398 474.071Z" fill="black" fill-opacity="0.12"/>
<path d="M248.168 468C270.168 461.2 284.001 424.167 288.168 406.5C248.501 395.667 167.968 378.9 163.168 398.5C157.168 423 177.168 439 201.168 446C225.168 453 220.668 476.5 248.168 468Z" fill="black" fill-opacity="0.12"/>
<g filter="url(#filter9_ii_242_166422)">
<path d="M248.168 463C270.168 456.2 284.001 419.167 288.168 401.5C248.501 390.667 167.968 373.9 163.168 393.5C157.168 418 177.168 434 201.168 441C225.168 448 220.668 471.5 248.168 463Z" fill="#E2E8F0"/>
</g>
<path d="M24.5928 369C21.3928 354.6 31.9261 339.667 37.5928 334C59.9928 334 89.5928 367.667 101.593 384.5C98.0928 393.5 93.5292 415.223 101.593 431C124.593 476 77.6131 475.905 72 431C69.5 411 71.5 415 55 409C38.5 403 34.0928 413.5 33.0928 398.5C32.0928 383.5 28.5928 387 24.5928 369Z" fill="black" fill-opacity="0.12"/>
<g filter="url(#filter10_ii_242_166422)">
<path d="M19.5928 362C16.3928 347.6 26.9261 332.667 32.5928 327C54.9928 327 84.5928 360.667 96.5928 377.5C93.0928 386.5 88.5292 408.223 96.5928 424C119.593 469 78.2059 493.905 72.5928 449C70.0928 429 64.0928 432.5 47.5928 426.5C31.0928 420.5 29.0928 406.5 28.0928 391.5C27.0928 376.5 23.5928 380 19.5928 362Z" fill="#E2E8F0"/>
</g>
<g filter="url(#filter11_ii_242_166422)">
<path d="M350.732 410.13C336.822 411.209 329.419 421.773 326.368 429.696C325.342 432.361 322.873 434.291 320.099 434.969C303.841 438.944 298.147 462.155 304.604 464.41C311.669 466.877 312.084 461.12 320.396 456.186C328.707 451.251 330.785 462.765 339.096 459.064C347.408 455.363 346.576 440.148 353.641 431.513C360.706 422.877 371.926 408.485 350.732 410.13Z" fill="#E2E8F0"/>
</g>
<path fill-rule="evenodd" clip-rule="evenodd" d="M270.802 173.453C264.113 173.453 257.72 174.588 251.849 176.653C242.393 165.334 227.305 158.008 210.306 158.008C191.954 158.008 175.828 166.547 166.613 179.431C159.091 175.625 150.402 173.453 141.147 173.453C115.233 173.453 93.7593 190.478 89.9098 212.721C65.0847 216.176 46.0855 235.404 46.0855 258.607C46.0855 261.225 46.3274 263.793 46.7924 266.293C32.1904 277.707 23.1484 293.526 23.1484 311.008C23.1484 332.832 37.2399 352.064 58.6485 363.37C66.6485 387.388 92.9446 405.008 124.15 405.008C129.464 405.008 134.635 404.497 139.598 403.531C157.055 419.128 182.25 428.921 210.266 428.921C237.597 428.921 262.245 419.601 279.64 404.664C282.106 404.891 284.612 405.008 287.15 405.008C320.635 405.008 348.467 384.721 354.107 358.01C375.268 346.658 389.15 327.602 389.15 306.008C389.15 288.686 380.218 272.997 365.761 261.608C365.832 260.616 365.868 259.615 365.868 258.607C365.868 235.403 346.866 216.174 322.039 212.72C318.189 190.478 296.716 173.453 270.802 173.453Z" fill="black" fill-opacity="0.12"/>
<g filter="url(#filter12_ii_242_166422)">
<path fill-rule="evenodd" clip-rule="evenodd" d="M281.216 87.0841C273.458 87.0841 266.042 88.551 259.231 91.2227C248.249 76.5236 230.711 67.0078 210.951 67.0078C189.624 67.0078 170.887 78.0922 160.185 94.8142C151.457 89.8923 141.378 87.0841 130.644 87.0841C100.551 87.0841 75.6121 109.155 71.1319 137.992C42.2945 142.472 20.2241 167.411 20.2241 197.504C20.2241 201.622 20.6374 205.643 21.4247 209.529C8.14969 225.255 0.148438 245.578 0.148438 267.77C0.148438 307.868 26.2715 341.864 62.4273 353.669C69.3111 379.354 92.7509 398.266 120.608 398.266C129.137 398.266 137.252 396.493 144.605 393.295C162.294 408.885 185.517 418.343 210.949 418.343C234.965 418.343 257.011 409.91 274.287 395.842C279.669 397.42 285.363 398.266 291.256 398.266C319.113 398.266 342.553 379.353 349.436 353.668C385.59 341.862 411.711 307.866 411.711 267.77C411.711 245.578 403.71 225.255 390.435 209.529C391.222 205.643 391.636 201.622 391.636 197.504C391.636 167.411 369.565 142.472 340.728 137.992C336.248 109.155 311.309 87.0841 281.216 87.0841Z" fill="#14B8A6"/>
</g>
<path d="M336.064 363.829C323.984 375.611 311.419 352.682 306.115 339.097C304.771 335.655 307.812 332.637 311.245 334.008C328.154 340.759 345.083 355.034 336.064 363.829Z" fill="black" fill-opacity="0.12"/>
<path d="M89.146 371.943C73.863 366.553 80.1205 350.105 92.1391 337.873C95.9306 334.015 101.904 337.93 101.337 343.308C99.6262 359.541 99.5604 375.616 89.146 371.943Z" fill="black" fill-opacity="0.12"/>
<path d="M196.974 354.511C201.738 350.724 231.302 369.306 216.807 381.734C206.773 390.336 192.114 364.33 196.974 354.511Z" fill="white" fill-opacity="0.2"/>
<path d="M21.1178 282.241C13.6044 276.093 23.9813 267.687 32.1296 262.928C35.3212 261.064 38.5994 263.683 37.4021 267.179C33.8951 277.417 26.8201 286.908 21.1178 282.241Z" fill="white" fill-opacity="0.2"/>
<path d="M42.446 278.025C49.246 263.625 57.946 260.691 61.446 261.025C87.946 263.548 91.146 277.425 87.946 289.025C83.946 303.525 72.446 308.525 61.446 310.025C50.4459 311.525 47.946 330.525 36.446 324.025C24.946 317.525 33.946 296.025 42.446 278.025Z" fill="black" fill-opacity="0.12"/>
<g filter="url(#filter13_ii_242_166422)">
<path d="M42.446 273.025C49.246 258.625 57.946 255.691 61.446 256.025C87.946 258.548 91.146 272.425 87.946 284.025C83.946 298.525 72.446 303.525 61.446 305.025C50.4459 306.525 47.946 325.525 36.446 319.025C24.946 312.525 33.946 291.025 42.446 273.025Z" fill="#E2E8F0"/>
</g>
<path d="M180.446 382.525C146.046 362.125 129.446 322.025 125.446 304.525C125.446 289.325 252.446 289.525 315.946 291.525C322.946 333.025 281.946 345.025 258.446 353.525C234.946 362.025 223.446 408.025 180.446 382.525Z" fill="black" fill-opacity="0.12"/>
<g filter="url(#filter14_ii_242_166422)">
<path d="M180.446 376.525C146.046 356.125 129.446 316.025 125.446 298.525C125.446 283.325 252.446 283.525 315.946 285.525C322.946 327.025 281.946 339.025 258.446 347.525C234.946 356.025 223.446 402.025 180.446 376.525Z" fill="#E2E8F0"/>
</g>
<path fill-rule="evenodd" clip-rule="evenodd" d="M272.876 74.1615C265.973 74.1615 259.374 75.2962 253.316 77.3625C243.558 66.042 227.987 58.7148 210.444 58.7148C191.506 58.7148 174.865 67.2543 165.356 80.1388C157.594 76.3333 148.628 74.1615 139.077 74.1615C112.337 74.1615 90.1777 91.1861 86.2046 113.428C60.5867 116.883 40.9805 136.111 40.9805 159.314C40.9805 162.491 41.348 165.593 42.0481 168.59C30.2559 180.716 23.1484 196.385 23.1484 213.495C23.1484 243.573 45.1144 269.199 75.8833 278.949C83.7192 297.072 105.074 310.074 130.19 310.074C136.502 310.074 142.577 309.253 148.259 307.736C164.32 321.284 186.242 329.628 210.408 329.628C233.945 329.628 255.353 321.714 271.29 308.784C275.626 309.628 280.152 310.074 284.808 310.074C310.478 310.074 332.22 296.492 339.614 277.742C368.512 267.202 388.805 242.405 388.805 213.495C388.805 196.386 381.698 180.719 369.908 168.594C370.609 165.595 370.977 162.492 370.977 159.314C370.977 136.11 351.368 116.881 325.748 113.427C321.775 91.1859 299.616 74.1615 272.876 74.1615Z" fill="black" fill-opacity="0.12"/>
<g filter="url(#filter15_ii_242_166422)">
<path fill-rule="evenodd" clip-rule="evenodd" d="M275.2 31.7773C268.055 31.7773 261.227 33.0534 254.956 35.3771C244.86 22.6556 228.751 14.4219 210.602 14.4219C191.01 14.4219 173.794 24.0182 163.954 38.4976C155.923 34.219 146.644 31.7773 136.761 31.7773C109.092 31.7773 86.1642 50.9148 82.0555 75.9163C55.5485 79.7987 35.2615 101.411 35.2615 127.491C35.2615 131.061 35.6417 134.548 36.3661 137.917C24.1658 151.546 16.8125 169.156 16.8125 188.387C16.8125 223.152 40.8459 252.625 74.1028 262.843C80.4523 285.071 101.982 301.43 127.563 301.43C135.365 301.43 142.79 299.909 149.522 297.164C165.789 310.705 187.159 318.922 210.565 318.922C232.688 318.922 252.993 311.581 268.888 299.342C273.823 300.701 279.044 301.43 284.444 301.43C310.032 301.43 331.566 285.063 337.91 262.827C371.14 252.595 395.149 223.134 395.149 188.387C395.149 169.156 387.795 151.546 375.595 137.917C376.32 134.548 376.7 131.061 376.7 127.491C376.7 101.411 356.413 79.7987 329.906 75.9163C325.797 50.9148 302.869 31.7773 275.2 31.7773Z" fill="#14B8A6"/>
</g>
<path d="M302.46 272.036C287.679 278.841 283.28 255.082 282.582 240.306C282.373 235.877 286.983 233.695 290.248 236.697C303.364 248.754 313.568 266.922 302.46 272.036Z" fill="black" fill-opacity="0.12"/>
<path d="M68.7838 171.296C56.3911 160.457 73.2285 152.757 84.8505 148.843C88.3536 147.663 91.7412 150.747 90.7377 154.303C86.4758 169.405 78.1598 179.496 68.7838 171.296Z" fill="black" fill-opacity="0.12"/>
<path d="M332.847 127.901C335.437 122.393 370.176 125.933 362.698 143.501C357.521 155.662 332.847 138.857 332.847 127.901Z" fill="white" fill-opacity="0.2"/>
<path d="M143.628 217.511C138.863 213.724 109.299 232.306 123.794 244.734C133.828 253.336 148.487 227.33 143.628 217.511Z" fill="white" fill-opacity="0.2"/>
<path d="M129.801 37.5477C142.201 35.1477 147.634 41.2144 148.801 44.5477C124.801 138.948 204.801 160.881 247.801 160.048C248.468 172.548 242.701 199.248 214.301 206.048C178.801 214.548 166.801 188.048 141.801 195.548C116.801 203.048 124.802 248.048 92.8015 245.048C54.8073 241.486 77.3015 185.548 59.3009 164.548C51.1658 155.057 28.3011 149.048 50.3011 107.048C72.3011 65.0477 114.301 40.5477 129.801 37.5477Z" fill="black" fill-opacity="0.12"/>
<g filter="url(#filter16_ii_242_166422)">
<path d="M129.801 30.5477C142.201 28.1477 147.634 34.2144 148.801 37.5477C124.801 131.948 204.801 153.881 247.801 153.048C248.468 165.548 242.701 192.248 214.301 199.048C178.801 207.548 166.801 181.048 141.801 188.548C116.801 196.048 124.802 241.048 92.8015 238.048C54.8073 234.486 77.3015 178.548 59.3009 157.548C51.1658 148.057 28.3011 142.048 50.3011 100.048C72.3011 58.0477 114.301 33.5477 129.801 30.5477Z" fill="#E2E8F0"/>
</g>
<path d="M287 186C301.391 205.693 280.501 228 268.001 204C256.022 181 268.001 160 287 186Z" fill="black" fill-opacity="0.12"/>
<g filter="url(#filter17_ii_242_166422)">
<path d="M287 182C301.391 201.693 280.501 224 268.001 200C256.022 177 268.001 156 287 182Z" fill="#E2E8F0"/>
</g>
<path d="M348.964 152.5C362.964 134.5 367.131 114.667 367.464 107C385.864 118.2 379.744 141.96 384.464 151C403 186.5 383 249.5 365.5 241.5C348 233.5 363.964 215.5 351.964 203.5C339.964 191.5 331.464 175 348.964 152.5Z" fill="black" fill-opacity="0.12"/>
<g filter="url(#filter18_ii_242_166422)">
<path d="M348.964 144.5C362.964 126.5 367.131 106.667 367.464 99C385.864 110.2 386.464 133 384.464 143C419.964 184 381.964 256.5 364.464 248.5C346.964 240.5 363.964 207.5 351.964 195.5C339.964 183.5 331.464 167 348.964 144.5Z" fill="#E2E8F0"/>
</g>
<path fill-rule="evenodd" clip-rule="evenodd" d="M136.153 126.663C120.547 121.692 109.344 108.082 109.344 92.0717C109.344 71.8543 127.208 55.4648 149.245 55.4648C151.53 55.4648 153.77 55.6411 155.95 55.9795C162.854 36.5989 182.721 22.5977 206.152 22.5977C229.594 22.5977 249.468 36.6125 256.363 56.0077C258.6 55.6509 260.9 55.4648 263.248 55.4648C285.284 55.4648 303.149 71.8543 303.149 92.0717C303.149 108.156 291.842 121.817 276.123 126.731C267.145 155.228 239.214 176.008 206.148 176.008C173.056 176.008 145.107 155.195 136.153 126.663Z" fill="black" fill-opacity="0.12"/>
<g filter="url(#filter19_i_242_166422)">
<path fill-rule="evenodd" clip-rule="evenodd" d="M140.51 118.576C121.528 115.077 107.148 98.442 107.148 78.4482C107.148 55.9123 125.417 37.6433 147.953 37.6433C150.29 37.6433 152.581 37.8397 154.81 38.2169C161.871 16.6143 182.187 1.00781 206.148 1.00781C230.121 1.00781 250.446 16.6295 257.497 38.2486C259.785 37.8507 262.137 37.6433 264.539 37.6433C287.075 37.6433 305.344 55.9123 305.344 78.4482C305.344 98.5141 290.86 115.197 271.777 118.613C263.93 147.076 237.52 168.008 206.148 168.008C174.763 168.008 148.344 147.057 140.51 118.576Z" fill="#14B8A6"/>
</g>
<path d="M152.986 98.3486C138.779 91.4404 150.172 81.5865 159.39 75.5939C162.874 73.3287 167.47 75.5483 167.662 79.6983C168.302 93.564 163.874 103.644 152.986 98.3486Z" fill="black" fill-opacity="0.12"/>
<path d="M201 4C178.2 4 157.5 25.6667 150 38.5C168 35 185 52.5 187 72.5C189 92.5 194.5 122 218 115C241.5 108 230 67.5 247.5 61C261.5 55.8 265.667 42.5 266 38.5C250 8.5 229.5 4 201 4Z" fill="black" fill-opacity="0.12"/>
<g filter="url(#filter20_ii_242_166422)">
<path d="M201 0C178.2 0 157.5 25.6667 150 38.5C168 35 185 48.5 187 68.5C189 88.5 194.5 118 218 111C241.5 104 230 63.5 247.5 57C261.5 51.8 265.667 42.5 266 38.5C250 8.5 229.5 0 201 0Z" fill="#E2E8F0"/>
</g>
<defs>
<filter id="filter0_i_242_166422" x="199.291" y="474.451" width="90.7622" height="80.3033" filterUnits="userSpaceOnUse" color-interpolation-filters="sRGB">
<feFlood flood-opacity="0" result="BackgroundImageFix"/>
<feBlend mode="normal" in="SourceGraphic" in2="BackgroundImageFix" result="shape"/>
<feColorMatrix in="SourceAlpha" type="matrix" values="0 0 0 0 0 0 0 0 0 0 0 0 0 0 0 0 0 0 127 0" result="hardAlpha"/>
<feOffset dx="6.73874" dy="-6.73874"/>
<feGaussianBlur stdDeviation="3.36937"/>
<feComposite in2="hardAlpha" operator="arithmetic" k2="-1" k3="1"/>
<feColorMatrix type="matrix" values="0 0 0 0 0 0 0 0 0 0 0 0 0 0 0 0 0 0 0.28 0"/>
<feBlend mode="normal" in2="shape" result="effect1_innerShadow_242_166422"/>
</filter>
<filter id="filter1_i_242_166422" x="107.896" y="492.106" width="53.312" height="60.8523" filterUnits="userSpaceOnUse" color-interpolation-filters="sRGB">
<feFlood flood-opacity="0" result="BackgroundImageFix"/>
<feBlend mode="normal" in="SourceGraphic" in2="BackgroundImageFix" result="shape"/>
<feColorMatrix in="SourceAlpha" type="matrix" values="0 0 0 0 0 0 0 0 0 0 0 0 0 0 0 0 0 0 127 0" result="hardAlpha"/>
<feOffset dx="6.73874" dy="-6.73874"/>
<feGaussianBlur stdDeviation="3.36937"/>
<feComposite in2="hardAlpha" operator="arithmetic" k2="-1" k3="1"/>
<feColorMatrix type="matrix" values="0 0 0 0 0 0 0 0 0 0 0 0 0 0 0 0 0 0 0.28 0"/>
<feBlend mode="normal" in2="shape" result="effect1_innerShadow_242_166422"/>
</filter>
<filter id="filter2_i_242_166422" x="146.645" y="419.996" width="100.239" height="149.878" filterUnits="userSpaceOnUse" color-interpolation-filters="sRGB">
<feFlood flood-opacity="0" result="BackgroundImageFix"/>
<feBlend mode="normal" in="SourceGraphic" in2="BackgroundImageFix" result="shape"/>
<feColorMatrix in="SourceAlpha" type="matrix" values="0 0 0 0 0 0 0 0 0 0 0 0 0 0 0 0 0 0 127 0" result="hardAlpha"/>
<feOffset dx="6.73874"/>
<feGaussianBlur stdDeviation="3.36937"/>
<feComposite in2="hardAlpha" operator="arithmetic" k2="-1" k3="1"/>
<feColorMatrix type="matrix" values="0 0 0 0 0 0 0 0 0 0 0 0 0 0 0 0 0 0 0.28 0"/>
<feBlend mode="normal" in2="shape" result="effect1_innerShadow_242_166422"/>
</filter>
<filter id="filter3_i_242_166422" x="206.478" y="490.429" width="78.5206" height="98.615" filterUnits="userSpaceOnUse" color-interpolation-filters="sRGB">
<feFlood flood-opacity="0" result="BackgroundImageFix"/>
<feBlend mode="normal" in="SourceGraphic" in2="BackgroundImageFix" result="shape"/>
<feColorMatrix in="SourceAlpha" type="matrix" values="0 0 0 0 0 0 0 0 0 0 0 0 0 0 0 0 0 0 127 0" result="hardAlpha"/>
<feOffset dx="1.68468" dy="-6.73874"/>
<feGaussianBlur stdDeviation="3.36937"/>
<feComposite in2="hardAlpha" operator="arithmetic" k2="-1" k3="1"/>
<feColorMatrix type="matrix" values="0 0 0 0 0 0 0 0 0 0 0 0 0 0 0 0 0 0 0.28 0"/>
<feBlend mode="normal" in2="shape" result="effect1_innerShadow_242_166422"/>
</filter>
<filter id="filter4_i_242_166422" x="131.482" y="515.647" width="54.7521" height="68.5329" filterUnits="userSpaceOnUse" color-interpolation-filters="sRGB">
<feFlood flood-opacity="0" result="BackgroundImageFix"/>
<feBlend mode="normal" in="SourceGraphic" in2="BackgroundImageFix" result="shape"/>
<feColorMatrix in="SourceAlpha" type="matrix" values="0 0 0 0 0 0 0 0 0 0 0 0 0 0 0 0 0 0 127 0" result="hardAlpha"/>
<feOffset dx="1.68468" dy="-6.73874"/>
<feGaussianBlur stdDeviation="3.36937"/>
<feComposite in2="hardAlpha" operator="arithmetic" k2="-1" k3="1"/>
<feColorMatrix type="matrix" values="0 0 0 0 0 0 0 0 0 0 0 0 0 0 0 0 0 0 0.28 0"/>
<feBlend mode="normal" in2="shape" result="effect1_innerShadow_242_166422"/>
</filter>
<filter id="filter5_ii_242_166422" x="118.078" y="502.648" width="55.3776" height="52.3435" filterUnits="userSpaceOnUse" color-interpolation-filters="sRGB">
<feFlood flood-opacity="0" result="BackgroundImageFix"/>
<feBlend mode="normal" in="SourceGraphic" in2="BackgroundImageFix" result="shape"/>
<feColorMatrix in="SourceAlpha" type="matrix" values="0 0 0 0 0 0 0 0 0 0 0 0 0 0 0 0 0 0 127 0" result="hardAlpha"/>
<feOffset dy="-5.24142"/>
<feGaussianBlur stdDeviation="4.19314"/>
<feComposite in2="hardAlpha" operator="arithmetic" k2="-1" k3="1"/>
<feColorMatrix type="matrix" values="0 0 0 0 0 0 0 0 0 0 0 0 0 0 0 0 0 0 0.15 0"/>
<feBlend mode="normal" in2="shape" result="effect1_innerShadow_242_166422"/>
<feColorMatrix in="SourceAlpha" type="matrix" values="0 0 0 0 0 0 0 0 0 0 0 0 0 0 0 0 0 0 127 0" result="hardAlpha"/>
<feOffset dx="25.1588" dy="-29.352"/>
<feGaussianBlur stdDeviation="14.676"/>
<feComposite in2="hardAlpha" operator="arithmetic" k2="-1" k3="1"/>
<feColorMatrix type="matrix" values="0 0 0 0 0 0 0 0 0 0 0 0 0 0 0 0 0 0 0.11 0"/>
<feBlend mode="normal" in2="effect1_innerShadow_242_166422" result="effect2_innerShadow_242_166422"/>
</filter>
<filter id="filter6_ii_242_166422" x="165.945" y="516.648" width="78.5827" height="56.4599" filterUnits="userSpaceOnUse" color-interpolation-filters="sRGB">
<feFlood flood-opacity="0" result="BackgroundImageFix"/>
<feBlend mode="normal" in="SourceGraphic" in2="BackgroundImageFix" result="shape"/>
<feColorMatrix in="SourceAlpha" type="matrix" values="0 0 0 0 0 0 0 0 0 0 0 0 0 0 0 0 0 0 127 0" result="hardAlpha"/>
<feOffset dy="-5.24142"/>
<feGaussianBlur stdDeviation="4.19314"/>
<feComposite in2="hardAlpha" operator="arithmetic" k2="-1" k3="1"/>
<feColorMatrix type="matrix" values="0 0 0 0 0 0 0 0 0 0 0 0 0 0 0 0 0 0 0.15 0"/>
<feBlend mode="normal" in2="shape" result="effect1_innerShadow_242_166422"/>
<feColorMatrix in="SourceAlpha" type="matrix" values="0 0 0 0 0 0 0 0 0 0 0 0 0 0 0 0 0 0 127 0" result="hardAlpha"/>
<feOffset dx="25.1588" dy="-29.352"/>
<feGaussianBlur stdDeviation="14.676"/>
<feComposite in2="hardAlpha" operator="arithmetic" k2="-1" k3="1"/>
<feColorMatrix type="matrix" values="0 0 0 0 0 0 0 0 0 0 0 0 0 0 0 0 0 0 0.11 0"/>
<feBlend mode="normal" in2="effect1_innerShadow_242_166422" result="effect2_innerShadow_242_166422"/>
</filter>
<filter id="filter7_ii_242_166422" x="251" y="503.648" width="56.4567" height="60.2286" filterUnits="userSpaceOnUse" color-interpolation-filters="sRGB">
<feFlood flood-opacity="0" result="BackgroundImageFix"/>
<feBlend mode="normal" in="SourceGraphic" in2="BackgroundImageFix" result="shape"/>
<feColorMatrix in="SourceAlpha" type="matrix" values="0 0 0 0 0 0 0 0 0 0 0 0 0 0 0 0 0 0 127 0" result="hardAlpha"/>
<feOffset dy="-5.24142"/>
<feGaussianBlur stdDeviation="4.19314"/>
<feComposite in2="hardAlpha" operator="arithmetic" k2="-1" k3="1"/>
<feColorMatrix type="matrix" values="0 0 0 0 0 0 0 0 0 0 0 0 0 0 0 0 0 0 0.15 0"/>
<feBlend mode="normal" in2="shape" result="effect1_innerShadow_242_166422"/>
<feColorMatrix in="SourceAlpha" type="matrix" values="0 0 0 0 0 0 0 0 0 0 0 0 0 0 0 0 0 0 127 0" result="hardAlpha"/>
<feOffset dx="25.1588" dy="-29.352"/>
<feGaussianBlur stdDeviation="14.676"/>
<feComposite in2="hardAlpha" operator="arithmetic" k2="-1" k3="1"/>
<feColorMatrix type="matrix" values="0 0 0 0 0 0 0 0 0 0 0 0 0 0 0 0 0 0 0.11 0"/>
<feBlend mode="normal" in2="effect1_innerShadow_242_166422" result="effect2_innerShadow_242_166422"/>
</filter>
<filter id="filter8_ii_242_166422" x="27.4883" y="140.714" width="356.879" height="351.294" filterUnits="userSpaceOnUse" color-interpolation-filters="sRGB">
<feFlood flood-opacity="0" result="BackgroundImageFix"/>
<feBlend mode="normal" in="SourceGraphic" in2="BackgroundImageFix" result="shape"/>
<feColorMatrix in="SourceAlpha" type="matrix" values="0 0 0 0 0 0 0 0 0 0 0 0 0 0 0 0 0 0 127 0" result="hardAlpha"/>
<feOffset dy="-69.95"/>
<feGaussianBlur stdDeviation="23.3171"/>
<feComposite in2="hardAlpha" operator="arithmetic" k2="-1" k3="1"/>
<feColorMatrix type="matrix" values="0 0 0 0 0 0 0 0 0 0 0 0 0 0 0 0 0 0 0.25 0"/>
<feBlend mode="normal" in2="shape" result="effect1_innerShadow_242_166422"/>
<feColorMatrix in="SourceAlpha" type="matrix" values="0 0 0 0 0 0 0 0 0 0 0 0 0 0 0 0 0 0 127 0" result="hardAlpha"/>
<feOffset dy="-12"/>
<feGaussianBlur stdDeviation="14"/>
<feComposite in2="hardAlpha" operator="arithmetic" k2="-1" k3="1"/>
<feColorMatrix type="matrix" values="0 0 0 0 0 0 0 0 0 0 0 0 0 0 0 0 0 0 0.12 0"/>
<feBlend mode="normal" in2="effect1_innerShadow_242_166422" result="effect2_innerShadow_242_166422"/>
</filter>
<filter id="filter9_ii_242_166422" x="162.093" y="355.103" width="151.234" height="109.725" filterUnits="userSpaceOnUse" color-interpolation-filters="sRGB">
<feFlood flood-opacity="0" result="BackgroundImageFix"/>
<feBlend mode="normal" in="SourceGraphic" in2="BackgroundImageFix" result="shape"/>
<feColorMatrix in="SourceAlpha" type="matrix" values="0 0 0 0 0 0 0 0 0 0 0 0 0 0 0 0 0 0 127 0" result="hardAlpha"/>
<feOffset dy="-5.24142"/>
<feGaussianBlur stdDeviation="4.19314"/>
<feComposite in2="hardAlpha" operator="arithmetic" k2="-1" k3="1"/>
<feColorMatrix type="matrix" values="0 0 0 0 0 0 0 0 0 0 0 0 0 0 0 0 0 0 0.15 0"/>
<feBlend mode="normal" in2="shape" result="effect1_innerShadow_242_166422"/>
<feColorMatrix in="SourceAlpha" type="matrix" values="0 0 0 0 0 0 0 0 0 0 0 0 0 0 0 0 0 0 127 0" result="hardAlpha"/>
<feOffset dx="25.1588" dy="-29.352"/>
<feGaussianBlur stdDeviation="14.676"/>
<feComposite in2="hardAlpha" operator="arithmetic" k2="-1" k3="1"/>
<feColorMatrix type="matrix" values="0 0 0 0 0 0 0 0 0 0 0 0 0 0 0 0 0 0 0.11 0"/>
<feBlend mode="normal" in2="effect1_innerShadow_242_166422" result="effect2_innerShadow_242_166422"/>
</filter>
<filter id="filter10_ii_242_166422" x="19" y="297.648" width="109.653" height="175.044" filterUnits="userSpaceOnUse" color-interpolation-filters="sRGB">
<feFlood flood-opacity="0" result="BackgroundImageFix"/>
<feBlend mode="normal" in="SourceGraphic" in2="BackgroundImageFix" result="shape"/>
<feColorMatrix in="SourceAlpha" type="matrix" values="0 0 0 0 0 0 0 0 0 0 0 0 0 0 0 0 0 0 127 0" result="hardAlpha"/>
<feOffset dy="-5.24142"/>
<feGaussianBlur stdDeviation="4.19314"/>
<feComposite in2="hardAlpha" operator="arithmetic" k2="-1" k3="1"/>
<feColorMatrix type="matrix" values="0 0 0 0 0 0 0 0 0 0 0 0 0 0 0 0 0 0 0.15 0"/>
<feBlend mode="normal" in2="shape" result="effect1_innerShadow_242_166422"/>
<feColorMatrix in="SourceAlpha" type="matrix" values="0 0 0 0 0 0 0 0 0 0 0 0 0 0 0 0 0 0 127 0" result="hardAlpha"/>
<feOffset dx="25.1588" dy="-29.352"/>
<feGaussianBlur stdDeviation="14.676"/>
<feComposite in2="hardAlpha" operator="arithmetic" k2="-1" k3="1"/>
<feColorMatrix type="matrix" values="0 0 0 0 0 0 0 0 0 0 0 0 0 0 0 0 0 0 0.11 0"/>
<feBlend mode="normal" in2="effect1_innerShadow_242_166422" result="effect2_innerShadow_242_166422"/>
</filter>
<filter id="filter11_ii_242_166422" x="302" y="380.648" width="86.1588" height="84.352" filterUnits="userSpaceOnUse" color-interpolation-filters="sRGB">
<feFlood flood-opacity="0" result="BackgroundImageFix"/>
<feBlend mode="normal" in="SourceGraphic" in2="BackgroundImageFix" result="shape"/>
<feColorMatrix in="SourceAlpha" type="matrix" values="0 0 0 0 0 0 0 0 0 0 0 0 0 0 0 0 0 0 127 0" result="hardAlpha"/>
<feOffset dy="-5.24142"/>
<feGaussianBlur stdDeviation="4.19314"/>
<feComposite in2="hardAlpha" operator="arithmetic" k2="-1" k3="1"/>
<feColorMatrix type="matrix" values="0 0 0 0 0 0 0 0 0 0 0 0 0 0 0 0 0 0 0.15 0"/>
<feBlend mode="normal" in2="shape" result="effect1_innerShadow_242_166422"/>
<feColorMatrix in="SourceAlpha" type="matrix" values="0 0 0 0 0 0 0 0 0 0 0 0 0 0 0 0 0 0 127 0" result="hardAlpha"/>
<feOffset dx="25.1588" dy="-29.352"/>
<feGaussianBlur stdDeviation="14.676"/>
<feComposite in2="hardAlpha" operator="arithmetic" k2="-1" k3="1"/>
<feColorMatrix type="matrix" values="0 0 0 0 0 0 0 0 0 0 0 0 0 0 0 0 0 0 0.11 0"/>
<feBlend mode="normal" in2="effect1_innerShadow_242_166422" result="effect2_innerShadow_242_166422"/>
</filter>
<filter id="filter12_ii_242_166422" x="0.148438" y="20.3737" width="411.562" height="397.97" filterUnits="userSpaceOnUse" color-interpolation-filters="sRGB">
<feFlood flood-opacity="0" result="BackgroundImageFix"/>
<feBlend mode="normal" in="SourceGraphic" in2="BackgroundImageFix" result="shape"/>
<feColorMatrix in="SourceAlpha" type="matrix" values="0 0 0 0 0 0 0 0 0 0 0 0 0 0 0 0 0 0 127 0" result="hardAlpha"/>
<feOffset dy="-69.9512"/>
<feGaussianBlur stdDeviation="23.3171"/>
<feComposite in2="hardAlpha" operator="arithmetic" k2="-1" k3="1"/>
<feColorMatrix type="matrix" values="0 0 0 0 0 0 0 0 0 0 0 0 0 0 0 0 0 0 0.25 0"/>
<feBlend mode="normal" in2="shape" result="effect1_innerShadow_242_166422"/>
<feColorMatrix in="SourceAlpha" type="matrix" values="0 0 0 0 0 0 0 0 0 0 0 0 0 0 0 0 0 0 127 0" result="hardAlpha"/>
<feOffset dy="-12"/>
<feGaussianBlur stdDeviation="14"/>
<feComposite in2="hardAlpha" operator="arithmetic" k2="-1" k3="1"/>
<feColorMatrix type="matrix" values="0 0 0 0 0 0 0 0 0 0 0 0 0 0 0 0 0 0 0.12 0"/>
<feBlend mode="normal" in2="effect1_innerShadow_242_166422" result="effect2_innerShadow_242_166422"/>
</filter>
<filter id="filter13_ii_242_166422" x="31" y="226.648" width="83.1217" height="93.7267" filterUnits="userSpaceOnUse" color-interpolation-filters="sRGB">
<feFlood flood-opacity="0" result="BackgroundImageFix"/>
<feBlend mode="normal" in="SourceGraphic" in2="BackgroundImageFix" result="shape"/>
<feColorMatrix in="SourceAlpha" type="matrix" values="0 0 0 0 0 0 0 0 0 0 0 0 0 0 0 0 0 0 127 0" result="hardAlpha"/>
<feOffset dy="-5.24142"/>
<feGaussianBlur stdDeviation="4.19314"/>
<feComposite in2="hardAlpha" operator="arithmetic" k2="-1" k3="1"/>
<feColorMatrix type="matrix" values="0 0 0 0 0 0 0 0 0 0 0 0 0 0 0 0 0 0 0.15 0"/>
<feBlend mode="normal" in2="shape" result="effect1_innerShadow_242_166422"/>
<feColorMatrix in="SourceAlpha" type="matrix" values="0 0 0 0 0 0 0 0 0 0 0 0 0 0 0 0 0 0 127 0" result="hardAlpha"/>
<feOffset dx="25.1588" dy="-29.352"/>
<feGaussianBlur stdDeviation="14.676"/>
<feComposite in2="hardAlpha" operator="arithmetic" k2="-1" k3="1"/>
<feColorMatrix type="matrix" values="0 0 0 0 0 0 0 0 0 0 0 0 0 0 0 0 0 0 0.11 0"/>
<feBlend mode="normal" in2="effect1_innerShadow_242_166422" result="effect2_innerShadow_242_166422"/>
</filter>
<filter id="filter14_ii_242_166422" x="125.446" y="255.214" width="216.452" height="128.927" filterUnits="userSpaceOnUse" color-interpolation-filters="sRGB">
<feFlood flood-opacity="0" result="BackgroundImageFix"/>
<feBlend mode="normal" in="SourceGraphic" in2="BackgroundImageFix" result="shape"/>
<feColorMatrix in="SourceAlpha" type="matrix" values="0 0 0 0 0 0 0 0 0 0 0 0 0 0 0 0 0 0 127 0" result="hardAlpha"/>
<feOffset dy="-5.24142"/>
<feGaussianBlur stdDeviation="4.19314"/>
<feComposite in2="hardAlpha" operator="arithmetic" k2="-1" k3="1"/>
<feColorMatrix type="matrix" values="0 0 0 0 0 0 0 0 0 0 0 0 0 0 0 0 0 0 0.15 0"/>
<feBlend mode="normal" in2="shape" result="effect1_innerShadow_242_166422"/>
<feColorMatrix in="SourceAlpha" type="matrix" values="0 0 0 0 0 0 0 0 0 0 0 0 0 0 0 0 0 0 127 0" result="hardAlpha"/>
<feOffset dx="25.1588" dy="-29.352"/>
<feGaussianBlur stdDeviation="14.676"/>
<feComposite in2="hardAlpha" operator="arithmetic" k2="-1" k3="1"/>
<feColorMatrix type="matrix" values="0 0 0 0 0 0 0 0 0 0 0 0 0 0 0 0 0 0 0.11 0"/>
<feBlend mode="normal" in2="effect1_innerShadow_242_166422" result="effect2_innerShadow_242_166422"/>
</filter>
<filter id="filter15_ii_242_166422" x="16.8125" y="-32.2123" width="378.336" height="351.134" filterUnits="userSpaceOnUse" color-interpolation-filters="sRGB">
<feFlood flood-opacity="0" result="BackgroundImageFix"/>
<feBlend mode="normal" in="SourceGraphic" in2="BackgroundImageFix" result="shape"/>
<feColorMatrix in="SourceAlpha" type="matrix" values="0 0 0 0 0 0 0 0 0 0 0 0 0 0 0 0 0 0 127 0" result="hardAlpha"/>
<feOffset dy="-69.9512"/>
<feGaussianBlur stdDeviation="23.3171"/>
<feComposite in2="hardAlpha" operator="arithmetic" k2="-1" k3="1"/>
<feColorMatrix type="matrix" values="0 0 0 0 0 0 0 0 0 0 0 0 0 0 0 0 0 0 0.25 0"/>
<feBlend mode="normal" in2="shape" result="effect1_innerShadow_242_166422"/>
<feColorMatrix in="SourceAlpha" type="matrix" values="0 0 0 0 0 0 0 0 0 0 0 0 0 0 0 0 0 0 127 0" result="hardAlpha"/>
<feOffset dy="-12"/>
<feGaussianBlur stdDeviation="14"/>
<feComposite in2="hardAlpha" operator="arithmetic" k2="-1" k3="1"/>
<feColorMatrix type="matrix" values="0 0 0 0 0 0 0 0 0 0 0 0 0 0 0 0 0 0 0.12 0"/>
<feBlend mode="normal" in2="effect1_innerShadow_242_166422" result="effect2_innerShadow_242_166422"/>
</filter>
<filter id="filter16_ii_242_166422" x="41" y="0.648035" width="232.009" height="237.543" filterUnits="userSpaceOnUse" color-interpolation-filters="sRGB">
<feFlood flood-opacity="0" result="BackgroundImageFix"/>
<feBlend mode="normal" in="SourceGraphic" in2="BackgroundImageFix" result="shape"/>
<feColorMatrix in="SourceAlpha" type="matrix" values="0 0 0 0 0 0 0 0 0 0 0 0 0 0 0 0 0 0 127 0" result="hardAlpha"/>
<feOffset dy="-5.24142"/>
<feGaussianBlur stdDeviation="4.19314"/>
<feComposite in2="hardAlpha" operator="arithmetic" k2="-1" k3="1"/>
<feColorMatrix type="matrix" values="0 0 0 0 0 0 0 0 0 0 0 0 0 0 0 0 0 0 0.15 0"/>
<feBlend mode="normal" in2="shape" result="effect1_innerShadow_242_166422"/>
<feColorMatrix in="SourceAlpha" type="matrix" values="0 0 0 0 0 0 0 0 0 0 0 0 0 0 0 0 0 0 127 0" result="hardAlpha"/>
<feOffset dx="25.1588" dy="-29.352"/>
<feGaussianBlur stdDeviation="14.676"/>
<feComposite in2="hardAlpha" operator="arithmetic" k2="-1" k3="1"/>
<feColorMatrix type="matrix" values="0 0 0 0 0 0 0 0 0 0 0 0 0 0 0 0 0 0 0.11 0"/>
<feBlend mode="normal" in2="effect1_innerShadow_242_166422" result="effect2_innerShadow_242_166422"/>
</filter>
<filter id="filter17_ii_242_166422" x="263.201" y="140.645" width="53.8268" height="69.7815" filterUnits="userSpaceOnUse" color-interpolation-filters="sRGB">
<feFlood flood-opacity="0" result="BackgroundImageFix"/>
<feBlend mode="normal" in="SourceGraphic" in2="BackgroundImageFix" result="shape"/>
<feColorMatrix in="SourceAlpha" type="matrix" values="0 0 0 0 0 0 0 0 0 0 0 0 0 0 0 0 0 0 127 0" result="hardAlpha"/>
<feOffset dy="-5.24142"/>
<feGaussianBlur stdDeviation="4.19314"/>
<feComposite in2="hardAlpha" operator="arithmetic" k2="-1" k3="1"/>
<feColorMatrix type="matrix" values="0 0 0 0 0 0 0 0 0 0 0 0 0 0 0 0 0 0 0.15 0"/>
<feBlend mode="normal" in2="shape" result="effect1_innerShadow_242_166422"/>
<feColorMatrix in="SourceAlpha" type="matrix" values="0 0 0 0 0 0 0 0 0 0 0 0 0 0 0 0 0 0 127 0" result="hardAlpha"/>
<feOffset dx="25.1588" dy="-29.352"/>
<feGaussianBlur stdDeviation="14.676"/>
<feComposite in2="hardAlpha" operator="arithmetic" k2="-1" k3="1"/>
<feColorMatrix type="matrix" values="0 0 0 0 0 0 0 0 0 0 0 0 0 0 0 0 0 0 0.11 0"/>
<feBlend mode="normal" in2="effect1_innerShadow_242_166422" result="effect2_innerShadow_242_166422"/>
</filter>
<filter id="filter18_ii_242_166422" x="339" y="69.648" width="85.2662" height="179.463" filterUnits="userSpaceOnUse" color-interpolation-filters="sRGB">
<feFlood flood-opacity="0" result="BackgroundImageFix"/>
<feBlend mode="normal" in="SourceGraphic" in2="BackgroundImageFix" result="shape"/>
<feColorMatrix in="SourceAlpha" type="matrix" values="0 0 0 0 0 0 0 0 0 0 0 0 0 0 0 0 0 0 127 0" result="hardAlpha"/>
<feOffset dy="-5.24142"/>
<feGaussianBlur stdDeviation="4.19314"/>
<feComposite in2="hardAlpha" operator="arithmetic" k2="-1" k3="1"/>
<feColorMatrix type="matrix" values="0 0 0 0 0 0 0 0 0 0 0 0 0 0 0 0 0 0 0.15 0"/>
<feBlend mode="normal" in2="shape" result="effect1_innerShadow_242_166422"/>
<feColorMatrix in="SourceAlpha" type="matrix" values="0 0 0 0 0 0 0 0 0 0 0 0 0 0 0 0 0 0 127 0" result="hardAlpha"/>
<feOffset dx="25.1588" dy="-29.352"/>
<feGaussianBlur stdDeviation="14.676"/>
<feComposite in2="hardAlpha" operator="arithmetic" k2="-1" k3="1"/>
<feColorMatrix type="matrix" values="0 0 0 0 0 0 0 0 0 0 0 0 0 0 0 0 0 0 0.11 0"/>
<feBlend mode="normal" in2="effect1_innerShadow_242_166422" result="effect2_innerShadow_242_166422"/>
</filter>
<filter id="filter19_i_242_166422" x="107.148" y="-45.6263" width="198.195" height="213.634" filterUnits="userSpaceOnUse" color-interpolation-filters="sRGB">
<feFlood flood-opacity="0" result="BackgroundImageFix"/>
<feBlend mode="normal" in="SourceGraphic" in2="BackgroundImageFix" result="shape"/>
<feColorMatrix in="SourceAlpha" type="matrix" values="0 0 0 0 0 0 0 0 0 0 0 0 0 0 0 0 0 0 127 0" result="hardAlpha"/>
<feOffset dy="-46.6341"/>
<feGaussianBlur stdDeviation="23.3171"/>
<feComposite in2="hardAlpha" operator="arithmetic" k2="-1" k3="1"/>
<feColorMatrix type="matrix" values="0 0 0 0 0 0 0 0 0 0 0 0 0 0 0 0 0 0 0.25 0"/>
<feBlend mode="normal" in2="shape" result="effect1_innerShadow_242_166422"/>
</filter>
<filter id="filter20_ii_242_166422" x="150" y="-29.352" width="141.159" height="141.404" filterUnits="userSpaceOnUse" color-interpolation-filters="sRGB">
<feFlood flood-opacity="0" result="BackgroundImageFix"/>
<feBlend mode="normal" in="SourceGraphic" in2="BackgroundImageFix" result="shape"/>
<feColorMatrix in="SourceAlpha" type="matrix" values="0 0 0 0 0 0 0 0 0 0 0 0 0 0 0 0 0 0 127 0" result="hardAlpha"/>
<feOffset dy="-5.24142"/>
<feGaussianBlur stdDeviation="4.19314"/>
<feComposite in2="hardAlpha" operator="arithmetic" k2="-1" k3="1"/>
<feColorMatrix type="matrix" values="0 0 0 0 0 0 0 0 0 0 0 0 0 0 0 0 0 0 0.15 0"/>
<feBlend mode="normal" in2="shape" result="effect1_innerShadow_242_166422"/>
<feColorMatrix in="SourceAlpha" type="matrix" values="0 0 0 0 0 0 0 0 0 0 0 0 0 0 0 0 0 0 127 0" result="hardAlpha"/>
<feOffset dx="25.1588" dy="-29.352"/>
<feGaussianBlur stdDeviation="14.676"/>
<feComposite in2="hardAlpha" operator="arithmetic" k2="-1" k3="1"/>
<feColorMatrix type="matrix" values="0 0 0 0 0 0 0 0 0 0 0 0 0 0 0 0 0 0 0.11 0"/>
<feBlend mode="normal" in2="effect1_innerShadow_242_166422" result="effect2_innerShadow_242_166422"/>
</filter>
</defs>
</svg>
