<svg width="525" height="714" viewBox="0 0 525 714" fill="none" xmlns="http://www.w3.org/2000/svg">
<path d="M344.636 608.953C301.483 650.349 231.519 650.349 188.366 608.953C145.213 567.558 145.213 500.442 188.366 459.047C231.519 417.651 301.483 417.651 344.636 459.047C387.789 500.442 387.789 567.558 344.636 608.953Z" fill="black" fill-opacity="0.12"/>
<path opacity="0.3" d="M399.083 661.279C325.86 731.574 207.142 731.574 133.918 661.279C60.6951 590.985 60.6952 477.015 133.918 406.721C207.142 336.426 325.86 336.426 399.083 406.721C472.307 477.015 472.307 590.985 399.083 661.279Z" fill="black" fill-opacity="0.12"/>
<path fill-rule="evenodd" clip-rule="evenodd" d="M347.944 534.983C347.944 542.659 344.038 549.844 337.237 555.996C350.149 557.561 359.737 563.369 359.737 570.294C359.737 578.42 346.537 585.007 330.255 585.007C315.766 585.007 303.718 579.791 301.24 572.917C292.039 575.017 281.918 576.18 271.291 576.18C265.669 576.18 260.189 575.854 254.911 575.237C249.68 579.341 240.486 582.065 230.016 582.065C213.734 582.065 200.534 575.478 200.534 567.352C200.534 563.727 203.16 560.409 207.515 557.845C205.204 555.987 203.167 554.023 201.435 551.968C186.791 552.55 174.887 547.488 174.144 539.991C173.412 532.601 183.777 525.403 197.936 522.992C207.49 506.089 236.717 493.787 271.291 493.787C286.838 493.787 301.304 496.275 313.386 500.549C318.621 498.176 325.573 496.73 333.203 496.73C349.486 496.73 362.685 503.317 362.685 511.443C362.685 517.362 355.681 522.464 345.584 524.799C347.125 528.056 347.944 531.469 347.944 534.983Z" fill="black" fill-opacity="0.2"/>
<ellipse cx="267.922" cy="524.875" rx="58.5428" ry="42.4765" fill="black" fill-opacity="0.2"/>
<g filter="url(#filter0_i_242_166205)">
<path d="M289.576 490.987C280.143 490.987 277.785 479.122 277.785 473.189C273.461 497.711 266.936 546.754 275.426 546.754C286.039 546.754 319.055 519.464 322.593 515.904C327.152 511.317 331.729 516.521 340.574 515.904C349.418 515.287 355.315 509.971 355.315 504.086C355.315 498.201 350.892 477.603 333.203 477.603C308.143 477.603 301.368 490.987 289.576 490.987Z" fill="#82644D"/>
</g>
<g filter="url(#filter1_i_242_166205)">
<path d="M226.47 491.827L224.119 540.869C205.724 535.219 214.496 548.551 186.011 543.988C183.683 543.616 181.701 541.976 181.107 539.694C174.113 512.814 198.501 485.258 226.47 491.827Z" fill="#82644D"/>
</g>
<path opacity="0.1" d="M327.701 490.045C323.206 491.953 319.592 495.557 317.865 491.504C316.139 487.452 318.78 484.596 323.276 482.689C327.771 480.781 332.418 480.543 334.144 484.596C335.87 488.648 332.196 488.138 327.701 490.045Z" fill="#E2E8F0"/>
<path opacity="0.1" d="M206.825 507.701C202.33 509.608 198.716 513.212 196.989 509.159C195.263 505.107 197.904 502.252 202.4 500.344C206.895 498.436 211.542 498.199 213.268 502.251C214.994 506.304 211.321 505.793 206.825 507.701Z" fill="#E2E8F0"/>
<g filter="url(#filter2_i_242_166205)">
<path d="M218.645 421.996H312.145V515.124C312.145 540.944 291.214 561.874 265.395 561.874C239.575 561.874 218.645 540.944 218.645 515.124V421.996Z" fill="#82644D"/>
</g>
<path d="M312.565 425.261C312.565 449.406 291.446 463.514 265.394 463.514C239.342 463.514 218.223 449.406 218.223 425.261C218.223 401.116 239.342 387.007 265.394 387.007C291.446 387.007 312.565 401.116 312.565 425.261Z" fill="#C8A078"/>
<path fill-rule="evenodd" clip-rule="evenodd" d="M239.035 404.606C232.397 409.425 228.331 416.415 228.331 425.261C228.331 434.107 232.397 441.097 239.035 445.916C245.706 450.759 255.009 453.423 265.394 453.423C275.778 453.423 285.081 450.759 291.753 445.916C298.391 441.097 302.457 434.107 302.457 425.261C302.457 416.415 298.391 409.425 291.753 404.606C285.081 399.763 275.778 397.099 265.394 397.099C255.009 397.099 245.706 399.763 239.035 404.606ZM237.551 402.561C244.751 397.334 254.611 394.572 265.394 394.572C276.176 394.572 286.037 397.334 293.237 402.561C300.47 407.811 304.984 415.534 304.984 425.261C304.984 434.988 300.47 442.711 293.237 447.961C286.037 453.188 276.176 455.95 265.394 455.95C254.611 455.95 244.751 453.188 237.551 447.961C230.318 442.711 225.804 434.988 225.804 425.261C225.804 415.534 230.318 407.811 237.551 402.561Z" fill="#9A7858"/>
<path fill-rule="evenodd" clip-rule="evenodd" d="M249.446 413.286C245.475 416.096 243.072 420.143 243.072 425.261C243.072 430.379 245.475 434.425 249.446 437.236C253.451 440.071 259.074 441.653 265.394 441.653C271.714 441.653 277.337 440.071 281.342 437.236C285.313 434.425 287.716 430.379 287.716 425.261C287.716 420.143 285.313 416.096 281.342 413.286C277.337 410.451 271.714 408.869 265.394 408.869C259.074 408.869 253.451 410.451 249.446 413.286ZM247.987 411.223C252.518 408.016 258.688 406.342 265.394 406.342C272.1 406.342 278.27 408.016 282.801 411.223C287.366 414.454 290.243 419.235 290.243 425.261C290.243 431.287 287.366 436.068 282.801 439.299C278.27 442.506 272.1 444.18 265.394 444.18C258.688 444.18 252.518 442.506 247.987 439.299C243.422 436.068 240.545 431.287 240.545 425.261C240.545 419.235 243.422 414.454 247.987 411.223Z" fill="#9A7858"/>
<path fill-rule="evenodd" clip-rule="evenodd" d="M259.921 419.363C258.616 420.39 257.813 421.867 257.813 423.79C257.813 425.712 258.616 427.19 259.921 428.216C261.254 429.264 263.172 429.883 265.394 429.883C267.616 429.883 269.534 429.264 270.867 428.216C272.172 427.19 272.975 425.712 272.975 423.79C272.975 421.867 272.172 420.39 270.867 419.363C269.534 418.315 267.616 417.697 265.394 417.697C263.172 417.697 261.254 418.315 259.921 419.363ZM258.359 417.377C260.227 415.908 262.731 415.17 265.394 415.17C268.057 415.17 270.561 415.908 272.429 417.377C274.326 418.868 275.502 421.069 275.502 423.79C275.502 426.51 274.326 428.711 272.429 430.202C270.561 431.671 268.057 432.41 265.394 432.41C262.731 432.41 260.227 431.671 258.359 430.202C256.463 428.711 255.286 426.51 255.286 423.79C255.286 421.069 256.463 418.868 258.359 417.377Z" fill="#9A7858"/>
<path fill-rule="evenodd" clip-rule="evenodd" d="M263.652 423.971C263.651 423.97 263.655 423.965 263.667 423.955C263.659 423.966 263.653 423.971 263.652 423.971ZM263.989 423.79C264.31 423.671 264.792 423.582 265.393 423.582C265.995 423.582 266.477 423.671 266.798 423.79C266.477 423.908 265.995 423.997 265.393 423.997C264.792 423.997 264.31 423.908 263.989 423.79ZM267.135 423.971C267.133 423.971 267.128 423.966 267.12 423.955C267.132 423.965 267.136 423.97 267.135 423.971ZM267.12 423.624C267.128 423.614 267.133 423.608 267.135 423.609C267.136 423.609 267.132 423.614 267.12 423.624ZM263.667 423.624C263.655 423.614 263.651 423.609 263.652 423.609C263.653 423.608 263.659 423.614 263.667 423.624ZM262.769 421.563C263.525 421.207 264.462 421.055 265.393 421.055C266.324 421.055 267.262 421.207 268.017 421.563C268.75 421.909 269.605 422.615 269.605 423.79C269.605 424.964 268.75 425.671 268.017 426.016C267.262 426.373 266.324 426.524 265.393 426.524C264.462 426.524 263.525 426.373 262.769 426.016C262.037 425.671 261.182 424.964 261.182 423.79C261.182 422.615 262.037 421.909 262.769 421.563Z" fill="#9A7858"/>
<path opacity="0.1" d="M241.809 454.273C241.809 459.148 239.754 464.361 235.342 464.361C230.93 464.361 230.017 460.409 230.017 455.534C230.017 450.658 230.93 446.706 235.342 446.706C239.754 446.706 241.809 449.397 241.809 454.273Z" fill="#E2E8F0"/>
<path opacity="0.1" d="M294.876 476.132C294.876 487.508 288.711 499.672 275.475 499.672C262.239 499.672 259.498 490.45 259.498 479.074C259.498 467.698 262.239 458.476 275.475 458.476C288.711 458.476 294.876 464.756 294.876 476.132Z" fill="black"/>
<path opacity="0.1" d="M300.771 534.983C300.771 546.359 294.606 558.524 281.37 558.524C256.252 558.524 261.801 508.5 283.081 508.5C296.317 508.5 300.771 523.607 300.771 534.983Z" fill="black"/>
<path opacity="0.1" d="M253.602 499.672C253.602 505.36 250.006 511.443 242.285 511.443C234.564 511.443 232.965 506.832 232.965 501.144C232.965 495.456 234.564 490.845 242.285 490.845C250.006 490.845 253.602 493.984 253.602 499.672Z" fill="black"/>
<g filter="url(#filter3_i_242_166205)">
<path d="M330.255 524.684C321.409 521.742 312.566 502.615 312.565 489.374C268.343 484.96 275.708 552.64 287.502 557.053C299.295 561.467 311.093 562.939 318.462 565.881C325.832 568.824 325.832 579.123 333.203 580.594C340.575 582.065 355.314 580.594 355.314 565.881C355.314 551.168 339.101 527.626 330.255 524.684Z" fill="#82644D"/>
</g>
<path opacity="0.1" d="M315.037 516.948C319.093 522.391 321.014 530.005 315.826 533.856C310.638 537.706 306.276 534.091 302.22 528.648C298.165 523.205 295.951 517.995 301.139 514.145C306.327 510.294 310.982 511.505 315.037 516.948Z" fill="black"/>
<g filter="url(#filter4_i_242_166205)">
<path d="M220.789 538.274C226.899 536.295 233.006 523.43 233.007 514.524C263.549 511.555 258.462 557.076 250.317 560.044C242.172 563.013 234.024 564.003 228.934 565.982C223.844 567.961 223.844 574.888 218.753 575.877C213.662 576.867 203.482 575.877 203.482 565.982C203.482 556.086 214.68 540.252 220.789 538.274Z" fill="#82644D"/>
</g>
<path opacity="0.1" d="M231.371 533.268C228.614 536.968 227.309 542.143 230.835 544.761C234.361 547.378 237.326 544.921 240.083 541.221C242.839 537.521 244.344 533.98 240.818 531.363C237.292 528.745 234.128 529.569 231.371 533.268Z" fill="black"/>
<path d="M227.19 522.659C231.383 527.376 218.279 538.383 213.562 533.141C207.313 526.198 221.451 516.203 227.19 522.659Z" fill="black" fill-opacity="0.12"/>
<g filter="url(#filter5_ii_242_166205)">
<path d="M227.19 538.659C231.383 543.376 218.279 554.383 213.562 549.141C207.313 542.198 221.451 532.203 227.19 538.659Z" fill="#E2E8F0"/>
</g>
<path d="M344.458 538.245C348.127 535.625 353.368 530.383 340.789 515.183C324.54 495.549 302.22 503.369 314.582 526.19C321.395 538.769 340.789 540.866 344.458 538.245Z" fill="black" fill-opacity="0.12"/>
<g filter="url(#filter6_ii_242_166205)">
<path d="M344.458 553.245C348.127 550.625 353.368 545.383 340.789 530.183C324.54 510.549 302.22 518.369 314.582 541.19C321.395 553.769 340.789 555.866 344.458 553.245Z" fill="#E2E8F0"/>
</g>
<g filter="url(#filter7_ii_242_166205)">
<path fill-rule="evenodd" clip-rule="evenodd" d="M273.317 13.9995C294.848 13.9995 314.282 22.979 328.078 37.3974C329.249 37.3437 330.426 37.3166 331.61 37.3166C363.134 37.3166 390.162 56.5654 401.582 83.9507C443.425 83.9623 477.341 117.886 477.341 159.731C477.341 165.649 476.663 171.408 475.38 176.935C504.336 192.764 523.976 223.503 523.976 258.829C523.976 286.051 512.314 310.548 493.713 327.599C498.117 334.718 500.659 343.111 500.659 352.097C500.659 376.168 482.421 395.98 459.009 398.468C445.239 432.788 411.657 457.024 372.415 457.024C359.675 457.024 347.533 454.47 336.471 449.846C319.411 468.582 294.823 480.341 267.488 480.341C240.153 480.341 215.564 468.582 198.505 449.846C187.443 454.47 175.3 457.024 162.561 457.024C123.318 457.024 89.7365 432.788 75.9662 398.468C52.5548 395.98 34.3171 376.168 34.3171 352.097C34.3171 343.111 36.8588 334.718 41.2625 327.599C22.662 310.548 11 286.051 11 258.829C11 223.503 30.6394 192.764 59.5954 176.935C58.3124 171.408 57.6341 165.649 57.6341 159.731C57.6341 117.886 91.5507 83.9623 133.393 83.9507C144.813 56.5654 171.842 37.3166 203.366 37.3166C208.166 37.3166 212.862 37.7629 217.415 38.6164C231.27 23.4869 251.185 13.9995 273.317 13.9995Z" fill="#14B8A6"/>
</g>
<path d="M366.502 372.494C368.164 380.552 383.914 419.452 398.916 404.821C409.301 394.693 385.281 377.3 366.502 372.494Z" fill="black" fill-opacity="0.12"/>
<g filter="url(#filter8_ii_242_166205)">
<path d="M519.522 224.5C510.772 194.421 485.355 174.469 475.522 176.969C471.355 185.302 465.522 204.869 475.522 216.469C488.022 230.969 501.522 259.969 490.022 288.969C474.742 327.5 519.522 362.277 519.522 313.468C519.522 279.499 531.449 265.5 519.522 224.5Z" fill="#E2E8F0"/>
</g>
<g filter="url(#filter9_ii_242_166205)">
<path d="M290.5 438.983C267.7 474.983 248 478.983 241 476.483C277.8 495.283 320.5 478.649 335 465.983C337.167 469.316 350.5 474.483 369.5 469.483C401.023 461.187 389.89 516.62 426.5 497.483C448.5 485.983 447.5 431.983 458 423.983C475.407 410.72 477 400.983 475 393.983C460.206 342.203 416.5 396.483 386 408.983C355.5 421.483 319 393.983 290.5 438.983Z" fill="#E2E8F0"/>
</g>
<path d="M217.099 427.085C189.452 419.37 219.436 365.567 242.099 368.085C274.435 371.678 250.229 436.331 217.099 427.085Z" fill="black" fill-opacity="0.12"/>
<g filter="url(#filter10_ii_242_166205)">
<path d="M217.448 421.5C189.801 413.784 219.785 359.981 242.448 362.5C274.785 366.093 250.578 430.745 217.448 421.5Z" fill="#E2E8F0"/>
</g>
<path d="M9.94753 242.5C31.5475 191.7 78.3331 172.833 99.4998 169C99.4998 211 159.448 293 164.948 314.5C170.448 336 165.948 362 144.948 373.5C123.948 385 122.948 389 114.448 431C109.5 455.447 105 430 101 412.5C96.9998 395 90.9998 410 64.9998 387.5C44.1998 369.5 52.3331 337.833 56.9998 326C42.9998 321 -17.0525 306 9.94753 242.5Z" fill="black" fill-opacity="0.12"/>
<g filter="url(#filter11_ii_242_166205)">
<path d="M9.94777 232C31.5478 181.2 78.3333 162.333 99.5 158.5C99.5 200.5 159.448 282.5 164.948 304C170.448 325.5 165.948 351.5 144.948 363C123.948 374.5 122.948 378.5 114.448 420.5C105.948 462.5 80.4478 451.5 76.4478 434C72.4478 416.5 69.9478 412.5 43.9478 390C23.1478 372 27.2811 343.833 31.9478 332C17.9478 327 -17.0522 295.5 9.94777 232Z" fill="#E2E8F0"/>
</g>
<path fill-rule="evenodd" clip-rule="evenodd" d="M426.044 126.004C422.096 99.9435 399.131 79.7917 371.082 78.9086C363.88 56.352 341.993 39.9487 316.11 39.9487C315.201 39.9487 314.296 39.969 313.397 40.009C302.933 29.5316 288.199 23.0073 271.875 23.0073C255.096 23.0073 239.996 29.9011 229.487 40.8961C226.031 40.2741 222.465 39.9487 218.82 39.9487C192.937 39.9487 171.049 56.3521 163.847 78.9087C135.801 79.7936 112.839 99.9435 108.89 126.002C87.4077 137.646 72.9062 159.749 72.9062 185.099C72.9062 204.904 81.7568 222.726 95.8721 235.128C92.543 240.3 90.622 246.394 90.622 252.919C90.622 270.612 104.75 285.141 122.779 286.699C128.365 313.364 152.926 333.448 182.379 333.448C194.506 333.448 205.804 330.043 215.289 324.176C228.223 337.717 246.814 346.207 267.472 346.207C285.955 346.207 302.782 339.411 315.384 328.283C323.024 331.601 331.506 333.448 340.438 333.448C370.225 333.448 395.009 312.906 400.221 285.789C403.023 286.474 405.958 286.838 408.982 286.838C428.518 286.838 444.355 271.652 444.355 252.919C444.355 246.383 442.428 240.279 439.088 235.102C453.186 222.701 462.023 204.89 462.023 185.099C462.023 159.751 447.524 137.649 426.044 126.004Z" fill="black" fill-opacity="0.12"/>
<g filter="url(#filter12_ii_242_166205)">
<path fill-rule="evenodd" clip-rule="evenodd" d="M419.522 116.996C415.737 90.9354 393.716 70.7834 366.82 69.9008C359.914 47.3442 338.927 30.9409 314.108 30.9409C313.236 30.9409 312.369 30.9612 311.507 31.0012C301.473 20.5238 287.345 13.9995 271.693 13.9995C255.604 13.9995 241.124 20.8931 231.048 31.8878C227.734 31.2661 224.316 30.9409 220.822 30.9409C196.003 30.9409 175.016 47.3443 168.11 69.9009C141.216 70.7854 119.197 90.9359 115.411 116.995C94.8118 128.639 80.9062 150.742 80.9062 176.093C80.9062 195.897 89.3928 213.72 102.928 226.122C99.7352 231.294 97.8931 237.388 97.8931 243.913C97.8931 261.607 111.441 276.136 128.73 277.694C134.088 304.356 157.638 324.439 185.879 324.439C197.506 324.439 208.338 321.034 217.433 315.168C229.835 328.709 247.661 337.199 267.47 337.199C285.194 337.199 301.33 330.402 313.414 319.273C320.74 322.591 328.874 324.439 337.44 324.439C366.001 324.439 389.764 303.898 394.764 276.783C397.45 277.468 400.265 277.832 403.165 277.832C421.898 277.832 437.084 262.646 437.084 243.913C437.084 237.377 435.235 231.273 432.033 226.095C445.551 213.694 454.025 195.883 454.025 176.093C454.025 150.743 440.121 128.641 419.522 116.996Z" fill="#14B8A6"/>
</g>
<path d="M330.502 267.492C332.164 275.55 347.914 314.451 362.916 299.82C373.301 289.692 349.281 272.299 330.502 267.492Z" fill="black" fill-opacity="0.12"/>
<path d="M108.832 180.143C102.424 162.523 134.665 142.476 149.832 135.143C166.332 126.643 186.332 167.643 188.332 188.643C190.332 209.643 161.832 261.643 138.832 243.143C119.832 227.86 130.832 210.643 125.832 197.643C120.832 184.643 112.832 191.143 108.832 180.143Z" fill="black" fill-opacity="0.12"/>
<g filter="url(#filter13_ii_242_166205)">
<path d="M108.832 174.143C102.424 156.523 134.665 136.476 149.832 129.143C166.332 120.643 186.332 161.643 188.332 182.643C190.332 203.643 161.832 255.643 138.832 237.143C119.832 221.86 130.832 204.643 125.832 191.643C120.832 178.643 112.832 185.143 108.832 174.143Z" fill="#E2E8F0"/>
</g>
<path d="M301.832 246.5C297.832 221.3 279.165 212.666 270.332 211.5C276.332 179.5 339.332 186 350.332 143.5C359.132 109.5 318.343 41.9995 339.332 41.9995C382.5 41.9995 401.999 83.9995 404.332 102C459.332 123 455.832 202 419.332 223.5C401.663 233.907 419.504 268.914 402 280C387 289.5 378.832 278 368.332 278C357.832 278 358.332 297 335.332 297C312.332 297 306.832 278 301.832 246.5Z" fill="black" fill-opacity="0.12"/>
<g filter="url(#filter14_ii_242_166205)">
<path d="M303.832 241.5C299.832 216.3 281.165 207.666 272.332 206.5C278.332 174.5 341.332 181 352.332 138.5C361.132 104.5 320.343 36.9995 341.332 36.9995C384.5 36.9995 403.999 78.9995 406.332 96.9995C461.332 118 457.832 197 421.332 218.5C403.663 228.907 423.504 271.414 406 282.5C391 292 380.832 273 370.332 273C359.832 273 360.332 292 337.332 292C314.332 292 308.832 273 303.832 241.5Z" fill="#E2E8F0"/>
</g>
<path fill-rule="evenodd" clip-rule="evenodd" d="M375.91 82.4744C375.91 85.1337 375.573 87.722 374.936 90.2065C389.407 97.3391 399.223 111.194 399.223 127.117C399.223 143.627 388.67 157.914 373.318 164.789C374.527 168.233 375.18 171.901 375.18 175.707C375.18 195.655 357.252 211.826 335.137 211.826C326.482 211.826 318.468 209.348 311.919 205.137C303.993 218.135 288.667 226.943 271.06 226.943C253.454 226.943 238.129 218.136 230.203 205.139C223.655 209.349 215.642 211.826 206.988 211.826C184.873 211.826 166.945 195.655 166.945 175.707C166.945 171.901 167.598 168.233 168.807 164.789C153.455 157.914 142.902 143.627 142.902 127.117C142.902 111.194 152.718 97.3391 167.189 90.2065C166.552 87.722 166.215 85.1337 166.215 82.4744C166.215 63.6127 183.166 48.3222 204.077 48.3222C205.544 48.3222 206.991 48.3975 208.414 48.5439C215.301 40.044 226.437 34.5225 239.003 34.5225C241.407 34.5225 243.759 34.7247 246.039 35.1112C252.962 28.2871 262.916 24.0073 273.979 24.0073C284.74 24.0073 294.452 28.0563 301.345 34.5574C301.917 34.5342 302.493 34.5225 303.072 34.5225C315.64 34.5225 326.777 40.0461 333.664 48.5487C335.102 48.3991 336.565 48.3222 338.048 48.3222C358.959 48.3222 375.91 63.6127 375.91 82.4744Z" fill="black" fill-opacity="0.12"/>
<g filter="url(#filter15_i_242_166205)">
<path fill-rule="evenodd" clip-rule="evenodd" d="M369.363 70.7734C369.363 73.5365 369.048 76.2258 368.45 78.8074C382.019 86.2208 391.223 100.623 391.223 117.174C391.223 134.335 381.329 149.185 366.934 156.331C368.068 159.912 368.68 163.724 368.68 167.68C368.68 188.414 351.872 205.223 331.137 205.223C323.021 205.223 315.505 202.647 309.365 198.268C301.934 211.778 287.564 220.934 271.056 220.934C254.551 220.934 240.183 211.781 232.752 198.274C226.613 202.649 219.101 205.223 210.988 205.223C190.254 205.223 173.445 188.414 173.445 167.68C173.445 163.724 174.057 159.912 175.191 156.331C160.796 149.185 150.902 134.335 150.902 117.174C150.902 100.623 160.106 86.2208 173.675 78.8074C173.078 76.2258 172.762 73.5365 172.762 70.7734C172.762 51.1681 188.655 35.2749 208.261 35.2749C209.635 35.2749 210.991 35.353 212.325 35.505C218.782 26.6691 229.223 20.9294 241.005 20.9294C243.258 20.9294 245.462 21.1393 247.599 21.5407C254.089 14.4478 263.422 9.99951 273.794 9.99951C283.883 9.99951 292.989 14.2083 299.452 20.9658C299.99 20.9416 300.531 20.9294 301.075 20.9294C312.859 20.9294 323.302 26.6712 329.759 35.5098C331.106 35.3546 332.476 35.2749 333.865 35.2749C353.47 35.2749 369.363 51.1681 369.363 70.7734Z" fill="#14B8A6"/>
</g>
<path d="M341.664 169.408C349.664 165.408 358.164 154.408 348.164 135.908C331.56 105.191 312.006 123.408 314.164 152.908C315.664 173.408 333.664 173.408 341.664 169.408Z" fill="black" fill-opacity="0.12"/>
<g filter="url(#filter16_ii_242_166205)">
<path d="M341.664 164.408C349.664 160.408 358.164 149.408 348.164 130.908C331.56 100.191 312.006 118.408 314.164 147.908C315.664 168.408 333.664 168.408 341.664 164.408Z" fill="#E2E8F0"/>
</g>
<path d="M174 70.9995C176 53.9995 188.255 39.3994 202.755 39.3994C222.755 -5.10055 304.151 3.45181 319.755 22.3994C333.755 39.3994 322.755 54.9994 305.755 58.3994C293.255 60.8994 240.755 64.3994 233.755 102.899C226.755 141.399 197.255 135.899 196.255 110.399C195.255 84.8995 170.844 97.833 174 70.9995Z" fill="black" fill-opacity="0.12"/>
<g filter="url(#filter17_i_242_166205)">
<path d="M171.5 64.4995C173.5 47.4995 188.5 32.4995 203 32.4995C223 -12.0005 304.396 -3.44809 320 15.4995C334 32.4995 323 48.0995 306 51.4995C293.5 53.9995 241 57.4995 234 95.9995C227 134.5 197.5 129 196.5 103.5C195.5 77.9995 168.344 91.333 171.5 64.4995Z" fill="#E2E8F0"/>
</g>
<path d="M239.691 138.777C233.49 142.918 208.549 159.08 227.97 166.833C241.413 172.2 244.048 156.323 239.691 138.777Z" fill="black" fill-opacity="0.12"/>
<defs>
<filter id="filter0_i_242_166205" x="271.291" y="466.45" width="90.7622" height="80.3033" filterUnits="userSpaceOnUse" color-interpolation-filters="sRGB">
<feFlood flood-opacity="0" result="BackgroundImageFix"/>
<feBlend mode="normal" in="SourceGraphic" in2="BackgroundImageFix" result="shape"/>
<feColorMatrix in="SourceAlpha" type="matrix" values="0 0 0 0 0 0 0 0 0 0 0 0 0 0 0 0 0 0 127 0" result="hardAlpha"/>
<feOffset dx="6.73874" dy="-6.73874"/>
<feGaussianBlur stdDeviation="3.36937"/>
<feComposite in2="hardAlpha" operator="arithmetic" k2="-1" k3="1"/>
<feColorMatrix type="matrix" values="0 0 0 0 0 0 0 0 0 0 0 0 0 0 0 0 0 0 0.28 0"/>
<feBlend mode="normal" in2="shape" result="effect1_innerShadow_242_166205"/>
</filter>
<filter id="filter1_i_242_166205" x="179.896" y="484.106" width="53.312" height="60.8523" filterUnits="userSpaceOnUse" color-interpolation-filters="sRGB">
<feFlood flood-opacity="0" result="BackgroundImageFix"/>
<feBlend mode="normal" in="SourceGraphic" in2="BackgroundImageFix" result="shape"/>
<feColorMatrix in="SourceAlpha" type="matrix" values="0 0 0 0 0 0 0 0 0 0 0 0 0 0 0 0 0 0 127 0" result="hardAlpha"/>
<feOffset dx="6.73874" dy="-6.73874"/>
<feGaussianBlur stdDeviation="3.36937"/>
<feComposite in2="hardAlpha" operator="arithmetic" k2="-1" k3="1"/>
<feColorMatrix type="matrix" values="0 0 0 0 0 0 0 0 0 0 0 0 0 0 0 0 0 0 0.28 0"/>
<feBlend mode="normal" in2="shape" result="effect1_innerShadow_242_166205"/>
</filter>
<filter id="filter2_i_242_166205" x="218.645" y="421.996" width="100.239" height="139.878" filterUnits="userSpaceOnUse" color-interpolation-filters="sRGB">
<feFlood flood-opacity="0" result="BackgroundImageFix"/>
<feBlend mode="normal" in="SourceGraphic" in2="BackgroundImageFix" result="shape"/>
<feColorMatrix in="SourceAlpha" type="matrix" values="0 0 0 0 0 0 0 0 0 0 0 0 0 0 0 0 0 0 127 0" result="hardAlpha"/>
<feOffset dx="6.73874"/>
<feGaussianBlur stdDeviation="3.36937"/>
<feComposite in2="hardAlpha" operator="arithmetic" k2="-1" k3="1"/>
<feColorMatrix type="matrix" values="0 0 0 0 0 0 0 0 0 0 0 0 0 0 0 0 0 0 0.28 0"/>
<feBlend mode="normal" in2="shape" result="effect1_innerShadow_242_166205"/>
</filter>
<filter id="filter3_i_242_166205" x="278.478" y="482.428" width="78.5206" height="98.615" filterUnits="userSpaceOnUse" color-interpolation-filters="sRGB">
<feFlood flood-opacity="0" result="BackgroundImageFix"/>
<feBlend mode="normal" in="SourceGraphic" in2="BackgroundImageFix" result="shape"/>
<feColorMatrix in="SourceAlpha" type="matrix" values="0 0 0 0 0 0 0 0 0 0 0 0 0 0 0 0 0 0 127 0" result="hardAlpha"/>
<feOffset dx="1.68468" dy="-6.73874"/>
<feGaussianBlur stdDeviation="3.36937"/>
<feComposite in2="hardAlpha" operator="arithmetic" k2="-1" k3="1"/>
<feColorMatrix type="matrix" values="0 0 0 0 0 0 0 0 0 0 0 0 0 0 0 0 0 0 0.28 0"/>
<feBlend mode="normal" in2="shape" result="effect1_innerShadow_242_166205"/>
</filter>
<filter id="filter4_i_242_166205" x="203.482" y="507.647" width="54.7521" height="68.5329" filterUnits="userSpaceOnUse" color-interpolation-filters="sRGB">
<feFlood flood-opacity="0" result="BackgroundImageFix"/>
<feBlend mode="normal" in="SourceGraphic" in2="BackgroundImageFix" result="shape"/>
<feColorMatrix in="SourceAlpha" type="matrix" values="0 0 0 0 0 0 0 0 0 0 0 0 0 0 0 0 0 0 127 0" result="hardAlpha"/>
<feOffset dx="1.68468" dy="-6.73874"/>
<feGaussianBlur stdDeviation="3.36937"/>
<feComposite in2="hardAlpha" operator="arithmetic" k2="-1" k3="1"/>
<feColorMatrix type="matrix" values="0 0 0 0 0 0 0 0 0 0 0 0 0 0 0 0 0 0 0.28 0"/>
<feBlend mode="normal" in2="shape" result="effect1_innerShadow_242_166205"/>
</filter>
<filter id="filter5_ii_242_166205" x="212" y="507.225" width="41.1637" height="43.2995" filterUnits="userSpaceOnUse" color-interpolation-filters="sRGB">
<feFlood flood-opacity="0" result="BackgroundImageFix"/>
<feBlend mode="normal" in="SourceGraphic" in2="BackgroundImageFix" result="shape"/>
<feColorMatrix in="SourceAlpha" type="matrix" values="0 0 0 0 0 0 0 0 0 0 0 0 0 0 0 0 0 0 127 0" result="hardAlpha"/>
<feOffset dy="-5.24142"/>
<feGaussianBlur stdDeviation="4.19314"/>
<feComposite in2="hardAlpha" operator="arithmetic" k2="-1" k3="1"/>
<feColorMatrix type="matrix" values="0 0 0 0 0 0 0 0 0 0 0 0 0 0 0 0 0 0 0.15 0"/>
<feBlend mode="normal" in2="shape" result="effect1_innerShadow_242_166205"/>
<feColorMatrix in="SourceAlpha" type="matrix" values="0 0 0 0 0 0 0 0 0 0 0 0 0 0 0 0 0 0 127 0" result="hardAlpha"/>
<feOffset dx="25.1588" dy="-29.352"/>
<feGaussianBlur stdDeviation="14.676"/>
<feComposite in2="hardAlpha" operator="arithmetic" k2="-1" k3="1"/>
<feColorMatrix type="matrix" values="0 0 0 0 0 0 0 0 0 0 0 0 0 0 0 0 0 0 0.11 0"/>
<feBlend mode="normal" in2="effect1_innerShadow_242_166205" result="effect2_innerShadow_242_166205"/>
</filter>
<filter id="filter6_ii_242_166205" x="311" y="489.648" width="62.8893" height="64.5899" filterUnits="userSpaceOnUse" color-interpolation-filters="sRGB">
<feFlood flood-opacity="0" result="BackgroundImageFix"/>
<feBlend mode="normal" in="SourceGraphic" in2="BackgroundImageFix" result="shape"/>
<feColorMatrix in="SourceAlpha" type="matrix" values="0 0 0 0 0 0 0 0 0 0 0 0 0 0 0 0 0 0 127 0" result="hardAlpha"/>
<feOffset dy="-5.24142"/>
<feGaussianBlur stdDeviation="4.19314"/>
<feComposite in2="hardAlpha" operator="arithmetic" k2="-1" k3="1"/>
<feColorMatrix type="matrix" values="0 0 0 0 0 0 0 0 0 0 0 0 0 0 0 0 0 0 0.15 0"/>
<feBlend mode="normal" in2="shape" result="effect1_innerShadow_242_166205"/>
<feColorMatrix in="SourceAlpha" type="matrix" values="0 0 0 0 0 0 0 0 0 0 0 0 0 0 0 0 0 0 127 0" result="hardAlpha"/>
<feOffset dx="25.1588" dy="-29.352"/>
<feGaussianBlur stdDeviation="14.676"/>
<feComposite in2="hardAlpha" operator="arithmetic" k2="-1" k3="1"/>
<feColorMatrix type="matrix" values="0 0 0 0 0 0 0 0 0 0 0 0 0 0 0 0 0 0 0.11 0"/>
<feBlend mode="normal" in2="effect1_innerShadow_242_166205" result="effect2_innerShadow_242_166205"/>
</filter>
<filter id="filter7_ii_242_166205" x="11" y="-32.6346" width="512.976" height="512.976" filterUnits="userSpaceOnUse" color-interpolation-filters="sRGB">
<feFlood flood-opacity="0" result="BackgroundImageFix"/>
<feBlend mode="normal" in="SourceGraphic" in2="BackgroundImageFix" result="shape"/>
<feColorMatrix in="SourceAlpha" type="matrix" values="0 0 0 0 0 0 0 0 0 0 0 0 0 0 0 0 0 0 127 0" result="hardAlpha"/>
<feOffset dy="-69.95"/>
<feGaussianBlur stdDeviation="23.3171"/>
<feComposite in2="hardAlpha" operator="arithmetic" k2="-1" k3="1"/>
<feColorMatrix type="matrix" values="0 0 0 0 0 0 0 0 0 0 0 0 0 0 0 0 0 0 0.25 0"/>
<feBlend mode="normal" in2="shape" result="effect1_innerShadow_242_166205"/>
<feColorMatrix in="SourceAlpha" type="matrix" values="0 0 0 0 0 0 0 0 0 0 0 0 0 0 0 0 0 0 127 0" result="hardAlpha"/>
<feOffset dy="-12"/>
<feGaussianBlur stdDeviation="14"/>
<feComposite in2="hardAlpha" operator="arithmetic" k2="-1" k3="1"/>
<feColorMatrix type="matrix" values="0 0 0 0 0 0 0 0 0 0 0 0 0 0 0 0 0 0 0.12 0"/>
<feBlend mode="normal" in2="effect1_innerShadow_242_166205" result="effect2_innerShadow_242_166205"/>
</filter>
<filter id="filter8_ii_242_166205" x="470" y="171.408" width="55.9823" height="166.015" filterUnits="userSpaceOnUse" color-interpolation-filters="sRGB">
<feFlood flood-opacity="0" result="BackgroundImageFix"/>
<feBlend mode="normal" in="SourceGraphic" in2="BackgroundImageFix" result="shape"/>
<feColorMatrix in="SourceAlpha" type="matrix" values="0 0 0 0 0 0 0 0 0 0 0 0 0 0 0 0 0 0 127 0" result="hardAlpha"/>
<feOffset dy="-5.24142"/>
<feGaussianBlur stdDeviation="4.19314"/>
<feComposite in2="hardAlpha" operator="arithmetic" k2="-1" k3="1"/>
<feColorMatrix type="matrix" values="0 0 0 0 0 0 0 0 0 0 0 0 0 0 0 0 0 0 0.15 0"/>
<feBlend mode="normal" in2="shape" result="effect1_innerShadow_242_166205"/>
<feColorMatrix in="SourceAlpha" type="matrix" values="0 0 0 0 0 0 0 0 0 0 0 0 0 0 0 0 0 0 127 0" result="hardAlpha"/>
<feOffset dx="1.16" dy="-5.35"/>
<feGaussianBlur stdDeviation="7.5"/>
<feComposite in2="hardAlpha" operator="arithmetic" k2="-1" k3="1"/>
<feColorMatrix type="matrix" values="0 0 0 0 0 0 0 0 0 0 0 0 0 0 0 0 0 0 0.11 0"/>
<feBlend mode="normal" in2="effect1_innerShadow_242_166205" result="effect2_innerShadow_242_166205"/>
</filter>
<filter id="filter9_ii_242_166205" x="241" y="342.648" width="259.831" height="158.88" filterUnits="userSpaceOnUse" color-interpolation-filters="sRGB">
<feFlood flood-opacity="0" result="BackgroundImageFix"/>
<feBlend mode="normal" in="SourceGraphic" in2="BackgroundImageFix" result="shape"/>
<feColorMatrix in="SourceAlpha" type="matrix" values="0 0 0 0 0 0 0 0 0 0 0 0 0 0 0 0 0 0 127 0" result="hardAlpha"/>
<feOffset dy="-5.24142"/>
<feGaussianBlur stdDeviation="4.19314"/>
<feComposite in2="hardAlpha" operator="arithmetic" k2="-1" k3="1"/>
<feColorMatrix type="matrix" values="0 0 0 0 0 0 0 0 0 0 0 0 0 0 0 0 0 0 0.15 0"/>
<feBlend mode="normal" in2="shape" result="effect1_innerShadow_242_166205"/>
<feColorMatrix in="SourceAlpha" type="matrix" values="0 0 0 0 0 0 0 0 0 0 0 0 0 0 0 0 0 0 127 0" result="hardAlpha"/>
<feOffset dx="25.1588" dy="-29.352"/>
<feGaussianBlur stdDeviation="14.676"/>
<feComposite in2="hardAlpha" operator="arithmetic" k2="-1" k3="1"/>
<feColorMatrix type="matrix" values="0 0 0 0 0 0 0 0 0 0 0 0 0 0 0 0 0 0 0.11 0"/>
<feBlend mode="normal" in2="effect1_innerShadow_242_166205" result="effect2_innerShadow_242_166205"/>
</filter>
<filter id="filter10_ii_242_166205" x="206.35" y="333.062" width="76.5104" height="89.3413" filterUnits="userSpaceOnUse" color-interpolation-filters="sRGB">
<feFlood flood-opacity="0" result="BackgroundImageFix"/>
<feBlend mode="normal" in="SourceGraphic" in2="BackgroundImageFix" result="shape"/>
<feColorMatrix in="SourceAlpha" type="matrix" values="0 0 0 0 0 0 0 0 0 0 0 0 0 0 0 0 0 0 127 0" result="hardAlpha"/>
<feOffset dy="-5.24142"/>
<feGaussianBlur stdDeviation="4.19314"/>
<feComposite in2="hardAlpha" operator="arithmetic" k2="-1" k3="1"/>
<feColorMatrix type="matrix" values="0 0 0 0 0 0 0 0 0 0 0 0 0 0 0 0 0 0 0.15 0"/>
<feBlend mode="normal" in2="shape" result="effect1_innerShadow_242_166205"/>
<feColorMatrix in="SourceAlpha" type="matrix" values="0 0 0 0 0 0 0 0 0 0 0 0 0 0 0 0 0 0 127 0" result="hardAlpha"/>
<feOffset dx="25.1588" dy="-29.352"/>
<feGaussianBlur stdDeviation="14.676"/>
<feComposite in2="hardAlpha" operator="arithmetic" k2="-1" k3="1"/>
<feColorMatrix type="matrix" values="0 0 0 0 0 0 0 0 0 0 0 0 0 0 0 0 0 0 0.11 0"/>
<feBlend mode="normal" in2="effect1_innerShadow_242_166205" result="effect2_innerShadow_242_166205"/>
</filter>
<filter id="filter11_ii_242_166205" x="0" y="129.148" width="192.256" height="320.424" filterUnits="userSpaceOnUse" color-interpolation-filters="sRGB">
<feFlood flood-opacity="0" result="BackgroundImageFix"/>
<feBlend mode="normal" in="SourceGraphic" in2="BackgroundImageFix" result="shape"/>
<feColorMatrix in="SourceAlpha" type="matrix" values="0 0 0 0 0 0 0 0 0 0 0 0 0 0 0 0 0 0 127 0" result="hardAlpha"/>
<feOffset dy="-5.24142"/>
<feGaussianBlur stdDeviation="4.19314"/>
<feComposite in2="hardAlpha" operator="arithmetic" k2="-1" k3="1"/>
<feColorMatrix type="matrix" values="0 0 0 0 0 0 0 0 0 0 0 0 0 0 0 0 0 0 0.15 0"/>
<feBlend mode="normal" in2="shape" result="effect1_innerShadow_242_166205"/>
<feColorMatrix in="SourceAlpha" type="matrix" values="0 0 0 0 0 0 0 0 0 0 0 0 0 0 0 0 0 0 127 0" result="hardAlpha"/>
<feOffset dx="25.1588" dy="-29.352"/>
<feGaussianBlur stdDeviation="14.676"/>
<feComposite in2="hardAlpha" operator="arithmetic" k2="-1" k3="1"/>
<feColorMatrix type="matrix" values="0 0 0 0 0 0 0 0 0 0 0 0 0 0 0 0 0 0 0.11 0"/>
<feBlend mode="normal" in2="effect1_innerShadow_242_166205" result="effect2_innerShadow_242_166205"/>
</filter>
<filter id="filter12_ii_242_166205" x="80.9062" y="-32.6346" width="373.119" height="369.834" filterUnits="userSpaceOnUse" color-interpolation-filters="sRGB">
<feFlood flood-opacity="0" result="BackgroundImageFix"/>
<feBlend mode="normal" in="SourceGraphic" in2="BackgroundImageFix" result="shape"/>
<feColorMatrix in="SourceAlpha" type="matrix" values="0 0 0 0 0 0 0 0 0 0 0 0 0 0 0 0 0 0 127 0" result="hardAlpha"/>
<feOffset dy="-69.9512"/>
<feGaussianBlur stdDeviation="23.3171"/>
<feComposite in2="hardAlpha" operator="arithmetic" k2="-1" k3="1"/>
<feColorMatrix type="matrix" values="0 0 0 0 0 0 0 0 0 0 0 0 0 0 0 0 0 0 0.25 0"/>
<feBlend mode="normal" in2="shape" result="effect1_innerShadow_242_166205"/>
<feColorMatrix in="SourceAlpha" type="matrix" values="0 0 0 0 0 0 0 0 0 0 0 0 0 0 0 0 0 0 127 0" result="hardAlpha"/>
<feOffset dy="-12"/>
<feGaussianBlur stdDeviation="14"/>
<feComposite in2="hardAlpha" operator="arithmetic" k2="-1" k3="1"/>
<feColorMatrix type="matrix" values="0 0 0 0 0 0 0 0 0 0 0 0 0 0 0 0 0 0 0.12 0"/>
<feBlend mode="normal" in2="effect1_innerShadow_242_166205" result="effect2_innerShadow_242_166205"/>
</filter>
<filter id="filter13_ii_242_166205" x="108" y="98.6475" width="105.59" height="142.406" filterUnits="userSpaceOnUse" color-interpolation-filters="sRGB">
<feFlood flood-opacity="0" result="BackgroundImageFix"/>
<feBlend mode="normal" in="SourceGraphic" in2="BackgroundImageFix" result="shape"/>
<feColorMatrix in="SourceAlpha" type="matrix" values="0 0 0 0 0 0 0 0 0 0 0 0 0 0 0 0 0 0 127 0" result="hardAlpha"/>
<feOffset dy="-5.24142"/>
<feGaussianBlur stdDeviation="4.19314"/>
<feComposite in2="hardAlpha" operator="arithmetic" k2="-1" k3="1"/>
<feColorMatrix type="matrix" values="0 0 0 0 0 0 0 0 0 0 0 0 0 0 0 0 0 0 0.15 0"/>
<feBlend mode="normal" in2="shape" result="effect1_innerShadow_242_166205"/>
<feColorMatrix in="SourceAlpha" type="matrix" values="0 0 0 0 0 0 0 0 0 0 0 0 0 0 0 0 0 0 127 0" result="hardAlpha"/>
<feOffset dx="25.1588" dy="-29.352"/>
<feGaussianBlur stdDeviation="14.676"/>
<feComposite in2="hardAlpha" operator="arithmetic" k2="-1" k3="1"/>
<feColorMatrix type="matrix" values="0 0 0 0 0 0 0 0 0 0 0 0 0 0 0 0 0 0 0.11 0"/>
<feBlend mode="normal" in2="effect1_innerShadow_242_166205" result="effect2_innerShadow_242_166205"/>
</filter>
<filter id="filter14_ii_242_166205" x="272.332" y="7.64755" width="201.108" height="284.352" filterUnits="userSpaceOnUse" color-interpolation-filters="sRGB">
<feFlood flood-opacity="0" result="BackgroundImageFix"/>
<feBlend mode="normal" in="SourceGraphic" in2="BackgroundImageFix" result="shape"/>
<feColorMatrix in="SourceAlpha" type="matrix" values="0 0 0 0 0 0 0 0 0 0 0 0 0 0 0 0 0 0 127 0" result="hardAlpha"/>
<feOffset dy="-5.24142"/>
<feGaussianBlur stdDeviation="4.19314"/>
<feComposite in2="hardAlpha" operator="arithmetic" k2="-1" k3="1"/>
<feColorMatrix type="matrix" values="0 0 0 0 0 0 0 0 0 0 0 0 0 0 0 0 0 0 0.15 0"/>
<feBlend mode="normal" in2="shape" result="effect1_innerShadow_242_166205"/>
<feColorMatrix in="SourceAlpha" type="matrix" values="0 0 0 0 0 0 0 0 0 0 0 0 0 0 0 0 0 0 127 0" result="hardAlpha"/>
<feOffset dx="25.1588" dy="-29.352"/>
<feGaussianBlur stdDeviation="14.676"/>
<feComposite in2="hardAlpha" operator="arithmetic" k2="-1" k3="1"/>
<feColorMatrix type="matrix" values="0 0 0 0 0 0 0 0 0 0 0 0 0 0 0 0 0 0 0.11 0"/>
<feBlend mode="normal" in2="effect1_innerShadow_242_166205" result="effect2_innerShadow_242_166205"/>
</filter>
<filter id="filter15_i_242_166205" x="150.902" y="-36.6346" width="240.32" height="257.568" filterUnits="userSpaceOnUse" color-interpolation-filters="sRGB">
<feFlood flood-opacity="0" result="BackgroundImageFix"/>
<feBlend mode="normal" in="SourceGraphic" in2="BackgroundImageFix" result="shape"/>
<feColorMatrix in="SourceAlpha" type="matrix" values="0 0 0 0 0 0 0 0 0 0 0 0 0 0 0 0 0 0 127 0" result="hardAlpha"/>
<feOffset dy="-46.6341"/>
<feGaussianBlur stdDeviation="23.3171"/>
<feComposite in2="hardAlpha" operator="arithmetic" k2="-1" k3="1"/>
<feColorMatrix type="matrix" values="0 0 0 0 0 0 0 0 0 0 0 0 0 0 0 0 0 0 0.25 0"/>
<feBlend mode="normal" in2="shape" result="effect1_innerShadow_242_166205"/>
</filter>
<filter id="filter16_ii_242_166205" x="314" y="85.6475" width="63.8629" height="80.8359" filterUnits="userSpaceOnUse" color-interpolation-filters="sRGB">
<feFlood flood-opacity="0" result="BackgroundImageFix"/>
<feBlend mode="normal" in="SourceGraphic" in2="BackgroundImageFix" result="shape"/>
<feColorMatrix in="SourceAlpha" type="matrix" values="0 0 0 0 0 0 0 0 0 0 0 0 0 0 0 0 0 0 127 0" result="hardAlpha"/>
<feOffset dy="-5.24142"/>
<feGaussianBlur stdDeviation="4.19314"/>
<feComposite in2="hardAlpha" operator="arithmetic" k2="-1" k3="1"/>
<feColorMatrix type="matrix" values="0 0 0 0 0 0 0 0 0 0 0 0 0 0 0 0 0 0 0.15 0"/>
<feBlend mode="normal" in2="shape" result="effect1_innerShadow_242_166205"/>
<feColorMatrix in="SourceAlpha" type="matrix" values="0 0 0 0 0 0 0 0 0 0 0 0 0 0 0 0 0 0 127 0" result="hardAlpha"/>
<feOffset dx="25.1588" dy="-29.352"/>
<feGaussianBlur stdDeviation="14.676"/>
<feComposite in2="hardAlpha" operator="arithmetic" k2="-1" k3="1"/>
<feColorMatrix type="matrix" values="0 0 0 0 0 0 0 0 0 0 0 0 0 0 0 0 0 0 0.11 0"/>
<feBlend mode="normal" in2="effect1_innerShadow_242_166205" result="effect2_innerShadow_242_166205"/>
</filter>
<filter id="filter17_i_242_166205" x="171.245" y="-29.2524" width="180.297" height="153.008" filterUnits="userSpaceOnUse" color-interpolation-filters="sRGB">
<feFlood flood-opacity="0" result="BackgroundImageFix"/>
<feBlend mode="normal" in="SourceGraphic" in2="BackgroundImageFix" result="shape"/>
<feColorMatrix in="SourceAlpha" type="matrix" values="0 0 0 0 0 0 0 0 0 0 0 0 0 0 0 0 0 0 127 0" result="hardAlpha"/>
<feOffset dx="25.1588" dy="-29.352"/>
<feGaussianBlur stdDeviation="14.676"/>
<feComposite in2="hardAlpha" operator="arithmetic" k2="-1" k3="1"/>
<feColorMatrix type="matrix" values="0 0 0 0 0 0 0 0 0 0 0 0 0 0 0 0 0 0 0.11 0"/>
<feBlend mode="normal" in2="shape" result="effect1_innerShadow_242_166205"/>
</filter>
</defs>
</svg>
