<svg width="459" height="677" viewBox="0 0 459 677" fill="none" xmlns="http://www.w3.org/2000/svg">
<path d="M310.635 571.953C267.482 613.349 197.518 613.349 154.365 571.953C111.212 530.558 111.212 463.442 154.365 422.047C197.518 380.651 267.482 380.651 310.635 422.047C353.788 463.442 353.788 530.558 310.635 571.953Z" fill="black" fill-opacity="0.12"/>
<path opacity="0.3" d="M365.082 624.279C291.859 694.574 173.141 694.574 99.9175 624.279C26.6942 553.985 26.6942 440.015 99.9175 369.721C173.141 299.426 291.859 299.426 365.083 369.721C438.306 440.015 438.306 553.985 365.082 624.279Z" fill="black" fill-opacity="0.12"/>
<path fill-rule="evenodd" clip-rule="evenodd" d="M315.235 503.976C315.235 511.652 311.322 518.837 304.509 524.989C317.443 526.554 327.047 532.362 327.047 539.287C327.047 547.413 313.826 554 297.516 554C283.003 554 270.935 548.784 268.452 541.909C259.236 544.01 249.098 545.172 238.453 545.172C232.822 545.172 227.333 544.847 222.046 544.23C216.806 548.334 207.596 551.058 197.11 551.058C180.8 551.058 167.578 544.47 167.578 536.345C167.578 532.72 170.209 529.402 174.57 526.838C172.256 524.98 170.216 523.015 168.481 520.961C153.812 521.543 141.888 516.481 141.144 508.984C140.41 501.594 150.793 494.396 164.976 491.985C174.545 475.082 203.822 462.78 238.453 462.78C254.026 462.78 268.516 465.267 280.619 469.542C285.862 467.169 292.827 465.723 300.469 465.723C316.779 465.723 330 472.31 330 480.436C330 486.355 322.985 491.457 312.871 493.792C314.414 497.049 315.235 500.461 315.235 503.976Z" fill="black" fill-opacity="0.2"/>
<ellipse cx="235.078" cy="493.868" rx="58.6406" ry="42.4765" fill="black" fill-opacity="0.2"/>
<g filter="url(#filter0_i_242_166578)">
<path d="M256.769 459.98C247.32 459.98 244.958 448.115 244.958 442.182C240.627 466.703 234.091 515.746 242.595 515.746C253.226 515.746 286.297 488.456 289.841 484.897C294.407 480.31 298.992 485.514 307.852 484.897C316.711 484.28 322.617 478.964 322.617 473.079C322.617 467.194 318.188 446.596 300.469 446.596C275.367 446.596 268.58 459.98 256.769 459.98Z" fill="#82644D"/>
</g>
<g filter="url(#filter1_i_242_166578)">
<path d="M193.557 460.819L191.203 509.861C172.775 504.211 181.565 517.546 153.023 512.98C150.696 512.608 148.714 510.969 148.119 508.688C141.112 481.807 165.542 454.251 193.557 460.819Z" fill="#82644D"/>
</g>
<path opacity="0.1" d="M294.958 459.038C290.455 460.946 286.835 464.549 285.106 460.497C283.376 456.444 286.022 453.589 290.525 451.681C295.028 449.774 299.682 449.536 301.412 453.588C303.141 457.641 299.461 457.13 294.958 459.038Z" fill="#E2E8F0"/>
<path opacity="0.1" d="M173.88 476.693C169.377 478.601 165.757 482.205 164.027 478.152C162.298 474.1 164.944 471.244 169.447 469.337C173.95 467.429 178.604 467.191 180.334 471.244C182.063 475.296 178.383 474.786 173.88 476.693Z" fill="#E2E8F0"/>
<g filter="url(#filter2_i_242_166578)">
<path d="M185.719 367.989H279.375V484.039C279.375 509.901 258.409 530.867 232.547 530.867C206.684 530.867 185.719 509.901 185.719 484.039V367.989Z" fill="#82644D"/>
</g>
<path d="M279.797 371.254C279.797 395.399 258.642 409.507 232.547 409.507C206.451 409.507 185.297 395.399 185.297 371.254C185.297 347.109 206.451 333 232.547 333C258.642 333 279.797 347.109 279.797 371.254Z" fill="#C8A078"/>
<path fill-rule="evenodd" clip-rule="evenodd" d="M206.144 350.598C199.495 355.417 195.422 362.408 195.422 371.254C195.422 380.1 199.495 387.09 206.144 391.909C212.826 396.752 222.145 399.416 232.547 399.416C242.949 399.416 252.267 396.752 258.95 391.909C265.599 387.09 269.672 380.1 269.672 371.254C269.672 362.408 265.599 355.417 258.95 350.598C252.267 345.756 242.949 343.091 232.547 343.091C222.145 343.091 212.826 345.756 206.144 350.598ZM204.657 348.553C211.87 343.326 221.746 340.564 232.547 340.564C243.348 340.564 253.224 343.326 260.437 348.553C267.682 353.804 272.203 361.527 272.203 371.254C272.203 380.981 267.682 388.703 260.437 393.954C253.224 399.181 243.348 401.943 232.547 401.943C221.746 401.943 211.87 399.181 204.657 393.954C197.412 388.703 192.891 380.981 192.891 371.254C192.891 361.527 197.412 353.804 204.657 348.553Z" fill="#9A7858"/>
<path fill-rule="evenodd" clip-rule="evenodd" d="M216.573 359.278C212.595 362.089 210.187 366.136 210.187 371.254C210.187 376.371 212.595 380.418 216.573 383.229C220.584 386.063 226.216 387.646 232.547 387.646C238.878 387.646 244.51 386.063 248.521 383.229C252.499 380.418 254.906 376.371 254.906 371.254C254.906 366.136 252.499 362.089 248.521 359.278C244.51 356.444 238.878 354.862 232.547 354.862C226.216 354.862 220.584 356.444 216.573 359.278ZM215.11 357.216C219.649 354.008 225.83 352.335 232.547 352.335C239.264 352.335 245.444 354.008 249.983 357.216C254.556 360.446 257.437 365.227 257.437 371.254C257.437 377.28 254.556 382.061 249.983 385.292C245.444 388.499 239.264 390.173 232.547 390.173C225.83 390.173 219.649 388.499 215.11 385.292C210.538 382.061 207.656 377.28 207.656 371.254C207.656 365.227 210.538 360.446 215.11 357.216Z" fill="#9A7858"/>
<path fill-rule="evenodd" clip-rule="evenodd" d="M227.065 365.356C225.758 366.382 224.953 367.859 224.953 369.782C224.953 371.705 225.758 373.182 227.065 374.209C228.4 375.257 230.321 375.875 232.547 375.875C234.772 375.875 236.694 375.257 238.029 374.209C239.336 373.182 240.141 371.705 240.141 369.782C240.141 367.859 239.336 366.382 238.029 365.356C236.694 364.308 234.772 363.689 232.547 363.689C230.321 363.689 228.4 364.308 227.065 365.356ZM225.5 363.37C227.371 361.901 229.879 361.162 232.547 361.162C235.214 361.162 237.723 361.901 239.594 363.37C241.493 364.861 242.672 367.062 242.672 369.782C242.672 372.503 241.493 374.704 239.594 376.195C237.723 377.664 235.214 378.402 232.547 378.402C229.879 378.402 227.371 377.664 225.5 376.195C223.601 374.704 222.422 372.503 222.422 369.782C222.422 367.062 223.601 364.861 225.5 363.37Z" fill="#9A7858"/>
<path fill-rule="evenodd" clip-rule="evenodd" d="M230.803 369.963C230.802 369.963 230.806 369.958 230.817 369.947C230.81 369.958 230.804 369.963 230.803 369.963ZM231.14 369.782C231.462 369.663 231.944 369.575 232.547 369.575C233.149 369.575 233.632 369.663 233.954 369.782C233.632 369.901 233.149 369.99 232.547 369.99C231.944 369.99 231.462 369.901 231.14 369.782ZM234.291 369.963C234.29 369.963 234.284 369.958 234.276 369.947C234.288 369.958 234.292 369.963 234.291 369.963ZM234.276 369.617C234.284 369.606 234.29 369.601 234.291 369.601C234.292 369.602 234.288 369.607 234.276 369.617ZM230.817 369.617C230.806 369.607 230.802 369.602 230.803 369.601C230.804 369.601 230.81 369.606 230.817 369.617ZM229.919 367.556C230.675 367.199 231.614 367.047 232.547 367.047C233.48 367.047 234.419 367.199 235.175 367.556C235.909 367.901 236.766 368.608 236.766 369.782C236.766 370.957 235.909 371.663 235.175 372.009C234.419 372.365 233.48 372.517 232.547 372.517C231.614 372.517 230.675 372.365 229.919 372.009C229.185 371.663 228.328 370.957 228.328 369.782C228.328 368.608 229.185 367.901 229.919 367.556Z" fill="#9A7858"/>
<path opacity="0.1" d="M208.922 423.265C208.922 428.141 206.863 433.354 202.444 433.354C198.025 433.354 197.109 429.402 197.109 424.526C197.109 419.651 198.025 415.699 202.444 415.699C206.863 415.699 208.922 418.39 208.922 423.265Z" fill="#E2E8F0"/>
<path opacity="0.1" d="M262.078 445.124C262.078 456.5 255.903 468.665 242.645 468.665C229.386 468.665 226.641 459.443 226.641 448.067C226.641 436.691 229.386 427.469 242.645 427.469C255.903 427.469 262.078 433.748 262.078 445.124Z" fill="black"/>
<path opacity="0.1" d="M267.982 503.976C267.982 515.352 261.807 527.517 248.549 527.517C223.39 527.517 228.947 477.493 250.263 477.493C263.522 477.493 267.982 492.6 267.982 503.976Z" fill="black"/>
<path opacity="0.1" d="M220.734 468.665C220.734 474.353 217.132 480.435 209.398 480.435C201.664 480.435 200.062 475.824 200.062 470.136C200.062 464.448 201.664 459.837 209.398 459.837C217.132 459.837 220.734 462.977 220.734 468.665Z" fill="black"/>
<g filter="url(#filter3_i_242_166578)">
<path d="M297.516 493.677C288.655 490.735 279.797 471.608 279.796 458.367C235.5 453.952 242.878 521.632 254.691 526.046C266.504 530.46 278.321 531.931 285.703 534.874C293.085 537.816 293.085 548.115 300.468 549.587C307.852 551.058 322.616 549.587 322.616 534.874C322.616 520.161 306.376 496.619 297.516 493.677Z" fill="#82644D"/>
</g>
<path opacity="0.1" d="M282.272 485.941C286.335 491.384 288.258 498.998 283.062 502.848C277.866 506.699 273.496 503.084 269.434 497.641C265.371 492.198 263.154 486.988 268.351 483.137C273.547 479.287 278.21 480.498 282.272 485.941Z" fill="black"/>
<g filter="url(#filter4_i_242_166578)">
<path d="M187.867 507.266C193.987 505.288 200.105 492.423 200.105 483.517C230.699 480.548 225.603 526.068 217.444 529.037C209.286 532.006 201.124 532.995 196.026 534.974C190.927 536.954 190.927 543.88 185.828 544.87C180.728 545.86 170.531 544.87 170.531 534.974C170.531 525.079 181.747 509.245 187.867 507.266Z" fill="#82644D"/>
</g>
<path opacity="0.1" d="M198.466 502.261C195.705 505.961 194.397 511.136 197.929 513.753C201.461 516.371 204.431 513.914 207.193 510.214C209.954 506.514 211.461 502.973 207.929 500.355C204.397 497.738 201.227 498.561 198.466 502.261Z" fill="black"/>
<mask id="mask0_242_166578" style="mask-type:alpha" maskUnits="userSpaceOnUse" x="186" y="377" width="94" height="132">
<path d="M186 377H279.656V456V462.031C279.656 487.893 258.691 508.859 232.828 508.859C206.966 508.859 186 487.893 186 462.031V377Z" fill="#82644D"/>
</mask>
<g mask="url(#mask0_242_166578)">
<g filter="url(#filter5_f_242_166578)">
<path d="M233.489 44.0015C131.656 44.587 -1.18438 202.227 11.896 303.687C17.0392 343.581 38.5387 382.36 76.3945 412.932C164.01 483.689 306.062 483.689 393.677 412.932C431.533 382.36 453.033 343.581 458.176 303.687C470.961 204.518 332.25 43.4336 233.489 44.0015Z" fill="black" fill-opacity="0.12"/>
</g>
</g>
<g filter="url(#filter6_ii_242_166578)">
<path d="M233.489 20.0015C131.656 20.587 -1.18438 178.227 11.896 279.687C17.0392 319.581 38.5387 358.36 76.3945 388.932C164.01 459.689 306.062 459.689 393.677 388.932C431.533 358.36 453.033 319.581 458.176 279.687C470.961 180.518 332.25 19.4336 233.489 20.0015Z" fill="#14B8A6"/>
</g>
<path opacity="0.2" d="M344.311 89.6978C343.554 96.2352 340.182 122.239 356.193 113.932C367.275 108.182 358.307 97.1147 344.311 89.6978Z" fill="white" fill-opacity="0.2"/>
<path opacity="0.5" d="M349.339 152.776C347.866 161.812 341.485 197.755 365.313 186.17C381.808 178.15 369.344 162.924 349.339 152.776Z" fill="black" fill-opacity="0.12"/>
<path d="M356.563 245.27C363.483 242.029 393.758 272.847 372.435 283.799C357.675 291.381 347.714 255.781 356.563 245.27Z" fill="white" fill-opacity="0.2"/>
<path opacity="0.5" d="M133.209 220.364C140.595 222.321 144.031 265.384 120.649 260.097C104.464 256.437 119.676 222.744 133.209 220.364Z" fill="black" fill-opacity="0.12"/>
<path opacity="0.3" d="M437.051 250.905C418.959 263.309 408.393 229.919 405.249 212.69C404.591 209.083 408.103 206.626 411.288 208.446C431.263 219.865 450.454 241.716 437.051 250.905Z" fill="black" fill-opacity="0.12"/>
<path opacity="0.8" d="M183.157 353.456C204.456 358.704 202.603 323.731 199.487 306.497C198.834 302.889 194.682 301.824 192.341 304.648C177.658 322.363 167.379 349.568 183.157 353.456Z" fill="black" fill-opacity="0.12"/>
<path d="M52.4197 285.223C31.5175 282.886 35.9289 259.121 48.4332 240.575C51.4591 236.087 58.1242 238.634 58.7065 244.014C60.9924 265.134 66.7023 286.821 52.4197 285.223Z" fill="black" fill-opacity="0.12"/>
<path d="M323.845 413.254C343.681 406.263 334.024 384.105 317.66 368.856C313.7 365.167 307.781 369.151 308.426 374.524C310.962 395.615 310.29 418.031 323.845 413.254Z" fill="black" fill-opacity="0.12"/>
<path d="M118.5 396.546C107.077 392.49 110.54 380.929 118.781 371.557C122.333 367.517 128.346 371.338 127.866 376.696C126.803 388.544 126.253 399.299 118.5 396.546Z" fill="black" fill-opacity="0.12"/>
<path opacity="0.5" d="M405.153 372.942C385.796 381.807 380.789 349.375 380.368 331.447C380.265 327.048 384.886 324.86 388.226 327.727C405.426 342.492 419.591 366.331 405.153 372.942Z" fill="black" fill-opacity="0.12"/>
<path opacity="0.7" d="M143.765 105.629C137.041 102 105.063 131.047 125.729 143.194C140.035 151.602 152.003 116.626 143.765 105.629Z" fill="white" fill-opacity="0.2"/>
<path opacity="0.5" d="M207.515 169.312C202.12 168.828 189.046 197.568 205.895 199.724C217.559 201.216 215.903 174.298 207.515 169.312Z" fill="white" fill-opacity="0.2"/>
<path d="M287.445 219.077C282.193 220.397 279.318 251.84 295.937 248.323C307.441 245.889 297.008 221.02 287.445 219.077Z" fill="black" fill-opacity="0.12"/>
<path opacity="0.5" d="M248.385 334.276C256.024 334.138 271.105 374.621 247.169 375.929C230.6 376.834 236.019 340.266 248.385 334.276Z" fill="white" fill-opacity="0.2"/>
<path d="M185.506 16.4537C138.306 34.0537 97.5603 90.6059 102 88C148 61 148.506 108.954 169.006 123.454C188.668 137.361 205.006 119.454 237.506 115.454C270.006 111.454 285.228 148.454 313.006 173.454C358.006 213.954 433.198 178.954 368.506 91.9537C310.506 13.9537 244.506 -5.54629 185.506 16.4537Z" fill="black" fill-opacity="0.12"/>
<g filter="url(#filter7_ii_242_166578)">
<path d="M185.506 8.45371C138.306 26.0537 109.839 69.1204 101.506 88.4537C154.006 51.4537 148.506 100.954 169.006 115.454C188.668 129.361 205.006 111.454 237.506 107.454C270.006 103.454 285.228 140.454 313.006 165.454C358.006 205.954 433.198 170.954 368.506 83.9537C310.506 5.95367 244.506 -13.5463 185.506 8.45371Z" fill="#E2E8F0"/>
</g>
<path d="M223.006 266.454C233.006 229.954 251.506 231.954 258.006 208.454C273.934 150.865 167.006 136.454 159.006 201.454C156.38 222.791 175.006 232.954 171.506 261.454C168.006 289.954 172.006 309.454 187.506 310.954C203.006 312.454 213.006 302.954 223.006 266.454Z" fill="black" fill-opacity="0.12"/>
<g filter="url(#filter8_ii_242_166578)">
<path d="M223.006 259.454C233.006 222.954 251.506 224.954 258.006 201.454C273.934 143.865 167.006 129.454 159.006 194.454C156.38 215.791 175.006 225.954 171.506 254.454C168.006 282.954 172.006 302.454 187.506 303.954C203.006 305.454 213.006 295.954 223.006 259.454Z" fill="#E2E8F0"/>
</g>
<g filter="url(#filter9_ii_242_166578)">
<path d="M396 353.5C417.534 348.433 433.803 333.63 442.624 322.638C444.827 319.893 449.08 320.77 448.72 324.272C446.891 342.094 428.344 363.156 408 383.5C384 407.5 383 452.5 358.5 457.5C334 462.5 333.5 431.5 303.5 443C285.679 449.831 271.717 447.528 263.458 443.911C260.512 442.62 261.16 438.67 264.067 437.293C274.37 432.41 291.251 421.174 309 400C337.5 366 362 361.5 396 353.5Z" fill="#E2E8F0"/>
</g>
<g filter="url(#filter10_ii_242_166578)">
<path d="M0.00630267 265.954C-0.223827 242.941 7.03766 223.127 15.1828 208.513C19.1237 201.442 28.6573 205.768 29.1409 213.849C31.2684 249.4 56.3727 272.309 80.5063 298.454C110.506 330.954 114.506 406.454 84.0063 419.454C53.5063 432.454 24.5063 415.954 25.5063 355.954C26.5063 295.954 0.506303 315.954 0.00630267 265.954Z" fill="#E2E8F0"/>
</g>
<g filter="url(#filter11_ii_242_166578)">
<path d="M296.541 510.659C292.348 515.376 305.451 526.383 310.169 521.142C316.417 514.199 302.279 504.204 296.541 510.659Z" fill="#E2E8F0"/>
</g>
<g filter="url(#filter12_ii_242_166578)">
<path d="M179.273 525.246C175.604 522.625 170.362 517.384 182.942 502.183C199.19 482.55 221.51 490.369 209.149 513.19C202.335 525.77 182.942 527.866 179.273 525.246Z" fill="#E2E8F0"/>
</g>
<defs>
<filter id="filter0_i_242_166578" x="238.453" y="435.443" width="90.9028" height="80.3033" filterUnits="userSpaceOnUse" color-interpolation-filters="sRGB">
<feFlood flood-opacity="0" result="BackgroundImageFix"/>
<feBlend mode="normal" in="SourceGraphic" in2="BackgroundImageFix" result="shape"/>
<feColorMatrix in="SourceAlpha" type="matrix" values="0 0 0 0 0 0 0 0 0 0 0 0 0 0 0 0 0 0 127 0" result="hardAlpha"/>
<feOffset dx="6.73874" dy="-6.73874"/>
<feGaussianBlur stdDeviation="3.36937"/>
<feComposite in2="hardAlpha" operator="arithmetic" k2="-1" k3="1"/>
<feColorMatrix type="matrix" values="0 0 0 0 0 0 0 0 0 0 0 0 0 0 0 0 0 0 0.28 0"/>
<feBlend mode="normal" in2="shape" result="effect1_innerShadow_242_166578"/>
</filter>
<filter id="filter1_i_242_166578" x="146.906" y="453.099" width="53.3901" height="60.8523" filterUnits="userSpaceOnUse" color-interpolation-filters="sRGB">
<feFlood flood-opacity="0" result="BackgroundImageFix"/>
<feBlend mode="normal" in="SourceGraphic" in2="BackgroundImageFix" result="shape"/>
<feColorMatrix in="SourceAlpha" type="matrix" values="0 0 0 0 0 0 0 0 0 0 0 0 0 0 0 0 0 0 127 0" result="hardAlpha"/>
<feOffset dx="6.73874" dy="-6.73874"/>
<feGaussianBlur stdDeviation="3.36937"/>
<feComposite in2="hardAlpha" operator="arithmetic" k2="-1" k3="1"/>
<feColorMatrix type="matrix" values="0 0 0 0 0 0 0 0 0 0 0 0 0 0 0 0 0 0 0.28 0"/>
<feBlend mode="normal" in2="shape" result="effect1_innerShadow_242_166578"/>
</filter>
<filter id="filter2_i_242_166578" x="185.719" y="367.989" width="100.395" height="162.878" filterUnits="userSpaceOnUse" color-interpolation-filters="sRGB">
<feFlood flood-opacity="0" result="BackgroundImageFix"/>
<feBlend mode="normal" in="SourceGraphic" in2="BackgroundImageFix" result="shape"/>
<feColorMatrix in="SourceAlpha" type="matrix" values="0 0 0 0 0 0 0 0 0 0 0 0 0 0 0 0 0 0 127 0" result="hardAlpha"/>
<feOffset dx="6.73874"/>
<feGaussianBlur stdDeviation="3.36937"/>
<feComposite in2="hardAlpha" operator="arithmetic" k2="-1" k3="1"/>
<feColorMatrix type="matrix" values="0 0 0 0 0 0 0 0 0 0 0 0 0 0 0 0 0 0 0.28 0"/>
<feBlend mode="normal" in2="shape" result="effect1_innerShadow_242_166578"/>
</filter>
<filter id="filter3_i_242_166578" x="245.651" y="451.421" width="78.6495" height="98.615" filterUnits="userSpaceOnUse" color-interpolation-filters="sRGB">
<feFlood flood-opacity="0" result="BackgroundImageFix"/>
<feBlend mode="normal" in="SourceGraphic" in2="BackgroundImageFix" result="shape"/>
<feColorMatrix in="SourceAlpha" type="matrix" values="0 0 0 0 0 0 0 0 0 0 0 0 0 0 0 0 0 0 127 0" result="hardAlpha"/>
<feOffset dx="1.68468" dy="-6.73874"/>
<feGaussianBlur stdDeviation="3.36937"/>
<feComposite in2="hardAlpha" operator="arithmetic" k2="-1" k3="1"/>
<feColorMatrix type="matrix" values="0 0 0 0 0 0 0 0 0 0 0 0 0 0 0 0 0 0 0.28 0"/>
<feBlend mode="normal" in2="shape" result="effect1_innerShadow_242_166578"/>
</filter>
<filter id="filter4_i_242_166578" x="170.531" y="476.639" width="54.8409" height="68.5329" filterUnits="userSpaceOnUse" color-interpolation-filters="sRGB">
<feFlood flood-opacity="0" result="BackgroundImageFix"/>
<feBlend mode="normal" in="SourceGraphic" in2="BackgroundImageFix" result="shape"/>
<feColorMatrix in="SourceAlpha" type="matrix" values="0 0 0 0 0 0 0 0 0 0 0 0 0 0 0 0 0 0 127 0" result="hardAlpha"/>
<feOffset dx="1.68468" dy="-6.73874"/>
<feGaussianBlur stdDeviation="3.36937"/>
<feComposite in2="hardAlpha" operator="arithmetic" k2="-1" k3="1"/>
<feColorMatrix type="matrix" values="0 0 0 0 0 0 0 0 0 0 0 0 0 0 0 0 0 0 0.28 0"/>
<feBlend mode="normal" in2="shape" result="effect1_innerShadow_242_166578"/>
</filter>
<filter id="filter5_f_242_166578" x="2" y="35" width="466" height="440" filterUnits="userSpaceOnUse" color-interpolation-filters="sRGB">
<feFlood flood-opacity="0" result="BackgroundImageFix"/>
<feBlend mode="normal" in="SourceGraphic" in2="BackgroundImageFix" result="shape"/>
<feGaussianBlur stdDeviation="4.5" result="effect1_foregroundBlur_242_166578"/>
</filter>
<filter id="filter6_ii_242_166578" x="6" y="-50" width="453" height="502" filterUnits="userSpaceOnUse" color-interpolation-filters="sRGB">
<feFlood flood-opacity="0" result="BackgroundImageFix"/>
<feBlend mode="normal" in="SourceGraphic" in2="BackgroundImageFix" result="shape"/>
<feColorMatrix in="SourceAlpha" type="matrix" values="0 0 0 0 0 0 0 0 0 0 0 0 0 0 0 0 0 0 127 0" result="hardAlpha"/>
<feOffset dy="-70"/>
<feGaussianBlur stdDeviation="41"/>
<feComposite in2="hardAlpha" operator="arithmetic" k2="-1" k3="1"/>
<feColorMatrix type="matrix" values="0 0 0 0 0 0 0 0 0 0 0 0 0 0 0 0 0 0 0.25 0"/>
<feBlend mode="normal" in2="shape" result="effect1_innerShadow_242_166578"/>
<feColorMatrix in="SourceAlpha" type="matrix" values="0 0 0 0 0 0 0 0 0 0 0 0 0 0 0 0 0 0 127 0" result="hardAlpha"/>
<feOffset dx="-5" dy="10"/>
<feGaussianBlur stdDeviation="12.5"/>
<feComposite in2="hardAlpha" operator="arithmetic" k2="-1" k3="1"/>
<feColorMatrix type="matrix" values="0 0 0 0 1 0 0 0 0 1 0 0 0 0 1 0 0 0 0.25 0"/>
<feBlend mode="normal" in2="effect1_innerShadow_242_166578" result="effect2_innerShadow_242_166578"/>
</filter>
<filter id="filter7_ii_242_166578" x="101.506" y="-29.352" width="317.334" height="211.584" filterUnits="userSpaceOnUse" color-interpolation-filters="sRGB">
<feFlood flood-opacity="0" result="BackgroundImageFix"/>
<feBlend mode="normal" in="SourceGraphic" in2="BackgroundImageFix" result="shape"/>
<feColorMatrix in="SourceAlpha" type="matrix" values="0 0 0 0 0 0 0 0 0 0 0 0 0 0 0 0 0 0 127 0" result="hardAlpha"/>
<feOffset dy="-5.24142"/>
<feGaussianBlur stdDeviation="4.19314"/>
<feComposite in2="hardAlpha" operator="arithmetic" k2="-1" k3="1"/>
<feColorMatrix type="matrix" values="0 0 0 0 0 0 0 0 0 0 0 0 0 0 0 0 0 0 0.15 0"/>
<feBlend mode="normal" in2="shape" result="effect1_innerShadow_242_166578"/>
<feColorMatrix in="SourceAlpha" type="matrix" values="0 0 0 0 0 0 0 0 0 0 0 0 0 0 0 0 0 0 127 0" result="hardAlpha"/>
<feOffset dx="25.1588" dy="-29.352"/>
<feGaussianBlur stdDeviation="14.676"/>
<feComposite in2="hardAlpha" operator="arithmetic" k2="-1" k3="1"/>
<feColorMatrix type="matrix" values="0 0 0 0 0 0 0 0 0 0 0 0 0 0 0 0 0 0 0.11 0"/>
<feBlend mode="normal" in2="effect1_innerShadow_242_166578" result="effect2_innerShadow_242_166578"/>
</filter>
<filter id="filter8_ii_242_166578" x="158.751" y="122.284" width="126.029" height="181.819" filterUnits="userSpaceOnUse" color-interpolation-filters="sRGB">
<feFlood flood-opacity="0" result="BackgroundImageFix"/>
<feBlend mode="normal" in="SourceGraphic" in2="BackgroundImageFix" result="shape"/>
<feColorMatrix in="SourceAlpha" type="matrix" values="0 0 0 0 0 0 0 0 0 0 0 0 0 0 0 0 0 0 127 0" result="hardAlpha"/>
<feOffset dy="-5.24142"/>
<feGaussianBlur stdDeviation="4.19314"/>
<feComposite in2="hardAlpha" operator="arithmetic" k2="-1" k3="1"/>
<feColorMatrix type="matrix" values="0 0 0 0 0 0 0 0 0 0 0 0 0 0 0 0 0 0 0.15 0"/>
<feBlend mode="normal" in2="shape" result="effect1_innerShadow_242_166578"/>
<feColorMatrix in="SourceAlpha" type="matrix" values="0 0 0 0 0 0 0 0 0 0 0 0 0 0 0 0 0 0 127 0" result="hardAlpha"/>
<feOffset dx="25.1588" dy="-29.352"/>
<feGaussianBlur stdDeviation="14.676"/>
<feComposite in2="hardAlpha" operator="arithmetic" k2="-1" k3="1"/>
<feColorMatrix type="matrix" values="0 0 0 0 0 0 0 0 0 0 0 0 0 0 0 0 0 0 0.11 0"/>
<feBlend mode="normal" in2="effect1_innerShadow_242_166578" result="effect2_innerShadow_242_166578"/>
</filter>
<filter id="filter9_ii_242_166578" x="261.542" y="291.667" width="212.359" height="166.384" filterUnits="userSpaceOnUse" color-interpolation-filters="sRGB">
<feFlood flood-opacity="0" result="BackgroundImageFix"/>
<feBlend mode="normal" in="SourceGraphic" in2="BackgroundImageFix" result="shape"/>
<feColorMatrix in="SourceAlpha" type="matrix" values="0 0 0 0 0 0 0 0 0 0 0 0 0 0 0 0 0 0 127 0" result="hardAlpha"/>
<feOffset dy="-5.24142"/>
<feGaussianBlur stdDeviation="4.19314"/>
<feComposite in2="hardAlpha" operator="arithmetic" k2="-1" k3="1"/>
<feColorMatrix type="matrix" values="0 0 0 0 0 0 0 0 0 0 0 0 0 0 0 0 0 0 0.15 0"/>
<feBlend mode="normal" in2="shape" result="effect1_innerShadow_242_166578"/>
<feColorMatrix in="SourceAlpha" type="matrix" values="0 0 0 0 0 0 0 0 0 0 0 0 0 0 0 0 0 0 127 0" result="hardAlpha"/>
<feOffset dx="25.1588" dy="-29.352"/>
<feGaussianBlur stdDeviation="14.676"/>
<feComposite in2="hardAlpha" operator="arithmetic" k2="-1" k3="1"/>
<feColorMatrix type="matrix" values="0 0 0 0 0 0 0 0 0 0 0 0 0 0 0 0 0 0 0.11 0"/>
<feBlend mode="normal" in2="effect1_innerShadow_242_166578" result="effect2_innerShadow_242_166578"/>
</filter>
<filter id="filter10_ii_242_166578" x="0.000976562" y="175.597" width="130.188" height="248.014" filterUnits="userSpaceOnUse" color-interpolation-filters="sRGB">
<feFlood flood-opacity="0" result="BackgroundImageFix"/>
<feBlend mode="normal" in="SourceGraphic" in2="BackgroundImageFix" result="shape"/>
<feColorMatrix in="SourceAlpha" type="matrix" values="0 0 0 0 0 0 0 0 0 0 0 0 0 0 0 0 0 0 127 0" result="hardAlpha"/>
<feOffset dy="-5.24142"/>
<feGaussianBlur stdDeviation="4.19314"/>
<feComposite in2="hardAlpha" operator="arithmetic" k2="-1" k3="1"/>
<feColorMatrix type="matrix" values="0 0 0 0 0 0 0 0 0 0 0 0 0 0 0 0 0 0 0.15 0"/>
<feBlend mode="normal" in2="shape" result="effect1_innerShadow_242_166578"/>
<feColorMatrix in="SourceAlpha" type="matrix" values="0 0 0 0 0 0 0 0 0 0 0 0 0 0 0 0 0 0 127 0" result="hardAlpha"/>
<feOffset dx="25.1588" dy="-29.352"/>
<feGaussianBlur stdDeviation="14.676"/>
<feComposite in2="hardAlpha" operator="arithmetic" k2="-1" k3="1"/>
<feColorMatrix type="matrix" values="0 0 0 0 0 0 0 0 0 0 0 0 0 0 0 0 0 0 0.11 0"/>
<feBlend mode="normal" in2="effect1_innerShadow_242_166578" result="effect2_innerShadow_242_166578"/>
</filter>
<filter id="filter11_ii_242_166578" x="295.726" y="479.226" width="41.1637" height="43.2995" filterUnits="userSpaceOnUse" color-interpolation-filters="sRGB">
<feFlood flood-opacity="0" result="BackgroundImageFix"/>
<feBlend mode="normal" in="SourceGraphic" in2="BackgroundImageFix" result="shape"/>
<feColorMatrix in="SourceAlpha" type="matrix" values="0 0 0 0 0 0 0 0 0 0 0 0 0 0 0 0 0 0 127 0" result="hardAlpha"/>
<feOffset dy="-5.24142"/>
<feGaussianBlur stdDeviation="4.19314"/>
<feComposite in2="hardAlpha" operator="arithmetic" k2="-1" k3="1"/>
<feColorMatrix type="matrix" values="0 0 0 0 0 0 0 0 0 0 0 0 0 0 0 0 0 0 0.15 0"/>
<feBlend mode="normal" in2="shape" result="effect1_innerShadow_242_166578"/>
<feColorMatrix in="SourceAlpha" type="matrix" values="0 0 0 0 0 0 0 0 0 0 0 0 0 0 0 0 0 0 127 0" result="hardAlpha"/>
<feOffset dx="25.1588" dy="-29.352"/>
<feGaussianBlur stdDeviation="14.676"/>
<feComposite in2="hardAlpha" operator="arithmetic" k2="-1" k3="1"/>
<feColorMatrix type="matrix" values="0 0 0 0 0 0 0 0 0 0 0 0 0 0 0 0 0 0 0.11 0"/>
<feBlend mode="normal" in2="effect1_innerShadow_242_166578" result="effect2_innerShadow_242_166578"/>
</filter>
<filter id="filter12_ii_242_166578" x="175" y="461.648" width="62.8893" height="64.5899" filterUnits="userSpaceOnUse" color-interpolation-filters="sRGB">
<feFlood flood-opacity="0" result="BackgroundImageFix"/>
<feBlend mode="normal" in="SourceGraphic" in2="BackgroundImageFix" result="shape"/>
<feColorMatrix in="SourceAlpha" type="matrix" values="0 0 0 0 0 0 0 0 0 0 0 0 0 0 0 0 0 0 127 0" result="hardAlpha"/>
<feOffset dy="-5.24142"/>
<feGaussianBlur stdDeviation="4.19314"/>
<feComposite in2="hardAlpha" operator="arithmetic" k2="-1" k3="1"/>
<feColorMatrix type="matrix" values="0 0 0 0 0 0 0 0 0 0 0 0 0 0 0 0 0 0 0.15 0"/>
<feBlend mode="normal" in2="shape" result="effect1_innerShadow_242_166578"/>
<feColorMatrix in="SourceAlpha" type="matrix" values="0 0 0 0 0 0 0 0 0 0 0 0 0 0 0 0 0 0 127 0" result="hardAlpha"/>
<feOffset dx="25.1588" dy="-29.352"/>
<feGaussianBlur stdDeviation="14.676"/>
<feComposite in2="hardAlpha" operator="arithmetic" k2="-1" k3="1"/>
<feColorMatrix type="matrix" values="0 0 0 0 0 0 0 0 0 0 0 0 0 0 0 0 0 0 0.11 0"/>
<feBlend mode="normal" in2="effect1_innerShadow_242_166578" result="effect2_innerShadow_242_166578"/>
</filter>
</defs>
</svg>
