<svg width="610" height="904" viewBox="0 0 610 904" fill="none" xmlns="http://www.w3.org/2000/svg">
<path opacity="0.3" d="M80.985 823.015C188.965 930.995 364.035 930.995 472.015 823.015C579.995 715.035 579.995 539.965 472.015 431.985C364.035 324.005 188.965 324.005 80.985 431.985C-26.995 539.965 -26.995 715.035 80.985 823.015Z" fill="black" fill-opacity="0.12"/>
<path d="M161.595 742.405C225.055 805.865 327.945 805.865 391.405 742.405C454.865 678.945 454.865 576.055 391.405 512.595C327.945 449.135 225.055 449.135 161.595 512.595C98.1349 576.055 98.1349 678.945 161.595 742.405Z" fill="black" fill-opacity="0.12"/>
<path d="M205.582 699.418C245.025 738.861 308.975 738.861 348.418 699.418C387.861 659.975 387.861 596.025 348.418 556.582C308.975 517.139 245.025 517.139 205.582 556.582C166.139 596.025 166.139 659.975 205.582 699.418Z" fill="black" fill-opacity="0.2"/>
<path fill-rule="evenodd" clip-rule="evenodd" d="M211.786 630.866C195.571 630.835 182.451 625.504 182.451 618.933C182.451 612.343 195.65 607 211.933 607C225.394 607 236.748 610.652 240.278 615.641C251.042 612.7 263.772 611 277.415 611C300.268 611 320.564 615.772 333.34 623.154C334.567 623.189 335.814 623.257 337.076 623.358C353.279 624.661 365.765 631.033 364.963 637.592C364.373 642.426 356.729 646.011 346.262 647.041C340.281 661.24 311.731 672 277.415 672C263.362 672 250.277 670.196 239.312 667.09C236.734 671.704 229.918 675 221.915 675C211.697 675 203.415 669.627 203.415 663C203.415 658.651 206.981 654.843 212.319 652.738C209.154 649.26 207.415 645.469 207.415 641.5C207.415 637.76 208.959 634.177 211.786 630.866ZM323.415 673C323.415 679.627 332.145 685 342.915 685C353.684 685 362.415 679.627 362.415 673C362.415 666.372 353.684 661 342.915 661C332.145 661 323.415 666.372 323.415 673Z" fill="black" fill-opacity="0.2"/>
<ellipse cx="53.5" cy="34.5" rx="53.5" ry="34.5" transform="matrix(-1 0 0 1 333.414 599)" fill="black" fill-opacity="0.2"/>
<g filter="url(#filter0_i_242_165982)">
<path d="M252.84 605.75C262.273 605.75 264.631 596.126 264.631 591.314C268.955 611.203 275.48 650.981 266.99 650.981C256.377 650.981 223.361 628.847 219.823 625.96C215.264 622.239 210.687 626.46 201.842 625.96C192.998 625.459 187.101 621.148 187.101 616.374C187.101 611.601 191.524 594.894 209.213 594.894C234.273 594.894 241.048 605.75 252.84 605.75Z" fill="#82644D"/>
</g>
<g filter="url(#filter1_i_242_165982)">
<path d="M315.946 598.431L318.297 638.208C336.725 633.617 327.889 644.477 356.555 640.718C358.802 640.424 360.799 638.966 361.451 636.796C367.96 615.14 343.718 593.141 315.946 598.431Z" fill="#82644D"/>
</g>
<path opacity="0.1" d="M214.715 604.986C219.21 606.533 222.824 609.456 224.551 606.169C226.277 602.882 223.636 600.566 219.14 599.019C214.645 597.472 209.998 597.279 208.272 600.566C206.546 603.853 210.22 603.439 214.715 604.986Z" fill="#E2E8F0"/>
<g filter="url(#filter2_ii_242_165982)">
<path d="M323 438H230V616.5C230 642.181 250.819 663 276.5 663C302.181 663 323 642.181 323 616.5V438Z" fill="#82644D"/>
</g>
<path opacity="0.1" d="M335.59 619.306C340.085 620.853 343.699 623.776 345.426 620.489C347.152 617.202 344.511 614.887 340.015 613.339C335.52 611.792 330.873 611.599 329.147 614.886C327.421 618.173 331.095 617.759 335.59 619.306Z" fill="#E2E8F0"/>
<path opacity="0.1" d="M244 590.571C244 598.027 246.962 606 253.323 606C259.683 606 261 599.956 261 592.5C261 585.044 259.683 579 253.323 579C246.962 579 244 583.116 244 590.571Z" fill="black"/>
<path opacity="0.1" d="M244 639C244 648.665 249.402 659 261 659C272.598 659 272 653.665 272 644C272 634.335 263.598 623 252 623C240.402 623 244 629.335 244 639Z" fill="black"/>
<path opacity="0.1" d="M251.414 545.176C251.414 550.407 255.005 556 262.716 556C277.347 556 274.115 533 261.718 533C254.008 533 251.414 539.946 251.414 545.176Z" fill="black"/>
<path opacity="0.1" d="M295.777 586.16C295.777 590.773 299.373 595.707 307.094 595.707C314.815 595.707 316.414 591.967 316.414 587.353C316.414 582.74 314.815 579 307.094 579C299.373 579 295.777 581.547 295.777 586.16Z" fill="black"/>
<g filter="url(#filter3_i_242_165982)">
<path d="M334.356 635.807C327.377 633.925 320.401 623.872 317.765 614.439C316.644 610.425 313.437 606.801 309.283 607.129C273.339 609.962 280.514 658.695 291.602 662.061C303.396 665.641 315.193 666.834 322.563 669.221C329.932 671.608 329.932 679.961 337.304 681.154C344.675 682.348 359.414 681.154 359.414 669.221C359.414 657.288 343.202 638.193 334.356 635.807Z" fill="#82644D"/>
</g>
<path opacity="0.1" d="M310.138 623.532C314.194 627.947 316.114 634.123 310.926 637.246C305.739 640.369 301.377 637.437 297.321 633.022C293.265 628.607 291.052 624.382 296.24 621.259C301.427 618.135 306.082 619.118 310.138 623.532Z" fill="black"/>
<g filter="url(#filter4_i_242_165982)">
<path d="M225.653 640.375C231.763 638.77 237.871 628.336 237.872 621.113C268.414 618.705 263.327 655.625 255.182 658.033C247.036 660.441 238.888 661.243 233.799 662.849C228.709 664.454 228.709 670.072 223.618 670.875C218.526 671.677 208.347 670.875 208.347 662.849C208.347 654.823 219.544 641.98 225.653 640.375Z" fill="#82644D"/>
</g>
<path opacity="0.1" d="M236.234 636.316C233.477 639.316 232.172 643.514 235.698 645.637C239.224 647.76 242.189 645.767 244.946 642.766C247.703 639.765 249.207 636.893 245.681 634.77C242.155 632.647 238.991 633.315 236.234 636.316Z" fill="black"/>
<path d="M230 436.254C230 460.399 250.819 474.507 276.5 474.507C302.181 474.507 323 460.399 323 436.254C323 412.109 302.181 398 276.5 398C250.819 398 230 412.109 230 436.254Z" fill="#C8A078"/>
<path fill-rule="evenodd" clip-rule="evenodd" d="M302.483 415.598C309.027 420.417 313.035 427.408 313.035 436.254C313.035 445.1 309.027 452.09 302.483 456.909C295.907 461.752 286.736 464.416 276.5 464.416C266.263 464.416 257.092 461.752 250.516 456.909C243.972 452.09 239.964 445.1 239.964 436.254C239.964 427.408 243.972 420.417 250.516 415.598C257.092 410.756 266.263 408.091 276.5 408.091C286.736 408.091 295.907 410.756 302.483 415.598ZM303.947 413.553C296.849 408.326 287.129 405.564 276.5 405.564C265.87 405.564 256.151 408.326 249.053 413.553C241.922 418.804 237.473 426.527 237.473 436.254C237.473 445.981 241.922 453.703 249.053 458.954C256.151 464.181 265.87 466.943 276.5 466.943C287.129 466.943 296.849 464.181 303.947 458.954C311.077 453.703 315.526 445.981 315.526 436.254C315.526 426.527 311.077 418.804 303.947 413.553Z" fill="#9A7858"/>
<path fill-rule="evenodd" clip-rule="evenodd" d="M292.22 424.278C296.135 427.089 298.504 431.136 298.504 436.254C298.504 441.371 296.135 445.418 292.22 448.229C288.272 451.063 282.73 452.646 276.5 452.646C270.269 452.646 264.727 451.063 260.779 448.229C256.864 445.418 254.495 441.371 254.495 436.254C254.495 431.136 256.864 427.089 260.779 424.278C264.727 421.444 270.269 419.862 276.5 419.862C282.73 419.862 288.272 421.444 292.22 424.278ZM293.659 422.216C289.192 419.008 283.11 417.335 276.5 417.335C269.889 417.335 263.807 419.008 259.34 422.216C254.84 425.446 252.004 430.227 252.004 436.254C252.004 442.28 254.84 447.061 259.34 450.292C263.807 453.499 269.889 455.173 276.5 455.173C283.11 455.173 289.192 453.499 293.659 450.292C298.159 447.061 300.995 442.28 300.995 436.254C300.995 430.227 298.159 425.446 293.659 422.216Z" fill="#9A7858"/>
<path fill-rule="evenodd" clip-rule="evenodd" d="M281.896 430.356C283.182 431.382 283.974 432.859 283.974 434.782C283.974 436.705 283.182 438.182 281.896 439.209C280.582 440.257 278.691 440.875 276.501 440.875C274.31 440.875 272.42 440.257 271.105 439.209C269.819 438.182 269.027 436.705 269.027 434.782C269.027 432.859 269.819 431.382 271.105 430.356C272.42 429.308 274.31 428.689 276.501 428.689C278.691 428.689 280.582 429.308 281.896 430.356ZM283.436 428.37C281.594 426.901 279.126 426.162 276.501 426.162C273.875 426.162 271.407 426.901 269.566 428.37C267.696 429.861 266.536 432.062 266.536 434.782C266.536 437.503 267.696 439.704 269.566 441.195C271.407 442.664 273.875 443.402 276.501 443.402C279.126 443.402 281.594 442.664 283.436 441.195C285.305 439.704 286.465 437.503 286.465 434.782C286.465 432.062 285.305 429.861 283.436 428.37Z" fill="#9A7858"/>
<path fill-rule="evenodd" clip-rule="evenodd" d="M278.216 434.963C278.217 434.963 278.213 434.958 278.202 434.947C278.209 434.958 278.215 434.963 278.216 434.963ZM277.884 434.782C277.568 434.663 277.092 434.575 276.5 434.575C275.907 434.575 275.432 434.663 275.115 434.782C275.432 434.901 275.907 434.99 276.5 434.99C277.092 434.99 277.568 434.901 277.884 434.782ZM274.783 434.963C274.784 434.963 274.79 434.958 274.798 434.947C274.786 434.958 274.782 434.963 274.783 434.963ZM274.798 434.617C274.79 434.606 274.784 434.601 274.783 434.601C274.782 434.602 274.786 434.607 274.798 434.617ZM278.202 434.617C278.213 434.607 278.217 434.602 278.216 434.601C278.215 434.601 278.209 434.606 278.202 434.617ZM279.086 432.556C278.342 432.199 277.417 432.047 276.5 432.047C275.582 432.047 274.658 432.199 273.913 432.556C273.191 432.901 272.348 433.608 272.348 434.782C272.348 435.957 273.191 436.663 273.913 437.009C274.658 437.365 275.582 437.517 276.5 437.517C277.417 437.517 278.342 437.365 279.086 437.009C279.808 436.663 280.651 435.957 280.651 434.782C280.651 433.608 279.808 432.901 279.086 432.556Z" fill="#9A7858"/>
<path d="M230.19 587.081C234.383 591.799 221.279 602.806 216.562 597.564C210.313 590.621 224.451 580.626 230.19 587.081Z" fill="black" fill-opacity="0.12"/>
<g filter="url(#filter5_ii_242_165982)">
<path d="M230.19 639.081C234.383 643.799 221.279 654.806 216.562 649.564C210.313 642.621 224.451 632.626 230.19 639.081Z" fill="#E2E8F0"/>
</g>
<path d="M347.458 602.668C351.127 600.047 356.368 594.806 343.789 579.606C327.54 559.972 305.22 567.791 317.582 590.613C324.395 603.192 343.789 605.289 347.458 602.668Z" fill="black" fill-opacity="0.12"/>
<g filter="url(#filter6_ii_242_165982)">
<path d="M347.458 653.668C351.127 651.047 356.368 645.806 343.789 630.606C327.54 610.972 305.22 618.791 317.582 641.613C324.395 654.192 343.789 656.289 347.458 653.668Z" fill="#E2E8F0"/>
</g>
<g filter="url(#filter7_i_242_165982)">
<path d="M234.151 534.287C246.293 529.108 236.758 493.272 230.439 485.63C224.12 477.989 206.98 492.129 184.046 485.63C159.088 478.558 166.607 464.398 149.743 452.451L109.113 428C106.948 431.704 136.699 469.566 141.897 485.63C149.565 511.912 172.344 539.844 234.151 534.287Z" fill="#82644D"/>
</g>
<g filter="url(#filter8_i_242_165982)">
<path d="M323.145 532.423C308.462 532.423 295.839 524.131 295.839 529.216C289.109 508.196 284.031 482.721 297.245 482.721C313.764 482.721 365.154 506.115 370.66 509.167C377.756 513.099 387.175 514.253 398.647 509.167C414.209 490.989 448.453 466.148 445.305 456L469.737 456C473.762 475.667 430.455 506.236 424.466 519.062C420.724 527.079 414.709 542 387.175 542C348.17 542 341.499 532.423 323.145 532.423Z" fill="#82644D"/>
</g>
<path opacity="0.1" d="M355.208 514.137C355.208 518.092 357.263 522.32 361.675 522.32C366.087 522.32 367.001 519.114 367.001 515.16C367.001 511.206 366.087 508 361.675 508C357.263 508 355.208 510.183 355.208 514.137Z" fill="#E2E8F0"/>
<path opacity="0.1" d="M330.388 512.806C325.892 511.259 322.278 508.336 320.552 511.623C318.825 514.91 321.467 517.226 325.962 518.773C330.457 520.32 335.104 520.513 336.831 517.226C338.557 513.939 334.883 514.354 330.388 512.806Z" fill="#E2E8F0"/>
<path opacity="0.1" d="M197.418 513.354C192.923 511.807 189.308 508.884 187.582 512.171C185.856 515.458 188.497 517.774 192.992 519.321C197.488 520.868 202.134 521.061 203.861 517.774C205.587 514.487 201.913 514.901 197.418 513.354Z" fill="#E2E8F0"/>
<g filter="url(#filter9_i_242_165982)">
<path d="M324.501 513C310.645 520.058 309.563 539 297.501 541C277.501 544.316 285.253 488.361 295.021 487.325C304.79 486.289 300.939 488.266 307.083 487.473C313.227 486.681 315.467 478.581 321.293 478.947C327.119 479.312 357.379 459.822 354.18 471.393C350.98 482.964 338.358 505.942 324.501 513Z" fill="#82644D"/>
</g>
<g filter="url(#filter10_ii_242_165982)">
<path fill-rule="evenodd" clip-rule="evenodd" d="M210.791 222.753C217.224 222.753 223.372 224.025 229.019 226.341C238.126 213.593 252.669 205.34 269.056 205.34C286.742 205.34 302.281 214.953 311.155 229.456C318.392 225.188 326.75 222.753 335.651 222.753C360.605 222.753 381.284 241.891 384.999 266.897C408.911 270.782 427.212 292.407 427.212 318.502C427.212 322.074 426.869 325.563 426.216 328.933C437.223 342.57 443.856 360.191 443.856 379.433C443.856 414.205 422.193 443.685 392.211 453.921C386.503 476.193 367.066 492.592 343.967 492.592C336.896 492.592 330.167 491.054 324.07 488.282C309.403 501.8 290.147 510 269.06 510C249.146 510 230.866 502.687 216.54 490.489C212.077 491.858 207.354 492.592 202.467 492.592C179.368 492.592 159.931 476.191 154.223 453.918C124.245 443.68 102.586 414.202 102.586 379.433C102.586 360.191 109.22 342.57 120.226 328.933C119.573 325.563 119.23 322.074 119.23 318.502C119.23 292.407 137.531 270.782 161.443 266.897C165.158 241.891 185.838 222.753 210.791 222.753Z" fill="#14B8A6"/>
</g>
<path d="M268.5 515C239.616 515 224.398 455.365 223 420.073C254.449 395.753 305.29 402.951 326.78 409.59C327.828 427.586 332.588 472.487 310.008 472.487C290.614 472.487 283.7 515 268.5 515Z" fill="black" fill-opacity="0.12"/>
<g filter="url(#filter11_ii_242_165982)">
<path d="M262.835 523.715C233.951 523.715 224.398 447.365 223 412.073C254.449 387.753 305.29 394.951 326.78 401.59C327.828 419.586 332.588 464.487 310.008 464.487C290.614 464.487 278.035 523.715 262.835 523.715Z" fill="#E2E8F0"/>
</g>
<path fill-rule="evenodd" clip-rule="evenodd" d="M211.184 191.445C217.581 191.445 223.695 192.58 229.309 194.646C238.351 183.326 252.78 176 269.035 176C286.585 176 302.004 184.539 310.817 197.423C318.01 193.617 326.319 191.445 335.169 191.445C359.95 191.445 380.484 208.471 384.165 230.713C407.905 234.169 426.073 253.397 426.073 276.599C426.073 279.218 425.842 281.785 425.397 284.286C439.36 295.699 448.007 311.518 448.007 329C448.007 350.824 434.532 370.056 414.06 381.362C406.409 405.38 381.263 423 351.422 423C346.341 423 341.396 422.489 336.65 421.523C319.957 437.12 295.863 446.914 269.073 446.914C242.937 446.914 219.368 437.593 202.733 422.656C200.375 422.883 197.979 423 195.551 423C163.531 423 136.917 402.713 131.523 376.002C111.287 364.651 98.0124 345.594 98.0124 324C98.0124 306.678 106.554 290.989 120.379 279.6C120.311 278.608 120.277 277.607 120.277 276.599C120.277 253.395 138.447 234.166 162.188 230.713C165.87 208.47 186.404 191.445 211.184 191.445Z" fill="black" fill-opacity="0.12"/>
<g filter="url(#filter12_ii_242_165982)">
<path fill-rule="evenodd" clip-rule="evenodd" d="M201.226 105.076C208.645 105.076 215.737 106.543 222.25 109.215C232.752 94.5158 249.522 85 268.418 85C288.812 85 306.73 96.0844 316.964 112.806C325.31 107.884 334.948 105.076 345.213 105.076C373.99 105.076 397.838 127.147 402.122 155.984C429.698 160.464 450.803 185.403 450.803 215.496C450.803 219.614 450.408 223.635 449.655 227.521C462.35 243.247 470.001 263.57 470.001 285.762C470.001 325.86 445.02 359.856 410.446 371.661C403.863 397.346 381.449 416.258 354.81 416.258C346.654 416.258 338.894 414.485 331.863 411.288C314.947 426.878 292.74 436.335 268.42 436.335C245.455 436.335 224.373 427.902 207.853 413.835C202.706 415.412 197.26 416.258 191.626 416.258C164.987 416.258 142.572 397.346 135.99 371.66C101.417 359.854 76.438 325.858 76.438 285.762C76.438 263.57 84.0894 243.247 96.7838 227.521C96.0309 223.635 95.6357 219.614 95.6357 215.496C95.6357 185.403 116.741 160.464 144.317 155.984C148.601 127.147 172.449 105.076 201.226 105.076Z" fill="#14B8A6"/>
</g>
<path d="M149.532 358.866C161.613 370.647 174.178 347.719 179.482 334.133C180.825 330.691 177.785 327.674 174.352 329.044C157.442 335.796 140.514 350.07 149.532 358.866Z" fill="black" fill-opacity="0.12"/>
<path d="M288.623 349.548C283.858 345.76 254.295 364.342 268.789 376.77C278.823 385.373 293.483 359.367 288.623 349.548Z" fill="white" fill-opacity="0.2"/>
<path d="M464.479 277.278C471.992 271.129 461.615 262.723 453.467 257.964C450.275 256.1 446.997 258.72 448.195 262.215C451.702 272.453 458.777 281.944 464.479 277.278Z" fill="white" fill-opacity="0.2"/>
<path d="M73.9998 287.5C71.4839 255.213 78.5796 228.761 87.3153 219.327C120.336 192.071 195.813 273.313 214.158 301.093C232.503 328.872 232.503 405.397 209.441 404.873C186.378 404.349 184.806 362.942 180.089 345.645C175.371 328.348 159.647 341.976 148.64 336.735C137.633 331.493 138.681 313.148 116.667 323.107C94.6533 333.066 77.1446 327.859 73.9998 287.5Z" fill="black" fill-opacity="0.12"/>
<g filter="url(#filter13_ii_242_165982)">
<path d="M64.2533 279.989C61.7375 247.702 78.5799 220.761 87.3156 211.327C120.337 184.071 195.813 265.313 214.158 293.093C232.503 320.872 232.503 397.397 209.441 396.873C186.379 396.349 184.806 354.942 180.089 337.645C175.372 320.348 159.647 333.976 148.64 328.735C137.633 323.493 138.682 305.148 116.668 315.107C94.6536 325.066 67.3982 320.348 64.2533 279.989Z" fill="#E2E8F0"/>
</g>
<path fill-rule="evenodd" clip-rule="evenodd" d="M209.201 92.1537C215.803 92.1537 222.112 93.2884 227.906 95.3547C237.237 84.0342 252.127 76.707 268.903 76.707C287.013 76.707 302.926 85.2465 312.019 98.131C319.442 94.3255 328.016 92.1537 337.149 92.1537C362.719 92.1537 383.909 109.178 387.709 131.42C412.206 134.875 430.955 154.104 430.955 177.306C430.955 180.483 430.603 183.585 429.934 186.583C441.21 198.708 448.007 214.377 448.007 231.487C448.007 261.565 427.002 287.192 397.578 296.941C390.085 315.064 369.664 328.067 345.647 328.067C339.611 328.067 333.802 327.245 328.368 325.728C313.01 339.277 292.047 347.62 268.937 347.62C246.429 347.62 225.958 339.706 210.718 326.776C206.572 327.62 202.243 328.067 197.791 328.067C173.244 328.067 152.453 314.484 145.382 295.734C117.748 285.195 98.3428 260.397 98.3428 231.487C98.3428 214.379 105.138 198.711 116.413 186.586C115.743 183.587 115.391 180.484 115.391 177.306C115.391 154.102 134.142 134.873 158.641 131.42C162.441 109.178 183.63 92.1537 209.201 92.1537Z" fill="black" fill-opacity="0.12"/>
<g filter="url(#filter14_ii_242_165982)">
<path fill-rule="evenodd" clip-rule="evenodd" d="M206.979 49.7695C213.811 49.7695 220.341 51.0456 226.337 53.3694C235.992 40.6478 251.396 32.4141 268.751 32.4141C287.487 32.4141 303.95 42.0103 313.359 56.4895C321.04 52.2111 329.912 49.7695 339.363 49.7695C365.822 49.7695 387.747 68.907 391.676 93.9085C417.024 97.7908 436.423 119.403 436.423 145.483C436.423 149.054 436.06 152.54 435.367 155.909C447.034 169.538 454.065 187.149 454.065 206.379C454.065 241.144 431.083 270.617 399.281 280.835C393.209 303.063 372.621 319.423 348.158 319.423C340.698 319.423 333.598 317.901 327.161 315.156C311.605 328.697 291.169 336.914 268.787 336.914C247.631 336.914 228.215 329.573 213.014 317.334C208.295 318.693 203.303 319.423 198.139 319.423C173.67 319.423 153.078 303.055 147.012 280.819C115.235 270.587 92.2759 241.127 92.2759 206.379C92.2759 187.149 99.3077 169.538 110.974 155.909C110.282 152.54 109.918 149.054 109.918 145.483C109.918 119.403 129.318 97.7908 154.666 93.9085C158.595 68.907 180.52 49.7695 206.979 49.7695Z" fill="#14B8A6"/>
</g>
<path d="M183.137 267.073C197.917 273.878 202.317 250.119 203.015 235.343C203.224 230.914 198.614 228.732 195.349 231.734C182.233 243.791 172.028 261.958 183.137 267.073Z" fill="black" fill-opacity="0.12"/>
<path d="M341.969 212.548C346.733 208.76 376.297 227.342 361.802 239.77C351.768 248.373 337.109 222.367 341.969 212.548Z" fill="white" fill-opacity="0.2"/>
<path d="M138.384 91.0254C165.22 54.9644 213.161 51.8895 233.778 54.8596C283.047 88.9288 230.109 246.172 199.184 239.358C168.26 232.544 188.177 175.412 170.881 167.026C153.584 158.64 142.577 175.412 123.708 172.792C104.839 170.171 104.839 136.102 138.384 91.0254Z" fill="black" fill-opacity="0.12"/>
<g filter="url(#filter15_ii_242_165982)">
<path d="M136.384 84.0254C163.22 47.9644 211.161 44.8895 231.778 47.8596C281.047 81.9288 228.109 239.172 197.184 232.358C166.26 225.544 186.177 168.412 168.881 160.026C151.584 151.64 140.577 168.412 121.708 165.792C102.839 163.171 102.839 129.102 136.384 84.0254Z" fill="#E2E8F0"/>
</g>
<path d="M451.5 202.5C451.919 160.149 439 114.643 418.108 114.643C380.894 114.643 364.645 162.34 375.128 183.83C385.611 205.32 408.149 185.926 421.777 219.996C435.404 254.065 450.976 255.438 451.5 202.5Z" fill="black" fill-opacity="0.12"/>
<g filter="url(#filter16_ii_242_165982)">
<path d="M459.846 200.844C460.265 158.493 443 109.643 422.108 109.643C384.894 109.643 368.645 157.34 379.128 178.83C389.611 200.32 412.149 180.926 425.777 214.996C439.404 249.065 459.322 253.782 459.846 200.844Z" fill="#E2E8F0"/>
</g>
<g filter="url(#filter17_ii_242_165982)">
<path d="M306.176 337.645C296.218 351.797 275.252 347.079 270.535 328.21C255.756 269.096 351.831 222.928 382.177 278.417C393.184 305.672 364.356 337.645 340.246 328.21C322.647 321.324 316.135 323.493 306.176 337.645Z" fill="#E2E8F0"/>
</g>
<path fill-rule="evenodd" clip-rule="evenodd" d="M339.945 144.655C354.869 139.684 365.582 126.074 365.582 110.064C365.582 89.8465 348.499 73.457 327.426 73.457C325.241 73.457 323.099 73.6333 321.014 73.9717C314.412 54.5911 295.414 40.5898 273.008 40.5898C250.591 40.5898 231.586 54.6047 224.993 73.9998C222.854 73.643 220.654 73.457 218.41 73.457C197.337 73.457 180.254 89.8465 180.254 110.064C180.254 126.148 191.066 139.809 206.097 144.723C214.682 173.22 241.391 194 273.011 194C304.656 194 331.383 173.187 339.945 144.655Z" fill="black" fill-opacity="0.12"/>
<g filter="url(#filter18_i_242_165982)">
<path fill-rule="evenodd" clip-rule="evenodd" d="M335.778 136.568C353.93 133.069 367.681 116.434 367.681 96.4404C367.681 73.9045 350.211 55.6355 328.66 55.6355C326.426 55.6355 324.235 55.8319 322.104 56.2091C315.352 34.6064 295.924 19 273.011 19C250.086 19 230.65 34.6217 223.907 56.2408C221.72 55.8429 219.47 55.6355 217.174 55.6355C195.624 55.6355 178.154 73.9045 178.154 96.4404C178.154 116.506 192.004 133.189 210.253 136.605C217.756 165.068 243.011 186 273.011 186C303.023 186 328.287 165.05 335.778 136.568Z" fill="#14B8A6"/>
</g>
<path d="M318.721 116.385C332.927 109.477 321.534 99.623 312.316 93.6304C308.832 91.3651 304.236 93.5848 304.044 97.7348C303.404 111.601 307.832 121.68 318.721 116.385Z" fill="black" fill-opacity="0.12"/>
<path d="M251.442 54.8905C245.99 41.0531 235.543 38.8552 231 42C231 -21.0844 312.722 -2.76495 327.442 54.8906C333.464 78.477 310.145 94.7253 298.614 82.1459C286.82 69.279 281.842 79.5252 273.456 79.5252C260.352 79.5252 258.255 72.1872 251.442 54.8905Z" fill="black" fill-opacity="0.12"/>
<g filter="url(#filter19_ii_242_165982)">
<path d="M251.442 49.8905C245.99 36.0531 235.543 38.8835 231 42.0283C231 -21.0561 312.722 -7.76498 327.442 49.8906C333.464 73.477 310.145 89.7252 298.614 77.1459C286.82 64.279 281.842 74.5252 273.456 74.5252C260.352 74.5252 258.255 67.1872 251.442 49.8905Z" fill="#E2E8F0"/>
</g>
<g filter="url(#filter20_i_242_165982)">
<path d="M516 326.494C511.002 326.494 506.236 327.483 501.892 329.274C495.21 320.109 484.34 314.146 472.065 314.146C458.982 314.146 447.494 320.921 440.974 331.127C435.664 328.176 429.541 326.494 423.022 326.494C404.677 326.494 389.469 339.814 386.692 357.234C369.073 359.942 355.587 375.051 355.587 393.285C355.587 395.913 355.867 398.477 356.4 400.949C348.245 410.536 343.326 422.947 343.326 436.502C343.326 460.873 359.226 481.543 381.248 488.763C385.304 504.537 399.724 516.202 416.891 516.202C422.073 516.202 427.005 515.139 431.477 513.221C442.288 522.76 456.499 528.549 472.065 528.549C486.902 528.549 500.508 523.29 511.112 514.537C514.591 515.618 518.292 516.202 522.131 516.202C539.297 516.202 553.718 504.537 557.774 488.763C579.796 481.543 595.696 460.873 595.696 436.502C595.696 422.947 590.777 410.536 582.622 400.949C583.155 398.477 583.435 395.913 583.435 393.285C583.435 375.051 569.948 359.942 552.33 357.234C549.553 339.814 534.345 326.494 516 326.494Z" fill="#14B8A6"/>
</g>
<path d="M498.5 484.5C504.037 458.293 533.158 487.072 536.628 456.938C539.182 434.756 593.864 443.232 586 395C585.022 389.007 581.5 382.5 576 378.5C556.862 388.616 410.938 385.268 397 423.5C388.5 466 436.003 472.843 446 499.5C461 539.5 485.324 546.854 498.5 484.5Z" fill="black" fill-opacity="0.12"/>
<g filter="url(#filter21_ii_242_165982)">
<path d="M498.5 477.5C504.037 451.293 533.158 480.072 536.628 449.938C539.182 427.756 593.864 436.232 586 388C585.022 382.007 581.5 375.5 576 371.5C556.862 381.616 410.938 378.268 397 416.5C388.5 459 438.54 465.025 446 492.5C466.5 568 485.324 539.854 498.5 477.5Z" fill="#E2E8F0"/>
</g>
<path d="M435.609 300.453C443.774 285.138 458.882 274.858 476.169 274.858C492.27 274.858 506.48 283.776 514.951 297.372H519.09C546.743 297.372 569.16 322.069 569.16 352.533C569.16 356.522 568.775 360.412 568.045 364.16C576.72 373.01 580.617 387.083 576.951 399.958L574.811 407.475C569.997 424.382 553.963 432.821 538.999 426.323C537.057 425.48 535.227 424.426 533.526 423.194L532.9 425.392C524.707 454.165 497.422 468.525 471.957 457.468C468.22 455.845 464.729 453.764 461.519 451.305C457.232 453.203 452.639 454.461 447.829 454.959L441.72 455.593C419.836 457.862 400.256 443.727 392.81 422.328H392.373C373.186 422.328 357.631 405.192 357.631 384.054C357.631 369.886 364.618 357.517 375.003 350.899V346.907C375.003 319.55 395.133 297.372 419.965 297.372C425.467 297.372 430.737 298.461 435.609 300.453Z" fill="black" fill-opacity="0.12"/>
<g filter="url(#filter22_i_242_165982)">
<path d="M435.604 292.593C443.769 277.28 458.876 267 476.162 267C492.262 267 506.471 275.917 514.942 289.513H518.059C545.71 289.513 568.126 314.208 568.126 344.671C568.126 348.694 567.735 352.617 566.993 356.395C576.398 365.388 580.758 380.241 576.956 393.763L574.84 401.29C569.999 418.512 553.753 427.054 538.554 420.37C535.775 419.147 533.224 417.501 530.939 415.521C522.247 442.669 496.04 455.883 471.483 445.083C468.451 443.75 465.582 442.111 462.896 440.21C458.082 442.637 452.84 444.232 447.308 444.814L441.201 445.456C420.19 447.665 401.34 434.583 393.531 414.462H392.371C373.185 414.462 357.631 397.327 357.631 376.189C357.631 362.023 364.617 349.654 375.002 343.037V339.045C375.002 311.689 395.131 289.513 419.962 289.513C425.463 289.513 430.733 290.602 435.604 292.593Z" fill="#14B8A6"/>
</g>
<path d="M544.559 442.502C546.338 438.29 569.905 440.841 564.761 454.27C561.2 463.566 544.516 450.856 544.559 442.502Z" fill="white" fill-opacity="0.2"/>
<path d="M449.937 365.671C444.565 367.428 423.107 374.12 433.727 384.328C441.079 391.395 447.588 379.946 449.937 365.671Z" fill="black" fill-opacity="0.12"/>
<path d="M516.418 495.2C506.556 500.234 503.594 482.456 503.117 471.504C502.982 468.423 506.155 466.846 508.235 468.979C516.982 477.951 523.799 491.433 516.418 495.2Z" fill="black" fill-opacity="0.12"/>
<path d="M402.083 324.902C397.199 320.545 404.289 314.244 409.723 310.696C411.749 309.373 413.819 311.208 413.025 313.65C410.589 321.141 405.778 328.198 402.083 324.902Z" fill="white" fill-opacity="0.2"/>
<path d="M495.373 333.241C497.153 329.029 520.719 331.58 515.575 345.009C512.014 354.305 495.331 341.595 495.373 333.241Z" fill="white" fill-opacity="0.2"/>
<path d="M433.968 510.509C423.008 508.278 424.371 498.374 430.195 490.805C432.137 488.281 435.998 490.128 436.616 493.382C438.39 502.712 441.398 512.022 433.968 510.509Z" fill="black" fill-opacity="0.12"/>
<path d="M507.835 272.557C493.997 262.493 475.513 263.307 468 267.5C473 272.557 476.91 294.346 491.062 302.433C516.745 317.109 525.132 285.136 507.835 272.557Z" fill="black" fill-opacity="0.12"/>
<g filter="url(#filter23_ii_242_165982)">
<path d="M507.835 267.557C493.997 257.493 475.513 263.363 468 267.557C476.386 273.322 476.91 289.346 491.062 297.433C516.745 312.109 525.132 280.136 507.835 267.557Z" fill="#E2E8F0"/>
</g>
<path d="M477.301 340.5C479.278 350.606 492.828 345.616 495.646 367.755C502.984 425.411 556.125 408.081 539.149 359.369C524.719 317.962 472.583 316.39 477.301 340.5Z" fill="black" fill-opacity="0.12"/>
<g filter="url(#filter24_ii_242_165982)">
<path d="M477.301 334.5C479.278 344.606 492.828 339.616 495.646 361.755C502.984 419.411 556.125 402.081 539.149 353.369C524.719 311.962 472.583 310.39 477.301 334.5Z" fill="#E2E8F0"/>
</g>
<g filter="url(#filter25_i_242_165982)">
<path d="M73.3328 390.601C77.2322 390.601 80.95 391.409 84.3394 392.872C89.5521 385.385 98.0324 380.514 107.608 380.514C117.815 380.514 126.777 386.048 131.864 394.385C136.006 391.975 140.783 390.601 145.869 390.601C160.181 390.601 172.045 401.482 174.211 415.712C187.956 417.924 198.478 430.267 198.478 445.162C198.478 447.31 198.259 449.404 197.844 451.423C204.206 459.255 208.043 469.393 208.043 480.466C208.043 500.375 195.639 517.26 178.459 523.159C175.294 536.044 164.044 545.573 150.652 545.573C146.609 545.573 142.762 544.705 139.273 543.138C130.838 550.931 119.752 555.66 107.608 555.66C96.0334 555.66 85.4189 551.363 77.1459 544.213C74.4321 545.097 71.5447 545.573 68.5502 545.573C55.1575 545.573 43.9078 536.044 40.7432 523.159C23.5627 517.26 11.1589 500.375 11.1589 480.466C11.1589 469.393 14.9962 459.255 21.3584 451.423C20.9428 449.404 20.7241 447.31 20.7241 445.162C20.7241 430.267 31.2454 417.924 44.9906 415.712C47.1568 401.482 59.0213 390.601 73.3328 390.601Z" fill="#14B8A6"/>
</g>
<g filter="url(#filter26_ii_242_165982)">
<path d="M32.6427 505.888C32.6427 495.396 35.9622 485.446 37.3599 481.777C39.398 474.304 10.0121 474.963 13.2494 511.653C14.2256 522.717 32.6427 528.95 32.6427 505.888Z" fill="#E2E8F0"/>
</g>
<path d="M147.869 512.943C147.869 489.042 135.29 484.115 129 484.639C143.676 452.771 178.444 439.912 193.994 437.466C217 482 186.132 476.777 185.083 499.839C184.035 522.902 186.176 540.403 171.5 542.5C156.824 544.597 147.869 542.819 147.869 512.943Z" fill="black" fill-opacity="0.12"/>
<g filter="url(#filter27_ii_242_165982)">
<path d="M150.869 506.943C150.869 483.042 138.29 478.115 132 478.639C146.676 446.771 181.444 433.912 196.994 431.466C212.194 467.632 189.132 470.777 188.083 493.839C187.035 516.902 190.18 543.109 175.504 545.205C160.828 547.302 150.869 536.819 150.869 506.943Z" fill="#E2E8F0"/>
</g>
<path d="M136.05 369.327C129.68 356.817 117.894 348.419 104.407 348.419C91.8465 348.419 80.7607 355.704 74.1516 366.811H70.9229C49.3497 366.811 31.8612 386.986 31.8612 411.872C31.8612 415.131 32.161 418.308 32.7306 421.371C25.9629 428.6 22.9229 440.096 25.7828 450.614L27.4526 456.754C31.2083 470.566 43.7165 477.46 55.3905 472.152C56.9062 471.462 58.3332 470.601 59.6609 469.595L60.1493 471.391C66.5406 494.895 87.8266 506.626 107.693 497.593C110.609 496.267 113.332 494.568 115.836 492.559C119.18 494.11 122.764 495.137 126.517 495.544L131.282 496.062C148.355 497.915 163.63 486.369 169.439 468.888H169.78C184.749 468.888 196.884 454.889 196.884 437.621C196.884 426.048 191.433 415.943 183.331 410.537V407.276C183.331 384.928 167.627 366.811 148.254 366.811C143.962 366.811 139.851 367.7 136.05 369.327Z" fill="black" fill-opacity="0.12"/>
<g filter="url(#filter28_i_242_165982)">
<path d="M136.053 362.907C129.684 350.398 117.898 342 104.413 342C91.8524 342 80.7672 349.285 74.1585 360.391H71.7271C50.1552 360.391 32.6676 380.564 32.6676 405.449C32.6676 408.736 32.9726 411.94 33.5518 415.027C26.2142 422.374 22.8132 434.506 25.7789 445.553L27.4297 451.701C31.2068 465.77 43.8808 472.748 55.738 467.288C57.9059 466.289 59.8965 464.944 61.6789 463.327C68.4595 485.505 88.9052 496.299 108.063 487.477C110.428 486.387 112.666 485.048 114.762 483.495C118.518 485.478 122.607 486.781 126.923 487.256L131.687 487.781C148.079 489.586 162.784 478.898 168.877 462.462H169.781C184.75 462.462 196.884 448.464 196.884 431.197C196.884 419.624 191.433 409.52 183.332 404.114V400.853C183.332 378.507 167.628 360.391 148.257 360.391C143.965 360.391 139.854 361.28 136.053 362.907Z" fill="#14B8A6"/>
</g>
<path d="M54.3521 481.393C52.9639 477.952 34.5785 480.036 38.5918 491.006C41.3699 498.6 54.3853 488.217 54.3521 481.393Z" fill="white" fill-opacity="0.2"/>
<path d="M179.901 498.523C186.97 494.543 181.971 488.988 177.32 485.343C175.211 483.691 172.239 485.397 172.198 488.368C172.092 496.173 174.444 501.596 179.901 498.523Z" fill="black" fill-opacity="0.12"/>
<path d="M124.871 422.605C129.062 424.04 145.802 429.506 137.517 437.846C131.782 443.619 126.704 434.266 124.871 422.605Z" fill="black" fill-opacity="0.12"/>
<path d="M73.0074 528.417C80.2635 532.295 82.7314 519.598 83.3013 510.636C83.5013 507.491 80.3253 505.876 78.3568 508.15C72.0518 515.433 67.544 525.497 73.0074 528.417Z" fill="black" fill-opacity="0.12"/>
<path d="M162.205 389.3C165.763 385.976 161.173 381.266 157.097 378.297C155.156 376.883 153.166 378.725 154.022 381.18C156.006 386.875 159.491 391.835 162.205 389.3Z" fill="white" fill-opacity="0.2"/>
<path d="M89.4253 396.112C88.0371 392.672 69.6517 394.756 73.665 405.726C76.4431 413.319 89.4585 402.937 89.4253 396.112Z" fill="white" fill-opacity="0.2"/>
<path d="M137.33 540.923C145.22 539.241 144.924 532.221 141.26 526.288C139.566 523.545 135.574 525.402 134.922 528.737C133.56 535.702 131.992 542.061 137.33 540.923Z" fill="black" fill-opacity="0.12"/>
<path d="M109.618 348.403C86.9749 341.275 72.5785 355.217 68.2106 363.079C37.8685 355.724 15.7482 431.218 44.1001 431.218C51.438 431.218 52.4863 440.128 58.2519 440.652C65.5899 441.32 68.2106 431.218 81.3142 455.328C94.4177 479.439 126.39 468.956 134.777 431.218C143.163 393.48 137.922 357.314 109.618 348.403Z" fill="black" fill-opacity="0.12"/>
<g filter="url(#filter29_ii_242_165982)">
<path d="M108.618 343.403C85.9749 336.275 71.5785 350.217 67.2106 358.079C36.8685 350.724 14.7482 426.218 43.1001 426.218C50.438 426.218 51.4863 435.128 57.2519 435.652C64.5899 436.32 67.2106 426.218 80.3142 450.328C93.4177 474.439 125.39 463.956 133.777 426.218C142.163 388.48 136.922 352.314 108.618 343.403Z" fill="#E2E8F0"/>
</g>
<defs>
<filter id="filter0_i_242_165982" x="187.102" y="583.574" width="84.7634" height="67.4066" filterUnits="userSpaceOnUse" color-interpolation-filters="sRGB">
<feFlood flood-opacity="0" result="BackgroundImageFix"/>
<feBlend mode="normal" in="SourceGraphic" in2="BackgroundImageFix" result="shape"/>
<feColorMatrix in="SourceAlpha" type="matrix" values="0 0 0 0 0 0 0 0 0 0 0 0 0 0 0 0 0 0 127 0" result="hardAlpha"/>
<feOffset dx="0.74" dy="-7.74"/>
<feGaussianBlur stdDeviation="4"/>
<feComposite in2="hardAlpha" operator="arithmetic" k2="-1" k3="1"/>
<feColorMatrix type="matrix" values="0 0 0 0 0 0 0 0 0 0 0 0 0 0 0 0 0 0 0.28 0"/>
<feBlend mode="normal" in2="shape" result="effect1_innerShadow_242_165982"/>
</filter>
<filter id="filter1_i_242_165982" x="315.946" y="582.894" width="51.3132" height="58.6304" filterUnits="userSpaceOnUse" color-interpolation-filters="sRGB">
<feFlood flood-opacity="0" result="BackgroundImageFix"/>
<feBlend mode="normal" in="SourceGraphic" in2="BackgroundImageFix" result="shape"/>
<feColorMatrix in="SourceAlpha" type="matrix" values="0 0 0 0 0 0 0 0 0 0 0 0 0 0 0 0 0 0 127 0" result="hardAlpha"/>
<feOffset dx="4.74" dy="-14.74"/>
<feGaussianBlur stdDeviation="7.37"/>
<feComposite in2="hardAlpha" operator="arithmetic" k2="-1" k3="1"/>
<feColorMatrix type="matrix" values="0 0 0 0 0 0 0 0 0 0 0 0 0 0 0 0 0 0 0.28 0"/>
<feBlend mode="normal" in2="shape" result="effect1_innerShadow_242_165982"/>
</filter>
<filter id="filter2_ii_242_165982" x="230" y="430" width="109" height="277" filterUnits="userSpaceOnUse" color-interpolation-filters="sRGB">
<feFlood flood-opacity="0" result="BackgroundImageFix"/>
<feBlend mode="normal" in="SourceGraphic" in2="BackgroundImageFix" result="shape"/>
<feColorMatrix in="SourceAlpha" type="matrix" values="0 0 0 0 0 0 0 0 0 0 0 0 0 0 0 0 0 0 127 0" result="hardAlpha"/>
<feOffset dx="6.73874" dy="-8"/>
<feGaussianBlur stdDeviation="7.37"/>
<feComposite in2="hardAlpha" operator="arithmetic" k2="-1" k3="1"/>
<feColorMatrix type="matrix" values="0 0 0 0 0 0 0 0 0 0 0 0 0 0 0 0 0 0 0.28 0"/>
<feBlend mode="normal" in2="shape" result="effect1_innerShadow_242_165982"/>
<feColorMatrix in="SourceAlpha" type="matrix" values="0 0 0 0 0 0 0 0 0 0 0 0 0 0 0 0 0 0 127 0" result="hardAlpha"/>
<feOffset dx="16" dy="60"/>
<feGaussianBlur stdDeviation="22"/>
<feComposite in2="hardAlpha" operator="arithmetic" k2="-1" k3="1"/>
<feColorMatrix type="matrix" values="0 0 0 0 0 0 0 0 0 0 0 0 0 0 0 0 0 0 0.25 0"/>
<feBlend mode="normal" in2="effect1_innerShadow_242_165982" result="effect2_innerShadow_242_165982"/>
</filter>
<filter id="filter3_i_242_165982" x="282.258" y="601.368" width="77.1559" height="80.1509" filterUnits="userSpaceOnUse" color-interpolation-filters="sRGB">
<feFlood flood-opacity="0" result="BackgroundImageFix"/>
<feBlend mode="normal" in="SourceGraphic" in2="BackgroundImageFix" result="shape"/>
<feColorMatrix in="SourceAlpha" type="matrix" values="0 0 0 0 0 0 0 0 0 0 0 0 0 0 0 0 0 0 127 0" result="hardAlpha"/>
<feOffset dx="-0.32" dy="-5.74"/>
<feGaussianBlur stdDeviation="4.37"/>
<feComposite in2="hardAlpha" operator="arithmetic" k2="-1" k3="1"/>
<feColorMatrix type="matrix" values="0 0 0 0 0 0 0 0 0 0 0 0 0 0 0 0 0 0 0.28 0"/>
<feBlend mode="normal" in2="shape" result="effect1_innerShadow_242_165982"/>
</filter>
<filter id="filter4_i_242_165982" x="208.347" y="614.261" width="54.7521" height="56.8587" filterUnits="userSpaceOnUse" color-interpolation-filters="sRGB">
<feFlood flood-opacity="0" result="BackgroundImageFix"/>
<feBlend mode="normal" in="SourceGraphic" in2="BackgroundImageFix" result="shape"/>
<feColorMatrix in="SourceAlpha" type="matrix" values="0 0 0 0 0 0 0 0 0 0 0 0 0 0 0 0 0 0 127 0" result="hardAlpha"/>
<feOffset dx="1.68468" dy="-6.73874"/>
<feGaussianBlur stdDeviation="3.36937"/>
<feComposite in2="hardAlpha" operator="arithmetic" k2="-1" k3="1"/>
<feColorMatrix type="matrix" values="0 0 0 0 0 0 0 0 0 0 0 0 0 0 0 0 0 0 0.28 0"/>
<feBlend mode="normal" in2="shape" result="effect1_innerShadow_242_165982"/>
</filter>
<filter id="filter5_ii_242_165982" x="215" y="607.648" width="41.1637" height="43.2995" filterUnits="userSpaceOnUse" color-interpolation-filters="sRGB">
<feFlood flood-opacity="0" result="BackgroundImageFix"/>
<feBlend mode="normal" in="SourceGraphic" in2="BackgroundImageFix" result="shape"/>
<feColorMatrix in="SourceAlpha" type="matrix" values="0 0 0 0 0 0 0 0 0 0 0 0 0 0 0 0 0 0 127 0" result="hardAlpha"/>
<feOffset dy="-5.24142"/>
<feGaussianBlur stdDeviation="4.19314"/>
<feComposite in2="hardAlpha" operator="arithmetic" k2="-1" k3="1"/>
<feColorMatrix type="matrix" values="0 0 0 0 0 0 0 0 0 0 0 0 0 0 0 0 0 0 0.15 0"/>
<feBlend mode="normal" in2="shape" result="effect1_innerShadow_242_165982"/>
<feColorMatrix in="SourceAlpha" type="matrix" values="0 0 0 0 0 0 0 0 0 0 0 0 0 0 0 0 0 0 127 0" result="hardAlpha"/>
<feOffset dx="25.1588" dy="-29.352"/>
<feGaussianBlur stdDeviation="14.676"/>
<feComposite in2="hardAlpha" operator="arithmetic" k2="-1" k3="1"/>
<feColorMatrix type="matrix" values="0 0 0 0 0 0 0 0 0 0 0 0 0 0 0 0 0 0 0.11 0"/>
<feBlend mode="normal" in2="effect1_innerShadow_242_165982" result="effect2_innerShadow_242_165982"/>
</filter>
<filter id="filter6_ii_242_165982" x="314" y="590.07" width="62.8893" height="64.5899" filterUnits="userSpaceOnUse" color-interpolation-filters="sRGB">
<feFlood flood-opacity="0" result="BackgroundImageFix"/>
<feBlend mode="normal" in="SourceGraphic" in2="BackgroundImageFix" result="shape"/>
<feColorMatrix in="SourceAlpha" type="matrix" values="0 0 0 0 0 0 0 0 0 0 0 0 0 0 0 0 0 0 127 0" result="hardAlpha"/>
<feOffset dy="-5.24142"/>
<feGaussianBlur stdDeviation="4.19314"/>
<feComposite in2="hardAlpha" operator="arithmetic" k2="-1" k3="1"/>
<feColorMatrix type="matrix" values="0 0 0 0 0 0 0 0 0 0 0 0 0 0 0 0 0 0 0.15 0"/>
<feBlend mode="normal" in2="shape" result="effect1_innerShadow_242_165982"/>
<feColorMatrix in="SourceAlpha" type="matrix" values="0 0 0 0 0 0 0 0 0 0 0 0 0 0 0 0 0 0 127 0" result="hardAlpha"/>
<feOffset dx="25.1588" dy="-29.352"/>
<feGaussianBlur stdDeviation="14.676"/>
<feComposite in2="hardAlpha" operator="arithmetic" k2="-1" k3="1"/>
<feColorMatrix type="matrix" values="0 0 0 0 0 0 0 0 0 0 0 0 0 0 0 0 0 0 0.11 0"/>
<feBlend mode="normal" in2="effect1_innerShadow_242_165982" result="effect2_innerShadow_242_165982"/>
</filter>
<filter id="filter7_i_242_165982" x="107.741" y="428" width="132.26" height="121.74" filterUnits="userSpaceOnUse" color-interpolation-filters="sRGB">
<feFlood flood-opacity="0" result="BackgroundImageFix"/>
<feBlend mode="normal" in="SourceGraphic" in2="BackgroundImageFix" result="shape"/>
<feColorMatrix in="SourceAlpha" type="matrix" values="0 0 0 0 0 0 0 0 0 0 0 0 0 0 0 0 0 0 127 0" result="hardAlpha"/>
<feOffset dx="-1.26" dy="17.26"/>
<feGaussianBlur stdDeviation="7.37"/>
<feComposite in2="hardAlpha" operator="arithmetic" k2="-1" k3="1"/>
<feColorMatrix type="matrix" values="0 0 0 0 0 0 0 0 0 0 0 0 0 0 0 0 0 0 0.28 0"/>
<feBlend mode="normal" in2="shape" result="effect1_innerShadow_242_165982"/>
</filter>
<filter id="filter8_i_242_165982" x="289.001" y="456" width="187.739" height="100.74" filterUnits="userSpaceOnUse" color-interpolation-filters="sRGB">
<feFlood flood-opacity="0" result="BackgroundImageFix"/>
<feBlend mode="normal" in="SourceGraphic" in2="BackgroundImageFix" result="shape"/>
<feColorMatrix in="SourceAlpha" type="matrix" values="0 0 0 0 0 0 0 0 0 0 0 0 0 0 0 0 0 0 127 0" result="hardAlpha"/>
<feOffset dx="6.73874" dy="17.26"/>
<feGaussianBlur stdDeviation="7.37"/>
<feComposite in2="hardAlpha" operator="arithmetic" k2="-1" k3="1"/>
<feColorMatrix type="matrix" values="0 0 0 0 0 0 0 0 0 0 0 0 0 0 0 0 0 0 0.28 0"/>
<feBlend mode="normal" in2="shape" result="effect1_innerShadow_242_165982"/>
</filter>
<filter id="filter9_i_242_165982" x="285.013" y="467.719" width="81.0833" height="88.1632" filterUnits="userSpaceOnUse" color-interpolation-filters="sRGB">
<feFlood flood-opacity="0" result="BackgroundImageFix"/>
<feBlend mode="normal" in="SourceGraphic" in2="BackgroundImageFix" result="shape"/>
<feColorMatrix in="SourceAlpha" type="matrix" values="0 0 0 0 0 0 0 0 0 0 0 0 0 0 0 0 0 0 127 0" result="hardAlpha"/>
<feOffset dx="11.68" dy="17.26"/>
<feGaussianBlur stdDeviation="7.37"/>
<feComposite in2="hardAlpha" operator="arithmetic" k2="-1" k3="1"/>
<feColorMatrix type="matrix" values="0 0 0 0 0 0 0 0 0 0 0 0 0 0 0 0 0 0 0.28 0"/>
<feBlend mode="normal" in2="shape" result="effect1_innerShadow_242_165982"/>
</filter>
<filter id="filter10_ii_242_165982" x="102.586" y="158.706" width="341.271" height="351.294" filterUnits="userSpaceOnUse" color-interpolation-filters="sRGB">
<feFlood flood-opacity="0" result="BackgroundImageFix"/>
<feBlend mode="normal" in="SourceGraphic" in2="BackgroundImageFix" result="shape"/>
<feColorMatrix in="SourceAlpha" type="matrix" values="0 0 0 0 0 0 0 0 0 0 0 0 0 0 0 0 0 0 127 0" result="hardAlpha"/>
<feOffset dy="-69.95"/>
<feGaussianBlur stdDeviation="23.3171"/>
<feComposite in2="hardAlpha" operator="arithmetic" k2="-1" k3="1"/>
<feColorMatrix type="matrix" values="0 0 0 0 0 0 0 0 0 0 0 0 0 0 0 0 0 0 0.25 0"/>
<feBlend mode="normal" in2="shape" result="effect1_innerShadow_242_165982"/>
<feColorMatrix in="SourceAlpha" type="matrix" values="0 0 0 0 0 0 0 0 0 0 0 0 0 0 0 0 0 0 127 0" result="hardAlpha"/>
<feOffset dy="-12"/>
<feGaussianBlur stdDeviation="14"/>
<feComposite in2="hardAlpha" operator="arithmetic" k2="-1" k3="1"/>
<feColorMatrix type="matrix" values="0 0 0 0 0 0 0 0 0 0 0 0 0 0 0 0 0 0 0.12 0"/>
<feBlend mode="normal" in2="effect1_innerShadow_242_165982" result="effect2_innerShadow_242_165982"/>
</filter>
<filter id="filter11_ii_242_165982" x="223" y="365.837" width="130.075" height="157.879" filterUnits="userSpaceOnUse" color-interpolation-filters="sRGB">
<feFlood flood-opacity="0" result="BackgroundImageFix"/>
<feBlend mode="normal" in="SourceGraphic" in2="BackgroundImageFix" result="shape"/>
<feColorMatrix in="SourceAlpha" type="matrix" values="0 0 0 0 0 0 0 0 0 0 0 0 0 0 0 0 0 0 127 0" result="hardAlpha"/>
<feOffset dy="-5.24142"/>
<feGaussianBlur stdDeviation="4.19314"/>
<feComposite in2="hardAlpha" operator="arithmetic" k2="-1" k3="1"/>
<feColorMatrix type="matrix" values="0 0 0 0 0 0 0 0 0 0 0 0 0 0 0 0 0 0 0.15 0"/>
<feBlend mode="normal" in2="shape" result="effect1_innerShadow_242_165982"/>
<feColorMatrix in="SourceAlpha" type="matrix" values="0 0 0 0 0 0 0 0 0 0 0 0 0 0 0 0 0 0 127 0" result="hardAlpha"/>
<feOffset dx="25.1588" dy="-29.352"/>
<feGaussianBlur stdDeviation="14.676"/>
<feComposite in2="hardAlpha" operator="arithmetic" k2="-1" k3="1"/>
<feColorMatrix type="matrix" values="0 0 0 0 0 0 0 0 0 0 0 0 0 0 0 0 0 0 0.11 0"/>
<feBlend mode="normal" in2="effect1_innerShadow_242_165982" result="effect2_innerShadow_242_165982"/>
</filter>
<filter id="filter12_ii_242_165982" x="76.4385" y="38.3659" width="393.562" height="397.97" filterUnits="userSpaceOnUse" color-interpolation-filters="sRGB">
<feFlood flood-opacity="0" result="BackgroundImageFix"/>
<feBlend mode="normal" in="SourceGraphic" in2="BackgroundImageFix" result="shape"/>
<feColorMatrix in="SourceAlpha" type="matrix" values="0 0 0 0 0 0 0 0 0 0 0 0 0 0 0 0 0 0 127 0" result="hardAlpha"/>
<feOffset dy="-69.9512"/>
<feGaussianBlur stdDeviation="23.3171"/>
<feComposite in2="hardAlpha" operator="arithmetic" k2="-1" k3="1"/>
<feColorMatrix type="matrix" values="0 0 0 0 0 0 0 0 0 0 0 0 0 0 0 0 0 0 0.25 0"/>
<feBlend mode="normal" in2="shape" result="effect1_innerShadow_242_165982"/>
<feColorMatrix in="SourceAlpha" type="matrix" values="0 0 0 0 0 0 0 0 0 0 0 0 0 0 0 0 0 0 127 0" result="hardAlpha"/>
<feOffset dy="-12"/>
<feGaussianBlur stdDeviation="14"/>
<feComposite in2="hardAlpha" operator="arithmetic" k2="-1" k3="1"/>
<feColorMatrix type="matrix" values="0 0 0 0 0 0 0 0 0 0 0 0 0 0 0 0 0 0 0.12 0"/>
<feBlend mode="normal" in2="effect1_innerShadow_242_165982" result="effect2_innerShadow_242_165982"/>
</filter>
<filter id="filter13_ii_242_165982" x="64" y="176.463" width="188.537" height="220.413" filterUnits="userSpaceOnUse" color-interpolation-filters="sRGB">
<feFlood flood-opacity="0" result="BackgroundImageFix"/>
<feBlend mode="normal" in="SourceGraphic" in2="BackgroundImageFix" result="shape"/>
<feColorMatrix in="SourceAlpha" type="matrix" values="0 0 0 0 0 0 0 0 0 0 0 0 0 0 0 0 0 0 127 0" result="hardAlpha"/>
<feOffset dy="-5.24142"/>
<feGaussianBlur stdDeviation="4.19314"/>
<feComposite in2="hardAlpha" operator="arithmetic" k2="-1" k3="1"/>
<feColorMatrix type="matrix" values="0 0 0 0 0 0 0 0 0 0 0 0 0 0 0 0 0 0 0.15 0"/>
<feBlend mode="normal" in2="shape" result="effect1_innerShadow_242_165982"/>
<feColorMatrix in="SourceAlpha" type="matrix" values="0 0 0 0 0 0 0 0 0 0 0 0 0 0 0 0 0 0 127 0" result="hardAlpha"/>
<feOffset dx="25.1588" dy="-29.352"/>
<feGaussianBlur stdDeviation="14.676"/>
<feComposite in2="hardAlpha" operator="arithmetic" k2="-1" k3="1"/>
<feColorMatrix type="matrix" values="0 0 0 0 0 0 0 0 0 0 0 0 0 0 0 0 0 0 0.11 0"/>
<feBlend mode="normal" in2="effect1_innerShadow_242_165982" result="effect2_innerShadow_242_165982"/>
</filter>
<filter id="filter14_ii_242_165982" x="92.2764" y="-14.2201" width="361.789" height="351.134" filterUnits="userSpaceOnUse" color-interpolation-filters="sRGB">
<feFlood flood-opacity="0" result="BackgroundImageFix"/>
<feBlend mode="normal" in="SourceGraphic" in2="BackgroundImageFix" result="shape"/>
<feColorMatrix in="SourceAlpha" type="matrix" values="0 0 0 0 0 0 0 0 0 0 0 0 0 0 0 0 0 0 127 0" result="hardAlpha"/>
<feOffset dy="-69.9512"/>
<feGaussianBlur stdDeviation="23.3171"/>
<feComposite in2="hardAlpha" operator="arithmetic" k2="-1" k3="1"/>
<feColorMatrix type="matrix" values="0 0 0 0 0 0 0 0 0 0 0 0 0 0 0 0 0 0 0.25 0"/>
<feBlend mode="normal" in2="shape" result="effect1_innerShadow_242_165982"/>
<feColorMatrix in="SourceAlpha" type="matrix" values="0 0 0 0 0 0 0 0 0 0 0 0 0 0 0 0 0 0 127 0" result="hardAlpha"/>
<feOffset dy="-12"/>
<feGaussianBlur stdDeviation="14"/>
<feComposite in2="hardAlpha" operator="arithmetic" k2="-1" k3="1"/>
<feColorMatrix type="matrix" values="0 0 0 0 0 0 0 0 0 0 0 0 0 0 0 0 0 0 0.12 0"/>
<feBlend mode="normal" in2="effect1_innerShadow_242_165982" result="effect2_innerShadow_242_165982"/>
</filter>
<filter id="filter15_ii_242_165982" x="109" y="17.648" width="168.046" height="214.925" filterUnits="userSpaceOnUse" color-interpolation-filters="sRGB">
<feFlood flood-opacity="0" result="BackgroundImageFix"/>
<feBlend mode="normal" in="SourceGraphic" in2="BackgroundImageFix" result="shape"/>
<feColorMatrix in="SourceAlpha" type="matrix" values="0 0 0 0 0 0 0 0 0 0 0 0 0 0 0 0 0 0 127 0" result="hardAlpha"/>
<feOffset dy="-5.24142"/>
<feGaussianBlur stdDeviation="4.19314"/>
<feComposite in2="hardAlpha" operator="arithmetic" k2="-1" k3="1"/>
<feColorMatrix type="matrix" values="0 0 0 0 0 0 0 0 0 0 0 0 0 0 0 0 0 0 0.15 0"/>
<feBlend mode="normal" in2="shape" result="effect1_innerShadow_242_165982"/>
<feColorMatrix in="SourceAlpha" type="matrix" values="0 0 0 0 0 0 0 0 0 0 0 0 0 0 0 0 0 0 127 0" result="hardAlpha"/>
<feOffset dx="25.1588" dy="-29.352"/>
<feGaussianBlur stdDeviation="14.676"/>
<feComposite in2="hardAlpha" operator="arithmetic" k2="-1" k3="1"/>
<feColorMatrix type="matrix" values="0 0 0 0 0 0 0 0 0 0 0 0 0 0 0 0 0 0 0.11 0"/>
<feBlend mode="normal" in2="effect1_innerShadow_242_165982" result="effect2_innerShadow_242_165982"/>
</filter>
<filter id="filter16_ii_242_165982" x="376" y="80.291" width="109.012" height="160.353" filterUnits="userSpaceOnUse" color-interpolation-filters="sRGB">
<feFlood flood-opacity="0" result="BackgroundImageFix"/>
<feBlend mode="normal" in="SourceGraphic" in2="BackgroundImageFix" result="shape"/>
<feColorMatrix in="SourceAlpha" type="matrix" values="0 0 0 0 0 0 0 0 0 0 0 0 0 0 0 0 0 0 127 0" result="hardAlpha"/>
<feOffset dy="-5.24142"/>
<feGaussianBlur stdDeviation="4.19314"/>
<feComposite in2="hardAlpha" operator="arithmetic" k2="-1" k3="1"/>
<feColorMatrix type="matrix" values="0 0 0 0 0 0 0 0 0 0 0 0 0 0 0 0 0 0 0.15 0"/>
<feBlend mode="normal" in2="shape" result="effect1_innerShadow_242_165982"/>
<feColorMatrix in="SourceAlpha" type="matrix" values="0 0 0 0 0 0 0 0 0 0 0 0 0 0 0 0 0 0 127 0" result="hardAlpha"/>
<feOffset dx="25.1588" dy="-29.352"/>
<feGaussianBlur stdDeviation="14.676"/>
<feComposite in2="hardAlpha" operator="arithmetic" k2="-1" k3="1"/>
<feColorMatrix type="matrix" values="0 0 0 0 0 0 0 0 0 0 0 0 0 0 0 0 0 0 0.11 0"/>
<feBlend mode="normal" in2="effect1_innerShadow_242_165982" result="effect2_innerShadow_242_165982"/>
</filter>
<filter id="filter17_ii_242_165982" x="269" y="224.115" width="140.751" height="121.758" filterUnits="userSpaceOnUse" color-interpolation-filters="sRGB">
<feFlood flood-opacity="0" result="BackgroundImageFix"/>
<feBlend mode="normal" in="SourceGraphic" in2="BackgroundImageFix" result="shape"/>
<feColorMatrix in="SourceAlpha" type="matrix" values="0 0 0 0 0 0 0 0 0 0 0 0 0 0 0 0 0 0 127 0" result="hardAlpha"/>
<feOffset dy="-5.24142"/>
<feGaussianBlur stdDeviation="4.19314"/>
<feComposite in2="hardAlpha" operator="arithmetic" k2="-1" k3="1"/>
<feColorMatrix type="matrix" values="0 0 0 0 0 0 0 0 0 0 0 0 0 0 0 0 0 0 0.15 0"/>
<feBlend mode="normal" in2="shape" result="effect1_innerShadow_242_165982"/>
<feColorMatrix in="SourceAlpha" type="matrix" values="0 0 0 0 0 0 0 0 0 0 0 0 0 0 0 0 0 0 127 0" result="hardAlpha"/>
<feOffset dx="25.1588" dy="-29.352"/>
<feGaussianBlur stdDeviation="14.676"/>
<feComposite in2="hardAlpha" operator="arithmetic" k2="-1" k3="1"/>
<feColorMatrix type="matrix" values="0 0 0 0 0 0 0 0 0 0 0 0 0 0 0 0 0 0 0.11 0"/>
<feBlend mode="normal" in2="effect1_innerShadow_242_165982" result="effect2_innerShadow_242_165982"/>
</filter>
<filter id="filter18_i_242_165982" x="178.153" y="-27.6341" width="189.527" height="213.634" filterUnits="userSpaceOnUse" color-interpolation-filters="sRGB">
<feFlood flood-opacity="0" result="BackgroundImageFix"/>
<feBlend mode="normal" in="SourceGraphic" in2="BackgroundImageFix" result="shape"/>
<feColorMatrix in="SourceAlpha" type="matrix" values="0 0 0 0 0 0 0 0 0 0 0 0 0 0 0 0 0 0 127 0" result="hardAlpha"/>
<feOffset dy="-46.6341"/>
<feGaussianBlur stdDeviation="23.3171"/>
<feComposite in2="hardAlpha" operator="arithmetic" k2="-1" k3="1"/>
<feColorMatrix type="matrix" values="0 0 0 0 0 0 0 0 0 0 0 0 0 0 0 0 0 0 0.25 0"/>
<feBlend mode="normal" in2="shape" result="effect1_innerShadow_242_165982"/>
</filter>
<filter id="filter19_ii_242_165982" x="231" y="-29.0148" width="122.578" height="110.533" filterUnits="userSpaceOnUse" color-interpolation-filters="sRGB">
<feFlood flood-opacity="0" result="BackgroundImageFix"/>
<feBlend mode="normal" in="SourceGraphic" in2="BackgroundImageFix" result="shape"/>
<feColorMatrix in="SourceAlpha" type="matrix" values="0 0 0 0 0 0 0 0 0 0 0 0 0 0 0 0 0 0 127 0" result="hardAlpha"/>
<feOffset dy="-5.24142"/>
<feGaussianBlur stdDeviation="4.19314"/>
<feComposite in2="hardAlpha" operator="arithmetic" k2="-1" k3="1"/>
<feColorMatrix type="matrix" values="0 0 0 0 0 0 0 0 0 0 0 0 0 0 0 0 0 0 0.15 0"/>
<feBlend mode="normal" in2="shape" result="effect1_innerShadow_242_165982"/>
<feColorMatrix in="SourceAlpha" type="matrix" values="0 0 0 0 0 0 0 0 0 0 0 0 0 0 0 0 0 0 127 0" result="hardAlpha"/>
<feOffset dx="25.1588" dy="-29.352"/>
<feGaussianBlur stdDeviation="14.676"/>
<feComposite in2="hardAlpha" operator="arithmetic" k2="-1" k3="1"/>
<feColorMatrix type="matrix" values="0 0 0 0 0 0 0 0 0 0 0 0 0 0 0 0 0 0 0.11 0"/>
<feBlend mode="normal" in2="effect1_innerShadow_242_165982" result="effect2_innerShadow_242_165982"/>
</filter>
<filter id="filter20_i_242_165982" x="343.326" y="267.512" width="252.369" height="261.037" filterUnits="userSpaceOnUse" color-interpolation-filters="sRGB">
<feFlood flood-opacity="0" result="BackgroundImageFix"/>
<feBlend mode="normal" in="SourceGraphic" in2="BackgroundImageFix" result="shape"/>
<feColorMatrix in="SourceAlpha" type="matrix" values="0 0 0 0 0 0 0 0 0 0 0 0 0 0 0 0 0 0 127 0" result="hardAlpha"/>
<feOffset dy="-46.6341"/>
<feGaussianBlur stdDeviation="23.3171"/>
<feComposite in2="hardAlpha" operator="arithmetic" k2="-1" k3="1"/>
<feColorMatrix type="matrix" values="0 0 0 0 0 0 0 0 0 0 0 0 0 0 0 0 0 0 0.25 0"/>
<feBlend mode="normal" in2="shape" result="effect1_innerShadow_242_165982"/>
</filter>
<filter id="filter21_ii_242_165982" x="396.031" y="342.148" width="215.9" height="195.782" filterUnits="userSpaceOnUse" color-interpolation-filters="sRGB">
<feFlood flood-opacity="0" result="BackgroundImageFix"/>
<feBlend mode="normal" in="SourceGraphic" in2="BackgroundImageFix" result="shape"/>
<feColorMatrix in="SourceAlpha" type="matrix" values="0 0 0 0 0 0 0 0 0 0 0 0 0 0 0 0 0 0 127 0" result="hardAlpha"/>
<feOffset dy="-5.24142"/>
<feGaussianBlur stdDeviation="4.19314"/>
<feComposite in2="hardAlpha" operator="arithmetic" k2="-1" k3="1"/>
<feColorMatrix type="matrix" values="0 0 0 0 0 0 0 0 0 0 0 0 0 0 0 0 0 0 0.15 0"/>
<feBlend mode="normal" in2="shape" result="effect1_innerShadow_242_165982"/>
<feColorMatrix in="SourceAlpha" type="matrix" values="0 0 0 0 0 0 0 0 0 0 0 0 0 0 0 0 0 0 127 0" result="hardAlpha"/>
<feOffset dx="25.1588" dy="-29.352"/>
<feGaussianBlur stdDeviation="14.676"/>
<feComposite in2="hardAlpha" operator="arithmetic" k2="-1" k3="1"/>
<feColorMatrix type="matrix" values="0 0 0 0 0 0 0 0 0 0 0 0 0 0 0 0 0 0 0.11 0"/>
<feBlend mode="normal" in2="effect1_innerShadow_242_165982" result="effect2_innerShadow_242_165982"/>
</filter>
<filter id="filter22_i_242_165982" x="357.631" y="220.366" width="220.695" height="228.484" filterUnits="userSpaceOnUse" color-interpolation-filters="sRGB">
<feFlood flood-opacity="0" result="BackgroundImageFix"/>
<feBlend mode="normal" in="SourceGraphic" in2="BackgroundImageFix" result="shape"/>
<feColorMatrix in="SourceAlpha" type="matrix" values="0 0 0 0 0 0 0 0 0 0 0 0 0 0 0 0 0 0 127 0" result="hardAlpha"/>
<feOffset dy="-46.6341"/>
<feGaussianBlur stdDeviation="23.3171"/>
<feComposite in2="hardAlpha" operator="arithmetic" k2="-1" k3="1"/>
<feColorMatrix type="matrix" values="0 0 0 0 0 0 0 0 0 0 0 0 0 0 0 0 0 0 0.25 0"/>
<feBlend mode="normal" in2="shape" result="effect1_innerShadow_242_165982"/>
</filter>
<filter id="filter23_ii_242_165982" x="468" y="232.648" width="74.0797" height="68.5606" filterUnits="userSpaceOnUse" color-interpolation-filters="sRGB">
<feFlood flood-opacity="0" result="BackgroundImageFix"/>
<feBlend mode="normal" in="SourceGraphic" in2="BackgroundImageFix" result="shape"/>
<feColorMatrix in="SourceAlpha" type="matrix" values="0 0 0 0 0 0 0 0 0 0 0 0 0 0 0 0 0 0 127 0" result="hardAlpha"/>
<feOffset dy="-5.24142"/>
<feGaussianBlur stdDeviation="4.19314"/>
<feComposite in2="hardAlpha" operator="arithmetic" k2="-1" k3="1"/>
<feColorMatrix type="matrix" values="0 0 0 0 0 0 0 0 0 0 0 0 0 0 0 0 0 0 0.15 0"/>
<feBlend mode="normal" in2="shape" result="effect1_innerShadow_242_165982"/>
<feColorMatrix in="SourceAlpha" type="matrix" values="0 0 0 0 0 0 0 0 0 0 0 0 0 0 0 0 0 0 127 0" result="hardAlpha"/>
<feOffset dx="25.1588" dy="-29.352"/>
<feGaussianBlur stdDeviation="14.676"/>
<feComposite in2="hardAlpha" operator="arithmetic" k2="-1" k3="1"/>
<feColorMatrix type="matrix" values="0 0 0 0 0 0 0 0 0 0 0 0 0 0 0 0 0 0 0.11 0"/>
<feBlend mode="normal" in2="effect1_innerShadow_242_165982" result="effect2_innerShadow_242_165982"/>
</filter>
<filter id="filter24_ii_242_165982" x="477" y="289.409" width="90.6354" height="108.615" filterUnits="userSpaceOnUse" color-interpolation-filters="sRGB">
<feFlood flood-opacity="0" result="BackgroundImageFix"/>
<feBlend mode="normal" in="SourceGraphic" in2="BackgroundImageFix" result="shape"/>
<feColorMatrix in="SourceAlpha" type="matrix" values="0 0 0 0 0 0 0 0 0 0 0 0 0 0 0 0 0 0 127 0" result="hardAlpha"/>
<feOffset dy="-5.24142"/>
<feGaussianBlur stdDeviation="4.19314"/>
<feComposite in2="hardAlpha" operator="arithmetic" k2="-1" k3="1"/>
<feColorMatrix type="matrix" values="0 0 0 0 0 0 0 0 0 0 0 0 0 0 0 0 0 0 0.15 0"/>
<feBlend mode="normal" in2="shape" result="effect1_innerShadow_242_165982"/>
<feColorMatrix in="SourceAlpha" type="matrix" values="0 0 0 0 0 0 0 0 0 0 0 0 0 0 0 0 0 0 127 0" result="hardAlpha"/>
<feOffset dx="25.1588" dy="-29.352"/>
<feGaussianBlur stdDeviation="14.676"/>
<feComposite in2="hardAlpha" operator="arithmetic" k2="-1" k3="1"/>
<feColorMatrix type="matrix" values="0 0 0 0 0 0 0 0 0 0 0 0 0 0 0 0 0 0 0.11 0"/>
<feBlend mode="normal" in2="effect1_innerShadow_242_165982" result="effect2_innerShadow_242_165982"/>
</filter>
<filter id="filter25_i_242_165982" x="11.1592" y="333.88" width="196.884" height="221.78" filterUnits="userSpaceOnUse" color-interpolation-filters="sRGB">
<feFlood flood-opacity="0" result="BackgroundImageFix"/>
<feBlend mode="normal" in="SourceGraphic" in2="BackgroundImageFix" result="shape"/>
<feColorMatrix in="SourceAlpha" type="matrix" values="0 0 0 0 0 0 0 0 0 0 0 0 0 0 0 0 0 0 127 0" result="hardAlpha"/>
<feOffset dy="-46.6341"/>
<feGaussianBlur stdDeviation="23.3171"/>
<feComposite in2="hardAlpha" operator="arithmetic" k2="-1" k3="1"/>
<feColorMatrix type="matrix" values="0 0 0 0 0 0 0 0 0 0 0 0 0 0 0 0 0 0 0.25 0"/>
<feBlend mode="normal" in2="shape" result="effect1_innerShadow_242_165982"/>
</filter>
<filter id="filter26_ii_242_165982" x="13" y="448.648" width="49.6198" height="72.9201" filterUnits="userSpaceOnUse" color-interpolation-filters="sRGB">
<feFlood flood-opacity="0" result="BackgroundImageFix"/>
<feBlend mode="normal" in="SourceGraphic" in2="BackgroundImageFix" result="shape"/>
<feColorMatrix in="SourceAlpha" type="matrix" values="0 0 0 0 0 0 0 0 0 0 0 0 0 0 0 0 0 0 127 0" result="hardAlpha"/>
<feOffset dy="-5.24142"/>
<feGaussianBlur stdDeviation="4.19314"/>
<feComposite in2="hardAlpha" operator="arithmetic" k2="-1" k3="1"/>
<feColorMatrix type="matrix" values="0 0 0 0 0 0 0 0 0 0 0 0 0 0 0 0 0 0 0.15 0"/>
<feBlend mode="normal" in2="shape" result="effect1_innerShadow_242_165982"/>
<feColorMatrix in="SourceAlpha" type="matrix" values="0 0 0 0 0 0 0 0 0 0 0 0 0 0 0 0 0 0 127 0" result="hardAlpha"/>
<feOffset dx="25.1588" dy="-29.352"/>
<feGaussianBlur stdDeviation="14.676"/>
<feComposite in2="hardAlpha" operator="arithmetic" k2="-1" k3="1"/>
<feColorMatrix type="matrix" values="0 0 0 0 0 0 0 0 0 0 0 0 0 0 0 0 0 0 0.11 0"/>
<feBlend mode="normal" in2="effect1_innerShadow_242_165982" result="effect2_innerShadow_242_165982"/>
</filter>
<filter id="filter27_ii_242_165982" x="132" y="402.114" width="95.3209" height="143.349" filterUnits="userSpaceOnUse" color-interpolation-filters="sRGB">
<feFlood flood-opacity="0" result="BackgroundImageFix"/>
<feBlend mode="normal" in="SourceGraphic" in2="BackgroundImageFix" result="shape"/>
<feColorMatrix in="SourceAlpha" type="matrix" values="0 0 0 0 0 0 0 0 0 0 0 0 0 0 0 0 0 0 127 0" result="hardAlpha"/>
<feOffset dy="-5.24142"/>
<feGaussianBlur stdDeviation="4.19314"/>
<feComposite in2="hardAlpha" operator="arithmetic" k2="-1" k3="1"/>
<feColorMatrix type="matrix" values="0 0 0 0 0 0 0 0 0 0 0 0 0 0 0 0 0 0 0.15 0"/>
<feBlend mode="normal" in2="shape" result="effect1_innerShadow_242_165982"/>
<feColorMatrix in="SourceAlpha" type="matrix" values="0 0 0 0 0 0 0 0 0 0 0 0 0 0 0 0 0 0 127 0" result="hardAlpha"/>
<feOffset dx="25.1588" dy="-29.352"/>
<feGaussianBlur stdDeviation="14.676"/>
<feComposite in2="hardAlpha" operator="arithmetic" k2="-1" k3="1"/>
<feColorMatrix type="matrix" values="0 0 0 0 0 0 0 0 0 0 0 0 0 0 0 0 0 0 0.11 0"/>
<feBlend mode="normal" in2="effect1_innerShadow_242_165982" result="effect2_innerShadow_242_165982"/>
</filter>
<filter id="filter28_i_242_165982" x="24.71" y="295.366" width="172.174" height="195.187" filterUnits="userSpaceOnUse" color-interpolation-filters="sRGB">
<feFlood flood-opacity="0" result="BackgroundImageFix"/>
<feBlend mode="normal" in="SourceGraphic" in2="BackgroundImageFix" result="shape"/>
<feColorMatrix in="SourceAlpha" type="matrix" values="0 0 0 0 0 0 0 0 0 0 0 0 0 0 0 0 0 0 127 0" result="hardAlpha"/>
<feOffset dy="-46.6341"/>
<feGaussianBlur stdDeviation="23.3171"/>
<feComposite in2="hardAlpha" operator="arithmetic" k2="-1" k3="1"/>
<feColorMatrix type="matrix" values="0 0 0 0 0 0 0 0 0 0 0 0 0 0 0 0 0 0 0.25 0"/>
<feBlend mode="normal" in2="shape" result="effect1_innerShadow_242_165982"/>
</filter>
<filter id="filter29_ii_242_165982" x="30" y="312.083" width="132.568" height="151.177" filterUnits="userSpaceOnUse" color-interpolation-filters="sRGB">
<feFlood flood-opacity="0" result="BackgroundImageFix"/>
<feBlend mode="normal" in="SourceGraphic" in2="BackgroundImageFix" result="shape"/>
<feColorMatrix in="SourceAlpha" type="matrix" values="0 0 0 0 0 0 0 0 0 0 0 0 0 0 0 0 0 0 127 0" result="hardAlpha"/>
<feOffset dy="-5.24142"/>
<feGaussianBlur stdDeviation="4.19314"/>
<feComposite in2="hardAlpha" operator="arithmetic" k2="-1" k3="1"/>
<feColorMatrix type="matrix" values="0 0 0 0 0 0 0 0 0 0 0 0 0 0 0 0 0 0 0.15 0"/>
<feBlend mode="normal" in2="shape" result="effect1_innerShadow_242_165982"/>
<feColorMatrix in="SourceAlpha" type="matrix" values="0 0 0 0 0 0 0 0 0 0 0 0 0 0 0 0 0 0 127 0" result="hardAlpha"/>
<feOffset dx="25.1588" dy="-29.352"/>
<feGaussianBlur stdDeviation="14.676"/>
<feComposite in2="hardAlpha" operator="arithmetic" k2="-1" k3="1"/>
<feColorMatrix type="matrix" values="0 0 0 0 0 0 0 0 0 0 0 0 0 0 0 0 0 0 0.11 0"/>
<feBlend mode="normal" in2="effect1_innerShadow_242_165982" result="effect2_innerShadow_242_165982"/>
</filter>
</defs>
</svg>
