<svg fill="none" height="806" viewBox="0 0 508 806" width="508" xmlns="http://www.w3.org/2000/svg" xmlns:xlink="http://www.w3.org/1999/xlink"><filter id="a" color-interpolation-filters="sRGB" filterUnits="userSpaceOnUse" height="597.502" width="137.972" x="215.68" y="144.498"><feFlood flood-opacity="0" result="BackgroundImageFix"/><feBlend in="SourceGraphic" in2="BackgroundImageFix" mode="normal" result="shape"/><feColorMatrix in="SourceAlpha" result="hardAlpha" type="matrix" values="0 0 0 0 0 0 0 0 0 0 0 0 0 0 0 0 0 0 127 0"/><feOffset dx="16" dy="-8"/><feGaussianBlur stdDeviation="12"/><feComposite in2="hardAlpha" k2="-1" k3="1" operator="arithmetic"/><feColorMatrix type="matrix" values="0 0 0 0 0 0 0 0 0 0 0 0 0 0 0 0 0 0 0.25 0"/><feBlend in2="shape" mode="normal" result="effect1_innerShadow_9_45545"/><feColorMatrix in="SourceAlpha" result="hardAlpha" type="matrix" values="0 0 0 0 0 0 0 0 0 0 0 0 0 0 0 0 0 0 127 0"/><feOffset dx="-16" dy="24"/><feGaussianBlur stdDeviation="11.5"/><feComposite in2="hardAlpha" k2="-1" k3="1" operator="arithmetic"/><feColorMatrix type="matrix" values="0 0 0 0 1 0 0 0 0 1 0 0 0 0 1 0 0 0 0.25 0"/><feBlend in2="effect1_innerShadow_9_45545" mode="normal" result="effect2_innerShadow_9_45545"/></filter><filter id="b" color-interpolation-filters="sRGB" filterUnits="userSpaceOnUse" height="172.16" width="136.126" x="188.257" y="25.1713"><feFlood flood-opacity="0" result="BackgroundImageFix"/><feBlend in="SourceGraphic" in2="BackgroundImageFix" mode="normal" result="shape"/><feColorMatrix in="SourceAlpha" result="hardAlpha" type="matrix" values="0 0 0 0 0 0 0 0 0 0 0 0 0 0 0 0 0 0 127 0"/><feOffset dx="26.05" dy="-37.4"/><feGaussianBlur stdDeviation="25.445"/><feComposite in2="hardAlpha" k2="-1" k3="1" operator="arithmetic"/><feColorMatrix type="matrix" values="0 0 0 0 0 0 0 0 0 0 0 0 0 0 0 0 0 0 0.25 0"/><feBlend in2="shape" mode="normal" result="effect1_innerShadow_9_45545"/><feColorMatrix in="SourceAlpha" result="hardAlpha" type="matrix" values="0 0 0 0 0 0 0 0 0 0 0 0 0 0 0 0 0 0 127 0"/><feOffset dx="-5.67537" dy="19.8638"/><feGaussianBlur stdDeviation="11.3507"/><feComposite in2="hardAlpha" k2="-1" k3="1" operator="arithmetic"/><feColorMatrix type="matrix" values="0 0 0 0 1 0 0 0 0 1 0 0 0 0 1 0 0 0 0.25 0"/><feBlend in2="effect1_innerShadow_9_45545" mode="normal" result="effect2_innerShadow_9_45545"/></filter><filter id="c" color-interpolation-filters="sRGB" filterUnits="userSpaceOnUse" height="116.141" width="26.4103" x="236.185" y="74.0801"><feFlood flood-opacity="0" result="BackgroundImageFix"/><feColorMatrix in="SourceAlpha" result="hardAlpha" type="matrix" values="0 0 0 0 0 0 0 0 0 0 0 0 0 0 0 0 0 0 127 0"/><feOffset dy="5.67537"/><feGaussianBlur stdDeviation="2.83768"/><feComposite in2="hardAlpha" operator="out"/><feColorMatrix type="matrix" values="0 0 0 0 1 0 0 0 0 1 0 0 0 0 1 0 0 0 0.25 0"/><feBlend in2="BackgroundImageFix" mode="normal" result="effect1_dropShadow_9_45545"/><feBlend in="SourceGraphic" in2="effect1_dropShadow_9_45545" mode="normal" result="shape"/><feGaussianBlur result="effect2_foregroundBlur_9_45545" stdDeviation=".5"/></filter><filter id="d" color-interpolation-filters="sRGB" filterUnits="userSpaceOnUse" height="125.742" width="245.254" x="65.1421" y="90.9443"><feFlood flood-opacity="0" result="BackgroundImageFix"/><feBlend in="SourceGraphic" in2="BackgroundImageFix" mode="normal" result="shape"/><feColorMatrix in="SourceAlpha" result="hardAlpha" type="matrix" values="0 0 0 0 0 0 0 0 0 0 0 0 0 0 0 0 0 0 127 0"/><feOffset dx="56.7537"/><feGaussianBlur stdDeviation="29.7957"/><feComposite in2="hardAlpha" k2="-1" k3="1" operator="arithmetic"/><feColorMatrix type="matrix" values="0 0 0 0 0 0 0 0 0 0 0 0 0 0 0 0 0 0 0.25 0"/><feBlend in2="shape" mode="normal" result="effect1_innerShadow_9_45545"/><feColorMatrix in="SourceAlpha" result="hardAlpha" type="matrix" values="0 0 0 0 0 0 0 0 0 0 0 0 0 0 0 0 0 0 127 0"/><feOffset dx="-34.0522" dy="22.7015"/><feGaussianBlur stdDeviation="17.0261"/><feComposite in2="hardAlpha" k2="-1" k3="1" operator="arithmetic"/><feColorMatrix type="matrix" values="0 0 0 0 1 0 0 0 0 1 0 0 0 0 1 0 0 0 0.25 0"/><feBlend in2="effect1_innerShadow_9_45545" mode="normal" result="effect2_innerShadow_9_45545"/></filter><filter id="e" color-interpolation-filters="sRGB" filterUnits="userSpaceOnUse" height="238.655" width="304.782" x="2.26907" y="81.685"><feFlood flood-opacity="0" result="BackgroundImageFix"/><feBlend in="SourceGraphic" in2="BackgroundImageFix" mode="normal" result="shape"/><feColorMatrix in="SourceAlpha" result="hardAlpha" type="matrix" values="0 0 0 0 0 0 0 0 0 0 0 0 0 0 0 0 0 0 127 0"/><feOffset dx="124.858" dy="-79.4552"/><feGaussianBlur stdDeviation="29.7957"/><feComposite in2="hardAlpha" k2="-1" k3="1" operator="arithmetic"/><feColorMatrix type="matrix" values="0 0 0 0 0 0 0 0 0 0 0 0 0 0 0 0 0 0 0.25 0"/><feBlend in2="shape" mode="normal" result="effect1_innerShadow_9_45545"/><feColorMatrix in="SourceAlpha" result="hardAlpha" type="matrix" values="0 0 0 0 0 0 0 0 0 0 0 0 0 0 0 0 0 0 127 0"/><feOffset dx="-45.403" dy="22.7015"/><feGaussianBlur stdDeviation="17.0261"/><feComposite in2="hardAlpha" k2="-1" k3="1" operator="arithmetic"/><feColorMatrix type="matrix" values="0 0 0 0 1 0 0 0 0 1 0 0 0 0 1 0 0 0 0.25 0"/><feBlend in2="effect1_innerShadow_9_45545" mode="normal" result="effect2_innerShadow_9_45545"/></filter><filter id="f" color-interpolation-filters="sRGB" filterUnits="userSpaceOnUse" height="273.201" width="185.056" x="70.2457" y="174.074"><feFlood flood-opacity="0" result="BackgroundImageFix"/><feBlend in="SourceGraphic" in2="BackgroundImageFix" mode="normal" result="shape"/><feColorMatrix in="SourceAlpha" result="hardAlpha" type="matrix" values="0 0 0 0 0 0 0 0 0 0 0 0 0 0 0 0 0 0 127 0"/><feOffset dx="-66.6856"/><feGaussianBlur stdDeviation="24.1203"/><feComposite in2="hardAlpha" k2="-1" k3="1" operator="arithmetic"/><feColorMatrix type="matrix" values="0 0 0 0 0 0 0 0 0 0 0 0 0 0 0 0 0 0 0.15 0"/><feBlend in2="shape" mode="normal" result="effect1_innerShadow_9_45545"/><feColorMatrix in="SourceAlpha" result="hardAlpha" type="matrix" values="0 0 0 0 0 0 0 0 0 0 0 0 0 0 0 0 0 0 127 0"/><feOffset dx="-6.7" dy="18.05"/><feGaussianBlur stdDeviation="33.025"/><feComposite in2="hardAlpha" k2="-1" k3="1" operator="arithmetic"/><feColorMatrix type="matrix" values="0 0 0 0 1 0 0 0 0 1 0 0 0 0 1 0 0 0 0.25 0"/><feBlend in2="effect1_innerShadow_9_45545" mode="normal" result="effect2_innerShadow_9_45545"/></filter><filter id="g" color-interpolation-filters="sRGB" filterUnits="userSpaceOnUse" height="191.868" width="196.343" x="222.168" y="23.1869"><feFlood flood-opacity="0" result="BackgroundImageFix"/><feBlend in="SourceGraphic" in2="BackgroundImageFix" mode="normal" result="shape"/><feColorMatrix in="SourceAlpha" result="hardAlpha" type="matrix" values="0 0 0 0 0 0 0 0 0 0 0 0 0 0 0 0 0 0 127 0"/><feOffset dx="22.7015" dy="-45.403"/><feGaussianBlur stdDeviation="29.7957"/><feComposite in2="hardAlpha" k2="-1" k3="1" operator="arithmetic"/><feColorMatrix type="matrix" values="0 0 0 0 0 0 0 0 0 0 0 0 0 0 0 0 0 0 0.25 0"/><feBlend in2="shape" mode="normal" result="effect1_innerShadow_9_45545"/><feColorMatrix in="SourceAlpha" result="hardAlpha" type="matrix" values="0 0 0 0 0 0 0 0 0 0 0 0 0 0 0 0 0 0 127 0"/><feOffset dx="-45.403" dy="34.0522"/><feGaussianBlur stdDeviation="17.0261"/><feComposite in2="hardAlpha" k2="-1" k3="1" operator="arithmetic"/><feColorMatrix type="matrix" values="0 0 0 0 1 0 0 0 0 1 0 0 0 0 1 0 0 0 0.25 0"/><feBlend in2="effect1_innerShadow_9_45545" mode="normal" result="effect2_innerShadow_9_45545"/></filter><filter id="h" color-interpolation-filters="sRGB" filterUnits="userSpaceOnUse" height="107.499" width="105.974" x="251.441" y="87.4062"><feFlood flood-opacity="0" result="BackgroundImageFix"/><feColorMatrix in="SourceAlpha" result="hardAlpha" type="matrix" values="0 0 0 0 0 0 0 0 0 0 0 0 0 0 0 0 0 0 127 0"/><feOffset dy="5.67537"/><feGaussianBlur stdDeviation="2.83768"/><feComposite in2="hardAlpha" operator="out"/><feColorMatrix type="matrix" values="0 0 0 0 1 0 0 0 0 1 0 0 0 0 1 0 0 0 0.25 0"/><feBlend in2="BackgroundImageFix" mode="normal" result="effect1_dropShadow_9_45545"/><feBlend in="SourceGraphic" in2="effect1_dropShadow_9_45545" mode="normal" result="shape"/><feGaussianBlur result="effect2_foregroundBlur_9_45545" stdDeviation=".5"/></filter><filter id="i" color-interpolation-filters="sRGB" filterUnits="userSpaceOnUse" height="41.7287" width="138.395" x="117.917" y="154.316"><feFlood flood-opacity="0" result="BackgroundImageFix"/><feColorMatrix in="SourceAlpha" result="hardAlpha" type="matrix" values="0 0 0 0 0 0 0 0 0 0 0 0 0 0 0 0 0 0 127 0"/><feOffset dy="5.67537"/><feGaussianBlur stdDeviation="2.83768"/><feComposite in2="hardAlpha" operator="out"/><feColorMatrix type="matrix" values="0 0 0 0 1 0 0 0 0 1 0 0 0 0 1 0 0 0 0.25 0"/><feBlend in2="BackgroundImageFix" mode="normal" result="effect1_dropShadow_9_45545"/><feBlend in="SourceGraphic" in2="effect1_dropShadow_9_45545" mode="normal" result="shape"/><feGaussianBlur result="effect2_foregroundBlur_9_45545" stdDeviation=".5"/></filter><filter id="j" color-interpolation-filters="sRGB" filterUnits="userSpaceOnUse" height="186.855" width="270.081" x="235.78" y="71.9182"><feFlood flood-opacity="0" result="BackgroundImageFix"/><feBlend in="SourceGraphic" in2="BackgroundImageFix" mode="normal" result="shape"/><feColorMatrix in="SourceAlpha" result="hardAlpha" type="matrix" values="0 0 0 0 0 0 0 0 0 0 0 0 0 0 0 0 0 0 127 0"/><feOffset dx="34.0522" dy="-56.7537"/><feGaussianBlur stdDeviation="29.7957"/><feComposite in2="hardAlpha" k2="-1" k3="1" operator="arithmetic"/><feColorMatrix type="matrix" values="0 0 0 0 0 0 0 0 0 0 0 0 0 0 0 0 0 0 0.25 0"/><feBlend in2="shape" mode="normal" result="effect1_innerShadow_9_45545"/><feColorMatrix in="SourceAlpha" result="hardAlpha" type="matrix" values="0 0 0 0 0 0 0 0 0 0 0 0 0 0 0 0 0 0 127 0"/><feOffset dx="-22.7015" dy="11.3507"/><feGaussianBlur stdDeviation="17.0261"/><feComposite in2="hardAlpha" k2="-1" k3="1" operator="arithmetic"/><feColorMatrix type="matrix" values="0 0 0 0 1 0 0 0 0 1 0 0 0 0 1 0 0 0 0.25 0"/><feBlend in2="effect1_innerShadow_9_45545" mode="normal" result="effect2_innerShadow_9_45545"/></filter><filter id="k" color-interpolation-filters="sRGB" filterUnits="userSpaceOnUse" height="281.583" width="191.334" x="245.821" y="148.982"><feFlood flood-opacity="0" result="BackgroundImageFix"/><feBlend in="SourceGraphic" in2="BackgroundImageFix" mode="normal" result="shape"/><feColorMatrix in="SourceAlpha" result="hardAlpha" type="matrix" values="0 0 0 0 0 0 0 0 0 0 0 0 0 0 0 0 0 0 127 0"/><feOffset dx="11.3507" dy="-24.1203"/><feGaussianBlur stdDeviation="18.445"/><feComposite in2="hardAlpha" k2="-1" k3="1" operator="arithmetic"/><feColorMatrix type="matrix" values="0 0 0 0 0 0 0 0 0 0 0 0 0 0 0 0 0 0 0.25 0"/><feBlend in2="shape" mode="normal" result="effect1_innerShadow_9_45545"/><feColorMatrix in="SourceAlpha" result="hardAlpha" type="matrix" values="0 0 0 0 0 0 0 0 0 0 0 0 0 0 0 0 0 0 127 0"/><feOffset dx="-11.3507" dy="56.7537"/><feGaussianBlur stdDeviation="17.0261"/><feComposite in2="hardAlpha" k2="-1" k3="1" operator="arithmetic"/><feColorMatrix type="matrix" values="0 0 0 0 1 0 0 0 0 1 0 0 0 0 1 0 0 0 0.25 0"/><feBlend in2="effect1_innerShadow_9_45545" mode="normal" result="effect2_innerShadow_9_45545"/></filter><filter id="l" color-interpolation-filters="sRGB" filterUnits="userSpaceOnUse" height="332.347" width="204.074" x="166.745" y="130.26"><feFlood flood-opacity="0" result="BackgroundImageFix"/><feBlend in="SourceGraphic" in2="BackgroundImageFix" mode="normal" result="shape"/><feColorMatrix in="SourceAlpha" result="hardAlpha" type="matrix" values="0 0 0 0 0 0 0 0 0 0 0 0 0 0 0 0 0 0 127 0"/><feOffset dx="34.0522" dy="-34.0522"/><feGaussianBlur stdDeviation="29.7957"/><feComposite in2="hardAlpha" k2="-1" k3="1" operator="arithmetic"/><feColorMatrix type="matrix" values="0 0 0 0 0 0 0 0 0 0 0 0 0 0 0 0 0 0 0.25 0"/><feBlend in2="shape" mode="normal" result="effect1_innerShadow_9_45545"/><feColorMatrix in="SourceAlpha" result="hardAlpha" type="matrix" values="0 0 0 0 0 0 0 0 0 0 0 0 0 0 0 0 0 0 127 0"/><feOffset dx="-22.7015" dy="34.0522"/><feGaussianBlur stdDeviation="17.0261"/><feComposite in2="hardAlpha" k2="-1" k3="1" operator="arithmetic"/><feColorMatrix type="matrix" values="0 0 0 0 1 0 0 0 0 1 0 0 0 0 1 0 0 0 0.25 0"/><feBlend in2="effect1_innerShadow_9_45545" mode="normal" result="effect2_innerShadow_9_45545"/></filter><filter id="m" color-interpolation-filters="sRGB" filterUnits="userSpaceOnUse" height="216.6" width="35.4806" x="244.958" y="168.999"><feFlood flood-opacity="0" result="BackgroundImageFix"/><feColorMatrix in="SourceAlpha" result="hardAlpha" type="matrix" values="0 0 0 0 0 0 0 0 0 0 0 0 0 0 0 0 0 0 127 0"/><feOffset dy="5.67537"/><feGaussianBlur stdDeviation="2.83768"/><feComposite in2="hardAlpha" operator="out"/><feColorMatrix type="matrix" values="0 0 0 0 1 0 0 0 0 1 0 0 0 0 1 0 0 0 0.25 0"/><feBlend in2="BackgroundImageFix" mode="normal" result="effect1_dropShadow_9_45545"/><feBlend in="SourceGraphic" in2="effect1_dropShadow_9_45545" mode="normal" result="shape"/><feGaussianBlur result="effect2_foregroundBlur_9_45545" stdDeviation=".5"/></filter><mask id="n" height="567" maskUnits="userSpaceOnUse" width="107" x="231" y="152"><path d="m234.148 159.097c6.465-8.937 13.673-8.109 22.599-1.619 71.067 139.336 82.625 351.628 80.715 530.589-.183 17.187-14.217 30.933-31.389 30.933-18.37.001-32.82-15.65-31.353-33.979 11.572-144.546 23.222-311.72-30.825-501.822-8.925-6.49-16.213-15.165-9.747-24.102z" fill="#854d0e"/></mask><circle cx="309" cy="693" fill="#000" fill-opacity=".12" r="113"/><circle cx="306" cy="689" fill="#000" fill-opacity=".12" r="37"/><g filter="url(#a)"><path d="m234.148 159.096c6.465-8.937 13.673-8.109 22.599-1.619 71.067 139.336 82.625 351.628 80.716 530.589-.184 17.188-14.218 30.934-31.39 30.934-18.37 0-32.82-15.65-31.352-33.98 11.571-144.545 23.221-311.719-30.825-501.822-8.926-6.49-16.214-15.165-9.748-24.102z" fill="#854d0e"/></g><g fill="#fff" mask="url(#n)"><path d="m284.386 662.5c8.506 4.363 10.884 5.157 9.5 8s-.994 6.363-9.5 2.001c-8.507-4.363-12.405-16.908-11.02-19.751 5.722-11.75 2.513 5.387 11.02 9.75z" opacity=".1"/><path d="m338.345 540.276c-15.483 5.51-20.741 4.637-23.46 7.293 1.457 5.273 13.763 8.189 25.257 3.571 6.399-2.571 9.795-8.88 8.337-14.154-.606-2.192-2.947.733-10.134 3.29z" opacity=".1"/><path d="m310.545 607.882c-16.431-.315-15.285-5.267-18.767-3.742-.499 5.448 5.734 11.026 18.118 10.766 6.895-.144 16.55-3.352 17.049-8.8.208-2.265-8.773 1.922-16.4 1.776z" opacity=".1"/><path d="m289.145 572.325c-6.066-2.025-9.445-7.1-9.799-6.165-1.695 4.891 3.267 10.623 9.333 12.648 6.065 2.025 11.536.44 12.596-1.284.182-1.546-1.613-3.057-12.13-5.199z" opacity=".1"/><path d="m332.196 643.801c-6.882 2.743-13.809 0-12.533 3.711 2.393 6.964 8.827 4.341 15.709 1.598 6.882-2.744 9.428-3.426 7.035-10.39s-3.329 2.338-10.211 5.081z" opacity=".1"/><path d="m344.024 506.573c-7.885 5.405-10.143 6.494-8.409 9.139 1.733 2.645 1.792 6.186 9.677.781 7.884-5.406 10.161-18.344 8.427-20.989-7.165-10.93-1.81 5.663-9.695 11.069z" opacity=".1"/><path d="m275.006 392.175c16.057 3.502 21.162 1.97 24.196 4.26-.778 5.416-12.614 9.868-24.601 6.744-6.673-1.739-10.842-7.567-10.064-12.982.323-2.252 3.016.352 10.469 1.978z" opacity=".1"/><path d="m311.153 455.712c16.258-2.395 14.493-7.162 18.14-6.092 1.186 5.342-4.289 11.665-16.607 12.977-6.857.731-16.841-1.227-18.027-6.568-.493-2.22 8.946.795 16.494-.317z" opacity=".1"/><path d="m327.872 417.729c5.76-2.778 8.468-8.24 8.939-7.358 2.3 4.637-1.894 10.952-7.655 13.729-5.76 2.777-11.387 1.899-12.657.323-.376-1.51 1.212-3.237 11.373-6.694z" opacity=".1"/><path d="m294.229 494.086c7.174 1.849 13.697-1.75 12.902 2.092-1.491 7.211-8.206 5.425-15.38 3.577-7.174-1.849-9.786-2.203-8.295-9.414s3.598 1.897 10.773 3.745z" opacity=".1"/></g><g filter="url(#b)"><path d="m244.013 67.9915c80.46-29.1165 59.889 66.5655 13.195 108.7835-.914.826-2.289.912-3.337.265-85.285-52.675-70.079-121.9717-13.399-108.8371 1.141.2643 2.441.187 3.541-.2114z" fill="#16a34a"/></g><g filter="url(#c)"><path d="m243.353 75.08 13.567 99.43c-3.119 5.861-2.671 5.315-5.899 1.307l-9.161-100.5875c1.237.078.455.2938 1.493-.1495z" fill="#000" fill-opacity=".12" shape-rendering="crispEdges"/></g><g filter="url(#d)"><path d="m101.028 112.601c71.533-65.3148 139.859 34.214 152.486 73.635.381 1.189-.106 2.428-1.204 3.023-27.162 14.731-91.447-8.999-104.794-16.531-.91-.514-1.348-1.517-1.236-2.556l.64-5.939c.298-2.766-3.147-4.264-4.968-2.161l-4.049 4.68c-.834.964-2.216 1.259-3.344.665-21.36-11.26-29.308-34.994-34.8991-48.239-.9469-2.244-.4304-4.935 1.3681-6.577z" fill="#16a34a"/></g><g filter="url(#e)"><path d="m36.7099 277.484c25.1614-61.924 79.1311-193.0452 209.1851-108.787 1.853 1.2 2.132 3.888.452 4.93-24.445 15.173-72.995 52.083-104.335 98.766-1.499 2.232-5.361.763-5.369-2.098-.006-1.995.055-4.068.24-6.247.282-3.321-4.367-5.987-5.844-3.157-5.376 10.303-10.714 22.65-15.483 35.147-.904 2.37-4.56 2.033-5.617-.52-4.245-10.257-9.907-25.539-6.083-41.753-3.056 11.567-34.691 37.343-63.2423 31.265-3.3461-.712-5.1331-4.521-3.9038-7.546z" fill="#16a34a"/></g><g filter="url(#f)"><path d="m143.642 425.933c-65.4738-144.025 6.71-229.882 103.507-251.788 1.396-.316 2.792.452 3.199 1.825 2.65 8.924 10.781 41.256-2.202 65.298-.983 1.821-3.526 1.787-4.78.141-4.418-5.798-8.908-8.344-13.143-9.243-2.393-.508-3.479 2.379-1.83 4.185 24.601 26.946 19.085 59.786 8.891 86.43-15.483 31.041-47.452 75.227-85.21 105.275-2.802 2.229-6.951 1.136-8.432-2.123z" fill="#15803d"/></g><g filter="url(#g)"><path d="m392.746 80.8808c-96.298-47.5531-130.732 55.3242-136.5 97.0242-.25 1.807 1.295 3.315 3.103 3.072 28.868-3.876 52.584-12.648 71.754-23.681 36.716-21.13 56.751-50.552 64.354-69.7399 1.013-2.5579-.244-5.4569-2.711-6.6753z" fill="#22c55e"/></g><g filter="url(#h)"><path d="m351.739 88.4059c-65.515 9.98-89.078 59.3491-94.623 88.6061l5.045 6.543c15.327-73.247 70.204-90.8478 89.578-95.1491z" fill="#000" fill-opacity=".12" shape-rendering="crispEdges"/></g><g filter="url(#i)"><path d="m123.593 173.326c60.962-35.161 104.456-10.965 125.987 6.327l1.056 5.041c-55.123-42.359-108.237-20.803-127.043-11.368z" fill="#000" fill-opacity=".12" shape-rendering="crispEdges"/></g><g filter="url(#j)"><path d="m258.993 188.186c82.933-133.7608 181.345-8.31 212.138 49.063 1.275 2.376.747 5.564-1.554 6.947-15.949 9.583-44.646-4.594-56.781-11.241-1.621-.888-3.647.334-3.582 2.392.044 1.388.221 2.657.483 3.806.642 2.809-1.798 7.635-4.415 7.422-90.704-7.394-109.254-33.439-145.464-54.026-1.381-.785-1.755-2.863-.825-4.363z" fill="#22c55e"/></g><g filter="url(#k)"><path d="m420.588 391.891c28.123-154.997-62.04-220.701-160.681-218.746-1.669.033-2.931 1.551-2.71 3.206 9.714 72.887 32.627 100.771 50.733 121.357 1.9 2.16 5.715.391 5.579-2.483-.679-14.379 3.887-20.453 9.319-24.963 1.874-1.555 4.709.032 4.64 2.466-2.041 71.914 53.305 106.96 85.173 123.189 3.306 1.684 7.285-.376 7.947-4.026z" fill="#16a34a"/></g><g filter="url(#l)"><path d="m257.587 173.754c106.072-62.761 96.773 206.141 23.996 254.362-.84.556-1.879.579-2.762.093-97.824-53.873-127.553-294.985-26.915-254.037 1.767.719 4.039.553 5.681-.418z" fill="#22c55e"/></g><g filter="url(#m)"><path d="m274.764 374.248-24.13-202.299c6.062 3.861 5.841 1.649 8.318-1.95z" fill="#000" fill-opacity=".12" shape-rendering="crispEdges"/></g></svg>