<svg fill="none" height="699" viewBox="0 0 302 699" width="302" xmlns="http://www.w3.org/2000/svg" xmlns:xlink="http://www.w3.org/1999/xlink"><filter id="a" color-interpolation-filters="sRGB" filterUnits="userSpaceOnUse" height="406.944" width="100.643" x="103.476" y="201.225"><feFlood flood-opacity="0" result="BackgroundImageFix"/><feBlend in="SourceGraphic" in2="BackgroundImageFix" mode="normal" result="shape"/><feColorMatrix in="SourceAlpha" result="hardAlpha" type="matrix" values="0 0 0 0 0 0 0 0 0 0 0 0 0 0 0 0 0 0 127 0"/><feOffset dx="22.3584" dy="-11.1792"/><feGaussianBlur stdDeviation="16.7688"/><feComposite in2="hardAlpha" k2="-1" k3="1" operator="arithmetic"/><feColorMatrix type="matrix" values="0 0 0 0 0 0 0 0 0 0 0 0 0 0 0 0 0 0 0.25 0"/><feBlend in2="shape" mode="normal" result="effect1_innerShadow_1241_306594"/><feColorMatrix in="SourceAlpha" result="hardAlpha" type="matrix" values="0 0 0 0 0 0 0 0 0 0 0 0 0 0 0 0 0 0 127 0"/><feOffset dx="-22.3584" dy="33.5375"/><feGaussianBlur stdDeviation="16.0701"/><feComposite in2="hardAlpha" k2="-1" k3="1" operator="arithmetic"/><feColorMatrix type="matrix" values="0 0 0 0 1 0 0 0 0 1 0 0 0 0 1 0 0 0 0.25 0"/><feBlend in2="effect1_innerShadow_1241_306594" mode="normal" result="effect2_innerShadow_1241_306594"/></filter><filter id="b" color-interpolation-filters="sRGB" filterUnits="userSpaceOnUse" height="304.004" width="350.904" x="-18.1631" y="210.773"><feFlood flood-opacity="0" result="BackgroundImageFix"/><feBlend in="SourceGraphic" in2="BackgroundImageFix" mode="normal" result="shape"/><feColorMatrix in="SourceAlpha" result="hardAlpha" type="matrix" values="0 0 0 0 0 0 0 0 0 0 0 0 0 0 0 0 0 0 127 0"/><feOffset dx="36.3323" dy="-37.2794"/><feGaussianBlur stdDeviation="24.2309"/><feComposite in2="hardAlpha" k2="-1" k3="1" operator="arithmetic"/><feColorMatrix type="matrix" values="0 0 0 0 0 0 0 0 0 0 0 0 0 0 0 0 0 0 0.25 0"/><feBlend in2="shape" mode="normal" result="effect1_innerShadow_1241_306594"/><feColorMatrix in="SourceAlpha" result="hardAlpha" type="matrix" values="0 0 0 0 0 0 0 0 0 0 0 0 0 0 0 0 0 0 127 0"/><feOffset dx="-22.3584" dy="25.3628"/><feGaussianBlur stdDeviation="29.4502"/><feComposite in2="hardAlpha" k2="-1" k3="1" operator="arithmetic"/><feColorMatrix type="matrix" values="0 0 0 0 1 0 0 0 0 1 0 0 0 0 1 0 0 0 0.25 0"/><feBlend in2="effect1_innerShadow_1241_306594" mode="normal" result="effect2_innerShadow_1241_306594"/></filter><filter id="c" color-interpolation-filters="sRGB" filterUnits="userSpaceOnUse" height="341.123" width="314.552" x=".01273" y="81.1473"><feFlood flood-opacity="0" result="BackgroundImageFix"/><feBlend in="SourceGraphic" in2="BackgroundImageFix" mode="normal" result="shape"/><feColorMatrix in="SourceAlpha" result="hardAlpha" type="matrix" values="0 0 0 0 0 0 0 0 0 0 0 0 0 0 0 0 0 0 127 0"/><feOffset dx="36.3323" dy="-37.2794"/><feGaussianBlur stdDeviation="24.2309"/><feComposite in2="hardAlpha" k2="-1" k3="1" operator="arithmetic"/><feColorMatrix type="matrix" values="0 0 0 0 0 0 0 0 0 0 0 0 0 0 0 0 0 0 0.25 0"/><feBlend in2="shape" mode="normal" result="effect1_innerShadow_1241_306594"/><feColorMatrix in="SourceAlpha" result="hardAlpha" type="matrix" values="0 0 0 0 0 0 0 0 0 0 0 0 0 0 0 0 0 0 127 0"/><feOffset dx="-22.3584" dy="25.3628"/><feGaussianBlur stdDeviation="29.4502"/><feComposite in2="hardAlpha" k2="-1" k3="1" operator="arithmetic"/><feColorMatrix type="matrix" values="0 0 0 0 1 0 0 0 0 1 0 0 0 0 1 0 0 0 0.25 0"/><feBlend in2="effect1_innerShadow_1241_306594" mode="normal" result="effect2_innerShadow_1241_306594"/></filter><filter id="d" color-interpolation-filters="sRGB" filterUnits="userSpaceOnUse" height="321.952" width="267.015" x="23.7803" y="-1.24694"><feFlood flood-opacity="0" result="BackgroundImageFix"/><feBlend in="SourceGraphic" in2="BackgroundImageFix" mode="normal" result="shape"/><feColorMatrix in="SourceAlpha" result="hardAlpha" type="matrix" values="0 0 0 0 0 0 0 0 0 0 0 0 0 0 0 0 0 0 127 0"/><feOffset dx="36.3323" dy="-37.2794"/><feGaussianBlur stdDeviation="24.2309"/><feComposite in2="hardAlpha" k2="-1" k3="1" operator="arithmetic"/><feColorMatrix type="matrix" values="0 0 0 0 0 0 0 0 0 0 0 0 0 0 0 0 0 0 0.25 0"/><feBlend in2="shape" mode="normal" result="effect1_innerShadow_1241_306594"/><feColorMatrix in="SourceAlpha" result="hardAlpha" type="matrix" values="0 0 0 0 0 0 0 0 0 0 0 0 0 0 0 0 0 0 127 0"/><feOffset dx="-22.3584" dy="25.3628"/><feGaussianBlur stdDeviation="29.4502"/><feComposite in2="hardAlpha" k2="-1" k3="1" operator="arithmetic"/><feColorMatrix type="matrix" values="0 0 0 0 1 0 0 0 0 1 0 0 0 0 1 0 0 0 0.25 0"/><feBlend in2="effect1_innerShadow_1241_306594" mode="normal" result="effect2_innerShadow_1241_306594"/></filter><linearGradient id="e" gradientUnits="userSpaceOnUse" x1="153.797" x2="153.797" y1="468.128" y2="526.12"><stop offset="0" stop-opacity=".24"/><stop offset="1" stop-opacity="0"/></linearGradient><g fill="#000"><path d="m44.2269 654.797c58.9691 58.937 154.5771 58.938 213.5461 0s58.969-154.494 0-213.432c-58.969-58.937-154.577-58.937-213.5461 0-58.9692 58.938-58.9692 154.494 0 213.432z" fill-opacity=".12" opacity=".3"/><path d="m90.5239 611.32c34.9451 34.926 91.6011 34.926 126.5461 0 34.944-34.926 34.944-91.552 0-126.478-34.945-34.926-91.601-34.926-126.5461 0-34.9447 34.926-34.9447 91.552 0 126.478z" fill-opacity=".12"/><path d="m122.159 579.701c17.472 17.463 45.801 17.463 63.273 0s17.472-45.776 0-63.239-45.801-17.463-63.273 0-17.472 45.776 0 63.239z" fill-opacity=".2"/></g><g filter="url(#a)"><path d="m181.76 212.405h-55.926v335.661c0 15.444 12.519 27.963 27.963 27.963 15.443 0 27.963-12.519 27.963-27.963z" fill="#82644d"/></g><path d="m181.76 448.565h-55.926v25.138c0 15.443 12.519 27.963 27.963 27.963 15.443 0 27.963-12.52 27.963-27.963z" fill="url(#e)"/><g filter="url(#b)"><path d="m4.19525 382.864c0 12.524 7.46055 8.596 10.94475 20.045 3.3986 11.168 2.7422 21.711 8.9826 31.404 7.1446 11.099 26.4848 15.738 36.6977 24.276 12.0491 10.072 23.8922 23.474 39.1481 28.964 14.7846 5.321 32.2036-2.458 48.9356-2.458 16.731 0 32.752 7.779 47.537 2.458 15.255-5.49 25.001-18.892 37.051-28.964 10.212-8.538 35.844-13.177 42.989-24.276 6.24-9.693 5.584-20.236 8.982-31.404 3.485-11.449 10.945-7.521 10.945-20.045 0-179.749-292.21275-179.749-292.21275 0z" fill="#15803d"/></g><path d="m26.5646 305.367c0 10.921 2.5778 10.73 5.5926 20.714 2.9407 9.739 10.445 22.345 15.8447 30.798 6.1821 9.677 18.6826 13.723 27.5196 21.167 10.4259 8.783 17.6491 20.469 30.8495 25.257 12.793 4.64 26.656.529 43.93-2.144 14.477 0 31.136 6.784 43.929 2.144 13.201-4.788 20.424-16.474 30.85-25.257 8.837-7.444 21.337-11.49 27.52-21.167 5.399-8.453 8.709-21.059 11.65-30.798 3.015-9.984 8.389-15.139 8.389-26.06 0-40.243-51.371-111.085-87.536-155.971-21.765-27.014-48.248-27.421-69.699-.157-36.5935 46.509-88.8394 121.119-88.8394 161.474z" fill="#000" fill-opacity=".12"/><g filter="url(#c)"><path d="m22.3713 294.676c0 10.921 9.5685 13.403 12.5833 23.387 2.9407 9.739 10.445 22.345 15.8447 30.798 6.1822 9.677 18.6826 13.723 27.5197 21.167 10.4259 8.783 17.6491 20.469 30.85 25.257 12.793 4.64 26.655-2.144 41.133-2.144s28.34 6.784 41.133 2.144c13.201-4.788 20.424-16.474 30.85-25.257 8.837-7.444 21.337-11.49 27.519-21.167 5.4-8.453 8.71-21.059 11.651-30.798 3.014-9.984 16.777-12.466 16.777-23.387 0-40.072-53.265-110.486-91.055-155.4-23.027-27.367-51.341-28.019-74.32-.612-37.7535 45.031-90.4857 116.141-90.4857 156.012z" fill="#15803d"/></g><path d="m51.7329 217.044c0 8.935 3.1193 9.326 5.5926 17.495 2.4124 7.967 6.9193 19.922 11.349 26.838 5.0716 7.918 15.3265 11.228 22.576 17.319 8.553 7.186 14.4785 16.747 25.3075 20.664 10.495 3.796 21.867-1.754 33.744-1.754s23.249 5.55 33.744 1.754c10.83-3.917 16.755-13.478 25.308-20.664 7.25-6.091 17.505-9.401 22.576-17.319 4.43-6.916 9.636-18.871 12.048-26.838 2.474-8.169 3.496-8.56 3.496-17.495 0-20.109-15.219-53.057-33.611-85.532-37.435-66.0995-90.458-66.6977-128.0346-.678-18.6571 32.779-34.0955 66.101-34.0955 86.21z" fill="#000" fill-opacity=".12"/><g filter="url(#d)"><path d="m46.1388 211.699c0 8.935 8.712 9.326 11.1852 17.494 2.4124 7.968 6.9193 19.923 11.349 26.839 5.0716 7.917 15.3265 11.228 22.576 17.318 8.553 7.186 14.479 16.748 25.308 20.665 10.495 3.796 21.867-1.754 33.744-1.754s23.249 5.55 33.744 1.754c10.829-3.917 16.755-13.479 25.308-20.665 7.249-6.09 17.504-9.401 22.576-17.318 4.429-6.916 9.635-18.871 12.048-26.839 2.473-8.168 10.486-8.559 10.486-17.494 0-29.968-36.232-96.228-65.958-145.547-24.061-39.9184-52.859-40.2923-76.828-.3193-29.6466 49.4403-65.5382 116.0393-65.5382 145.8663z" fill="#15803d"/></g></svg>