<svg fill="none" height="1216" viewBox="0 0 1191 1216" width="1191" xmlns="http://www.w3.org/2000/svg" xmlns:xlink="http://www.w3.org/1999/xlink"><filter id="a" color-interpolation-filters="sRGB" filterUnits="userSpaceOnUse" height="387.689" width="94.605" x="658.697" y="166.021"><feFlood flood-opacity="0" result="BackgroundImageFix"/><feBlend in="SourceGraphic" in2="BackgroundImageFix" mode="normal" result="shape"/><feColorMatrix in="SourceAlpha" result="hardAlpha" type="matrix" values="0 0 0 0 0 0 0 0 0 0 0 0 0 0 0 0 0 0 127 0"/><feOffset dx="21.1626" dy="-10.5813"/><feGaussianBlur stdDeviation="15.8719"/><feComposite in2="hardAlpha" k2="-1" k3="1" operator="arithmetic"/><feColorMatrix type="matrix" values="0 0 0 0 0 0 0 0 0 0 0 0 0 0 0 0 0 0 0.25 0"/><feBlend in2="shape" mode="normal" result="effect1_innerShadow_1241_306382"/><feColorMatrix in="SourceAlpha" result="hardAlpha" type="matrix" values="0 0 0 0 0 0 0 0 0 0 0 0 0 0 0 0 0 0 127 0"/><feOffset dx="-21.1626" dy="31.7439"/><feGaussianBlur stdDeviation="15.2106"/><feComposite in2="hardAlpha" k2="-1" k3="1" operator="arithmetic"/><feColorMatrix type="matrix" values="0 0 0 0 1 0 0 0 0 1 0 0 0 0 1 0 0 0 0.25 0"/><feBlend in2="effect1_innerShadow_1241_306382" mode="normal" result="effect2_innerShadow_1241_306382"/></filter><filter id="b" color-interpolation-filters="sRGB" filterUnits="userSpaceOnUse" height="374.873" width="345.885" x="539.966" y="81.5041"><feFlood flood-opacity="0" result="BackgroundImageFix"/><feBlend in="SourceGraphic" in2="BackgroundImageFix" mode="normal" result="shape"/><feColorMatrix in="SourceAlpha" result="hardAlpha" type="matrix" values="0 0 0 0 0 0 0 0 0 0 0 0 0 0 0 0 0 0 127 0"/><feOffset dx="39.9275" dy="-40.9683"/><feGaussianBlur stdDeviation="26.6286"/><feComposite in2="hardAlpha" k2="-1" k3="1" operator="arithmetic"/><feColorMatrix type="matrix" values="0 0 0 0 0 0 0 0 0 0 0 0 0 0 0 0 0 0 0.25 0"/><feBlend in2="shape" mode="normal" result="effect1_innerShadow_1241_306382"/><feColorMatrix in="SourceAlpha" result="hardAlpha" type="matrix" values="0 0 0 0 0 0 0 0 0 0 0 0 0 0 0 0 0 0 127 0"/><feOffset dx="-24.5708" dy="27.8725"/><feGaussianBlur stdDeviation="32.3643"/><feComposite in2="hardAlpha" k2="-1" k3="1" operator="arithmetic"/><feColorMatrix type="matrix" values="0 0 0 0 1 0 0 0 0 1 0 0 0 0 1 0 0 0 0.25 0"/><feBlend in2="effect1_innerShadow_1241_306382" mode="normal" result="effect2_innerShadow_1241_306382"/></filter><filter id="c" color-interpolation-filters="sRGB" filterUnits="userSpaceOnUse" height="346.808" width="293.606" x="566.106" y="-2.04633"><feFlood flood-opacity="0" result="BackgroundImageFix"/><feBlend in="SourceGraphic" in2="BackgroundImageFix" mode="normal" result="shape"/><feColorMatrix in="SourceAlpha" result="hardAlpha" type="matrix" values="0 0 0 0 0 0 0 0 0 0 0 0 0 0 0 0 0 0 127 0"/><feOffset dx="39.9275" dy="-40.9683"/><feGaussianBlur stdDeviation="26.6286"/><feComposite in2="hardAlpha" k2="-1" k3="1" operator="arithmetic"/><feColorMatrix type="matrix" values="0 0 0 0 0 0 0 0 0 0 0 0 0 0 0 0 0 0 0.25 0"/><feBlend in2="shape" mode="normal" result="effect1_innerShadow_1241_306382"/><feColorMatrix in="SourceAlpha" result="hardAlpha" type="matrix" values="0 0 0 0 0 0 0 0 0 0 0 0 0 0 0 0 0 0 127 0"/><feOffset dx="-24.5708" dy="27.8725"/><feGaussianBlur stdDeviation="32.3643"/><feComposite in2="hardAlpha" k2="-1" k3="1" operator="arithmetic"/><feColorMatrix type="matrix" values="0 0 0 0 1 0 0 0 0 1 0 0 0 0 1 0 0 0 0.25 0"/><feBlend in2="effect1_innerShadow_1241_306382" mode="normal" result="effect2_innerShadow_1241_306382"/></filter><filter id="d" color-interpolation-filters="sRGB" filterUnits="userSpaceOnUse" height="448.689" width="94.6045" x="1000.7" y="384.021"><feFlood flood-opacity="0" result="BackgroundImageFix"/><feBlend in="SourceGraphic" in2="BackgroundImageFix" mode="normal" result="shape"/><feColorMatrix in="SourceAlpha" result="hardAlpha" type="matrix" values="0 0 0 0 0 0 0 0 0 0 0 0 0 0 0 0 0 0 127 0"/><feOffset dx="21.1626" dy="-10.5813"/><feGaussianBlur stdDeviation="15.8719"/><feComposite in2="hardAlpha" k2="-1" k3="1" operator="arithmetic"/><feColorMatrix type="matrix" values="0 0 0 0 0 0 0 0 0 0 0 0 0 0 0 0 0 0 0.25 0"/><feBlend in2="shape" mode="normal" result="effect1_innerShadow_1241_306382"/><feColorMatrix in="SourceAlpha" result="hardAlpha" type="matrix" values="0 0 0 0 0 0 0 0 0 0 0 0 0 0 0 0 0 0 127 0"/><feOffset dx="-21.1626" dy="31.7439"/><feGaussianBlur stdDeviation="15.2106"/><feComposite in2="hardAlpha" k2="-1" k3="1" operator="arithmetic"/><feColorMatrix type="matrix" values="0 0 0 0 1 0 0 0 0 1 0 0 0 0 1 0 0 0 0.25 0"/><feBlend in2="effect1_innerShadow_1241_306382" mode="normal" result="effect2_innerShadow_1241_306382"/></filter><filter id="e" color-interpolation-filters="sRGB" filterUnits="userSpaceOnUse" height="374.873" width="345.885" x="883.505" y="299.504"><feFlood flood-opacity="0" result="BackgroundImageFix"/><feBlend in="SourceGraphic" in2="BackgroundImageFix" mode="normal" result="shape"/><feColorMatrix in="SourceAlpha" result="hardAlpha" type="matrix" values="0 0 0 0 0 0 0 0 0 0 0 0 0 0 0 0 0 0 127 0"/><feOffset dx="39.9275" dy="-40.9683"/><feGaussianBlur stdDeviation="26.6286"/><feComposite in2="hardAlpha" k2="-1" k3="1" operator="arithmetic"/><feColorMatrix type="matrix" values="0 0 0 0 0 0 0 0 0 0 0 0 0 0 0 0 0 0 0.25 0"/><feBlend in2="shape" mode="normal" result="effect1_innerShadow_1241_306382"/><feColorMatrix in="SourceAlpha" result="hardAlpha" type="matrix" values="0 0 0 0 0 0 0 0 0 0 0 0 0 0 0 0 0 0 127 0"/><feOffset dx="-24.5708" dy="27.8725"/><feGaussianBlur stdDeviation="32.3643"/><feComposite in2="hardAlpha" k2="-1" k3="1" operator="arithmetic"/><feColorMatrix type="matrix" values="0 0 0 0 1 0 0 0 0 1 0 0 0 0 1 0 0 0 0.25 0"/><feBlend in2="effect1_innerShadow_1241_306382" mode="normal" result="effect2_innerShadow_1241_306382"/></filter><filter id="f" color-interpolation-filters="sRGB" filterUnits="userSpaceOnUse" height="346.808" width="293.606" x="909.645" y="215.955"><feFlood flood-opacity="0" result="BackgroundImageFix"/><feBlend in="SourceGraphic" in2="BackgroundImageFix" mode="normal" result="shape"/><feColorMatrix in="SourceAlpha" result="hardAlpha" type="matrix" values="0 0 0 0 0 0 0 0 0 0 0 0 0 0 0 0 0 0 127 0"/><feOffset dx="39.9275" dy="-40.9683"/><feGaussianBlur stdDeviation="26.6286"/><feComposite in2="hardAlpha" k2="-1" k3="1" operator="arithmetic"/><feColorMatrix type="matrix" values="0 0 0 0 0 0 0 0 0 0 0 0 0 0 0 0 0 0 0.25 0"/><feBlend in2="shape" mode="normal" result="effect1_innerShadow_1241_306382"/><feColorMatrix in="SourceAlpha" result="hardAlpha" type="matrix" values="0 0 0 0 0 0 0 0 0 0 0 0 0 0 0 0 0 0 127 0"/><feOffset dx="-24.5708" dy="27.8725"/><feGaussianBlur stdDeviation="32.3643"/><feComposite in2="hardAlpha" k2="-1" k3="1" operator="arithmetic"/><feColorMatrix type="matrix" values="0 0 0 0 1 0 0 0 0 1 0 0 0 0 1 0 0 0 0.25 0"/><feBlend in2="effect1_innerShadow_1241_306382" mode="normal" result="effect2_innerShadow_1241_306382"/></filter><filter id="g" color-interpolation-filters="sRGB" filterUnits="userSpaceOnUse" height="533.952" width="120.971" x="398.653" y="302.87"><feFlood flood-opacity="0" result="BackgroundImageFix"/><feBlend in="SourceGraphic" in2="BackgroundImageFix" mode="normal" result="shape"/><feColorMatrix in="SourceAlpha" result="hardAlpha" type="matrix" values="0 0 0 0 0 0 0 0 0 0 0 0 0 0 0 0 0 0 127 0"/><feOffset dx="26.8745" dy="-13.4372"/><feGaussianBlur stdDeviation="20.1558"/><feComposite in2="hardAlpha" k2="-1" k3="1" operator="arithmetic"/><feColorMatrix type="matrix" values="0 0 0 0 0 0 0 0 0 0 0 0 0 0 0 0 0 0 0.25 0"/><feBlend in2="shape" mode="normal" result="effect1_innerShadow_1241_306382"/><feColorMatrix in="SourceAlpha" result="hardAlpha" type="matrix" values="0 0 0 0 0 0 0 0 0 0 0 0 0 0 0 0 0 0 127 0"/><feOffset dx="-26.8745" dy="40.3117"/><feGaussianBlur stdDeviation="19.316"/><feComposite in2="hardAlpha" k2="-1" k3="1" operator="arithmetic"/><feColorMatrix type="matrix" values="0 0 0 0 1 0 0 0 0 1 0 0 0 0 1 0 0 0 0.25 0"/><feBlend in2="effect1_innerShadow_1241_306382" mode="normal" result="effect2_innerShadow_1241_306382"/></filter><filter id="h" color-interpolation-filters="sRGB" filterUnits="userSpaceOnUse" height="365.409" width="421.781" x="260.848" y="314.346"><feFlood flood-opacity="0" result="BackgroundImageFix"/><feBlend in="SourceGraphic" in2="BackgroundImageFix" mode="normal" result="shape"/><feColorMatrix in="SourceAlpha" result="hardAlpha" type="matrix" values="0 0 0 0 0 0 0 0 0 0 0 0 0 0 0 0 0 0 127 0"/><feOffset dx="43.671" dy="-44.8094"/><feGaussianBlur stdDeviation="29.1252"/><feComposite in2="hardAlpha" k2="-1" k3="1" operator="arithmetic"/><feColorMatrix type="matrix" values="0 0 0 0 0 0 0 0 0 0 0 0 0 0 0 0 0 0 0.25 0"/><feBlend in2="shape" mode="normal" result="effect1_innerShadow_1241_306382"/><feColorMatrix in="SourceAlpha" result="hardAlpha" type="matrix" values="0 0 0 0 0 0 0 0 0 0 0 0 0 0 0 0 0 0 127 0"/><feOffset dx="-26.8745" dy="30.4857"/><feGaussianBlur stdDeviation="35.3987"/><feComposite in2="hardAlpha" k2="-1" k3="1" operator="arithmetic"/><feColorMatrix type="matrix" values="0 0 0 0 1 0 0 0 0 1 0 0 0 0 1 0 0 0 0.25 0"/><feBlend in2="effect1_innerShadow_1241_306382" mode="normal" result="effect2_innerShadow_1241_306382"/></filter><filter id="i" color-interpolation-filters="sRGB" filterUnits="userSpaceOnUse" height="410.025" width="378.087" x="282.695" y="158.538"><feFlood flood-opacity="0" result="BackgroundImageFix"/><feBlend in="SourceGraphic" in2="BackgroundImageFix" mode="normal" result="shape"/><feColorMatrix in="SourceAlpha" result="hardAlpha" type="matrix" values="0 0 0 0 0 0 0 0 0 0 0 0 0 0 0 0 0 0 127 0"/><feOffset dx="43.671" dy="-44.8094"/><feGaussianBlur stdDeviation="29.1252"/><feComposite in2="hardAlpha" k2="-1" k3="1" operator="arithmetic"/><feColorMatrix type="matrix" values="0 0 0 0 0 0 0 0 0 0 0 0 0 0 0 0 0 0 0.25 0"/><feBlend in2="shape" mode="normal" result="effect1_innerShadow_1241_306382"/><feColorMatrix in="SourceAlpha" result="hardAlpha" type="matrix" values="0 0 0 0 0 0 0 0 0 0 0 0 0 0 0 0 0 0 127 0"/><feOffset dx="-26.8745" dy="30.4857"/><feGaussianBlur stdDeviation="35.3987"/><feComposite in2="hardAlpha" k2="-1" k3="1" operator="arithmetic"/><feColorMatrix type="matrix" values="0 0 0 0 1 0 0 0 0 1 0 0 0 0 1 0 0 0 0.25 0"/><feBlend in2="effect1_innerShadow_1241_306382" mode="normal" result="effect2_innerShadow_1241_306382"/></filter><filter id="j" color-interpolation-filters="sRGB" filterUnits="userSpaceOnUse" height="386.983" width="320.948" x="311.264" y="59.5008"><feFlood flood-opacity="0" result="BackgroundImageFix"/><feBlend in="SourceGraphic" in2="BackgroundImageFix" mode="normal" result="shape"/><feColorMatrix in="SourceAlpha" result="hardAlpha" type="matrix" values="0 0 0 0 0 0 0 0 0 0 0 0 0 0 0 0 0 0 127 0"/><feOffset dx="43.671" dy="-44.8094"/><feGaussianBlur stdDeviation="29.1252"/><feComposite in2="hardAlpha" k2="-1" k3="1" operator="arithmetic"/><feColorMatrix type="matrix" values="0 0 0 0 0 0 0 0 0 0 0 0 0 0 0 0 0 0 0.25 0"/><feBlend in2="shape" mode="normal" result="effect1_innerShadow_1241_306382"/><feColorMatrix in="SourceAlpha" result="hardAlpha" type="matrix" values="0 0 0 0 0 0 0 0 0 0 0 0 0 0 0 0 0 0 127 0"/><feOffset dx="-26.8745" dy="30.4857"/><feGaussianBlur stdDeviation="35.3987"/><feComposite in2="hardAlpha" k2="-1" k3="1" operator="arithmetic"/><feColorMatrix type="matrix" values="0 0 0 0 1 0 0 0 0 1 0 0 0 0 1 0 0 0 0.25 0"/><feBlend in2="effect1_innerShadow_1241_306382" mode="normal" result="effect2_innerShadow_1241_306382"/></filter><filter id="k" color-interpolation-filters="sRGB" filterUnits="userSpaceOnUse" height="265.255" width="54.005" x="53.9975" y="566.999"><feFlood flood-opacity="0" result="BackgroundImageFix"/><feBlend in="SourceGraphic" in2="BackgroundImageFix" mode="normal" result="shape"/><feColorMatrix in="SourceAlpha" result="hardAlpha" type="matrix" values="0 0 0 0 0 0 0 0 0 0 0 0 0 0 0 0 0 0 127 0"/><feOffset dx="12.0025" dy="-6.00125"/><feGaussianBlur stdDeviation="9.00187"/><feComposite in2="hardAlpha" k2="-1" k3="1" operator="arithmetic"/><feColorMatrix type="matrix" values="0 0 0 0 0 0 0 0 0 0 0 0 0 0 0 0 0 0 0.25 0"/><feBlend in2="shape" mode="normal" result="effect1_innerShadow_1241_306382"/><feColorMatrix in="SourceAlpha" result="hardAlpha" type="matrix" values="0 0 0 0 0 0 0 0 0 0 0 0 0 0 0 0 0 0 127 0"/><feOffset dx="-12.0025" dy="18.0037"/><feGaussianBlur stdDeviation="8.62679"/><feComposite in2="hardAlpha" k2="-1" k3="1" operator="arithmetic"/><feColorMatrix type="matrix" values="0 0 0 0 1 0 0 0 0 1 0 0 0 0 1 0 0 0 0.25 0"/><feBlend in2="effect1_innerShadow_1241_306382" mode="normal" result="effect2_innerShadow_1241_306382"/></filter><filter id="l" color-interpolation-filters="sRGB" filterUnits="userSpaceOnUse" height="225.705" width="174" x="-2" y="509.445"><feFlood flood-opacity="0" result="BackgroundImageFix"/><feBlend in="SourceGraphic" in2="BackgroundImageFix" mode="normal" result="shape"/><feColorMatrix in="SourceAlpha" result="hardAlpha" type="matrix" values="0 0 0 0 0 0 0 0 0 0 0 0 0 0 0 0 0 0 127 0"/><feOffset dx="26" dy="-26.6777"/><feGaussianBlur stdDeviation="17.34"/><feComposite in2="hardAlpha" k2="-1" k3="1" operator="arithmetic"/><feColorMatrix type="matrix" values="0 0 0 0 0 0 0 0 0 0 0 0 0 0 0 0 0 0 0.25 0"/><feBlend in2="shape" mode="normal" result="effect1_innerShadow_1241_306382"/><feColorMatrix in="SourceAlpha" result="hardAlpha" type="matrix" values="0 0 0 0 0 0 0 0 0 0 0 0 0 0 0 0 0 0 127 0"/><feOffset dx="-16" dy="18.15"/><feGaussianBlur stdDeviation="21.075"/><feComposite in2="hardAlpha" k2="-1" k3="1" operator="arithmetic"/><feColorMatrix type="matrix" values="0 0 0 0 1 0 0 0 0 1 0 0 0 0 1 0 0 0 0.25 0"/><feBlend in2="effect1_innerShadow_1241_306382" mode="normal" result="effect2_innerShadow_1241_306382"/></filter><filter id="m" color-interpolation-filters="sRGB" filterUnits="userSpaceOnUse" height="483.952" width="120.972" x="768.375" y="561.87"><feFlood flood-opacity="0" result="BackgroundImageFix"/><feBlend in="SourceGraphic" in2="BackgroundImageFix" mode="normal" result="shape"/><feColorMatrix in="SourceAlpha" result="hardAlpha" type="matrix" values="0 0 0 0 0 0 0 0 0 0 0 0 0 0 0 0 0 0 127 0"/><feOffset dx="26.8745" dy="-13.4372"/><feGaussianBlur stdDeviation="20.1558"/><feComposite in2="hardAlpha" k2="-1" k3="1" operator="arithmetic"/><feColorMatrix type="matrix" values="0 0 0 0 0 0 0 0 0 0 0 0 0 0 0 0 0 0 0.25 0"/><feBlend in2="shape" mode="normal" result="effect1_innerShadow_1241_306382"/><feColorMatrix in="SourceAlpha" result="hardAlpha" type="matrix" values="0 0 0 0 0 0 0 0 0 0 0 0 0 0 0 0 0 0 127 0"/><feOffset dx="-26.8745" dy="40.3117"/><feGaussianBlur stdDeviation="19.316"/><feComposite in2="hardAlpha" k2="-1" k3="1" operator="arithmetic"/><feColorMatrix type="matrix" values="0 0 0 0 1 0 0 0 0 1 0 0 0 0 1 0 0 0 0.25 0"/><feBlend in2="effect1_innerShadow_1241_306382" mode="normal" result="effect2_innerShadow_1241_306382"/></filter><filter id="n" color-interpolation-filters="sRGB" filterUnits="userSpaceOnUse" height="365.409" width="421.782" x="622.168" y="573.346"><feFlood flood-opacity="0" result="BackgroundImageFix"/><feBlend in="SourceGraphic" in2="BackgroundImageFix" mode="normal" result="shape"/><feColorMatrix in="SourceAlpha" result="hardAlpha" type="matrix" values="0 0 0 0 0 0 0 0 0 0 0 0 0 0 0 0 0 0 127 0"/><feOffset dx="43.671" dy="-44.8094"/><feGaussianBlur stdDeviation="29.1252"/><feComposite in2="hardAlpha" k2="-1" k3="1" operator="arithmetic"/><feColorMatrix type="matrix" values="0 0 0 0 0 0 0 0 0 0 0 0 0 0 0 0 0 0 0.25 0"/><feBlend in2="shape" mode="normal" result="effect1_innerShadow_1241_306382"/><feColorMatrix in="SourceAlpha" result="hardAlpha" type="matrix" values="0 0 0 0 0 0 0 0 0 0 0 0 0 0 0 0 0 0 127 0"/><feOffset dx="-26.8745" dy="30.4857"/><feGaussianBlur stdDeviation="35.3987"/><feComposite in2="hardAlpha" k2="-1" k3="1" operator="arithmetic"/><feColorMatrix type="matrix" values="0 0 0 0 1 0 0 0 0 1 0 0 0 0 1 0 0 0 0.25 0"/><feBlend in2="effect1_innerShadow_1241_306382" mode="normal" result="effect2_innerShadow_1241_306382"/></filter><filter id="o" color-interpolation-filters="sRGB" filterUnits="userSpaceOnUse" height="410.025" width="378.087" x="644.015" y="417.539"><feFlood flood-opacity="0" result="BackgroundImageFix"/><feBlend in="SourceGraphic" in2="BackgroundImageFix" mode="normal" result="shape"/><feColorMatrix in="SourceAlpha" result="hardAlpha" type="matrix" values="0 0 0 0 0 0 0 0 0 0 0 0 0 0 0 0 0 0 127 0"/><feOffset dx="43.671" dy="-44.8094"/><feGaussianBlur stdDeviation="29.1252"/><feComposite in2="hardAlpha" k2="-1" k3="1" operator="arithmetic"/><feColorMatrix type="matrix" values="0 0 0 0 0 0 0 0 0 0 0 0 0 0 0 0 0 0 0.25 0"/><feBlend in2="shape" mode="normal" result="effect1_innerShadow_1241_306382"/><feColorMatrix in="SourceAlpha" result="hardAlpha" type="matrix" values="0 0 0 0 0 0 0 0 0 0 0 0 0 0 0 0 0 0 127 0"/><feOffset dx="-26.8745" dy="30.4857"/><feGaussianBlur stdDeviation="35.3987"/><feComposite in2="hardAlpha" k2="-1" k3="1" operator="arithmetic"/><feColorMatrix type="matrix" values="0 0 0 0 1 0 0 0 0 1 0 0 0 0 1 0 0 0 0.25 0"/><feBlend in2="effect1_innerShadow_1241_306382" mode="normal" result="effect2_innerShadow_1241_306382"/></filter><filter id="p" color-interpolation-filters="sRGB" filterUnits="userSpaceOnUse" height="386.983" width="320.948" x="672.584" y="318.501"><feFlood flood-opacity="0" result="BackgroundImageFix"/><feBlend in="SourceGraphic" in2="BackgroundImageFix" mode="normal" result="shape"/><feColorMatrix in="SourceAlpha" result="hardAlpha" type="matrix" values="0 0 0 0 0 0 0 0 0 0 0 0 0 0 0 0 0 0 127 0"/><feOffset dx="43.671" dy="-44.8094"/><feGaussianBlur stdDeviation="29.1252"/><feComposite in2="hardAlpha" k2="-1" k3="1" operator="arithmetic"/><feColorMatrix type="matrix" values="0 0 0 0 0 0 0 0 0 0 0 0 0 0 0 0 0 0 0.25 0"/><feBlend in2="shape" mode="normal" result="effect1_innerShadow_1241_306382"/><feColorMatrix in="SourceAlpha" result="hardAlpha" type="matrix" values="0 0 0 0 0 0 0 0 0 0 0 0 0 0 0 0 0 0 127 0"/><feOffset dx="-26.8745" dy="30.4857"/><feGaussianBlur stdDeviation="35.3987"/><feComposite in2="hardAlpha" k2="-1" k3="1" operator="arithmetic"/><feColorMatrix type="matrix" values="0 0 0 0 1 0 0 0 0 1 0 0 0 0 1 0 0 0 0.25 0"/><feBlend in2="effect1_innerShadow_1241_306382" mode="normal" result="effect2_innerShadow_1241_306382"/></filter><filter id="q" color-interpolation-filters="sRGB" filterUnits="userSpaceOnUse" height="406.944" width="100.643" x="206.475" y="674.225"><feFlood flood-opacity="0" result="BackgroundImageFix"/><feBlend in="SourceGraphic" in2="BackgroundImageFix" mode="normal" result="shape"/><feColorMatrix in="SourceAlpha" result="hardAlpha" type="matrix" values="0 0 0 0 0 0 0 0 0 0 0 0 0 0 0 0 0 0 127 0"/><feOffset dx="22.3584" dy="-11.1792"/><feGaussianBlur stdDeviation="16.7688"/><feComposite in2="hardAlpha" k2="-1" k3="1" operator="arithmetic"/><feColorMatrix type="matrix" values="0 0 0 0 0 0 0 0 0 0 0 0 0 0 0 0 0 0 0.25 0"/><feBlend in2="shape" mode="normal" result="effect1_innerShadow_1241_306382"/><feColorMatrix in="SourceAlpha" result="hardAlpha" type="matrix" values="0 0 0 0 0 0 0 0 0 0 0 0 0 0 0 0 0 0 127 0"/><feOffset dx="-22.3584" dy="33.5375"/><feGaussianBlur stdDeviation="16.0701"/><feComposite in2="hardAlpha" k2="-1" k3="1" operator="arithmetic"/><feColorMatrix type="matrix" values="0 0 0 0 1 0 0 0 0 1 0 0 0 0 1 0 0 0 0.25 0"/><feBlend in2="effect1_innerShadow_1241_306382" mode="normal" result="effect2_innerShadow_1241_306382"/></filter><filter id="r" color-interpolation-filters="sRGB" filterUnits="userSpaceOnUse" height="304.004" width="350.904" x="84.836" y="683.773"><feFlood flood-opacity="0" result="BackgroundImageFix"/><feBlend in="SourceGraphic" in2="BackgroundImageFix" mode="normal" result="shape"/><feColorMatrix in="SourceAlpha" result="hardAlpha" type="matrix" values="0 0 0 0 0 0 0 0 0 0 0 0 0 0 0 0 0 0 127 0"/><feOffset dx="36.3323" dy="-37.2794"/><feGaussianBlur stdDeviation="24.2309"/><feComposite in2="hardAlpha" k2="-1" k3="1" operator="arithmetic"/><feColorMatrix type="matrix" values="0 0 0 0 0 0 0 0 0 0 0 0 0 0 0 0 0 0 0.25 0"/><feBlend in2="shape" mode="normal" result="effect1_innerShadow_1241_306382"/><feColorMatrix in="SourceAlpha" result="hardAlpha" type="matrix" values="0 0 0 0 0 0 0 0 0 0 0 0 0 0 0 0 0 0 127 0"/><feOffset dx="-22.3584" dy="25.3628"/><feGaussianBlur stdDeviation="29.4502"/><feComposite in2="hardAlpha" k2="-1" k3="1" operator="arithmetic"/><feColorMatrix type="matrix" values="0 0 0 0 1 0 0 0 0 1 0 0 0 0 1 0 0 0 0.25 0"/><feBlend in2="effect1_innerShadow_1241_306382" mode="normal" result="effect2_innerShadow_1241_306382"/></filter><filter id="s" color-interpolation-filters="sRGB" filterUnits="userSpaceOnUse" height="341.123" width="314.552" x="103.011" y="554.148"><feFlood flood-opacity="0" result="BackgroundImageFix"/><feBlend in="SourceGraphic" in2="BackgroundImageFix" mode="normal" result="shape"/><feColorMatrix in="SourceAlpha" result="hardAlpha" type="matrix" values="0 0 0 0 0 0 0 0 0 0 0 0 0 0 0 0 0 0 127 0"/><feOffset dx="36.3323" dy="-37.2794"/><feGaussianBlur stdDeviation="24.2309"/><feComposite in2="hardAlpha" k2="-1" k3="1" operator="arithmetic"/><feColorMatrix type="matrix" values="0 0 0 0 0 0 0 0 0 0 0 0 0 0 0 0 0 0 0.25 0"/><feBlend in2="shape" mode="normal" result="effect1_innerShadow_1241_306382"/><feColorMatrix in="SourceAlpha" result="hardAlpha" type="matrix" values="0 0 0 0 0 0 0 0 0 0 0 0 0 0 0 0 0 0 127 0"/><feOffset dx="-22.3584" dy="25.3628"/><feGaussianBlur stdDeviation="29.4502"/><feComposite in2="hardAlpha" k2="-1" k3="1" operator="arithmetic"/><feColorMatrix type="matrix" values="0 0 0 0 1 0 0 0 0 1 0 0 0 0 1 0 0 0 0.25 0"/><feBlend in2="effect1_innerShadow_1241_306382" mode="normal" result="effect2_innerShadow_1241_306382"/></filter><filter id="t" color-interpolation-filters="sRGB" filterUnits="userSpaceOnUse" height="321.952" width="267.015" x="126.781" y="471.753"><feFlood flood-opacity="0" result="BackgroundImageFix"/><feBlend in="SourceGraphic" in2="BackgroundImageFix" mode="normal" result="shape"/><feColorMatrix in="SourceAlpha" result="hardAlpha" type="matrix" values="0 0 0 0 0 0 0 0 0 0 0 0 0 0 0 0 0 0 127 0"/><feOffset dx="36.3323" dy="-37.2794"/><feGaussianBlur stdDeviation="24.2309"/><feComposite in2="hardAlpha" k2="-1" k3="1" operator="arithmetic"/><feColorMatrix type="matrix" values="0 0 0 0 0 0 0 0 0 0 0 0 0 0 0 0 0 0 0.25 0"/><feBlend in2="shape" mode="normal" result="effect1_innerShadow_1241_306382"/><feColorMatrix in="SourceAlpha" result="hardAlpha" type="matrix" values="0 0 0 0 0 0 0 0 0 0 0 0 0 0 0 0 0 0 127 0"/><feOffset dx="-22.3584" dy="25.3628"/><feGaussianBlur stdDeviation="29.4502"/><feComposite in2="hardAlpha" k2="-1" k3="1" operator="arithmetic"/><feColorMatrix type="matrix" values="0 0 0 0 1 0 0 0 0 1 0 0 0 0 1 0 0 0 0.25 0"/><feBlend in2="effect1_innerShadow_1241_306382" mode="normal" result="effect2_innerShadow_1241_306382"/></filter><filter id="u" color-interpolation-filters="sRGB" filterUnits="userSpaceOnUse" height="341.689" width="94.605" x="515.697" y="788.021"><feFlood flood-opacity="0" result="BackgroundImageFix"/><feBlend in="SourceGraphic" in2="BackgroundImageFix" mode="normal" result="shape"/><feColorMatrix in="SourceAlpha" result="hardAlpha" type="matrix" values="0 0 0 0 0 0 0 0 0 0 0 0 0 0 0 0 0 0 127 0"/><feOffset dx="21.1626" dy="-10.5813"/><feGaussianBlur stdDeviation="15.8719"/><feComposite in2="hardAlpha" k2="-1" k3="1" operator="arithmetic"/><feColorMatrix type="matrix" values="0 0 0 0 0 0 0 0 0 0 0 0 0 0 0 0 0 0 0.25 0"/><feBlend in2="shape" mode="normal" result="effect1_innerShadow_1241_306382"/><feColorMatrix in="SourceAlpha" result="hardAlpha" type="matrix" values="0 0 0 0 0 0 0 0 0 0 0 0 0 0 0 0 0 0 127 0"/><feOffset dx="-21.1626" dy="31.7439"/><feGaussianBlur stdDeviation="15.2106"/><feComposite in2="hardAlpha" k2="-1" k3="1" operator="arithmetic"/><feColorMatrix type="matrix" values="0 0 0 0 1 0 0 0 0 1 0 0 0 0 1 0 0 0 0.25 0"/><feBlend in2="effect1_innerShadow_1241_306382" mode="normal" result="effect2_innerShadow_1241_306382"/></filter><filter id="v" color-interpolation-filters="sRGB" filterUnits="userSpaceOnUse" height="374.873" width="345.886" x="396.966" y="703.504"><feFlood flood-opacity="0" result="BackgroundImageFix"/><feBlend in="SourceGraphic" in2="BackgroundImageFix" mode="normal" result="shape"/><feColorMatrix in="SourceAlpha" result="hardAlpha" type="matrix" values="0 0 0 0 0 0 0 0 0 0 0 0 0 0 0 0 0 0 127 0"/><feOffset dx="39.9275" dy="-40.9683"/><feGaussianBlur stdDeviation="26.6286"/><feComposite in2="hardAlpha" k2="-1" k3="1" operator="arithmetic"/><feColorMatrix type="matrix" values="0 0 0 0 0 0 0 0 0 0 0 0 0 0 0 0 0 0 0.25 0"/><feBlend in2="shape" mode="normal" result="effect1_innerShadow_1241_306382"/><feColorMatrix in="SourceAlpha" result="hardAlpha" type="matrix" values="0 0 0 0 0 0 0 0 0 0 0 0 0 0 0 0 0 0 127 0"/><feOffset dx="-24.5708" dy="27.8725"/><feGaussianBlur stdDeviation="32.3643"/><feComposite in2="hardAlpha" k2="-1" k3="1" operator="arithmetic"/><feColorMatrix type="matrix" values="0 0 0 0 1 0 0 0 0 1 0 0 0 0 1 0 0 0 0.25 0"/><feBlend in2="effect1_innerShadow_1241_306382" mode="normal" result="effect2_innerShadow_1241_306382"/></filter><filter id="w" color-interpolation-filters="sRGB" filterUnits="userSpaceOnUse" height="346.808" width="293.606" x="423.106" y="619.954"><feFlood flood-opacity="0" result="BackgroundImageFix"/><feBlend in="SourceGraphic" in2="BackgroundImageFix" mode="normal" result="shape"/><feColorMatrix in="SourceAlpha" result="hardAlpha" type="matrix" values="0 0 0 0 0 0 0 0 0 0 0 0 0 0 0 0 0 0 127 0"/><feOffset dx="39.9275" dy="-40.9683"/><feGaussianBlur stdDeviation="26.6286"/><feComposite in2="hardAlpha" k2="-1" k3="1" operator="arithmetic"/><feColorMatrix type="matrix" values="0 0 0 0 0 0 0 0 0 0 0 0 0 0 0 0 0 0 0.25 0"/><feBlend in2="shape" mode="normal" result="effect1_innerShadow_1241_306382"/><feColorMatrix in="SourceAlpha" result="hardAlpha" type="matrix" values="0 0 0 0 0 0 0 0 0 0 0 0 0 0 0 0 0 0 127 0"/><feOffset dx="-24.5708" dy="27.8725"/><feGaussianBlur stdDeviation="32.3643"/><feComposite in2="hardAlpha" k2="-1" k3="1" operator="arithmetic"/><feColorMatrix type="matrix" values="0 0 0 0 1 0 0 0 0 1 0 0 0 0 1 0 0 0 0.25 0"/><feBlend in2="effect1_innerShadow_1241_306382" mode="normal" result="effect2_innerShadow_1241_306382"/></filter><linearGradient id="x"><stop offset="0" stop-opacity=".24"/><stop offset="1" stop-opacity="0"/></linearGradient><linearGradient id="y" gradientUnits="userSpaceOnUse" x1="706" x2="706" xlink:href="#x" y1="419.482" y2="474.827"/><linearGradient id="z" gradientUnits="userSpaceOnUse" x1="1048" x2="1048" xlink:href="#x" y1="637.482" y2="692.827"/><linearGradient id="A" gradientUnits="userSpaceOnUse" x1="459.139" x2="459.139" xlink:href="#x" y1="623.684" y2="693.39"/><linearGradient id="B" gradientUnits="userSpaceOnUse" x1="81" x2="81" xlink:href="#x" y1="710.684" y2="742.355"/><linearGradient id="C" gradientUnits="userSpaceOnUse" x1="828.861" x2="828.861" xlink:href="#x" y1="882.684" y2="952.389"/><linearGradient id="D" gradientUnits="userSpaceOnUse" x1="256.796" x2="256.796" xlink:href="#x" y1="941.128" y2="999.12"/><linearGradient id="E" gradientUnits="userSpaceOnUse" x1="563" x2="563" xlink:href="#x" y1="1041.48" y2="1096.83"/><g fill="#000"><path d="m604.884 598.17c55.845 55.774 146.387 55.774 202.232 0s55.845-146.201 0-201.975-146.387-55.774-202.232 0-55.845 146.201 0 201.975z" fill-opacity=".12" opacity=".3"/><path d="m646.2 556.906c33.027 32.985 86.574 32.985 119.6 0 33.027-32.984 33.027-86.463 0-119.447-33.026-32.985-86.573-32.985-119.6 0-33.026 32.984-33.026 86.463 0 119.447z" fill-opacity=".12"/><path d="m675.332 526.276c16.513 16.493 43.286 16.493 59.8 0 16.513-16.492 16.513-43.231 0-59.723-16.514-16.493-43.287-16.493-59.8 0-16.514 16.492-16.514 43.231 0 59.723z" fill-opacity=".2"/></g><g filter="url(#a)"><path d="m732.139 176.603h-52.279v320.546c0 14.437 11.703 26.14 26.139 26.14 14.437 0 26.14-11.703 26.14-26.14z" fill="#82644d"/></g><path d="m732.14 400.811h-52.28v24.538c0 14.436 11.703 26.14 26.14 26.14 14.436 0 26.14-11.704 26.14-26.14z" fill="url(#y)"/><g filter="url(#b)"><path d="m845.924 316.157c0 12.002-10.523 14.73-13.838 25.701-3.235 10.702-11.488 24.557-17.426 33.846-6.799 10.635-20.546 15.081-30.265 23.262-11.466 9.651-19.41 22.494-33.928 27.755-14.069 5.099-29.314-2.356-45.236-2.356s-31.168 7.455-45.237 2.356c-14.518-5.261-22.462-18.104-33.928-27.755-9.718-8.181-23.466-12.627-30.265-23.262-5.938-9.289-9.578-23.144-12.812-33.846-3.316-10.971-18.452-13.699-18.452-25.701 0-44.035 58.571-121.408 100.132-170.767 25.328-30.082 56.474-30.799 81.75-.673 41.52 49.487 99.505 127.626 99.505 171.44z" fill="#65a30d"/></g><path d="m813.634 230.843c0 9.819-3.431 10.249-6.151 19.226-2.653 8.756-7.61 21.894-12.481 29.494-5.578 8.701-16.856 12.339-24.829 19.032-9.406 7.897-15.923 18.405-27.832 22.709-11.542 4.172-24.049-1.927-37.111-1.927s-25.568 6.099-37.11 1.927c-11.91-4.304-18.427-14.812-27.833-22.709-7.973-6.693-19.251-10.331-24.828-19.032-4.872-7.6-10.597-20.738-13.25-29.494-2.72-8.977-3.844-9.407-3.844-19.226 0-22.09 16.724-58.278 36.94-93.953 41.181-72.6715 99.518-73.3295 140.855-.747 20.508 36.01 37.474 72.609 37.474 94.7z" fill="#000" fill-opacity=".12"/><g filter="url(#c)"><path d="m819.784 224.968c0 9.82-9.581 10.249-12.301 19.226-2.653 8.756-7.609 21.894-12.481 29.494-5.578 8.701-16.856 12.339-24.828 19.033-9.407 7.897-15.923 18.404-27.833 22.709-11.542 4.172-24.049-1.928-37.11-1.928-13.062 0-25.569 6.1-37.111 1.928-11.91-4.305-18.426-14.812-27.833-22.709-7.972-6.694-19.25-10.332-24.828-19.033-4.872-7.6-10.597-20.738-13.25-29.494-2.72-8.977-11.532-9.406-11.532-19.226 0-34.256 43.113-107.042 76.441-158.1897 24.015-36.855 52.773-37.2956 76.713-.3915 33.259 51.2722 75.953 124.4922 75.953 158.5812z" fill="#65a30d"/></g><path d="m1149.12 877.169c-55.85 55.774-146.39 55.774-202.236 0-55.845-55.774-55.845-146.201 0-201.975 55.846-55.773 146.386-55.773 202.236 0 55.84 55.774 55.84 146.201 0 201.975z" fill="#000" fill-opacity=".12" opacity=".3"/><path d="m1107.8 835.906c-33.03 32.984-86.57 32.984-119.6 0-33.027-32.985-33.027-86.463 0-119.448 33.03-32.984 86.57-32.984 119.6 0 33.03 32.985 33.03 86.463 0 119.448z" fill="#000" fill-opacity=".12"/><path d="m1078.67 805.276c-16.51 16.492-43.29 16.492-59.8 0s-16.51-43.232 0-59.724 43.29-16.492 59.8 0 16.51 43.232 0 59.724z" fill="#000" fill-opacity=".2"/><g filter="url(#d)"><path d="m1021.86 394.603h52.28v381.546c0 14.437-11.7 26.14-26.14 26.14s-26.14-11.703-26.14-26.14z" fill="#82644d"/></g><path d="m1021.86 618.811h52.28v24.538c0 14.436-11.7 26.139-26.14 26.139s-26.14-11.703-26.14-26.139z" fill="url(#z)"/><g filter="url(#e)"><path d="m908.076 534.157c0 12.002 10.523 14.729 13.838 25.701 3.235 10.702 11.488 24.557 17.426 33.845 6.799 10.635 20.546 15.082 30.265 23.262 11.466 9.652 19.41 22.495 33.925 27.756 14.07 5.099 29.32-2.356 45.24-2.356s31.17 7.455 45.24 2.356c14.51-5.261 22.46-18.104 33.92-27.756 9.72-8.18 23.47-12.627 30.27-23.262 5.94-9.288 9.58-23.143 12.81-33.845 3.32-10.972 18.45-13.699 18.45-25.701 0-44.035-58.57-121.409-100.13-170.768-25.33-30.081-56.47-30.798-81.75-.672-41.519 49.487-99.504 127.626-99.504 171.44z" fill="#15803d"/></g><path d="m940.366 448.844c0 9.819 3.431 10.249 6.15 19.226 2.654 8.756 7.61 21.894 12.482 29.494 5.577 8.701 16.855 12.339 24.828 19.032 9.406 7.897 15.923 18.405 27.834 22.709 11.54 4.172 24.05-1.927 37.11-1.927s25.57 6.099 37.11 1.927c11.91-4.304 18.43-14.812 27.83-22.709 7.98-6.693 19.25-10.331 24.83-19.032 4.87-7.6 10.6-20.738 13.25-29.494 2.72-8.977 3.84-9.407 3.84-19.226 0-22.09-16.72-58.278-36.94-93.953-41.18-72.672-99.51-73.33-140.851-.747-20.507 36.01-37.473 72.609-37.473 94.7z" fill="#000" fill-opacity=".12"/><g filter="url(#f)"><path d="m934.216 442.969c0 9.82 9.581 10.249 12.301 19.226 2.653 8.756 7.609 21.894 12.481 29.494 5.578 8.701 16.856 12.339 24.828 19.032 9.407 7.897 15.923 18.405 27.834 22.71 11.54 4.172 24.05-1.928 37.11-1.928s25.57 6.1 37.11 1.928c11.91-4.305 18.43-14.813 27.83-22.71 7.98-6.693 19.25-10.331 24.83-19.032 4.87-7.6 10.6-20.738 13.25-29.494 2.72-8.977 11.53-9.406 11.53-19.226 0-34.256-43.11-107.042-76.44-158.19-24.01-36.855-52.77-37.295-76.71-.391-33.26 51.271-75.954 124.491-75.954 158.581z" fill="#15803d"/></g><path d="m590.84 892.869c-70.88 70.842-185.8 70.842-256.68 0s-70.88-185.7 0-256.542 185.8-70.842 256.68 0 70.88 185.7 0 256.542z" fill="#000" fill-opacity=".12" opacity=".3"/><path d="m535.192 840.61c-42.003 41.981-110.104 41.981-152.107 0-42.003-41.98-42.003-110.044 0-152.025 42.003-41.98 110.104-41.98 152.107 0 42.003 41.981 42.003 110.045 0 152.025z" fill="#000" fill-opacity=".12"/><path d="m497.165 802.604c-21.001 20.99-55.051 20.99-76.053 0s-21.002-55.022 0-76.012c21.002-20.991 55.052-20.991 76.053 0 21.002 20.99 21.002 55.022 0 76.012z" fill="#000" fill-opacity=".2"/><g filter="url(#g)"><path d="m425.528 316.307h67.222v448.272c0 18.563-15.048 33.612-33.611 33.612s-33.611-15.049-33.611-33.612z" fill="#82644d"/></g><path d="m425.528 600.169h67.223v30.216c0 18.562-15.049 33.611-33.612 33.611-18.562 0-33.611-15.049-33.611-33.611z" fill="url(#A)"/><g filter="url(#h)"><path d="m638.958 521.198c0 15.054-8.967 10.331-13.155 24.094-4.085 13.424-3.296 26.096-10.797 37.747-8.588 13.34-31.835 18.917-44.11 29.179-14.483 12.106-28.718 28.215-47.056 34.815-17.771 6.396-38.708-2.956-58.819-2.956-20.112 0-39.368 9.352-57.139 2.956-18.337-6.6-30.052-22.709-44.535-34.815-12.276-10.262-43.085-15.839-51.672-29.179-7.501-11.651-6.712-24.323-10.797-37.747-4.188-13.763-13.156-9.04-13.156-24.094 0-216.056 351.236-216.056 351.236 0z" fill="#65a30d"/></g><path d="m612.069 428.047c0 13.127-3.098 12.898-6.722 24.898-3.535 11.706-12.555 26.859-19.045 37.019-7.431 11.632-22.456 16.495-33.078 25.442-12.532 10.557-21.214 24.604-37.081 30.358-15.378 5.577-32.04.636-52.803-2.577-17.402 0-37.425 8.154-52.802 2.577-15.867-5.754-24.55-19.801-37.081-30.358-10.622-8.947-25.648-13.81-33.079-25.442-6.49-10.16-10.468-25.313-14.003-37.019-3.624-12-10.083-18.197-10.083-31.323 0-48.372 61.747-133.524 105.216-187.477 26.161-32.47 57.994-32.958 83.778-.188 43.984 55.903 106.783 145.584 106.783 194.09z" fill="#000" fill-opacity=".12"/><g filter="url(#i)"><path d="m617.111 415.197c0 13.127-11.501 16.11-15.125 28.111-3.534 11.705-12.554 26.859-19.045 37.018-7.43 11.632-22.456 16.495-33.078 25.443-12.532 10.557-21.214 24.604-37.081 30.358-15.377 5.577-32.039-2.577-49.441-2.577s-34.065 8.154-49.442 2.577c-15.867-5.754-24.549-19.801-37.081-30.358-10.622-8.948-25.647-13.811-33.078-25.443-6.49-10.159-10.469-25.313-14.004-37.018-3.623-12.001-20.166-14.984-20.166-28.111 0-48.167 64.024-132.803 109.448-186.789 27.677-32.895 61.711-33.679 89.331-.735 45.379 54.126 108.762 139.599 108.762 187.524z" fill="#65a30d"/></g><path d="m581.82 321.884c0 10.74-3.75 11.21-6.722 21.028-2.9 9.578-8.317 23.947-13.642 32.26-6.096 9.517-18.422 13.496-27.136 20.817-10.28 8.637-17.403 20.13-30.42 24.838-12.614 4.563-26.283-2.109-40.559-2.109s-27.945 6.672-40.56 2.109c-13.017-4.708-20.139-16.201-30.42-24.838-8.714-7.321-21.04-11.3-27.136-20.817-5.324-8.313-11.582-22.682-14.482-32.26-2.972-9.818-4.201-10.288-4.201-21.028 0-24.171 18.293-63.773 40.4-102.808 44.996-79.451 108.729-80.17 153.895-.815 22.426 39.4 40.983 79.452 40.983 103.623z" fill="#000" fill-opacity=".12"/><g filter="url(#j)"><path d="m588.541 315.459c0 10.74-10.471 11.21-13.444 21.028-2.9 9.577-8.317 23.947-13.641 32.259-6.096 9.517-18.423 13.496-27.136 20.817-10.281 8.638-17.403 20.13-30.42 24.839-12.615 4.563-26.284-2.109-40.56-2.109s-27.945 6.672-40.56 2.109c-13.016-4.709-20.139-16.201-30.419-24.839-8.714-7.321-21.041-11.3-27.137-20.817-5.324-8.312-11.581-22.682-14.481-32.259-2.973-9.818-12.604-10.288-12.604-21.028 0-36.021 43.55-115.665 79.281-174.946 28.92-47.9809 63.535-48.4304 92.346-.383 35.634 59.426 78.775 139.477 78.775 175.329z" fill="#65a30d"/></g><path d="m23.7243 857.276c31.6325 31.632 82.9187 31.632 114.5517 0 31.632-31.633 31.632-82.919 0-114.552-31.633-31.632-82.9192-31.632-114.5517 0-31.63243 31.633-31.63241 82.919 0 114.552z" fill="#000" fill-opacity=".12" opacity=".3"/><path d="m47.0589 833.941c18.7451 18.745 49.1371 18.745 67.8821 0s18.745-49.137 0-67.882-49.137-18.745-67.8821 0c-18.7452 18.745-18.7452 49.137 0 67.882z" fill="#000" fill-opacity=".12"/><path d="m64.0294 815.971c9.3726 9.372 24.5686 9.372 33.9412 0 9.3724-9.373 9.3724-24.569 0-33.942-9.3726-9.372-24.5686-9.372-33.9412 0-9.3725 9.373-9.3725 24.569 0 33.942z" fill="#000" fill-opacity=".2"/><g filter="url(#k)"><path d="m96 573h-30v227c0 8.284 6.7157 15 15 15s15-6.716 15-15z" fill="#82644d"/></g><path d="m96 700h-30v14c0 8.284 6.7157 15 15 15s15-6.716 15-15z" fill="url(#B)"/><g filter="url(#l)"><path d="m146 670.275c0 5.605-4.936 6.878-6.492 12.002-1.517 4.997-5.388 11.466-8.174 15.804-3.19 4.966-9.639 1.305-14.198 5.125-5.378 4.507-9.105 10.504-15.915 12.961-6.6003 2.381-13.7519-1.1-21.221-1.1s-14.6207 3.481-21.2208 1.1c-6.8102-2.457-10.5367-8.454-15.9155-12.961-4.5591-3.82-11.0081-5.896-14.1976-10.862-2.7857-4.337-4.4932-10.807-6.0104-15.804-1.5553-5.123-8.6557-6.397-8.6557-12.001 0-18.846 23.0805-68.392 41.9438-105.738 15.2994-30.29 32.7751-30.277 47.5452.275 18.964 39.229 42.511 92.164 42.511 111.199z" fill="#65a30d"/></g><path d="m697.16 1101.87c70.88 70.84 185.8 70.84 256.68 0s70.88-185.701 0-256.544c-70.88-70.842-185.8-70.842-256.68 0-70.88 70.843-70.88 185.704 0 256.544z" fill="#000" fill-opacity=".12" opacity=".3"/><path d="m752.808 1049.61c42.003 41.98 110.104 41.98 152.107 0s42.003-110.044 0-152.025-110.104-41.981-152.107 0-42.003 110.045 0 152.025z" fill="#000" fill-opacity=".12"/><path d="m790.835 1011.6c21.002 20.99 55.052 20.99 76.054 0 21.001-20.987 21.001-55.019 0-76.009-21.002-20.99-55.052-20.99-76.054 0-21.001 20.99-21.001 55.022 0 76.009z" fill="#000" fill-opacity=".2"/><g filter="url(#m)"><path d="m862.472 575.307h-67.223v398.272c0 18.563 15.049 33.611 33.612 33.611 18.562 0 33.611-15.048 33.611-33.611z" fill="#82644d"/></g><path d="m862.472 859.169h-67.223v30.215c0 18.563 15.049 33.611 33.612 33.611 18.562 0 33.611-15.048 33.611-33.611z" fill="url(#C)"/><g filter="url(#n)"><path d="m649.042 780.197c0 15.054 8.968 10.332 13.156 24.094 4.085 13.424 3.296 26.096 10.797 37.748 8.587 13.34 31.834 18.917 44.11 29.178 14.483 12.107 28.718 28.216 47.055 34.816 17.772 6.395 38.708-2.956 58.82-2.956 20.111 0 39.367 9.351 57.139 2.956 18.337-6.6 30.051-22.709 44.534-34.816 12.276-10.261 43.085-15.838 51.673-29.178 7.501-11.652 6.712-24.324 10.797-37.748 4.188-13.762 13.157-9.04 13.157-24.094 0-216.055-351.238-216.055-351.238 0z" fill="#4d7c0f"/></g><path d="m675.931 687.047c0 13.127 3.099 12.898 6.722 24.899 3.535 11.705 12.555 26.858 19.046 37.018 7.43 11.632 22.456 16.495 33.078 25.443 12.532 10.557 21.214 24.603 37.081 30.358 15.377 5.577 32.039.636 52.802-2.577 17.402 0 37.426 8.154 52.803 2.577 15.867-5.755 24.549-19.801 37.081-30.358 10.622-8.948 25.647-13.811 33.078-25.443 6.491-10.16 10.469-25.313 14.004-37.018 3.623-12.001 10.083-18.197 10.083-31.324 0-48.372-61.747-133.523-105.217-187.476-26.161-32.47-57.993-32.959-83.777-.188-43.985 55.903-106.784 145.584-106.784 194.089z" fill="#000" fill-opacity=".12"/><g filter="url(#o)"><path d="m670.889 674.198c0 13.126 11.501 16.11 15.125 28.11 3.535 11.706 12.555 26.859 19.045 37.019 7.431 11.632 22.456 16.495 33.078 25.443 12.532 10.557 21.214 24.603 37.081 30.358 15.378 5.577 32.04-2.577 49.442-2.577s34.064 8.154 49.441 2.577c15.867-5.755 24.55-19.801 37.081-30.358 10.622-8.948 25.648-13.811 33.079-25.443 6.49-10.16 10.468-25.313 14.003-37.019 3.624-12 20.167-14.984 20.167-28.11 0-48.167-64.024-132.803-109.448-186.789-27.678-32.895-61.711-33.679-89.331-.736-45.38 54.127-108.763 139.599-108.763 187.525z" fill="#4d7c0f"/></g><path d="m706.18 580.884c0 10.741 3.75 11.21 6.722 21.029 2.9 9.577 8.317 23.947 13.642 32.259 6.096 9.517 18.422 13.496 27.136 20.817 10.28 8.637 17.403 20.13 30.42 24.838 12.614 4.563 26.283-2.108 40.559-2.108s27.945 6.671 40.56 2.108c13.017-4.708 20.139-16.201 30.42-24.838 8.714-7.321 21.04-11.3 27.136-20.817 5.324-8.312 11.582-22.682 14.482-32.259 2.972-9.819 4.201-10.288 4.201-21.029 0-24.17-18.293-63.773-40.4-102.807-44.996-79.451-108.729-80.17-153.895-.816-22.426 39.4-40.983 79.453-40.983 103.623z" fill="#000" fill-opacity=".12"/><g filter="url(#p)"><path d="m699.459 574.459c0 10.74 10.471 11.21 13.444 21.029 2.9 9.577 8.317 23.946 13.641 32.259 6.096 9.517 18.423 13.496 27.136 20.817 10.281 8.637 17.403 20.13 30.42 24.838 12.615 4.563 26.284-2.108 40.56-2.108s27.945 6.671 40.56 2.108c13.016-4.708 20.139-16.201 30.419-24.838 8.714-7.321 21.041-11.3 27.137-20.817 5.324-8.313 11.581-22.682 14.481-32.259 2.973-9.819 12.604-10.289 12.604-21.029 0-36.021-43.55-115.665-79.281-174.945-28.92-47.981-63.535-48.431-92.346-.384-35.634 59.427-78.775 139.478-78.775 175.329z" fill="#4d7c0f"/></g><path d="m147.227 1127.8c58.969 58.93 154.577 58.93 213.546 0 58.969-58.94 58.969-154.497 0-213.435s-154.577-58.938-213.546 0c-58.9693 58.938-58.9693 154.495 0 213.435z" fill="#000" fill-opacity=".12" opacity=".3"/><path d="m193.523 1084.32c34.945 34.93 91.602 34.93 126.546 0 34.945-34.93 34.945-91.552 0-126.478-34.944-34.926-91.601-34.926-126.546 0-34.944 34.926-34.944 91.548 0 126.478z" fill="#000" fill-opacity=".12"/><path d="m225.16 1052.7c17.472 17.46 45.801 17.46 63.273 0s17.472-45.78 0-63.239c-17.472-17.463-45.801-17.463-63.273 0-17.472 17.459-17.472 45.779 0 63.239z" fill="#000" fill-opacity=".2"/><g filter="url(#q)"><path d="m284.759 685.405h-55.926v335.665c0 15.44 12.52 27.96 27.963 27.96 15.444 0 27.963-12.52 27.963-27.96z" fill="#82644d"/></g><path d="m284.759 921.565h-55.926v25.138c0 15.443 12.519 27.963 27.963 27.963 15.443 0 27.963-12.52 27.963-27.963z" fill="url(#D)"/><g filter="url(#r)"><path d="m107.194 855.864c0 12.524 7.461 8.596 10.945 20.045 3.399 11.168 2.742 21.711 8.983 31.404 7.144 11.099 26.484 15.738 36.697 24.276 12.049 10.072 23.893 23.474 39.148 28.964 14.785 5.321 32.204-2.458 48.936-2.458 16.731 0 32.752 7.779 47.537 2.458 15.256-5.49 25.001-18.892 37.051-28.964 10.212-8.538 35.844-13.177 42.989-24.276 6.24-9.693 5.584-20.236 8.982-31.404 3.485-11.449 10.945-7.521 10.945-20.045 0-179.749-292.213-179.749-292.213 0z" fill="#15803d"/></g><path d="m129.565 778.367c0 10.921 2.577 10.731 5.592 20.715 2.941 9.738 10.445 22.345 15.845 30.797 6.182 9.678 18.683 13.724 27.52 21.168 10.425 8.782 17.649 20.469 30.849 25.256 12.793 4.64 26.656.529 43.93-2.144 14.477 0 31.136 6.784 43.929 2.144 13.201-4.787 20.424-16.474 30.85-25.256 8.837-7.444 21.337-11.49 27.52-21.168 5.399-8.452 8.709-21.059 11.65-30.797 3.015-9.984 8.389-15.139 8.389-26.06 0-40.243-51.371-111.086-87.536-155.972-21.765-27.014-48.248-27.42-69.699-.157-36.593 46.509-88.839 121.12-88.839 161.474z" fill="#000" fill-opacity=".12"/><g filter="url(#s)"><path d="m125.37 767.677c0 10.921 9.568 13.403 12.583 23.387 2.941 9.738 10.445 22.345 15.845 30.798 6.182 9.677 18.682 13.723 27.519 21.167 10.426 8.783 17.65 20.469 30.85 25.257 12.793 4.639 26.656-2.144 41.133-2.144 14.478 0 28.34 6.783 41.133 2.144 13.201-4.788 20.424-16.474 30.85-25.257 8.837-7.444 21.338-11.49 27.52-21.167 5.4-8.453 8.709-21.06 11.65-30.798 3.015-9.984 16.778-12.466 16.778-23.387 0-40.073-53.265-110.486-91.056-155.4-23.027-27.367-51.341-28.02-74.319-.612-37.754 45.031-90.486 116.14-90.486 156.012z" fill="#15803d"/></g><path d="m154.731 690.045c0 8.935 3.12 9.326 5.593 17.494 2.412 7.968 6.919 19.923 11.349 26.838 5.072 7.918 15.327 11.229 22.576 17.319 8.553 7.186 14.479 16.748 25.308 20.665 10.495 3.796 21.867-1.754 33.744-1.754s23.249 5.55 33.744 1.754c10.829-3.917 16.755-13.479 25.308-20.665 7.249-6.09 17.504-9.401 22.576-17.319 4.429-6.915 9.635-18.87 12.048-26.838 2.473-8.168 3.495-8.559 3.495-17.494 0-20.109-15.219-53.057-33.611-85.532-37.435-66.1-90.457-66.698-128.034-.679-18.657 32.78-34.096 66.101-34.096 86.211z" fill="#000" fill-opacity=".12"/><g filter="url(#t)"><path d="m149.139 684.699c0 8.935 8.712 9.326 11.185 17.495 2.413 7.967 6.92 19.922 11.349 26.838 5.072 7.918 15.327 11.228 22.576 17.319 8.553 7.186 14.479 16.747 25.308 20.664 10.495 3.796 21.867-1.754 33.744-1.754s23.249 5.55 33.744 1.754c10.83-3.917 16.755-13.478 25.308-20.664 7.25-6.091 17.505-9.401 22.576-17.319 4.43-6.916 9.636-18.871 12.048-26.838 2.474-8.169 10.486-8.56 10.486-17.495 0-29.968-36.232-96.228-65.958-145.547-24.06-39.918-52.859-40.292-76.828-.319-29.646 49.44-65.538 116.039-65.538 145.866z" fill="#15803d"/></g><path d="m461.884 1174.17c55.845 55.77 146.387 55.77 202.232 0s55.845-146.2 0-201.975c-55.845-55.774-146.387-55.774-202.232 0-55.845 55.775-55.845 146.205 0 201.975z" fill="#000" fill-opacity=".12" opacity=".3"/><path d="m503.2 1132.91c33.027 32.98 86.574 32.98 119.6 0 33.027-32.99 33.027-86.47 0-119.45-33.026-32.986-86.573-32.986-119.6 0-33.026 32.98-33.026 86.46 0 119.45z" fill="#000" fill-opacity=".12"/><path d="m532.332 1102.28c16.513 16.49 43.286 16.49 59.8 0 16.513-16.5 16.513-43.24 0-59.73-16.514-16.49-43.287-16.49-59.8 0-16.514 16.49-16.514 43.23 0 59.73z" fill="#000" fill-opacity=".2"/><g filter="url(#u)"><path d="m589.139 798.602h-52.279v274.548c0 14.44 11.703 26.14 26.139 26.14 14.437 0 26.14-11.7 26.14-26.14z" fill="#82644d"/></g><path d="m589.14 1022.81h-52.28v24.54c0 14.43 11.703 26.14 26.14 26.14 14.436 0 26.14-11.71 26.14-26.14z" fill="url(#E)"/><g filter="url(#v)"><path d="m702.924 938.157c0 12.001-10.523 14.729-13.838 25.701-3.235 10.702-11.488 24.556-17.426 33.845-6.799 10.637-20.546 15.077-30.265 23.267-11.466 9.65-19.41 22.49-33.928 27.75-14.069 5.1-29.314-2.36-45.236-2.36s-31.168 7.46-45.237 2.36c-14.518-5.26-22.462-18.1-33.928-27.75-9.718-8.19-23.466-12.63-30.265-23.267-5.938-9.289-9.578-23.143-12.812-33.845-3.316-10.972-18.452-13.7-18.452-25.701 0-44.035 58.571-121.409 100.132-170.768 25.328-30.081 56.474-30.798 81.75-.673 41.52 49.488 99.505 127.627 99.505 171.441z" fill="#15803d"/></g><path d="m670.634 852.844c0 9.819-3.431 10.249-6.151 19.225-2.653 8.757-7.61 21.894-12.481 29.494-5.578 8.702-16.856 12.34-24.829 19.033-9.406 7.897-15.923 18.404-27.832 22.709-11.542 4.172-24.049-1.928-37.111-1.928s-25.568 6.1-37.11 1.928c-11.91-4.305-18.427-14.812-27.833-22.709-7.973-6.693-19.251-10.331-24.828-19.033-4.872-7.6-10.597-20.737-13.25-29.494-2.72-8.976-3.844-9.406-3.844-19.225 0-22.09 16.724-58.278 36.94-93.953 41.181-72.672 99.518-73.33 140.855-.747 20.508 36.009 37.474 72.609 37.474 94.7z" fill="#000" fill-opacity=".12"/><g filter="url(#w)"><path d="m676.784 846.969c0 9.819-9.581 10.249-12.301 19.226-2.653 8.756-7.609 21.894-12.481 29.494-5.578 8.701-16.856 12.339-24.828 19.032-9.407 7.897-15.923 18.405-27.833 22.71-11.542 4.171-24.049-1.928-37.11-1.928-13.062 0-25.569 6.099-37.111 1.928-11.91-4.305-18.426-14.813-27.833-22.71-7.972-6.693-19.25-10.331-24.828-19.032-4.872-7.6-10.597-20.738-13.25-29.494-2.72-8.977-11.532-9.407-11.532-19.226 0-34.257 43.113-107.042 76.441-158.19 24.015-36.855 52.773-37.296 76.713-.391 33.259 51.271 75.953 124.491 75.953 158.581z" fill="#15803d"/></g></svg>