<svg fill="none" height="447" viewBox="0 0 162 447" width="162" xmlns="http://www.w3.org/2000/svg" xmlns:xlink="http://www.w3.org/1999/xlink"><filter id="a" color-interpolation-filters="sRGB" filterUnits="userSpaceOnUse" height="304.255" width="54.005" x="53.9975" y="93.9988"><feFlood flood-opacity="0" result="BackgroundImageFix"/><feBlend in="SourceGraphic" in2="BackgroundImageFix" mode="normal" result="shape"/><feColorMatrix in="SourceAlpha" result="hardAlpha" type="matrix" values="0 0 0 0 0 0 0 0 0 0 0 0 0 0 0 0 0 0 127 0"/><feOffset dx="12.0025" dy="-6.00125"/><feGaussianBlur stdDeviation="9.00187"/><feComposite in2="hardAlpha" k2="-1" k3="1" operator="arithmetic"/><feColorMatrix type="matrix" values="0 0 0 0 0 0 0 0 0 0 0 0 0 0 0 0 0 0 0.25 0"/><feBlend in2="shape" mode="normal" result="effect1_innerShadow_1241_306600"/><feColorMatrix in="SourceAlpha" result="hardAlpha" type="matrix" values="0 0 0 0 0 0 0 0 0 0 0 0 0 0 0 0 0 0 127 0"/><feOffset dx="-12.0025" dy="18.0037"/><feGaussianBlur stdDeviation="8.62679"/><feComposite in2="hardAlpha" k2="-1" k3="1" operator="arithmetic"/><feColorMatrix type="matrix" values="0 0 0 0 1 0 0 0 0 1 0 0 0 0 1 0 0 0 0.25 0"/><feBlend in2="effect1_innerShadow_1241_306600" mode="normal" result="effect2_innerShadow_1241_306600"/></filter><filter id="b" color-interpolation-filters="sRGB" filterUnits="userSpaceOnUse" height="225.705" width="174" x="0" y="36.4451"><feFlood flood-opacity="0" result="BackgroundImageFix"/><feBlend in="SourceGraphic" in2="BackgroundImageFix" mode="normal" result="shape"/><feColorMatrix in="SourceAlpha" result="hardAlpha" type="matrix" values="0 0 0 0 0 0 0 0 0 0 0 0 0 0 0 0 0 0 127 0"/><feOffset dx="26" dy="-26.6777"/><feGaussianBlur stdDeviation="17.34"/><feComposite in2="hardAlpha" k2="-1" k3="1" operator="arithmetic"/><feColorMatrix type="matrix" values="0 0 0 0 0 0 0 0 0 0 0 0 0 0 0 0 0 0 0.25 0"/><feBlend in2="shape" mode="normal" result="effect1_innerShadow_1241_306600"/><feColorMatrix in="SourceAlpha" result="hardAlpha" type="matrix" values="0 0 0 0 0 0 0 0 0 0 0 0 0 0 0 0 0 0 127 0"/><feOffset dx="-16" dy="18.15"/><feGaussianBlur stdDeviation="21.075"/><feComposite in2="hardAlpha" k2="-1" k3="1" operator="arithmetic"/><feColorMatrix type="matrix" values="0 0 0 0 1 0 0 0 0 1 0 0 0 0 1 0 0 0 0.25 0"/><feBlend in2="effect1_innerShadow_1241_306600" mode="normal" result="effect2_innerShadow_1241_306600"/></filter><linearGradient id="c" gradientUnits="userSpaceOnUse" x1="81" x2="81" y1="237.684" y2="269.355"><stop offset="0" stop-opacity=".24"/><stop offset="1" stop-opacity="0"/></linearGradient><g fill="#000"><path d="m138.276 423.276c-31.633 31.632-82.9192 31.632-114.5517 0-31.63242-31.633-31.63241-82.919.0001-114.552 31.6324-31.632 82.9186-31.632 114.5516 0 31.632 31.633 31.632 82.919 0 114.552z" fill-opacity=".12" opacity=".3"/><path d="m114.941 399.941c-18.745 18.745-49.137 18.745-67.8821 0-18.7452-18.745-18.7452-49.137 0-67.882 18.7451-18.745 49.1371-18.745 67.8821 0s18.745 49.137 0 67.882z" fill-opacity=".12"/><path d="m97.9706 381.971c-9.3726 9.372-24.5686 9.372-33.9412 0-9.3725-9.373-9.3725-24.569 0-33.942 9.3726-9.372 24.5686-9.372 33.9412 0 9.3724 9.373 9.3724 24.569 0 33.942z" fill-opacity=".2"/></g><g filter="url(#a)"><path d="m66 100h30v266c0 8.284-6.7157 15-15 15s-15-6.716-15-15z" fill="#82644d"/></g><path d="m66 227h30v14c0 8.284-6.7157 15-15 15s-15-6.716-15-15z" fill="url(#c)"/><g filter="url(#b)"><path d="m16 197.275c0 5.605 4.9364 6.878 6.4918 12.002 1.5171 4.997 5.3886 11.466 8.1743 15.804 3.1894 4.966 9.6385 1.305 14.1976 5.125 5.3787 4.507 9.1052 10.504 15.9155 12.961 6.6001 2.381 13.7517-1.1 21.2208-1.1s14.6207 3.481 21.221 1.1c6.81-2.457 10.537-8.454 15.915-12.961 4.559-3.82 11.008-5.896 14.198-10.862 2.786-4.337 4.493-10.807 6.01-15.804 1.556-5.123 8.656-6.397 8.656-12.001 0-18.846-23.08-68.392-41.944-105.7378-15.2992-30.29-32.7749-30.2768-47.5447.2749-18.9645 39.2289-42.5113 92.1639-42.5113 111.1989z" fill="#15803d"/></g></svg>