<svg fill="none" height="371" viewBox="0 0 172 371" width="172" xmlns="http://www.w3.org/2000/svg" xmlns:xlink="http://www.w3.org/1999/xlink"><filter id="a" color-interpolation-filters="sRGB" filterUnits="userSpaceOnUse" height="167.024" width="75.918" x="52.001" y="197"><feFlood flood-opacity="0" result="BackgroundImageFix"/><feBlend in="SourceGraphic" in2="BackgroundImageFix" mode="normal" result="shape"/><feColorMatrix in="SourceAlpha" result="hardAlpha" type="matrix" values="0 0 0 0 0 0 0 0 0 0 0 0 0 0 0 0 0 0 127 0"/><feOffset dx="24" dy="-24"/><feGaussianBlur stdDeviation="21"/><feComposite in2="hardAlpha" k2="-1" k3="1" operator="arithmetic"/><feColorMatrix type="matrix" values="0 0 0 0 0 0 0 0 0 0 0 0 0 0 0 0 0 0 0.25 0"/><feBlend in2="shape" mode="normal" result="effect1_innerShadow_9_45519"/><feColorMatrix in="SourceAlpha" result="hardAlpha" type="matrix" values="0 0 0 0 0 0 0 0 0 0 0 0 0 0 0 0 0 0 127 0"/><feOffset dx="-16" dy="24"/><feGaussianBlur stdDeviation="12"/><feComposite in2="hardAlpha" k2="-1" k3="1" operator="arithmetic"/><feColorMatrix type="matrix" values="0 0 0 0 1 0 0 0 0 1 0 0 0 0 1 0 0 0 0.25 0"/><feBlend in2="effect1_innerShadow_9_45519" mode="normal" result="effect2_innerShadow_9_45519"/></filter><filter id="b" color-interpolation-filters="sRGB" filterUnits="userSpaceOnUse" height="289.234" width="211.849" x="-16" y="40"><feFlood flood-opacity="0" result="BackgroundImageFix"/><feBlend in="SourceGraphic" in2="BackgroundImageFix" mode="normal" result="shape"/><feColorMatrix in="SourceAlpha" result="hardAlpha" type="matrix" values="0 0 0 0 0 0 0 0 0 0 0 0 0 0 0 0 0 0 127 0"/><feOffset dx="24" dy="-24"/><feGaussianBlur stdDeviation="21"/><feComposite in2="hardAlpha" k2="-1" k3="1" operator="arithmetic"/><feColorMatrix type="matrix" values="0 0 0 0 0 0 0 0 0 0 0 0 0 0 0 0 0 0 0.25 0"/><feBlend in2="shape" mode="normal" result="effect1_innerShadow_9_45519"/><feColorMatrix in="SourceAlpha" result="hardAlpha" type="matrix" values="0 0 0 0 0 0 0 0 0 0 0 0 0 0 0 0 0 0 127 0"/><feOffset dx="-16" dy="24"/><feGaussianBlur stdDeviation="12"/><feComposite in2="hardAlpha" k2="-1" k3="1" operator="arithmetic"/><feColorMatrix type="matrix" values="0 0 0 0 1 0 0 0 0 1 0 0 0 0 1 0 0 0 0.25 0"/><feBlend in2="effect1_innerShadow_9_45519" mode="normal" result="effect2_innerShadow_9_45519"/></filter><path d="m130.701 356.002c-24.603 15.465-64.4924 15.465-89.0954 0s-24.603-40.538 0-56.003 64.4924-15.465 89.0954 0 24.603 40.538 0 56.003z" fill="#000" fill-opacity=".12"/><path d="m109.488 342.667c-12.8875 8.101-33.7819 8.101-46.6692 0-12.8873-8.1-12.8873-21.234 0-29.335 12.8873-8.1 33.7817-8.1 46.6692 0 12.887 8.101 12.887 21.235 0 29.335z" fill="#000" fill-opacity=".12"/><g filter="url(#a)"><path clip-rule="evenodd" d="m103.919 221h-35.918v108.29h.0153c-.1976 2.778 1.5406 5.594 5.2148 7.715 6.9732 4.026 18.2791 4.026 25.2524 0 3.6745-2.121 5.4125-4.937 5.2145-7.715h.221z" fill="#a16207" fill-rule="evenodd"/></g><g filter="url(#b)"><path clip-rule="evenodd" d="m85.9704 64c-47.429 0-85.8777663 38.449-85.8777663 85.878v101.659c-1.0796337 13.916 7.2779863 28.043 25.0728663 38.67 33.554 20.036 87.9555 20.036 121.5095 0 17.577-10.496 25.946-24.408 25.109-38.157h.064v-102.172c0-47.429-38.449-85.878-85.8776-85.878z" fill="#16a34a" fill-rule="evenodd"/></g><g fill="#000" fill-opacity=".7" opacity=".8"><ellipse cx="47.0445" cy="158.23" rx="9.94975" ry="10.125"/><ellipse cx="124.653" cy="158.23" rx="9.94975" ry="10.125"/><path d="m99.447 165.318c0 6.151-6.0881 10.463-13.598 10.463-7.51 0-13.598-4.312-13.598-10.463s6.088-4.05 13.598-4.05c7.5099 0 13.598-2.101 13.598 4.05z"/></g><path d="m131.653 92.0001c-9.088-5.402-19.273-6.216-20.499-4.5-2.079 2.9102 6.673 7.8509 13.999 13.4999 6.341 4.89 8 11.75 15.501 9.5 8.63-2.589.448-12.884-9.001-18.4999z" fill="#fff"/></svg>