<svg fill="none" height="228" viewBox="0 0 162 228" width="162" xmlns="http://www.w3.org/2000/svg" xmlns:xlink="http://www.w3.org/1999/xlink"><filter id="a" color-interpolation-filters="sRGB" filterUnits="userSpaceOnUse" height="255.716" width="168" x="1" y="-22"><feFlood flood-opacity="0" result="BackgroundImageFix"/><feBlend in="SourceGraphic" in2="BackgroundImageFix" mode="normal" result="shape"/><feColorMatrix in="SourceAlpha" result="hardAlpha" type="matrix" values="0 0 0 0 0 0 0 0 0 0 0 0 0 0 0 0 0 0 127 0"/><feOffset dx="24" dy="-24"/><feGaussianBlur stdDeviation="21"/><feComposite in2="hardAlpha" k2="-1" k3="1" operator="arithmetic"/><feColorMatrix type="matrix" values="0 0 0 0 0 0 0 0 0 0 0 0 0 0 0 0 0 0 0.25 0"/><feBlend in2="shape" mode="normal" result="effect1_innerShadow_9_45511"/><feColorMatrix in="SourceAlpha" result="hardAlpha" type="matrix" values="0 0 0 0 0 0 0 0 0 0 0 0 0 0 0 0 0 0 127 0"/><feOffset dx="-16" dy="24"/><feGaussianBlur stdDeviation="12"/><feComposite in2="hardAlpha" k2="-1" k3="1" operator="arithmetic"/><feColorMatrix type="matrix" values="0 0 0 0 1 0 0 0 0 1 0 0 0 0 1 0 0 0 0.25 0"/><feBlend in2="effect1_innerShadow_9_45511" mode="normal" result="effect2_innerShadow_9_45511"/></filter><path d="m132.022 207.088c-28.179 16.327-73.8651 16.327-102.0435 0-28.17838-16.328-28.17837-42.8 0-59.128 28.1785-16.328 73.8645-16.328 102.0435 0 28.178 16.328 28.178 42.8 0 59.128z" fill="#000" fill-opacity=".12"/><g filter="url(#a)"><path clip-rule="evenodd" d="m81.0341 2c-35.3273 0-63.9657 28.6384-63.9657 63.9657v105.4123c-.8006 9.935 5.4247 20.02 18.676 27.607 24.9925 14.308 65.5136 14.308 90.5056 0 13.092-7.495 19.326-17.43 18.702-27.248h.048v-105.7713c0-35.3273-28.639-63.9657-63.9659-63.9657z" fill="#16a34a" fill-rule="evenodd"/></g><g fill="#000" fill-opacity=".7" opacity=".6"><ellipse cx="51.8094" cy="67.5" rx="7.61307" ry="7.5"/><ellipse cx="111.191" cy="67.5" rx="7.61306" ry="7.5"/><path d="m91.9047 72.75c0 4.5564-4.6582 7.75-10.4045 7.75-5.7462 0-10.4045-3.1936-10.4045-7.75 0-4.5563 4.6583-3 10.4045-3 5.7463 0 10.4045-1.5563 10.4045 3z"/></g><path d="m110.012 20.1248c-8.002-4.5108-16.9693-5.1905-18.0486-3.7576-1.8305 2.43 5.8756 6.5557 12.3256 11.2728 5.583 4.0829 7.044 9.8117 13.647 7.9328 7.599-2.162.395-10.7586-7.924-15.448z" fill="#fff" opacity=".7"/></svg>