<svg fill="none" height="107" viewBox="0 0 84 107" width="84" xmlns="http://www.w3.org/2000/svg" xmlns:xlink="http://www.w3.org/1999/xlink"><filter id="a" color-interpolation-filters="sRGB" filterUnits="userSpaceOnUse" height="72" width="47" x="20" y="27"><feFlood flood-opacity="0" result="BackgroundImageFix"/><feBlend in="SourceGraphic" in2="BackgroundImageFix" mode="normal" result="shape"/><feColorMatrix in="SourceAlpha" result="hardAlpha" type="matrix" values="0 0 0 0 0 0 0 0 0 0 0 0 0 0 0 0 0 0 127 0"/><feOffset dx="8" dy="-8"/><feGaussianBlur stdDeviation="4"/><feComposite in2="hardAlpha" k2="-1" k3="1" operator="arithmetic"/><feColorMatrix type="matrix" values="0 0 0 0 0 0 0 0 0 0 0 0 0 0 0 0 0 0 0.25 0"/><feBlend in2="shape" mode="normal" result="effect1_innerShadow_9_45482"/><feColorMatrix in="SourceAlpha" result="hardAlpha" type="matrix" values="0 0 0 0 0 0 0 0 0 0 0 0 0 0 0 0 0 0 127 0"/><feOffset dx="-8" dy="8"/><feGaussianBlur stdDeviation="4"/><feComposite in2="hardAlpha" k2="-1" k3="1" operator="arithmetic"/><feColorMatrix type="matrix" values="0 0 0 0 1 0 0 0 0 1 0 0 0 0 1 0 0 0 0.25 0"/><feBlend in2="effect1_innerShadow_9_45482" mode="normal" result="effect2_innerShadow_9_45482"/></filter><filter id="b" color-interpolation-filters="sRGB" filterUnits="userSpaceOnUse" height="85" width="92" x="0" y="-8"><feFlood flood-opacity="0" result="BackgroundImageFix"/><feBlend in="SourceGraphic" in2="BackgroundImageFix" mode="normal" result="shape"/><feColorMatrix in="SourceAlpha" result="hardAlpha" type="matrix" values="0 0 0 0 0 0 0 0 0 0 0 0 0 0 0 0 0 0 127 0"/><feOffset dx="8" dy="-8"/><feGaussianBlur stdDeviation="4"/><feComposite in2="hardAlpha" k2="-1" k3="1" operator="arithmetic"/><feColorMatrix type="matrix" values="0 0 0 0 0 0 0 0 0 0 0 0 0 0 0 0 0 0 0.25 0"/><feBlend in2="shape" mode="normal" result="effect1_innerShadow_9_45482"/></filter><filter id="c" color-interpolation-filters="sRGB" filterUnits="userSpaceOnUse" height="93" width="100" x="-8" y="-8"><feFlood flood-opacity="0" result="BackgroundImageFix"/><feBlend in="SourceGraphic" in2="BackgroundImageFix" mode="normal" result="shape"/><feColorMatrix in="SourceAlpha" result="hardAlpha" type="matrix" values="0 0 0 0 0 0 0 0 0 0 0 0 0 0 0 0 0 0 127 0"/><feOffset dx="8" dy="-8"/><feGaussianBlur stdDeviation="8"/><feComposite in2="hardAlpha" k2="-1" k3="1" operator="arithmetic"/><feColorMatrix type="matrix" values="0 0 0 0 0 0 0 0 0 0 0 0 0 0 0 0 0 0 0.25 0"/><feBlend in2="shape" mode="normal" result="effect1_innerShadow_9_45482"/><feColorMatrix in="SourceAlpha" result="hardAlpha" type="matrix" values="0 0 0 0 0 0 0 0 0 0 0 0 0 0 0 0 0 0 127 0"/><feOffset dx="-8" dy="8"/><feGaussianBlur stdDeviation="8"/><feComposite in2="hardAlpha" k2="-1" k3="1" operator="arithmetic"/><feColorMatrix type="matrix" values="0 0 0 0 1 0 0 0 0 1 0 0 0 0 1 0 0 0 0.25 0"/><feBlend in2="effect1_innerShadow_9_45482" mode="normal" result="effect2_innerShadow_9_45482"/></filter><filter id="d" color-interpolation-filters="sRGB" filterUnits="userSpaceOnUse" height="65" width="96" x="-5" y="-5"><feFlood flood-opacity="0" result="BackgroundImageFix"/><feColorMatrix in="SourceAlpha" result="hardAlpha" type="matrix" values="0 0 0 0 0 0 0 0 0 0 0 0 0 0 0 0 0 0 127 0"/><feOffset dy="2"/><feComposite in2="hardAlpha" operator="out"/><feColorMatrix type="matrix" values="0 0 0 0 0 0 0 0 0 0 0 0 0 0 0 0 0 0 0.25 0"/><feBlend in2="BackgroundImageFix" mode="normal" result="effect1_dropShadow_9_45482"/><feBlend in="SourceGraphic" in2="effect1_dropShadow_9_45482" mode="normal" result="shape"/><feColorMatrix in="SourceAlpha" result="hardAlpha" type="matrix" values="0 0 0 0 0 0 0 0 0 0 0 0 0 0 0 0 0 0 127 0"/><feOffset dx="8" dy="-5"/><feGaussianBlur stdDeviation="4"/><feComposite in2="hardAlpha" k2="-1" k3="1" operator="arithmetic"/><feColorMatrix type="matrix" values="0 0 0 0 0 0 0 0 0 0 0 0 0 0 0 0 0 0 0.25 0"/><feBlend in2="shape" mode="normal" result="effect2_innerShadow_9_45482"/><feColorMatrix in="SourceAlpha" result="hardAlpha" type="matrix" values="0 0 0 0 0 0 0 0 0 0 0 0 0 0 0 0 0 0 127 0"/><feOffset dx="-8" dy="8"/><feGaussianBlur stdDeviation="4"/><feComposite in2="hardAlpha" k2="-1" k3="1" operator="arithmetic"/><feColorMatrix type="matrix" values="0 0 0 0 1 0 0 0 0 1 0 0 0 0 1 0 0 0 0.25 0"/><feBlend in2="effect2_innerShadow_9_45482" mode="normal" result="effect3_innerShadow_9_45482"/></filter><mask id="e" height="77" maskUnits="userSpaceOnUse" width="84" x="0" y="0"><path d="m83.5836 51.699c-1.0853 6.1673-5.0714 12.1395-11.9585 16.8728-16.3506 11.2376-42.8602 11.2376-59.2108 0-6.88704-4.7334-10.87319-10.7055-11.95846-16.8728-3.83947-21.8188 17.05996-52.78148 44.42656-51.6698888 24.9676.0000254 42.0384 32.7051888 38.7012 51.6698888z" fill="#edb146"/></mask><path d="m55.8744 87.8744c-6.8342 6.8341-17.9146 6.8341-24.7488 0-6.8341-6.8342-6.8341-17.9146 0-24.7488 6.8342-6.8341 17.9146-6.8341 24.7488 0 6.8341 6.8342 6.8341 17.9146 0 24.7488z" fill="#000" fill-opacity=".2"/><path d="m68.0416 98.2132c-13.2778 11.7158-34.8054 11.7158-48.0832 0-13.27786-11.7157-13.27786-30.7107 0-42.4264 13.2778-11.7157 34.8054-11.7157 48.0832 0 13.2779 11.7157 13.2779 30.7107 0 42.4264z" fill="#000" fill-opacity=".12"/><g filter="url(#a)"><path clip-rule="evenodd" d="m58.9618 74.4034c.0253.3623.0382.7279.0382 1.0966 0 8.5604-6.9396 15.5-15.5 15.5s-15.5-6.9396-15.5-15.5c0-.3856.0141-.768.0418-1.1466-.671-8.3916 6.8253-39.6766 16.5218-39.3509 8.8281 0 14.9813 31.6572 14.3982 39.4009z" fill="#ffedd5" fill-rule="evenodd"/></g><g filter="url(#b)"><g filter="url(#c)"><path d="m83.5836 51.699c-1.0853 6.1673-5.0714 12.1395-11.9585 16.8728-16.3506 11.2376-42.8602 11.2376-59.2108 0-6.88704-4.7334-10.87319-10.7055-11.95846-16.8728-3.83947-21.8188 17.05996-52.78148 44.42656-51.6698888 24.9676.0000254 42.0384 32.7051888 38.7012 51.6698888z" fill="#ef4444"/></g><g fill="#ffedd5" mask="url(#e)" opacity=".9"><ellipse cx="5.97862" cy="40.8281" rx="14.8754" ry="12.3962" transform="matrix(.88320311 .46899069 -.46899069 .88320311 19.846283 1.964678)"/><ellipse cx="78.3543" cy="41.554" rx="13.4253" ry="12" transform="matrix(.94975705 -.3129881 .3129881 .94975705 -9.069156 26.611759)"/><ellipse cx="45" cy="45" rx="15" ry="13"/><ellipse cx="62.0278" cy="5.91806" rx="12.0444" ry="14.0836"/><ellipse cx="67" cy="74" rx="17" ry="14"/><ellipse cx="28.0069" cy="5.91806" rx="11.8331" ry="14.0836"/><ellipse cx="25" cy="73" rx="15" ry="14"/></g></g><g filter="url(#d)"><path d="m19.1895 37.5755c-4.9923-.7694-18.16502-2.2758-15.93826-8.3074 2.22675-6.0316 12.42206-28.283761 39.52536-29.2453851 27.1032-.9616239 41.9374 28.8979851 40.0653 34.6677851-1.8722 5.7699-7.4885 0-15.6011 0s-9.3606 17.3095-23.7136 17.3095-18.0973-13.4629-24.3377-14.4245z" fill="#fff"/></g></svg>