<svg fill="none" height="47" viewBox="0 0 118 47" width="118" xmlns="http://www.w3.org/2000/svg"><g fill="#000" fill-opacity=".2"><path d="m.71999 24.0227c-8.9827-21.22462 68.86741-25.85545 78.74841-16.5938 12.8752 11.1912-3.5932 35.8888-25.451 38.976-13.6915 1.9338-44.31471-1.1576-53.29741-22.3822z"/><path d="m83.0003 42.8934c-1.9281-1.9281 3.0704-7.2883 6.4997-12.0001 2.7503-3.779 3.0521-8.8192 5.5-8.4999 11.5 1.4999 12.755 16.5517 7 19.9999-3.6049 2.16-13.9996 5.5-18.9997.5001z"/><path d="m85.1545 3.73513c-2.7598-3.313711 14.7573-4.700989 16.8745-3.017053 2.759 2.034763-1.323 9.006913-6.0288 8.675393-2.1954-.15467-8.0979-2.35896-10.8457-5.65834z"/></g></svg>