<svg width="204" height="171" viewBox="0 0 204 171" fill="none" xmlns="http://www.w3.org/2000/svg">
<path d="M201.26 82.1155C222.968 -0.371065 34.8305 -18.3681 10.9515 17.626C-20.1636 61.1191 19.635 157.103 72.458 169.101C105.546 176.617 179.552 164.602 201.26 82.1155Z" fill="#7E22CE"/>
<g filter="url(#filter0_dd_4_36863)">
<path d="M183.637 55.8624C200.64 3.76564 53.281 -7.60092 34.5777 15.1322C10.2068 42.6016 41.3791 103.223 82.7528 110.801C108.669 115.547 166.634 107.959 183.637 55.8624Z" fill="#EC4899"/>
</g>
<path d="M183.637 56.0574C200.64 3.76476 53.281 -7.64454 34.5777 15.1741C22.7292 28.5792 24.0092 49.8499 33.2074 69.0436C51.0594 106.295 62.7202 84.7275 97.5 86.8222C135.933 89.1368 143.953 114.622 171.102 79.8842C176.301 73.2319 180.616 65.3501 183.637 56.0574Z" fill="black" fill-opacity="0.2"/>
<path d="M201.637 72.9915C223.386 -0.329835 34.8957 -16.3272 10.972 15.6676C-20.2014 54.3281 19.6717 139.647 72.5938 150.312C105.744 156.993 179.888 146.313 201.637 72.9915Z" fill="url(#paint0_linear_4_36863)"/>
<path d="M201.637 72.9915C223.386 -0.329835 34.8957 -16.3272 10.972 15.6676C-20.2014 54.3281 19.6717 139.647 72.5938 150.312C105.744 156.993 179.888 146.313 201.637 72.9915Z" fill="url(#paint1_linear_4_36863)"/>
<path d="M201.637 72.9915C223.386 -0.329835 34.8957 -16.3272 10.972 15.6676C-20.2014 54.3281 19.6717 139.647 72.5938 150.312C105.744 156.993 179.888 146.313 201.637 72.9915Z" fill="url(#paint2_linear_4_36863)"/>
<path d="M201.637 72.9915C223.386 -0.329835 34.8957 -16.3272 10.972 15.6676C-20.2014 54.3281 19.6717 139.647 72.5938 150.312C105.744 156.993 179.888 146.313 201.637 72.9915Z" fill="url(#paint3_linear_4_36863)"/>
<path d="M201.637 72.9915C223.386 -0.329835 34.8957 -16.3272 10.972 15.6676C-20.2014 54.3281 19.6717 139.647 72.5938 150.312C105.744 156.993 179.888 146.313 201.637 72.9915Z" fill="url(#paint4_linear_4_36863)"/>
<path d="M201.637 72.9915C223.386 -0.329835 34.8957 -16.3272 10.972 15.6676C-20.2014 54.3281 19.6717 139.647 72.5938 150.312C105.744 156.993 179.888 146.313 201.637 72.9915Z" fill="url(#paint5_linear_4_36863)"/>
<path d="M201.637 72.9915C223.386 -0.329835 34.8957 -16.3272 10.972 15.6676C-20.2014 54.3281 19.6717 139.647 72.5938 150.312C105.744 156.993 179.888 146.313 201.637 72.9915Z" fill="url(#paint6_linear_4_36863)"/>
<path d="M201.637 72.9915C223.386 -0.329835 34.8957 -16.3272 10.972 15.6676C-20.2014 54.3281 19.6717 139.647 72.5938 150.312C105.744 156.993 179.888 146.313 201.637 72.9915Z" fill="url(#paint7_linear_4_36863)"/>
<path d="M201.637 72.9915C223.386 -0.329835 34.8957 -16.3272 10.972 15.6676C-20.2014 54.3281 19.6717 139.647 72.5938 150.312C105.744 156.993 179.888 146.313 201.637 72.9915Z" fill="url(#paint8_linear_4_36863)"/>
<path d="M201.637 72.9915C223.386 -0.329835 34.8957 -16.3272 10.972 15.6676C-20.2014 54.3281 19.6717 139.647 72.5938 150.312C105.744 156.993 179.888 146.313 201.637 72.9915Z" fill="url(#paint9_linear_4_36863)"/>
<path d="M201.637 72.9915C223.386 -0.329835 34.8957 -16.3272 10.972 15.6676C-20.2014 54.3281 19.6717 139.647 72.5938 150.312C105.744 156.993 179.888 146.313 201.637 72.9915Z" fill="url(#paint10_linear_4_36863)"/>
<g filter="url(#filter1_i_4_36863)">
<path d="M116.056 64.2773C112.289 57.7535 118.188 55.6961 124.745 51.9107C131.302 48.1253 136.033 44.0452 139.799 50.569C143.566 57.0928 141.304 65.45 134.747 69.2355C128.191 73.0209 119.822 70.801 116.056 64.2773Z" fill="#DB2777"/>
</g>
<g filter="url(#filter2_i_4_36863)">
<path d="M88.5632 64.2773C92.3297 57.7535 86.4307 55.6961 79.8741 51.9107C73.3176 48.1253 68.5864 44.0452 64.8199 50.569C61.0534 57.0928 63.3151 65.45 69.8717 69.2355C76.4282 73.0209 84.7967 70.801 88.5632 64.2773Z" fill="#DB2777"/>
</g>
<g style="mix-blend-mode:soft-light" filter="url(#filter3_f_4_36863)">
<path d="M116.056 64.2773C112.289 57.7535 118.188 55.6961 124.745 51.9107C131.302 48.1253 136.033 44.0452 139.799 50.569C143.566 57.0928 141.304 65.45 134.747 69.2355C128.191 73.0209 119.822 70.801 116.056 64.2773Z" fill="#DB2777"/>
<path d="M88.5632 64.2773C92.3297 57.7535 86.4307 55.6961 79.8741 51.9107C73.3176 48.1253 68.5864 44.0452 64.8199 50.569C61.0534 57.0928 63.3151 65.45 69.8717 69.2355C76.4282 73.0209 84.7967 70.801 88.5632 64.2773Z" fill="#DB2777"/>
</g>
<g style="mix-blend-mode:overlay" filter="url(#filter4_f_4_36863)">
<path d="M121.374 62.7648C119.06 58.7555 122.685 57.4912 126.714 55.1648C130.744 52.8384 133.651 50.331 135.966 54.3402C138.281 58.3495 136.891 63.4855 132.861 65.8119C128.832 68.1382 123.689 66.774 121.374 62.7648Z" fill="#F9A8D4"/>
<path d="M87.5923 65.149C90.3731 60.3326 86.018 58.8138 81.1774 56.0191C76.3369 53.2244 72.8439 50.2122 70.0632 55.0285C67.2825 59.8449 68.9523 66.0148 73.7929 68.8095C78.6334 71.6042 84.8116 69.9653 87.5923 65.149Z" fill="#F9A8D4"/>
</g>
<defs>
<filter id="filter0_dd_4_36863" x="26" y="4" width="159" height="121" filterUnits="userSpaceOnUse" color-interpolation-filters="sRGB">
<feFlood flood-opacity="0" result="BackgroundImageFix"/>
<feColorMatrix in="SourceAlpha" type="matrix" values="0 0 0 0 0 0 0 0 0 0 0 0 0 0 0 0 0 0 127 0" result="hardAlpha"/>
<feOffset dy="6"/>
<feComposite in2="hardAlpha" operator="out"/>
<feColorMatrix type="matrix" values="0 0 0 0 0 0 0 0 0 0 0 0 0 0 0 0 0 0 0.25 0"/>
<feBlend mode="normal" in2="BackgroundImageFix" result="effect1_dropShadow_4_36863"/>
<feColorMatrix in="SourceAlpha" type="matrix" values="0 0 0 0 0 0 0 0 0 0 0 0 0 0 0 0 0 0 127 0" result="hardAlpha"/>
<feOffset dy="13"/>
<feComposite in2="hardAlpha" operator="out"/>
<feColorMatrix type="matrix" values="0 0 0 0 0 0 0 0 0 0 0 0 0 0 0 0 0 0 0.15 0"/>
<feBlend mode="normal" in2="effect1_dropShadow_4_36863" result="effect2_dropShadow_4_36863"/>
<feBlend mode="normal" in="SourceGraphic" in2="effect2_dropShadow_4_36863" result="shape"/>
</filter>
<filter id="filter1_i_4_36863" x="114.877" y="45.3346" width="28.5367" height="25.7476" filterUnits="userSpaceOnUse" color-interpolation-filters="sRGB">
<feFlood flood-opacity="0" result="BackgroundImageFix"/>
<feBlend mode="normal" in="SourceGraphic" in2="BackgroundImageFix" result="shape"/>
<feColorMatrix in="SourceAlpha" type="matrix" values="0 0 0 0 0 0 0 0 0 0 0 0 0 0 0 0 0 0 127 0" result="hardAlpha"/>
<feOffset dx="1.79255" dy="-1.79255"/>
<feGaussianBlur stdDeviation="1.19503"/>
<feComposite in2="hardAlpha" operator="arithmetic" k2="-1" k3="1"/>
<feColorMatrix type="matrix" values="0 0 0 0 0 0 0 0 0 0 0 0 0 0 0 0 0 0 0.25 0"/>
<feBlend mode="normal" in2="shape" result="effect1_innerShadow_4_36863"/>
</filter>
<filter id="filter2_i_4_36863" x="62.998" y="45.9322" width="28.5367" height="25.1501" filterUnits="userSpaceOnUse" color-interpolation-filters="sRGB">
<feFlood flood-opacity="0" result="BackgroundImageFix"/>
<feBlend mode="normal" in="SourceGraphic" in2="BackgroundImageFix" result="shape"/>
<feColorMatrix in="SourceAlpha" type="matrix" values="0 0 0 0 0 0 0 0 0 0 0 0 0 0 0 0 0 0 127 0" result="hardAlpha"/>
<feOffset dx="1.79255" dy="-1.19503"/>
<feGaussianBlur stdDeviation="1.19503"/>
<feComposite in2="hardAlpha" operator="arithmetic" k2="-1" k3="1"/>
<feColorMatrix type="matrix" values="0 0 0 0 0 0 0 0 0 0 0 0 0 0 0 0 0 0 0.25 0"/>
<feBlend mode="normal" in2="shape" result="effect1_innerShadow_4_36863"/>
</filter>
<filter id="filter3_f_4_36863" x="54.0353" y="38.1644" width="96.5485" height="41.8806" filterUnits="userSpaceOnUse" color-interpolation-filters="sRGB">
<feFlood flood-opacity="0" result="BackgroundImageFix"/>
<feBlend mode="normal" in="SourceGraphic" in2="BackgroundImageFix" result="shape"/>
<feGaussianBlur stdDeviation="4.48138" result="effect1_foregroundBlur_4_36863"/>
</filter>
<filter id="filter4_f_4_36863" x="59.756" y="43.2623" width="86.2927" height="35.8733" filterUnits="userSpaceOnUse" color-interpolation-filters="sRGB">
<feFlood flood-opacity="0" result="BackgroundImageFix"/>
<feBlend mode="normal" in="SourceGraphic" in2="BackgroundImageFix" result="shape"/>
<feGaussianBlur stdDeviation="4.48138" result="effect1_foregroundBlur_4_36863"/>
</filter>
<linearGradient id="paint0_linear_4_36863" x1="101.69" y1="0" x2="101.69" y2="152" gradientUnits="userSpaceOnUse">
<stop stop-opacity="0.24"/>
<stop offset="1" stop-opacity="0"/>
</linearGradient>
<linearGradient id="paint1_linear_4_36863" x1="101.69" y1="0" x2="101.69" y2="152" gradientUnits="userSpaceOnUse">
<stop stop-opacity="0.24"/>
<stop offset="1" stop-opacity="0"/>
</linearGradient>
<linearGradient id="paint2_linear_4_36863" x1="101.69" y1="0" x2="101.69" y2="152" gradientUnits="userSpaceOnUse">
<stop stop-opacity="0.24"/>
<stop offset="1" stop-opacity="0"/>
</linearGradient>
<linearGradient id="paint3_linear_4_36863" x1="101.69" y1="0" x2="101.69" y2="152" gradientUnits="userSpaceOnUse">
<stop stop-opacity="0.24"/>
<stop offset="1" stop-opacity="0"/>
</linearGradient>
<linearGradient id="paint4_linear_4_36863" x1="101.69" y1="0" x2="101.69" y2="152" gradientUnits="userSpaceOnUse">
<stop stop-opacity="0.24"/>
<stop offset="1" stop-opacity="0"/>
</linearGradient>
<linearGradient id="paint5_linear_4_36863" x1="101.69" y1="0" x2="101.69" y2="152" gradientUnits="userSpaceOnUse">
<stop stop-opacity="0.24"/>
<stop offset="1" stop-opacity="0"/>
</linearGradient>
<linearGradient id="paint6_linear_4_36863" x1="101.69" y1="0" x2="101.69" y2="152" gradientUnits="userSpaceOnUse">
<stop stop-opacity="0.24"/>
<stop offset="1" stop-opacity="0"/>
</linearGradient>
<linearGradient id="paint7_linear_4_36863" x1="101.69" y1="0" x2="101.69" y2="152" gradientUnits="userSpaceOnUse">
<stop stop-opacity="0.24"/>
<stop offset="1" stop-opacity="0"/>
</linearGradient>
<linearGradient id="paint8_linear_4_36863" x1="101.69" y1="0" x2="101.69" y2="152" gradientUnits="userSpaceOnUse">
<stop stop-opacity="0.24"/>
<stop offset="1" stop-opacity="0"/>
</linearGradient>
<linearGradient id="paint9_linear_4_36863" x1="101.69" y1="0" x2="101.69" y2="152" gradientUnits="userSpaceOnUse">
<stop stop-opacity="0.24"/>
<stop offset="1" stop-opacity="0"/>
</linearGradient>
<linearGradient id="paint10_linear_4_36863" x1="101.69" y1="0" x2="101.69" y2="152" gradientUnits="userSpaceOnUse">
<stop stop-opacity="0.24"/>
<stop offset="1" stop-opacity="0"/>
</linearGradient>
</defs>
</svg>
