<svg width="521" height="637" viewBox="0 0 521 637" fill="none" xmlns="http://www.w3.org/2000/svg">
<ellipse cx="224.425" cy="565.676" rx="80.5473" ry="71.3243" fill="black" fill-opacity="0.12"/>
<ellipse cx="224.426" cy="563.216" rx="71.9392" ry="63.946" fill="black" fill-opacity="0.2"/>
<path d="M173.601 247.608C145.236 241.492 119.13 188.3 116.392 191.719C114.163 194.504 132.15 236.715 148.311 258.306C151.648 261.891 168.811 270.389 170.55 271.455C172.29 272.522 174.1 251.142 173.601 247.608Z" fill="#581C87"/>
<path d="M286.297 128.37C303.398 103.373 278.5 40.9005 284.053 40.8253C288.574 40.764 302.672 76.8601 310.547 101.658C311.323 106.269 312.357 138.031 311.981 139.967C311.604 141.903 289.329 130.807 286.297 128.37Z" fill="#581C87"/>
<path d="M446.827 125.436C438.758 113.642 445.095 78.7655 442.475 78.73C440.342 78.7011 439.639 85.6926 438.414 94.3956C437.352 101.938 437.174 123.838 437.352 124.751C437.529 125.664 445.396 126.585 446.827 125.436Z" fill="#581C87"/>
<path d="M129.7 217.047C120.159 227.685 90.8398 234.465 91.4274 237.019C91.9058 239.098 98.8642 238.12 107.609 237.244C115.188 236.485 136.504 231.458 137.349 231.068C138.194 230.679 131.157 218.164 129.7 217.047Z" fill="#581C87"/>
<path d="M210.317 132.037C200.777 142.675 171.457 149.455 172.045 152.009C172.523 154.088 179.481 153.11 188.226 152.234C195.806 151.475 217.121 146.448 217.966 146.058C218.811 145.669 211.774 133.154 210.317 132.037Z" fill="#581C87"/>
<path d="M442.338 327.709C439.659 345.357 465.372 359.832 462.472 363.127C460.112 365.81 455.589 362.199 449.569 358.143C444.352 354.627 432.441 340.79 432.15 339.982C431.859 339.174 440.13 328.758 442.338 327.709Z" fill="#581C87"/>
<g filter="url(#filter0_ii_4_36833)">
<path fill-rule="evenodd" clip-rule="evenodd" d="M253.093 143.944C236.258 114.43 223.152 71.9911 213.581 40.9984C206.384 17.6948 201.186 0.862677 197.904 0.862915C193.6 0.863227 185.215 67.0878 228.304 186.864C228.255 187.408 228.42 187.869 228.769 188.246L191.78 327.392C183.703 357.822 161.505 517.59 157.425 547.2C156.605 550.993 156.176 554.909 156.176 558.913C156.176 593.21 187.658 621.014 226.493 621.014C265.329 621.014 292.676 593.21 292.676 558.913C292.676 553.357 291.958 547.972 290.591 542.848C290.638 542.2 290.581 541.65 290.398 541.244C290.086 540.554 289.77 539.833 289.452 539.08C288.841 537.271 288.146 535.499 287.371 533.769C278.622 509.778 268.647 460.613 266.851 360.311C266.567 344.405 271.118 314.006 275.85 282.394C280.811 249.256 285.972 214.783 285.972 194.271C285.972 194.203 285.972 194.128 285.971 194.048C285.97 193.961 285.969 193.867 285.968 193.767C285.905 187.311 285.569 152.897 336.909 125.434C370.013 107.727 443.854 67.2243 440.822 58.4126C436.656 54.1349 408.579 62.6807 371.432 73.9873L371.431 73.9875C353.669 79.394 333.832 85.4316 313.545 91.0003C294.028 100.636 269.528 125.582 253.093 143.944Z" fill="#6B21A8"/>
</g>
<ellipse cx="219.082" cy="137.39" rx="7.16814" ry="13.199" transform="rotate(-11.2995 219.082 137.39)" fill="black" fill-opacity="0.2"/>
<g filter="url(#filter1_ii_4_36833)">
<path d="M215.04 123.132C180.808 114.424 130.021 59.8479 128.343 62.9328C126.976 65.4449 164.342 111.969 191.186 134.656C196.375 138.485 217.011 151.871 221.292 146.185C225.691 140.342 228.078 126.448 215.04 123.132Z" fill="#6B21A8"/>
</g>
<path d="M410.804 165.549C421.109 140.783 468.472 110.358 466.339 108.758C458.898 105.693 413.139 136.511 398.197 156.122C394.75 159.6 396.797 162.192 399.685 165.549C403.801 167.328 407.069 169.662 410.804 165.549Z" fill="#6B21A8"/>
<ellipse cx="218.336" cy="286.302" rx="18.9795" ry="29.7816" transform="rotate(10.6479 218.336 286.302)" fill="black" fill-opacity="0.2"/>
<ellipse cx="258.266" cy="397.966" rx="14.8048" ry="30.3825" transform="rotate(-4.76117 258.266 397.966)" fill="black" fill-opacity="0.2"/>
<path opacity="0.21" d="M313.581 134.216C313.581 140.668 311.009 147.568 305.489 147.568C299.968 147.568 298.824 142.337 298.824 135.885C298.824 129.433 299.968 124.203 305.489 124.203C311.009 124.203 313.581 127.764 313.581 134.216Z" fill="black"/>
<path opacity="0.33" d="M243.486 543.758C243.486 550.19 239.07 557.068 229.588 557.068C211.596 557.068 215.57 528.784 230.815 528.784C240.296 528.784 243.486 537.326 243.486 543.758Z" fill="white" fill-opacity="0.2"/>
<path opacity="0.33" d="M253.324 475.327C253.324 480.361 250.801 485.743 245.382 485.743C235.101 485.743 237.372 463.608 246.083 463.608C251.501 463.608 253.324 470.293 253.324 475.327Z" fill="white" fill-opacity="0.2"/>
<path d="M218.893 440.894C218.893 445.928 216.369 451.311 210.951 451.311C200.669 451.311 202.941 429.176 211.652 429.176C217.07 429.176 218.893 435.861 218.893 440.894Z" fill="black" fill-opacity="0.12"/>
<path d="M193.068 510.7C193.068 513.496 191.806 516.487 189.097 516.487C183.956 516.487 185.092 504.189 189.447 504.189C192.156 504.189 193.068 507.903 193.068 510.7Z" fill="black" fill-opacity="0.12"/>
<g filter="url(#filter2_ii_4_36833)">
<path d="M327.894 333.258C327.894 333.258 452.097 314.194 460.705 322.189C466.068 328.954 463.165 333.257 393.685 351.089C295.307 365.846 271.119 416.88 271.119 416.88C254.772 427.906 229.923 380.603 252.967 362.204C286.598 339.87 306.781 336.333 327.894 333.258Z" fill="#6B21A8"/>
</g>
<g filter="url(#filter3_ii_4_36833)">
<path d="M380.21 173.085C380.21 173.085 510.354 183.327 518.962 175.331C514.658 170.011 499.286 173.083 427.347 161.804C328.969 147.048 318.225 117.813 318.225 117.813C303.759 107.697 292.077 137.826 305.282 144.139C338.913 166.473 350.489 169.796 380.21 173.085Z" fill="#6B21A8"/>
</g>
<g filter="url(#filter4_i_4_36833)">
<path d="M387.366 339.406C400.988 302.868 434.179 303.859 436.291 300.835C438.099 296.099 437.857 291.051 408.886 298.193C394.129 300.835 369.445 318.274 368.575 331.476C366.46 340.78 378.265 346.112 387.366 339.406Z" fill="#6B21A8"/>
</g>
<g filter="url(#filter5_ii_4_36833)">
<path fill-rule="evenodd" clip-rule="evenodd" d="M191.245 240.739C182.946 241.976 173.869 243.329 164.61 243.861C138.763 245.346 117.096 249.646 106.415 252.629C67.7299 263.432 63.8961 270.901 59.6048 281.496C58.2713 284.788 56.0811 288.357 53.3719 292.036C42.9731 290.567 30.3731 287.128 20.4564 284.422C11.0784 281.863 4.10006 279.959 3.65209 280.994C2.45028 283.769 24.3487 297.242 44.8172 302.367C39.9071 307.805 34.5589 313.152 29.809 317.902C20.5118 327.199 13.5065 334.203 16.5643 335.102C23.251 337.067 55.6209 329.874 77.5366 290.714C91.8474 280.221 112.899 279.647 124.267 281.496C126.406 281.844 131.997 283.665 139.571 286.132C163.234 293.84 206.251 307.852 223.832 302.943C242.399 297.757 244.679 252.63 224.923 240.598C218.485 236.677 206.114 238.522 191.245 240.739Z" fill="#6B21A8"/>
</g>
<defs>
<filter id="filter0_ii_4_36833" x="149.176" y="-12.1371" width="300.736" height="648.151" filterUnits="userSpaceOnUse" color-interpolation-filters="sRGB">
<feFlood flood-opacity="0" result="BackgroundImageFix"/>
<feBlend mode="normal" in="SourceGraphic" in2="BackgroundImageFix" result="shape"/>
<feColorMatrix in="SourceAlpha" type="matrix" values="0 0 0 0 0 0 0 0 0 0 0 0 0 0 0 0 0 0 127 0" result="hardAlpha"/>
<feOffset dx="9" dy="-13"/>
<feGaussianBlur stdDeviation="8"/>
<feComposite in2="hardAlpha" operator="arithmetic" k2="-1" k3="1"/>
<feColorMatrix type="matrix" values="0 0 0 0 0 0 0 0 0 0 0 0 0 0 0 0 0 0 0.25 0"/>
<feBlend mode="normal" in2="shape" result="effect1_innerShadow_4_36833"/>
<feColorMatrix in="SourceAlpha" type="matrix" values="0 0 0 0 0 0 0 0 0 0 0 0 0 0 0 0 0 0 127 0" result="hardAlpha"/>
<feOffset dx="-7" dy="17"/>
<feGaussianBlur stdDeviation="7.5"/>
<feComposite in2="hardAlpha" operator="arithmetic" k2="-1" k3="1"/>
<feColorMatrix type="matrix" values="0 0 0 0 1 0 0 0 0 1 0 0 0 0 1 0 0 0 0.25 0"/>
<feBlend mode="normal" in2="effect1_innerShadow_4_36833" result="effect2_innerShadow_4_36833"/>
</filter>
<filter id="filter1_ii_4_36833" x="128.306" y="58.807" width="99.4814" height="92.765" filterUnits="userSpaceOnUse" color-interpolation-filters="sRGB">
<feFlood flood-opacity="0" result="BackgroundImageFix"/>
<feBlend mode="normal" in="SourceGraphic" in2="BackgroundImageFix" result="shape"/>
<feColorMatrix in="SourceAlpha" type="matrix" values="0 0 0 0 0 0 0 0 0 0 0 0 0 0 0 0 0 0 127 0" result="hardAlpha"/>
<feOffset dx="3" dy="4"/>
<feGaussianBlur stdDeviation="5.5"/>
<feComposite in2="hardAlpha" operator="arithmetic" k2="-1" k3="1"/>
<feColorMatrix type="matrix" values="0 0 0 0 1 0 0 0 0 1 0 0 0 0 1 0 0 0 0.25 0"/>
<feBlend mode="normal" in2="shape" result="effect1_innerShadow_4_36833"/>
<feColorMatrix in="SourceAlpha" type="matrix" values="0 0 0 0 0 0 0 0 0 0 0 0 0 0 0 0 0 0 127 0" result="hardAlpha"/>
<feOffset dx="2" dy="-5"/>
<feGaussianBlur stdDeviation="2"/>
<feComposite in2="hardAlpha" operator="arithmetic" k2="-1" k3="1"/>
<feColorMatrix type="matrix" values="0 0 0 0 0 0 0 0 0 0 0 0 0 0 0 0 0 0 0.25 0"/>
<feBlend mode="normal" in2="effect1_innerShadow_4_36833" result="effect2_innerShadow_4_36833"/>
</filter>
<filter id="filter2_ii_4_36833" x="231.627" y="317.23" width="230.841" height="112.296" filterUnits="userSpaceOnUse" color-interpolation-filters="sRGB">
<feFlood flood-opacity="0" result="BackgroundImageFix"/>
<feBlend mode="normal" in="SourceGraphic" in2="BackgroundImageFix" result="shape"/>
<feColorMatrix in="SourceAlpha" type="matrix" values="0 0 0 0 0 0 0 0 0 0 0 0 0 0 0 0 0 0 127 0" result="hardAlpha"/>
<feOffset dx="-15" dy="-3"/>
<feGaussianBlur stdDeviation="6"/>
<feComposite in2="hardAlpha" operator="arithmetic" k2="-1" k3="1"/>
<feColorMatrix type="matrix" values="0 0 0 0 0 0 0 0 0 0 0 0 0 0 0 0 0 0 0.25 0"/>
<feBlend mode="normal" in2="shape" result="effect1_innerShadow_4_36833"/>
<feColorMatrix in="SourceAlpha" type="matrix" values="0 0 0 0 0 0 0 0 0 0 0 0 0 0 0 0 0 0 127 0" result="hardAlpha"/>
<feOffset dx="-10" dy="14"/>
<feGaussianBlur stdDeviation="5.5"/>
<feComposite in2="hardAlpha" operator="arithmetic" k2="-1" k3="1"/>
<feColorMatrix type="matrix" values="0 0 0 0 1 0 0 0 0 1 0 0 0 0 1 0 0 0 0.25 0"/>
<feBlend mode="normal" in2="effect1_innerShadow_4_36833" result="effect2_innerShadow_4_36833"/>
</filter>
<filter id="filter3_ii_4_36833" x="289.518" y="107.755" width="229.444" height="72.6283" filterUnits="userSpaceOnUse" color-interpolation-filters="sRGB">
<feFlood flood-opacity="0" result="BackgroundImageFix"/>
<feBlend mode="normal" in="SourceGraphic" in2="BackgroundImageFix" result="shape"/>
<feColorMatrix in="SourceAlpha" type="matrix" values="0 0 0 0 0 0 0 0 0 0 0 0 0 0 0 0 0 0 127 0" result="hardAlpha"/>
<feOffset dx="-7" dy="-8"/>
<feGaussianBlur stdDeviation="6"/>
<feComposite in2="hardAlpha" operator="arithmetic" k2="-1" k3="1"/>
<feColorMatrix type="matrix" values="0 0 0 0 0 0 0 0 0 0 0 0 0 0 0 0 0 0 0.25 0"/>
<feBlend mode="normal" in2="shape" result="effect1_innerShadow_4_36833"/>
<feColorMatrix in="SourceAlpha" type="matrix" values="0 0 0 0 0 0 0 0 0 0 0 0 0 0 0 0 0 0 127 0" result="hardAlpha"/>
<feOffset dx="-10" dy="2"/>
<feGaussianBlur stdDeviation="5.5"/>
<feComposite in2="hardAlpha" operator="arithmetic" k2="-1" k3="1"/>
<feColorMatrix type="matrix" values="0 0 0 0 1 0 0 0 0 1 0 0 0 0 1 0 0 0 0.25 0"/>
<feBlend mode="normal" in2="effect1_innerShadow_4_36833" result="effect2_innerShadow_4_36833"/>
</filter>
<filter id="filter4_i_4_36833" x="368.326" y="294.636" width="74.5908" height="58.7766" filterUnits="userSpaceOnUse" color-interpolation-filters="sRGB">
<feFlood flood-opacity="0" result="BackgroundImageFix"/>
<feBlend mode="normal" in="SourceGraphic" in2="BackgroundImageFix" result="shape"/>
<feColorMatrix in="SourceAlpha" type="matrix" values="0 0 0 0 0 0 0 0 0 0 0 0 0 0 0 0 0 0 127 0" result="hardAlpha"/>
<feOffset dx="6" dy="12"/>
<feGaussianBlur stdDeviation="5.5"/>
<feComposite in2="hardAlpha" operator="arithmetic" k2="-1" k3="1"/>
<feColorMatrix type="matrix" values="0 0 0 0 1 0 0 0 0 1 0 0 0 0 1 0 0 0 0.25 0"/>
<feBlend mode="normal" in2="shape" result="effect1_innerShadow_4_36833"/>
</filter>
<filter id="filter5_ii_4_36833" x="3.60449" y="230.309" width="246.172" height="117.085" filterUnits="userSpaceOnUse" color-interpolation-filters="sRGB">
<feFlood flood-opacity="0" result="BackgroundImageFix"/>
<feBlend mode="normal" in="SourceGraphic" in2="BackgroundImageFix" result="shape"/>
<feColorMatrix in="SourceAlpha" type="matrix" values="0 0 0 0 0 0 0 0 0 0 0 0 0 0 0 0 0 0 127 0" result="hardAlpha"/>
<feOffset dx="11" dy="12"/>
<feGaussianBlur stdDeviation="6.5"/>
<feComposite in2="hardAlpha" operator="arithmetic" k2="-1" k3="1"/>
<feColorMatrix type="matrix" values="0 0 0 0 1 0 0 0 0 1 0 0 0 0 1 0 0 0 0.25 0"/>
<feBlend mode="normal" in2="shape" result="effect1_innerShadow_4_36833"/>
<feColorMatrix in="SourceAlpha" type="matrix" values="0 0 0 0 0 0 0 0 0 0 0 0 0 0 0 0 0 0 127 0" result="hardAlpha"/>
<feOffset dx="3" dy="-15"/>
<feGaussianBlur stdDeviation="4"/>
<feComposite in2="hardAlpha" operator="arithmetic" k2="-1" k3="1"/>
<feColorMatrix type="matrix" values="0 0 0 0 0 0 0 0 0 0 0 0 0 0 0 0 0 0 0.25 0"/>
<feBlend mode="normal" in2="effect1_innerShadow_4_36833" result="effect2_innerShadow_4_36833"/>
</filter>
</defs>
</svg>
