<svg width="188" height="89" viewBox="0 0 188 89" fill="none" xmlns="http://www.w3.org/2000/svg">
<path d="M0 36C0 33.7909 1.79086 32 4 32H184C186.209 32 188 33.7909 188 36V85C188 87.2091 186.209 89 184 89H4C1.79086 89 0 87.2091 0 85V36Z" fill="black" fill-opacity="0.12"/>
<path d="M22 53C22 50.7909 23.7909 49 26 49H162C164.209 49 166 50.7909 166 53V76C166 78.2091 164.209 80 162 80H26C23.7909 80 22 78.2091 22 76V53Z" fill="black" fill-opacity="0.12"/>
<path d="M160 40C160 38.8954 160.895 38 162 38H180C181.105 38 182 38.8954 182 40V81C182 82.1046 181.105 83 180 83H162C160.895 83 160 82.1046 160 81V40Z" fill="black" fill-opacity="0.2"/>
<rect x="162" y="19" width="18" height="23" fill="#CBD5E1"/>
<path d="M162 2C162 0.895431 162.895 0 164 0H178C179.105 0 180 0.895431 180 2V19H162V2Z" fill="#E2E8F0"/>
<path d="M162 42H180V62H162V42Z" fill="#A6B4C8"/>
<path d="M162 62H180V79C180 80.1046 179.105 81 178 81H164C162.895 81 162 80.1046 162 79V62Z" fill="#64748B"/>
<path d="M6 40C6 38.8954 6.89543 38 8 38H26C27.1046 38 28 38.8954 28 40V81C28 82.1046 27.1046 83 26 83H8C6.89543 83 6 82.1046 6 81V40Z" fill="black" fill-opacity="0.2"/>
<rect x="8" y="19" width="18" height="23" fill="#CBD5E1"/>
<path d="M8 2C8 0.895431 8.89543 0 10 0H24C25.1046 0 26 0.895431 26 2V19H8V2Z" fill="#E2E8F0"/>
<path d="M8 42H26V62H8V42Z" fill="#A6B4C8"/>
<path d="M8 62H26V79C26 80.1046 25.1046 81 24 81H10C8.89543 81 8 80.1046 8 79V62Z" fill="#64748B"/>
<rect x="26" y="9" width="136" height="62" fill="#64748B"/>
<g filter="url(#filter0_i_4_36900)">
<rect x="26" y="9" width="136" height="62" fill="url(#paint0_linear_4_36900)"/>
</g>
<rect x="35" y="18" width="118" height="44" rx="22" fill="#1E293B"/>
<rect x="35" y="22" width="118" height="40" rx="20" fill="#334155"/>
<g filter="url(#filter1_i_4_36900)">
<rect x="43" y="26" width="102" height="30" rx="15" fill="#2DD4BF"/>
</g>
<g opacity="0.75" filter="url(#filter2_f_4_36900)">
<rect x="52" y="34" width="84" height="16" rx="8" fill="#F0FDFA"/>
</g>
<rect opacity="0.75" x="60" y="40" width="68" height="4" rx="2" fill="#F0FDFA"/>
<circle cx="61" cy="45" r="3" fill="#5EEAD4"/>
<g filter="url(#filter3_f_4_36900)" style="mix-blend-mode:screen">
<circle cx="61" cy="45" r="1.5" fill="#99F6E4"/>
</g>
<g filter="url(#filter4_f_4_36900)" style="mix-blend-mode:screen">
<circle cx="125.5" cy="36.5" r="2.5" fill="#5EEAD4"/>
</g>
<g filter="url(#filter5_f_4_36900)" style="mix-blend-mode:screen">
<circle cx="125.5" cy="36.5" r="1.25" fill="#99F6E4"/>
</g>
<circle cx="100" cy="47" r="2" fill="#5EEAD4"/>
<g filter="url(#filter6_f_4_36900)" style="mix-blend-mode:screen">
<circle cx="100" cy="47" r="1" fill="#99F6E4"/>
</g>
<g filter="url(#filter7_f_4_36900)" style="mix-blend-mode:screen">
<circle cx="88.5" cy="33.5" r="5.5" fill="#5EEAD4"/>
</g>
<g filter="url(#filter8_f_4_36900)" style="mix-blend-mode:screen">
<circle cx="88.5" cy="33.5" r="1.5" fill="#99F6E4"/>
</g>
<defs>
<filter id="filter0_i_4_36900" x="18" y="9" width="144" height="62" filterUnits="userSpaceOnUse" color-interpolation-filters="sRGB">
<feFlood flood-opacity="0" result="BackgroundImageFix"/>
<feBlend mode="normal" in="SourceGraphic" in2="BackgroundImageFix" result="shape"/>
<feColorMatrix in="SourceAlpha" type="matrix" values="0 0 0 0 0 0 0 0 0 0 0 0 0 0 0 0 0 0 127 0" result="hardAlpha"/>
<feOffset dx="-8"/>
<feGaussianBlur stdDeviation="4"/>
<feComposite in2="hardAlpha" operator="arithmetic" k2="-1" k3="1"/>
<feColorMatrix type="matrix" values="0 0 0 0 0 0 0 0 0 0 0 0 0 0 0 0 0 0 0.25 0"/>
<feBlend mode="normal" in2="shape" result="effect1_innerShadow_4_36900"/>
</filter>
<filter id="filter1_i_4_36900" x="43" y="26" width="102" height="30" filterUnits="userSpaceOnUse" color-interpolation-filters="sRGB">
<feFlood flood-opacity="0" result="BackgroundImageFix"/>
<feBlend mode="normal" in="SourceGraphic" in2="BackgroundImageFix" result="shape"/>
<feColorMatrix in="SourceAlpha" type="matrix" values="0 0 0 0 0 0 0 0 0 0 0 0 0 0 0 0 0 0 127 0" result="hardAlpha"/>
<feOffset/>
<feGaussianBlur stdDeviation="4"/>
<feComposite in2="hardAlpha" operator="arithmetic" k2="-1" k3="1"/>
<feColorMatrix type="matrix" values="0 0 0 0 1 0 0 0 0 1 0 0 0 0 1 0 0 0 0.65 0"/>
<feBlend mode="normal" in2="shape" result="effect1_innerShadow_4_36900"/>
</filter>
<filter id="filter2_f_4_36900" x="44" y="26" width="100" height="32" filterUnits="userSpaceOnUse" color-interpolation-filters="sRGB">
<feFlood flood-opacity="0" result="BackgroundImageFix"/>
<feBlend mode="normal" in="SourceGraphic" in2="BackgroundImageFix" result="shape"/>
<feGaussianBlur stdDeviation="4" result="effect1_foregroundBlur_4_36900"/>
</filter>
<filter id="filter3_f_4_36900" x="57.5" y="41.5" width="7" height="7" filterUnits="userSpaceOnUse" color-interpolation-filters="sRGB">
<feFlood flood-opacity="0" result="BackgroundImageFix"/>
<feBlend mode="normal" in="SourceGraphic" in2="BackgroundImageFix" result="shape"/>
<feGaussianBlur stdDeviation="1" result="effect1_foregroundBlur_4_36900"/>
</filter>
<filter id="filter4_f_4_36900" x="120" y="31" width="11" height="11" filterUnits="userSpaceOnUse" color-interpolation-filters="sRGB">
<feFlood flood-opacity="0" result="BackgroundImageFix"/>
<feBlend mode="normal" in="SourceGraphic" in2="BackgroundImageFix" result="shape"/>
<feGaussianBlur stdDeviation="1.5" result="effect1_foregroundBlur_4_36900"/>
</filter>
<filter id="filter5_f_4_36900" x="122.25" y="33.25" width="6.5" height="6.5" filterUnits="userSpaceOnUse" color-interpolation-filters="sRGB">
<feFlood flood-opacity="0" result="BackgroundImageFix"/>
<feBlend mode="normal" in="SourceGraphic" in2="BackgroundImageFix" result="shape"/>
<feGaussianBlur stdDeviation="1" result="effect1_foregroundBlur_4_36900"/>
</filter>
<filter id="filter6_f_4_36900" x="97" y="44" width="6" height="6" filterUnits="userSpaceOnUse" color-interpolation-filters="sRGB">
<feFlood flood-opacity="0" result="BackgroundImageFix"/>
<feBlend mode="normal" in="SourceGraphic" in2="BackgroundImageFix" result="shape"/>
<feGaussianBlur stdDeviation="1" result="effect1_foregroundBlur_4_36900"/>
</filter>
<filter id="filter7_f_4_36900" x="80" y="25" width="17" height="17" filterUnits="userSpaceOnUse" color-interpolation-filters="sRGB">
<feFlood flood-opacity="0" result="BackgroundImageFix"/>
<feBlend mode="normal" in="SourceGraphic" in2="BackgroundImageFix" result="shape"/>
<feGaussianBlur stdDeviation="1.5" result="effect1_foregroundBlur_4_36900"/>
</filter>
<filter id="filter8_f_4_36900" x="85" y="30" width="7" height="7" filterUnits="userSpaceOnUse" color-interpolation-filters="sRGB">
<feFlood flood-opacity="0" result="BackgroundImageFix"/>
<feBlend mode="normal" in="SourceGraphic" in2="BackgroundImageFix" result="shape"/>
<feGaussianBlur stdDeviation="1" result="effect1_foregroundBlur_4_36900"/>
</filter>
<linearGradient id="paint0_linear_4_36900" x1="94" y1="71" x2="94" y2="9" gradientUnits="userSpaceOnUse">
<stop stop-opacity="0.35"/>
<stop offset="1" stop-color="white" stop-opacity="0.16"/>
</linearGradient>
</defs>
</svg>
