<svg width="98" height="241" viewBox="0 0 98 241" fill="none" xmlns="http://www.w3.org/2000/svg">
<path d="M24.0172 147.68C27.0178 144.68 31.0875 142.994 35.331 142.994L62.669 142.994C66.9125 142.994 70.9822 144.68 73.9828 147.68L93.3137 167.011C96.3143 170.012 98 174.082 98 178.325V205.663C98 209.907 96.3143 213.976 93.3137 216.977L73.9828 236.308C70.9822 239.308 66.9125 240.994 62.6691 240.994H35.331C31.0875 240.994 27.0178 239.308 24.0172 236.308L4.6863 216.977C1.68571 213.976 1.82438e-07 209.907 1.62176e-07 205.663L3.16442e-08 178.325C1.13828e-08 174.082 1.68571 170.012 4.68629 167.011L24.0172 147.68Z" fill="black" fill-opacity="0.12"/>
<path d="M30.0172 150.166C30.7674 149.416 31.7848 148.994 32.8457 148.994L65.1543 148.994C66.2152 148.994 67.2326 149.416 67.9828 150.166L90.8284 173.011C91.5786 173.762 92 174.779 92 175.84V208.148C92 209.209 91.5786 210.227 90.8284 210.977L67.9828 233.823C67.2326 234.573 66.2152 234.994 65.1543 234.994H32.8457C31.7848 234.994 30.7674 234.573 30.0172 233.823L7.17158 210.977C6.42143 210.227 6 209.209 6 208.148L6 175.84C6 174.779 6.42143 173.762 7.17157 173.011L30.0172 150.166Z" fill="black" fill-opacity="0.2"/>
<path d="M31.4315 137.58C31.8065 137.205 32.3152 136.994 32.8457 136.994L65.1543 136.994C65.6848 136.994 66.1935 137.205 66.5685 137.58L89.4142 160.426C89.7893 160.801 90 161.309 90 161.84V194.148C90 194.679 89.7893 195.188 89.4142 195.563L65.9828 218.994H32.0172L8.58579 195.563C8.21071 195.188 8 194.679 8 194.148L8 161.84C8 161.309 8.21071 160.801 8.58579 160.426L31.4315 137.58Z" fill="#E2E8F0"/>
<circle cx="49" cy="176.994" r="33" fill="black" fill-opacity="0.2"/>
<rect x="32" y="218.994" width="34" height="14" fill="#CBD5E1"/>
<path d="M66 218.994L90 194.994V208.166C90 208.696 89.7893 209.205 89.4142 209.58L66 232.994V218.994Z" fill="#F1F5F9"/>
<path d="M8 194.994L32 218.994V232.994L8.58579 209.58C8.21071 209.205 8 208.696 8 208.166V194.994Z" fill="#A6B4C8"/>
<g filter="url(#filter0_ii_4_36901)">
<path d="M80 60L80 177C80 194.121 66.1208 208 49 208C31.8792 208 18 194.121 18 177L18 60L80 60Z" fill="#64748B"/>
</g>
<g filter="url(#filter1_ii_4_36901)">
<rect x="70" y="84" width="115" height="42" rx="21" transform="rotate(90 70 84)" fill="#64748B"/>
</g>
<g filter="url(#filter2_i_4_36901)">
<rect x="70" y="84" width="111" height="42" rx="21" transform="rotate(90 70 84)" fill="#334155"/>
</g>
<g filter="url(#filter3_i_4_36901)">
<rect x="64" y="90" width="99" height="30" rx="15" transform="rotate(90 64 90)" fill="#2DD4BF"/>
</g>
<g opacity="0.75" filter="url(#filter4_f_4_36901)">
<rect x="57" y="91.9941" width="92" height="16" rx="8" transform="rotate(90 57 91.9941)" fill="#F0FDFA"/>
</g>
<rect opacity="0.75" x="51" y="105.994" width="64" height="4" rx="2" transform="rotate(90 51 105.994)" fill="#F0FDFA"/>
<circle cx="44.5" cy="106.5" r="3" transform="rotate(90 44.5 106.5)" fill="#5EEAD4"/>
<g filter="url(#filter5_f_4_36901)" style="mix-blend-mode:screen">
<circle cx="44.5" cy="106.5" r="1.5" transform="rotate(90 44.5 106.5)" fill="#99F6E4"/>
</g>
<g filter="url(#filter6_f_4_36901)" style="mix-blend-mode:screen">
<circle cx="54" cy="172" r="2.5" transform="rotate(90 54 172)" fill="#5EEAD4"/>
</g>
<g filter="url(#filter7_f_4_36901)" style="mix-blend-mode:screen">
<circle cx="54" cy="172" r="1.25" transform="rotate(90 54 172)" fill="#99F6E4"/>
</g>
<circle cx="40.5" cy="145.5" r="2" transform="rotate(90 40.5 145.5)" fill="#5EEAD4"/>
<g filter="url(#filter8_f_4_36901)" style="mix-blend-mode:screen">
<circle cx="40.5" cy="145.5" r="1" transform="rotate(90 40.5 145.5)" fill="#99F6E4"/>
</g>
<g filter="url(#filter9_f_4_36901)" style="mix-blend-mode:screen">
<circle cx="55" cy="134" r="5.5" transform="rotate(90 55 134)" fill="#5EEAD4"/>
</g>
<g filter="url(#filter10_f_4_36901)" style="mix-blend-mode:screen">
<circle cx="55" cy="134" r="1.5" transform="rotate(90 55 134)" fill="#99F6E4"/>
</g>
<path d="M31.4315 0.585785C31.8065 0.210712 32.3152 1.60753e-07 32.8457 1.58221e-07L65.1543 3.95551e-09C65.6848 1.42283e-09 66.1935 0.210714 66.5685 0.585787L89.4142 23.4315C89.7893 23.8065 90 24.3152 90 24.8457V57.1543C90 57.6848 89.7893 58.1935 89.4142 58.5685L65.9828 82H32.0172L8.58579 58.5686C8.21071 58.1935 8 57.6848 8 57.1543L8 24.8457C8 24.3152 8.21071 23.8065 8.58579 23.4315L31.4315 0.585785Z" fill="#E2E8F0"/>
<rect x="32" y="82" width="34" height="14" fill="#CBD5E1"/>
<path d="M66 82L90 58V71.1716C90 71.702 89.7893 72.2107 89.4142 72.5858L66 96V82Z" fill="#F1F5F9"/>
<path d="M8 58L32 82V96L8.58579 72.5858C8.21071 72.2107 8 71.702 8 71.1716V58Z" fill="#A6B4C8"/>
<rect x="26" y="16.9941" width="44" height="44" rx="8" fill="#A6B4C8"/>
<g filter="url(#filter11_i_4_36901)">
<rect x="26" y="20.9941" width="44" height="44" rx="8" fill="#475569"/>
</g>
<rect x="36" y="31.9941" width="24" height="24" rx="2" fill="#CA8A04"/>
<rect x="36" y="29.9941" width="24" height="24" rx="2" fill="#EAB308"/>
<rect x="55" y="44" width="4" height="14" rx="2" transform="rotate(90 55 44)" fill="#FDE047"/>
<rect x="55" y="35.9941" width="4" height="14" rx="2" transform="rotate(90 55 35.9941)" fill="#FDE047"/>
<defs>
<filter id="filter0_ii_4_36901" x="10" y="60" width="78" height="156" filterUnits="userSpaceOnUse" color-interpolation-filters="sRGB">
<feFlood flood-opacity="0" result="BackgroundImageFix"/>
<feBlend mode="normal" in="SourceGraphic" in2="BackgroundImageFix" result="shape"/>
<feColorMatrix in="SourceAlpha" type="matrix" values="0 0 0 0 0 0 0 0 0 0 0 0 0 0 0 0 0 0 127 0" result="hardAlpha"/>
<feOffset dx="8" dy="8"/>
<feGaussianBlur stdDeviation="8"/>
<feComposite in2="hardAlpha" operator="arithmetic" k2="-1" k3="1"/>
<feColorMatrix type="matrix" values="0 0 0 0 0 0 0 0 0 0 0 0 0 0 0 0 0 0 0.25 0"/>
<feBlend mode="normal" in2="shape" result="effect1_innerShadow_4_36901"/>
<feColorMatrix in="SourceAlpha" type="matrix" values="0 0 0 0 0 0 0 0 0 0 0 0 0 0 0 0 0 0 127 0" result="hardAlpha"/>
<feOffset dx="-8" dy="8"/>
<feGaussianBlur stdDeviation="8"/>
<feComposite in2="hardAlpha" operator="arithmetic" k2="-1" k3="1"/>
<feColorMatrix type="matrix" values="0 0 0 0 1 0 0 0 0 1 0 0 0 0 1 0 0 0 0.25 0"/>
<feBlend mode="normal" in2="effect1_innerShadow_4_36901" result="effect2_innerShadow_4_36901"/>
</filter>
<filter id="filter1_ii_4_36901" x="20" y="84" width="58" height="123" filterUnits="userSpaceOnUse" color-interpolation-filters="sRGB">
<feFlood flood-opacity="0" result="BackgroundImageFix"/>
<feBlend mode="normal" in="SourceGraphic" in2="BackgroundImageFix" result="shape"/>
<feColorMatrix in="SourceAlpha" type="matrix" values="0 0 0 0 0 0 0 0 0 0 0 0 0 0 0 0 0 0 127 0" result="hardAlpha"/>
<feOffset dx="-8" dy="8"/>
<feGaussianBlur stdDeviation="8"/>
<feComposite in2="hardAlpha" operator="arithmetic" k2="-1" k3="1"/>
<feColorMatrix type="matrix" values="0 0 0 0 0 0 0 0 0 0 0 0 0 0 0 0 0 0 0.25 0"/>
<feBlend mode="normal" in2="shape" result="effect1_innerShadow_4_36901"/>
<feColorMatrix in="SourceAlpha" type="matrix" values="0 0 0 0 0 0 0 0 0 0 0 0 0 0 0 0 0 0 127 0" result="hardAlpha"/>
<feOffset dx="8" dy="8"/>
<feGaussianBlur stdDeviation="8"/>
<feComposite in2="hardAlpha" operator="arithmetic" k2="-1" k3="1"/>
<feColorMatrix type="matrix" values="0 0 0 0 1 0 0 0 0 1 0 0 0 0 1 0 0 0 0.25 0"/>
<feBlend mode="normal" in2="effect1_innerShadow_4_36901" result="effect2_innerShadow_4_36901"/>
</filter>
<filter id="filter2_i_4_36901" x="28" y="84" width="42" height="111" filterUnits="userSpaceOnUse" color-interpolation-filters="sRGB">
<feFlood flood-opacity="0" result="BackgroundImageFix"/>
<feBlend mode="normal" in="SourceGraphic" in2="BackgroundImageFix" result="shape"/>
<feColorMatrix in="SourceAlpha" type="matrix" values="0 0 0 0 0 0 0 0 0 0 0 0 0 0 0 0 0 0 127 0" result="hardAlpha"/>
<feOffset dx="-2" dy="4"/>
<feComposite in2="hardAlpha" operator="arithmetic" k2="-1" k3="1"/>
<feColorMatrix type="matrix" values="0 0 0 0 0 0 0 0 0 0 0 0 0 0 0 0 0 0 0.25 0"/>
<feBlend mode="normal" in2="shape" result="effect1_innerShadow_4_36901"/>
</filter>
<filter id="filter3_i_4_36901" x="34" y="90" width="30" height="99" filterUnits="userSpaceOnUse" color-interpolation-filters="sRGB">
<feFlood flood-opacity="0" result="BackgroundImageFix"/>
<feBlend mode="normal" in="SourceGraphic" in2="BackgroundImageFix" result="shape"/>
<feColorMatrix in="SourceAlpha" type="matrix" values="0 0 0 0 0 0 0 0 0 0 0 0 0 0 0 0 0 0 127 0" result="hardAlpha"/>
<feOffset/>
<feGaussianBlur stdDeviation="4"/>
<feComposite in2="hardAlpha" operator="arithmetic" k2="-1" k3="1"/>
<feColorMatrix type="matrix" values="0 0 0 0 1 0 0 0 0 1 0 0 0 0 1 0 0 0 0.65 0"/>
<feBlend mode="normal" in2="shape" result="effect1_innerShadow_4_36901"/>
</filter>
<filter id="filter4_f_4_36901" x="33" y="83.9941" width="32" height="108" filterUnits="userSpaceOnUse" color-interpolation-filters="sRGB">
<feFlood flood-opacity="0" result="BackgroundImageFix"/>
<feBlend mode="normal" in="SourceGraphic" in2="BackgroundImageFix" result="shape"/>
<feGaussianBlur stdDeviation="4" result="effect1_foregroundBlur_4_36901"/>
</filter>
<filter id="filter5_f_4_36901" x="41" y="103" width="7" height="7" filterUnits="userSpaceOnUse" color-interpolation-filters="sRGB">
<feFlood flood-opacity="0" result="BackgroundImageFix"/>
<feBlend mode="normal" in="SourceGraphic" in2="BackgroundImageFix" result="shape"/>
<feGaussianBlur stdDeviation="1" result="effect1_foregroundBlur_4_36901"/>
</filter>
<filter id="filter6_f_4_36901" x="48.5" y="166.5" width="11" height="11" filterUnits="userSpaceOnUse" color-interpolation-filters="sRGB">
<feFlood flood-opacity="0" result="BackgroundImageFix"/>
<feBlend mode="normal" in="SourceGraphic" in2="BackgroundImageFix" result="shape"/>
<feGaussianBlur stdDeviation="1.5" result="effect1_foregroundBlur_4_36901"/>
</filter>
<filter id="filter7_f_4_36901" x="50.75" y="168.75" width="6.5" height="6.5" filterUnits="userSpaceOnUse" color-interpolation-filters="sRGB">
<feFlood flood-opacity="0" result="BackgroundImageFix"/>
<feBlend mode="normal" in="SourceGraphic" in2="BackgroundImageFix" result="shape"/>
<feGaussianBlur stdDeviation="1" result="effect1_foregroundBlur_4_36901"/>
</filter>
<filter id="filter8_f_4_36901" x="37.5" y="142.5" width="6" height="6" filterUnits="userSpaceOnUse" color-interpolation-filters="sRGB">
<feFlood flood-opacity="0" result="BackgroundImageFix"/>
<feBlend mode="normal" in="SourceGraphic" in2="BackgroundImageFix" result="shape"/>
<feGaussianBlur stdDeviation="1" result="effect1_foregroundBlur_4_36901"/>
</filter>
<filter id="filter9_f_4_36901" x="46.5" y="125.5" width="17" height="17" filterUnits="userSpaceOnUse" color-interpolation-filters="sRGB">
<feFlood flood-opacity="0" result="BackgroundImageFix"/>
<feBlend mode="normal" in="SourceGraphic" in2="BackgroundImageFix" result="shape"/>
<feGaussianBlur stdDeviation="1.5" result="effect1_foregroundBlur_4_36901"/>
</filter>
<filter id="filter10_f_4_36901" x="51.5" y="130.5" width="7" height="7" filterUnits="userSpaceOnUse" color-interpolation-filters="sRGB">
<feFlood flood-opacity="0" result="BackgroundImageFix"/>
<feBlend mode="normal" in="SourceGraphic" in2="BackgroundImageFix" result="shape"/>
<feGaussianBlur stdDeviation="1" result="effect1_foregroundBlur_4_36901"/>
</filter>
<filter id="filter11_i_4_36901" x="26" y="20.9941" width="44" height="44" filterUnits="userSpaceOnUse" color-interpolation-filters="sRGB">
<feFlood flood-opacity="0" result="BackgroundImageFix"/>
<feBlend mode="normal" in="SourceGraphic" in2="BackgroundImageFix" result="shape"/>
<feColorMatrix in="SourceAlpha" type="matrix" values="0 0 0 0 0 0 0 0 0 0 0 0 0 0 0 0 0 0 127 0" result="hardAlpha"/>
<feOffset dx="-2"/>
<feComposite in2="hardAlpha" operator="arithmetic" k2="-1" k3="1"/>
<feColorMatrix type="matrix" values="0 0 0 0 0 0 0 0 0 0 0 0 0 0 0 0 0 0 0.25 0"/>
<feBlend mode="normal" in2="shape" result="effect1_innerShadow_4_36901"/>
</filter>
</defs>
</svg>
