<svg width="338" height="492" viewBox="0 0 338 492" fill="none" xmlns="http://www.w3.org/2000/svg">
<path d="M0 426.043L4.92363 358.304L336.221 364.543L107.617 492L37.5054 476.848L0 426.043Z" fill="black" fill-opacity="0.2"/>
<g filter="url(#filter0_i_4_36787)">
<path d="M142.315 42.7826L92.5049 7.13043L136.979 0L197.463 23.1739L142.315 42.7826Z" fill="#F87171"/>
</g>
<g filter="url(#filter1_d_4_36787)">
<path d="M250.831 78.4347L338 363.652L197.463 410L172.558 135.478L142.315 42.7825L197.463 23.1738L250.831 78.4347Z" fill="#EF4444"/>
</g>
<g filter="url(#filter2_d_4_36787)">
<path d="M96.0636 399.304L7.11621 358.304L46.2531 130.13L72.9373 110.522L92.5057 7.13037L142.316 42.7825L172.558 135.478L197.464 410L152.99 385.043L96.0636 399.304Z" fill="#991B1B"/>
</g>
<path d="M152.99 385.055L136.94 172.913L96.0635 399.304L152.99 385.055Z" fill="#EF4444"/>
<path d="M136.979 172.913L46.2529 130.13L72.9371 110.522L136.979 172.913Z" fill="#F87171"/>
<defs>
<filter id="filter0_i_4_36787" x="90.4487" y="-2.05621" width="107.014" height="44.8388" filterUnits="userSpaceOnUse" color-interpolation-filters="sRGB">
<feFlood flood-opacity="0" result="BackgroundImageFix"/>
<feBlend mode="normal" in="SourceGraphic" in2="BackgroundImageFix" result="shape"/>
<feColorMatrix in="SourceAlpha" type="matrix" values="0 0 0 0 0 0 0 0 0 0 0 0 0 0 0 0 0 0 127 0" result="hardAlpha"/>
<feOffset dx="-4.11243" dy="-2.05621"/>
<feGaussianBlur stdDeviation="1.02811"/>
<feComposite in2="hardAlpha" operator="arithmetic" k2="-1" k3="1"/>
<feColorMatrix type="matrix" values="0 0 0 0 1 0 0 0 0 1 0 0 0 0 1 0 0 0 0.25 0"/>
<feBlend mode="normal" in2="shape" result="effect1_innerShadow_4_36787"/>
</filter>
<filter id="filter1_d_4_36787" x="142.315" y="23.1738" width="195.685" height="387.826" filterUnits="userSpaceOnUse" color-interpolation-filters="sRGB">
<feFlood flood-opacity="0" result="BackgroundImageFix"/>
<feColorMatrix in="SourceAlpha" type="matrix" values="0 0 0 0 0 0 0 0 0 0 0 0 0 0 0 0 0 0 127 0" result="hardAlpha"/>
<feOffset dy="1"/>
<feComposite in2="hardAlpha" operator="out"/>
<feColorMatrix type="matrix" values="0 0 0 0 0 0 0 0 0 0 0 0 0 0 0 0 0 0 0.25 0"/>
<feBlend mode="normal" in2="BackgroundImageFix" result="effect1_dropShadow_4_36787"/>
<feBlend mode="normal" in="SourceGraphic" in2="effect1_dropShadow_4_36787" result="shape"/>
</filter>
<filter id="filter2_d_4_36787" x="7.11621" y="7.13037" width="190.348" height="403.87" filterUnits="userSpaceOnUse" color-interpolation-filters="sRGB">
<feFlood flood-opacity="0" result="BackgroundImageFix"/>
<feColorMatrix in="SourceAlpha" type="matrix" values="0 0 0 0 0 0 0 0 0 0 0 0 0 0 0 0 0 0 127 0" result="hardAlpha"/>
<feOffset dy="1"/>
<feComposite in2="hardAlpha" operator="out"/>
<feColorMatrix type="matrix" values="0 0 0 0 0 0 0 0 0 0 0 0 0 0 0 0 0 0 0.25 0"/>
<feBlend mode="normal" in2="BackgroundImageFix" result="effect1_dropShadow_4_36787"/>
<feBlend mode="normal" in="SourceGraphic" in2="effect1_dropShadow_4_36787" result="shape"/>
</filter>
</defs>
</svg>
