<svg width="232" height="411" viewBox="0 0 232 411" fill="none" xmlns="http://www.w3.org/2000/svg">
<rect x="26" y="276" width="180" height="135" fill="black" fill-opacity="0.12"/>
<mask id="mask0_4_36882" style="mask-type:alpha" maskUnits="userSpaceOnUse" x="0" y="376" width="32" height="35">
<path d="M32 411H0V376H32V411Z" fill="#C4C4C4"/>
</mask>
<g mask="url(#mask0_4_36882)">
<path d="M0 376L26 411V297H0V376Z" fill="black" fill-opacity="0.12"/>
</g>
<path d="M27 177H0V376H27V177Z" fill="black" fill-opacity="0.12"/>
<mask id="mask1_4_36882" style="mask-type:alpha" maskUnits="userSpaceOnUse" x="0" y="145" width="24" height="32">
<rect width="24" height="32" transform="matrix(-1 0 0 1 24 145)" fill="#C4C4C4"/>
</mask>
<g mask="url(#mask1_4_36882)">
<path d="M0 177L24 145V288L0 256V177Z" fill="black" fill-opacity="0.12"/>
</g>
<mask id="mask2_4_36882" style="mask-type:alpha" maskUnits="userSpaceOnUse" x="200" y="376" width="32" height="35">
<path d="M200 411H232V376H200V411Z" fill="#C4C4C4"/>
</mask>
<g mask="url(#mask2_4_36882)">
<path d="M232 376L206 411V297H232V376Z" fill="black" fill-opacity="0.12"/>
</g>
<path d="M205 177H232V376H205V177Z" fill="black" fill-opacity="0.12"/>
<mask id="mask3_4_36882" style="mask-type:alpha" maskUnits="userSpaceOnUse" x="208" y="145" width="24" height="32">
<rect x="208" y="145" width="24" height="32" fill="#C4C4C4"/>
</mask>
<g mask="url(#mask3_4_36882)">
<path d="M232 177L208 145V288L232 256V177Z" fill="black" fill-opacity="0.12"/>
</g>
<rect x="30.5859" y="277.2" width="170.827" height="127.8" fill="black" fill-opacity="0.2"/>
<mask id="mask4_4_36882" style="mask-type:alpha" maskUnits="userSpaceOnUse" x="5" y="371" width="32" height="34">
<path d="M36.2656 405H5.97229V371.867H36.2656V405Z" fill="#C4C4C4"/>
</mask>
<g mask="url(#mask4_4_36882)">
<path d="M5.97266 371.867L30.586 405V297.08H5.97266V371.867Z" fill="black" fill-opacity="0.2"/>
</g>
<path d="M31.5322 177.293H5.97223V371.867H31.5322V177.293Z" fill="black" fill-opacity="0.2"/>
<mask id="mask5_4_36882" style="mask-type:alpha" maskUnits="userSpaceOnUse" x="5" y="147" width="24" height="31">
<rect width="22.72" height="30.2933" transform="matrix(-1 0 0 1 28.6924 147)" fill="#C4C4C4"/>
</mask>
<g mask="url(#mask5_4_36882)">
<path d="M5.97266 177.293L28.6927 147V282.373L5.97266 252.08V177.293Z" fill="black" fill-opacity="0.2"/>
</g>
<mask id="mask6_4_36882" style="mask-type:alpha" maskUnits="userSpaceOnUse" x="195" y="371" width="32" height="34">
<path d="M195.732 405H226.026V371.867H195.732V405Z" fill="#C4C4C4"/>
</mask>
<g mask="url(#mask6_4_36882)">
<path d="M226.025 371.867L201.412 405V297.08H226.025V371.867Z" fill="black" fill-opacity="0.2"/>
</g>
<path d="M200.466 177.293H226.026V371.867H200.466V177.293Z" fill="black" fill-opacity="0.2"/>
<mask id="mask7_4_36882" style="mask-type:alpha" maskUnits="userSpaceOnUse" x="203" y="147" width="24" height="31">
<rect x="203.306" y="147" width="22.72" height="30.2933" fill="#C4C4C4"/>
</mask>
<g mask="url(#mask7_4_36882)">
<path d="M226.025 177.293L203.305 147V282.373L226.025 252.08V177.293Z" fill="black" fill-opacity="0.2"/>
</g>
<path d="M32 276H200V363H32V276Z" fill="#475569"/>
<g filter="url(#filter0_ii_4_36882)">
<rect x="69.999" y="310" width="19.7143" height="46" rx="9.85714" fill="black" fill-opacity="0.2"/>
</g>
<g filter="url(#filter1_ii_4_36882)">
<rect x="94.0947" y="310" width="19.7143" height="46" rx="9.85714" fill="black" fill-opacity="0.2"/>
</g>
<g filter="url(#filter2_ii_4_36882)">
<rect x="118.189" y="310" width="19.7143" height="46" rx="9.85714" fill="black" fill-opacity="0.2"/>
</g>
<g filter="url(#filter3_ii_4_36882)">
<rect x="142.285" y="310" width="19.7143" height="46" rx="9.85714" fill="black" fill-opacity="0.2"/>
</g>
<mask id="mask8_4_36882" style="mask-type:alpha" maskUnits="userSpaceOnUse" x="200" y="339" width="25" height="32">
<rect width="24" height="32" transform="matrix(1 0 0 -1 200.001 371)" fill="#C4C4C4"/>
</mask>
<g mask="url(#mask8_4_36882)">
<g filter="url(#filter4_i_4_36882)">
<path d="M224.001 339L200.001 371V228L224.001 260V339Z" fill="#F5F5F4"/>
</g>
</g>
<g filter="url(#filter5_i_4_36882)">
<rect x="200.001" y="136" width="24" height="203" fill="#F5F5F4"/>
</g>
<mask id="mask9_4_36882" style="mask-type:alpha" maskUnits="userSpaceOnUse" x="200" y="104" width="25" height="32">
<rect x="200.001" y="104" width="24" height="32" fill="#C4C4C4"/>
</mask>
<g mask="url(#mask9_4_36882)">
<g filter="url(#filter6_i_4_36882)">
<path d="M224.001 136L200.001 104V247L224.001 215V136Z" fill="#F5F5F4"/>
</g>
</g>
<rect x="32.001" y="371" width="168" height="32" fill="#E7E5E4"/>
<rect x="32.001" y="363" width="168" height="8" fill="#F5F5F4"/>
<g filter="url(#filter7_i_4_36882)">
<path d="M8.00098 339L32.001 371V403L8.00098 371V339Z" fill="#E7E5E4"/>
</g>
<g filter="url(#filter8_i_4_36882)">
<path d="M224.001 339L200.001 371V403L224.001 371V339Z" fill="#E7E5E4"/>
</g>
<mask id="mask10_4_36882" style="mask-type:alpha" maskUnits="userSpaceOnUse" x="8" y="339" width="25" height="32">
<rect x="32.001" y="371" width="24" height="32" transform="rotate(180 32.001 371)" fill="#C4C4C4"/>
</mask>
<g mask="url(#mask10_4_36882)">
<g filter="url(#filter9_i_4_36882)">
<path d="M8.00098 339L32.001 371V228L8.00098 260V339Z" fill="#F5F5F4"/>
</g>
</g>
<g filter="url(#filter10_i_4_36882)">
<rect width="24" height="203" transform="matrix(-1 0 0 1 32.001 136)" fill="#F5F5F4"/>
</g>
<mask id="mask11_4_36882" style="mask-type:alpha" maskUnits="userSpaceOnUse" x="8" y="104" width="25" height="32">
<rect width="24" height="32" transform="matrix(-1 0 0 1 32.001 104)" fill="#C4C4C4"/>
</mask>
<g mask="url(#mask11_4_36882)">
<g filter="url(#filter11_i_4_36882)">
<path d="M8.00098 136L32.001 104V247L8.00098 215V136Z" fill="#F5F5F4"/>
</g>
</g>
<g filter="url(#filter12_i_4_36882)">
<path d="M217.001 247L200.001 272.314V358L217.001 334.641V247Z" fill="#475569"/>
</g>
<g filter="url(#filter13_i_4_36882)">
<path d="M15.001 251L32.001 276.42V357L15.001 334.581V251Z" fill="#475569"/>
</g>
<path d="M32.001 155H54.001V371H32.001V155Z" fill="#E7E5E4"/>
<path d="M178.001 155H200.001V371H178.001V155Z" fill="#E7E5E4"/>
<g filter="url(#filter14_i_4_36882)">
<path d="M224.001 235L200.001 267V299L224.001 267V235Z" fill="#FAFAF9"/>
</g>
<g filter="url(#filter15_d_4_36882)">
<path d="M32.001 266H200.001V299H32.001V266Z" fill="#E7E5E4"/>
</g>
<g filter="url(#filter16_i_4_36882)">
<path d="M8.00098 235L32.001 267V299L8.00098 267V235Z" fill="#FAFAF9"/>
</g>
<path d="M32.001 0H200.001V267H32.001V0Z" fill="#F5F5F4"/>
<mask id="mask12_4_36882" style="mask-type:alpha" maskUnits="userSpaceOnUse" x="8" y="235" width="25" height="32">
<rect x="32.001" y="267" width="24" height="32" transform="rotate(180 32.001 267)" fill="#C4C4C4"/>
</mask>
<g mask="url(#mask12_4_36882)">
<g filter="url(#filter17_i_4_36882)">
<path d="M8.00098 235L32.001 267V124L8.00098 156V235Z" fill="#F5F5F4"/>
</g>
</g>
<g filter="url(#filter18_i_4_36882)">
<rect width="24" height="203" transform="matrix(-1 0 0 1 32.001 32)" fill="#F5F5F4"/>
</g>
<mask id="mask13_4_36882" style="mask-type:alpha" maskUnits="userSpaceOnUse" x="8" y="0" width="25" height="32">
<rect width="24" height="32" transform="matrix(-1 0 0 1 32.001 0)" fill="#C4C4C4"/>
</mask>
<g mask="url(#mask13_4_36882)">
<g filter="url(#filter19_i_4_36882)">
<path d="M8.00098 32L32.001 0V143L8.00098 111V32Z" fill="#F5F5F4"/>
</g>
</g>
<g filter="url(#filter20_i_4_36882)">
<path d="M77 20C77 15.5817 80.5817 12 85 12H105.297C109.716 12 113.297 15.5817 113.297 20V240C113.297 244.418 109.716 248 105.297 248H85C80.5817 248 77 244.418 77 240L77 20Z" fill="#E7E5E4"/>
<path d="M119.703 20C119.703 15.5817 123.284 12 127.703 12H148C152.418 12 156 15.5817 156 20V240C156 244.418 152.418 248 148 248H127.703C123.284 248 119.703 244.418 119.703 240V20Z" fill="#E7E5E4"/>
</g>
<path d="M170.001 89C170.001 87.8954 170.896 87 172.001 87H190.001C191.106 87 192.001 87.8954 192.001 89V110C192.001 111.105 191.106 112 190.001 112H172.001C170.896 112 170.001 111.105 170.001 110V89Z" fill="#64748B"/>
<path d="M170.001 97H192.001V113H170.001V97Z" fill="#475569"/>
<g filter="url(#filter21_i_4_36882)">
<rect x="175.001" y="101" width="12" height="59" fill="#A6B4C8"/>
</g>
<path d="M170.001 141C170.001 139.895 170.896 139 172.001 139H190.001C191.106 139 192.001 139.895 192.001 141V162C192.001 163.105 191.106 164 190.001 164H172.001C170.896 164 170.001 163.105 170.001 162V141Z" fill="#64748B"/>
<path d="M170.001 149H192.001V165H170.001V149Z" fill="#475569"/>
<path d="M40.001 89C40.001 87.8954 40.8964 87 42.001 87H60.001C61.1055 87 62.001 87.8954 62.001 89V110C62.001 111.105 61.1055 112 60.001 112H42.001C40.8964 112 40.001 111.105 40.001 110V89Z" fill="#64748B"/>
<path d="M40.001 97H62.001V113H40.001V97Z" fill="#475569"/>
<g filter="url(#filter22_i_4_36882)">
<rect x="45.001" y="101" width="12" height="59" fill="#A6B4C8"/>
</g>
<path d="M40.001 141C40.001 139.895 40.8964 139 42.001 139H60.001C61.1055 139 62.001 139.895 62.001 141V162C62.001 163.105 61.1055 164 60.001 164H42.001C40.8964 164 40.001 163.105 40.001 162V141Z" fill="#64748B"/>
<path d="M40.001 149H62.001V165H40.001V149Z" fill="#475569"/>
<mask id="mask14_4_36882" style="mask-type:alpha" maskUnits="userSpaceOnUse" x="200" y="235" width="25" height="32">
<rect width="24" height="32" transform="matrix(1 0 0 -1 200.001 267)" fill="#C4C4C4"/>
</mask>
<g mask="url(#mask14_4_36882)">
<g filter="url(#filter23_i_4_36882)">
<path d="M224.001 235L200.001 267V124L224.001 156V235Z" fill="#F5F5F4"/>
</g>
</g>
<g filter="url(#filter24_i_4_36882)">
<rect x="200.001" y="32" width="24" height="203" fill="#F5F5F4"/>
</g>
<mask id="mask15_4_36882" style="mask-type:alpha" maskUnits="userSpaceOnUse" x="200" y="0" width="25" height="32">
<rect x="200.001" width="24" height="32" fill="#C4C4C4"/>
</mask>
<g mask="url(#mask15_4_36882)">
<g filter="url(#filter25_i_4_36882)">
<path d="M224.001 32L200.001 0V143L224.001 111V32Z" fill="#F5F5F4"/>
</g>
</g>
<defs>
<filter id="filter0_ii_4_36882" x="69.999" y="310" width="19.7139" height="48" filterUnits="userSpaceOnUse" color-interpolation-filters="sRGB">
<feFlood flood-opacity="0" result="BackgroundImageFix"/>
<feBlend mode="normal" in="SourceGraphic" in2="BackgroundImageFix" result="shape"/>
<feColorMatrix in="SourceAlpha" type="matrix" values="0 0 0 0 0 0 0 0 0 0 0 0 0 0 0 0 0 0 127 0" result="hardAlpha"/>
<feOffset dy="-4"/>
<feComposite in2="hardAlpha" operator="arithmetic" k2="-1" k3="1"/>
<feColorMatrix type="matrix" values="0 0 0 0 1 0 0 0 0 1 0 0 0 0 1 0 0 0 0.25 0"/>
<feBlend mode="normal" in2="shape" result="effect1_innerShadow_4_36882"/>
<feColorMatrix in="SourceAlpha" type="matrix" values="0 0 0 0 0 0 0 0 0 0 0 0 0 0 0 0 0 0 127 0" result="hardAlpha"/>
<feOffset dy="4"/>
<feGaussianBlur stdDeviation="1"/>
<feComposite in2="hardAlpha" operator="arithmetic" k2="-1" k3="1"/>
<feColorMatrix type="matrix" values="0 0 0 0 0 0 0 0 0 0 0 0 0 0 0 0 0 0 0.15 0"/>
<feBlend mode="normal" in2="effect1_innerShadow_4_36882" result="effect2_innerShadow_4_36882"/>
</filter>
<filter id="filter1_ii_4_36882" x="94.0947" y="310" width="19.7139" height="48" filterUnits="userSpaceOnUse" color-interpolation-filters="sRGB">
<feFlood flood-opacity="0" result="BackgroundImageFix"/>
<feBlend mode="normal" in="SourceGraphic" in2="BackgroundImageFix" result="shape"/>
<feColorMatrix in="SourceAlpha" type="matrix" values="0 0 0 0 0 0 0 0 0 0 0 0 0 0 0 0 0 0 127 0" result="hardAlpha"/>
<feOffset dy="-4"/>
<feComposite in2="hardAlpha" operator="arithmetic" k2="-1" k3="1"/>
<feColorMatrix type="matrix" values="0 0 0 0 1 0 0 0 0 1 0 0 0 0 1 0 0 0 0.25 0"/>
<feBlend mode="normal" in2="shape" result="effect1_innerShadow_4_36882"/>
<feColorMatrix in="SourceAlpha" type="matrix" values="0 0 0 0 0 0 0 0 0 0 0 0 0 0 0 0 0 0 127 0" result="hardAlpha"/>
<feOffset dy="4"/>
<feGaussianBlur stdDeviation="1"/>
<feComposite in2="hardAlpha" operator="arithmetic" k2="-1" k3="1"/>
<feColorMatrix type="matrix" values="0 0 0 0 0 0 0 0 0 0 0 0 0 0 0 0 0 0 0.15 0"/>
<feBlend mode="normal" in2="effect1_innerShadow_4_36882" result="effect2_innerShadow_4_36882"/>
</filter>
<filter id="filter2_ii_4_36882" x="118.189" y="310" width="19.7139" height="48" filterUnits="userSpaceOnUse" color-interpolation-filters="sRGB">
<feFlood flood-opacity="0" result="BackgroundImageFix"/>
<feBlend mode="normal" in="SourceGraphic" in2="BackgroundImageFix" result="shape"/>
<feColorMatrix in="SourceAlpha" type="matrix" values="0 0 0 0 0 0 0 0 0 0 0 0 0 0 0 0 0 0 127 0" result="hardAlpha"/>
<feOffset dy="-4"/>
<feComposite in2="hardAlpha" operator="arithmetic" k2="-1" k3="1"/>
<feColorMatrix type="matrix" values="0 0 0 0 1 0 0 0 0 1 0 0 0 0 1 0 0 0 0.25 0"/>
<feBlend mode="normal" in2="shape" result="effect1_innerShadow_4_36882"/>
<feColorMatrix in="SourceAlpha" type="matrix" values="0 0 0 0 0 0 0 0 0 0 0 0 0 0 0 0 0 0 127 0" result="hardAlpha"/>
<feOffset dy="4"/>
<feGaussianBlur stdDeviation="1"/>
<feComposite in2="hardAlpha" operator="arithmetic" k2="-1" k3="1"/>
<feColorMatrix type="matrix" values="0 0 0 0 0 0 0 0 0 0 0 0 0 0 0 0 0 0 0.15 0"/>
<feBlend mode="normal" in2="effect1_innerShadow_4_36882" result="effect2_innerShadow_4_36882"/>
</filter>
<filter id="filter3_ii_4_36882" x="142.285" y="310" width="19.7139" height="48" filterUnits="userSpaceOnUse" color-interpolation-filters="sRGB">
<feFlood flood-opacity="0" result="BackgroundImageFix"/>
<feBlend mode="normal" in="SourceGraphic" in2="BackgroundImageFix" result="shape"/>
<feColorMatrix in="SourceAlpha" type="matrix" values="0 0 0 0 0 0 0 0 0 0 0 0 0 0 0 0 0 0 127 0" result="hardAlpha"/>
<feOffset dy="-4"/>
<feComposite in2="hardAlpha" operator="arithmetic" k2="-1" k3="1"/>
<feColorMatrix type="matrix" values="0 0 0 0 1 0 0 0 0 1 0 0 0 0 1 0 0 0 0.25 0"/>
<feBlend mode="normal" in2="shape" result="effect1_innerShadow_4_36882"/>
<feColorMatrix in="SourceAlpha" type="matrix" values="0 0 0 0 0 0 0 0 0 0 0 0 0 0 0 0 0 0 127 0" result="hardAlpha"/>
<feOffset dy="4"/>
<feGaussianBlur stdDeviation="1"/>
<feComposite in2="hardAlpha" operator="arithmetic" k2="-1" k3="1"/>
<feColorMatrix type="matrix" values="0 0 0 0 0 0 0 0 0 0 0 0 0 0 0 0 0 0 0.15 0"/>
<feBlend mode="normal" in2="effect1_innerShadow_4_36882" result="effect2_innerShadow_4_36882"/>
</filter>
<filter id="filter4_i_4_36882" x="200.001" y="228" width="24" height="143" filterUnits="userSpaceOnUse" color-interpolation-filters="sRGB">
<feFlood flood-opacity="0" result="BackgroundImageFix"/>
<feBlend mode="normal" in="SourceGraphic" in2="BackgroundImageFix" result="shape"/>
<feColorMatrix in="SourceAlpha" type="matrix" values="0 0 0 0 0 0 0 0 0 0 0 0 0 0 0 0 0 0 127 0" result="hardAlpha"/>
<feOffset dx="-56"/>
<feComposite in2="hardAlpha" operator="arithmetic" k2="-1" k3="1"/>
<feColorMatrix type="matrix" values="0 0 0 0 1 0 0 0 0 1 0 0 0 0 1 0 0 0 0.25 0"/>
<feBlend mode="normal" in2="shape" result="effect1_innerShadow_4_36882"/>
</filter>
<filter id="filter5_i_4_36882" x="200.001" y="136" width="24" height="203" filterUnits="userSpaceOnUse" color-interpolation-filters="sRGB">
<feFlood flood-opacity="0" result="BackgroundImageFix"/>
<feBlend mode="normal" in="SourceGraphic" in2="BackgroundImageFix" result="shape"/>
<feColorMatrix in="SourceAlpha" type="matrix" values="0 0 0 0 0 0 0 0 0 0 0 0 0 0 0 0 0 0 127 0" result="hardAlpha"/>
<feOffset dx="-56"/>
<feComposite in2="hardAlpha" operator="arithmetic" k2="-1" k3="1"/>
<feColorMatrix type="matrix" values="0 0 0 0 1 0 0 0 0 1 0 0 0 0 1 0 0 0 0.25 0"/>
<feBlend mode="normal" in2="shape" result="effect1_innerShadow_4_36882"/>
</filter>
<filter id="filter6_i_4_36882" x="200.001" y="104" width="24" height="143" filterUnits="userSpaceOnUse" color-interpolation-filters="sRGB">
<feFlood flood-opacity="0" result="BackgroundImageFix"/>
<feBlend mode="normal" in="SourceGraphic" in2="BackgroundImageFix" result="shape"/>
<feColorMatrix in="SourceAlpha" type="matrix" values="0 0 0 0 0 0 0 0 0 0 0 0 0 0 0 0 0 0 127 0" result="hardAlpha"/>
<feOffset dx="-56"/>
<feComposite in2="hardAlpha" operator="arithmetic" k2="-1" k3="1"/>
<feColorMatrix type="matrix" values="0 0 0 0 1 0 0 0 0 1 0 0 0 0 1 0 0 0 0.25 0"/>
<feBlend mode="normal" in2="shape" result="effect1_innerShadow_4_36882"/>
</filter>
<filter id="filter7_i_4_36882" x="8.00098" y="339" width="24" height="64" filterUnits="userSpaceOnUse" color-interpolation-filters="sRGB">
<feFlood flood-opacity="0" result="BackgroundImageFix"/>
<feBlend mode="normal" in="SourceGraphic" in2="BackgroundImageFix" result="shape"/>
<feColorMatrix in="SourceAlpha" type="matrix" values="0 0 0 0 0 0 0 0 0 0 0 0 0 0 0 0 0 0 127 0" result="hardAlpha"/>
<feOffset dx="-56"/>
<feComposite in2="hardAlpha" operator="arithmetic" k2="-1" k3="1"/>
<feColorMatrix type="matrix" values="0 0 0 0 0 0 0 0 0 0 0 0 0 0 0 0 0 0 0.1 0"/>
<feBlend mode="normal" in2="shape" result="effect1_innerShadow_4_36882"/>
</filter>
<filter id="filter8_i_4_36882" x="200.001" y="339" width="24" height="64" filterUnits="userSpaceOnUse" color-interpolation-filters="sRGB">
<feFlood flood-opacity="0" result="BackgroundImageFix"/>
<feBlend mode="normal" in="SourceGraphic" in2="BackgroundImageFix" result="shape"/>
<feColorMatrix in="SourceAlpha" type="matrix" values="0 0 0 0 0 0 0 0 0 0 0 0 0 0 0 0 0 0 127 0" result="hardAlpha"/>
<feOffset dx="-56"/>
<feComposite in2="hardAlpha" operator="arithmetic" k2="-1" k3="1"/>
<feColorMatrix type="matrix" values="0 0 0 0 1 0 0 0 0 1 0 0 0 0 1 0 0 0 0.25 0"/>
<feBlend mode="normal" in2="shape" result="effect1_innerShadow_4_36882"/>
</filter>
<filter id="filter9_i_4_36882" x="8.00098" y="228" width="24" height="143" filterUnits="userSpaceOnUse" color-interpolation-filters="sRGB">
<feFlood flood-opacity="0" result="BackgroundImageFix"/>
<feBlend mode="normal" in="SourceGraphic" in2="BackgroundImageFix" result="shape"/>
<feColorMatrix in="SourceAlpha" type="matrix" values="0 0 0 0 0 0 0 0 0 0 0 0 0 0 0 0 0 0 127 0" result="hardAlpha"/>
<feOffset dx="-56"/>
<feComposite in2="hardAlpha" operator="arithmetic" k2="-1" k3="1"/>
<feColorMatrix type="matrix" values="0 0 0 0 0 0 0 0 0 0 0 0 0 0 0 0 0 0 0.1 0"/>
<feBlend mode="normal" in2="shape" result="effect1_innerShadow_4_36882"/>
</filter>
<filter id="filter10_i_4_36882" x="8.00098" y="136" width="24" height="203" filterUnits="userSpaceOnUse" color-interpolation-filters="sRGB">
<feFlood flood-opacity="0" result="BackgroundImageFix"/>
<feBlend mode="normal" in="SourceGraphic" in2="BackgroundImageFix" result="shape"/>
<feColorMatrix in="SourceAlpha" type="matrix" values="0 0 0 0 0 0 0 0 0 0 0 0 0 0 0 0 0 0 127 0" result="hardAlpha"/>
<feOffset dx="-56"/>
<feComposite in2="hardAlpha" operator="arithmetic" k2="-1" k3="1"/>
<feColorMatrix type="matrix" values="0 0 0 0 0 0 0 0 0 0 0 0 0 0 0 0 0 0 0.1 0"/>
<feBlend mode="normal" in2="shape" result="effect1_innerShadow_4_36882"/>
</filter>
<filter id="filter11_i_4_36882" x="8.00098" y="104" width="24" height="143" filterUnits="userSpaceOnUse" color-interpolation-filters="sRGB">
<feFlood flood-opacity="0" result="BackgroundImageFix"/>
<feBlend mode="normal" in="SourceGraphic" in2="BackgroundImageFix" result="shape"/>
<feColorMatrix in="SourceAlpha" type="matrix" values="0 0 0 0 0 0 0 0 0 0 0 0 0 0 0 0 0 0 127 0" result="hardAlpha"/>
<feOffset dx="-56"/>
<feComposite in2="hardAlpha" operator="arithmetic" k2="-1" k3="1"/>
<feColorMatrix type="matrix" values="0 0 0 0 0 0 0 0 0 0 0 0 0 0 0 0 0 0 0.1 0"/>
<feBlend mode="normal" in2="shape" result="effect1_innerShadow_4_36882"/>
</filter>
<filter id="filter12_i_4_36882" x="200.001" y="247" width="17" height="111" filterUnits="userSpaceOnUse" color-interpolation-filters="sRGB">
<feFlood flood-opacity="0" result="BackgroundImageFix"/>
<feBlend mode="normal" in="SourceGraphic" in2="BackgroundImageFix" result="shape"/>
<feColorMatrix in="SourceAlpha" type="matrix" values="0 0 0 0 0 0 0 0 0 0 0 0 0 0 0 0 0 0 127 0" result="hardAlpha"/>
<feOffset dx="-56"/>
<feComposite in2="hardAlpha" operator="arithmetic" k2="-1" k3="1"/>
<feColorMatrix type="matrix" values="0 0 0 0 1 0 0 0 0 1 0 0 0 0 1 0 0 0 0.25 0"/>
<feBlend mode="normal" in2="shape" result="effect1_innerShadow_4_36882"/>
</filter>
<filter id="filter13_i_4_36882" x="15.001" y="251" width="17" height="106" filterUnits="userSpaceOnUse" color-interpolation-filters="sRGB">
<feFlood flood-opacity="0" result="BackgroundImageFix"/>
<feBlend mode="normal" in="SourceGraphic" in2="BackgroundImageFix" result="shape"/>
<feColorMatrix in="SourceAlpha" type="matrix" values="0 0 0 0 0 0 0 0 0 0 0 0 0 0 0 0 0 0 127 0" result="hardAlpha"/>
<feOffset dx="-56"/>
<feComposite in2="hardAlpha" operator="arithmetic" k2="-1" k3="1"/>
<feColorMatrix type="matrix" values="0 0 0 0 0 0 0 0 0 0 0 0 0 0 0 0 0 0 0.1 0"/>
<feBlend mode="normal" in2="shape" result="effect1_innerShadow_4_36882"/>
</filter>
<filter id="filter14_i_4_36882" x="200.001" y="235" width="24" height="64" filterUnits="userSpaceOnUse" color-interpolation-filters="sRGB">
<feFlood flood-opacity="0" result="BackgroundImageFix"/>
<feBlend mode="normal" in="SourceGraphic" in2="BackgroundImageFix" result="shape"/>
<feColorMatrix in="SourceAlpha" type="matrix" values="0 0 0 0 0 0 0 0 0 0 0 0 0 0 0 0 0 0 127 0" result="hardAlpha"/>
<feOffset dy="36"/>
<feComposite in2="hardAlpha" operator="arithmetic" k2="-1" k3="1"/>
<feColorMatrix type="matrix" values="0 0 0 0 0 0 0 0 0 0 0 0 0 0 0 0 0 0 0.05 0"/>
<feBlend mode="normal" in2="shape" result="effect1_innerShadow_4_36882"/>
</filter>
<filter id="filter15_d_4_36882" x="32.001" y="266" width="168" height="37" filterUnits="userSpaceOnUse" color-interpolation-filters="sRGB">
<feFlood flood-opacity="0" result="BackgroundImageFix"/>
<feColorMatrix in="SourceAlpha" type="matrix" values="0 0 0 0 0 0 0 0 0 0 0 0 0 0 0 0 0 0 127 0" result="hardAlpha"/>
<feOffset dy="4"/>
<feComposite in2="hardAlpha" operator="out"/>
<feColorMatrix type="matrix" values="0 0 0 0 0 0 0 0 0 0 0 0 0 0 0 0 0 0 0.25 0"/>
<feBlend mode="normal" in2="BackgroundImageFix" result="effect1_dropShadow_4_36882"/>
<feBlend mode="normal" in="SourceGraphic" in2="effect1_dropShadow_4_36882" result="shape"/>
</filter>
<filter id="filter16_i_4_36882" x="8.00098" y="235" width="24" height="64" filterUnits="userSpaceOnUse" color-interpolation-filters="sRGB">
<feFlood flood-opacity="0" result="BackgroundImageFix"/>
<feBlend mode="normal" in="SourceGraphic" in2="BackgroundImageFix" result="shape"/>
<feColorMatrix in="SourceAlpha" type="matrix" values="0 0 0 0 0 0 0 0 0 0 0 0 0 0 0 0 0 0 127 0" result="hardAlpha"/>
<feOffset dy="36"/>
<feComposite in2="hardAlpha" operator="arithmetic" k2="-1" k3="1"/>
<feColorMatrix type="matrix" values="0 0 0 0 0 0 0 0 0 0 0 0 0 0 0 0 0 0 0.25 0"/>
<feBlend mode="normal" in2="shape" result="effect1_innerShadow_4_36882"/>
</filter>
<filter id="filter17_i_4_36882" x="8.00098" y="124" width="24" height="143" filterUnits="userSpaceOnUse" color-interpolation-filters="sRGB">
<feFlood flood-opacity="0" result="BackgroundImageFix"/>
<feBlend mode="normal" in="SourceGraphic" in2="BackgroundImageFix" result="shape"/>
<feColorMatrix in="SourceAlpha" type="matrix" values="0 0 0 0 0 0 0 0 0 0 0 0 0 0 0 0 0 0 127 0" result="hardAlpha"/>
<feOffset dx="-56"/>
<feComposite in2="hardAlpha" operator="arithmetic" k2="-1" k3="1"/>
<feColorMatrix type="matrix" values="0 0 0 0 0 0 0 0 0 0 0 0 0 0 0 0 0 0 0.1 0"/>
<feBlend mode="normal" in2="shape" result="effect1_innerShadow_4_36882"/>
</filter>
<filter id="filter18_i_4_36882" x="8.00098" y="32" width="24" height="203" filterUnits="userSpaceOnUse" color-interpolation-filters="sRGB">
<feFlood flood-opacity="0" result="BackgroundImageFix"/>
<feBlend mode="normal" in="SourceGraphic" in2="BackgroundImageFix" result="shape"/>
<feColorMatrix in="SourceAlpha" type="matrix" values="0 0 0 0 0 0 0 0 0 0 0 0 0 0 0 0 0 0 127 0" result="hardAlpha"/>
<feOffset dx="-56"/>
<feComposite in2="hardAlpha" operator="arithmetic" k2="-1" k3="1"/>
<feColorMatrix type="matrix" values="0 0 0 0 0 0 0 0 0 0 0 0 0 0 0 0 0 0 0.1 0"/>
<feBlend mode="normal" in2="shape" result="effect1_innerShadow_4_36882"/>
</filter>
<filter id="filter19_i_4_36882" x="8.00098" y="0" width="24" height="143" filterUnits="userSpaceOnUse" color-interpolation-filters="sRGB">
<feFlood flood-opacity="0" result="BackgroundImageFix"/>
<feBlend mode="normal" in="SourceGraphic" in2="BackgroundImageFix" result="shape"/>
<feColorMatrix in="SourceAlpha" type="matrix" values="0 0 0 0 0 0 0 0 0 0 0 0 0 0 0 0 0 0 127 0" result="hardAlpha"/>
<feOffset dx="-56"/>
<feComposite in2="hardAlpha" operator="arithmetic" k2="-1" k3="1"/>
<feColorMatrix type="matrix" values="0 0 0 0 0 0 0 0 0 0 0 0 0 0 0 0 0 0 0.1 0"/>
<feBlend mode="normal" in2="shape" result="effect1_innerShadow_4_36882"/>
</filter>
<filter id="filter20_i_4_36882" x="77" y="12" width="79" height="236" filterUnits="userSpaceOnUse" color-interpolation-filters="sRGB">
<feFlood flood-opacity="0" result="BackgroundImageFix"/>
<feBlend mode="normal" in="SourceGraphic" in2="BackgroundImageFix" result="shape"/>
<feColorMatrix in="SourceAlpha" type="matrix" values="0 0 0 0 0 0 0 0 0 0 0 0 0 0 0 0 0 0 127 0" result="hardAlpha"/>
<feOffset dy="8"/>
<feComposite in2="hardAlpha" operator="arithmetic" k2="-1" k3="1"/>
<feColorMatrix type="matrix" values="0 0 0 0 0 0 0 0 0 0 0 0 0 0 0 0 0 0 0.15 0"/>
<feBlend mode="normal" in2="shape" result="effect1_innerShadow_4_36882"/>
</filter>
<filter id="filter21_i_4_36882" x="175.001" y="101" width="12" height="59" filterUnits="userSpaceOnUse" color-interpolation-filters="sRGB">
<feFlood flood-opacity="0" result="BackgroundImageFix"/>
<feBlend mode="normal" in="SourceGraphic" in2="BackgroundImageFix" result="shape"/>
<feColorMatrix in="SourceAlpha" type="matrix" values="0 0 0 0 0 0 0 0 0 0 0 0 0 0 0 0 0 0 127 0" result="hardAlpha"/>
<feOffset dy="-6"/>
<feComposite in2="hardAlpha" operator="arithmetic" k2="-1" k3="1"/>
<feColorMatrix type="matrix" values="0 0 0 0 0 0 0 0 0 0 0 0 0 0 0 0 0 0 0.25 0"/>
<feBlend mode="normal" in2="shape" result="effect1_innerShadow_4_36882"/>
</filter>
<filter id="filter22_i_4_36882" x="45.001" y="101" width="12" height="59" filterUnits="userSpaceOnUse" color-interpolation-filters="sRGB">
<feFlood flood-opacity="0" result="BackgroundImageFix"/>
<feBlend mode="normal" in="SourceGraphic" in2="BackgroundImageFix" result="shape"/>
<feColorMatrix in="SourceAlpha" type="matrix" values="0 0 0 0 0 0 0 0 0 0 0 0 0 0 0 0 0 0 127 0" result="hardAlpha"/>
<feOffset dy="-6"/>
<feComposite in2="hardAlpha" operator="arithmetic" k2="-1" k3="1"/>
<feColorMatrix type="matrix" values="0 0 0 0 0 0 0 0 0 0 0 0 0 0 0 0 0 0 0.25 0"/>
<feBlend mode="normal" in2="shape" result="effect1_innerShadow_4_36882"/>
</filter>
<filter id="filter23_i_4_36882" x="200.001" y="124" width="24" height="143" filterUnits="userSpaceOnUse" color-interpolation-filters="sRGB">
<feFlood flood-opacity="0" result="BackgroundImageFix"/>
<feBlend mode="normal" in="SourceGraphic" in2="BackgroundImageFix" result="shape"/>
<feColorMatrix in="SourceAlpha" type="matrix" values="0 0 0 0 0 0 0 0 0 0 0 0 0 0 0 0 0 0 127 0" result="hardAlpha"/>
<feOffset dx="-56"/>
<feComposite in2="hardAlpha" operator="arithmetic" k2="-1" k3="1"/>
<feColorMatrix type="matrix" values="0 0 0 0 1 0 0 0 0 1 0 0 0 0 1 0 0 0 0.25 0"/>
<feBlend mode="normal" in2="shape" result="effect1_innerShadow_4_36882"/>
</filter>
<filter id="filter24_i_4_36882" x="200.001" y="32" width="24" height="203" filterUnits="userSpaceOnUse" color-interpolation-filters="sRGB">
<feFlood flood-opacity="0" result="BackgroundImageFix"/>
<feBlend mode="normal" in="SourceGraphic" in2="BackgroundImageFix" result="shape"/>
<feColorMatrix in="SourceAlpha" type="matrix" values="0 0 0 0 0 0 0 0 0 0 0 0 0 0 0 0 0 0 127 0" result="hardAlpha"/>
<feOffset dx="-56"/>
<feComposite in2="hardAlpha" operator="arithmetic" k2="-1" k3="1"/>
<feColorMatrix type="matrix" values="0 0 0 0 1 0 0 0 0 1 0 0 0 0 1 0 0 0 0.25 0"/>
<feBlend mode="normal" in2="shape" result="effect1_innerShadow_4_36882"/>
</filter>
<filter id="filter25_i_4_36882" x="200.001" y="0" width="24" height="143" filterUnits="userSpaceOnUse" color-interpolation-filters="sRGB">
<feFlood flood-opacity="0" result="BackgroundImageFix"/>
<feBlend mode="normal" in="SourceGraphic" in2="BackgroundImageFix" result="shape"/>
<feColorMatrix in="SourceAlpha" type="matrix" values="0 0 0 0 0 0 0 0 0 0 0 0 0 0 0 0 0 0 127 0" result="hardAlpha"/>
<feOffset dx="-56"/>
<feComposite in2="hardAlpha" operator="arithmetic" k2="-1" k3="1"/>
<feColorMatrix type="matrix" values="0 0 0 0 1 0 0 0 0 1 0 0 0 0 1 0 0 0 0.25 0"/>
<feBlend mode="normal" in2="shape" result="effect1_innerShadow_4_36882"/>
</filter>
</defs>
</svg>
