<svg width="232" height="350" viewBox="0 0 232 350" fill="none" xmlns="http://www.w3.org/2000/svg">
<rect x="26" y="215" width="180" height="135" fill="black" fill-opacity="0.12"/>
<mask id="mask0_4_36881" style="mask-type:alpha" maskUnits="userSpaceOnUse" x="0" y="315" width="32" height="35">
<path d="M32 350H0V315H32V350Z" fill="#C4C4C4"/>
</mask>
<g mask="url(#mask0_4_36881)">
<path d="M0 315L26 350V236H0V315Z" fill="black" fill-opacity="0.12"/>
</g>
<path d="M27 177H0V315H27V177Z" fill="black" fill-opacity="0.12"/>
<mask id="mask1_4_36881" style="mask-type:alpha" maskUnits="userSpaceOnUse" x="0" y="145" width="24" height="32">
<rect width="24" height="32" transform="matrix(-1 0 0 1 24 145)" fill="#C4C4C4"/>
</mask>
<g mask="url(#mask1_4_36881)">
<path d="M0 177L24 145V288L0 256V177Z" fill="black" fill-opacity="0.12"/>
</g>
<mask id="mask2_4_36881" style="mask-type:alpha" maskUnits="userSpaceOnUse" x="200" y="315" width="32" height="35">
<path d="M200 350H232V315H200V350Z" fill="#C4C4C4"/>
</mask>
<g mask="url(#mask2_4_36881)">
<path d="M232 315L206 350V236H232V315Z" fill="black" fill-opacity="0.12"/>
</g>
<path d="M205 177H232V315H205V177Z" fill="black" fill-opacity="0.12"/>
<mask id="mask3_4_36881" style="mask-type:alpha" maskUnits="userSpaceOnUse" x="208" y="145" width="24" height="32">
<rect x="208" y="145" width="24" height="32" fill="#C4C4C4"/>
</mask>
<g mask="url(#mask3_4_36881)">
<path d="M232 177L208 145V288L232 256V177Z" fill="black" fill-opacity="0.12"/>
</g>
<rect x="30.5859" y="216.2" width="170.827" height="127.8" fill="black" fill-opacity="0.2"/>
<mask id="mask4_4_36881" style="mask-type:alpha" maskUnits="userSpaceOnUse" x="5" y="310" width="32" height="34">
<path d="M36.2656 344H5.97229V310.867H36.2656V344Z" fill="#C4C4C4"/>
</mask>
<g mask="url(#mask4_4_36881)">
<path d="M5.97266 310.867L30.586 344V236.08H5.97266V310.867Z" fill="black" fill-opacity="0.2"/>
</g>
<path d="M31.5322 177.293H5.97223V310.867H31.5322V177.293Z" fill="black" fill-opacity="0.2"/>
<mask id="mask5_4_36881" style="mask-type:alpha" maskUnits="userSpaceOnUse" x="5" y="147" width="24" height="31">
<rect width="22.72" height="30.2933" transform="matrix(-1 0 0 1 28.6924 147)" fill="#C4C4C4"/>
</mask>
<g mask="url(#mask5_4_36881)">
<path d="M5.97266 177.293L28.6927 147V282.373L5.97266 252.08V177.293Z" fill="black" fill-opacity="0.2"/>
</g>
<mask id="mask6_4_36881" style="mask-type:alpha" maskUnits="userSpaceOnUse" x="195" y="310" width="32" height="34">
<path d="M195.732 344H226.026V310.867H195.732V344Z" fill="#C4C4C4"/>
</mask>
<g mask="url(#mask6_4_36881)">
<path d="M226.025 310.867L201.412 344V236.08H226.025V310.867Z" fill="black" fill-opacity="0.2"/>
</g>
<path d="M200.466 177.293H226.026V310.867H200.466V177.293Z" fill="black" fill-opacity="0.2"/>
<mask id="mask7_4_36881" style="mask-type:alpha" maskUnits="userSpaceOnUse" x="203" y="147" width="24" height="31">
<rect x="203.306" y="147" width="22.72" height="30.2933" fill="#C4C4C4"/>
</mask>
<g mask="url(#mask7_4_36881)">
<path d="M226.025 177.293L203.305 147V282.373L226.025 252.08V177.293Z" fill="black" fill-opacity="0.2"/>
</g>
<path d="M32 215H200V302H32V215Z" fill="#475569"/>
<g filter="url(#filter0_ii_4_36881)">
<rect x="69.999" y="249" width="19.7143" height="46" rx="9.85714" fill="black" fill-opacity="0.2"/>
</g>
<g filter="url(#filter1_ii_4_36881)">
<rect x="94.0947" y="249" width="19.7143" height="46" rx="9.85714" fill="black" fill-opacity="0.2"/>
</g>
<g filter="url(#filter2_ii_4_36881)">
<rect x="118.189" y="249" width="19.7143" height="46" rx="9.85714" fill="black" fill-opacity="0.2"/>
</g>
<g filter="url(#filter3_ii_4_36881)">
<rect x="142.285" y="249" width="19.7143" height="46" rx="9.85714" fill="black" fill-opacity="0.2"/>
</g>
<mask id="mask8_4_36881" style="mask-type:alpha" maskUnits="userSpaceOnUse" x="200" y="278" width="25" height="32">
<rect width="24" height="32" transform="matrix(1 0 0 -1 200.001 310)" fill="#C4C4C4"/>
</mask>
<g mask="url(#mask8_4_36881)">
<g filter="url(#filter4_i_4_36881)">
<path d="M224.001 278L200.001 310V167L224.001 199V278Z" fill="#F5F5F4"/>
</g>
</g>
<g filter="url(#filter5_i_4_36881)">
<rect x="200.001" y="136" width="24" height="142" fill="#F5F5F4"/>
</g>
<mask id="mask9_4_36881" style="mask-type:alpha" maskUnits="userSpaceOnUse" x="200" y="104" width="25" height="32">
<rect x="200.001" y="104" width="24" height="32" fill="#C4C4C4"/>
</mask>
<g mask="url(#mask9_4_36881)">
<g filter="url(#filter6_i_4_36881)">
<path d="M224.001 136L200.001 104V247L224.001 215V136Z" fill="#F5F5F4"/>
</g>
</g>
<rect x="32.001" y="310" width="168" height="32" fill="#E7E5E4"/>
<rect x="32.001" y="302" width="168" height="8" fill="#F5F5F4"/>
<g filter="url(#filter7_i_4_36881)">
<path d="M8.00098 278L32.001 310V342L8.00098 310V278Z" fill="#E7E5E4"/>
</g>
<g filter="url(#filter8_i_4_36881)">
<path d="M224.001 278L200.001 310V342L224.001 310V278Z" fill="#E7E5E4"/>
</g>
<mask id="mask10_4_36881" style="mask-type:alpha" maskUnits="userSpaceOnUse" x="8" y="278" width="25" height="32">
<rect x="32.001" y="310" width="24" height="32" transform="rotate(180 32.001 310)" fill="#C4C4C4"/>
</mask>
<g mask="url(#mask10_4_36881)">
<g filter="url(#filter9_i_4_36881)">
<path d="M8.00098 278L32.001 310V167L8.00098 199V278Z" fill="#F5F5F4"/>
</g>
</g>
<g filter="url(#filter10_i_4_36881)">
<rect width="24" height="142" transform="matrix(-1 0 0 1 32.001 136)" fill="#F5F5F4"/>
</g>
<mask id="mask11_4_36881" style="mask-type:alpha" maskUnits="userSpaceOnUse" x="8" y="104" width="25" height="32">
<rect width="24" height="32" transform="matrix(-1 0 0 1 32.001 104)" fill="#C4C4C4"/>
</mask>
<g mask="url(#mask11_4_36881)">
<g filter="url(#filter11_i_4_36881)">
<path d="M8.00098 136L32.001 104V247L8.00098 215V136Z" fill="#F5F5F4"/>
</g>
</g>
<g filter="url(#filter12_i_4_36881)">
<path d="M217.001 186L200.001 211.314V297L217.001 273.641V186Z" fill="#475569"/>
</g>
<g filter="url(#filter13_i_4_36881)">
<path d="M15.001 190L32.001 215.42V296L15.001 273.581V190Z" fill="#475569"/>
</g>
<path d="M32.001 94H54.001V310H32.001V94Z" fill="#E7E5E4"/>
<path d="M178.001 94H200.001V310H178.001V94Z" fill="#E7E5E4"/>
<g filter="url(#filter14_i_4_36881)">
<path d="M224.001 174L200.001 206V238L224.001 206V174Z" fill="#FAFAF9"/>
</g>
<g filter="url(#filter15_d_4_36881)">
<path d="M32.001 205H200.001V238H32.001V205Z" fill="#E7E5E4"/>
</g>
<g filter="url(#filter16_i_4_36881)">
<path d="M8.00098 174L32.001 206V238L8.00098 206V174Z" fill="#FAFAF9"/>
</g>
<path d="M32.001 0H200.001V206H32.001V0Z" fill="#F5F5F4"/>
<mask id="mask12_4_36881" style="mask-type:alpha" maskUnits="userSpaceOnUse" x="8" y="174" width="25" height="32">
<rect x="32.001" y="206" width="24" height="32" transform="rotate(180 32.001 206)" fill="#C4C4C4"/>
</mask>
<g mask="url(#mask12_4_36881)">
<g filter="url(#filter17_i_4_36881)">
<path d="M8.00098 174L32.001 206V63L8.00098 95V174Z" fill="#F5F5F4"/>
</g>
</g>
<g filter="url(#filter18_i_4_36881)">
<rect width="24" height="142" transform="matrix(-1 0 0 1 32.001 32)" fill="#F5F5F4"/>
</g>
<mask id="mask13_4_36881" style="mask-type:alpha" maskUnits="userSpaceOnUse" x="8" y="0" width="25" height="32">
<rect width="24" height="32" transform="matrix(-1 0 0 1 32.001 0)" fill="#C4C4C4"/>
</mask>
<g mask="url(#mask13_4_36881)">
<g filter="url(#filter19_i_4_36881)">
<path d="M8.00098 32L32.001 0V143L8.00098 111V32Z" fill="#F5F5F4"/>
</g>
</g>
<g filter="url(#filter20_i_4_36881)">
<path d="M77 20C77 15.5817 80.5817 12 85 12H105.297C109.716 12 113.297 15.5817 113.297 20V179C113.297 183.418 109.716 187 105.297 187H85C80.5817 187 77 183.418 77 179L77 20Z" fill="#E7E5E4"/>
<path d="M119.703 20C119.703 15.5817 123.284 12 127.703 12H148C152.418 12 156 15.5817 156 20V179C156 183.418 152.418 187 148 187H127.703C123.284 187 119.703 183.418 119.703 179V20Z" fill="#E7E5E4"/>
</g>
<path d="M170.001 58C170.001 56.8954 170.896 56 172.001 56H190.001C191.106 56 192.001 56.8954 192.001 58V79C192.001 80.1046 191.106 81 190.001 81H172.001C170.896 81 170.001 80.1046 170.001 79V58Z" fill="#64748B"/>
<path d="M170.001 66H192.001V82H170.001V66Z" fill="#475569"/>
<g filter="url(#filter21_i_4_36881)">
<rect x="175.001" y="70" width="12" height="59" fill="#A6B4C8"/>
</g>
<path d="M170.001 110C170.001 108.895 170.896 108 172.001 108H190.001C191.106 108 192.001 108.895 192.001 110V131C192.001 132.105 191.106 133 190.001 133H172.001C170.896 133 170.001 132.105 170.001 131V110Z" fill="#64748B"/>
<path d="M170.001 118H192.001V134H170.001V118Z" fill="#475569"/>
<path d="M40.001 58C40.001 56.8954 40.8964 56 42.001 56H60.001C61.1055 56 62.001 56.8954 62.001 58V79C62.001 80.1046 61.1055 81 60.001 81H42.001C40.8964 81 40.001 80.1046 40.001 79V58Z" fill="#64748B"/>
<path d="M40.001 66H62.001V82H40.001V66Z" fill="#475569"/>
<g filter="url(#filter22_i_4_36881)">
<rect x="45.001" y="70" width="12" height="59" fill="#A6B4C8"/>
</g>
<path d="M40.001 110C40.001 108.895 40.8964 108 42.001 108H60.001C61.1055 108 62.001 108.895 62.001 110V131C62.001 132.105 61.1055 133 60.001 133H42.001C40.8964 133 40.001 132.105 40.001 131V110Z" fill="#64748B"/>
<path d="M40.001 118H62.001V134H40.001V118Z" fill="#475569"/>
<mask id="mask14_4_36881" style="mask-type:alpha" maskUnits="userSpaceOnUse" x="200" y="174" width="25" height="32">
<rect width="24" height="32" transform="matrix(1 0 0 -1 200.001 206)" fill="#C4C4C4"/>
</mask>
<g mask="url(#mask14_4_36881)">
<g filter="url(#filter23_i_4_36881)">
<path d="M224.001 174L200.001 206V63L224.001 95V174Z" fill="#F5F5F4"/>
</g>
</g>
<g filter="url(#filter24_i_4_36881)">
<rect x="200.001" y="32" width="24" height="142" fill="#F5F5F4"/>
</g>
<mask id="mask15_4_36881" style="mask-type:alpha" maskUnits="userSpaceOnUse" x="200" y="0" width="25" height="32">
<rect x="200.001" width="24" height="32" fill="#C4C4C4"/>
</mask>
<g mask="url(#mask15_4_36881)">
<g filter="url(#filter25_i_4_36881)">
<path d="M224.001 32L200.001 0V143L224.001 111V32Z" fill="#F5F5F4"/>
</g>
</g>
<defs>
<filter id="filter0_ii_4_36881" x="69.999" y="249" width="19.7139" height="48" filterUnits="userSpaceOnUse" color-interpolation-filters="sRGB">
<feFlood flood-opacity="0" result="BackgroundImageFix"/>
<feBlend mode="normal" in="SourceGraphic" in2="BackgroundImageFix" result="shape"/>
<feColorMatrix in="SourceAlpha" type="matrix" values="0 0 0 0 0 0 0 0 0 0 0 0 0 0 0 0 0 0 127 0" result="hardAlpha"/>
<feOffset dy="-4"/>
<feComposite in2="hardAlpha" operator="arithmetic" k2="-1" k3="1"/>
<feColorMatrix type="matrix" values="0 0 0 0 1 0 0 0 0 1 0 0 0 0 1 0 0 0 0.25 0"/>
<feBlend mode="normal" in2="shape" result="effect1_innerShadow_4_36881"/>
<feColorMatrix in="SourceAlpha" type="matrix" values="0 0 0 0 0 0 0 0 0 0 0 0 0 0 0 0 0 0 127 0" result="hardAlpha"/>
<feOffset dy="4"/>
<feGaussianBlur stdDeviation="1"/>
<feComposite in2="hardAlpha" operator="arithmetic" k2="-1" k3="1"/>
<feColorMatrix type="matrix" values="0 0 0 0 0 0 0 0 0 0 0 0 0 0 0 0 0 0 0.15 0"/>
<feBlend mode="normal" in2="effect1_innerShadow_4_36881" result="effect2_innerShadow_4_36881"/>
</filter>
<filter id="filter1_ii_4_36881" x="94.0947" y="249" width="19.7139" height="48" filterUnits="userSpaceOnUse" color-interpolation-filters="sRGB">
<feFlood flood-opacity="0" result="BackgroundImageFix"/>
<feBlend mode="normal" in="SourceGraphic" in2="BackgroundImageFix" result="shape"/>
<feColorMatrix in="SourceAlpha" type="matrix" values="0 0 0 0 0 0 0 0 0 0 0 0 0 0 0 0 0 0 127 0" result="hardAlpha"/>
<feOffset dy="-4"/>
<feComposite in2="hardAlpha" operator="arithmetic" k2="-1" k3="1"/>
<feColorMatrix type="matrix" values="0 0 0 0 1 0 0 0 0 1 0 0 0 0 1 0 0 0 0.25 0"/>
<feBlend mode="normal" in2="shape" result="effect1_innerShadow_4_36881"/>
<feColorMatrix in="SourceAlpha" type="matrix" values="0 0 0 0 0 0 0 0 0 0 0 0 0 0 0 0 0 0 127 0" result="hardAlpha"/>
<feOffset dy="4"/>
<feGaussianBlur stdDeviation="1"/>
<feComposite in2="hardAlpha" operator="arithmetic" k2="-1" k3="1"/>
<feColorMatrix type="matrix" values="0 0 0 0 0 0 0 0 0 0 0 0 0 0 0 0 0 0 0.15 0"/>
<feBlend mode="normal" in2="effect1_innerShadow_4_36881" result="effect2_innerShadow_4_36881"/>
</filter>
<filter id="filter2_ii_4_36881" x="118.189" y="249" width="19.7139" height="48" filterUnits="userSpaceOnUse" color-interpolation-filters="sRGB">
<feFlood flood-opacity="0" result="BackgroundImageFix"/>
<feBlend mode="normal" in="SourceGraphic" in2="BackgroundImageFix" result="shape"/>
<feColorMatrix in="SourceAlpha" type="matrix" values="0 0 0 0 0 0 0 0 0 0 0 0 0 0 0 0 0 0 127 0" result="hardAlpha"/>
<feOffset dy="-4"/>
<feComposite in2="hardAlpha" operator="arithmetic" k2="-1" k3="1"/>
<feColorMatrix type="matrix" values="0 0 0 0 1 0 0 0 0 1 0 0 0 0 1 0 0 0 0.25 0"/>
<feBlend mode="normal" in2="shape" result="effect1_innerShadow_4_36881"/>
<feColorMatrix in="SourceAlpha" type="matrix" values="0 0 0 0 0 0 0 0 0 0 0 0 0 0 0 0 0 0 127 0" result="hardAlpha"/>
<feOffset dy="4"/>
<feGaussianBlur stdDeviation="1"/>
<feComposite in2="hardAlpha" operator="arithmetic" k2="-1" k3="1"/>
<feColorMatrix type="matrix" values="0 0 0 0 0 0 0 0 0 0 0 0 0 0 0 0 0 0 0.15 0"/>
<feBlend mode="normal" in2="effect1_innerShadow_4_36881" result="effect2_innerShadow_4_36881"/>
</filter>
<filter id="filter3_ii_4_36881" x="142.285" y="249" width="19.7139" height="48" filterUnits="userSpaceOnUse" color-interpolation-filters="sRGB">
<feFlood flood-opacity="0" result="BackgroundImageFix"/>
<feBlend mode="normal" in="SourceGraphic" in2="BackgroundImageFix" result="shape"/>
<feColorMatrix in="SourceAlpha" type="matrix" values="0 0 0 0 0 0 0 0 0 0 0 0 0 0 0 0 0 0 127 0" result="hardAlpha"/>
<feOffset dy="-4"/>
<feComposite in2="hardAlpha" operator="arithmetic" k2="-1" k3="1"/>
<feColorMatrix type="matrix" values="0 0 0 0 1 0 0 0 0 1 0 0 0 0 1 0 0 0 0.25 0"/>
<feBlend mode="normal" in2="shape" result="effect1_innerShadow_4_36881"/>
<feColorMatrix in="SourceAlpha" type="matrix" values="0 0 0 0 0 0 0 0 0 0 0 0 0 0 0 0 0 0 127 0" result="hardAlpha"/>
<feOffset dy="4"/>
<feGaussianBlur stdDeviation="1"/>
<feComposite in2="hardAlpha" operator="arithmetic" k2="-1" k3="1"/>
<feColorMatrix type="matrix" values="0 0 0 0 0 0 0 0 0 0 0 0 0 0 0 0 0 0 0.15 0"/>
<feBlend mode="normal" in2="effect1_innerShadow_4_36881" result="effect2_innerShadow_4_36881"/>
</filter>
<filter id="filter4_i_4_36881" x="200.001" y="167" width="24" height="143" filterUnits="userSpaceOnUse" color-interpolation-filters="sRGB">
<feFlood flood-opacity="0" result="BackgroundImageFix"/>
<feBlend mode="normal" in="SourceGraphic" in2="BackgroundImageFix" result="shape"/>
<feColorMatrix in="SourceAlpha" type="matrix" values="0 0 0 0 0 0 0 0 0 0 0 0 0 0 0 0 0 0 127 0" result="hardAlpha"/>
<feOffset dx="-56"/>
<feComposite in2="hardAlpha" operator="arithmetic" k2="-1" k3="1"/>
<feColorMatrix type="matrix" values="0 0 0 0 1 0 0 0 0 1 0 0 0 0 1 0 0 0 0.25 0"/>
<feBlend mode="normal" in2="shape" result="effect1_innerShadow_4_36881"/>
</filter>
<filter id="filter5_i_4_36881" x="200.001" y="136" width="24" height="142" filterUnits="userSpaceOnUse" color-interpolation-filters="sRGB">
<feFlood flood-opacity="0" result="BackgroundImageFix"/>
<feBlend mode="normal" in="SourceGraphic" in2="BackgroundImageFix" result="shape"/>
<feColorMatrix in="SourceAlpha" type="matrix" values="0 0 0 0 0 0 0 0 0 0 0 0 0 0 0 0 0 0 127 0" result="hardAlpha"/>
<feOffset dx="-56"/>
<feComposite in2="hardAlpha" operator="arithmetic" k2="-1" k3="1"/>
<feColorMatrix type="matrix" values="0 0 0 0 1 0 0 0 0 1 0 0 0 0 1 0 0 0 0.25 0"/>
<feBlend mode="normal" in2="shape" result="effect1_innerShadow_4_36881"/>
</filter>
<filter id="filter6_i_4_36881" x="200.001" y="104" width="24" height="143" filterUnits="userSpaceOnUse" color-interpolation-filters="sRGB">
<feFlood flood-opacity="0" result="BackgroundImageFix"/>
<feBlend mode="normal" in="SourceGraphic" in2="BackgroundImageFix" result="shape"/>
<feColorMatrix in="SourceAlpha" type="matrix" values="0 0 0 0 0 0 0 0 0 0 0 0 0 0 0 0 0 0 127 0" result="hardAlpha"/>
<feOffset dx="-56"/>
<feComposite in2="hardAlpha" operator="arithmetic" k2="-1" k3="1"/>
<feColorMatrix type="matrix" values="0 0 0 0 1 0 0 0 0 1 0 0 0 0 1 0 0 0 0.25 0"/>
<feBlend mode="normal" in2="shape" result="effect1_innerShadow_4_36881"/>
</filter>
<filter id="filter7_i_4_36881" x="8.00098" y="278" width="24" height="64" filterUnits="userSpaceOnUse" color-interpolation-filters="sRGB">
<feFlood flood-opacity="0" result="BackgroundImageFix"/>
<feBlend mode="normal" in="SourceGraphic" in2="BackgroundImageFix" result="shape"/>
<feColorMatrix in="SourceAlpha" type="matrix" values="0 0 0 0 0 0 0 0 0 0 0 0 0 0 0 0 0 0 127 0" result="hardAlpha"/>
<feOffset dx="-56"/>
<feComposite in2="hardAlpha" operator="arithmetic" k2="-1" k3="1"/>
<feColorMatrix type="matrix" values="0 0 0 0 0 0 0 0 0 0 0 0 0 0 0 0 0 0 0.1 0"/>
<feBlend mode="normal" in2="shape" result="effect1_innerShadow_4_36881"/>
</filter>
<filter id="filter8_i_4_36881" x="200.001" y="278" width="24" height="64" filterUnits="userSpaceOnUse" color-interpolation-filters="sRGB">
<feFlood flood-opacity="0" result="BackgroundImageFix"/>
<feBlend mode="normal" in="SourceGraphic" in2="BackgroundImageFix" result="shape"/>
<feColorMatrix in="SourceAlpha" type="matrix" values="0 0 0 0 0 0 0 0 0 0 0 0 0 0 0 0 0 0 127 0" result="hardAlpha"/>
<feOffset dx="-56"/>
<feComposite in2="hardAlpha" operator="arithmetic" k2="-1" k3="1"/>
<feColorMatrix type="matrix" values="0 0 0 0 1 0 0 0 0 1 0 0 0 0 1 0 0 0 0.25 0"/>
<feBlend mode="normal" in2="shape" result="effect1_innerShadow_4_36881"/>
</filter>
<filter id="filter9_i_4_36881" x="8.00098" y="167" width="24" height="143" filterUnits="userSpaceOnUse" color-interpolation-filters="sRGB">
<feFlood flood-opacity="0" result="BackgroundImageFix"/>
<feBlend mode="normal" in="SourceGraphic" in2="BackgroundImageFix" result="shape"/>
<feColorMatrix in="SourceAlpha" type="matrix" values="0 0 0 0 0 0 0 0 0 0 0 0 0 0 0 0 0 0 127 0" result="hardAlpha"/>
<feOffset dx="-56"/>
<feComposite in2="hardAlpha" operator="arithmetic" k2="-1" k3="1"/>
<feColorMatrix type="matrix" values="0 0 0 0 0 0 0 0 0 0 0 0 0 0 0 0 0 0 0.1 0"/>
<feBlend mode="normal" in2="shape" result="effect1_innerShadow_4_36881"/>
</filter>
<filter id="filter10_i_4_36881" x="8.00098" y="136" width="24" height="142" filterUnits="userSpaceOnUse" color-interpolation-filters="sRGB">
<feFlood flood-opacity="0" result="BackgroundImageFix"/>
<feBlend mode="normal" in="SourceGraphic" in2="BackgroundImageFix" result="shape"/>
<feColorMatrix in="SourceAlpha" type="matrix" values="0 0 0 0 0 0 0 0 0 0 0 0 0 0 0 0 0 0 127 0" result="hardAlpha"/>
<feOffset dx="-56"/>
<feComposite in2="hardAlpha" operator="arithmetic" k2="-1" k3="1"/>
<feColorMatrix type="matrix" values="0 0 0 0 0 0 0 0 0 0 0 0 0 0 0 0 0 0 0.1 0"/>
<feBlend mode="normal" in2="shape" result="effect1_innerShadow_4_36881"/>
</filter>
<filter id="filter11_i_4_36881" x="8.00098" y="104" width="24" height="143" filterUnits="userSpaceOnUse" color-interpolation-filters="sRGB">
<feFlood flood-opacity="0" result="BackgroundImageFix"/>
<feBlend mode="normal" in="SourceGraphic" in2="BackgroundImageFix" result="shape"/>
<feColorMatrix in="SourceAlpha" type="matrix" values="0 0 0 0 0 0 0 0 0 0 0 0 0 0 0 0 0 0 127 0" result="hardAlpha"/>
<feOffset dx="-56"/>
<feComposite in2="hardAlpha" operator="arithmetic" k2="-1" k3="1"/>
<feColorMatrix type="matrix" values="0 0 0 0 0 0 0 0 0 0 0 0 0 0 0 0 0 0 0.1 0"/>
<feBlend mode="normal" in2="shape" result="effect1_innerShadow_4_36881"/>
</filter>
<filter id="filter12_i_4_36881" x="200.001" y="186" width="17" height="111" filterUnits="userSpaceOnUse" color-interpolation-filters="sRGB">
<feFlood flood-opacity="0" result="BackgroundImageFix"/>
<feBlend mode="normal" in="SourceGraphic" in2="BackgroundImageFix" result="shape"/>
<feColorMatrix in="SourceAlpha" type="matrix" values="0 0 0 0 0 0 0 0 0 0 0 0 0 0 0 0 0 0 127 0" result="hardAlpha"/>
<feOffset dx="-56"/>
<feComposite in2="hardAlpha" operator="arithmetic" k2="-1" k3="1"/>
<feColorMatrix type="matrix" values="0 0 0 0 1 0 0 0 0 1 0 0 0 0 1 0 0 0 0.25 0"/>
<feBlend mode="normal" in2="shape" result="effect1_innerShadow_4_36881"/>
</filter>
<filter id="filter13_i_4_36881" x="15.001" y="190" width="17" height="106" filterUnits="userSpaceOnUse" color-interpolation-filters="sRGB">
<feFlood flood-opacity="0" result="BackgroundImageFix"/>
<feBlend mode="normal" in="SourceGraphic" in2="BackgroundImageFix" result="shape"/>
<feColorMatrix in="SourceAlpha" type="matrix" values="0 0 0 0 0 0 0 0 0 0 0 0 0 0 0 0 0 0 127 0" result="hardAlpha"/>
<feOffset dx="-56"/>
<feComposite in2="hardAlpha" operator="arithmetic" k2="-1" k3="1"/>
<feColorMatrix type="matrix" values="0 0 0 0 0 0 0 0 0 0 0 0 0 0 0 0 0 0 0.1 0"/>
<feBlend mode="normal" in2="shape" result="effect1_innerShadow_4_36881"/>
</filter>
<filter id="filter14_i_4_36881" x="200.001" y="174" width="24" height="64" filterUnits="userSpaceOnUse" color-interpolation-filters="sRGB">
<feFlood flood-opacity="0" result="BackgroundImageFix"/>
<feBlend mode="normal" in="SourceGraphic" in2="BackgroundImageFix" result="shape"/>
<feColorMatrix in="SourceAlpha" type="matrix" values="0 0 0 0 0 0 0 0 0 0 0 0 0 0 0 0 0 0 127 0" result="hardAlpha"/>
<feOffset dy="36"/>
<feComposite in2="hardAlpha" operator="arithmetic" k2="-1" k3="1"/>
<feColorMatrix type="matrix" values="0 0 0 0 0 0 0 0 0 0 0 0 0 0 0 0 0 0 0.05 0"/>
<feBlend mode="normal" in2="shape" result="effect1_innerShadow_4_36881"/>
</filter>
<filter id="filter15_d_4_36881" x="32.001" y="205" width="168" height="37" filterUnits="userSpaceOnUse" color-interpolation-filters="sRGB">
<feFlood flood-opacity="0" result="BackgroundImageFix"/>
<feColorMatrix in="SourceAlpha" type="matrix" values="0 0 0 0 0 0 0 0 0 0 0 0 0 0 0 0 0 0 127 0" result="hardAlpha"/>
<feOffset dy="4"/>
<feComposite in2="hardAlpha" operator="out"/>
<feColorMatrix type="matrix" values="0 0 0 0 0 0 0 0 0 0 0 0 0 0 0 0 0 0 0.25 0"/>
<feBlend mode="normal" in2="BackgroundImageFix" result="effect1_dropShadow_4_36881"/>
<feBlend mode="normal" in="SourceGraphic" in2="effect1_dropShadow_4_36881" result="shape"/>
</filter>
<filter id="filter16_i_4_36881" x="8.00098" y="174" width="24" height="64" filterUnits="userSpaceOnUse" color-interpolation-filters="sRGB">
<feFlood flood-opacity="0" result="BackgroundImageFix"/>
<feBlend mode="normal" in="SourceGraphic" in2="BackgroundImageFix" result="shape"/>
<feColorMatrix in="SourceAlpha" type="matrix" values="0 0 0 0 0 0 0 0 0 0 0 0 0 0 0 0 0 0 127 0" result="hardAlpha"/>
<feOffset dy="36"/>
<feComposite in2="hardAlpha" operator="arithmetic" k2="-1" k3="1"/>
<feColorMatrix type="matrix" values="0 0 0 0 0 0 0 0 0 0 0 0 0 0 0 0 0 0 0.25 0"/>
<feBlend mode="normal" in2="shape" result="effect1_innerShadow_4_36881"/>
</filter>
<filter id="filter17_i_4_36881" x="8.00098" y="63" width="24" height="143" filterUnits="userSpaceOnUse" color-interpolation-filters="sRGB">
<feFlood flood-opacity="0" result="BackgroundImageFix"/>
<feBlend mode="normal" in="SourceGraphic" in2="BackgroundImageFix" result="shape"/>
<feColorMatrix in="SourceAlpha" type="matrix" values="0 0 0 0 0 0 0 0 0 0 0 0 0 0 0 0 0 0 127 0" result="hardAlpha"/>
<feOffset dx="-56"/>
<feComposite in2="hardAlpha" operator="arithmetic" k2="-1" k3="1"/>
<feColorMatrix type="matrix" values="0 0 0 0 0 0 0 0 0 0 0 0 0 0 0 0 0 0 0.1 0"/>
<feBlend mode="normal" in2="shape" result="effect1_innerShadow_4_36881"/>
</filter>
<filter id="filter18_i_4_36881" x="8.00098" y="32" width="24" height="142" filterUnits="userSpaceOnUse" color-interpolation-filters="sRGB">
<feFlood flood-opacity="0" result="BackgroundImageFix"/>
<feBlend mode="normal" in="SourceGraphic" in2="BackgroundImageFix" result="shape"/>
<feColorMatrix in="SourceAlpha" type="matrix" values="0 0 0 0 0 0 0 0 0 0 0 0 0 0 0 0 0 0 127 0" result="hardAlpha"/>
<feOffset dx="-56"/>
<feComposite in2="hardAlpha" operator="arithmetic" k2="-1" k3="1"/>
<feColorMatrix type="matrix" values="0 0 0 0 0 0 0 0 0 0 0 0 0 0 0 0 0 0 0.1 0"/>
<feBlend mode="normal" in2="shape" result="effect1_innerShadow_4_36881"/>
</filter>
<filter id="filter19_i_4_36881" x="8.00098" y="0" width="24" height="143" filterUnits="userSpaceOnUse" color-interpolation-filters="sRGB">
<feFlood flood-opacity="0" result="BackgroundImageFix"/>
<feBlend mode="normal" in="SourceGraphic" in2="BackgroundImageFix" result="shape"/>
<feColorMatrix in="SourceAlpha" type="matrix" values="0 0 0 0 0 0 0 0 0 0 0 0 0 0 0 0 0 0 127 0" result="hardAlpha"/>
<feOffset dx="-56"/>
<feComposite in2="hardAlpha" operator="arithmetic" k2="-1" k3="1"/>
<feColorMatrix type="matrix" values="0 0 0 0 0 0 0 0 0 0 0 0 0 0 0 0 0 0 0.1 0"/>
<feBlend mode="normal" in2="shape" result="effect1_innerShadow_4_36881"/>
</filter>
<filter id="filter20_i_4_36881" x="77" y="12" width="79" height="175" filterUnits="userSpaceOnUse" color-interpolation-filters="sRGB">
<feFlood flood-opacity="0" result="BackgroundImageFix"/>
<feBlend mode="normal" in="SourceGraphic" in2="BackgroundImageFix" result="shape"/>
<feColorMatrix in="SourceAlpha" type="matrix" values="0 0 0 0 0 0 0 0 0 0 0 0 0 0 0 0 0 0 127 0" result="hardAlpha"/>
<feOffset dy="8"/>
<feComposite in2="hardAlpha" operator="arithmetic" k2="-1" k3="1"/>
<feColorMatrix type="matrix" values="0 0 0 0 0 0 0 0 0 0 0 0 0 0 0 0 0 0 0.15 0"/>
<feBlend mode="normal" in2="shape" result="effect1_innerShadow_4_36881"/>
</filter>
<filter id="filter21_i_4_36881" x="175.001" y="70" width="12" height="59" filterUnits="userSpaceOnUse" color-interpolation-filters="sRGB">
<feFlood flood-opacity="0" result="BackgroundImageFix"/>
<feBlend mode="normal" in="SourceGraphic" in2="BackgroundImageFix" result="shape"/>
<feColorMatrix in="SourceAlpha" type="matrix" values="0 0 0 0 0 0 0 0 0 0 0 0 0 0 0 0 0 0 127 0" result="hardAlpha"/>
<feOffset dy="-6"/>
<feComposite in2="hardAlpha" operator="arithmetic" k2="-1" k3="1"/>
<feColorMatrix type="matrix" values="0 0 0 0 0 0 0 0 0 0 0 0 0 0 0 0 0 0 0.25 0"/>
<feBlend mode="normal" in2="shape" result="effect1_innerShadow_4_36881"/>
</filter>
<filter id="filter22_i_4_36881" x="45.001" y="70" width="12" height="59" filterUnits="userSpaceOnUse" color-interpolation-filters="sRGB">
<feFlood flood-opacity="0" result="BackgroundImageFix"/>
<feBlend mode="normal" in="SourceGraphic" in2="BackgroundImageFix" result="shape"/>
<feColorMatrix in="SourceAlpha" type="matrix" values="0 0 0 0 0 0 0 0 0 0 0 0 0 0 0 0 0 0 127 0" result="hardAlpha"/>
<feOffset dy="-6"/>
<feComposite in2="hardAlpha" operator="arithmetic" k2="-1" k3="1"/>
<feColorMatrix type="matrix" values="0 0 0 0 0 0 0 0 0 0 0 0 0 0 0 0 0 0 0.25 0"/>
<feBlend mode="normal" in2="shape" result="effect1_innerShadow_4_36881"/>
</filter>
<filter id="filter23_i_4_36881" x="200.001" y="63" width="24" height="143" filterUnits="userSpaceOnUse" color-interpolation-filters="sRGB">
<feFlood flood-opacity="0" result="BackgroundImageFix"/>
<feBlend mode="normal" in="SourceGraphic" in2="BackgroundImageFix" result="shape"/>
<feColorMatrix in="SourceAlpha" type="matrix" values="0 0 0 0 0 0 0 0 0 0 0 0 0 0 0 0 0 0 127 0" result="hardAlpha"/>
<feOffset dx="-56"/>
<feComposite in2="hardAlpha" operator="arithmetic" k2="-1" k3="1"/>
<feColorMatrix type="matrix" values="0 0 0 0 1 0 0 0 0 1 0 0 0 0 1 0 0 0 0.25 0"/>
<feBlend mode="normal" in2="shape" result="effect1_innerShadow_4_36881"/>
</filter>
<filter id="filter24_i_4_36881" x="200.001" y="32" width="24" height="142" filterUnits="userSpaceOnUse" color-interpolation-filters="sRGB">
<feFlood flood-opacity="0" result="BackgroundImageFix"/>
<feBlend mode="normal" in="SourceGraphic" in2="BackgroundImageFix" result="shape"/>
<feColorMatrix in="SourceAlpha" type="matrix" values="0 0 0 0 0 0 0 0 0 0 0 0 0 0 0 0 0 0 127 0" result="hardAlpha"/>
<feOffset dx="-56"/>
<feComposite in2="hardAlpha" operator="arithmetic" k2="-1" k3="1"/>
<feColorMatrix type="matrix" values="0 0 0 0 1 0 0 0 0 1 0 0 0 0 1 0 0 0 0.25 0"/>
<feBlend mode="normal" in2="shape" result="effect1_innerShadow_4_36881"/>
</filter>
<filter id="filter25_i_4_36881" x="200.001" y="0" width="24" height="143" filterUnits="userSpaceOnUse" color-interpolation-filters="sRGB">
<feFlood flood-opacity="0" result="BackgroundImageFix"/>
<feBlend mode="normal" in="SourceGraphic" in2="BackgroundImageFix" result="shape"/>
<feColorMatrix in="SourceAlpha" type="matrix" values="0 0 0 0 0 0 0 0 0 0 0 0 0 0 0 0 0 0 127 0" result="hardAlpha"/>
<feOffset dx="-56"/>
<feComposite in2="hardAlpha" operator="arithmetic" k2="-1" k3="1"/>
<feColorMatrix type="matrix" values="0 0 0 0 1 0 0 0 0 1 0 0 0 0 1 0 0 0 0.25 0"/>
<feBlend mode="normal" in2="shape" result="effect1_innerShadow_4_36881"/>
</filter>
</defs>
</svg>
