<svg width="180" height="541" viewBox="0 0 180 541" fill="none" xmlns="http://www.w3.org/2000/svg">
<rect width="60" height="60" rx="8" transform="matrix(-1 0 0 1 180 481)" fill="black" fill-opacity="0.12"/>
<rect width="48" height="48" rx="4" transform="matrix(-1 0 0 1 174 487)" fill="black" fill-opacity="0.2"/>
<g filter="url(#filter0_dii_23_41248)">
<rect width="44" height="136" rx="4" transform="matrix(-1 0 0 1 172 396)" fill="#854D0E"/>
</g>
<g filter="url(#filter1_ii_23_41248)">
<rect width="44" height="44" rx="4" transform="matrix(-1 0 0 1 172 396)" fill="#A16207"/>
</g>
<path opacity="0.2" d="M146 470.078C146 473.994 146.871 478.182 148.742 478.182C150.613 478.182 151 475.007 151 471.091C151 467.175 150.613 464 148.742 464C146.871 464 146 466.162 146 470.078Z" fill="#1C1917"/>
<path opacity="0.2" d="M153 497.195C153 499.605 153.871 502.182 155.742 502.182C157.613 502.182 158 500.228 158 497.818C158 495.408 157.613 493.455 155.742 493.455C153.871 493.455 153 494.785 153 497.195Z" fill="white"/>
<g filter="url(#filter2_ii_23_41248)">
<path d="M21 58L133 58" stroke="#78716C" stroke-width="8" stroke-linecap="round"/>
</g>
<g filter="url(#filter3_ii_23_41248)">
<circle cx="8" cy="8" r="8" transform="matrix(-1 0 0 1 16 50)" fill="#78716C"/>
</g>
<rect width="1" height="8" transform="matrix(-1 0 0 1 22 54)" fill="black" fill-opacity="0.12"/>
<path d="M168 47L132 47V20C132 18.8954 132.895 18 134 18L166 18C167.105 18 168 18.8954 168 20V47Z" fill="#78716C"/>
<g filter="url(#filter4_ii_23_41248)">
<rect width="32" height="433" rx="4" transform="matrix(-1 0 0 1 166 0)" fill="#854D0E"/>
</g>
<mask id="mask0_23_41248" style="mask-type:alpha" maskUnits="userSpaceOnUse" x="134" y="32" width="32" height="401">
<rect width="32" height="401" rx="4" transform="matrix(-1 0 0 1 166 32)" fill="#854D0E"/>
</mask>
<g mask="url(#mask0_23_41248)">
<path opacity="0.15" d="M140 79.5958C140 84.6951 140.697 90.1478 142.194 90.1478C143.69 90.1478 144 86.0141 144 80.9148C144 75.8156 143.69 71.6819 142.194 71.6819C140.697 71.6819 140 74.4966 140 79.5958Z" fill="white"/>
<path opacity="0.2" d="M149 170.505C149 175.604 149.871 181.057 151.742 181.057C153.613 181.057 154 176.923 154 171.824C154 166.725 153.613 162.591 151.742 162.591C149.871 162.591 149 165.406 149 170.505Z" fill="#1C1917"/>
<path opacity="0.2" d="M149 113.484C149 116.622 149.871 119.977 151.742 119.977C153.613 119.977 154 117.433 154 114.295C154 111.157 153.613 108.614 151.742 108.614C149.871 108.614 149 110.346 149 113.484Z" fill="#1C1917"/>
<path opacity="0.2" d="M147 317.033C147 322.091 147.697 327.5 149.194 327.5C150.69 327.5 151 323.399 151 318.341C151 313.283 150.69 309.182 149.194 309.182C147.697 309.182 147 311.974 147 317.033Z" fill="white"/>
<path opacity="0.2" d="M142 363.533C142 368.591 142.871 374 144.742 374C146.613 374 147 369.899 147 364.841C147 359.783 146.613 355.682 144.742 355.682C142.871 355.682 142 358.474 142 363.533Z" fill="#1C1917"/>
<path opacity="0.2" d="M149 288.649C149 291.762 149.871 295.091 151.742 295.091C153.613 295.091 154 292.567 154 289.454C154 286.342 153.613 283.818 151.742 283.818C149.871 283.818 149 285.536 149 288.649Z" fill="#1C1917"/>
<path opacity="0.2" d="M149 398.558C149 401.671 149.871 405 151.742 405C153.613 405 154 402.477 154 399.364C154 396.251 153.613 393.727 151.742 393.727C149.871 393.727 149 395.446 149 398.558Z" fill="white"/>
<path opacity="0.15" d="M157 190.365C157 193.878 156.303 197.634 154.806 197.634C153.31 197.634 153 194.786 153 191.274C153 187.761 153.31 184.914 154.806 184.914C156.303 184.914 157 186.853 157 190.365Z" fill="white"/>
<path opacity="0.2" d="M148 252.986C148 256.498 147.129 260.254 145.258 260.254C143.387 260.254 143 257.407 143 253.894C143 250.382 143.387 247.534 145.258 247.534C147.129 247.534 148 249.473 148 252.986Z" fill="#1C1917"/>
<path opacity="0.2" d="M148 213.708C148 215.87 147.129 218.181 145.258 218.181C143.387 218.181 143 216.429 143 214.267C143 212.106 143.387 210.354 145.258 210.354C147.129 210.354 148 211.547 148 213.708Z" fill="#1C1917"/>
</g>
<g filter="url(#filter5_ii_23_41248)">
<rect width="32" height="32" rx="4" transform="matrix(-1 0 0 1 166 0)" fill="#A16207"/>
</g>
<rect width="4" height="8" transform="matrix(-1 0 0 1 134 54)" fill="black" fill-opacity="0.12"/>
<path d="M166 88H134V85H166V88Z" fill="black" fill-opacity="0.12"/>
<g filter="url(#filter6_i_23_41248)">
<path d="M168.004 84C168.004 85.1046 167.108 86 166.004 86H134.004C132.899 86 132.004 85.1046 132.004 84V46L168.004 46V84Z" fill="#57534E"/>
</g>
<path d="M166 47L134 47V45L166 45V47Z" fill="black" fill-opacity="0.12"/>
<path d="M168 46C168 47.1046 167.105 48 166 48L134 48C132.895 48 132 47.1046 132 46L168 46Z" fill="#78716C"/>
<g filter="url(#filter7_iiii_23_41248)">
<path d="M117.996 62H29.9961V153L73.9961 174L117.996 153V62Z" fill="#FACC15"/>
<path d="M111.227 62H36.765V148.625L73.9958 167L111.227 148.625V62Z" fill="#427A42"/>
</g>
<g filter="url(#filter8_ii_23_41248)">
<rect width="88" height="8" transform="matrix(-1 0 0 1 117.996 54)" fill="#FACC15"/>
<rect width="74.4615" height="8" transform="matrix(-1 0 0 1 111.227 54)" fill="#427A42"/>
</g>
<path d="M64.9961 104.706C65.4485 104.706 65.8821 104.771 66.3165 104.831C65.4958 103.554 64.9961 102.072 64.9961 100.471C64.9961 95.7923 69.0255 92 73.9961 92C78.9667 92 82.9961 95.7923 82.9961 100.471C82.9961 102.072 82.4963 103.554 81.6757 104.831C82.11 104.77 82.5437 104.706 82.9961 104.706C87.9667 104.706 91.9961 108.498 91.9961 113.176C91.9961 117.855 87.9667 121.647 82.9961 121.647C80.1317 121.647 77.6099 120.364 75.9616 118.401C77.2582 121.244 79.4021 124.617 82.9961 128H64.9961C68.5901 124.617 70.734 121.244 72.0306 118.401C70.3823 120.364 67.8605 121.647 64.9961 121.647C60.0255 121.647 55.9961 117.855 55.9961 113.176C55.9961 108.498 60.0255 104.706 64.9961 104.706Z" fill="#FACC15"/>
<g filter="url(#filter9_i_23_41248)">
<path fill-rule="evenodd" clip-rule="evenodd" d="M19 65C20.1046 65 21 64.1046 21 63V53C21 51.8954 20.1046 51 19 51H15C13.8954 51 13 51.8954 13 53L13 63C13 64.1046 13.8954 65 15 65H19Z" fill="#57534E"/>
</g>
<defs>
<filter id="filter0_dii_23_41248" x="128" y="396" width="46" height="138" filterUnits="userSpaceOnUse" color-interpolation-filters="sRGB">
<feFlood flood-opacity="0" result="BackgroundImageFix"/>
<feColorMatrix in="SourceAlpha" type="matrix" values="0 0 0 0 0 0 0 0 0 0 0 0 0 0 0 0 0 0 127 0" result="hardAlpha"/>
<feOffset dy="1"/>
<feComposite in2="hardAlpha" operator="out"/>
<feColorMatrix type="matrix" values="0 0 0 0 0 0 0 0 0 0 0 0 0 0 0 0 0 0 0.25 0"/>
<feBlend mode="normal" in2="BackgroundImageFix" result="effect1_dropShadow_23_41248"/>
<feBlend mode="normal" in="SourceGraphic" in2="effect1_dropShadow_23_41248" result="shape"/>
<feColorMatrix in="SourceAlpha" type="matrix" values="0 0 0 0 0 0 0 0 0 0 0 0 0 0 0 0 0 0 127 0" result="hardAlpha"/>
<feOffset dx="-1" dy="1"/>
<feComposite in2="hardAlpha" operator="arithmetic" k2="-1" k3="1"/>
<feColorMatrix type="matrix" values="0 0 0 0 1 0 0 0 0 1 0 0 0 0 1 0 0 0 0.15 0"/>
<feBlend mode="normal" in2="shape" result="effect2_innerShadow_23_41248"/>
<feColorMatrix in="SourceAlpha" type="matrix" values="0 0 0 0 0 0 0 0 0 0 0 0 0 0 0 0 0 0 127 0" result="hardAlpha"/>
<feOffset dx="2" dy="2"/>
<feGaussianBlur stdDeviation="3"/>
<feComposite in2="hardAlpha" operator="arithmetic" k2="-1" k3="1"/>
<feColorMatrix type="matrix" values="0 0 0 0 0 0 0 0 0 0 0 0 0 0 0 0 0 0 0.1 0"/>
<feBlend mode="normal" in2="effect2_innerShadow_23_41248" result="effect3_innerShadow_23_41248"/>
</filter>
<filter id="filter1_ii_23_41248" x="128" y="396" width="44" height="44" filterUnits="userSpaceOnUse" color-interpolation-filters="sRGB">
<feFlood flood-opacity="0" result="BackgroundImageFix"/>
<feBlend mode="normal" in="SourceGraphic" in2="BackgroundImageFix" result="shape"/>
<feColorMatrix in="SourceAlpha" type="matrix" values="0 0 0 0 0 0 0 0 0 0 0 0 0 0 0 0 0 0 127 0" result="hardAlpha"/>
<feOffset dx="-1" dy="-1"/>
<feComposite in2="hardAlpha" operator="arithmetic" k2="-1" k3="1"/>
<feColorMatrix type="matrix" values="0 0 0 0 1 0 0 0 0 1 0 0 0 0 1 0 0 0 0.15 0"/>
<feBlend mode="normal" in2="shape" result="effect1_innerShadow_23_41248"/>
<feColorMatrix in="SourceAlpha" type="matrix" values="0 0 0 0 0 0 0 0 0 0 0 0 0 0 0 0 0 0 127 0" result="hardAlpha"/>
<feOffset dx="1"/>
<feComposite in2="hardAlpha" operator="arithmetic" k2="-1" k3="1"/>
<feColorMatrix type="matrix" values="0 0 0 0 0 0 0 0 0 0 0 0 0 0 0 0 0 0 0.15 0"/>
<feBlend mode="normal" in2="effect1_innerShadow_23_41248" result="effect2_innerShadow_23_41248"/>
</filter>
<filter id="filter2_ii_23_41248" x="17" y="53" width="120" height="12" filterUnits="userSpaceOnUse" color-interpolation-filters="sRGB">
<feFlood flood-opacity="0" result="BackgroundImageFix"/>
<feBlend mode="normal" in="SourceGraphic" in2="BackgroundImageFix" result="shape"/>
<feColorMatrix in="SourceAlpha" type="matrix" values="0 0 0 0 0 0 0 0 0 0 0 0 0 0 0 0 0 0 127 0" result="hardAlpha"/>
<feOffset dy="3"/>
<feGaussianBlur stdDeviation="2"/>
<feComposite in2="hardAlpha" operator="arithmetic" k2="-1" k3="1"/>
<feColorMatrix type="matrix" values="0 0 0 0 1 0 0 0 0 1 0 0 0 0 1 0 0 0 0.25 0"/>
<feBlend mode="normal" in2="shape" result="effect1_innerShadow_23_41248"/>
<feColorMatrix in="SourceAlpha" type="matrix" values="0 0 0 0 0 0 0 0 0 0 0 0 0 0 0 0 0 0 127 0" result="hardAlpha"/>
<feOffset dy="-2"/>
<feGaussianBlur stdDeviation="0.5"/>
<feComposite in2="hardAlpha" operator="arithmetic" k2="-1" k3="1"/>
<feColorMatrix type="matrix" values="0 0 0 0 0 0 0 0 0 0 0 0 0 0 0 0 0 0 0.25 0"/>
<feBlend mode="normal" in2="effect1_innerShadow_23_41248" result="effect2_innerShadow_23_41248"/>
</filter>
<filter id="filter3_ii_23_41248" x="-3" y="45" width="22" height="23" filterUnits="userSpaceOnUse" color-interpolation-filters="sRGB">
<feFlood flood-opacity="0" result="BackgroundImageFix"/>
<feBlend mode="normal" in="SourceGraphic" in2="BackgroundImageFix" result="shape"/>
<feColorMatrix in="SourceAlpha" type="matrix" values="0 0 0 0 0 0 0 0 0 0 0 0 0 0 0 0 0 0 127 0" result="hardAlpha"/>
<feOffset dx="3" dy="-6"/>
<feGaussianBlur stdDeviation="2.5"/>
<feComposite in2="hardAlpha" operator="arithmetic" k2="-1" k3="1"/>
<feColorMatrix type="matrix" values="0 0 0 0 0 0 0 0 0 0 0 0 0 0 0 0 0 0 0.3 0"/>
<feBlend mode="normal" in2="shape" result="effect1_innerShadow_23_41248"/>
<feColorMatrix in="SourceAlpha" type="matrix" values="0 0 0 0 0 0 0 0 0 0 0 0 0 0 0 0 0 0 127 0" result="hardAlpha"/>
<feOffset dx="-3" dy="2"/>
<feGaussianBlur stdDeviation="2"/>
<feComposite in2="hardAlpha" operator="arithmetic" k2="-1" k3="1"/>
<feColorMatrix type="matrix" values="0 0 0 0 1 0 0 0 0 1 0 0 0 0 1 0 0 0 0.25 0"/>
<feBlend mode="normal" in2="effect1_innerShadow_23_41248" result="effect2_innerShadow_23_41248"/>
</filter>
<filter id="filter4_ii_23_41248" x="134" y="0" width="32" height="433" filterUnits="userSpaceOnUse" color-interpolation-filters="sRGB">
<feFlood flood-opacity="0" result="BackgroundImageFix"/>
<feBlend mode="normal" in="SourceGraphic" in2="BackgroundImageFix" result="shape"/>
<feColorMatrix in="SourceAlpha" type="matrix" values="0 0 0 0 0 0 0 0 0 0 0 0 0 0 0 0 0 0 127 0" result="hardAlpha"/>
<feOffset dx="-1" dy="1"/>
<feComposite in2="hardAlpha" operator="arithmetic" k2="-1" k3="1"/>
<feColorMatrix type="matrix" values="0 0 0 0 1 0 0 0 0 1 0 0 0 0 1 0 0 0 0.15 0"/>
<feBlend mode="normal" in2="shape" result="effect1_innerShadow_23_41248"/>
<feColorMatrix in="SourceAlpha" type="matrix" values="0 0 0 0 0 0 0 0 0 0 0 0 0 0 0 0 0 0 127 0" result="hardAlpha"/>
<feOffset dx="2" dy="2"/>
<feComposite in2="hardAlpha" operator="arithmetic" k2="-1" k3="1"/>
<feColorMatrix type="matrix" values="0 0 0 0 0 0 0 0 0 0 0 0 0 0 0 0 0 0 0.15 0"/>
<feBlend mode="normal" in2="effect1_innerShadow_23_41248" result="effect2_innerShadow_23_41248"/>
</filter>
<filter id="filter5_ii_23_41248" x="134" y="0" width="32" height="32" filterUnits="userSpaceOnUse" color-interpolation-filters="sRGB">
<feFlood flood-opacity="0" result="BackgroundImageFix"/>
<feBlend mode="normal" in="SourceGraphic" in2="BackgroundImageFix" result="shape"/>
<feColorMatrix in="SourceAlpha" type="matrix" values="0 0 0 0 0 0 0 0 0 0 0 0 0 0 0 0 0 0 127 0" result="hardAlpha"/>
<feOffset dx="-1" dy="-1"/>
<feComposite in2="hardAlpha" operator="arithmetic" k2="-1" k3="1"/>
<feColorMatrix type="matrix" values="0 0 0 0 1 0 0 0 0 1 0 0 0 0 1 0 0 0 0.15 0"/>
<feBlend mode="normal" in2="shape" result="effect1_innerShadow_23_41248"/>
<feColorMatrix in="SourceAlpha" type="matrix" values="0 0 0 0 0 0 0 0 0 0 0 0 0 0 0 0 0 0 127 0" result="hardAlpha"/>
<feOffset dx="2"/>
<feComposite in2="hardAlpha" operator="arithmetic" k2="-1" k3="1"/>
<feColorMatrix type="matrix" values="0 0 0 0 0 0 0 0 0 0 0 0 0 0 0 0 0 0 0.15 0"/>
<feBlend mode="normal" in2="effect1_innerShadow_23_41248" result="effect2_innerShadow_23_41248"/>
</filter>
<filter id="filter6_i_23_41248" x="132.004" y="46" width="36" height="40" filterUnits="userSpaceOnUse" color-interpolation-filters="sRGB">
<feFlood flood-opacity="0" result="BackgroundImageFix"/>
<feBlend mode="normal" in="SourceGraphic" in2="BackgroundImageFix" result="shape"/>
<feColorMatrix in="SourceAlpha" type="matrix" values="0 0 0 0 0 0 0 0 0 0 0 0 0 0 0 0 0 0 127 0" result="hardAlpha"/>
<feOffset/>
<feGaussianBlur stdDeviation="2"/>
<feComposite in2="hardAlpha" operator="arithmetic" k2="-1" k3="1"/>
<feColorMatrix type="matrix" values="0 0 0 0 0 0 0 0 0 0 0 0 0 0 0 0 0 0 0.25 0"/>
<feBlend mode="normal" in2="shape" result="effect1_innerShadow_23_41248"/>
</filter>
<filter id="filter7_iiii_23_41248" x="9.99609" y="52" width="109" height="122" filterUnits="userSpaceOnUse" color-interpolation-filters="sRGB">
<feFlood flood-opacity="0" result="BackgroundImageFix"/>
<feBlend mode="normal" in="SourceGraphic" in2="BackgroundImageFix" result="shape"/>
<feColorMatrix in="SourceAlpha" type="matrix" values="0 0 0 0 0 0 0 0 0 0 0 0 0 0 0 0 0 0 127 0" result="hardAlpha"/>
<feOffset dy="4"/>
<feComposite in2="hardAlpha" operator="arithmetic" k2="-1" k3="1"/>
<feColorMatrix type="matrix" values="0 0 0 0 0 0 0 0 0 0 0 0 0 0 0 0 0 0 0.08 0"/>
<feBlend mode="normal" in2="shape" result="effect1_innerShadow_23_41248"/>
<feColorMatrix in="SourceAlpha" type="matrix" values="0 0 0 0 0 0 0 0 0 0 0 0 0 0 0 0 0 0 127 0" result="hardAlpha"/>
<feOffset dy="1"/>
<feComposite in2="hardAlpha" operator="arithmetic" k2="-1" k3="1"/>
<feColorMatrix type="matrix" values="0 0 0 0 0 0 0 0 0 0 0 0 0 0 0 0 0 0 0.25 0"/>
<feBlend mode="normal" in2="effect1_innerShadow_23_41248" result="effect2_innerShadow_23_41248"/>
<feColorMatrix in="SourceAlpha" type="matrix" values="0 0 0 0 0 0 0 0 0 0 0 0 0 0 0 0 0 0 127 0" result="hardAlpha"/>
<feOffset dx="-24" dy="-10"/>
<feGaussianBlur stdDeviation="10"/>
<feComposite in2="hardAlpha" operator="arithmetic" k2="-1" k3="1"/>
<feColorMatrix type="matrix" values="0 0 0 0 1 0 0 0 0 1 0 0 0 0 1 0 0 0 0.1 0"/>
<feBlend mode="normal" in2="effect2_innerShadow_23_41248" result="effect3_innerShadow_23_41248"/>
<feColorMatrix in="SourceAlpha" type="matrix" values="0 0 0 0 0 0 0 0 0 0 0 0 0 0 0 0 0 0 127 0" result="hardAlpha"/>
<feOffset dx="1" dy="-1"/>
<feGaussianBlur stdDeviation="0.5"/>
<feComposite in2="hardAlpha" operator="arithmetic" k2="-1" k3="1"/>
<feColorMatrix type="matrix" values="0 0 0 0 0 0 0 0 0 0 0 0 0 0 0 0 0 0 0.25 0"/>
<feBlend mode="normal" in2="effect3_innerShadow_23_41248" result="effect4_innerShadow_23_41248"/>
</filter>
<filter id="filter8_ii_23_41248" x="29.9961" y="52" width="88" height="12" filterUnits="userSpaceOnUse" color-interpolation-filters="sRGB">
<feFlood flood-opacity="0" result="BackgroundImageFix"/>
<feBlend mode="normal" in="SourceGraphic" in2="BackgroundImageFix" result="shape"/>
<feColorMatrix in="SourceAlpha" type="matrix" values="0 0 0 0 0 0 0 0 0 0 0 0 0 0 0 0 0 0 127 0" result="hardAlpha"/>
<feOffset dy="-2"/>
<feGaussianBlur stdDeviation="1"/>
<feComposite in2="hardAlpha" operator="arithmetic" k2="-1" k3="1"/>
<feColorMatrix type="matrix" values="0 0 0 0 0 0 0 0 0 0 0 0 0 0 0 0 0 0 0.15 0"/>
<feBlend mode="normal" in2="shape" result="effect1_innerShadow_23_41248"/>
<feColorMatrix in="SourceAlpha" type="matrix" values="0 0 0 0 0 0 0 0 0 0 0 0 0 0 0 0 0 0 127 0" result="hardAlpha"/>
<feOffset dy="3"/>
<feGaussianBlur stdDeviation="1"/>
<feComposite in2="hardAlpha" operator="arithmetic" k2="-1" k3="1"/>
<feColorMatrix type="matrix" values="0 0 0 0 1 0 0 0 0 1 0 0 0 0 1 0 0 0 0.25 0"/>
<feBlend mode="normal" in2="effect1_innerShadow_23_41248" result="effect2_innerShadow_23_41248"/>
</filter>
<filter id="filter9_i_23_41248" x="13" y="48" width="8" height="17" filterUnits="userSpaceOnUse" color-interpolation-filters="sRGB">
<feFlood flood-opacity="0" result="BackgroundImageFix"/>
<feBlend mode="normal" in="SourceGraphic" in2="BackgroundImageFix" result="shape"/>
<feColorMatrix in="SourceAlpha" type="matrix" values="0 0 0 0 0 0 0 0 0 0 0 0 0 0 0 0 0 0 127 0" result="hardAlpha"/>
<feOffset dy="-8"/>
<feGaussianBlur stdDeviation="1.5"/>
<feComposite in2="hardAlpha" operator="arithmetic" k2="-1" k3="1"/>
<feColorMatrix type="matrix" values="0 0 0 0 0 0 0 0 0 0 0 0 0 0 0 0 0 0 0.25 0"/>
<feBlend mode="normal" in2="shape" result="effect1_innerShadow_23_41248"/>
</filter>
</defs>
</svg>
