<svg width="205" height="307" viewBox="0 0 205 307" fill="none" xmlns="http://www.w3.org/2000/svg">
<ellipse cx="102.89" cy="199.683" rx="102.11" ry="107.268" fill="black" fill-opacity="0.12"/>
<ellipse cx="102.89" cy="198.445" rx="94.3156" ry="99.429" fill="black" fill-opacity="0.4"/>
<g filter="url(#filter0_ii_33_127182)">
<path fill-rule="evenodd" clip-rule="evenodd" d="M171.685 261.83C169.879 263.948 168.012 265.93 166.088 267.784C150.222 284.267 127.604 294.574 102.5 294.574C79.1628 294.574 57.9738 285.666 42.3609 271.17C38.1966 267.571 34.2714 263.423 30.6321 258.675C25.189 251.95 20.8035 244.438 17.7066 236.354C8.53385 215.21 3.11816 186.866 3.11816 149.52C3.11816 39.7734 51.0554 1.65028 101.039 1.65028C151.022 1.65028 201.882 39.7734 201.882 149.52C201.882 187.055 196.456 215.298 187.322 236.281C183.731 245.683 178.398 254.312 171.685 261.83Z" fill="#713F12"/>
</g>
<ellipse cx="102.5" cy="182.355" rx="100.162" ry="94.0656" fill="black" fill-opacity="0.2"/>
<path opacity="0.2" d="M58.46 273.71C58.46 269.836 59.9542 265.694 63.162 265.694C66.3698 265.694 67.0342 268.834 67.0342 272.708C67.0342 276.581 66.3698 279.721 63.162 279.721C59.9542 279.721 58.46 277.583 58.46 273.71Z" fill="#713F12"/>
<g filter="url(#filter1_i_33_127182)">
<path fill-rule="evenodd" clip-rule="evenodd" d="M135.627 153.556L142.023 156.26C144.892 162.128 147.196 171.954 148.843 183.744C150.513 195.704 151.495 209.578 151.733 223.159C151.972 236.742 151.467 250.006 150.174 260.751C149.527 266.125 148.685 270.847 147.648 274.656C146.604 278.489 145.172 282.218 143.83 283.847L144.419 283.536L146.539 282.448C147.623 280.568 148.55 278.087 149.344 275.171C150.414 271.239 151.27 266.415 151.924 260.986C153.231 250.127 153.737 236.767 153.497 223.124C153.257 209.479 152.272 195.524 150.588 183.472C148.909 171.452 146.522 161.217 143.431 155.084C143.334 154.89 143.174 154.739 142.98 154.657L136.282 151.825L135.627 153.556Z" fill="black" fill-opacity="0.2"/>
</g>
<g filter="url(#filter2_i_33_127182)">
<path fill-rule="evenodd" clip-rule="evenodd" d="M88.7041 199.683C89.1693 199.683 89.5465 200.1 89.5465 200.615C89.5465 205.879 89.0143 211.14 88.4863 216.359C88.4121 217.093 88.3379 217.826 88.2653 218.558C87.6742 224.521 87.1848 230.441 87.5534 236.401C88.413 250.305 90.044 277.944 89.5458 291.993L89.5128 292.923L87.8294 292.85L87.8624 291.92C88.3562 277.995 86.7348 250.475 85.8726 236.528C85.4929 230.387 85.9991 224.322 86.5906 218.355C86.6638 217.617 86.7382 216.881 86.8125 216.146C87.3411 210.917 87.8618 205.767 87.8618 200.615C87.8618 200.1 88.2389 199.683 88.7041 199.683Z" fill="black" fill-opacity="0.2"/>
</g>
<path fill-rule="evenodd" clip-rule="evenodd" d="M43.6502 137.877L37.1376 140.579C34.2242 146.434 32.0068 156.189 30.5229 167.883C29.0178 179.744 28.2801 193.49 28.2987 206.944C28.3173 220.4 29.0924 233.538 30.605 244.189C31.3614 249.515 32.2996 254.199 33.4126 257.981C34.5327 261.787 35.7227 264.885 37.0935 266.519L35.2971 264.656C33.5007 262.793 32.8354 262.402 31.6944 258.525C30.5463 254.624 29.5919 249.841 28.8278 244.46C27.2992 233.697 26.521 220.464 26.5023 206.947C26.4836 193.428 27.2245 179.598 28.7419 167.64C30.255 155.715 32.5529 145.539 35.7033 139.404C35.8029 139.21 35.9656 139.059 36.1624 138.977L42.9829 136.148L43.6502 137.877Z" fill="black" fill-opacity="0.2"/>
<path fill-rule="evenodd" clip-rule="evenodd" d="M43.6502 137.877L37.1376 140.579C34.2242 146.434 32.0068 156.189 30.5229 167.883C29.0178 179.744 28.2801 193.49 28.2987 206.944C28.3173 220.4 29.0924 233.538 30.605 244.189C31.3614 249.515 32.2996 254.199 33.4126 257.981C34.5327 261.787 35.7227 264.885 37.0935 266.519L35.2971 264.656C33.5007 262.793 32.8354 262.402 31.6944 258.525C30.5463 254.624 29.5919 249.841 28.8278 244.46C27.2992 233.697 26.521 220.464 26.5023 206.947C26.4836 193.428 27.2245 179.598 28.7419 167.64C30.255 155.715 32.5529 145.539 35.7033 139.404C35.8029 139.21 35.9656 139.059 36.1624 138.977L42.9829 136.148L43.6502 137.877Z" fill="black" fill-opacity="0.2"/>
<g filter="url(#filter3_ii_33_127182)">
<ellipse cx="102.5" cy="178.23" rx="102.5" ry="94.0656" fill="#78716C"/>
</g>
<ellipse cx="102.5" cy="166.678" rx="102.5" ry="94.0656" fill="#A8A29E"/>
<g filter="url(#filter4_ii_33_127182)">
<path d="M202.657 158.444C202.657 211.752 157.64 254.967 102.108 254.967C46.5761 254.967 1.55859 211.752 1.55859 158.444C1.55859 147.199 2.45801 130.394 4.21659 118.31C4.80302 108.396 7.44116 91.045 9.49304 87.0172C28.193 62.6117 66.7925 61.9208 102.108 61.9208C138.068 61.9208 177.365 59.8329 195.335 87.6369C198.853 97.8614 201.784 122.028 201.784 136.9C201.784 140.308 202.73 151.117 202.657 158.444Z" fill="#713F12"/>
</g>
<g filter="url(#filter5_i_33_127182)">
<path fill-rule="evenodd" clip-rule="evenodd" d="M88.412 160.902C88.9338 160.902 89.3568 161.319 89.3568 161.833C89.3568 166.535 89.1174 171.129 88.88 175.685C88.816 176.913 88.7521 178.138 88.6931 179.362C88.4147 185.14 88.2431 190.91 88.6588 196.905C89.627 210.867 89.9135 239.195 89.3561 253.211L89.3191 254.142L87.4309 254.069L87.4679 253.138C88.023 239.181 87.7367 210.92 86.7736 197.032C86.3501 190.926 86.5264 185.068 86.8057 179.274C86.8654 178.034 86.9298 176.798 86.9941 175.564C87.2311 171.015 87.4672 166.483 87.4672 161.833C87.4672 161.319 87.8902 160.902 88.412 160.902Z" fill="black" fill-opacity="0.2"/>
</g>
<g filter="url(#filter6_i_33_127182)">
<path fill-rule="evenodd" clip-rule="evenodd" d="M148.879 181.809L149.018 182.731C151.734 200.644 152.712 223.349 151.921 242.59L154.103 241.347C154.899 222.001 153.604 200.496 150.868 182.452L150.728 181.53L148.879 181.809Z" fill="black" fill-opacity="0.2"/>
</g>
<path fill-rule="evenodd" clip-rule="evenodd" d="M16.6172 99.8415H24.164V101.69H17.3304C13.2762 105.88 10.0175 112.488 7.52972 120.552C4.99634 128.764 3.29398 138.61 2.33887 148.525L2.92789 135.892C3.89156 125.888 3.26586 128.354 5.84808 119.984C8.42457 111.633 11.8811 104.581 16.361 100.098L16.6172 99.8415Z" fill="black" fill-opacity="0.2"/>
<path fill-rule="evenodd" clip-rule="evenodd" d="M43.6502 137.878L37.1547 140.581C33.5835 147.78 31.0724 160.839 29.6679 176.084C28.248 191.496 27.9085 209.665 28.7494 225.262L26.9579 223.399C26.1121 207.713 26.4555 191.416 27.8844 175.906C29.3091 160.443 31.8892 146.897 35.7242 139.406C35.8236 139.212 35.9858 139.06 36.1821 138.979L42.9847 136.148L43.6502 137.878Z" fill="black" fill-opacity="0.2"/>
<path fill-rule="evenodd" clip-rule="evenodd" d="M43.6502 137.878L37.1547 140.581C33.5835 147.78 31.0724 160.839 29.6679 176.084C28.248 191.496 27.9085 209.665 28.7494 225.262L26.9579 223.399C26.1121 207.713 26.4555 191.416 27.8844 175.906C29.3091 160.443 31.8892 146.897 35.7242 139.406C35.8236 139.212 35.9858 139.06 36.1821 138.979L42.9847 136.148L43.6502 137.878Z" fill="black" fill-opacity="0.2"/>
<path fill-rule="evenodd" clip-rule="evenodd" d="M182.786 117.995H175.568L174.6 119.865H181.769C185.808 124.162 190.211 132.082 193.543 141.486C196.934 151.053 200.365 164.12 201.301 174.104C201.301 174.104 201.882 170.363 201.882 169.74C201.882 169.116 198.609 150.522 195.171 140.821C191.743 131.149 187.444 122.78 183.039 118.254L182.786 117.995Z" fill="black" fill-opacity="0.2"/>
<g filter="url(#filter7_dii_33_127182)">
<ellipse cx="102.11" cy="108.093" rx="93.5361" ry="85.8142" fill="#78716C"/>
</g>
<ellipse cx="102.11" cy="95.7159" rx="93.5361" ry="85.8142" fill="#A8A29E"/>
<g filter="url(#filter8_ii_33_127182)">
<ellipse cx="101.721" cy="91.5902" rx="89.249" ry="85.8142" fill="#713F12"/>
</g>
<ellipse cx="102.889" cy="84.1639" rx="87.3004" ry="84.1639" fill="#A16207"/>
<ellipse cx="102.5" cy="84.1639" rx="80.6749" ry="78.388" fill="black" fill-opacity="0.4"/>
<g filter="url(#filter9_i_33_127182)">
<path fill-rule="evenodd" clip-rule="evenodd" d="M90.4187 161.232L89.275 167.473V176.579H87.3008V167.307L88.4745 160.902L90.4187 161.232Z" fill="black" fill-opacity="0.2"/>
</g>
<g filter="url(#filter10_i_33_127182)">
<ellipse cx="102.5" cy="89.1148" rx="77.557" ry="74.2623" fill="#A16207"/>
</g>
<ellipse cx="130.561" cy="49.9208" rx="11.3023" ry="11.9645" fill="#713F12"/>
<mask id="mask0_33_127182" style="mask-type:alpha" maskUnits="userSpaceOnUse" x="119" y="45" width="23" height="25">
<ellipse cx="130.561" cy="57.347" rx="11.3023" ry="11.9645" fill="black" fill-opacity="0.4"/>
</mask>
<g mask="url(#mask0_33_127182)">
<ellipse cx="130.561" cy="49.9208" rx="11.3023" ry="11.9645" fill="black" fill-opacity="0.7"/>
</g>
<g filter="url(#filter11_i_33_127182)">
<path fill-rule="evenodd" clip-rule="evenodd" d="M137.966 154.418L143.051 158.505C143.051 158.505 144.692 162.717 145.743 166.678L147.319 165.796C146.208 161.608 144.845 157.562 144.845 157.562L139.76 153.475L137.966 154.418Z" fill="black" fill-opacity="0.2"/>
</g>
<path fill-rule="evenodd" clip-rule="evenodd" d="M20.0709 56.9344L26.5015 57.8667L25.9169 77.445L25.3323 80.8634L25.9169 59.7313L19.4863 58.799L20.0709 56.9344Z" fill="black" fill-opacity="0.2"/>
<path fill-rule="evenodd" clip-rule="evenodd" d="M44.3962 21.4536L49.8863 24.9297V34.726L48.3614 36.306V26.1937L42.8711 22.7176L44.3962 21.4536Z" fill="#713F12"/>
<path fill-rule="evenodd" clip-rule="evenodd" d="M44.3962 21.4536L49.8863 24.9297V34.726L48.3614 36.306V26.1937L42.8711 22.7176L44.3962 21.4536Z" fill="url(#paint0_linear_33_127182)"/>
<path fill-rule="evenodd" clip-rule="evenodd" d="M80.1296 2.47541L85.7418 6.83947V16.191L84.0581 16.5027V7.29498L78.7266 2.78713L80.1296 2.47541Z" fill="black" fill-opacity="0.2"/>
<path fill-rule="evenodd" clip-rule="evenodd" d="M186.23 58.5847L180.057 59.2018V78.3318L180.336 80.8634L180.899 61.3616L187.072 60.7445L186.23 58.5847Z" fill="black" fill-opacity="0.2"/>
<path fill-rule="evenodd" clip-rule="evenodd" d="M161.384 22.2787L155.894 25.6601L156.504 36.4193L158.334 37.9563L157.724 27.1971L162.909 23.5083L161.384 22.2787Z" fill="black" fill-opacity="0.2"/>
<path fill-rule="evenodd" clip-rule="evenodd" d="M125.44 3.30055L120.039 7.78879V17.0202L121.792 17.3279V8.0965L127.054 3.78853L125.44 3.30055Z" fill="black" fill-opacity="0.2"/>
<path fill-rule="evenodd" clip-rule="evenodd" d="M17.0847 99.8415H23.7417L24.1634 101.589H17.5784C16.7073 102.436 15.1271 103.74 14.3259 104.792L14.0303 102.463C14.7456 101.523 15.0761 101.202 15.6653 100.656C16.0706 100.281 16.5559 100.001 17.0847 99.8415Z" fill="black" fill-opacity="0.2"/>
<path fill-rule="evenodd" clip-rule="evenodd" d="M42.8704 137.397L36.8332 140.325C35.9098 142.257 34.9698 144.963 34.1849 147.699L32.7373 146.144C33.5841 143.192 34.3994 141.264 35.4462 139.143C35.5426 138.948 35.6999 138.796 35.8902 138.714L41.7123 136.148L42.8704 137.397Z" fill="black" fill-opacity="0.2"/>
<path fill-rule="evenodd" clip-rule="evenodd" d="M42.8704 137.397L36.8332 140.325C35.9098 142.257 34.9698 144.963 34.1849 147.699L32.7373 146.144C33.5841 143.192 34.3994 141.264 35.4462 139.143C35.5426 138.948 35.6999 138.796 35.8902 138.714L41.7123 136.148L42.8704 137.397Z" fill="black" fill-opacity="0.2"/>
<path fill-rule="evenodd" clip-rule="evenodd" d="M182.564 117.469L175.486 117.169L174.601 118.97L181.679 119.27L184.629 123.77L185.514 121.97L182.564 117.469Z" fill="black" fill-opacity="0.2"/>
<g opacity="0.2">
<path d="M100.552 229.388C100.552 234.173 99.7368 239.29 97.9871 239.29C96.2374 239.29 95.875 235.411 95.875 230.626C95.875 225.841 96.2374 221.962 97.9871 221.962C99.7368 221.962 100.552 224.603 100.552 229.388Z" fill="#1C1917"/>
<path d="M45.2094 193.318C45.2094 197.191 44.1227 201.333 41.7898 201.333C39.4568 201.333 38.9736 198.193 38.9736 194.32C38.9736 190.446 39.4568 187.306 41.7898 187.306C44.1227 187.306 45.2094 189.444 45.2094 193.318Z" fill="white"/>
<path d="M129.392 201.805C129.392 206.362 127.626 211.235 123.835 211.235C120.044 211.235 119.259 207.541 119.259 202.984C119.259 198.426 120.044 194.732 123.835 194.732C127.626 194.732 129.392 197.248 129.392 201.805Z" fill="#1C1917"/>
<path d="M18.7076 184.831C18.7076 188.021 17.4851 191.432 14.8605 191.432C12.236 191.432 11.6924 188.846 11.6924 185.656C11.6924 182.466 12.236 179.88 14.8605 179.88C17.4851 179.88 18.7076 181.641 18.7076 184.831Z" fill="#1C1917"/>
<path d="M179.277 196.147C179.277 192.273 180.772 188.131 183.979 188.131C187.187 188.131 187.852 191.271 187.852 195.145C187.852 199.018 187.187 202.158 183.979 202.158C180.772 202.158 179.277 200.02 179.277 196.147Z" fill="#1C1917"/>
<path d="M130.951 279.368C130.951 282.33 129.864 285.497 127.531 285.497C125.198 285.497 124.715 283.096 124.715 280.134C124.715 277.172 125.198 274.77 127.531 274.77C129.864 274.77 130.951 276.406 130.951 279.368Z" fill="white"/>
</g>
<defs>
<filter id="filter0_ii_33_127182" x="-43.9318" y="1.65028" width="292.115" height="339.974" filterUnits="userSpaceOnUse" color-interpolation-filters="sRGB">
<feFlood flood-opacity="0" result="BackgroundImageFix"/>
<feBlend mode="normal" in="SourceGraphic" in2="BackgroundImageFix" result="shape"/>
<feColorMatrix in="SourceAlpha" type="matrix" values="0 0 0 0 0 0 0 0 0 0 0 0 0 0 0 0 0 0 127 0" result="hardAlpha"/>
<feOffset dx="78.02" dy="75.01"/>
<feGaussianBlur stdDeviation="23.15"/>
<feComposite in2="hardAlpha" operator="arithmetic" k2="-1" k3="1"/>
<feColorMatrix type="matrix" values="0 0 0 0 0 0 0 0 0 0 0 0 0 0 0 0 0 0 0.25 0"/>
<feBlend mode="normal" in2="shape" result="effect1_innerShadow_33_127182"/>
<feColorMatrix in="SourceAlpha" type="matrix" values="0 0 0 0 0 0 0 0 0 0 0 0 0 0 0 0 0 0 127 0" result="hardAlpha"/>
<feOffset dx="-56.02" dy="83.01"/>
<feGaussianBlur stdDeviation="23.525"/>
<feComposite in2="hardAlpha" operator="arithmetic" k2="-1" k3="1"/>
<feColorMatrix type="matrix" values="0 0 0 0 1 0 0 0 0 1 0 0 0 0 1 0 0 0 0.2 0"/>
<feBlend mode="normal" in2="effect1_innerShadow_33_127182" result="effect2_innerShadow_33_127182"/>
</filter>
<filter id="filter1_i_33_127182" x="135.627" y="151.825" width="18.6802" height="135.032" filterUnits="userSpaceOnUse" color-interpolation-filters="sRGB">
<feFlood flood-opacity="0" result="BackgroundImageFix"/>
<feBlend mode="normal" in="SourceGraphic" in2="BackgroundImageFix" result="shape"/>
<feColorMatrix in="SourceAlpha" type="matrix" values="0 0 0 0 0 0 0 0 0 0 0 0 0 0 0 0 0 0 127 0" result="hardAlpha"/>
<feOffset dx="0.752418" dy="3.00967"/>
<feGaussianBlur stdDeviation="1.50484"/>
<feComposite in2="hardAlpha" operator="arithmetic" k2="-1" k3="1"/>
<feColorMatrix type="matrix" values="0 0 0 0 0 0 0 0 0 0 0 0 0 0 0 0 0 0 0.25 0"/>
<feBlend mode="normal" in2="shape" result="effect1_innerShadow_33_127182"/>
</filter>
<filter id="filter2_i_33_127182" x="84.2364" y="199.683" width="5.4023" height="96.2501" filterUnits="userSpaceOnUse" color-interpolation-filters="sRGB">
<feFlood flood-opacity="0" result="BackgroundImageFix"/>
<feBlend mode="normal" in="SourceGraphic" in2="BackgroundImageFix" result="shape"/>
<feColorMatrix in="SourceAlpha" type="matrix" values="0 0 0 0 0 0 0 0 0 0 0 0 0 0 0 0 0 0 127 0" result="hardAlpha"/>
<feOffset dx="-1.50484" dy="3.00967"/>
<feGaussianBlur stdDeviation="1.50484"/>
<feComposite in2="hardAlpha" operator="arithmetic" k2="-1" k3="1"/>
<feColorMatrix type="matrix" values="0 0 0 0 0 0 0 0 0 0 0 0 0 0 0 0 0 0 0.25 0"/>
<feBlend mode="normal" in2="shape" result="effect1_innerShadow_33_127182"/>
</filter>
<filter id="filter3_ii_33_127182" x="-47.05" y="84.1639" width="298.35" height="235.181" filterUnits="userSpaceOnUse" color-interpolation-filters="sRGB">
<feFlood flood-opacity="0" result="BackgroundImageFix"/>
<feBlend mode="normal" in="SourceGraphic" in2="BackgroundImageFix" result="shape"/>
<feColorMatrix in="SourceAlpha" type="matrix" values="0 0 0 0 0 0 0 0 0 0 0 0 0 0 0 0 0 0 127 0" result="hardAlpha"/>
<feOffset dx="78.02" dy="75.01"/>
<feGaussianBlur stdDeviation="23.15"/>
<feComposite in2="hardAlpha" operator="arithmetic" k2="-1" k3="1"/>
<feColorMatrix type="matrix" values="0 0 0 0 0 0 0 0 0 0 0 0 0 0 0 0 0 0 0.25 0"/>
<feBlend mode="normal" in2="shape" result="effect1_innerShadow_33_127182"/>
<feColorMatrix in="SourceAlpha" type="matrix" values="0 0 0 0 0 0 0 0 0 0 0 0 0 0 0 0 0 0 127 0" result="hardAlpha"/>
<feOffset dx="-56.02" dy="83.01"/>
<feGaussianBlur stdDeviation="23.525"/>
<feComposite in2="hardAlpha" operator="arithmetic" k2="-1" k3="1"/>
<feColorMatrix type="matrix" values="0 0 0 0 1 0 0 0 0 1 0 0 0 0 1 0 0 0 0.2 0"/>
<feBlend mode="normal" in2="effect1_innerShadow_33_127182" result="effect2_innerShadow_33_127182"/>
</filter>
<filter id="filter4_ii_33_127182" x="-45.4914" y="61.8852" width="294.453" height="240.132" filterUnits="userSpaceOnUse" color-interpolation-filters="sRGB">
<feFlood flood-opacity="0" result="BackgroundImageFix"/>
<feBlend mode="normal" in="SourceGraphic" in2="BackgroundImageFix" result="shape"/>
<feColorMatrix in="SourceAlpha" type="matrix" values="0 0 0 0 0 0 0 0 0 0 0 0 0 0 0 0 0 0 127 0" result="hardAlpha"/>
<feOffset dx="78.02" dy="75.01"/>
<feGaussianBlur stdDeviation="23.15"/>
<feComposite in2="hardAlpha" operator="arithmetic" k2="-1" k3="1"/>
<feColorMatrix type="matrix" values="0 0 0 0 0 0 0 0 0 0 0 0 0 0 0 0 0 0 0.25 0"/>
<feBlend mode="normal" in2="shape" result="effect1_innerShadow_33_127182"/>
<feColorMatrix in="SourceAlpha" type="matrix" values="0 0 0 0 0 0 0 0 0 0 0 0 0 0 0 0 0 0 127 0" result="hardAlpha"/>
<feOffset dx="-56.02" dy="83.01"/>
<feGaussianBlur stdDeviation="23.525"/>
<feComposite in2="hardAlpha" operator="arithmetic" k2="-1" k3="1"/>
<feColorMatrix type="matrix" values="0 0 0 0 1 0 0 0 0 1 0 0 0 0 1 0 0 0 0.2 0"/>
<feBlend mode="normal" in2="effect1_innerShadow_33_127182" result="effect2_innerShadow_33_127182"/>
</filter>
<filter id="filter5_i_33_127182" x="85.0157" y="160.902" width="4.623" height="96.2501" filterUnits="userSpaceOnUse" color-interpolation-filters="sRGB">
<feFlood flood-opacity="0" result="BackgroundImageFix"/>
<feBlend mode="normal" in="SourceGraphic" in2="BackgroundImageFix" result="shape"/>
<feColorMatrix in="SourceAlpha" type="matrix" values="0 0 0 0 0 0 0 0 0 0 0 0 0 0 0 0 0 0 127 0" result="hardAlpha"/>
<feOffset dx="-1.50484" dy="3.00967"/>
<feGaussianBlur stdDeviation="1.50484"/>
<feComposite in2="hardAlpha" operator="arithmetic" k2="-1" k3="1"/>
<feColorMatrix type="matrix" values="0 0 0 0 0 0 0 0 0 0 0 0 0 0 0 0 0 0 0.43 0"/>
<feBlend mode="normal" in2="shape" result="effect1_innerShadow_33_127182"/>
</filter>
<filter id="filter6_i_33_127182" x="148.879" y="181.53" width="8.46573" height="64.0698" filterUnits="userSpaceOnUse" color-interpolation-filters="sRGB">
<feFlood flood-opacity="0" result="BackgroundImageFix"/>
<feBlend mode="normal" in="SourceGraphic" in2="BackgroundImageFix" result="shape"/>
<feColorMatrix in="SourceAlpha" type="matrix" values="0 0 0 0 0 0 0 0 0 0 0 0 0 0 0 0 0 0 127 0" result="hardAlpha"/>
<feOffset dx="3.76209" dy="3.00967"/>
<feGaussianBlur stdDeviation="1.50484"/>
<feComposite in2="hardAlpha" operator="arithmetic" k2="-1" k3="1"/>
<feColorMatrix type="matrix" values="0 0 0 0 0 0 0 0 0 0 0 0 0 0 0 0 0 0 0.25 0"/>
<feBlend mode="normal" in2="shape" result="effect1_innerShadow_33_127182"/>
</filter>
<filter id="filter7_dii_33_127182" x="-38.4758" y="22.2787" width="280.422" height="218.678" filterUnits="userSpaceOnUse" color-interpolation-filters="sRGB">
<feFlood flood-opacity="0" result="BackgroundImageFix"/>
<feColorMatrix in="SourceAlpha" type="matrix" values="0 0 0 0 0 0 0 0 0 0 0 0 0 0 0 0 0 0 127 0" result="hardAlpha"/>
<feOffset dy="4"/>
<feComposite in2="hardAlpha" operator="out"/>
<feColorMatrix type="matrix" values="0 0 0 0 0 0 0 0 0 0 0 0 0 0 0 0 0 0 0.25 0"/>
<feBlend mode="normal" in2="BackgroundImageFix" result="effect1_dropShadow_33_127182"/>
<feBlend mode="normal" in="SourceGraphic" in2="effect1_dropShadow_33_127182" result="shape"/>
<feColorMatrix in="SourceAlpha" type="matrix" values="0 0 0 0 0 0 0 0 0 0 0 0 0 0 0 0 0 0 127 0" result="hardAlpha"/>
<feOffset dx="78.02" dy="75.01"/>
<feGaussianBlur stdDeviation="23.15"/>
<feComposite in2="hardAlpha" operator="arithmetic" k2="-1" k3="1"/>
<feColorMatrix type="matrix" values="0 0 0 0 0 0 0 0 0 0 0 0 0 0 0 0 0 0 0.25 0"/>
<feBlend mode="normal" in2="shape" result="effect2_innerShadow_33_127182"/>
<feColorMatrix in="SourceAlpha" type="matrix" values="0 0 0 0 0 0 0 0 0 0 0 0 0 0 0 0 0 0 127 0" result="hardAlpha"/>
<feOffset dx="-56.02" dy="83.01"/>
<feGaussianBlur stdDeviation="23.525"/>
<feComposite in2="hardAlpha" operator="arithmetic" k2="-1" k3="1"/>
<feColorMatrix type="matrix" values="0 0 0 0 1 0 0 0 0 1 0 0 0 0 1 0 0 0 0.2 0"/>
<feBlend mode="normal" in2="effect2_innerShadow_33_127182" result="effect3_innerShadow_33_127182"/>
</filter>
<filter id="filter8_ii_33_127182" x="-34.5783" y="5.77596" width="271.848" height="218.678" filterUnits="userSpaceOnUse" color-interpolation-filters="sRGB">
<feFlood flood-opacity="0" result="BackgroundImageFix"/>
<feBlend mode="normal" in="SourceGraphic" in2="BackgroundImageFix" result="shape"/>
<feColorMatrix in="SourceAlpha" type="matrix" values="0 0 0 0 0 0 0 0 0 0 0 0 0 0 0 0 0 0 127 0" result="hardAlpha"/>
<feOffset dx="78.02" dy="75.01"/>
<feGaussianBlur stdDeviation="23.15"/>
<feComposite in2="hardAlpha" operator="arithmetic" k2="-1" k3="1"/>
<feColorMatrix type="matrix" values="0 0 0 0 0 0 0 0 0 0 0 0 0 0 0 0 0 0 0.25 0"/>
<feBlend mode="normal" in2="shape" result="effect1_innerShadow_33_127182"/>
<feColorMatrix in="SourceAlpha" type="matrix" values="0 0 0 0 0 0 0 0 0 0 0 0 0 0 0 0 0 0 127 0" result="hardAlpha"/>
<feOffset dx="-56.02" dy="83.01"/>
<feGaussianBlur stdDeviation="23.525"/>
<feComposite in2="hardAlpha" operator="arithmetic" k2="-1" k3="1"/>
<feColorMatrix type="matrix" values="0 0 0 0 1 0 0 0 0 1 0 0 0 0 1 0 0 0 0.2 0"/>
<feBlend mode="normal" in2="effect1_innerShadow_33_127182" result="effect2_innerShadow_33_127182"/>
</filter>
<filter id="filter9_i_33_127182" x="85.0435" y="157.892" width="5.37542" height="18.6873" filterUnits="userSpaceOnUse" color-interpolation-filters="sRGB">
<feFlood flood-opacity="0" result="BackgroundImageFix"/>
<feBlend mode="normal" in="SourceGraphic" in2="BackgroundImageFix" result="shape"/>
<feColorMatrix in="SourceAlpha" type="matrix" values="0 0 0 0 0 0 0 0 0 0 0 0 0 0 0 0 0 0 127 0" result="hardAlpha"/>
<feOffset dx="-2.25725" dy="-10.5338"/>
<feGaussianBlur stdDeviation="1.50484"/>
<feComposite in2="hardAlpha" operator="arithmetic" k2="-1" k3="1"/>
<feColorMatrix type="matrix" values="0 0 0 0 0 0 0 0 0 0 0 0 0 0 0 0 0 0 0.25 0"/>
<feBlend mode="normal" in2="shape" result="effect1_innerShadow_33_127182"/>
</filter>
<filter id="filter10_i_33_127182" x="24.9434" y="9.58554" width="160.381" height="153.792" filterUnits="userSpaceOnUse" color-interpolation-filters="sRGB">
<feFlood flood-opacity="0" result="BackgroundImageFix"/>
<feBlend mode="normal" in="SourceGraphic" in2="BackgroundImageFix" result="shape"/>
<feColorMatrix in="SourceAlpha" type="matrix" values="0 0 0 0 0 0 0 0 0 0 0 0 0 0 0 0 0 0 127 0" result="hardAlpha"/>
<feOffset dx="5.26692" dy="-5.26692"/>
<feGaussianBlur stdDeviation="13.1673"/>
<feComposite in2="hardAlpha" operator="arithmetic" k2="-1" k3="1"/>
<feColorMatrix type="matrix" values="0 0 0 0 0 0 0 0 0 0 0 0 0 0 0 0 0 0 0.25 0"/>
<feBlend mode="normal" in2="shape" result="effect1_innerShadow_33_127182"/>
</filter>
<filter id="filter11_i_33_127182" x="137.966" y="153.475" width="12.3632" height="16.2119" filterUnits="userSpaceOnUse" color-interpolation-filters="sRGB">
<feFlood flood-opacity="0" result="BackgroundImageFix"/>
<feBlend mode="normal" in="SourceGraphic" in2="BackgroundImageFix" result="shape"/>
<feColorMatrix in="SourceAlpha" type="matrix" values="0 0 0 0 0 0 0 0 0 0 0 0 0 0 0 0 0 0 127 0" result="hardAlpha"/>
<feOffset dx="4.51451" dy="4.51451"/>
<feGaussianBlur stdDeviation="1.50484"/>
<feComposite in2="hardAlpha" operator="arithmetic" k2="-1" k3="1"/>
<feColorMatrix type="matrix" values="0 0 0 0 0 0 0 0 0 0 0 0 0 0 0 0 0 0 0.25 0"/>
<feBlend mode="normal" in2="shape" result="effect1_innerShadow_33_127182"/>
</filter>
<linearGradient id="paint0_linear_33_127182" x1="46.3787" y1="21.4536" x2="46.3787" y2="36.306" gradientUnits="userSpaceOnUse">
<stop stop-color="#AC711B" stop-opacity="0"/>
<stop offset="0.291667" stop-color="#613B04" stop-opacity="0.0844156"/>
<stop offset="1" stop-color="#613B04"/>
</linearGradient>
</defs>
</svg>
