<svg width="419" height="523" viewBox="0 0 419 523" fill="none" xmlns="http://www.w3.org/2000/svg">
<path d="M0 431H419V513C419 518.523 414.523 523 409 523H10C4.47716 523 0 518.523 0 513V431Z" fill="black" fill-opacity="0.12"/>
<g filter="url(#filter0_ii_23_40959)">
<path d="M10 200.5C10 89.7669 99.7669 0 210.5 0C321.233 0 411 89.7669 411 200.5V479H10V200.5Z" fill="#D6D3D1"/>
</g>
<g filter="url(#filter1_i_23_40959)">
<path d="M10 240.5C10 129.767 99.7669 40 210.5 40C321.233 40 411 129.767 411 240.5V479H10V240.5Z" fill="#A8A29E"/>
</g>
<path d="M51 239.5C51 151.411 122.411 80 210.5 80C298.589 80 370 151.411 370 239.5V463H51V239.5Z" fill="#854D0E"/>
<g filter="url(#filter2_i_23_40959)">
<path d="M51 239.5C51 151.411 122.411 80 210.5 80C298.589 80 370 151.411 370 239.5V389H51V239.5Z" fill="#44403C"/>
</g>
<g filter="url(#filter3_ii_23_40959)">
<mask id="mask0_23_40959" style="mask-type:alpha" maskUnits="userSpaceOnUse" x="51" y="80" width="319" height="383">
<path d="M51 239.5C51 151.411 122.411 80 210.5 80C298.589 80 370 151.411 370 239.5V463H51V239.5Z" fill="#44403C"/>
</mask>
<g mask="url(#mask0_23_40959)">
<g filter="url(#filter4_i_23_40959)">
<g filter="url(#filter5_dii_23_40959)">
<path d="M51 75C51 72.7909 52.7909 71 55 71H100C102.209 71 104 72.7909 104 75V446C104 448.209 102.209 450 100 450H55C52.7909 450 51 448.209 51 446V75Z" fill="#A16207"/>
</g>
<g filter="url(#filter6_dii_23_40959)">
<path d="M104 75C104 72.7909 105.791 71 108 71H153C155.209 71 157 72.7909 157 75V446C157 448.209 155.209 450 153 450H108C105.791 450 104 448.209 104 446V75Z" fill="#A16207"/>
</g>
<g filter="url(#filter7_dii_23_40959)">
<path d="M157 75C157 72.7909 158.791 71 161 71H206C208.209 71 210 72.7909 210 75V446C210 448.209 208.209 450 206 450H161C158.791 450 157 448.209 157 446V75Z" fill="#A16207"/>
</g>
<g filter="url(#filter8_dii_23_40959)">
<path d="M210 75C210 72.7909 211.791 71 214 71H259C261.209 71 263 72.7909 263 75V446C263 448.209 261.209 450 259 450H214C211.791 450 210 448.209 210 446V75Z" fill="#A16207"/>
</g>
<g filter="url(#filter9_dii_23_40959)">
<path d="M263 75C263 72.7909 264.791 71 267 71H312C314.209 71 316 72.7909 316 75V446C316 448.209 314.209 450 312 450H267C264.791 450 263 448.209 263 446V75Z" fill="#A16207"/>
</g>
<g filter="url(#filter10_dii_23_40959)">
<path d="M316 75C316 72.7909 317.791 71 320 71H366C368.209 71 370 72.7909 370 75V446C370 448.209 368.209 450 366 450H320C317.791 450 316 448.209 316 446V75Z" fill="#A16207"/>
</g>
</g>
<g filter="url(#filter11_d_23_40959)">
<path d="M53.0537 240L193.271 237.428C199.228 237.319 204 232.458 204 226.5C204 220.542 199.228 215.681 193.271 215.572L53.0537 213C51.9195 213 51 213.806 51 214.8V238.2C51 239.194 51.9195 240 53.0537 240Z" fill="#334155"/>
</g>
<g filter="url(#filter12_i_23_40959)">
<path d="M53.0537 243L194.885 239.665C199.954 239.545 204 235.403 204 230.333C204 225.229 199.901 221.072 194.798 221L53.0537 219C51.9195 219 51 219.827 51 220.846V241.154C51 242.173 51.9195 243 53.0537 243Z" fill="#1E293B"/>
</g>
<rect x="71" y="225" width="10" height="13" rx="5" fill="#475569"/>
<rect x="71" y="228" width="10" height="10" rx="5" fill="#334155"/>
<rect x="126" y="225" width="10" height="13" rx="5" fill="#475569"/>
<rect x="126" y="228" width="10" height="10" rx="5" fill="#334155"/>
<rect x="180" y="225" width="10" height="13" rx="5" fill="#475569"/>
<rect x="180" y="228" width="10" height="10" rx="5" fill="#334155"/>
<g filter="url(#filter13_d_23_40959)">
<path d="M367.946 240L227.729 237.428C221.772 237.319 217 232.458 217 226.5C217 220.542 221.772 215.681 227.729 215.572L367.946 213C369.081 213 370 213.806 370 214.8V238.2C370 239.194 369.081 240 367.946 240Z" fill="#334155"/>
</g>
<g filter="url(#filter14_i_23_40959)">
<path d="M367.946 243L226.115 239.665C221.046 239.545 217 235.403 217 230.333C217 225.229 221.099 221.072 226.202 221L367.946 219C369.081 219 370 219.827 370 220.846V241.154C370 242.173 369.081 243 367.946 243Z" fill="#1E293B"/>
</g>
<rect width="10" height="13" rx="5" transform="matrix(-1 0 0 1 350 225)" fill="#475569"/>
<rect width="10" height="10" rx="5" transform="matrix(-1 0 0 1 350 228)" fill="#334155"/>
<rect width="10" height="13" rx="5" transform="matrix(-1 0 0 1 295 225)" fill="#475569"/>
<rect width="10" height="10" rx="5" transform="matrix(-1 0 0 1 295 228)" fill="#334155"/>
<rect width="10" height="13" rx="5" transform="matrix(-1 0 0 1 241 225)" fill="#475569"/>
<rect width="10" height="10" rx="5" transform="matrix(-1 0 0 1 241 228)" fill="#334155"/>
<g filter="url(#filter15_d_23_40959)">
<path d="M53.0537 390L193.271 387.428C199.228 387.319 204 382.458 204 376.5C204 370.542 199.228 365.681 193.271 365.572L53.0537 363C51.9195 363 51 363.806 51 364.8V388.2C51 389.194 51.9195 390 53.0537 390Z" fill="#334155"/>
</g>
<g filter="url(#filter16_i_23_40959)">
<path d="M53.0537 393L194.885 389.665C199.954 389.545 204 385.403 204 380.333C204 375.229 199.901 371.072 194.798 371L53.0537 369C51.9195 369 51 369.827 51 370.846V391.154C51 392.173 51.9195 393 53.0537 393Z" fill="#1E293B"/>
</g>
<rect x="71" y="375" width="10" height="13" rx="5" fill="#475569"/>
<rect x="71" y="378" width="10" height="10" rx="5" fill="#334155"/>
<rect x="126" y="375" width="10" height="13" rx="5" fill="#475569"/>
<rect x="126" y="378" width="10" height="10" rx="5" fill="#334155"/>
<rect x="180" y="375" width="10" height="13" rx="5" fill="#475569"/>
<rect x="180" y="378" width="10" height="10" rx="5" fill="#334155"/>
<g filter="url(#filter17_d_23_40959)">
<path d="M367.946 390L227.729 387.428C221.772 387.319 217 382.458 217 376.5C217 370.542 221.772 365.681 227.729 365.572L367.946 363C369.081 363 370 363.806 370 364.8V388.2C370 389.194 369.081 390 367.946 390Z" fill="#334155"/>
</g>
<g filter="url(#filter18_i_23_40959)">
<path d="M367.946 393L226.115 389.665C221.046 389.545 217 385.403 217 380.333C217 375.229 221.099 371.072 226.202 371L367.946 369C369.081 369 370 369.827 370 370.846V391.154C370 392.173 369.081 393 367.946 393Z" fill="#1E293B"/>
</g>
<rect width="10" height="13" rx="5" transform="matrix(-1 0 0 1 350 375)" fill="#475569"/>
<rect width="10" height="10" rx="5" transform="matrix(-1 0 0 1 350 378)" fill="#334155"/>
<rect width="10" height="13" rx="5" transform="matrix(-1 0 0 1 295 375)" fill="#475569"/>
<rect width="10" height="10" rx="5" transform="matrix(-1 0 0 1 295 378)" fill="#334155"/>
<rect width="10" height="13" rx="5" transform="matrix(-1 0 0 1 241 375)" fill="#475569"/>
<rect width="10" height="10" rx="5" transform="matrix(-1 0 0 1 241 378)" fill="#334155"/>
</g>
</g>
<path d="M10 492H411V506C411 510.418 407.418 514 403 514H18C13.5817 514 10 510.418 10 506V492Z" fill="#854D0E"/>
<g filter="url(#filter19_i_23_40959)">
<path d="M10 490C10 494.418 13.5817 498 18 498H403C407.418 498 411 494.418 411 490V463H10V490Z" fill="#A16207"/>
</g>
<defs>
<filter id="filter0_ii_23_40959" x="-21" y="-80" width="512" height="559" filterUnits="userSpaceOnUse" color-interpolation-filters="sRGB">
<feFlood flood-opacity="0" result="BackgroundImageFix"/>
<feBlend mode="normal" in="SourceGraphic" in2="BackgroundImageFix" result="shape"/>
<feColorMatrix in="SourceAlpha" type="matrix" values="0 0 0 0 0 0 0 0 0 0 0 0 0 0 0 0 0 0 127 0" result="hardAlpha"/>
<feOffset dx="104" dy="-168"/>
<feGaussianBlur stdDeviation="40"/>
<feComposite in2="hardAlpha" operator="arithmetic" k2="-1" k3="1"/>
<feColorMatrix type="matrix" values="0 0 0 0 0 0 0 0 0 0 0 0 0 0 0 0 0 0 0.25 0"/>
<feBlend mode="normal" in2="shape" result="effect1_innerShadow_23_40959"/>
<feColorMatrix in="SourceAlpha" type="matrix" values="0 0 0 0 0 0 0 0 0 0 0 0 0 0 0 0 0 0 127 0" result="hardAlpha"/>
<feOffset dx="-72" dy="-72"/>
<feGaussianBlur stdDeviation="15.5"/>
<feComposite in2="hardAlpha" operator="arithmetic" k2="-1" k3="1"/>
<feColorMatrix type="matrix" values="0 0 0 0 1 0 0 0 0 1 0 0 0 0 1 0 0 0 0.25 0"/>
<feBlend mode="normal" in2="effect1_innerShadow_23_40959" result="effect2_innerShadow_23_40959"/>
</filter>
<filter id="filter1_i_23_40959" x="10" y="40" width="401" height="439" filterUnits="userSpaceOnUse" color-interpolation-filters="sRGB">
<feFlood flood-opacity="0" result="BackgroundImageFix"/>
<feBlend mode="normal" in="SourceGraphic" in2="BackgroundImageFix" result="shape"/>
<feColorMatrix in="SourceAlpha" type="matrix" values="0 0 0 0 0 0 0 0 0 0 0 0 0 0 0 0 0 0 127 0" result="hardAlpha"/>
<feOffset dy="1000"/>
<feGaussianBlur stdDeviation="2"/>
<feComposite in2="hardAlpha" operator="arithmetic" k2="-1" k3="1"/>
<feColorMatrix type="matrix" values="0 0 0 0 1 0 0 0 0 1 0 0 0 0 1 0 0 0 0.05 0"/>
<feBlend mode="normal" in2="shape" result="effect1_innerShadow_23_40959"/>
</filter>
<filter id="filter2_i_23_40959" x="51" y="80" width="319" height="377" filterUnits="userSpaceOnUse" color-interpolation-filters="sRGB">
<feFlood flood-opacity="0" result="BackgroundImageFix"/>
<feBlend mode="normal" in="SourceGraphic" in2="BackgroundImageFix" result="shape"/>
<feColorMatrix in="SourceAlpha" type="matrix" values="0 0 0 0 0 0 0 0 0 0 0 0 0 0 0 0 0 0 127 0" result="hardAlpha"/>
<feOffset dy="124"/>
<feGaussianBlur stdDeviation="34"/>
<feComposite in2="hardAlpha" operator="arithmetic" k2="-1" k3="1"/>
<feColorMatrix type="matrix" values="0 0 0 0 0 0 0 0 0 0 0 0 0 0 0 0 0 0 0.25 0"/>
<feBlend mode="normal" in2="shape" result="effect1_innerShadow_23_40959"/>
</filter>
<filter id="filter3_ii_23_40959" x="51" y="80" width="319" height="430" filterUnits="userSpaceOnUse" color-interpolation-filters="sRGB">
<feFlood flood-opacity="0" result="BackgroundImageFix"/>
<feBlend mode="normal" in="SourceGraphic" in2="BackgroundImageFix" result="shape"/>
<feColorMatrix in="SourceAlpha" type="matrix" values="0 0 0 0 0 0 0 0 0 0 0 0 0 0 0 0 0 0 127 0" result="hardAlpha"/>
<feOffset dy="20"/>
<feComposite in2="hardAlpha" operator="arithmetic" k2="-1" k3="1"/>
<feColorMatrix type="matrix" values="0 0 0 0 0 0 0 0 0 0 0 0 0 0 0 0 0 0 0.25 0"/>
<feBlend mode="normal" in2="shape" result="effect1_innerShadow_23_40959"/>
<feColorMatrix in="SourceAlpha" type="matrix" values="0 0 0 0 0 0 0 0 0 0 0 0 0 0 0 0 0 0 127 0" result="hardAlpha"/>
<feOffset dy="60"/>
<feGaussianBlur stdDeviation="34"/>
<feComposite in2="hardAlpha" operator="arithmetic" k2="-1" k3="1"/>
<feColorMatrix type="matrix" values="0 0 0 0 0 0 0 0 0 0 0 0 0 0 0 0 0 0 0.25 0"/>
<feBlend mode="normal" in2="effect1_innerShadow_23_40959" result="effect2_innerShadow_23_40959"/>
</filter>
<filter id="filter4_i_23_40959" x="51" y="71" width="319" height="383" filterUnits="userSpaceOnUse" color-interpolation-filters="sRGB">
<feFlood flood-opacity="0" result="BackgroundImageFix"/>
<feBlend mode="normal" in="SourceGraphic" in2="BackgroundImageFix" result="shape"/>
<feColorMatrix in="SourceAlpha" type="matrix" values="0 0 0 0 0 0 0 0 0 0 0 0 0 0 0 0 0 0 127 0" result="hardAlpha"/>
<feOffset dy="4"/>
<feGaussianBlur stdDeviation="30"/>
<feComposite in2="hardAlpha" operator="arithmetic" k2="-1" k3="1"/>
<feColorMatrix type="matrix" values="0 0 0 0 0 0 0 0 0 0 0 0 0 0 0 0 0 0 0.25 0"/>
<feBlend mode="normal" in2="shape" result="effect1_innerShadow_23_40959"/>
</filter>
<filter id="filter5_dii_23_40959" x="51" y="71" width="53" height="387" filterUnits="userSpaceOnUse" color-interpolation-filters="sRGB">
<feFlood flood-opacity="0" result="BackgroundImageFix"/>
<feColorMatrix in="SourceAlpha" type="matrix" values="0 0 0 0 0 0 0 0 0 0 0 0 0 0 0 0 0 0 127 0" result="hardAlpha"/>
<feOffset dy="8"/>
<feComposite in2="hardAlpha" operator="out"/>
<feColorMatrix type="matrix" values="0 0 0 0 0 0 0 0 0 0 0 0 0 0 0 0 0 0 0.25 0"/>
<feBlend mode="normal" in2="BackgroundImageFix" result="effect1_dropShadow_23_40959"/>
<feBlend mode="normal" in="SourceGraphic" in2="effect1_dropShadow_23_40959" result="shape"/>
<feColorMatrix in="SourceAlpha" type="matrix" values="0 0 0 0 0 0 0 0 0 0 0 0 0 0 0 0 0 0 127 0" result="hardAlpha"/>
<feOffset dx="-1" dy="-1"/>
<feComposite in2="hardAlpha" operator="arithmetic" k2="-1" k3="1"/>
<feColorMatrix type="matrix" values="0 0 0 0 1 0 0 0 0 1 0 0 0 0 1 0 0 0 0.25 0"/>
<feBlend mode="normal" in2="shape" result="effect2_innerShadow_23_40959"/>
<feColorMatrix in="SourceAlpha" type="matrix" values="0 0 0 0 0 0 0 0 0 0 0 0 0 0 0 0 0 0 127 0" result="hardAlpha"/>
<feOffset dx="1"/>
<feComposite in2="hardAlpha" operator="arithmetic" k2="-1" k3="1"/>
<feColorMatrix type="matrix" values="0 0 0 0 0 0 0 0 0 0 0 0 0 0 0 0 0 0 0.25 0"/>
<feBlend mode="normal" in2="effect2_innerShadow_23_40959" result="effect3_innerShadow_23_40959"/>
</filter>
<filter id="filter6_dii_23_40959" x="104" y="71" width="53" height="387" filterUnits="userSpaceOnUse" color-interpolation-filters="sRGB">
<feFlood flood-opacity="0" result="BackgroundImageFix"/>
<feColorMatrix in="SourceAlpha" type="matrix" values="0 0 0 0 0 0 0 0 0 0 0 0 0 0 0 0 0 0 127 0" result="hardAlpha"/>
<feOffset dy="8"/>
<feComposite in2="hardAlpha" operator="out"/>
<feColorMatrix type="matrix" values="0 0 0 0 0 0 0 0 0 0 0 0 0 0 0 0 0 0 0.25 0"/>
<feBlend mode="normal" in2="BackgroundImageFix" result="effect1_dropShadow_23_40959"/>
<feBlend mode="normal" in="SourceGraphic" in2="effect1_dropShadow_23_40959" result="shape"/>
<feColorMatrix in="SourceAlpha" type="matrix" values="0 0 0 0 0 0 0 0 0 0 0 0 0 0 0 0 0 0 127 0" result="hardAlpha"/>
<feOffset dx="-1" dy="-1"/>
<feComposite in2="hardAlpha" operator="arithmetic" k2="-1" k3="1"/>
<feColorMatrix type="matrix" values="0 0 0 0 1 0 0 0 0 1 0 0 0 0 1 0 0 0 0.25 0"/>
<feBlend mode="normal" in2="shape" result="effect2_innerShadow_23_40959"/>
<feColorMatrix in="SourceAlpha" type="matrix" values="0 0 0 0 0 0 0 0 0 0 0 0 0 0 0 0 0 0 127 0" result="hardAlpha"/>
<feOffset dx="1"/>
<feComposite in2="hardAlpha" operator="arithmetic" k2="-1" k3="1"/>
<feColorMatrix type="matrix" values="0 0 0 0 0 0 0 0 0 0 0 0 0 0 0 0 0 0 0.25 0"/>
<feBlend mode="normal" in2="effect2_innerShadow_23_40959" result="effect3_innerShadow_23_40959"/>
</filter>
<filter id="filter7_dii_23_40959" x="157" y="71" width="53" height="387" filterUnits="userSpaceOnUse" color-interpolation-filters="sRGB">
<feFlood flood-opacity="0" result="BackgroundImageFix"/>
<feColorMatrix in="SourceAlpha" type="matrix" values="0 0 0 0 0 0 0 0 0 0 0 0 0 0 0 0 0 0 127 0" result="hardAlpha"/>
<feOffset dy="8"/>
<feComposite in2="hardAlpha" operator="out"/>
<feColorMatrix type="matrix" values="0 0 0 0 0 0 0 0 0 0 0 0 0 0 0 0 0 0 0.25 0"/>
<feBlend mode="normal" in2="BackgroundImageFix" result="effect1_dropShadow_23_40959"/>
<feBlend mode="normal" in="SourceGraphic" in2="effect1_dropShadow_23_40959" result="shape"/>
<feColorMatrix in="SourceAlpha" type="matrix" values="0 0 0 0 0 0 0 0 0 0 0 0 0 0 0 0 0 0 127 0" result="hardAlpha"/>
<feOffset dx="-1" dy="-1"/>
<feComposite in2="hardAlpha" operator="arithmetic" k2="-1" k3="1"/>
<feColorMatrix type="matrix" values="0 0 0 0 1 0 0 0 0 1 0 0 0 0 1 0 0 0 0.25 0"/>
<feBlend mode="normal" in2="shape" result="effect2_innerShadow_23_40959"/>
<feColorMatrix in="SourceAlpha" type="matrix" values="0 0 0 0 0 0 0 0 0 0 0 0 0 0 0 0 0 0 127 0" result="hardAlpha"/>
<feOffset dx="1"/>
<feComposite in2="hardAlpha" operator="arithmetic" k2="-1" k3="1"/>
<feColorMatrix type="matrix" values="0 0 0 0 0 0 0 0 0 0 0 0 0 0 0 0 0 0 0.25 0"/>
<feBlend mode="normal" in2="effect2_innerShadow_23_40959" result="effect3_innerShadow_23_40959"/>
</filter>
<filter id="filter8_dii_23_40959" x="210" y="71" width="53" height="387" filterUnits="userSpaceOnUse" color-interpolation-filters="sRGB">
<feFlood flood-opacity="0" result="BackgroundImageFix"/>
<feColorMatrix in="SourceAlpha" type="matrix" values="0 0 0 0 0 0 0 0 0 0 0 0 0 0 0 0 0 0 127 0" result="hardAlpha"/>
<feOffset dy="8"/>
<feComposite in2="hardAlpha" operator="out"/>
<feColorMatrix type="matrix" values="0 0 0 0 0 0 0 0 0 0 0 0 0 0 0 0 0 0 0.25 0"/>
<feBlend mode="normal" in2="BackgroundImageFix" result="effect1_dropShadow_23_40959"/>
<feBlend mode="normal" in="SourceGraphic" in2="effect1_dropShadow_23_40959" result="shape"/>
<feColorMatrix in="SourceAlpha" type="matrix" values="0 0 0 0 0 0 0 0 0 0 0 0 0 0 0 0 0 0 127 0" result="hardAlpha"/>
<feOffset dx="-1" dy="-1"/>
<feComposite in2="hardAlpha" operator="arithmetic" k2="-1" k3="1"/>
<feColorMatrix type="matrix" values="0 0 0 0 1 0 0 0 0 1 0 0 0 0 1 0 0 0 0.25 0"/>
<feBlend mode="normal" in2="shape" result="effect2_innerShadow_23_40959"/>
<feColorMatrix in="SourceAlpha" type="matrix" values="0 0 0 0 0 0 0 0 0 0 0 0 0 0 0 0 0 0 127 0" result="hardAlpha"/>
<feOffset dx="1"/>
<feComposite in2="hardAlpha" operator="arithmetic" k2="-1" k3="1"/>
<feColorMatrix type="matrix" values="0 0 0 0 0 0 0 0 0 0 0 0 0 0 0 0 0 0 0.25 0"/>
<feBlend mode="normal" in2="effect2_innerShadow_23_40959" result="effect3_innerShadow_23_40959"/>
</filter>
<filter id="filter9_dii_23_40959" x="263" y="71" width="53" height="387" filterUnits="userSpaceOnUse" color-interpolation-filters="sRGB">
<feFlood flood-opacity="0" result="BackgroundImageFix"/>
<feColorMatrix in="SourceAlpha" type="matrix" values="0 0 0 0 0 0 0 0 0 0 0 0 0 0 0 0 0 0 127 0" result="hardAlpha"/>
<feOffset dy="8"/>
<feComposite in2="hardAlpha" operator="out"/>
<feColorMatrix type="matrix" values="0 0 0 0 0 0 0 0 0 0 0 0 0 0 0 0 0 0 0.25 0"/>
<feBlend mode="normal" in2="BackgroundImageFix" result="effect1_dropShadow_23_40959"/>
<feBlend mode="normal" in="SourceGraphic" in2="effect1_dropShadow_23_40959" result="shape"/>
<feColorMatrix in="SourceAlpha" type="matrix" values="0 0 0 0 0 0 0 0 0 0 0 0 0 0 0 0 0 0 127 0" result="hardAlpha"/>
<feOffset dx="-1" dy="-1"/>
<feComposite in2="hardAlpha" operator="arithmetic" k2="-1" k3="1"/>
<feColorMatrix type="matrix" values="0 0 0 0 1 0 0 0 0 1 0 0 0 0 1 0 0 0 0.25 0"/>
<feBlend mode="normal" in2="shape" result="effect2_innerShadow_23_40959"/>
<feColorMatrix in="SourceAlpha" type="matrix" values="0 0 0 0 0 0 0 0 0 0 0 0 0 0 0 0 0 0 127 0" result="hardAlpha"/>
<feOffset dx="1"/>
<feComposite in2="hardAlpha" operator="arithmetic" k2="-1" k3="1"/>
<feColorMatrix type="matrix" values="0 0 0 0 0 0 0 0 0 0 0 0 0 0 0 0 0 0 0.25 0"/>
<feBlend mode="normal" in2="effect2_innerShadow_23_40959" result="effect3_innerShadow_23_40959"/>
</filter>
<filter id="filter10_dii_23_40959" x="316" y="71" width="54" height="387" filterUnits="userSpaceOnUse" color-interpolation-filters="sRGB">
<feFlood flood-opacity="0" result="BackgroundImageFix"/>
<feColorMatrix in="SourceAlpha" type="matrix" values="0 0 0 0 0 0 0 0 0 0 0 0 0 0 0 0 0 0 127 0" result="hardAlpha"/>
<feOffset dy="8"/>
<feComposite in2="hardAlpha" operator="out"/>
<feColorMatrix type="matrix" values="0 0 0 0 0 0 0 0 0 0 0 0 0 0 0 0 0 0 0.25 0"/>
<feBlend mode="normal" in2="BackgroundImageFix" result="effect1_dropShadow_23_40959"/>
<feBlend mode="normal" in="SourceGraphic" in2="effect1_dropShadow_23_40959" result="shape"/>
<feColorMatrix in="SourceAlpha" type="matrix" values="0 0 0 0 0 0 0 0 0 0 0 0 0 0 0 0 0 0 127 0" result="hardAlpha"/>
<feOffset dy="-1"/>
<feComposite in2="hardAlpha" operator="arithmetic" k2="-1" k3="1"/>
<feColorMatrix type="matrix" values="0 0 0 0 1 0 0 0 0 1 0 0 0 0 1 0 0 0 0.25 0"/>
<feBlend mode="normal" in2="shape" result="effect2_innerShadow_23_40959"/>
<feColorMatrix in="SourceAlpha" type="matrix" values="0 0 0 0 0 0 0 0 0 0 0 0 0 0 0 0 0 0 127 0" result="hardAlpha"/>
<feOffset dx="1"/>
<feComposite in2="hardAlpha" operator="arithmetic" k2="-1" k3="1"/>
<feColorMatrix type="matrix" values="0 0 0 0 0 0 0 0 0 0 0 0 0 0 0 0 0 0 0.25 0"/>
<feBlend mode="normal" in2="effect2_innerShadow_23_40959" result="effect3_innerShadow_23_40959"/>
</filter>
<filter id="filter11_d_23_40959" x="51" y="213" width="153" height="33" filterUnits="userSpaceOnUse" color-interpolation-filters="sRGB">
<feFlood flood-opacity="0" result="BackgroundImageFix"/>
<feColorMatrix in="SourceAlpha" type="matrix" values="0 0 0 0 0 0 0 0 0 0 0 0 0 0 0 0 0 0 127 0" result="hardAlpha"/>
<feOffset dy="6"/>
<feComposite in2="hardAlpha" operator="out"/>
<feColorMatrix type="matrix" values="0 0 0 0 0 0 0 0 0 0 0 0 0 0 0 0 0 0 0.25 0"/>
<feBlend mode="normal" in2="BackgroundImageFix" result="effect1_dropShadow_23_40959"/>
<feBlend mode="normal" in="SourceGraphic" in2="effect1_dropShadow_23_40959" result="shape"/>
</filter>
<filter id="filter12_i_23_40959" x="51" y="219" width="153" height="24" filterUnits="userSpaceOnUse" color-interpolation-filters="sRGB">
<feFlood flood-opacity="0" result="BackgroundImageFix"/>
<feBlend mode="normal" in="SourceGraphic" in2="BackgroundImageFix" result="shape"/>
<feColorMatrix in="SourceAlpha" type="matrix" values="0 0 0 0 0 0 0 0 0 0 0 0 0 0 0 0 0 0 127 0" result="hardAlpha"/>
<feOffset dx="1"/>
<feComposite in2="hardAlpha" operator="arithmetic" k2="-1" k3="1"/>
<feColorMatrix type="matrix" values="0 0 0 0 0 0 0 0 0 0 0 0 0 0 0 0 0 0 0.25 0"/>
<feBlend mode="normal" in2="shape" result="effect1_innerShadow_23_40959"/>
</filter>
<filter id="filter13_d_23_40959" x="217" y="213" width="153" height="33" filterUnits="userSpaceOnUse" color-interpolation-filters="sRGB">
<feFlood flood-opacity="0" result="BackgroundImageFix"/>
<feColorMatrix in="SourceAlpha" type="matrix" values="0 0 0 0 0 0 0 0 0 0 0 0 0 0 0 0 0 0 127 0" result="hardAlpha"/>
<feOffset dy="6"/>
<feComposite in2="hardAlpha" operator="out"/>
<feColorMatrix type="matrix" values="0 0 0 0 0 0 0 0 0 0 0 0 0 0 0 0 0 0 0.25 0"/>
<feBlend mode="normal" in2="BackgroundImageFix" result="effect1_dropShadow_23_40959"/>
<feBlend mode="normal" in="SourceGraphic" in2="effect1_dropShadow_23_40959" result="shape"/>
</filter>
<filter id="filter14_i_23_40959" x="217" y="219" width="153" height="24" filterUnits="userSpaceOnUse" color-interpolation-filters="sRGB">
<feFlood flood-opacity="0" result="BackgroundImageFix"/>
<feBlend mode="normal" in="SourceGraphic" in2="BackgroundImageFix" result="shape"/>
<feColorMatrix in="SourceAlpha" type="matrix" values="0 0 0 0 0 0 0 0 0 0 0 0 0 0 0 0 0 0 127 0" result="hardAlpha"/>
<feOffset dx="1"/>
<feComposite in2="hardAlpha" operator="arithmetic" k2="-1" k3="1"/>
<feColorMatrix type="matrix" values="0 0 0 0 0 0 0 0 0 0 0 0 0 0 0 0 0 0 0.25 0"/>
<feBlend mode="normal" in2="shape" result="effect1_innerShadow_23_40959"/>
</filter>
<filter id="filter15_d_23_40959" x="51" y="363" width="153" height="33" filterUnits="userSpaceOnUse" color-interpolation-filters="sRGB">
<feFlood flood-opacity="0" result="BackgroundImageFix"/>
<feColorMatrix in="SourceAlpha" type="matrix" values="0 0 0 0 0 0 0 0 0 0 0 0 0 0 0 0 0 0 127 0" result="hardAlpha"/>
<feOffset dy="6"/>
<feComposite in2="hardAlpha" operator="out"/>
<feColorMatrix type="matrix" values="0 0 0 0 0 0 0 0 0 0 0 0 0 0 0 0 0 0 0.25 0"/>
<feBlend mode="normal" in2="BackgroundImageFix" result="effect1_dropShadow_23_40959"/>
<feBlend mode="normal" in="SourceGraphic" in2="effect1_dropShadow_23_40959" result="shape"/>
</filter>
<filter id="filter16_i_23_40959" x="51" y="369" width="153" height="24" filterUnits="userSpaceOnUse" color-interpolation-filters="sRGB">
<feFlood flood-opacity="0" result="BackgroundImageFix"/>
<feBlend mode="normal" in="SourceGraphic" in2="BackgroundImageFix" result="shape"/>
<feColorMatrix in="SourceAlpha" type="matrix" values="0 0 0 0 0 0 0 0 0 0 0 0 0 0 0 0 0 0 127 0" result="hardAlpha"/>
<feOffset dx="1"/>
<feComposite in2="hardAlpha" operator="arithmetic" k2="-1" k3="1"/>
<feColorMatrix type="matrix" values="0 0 0 0 0 0 0 0 0 0 0 0 0 0 0 0 0 0 0.25 0"/>
<feBlend mode="normal" in2="shape" result="effect1_innerShadow_23_40959"/>
</filter>
<filter id="filter17_d_23_40959" x="217" y="363" width="153" height="33" filterUnits="userSpaceOnUse" color-interpolation-filters="sRGB">
<feFlood flood-opacity="0" result="BackgroundImageFix"/>
<feColorMatrix in="SourceAlpha" type="matrix" values="0 0 0 0 0 0 0 0 0 0 0 0 0 0 0 0 0 0 127 0" result="hardAlpha"/>
<feOffset dy="6"/>
<feComposite in2="hardAlpha" operator="out"/>
<feColorMatrix type="matrix" values="0 0 0 0 0 0 0 0 0 0 0 0 0 0 0 0 0 0 0.25 0"/>
<feBlend mode="normal" in2="BackgroundImageFix" result="effect1_dropShadow_23_40959"/>
<feBlend mode="normal" in="SourceGraphic" in2="effect1_dropShadow_23_40959" result="shape"/>
</filter>
<filter id="filter18_i_23_40959" x="217" y="369" width="153" height="24" filterUnits="userSpaceOnUse" color-interpolation-filters="sRGB">
<feFlood flood-opacity="0" result="BackgroundImageFix"/>
<feBlend mode="normal" in="SourceGraphic" in2="BackgroundImageFix" result="shape"/>
<feColorMatrix in="SourceAlpha" type="matrix" values="0 0 0 0 0 0 0 0 0 0 0 0 0 0 0 0 0 0 127 0" result="hardAlpha"/>
<feOffset dx="1"/>
<feComposite in2="hardAlpha" operator="arithmetic" k2="-1" k3="1"/>
<feColorMatrix type="matrix" values="0 0 0 0 0 0 0 0 0 0 0 0 0 0 0 0 0 0 0.25 0"/>
<feBlend mode="normal" in2="shape" result="effect1_innerShadow_23_40959"/>
</filter>
<filter id="filter19_i_23_40959" x="10" y="463" width="401" height="35" filterUnits="userSpaceOnUse" color-interpolation-filters="sRGB">
<feFlood flood-opacity="0" result="BackgroundImageFix"/>
<feBlend mode="normal" in="SourceGraphic" in2="BackgroundImageFix" result="shape"/>
<feColorMatrix in="SourceAlpha" type="matrix" values="0 0 0 0 0 0 0 0 0 0 0 0 0 0 0 0 0 0 127 0" result="hardAlpha"/>
<feOffset dy="-2"/>
<feComposite in2="hardAlpha" operator="arithmetic" k2="-1" k3="1"/>
<feColorMatrix type="matrix" values="0 0 0 0 1 0 0 0 0 1 0 0 0 0 1 0 0 0 0.25 0"/>
<feBlend mode="normal" in2="shape" result="effect1_innerShadow_23_40959"/>
</filter>
</defs>
</svg>
