<svg width="126" height="108" viewBox="0 0 126 108" fill="none" xmlns="http://www.w3.org/2000/svg">
<ellipse cx="62.8663" cy="64.4091" rx="37.9191" ry="39.0219" fill="black" fill-opacity="0.12"/>
<g filter="url(#filter0_i_33_127085)">
<path fill-rule="evenodd" clip-rule="evenodd" d="M35.9885 96.3591C35.1315 96.5486 34.2609 96.0917 33.9261 95.2767C33.5946 94.4699 33.8833 93.5427 34.6128 93.0709L43.4662 87.345C45.4078 86.0893 48.0153 86.9125 48.8975 89.0596C49.0141 89.3436 49.093 89.6323 49.1369 89.9207C51.1162 89.4602 53.1623 90.7134 53.5957 92.785L55.759 103.125C55.9376 103.979 55.4842 104.837 54.6802 105.167C53.8681 105.5 52.9329 105.198 52.4644 104.451L48.7002 98.454L45.8256 102.903C45.3466 103.644 44.4065 103.934 43.5922 103.592C42.7537 103.239 42.2993 102.323 42.526 101.441L44.3056 94.5208L35.9885 96.3591Z" fill="#EAB308"/>
</g>
<g filter="url(#filter1_i_33_127085)">
<path fill-rule="evenodd" clip-rule="evenodd" d="M92.2608 96.1671C93.1188 96.3947 93.9699 95.9397 94.2771 95.0891C94.5812 94.2471 94.2651 93.2581 93.525 92.7362L84.5426 86.4019C82.5729 85.0129 80.0065 85.7996 79.1971 88.0405C79.0899 88.3372 79.0205 88.6401 78.986 88.9438C77.0037 88.3936 75.0089 89.6527 74.6432 91.8282L72.8181 102.687C72.6674 103.583 73.1452 104.505 73.9548 104.879C74.7726 105.257 75.6929 104.968 76.1351 104.194L79.6894 97.9744L82.7569 102.879C83.2152 103.612 84.1354 103.903 84.9327 103.568C85.7516 103.223 86.1909 102.324 85.9595 101.466L83.9352 93.9589L92.2608 96.1671Z" fill="#EAB308"/>
</g>
<g filter="url(#filter2_diii_33_127085)">
<path d="M62.4069 18.3838C46.0758 18.5006 24.9897 42.7801 27.0874 63.0306C27.9123 70.993 31.3602 78.7329 37.4312 84.8347C51.4822 98.9571 74.2633 98.9571 88.3143 84.8347C94.3853 78.7329 97.8332 70.993 98.658 63.0306C100.708 43.2374 78.2454 18.2704 62.4069 18.3838Z" fill="#F1F5F9"/>
</g>
<g filter="url(#filter3_di_33_127085)">
<ellipse cx="6.49169" cy="12.0911" rx="6.49169" ry="12.0911" transform="matrix(-0.962757 0.270367 -0.42062 -0.907237 81.8252 64.3359)" fill="#F1F5F9"/>
<ellipse cx="6.4917" cy="12.0911" rx="6.4917" ry="12.0911" transform="matrix(0.962757 0.270367 0.420621 -0.907237 44.9043 64.3359)" fill="#F1F5F9"/>
<ellipse cx="62.8655" cy="59.792" rx="6.98509" ry="12.6215" transform="rotate(-180 62.8655 59.792)" fill="#F1F5F9"/>
</g>
<g filter="url(#filter4_dii_33_127085)">
<path d="M63.2137 2.37469C53.0067 2.4441 39.6918 21.1323 41.0029 33.1604C41.5184 37.8898 43.6734 42.4871 47.4677 46.1114C56.2496 54.4996 70.4879 54.4996 79.2698 46.1114C83.0642 42.4871 85.2191 37.8898 85.7346 33.1604C87.0161 21.4039 73.1128 2.30737 63.2137 2.37469Z" fill="#F1F5F9"/>
</g>
<path d="M99.7021 47.0575C94.4374 41.7205 88.6499 42.6207 86.7755 49.068C84.9011 55.5153 86.99 65.7698 92.2548 71.1068C94.618 73.5024 96.0762 71.4486 96.0762 71.4486L100.126 62.6075C100.126 62.6075 102.535 49.9296 99.7021 47.0575Z" fill="black" fill-opacity="0.2"/>
<path d="M26.2979 47.0575C31.5626 41.7205 37.3501 42.6207 39.2245 49.068C41.0989 55.5153 39.01 65.7698 33.7452 71.1068C31.382 73.5024 29.9238 71.4486 29.9238 71.4486L25.8741 62.6075C25.8741 62.6075 23.4646 49.9296 26.2979 47.0575Z" fill="black" fill-opacity="0.2"/>
<g filter="url(#filter5_ii_33_127085)">
<path fill-rule="evenodd" clip-rule="evenodd" d="M113.065 40.1748C115.275 37.9865 116.488 35.5971 116.219 33.4529C115.643 28.8621 108.488 27.134 100.239 29.5933C91.9894 32.0526 85.7689 37.7678 86.3451 42.3587C86.488 43.4975 87.0356 44.46 87.9043 45.2263C86.9985 45.7083 86.3039 46.421 85.8839 47.3683C84.0107 51.5935 88.3097 58.8848 95.486 63.654C102.662 68.4231 109.999 68.8641 111.872 64.6389C112.755 62.6459 112.266 59.9706 110.748 57.1997C117.393 57.0174 122.572 54.3591 123.156 50.3921C123.745 46.3877 119.469 42.2838 113.065 40.1748Z" fill="#F1F5F9"/>
</g>
<g filter="url(#filter6_ii_33_127085)">
<path fill-rule="evenodd" clip-rule="evenodd" d="M12.9354 40.1748C10.7252 37.9865 9.51171 35.5971 9.78079 33.4529C10.3569 28.8621 17.5115 27.1341 25.761 29.5933C34.0106 32.0526 40.2311 37.7678 39.6549 42.3587C39.512 43.4975 38.9644 44.46 38.0957 45.2263C39.0015 45.7083 39.6961 46.421 40.1161 47.3683C41.9893 51.5935 37.6903 58.8848 30.514 63.654C23.3376 68.4231 16.0015 68.8641 14.1282 64.6389C13.2446 62.6459 13.7344 59.9706 15.2516 57.1997C8.60691 57.0174 3.42777 54.3591 2.84432 50.3921C2.25537 46.3877 6.53072 42.2838 12.9354 40.1748Z" fill="#F1F5F9"/>
</g>
<path d="M57.8769 34.0188C57.8769 31.8085 56.5366 30.0166 54.8833 30.0166C53.2299 30.0166 51.8896 31.8085 51.8896 34.0188" stroke="black" stroke-opacity="0.7" stroke-width="2" stroke-linecap="round" stroke-linejoin="round"/>
<path d="M74.8407 34.0188C74.8407 31.8085 73.5005 30.0166 71.8471 30.0166C70.1938 30.0166 68.8535 31.8085 68.8535 34.0188" stroke="black" stroke-opacity="0.7" stroke-width="2" stroke-linecap="round" stroke-linejoin="round"/>
<g filter="url(#filter7_f_33_127085)">
<path fill-rule="evenodd" clip-rule="evenodd" d="M66.0765 50.1899C66.0765 51.4119 65.0858 52.4026 63.8638 52.4026C62.6418 52.4026 61.6511 51.4119 61.6511 50.1899V49.7565L60.7632 50.1078C59.6242 50.5583 58.3221 50.0056 57.8549 48.8734C57.3876 47.7412 57.9322 46.4582 59.0711 46.0077L62.4937 44.6539C62.5763 44.6212 62.6599 44.5938 62.7439 44.5715C63.0724 44.3784 63.4552 44.2676 63.8638 44.2676C64.2725 44.2676 64.6552 44.3784 64.9837 44.5715C65.0677 44.5938 65.1513 44.6212 65.234 44.6539L68.6565 46.0077C69.7955 46.4582 70.34 47.7412 69.8727 48.8734C69.4055 50.0056 68.1034 50.5583 66.9644 50.1078L66.0765 49.7565V50.1899Z" fill="black" fill-opacity="0.12"/>
</g>
<g filter="url(#filter8_d_33_127085)">
<g filter="url(#filter9_i_33_127085)">
<path fill-rule="evenodd" clip-rule="evenodd" d="M66.5287 52.7395C66.5287 54.2114 65.3355 55.4046 63.8636 55.4046C62.3918 55.4046 61.1986 54.2114 61.1986 52.7395V51.5719L60.4814 51.9128C58.9148 52.6577 57.1882 51.9315 56.6249 50.2908C56.0616 48.6502 56.8749 46.7164 58.4415 45.9716L61.8598 44.3464C61.965 44.2964 62.0709 44.253 62.1772 44.2161C62.6366 43.8402 63.2238 43.6147 63.8636 43.6147C64.5038 43.6147 65.0913 43.8405 65.5508 44.2167C65.6565 44.2535 65.7619 44.2967 65.8665 44.3464L69.2848 45.9716C70.8514 46.7164 71.6647 48.6502 71.1014 50.2908C70.5381 51.9315 68.8115 52.6577 67.2449 51.9128L66.5287 51.5723V52.7395Z" fill="#EF4444"/>
</g>
</g>
<g filter="url(#filter10_d_33_127085)">
<rect x="57.9629" y="37.6118" width="11.8009" height="9.61407" rx="4.80704" fill="#CA8A04"/>
</g>
<g filter="url(#filter11_di_33_127085)">
<path d="M63.7472 35.3931C63.1936 35.3931 62.6709 35.5391 62.2249 35.7955C61.0171 36.4897 59.2907 37.5898 58.0229 38.1671C57.4611 38.423 56.9889 38.8625 56.7016 39.5146C56.0973 40.8861 56.8199 42.4471 58.3155 43.0012C60.1732 43.6176 61.6059 47.8439 63.5774 47.9603C63.6333 47.9636 63.6899 47.9653 63.7472 47.9653C65.8286 47.9653 67.4382 43.6074 69.4119 43.0012C70.9075 42.4471 71.6301 40.8861 71.0258 39.5146C70.689 38.7502 70.1344 38.2977 69.4839 38.0771C68.1646 37.6298 66.5216 36.5668 65.3368 35.8341C64.8843 35.5542 64.3411 35.3931 63.7472 35.3931Z" fill="#FACC15"/>
</g>
<g opacity="0.4" filter="url(#filter12_f_33_127085)">
<path fill-rule="evenodd" clip-rule="evenodd" d="M61.6507 37.6057C61.6507 36.3837 62.6414 35.3931 63.8634 35.3931C65.0854 35.3931 66.076 36.3837 66.076 37.6057V44.2736C66.076 45.4956 65.0854 46.4862 63.8634 46.4862C62.6414 46.4862 61.6507 45.4956 61.6507 44.2736V37.6057ZM69.0266 39.0888C69.0266 38.6815 69.3568 38.3513 69.7641 38.3513C70.1715 38.3513 70.5017 38.6815 70.5017 39.0888V41.3114C70.5017 41.7188 70.1715 42.049 69.7641 42.049C69.3568 42.049 69.0266 41.7188 69.0266 41.3114V39.0888ZM57.9631 38.3513C57.5558 38.3513 57.2256 38.6815 57.2256 39.0888V41.3114C57.2256 41.7188 57.5558 42.049 57.9631 42.049C58.3705 42.049 58.7007 41.7188 58.7007 41.3114V39.0888C58.7007 38.6815 58.3705 38.3513 57.9631 38.3513Z" fill="white"/>
</g>
<g filter="url(#filter13_dii_33_127085)">
<g filter="url(#filter14_d_33_127085)">
<path d="M78.7488 5.94205C75.66 1.80611 69.0997 3.58443 65.6533 7.81615C53.7435 23.1353 65.4317 0.0778408 48.8517 4.56595C45.148 5.56852 44.4368 10.4984 45.4564 14.4127C46.0997 16.8815 47.9802 18.9446 50.3799 19.5223C51.5839 19.8121 53.8895 19.522 55.8853 19.5219C59.8768 19.5215 61.3735 22.3846 62.8704 22.3845C64.3672 22.3844 67.3611 17.3821 71.8516 18.3821C74.0162 18.1973 77.0587 18.8256 78.6807 17.0296C81.0318 14.4264 80.9209 8.85052 78.7488 5.94205Z" fill="#EF4444"/>
</g>
</g>
<g filter="url(#filter15_di_33_127085)">
<path d="M54.8879 7.71465C54.888 3.70884 58.148 0.430131 62.1517 0.409201C65.9319 0.389439 69.0515 3.29246 69.3024 7.06334L69.4519 9.31172C69.6986 13.0202 67.7903 16.5656 64.5476 18.4235L64.205 18.6198C63.3716 19.0973 62.3596 19.1281 61.5095 18.702L59.9034 17.8968C56.8242 16.353 54.8877 13.2046 54.8878 9.74192L54.8879 7.71465Z" fill="#EF4444"/>
</g>
<defs>
<filter id="filter0_i_33_127085" x="33.7891" y="86.7534" width="22.0088" height="18.5479" filterUnits="userSpaceOnUse" color-interpolation-filters="sRGB">
<feFlood flood-opacity="0" result="BackgroundImageFix"/>
<feBlend mode="normal" in="SourceGraphic" in2="BackgroundImageFix" result="shape"/>
<feColorMatrix in="SourceAlpha" type="matrix" values="0 0 0 0 0 0 0 0 0 0 0 0 0 0 0 0 0 0 127 0" result="hardAlpha"/>
<feOffset dy="-2"/>
<feComposite in2="hardAlpha" operator="arithmetic" k2="-1" k3="1"/>
<feColorMatrix type="matrix" values="0 0 0 0 0 0 0 0 0 0 0 0 0 0 0 0 0 0 0.25 0"/>
<feBlend mode="normal" in2="shape" result="effect1_innerShadow_33_127085"/>
</filter>
<filter id="filter1_i_33_127085" x="72.79" y="85.7114" width="21.6016" height="19.3325" filterUnits="userSpaceOnUse" color-interpolation-filters="sRGB">
<feFlood flood-opacity="0" result="BackgroundImageFix"/>
<feBlend mode="normal" in="SourceGraphic" in2="BackgroundImageFix" result="shape"/>
<feColorMatrix in="SourceAlpha" type="matrix" values="0 0 0 0 0 0 0 0 0 0 0 0 0 0 0 0 0 0 127 0" result="hardAlpha"/>
<feOffset dy="-2"/>
<feComposite in2="hardAlpha" operator="arithmetic" k2="-1" k3="1"/>
<feColorMatrix type="matrix" values="0 0 0 0 0 0 0 0 0 0 0 0 0 0 0 0 0 0 0.25 0"/>
<feBlend mode="normal" in2="shape" result="effect1_innerShadow_33_127085"/>
</filter>
<filter id="filter2_diii_33_127085" x="14.9424" y="14.3833" width="85.8467" height="93.043" filterUnits="userSpaceOnUse" color-interpolation-filters="sRGB">
<feFlood flood-opacity="0" result="BackgroundImageFix"/>
<feColorMatrix in="SourceAlpha" type="matrix" values="0 0 0 0 0 0 0 0 0 0 0 0 0 0 0 0 0 0 127 0" result="hardAlpha"/>
<feOffset dy="2"/>
<feComposite in2="hardAlpha" operator="out"/>
<feColorMatrix type="matrix" values="0 0 0 0 0 0 0 0 0 0 0 0 0 0 0 0 0 0 0.25 0"/>
<feBlend mode="normal" in2="BackgroundImageFix" result="effect1_dropShadow_33_127085"/>
<feBlend mode="normal" in="SourceGraphic" in2="effect1_dropShadow_33_127085" result="shape"/>
<feColorMatrix in="SourceAlpha" type="matrix" values="0 0 0 0 0 0 0 0 0 0 0 0 0 0 0 0 0 0 127 0" result="hardAlpha"/>
<feOffset dx="2" dy="-4"/>
<feGaussianBlur stdDeviation="5"/>
<feComposite in2="hardAlpha" operator="arithmetic" k2="-1" k3="1"/>
<feColorMatrix type="matrix" values="0 0 0 0 0 0 0 0 0 0 0 0 0 0 0 0 0 0 0.25 0"/>
<feBlend mode="normal" in2="shape" result="effect2_innerShadow_33_127085"/>
<feColorMatrix in="SourceAlpha" type="matrix" values="0 0 0 0 0 0 0 0 0 0 0 0 0 0 0 0 0 0 127 0" result="hardAlpha"/>
<feOffset dy="-2"/>
<feGaussianBlur stdDeviation="0.5"/>
<feComposite in2="hardAlpha" operator="arithmetic" k2="-1" k3="1"/>
<feColorMatrix type="matrix" values="0 0 0 0 0 0 0 0 0 0 0 0 0 0 0 0 0 0 0.07 0"/>
<feBlend mode="normal" in2="effect2_innerShadow_33_127085" result="effect3_innerShadow_33_127085"/>
<feColorMatrix in="SourceAlpha" type="matrix" values="0 0 0 0 0 0 0 0 0 0 0 0 0 0 0 0 0 0 127 0" result="hardAlpha"/>
<feOffset dx="-16" dy="12"/>
<feGaussianBlur stdDeviation="6"/>
<feComposite in2="hardAlpha" operator="arithmetic" k2="-1" k3="1"/>
<feColorMatrix type="matrix" values="0 0 0 0 1 0 0 0 0 1 0 0 0 0 1 0 0 0 0.65 0"/>
<feBlend mode="normal" in2="effect3_innerShadow_33_127085" result="effect4_innerShadow_33_127085"/>
</filter>
<filter id="filter3_di_33_127085" x="48.1816" y="42.0107" width="31.3662" height="31.4028" filterUnits="userSpaceOnUse" color-interpolation-filters="sRGB">
<feFlood flood-opacity="0" result="BackgroundImageFix"/>
<feColorMatrix in="SourceAlpha" type="matrix" values="0 0 0 0 0 0 0 0 0 0 0 0 0 0 0 0 0 0 127 0" result="hardAlpha"/>
<feOffset dy="1"/>
<feComposite in2="hardAlpha" operator="out"/>
<feColorMatrix type="matrix" values="0 0 0 0 0 0 0 0 0 0 0 0 0 0 0 0 0 0 0.25 0"/>
<feBlend mode="normal" in2="BackgroundImageFix" result="effect1_dropShadow_33_127085"/>
<feBlend mode="normal" in="SourceGraphic" in2="effect1_dropShadow_33_127085" result="shape"/>
<feColorMatrix in="SourceAlpha" type="matrix" values="0 0 0 0 0 0 0 0 0 0 0 0 0 0 0 0 0 0 127 0" result="hardAlpha"/>
<feOffset dx="1" dy="-2"/>
<feGaussianBlur stdDeviation="2.5"/>
<feComposite in2="hardAlpha" operator="arithmetic" k2="-1" k3="1"/>
<feColorMatrix type="matrix" values="0 0 0 0 0 0 0 0 0 0 0 0 0 0 0 0 0 0 0.2 0"/>
<feBlend mode="normal" in2="shape" result="effect2_innerShadow_33_127085"/>
</filter>
<filter id="filter4_dii_33_127085" x="40.9131" y="-1.62549" width="47.9043" height="56.0278" filterUnits="userSpaceOnUse" color-interpolation-filters="sRGB">
<feFlood flood-opacity="0" result="BackgroundImageFix"/>
<feColorMatrix in="SourceAlpha" type="matrix" values="0 0 0 0 0 0 0 0 0 0 0 0 0 0 0 0 0 0 127 0" result="hardAlpha"/>
<feOffset dy="2"/>
<feComposite in2="hardAlpha" operator="out"/>
<feColorMatrix type="matrix" values="0 0 0 0 0 0 0 0 0 0 0 0 0 0 0 0 0 0 0.25 0"/>
<feBlend mode="normal" in2="BackgroundImageFix" result="effect1_dropShadow_33_127085"/>
<feBlend mode="normal" in="SourceGraphic" in2="effect1_dropShadow_33_127085" result="shape"/>
<feColorMatrix in="SourceAlpha" type="matrix" values="0 0 0 0 0 0 0 0 0 0 0 0 0 0 0 0 0 0 127 0" result="hardAlpha"/>
<feOffset dx="3" dy="-4"/>
<feGaussianBlur stdDeviation="2"/>
<feComposite in2="hardAlpha" operator="arithmetic" k2="-1" k3="1"/>
<feColorMatrix type="matrix" values="0 0 0 0 0 0 0 0 0 0 0 0 0 0 0 0 0 0 0.1 0"/>
<feBlend mode="normal" in2="shape" result="effect2_innerShadow_33_127085"/>
<feColorMatrix in="SourceAlpha" type="matrix" values="0 0 0 0 0 0 0 0 0 0 0 0 0 0 0 0 0 0 127 0" result="hardAlpha"/>
<feOffset dy="-2"/>
<feGaussianBlur stdDeviation="2"/>
<feComposite in2="hardAlpha" operator="arithmetic" k2="-1" k3="1"/>
<feColorMatrix type="matrix" values="0 0 0 0 0 0 0 0 0 0 0 0 0 0 0 0 0 0 0.07 0"/>
<feBlend mode="normal" in2="effect2_innerShadow_33_127085" result="effect3_innerShadow_33_127085"/>
</filter>
<filter id="filter5_ii_33_127085" x="85.4453" y="24.4741" width="39.7646" height="43.0664" filterUnits="userSpaceOnUse" color-interpolation-filters="sRGB">
<feFlood flood-opacity="0" result="BackgroundImageFix"/>
<feBlend mode="normal" in="SourceGraphic" in2="BackgroundImageFix" result="shape"/>
<feColorMatrix in="SourceAlpha" type="matrix" values="0 0 0 0 0 0 0 0 0 0 0 0 0 0 0 0 0 0 127 0" result="hardAlpha"/>
<feOffset dx="2" dy="-4"/>
<feGaussianBlur stdDeviation="2"/>
<feComposite in2="hardAlpha" operator="arithmetic" k2="-1" k3="1"/>
<feColorMatrix type="matrix" values="0 0 0 0 0 0 0 0 0 0 0 0 0 0 0 0 0 0 0.1 0"/>
<feBlend mode="normal" in2="shape" result="effect1_innerShadow_33_127085"/>
<feColorMatrix in="SourceAlpha" type="matrix" values="0 0 0 0 0 0 0 0 0 0 0 0 0 0 0 0 0 0 127 0" result="hardAlpha"/>
<feOffset dx="-6" dy="-3"/>
<feComposite in2="hardAlpha" operator="arithmetic" k2="-1" k3="1"/>
<feColorMatrix type="matrix" values="0 0 0 0 1 0 0 0 0 1 0 0 0 0 1 0 0 0 0.55 0"/>
<feBlend mode="normal" in2="effect1_innerShadow_33_127085" result="effect2_innerShadow_33_127085"/>
</filter>
<filter id="filter6_ii_33_127085" x="2.79004" y="24.4741" width="39.7646" height="43.0664" filterUnits="userSpaceOnUse" color-interpolation-filters="sRGB">
<feFlood flood-opacity="0" result="BackgroundImageFix"/>
<feBlend mode="normal" in="SourceGraphic" in2="BackgroundImageFix" result="shape"/>
<feColorMatrix in="SourceAlpha" type="matrix" values="0 0 0 0 0 0 0 0 0 0 0 0 0 0 0 0 0 0 127 0" result="hardAlpha"/>
<feOffset dx="2" dy="-4"/>
<feGaussianBlur stdDeviation="2"/>
<feComposite in2="hardAlpha" operator="arithmetic" k2="-1" k3="1"/>
<feColorMatrix type="matrix" values="0 0 0 0 0 0 0 0 0 0 0 0 0 0 0 0 0 0 0.1 0"/>
<feBlend mode="normal" in2="shape" result="effect1_innerShadow_33_127085"/>
<feColorMatrix in="SourceAlpha" type="matrix" values="0 0 0 0 0 0 0 0 0 0 0 0 0 0 0 0 0 0 127 0" result="hardAlpha"/>
<feOffset dx="6" dy="-3"/>
<feComposite in2="hardAlpha" operator="arithmetic" k2="-1" k3="1"/>
<feColorMatrix type="matrix" values="0 0 0 0 1 0 0 0 0 1 0 0 0 0 1 0 0 0 0.55 0"/>
<feBlend mode="normal" in2="effect1_innerShadow_33_127085" result="effect2_innerShadow_33_127085"/>
</filter>
<filter id="filter7_f_33_127085" x="56.6875" y="43.2676" width="14.3525" height="10.1348" filterUnits="userSpaceOnUse" color-interpolation-filters="sRGB">
<feFlood flood-opacity="0" result="BackgroundImageFix"/>
<feBlend mode="normal" in="SourceGraphic" in2="BackgroundImageFix" result="shape"/>
<feGaussianBlur stdDeviation="0.5" result="effect1_foregroundBlur_33_127085"/>
</filter>
<filter id="filter8_d_33_127085" x="56.4463" y="43.6147" width="14.834" height="12.79" filterUnits="userSpaceOnUse" color-interpolation-filters="sRGB">
<feFlood flood-opacity="0" result="BackgroundImageFix"/>
<feColorMatrix in="SourceAlpha" type="matrix" values="0 0 0 0 0 0 0 0 0 0 0 0 0 0 0 0 0 0 127 0" result="hardAlpha"/>
<feOffset dy="1"/>
<feComposite in2="hardAlpha" operator="out"/>
<feColorMatrix type="matrix" values="0 0 0 0 0 0 0 0 0 0 0 0 0 0 0 0 0 0 0.25 0"/>
<feBlend mode="normal" in2="BackgroundImageFix" result="effect1_dropShadow_33_127085"/>
<feBlend mode="normal" in="SourceGraphic" in2="effect1_dropShadow_33_127085" result="shape"/>
</filter>
<filter id="filter9_i_33_127085" x="56.4463" y="43.6147" width="15.834" height="12.79" filterUnits="userSpaceOnUse" color-interpolation-filters="sRGB">
<feFlood flood-opacity="0" result="BackgroundImageFix"/>
<feBlend mode="normal" in="SourceGraphic" in2="BackgroundImageFix" result="shape"/>
<feColorMatrix in="SourceAlpha" type="matrix" values="0 0 0 0 0 0 0 0 0 0 0 0 0 0 0 0 0 0 127 0" result="hardAlpha"/>
<feOffset dx="1" dy="1"/>
<feGaussianBlur stdDeviation="1"/>
<feComposite in2="hardAlpha" operator="arithmetic" k2="-1" k3="1"/>
<feColorMatrix type="matrix" values="0 0 0 0 0 0 0 0 0 0 0 0 0 0 0 0 0 0 0.25 0"/>
<feBlend mode="normal" in2="shape" result="effect1_innerShadow_33_127085"/>
</filter>
<filter id="filter10_d_33_127085" x="57.9629" y="37.6118" width="11.8008" height="10.6143" filterUnits="userSpaceOnUse" color-interpolation-filters="sRGB">
<feFlood flood-opacity="0" result="BackgroundImageFix"/>
<feColorMatrix in="SourceAlpha" type="matrix" values="0 0 0 0 0 0 0 0 0 0 0 0 0 0 0 0 0 0 127 0" result="hardAlpha"/>
<feOffset dy="1"/>
<feComposite in2="hardAlpha" operator="out"/>
<feColorMatrix type="matrix" values="0 0 0 0 0 0 0 0 0 0 0 0 0 0 0 0 0 0 0.25 0"/>
<feBlend mode="normal" in2="BackgroundImageFix" result="effect1_dropShadow_33_127085"/>
<feBlend mode="normal" in="SourceGraphic" in2="effect1_dropShadow_33_127085" result="shape"/>
</filter>
<filter id="filter11_di_33_127085" x="55.4883" y="34.3931" width="16.751" height="15.5723" filterUnits="userSpaceOnUse" color-interpolation-filters="sRGB">
<feFlood flood-opacity="0" result="BackgroundImageFix"/>
<feColorMatrix in="SourceAlpha" type="matrix" values="0 0 0 0 0 0 0 0 0 0 0 0 0 0 0 0 0 0 127 0" result="hardAlpha"/>
<feOffset dy="1"/>
<feGaussianBlur stdDeviation="0.5"/>
<feComposite in2="hardAlpha" operator="out"/>
<feColorMatrix type="matrix" values="0 0 0 0 0 0 0 0 0 0 0 0 0 0 0 0 0 0 0.25 0"/>
<feBlend mode="normal" in2="BackgroundImageFix" result="effect1_dropShadow_33_127085"/>
<feBlend mode="normal" in="SourceGraphic" in2="effect1_dropShadow_33_127085" result="shape"/>
<feColorMatrix in="SourceAlpha" type="matrix" values="0 0 0 0 0 0 0 0 0 0 0 0 0 0 0 0 0 0 127 0" result="hardAlpha"/>
<feOffset dy="-1"/>
<feGaussianBlur stdDeviation="1"/>
<feComposite in2="hardAlpha" operator="arithmetic" k2="-1" k3="1"/>
<feColorMatrix type="matrix" values="0 0 0 0 0 0 0 0 0 0 0 0 0 0 0 0 0 0 0.2 0"/>
<feBlend mode="normal" in2="shape" result="effect2_innerShadow_33_127085"/>
</filter>
<filter id="filter12_f_33_127085" x="55.2256" y="33.3931" width="17.2764" height="15.0933" filterUnits="userSpaceOnUse" color-interpolation-filters="sRGB">
<feFlood flood-opacity="0" result="BackgroundImageFix"/>
<feBlend mode="normal" in="SourceGraphic" in2="BackgroundImageFix" result="shape"/>
<feGaussianBlur stdDeviation="1" result="effect1_foregroundBlur_33_127085"/>
</filter>
<filter id="filter13_dii_33_127085" x="45.0342" y="2.59619" width="37.377" height="21.7881" filterUnits="userSpaceOnUse" color-interpolation-filters="sRGB">
<feFlood flood-opacity="0" result="BackgroundImageFix"/>
<feColorMatrix in="SourceAlpha" type="matrix" values="0 0 0 0 0 0 0 0 0 0 0 0 0 0 0 0 0 0 127 0" result="hardAlpha"/>
<feOffset dy="2"/>
<feComposite in2="hardAlpha" operator="out"/>
<feColorMatrix type="matrix" values="0 0 0 0 0 0 0 0 0 0 0 0 0 0 0 0 0 0 0.25 0"/>
<feBlend mode="normal" in2="BackgroundImageFix" result="effect1_dropShadow_33_127085"/>
<feBlend mode="normal" in="SourceGraphic" in2="effect1_dropShadow_33_127085" result="shape"/>
<feColorMatrix in="SourceAlpha" type="matrix" values="0 0 0 0 0 0 0 0 0 0 0 0 0 0 0 0 0 0 127 0" result="hardAlpha"/>
<feOffset dx="1" dy="-1"/>
<feGaussianBlur stdDeviation="2"/>
<feComposite in2="hardAlpha" operator="arithmetic" k2="-1" k3="1"/>
<feColorMatrix type="matrix" values="0 0 0 0 0 0 0 0 0 0 0 0 0 0 0 0 0 0 0.25 0"/>
<feBlend mode="normal" in2="shape" result="effect2_innerShadow_33_127085"/>
<feColorMatrix in="SourceAlpha" type="matrix" values="0 0 0 0 0 0 0 0 0 0 0 0 0 0 0 0 0 0 127 0" result="hardAlpha"/>
<feOffset dx="2"/>
<feGaussianBlur stdDeviation="2"/>
<feComposite in2="hardAlpha" operator="arithmetic" k2="-1" k3="1"/>
<feColorMatrix type="matrix" values="0 0 0 0 0 0 0 0 0 0 0 0 0 0 0 0 0 0 0.2 0"/>
<feBlend mode="normal" in2="effect2_innerShadow_33_127085" result="effect3_innerShadow_33_127085"/>
</filter>
<filter id="filter14_d_33_127085" x="44.0342" y="3.59619" width="37.377" height="20.7881" filterUnits="userSpaceOnUse" color-interpolation-filters="sRGB">
<feFlood flood-opacity="0" result="BackgroundImageFix"/>
<feColorMatrix in="SourceAlpha" type="matrix" values="0 0 0 0 0 0 0 0 0 0 0 0 0 0 0 0 0 0 127 0" result="hardAlpha"/>
<feOffset dy="1"/>
<feGaussianBlur stdDeviation="0.5"/>
<feComposite in2="hardAlpha" operator="out"/>
<feColorMatrix type="matrix" values="0 0 0 0 0 0 0 0 0 0 0 0 0 0 0 0 0 0 0.12 0"/>
<feBlend mode="normal" in2="BackgroundImageFix" result="effect1_dropShadow_33_127085"/>
<feBlend mode="normal" in="SourceGraphic" in2="effect1_dropShadow_33_127085" result="shape"/>
</filter>
<filter id="filter15_di_33_127085" x="53.8877" y="-1.59082" width="17.5859" height="22.5918" filterUnits="userSpaceOnUse" color-interpolation-filters="sRGB">
<feFlood flood-opacity="0" result="BackgroundImageFix"/>
<feColorMatrix in="SourceAlpha" type="matrix" values="0 0 0 0 0 0 0 0 0 0 0 0 0 0 0 0 0 0 127 0" result="hardAlpha"/>
<feOffset dy="1"/>
<feGaussianBlur stdDeviation="0.5"/>
<feComposite in2="hardAlpha" operator="out"/>
<feColorMatrix type="matrix" values="0 0 0 0 0 0 0 0 0 0 0 0 0 0 0 0 0 0 0.25 0"/>
<feBlend mode="normal" in2="BackgroundImageFix" result="effect1_dropShadow_33_127085"/>
<feBlend mode="normal" in="SourceGraphic" in2="effect1_dropShadow_33_127085" result="shape"/>
<feColorMatrix in="SourceAlpha" type="matrix" values="0 0 0 0 0 0 0 0 0 0 0 0 0 0 0 0 0 0 127 0" result="hardAlpha"/>
<feOffset dx="2" dy="-2"/>
<feGaussianBlur stdDeviation="2"/>
<feComposite in2="hardAlpha" operator="arithmetic" k2="-1" k3="1"/>
<feColorMatrix type="matrix" values="0 0 0 0 0 0 0 0 0 0 0 0 0 0 0 0 0 0 0.3 0"/>
<feBlend mode="normal" in2="shape" result="effect2_innerShadow_33_127085"/>
</filter>
</defs>
</svg>
