<svg width="324" height="643" viewBox="0 0 324 643" fill="none" xmlns="http://www.w3.org/2000/svg">
<path d="M0 51L58.5 58L324 224V285L0 81V51Z" fill="#A8A29E"/>
<path d="M0 61L324 264.68V627L0 423V61Z" fill="#57534E"/>
<path d="M0 339L324 543V627L0 423V339Z" fill="black" fill-opacity="0.12"/>
<g filter="url(#filter0_dd_23_40988)">
<path d="M0 352L324 556V627L0 423V352Z" fill="black" fill-opacity="0.2" shape-rendering="crispEdges"/>
</g>
<path d="M181.5 491L155 474V530L181.5 547V491Z" fill="#78716C"/>
<path d="M188.5 486L162 468L155 474L181.5 491L188.5 486Z" fill="white" fill-opacity="0.4"/>
<path d="M188.5 486L181.5 491V547L188.5 542V486Z" fill="#78716C"/>
<path d="M181.5 491L155 474V530L181.5 547V491Z" fill="black" fill-opacity="0.12"/>
<g opacity="0.2" filter="url(#filter1_di_23_40988)">
<path d="M186.848 423.654L198.611 422.249C201.924 421.853 204.822 419.83 206.336 416.857L207.956 413.675C210.244 409.183 208.83 403.69 204.658 400.861L194.759 394.148C192.5 392.616 189.713 392.074 187.045 392.648L179.28 394.317C173.581 395.542 170.134 401.361 171.798 406.948L174.029 414.44C174.482 415.962 175.292 417.354 176.39 418.502L178.439 420.641C180.613 422.911 183.727 424.027 186.848 423.654Z" fill="#292524"/>
</g>
<g opacity="0.2" filter="url(#filter2_di_23_40988)">
<path d="M14.4267 316.531L22.6309 294.883C24.2038 290.733 28.3346 288.125 32.7579 288.491C37.348 288.87 41.0785 292.349 41.777 296.901L45.3686 320.31C45.8987 323.765 44.5861 327.246 41.9067 329.491L40.8981 330.336C38.4632 332.377 35.2038 333.139 32.1169 332.389L21.4189 329.793C15.5745 328.374 12.2953 322.155 14.4267 316.531Z" fill="#D6D3D1"/>
</g>
<g opacity="0.2" filter="url(#filter3_di_23_40988)">
<path d="M191.657 278.388L199.861 256.741C201.434 252.59 205.565 249.983 209.988 250.348C214.578 250.727 218.309 254.206 219.007 258.759L222.599 282.167C223.129 285.622 221.817 289.104 219.137 291.349L218.129 292.194C215.694 294.234 212.434 294.996 209.347 294.247L198.649 291.65C192.805 290.231 189.526 284.012 191.657 278.388Z" fill="#D6D3D1"/>
</g>
<g opacity="0.2" filter="url(#filter4_di_23_40988)">
<path d="M236.917 408.563L227.721 420.827C226.12 422.962 225.439 425.649 225.83 428.289L228.844 448.677C229.573 453.61 233.825 457.252 238.811 457.215L248.447 457.142C251.669 457.118 254.681 455.543 256.54 452.912L270.256 433.496C272.138 430.831 272.602 427.415 271.499 424.345L266.855 411.42C265.452 407.515 261.784 404.882 257.635 404.803L245.109 404.564C241.895 404.502 238.846 405.99 236.917 408.563Z" fill="#D6D3D1"/>
</g>
<g opacity="0.2" filter="url(#filter5_di_23_40988)">
<path d="M151.932 239.484L153.641 240.037C158.13 241.487 160.285 246.584 158.198 250.815C156.622 254.011 153.065 255.716 149.586 254.943L147.833 254.553C143.099 253.502 140.455 248.439 142.297 243.954C143.848 240.176 148.046 238.228 151.932 239.484Z" fill="#D6D3D1"/>
</g>
<g opacity="0.2" filter="url(#filter6_di_23_40988)">
<path d="M179.533 365.666L181.243 366.219C185.731 367.67 187.886 372.766 185.8 376.997C184.223 380.193 180.667 381.898 177.188 381.125L175.434 380.735C170.701 379.684 168.057 374.621 169.898 370.136C171.449 366.358 175.647 364.411 179.533 365.666Z" fill="#292524"/>
</g>
<g opacity="0.2" filter="url(#filter7_di_23_40988)">
<path d="M103.213 172.981L104.922 173.533C109.411 174.984 111.566 180.081 109.479 184.311C107.903 187.507 104.347 189.212 100.868 188.439L99.1139 188.05C94.3807 186.998 91.7367 181.936 93.578 177.45C95.129 173.672 99.327 171.725 103.213 172.981Z" fill="#D6D3D1"/>
</g>
<g opacity="0.2" filter="url(#filter8_di_23_40988)">
<path d="M95.7261 210.026L86.53 222.29C84.929 224.425 84.2479 227.112 84.6382 229.752L87.6522 250.14C88.3815 255.073 92.6334 258.715 97.6198 258.677L107.256 258.605C110.477 258.581 113.49 257.006 115.349 254.375L129.064 234.959C130.947 232.294 131.411 228.878 130.307 225.808L125.664 212.883C124.261 208.978 120.592 206.345 116.444 206.266L103.918 206.026C100.703 205.965 97.655 207.453 95.7261 210.026Z" fill="#292524"/>
</g>
<path d="M82 33.173C82 28.9177 79.7464 24.9806 76.0772 22.8256L41.1886 2.33508C38.7278 0.889797 35.6834 0.86488 33.1992 2.2697L6.12961 17.5778C4.82243 18.317 4.03942 19.7261 4.10208 21.2265L6.01289 66.9815L50.8002 93L82 72.4395V33.173Z" fill="#A8A29E"/>
<g filter="url(#filter9_i_23_40988)">
<path d="M82 32.8202C82 32.0314 81.1294 31.5532 80.4637 31.9762L50 51.3333V92L82 71.6666V32.8202Z" fill="#A8A29E"/>
</g>
<path d="M0 23.9132C0 19.1822 5.21998 16.3123 9.21467 18.8471L44.4293 41.1922C47.8983 43.3933 50 47.2161 50 51.3245V96L0 64.273V23.9132Z" fill="#57534E"/>
<path d="M163 84.173C163 79.9177 160.746 75.9806 157.077 73.8256L122.189 53.3351C119.728 51.8898 116.683 51.8649 114.199 53.2697L87.1296 68.5778C85.8224 69.317 85.0394 70.7261 85.1021 72.2265L87.0129 117.982L131.8 144L163 123.439V84.173Z" fill="#A8A29E"/>
<g filter="url(#filter10_i_23_40988)">
<path d="M163 83.8202C163 83.0314 162.129 82.5532 161.464 82.9762L131 102.333V143L163 122.667V83.8202Z" fill="#A8A29E"/>
</g>
<path d="M81 74.9132C81 70.1822 86.22 67.3123 90.2147 69.8471L125.429 92.1922C128.898 94.3933 131 98.2161 131 102.324V147L81 115.273V74.9132Z" fill="#57534E"/>
<path d="M244 135.173C244 130.918 241.746 126.981 238.077 124.826L203.189 104.335C200.728 102.89 197.683 102.865 195.199 104.27L168.13 119.578C166.822 120.317 166.039 121.726 166.102 123.226L168.013 168.982L212.8 195L244 174.439V135.173Z" fill="#A8A29E"/>
<g filter="url(#filter11_i_23_40988)">
<path d="M244 134.82C244 134.031 243.129 133.553 242.464 133.976L212 153.333V194L244 173.667V134.82Z" fill="#A8A29E"/>
</g>
<path d="M162 125.913C162 121.182 167.22 118.312 171.215 120.847L206.429 143.192C209.898 145.393 212 149.216 212 153.324V198L162 166.273V125.913Z" fill="#57534E"/>
<path d="M324 185.173C324 180.918 321.746 176.981 318.077 174.826L283.189 154.335C280.728 152.89 277.683 152.865 275.199 154.27L248.13 169.578C246.822 170.317 246.039 171.726 246.102 173.226L248.013 218.982L292.8 245L324 224.439V185.173Z" fill="#A8A29E"/>
<g filter="url(#filter12_i_23_40988)">
<path d="M324 184.82C324 184.031 323.129 183.553 322.464 183.976L292 203.333V244L324 223.667V184.82Z" fill="#A8A29E"/>
</g>
<path d="M242 175.913C242 171.182 247.22 168.312 251.215 170.847L286.429 193.192C289.898 195.393 292 199.216 292 203.324V248L242 216.273V175.913Z" fill="#57534E"/>
<defs>
<filter id="filter0_dd_23_40988" x="0" y="352" width="324" height="291" filterUnits="userSpaceOnUse" color-interpolation-filters="sRGB">
<feFlood flood-opacity="0" result="BackgroundImageFix"/>
<feColorMatrix in="SourceAlpha" type="matrix" values="0 0 0 0 0 0 0 0 0 0 0 0 0 0 0 0 0 0 127 0" result="hardAlpha"/>
<feOffset dy="4"/>
<feComposite in2="hardAlpha" operator="out"/>
<feColorMatrix type="matrix" values="0 0 0 0 0 0 0 0 0 0 0 0 0 0 0 0 0 0 0.25 0"/>
<feBlend mode="normal" in2="BackgroundImageFix" result="effect1_dropShadow_23_40988"/>
<feColorMatrix in="SourceAlpha" type="matrix" values="0 0 0 0 0 0 0 0 0 0 0 0 0 0 0 0 0 0 127 0" result="hardAlpha"/>
<feOffset dy="16"/>
<feComposite in2="hardAlpha" operator="out"/>
<feColorMatrix type="matrix" values="0 0 0 0 0 0 0 0 0 0 0 0 0 0 0 0 0 0 0.25 0"/>
<feBlend mode="normal" in2="effect1_dropShadow_23_40988" result="effect2_dropShadow_23_40988"/>
<feBlend mode="normal" in="SourceGraphic" in2="effect2_dropShadow_23_40988" result="shape"/>
</filter>
<filter id="filter1_di_23_40988" x="165.379" y="386.424" width="49.668" height="43.3008" filterUnits="userSpaceOnUse" color-interpolation-filters="sRGB">
<feFlood flood-opacity="0" result="BackgroundImageFix"/>
<feColorMatrix in="SourceAlpha" type="matrix" values="0 0 0 0 0 0 0 0 0 0 0 0 0 0 0 0 0 0 127 0" result="hardAlpha"/>
<feMorphology radius="2" operator="dilate" in="SourceAlpha" result="effect1_dropShadow_23_40988"/>
<feOffset/>
<feGaussianBlur stdDeviation="2"/>
<feComposite in2="hardAlpha" operator="out"/>
<feColorMatrix type="matrix" values="0 0 0 0 0 0 0 0 0 0 0 0 0 0 0 0 0 0 0.12 0"/>
<feBlend mode="normal" in2="BackgroundImageFix" result="effect1_dropShadow_23_40988"/>
<feBlend mode="normal" in="SourceGraphic" in2="effect1_dropShadow_23_40988" result="shape"/>
<feColorMatrix in="SourceAlpha" type="matrix" values="0 0 0 0 0 0 0 0 0 0 0 0 0 0 0 0 0 0 127 0" result="hardAlpha"/>
<feOffset dx="-2" dy="4"/>
<feGaussianBlur stdDeviation="1"/>
<feComposite in2="hardAlpha" operator="arithmetic" k2="-1" k3="1"/>
<feColorMatrix type="matrix" values="0 0 0 0 1 0 0 0 0 1 0 0 0 0 1 0 0 0 0.53 0"/>
<feBlend mode="normal" in2="shape" result="effect2_innerShadow_23_40988"/>
</filter>
<filter id="filter2_di_23_40988" x="7.77344" y="282.457" width="43.7109" height="56.2148" filterUnits="userSpaceOnUse" color-interpolation-filters="sRGB">
<feFlood flood-opacity="0" result="BackgroundImageFix"/>
<feColorMatrix in="SourceAlpha" type="matrix" values="0 0 0 0 0 0 0 0 0 0 0 0 0 0 0 0 0 0 127 0" result="hardAlpha"/>
<feMorphology radius="2" operator="dilate" in="SourceAlpha" result="effect1_dropShadow_23_40988"/>
<feOffset/>
<feGaussianBlur stdDeviation="2"/>
<feComposite in2="hardAlpha" operator="out"/>
<feColorMatrix type="matrix" values="0 0 0 0 0 0 0 0 0 0 0 0 0 0 0 0 0 0 0.12 0"/>
<feBlend mode="normal" in2="BackgroundImageFix" result="effect1_dropShadow_23_40988"/>
<feBlend mode="normal" in="SourceGraphic" in2="effect1_dropShadow_23_40988" result="shape"/>
<feColorMatrix in="SourceAlpha" type="matrix" values="0 0 0 0 0 0 0 0 0 0 0 0 0 0 0 0 0 0 127 0" result="hardAlpha"/>
<feOffset dx="-2" dy="4"/>
<feGaussianBlur stdDeviation="1"/>
<feComposite in2="hardAlpha" operator="arithmetic" k2="-1" k3="1"/>
<feColorMatrix type="matrix" values="0 0 0 0 1 0 0 0 0 1 0 0 0 0 1 0 0 0 0.9 0"/>
<feBlend mode="normal" in2="shape" result="effect2_innerShadow_23_40988"/>
</filter>
<filter id="filter3_di_23_40988" x="185.004" y="244.314" width="43.7109" height="56.2148" filterUnits="userSpaceOnUse" color-interpolation-filters="sRGB">
<feFlood flood-opacity="0" result="BackgroundImageFix"/>
<feColorMatrix in="SourceAlpha" type="matrix" values="0 0 0 0 0 0 0 0 0 0 0 0 0 0 0 0 0 0 127 0" result="hardAlpha"/>
<feMorphology radius="2" operator="dilate" in="SourceAlpha" result="effect1_dropShadow_23_40988"/>
<feOffset/>
<feGaussianBlur stdDeviation="2"/>
<feComposite in2="hardAlpha" operator="out"/>
<feColorMatrix type="matrix" values="0 0 0 0 0 0 0 0 0 0 0 0 0 0 0 0 0 0 0.12 0"/>
<feBlend mode="normal" in2="BackgroundImageFix" result="effect1_dropShadow_23_40988"/>
<feBlend mode="normal" in="SourceGraphic" in2="effect1_dropShadow_23_40988" result="shape"/>
<feColorMatrix in="SourceAlpha" type="matrix" values="0 0 0 0 0 0 0 0 0 0 0 0 0 0 0 0 0 0 127 0" result="hardAlpha"/>
<feOffset dx="-2" dy="4"/>
<feGaussianBlur stdDeviation="1"/>
<feComposite in2="hardAlpha" operator="arithmetic" k2="-1" k3="1"/>
<feColorMatrix type="matrix" values="0 0 0 0 1 0 0 0 0 1 0 0 0 0 1 0 0 0 0.9 0"/>
<feBlend mode="normal" in2="shape" result="effect2_innerShadow_23_40988"/>
</filter>
<filter id="filter4_di_23_40988" x="219.723" y="398.562" width="58.3633" height="64.6533" filterUnits="userSpaceOnUse" color-interpolation-filters="sRGB">
<feFlood flood-opacity="0" result="BackgroundImageFix"/>
<feColorMatrix in="SourceAlpha" type="matrix" values="0 0 0 0 0 0 0 0 0 0 0 0 0 0 0 0 0 0 127 0" result="hardAlpha"/>
<feMorphology radius="2" operator="dilate" in="SourceAlpha" result="effect1_dropShadow_23_40988"/>
<feOffset/>
<feGaussianBlur stdDeviation="2"/>
<feComposite in2="hardAlpha" operator="out"/>
<feColorMatrix type="matrix" values="0 0 0 0 0 0 0 0 0 0 0 0 0 0 0 0 0 0 0.12 0"/>
<feBlend mode="normal" in2="BackgroundImageFix" result="effect1_dropShadow_23_40988"/>
<feBlend mode="normal" in="SourceGraphic" in2="effect1_dropShadow_23_40988" result="shape"/>
<feColorMatrix in="SourceAlpha" type="matrix" values="0 0 0 0 0 0 0 0 0 0 0 0 0 0 0 0 0 0 127 0" result="hardAlpha"/>
<feOffset dx="-2" dy="4"/>
<feGaussianBlur stdDeviation="1"/>
<feComposite in2="hardAlpha" operator="arithmetic" k2="-1" k3="1"/>
<feColorMatrix type="matrix" values="0 0 0 0 1 0 0 0 0 1 0 0 0 0 1 0 0 0 0.9 0"/>
<feBlend mode="normal" in2="shape" result="effect2_innerShadow_23_40988"/>
</filter>
<filter id="filter5_di_23_40988" x="135.707" y="233.104" width="29.293" height="28.0234" filterUnits="userSpaceOnUse" color-interpolation-filters="sRGB">
<feFlood flood-opacity="0" result="BackgroundImageFix"/>
<feColorMatrix in="SourceAlpha" type="matrix" values="0 0 0 0 0 0 0 0 0 0 0 0 0 0 0 0 0 0 127 0" result="hardAlpha"/>
<feMorphology radius="2" operator="dilate" in="SourceAlpha" result="effect1_dropShadow_23_40988"/>
<feOffset/>
<feGaussianBlur stdDeviation="2"/>
<feComposite in2="hardAlpha" operator="out"/>
<feColorMatrix type="matrix" values="0 0 0 0 0 0 0 0 0 0 0 0 0 0 0 0 0 0 0.12 0"/>
<feBlend mode="normal" in2="BackgroundImageFix" result="effect1_dropShadow_23_40988"/>
<feBlend mode="normal" in="SourceGraphic" in2="effect1_dropShadow_23_40988" result="shape"/>
<feColorMatrix in="SourceAlpha" type="matrix" values="0 0 0 0 0 0 0 0 0 0 0 0 0 0 0 0 0 0 127 0" result="hardAlpha"/>
<feOffset dx="-2" dy="4"/>
<feGaussianBlur stdDeviation="1"/>
<feComposite in2="hardAlpha" operator="arithmetic" k2="-1" k3="1"/>
<feColorMatrix type="matrix" values="0 0 0 0 1 0 0 0 0 1 0 0 0 0 1 0 0 0 0.9 0"/>
<feBlend mode="normal" in2="shape" result="effect2_innerShadow_23_40988"/>
</filter>
<filter id="filter6_di_23_40988" x="163.309" y="359.286" width="29.293" height="28.0234" filterUnits="userSpaceOnUse" color-interpolation-filters="sRGB">
<feFlood flood-opacity="0" result="BackgroundImageFix"/>
<feColorMatrix in="SourceAlpha" type="matrix" values="0 0 0 0 0 0 0 0 0 0 0 0 0 0 0 0 0 0 127 0" result="hardAlpha"/>
<feMorphology radius="2" operator="dilate" in="SourceAlpha" result="effect1_dropShadow_23_40988"/>
<feOffset/>
<feGaussianBlur stdDeviation="2"/>
<feComposite in2="hardAlpha" operator="out"/>
<feColorMatrix type="matrix" values="0 0 0 0 0 0 0 0 0 0 0 0 0 0 0 0 0 0 0.12 0"/>
<feBlend mode="normal" in2="BackgroundImageFix" result="effect1_dropShadow_23_40988"/>
<feBlend mode="normal" in="SourceGraphic" in2="effect1_dropShadow_23_40988" result="shape"/>
<feColorMatrix in="SourceAlpha" type="matrix" values="0 0 0 0 0 0 0 0 0 0 0 0 0 0 0 0 0 0 127 0" result="hardAlpha"/>
<feOffset dx="-2" dy="4"/>
<feGaussianBlur stdDeviation="1"/>
<feComposite in2="hardAlpha" operator="arithmetic" k2="-1" k3="1"/>
<feColorMatrix type="matrix" values="0 0 0 0 1 0 0 0 0 1 0 0 0 0 1 0 0 0 0.53 0"/>
<feBlend mode="normal" in2="shape" result="effect2_innerShadow_23_40988"/>
</filter>
<filter id="filter7_di_23_40988" x="86.9883" y="166.601" width="29.293" height="28.0234" filterUnits="userSpaceOnUse" color-interpolation-filters="sRGB">
<feFlood flood-opacity="0" result="BackgroundImageFix"/>
<feColorMatrix in="SourceAlpha" type="matrix" values="0 0 0 0 0 0 0 0 0 0 0 0 0 0 0 0 0 0 127 0" result="hardAlpha"/>
<feMorphology radius="2" operator="dilate" in="SourceAlpha" result="effect1_dropShadow_23_40988"/>
<feOffset/>
<feGaussianBlur stdDeviation="2"/>
<feComposite in2="hardAlpha" operator="out"/>
<feColorMatrix type="matrix" values="0 0 0 0 0 0 0 0 0 0 0 0 0 0 0 0 0 0 0.12 0"/>
<feBlend mode="normal" in2="BackgroundImageFix" result="effect1_dropShadow_23_40988"/>
<feBlend mode="normal" in="SourceGraphic" in2="effect1_dropShadow_23_40988" result="shape"/>
<feColorMatrix in="SourceAlpha" type="matrix" values="0 0 0 0 0 0 0 0 0 0 0 0 0 0 0 0 0 0 127 0" result="hardAlpha"/>
<feOffset dx="-2" dy="4"/>
<feGaussianBlur stdDeviation="1"/>
<feComposite in2="hardAlpha" operator="arithmetic" k2="-1" k3="1"/>
<feColorMatrix type="matrix" values="0 0 0 0 1 0 0 0 0 1 0 0 0 0 1 0 0 0 0.9 0"/>
<feBlend mode="normal" in2="shape" result="effect2_innerShadow_23_40988"/>
</filter>
<filter id="filter8_di_23_40988" x="78.5312" y="200.024" width="58.3633" height="64.6533" filterUnits="userSpaceOnUse" color-interpolation-filters="sRGB">
<feFlood flood-opacity="0" result="BackgroundImageFix"/>
<feColorMatrix in="SourceAlpha" type="matrix" values="0 0 0 0 0 0 0 0 0 0 0 0 0 0 0 0 0 0 127 0" result="hardAlpha"/>
<feMorphology radius="2" operator="dilate" in="SourceAlpha" result="effect1_dropShadow_23_40988"/>
<feOffset/>
<feGaussianBlur stdDeviation="2"/>
<feComposite in2="hardAlpha" operator="out"/>
<feColorMatrix type="matrix" values="0 0 0 0 0 0 0 0 0 0 0 0 0 0 0 0 0 0 0.12 0"/>
<feBlend mode="normal" in2="BackgroundImageFix" result="effect1_dropShadow_23_40988"/>
<feBlend mode="normal" in="SourceGraphic" in2="effect1_dropShadow_23_40988" result="shape"/>
<feColorMatrix in="SourceAlpha" type="matrix" values="0 0 0 0 0 0 0 0 0 0 0 0 0 0 0 0 0 0 127 0" result="hardAlpha"/>
<feOffset dx="-2" dy="4"/>
<feGaussianBlur stdDeviation="1"/>
<feComposite in2="hardAlpha" operator="arithmetic" k2="-1" k3="1"/>
<feColorMatrix type="matrix" values="0 0 0 0 1 0 0 0 0 1 0 0 0 0 1 0 0 0 0.53 0"/>
<feBlend mode="normal" in2="shape" result="effect2_innerShadow_23_40988"/>
</filter>
<filter id="filter9_i_23_40988" x="50" y="27.8184" width="32" height="64.1816" filterUnits="userSpaceOnUse" color-interpolation-filters="sRGB">
<feFlood flood-opacity="0" result="BackgroundImageFix"/>
<feBlend mode="normal" in="SourceGraphic" in2="BackgroundImageFix" result="shape"/>
<feColorMatrix in="SourceAlpha" type="matrix" values="0 0 0 0 0 0 0 0 0 0 0 0 0 0 0 0 0 0 127 0" result="hardAlpha"/>
<feOffset dy="-36"/>
<feGaussianBlur stdDeviation="2"/>
<feComposite in2="hardAlpha" operator="arithmetic" k2="-1" k3="1"/>
<feColorMatrix type="matrix" values="0 0 0 0 1 0 0 0 0 1 0 0 0 0 1 0 0 0 0.15 0"/>
<feBlend mode="normal" in2="shape" result="effect1_innerShadow_23_40988"/>
</filter>
<filter id="filter10_i_23_40988" x="131" y="78.8184" width="32" height="64.1816" filterUnits="userSpaceOnUse" color-interpolation-filters="sRGB">
<feFlood flood-opacity="0" result="BackgroundImageFix"/>
<feBlend mode="normal" in="SourceGraphic" in2="BackgroundImageFix" result="shape"/>
<feColorMatrix in="SourceAlpha" type="matrix" values="0 0 0 0 0 0 0 0 0 0 0 0 0 0 0 0 0 0 127 0" result="hardAlpha"/>
<feOffset dy="-36"/>
<feGaussianBlur stdDeviation="2"/>
<feComposite in2="hardAlpha" operator="arithmetic" k2="-1" k3="1"/>
<feColorMatrix type="matrix" values="0 0 0 0 1 0 0 0 0 1 0 0 0 0 1 0 0 0 0.15 0"/>
<feBlend mode="normal" in2="shape" result="effect1_innerShadow_23_40988"/>
</filter>
<filter id="filter11_i_23_40988" x="212" y="129.818" width="32" height="64.1816" filterUnits="userSpaceOnUse" color-interpolation-filters="sRGB">
<feFlood flood-opacity="0" result="BackgroundImageFix"/>
<feBlend mode="normal" in="SourceGraphic" in2="BackgroundImageFix" result="shape"/>
<feColorMatrix in="SourceAlpha" type="matrix" values="0 0 0 0 0 0 0 0 0 0 0 0 0 0 0 0 0 0 127 0" result="hardAlpha"/>
<feOffset dy="-36"/>
<feGaussianBlur stdDeviation="2"/>
<feComposite in2="hardAlpha" operator="arithmetic" k2="-1" k3="1"/>
<feColorMatrix type="matrix" values="0 0 0 0 1 0 0 0 0 1 0 0 0 0 1 0 0 0 0.15 0"/>
<feBlend mode="normal" in2="shape" result="effect1_innerShadow_23_40988"/>
</filter>
<filter id="filter12_i_23_40988" x="292" y="179.818" width="32" height="64.1816" filterUnits="userSpaceOnUse" color-interpolation-filters="sRGB">
<feFlood flood-opacity="0" result="BackgroundImageFix"/>
<feBlend mode="normal" in="SourceGraphic" in2="BackgroundImageFix" result="shape"/>
<feColorMatrix in="SourceAlpha" type="matrix" values="0 0 0 0 0 0 0 0 0 0 0 0 0 0 0 0 0 0 127 0" result="hardAlpha"/>
<feOffset dy="-36"/>
<feGaussianBlur stdDeviation="2"/>
<feComposite in2="hardAlpha" operator="arithmetic" k2="-1" k3="1"/>
<feColorMatrix type="matrix" values="0 0 0 0 1 0 0 0 0 1 0 0 0 0 1 0 0 0 0.15 0"/>
<feBlend mode="normal" in2="shape" result="effect1_innerShadow_23_40988"/>
</filter>
</defs>
</svg>
