<svg width="400" height="466" viewBox="0 0 400 466" fill="none" xmlns="http://www.w3.org/2000/svg">
<path d="M0 442.046C0 446.439 3.56099 450 7.9537 450H392.046C396.439 450 400 446.439 400 442.046V48H0V442.046Z" fill="#A8A29E"/>
<g filter="url(#filter0_ii_23_40985)">
<rect width="60" height="61" rx="7.9537" transform="matrix(-1 0 0 1 80 8)" fill="#A8A29E"/>
</g>
<path d="M80 55.9537C80 51.561 76.439 48 72.0463 48H27.9537C23.561 48 20 51.561 20 55.9537V96H80V55.9537Z" fill="#78716C"/>
<g filter="url(#filter1_ii_23_40985)">
<rect width="60" height="61" rx="7.9537" transform="matrix(-1 0 0 1 180 8)" fill="#A8A29E"/>
</g>
<path d="M180 55.9537C180 51.561 176.439 48 172.046 48H127.954C123.561 48 120 51.561 120 55.9537V96H180V55.9537Z" fill="#78716C"/>
<g filter="url(#filter2_ii_23_40985)">
<rect width="60" height="61" rx="7.9537" transform="matrix(-1 0 0 1 280 8)" fill="#A8A29E"/>
</g>
<path d="M280 55.9537C280 51.561 276.439 48 272.046 48H227.954C223.561 48 220 51.561 220 55.9537V96H280V55.9537Z" fill="#78716C"/>
<g filter="url(#filter3_ii_23_40985)">
<rect width="60" height="61" rx="7.9537" transform="matrix(-1 0 0 1 380 8)" fill="#A8A29E"/>
</g>
<path d="M380 55.9537C380 51.561 376.439 48 372.046 48H327.954C323.561 48 320 51.561 320 55.9537V96H380V55.9537Z" fill="#78716C"/>
<path d="M0 88H400V450H0V88Z" fill="#78716C"/>
<path d="M0 366H400V450H0V366Z" fill="black" fill-opacity="0.12"/>
<g filter="url(#filter4_ddi_23_40985)">
<path d="M0 379H400V450H0V379Z" fill="#78716C"/>
</g>
<g opacity="0.2" filter="url(#filter5_di_23_40985)">
<path d="M114.356 137.684L100.591 147.517C97.7414 149.552 96.1641 152.93 96.4327 156.421L96.9041 162.55C97.2902 167.569 101.347 171.519 106.375 171.77L125.173 172.71C127.74 172.838 130.257 171.974 132.203 170.296L141.473 162.304C146.141 158.279 146.092 151.031 141.37 147.069L132.517 139.641C131.355 138.666 129.986 137.968 128.515 137.6L122.594 136.12C119.752 135.409 116.741 135.981 114.356 137.684Z" fill="#292524"/>
</g>
<g opacity="0.2" filter="url(#filter6_di_23_40985)">
<path d="M368.98 139.689L374.794 169.178C375.691 173.728 373.343 178.297 369.121 180.216L365.601 181.816C361.639 183.617 356.967 182.649 354.048 179.422L333.023 156.184C330.514 153.411 329.762 149.468 331.074 145.966L332.108 143.209C333.218 140.247 335.665 137.984 338.705 137.109L356.402 132.014C362.034 130.393 367.846 133.94 368.98 139.689Z" fill="#D6D3D1"/>
</g>
<g opacity="0.2" filter="url(#filter7_di_23_40985)">
<path d="M202.042 283.689L207.857 313.178C208.754 317.728 206.405 322.297 202.184 324.216L198.664 325.816C194.702 327.617 190.03 326.649 187.11 323.422L166.086 300.184C163.576 297.411 162.824 293.468 164.137 289.966L165.17 287.209C166.28 284.247 168.727 281.984 171.768 281.109L189.465 276.014C195.096 274.393 200.909 277.94 202.042 283.689Z" fill="#292524"/>
</g>
<g opacity="0.2" filter="url(#filter8_di_23_40985)">
<path d="M104.832 333.581L76.7824 334.8C73.982 334.922 71.259 333.863 69.277 331.881L56.3615 318.965C54.4861 317.09 53.4325 314.546 53.4325 311.894V285.818C53.4325 283.891 53.9897 282.004 55.0368 280.386L68.0179 260.324C69.7692 257.617 72.7179 255.921 75.938 255.768L99.3197 254.654C102.273 254.514 105.138 255.688 107.143 257.86L120.282 272.094C121.987 273.941 122.934 276.363 122.934 278.877V315.053C122.934 317.706 121.881 320.249 120.005 322.124L111.469 330.661C109.699 332.43 107.331 333.472 104.832 333.581Z" fill="#D6D3D1"/>
<path d="M37.9405 267.373L28.2522 257.685C26.188 255.621 25.1289 252.757 25.3528 249.847L25.9041 242.679C26.2902 237.659 30.3474 233.71 35.3753 233.458L51.1464 232.67C55.3606 232.459 59.2537 234.916 60.8765 238.811L63.6875 245.557C65.1468 249.059 64.4985 253.086 62.0137 255.953L52.5684 266.851C48.7676 271.237 42.0441 271.477 37.9405 267.373Z" fill="#D6D3D1"/>
<path d="M85.9487 246.788L82.3126 247.567C77.0354 248.698 71.9572 244.96 71.4686 239.585C71.0835 235.35 73.7172 231.423 77.7821 230.172L81.3363 229.079C86.6332 227.449 92.1526 230.86 93.0637 236.327C93.8684 241.155 90.7347 245.762 85.9487 246.788Z" fill="#D6D3D1"/>
</g>
<g opacity="0.2" filter="url(#filter9_di_23_40985)">
<path d="M271.141 300.788L267.505 301.567C262.227 302.698 257.149 298.96 256.661 293.585C256.276 289.35 258.909 285.423 262.974 284.172L266.528 283.079C271.825 281.449 277.345 284.86 278.256 290.327C279.06 295.155 275.927 299.762 271.141 300.788Z" fill="#D6D3D1"/>
</g>
<g opacity="0.2" filter="url(#filter10_di_23_40985)">
<path d="M159.141 191.788L155.505 192.567C150.227 193.698 145.149 189.96 144.661 184.585C144.276 180.35 146.909 176.423 150.974 175.172L154.528 174.079C159.825 172.449 165.345 175.86 166.256 181.327C167.06 186.155 163.927 190.762 159.141 191.788Z" fill="#292524"/>
</g>
<g opacity="0.2" filter="url(#filter11_di_23_40985)">
<path d="M367.141 337.788L363.505 338.567C358.227 339.698 353.149 335.96 352.661 330.585C352.276 326.35 354.909 322.423 358.974 321.172L362.528 320.079C367.825 318.449 373.345 321.86 374.256 327.327C375.06 332.155 371.927 336.762 367.141 337.788Z" fill="#D6D3D1"/>
</g>
<g opacity="0.2" filter="url(#filter12_di_23_40985)">
<path d="M350.711 297.186L352.792 278.454C353.106 275.627 352.202 272.801 350.306 270.682L331.788 249.985C328.66 246.489 323.522 245.637 319.433 247.937L305.8 255.606C302.899 257.238 301 260.206 300.735 263.524L298.439 292.214C298.166 295.633 299.664 298.954 302.408 301.012L318.2 312.856C321.297 315.179 325.457 315.505 328.878 313.693L345.451 304.92C348.376 303.371 350.345 300.476 350.711 297.186Z" fill="#D6D3D1"/>
</g>
<path d="M183 396H217V458H183V396Z" fill="#78716C"/>
<g filter="url(#filter13_d_23_40985)">
<path d="M183 404H217V458H183V404Z" fill="black" fill-opacity="0.2" shape-rendering="crispEdges"/>
</g>
<defs>
<filter id="filter0_ii_23_40985" x="16" y="4" width="68" height="65" filterUnits="userSpaceOnUse" color-interpolation-filters="sRGB">
<feFlood flood-opacity="0" result="BackgroundImageFix"/>
<feBlend mode="normal" in="SourceGraphic" in2="BackgroundImageFix" result="shape"/>
<feColorMatrix in="SourceAlpha" type="matrix" values="0 0 0 0 0 0 0 0 0 0 0 0 0 0 0 0 0 0 127 0" result="hardAlpha"/>
<feOffset dx="4" dy="-4"/>
<feGaussianBlur stdDeviation="4"/>
<feComposite in2="hardAlpha" operator="arithmetic" k2="-1" k3="1"/>
<feColorMatrix type="matrix" values="0 0 0 0 0 0 0 0 0 0 0 0 0 0 0 0 0 0 0.25 0"/>
<feBlend mode="normal" in2="shape" result="effect1_innerShadow_23_40985"/>
<feColorMatrix in="SourceAlpha" type="matrix" values="0 0 0 0 0 0 0 0 0 0 0 0 0 0 0 0 0 0 127 0" result="hardAlpha"/>
<feOffset dx="-4" dy="-4"/>
<feGaussianBlur stdDeviation="4"/>
<feComposite in2="hardAlpha" operator="arithmetic" k2="-1" k3="1"/>
<feColorMatrix type="matrix" values="0 0 0 0 1 0 0 0 0 1 0 0 0 0 1 0 0 0 0.25 0"/>
<feBlend mode="normal" in2="effect1_innerShadow_23_40985" result="effect2_innerShadow_23_40985"/>
</filter>
<filter id="filter1_ii_23_40985" x="116" y="4" width="68" height="65" filterUnits="userSpaceOnUse" color-interpolation-filters="sRGB">
<feFlood flood-opacity="0" result="BackgroundImageFix"/>
<feBlend mode="normal" in="SourceGraphic" in2="BackgroundImageFix" result="shape"/>
<feColorMatrix in="SourceAlpha" type="matrix" values="0 0 0 0 0 0 0 0 0 0 0 0 0 0 0 0 0 0 127 0" result="hardAlpha"/>
<feOffset dx="4" dy="-4"/>
<feGaussianBlur stdDeviation="4"/>
<feComposite in2="hardAlpha" operator="arithmetic" k2="-1" k3="1"/>
<feColorMatrix type="matrix" values="0 0 0 0 0 0 0 0 0 0 0 0 0 0 0 0 0 0 0.25 0"/>
<feBlend mode="normal" in2="shape" result="effect1_innerShadow_23_40985"/>
<feColorMatrix in="SourceAlpha" type="matrix" values="0 0 0 0 0 0 0 0 0 0 0 0 0 0 0 0 0 0 127 0" result="hardAlpha"/>
<feOffset dx="-4" dy="-4"/>
<feGaussianBlur stdDeviation="4"/>
<feComposite in2="hardAlpha" operator="arithmetic" k2="-1" k3="1"/>
<feColorMatrix type="matrix" values="0 0 0 0 1 0 0 0 0 1 0 0 0 0 1 0 0 0 0.25 0"/>
<feBlend mode="normal" in2="effect1_innerShadow_23_40985" result="effect2_innerShadow_23_40985"/>
</filter>
<filter id="filter2_ii_23_40985" x="216" y="4" width="68" height="65" filterUnits="userSpaceOnUse" color-interpolation-filters="sRGB">
<feFlood flood-opacity="0" result="BackgroundImageFix"/>
<feBlend mode="normal" in="SourceGraphic" in2="BackgroundImageFix" result="shape"/>
<feColorMatrix in="SourceAlpha" type="matrix" values="0 0 0 0 0 0 0 0 0 0 0 0 0 0 0 0 0 0 127 0" result="hardAlpha"/>
<feOffset dx="4" dy="-4"/>
<feGaussianBlur stdDeviation="4"/>
<feComposite in2="hardAlpha" operator="arithmetic" k2="-1" k3="1"/>
<feColorMatrix type="matrix" values="0 0 0 0 0 0 0 0 0 0 0 0 0 0 0 0 0 0 0.25 0"/>
<feBlend mode="normal" in2="shape" result="effect1_innerShadow_23_40985"/>
<feColorMatrix in="SourceAlpha" type="matrix" values="0 0 0 0 0 0 0 0 0 0 0 0 0 0 0 0 0 0 127 0" result="hardAlpha"/>
<feOffset dx="-4" dy="-4"/>
<feGaussianBlur stdDeviation="4"/>
<feComposite in2="hardAlpha" operator="arithmetic" k2="-1" k3="1"/>
<feColorMatrix type="matrix" values="0 0 0 0 1 0 0 0 0 1 0 0 0 0 1 0 0 0 0.25 0"/>
<feBlend mode="normal" in2="effect1_innerShadow_23_40985" result="effect2_innerShadow_23_40985"/>
</filter>
<filter id="filter3_ii_23_40985" x="316" y="4" width="68" height="65" filterUnits="userSpaceOnUse" color-interpolation-filters="sRGB">
<feFlood flood-opacity="0" result="BackgroundImageFix"/>
<feBlend mode="normal" in="SourceGraphic" in2="BackgroundImageFix" result="shape"/>
<feColorMatrix in="SourceAlpha" type="matrix" values="0 0 0 0 0 0 0 0 0 0 0 0 0 0 0 0 0 0 127 0" result="hardAlpha"/>
<feOffset dx="4" dy="-4"/>
<feGaussianBlur stdDeviation="4"/>
<feComposite in2="hardAlpha" operator="arithmetic" k2="-1" k3="1"/>
<feColorMatrix type="matrix" values="0 0 0 0 0 0 0 0 0 0 0 0 0 0 0 0 0 0 0.25 0"/>
<feBlend mode="normal" in2="shape" result="effect1_innerShadow_23_40985"/>
<feColorMatrix in="SourceAlpha" type="matrix" values="0 0 0 0 0 0 0 0 0 0 0 0 0 0 0 0 0 0 127 0" result="hardAlpha"/>
<feOffset dx="-4" dy="-4"/>
<feGaussianBlur stdDeviation="4"/>
<feComposite in2="hardAlpha" operator="arithmetic" k2="-1" k3="1"/>
<feColorMatrix type="matrix" values="0 0 0 0 1 0 0 0 0 1 0 0 0 0 1 0 0 0 0.25 0"/>
<feBlend mode="normal" in2="effect1_innerShadow_23_40985" result="effect2_innerShadow_23_40985"/>
</filter>
<filter id="filter4_ddi_23_40985" x="0" y="379" width="400" height="87" filterUnits="userSpaceOnUse" color-interpolation-filters="sRGB">
<feFlood flood-opacity="0" result="BackgroundImageFix"/>
<feColorMatrix in="SourceAlpha" type="matrix" values="0 0 0 0 0 0 0 0 0 0 0 0 0 0 0 0 0 0 127 0" result="hardAlpha"/>
<feOffset dy="4"/>
<feComposite in2="hardAlpha" operator="out"/>
<feColorMatrix type="matrix" values="0 0 0 0 0 0 0 0 0 0 0 0 0 0 0 0 0 0 0.25 0"/>
<feBlend mode="normal" in2="BackgroundImageFix" result="effect1_dropShadow_23_40985"/>
<feColorMatrix in="SourceAlpha" type="matrix" values="0 0 0 0 0 0 0 0 0 0 0 0 0 0 0 0 0 0 127 0" result="hardAlpha"/>
<feOffset dy="16"/>
<feComposite in2="hardAlpha" operator="out"/>
<feColorMatrix type="matrix" values="0 0 0 0 0 0 0 0 0 0 0 0 0 0 0 0 0 0 0.25 0"/>
<feBlend mode="normal" in2="effect1_dropShadow_23_40985" result="effect2_dropShadow_23_40985"/>
<feBlend mode="normal" in="SourceGraphic" in2="effect2_dropShadow_23_40985" result="shape"/>
<feColorMatrix in="SourceAlpha" type="matrix" values="0 0 0 0 0 0 0 0 0 0 0 0 0 0 0 0 0 0 127 0" result="hardAlpha"/>
<feOffset dy="1000"/>
<feComposite in2="hardAlpha" operator="arithmetic" k2="-1" k3="1"/>
<feColorMatrix type="matrix" values="0 0 0 0 0 0 0 0 0 0 0 0 0 0 0 0 0 0 0.3 0"/>
<feBlend mode="normal" in2="shape" result="effect3_innerShadow_23_40985"/>
</filter>
<filter id="filter5_di_23_40985" x="90.4023" y="129.821" width="60.5391" height="48.9014" filterUnits="userSpaceOnUse" color-interpolation-filters="sRGB">
<feFlood flood-opacity="0" result="BackgroundImageFix"/>
<feColorMatrix in="SourceAlpha" type="matrix" values="0 0 0 0 0 0 0 0 0 0 0 0 0 0 0 0 0 0 127 0" result="hardAlpha"/>
<feMorphology radius="2" operator="dilate" in="SourceAlpha" result="effect1_dropShadow_23_40985"/>
<feOffset/>
<feGaussianBlur stdDeviation="2"/>
<feComposite in2="hardAlpha" operator="out"/>
<feColorMatrix type="matrix" values="0 0 0 0 0 0 0 0 0 0 0 0 0 0 0 0 0 0 0.12 0"/>
<feBlend mode="normal" in2="BackgroundImageFix" result="effect1_dropShadow_23_40985"/>
<feBlend mode="normal" in="SourceGraphic" in2="effect1_dropShadow_23_40985" result="shape"/>
<feColorMatrix in="SourceAlpha" type="matrix" values="0 0 0 0 0 0 0 0 0 0 0 0 0 0 0 0 0 0 127 0" result="hardAlpha"/>
<feOffset dx="-2" dy="4"/>
<feGaussianBlur stdDeviation="1"/>
<feComposite in2="hardAlpha" operator="arithmetic" k2="-1" k3="1"/>
<feColorMatrix type="matrix" values="0 0 0 0 1 0 0 0 0 1 0 0 0 0 1 0 0 0 0.53 0"/>
<feBlend mode="normal" in2="shape" result="effect2_innerShadow_23_40985"/>
</filter>
<filter id="filter6_di_23_40985" x="324.438" y="125.62" width="56.5469" height="63.0928" filterUnits="userSpaceOnUse" color-interpolation-filters="sRGB">
<feFlood flood-opacity="0" result="BackgroundImageFix"/>
<feColorMatrix in="SourceAlpha" type="matrix" values="0 0 0 0 0 0 0 0 0 0 0 0 0 0 0 0 0 0 127 0" result="hardAlpha"/>
<feMorphology radius="2" operator="dilate" in="SourceAlpha" result="effect1_dropShadow_23_40985"/>
<feOffset/>
<feGaussianBlur stdDeviation="2"/>
<feComposite in2="hardAlpha" operator="out"/>
<feColorMatrix type="matrix" values="0 0 0 0 0 0 0 0 0 0 0 0 0 0 0 0 0 0 0.12 0"/>
<feBlend mode="normal" in2="BackgroundImageFix" result="effect1_dropShadow_23_40985"/>
<feBlend mode="normal" in="SourceGraphic" in2="effect1_dropShadow_23_40985" result="shape"/>
<feColorMatrix in="SourceAlpha" type="matrix" values="0 0 0 0 0 0 0 0 0 0 0 0 0 0 0 0 0 0 127 0" result="hardAlpha"/>
<feOffset dx="-2" dy="4"/>
<feGaussianBlur stdDeviation="1"/>
<feComposite in2="hardAlpha" operator="arithmetic" k2="-1" k3="1"/>
<feColorMatrix type="matrix" values="0 0 0 0 1 0 0 0 0 1 0 0 0 0 1 0 0 0 0.9 0"/>
<feBlend mode="normal" in2="shape" result="effect2_innerShadow_23_40985"/>
</filter>
<filter id="filter7_di_23_40985" x="157.5" y="269.62" width="56.5469" height="63.0928" filterUnits="userSpaceOnUse" color-interpolation-filters="sRGB">
<feFlood flood-opacity="0" result="BackgroundImageFix"/>
<feColorMatrix in="SourceAlpha" type="matrix" values="0 0 0 0 0 0 0 0 0 0 0 0 0 0 0 0 0 0 127 0" result="hardAlpha"/>
<feMorphology radius="2" operator="dilate" in="SourceAlpha" result="effect1_dropShadow_23_40985"/>
<feOffset/>
<feGaussianBlur stdDeviation="2"/>
<feComposite in2="hardAlpha" operator="out"/>
<feColorMatrix type="matrix" values="0 0 0 0 0 0 0 0 0 0 0 0 0 0 0 0 0 0 0.12 0"/>
<feBlend mode="normal" in2="BackgroundImageFix" result="effect1_dropShadow_23_40985"/>
<feBlend mode="normal" in="SourceGraphic" in2="effect1_dropShadow_23_40985" result="shape"/>
<feColorMatrix in="SourceAlpha" type="matrix" values="0 0 0 0 0 0 0 0 0 0 0 0 0 0 0 0 0 0 127 0" result="hardAlpha"/>
<feOffset dx="-2" dy="4"/>
<feGaussianBlur stdDeviation="1"/>
<feComposite in2="hardAlpha" operator="arithmetic" k2="-1" k3="1"/>
<feColorMatrix type="matrix" values="0 0 0 0 1 0 0 0 0 1 0 0 0 0 1 0 0 0 0.53 0"/>
<feBlend mode="normal" in2="shape" result="effect2_innerShadow_23_40985"/>
</filter>
<filter id="filter8_di_23_40985" x="19.3242" y="222.67" width="109.609" height="118.14" filterUnits="userSpaceOnUse" color-interpolation-filters="sRGB">
<feFlood flood-opacity="0" result="BackgroundImageFix"/>
<feColorMatrix in="SourceAlpha" type="matrix" values="0 0 0 0 0 0 0 0 0 0 0 0 0 0 0 0 0 0 127 0" result="hardAlpha"/>
<feMorphology radius="2" operator="dilate" in="SourceAlpha" result="effect1_dropShadow_23_40985"/>
<feOffset/>
<feGaussianBlur stdDeviation="2"/>
<feComposite in2="hardAlpha" operator="out"/>
<feColorMatrix type="matrix" values="0 0 0 0 0 0 0 0 0 0 0 0 0 0 0 0 0 0 0.12 0"/>
<feBlend mode="normal" in2="BackgroundImageFix" result="effect1_dropShadow_23_40985"/>
<feBlend mode="normal" in="SourceGraphic" in2="effect1_dropShadow_23_40985" result="shape"/>
<feColorMatrix in="SourceAlpha" type="matrix" values="0 0 0 0 0 0 0 0 0 0 0 0 0 0 0 0 0 0 127 0" result="hardAlpha"/>
<feOffset dx="-2" dy="4"/>
<feGaussianBlur stdDeviation="1"/>
<feComposite in2="hardAlpha" operator="arithmetic" k2="-1" k3="1"/>
<feColorMatrix type="matrix" values="0 0 0 0 1 0 0 0 0 1 0 0 0 0 1 0 0 0 0.9 0"/>
<feBlend mode="normal" in2="shape" result="effect2_innerShadow_23_40985"/>
</filter>
<filter id="filter9_di_23_40985" x="250.625" y="276.67" width="33.7578" height="31.0996" filterUnits="userSpaceOnUse" color-interpolation-filters="sRGB">
<feFlood flood-opacity="0" result="BackgroundImageFix"/>
<feColorMatrix in="SourceAlpha" type="matrix" values="0 0 0 0 0 0 0 0 0 0 0 0 0 0 0 0 0 0 127 0" result="hardAlpha"/>
<feMorphology radius="2" operator="dilate" in="SourceAlpha" result="effect1_dropShadow_23_40985"/>
<feOffset/>
<feGaussianBlur stdDeviation="2"/>
<feComposite in2="hardAlpha" operator="out"/>
<feColorMatrix type="matrix" values="0 0 0 0 0 0 0 0 0 0 0 0 0 0 0 0 0 0 0.12 0"/>
<feBlend mode="normal" in2="BackgroundImageFix" result="effect1_dropShadow_23_40985"/>
<feBlend mode="normal" in="SourceGraphic" in2="effect1_dropShadow_23_40985" result="shape"/>
<feColorMatrix in="SourceAlpha" type="matrix" values="0 0 0 0 0 0 0 0 0 0 0 0 0 0 0 0 0 0 127 0" result="hardAlpha"/>
<feOffset dx="-2" dy="4"/>
<feGaussianBlur stdDeviation="1"/>
<feComposite in2="hardAlpha" operator="arithmetic" k2="-1" k3="1"/>
<feColorMatrix type="matrix" values="0 0 0 0 1 0 0 0 0 1 0 0 0 0 1 0 0 0 0.9 0"/>
<feBlend mode="normal" in2="shape" result="effect2_innerShadow_23_40985"/>
</filter>
<filter id="filter10_di_23_40985" x="138.625" y="167.67" width="33.7578" height="31.0996" filterUnits="userSpaceOnUse" color-interpolation-filters="sRGB">
<feFlood flood-opacity="0" result="BackgroundImageFix"/>
<feColorMatrix in="SourceAlpha" type="matrix" values="0 0 0 0 0 0 0 0 0 0 0 0 0 0 0 0 0 0 127 0" result="hardAlpha"/>
<feMorphology radius="2" operator="dilate" in="SourceAlpha" result="effect1_dropShadow_23_40985"/>
<feOffset/>
<feGaussianBlur stdDeviation="2"/>
<feComposite in2="hardAlpha" operator="out"/>
<feColorMatrix type="matrix" values="0 0 0 0 0 0 0 0 0 0 0 0 0 0 0 0 0 0 0.12 0"/>
<feBlend mode="normal" in2="BackgroundImageFix" result="effect1_dropShadow_23_40985"/>
<feBlend mode="normal" in="SourceGraphic" in2="effect1_dropShadow_23_40985" result="shape"/>
<feColorMatrix in="SourceAlpha" type="matrix" values="0 0 0 0 0 0 0 0 0 0 0 0 0 0 0 0 0 0 127 0" result="hardAlpha"/>
<feOffset dx="-2" dy="4"/>
<feGaussianBlur stdDeviation="1"/>
<feComposite in2="hardAlpha" operator="arithmetic" k2="-1" k3="1"/>
<feColorMatrix type="matrix" values="0 0 0 0 1 0 0 0 0 1 0 0 0 0 1 0 0 0 0.53 0"/>
<feBlend mode="normal" in2="shape" result="effect2_innerShadow_23_40985"/>
</filter>
<filter id="filter11_di_23_40985" x="346.625" y="313.67" width="33.7578" height="31.0996" filterUnits="userSpaceOnUse" color-interpolation-filters="sRGB">
<feFlood flood-opacity="0" result="BackgroundImageFix"/>
<feColorMatrix in="SourceAlpha" type="matrix" values="0 0 0 0 0 0 0 0 0 0 0 0 0 0 0 0 0 0 127 0" result="hardAlpha"/>
<feMorphology radius="2" operator="dilate" in="SourceAlpha" result="effect1_dropShadow_23_40985"/>
<feOffset/>
<feGaussianBlur stdDeviation="2"/>
<feComposite in2="hardAlpha" operator="out"/>
<feColorMatrix type="matrix" values="0 0 0 0 0 0 0 0 0 0 0 0 0 0 0 0 0 0 0.12 0"/>
<feBlend mode="normal" in2="BackgroundImageFix" result="effect1_dropShadow_23_40985"/>
<feBlend mode="normal" in="SourceGraphic" in2="effect1_dropShadow_23_40985" result="shape"/>
<feColorMatrix in="SourceAlpha" type="matrix" values="0 0 0 0 0 0 0 0 0 0 0 0 0 0 0 0 0 0 127 0" result="hardAlpha"/>
<feOffset dx="-2" dy="4"/>
<feGaussianBlur stdDeviation="1"/>
<feComposite in2="hardAlpha" operator="arithmetic" k2="-1" k3="1"/>
<feColorMatrix type="matrix" values="0 0 0 0 1 0 0 0 0 1 0 0 0 0 1 0 0 0 0.9 0"/>
<feBlend mode="normal" in2="shape" result="effect2_innerShadow_23_40985"/>
</filter>
<filter id="filter12_di_23_40985" x="292.406" y="240.653" width="66.4453" height="80.2026" filterUnits="userSpaceOnUse" color-interpolation-filters="sRGB">
<feFlood flood-opacity="0" result="BackgroundImageFix"/>
<feColorMatrix in="SourceAlpha" type="matrix" values="0 0 0 0 0 0 0 0 0 0 0 0 0 0 0 0 0 0 127 0" result="hardAlpha"/>
<feMorphology radius="2" operator="dilate" in="SourceAlpha" result="effect1_dropShadow_23_40985"/>
<feOffset/>
<feGaussianBlur stdDeviation="2"/>
<feComposite in2="hardAlpha" operator="out"/>
<feColorMatrix type="matrix" values="0 0 0 0 0 0 0 0 0 0 0 0 0 0 0 0 0 0 0.12 0"/>
<feBlend mode="normal" in2="BackgroundImageFix" result="effect1_dropShadow_23_40985"/>
<feBlend mode="normal" in="SourceGraphic" in2="effect1_dropShadow_23_40985" result="shape"/>
<feColorMatrix in="SourceAlpha" type="matrix" values="0 0 0 0 0 0 0 0 0 0 0 0 0 0 0 0 0 0 127 0" result="hardAlpha"/>
<feOffset dx="-2" dy="4"/>
<feGaussianBlur stdDeviation="1"/>
<feComposite in2="hardAlpha" operator="arithmetic" k2="-1" k3="1"/>
<feColorMatrix type="matrix" values="0 0 0 0 1 0 0 0 0 1 0 0 0 0 1 0 0 0 0.9 0"/>
<feBlend mode="normal" in2="shape" result="effect2_innerShadow_23_40985"/>
</filter>
<filter id="filter13_d_23_40985" x="183" y="404" width="34" height="58" filterUnits="userSpaceOnUse" color-interpolation-filters="sRGB">
<feFlood flood-opacity="0" result="BackgroundImageFix"/>
<feColorMatrix in="SourceAlpha" type="matrix" values="0 0 0 0 0 0 0 0 0 0 0 0 0 0 0 0 0 0 127 0" result="hardAlpha"/>
<feOffset dy="4"/>
<feComposite in2="hardAlpha" operator="out"/>
<feColorMatrix type="matrix" values="0 0 0 0 0 0 0 0 0 0 0 0 0 0 0 0 0 0 0.25 0"/>
<feBlend mode="normal" in2="BackgroundImageFix" result="effect1_dropShadow_23_40985"/>
<feBlend mode="normal" in="SourceGraphic" in2="effect1_dropShadow_23_40985" result="shape"/>
</filter>
</defs>
</svg>
