<svg width="462" height="568" viewBox="0 0 462 568" fill="none" xmlns="http://www.w3.org/2000/svg">
<path fill-rule="evenodd" clip-rule="evenodd" d="M284.027 183.535C270.803 170.828 252.175 162.914 231.537 162.914C210.323 162.914 191.233 171.275 177.953 184.61C173.589 183.858 169.088 183.464 164.486 183.464C124.37 183.464 91.8487 213.367 91.8487 250.254C91.8487 253.093 92.0413 255.891 92.4152 258.636C91.4039 258.601 90.3883 258.583 89.3686 258.583C40.0117 258.583 0 300.702 0 352.658C0 385.771 16.2527 414.889 40.8189 431.653C38.9027 438.349 37.8821 445.379 37.8821 452.629C37.8821 498.028 77.908 534.832 127.282 534.832C138.287 534.832 148.827 533.003 158.563 529.659C174.412 552.651 202.331 567.914 234.127 567.914C264.323 567.914 291.022 554.148 307.208 533.07C313.177 534.224 319.365 534.832 325.707 534.832C375.082 534.832 415.108 498.028 415.108 452.629C415.108 449.459 414.913 446.331 414.533 443.254C442.629 427.668 461.738 396.99 461.738 361.693C461.738 310.618 421.726 269.213 372.369 269.213C366.989 269.213 361.72 269.705 356.602 270.648C358.841 264.219 360.05 257.366 360.05 250.254C360.05 213.367 327.529 183.464 287.412 183.464C286.278 183.464 285.149 183.488 284.027 183.535Z" fill="black" fill-opacity="0.12"/>
<path fill-rule="evenodd" clip-rule="evenodd" d="M352.392 257.541C356.345 256.887 360.416 256.546 364.574 256.546C399.779 256.546 428.767 281.026 432.5 312.484C442.295 326.71 448.057 344.115 448.057 362.914C448.057 395.633 430.602 424.134 404.803 438.989C405.059 441.448 405.19 443.94 405.19 446.461C405.19 489.17 367.536 523.792 321.088 523.792C315.272 523.792 309.594 523.249 304.111 522.216C289.057 543.125 263.246 556.914 233.933 556.914C203.287 556.914 176.47 541.842 161.769 519.32C152.996 522.297 143.581 523.914 133.785 523.914C86.247 523.914 47.7101 485.858 47.7101 438.914C47.7101 434.615 48.0333 430.391 48.6569 426.263C27.4722 410.194 13.6807 383.999 13.6807 354.414C13.6807 305.536 51.3213 265.914 97.7534 265.914C98.7126 265.914 99.6681 265.93 100.62 265.964C100.268 263.381 100.087 260.749 100.087 258.078C100.087 223.377 130.68 195.246 168.42 195.246C172.749 195.246 176.983 195.616 181.089 196.324C193.582 183.78 211.54 175.914 231.497 175.914C250.912 175.914 268.436 183.359 280.876 195.313C281.932 195.269 282.994 195.246 284.061 195.246C321.606 195.246 352.079 223.087 352.392 257.541Z" fill="black" fill-opacity="0.2"/>
<g filter="url(#filter0_iii_33_127266)">
<path fill-rule="evenodd" clip-rule="evenodd" d="M279.681 167.485C267.541 154.808 250.44 146.914 231.494 146.914C212.02 146.914 194.495 155.255 182.304 168.556C178.297 167.806 174.165 167.413 169.941 167.413C133.113 167.413 103.258 197.242 103.258 234.038L103.258 234.145C53.8405 244.314 16.6836 288.028 16.6836 340.414C16.6836 373.435 31.4483 403.012 54.7416 422.912C54.0664 427.146 53.7156 431.489 53.7156 435.914C53.7156 481.201 90.4601 517.914 135.787 517.914C143.228 517.914 150.438 516.924 157.292 515.07L152.897 522.213C152.291 523.197 152.598 524.484 153.582 525.089C154.567 525.693 155.855 525.386 156.46 524.402L161.942 515.495L161.116 519.308C160.824 520.657 161.681 521.987 163.03 522.279C164.38 522.57 165.71 521.713 166.002 520.364L166.882 516.298C181.751 537.244 206.213 550.914 233.872 550.914C260.66 550.914 284.45 538.09 299.43 518.252L303.921 526.456C304.505 527.522 305.842 527.913 306.908 527.331C307.974 526.748 308.365 525.412 307.782 524.346L303.896 517.249L308.505 523.167C309.284 524.167 310.725 524.347 311.725 523.569C312.725 522.792 312.905 521.351 312.127 520.352L309.927 517.527C312.565 517.783 315.239 517.914 317.944 517.914C363.271 517.914 400.015 481.201 400.015 435.914C400.015 435.649 400.014 435.385 400.012 435.121C400.011 435.026 400.01 434.931 400.008 434.836C400.007 434.721 400.005 434.607 400.003 434.493C427.772 415.927 446.055 384.304 446.055 348.414C446.055 329.112 440.767 311.044 431.559 295.577L435.637 297.049C436.934 297.517 438.366 296.845 438.835 295.548C439.304 294.251 438.633 292.82 437.335 292.352L429.461 289.51L436.596 285.583C437.607 285.026 437.975 283.755 437.418 282.744C436.86 281.733 435.588 281.365 434.577 281.922L425.71 286.802C407.967 262.91 380.164 246.921 348.559 245.09C349.159 241.495 349.472 237.803 349.472 234.038C349.472 197.242 319.617 167.413 282.789 167.413C281.747 167.413 280.711 167.437 279.681 167.485Z" fill="#EAB308"/>
</g>
<path fill-rule="evenodd" clip-rule="evenodd" d="M273.037 114.652C262.56 103.72 247.806 96.9136 231.462 96.9136C214.661 96.9136 199.542 104.106 189.02 115.577C185.56 114.928 181.99 114.589 178.341 114.589C152.425 114.589 130.51 131.703 123.298 155.236C92.4029 156.252 67.6689 181.595 67.6689 212.711C67.6689 218.429 68.5044 223.953 70.0599 229.166C56.7492 240.263 48.7109 254.669 48.7109 270.414C48.7109 286.827 57.4464 301.786 71.7838 313.056C67.2709 321.862 64.7248 331.841 64.7248 342.414C64.7248 378.036 93.6275 406.914 129.281 406.914C136.921 406.914 144.252 405.587 151.055 403.153C163.121 426.2 187.164 441.914 214.855 441.914C243.489 441.914 268.222 425.112 279.846 400.773C291.136 408.436 304.767 412.914 319.445 412.914C358.415 412.914 390.006 381.35 390.006 342.414C390.006 336.035 389.158 329.854 387.569 323.977C405.588 311.595 417.03 293.09 417.03 272.414C417.03 251.142 404.92 232.168 385.997 219.796C386.282 217.474 386.429 215.11 386.429 212.711C386.429 181.594 361.693 156.249 330.796 155.236C323.584 131.703 301.669 114.589 275.753 114.589C274.842 114.589 273.937 114.61 273.037 114.652Z" fill="black" fill-opacity="0.2"/>
<g filter="url(#filter1_iii_33_127266)">
<path fill-rule="evenodd" clip-rule="evenodd" d="M330.796 145.236C349.536 145.851 366.009 155.416 376.072 169.791C403.211 183.431 421.831 211.509 421.831 243.933C421.831 273.563 406.281 299.564 382.889 314.234L394.297 318.352C395.595 318.82 396.266 320.251 395.797 321.548C395.328 322.845 393.896 323.517 392.599 323.049L388.923 321.722L397.029 328.338C397.923 329.068 398.056 330.384 397.325 331.278C396.594 332.172 395.277 332.305 394.382 331.575L381.873 321.366C382.74 325.676 383.195 330.135 383.195 334.701C383.195 371.867 353.04 401.995 315.843 401.995C302.286 401.995 289.665 397.993 279.098 391.108C267.804 415.215 243.307 431.914 214.907 431.914C187.984 431.914 164.57 416.908 152.584 394.811C146.111 397.155 139.127 398.433 131.844 398.433C98.2258 398.433 70.9732 371.204 70.9732 337.615C70.9732 329.922 72.4026 322.563 75.0107 315.788L69.9603 320.487C68.9502 321.426 67.3687 321.37 66.428 320.361C65.4874 319.351 65.5437 317.771 66.5539 316.831L73.5486 310.324L68.484 312.344C67.6372 312.682 66.6765 312.269 66.3382 311.422C66 310.576 66.4123 309.616 67.2592 309.278L75.9726 305.803C57.5389 289.553 45.9119 265.774 45.9119 239.281C45.9119 225.051 49.2664 211.604 55.2285 199.686L49.0589 197.459C47.7615 196.99 47.0899 195.559 47.5589 194.262C48.0279 192.965 49.4599 192.293 50.7573 192.761L54.4324 194.088L46.3269 187.473C45.4324 186.743 45.2997 185.426 46.0305 184.532C46.7613 183.638 48.079 183.505 48.9735 184.236L59.2006 192.582C72.7 170.85 95.3403 155.379 121.755 151.531C126.719 124.817 150.166 104.589 178.342 104.589C181.99 104.589 185.56 104.928 189.02 105.577C199.542 94.1058 214.662 86.9136 231.462 86.9136C247.807 86.9136 262.56 93.7205 273.037 104.652C273.937 104.61 274.843 104.589 275.753 104.589C301.669 104.589 323.585 121.703 330.796 145.236Z" fill="#EAB308"/>
</g>
<path fill-rule="evenodd" clip-rule="evenodd" d="M284.209 284.711C275.198 301.918 254.914 313.914 231.335 313.914C207.346 313.914 186.768 301.498 178.001 283.811C169.678 289.152 159.316 292.32 148.085 292.32C120.63 292.32 98.3734 273.393 98.3734 250.045C98.3734 241.899 101.083 234.292 105.777 227.838C88.4212 219.346 76.7354 203.417 76.7354 185.166C76.7354 172.733 82.1592 161.377 91.1046 152.715C91.043 151.878 91.0118 151.033 91.0118 150.183C91.0118 131.152 106.651 115.228 127.595 111.196C144.763 76.9331 184.728 52.9136 231.289 52.9136C277.889 52.9136 317.882 76.9729 335.026 111.281C353.755 116.545 367.271 131.552 367.271 149.243C367.271 150.233 367.228 151.214 367.145 152.186C375.783 160.781 380.999 171.938 380.999 184.13C380.999 202.066 369.711 217.761 352.848 226.357C357.755 232.91 360.597 240.689 360.597 249.033C360.597 272.381 338.341 291.307 310.886 291.307C301.069 291.307 291.917 288.888 284.209 284.711Z" fill="black" fill-opacity="0.2"/>
<g filter="url(#filter2_ii_33_127266)">
<path fill-rule="evenodd" clip-rule="evenodd" d="M245.129 0.00194976C244.009 -0.0467349 243.061 0.822242 243.012 1.94286L242.638 10.5343C238.437 10.1239 234.177 9.9138 229.868 9.9138C169.022 9.9138 117.931 51.8043 103.7 108.399L94.7666 105.175C92.8366 104.479 90.7065 105.478 90.0088 107.408C89.3112 109.337 90.3102 111.466 92.2401 112.163L101.295 115.431C88.0657 127.334 79.7383 144.645 79.7383 163.914C79.7383 186.445 91.1237 206.299 108.418 217.96C105.809 223.893 104.361 230.451 104.361 237.347C104.361 263.993 125.98 285.593 152.649 285.593C163.084 285.593 172.745 282.286 180.641 276.664C190.2 294.021 208.68 305.783 229.909 305.783C251.141 305.783 269.624 294.018 279.181 276.656C287.079 282.283 296.745 285.593 307.184 285.593C333.853 285.593 355.472 263.993 355.472 237.347C355.472 230.432 354.016 223.856 351.393 217.91C368.645 206.242 379.998 186.413 379.998 163.914C379.998 146.75 373.391 131.14 362.598 119.521L367.738 117.213C369.609 116.372 370.444 114.173 369.602 112.302C368.76 110.431 366.56 109.595 364.689 110.436L360.917 112.13L374.123 98.4378C375.128 97.3955 375.097 95.7365 374.054 94.7322C373.011 93.728 371.35 93.7588 370.345 94.801L356.28 109.385C343.947 58.6648 302.061 19.5589 249.957 11.4597L251.581 8.66396C252.144 7.69427 251.815 6.45211 250.845 5.88952C249.874 5.32694 248.631 5.65696 248.068 6.62666L246.777 8.84839L247.07 2.11917C247.119 0.998545 246.25 0.0506344 245.129 0.00194976Z" fill="#EAB308"/>
</g>
<rect opacity="0.6" width="7.43426" height="36.2889" rx="3.71713" transform="matrix(0.844119 0.536156 -0.536818 0.843698 163.175 216.321)" fill="black" fill-opacity="0.12"/>
<rect opacity="0.6" x="243.88" y="461.914" width="6.00519" height="50" rx="3.00259" fill="black" fill-opacity="0.12"/>
<rect opacity="0.6" width="3.61963" height="17.6725" rx="1.80981" transform="matrix(0.763735 0.64553 -0.646181 0.763184 77.3242 232.426)" fill="black" fill-opacity="0.12"/>
<rect opacity="0.6" width="3.61991" height="17.6711" rx="1.80996" transform="matrix(-0.820886 0.571092 -0.571758 -0.820422 386.622 440.041)" fill="black" fill-opacity="0.12"/>
<rect opacity="0.6" width="3.61991" height="25.7868" rx="1.80996" transform="matrix(-0.820886 0.571092 -0.571759 -0.820422 355.677 184.07)" fill="black" fill-opacity="0.12"/>
<rect opacity="0.6" x="242.879" y="212.914" width="4.00346" height="36" rx="2.00173" fill="white" fill-opacity="0.2"/>
<rect opacity="0.6" width="4.00333" height="36.0011" rx="2.00167" transform="matrix(0.981373 0.192111 -0.192431 0.98131 201.342 346.865)" fill="white" fill-opacity="0.2"/>
<rect opacity="0.6" width="4.00311" height="20.3796" rx="2.00155" transform="matrix(0.947987 -0.318309 0.318804 0.947821 300.93 327.188)" fill="white" fill-opacity="0.2"/>
<rect opacity="0.6" width="4.00332" height="20.3785" rx="2.00166" transform="matrix(0.979383 0.202014 -0.20235 0.979313 224.983 153.914)" fill="white" fill-opacity="0.2"/>
<rect opacity="0.6" width="4.00164" height="18.8789" rx="2.00082" transform="matrix(0.689209 0.724563 -0.725159 0.688582 125.98 125.143)" fill="white" fill-opacity="0.2"/>
<rect opacity="0.6" width="4.00255" height="36.0083" rx="2.00127" transform="matrix(0.857795 0.513993 -0.514648 0.857402 126.32 443.448)" fill="white" fill-opacity="0.2"/>
<defs>
<filter id="filter0_iii_33_127266" x="-15.3164" y="100.279" width="461.372" height="486.634" filterUnits="userSpaceOnUse" color-interpolation-filters="sRGB">
<feFlood flood-opacity="0" result="BackgroundImageFix"/>
<feBlend mode="normal" in="SourceGraphic" in2="BackgroundImageFix" result="shape"/>
<feColorMatrix in="SourceAlpha" type="matrix" values="0 0 0 0 0 0 0 0 0 0 0 0 0 0 0 0 0 0 127 0" result="hardAlpha"/>
<feOffset dy="-69.9512"/>
<feGaussianBlur stdDeviation="23.3171"/>
<feComposite in2="hardAlpha" operator="arithmetic" k2="-1" k3="1"/>
<feColorMatrix type="matrix" values="0 0 0 0 0 0 0 0 0 0 0 0 0 0 0 0 0 0 0.15 0"/>
<feBlend mode="normal" in2="shape" result="effect1_innerShadow_33_127266"/>
<feColorMatrix in="SourceAlpha" type="matrix" values="0 0 0 0 0 0 0 0 0 0 0 0 0 0 0 0 0 0 127 0" result="hardAlpha"/>
<feOffset dy="-12"/>
<feGaussianBlur stdDeviation="14"/>
<feComposite in2="hardAlpha" operator="arithmetic" k2="-1" k3="1"/>
<feColorMatrix type="matrix" values="0 0 0 0 0 0 0 0 0 0 0 0 0 0 0 0 0 0 0.12 0"/>
<feBlend mode="normal" in2="effect1_innerShadow_33_127266" result="effect2_innerShadow_33_127266"/>
<feColorMatrix in="SourceAlpha" type="matrix" values="0 0 0 0 0 0 0 0 0 0 0 0 0 0 0 0 0 0 127 0" result="hardAlpha"/>
<feOffset dx="-32" dy="36"/>
<feGaussianBlur stdDeviation="22"/>
<feComposite in2="hardAlpha" operator="arithmetic" k2="-1" k3="1"/>
<feColorMatrix type="matrix" values="0 0 0 0 1 0 0 0 0 1 0 0 0 0 1 0 0 0 0.25 0"/>
<feBlend mode="normal" in2="effect2_innerShadow_33_127266" result="effect3_innerShadow_33_127266"/>
</filter>
<filter id="filter1_iii_33_127266" x="13.5586" y="40.2794" width="408.272" height="427.634" filterUnits="userSpaceOnUse" color-interpolation-filters="sRGB">
<feFlood flood-opacity="0" result="BackgroundImageFix"/>
<feBlend mode="normal" in="SourceGraphic" in2="BackgroundImageFix" result="shape"/>
<feColorMatrix in="SourceAlpha" type="matrix" values="0 0 0 0 0 0 0 0 0 0 0 0 0 0 0 0 0 0 127 0" result="hardAlpha"/>
<feOffset dy="-69.9512"/>
<feGaussianBlur stdDeviation="23.3171"/>
<feComposite in2="hardAlpha" operator="arithmetic" k2="-1" k3="1"/>
<feColorMatrix type="matrix" values="0 0 0 0 0 0 0 0 0 0 0 0 0 0 0 0 0 0 0.15 0"/>
<feBlend mode="normal" in2="shape" result="effect1_innerShadow_33_127266"/>
<feColorMatrix in="SourceAlpha" type="matrix" values="0 0 0 0 0 0 0 0 0 0 0 0 0 0 0 0 0 0 127 0" result="hardAlpha"/>
<feOffset dy="-12"/>
<feGaussianBlur stdDeviation="14"/>
<feComposite in2="hardAlpha" operator="arithmetic" k2="-1" k3="1"/>
<feColorMatrix type="matrix" values="0 0 0 0 0 0 0 0 0 0 0 0 0 0 0 0 0 0 0.12 0"/>
<feBlend mode="normal" in2="effect1_innerShadow_33_127266" result="effect2_innerShadow_33_127266"/>
<feColorMatrix in="SourceAlpha" type="matrix" values="0 0 0 0 0 0 0 0 0 0 0 0 0 0 0 0 0 0 127 0" result="hardAlpha"/>
<feOffset dx="-32" dy="36"/>
<feGaussianBlur stdDeviation="22"/>
<feComposite in2="hardAlpha" operator="arithmetic" k2="-1" k3="1"/>
<feColorMatrix type="matrix" values="0 0 0 0 1 0 0 0 0 1 0 0 0 0 1 0 0 0 0.25 0"/>
<feBlend mode="normal" in2="effect2_innerShadow_33_127266" result="effect3_innerShadow_33_127266"/>
</filter>
<filter id="filter2_ii_33_127266" x="47.7383" y="-46.6341" width="332.26" height="380.417" filterUnits="userSpaceOnUse" color-interpolation-filters="sRGB">
<feFlood flood-opacity="0" result="BackgroundImageFix"/>
<feBlend mode="normal" in="SourceGraphic" in2="BackgroundImageFix" result="shape"/>
<feColorMatrix in="SourceAlpha" type="matrix" values="0 0 0 0 0 0 0 0 0 0 0 0 0 0 0 0 0 0 127 0" result="hardAlpha"/>
<feOffset dy="-46.6341"/>
<feGaussianBlur stdDeviation="23.3171"/>
<feComposite in2="hardAlpha" operator="arithmetic" k2="-1" k3="1"/>
<feColorMatrix type="matrix" values="0 0 0 0 0 0 0 0 0 0 0 0 0 0 0 0 0 0 0.15 0"/>
<feBlend mode="normal" in2="shape" result="effect1_innerShadow_33_127266"/>
<feColorMatrix in="SourceAlpha" type="matrix" values="0 0 0 0 0 0 0 0 0 0 0 0 0 0 0 0 0 0 127 0" result="hardAlpha"/>
<feOffset dx="-32" dy="28"/>
<feGaussianBlur stdDeviation="22"/>
<feComposite in2="hardAlpha" operator="arithmetic" k2="-1" k3="1"/>
<feColorMatrix type="matrix" values="0 0 0 0 1 0 0 0 0 1 0 0 0 0 1 0 0 0 0.25 0"/>
<feBlend mode="normal" in2="effect1_innerShadow_33_127266" result="effect2_innerShadow_33_127266"/>
</filter>
</defs>
</svg>
