<svg width="397" height="456" viewBox="0 0 397 456" fill="none" xmlns="http://www.w3.org/2000/svg">
<path fill-rule="evenodd" clip-rule="evenodd" d="M238.594 114.731C228.135 103.792 213.409 96.9805 197.095 96.9805C180.325 96.9805 165.233 104.178 154.73 115.656C151.276 115.007 147.713 114.668 144.071 114.668C118.202 114.668 96.3265 131.794 89.1282 155.344C58.2891 156.359 33.6002 181.721 33.6002 212.858C33.6002 218.58 34.4341 224.107 35.9868 229.324C22.7004 240.428 14.6768 254.844 14.6768 270.6C14.6768 287.025 23.3963 301.994 37.7076 313.272C33.2029 322.084 30.6614 332.07 30.6614 342.65C30.6614 378.297 59.5114 407.194 95.0996 407.194C102.726 407.194 110.044 405.867 116.834 403.431C128.878 426.494 152.877 442.218 180.518 442.218C209.099 442.218 233.788 425.405 245.39 401.049C256.66 408.717 270.266 413.198 284.917 413.198C323.816 413.198 355.35 381.613 355.35 342.65C355.35 336.267 354.504 330.081 352.917 324.201C370.903 311.81 382.324 293.292 382.324 272.601C382.324 251.315 370.237 232.328 351.348 219.948C351.633 217.624 351.78 215.258 351.78 212.858C351.78 181.719 327.088 156.357 296.247 155.343C289.049 131.794 267.174 114.668 241.305 114.668C240.396 114.668 239.492 114.689 238.594 114.731Z" fill="black" fill-opacity="0.2"/>
<path fill-rule="evenodd" clip-rule="evenodd" d="M241.794 102.366C230.501 90.5542 214.599 83.1987 196.982 83.1987C178.873 83.1987 162.576 90.9705 151.235 103.366C147.505 102.665 143.658 102.298 139.725 102.298C111.791 102.298 88.1687 120.791 80.3956 146.221C47.0944 147.318 20.4343 174.704 20.4343 208.327C20.4343 214.507 21.3348 220.475 23.0115 226.109C8.66425 238.099 0 253.667 0 270.68C0 288.416 9.41568 304.58 24.8696 316.759C20.0052 326.274 17.2609 337.057 17.2609 348.482C17.2609 386.975 48.4142 418.18 86.8438 418.18C95.0794 418.18 102.981 416.746 110.313 414.116C123.319 439.02 149.234 456 179.082 456C209.945 456 236.604 437.844 249.133 411.544C261.303 419.825 275.996 424.663 291.817 424.663C333.821 424.663 367.872 390.556 367.872 348.482C367.872 341.589 366.958 334.91 365.245 328.56C384.668 315.18 397 295.184 397 272.841C397 249.855 383.947 229.353 363.551 215.983C363.858 213.475 364.017 210.92 364.017 208.327C364.017 174.703 337.354 147.316 304.051 146.221C296.278 120.791 272.656 102.298 244.722 102.298C243.741 102.298 242.764 102.321 241.794 102.366Z" fill="black" fill-opacity="0.12"/>
<g filter="url(#filter0_iii_33_127267)">
<path fill-rule="evenodd" clip-rule="evenodd" d="M296.248 145.337C314.953 145.951 331.397 155.523 341.441 169.908C368.53 183.558 387.116 211.655 387.116 244.101C387.116 273.751 371.595 299.771 348.246 314.451L359.628 318.57C360.926 319.039 361.598 320.472 361.13 321.77C360.662 323.068 359.231 323.74 357.933 323.27L354.268 321.944L362.359 328.564C363.252 329.294 363.385 330.612 362.655 331.507C361.926 332.401 360.61 332.534 359.717 331.803L347.231 321.587C348.097 325.901 348.551 330.363 348.551 334.932C348.551 372.123 318.451 402.272 281.322 402.272C267.79 402.272 255.192 398.268 244.644 391.378C233.37 415.501 208.918 432.211 180.569 432.211C153.696 432.211 130.324 417.195 118.361 395.083C111.899 397.428 104.928 398.707 97.6577 398.707C64.1012 398.707 36.8983 371.46 36.8983 337.848C36.8983 330.15 38.3252 322.786 40.9285 316.006L35.8877 320.707C34.8792 321.648 33.3004 321.592 32.3615 320.582C31.4225 319.572 31.4789 317.99 32.4875 317.05L39.469 310.538L34.4165 312.558C33.5697 312.897 32.6095 312.484 32.2718 311.637C31.9342 310.79 32.3471 309.829 33.1939 309.49L41.8887 306.014C23.4885 289.753 11.8827 265.957 11.8827 239.446C11.8827 225.206 15.2311 211.75 21.1823 199.823L15.0285 197.597C13.731 197.127 13.0587 195.694 13.5268 194.396C13.9949 193.098 15.4263 192.427 16.7238 192.896L20.3878 194.222L12.2978 187.603C11.4045 186.872 11.2716 185.554 12.0011 184.66C12.7306 183.765 14.0462 183.632 14.9396 184.363L25.1473 192.715C38.622 170.968 61.2211 155.486 87.5873 151.636C92.5425 124.903 115.947 104.661 144.071 104.661C147.713 104.661 151.276 105.001 154.73 105.65C165.233 94.1708 180.325 86.9736 197.095 86.9736C213.409 86.9736 228.136 93.7852 238.594 104.724C239.492 104.682 240.396 104.661 241.305 104.661C267.174 104.661 289.049 121.787 296.248 145.337Z" fill="#EAB308"/>
</g>
<path fill-rule="evenodd" clip-rule="evenodd" d="M249.745 284.908C240.75 302.126 220.503 314.13 196.967 314.13C173.022 314.13 152.482 301.706 143.731 284.007C135.422 289.352 125.08 292.521 113.869 292.521C86.4641 292.521 64.248 273.581 64.248 250.218C64.248 242.066 66.9524 234.453 71.6381 227.995C54.314 219.497 42.6494 203.557 42.6494 185.294C42.6494 172.852 48.0634 161.488 56.9925 152.821C56.931 151.983 56.8998 151.138 56.8998 150.286C56.8998 131.243 72.51 115.307 93.4168 111.273C110.553 76.9863 150.445 52.9502 196.922 52.9502C243.437 52.9502 283.356 77.0261 300.469 111.358C319.164 116.625 332.655 131.643 332.655 149.346C332.655 150.337 332.613 151.318 332.53 152.291C341.152 160.892 346.358 172.056 346.358 184.257C346.358 202.206 335.091 217.911 318.258 226.513C323.156 233.07 325.994 240.855 325.994 249.205C325.994 272.569 303.778 291.508 276.373 291.508C266.574 291.508 257.438 289.087 249.745 284.908Z" fill="black" fill-opacity="0.2"/>
<g filter="url(#filter1_ii_33_127267)">
<path fill-rule="evenodd" clip-rule="evenodd" d="M210.736 0.00195598C209.618 -0.0467622 208.671 0.820539 208.623 1.93913L208.249 10.5416C204.056 10.1309 199.804 9.92064 195.503 9.92064C134.767 9.92064 83.7692 51.84 69.5641 108.474L60.6542 105.25C58.724 104.552 56.5947 105.551 55.8983 107.482C55.2019 109.413 56.2021 111.544 58.1323 112.243L67.1635 115.511C53.9587 127.422 45.6465 144.744 45.6465 164.027C45.6465 186.574 57.0112 206.441 74.2737 218.11C71.6697 224.048 70.2243 230.61 70.2243 237.511C70.2243 264.175 91.804 285.79 118.424 285.79C128.84 285.79 138.484 282.481 146.366 276.854C155.907 294.224 174.353 305.994 195.543 305.994C216.737 305.994 235.186 294.22 244.726 276.847C252.609 282.478 262.257 285.79 272.678 285.79C299.298 285.79 320.878 264.175 320.878 237.511C320.878 230.591 319.424 224.01 316.806 218.06C334.027 206.384 345.359 186.541 345.359 164.027C345.359 146.851 338.764 131.23 327.99 119.604L333.115 117.296C334.987 116.453 335.822 114.252 334.982 112.379C334.142 110.507 331.943 109.672 330.072 110.515L326.313 112.207L339.494 98.5055C340.498 97.4626 340.467 95.8025 339.426 94.7975C338.384 93.7926 336.727 93.8233 335.724 94.8662L321.685 109.46C309.374 58.7053 267.564 19.5724 215.555 11.4676L217.177 8.66775C217.739 7.6986 217.409 6.45656 216.441 5.89359C215.472 5.33062 214.232 5.65989 213.671 6.62904L212.381 8.85449L212.674 2.11555C212.722 0.996963 211.855 0.0506742 210.736 0.00195598Z" fill="#EAB308"/>
</g>
<rect opacity="0.6" width="7.42608" height="36.2877" rx="3.71304" transform="matrix(0.843508 0.537117 -0.535858 0.844308 128.931 216.471)" fill="black" fill-opacity="0.12"/>
<rect opacity="0.6" width="3.61682" height="17.6661" rx="1.80841" transform="matrix(0.762935 0.646476 -0.645235 0.763984 43.2383 232.586)" fill="black" fill-opacity="0.12"/>
<rect opacity="0.6" width="3.61628" height="25.7834" rx="1.80814" transform="matrix(-0.820212 0.572059 -0.570791 -0.821095 321.082 184.196)" fill="black" fill-opacity="0.12"/>
<rect opacity="0.6" x="208.49" y="213.061" width="3.99617" height="36.0248" rx="1.99809" fill="white" fill-opacity="0.2"/>
<rect opacity="0.6" width="3.99641" height="36.0226" rx="1.9982" transform="matrix(0.981282 0.192576 -0.191966 0.981402 167.028 347.104)" fill="white" fill-opacity="0.2"/>
<rect opacity="0.6" width="3.99684" height="20.3885" rx="1.99842" transform="matrix(0.947745 -0.319028 0.318085 0.948062 266.435 327.413)" fill="white" fill-opacity="0.2"/>
<rect opacity="0.6" width="3.99643" height="20.3905" rx="1.99822" transform="matrix(0.979282 0.202502 -0.201862 0.979414 190.628 154.02)" fill="white" fill-opacity="0.2"/>
<rect opacity="0.6" width="3.99963" height="18.867" rx="1.99982" transform="matrix(0.688299 0.725427 -0.724294 0.689491 91.8047 125.229)" fill="white" fill-opacity="0.2"/>
<defs>
<filter id="filter0_iii_33_127267" x="-20.4697" y="40.3395" width="407.586" height="427.872" filterUnits="userSpaceOnUse" color-interpolation-filters="sRGB">
<feFlood flood-opacity="0" result="BackgroundImageFix"/>
<feBlend mode="normal" in="SourceGraphic" in2="BackgroundImageFix" result="shape"/>
<feColorMatrix in="SourceAlpha" type="matrix" values="0 0 0 0 0 0 0 0 0 0 0 0 0 0 0 0 0 0 127 0" result="hardAlpha"/>
<feOffset dy="-69.9512"/>
<feGaussianBlur stdDeviation="23.3171"/>
<feComposite in2="hardAlpha" operator="arithmetic" k2="-1" k3="1"/>
<feColorMatrix type="matrix" values="0 0 0 0 0 0 0 0 0 0 0 0 0 0 0 0 0 0 0.15 0"/>
<feBlend mode="normal" in2="shape" result="effect1_innerShadow_33_127267"/>
<feColorMatrix in="SourceAlpha" type="matrix" values="0 0 0 0 0 0 0 0 0 0 0 0 0 0 0 0 0 0 127 0" result="hardAlpha"/>
<feOffset dy="-12"/>
<feGaussianBlur stdDeviation="14"/>
<feComposite in2="hardAlpha" operator="arithmetic" k2="-1" k3="1"/>
<feColorMatrix type="matrix" values="0 0 0 0 0 0 0 0 0 0 0 0 0 0 0 0 0 0 0.12 0"/>
<feBlend mode="normal" in2="effect1_innerShadow_33_127267" result="effect2_innerShadow_33_127267"/>
<feColorMatrix in="SourceAlpha" type="matrix" values="0 0 0 0 0 0 0 0 0 0 0 0 0 0 0 0 0 0 127 0" result="hardAlpha"/>
<feOffset dx="-32" dy="36"/>
<feGaussianBlur stdDeviation="22"/>
<feComposite in2="hardAlpha" operator="arithmetic" k2="-1" k3="1"/>
<feColorMatrix type="matrix" values="0 0 0 0 1 0 0 0 0 1 0 0 0 0 1 0 0 0 0.25 0"/>
<feBlend mode="normal" in2="effect2_innerShadow_33_127267" result="effect3_innerShadow_33_127267"/>
</filter>
<filter id="filter1_ii_33_127267" x="13.6465" y="-46.6341" width="331.713" height="380.628" filterUnits="userSpaceOnUse" color-interpolation-filters="sRGB">
<feFlood flood-opacity="0" result="BackgroundImageFix"/>
<feBlend mode="normal" in="SourceGraphic" in2="BackgroundImageFix" result="shape"/>
<feColorMatrix in="SourceAlpha" type="matrix" values="0 0 0 0 0 0 0 0 0 0 0 0 0 0 0 0 0 0 127 0" result="hardAlpha"/>
<feOffset dy="-46.6341"/>
<feGaussianBlur stdDeviation="23.3171"/>
<feComposite in2="hardAlpha" operator="arithmetic" k2="-1" k3="1"/>
<feColorMatrix type="matrix" values="0 0 0 0 0 0 0 0 0 0 0 0 0 0 0 0 0 0 0.15 0"/>
<feBlend mode="normal" in2="shape" result="effect1_innerShadow_33_127267"/>
<feColorMatrix in="SourceAlpha" type="matrix" values="0 0 0 0 0 0 0 0 0 0 0 0 0 0 0 0 0 0 127 0" result="hardAlpha"/>
<feOffset dx="-32" dy="28"/>
<feGaussianBlur stdDeviation="22"/>
<feComposite in2="hardAlpha" operator="arithmetic" k2="-1" k3="1"/>
<feColorMatrix type="matrix" values="0 0 0 0 1 0 0 0 0 1 0 0 0 0 1 0 0 0 0.25 0"/>
<feBlend mode="normal" in2="effect1_innerShadow_33_127267" result="effect2_innerShadow_33_127267"/>
</filter>
</defs>
</svg>
