<svg width="237" height="520" viewBox="0 0 237 520" fill="none" xmlns="http://www.w3.org/2000/svg">
<path d="M19.1154 258.001C17.9666 237.364 34.3911 220 55.0598 220H182.241C202.797 220 219.18 237.183 218.2 257.716L214 345.747L218.67 476.717C219.397 497.089 203.079 514 182.693 514H54.5289C34.0595 514 17.7091 496.955 18.56 476.504L24 345.747L19.1154 258.001Z" fill="black" fill-opacity="0.12"/>
<path d="M2.36102 247.233C1.07895 224.3 19.3298 205 42.2987 205H194.701C217.67 205 235.921 224.3 234.639 247.233L229 348.1L235.052 478.14C236.113 500.937 217.917 520 195.095 520H41.9049C19.0835 520 0.887158 500.937 1.94809 478.14L8 348.1L2.36102 247.233Z" fill="black" fill-opacity="0.12"/>
<path d="M132.722 14.0415C142.5 22.4346 140.876 39.5335 134.5 43.4121C129.675 40.0214 110.545 37.5865 115.522 62.749C121.743 94.2021 93.6689 133.265 79.8264 139.15C65.9153 145.064 45.2988 141.242 35.3506 130.969C25.4023 120.696 22.0606 99.4513 22.0606 99.4513C31.181 107.313 36.8974 108.566 46.9738 104.698C57.0502 100.829 45.167 74.0386 55.9125 47.0056C64.5947 25.1632 94.5167 16.2885 109.694 19.1366C109.595 17.1321 107.161 11.5047 98.225 5.03124C116.806 2.14471 127.359 15.4307 130.313 22.4346C130.885 21.6855 132.169 18.9581 132.722 14.0415Z" fill="#F2E9DE"/>
<g filter="url(#filter0_ii_23_40982)">
<path d="M38.1392 140.674C26.2877 88.5991 65.8659 39.0015 119.272 39.0015C172.504 39.0015 212.046 88.295 200.498 140.259L197.246 154.894C192.447 176.49 191.173 198.72 193.474 220.724L198 264.001H40L44.7595 216.406C46.9056 194.945 45.5594 173.278 40.7731 152.247L38.1392 140.674Z" fill="#D7B99A"/>
</g>
<g filter="url(#filter1_iii_23_40982)">
<path d="M34.9544 261.134C28.0983 210.256 67.663 165.002 119 165.002C170.337 165.002 209.902 210.256 203.046 261.134L197.644 301.214C195.92 314.008 190.049 325.884 180.929 335.021L178.826 337.127C165.306 350.674 145.61 356.022 127.095 351.175C121.788 349.785 116.212 349.785 110.905 351.175C92.3903 356.022 72.6939 350.674 59.1736 337.127L57.0709 335.021C47.9514 325.883 42.0797 314.008 40.3556 301.214L34.9544 261.134Z" fill="#D7B99A"/>
</g>
<path d="M173 492.084C173 485.816 167.919 480.735 161.651 480.735H143.4C139.313 480.735 136 484.048 136 488.135V491.099C136 497.911 141.522 503.433 148.333 503.433H161.651C167.919 503.433 173 498.352 173 492.084Z" fill="black" fill-opacity="0.2"/>
<g filter="url(#filter2_dii_23_40982)">
<path d="M165.459 478.989L138 480.195V489.065C138 493.495 140.811 497.437 145 498.879L149.474 500.526C153.041 501.839 156.959 501.839 160.526 500.526L165 498.879C167.906 497.478 169.415 494.218 168.604 491.096L165.459 478.989Z" fill="#E7E5E4"/>
</g>
<path d="M165.459 478.989L138 480.195V489.065C138 493.495 140.811 497.437 145 498.879L149.474 500.526C153.041 501.839 156.959 501.839 160.526 500.526L165 498.879C167.906 497.478 169.415 494.218 168.604 491.096L165.459 478.989Z" fill="black" fill-opacity="0.7"/>
<g filter="url(#filter3_i_23_40982)">
<path d="M169 394.311L146.04 400.077L138 481.08L144.839 483.533C150.772 485.66 157.295 485.427 163.061 482.882L165.929 481.617C166.532 481.351 166.703 480.577 166.269 480.081C160.096 473.038 157.411 463.594 158.956 454.357L169 394.311Z" fill="#78716C"/>
</g>
<g filter="url(#filter4_i_23_40982)">
<path d="M138 463.734C138 460.277 140.494 457.323 143.903 456.745L149.891 455.728C156.223 454.653 162 459.532 162 465.955C162 469.296 159.291 472.005 155.949 472.005H146.271C141.703 472.005 138 468.302 138 463.734Z" fill="#78716C"/>
</g>
<g filter="url(#filter5_i_23_40982)">
<path d="M168.193 405.9C169.144 398.796 163.544 392.514 156.378 392.645C150.456 392.753 145.548 397.269 144.948 403.162L143.785 414.58C143.365 418.705 146.603 422.289 150.749 422.289H153.749C160.763 422.289 166.695 417.099 167.625 410.146L168.193 405.9Z" fill="#78716C"/>
</g>
<g filter="url(#filter6_i_23_40982)">
<path d="M184 344.551H152L144.993 402.659C144.465 407.04 147.885 410.897 152.298 410.897C160.386 410.897 167.47 405.479 169.588 397.673L184 344.551Z" fill="#D7B99A"/>
</g>
<g filter="url(#filter7_i_23_40982)">
<path d="M199.057 293.941C199.85 288.469 192.04 286.578 190.241 291.806C190.081 292.272 189.865 292.716 189.598 293.129L175.557 314.841C173.192 318.498 170.455 321.901 167.389 324.994L159.09 333.366C153.876 338.626 150.76 345.606 150.325 352.999C150.151 355.944 152.575 358.387 155.522 358.237L160.442 357.987C177.618 357.112 191.777 344.211 194.242 327.191L199.057 293.941Z" fill="#D7B99A"/>
</g>
<path d="M65 492.084C65 485.816 70.081 480.735 76.3487 480.735H94.6C98.6869 480.735 102 484.048 102 488.135V491.099C102 497.911 96.4782 503.433 89.6667 503.433H76.3487C70.081 503.433 65 498.352 65 492.084Z" fill="black" fill-opacity="0.2"/>
<g filter="url(#filter8_dii_23_40982)">
<path d="M72.5408 478.989L100 480.195V489.065C100 493.495 97.1886 497.437 93 498.879L88.5265 500.526C84.9591 501.839 81.0409 501.839 77.4735 500.526L73 498.879C70.0942 497.478 68.5846 494.218 69.3957 491.096L72.5408 478.989Z" fill="#E7E5E4"/>
</g>
<path d="M72.5408 478.989L100 480.195V489.065C100 493.495 97.1886 497.437 93 498.879L88.5265 500.526C84.9591 501.839 81.0409 501.839 77.4735 500.526L73 498.879C70.0942 497.478 68.5846 494.218 69.3957 491.096L72.5408 478.989Z" fill="black" fill-opacity="0.7"/>
<g filter="url(#filter9_i_23_40982)">
<path d="M69 394.311L91.9601 400.077L100 481.08L93.1613 483.533C87.2284 485.66 80.7049 485.427 74.9387 482.882L72.0707 481.617C71.4682 481.351 71.2969 480.577 71.731 480.081C77.9044 473.038 80.5888 463.594 79.0437 454.357L69 394.311Z" fill="#78716C"/>
</g>
<g filter="url(#filter10_i_23_40982)">
<path d="M100 463.734C100 460.277 97.5058 457.323 94.0969 456.745L88.1086 455.728C81.7769 454.653 76 459.532 76 465.955C76 469.296 78.709 472.005 82.0508 472.005H91.7289C96.2969 472.005 100 468.302 100 463.734Z" fill="#78716C"/>
</g>
<g filter="url(#filter11_i_23_40982)">
<path d="M69.8069 405.9C68.8564 398.796 74.4558 392.514 81.6215 392.645C87.5437 392.753 92.4516 397.269 93.0518 403.162L94.2148 414.58C94.6349 418.705 91.3973 422.289 87.2508 422.289H84.2514C77.2371 422.289 71.3054 417.099 70.3751 410.146L69.8069 405.9Z" fill="#78716C"/>
</g>
<g filter="url(#filter12_i_23_40982)">
<path d="M54 344.551H86L93.0066 402.659C93.5349 407.04 90.1146 410.897 85.7018 410.897C77.6144 410.897 70.5299 405.479 68.4123 397.673L54 344.551Z" fill="#D7B99A"/>
</g>
<g filter="url(#filter13_i_23_40982)">
<path d="M38.9429 293.941C38.1504 288.469 45.9602 286.578 47.7591 291.806C47.9191 292.272 48.1351 292.716 48.4022 293.129L62.443 314.841C64.808 318.498 67.5454 321.901 70.6114 324.994L78.9103 333.366C84.1237 338.626 87.2401 345.606 87.6752 352.999C87.8485 355.944 85.4249 358.387 82.4784 358.237L77.5578 357.987C60.3819 357.112 46.2231 344.211 43.7581 327.191L38.9429 293.941Z" fill="#D7B99A"/>
</g>
<g filter="url(#filter14_i_23_40982)">
<path d="M79.6051 160.377C83.3214 141.563 99.8225 128.002 119 128.002C138.178 128.002 154.679 141.563 158.395 160.377L171.404 226.235C177.926 259.253 152.657 290.002 119 290.002C85.3435 290.002 60.0739 259.253 66.5961 226.235L79.6051 160.377Z" fill="#D7B99A"/>
</g>
<g filter="url(#filter15_ii_23_40982)">
<path d="M79.9023 83.0024L77.2741 99.0886C76.3073 105.006 78.7296 110.966 83.5496 114.532L93.9251 122.207L102.402 113.73L99.904 104.501C98.5227 99.3981 95.495 94.8937 91.2911 91.6877L79.9023 83.0024Z" fill="#E4CEB8"/>
</g>
<g filter="url(#filter16_i_23_40982)">
<path d="M82.3125 90.3066L81.4767 101.048C81.032 106.764 83.6793 112.281 88.4164 115.51L93.5819 119.031L98.829 111.845L97.3249 106.991C95.7575 101.934 92.5614 97.5361 88.2345 94.4839L82.3125 90.3066Z" fill="#82644D"/>
</g>
<g filter="url(#filter17_ii_23_40982)">
<path d="M157.105 80.0024L159.734 96.0886C160.7 102.006 158.278 107.966 153.458 111.532L143.083 119.207L134.606 110.73L137.104 101.501C138.485 96.3981 141.513 91.8937 145.717 88.6877L157.105 80.0024Z" fill="#E4CEB8"/>
</g>
<g filter="url(#filter18_i_23_40982)">
<path d="M154.695 87.3066L155.531 98.0484C155.976 103.764 153.328 109.281 148.591 112.51L143.426 116.031L138.179 108.845L139.683 103.991C141.25 98.9336 144.446 94.5361 148.773 91.4839L154.695 87.3066Z" fill="#82644D"/>
</g>
<g filter="url(#filter19_ddi_23_40982)">
<g filter="url(#filter20_ii_23_40982)">
<path d="M80.9766 139.871C82.688 120.145 99.2007 105.002 119.002 105.002C138.803 105.002 155.315 120.145 157.027 139.871L159.851 172.427C160.452 179.361 159.234 186.332 156.317 192.651L152.071 201.848C150.796 204.609 149.921 207.538 149.473 210.547L145.532 237.002H92.4711L88.5303 210.547C88.0822 207.538 87.2075 204.609 85.9325 201.848L81.6864 192.651C78.7689 186.332 77.5508 179.361 78.1523 172.427L80.9766 139.871Z" fill="#D7B99A"/>
</g>
<path d="M107 133.502C107 127.102 108.333 112.836 109 106.502C113.627 105.181 118.458 104.726 123.25 105.162L127 105.502L130.5 132.502C130.667 134.669 130.9 140.002 130.5 144.002C130.1 148.002 126 165.336 124 173.502C123.833 177.336 122.5 184.602 118.5 183.002C113.5 181.002 115.5 163.002 115.5 158.502C115.5 154.002 107 141.502 107 133.502Z" fill="#E4CEB8"/>
<path d="M100 161.002C100 156.584 96.866 153.002 93 153.002C89.134 153.002 86 156.584 86 161.002" stroke="#3C2D24" stroke-width="3" stroke-linecap="round"/>
<path d="M151 161.002C151 156.584 147.866 153.002 144 153.002C140.134 153.002 137 156.584 137 161.002" stroke="#3C2D24" stroke-width="3" stroke-linecap="round"/>
<path d="M88.832 240.169C88.832 232.3 95.2107 225.86 103.079 225.86H134.755C142.624 225.86 149.002 232.3 149.002 240.169C149.002 256.784 135.533 270.383 118.917 270.383C102.302 270.383 88.832 256.784 88.832 240.169Z" fill="#78716C"/>
<g filter="url(#filter21_di_23_40982)">
<ellipse cx="7.17105" cy="13.2517" rx="7.17105" ry="13.2517" transform="matrix(0.928899 0.370334 -0.177235 0.984169 129.492 220.002)" fill="#78716C"/>
</g>
<ellipse cx="3.73995" cy="7.40301" rx="3.73995" ry="7.40301" transform="matrix(0.957804 0.287421 -0.232689 0.972551 131.934 230.547)" fill="black" fill-opacity="0.4"/>
<ellipse cx="3.73995" cy="7.40301" rx="3.73995" ry="7.40301" transform="matrix(0.957804 0.287421 -0.232689 0.972551 131.934 230.547)" fill="url(#paint0_linear_23_40982)"/>
<g filter="url(#filter22_di_23_40982)">
<ellipse cx="7.17105" cy="13.2517" rx="7.17105" ry="13.2517" transform="matrix(-0.928899 0.370334 0.177235 0.984169 108.344 220.002)" fill="#78716C"/>
</g>
<ellipse cx="3.73995" cy="7.40301" rx="3.73995" ry="7.40301" transform="matrix(-0.957804 0.287421 0.232689 0.972551 105.902 230.547)" fill="black" fill-opacity="0.4"/>
<ellipse cx="3.73995" cy="7.40301" rx="3.73995" ry="7.40301" transform="matrix(-0.957804 0.287421 0.232689 0.972551 105.902 230.547)" fill="url(#paint1_linear_23_40982)"/>
</g>
<g filter="url(#filter23_i_23_40982)">
<path d="M129.002 86.0024C134.202 90.4024 135.502 102.669 135.002 108.502C135.002 108.502 129.82 107.502 130.502 115.002C131.702 128.202 120.335 137.502 114.502 140.502C115.835 139.336 116.002 133.902 106.002 121.502C90.4019 104.702 102.835 96.8358 111.002 95.0024C111.835 93.1691 111.802 88.6024 105.002 85.0024C120.602 84.2024 127.502 90.3357 129.002 93.5024C129.169 93.0024 129.402 90.8024 129.002 86.0024Z" fill="#F2E9DE"/>
</g>
<defs>
<filter id="filter0_ii_23_40982" x="36.0312" y="3.00146" width="166.48" height="265" filterUnits="userSpaceOnUse" color-interpolation-filters="sRGB">
<feFlood flood-opacity="0" result="BackgroundImageFix"/>
<feBlend mode="normal" in="SourceGraphic" in2="BackgroundImageFix" result="shape"/>
<feColorMatrix in="SourceAlpha" type="matrix" values="0 0 0 0 0 0 0 0 0 0 0 0 0 0 0 0 0 0 127 0" result="hardAlpha"/>
<feOffset dy="-36"/>
<feGaussianBlur stdDeviation="18"/>
<feComposite in2="hardAlpha" operator="arithmetic" k2="-1" k3="1"/>
<feColorMatrix type="matrix" values="0 0 0 0 0 0 0 0 0 0 0 0 0 0 0 0 0 0 0.25 0"/>
<feBlend mode="normal" in2="shape" result="effect1_innerShadow_23_40982"/>
<feColorMatrix in="SourceAlpha" type="matrix" values="0 0 0 0 0 0 0 0 0 0 0 0 0 0 0 0 0 0 127 0" result="hardAlpha"/>
<feOffset dy="4"/>
<feGaussianBlur stdDeviation="4"/>
<feComposite in2="hardAlpha" operator="arithmetic" k2="-1" k3="1"/>
<feColorMatrix type="matrix" values="0 0 0 0 1 0 0 0 0 1 0 0 0 0 1 0 0 0 0.25 0"/>
<feBlend mode="normal" in2="effect1_innerShadow_23_40982" result="effect2_innerShadow_23_40982"/>
</filter>
<filter id="filter1_iii_23_40982" x="34.1797" y="145.002" width="177.641" height="211.928" filterUnits="userSpaceOnUse" color-interpolation-filters="sRGB">
<feFlood flood-opacity="0" result="BackgroundImageFix"/>
<feBlend mode="normal" in="SourceGraphic" in2="BackgroundImageFix" result="shape"/>
<feColorMatrix in="SourceAlpha" type="matrix" values="0 0 0 0 0 0 0 0 0 0 0 0 0 0 0 0 0 0 127 0" result="hardAlpha"/>
<feOffset dx="8" dy="-31"/>
<feGaussianBlur stdDeviation="10"/>
<feComposite in2="hardAlpha" operator="arithmetic" k2="-1" k3="1"/>
<feColorMatrix type="matrix" values="0 0 0 0 0 0 0 0 0 0 0 0 0 0 0 0 0 0 0.25 0"/>
<feBlend mode="normal" in2="shape" result="effect1_innerShadow_23_40982"/>
<feColorMatrix in="SourceAlpha" type="matrix" values="0 0 0 0 0 0 0 0 0 0 0 0 0 0 0 0 0 0 127 0" result="hardAlpha"/>
<feOffset dy="-5"/>
<feGaussianBlur stdDeviation="2"/>
<feComposite in2="hardAlpha" operator="arithmetic" k2="-1" k3="1"/>
<feColorMatrix type="matrix" values="0 0 0 0 0 0 0 0 0 0 0 0 0 0 0 0 0 0 0.1 0"/>
<feBlend mode="normal" in2="effect1_innerShadow_23_40982" result="effect2_innerShadow_23_40982"/>
<feColorMatrix in="SourceAlpha" type="matrix" values="0 0 0 0 0 0 0 0 0 0 0 0 0 0 0 0 0 0 127 0" result="hardAlpha"/>
<feOffset dy="4"/>
<feGaussianBlur stdDeviation="4.5"/>
<feComposite in2="hardAlpha" operator="arithmetic" k2="-1" k3="1"/>
<feColorMatrix type="matrix" values="0 0 0 0 1 0 0 0 0 1 0 0 0 0 1 0 0 0 0.25 0"/>
<feBlend mode="normal" in2="effect2_innerShadow_23_40982" result="effect3_innerShadow_23_40982"/>
</filter>
<filter id="filter2_dii_23_40982" x="136" y="476.989" width="33.8203" height="28.521" filterUnits="userSpaceOnUse" color-interpolation-filters="sRGB">
<feFlood flood-opacity="0" result="BackgroundImageFix"/>
<feColorMatrix in="SourceAlpha" type="matrix" values="0 0 0 0 0 0 0 0 0 0 0 0 0 0 0 0 0 0 127 0" result="hardAlpha"/>
<feOffset dy="2"/>
<feGaussianBlur stdDeviation="0.5"/>
<feComposite in2="hardAlpha" operator="out"/>
<feColorMatrix type="matrix" values="0 0 0 0 0 0 0 0 0 0 0 0 0 0 0 0 0 0 0.25 0"/>
<feBlend mode="normal" in2="BackgroundImageFix" result="effect1_dropShadow_23_40982"/>
<feBlend mode="normal" in="SourceGraphic" in2="effect1_dropShadow_23_40982" result="shape"/>
<feColorMatrix in="SourceAlpha" type="matrix" values="0 0 0 0 0 0 0 0 0 0 0 0 0 0 0 0 0 0 127 0" result="hardAlpha"/>
<feOffset dy="10"/>
<feGaussianBlur stdDeviation="2"/>
<feComposite in2="hardAlpha" operator="arithmetic" k2="-1" k3="1"/>
<feColorMatrix type="matrix" values="0 0 0 0 0 0 0 0 0 0 0 0 0 0 0 0 0 0 0.25 0"/>
<feBlend mode="normal" in2="shape" result="effect2_innerShadow_23_40982"/>
<feColorMatrix in="SourceAlpha" type="matrix" values="0 0 0 0 0 0 0 0 0 0 0 0 0 0 0 0 0 0 127 0" result="hardAlpha"/>
<feOffset dx="-2" dy="-4"/>
<feGaussianBlur stdDeviation="1"/>
<feComposite in2="hardAlpha" operator="arithmetic" k2="-1" k3="1"/>
<feColorMatrix type="matrix" values="0 0 0 0 0 0 0 0 0 0 0 0 0 0 0 0 0 0 0.25 0"/>
<feBlend mode="normal" in2="effect2_innerShadow_23_40982" result="effect3_innerShadow_23_40982"/>
</filter>
<filter id="filter3_i_23_40982" x="138" y="390.311" width="32" height="94.6646" filterUnits="userSpaceOnUse" color-interpolation-filters="sRGB">
<feFlood flood-opacity="0" result="BackgroundImageFix"/>
<feBlend mode="normal" in="SourceGraphic" in2="BackgroundImageFix" result="shape"/>
<feColorMatrix in="SourceAlpha" type="matrix" values="0 0 0 0 0 0 0 0 0 0 0 0 0 0 0 0 0 0 127 0" result="hardAlpha"/>
<feOffset dx="1" dy="-4"/>
<feGaussianBlur stdDeviation="3"/>
<feComposite in2="hardAlpha" operator="arithmetic" k2="-1" k3="1"/>
<feColorMatrix type="matrix" values="0 0 0 0 0 0 0 0 0 0 0 0 0 0 0 0 0 0 0.25 0"/>
<feBlend mode="normal" in2="shape" result="effect1_innerShadow_23_40982"/>
</filter>
<filter id="filter4_i_23_40982" x="138" y="452.579" width="24" height="19.4263" filterUnits="userSpaceOnUse" color-interpolation-filters="sRGB">
<feFlood flood-opacity="0" result="BackgroundImageFix"/>
<feBlend mode="normal" in="SourceGraphic" in2="BackgroundImageFix" result="shape"/>
<feColorMatrix in="SourceAlpha" type="matrix" values="0 0 0 0 0 0 0 0 0 0 0 0 0 0 0 0 0 0 127 0" result="hardAlpha"/>
<feOffset dy="-3"/>
<feGaussianBlur stdDeviation="4"/>
<feComposite in2="hardAlpha" operator="arithmetic" k2="-1" k3="1"/>
<feColorMatrix type="matrix" values="0 0 0 0 0 0 0 0 0 0 0 0 0 0 0 0 0 0 0.25 0"/>
<feBlend mode="normal" in2="shape" result="effect1_innerShadow_23_40982"/>
</filter>
<filter id="filter5_i_23_40982" x="143.75" y="389.643" width="24.5469" height="32.6465" filterUnits="userSpaceOnUse" color-interpolation-filters="sRGB">
<feFlood flood-opacity="0" result="BackgroundImageFix"/>
<feBlend mode="normal" in="SourceGraphic" in2="BackgroundImageFix" result="shape"/>
<feColorMatrix in="SourceAlpha" type="matrix" values="0 0 0 0 0 0 0 0 0 0 0 0 0 0 0 0 0 0 127 0" result="hardAlpha"/>
<feOffset dy="-3"/>
<feGaussianBlur stdDeviation="4"/>
<feComposite in2="hardAlpha" operator="arithmetic" k2="-1" k3="1"/>
<feColorMatrix type="matrix" values="0 0 0 0 0 0 0 0 0 0 0 0 0 0 0 0 0 0 0.25 0"/>
<feBlend mode="normal" in2="shape" result="effect1_innerShadow_23_40982"/>
</filter>
<filter id="filter6_i_23_40982" x="144.941" y="341.551" width="45.0586" height="69.3467" filterUnits="userSpaceOnUse" color-interpolation-filters="sRGB">
<feFlood flood-opacity="0" result="BackgroundImageFix"/>
<feBlend mode="normal" in="SourceGraphic" in2="BackgroundImageFix" result="shape"/>
<feColorMatrix in="SourceAlpha" type="matrix" values="0 0 0 0 0 0 0 0 0 0 0 0 0 0 0 0 0 0 127 0" result="hardAlpha"/>
<feOffset dx="6" dy="-3"/>
<feGaussianBlur stdDeviation="4"/>
<feComposite in2="hardAlpha" operator="arithmetic" k2="-1" k3="1"/>
<feColorMatrix type="matrix" values="0 0 0 0 0 0 0 0 0 0 0 0 0 0 0 0 0 0 0.25 0"/>
<feBlend mode="normal" in2="shape" result="effect1_innerShadow_23_40982"/>
</filter>
<filter id="filter7_i_23_40982" x="149.316" y="280.722" width="49.7969" height="77.522" filterUnits="userSpaceOnUse" color-interpolation-filters="sRGB">
<feFlood flood-opacity="0" result="BackgroundImageFix"/>
<feBlend mode="normal" in="SourceGraphic" in2="BackgroundImageFix" result="shape"/>
<feColorMatrix in="SourceAlpha" type="matrix" values="0 0 0 0 0 0 0 0 0 0 0 0 0 0 0 0 0 0 127 0" result="hardAlpha"/>
<feOffset dx="-1" dy="-12"/>
<feGaussianBlur stdDeviation="4"/>
<feComposite in2="hardAlpha" operator="arithmetic" k2="-1" k3="1"/>
<feColorMatrix type="matrix" values="0 0 0 0 0 0 0 0 0 0 0 0 0 0 0 0 0 0 0.25 0"/>
<feBlend mode="normal" in2="shape" result="effect1_innerShadow_23_40982"/>
</filter>
<filter id="filter8_dii_23_40982" x="67.1797" y="476.989" width="33.8203" height="28.521" filterUnits="userSpaceOnUse" color-interpolation-filters="sRGB">
<feFlood flood-opacity="0" result="BackgroundImageFix"/>
<feColorMatrix in="SourceAlpha" type="matrix" values="0 0 0 0 0 0 0 0 0 0 0 0 0 0 0 0 0 0 127 0" result="hardAlpha"/>
<feOffset dy="2"/>
<feGaussianBlur stdDeviation="0.5"/>
<feComposite in2="hardAlpha" operator="out"/>
<feColorMatrix type="matrix" values="0 0 0 0 0 0 0 0 0 0 0 0 0 0 0 0 0 0 0.25 0"/>
<feBlend mode="normal" in2="BackgroundImageFix" result="effect1_dropShadow_23_40982"/>
<feBlend mode="normal" in="SourceGraphic" in2="effect1_dropShadow_23_40982" result="shape"/>
<feColorMatrix in="SourceAlpha" type="matrix" values="0 0 0 0 0 0 0 0 0 0 0 0 0 0 0 0 0 0 127 0" result="hardAlpha"/>
<feOffset dy="10"/>
<feGaussianBlur stdDeviation="2"/>
<feComposite in2="hardAlpha" operator="arithmetic" k2="-1" k3="1"/>
<feColorMatrix type="matrix" values="0 0 0 0 0 0 0 0 0 0 0 0 0 0 0 0 0 0 0.25 0"/>
<feBlend mode="normal" in2="shape" result="effect2_innerShadow_23_40982"/>
<feColorMatrix in="SourceAlpha" type="matrix" values="0 0 0 0 0 0 0 0 0 0 0 0 0 0 0 0 0 0 127 0" result="hardAlpha"/>
<feOffset dx="-2" dy="-4"/>
<feGaussianBlur stdDeviation="1"/>
<feComposite in2="hardAlpha" operator="arithmetic" k2="-1" k3="1"/>
<feColorMatrix type="matrix" values="0 0 0 0 0 0 0 0 0 0 0 0 0 0 0 0 0 0 0.25 0"/>
<feBlend mode="normal" in2="effect2_innerShadow_23_40982" result="effect3_innerShadow_23_40982"/>
</filter>
<filter id="filter9_i_23_40982" x="69" y="390.311" width="32" height="94.6646" filterUnits="userSpaceOnUse" color-interpolation-filters="sRGB">
<feFlood flood-opacity="0" result="BackgroundImageFix"/>
<feBlend mode="normal" in="SourceGraphic" in2="BackgroundImageFix" result="shape"/>
<feColorMatrix in="SourceAlpha" type="matrix" values="0 0 0 0 0 0 0 0 0 0 0 0 0 0 0 0 0 0 127 0" result="hardAlpha"/>
<feOffset dx="1" dy="-4"/>
<feGaussianBlur stdDeviation="3"/>
<feComposite in2="hardAlpha" operator="arithmetic" k2="-1" k3="1"/>
<feColorMatrix type="matrix" values="0 0 0 0 0 0 0 0 0 0 0 0 0 0 0 0 0 0 0.25 0"/>
<feBlend mode="normal" in2="shape" result="effect1_innerShadow_23_40982"/>
</filter>
<filter id="filter10_i_23_40982" x="76" y="452.579" width="24" height="19.4263" filterUnits="userSpaceOnUse" color-interpolation-filters="sRGB">
<feFlood flood-opacity="0" result="BackgroundImageFix"/>
<feBlend mode="normal" in="SourceGraphic" in2="BackgroundImageFix" result="shape"/>
<feColorMatrix in="SourceAlpha" type="matrix" values="0 0 0 0 0 0 0 0 0 0 0 0 0 0 0 0 0 0 127 0" result="hardAlpha"/>
<feOffset dy="-3"/>
<feGaussianBlur stdDeviation="4"/>
<feComposite in2="hardAlpha" operator="arithmetic" k2="-1" k3="1"/>
<feColorMatrix type="matrix" values="0 0 0 0 0 0 0 0 0 0 0 0 0 0 0 0 0 0 0.25 0"/>
<feBlend mode="normal" in2="shape" result="effect1_innerShadow_23_40982"/>
</filter>
<filter id="filter11_i_23_40982" x="69.7031" y="389.643" width="24.5469" height="32.6465" filterUnits="userSpaceOnUse" color-interpolation-filters="sRGB">
<feFlood flood-opacity="0" result="BackgroundImageFix"/>
<feBlend mode="normal" in="SourceGraphic" in2="BackgroundImageFix" result="shape"/>
<feColorMatrix in="SourceAlpha" type="matrix" values="0 0 0 0 0 0 0 0 0 0 0 0 0 0 0 0 0 0 127 0" result="hardAlpha"/>
<feOffset dy="-3"/>
<feGaussianBlur stdDeviation="4"/>
<feComposite in2="hardAlpha" operator="arithmetic" k2="-1" k3="1"/>
<feColorMatrix type="matrix" values="0 0 0 0 0 0 0 0 0 0 0 0 0 0 0 0 0 0 0.25 0"/>
<feBlend mode="normal" in2="shape" result="effect1_innerShadow_23_40982"/>
</filter>
<filter id="filter12_i_23_40982" x="54" y="341.551" width="45.0586" height="69.3467" filterUnits="userSpaceOnUse" color-interpolation-filters="sRGB">
<feFlood flood-opacity="0" result="BackgroundImageFix"/>
<feBlend mode="normal" in="SourceGraphic" in2="BackgroundImageFix" result="shape"/>
<feColorMatrix in="SourceAlpha" type="matrix" values="0 0 0 0 0 0 0 0 0 0 0 0 0 0 0 0 0 0 127 0" result="hardAlpha"/>
<feOffset dx="6" dy="-3"/>
<feGaussianBlur stdDeviation="4"/>
<feComposite in2="hardAlpha" operator="arithmetic" k2="-1" k3="1"/>
<feColorMatrix type="matrix" values="0 0 0 0 0 0 0 0 0 0 0 0 0 0 0 0 0 0 0.25 0"/>
<feBlend mode="normal" in2="shape" result="effect1_innerShadow_23_40982"/>
</filter>
<filter id="filter13_i_23_40982" x="38.8867" y="280.722" width="52.7969" height="77.522" filterUnits="userSpaceOnUse" color-interpolation-filters="sRGB">
<feFlood flood-opacity="0" result="BackgroundImageFix"/>
<feBlend mode="normal" in="SourceGraphic" in2="BackgroundImageFix" result="shape"/>
<feColorMatrix in="SourceAlpha" type="matrix" values="0 0 0 0 0 0 0 0 0 0 0 0 0 0 0 0 0 0 127 0" result="hardAlpha"/>
<feOffset dx="4" dy="-12"/>
<feGaussianBlur stdDeviation="4"/>
<feComposite in2="hardAlpha" operator="arithmetic" k2="-1" k3="1"/>
<feColorMatrix type="matrix" values="0 0 0 0 0 0 0 0 0 0 0 0 0 0 0 0 0 0 0.25 0"/>
<feBlend mode="normal" in2="shape" result="effect1_innerShadow_23_40982"/>
</filter>
<filter id="filter14_i_23_40982" x="65.5664" y="128.002" width="106.867" height="166" filterUnits="userSpaceOnUse" color-interpolation-filters="sRGB">
<feFlood flood-opacity="0" result="BackgroundImageFix"/>
<feBlend mode="normal" in="SourceGraphic" in2="BackgroundImageFix" result="shape"/>
<feColorMatrix in="SourceAlpha" type="matrix" values="0 0 0 0 0 0 0 0 0 0 0 0 0 0 0 0 0 0 127 0" result="hardAlpha"/>
<feOffset dy="4"/>
<feGaussianBlur stdDeviation="2"/>
<feComposite in2="hardAlpha" operator="arithmetic" k2="-1" k3="1"/>
<feColorMatrix type="matrix" values="0 0 0 0 1 0 0 0 0 1 0 0 0 0 1 0 0 0 0.25 0"/>
<feBlend mode="normal" in2="shape" result="effect1_innerShadow_23_40982"/>
</filter>
<filter id="filter15_ii_23_40982" x="77.0625" y="80.0024" width="27.3398" height="43.2041" filterUnits="userSpaceOnUse" color-interpolation-filters="sRGB">
<feFlood flood-opacity="0" result="BackgroundImageFix"/>
<feBlend mode="normal" in="SourceGraphic" in2="BackgroundImageFix" result="shape"/>
<feColorMatrix in="SourceAlpha" type="matrix" values="0 0 0 0 0 0 0 0 0 0 0 0 0 0 0 0 0 0 127 0" result="hardAlpha"/>
<feOffset dx="2" dy="-3"/>
<feGaussianBlur stdDeviation="2"/>
<feComposite in2="hardAlpha" operator="arithmetic" k2="-1" k3="1"/>
<feColorMatrix type="matrix" values="0 0 0 0 0 0 0 0 0 0 0 0 0 0 0 0 0 0 0.25 0"/>
<feBlend mode="normal" in2="shape" result="effect1_innerShadow_23_40982"/>
<feColorMatrix in="SourceAlpha" type="matrix" values="0 0 0 0 0 0 0 0 0 0 0 0 0 0 0 0 0 0 127 0" result="hardAlpha"/>
<feOffset dy="2"/>
<feGaussianBlur stdDeviation="0.5"/>
<feComposite in2="hardAlpha" operator="arithmetic" k2="-1" k3="1"/>
<feColorMatrix type="matrix" values="0 0 0 0 1 0 0 0 0 1 0 0 0 0 1 0 0 0 0.25 0"/>
<feBlend mode="normal" in2="effect1_innerShadow_23_40982" result="effect2_innerShadow_23_40982"/>
</filter>
<filter id="filter16_i_23_40982" x="81.4297" y="90.3066" width="19.3984" height="32.7246" filterUnits="userSpaceOnUse" color-interpolation-filters="sRGB">
<feFlood flood-opacity="0" result="BackgroundImageFix"/>
<feBlend mode="normal" in="SourceGraphic" in2="BackgroundImageFix" result="shape"/>
<feColorMatrix in="SourceAlpha" type="matrix" values="0 0 0 0 0 0 0 0 0 0 0 0 0 0 0 0 0 0 127 0" result="hardAlpha"/>
<feOffset dx="2" dy="10"/>
<feGaussianBlur stdDeviation="2"/>
<feComposite in2="hardAlpha" operator="arithmetic" k2="-1" k3="1"/>
<feColorMatrix type="matrix" values="0 0 0 0 0 0 0 0 0 0 0 0 0 0 0 0 0 0 0.25 0"/>
<feBlend mode="normal" in2="shape" result="effect1_innerShadow_23_40982"/>
</filter>
<filter id="filter17_ii_23_40982" x="134.605" y="77.0024" width="27.3398" height="43.2041" filterUnits="userSpaceOnUse" color-interpolation-filters="sRGB">
<feFlood flood-opacity="0" result="BackgroundImageFix"/>
<feBlend mode="normal" in="SourceGraphic" in2="BackgroundImageFix" result="shape"/>
<feColorMatrix in="SourceAlpha" type="matrix" values="0 0 0 0 0 0 0 0 0 0 0 0 0 0 0 0 0 0 127 0" result="hardAlpha"/>
<feOffset dx="2" dy="-3"/>
<feGaussianBlur stdDeviation="2"/>
<feComposite in2="hardAlpha" operator="arithmetic" k2="-1" k3="1"/>
<feColorMatrix type="matrix" values="0 0 0 0 0 0 0 0 0 0 0 0 0 0 0 0 0 0 0.25 0"/>
<feBlend mode="normal" in2="shape" result="effect1_innerShadow_23_40982"/>
<feColorMatrix in="SourceAlpha" type="matrix" values="0 0 0 0 0 0 0 0 0 0 0 0 0 0 0 0 0 0 127 0" result="hardAlpha"/>
<feOffset dy="2"/>
<feGaussianBlur stdDeviation="0.5"/>
<feComposite in2="hardAlpha" operator="arithmetic" k2="-1" k3="1"/>
<feColorMatrix type="matrix" values="0 0 0 0 1 0 0 0 0 1 0 0 0 0 1 0 0 0 0.25 0"/>
<feBlend mode="normal" in2="effect1_innerShadow_23_40982" result="effect2_innerShadow_23_40982"/>
</filter>
<filter id="filter18_i_23_40982" x="138.18" y="87.3066" width="19.3984" height="32.7246" filterUnits="userSpaceOnUse" color-interpolation-filters="sRGB">
<feFlood flood-opacity="0" result="BackgroundImageFix"/>
<feBlend mode="normal" in="SourceGraphic" in2="BackgroundImageFix" result="shape"/>
<feColorMatrix in="SourceAlpha" type="matrix" values="0 0 0 0 0 0 0 0 0 0 0 0 0 0 0 0 0 0 127 0" result="hardAlpha"/>
<feOffset dx="2" dy="10"/>
<feGaussianBlur stdDeviation="2"/>
<feComposite in2="hardAlpha" operator="arithmetic" k2="-1" k3="1"/>
<feColorMatrix type="matrix" values="0 0 0 0 0 0 0 0 0 0 0 0 0 0 0 0 0 0 0.25 0"/>
<feBlend mode="normal" in2="shape" result="effect1_innerShadow_23_40982"/>
</filter>
<filter id="filter19_ddi_23_40982" x="74.0039" y="99.0015" width="89.9961" height="183.381" filterUnits="userSpaceOnUse" color-interpolation-filters="sRGB">
<feFlood flood-opacity="0" result="BackgroundImageFix"/>
<feColorMatrix in="SourceAlpha" type="matrix" values="0 0 0 0 0 0 0 0 0 0 0 0 0 0 0 0 0 0 127 0" result="hardAlpha"/>
<feOffset dy="8"/>
<feGaussianBlur stdDeviation="2"/>
<feComposite in2="hardAlpha" operator="out"/>
<feColorMatrix type="matrix" values="0 0 0 0 0 0 0 0 0 0 0 0 0 0 0 0 0 0 0.25 0"/>
<feBlend mode="normal" in2="BackgroundImageFix" result="effect1_dropShadow_23_40982"/>
<feColorMatrix in="SourceAlpha" type="matrix" values="0 0 0 0 0 0 0 0 0 0 0 0 0 0 0 0 0 0 127 0" result="hardAlpha"/>
<feOffset dy="2"/>
<feGaussianBlur stdDeviation="0.5"/>
<feComposite in2="hardAlpha" operator="out"/>
<feColorMatrix type="matrix" values="0 0 0 0 0 0 0 0 0 0 0 0 0 0 0 0 0 0 0.25 0"/>
<feBlend mode="normal" in2="effect1_dropShadow_23_40982" result="effect2_dropShadow_23_40982"/>
<feBlend mode="normal" in="SourceGraphic" in2="effect2_dropShadow_23_40982" result="shape"/>
<feColorMatrix in="SourceAlpha" type="matrix" values="0 0 0 0 0 0 0 0 0 0 0 0 0 0 0 0 0 0 127 0" result="hardAlpha"/>
<feOffset dy="-6"/>
<feGaussianBlur stdDeviation="4"/>
<feComposite in2="hardAlpha" operator="arithmetic" k2="-1" k3="1"/>
<feColorMatrix type="matrix" values="0 0 0 0 0 0 0 0 0 0 0 0 0 0 0 0 0 0 0.25 0"/>
<feBlend mode="normal" in2="shape" result="effect3_innerShadow_23_40982"/>
</filter>
<filter id="filter20_ii_23_40982" x="78.0039" y="101.002" width="81.9961" height="146" filterUnits="userSpaceOnUse" color-interpolation-filters="sRGB">
<feFlood flood-opacity="0" result="BackgroundImageFix"/>
<feBlend mode="normal" in="SourceGraphic" in2="BackgroundImageFix" result="shape"/>
<feColorMatrix in="SourceAlpha" type="matrix" values="0 0 0 0 0 0 0 0 0 0 0 0 0 0 0 0 0 0 127 0" result="hardAlpha"/>
<feOffset dy="-4"/>
<feGaussianBlur stdDeviation="7.5"/>
<feComposite in2="hardAlpha" operator="arithmetic" k2="-1" k3="1"/>
<feColorMatrix type="matrix" values="0 0 0 0 0 0 0 0 0 0 0 0 0 0 0 0 0 0 0.25 0"/>
<feBlend mode="normal" in2="shape" result="effect1_innerShadow_23_40982"/>
<feColorMatrix in="SourceAlpha" type="matrix" values="0 0 0 0 0 0 0 0 0 0 0 0 0 0 0 0 0 0 127 0" result="hardAlpha"/>
<feOffset dy="12"/>
<feGaussianBlur stdDeviation="5"/>
<feComposite in2="hardAlpha" operator="arithmetic" k2="-1" k3="1"/>
<feColorMatrix type="matrix" values="0 0 0 0 1 0 0 0 0 1 0 0 0 0 1 0 0 0 0.15 0"/>
<feBlend mode="normal" in2="effect1_innerShadow_23_40982" result="effect2_innerShadow_23_40982"/>
</filter>
<filter id="filter21_di_23_40982" x="124.738" y="221.388" width="18.1328" height="30.6245" filterUnits="userSpaceOnUse" color-interpolation-filters="sRGB">
<feFlood flood-opacity="0" result="BackgroundImageFix"/>
<feColorMatrix in="SourceAlpha" type="matrix" values="0 0 0 0 0 0 0 0 0 0 0 0 0 0 0 0 0 0 127 0" result="hardAlpha"/>
<feOffset dy="1"/>
<feGaussianBlur stdDeviation="1"/>
<feComposite in2="hardAlpha" operator="out"/>
<feColorMatrix type="matrix" values="0 0 0 0 0 0 0 0 0 0 0 0 0 0 0 0 0 0 0.25 0"/>
<feBlend mode="normal" in2="BackgroundImageFix" result="effect1_dropShadow_23_40982"/>
<feBlend mode="normal" in="SourceGraphic" in2="effect1_dropShadow_23_40982" result="shape"/>
<feColorMatrix in="SourceAlpha" type="matrix" values="0 0 0 0 0 0 0 0 0 0 0 0 0 0 0 0 0 0 127 0" result="hardAlpha"/>
<feOffset dy="-1"/>
<feGaussianBlur stdDeviation="1.5"/>
<feComposite in2="hardAlpha" operator="arithmetic" k2="-1" k3="1"/>
<feColorMatrix type="matrix" values="0 0 0 0 0 0 0 0 0 0 0 0 0 0 0 0 0 0 0.25 0"/>
<feBlend mode="normal" in2="shape" result="effect2_innerShadow_23_40982"/>
</filter>
<filter id="filter22_di_23_40982" x="94.9648" y="221.388" width="18.1328" height="30.6245" filterUnits="userSpaceOnUse" color-interpolation-filters="sRGB">
<feFlood flood-opacity="0" result="BackgroundImageFix"/>
<feColorMatrix in="SourceAlpha" type="matrix" values="0 0 0 0 0 0 0 0 0 0 0 0 0 0 0 0 0 0 127 0" result="hardAlpha"/>
<feOffset dy="1"/>
<feGaussianBlur stdDeviation="1"/>
<feComposite in2="hardAlpha" operator="out"/>
<feColorMatrix type="matrix" values="0 0 0 0 0 0 0 0 0 0 0 0 0 0 0 0 0 0 0.25 0"/>
<feBlend mode="normal" in2="BackgroundImageFix" result="effect1_dropShadow_23_40982"/>
<feBlend mode="normal" in="SourceGraphic" in2="effect1_dropShadow_23_40982" result="shape"/>
<feColorMatrix in="SourceAlpha" type="matrix" values="0 0 0 0 0 0 0 0 0 0 0 0 0 0 0 0 0 0 127 0" result="hardAlpha"/>
<feOffset dy="-1"/>
<feGaussianBlur stdDeviation="1.5"/>
<feComposite in2="hardAlpha" operator="arithmetic" k2="-1" k3="1"/>
<feColorMatrix type="matrix" values="0 0 0 0 0 0 0 0 0 0 0 0 0 0 0 0 0 0 0.25 0"/>
<feBlend mode="normal" in2="shape" result="effect2_innerShadow_23_40982"/>
</filter>
<filter id="filter23_i_23_40982" x="98.5391" y="80.9312" width="36.5625" height="59.5713" filterUnits="userSpaceOnUse" color-interpolation-filters="sRGB">
<feFlood flood-opacity="0" result="BackgroundImageFix"/>
<feBlend mode="normal" in="SourceGraphic" in2="BackgroundImageFix" result="shape"/>
<feColorMatrix in="SourceAlpha" type="matrix" values="0 0 0 0 0 0 0 0 0 0 0 0 0 0 0 0 0 0 127 0" result="hardAlpha"/>
<feOffset dy="-12"/>
<feGaussianBlur stdDeviation="2"/>
<feComposite in2="hardAlpha" operator="arithmetic" k2="-1" k3="1"/>
<feColorMatrix type="matrix" values="0 0 0 0 0 0 0 0 0 0 0 0 0 0 0 0 0 0 0.25 0"/>
<feBlend mode="normal" in2="shape" result="effect1_innerShadow_23_40982"/>
</filter>
<linearGradient id="paint0_linear_23_40982" x1="3.73995" y1="0" x2="3.73995" y2="14.806" gradientUnits="userSpaceOnUse">
<stop stop-opacity="0.24"/>
<stop offset="1" stop-opacity="0"/>
</linearGradient>
<linearGradient id="paint1_linear_23_40982" x1="3.73995" y1="0" x2="3.73995" y2="14.806" gradientUnits="userSpaceOnUse">
<stop stop-opacity="0.24"/>
<stop offset="1" stop-opacity="0"/>
</linearGradient>
</defs>
</svg>
