<svg width="191" height="192" viewBox="0 0 191 192" fill="none" xmlns="http://www.w3.org/2000/svg">
<ellipse cx="89" cy="76.5378" rx="89" ry="76.5378" transform="matrix(1 0 0 -1 0 191.651)" fill="black" fill-opacity="0.12"/>
<path fill-rule="evenodd" clip-rule="evenodd" d="M128.567 163.848C154.668 157.764 174.13 134.1 174.13 105.836C174.13 72.9589 147.797 46.3066 115.313 46.3066C106.465 46.3066 98.0745 48.2837 90.5475 51.825C83.0205 48.2837 74.6295 46.3066 65.7822 46.3066C33.2983 46.3066 6.96484 72.9589 6.96484 105.836C6.96484 134.794 27.3936 158.922 54.4605 164.264C64.0448 174.526 77.0272 180.828 91.3214 180.828C105.808 180.828 118.947 174.356 128.567 163.848Z" fill="black" fill-opacity="0.2"/>
<g filter="url(#filter0_i_23_41044)">
<g filter="url(#filter1_ii_23_41044)">
<path d="M51.0785 48.5614C51.0785 25.9672 69.4426 7.65106 92.0959 7.65106C114.749 7.65106 133.113 25.9673 133.113 48.5614C133.113 71.1556 111.295 105.836 88.6418 105.836C65.9885 105.836 51.0785 71.1556 51.0785 48.5614Z" fill="#EA580C"/>
</g>
<g filter="url(#filter2_iii_23_41044)">
<path d="M96.7423 64.9488C96.7423 87.5301 78.2049 105.836 55.3379 105.836C32.4709 105.836 13.9336 87.5301 13.9336 64.9488C13.9336 42.3674 32.4709 22.3401 55.3379 22.3401C78.2049 22.3401 96.7423 42.3674 96.7423 64.9488Z" fill="#EA580C"/>
</g>
<g filter="url(#filter3_iii_23_41044)">
<path d="M167.168 64.9488C167.168 87.5301 148.803 105.836 126.15 105.836C103.497 105.836 85.1328 87.5301 85.1328 64.9488C85.1328 42.3674 103.497 22.3401 126.15 22.3401C148.803 22.3401 167.168 42.3674 167.168 64.9488Z" fill="#F97316"/>
</g>
<g filter="url(#filter4_iii_23_41044)">
<path d="M99.8363 104.575C99.8363 131.23 75.2621 157.634 51.8537 157.634C28.4453 157.634 3.87109 131.23 3.87109 104.575C3.87109 63.0027 31.0612 44.2505 62.2499 49.4839C85.6583 49.4839 99.8363 77.9208 99.8363 104.575Z" fill="#EA580C"/>
</g>
<g filter="url(#filter5_iiii_23_41044)">
<path d="M178 104.575C178 131.23 153.426 157.634 130.018 157.634C106.609 157.634 82.0352 131.23 82.0352 104.575C82.0352 63.0027 109.225 44.2505 140.414 49.4839C163.822 49.4839 178 77.9208 178 104.575Z" fill="#EA580C"/>
</g>
<g filter="url(#filter6_iii_23_41044)">
<path d="M141.629 129.029C141.629 152.347 118.276 176.962 89.9784 176.962C61.6806 176.962 39.4727 148.481 39.4727 125.164C39.4727 101.846 54.0269 56.3569 92.6873 56.3569C131.348 56.3569 141.629 105.712 141.629 129.029Z" fill="#EA580C"/>
</g>
<g filter="url(#filter7_f_23_41044)">
<path d="M100.682 25.8622C96.7266 22.1446 90.5616 22.1446 86.6057 25.8622L86.3447 26.1074C84.6527 27.6975 82.4296 28.6011 80.108 28.6424L76.7603 28.7019C72.4145 28.7792 69.3014 32.9607 70.3974 37.1668C70.9753 39.3845 70.3607 41.7683 68.7654 43.4136C65.5169 46.7637 66.7057 52.3385 71.0382 54.0721L72.4448 54.6349C74.5404 55.4735 76.1531 57.2027 76.8436 59.3517L76.9393 59.6494C78.3627 64.0796 83.1691 66.4537 87.5523 64.8919L90.0242 64.0111C92.3654 63.1769 94.9228 63.1769 97.264 64.0111L99.7358 64.8919C104.119 66.4537 108.925 64.0796 110.349 59.6495L110.445 59.3517C111.135 57.2027 112.748 55.4735 114.843 54.6349L116.25 54.0721C120.582 52.3385 121.771 46.7637 118.523 43.4136C116.927 41.7683 116.313 39.3845 116.891 37.1668C117.987 32.9607 114.874 28.7792 110.528 28.7019L107.18 28.6424C104.859 28.6011 102.635 27.6975 100.943 26.1074L100.682 25.8622Z" fill="black" fill-opacity="0.2"/>
</g>
<g filter="url(#filter8_i_23_41044)">
<path d="M99.2947 25.8319C95.9641 22.368 90.4213 22.368 87.0907 25.8319L86.9737 25.9537C85.4927 27.494 83.4605 28.3829 81.3241 28.4249L79.5714 28.4594C75.3431 28.5426 72.2784 32.5455 73.2476 36.6621C73.7307 38.7138 73.197 40.8893 71.808 42.4746C68.9074 45.7852 70.0493 50.9591 74.0739 52.7413L74.7944 53.0604C76.7117 53.9094 78.156 55.5621 78.7407 57.5758L78.7878 57.7381C80.0141 61.9621 84.6072 64.2166 88.699 62.6031L89.9895 62.0942C92.0478 61.2825 94.3376 61.2825 96.3959 62.0942L97.6864 62.603C101.778 64.2166 106.371 61.9621 107.598 57.7381L107.645 57.5758C108.229 55.5621 109.674 53.9094 111.591 53.0604L112.312 52.7413C116.336 50.9591 117.478 45.7852 114.577 42.4746C113.188 40.8893 112.655 38.7138 113.138 36.6621C114.107 32.5455 111.042 28.5426 106.814 28.4594L105.061 28.4249C102.925 28.3829 100.893 27.494 99.4117 25.9536L99.2947 25.8319Z" fill="#15803D"/>
</g>
<g filter="url(#filter9_f_23_41044)">
<rect width="29.5754" height="24.0261" rx="12.0131" transform="matrix(1 -7.53928e-08 -0.00298495 -0.999996 78.082 50.2317)" fill="white" fill-opacity="0.2"/>
</g>
<g filter="url(#filter10_ii_23_41044)">
<path d="M95.1744 27.4768C91.6711 24.9372 86.8301 26.0559 85.2685 29.7658L85.1853 29.9636C84.7229 31.062 83.8986 31.9668 82.8322 32.5464L82.1523 32.9159C78.8038 34.736 78.7785 39.4186 82.1051 41.6836C83.2087 42.435 84.0161 43.5308 84.3767 44.7664L84.4112 44.8849C85.4809 48.5507 89.8888 50.3764 93.1256 48.4943L94.211 47.8631C95.3094 47.2244 96.6009 46.926 97.9225 47.0055L99.2284 47.084C103.123 47.3183 105.882 43.8366 104.683 40.2006L104.644 40.0831C104.24 38.8575 104.304 37.5604 104.824 36.4338C106.391 33.0379 103.655 28.9935 99.6995 28.8612L98.8964 28.8343C97.6369 28.7922 96.3984 28.364 95.3612 27.6122L95.1744 27.4768Z" fill="#15803D"/>
</g>
<g filter="url(#filter11_ii_23_41044)">
<path d="M93.0929 34.1925C93.0929 34.1925 91.7088 13.1754 75.3772 7.39598" stroke="#16A34A" stroke-width="15" stroke-linecap="round"/>
</g>
</g>
<g filter="url(#filter12_f_23_41044)">
<rect width="33.1733" height="22.4655" rx="11.2327" transform="matrix(-0.898041 -0.439912 0.44296 -0.896541 153 84.8215)" fill="white" fill-opacity="0.4"/>
</g>
<g filter="url(#filter13_f_23_41044)">
<rect width="44.1727" height="40.9749" rx="20.4875" transform="matrix(-1 -8.7332e-08 0.00257688 -0.999997 129.629 112.021)" fill="white" fill-opacity="0.2"/>
</g>
<defs>
<filter id="filter0_i_23_41044" x="3.87109" y="-9" width="180.129" height="185.962" filterUnits="userSpaceOnUse" color-interpolation-filters="sRGB">
<feFlood flood-opacity="0" result="BackgroundImageFix"/>
<feBlend mode="normal" in="SourceGraphic" in2="BackgroundImageFix" result="shape"/>
<feColorMatrix in="SourceAlpha" type="matrix" values="0 0 0 0 0 0 0 0 0 0 0 0 0 0 0 0 0 0 127 0" result="hardAlpha"/>
<feOffset dx="6" dy="-9"/>
<feGaussianBlur stdDeviation="10.5"/>
<feComposite in2="hardAlpha" operator="arithmetic" k2="-1" k3="1"/>
<feColorMatrix type="matrix" values="0 0 0 0 0 0 0 0 0 0 0 0 0 0 0 0 0 0 0.15 0"/>
<feBlend mode="normal" in2="shape" result="effect1_innerShadow_23_41044"/>
</filter>
<filter id="filter1_ii_23_41044" x="27.0781" y="-16.3489" width="109.416" height="122.185" filterUnits="userSpaceOnUse" color-interpolation-filters="sRGB">
<feFlood flood-opacity="0" result="BackgroundImageFix"/>
<feBlend mode="normal" in="SourceGraphic" in2="BackgroundImageFix" result="shape"/>
<feColorMatrix in="SourceAlpha" type="matrix" values="0 0 0 0 0 0 0 0 0 0 0 0 0 0 0 0 0 0 127 0" result="hardAlpha"/>
<feOffset dx="3.38128" dy="-5.41005"/>
<feGaussianBlur stdDeviation="2.02877"/>
<feComposite in2="hardAlpha" operator="arithmetic" k2="-1" k3="1"/>
<feColorMatrix type="matrix" values="0 0 0 0 0 0 0 0 0 0 0 0 0 0 0 0 0 0 0.12 0"/>
<feBlend mode="normal" in2="shape" result="effect1_innerShadow_23_41044"/>
<feColorMatrix in="SourceAlpha" type="matrix" values="0 0 0 0 0 0 0 0 0 0 0 0 0 0 0 0 0 0 127 0" result="hardAlpha"/>
<feOffset dx="-43" dy="-50"/>
<feGaussianBlur stdDeviation="12"/>
<feComposite in2="hardAlpha" operator="arithmetic" k2="-1" k3="1"/>
<feColorMatrix type="matrix" values="0 0 0 0 1 0 0 0 0 1 0 0 0 0 1 0 0 0 0.25 0"/>
<feBlend mode="normal" in2="effect1_innerShadow_23_41044" result="effect2_innerShadow_23_41044"/>
</filter>
<filter id="filter2_iii_23_41044" x="5.93359" y="16.3401" width="95.8086" height="97.4958" filterUnits="userSpaceOnUse" color-interpolation-filters="sRGB">
<feFlood flood-opacity="0" result="BackgroundImageFix"/>
<feBlend mode="normal" in="SourceGraphic" in2="BackgroundImageFix" result="shape"/>
<feColorMatrix in="SourceAlpha" type="matrix" values="0 0 0 0 0 0 0 0 0 0 0 0 0 0 0 0 0 0 127 0" result="hardAlpha"/>
<feOffset dx="3.38128" dy="-5.41005"/>
<feGaussianBlur stdDeviation="2.02877"/>
<feComposite in2="hardAlpha" operator="arithmetic" k2="-1" k3="1"/>
<feColorMatrix type="matrix" values="0 0 0 0 0 0 0 0 0 0 0 0 0 0 0 0 0 0 0.12 0"/>
<feBlend mode="normal" in2="shape" result="effect1_innerShadow_23_41044"/>
<feColorMatrix in="SourceAlpha" type="matrix" values="0 0 0 0 0 0 0 0 0 0 0 0 0 0 0 0 0 0 127 0" result="hardAlpha"/>
<feOffset dx="5" dy="-6"/>
<feGaussianBlur stdDeviation="4"/>
<feComposite in2="hardAlpha" operator="arithmetic" k2="-1" k3="1"/>
<feColorMatrix type="matrix" values="0 0 0 0 0 0 0 0 0 0 0 0 0 0 0 0 0 0 0.2 0"/>
<feBlend mode="normal" in2="effect1_innerShadow_23_41044" result="effect2_innerShadow_23_41044"/>
<feColorMatrix in="SourceAlpha" type="matrix" values="0 0 0 0 0 0 0 0 0 0 0 0 0 0 0 0 0 0 127 0" result="hardAlpha"/>
<feOffset dx="-12" dy="8.32"/>
<feGaussianBlur stdDeviation="4"/>
<feComposite in2="hardAlpha" operator="arithmetic" k2="-1" k3="1"/>
<feColorMatrix type="matrix" values="0 0 0 0 1 0 0 0 0 1 0 0 0 0 1 0 0 0 0.05 0"/>
<feBlend mode="normal" in2="effect2_innerShadow_23_41044" result="effect3_innerShadow_23_41044"/>
</filter>
<filter id="filter3_iii_23_41044" x="84.1328" y="18.2825" width="86.4164" height="90.5534" filterUnits="userSpaceOnUse" color-interpolation-filters="sRGB">
<feFlood flood-opacity="0" result="BackgroundImageFix"/>
<feBlend mode="normal" in="SourceGraphic" in2="BackgroundImageFix" result="shape"/>
<feColorMatrix in="SourceAlpha" type="matrix" values="0 0 0 0 0 0 0 0 0 0 0 0 0 0 0 0 0 0 127 0" result="hardAlpha"/>
<feOffset dx="3.38128" dy="-5.41005"/>
<feGaussianBlur stdDeviation="2.02877"/>
<feComposite in2="hardAlpha" operator="arithmetic" k2="-1" k3="1"/>
<feColorMatrix type="matrix" values="0 0 0 0 0 0 0 0 0 0 0 0 0 0 0 0 0 0 0.12 0"/>
<feBlend mode="normal" in2="shape" result="effect1_innerShadow_23_41044"/>
<feColorMatrix in="SourceAlpha" type="matrix" values="0 0 0 0 0 0 0 0 0 0 0 0 0 0 0 0 0 0 127 0" result="hardAlpha"/>
<feOffset dx="-1" dy="3"/>
<feGaussianBlur stdDeviation="3"/>
<feComposite in2="hardAlpha" operator="arithmetic" k2="-1" k3="1"/>
<feColorMatrix type="matrix" values="0 0 0 0 1 0 0 0 0 1 0 0 0 0 1 0 0 0 0.25 0"/>
<feBlend mode="normal" in2="effect1_innerShadow_23_41044" result="effect2_innerShadow_23_41044"/>
<feColorMatrix in="SourceAlpha" type="matrix" values="0 0 0 0 0 0 0 0 0 0 0 0 0 0 0 0 0 0 127 0" result="hardAlpha"/>
<feOffset dx="2" dy="1"/>
<feGaussianBlur stdDeviation="1"/>
<feComposite in2="hardAlpha" operator="arithmetic" k2="-1" k3="1"/>
<feColorMatrix type="matrix" values="0 0 0 0 0 0 0 0 0 0 0 0 0 0 0 0 0 0 0.05 0"/>
<feBlend mode="normal" in2="effect2_innerShadow_23_41044" result="effect3_innerShadow_23_41044"/>
</filter>
<filter id="filter4_iii_23_41044" x="-8.12891" y="21.626" width="118.965" height="145.008" filterUnits="userSpaceOnUse" color-interpolation-filters="sRGB">
<feFlood flood-opacity="0" result="BackgroundImageFix"/>
<feBlend mode="normal" in="SourceGraphic" in2="BackgroundImageFix" result="shape"/>
<feColorMatrix in="SourceAlpha" type="matrix" values="0 0 0 0 0 0 0 0 0 0 0 0 0 0 0 0 0 0 127 0" result="hardAlpha"/>
<feOffset dy="-8"/>
<feGaussianBlur stdDeviation="8"/>
<feComposite in2="hardAlpha" operator="arithmetic" k2="-1" k3="1"/>
<feColorMatrix type="matrix" values="0 0 0 0 0 0 0 0 0 0 0 0 0 0 0 0 0 0 0.15 0"/>
<feBlend mode="normal" in2="shape" result="effect1_innerShadow_23_41044"/>
<feColorMatrix in="SourceAlpha" type="matrix" values="0 0 0 0 0 0 0 0 0 0 0 0 0 0 0 0 0 0 127 0" result="hardAlpha"/>
<feOffset dx="11" dy="-27"/>
<feGaussianBlur stdDeviation="16"/>
<feComposite in2="hardAlpha" operator="arithmetic" k2="-1" k3="1"/>
<feColorMatrix type="matrix" values="0 0 0 0 0 0 0 0 0 0 0 0 0 0 0 0 0 0 0.15 0"/>
<feBlend mode="normal" in2="effect1_innerShadow_23_41044" result="effect2_innerShadow_23_41044"/>
<feColorMatrix in="SourceAlpha" type="matrix" values="0 0 0 0 0 0 0 0 0 0 0 0 0 0 0 0 0 0 127 0" result="hardAlpha"/>
<feOffset dx="-12" dy="9"/>
<feGaussianBlur stdDeviation="8.5"/>
<feComposite in2="hardAlpha" operator="arithmetic" k2="-1" k3="1"/>
<feColorMatrix type="matrix" values="0 0 0 0 1 0 0 0 0 1 0 0 0 0 1 0 0 0 0.15 0"/>
<feBlend mode="normal" in2="effect2_innerShadow_23_41044" result="effect3_innerShadow_23_41044"/>
</filter>
<filter id="filter5_iiii_23_41044" x="70.0352" y="33.626" width="113.965" height="132.008" filterUnits="userSpaceOnUse" color-interpolation-filters="sRGB">
<feFlood flood-opacity="0" result="BackgroundImageFix"/>
<feBlend mode="normal" in="SourceGraphic" in2="BackgroundImageFix" result="shape"/>
<feColorMatrix in="SourceAlpha" type="matrix" values="0 0 0 0 0 0 0 0 0 0 0 0 0 0 0 0 0 0 127 0" result="hardAlpha"/>
<feOffset dx="3" dy="-4"/>
<feGaussianBlur stdDeviation="1.5"/>
<feComposite in2="hardAlpha" operator="arithmetic" k2="-1" k3="1"/>
<feColorMatrix type="matrix" values="0 0 0 0 0 0 0 0 0 0 0 0 0 0 0 0 0 0 0.12 0"/>
<feBlend mode="normal" in2="shape" result="effect1_innerShadow_23_41044"/>
<feColorMatrix in="SourceAlpha" type="matrix" values="0 0 0 0 0 0 0 0 0 0 0 0 0 0 0 0 0 0 127 0" result="hardAlpha"/>
<feOffset dx="6" dy="-15"/>
<feGaussianBlur stdDeviation="11"/>
<feComposite in2="hardAlpha" operator="arithmetic" k2="-1" k3="1"/>
<feColorMatrix type="matrix" values="0 0 0 0 0 0 0 0 0 0 0 0 0 0 0 0 0 0 0.2 0"/>
<feBlend mode="normal" in2="effect1_innerShadow_23_41044" result="effect2_innerShadow_23_41044"/>
<feColorMatrix in="SourceAlpha" type="matrix" values="0 0 0 0 0 0 0 0 0 0 0 0 0 0 0 0 0 0 127 0" result="hardAlpha"/>
<feOffset dx="-12" dy="8"/>
<feGaussianBlur stdDeviation="7"/>
<feComposite in2="hardAlpha" operator="arithmetic" k2="-1" k3="1"/>
<feColorMatrix type="matrix" values="0 0 0 0 1 0 0 0 0 1 0 0 0 0 1 0 0 0 0.15 0"/>
<feBlend mode="normal" in2="effect2_innerShadow_23_41044" result="effect3_innerShadow_23_41044"/>
<feColorMatrix in="SourceAlpha" type="matrix" values="0 0 0 0 0 0 0 0 0 0 0 0 0 0 0 0 0 0 127 0" result="hardAlpha"/>
<feOffset dy="4"/>
<feGaussianBlur stdDeviation="6"/>
<feComposite in2="hardAlpha" operator="arithmetic" k2="-1" k3="1"/>
<feColorMatrix type="matrix" values="0 0 0 0 1 0 0 0 0 1 0 0 0 0 1 0 0 0 0.25 0"/>
<feBlend mode="normal" in2="effect3_innerShadow_23_41044" result="effect4_innerShadow_23_41044"/>
</filter>
<filter id="filter6_iii_23_41044" x="31.4727" y="33.3569" width="112.156" height="143.605" filterUnits="userSpaceOnUse" color-interpolation-filters="sRGB">
<feFlood flood-opacity="0" result="BackgroundImageFix"/>
<feBlend mode="normal" in="SourceGraphic" in2="BackgroundImageFix" result="shape"/>
<feColorMatrix in="SourceAlpha" type="matrix" values="0 0 0 0 0 0 0 0 0 0 0 0 0 0 0 0 0 0 127 0" result="hardAlpha"/>
<feOffset dx="2" dy="-23"/>
<feGaussianBlur stdDeviation="12"/>
<feComposite in2="hardAlpha" operator="arithmetic" k2="-1" k3="1"/>
<feColorMatrix type="matrix" values="0 0 0 0 0 0 0 0 0 0 0 0 0 0 0 0 0 0 0.15 0"/>
<feBlend mode="normal" in2="shape" result="effect1_innerShadow_23_41044"/>
<feColorMatrix in="SourceAlpha" type="matrix" values="0 0 0 0 0 0 0 0 0 0 0 0 0 0 0 0 0 0 127 0" result="hardAlpha"/>
<feOffset dx="2" dy="-8"/>
<feGaussianBlur stdDeviation="16"/>
<feComposite in2="hardAlpha" operator="arithmetic" k2="-1" k3="1"/>
<feColorMatrix type="matrix" values="0 0 0 0 0 0 0 0 0 0 0 0 0 0 0 0 0 0 0.1 0"/>
<feBlend mode="normal" in2="effect1_innerShadow_23_41044" result="effect2_innerShadow_23_41044"/>
<feColorMatrix in="SourceAlpha" type="matrix" values="0 0 0 0 0 0 0 0 0 0 0 0 0 0 0 0 0 0 127 0" result="hardAlpha"/>
<feOffset dx="-8"/>
<feGaussianBlur stdDeviation="7"/>
<feComposite in2="hardAlpha" operator="arithmetic" k2="-1" k3="1"/>
<feColorMatrix type="matrix" values="0 0 0 0 1 0 0 0 0 1 0 0 0 0 1 0 0 0 0.2 0"/>
<feBlend mode="normal" in2="effect2_innerShadow_23_41044" result="effect3_innerShadow_23_41044"/>
</filter>
<filter id="filter7_f_23_41044" x="59.9141" y="16.074" width="67.4609" height="56.2986" filterUnits="userSpaceOnUse" color-interpolation-filters="sRGB">
<feFlood flood-opacity="0" result="BackgroundImageFix"/>
<feBlend mode="normal" in="SourceGraphic" in2="BackgroundImageFix" result="shape"/>
<feGaussianBlur stdDeviation="3.5" result="effect1_foregroundBlur_23_41044"/>
</filter>
<filter id="filter8_i_23_41044" x="70.1875" y="18.2339" width="49.0078" height="44.8926" filterUnits="userSpaceOnUse" color-interpolation-filters="sRGB">
<feFlood flood-opacity="0" result="BackgroundImageFix"/>
<feBlend mode="normal" in="SourceGraphic" in2="BackgroundImageFix" result="shape"/>
<feColorMatrix in="SourceAlpha" type="matrix" values="0 0 0 0 0 0 0 0 0 0 0 0 0 0 0 0 0 0 127 0" result="hardAlpha"/>
<feOffset dx="3" dy="-5"/>
<feGaussianBlur stdDeviation="3.5"/>
<feComposite in2="hardAlpha" operator="arithmetic" k2="-1" k3="1"/>
<feColorMatrix type="matrix" values="0 0 0 0 0 0 0 0 0 0 0 0 0 0 0 0 0 0 0.25 0"/>
<feBlend mode="normal" in2="shape" result="effect1_innerShadow_23_41044"/>
</filter>
<filter id="filter9_f_23_41044" x="73.0469" y="21.2056" width="39.5742" height="34.0261" filterUnits="userSpaceOnUse" color-interpolation-filters="sRGB">
<feFlood flood-opacity="0" result="BackgroundImageFix"/>
<feBlend mode="normal" in="SourceGraphic" in2="BackgroundImageFix" result="shape"/>
<feGaussianBlur stdDeviation="2.5" result="effect1_foregroundBlur_23_41044"/>
</filter>
<filter id="filter10_ii_23_41044" x="79.625" y="22.1062" width="27.6484" height="27.1384" filterUnits="userSpaceOnUse" color-interpolation-filters="sRGB">
<feFlood flood-opacity="0" result="BackgroundImageFix"/>
<feBlend mode="normal" in="SourceGraphic" in2="BackgroundImageFix" result="shape"/>
<feColorMatrix in="SourceAlpha" type="matrix" values="0 0 0 0 0 0 0 0 0 0 0 0 0 0 0 0 0 0 127 0" result="hardAlpha"/>
<feOffset dx="2" dy="-4"/>
<feGaussianBlur stdDeviation="2.5"/>
<feComposite in2="hardAlpha" operator="arithmetic" k2="-1" k3="1"/>
<feColorMatrix type="matrix" values="0 0 0 0 0 0 0 0 0 0 0 0 0 0 0 0 0 0 0.25 0"/>
<feBlend mode="normal" in2="shape" result="effect1_innerShadow_23_41044"/>
<feColorMatrix in="SourceAlpha" type="matrix" values="0 0 0 0 0 0 0 0 0 0 0 0 0 0 0 0 0 0 127 0" result="hardAlpha"/>
<feOffset dx="2" dy="-4"/>
<feGaussianBlur stdDeviation="5.5"/>
<feComposite in2="hardAlpha" operator="arithmetic" k2="-1" k3="1"/>
<feColorMatrix type="matrix" values="0 0 0 0 0 0 0 0 0 0 0 0 0 0 0 0 0 0 0.1 0"/>
<feBlend mode="normal" in2="effect1_innerShadow_23_41044" result="effect2_innerShadow_23_41044"/>
</filter>
<filter id="filter11_ii_23_41044" x="64.7695" y="-2" width="39.9297" height="44.5864" filterUnits="userSpaceOnUse" color-interpolation-filters="sRGB">
<feFlood flood-opacity="0" result="BackgroundImageFix"/>
<feBlend mode="normal" in="SourceGraphic" in2="BackgroundImageFix" result="shape"/>
<feColorMatrix in="SourceAlpha" type="matrix" values="0 0 0 0 0 0 0 0 0 0 0 0 0 0 0 0 0 0 127 0" result="hardAlpha"/>
<feOffset dx="4" dy="1"/>
<feGaussianBlur stdDeviation="3"/>
<feComposite in2="hardAlpha" operator="arithmetic" k2="-1" k3="1"/>
<feColorMatrix type="matrix" values="0 0 0 0 0 0 0 0 0 0 0 0 0 0 0 0 0 0 0.25 0"/>
<feBlend mode="normal" in2="shape" result="effect1_innerShadow_23_41044"/>
<feColorMatrix in="SourceAlpha" type="matrix" values="0 0 0 0 0 0 0 0 0 0 0 0 0 0 0 0 0 0 127 0" result="hardAlpha"/>
<feOffset dx="-3" dy="-2"/>
<feGaussianBlur stdDeviation="3.5"/>
<feComposite in2="hardAlpha" operator="arithmetic" k2="-1" k3="1"/>
<feColorMatrix type="matrix" values="0 0 0 0 1 0 0 0 0 1 0 0 0 0 1 0 0 0 0.25 0"/>
<feBlend mode="normal" in2="effect1_innerShadow_23_41044" result="effect2_innerShadow_23_41044"/>
</filter>
<filter id="filter12_f_23_41044" x="96.0234" y="22.8789" width="94.1133" height="89.1506" filterUnits="userSpaceOnUse" color-interpolation-filters="sRGB">
<feFlood flood-opacity="0" result="BackgroundImageFix"/>
<feBlend mode="normal" in="SourceGraphic" in2="BackgroundImageFix" result="shape"/>
<feGaussianBlur stdDeviation="15.5" result="effect1_foregroundBlur_23_41044"/>
</filter>
<filter id="filter13_f_23_41044" x="62.5078" y="48.0459" width="90.1758" height="86.9749" filterUnits="userSpaceOnUse" color-interpolation-filters="sRGB">
<feFlood flood-opacity="0" result="BackgroundImageFix"/>
<feBlend mode="normal" in="SourceGraphic" in2="BackgroundImageFix" result="shape"/>
<feGaussianBlur stdDeviation="11.5" result="effect1_foregroundBlur_23_41044"/>
</filter>
</defs>
</svg>
