<svg width="167" height="182" viewBox="0 0 167 182" fill="none" xmlns="http://www.w3.org/2000/svg">
<ellipse cx="83.5" cy="169" rx="39.5" ry="9" fill="black" fill-opacity="0.2"/>
<ellipse cx="83.5" cy="145" rx="70.5" ry="37" fill="black" fill-opacity="0.12"/>
<circle cx="83.5" cy="83.5" r="83.5" fill="#CBD5E1"/>
<circle cx="83.5" cy="91.5" r="83.5" fill="#A6B4C8"/>
<g filter="url(#filter0_i_23_41029)">
<mask id="mask0_23_41029" style="mask-type:alpha" maskUnits="userSpaceOnUse" x="9" y="17" width="149" height="149">
<circle cx="83.5" cy="91.5" r="74.5" fill="#64748B"/>
</mask>
<g mask="url(#mask0_23_41029)">
<g filter="url(#filter1_ii_23_41029)">
<path d="M8 8.96202C8 8.43071 8.43071 8 8.96203 8L32.038 8C32.5693 8 33 8.43071 33 8.96203L33 169.038C33 169.569 32.5693 170 32.038 170H8.96201C8.43069 170 7.99998 169.569 7.99998 169.038L8 8.96202Z" fill="#EAB308"/>
</g>
<g filter="url(#filter2_ii_23_41029)">
<path d="M33 8.96202C33 8.43071 33.4307 8 33.962 8L57.038 8C57.5693 8 58 8.43071 58 8.96203L58 169.038C58 169.569 57.5693 170 57.038 170H33.962C33.4307 170 33 169.569 33 169.038L33 8.96202Z" fill="#EAB308"/>
</g>
<g filter="url(#filter3_ii_23_41029)">
<path d="M58 8.96202C58 8.43071 58.4307 8 58.962 8L82.038 8C82.5693 8 83 8.43071 83 8.96203L83 169.038C83 169.569 82.5693 170 82.038 170H58.962C58.4307 170 58 169.569 58 169.038L58 8.96202Z" fill="#EAB308"/>
</g>
<g filter="url(#filter4_ii_23_41029)">
<path d="M83 8.96202C83 8.43071 83.4307 8 83.962 8L107.038 8C107.569 8 108 8.43071 108 8.96203L108 169.038C108 169.569 107.569 170 107.038 170H83.962C83.4307 170 83 169.569 83 169.038L83 8.96202Z" fill="#EAB308"/>
</g>
<g filter="url(#filter5_ii_23_41029)">
<path d="M108 8.96202C108 8.43071 108.431 8 108.962 8L132.038 8C132.569 8 133 8.43071 133 8.96203L133 169.038C133 169.569 132.569 170 132.038 170H108.962C108.431 170 108 169.569 108 169.038L108 8.96202Z" fill="#EAB308"/>
</g>
<g filter="url(#filter6_ii_23_41029)">
<path d="M133 8.96202C133 8.43071 133.431 8 133.962 8L157.038 8C157.569 8 158 8.43071 158 8.96203L158 169.038C158 169.569 157.569 170 157.038 170H133.962C133.431 170 133 169.569 133 169.038L133 8.96202Z" fill="#EAB308"/>
</g>
</g>
</g>
<g filter="url(#filter7_d_23_41029)" style="mix-blend-mode:overlay">
<path d="M44 47L67 56M39 70.5C46.6667 63.6667 62.3 49.7 63.5 48.5M129.5 62.5L140.5 81.5M124.5 92L121 77M48.5 136.5C57.6667 135.5 76.8 133.6 80 134M60 127C62.8 129.8 70.8333 140.5 74.5 145.5M89.5 87.5C88.5 100.5 85.4 139.2 85 142M86.5 62.5C90.5 60.1 113.5 48.8333 124.5 43.5M21.5 106.5L30 113.5M140.5 119H128L124.5 131.5M61.5 80L106.5 117" stroke="black" stroke-opacity="0.25" stroke-width="2" stroke-linecap="round" shape-rendering="crispEdges"/>
</g>
<g filter="url(#filter8_d_23_41029)">
<circle cx="83" cy="13" r="2" fill="#CBD5E1"/>
</g>
<g filter="url(#filter9_d_23_41029)">
<circle cx="83" cy="170" r="2" fill="#CBD5E1"/>
</g>
<g filter="url(#filter10_d_23_41029)">
<circle cx="161.5" cy="91.5" r="2" transform="rotate(90 161.5 91.5)" fill="#CBD5E1"/>
</g>
<g filter="url(#filter11_d_23_41029)">
<circle cx="4.5" cy="91.5" r="2" transform="rotate(90 4.5 91.5)" fill="#CBD5E1"/>
</g>
<g filter="url(#filter12_d_23_41029)">
<circle cx="138.508" cy="147.008" r="2" transform="rotate(135 138.508 147.008)" fill="#CBD5E1"/>
</g>
<g filter="url(#filter13_d_23_41029)">
<circle cx="27.4919" cy="35.9922" r="2" transform="rotate(135 27.4919 35.9922)" fill="#CBD5E1"/>
</g>
<g filter="url(#filter14_d_23_41029)">
<circle cx="27.4922" cy="147.008" r="2" transform="rotate(-135 27.4922 147.008)" fill="#CBD5E1"/>
</g>
<g filter="url(#filter15_d_23_41029)">
<circle cx="138.508" cy="35.9919" r="2" transform="rotate(-135 138.508 35.9919)" fill="#CBD5E1"/>
</g>
<g style="mix-blend-mode:soft-light">
<path d="M124.612 76.8078C124.721 76.153 124.779 75.537 124.783 74.9591C124.858 74.1769 125 73.4161 125 72.6125C125 60.1238 115.71 50 104.25 50C94.3241 50 86.0261 57.5947 83.9823 67.7429C83.8612 68.3442 83.1388 68.3442 83.0176 67.7429C80.9739 57.5948 72.676 50 62.75 50C51.2899 50 42 60.1238 42 72.6125C42 73.4162 42.1418 74.177 42.2169 74.9591C42.2213 75.537 42.2786 76.153 42.3879 76.8078C42.4208 76.9983 42.4436 77.1905 42.4809 77.3792C42.5021 77.4807 42.5053 77.5686 42.5288 77.6718C48.3355 103.084 67.0076 119.412 83.5 133C99.9924 119.412 118.664 103.084 124.471 77.6718C124.495 77.5686 124.498 77.4807 124.519 77.3792C124.556 77.1905 124.579 76.9983 124.612 76.8078H124.612Z" fill="#292524"/>
</g>
<defs>
<filter id="filter0_i_23_41029" x="9" y="17" width="149" height="149" filterUnits="userSpaceOnUse" color-interpolation-filters="sRGB">
<feFlood flood-opacity="0" result="BackgroundImageFix"/>
<feBlend mode="normal" in="SourceGraphic" in2="BackgroundImageFix" result="shape"/>
<feColorMatrix in="SourceAlpha" type="matrix" values="0 0 0 0 0 0 0 0 0 0 0 0 0 0 0 0 0 0 127 0" result="hardAlpha"/>
<feOffset/>
<feGaussianBlur stdDeviation="5"/>
<feComposite in2="hardAlpha" operator="arithmetic" k2="-1" k3="1"/>
<feColorMatrix type="matrix" values="0 0 0 0 0 0 0 0 0 0 0 0 0 0 0 0 0 0 0.25 0"/>
<feBlend mode="normal" in2="shape" result="effect1_innerShadow_23_41029"/>
</filter>
<filter id="filter1_ii_23_41029" x="8" y="8" width="25" height="162" filterUnits="userSpaceOnUse" color-interpolation-filters="sRGB">
<feFlood flood-opacity="0" result="BackgroundImageFix"/>
<feBlend mode="normal" in="SourceGraphic" in2="BackgroundImageFix" result="shape"/>
<feColorMatrix in="SourceAlpha" type="matrix" values="0 0 0 0 0 0 0 0 0 0 0 0 0 0 0 0 0 0 127 0" result="hardAlpha"/>
<feOffset dx="0.962025"/>
<feComposite in2="hardAlpha" operator="arithmetic" k2="-1" k3="1"/>
<feColorMatrix type="matrix" values="0 0 0 0 0 0 0 0 0 0 0 0 0 0 0 0 0 0 0.25 0"/>
<feBlend mode="normal" in2="shape" result="effect1_innerShadow_23_41029"/>
<feColorMatrix in="SourceAlpha" type="matrix" values="0 0 0 0 0 0 0 0 0 0 0 0 0 0 0 0 0 0 127 0" result="hardAlpha"/>
<feOffset dx="-0.962025"/>
<feComposite in2="hardAlpha" operator="arithmetic" k2="-1" k3="1"/>
<feColorMatrix type="matrix" values="0 0 0 0 1 0 0 0 0 1 0 0 0 0 1 0 0 0 0.25 0"/>
<feBlend mode="normal" in2="effect1_innerShadow_23_41029" result="effect2_innerShadow_23_41029"/>
</filter>
<filter id="filter2_ii_23_41029" x="33" y="8" width="25" height="162" filterUnits="userSpaceOnUse" color-interpolation-filters="sRGB">
<feFlood flood-opacity="0" result="BackgroundImageFix"/>
<feBlend mode="normal" in="SourceGraphic" in2="BackgroundImageFix" result="shape"/>
<feColorMatrix in="SourceAlpha" type="matrix" values="0 0 0 0 0 0 0 0 0 0 0 0 0 0 0 0 0 0 127 0" result="hardAlpha"/>
<feOffset dx="0.962025"/>
<feComposite in2="hardAlpha" operator="arithmetic" k2="-1" k3="1"/>
<feColorMatrix type="matrix" values="0 0 0 0 0 0 0 0 0 0 0 0 0 0 0 0 0 0 0.25 0"/>
<feBlend mode="normal" in2="shape" result="effect1_innerShadow_23_41029"/>
<feColorMatrix in="SourceAlpha" type="matrix" values="0 0 0 0 0 0 0 0 0 0 0 0 0 0 0 0 0 0 127 0" result="hardAlpha"/>
<feOffset dx="-0.962025"/>
<feComposite in2="hardAlpha" operator="arithmetic" k2="-1" k3="1"/>
<feColorMatrix type="matrix" values="0 0 0 0 1 0 0 0 0 1 0 0 0 0 1 0 0 0 0.25 0"/>
<feBlend mode="normal" in2="effect1_innerShadow_23_41029" result="effect2_innerShadow_23_41029"/>
</filter>
<filter id="filter3_ii_23_41029" x="58" y="8" width="25" height="162" filterUnits="userSpaceOnUse" color-interpolation-filters="sRGB">
<feFlood flood-opacity="0" result="BackgroundImageFix"/>
<feBlend mode="normal" in="SourceGraphic" in2="BackgroundImageFix" result="shape"/>
<feColorMatrix in="SourceAlpha" type="matrix" values="0 0 0 0 0 0 0 0 0 0 0 0 0 0 0 0 0 0 127 0" result="hardAlpha"/>
<feOffset dx="0.962025"/>
<feComposite in2="hardAlpha" operator="arithmetic" k2="-1" k3="1"/>
<feColorMatrix type="matrix" values="0 0 0 0 0 0 0 0 0 0 0 0 0 0 0 0 0 0 0.25 0"/>
<feBlend mode="normal" in2="shape" result="effect1_innerShadow_23_41029"/>
<feColorMatrix in="SourceAlpha" type="matrix" values="0 0 0 0 0 0 0 0 0 0 0 0 0 0 0 0 0 0 127 0" result="hardAlpha"/>
<feOffset dx="-0.962025"/>
<feComposite in2="hardAlpha" operator="arithmetic" k2="-1" k3="1"/>
<feColorMatrix type="matrix" values="0 0 0 0 1 0 0 0 0 1 0 0 0 0 1 0 0 0 0.25 0"/>
<feBlend mode="normal" in2="effect1_innerShadow_23_41029" result="effect2_innerShadow_23_41029"/>
</filter>
<filter id="filter4_ii_23_41029" x="83" y="8" width="25" height="162" filterUnits="userSpaceOnUse" color-interpolation-filters="sRGB">
<feFlood flood-opacity="0" result="BackgroundImageFix"/>
<feBlend mode="normal" in="SourceGraphic" in2="BackgroundImageFix" result="shape"/>
<feColorMatrix in="SourceAlpha" type="matrix" values="0 0 0 0 0 0 0 0 0 0 0 0 0 0 0 0 0 0 127 0" result="hardAlpha"/>
<feOffset dx="0.962025"/>
<feComposite in2="hardAlpha" operator="arithmetic" k2="-1" k3="1"/>
<feColorMatrix type="matrix" values="0 0 0 0 0 0 0 0 0 0 0 0 0 0 0 0 0 0 0.25 0"/>
<feBlend mode="normal" in2="shape" result="effect1_innerShadow_23_41029"/>
<feColorMatrix in="SourceAlpha" type="matrix" values="0 0 0 0 0 0 0 0 0 0 0 0 0 0 0 0 0 0 127 0" result="hardAlpha"/>
<feOffset dx="-0.962025"/>
<feComposite in2="hardAlpha" operator="arithmetic" k2="-1" k3="1"/>
<feColorMatrix type="matrix" values="0 0 0 0 1 0 0 0 0 1 0 0 0 0 1 0 0 0 0.25 0"/>
<feBlend mode="normal" in2="effect1_innerShadow_23_41029" result="effect2_innerShadow_23_41029"/>
</filter>
<filter id="filter5_ii_23_41029" x="108" y="8" width="25" height="162" filterUnits="userSpaceOnUse" color-interpolation-filters="sRGB">
<feFlood flood-opacity="0" result="BackgroundImageFix"/>
<feBlend mode="normal" in="SourceGraphic" in2="BackgroundImageFix" result="shape"/>
<feColorMatrix in="SourceAlpha" type="matrix" values="0 0 0 0 0 0 0 0 0 0 0 0 0 0 0 0 0 0 127 0" result="hardAlpha"/>
<feOffset dx="0.962025"/>
<feComposite in2="hardAlpha" operator="arithmetic" k2="-1" k3="1"/>
<feColorMatrix type="matrix" values="0 0 0 0 0 0 0 0 0 0 0 0 0 0 0 0 0 0 0.25 0"/>
<feBlend mode="normal" in2="shape" result="effect1_innerShadow_23_41029"/>
<feColorMatrix in="SourceAlpha" type="matrix" values="0 0 0 0 0 0 0 0 0 0 0 0 0 0 0 0 0 0 127 0" result="hardAlpha"/>
<feOffset dx="-0.962025"/>
<feComposite in2="hardAlpha" operator="arithmetic" k2="-1" k3="1"/>
<feColorMatrix type="matrix" values="0 0 0 0 1 0 0 0 0 1 0 0 0 0 1 0 0 0 0.25 0"/>
<feBlend mode="normal" in2="effect1_innerShadow_23_41029" result="effect2_innerShadow_23_41029"/>
</filter>
<filter id="filter6_ii_23_41029" x="133" y="8" width="25" height="162" filterUnits="userSpaceOnUse" color-interpolation-filters="sRGB">
<feFlood flood-opacity="0" result="BackgroundImageFix"/>
<feBlend mode="normal" in="SourceGraphic" in2="BackgroundImageFix" result="shape"/>
<feColorMatrix in="SourceAlpha" type="matrix" values="0 0 0 0 0 0 0 0 0 0 0 0 0 0 0 0 0 0 127 0" result="hardAlpha"/>
<feOffset dx="0.962025"/>
<feComposite in2="hardAlpha" operator="arithmetic" k2="-1" k3="1"/>
<feColorMatrix type="matrix" values="0 0 0 0 0 0 0 0 0 0 0 0 0 0 0 0 0 0 0.25 0"/>
<feBlend mode="normal" in2="shape" result="effect1_innerShadow_23_41029"/>
<feColorMatrix in="SourceAlpha" type="matrix" values="0 0 0 0 0 0 0 0 0 0 0 0 0 0 0 0 0 0 127 0" result="hardAlpha"/>
<feOffset dx="-0.962025"/>
<feComposite in2="hardAlpha" operator="arithmetic" k2="-1" k3="1"/>
<feColorMatrix type="matrix" values="0 0 0 0 1 0 0 0 0 1 0 0 0 0 1 0 0 0 0.25 0"/>
<feBlend mode="normal" in2="effect1_innerShadow_23_41029" result="effect2_innerShadow_23_41029"/>
</filter>
<filter id="filter7_d_23_41029" x="20.5" y="42.5" width="121" height="106" filterUnits="userSpaceOnUse" color-interpolation-filters="sRGB">
<feFlood flood-opacity="0" result="BackgroundImageFix"/>
<feColorMatrix in="SourceAlpha" type="matrix" values="0 0 0 0 0 0 0 0 0 0 0 0 0 0 0 0 0 0 127 0" result="hardAlpha"/>
<feOffset dy="2"/>
<feComposite in2="hardAlpha" operator="out"/>
<feColorMatrix type="matrix" values="0 0 0 0 1 0 0 0 0 1 0 0 0 0 1 0 0 0 0.25 0"/>
<feBlend mode="normal" in2="BackgroundImageFix" result="effect1_dropShadow_23_41029"/>
<feBlend mode="normal" in="SourceGraphic" in2="effect1_dropShadow_23_41029" result="shape"/>
</filter>
<filter id="filter8_d_23_41029" x="81" y="11" width="4" height="5" filterUnits="userSpaceOnUse" color-interpolation-filters="sRGB">
<feFlood flood-opacity="0" result="BackgroundImageFix"/>
<feColorMatrix in="SourceAlpha" type="matrix" values="0 0 0 0 0 0 0 0 0 0 0 0 0 0 0 0 0 0 127 0" result="hardAlpha"/>
<feOffset dy="1"/>
<feComposite in2="hardAlpha" operator="out"/>
<feColorMatrix type="matrix" values="0 0 0 0 0 0 0 0 0 0 0 0 0 0 0 0 0 0 0.25 0"/>
<feBlend mode="normal" in2="BackgroundImageFix" result="effect1_dropShadow_23_41029"/>
<feBlend mode="normal" in="SourceGraphic" in2="effect1_dropShadow_23_41029" result="shape"/>
</filter>
<filter id="filter9_d_23_41029" x="81" y="168" width="4" height="5" filterUnits="userSpaceOnUse" color-interpolation-filters="sRGB">
<feFlood flood-opacity="0" result="BackgroundImageFix"/>
<feColorMatrix in="SourceAlpha" type="matrix" values="0 0 0 0 0 0 0 0 0 0 0 0 0 0 0 0 0 0 127 0" result="hardAlpha"/>
<feOffset dy="1"/>
<feComposite in2="hardAlpha" operator="out"/>
<feColorMatrix type="matrix" values="0 0 0 0 0 0 0 0 0 0 0 0 0 0 0 0 0 0 0.25 0"/>
<feBlend mode="normal" in2="BackgroundImageFix" result="effect1_dropShadow_23_41029"/>
<feBlend mode="normal" in="SourceGraphic" in2="effect1_dropShadow_23_41029" result="shape"/>
</filter>
<filter id="filter10_d_23_41029" x="159.5" y="89.5" width="4" height="5" filterUnits="userSpaceOnUse" color-interpolation-filters="sRGB">
<feFlood flood-opacity="0" result="BackgroundImageFix"/>
<feColorMatrix in="SourceAlpha" type="matrix" values="0 0 0 0 0 0 0 0 0 0 0 0 0 0 0 0 0 0 127 0" result="hardAlpha"/>
<feOffset dy="1"/>
<feComposite in2="hardAlpha" operator="out"/>
<feColorMatrix type="matrix" values="0 0 0 0 0 0 0 0 0 0 0 0 0 0 0 0 0 0 0.25 0"/>
<feBlend mode="normal" in2="BackgroundImageFix" result="effect1_dropShadow_23_41029"/>
<feBlend mode="normal" in="SourceGraphic" in2="effect1_dropShadow_23_41029" result="shape"/>
</filter>
<filter id="filter11_d_23_41029" x="2.5" y="89.5" width="4" height="5" filterUnits="userSpaceOnUse" color-interpolation-filters="sRGB">
<feFlood flood-opacity="0" result="BackgroundImageFix"/>
<feColorMatrix in="SourceAlpha" type="matrix" values="0 0 0 0 0 0 0 0 0 0 0 0 0 0 0 0 0 0 127 0" result="hardAlpha"/>
<feOffset dy="1"/>
<feComposite in2="hardAlpha" operator="out"/>
<feColorMatrix type="matrix" values="0 0 0 0 0 0 0 0 0 0 0 0 0 0 0 0 0 0 0.25 0"/>
<feBlend mode="normal" in2="BackgroundImageFix" result="effect1_dropShadow_23_41029"/>
<feBlend mode="normal" in="SourceGraphic" in2="effect1_dropShadow_23_41029" result="shape"/>
</filter>
<filter id="filter12_d_23_41029" x="136.508" y="145.008" width="4" height="5" filterUnits="userSpaceOnUse" color-interpolation-filters="sRGB">
<feFlood flood-opacity="0" result="BackgroundImageFix"/>
<feColorMatrix in="SourceAlpha" type="matrix" values="0 0 0 0 0 0 0 0 0 0 0 0 0 0 0 0 0 0 127 0" result="hardAlpha"/>
<feOffset dy="1"/>
<feComposite in2="hardAlpha" operator="out"/>
<feColorMatrix type="matrix" values="0 0 0 0 0 0 0 0 0 0 0 0 0 0 0 0 0 0 0.25 0"/>
<feBlend mode="normal" in2="BackgroundImageFix" result="effect1_dropShadow_23_41029"/>
<feBlend mode="normal" in="SourceGraphic" in2="effect1_dropShadow_23_41029" result="shape"/>
</filter>
<filter id="filter13_d_23_41029" x="25.4922" y="33.9922" width="4" height="5" filterUnits="userSpaceOnUse" color-interpolation-filters="sRGB">
<feFlood flood-opacity="0" result="BackgroundImageFix"/>
<feColorMatrix in="SourceAlpha" type="matrix" values="0 0 0 0 0 0 0 0 0 0 0 0 0 0 0 0 0 0 127 0" result="hardAlpha"/>
<feOffset dy="1"/>
<feComposite in2="hardAlpha" operator="out"/>
<feColorMatrix type="matrix" values="0 0 0 0 0 0 0 0 0 0 0 0 0 0 0 0 0 0 0.25 0"/>
<feBlend mode="normal" in2="BackgroundImageFix" result="effect1_dropShadow_23_41029"/>
<feBlend mode="normal" in="SourceGraphic" in2="effect1_dropShadow_23_41029" result="shape"/>
</filter>
<filter id="filter14_d_23_41029" x="25.4922" y="145.007" width="4" height="5" filterUnits="userSpaceOnUse" color-interpolation-filters="sRGB">
<feFlood flood-opacity="0" result="BackgroundImageFix"/>
<feColorMatrix in="SourceAlpha" type="matrix" values="0 0 0 0 0 0 0 0 0 0 0 0 0 0 0 0 0 0 127 0" result="hardAlpha"/>
<feOffset dy="1"/>
<feComposite in2="hardAlpha" operator="out"/>
<feColorMatrix type="matrix" values="0 0 0 0 0 0 0 0 0 0 0 0 0 0 0 0 0 0 0.25 0"/>
<feBlend mode="normal" in2="BackgroundImageFix" result="effect1_dropShadow_23_41029"/>
<feBlend mode="normal" in="SourceGraphic" in2="effect1_dropShadow_23_41029" result="shape"/>
</filter>
<filter id="filter15_d_23_41029" x="136.508" y="33.9917" width="4" height="5" filterUnits="userSpaceOnUse" color-interpolation-filters="sRGB">
<feFlood flood-opacity="0" result="BackgroundImageFix"/>
<feColorMatrix in="SourceAlpha" type="matrix" values="0 0 0 0 0 0 0 0 0 0 0 0 0 0 0 0 0 0 127 0" result="hardAlpha"/>
<feOffset dy="1"/>
<feComposite in2="hardAlpha" operator="out"/>
<feColorMatrix type="matrix" values="0 0 0 0 0 0 0 0 0 0 0 0 0 0 0 0 0 0 0.25 0"/>
<feBlend mode="normal" in2="BackgroundImageFix" result="effect1_dropShadow_23_41029"/>
<feBlend mode="normal" in="SourceGraphic" in2="effect1_dropShadow_23_41029" result="shape"/>
</filter>
</defs>
</svg>
