<svg width="135" height="541" viewBox="0 0 135 541" fill="none" xmlns="http://www.w3.org/2000/svg">
<g clip-path="url(#clip0_23_41006)">
<rect width="60" height="60" rx="8" transform="matrix(-1 0 0 1 135 481)" fill="black" fill-opacity="0.12"/>
<rect width="48" height="48" rx="4" transform="matrix(-1 0 0 1 129 487)" fill="black" fill-opacity="0.2"/>
<g filter="url(#filter0_dii_23_41006)">
<rect width="44" height="136" rx="4" transform="matrix(-1 0 0 1 127 396)" fill="#854D0E"/>
</g>
<g filter="url(#filter1_ii_23_41006)">
<rect width="44" height="44" rx="4" transform="matrix(-1 0 0 1 127 396)" fill="#A16207"/>
</g>
<path opacity="0.2" d="M101 470.078C101 473.994 101.871 478.182 103.742 478.182C105.613 478.182 106 475.007 106 471.091C106 467.175 105.613 464 103.742 464C101.871 464 101 466.162 101 470.078Z" fill="#1C1917"/>
<path opacity="0.2" d="M108 497.195C108 499.605 108.871 502.182 110.742 502.182C112.613 502.182 113 500.228 113 497.818C113 495.408 112.613 493.455 110.742 493.455C108.871 493.455 108 494.785 108 497.195Z" fill="white"/>
<path d="M123 113H87V86C87 84.8954 87.8954 84 89 84H121C122.105 84 123 84.8954 123 86V113Z" fill="#78716C"/>
<g filter="url(#filter2_ii_23_41006)">
<rect width="32" height="382" rx="4" transform="matrix(-1 0 0 1 121 51)" fill="#854D0E"/>
</g>
<mask id="mask0_23_41006" style="mask-type:alpha" maskUnits="userSpaceOnUse" x="89" y="83" width="32" height="350">
<rect width="32" height="350" rx="4" transform="matrix(-1 0 0 1 121 83)" fill="#854D0E"/>
</mask>
<g mask="url(#mask0_23_41006)">
<path opacity="0.2" d="M104 137.775C104 141.912 104.871 146.335 106.742 146.335C108.613 146.335 109 142.982 109 138.845C109 134.709 108.613 131.355 106.742 131.355C104.871 131.355 104 133.639 104 137.775Z" fill="#1C1917"/>
<path opacity="0.2" d="M104 91.5191C104 94.0646 104.871 96.7866 106.742 96.7866C108.613 96.7866 109 94.7231 109 92.1775C109 89.6319 108.613 87.5684 106.742 87.5684C104.871 87.5684 104 88.9735 104 91.5191Z" fill="#1C1917"/>
<path opacity="0.2" d="M102 256.64C102 260.743 102.697 265.131 104.194 265.131C105.69 265.131 106 261.805 106 257.701C106 253.598 105.69 250.271 104.194 250.271C102.697 250.271 102 252.537 102 256.64Z" fill="white"/>
<path opacity="0.2" d="M97 294.361C97 298.465 97.8713 302.853 99.7419 302.853C101.613 302.853 102 299.526 102 295.423C102 291.319 101.613 287.993 99.7419 287.993C97.8713 287.993 97 290.258 97 294.361Z" fill="#1C1917"/>
<path opacity="0.2" d="M104 233.615C104 236.141 104.871 238.841 106.742 238.841C108.613 238.841 109 236.794 109 234.269C109 231.743 108.613 229.696 106.742 229.696C104.871 229.696 104 231.09 104 233.615Z" fill="#1C1917"/>
<path opacity="0.2" d="M104 322.775C104 325.3 104.871 328 106.742 328C108.613 328 109 325.953 109 323.428C109 320.903 108.613 318.855 106.742 318.855C104.871 318.855 104 320.249 104 322.775Z" fill="white"/>
<path opacity="0.15" d="M112 153.886C112 156.735 111.303 159.782 109.806 159.782C108.31 159.782 108 157.472 108 154.623C108 151.774 108.31 149.464 109.806 149.464C111.303 149.464 112 151.037 112 153.886Z" fill="white"/>
<path opacity="0.2" d="M103 204.685C103 207.534 102.129 210.581 100.258 210.581C98.3874 210.581 98 208.271 98 205.422C98 202.573 98.3874 200.263 100.258 200.263C102.129 200.263 103 201.836 103 204.685Z" fill="#1C1917"/>
<path opacity="0.2" d="M103 172.822C103 174.576 102.129 176.451 100.258 176.451C98.3874 176.451 98 175.029 98 173.276C98 171.523 98.3874 170.101 100.258 170.101C102.129 170.101 103 171.069 103 172.822Z" fill="#1C1917"/>
</g>
<g filter="url(#filter3_ii_23_41006)">
<rect width="32" height="32" rx="4" transform="matrix(-1 0 0 1 121 51)" fill="#A16207"/>
</g>
<g filter="url(#filter4_i_23_41006)">
<path d="M123.004 151C123.004 152.105 122.108 153 121.004 153H89.0039C87.8993 153 87.0039 152.105 87.0039 151V113H123.004V151Z" fill="#57534E"/>
</g>
<path d="M123 113C123 114.105 122.105 115 121 115H89C87.8954 115 87 114.105 87 113H123Z" fill="#78716C"/>
<g filter="url(#filter5_ii_23_41006)">
<path d="M57 141L72 141" stroke="#78716C" stroke-width="4" stroke-linecap="round"/>
</g>
<g filter="url(#filter6_ii_23_41006)">
<path d="M48 120L63 120" stroke="#78716C" stroke-width="4" stroke-linecap="round"/>
</g>
<path d="M0.0939095 68.5349C0.159452 85.3887 14.9171 99.1086 33.0561 99.1791C51.1951 99.2496 65.8465 85.644 65.781 68.7902C65.7532 61.6549 63.2169 51.4145 58.782 39.0499C58.0433 36.9905 55.3929 36.4524 53.6269 37.7395C38.786 48.5562 44.5991 12.0569 32.6721 0.434366C14.5331 0.363869 0.0283668 51.681 0.0939095 68.5349Z" fill="#FDBA74"/>
<path d="M11.8928 74.7354C11.9369 86.0661 22.023 95.2904 34.4209 95.3386C46.8188 95.3868 56.8335 86.2405 56.7894 74.9099C56.7718 70.3788 55.8773 63.7116 53.3525 55.9269C52.6833 53.8635 50.0465 53.4254 47.977 54.0967C37.1957 57.5943 30.9233 28.5154 25.0484 28.4926C21.578 50.5301 11.8487 63.4047 11.8928 74.7354Z" fill="#FDE047"/>
<path d="M51.9536 29.0521C55.7416 29.7239 59.4611 26.2126 60.2614 21.2095C60.9962 16.6162 56.5009 13.4405 56.1241 5.26714C56.0838 4.39325 55.0544 3.89269 54.4547 4.51978C51.9432 7.14602 49.211 11.3507 46.544 18.7769C45.7437 23.78 48.1656 28.3804 51.9536 29.0521Z" fill="#FDBA74"/>
<path d="M52.3737 26.3885C54.345 26.7379 56.3464 24.5021 56.8437 21.3947C56.8617 21.2824 56.8754 21.1715 56.8851 21.0619C57.2232 17.2538 51.072 16.0477 49.8603 19.6591C49.793 19.8597 49.686 20.2345 49.6598 20.4451C49.2895 23.4244 50.4693 26.051 52.3737 26.3885Z" fill="#FEF08A"/>
<g filter="url(#filter7_i_23_41006)">
<path fill-rule="evenodd" clip-rule="evenodd" d="M27.5082 62.6047C25.5061 63.5384 24.6399 65.9183 25.5735 67.9204L76.2879 176.678C77.2215 178.68 79.6014 179.546 81.6036 178.613C83.6057 177.679 84.472 175.299 83.5383 173.297L32.8239 64.5395C31.8903 62.5373 29.5104 61.6711 27.5082 62.6047Z" fill="#854D0E"/>
</g>
<g filter="url(#filter8_i_23_41006)">
<line x1="8" y1="-8" x2="24.002" y2="-8" transform="matrix(0.422592 0.906251 0.906251 -0.422592 33.9141 57.4111)" stroke="#9A7858" stroke-width="16" stroke-linecap="round"/>
</g>
<line x1="1" y1="-1" x2="13.118" y2="-1" transform="matrix(-0.958605 0.290696 0.289646 0.955218 42.3047 77.7725)" stroke="#82644D" stroke-width="2" stroke-linecap="round"/>
<line x1="1" y1="-1" x2="13.0015" y2="-1" transform="matrix(-0.906249 0.422591 0.42259 0.906248 36.3867 65.084)" stroke="#82644D" stroke-width="2" stroke-linecap="round"/>
<line x1="1" y1="-1" x2="13.0015" y2="-1" transform="matrix(-0.906249 0.422591 0.42259 0.906248 43.5742 80.4912)" stroke="#82644D" stroke-width="2" stroke-linecap="round"/>
<line x1="1" y1="-1" x2="13.1681" y2="-1" transform="matrix(-0.835897 0.545541 0.547488 0.838858 38.9219 70.522)" stroke="#82644D" stroke-width="2" stroke-linecap="round"/>
<path d="M25.0586 74.2129L37.3484 70.703" stroke="#82644D" stroke-width="2" stroke-linecap="round"/>
<path d="M0.113576 68.5517C0.183863 85.4097 14.9392 99.1275 33.0705 99.1912C51.2018 99.255 65.8431 85.6406 65.7728 68.7826C65.7431 61.6459 63.2051 51.4045 58.7689 39.0391C58.0299 36.9793 55.3786 36.4421 53.6128 37.7305C38.7843 48.5497 44.5832 12.0425 32.6587 0.422141C14.5274 0.358376 0.0432881 51.6937 0.113576 68.5517Z" fill="#F97316"/>
<path d="M11.9051 74.747C11.9524 86.0805 22.0369 95.3034 34.4296 95.347C46.8223 95.3906 56.8302 86.2383 56.7829 74.9048C56.764 70.3729 55.8681 63.705 53.3426 55.9199C52.673 53.8559 50.0352 53.419 47.9653 54.0907C37.1914 57.5868 30.914 28.5083 25.0421 28.4877C21.5794 50.5321 11.8578 63.4135 11.9051 74.747Z" fill="#FACC15"/>
<path d="M51.9584 29.0545C55.748 29.7249 59.468 26.2119 60.2672 21.2078C61.001 16.6135 56.5027 13.439 56.1237 5.26415C56.0832 4.39034 55.0539 3.89017 54.4543 4.51734C51.9424 7.14478 49.2101 11.3511 46.5439 18.7801C45.7447 23.7841 48.1689 28.3841 51.9584 29.0545Z" fill="#F97316"/>
<path d="M52.3749 26.3897C54.3471 26.7384 56.3486 24.5016 56.8453 21.3937C56.8633 21.2813 56.877 21.1703 56.8867 21.0606C57.2237 17.251 51.0702 16.0472 49.8587 19.6602C49.7914 19.861 49.6844 20.2362 49.6582 20.447C49.2887 23.4266 50.4697 26.0528 52.3749 26.3897Z" fill="#FDE047"/>
<g filter="url(#filter9_ii_23_41006)">
<path d="M61 123C59.8954 123 59 122.105 59 121C59 119.895 59.8954 119 61 119L61 123ZM85 119L87 119L87 123L85 123L85 119ZM85 123L61 123L61 119L85 119L85 123Z" fill="#78716C"/>
</g>
<g filter="url(#filter10_ii_23_41006)">
<path d="M48 122L63 122" stroke="#78716C" stroke-width="4" stroke-linecap="round"/>
</g>
<g filter="url(#filter11_ii_23_41006)">
<path d="M72 144C70.8954 144 70 143.105 70 142C70 140.895 70.8954 140 72 140L72 144ZM85 140L87 140L87 144L85 144L85 140ZM85 144L72 144L72 140L85 140L85 144Z" fill="#78716C"/>
</g>
<g filter="url(#filter12_ii_23_41006)">
<path d="M57 143L72 143" stroke="#78716C" stroke-width="4" stroke-linecap="round"/>
</g>
</g>
<defs>
<filter id="filter0_dii_23_41006" x="83" y="396" width="46" height="138" filterUnits="userSpaceOnUse" color-interpolation-filters="sRGB">
<feFlood flood-opacity="0" result="BackgroundImageFix"/>
<feColorMatrix in="SourceAlpha" type="matrix" values="0 0 0 0 0 0 0 0 0 0 0 0 0 0 0 0 0 0 127 0" result="hardAlpha"/>
<feOffset dy="1"/>
<feComposite in2="hardAlpha" operator="out"/>
<feColorMatrix type="matrix" values="0 0 0 0 0 0 0 0 0 0 0 0 0 0 0 0 0 0 0.25 0"/>
<feBlend mode="normal" in2="BackgroundImageFix" result="effect1_dropShadow_23_41006"/>
<feBlend mode="normal" in="SourceGraphic" in2="effect1_dropShadow_23_41006" result="shape"/>
<feColorMatrix in="SourceAlpha" type="matrix" values="0 0 0 0 0 0 0 0 0 0 0 0 0 0 0 0 0 0 127 0" result="hardAlpha"/>
<feOffset dx="-1" dy="1"/>
<feComposite in2="hardAlpha" operator="arithmetic" k2="-1" k3="1"/>
<feColorMatrix type="matrix" values="0 0 0 0 1 0 0 0 0 1 0 0 0 0 1 0 0 0 0.15 0"/>
<feBlend mode="normal" in2="shape" result="effect2_innerShadow_23_41006"/>
<feColorMatrix in="SourceAlpha" type="matrix" values="0 0 0 0 0 0 0 0 0 0 0 0 0 0 0 0 0 0 127 0" result="hardAlpha"/>
<feOffset dx="2" dy="2"/>
<feGaussianBlur stdDeviation="3"/>
<feComposite in2="hardAlpha" operator="arithmetic" k2="-1" k3="1"/>
<feColorMatrix type="matrix" values="0 0 0 0 0 0 0 0 0 0 0 0 0 0 0 0 0 0 0.1 0"/>
<feBlend mode="normal" in2="effect2_innerShadow_23_41006" result="effect3_innerShadow_23_41006"/>
</filter>
<filter id="filter1_ii_23_41006" x="83" y="396" width="44" height="44" filterUnits="userSpaceOnUse" color-interpolation-filters="sRGB">
<feFlood flood-opacity="0" result="BackgroundImageFix"/>
<feBlend mode="normal" in="SourceGraphic" in2="BackgroundImageFix" result="shape"/>
<feColorMatrix in="SourceAlpha" type="matrix" values="0 0 0 0 0 0 0 0 0 0 0 0 0 0 0 0 0 0 127 0" result="hardAlpha"/>
<feOffset dx="-1" dy="-1"/>
<feComposite in2="hardAlpha" operator="arithmetic" k2="-1" k3="1"/>
<feColorMatrix type="matrix" values="0 0 0 0 1 0 0 0 0 1 0 0 0 0 1 0 0 0 0.15 0"/>
<feBlend mode="normal" in2="shape" result="effect1_innerShadow_23_41006"/>
<feColorMatrix in="SourceAlpha" type="matrix" values="0 0 0 0 0 0 0 0 0 0 0 0 0 0 0 0 0 0 127 0" result="hardAlpha"/>
<feOffset dx="1"/>
<feComposite in2="hardAlpha" operator="arithmetic" k2="-1" k3="1"/>
<feColorMatrix type="matrix" values="0 0 0 0 0 0 0 0 0 0 0 0 0 0 0 0 0 0 0.15 0"/>
<feBlend mode="normal" in2="effect1_innerShadow_23_41006" result="effect2_innerShadow_23_41006"/>
</filter>
<filter id="filter2_ii_23_41006" x="89" y="51" width="32" height="382" filterUnits="userSpaceOnUse" color-interpolation-filters="sRGB">
<feFlood flood-opacity="0" result="BackgroundImageFix"/>
<feBlend mode="normal" in="SourceGraphic" in2="BackgroundImageFix" result="shape"/>
<feColorMatrix in="SourceAlpha" type="matrix" values="0 0 0 0 0 0 0 0 0 0 0 0 0 0 0 0 0 0 127 0" result="hardAlpha"/>
<feOffset dx="-1" dy="1"/>
<feComposite in2="hardAlpha" operator="arithmetic" k2="-1" k3="1"/>
<feColorMatrix type="matrix" values="0 0 0 0 1 0 0 0 0 1 0 0 0 0 1 0 0 0 0.15 0"/>
<feBlend mode="normal" in2="shape" result="effect1_innerShadow_23_41006"/>
<feColorMatrix in="SourceAlpha" type="matrix" values="0 0 0 0 0 0 0 0 0 0 0 0 0 0 0 0 0 0 127 0" result="hardAlpha"/>
<feOffset dx="2" dy="2"/>
<feComposite in2="hardAlpha" operator="arithmetic" k2="-1" k3="1"/>
<feColorMatrix type="matrix" values="0 0 0 0 0 0 0 0 0 0 0 0 0 0 0 0 0 0 0.15 0"/>
<feBlend mode="normal" in2="effect1_innerShadow_23_41006" result="effect2_innerShadow_23_41006"/>
</filter>
<filter id="filter3_ii_23_41006" x="89" y="51" width="32" height="32" filterUnits="userSpaceOnUse" color-interpolation-filters="sRGB">
<feFlood flood-opacity="0" result="BackgroundImageFix"/>
<feBlend mode="normal" in="SourceGraphic" in2="BackgroundImageFix" result="shape"/>
<feColorMatrix in="SourceAlpha" type="matrix" values="0 0 0 0 0 0 0 0 0 0 0 0 0 0 0 0 0 0 127 0" result="hardAlpha"/>
<feOffset dx="-1" dy="-1"/>
<feComposite in2="hardAlpha" operator="arithmetic" k2="-1" k3="1"/>
<feColorMatrix type="matrix" values="0 0 0 0 1 0 0 0 0 1 0 0 0 0 1 0 0 0 0.15 0"/>
<feBlend mode="normal" in2="shape" result="effect1_innerShadow_23_41006"/>
<feColorMatrix in="SourceAlpha" type="matrix" values="0 0 0 0 0 0 0 0 0 0 0 0 0 0 0 0 0 0 127 0" result="hardAlpha"/>
<feOffset dx="2"/>
<feComposite in2="hardAlpha" operator="arithmetic" k2="-1" k3="1"/>
<feColorMatrix type="matrix" values="0 0 0 0 0 0 0 0 0 0 0 0 0 0 0 0 0 0 0.15 0"/>
<feBlend mode="normal" in2="effect1_innerShadow_23_41006" result="effect2_innerShadow_23_41006"/>
</filter>
<filter id="filter4_i_23_41006" x="87.0039" y="113" width="36" height="40" filterUnits="userSpaceOnUse" color-interpolation-filters="sRGB">
<feFlood flood-opacity="0" result="BackgroundImageFix"/>
<feBlend mode="normal" in="SourceGraphic" in2="BackgroundImageFix" result="shape"/>
<feColorMatrix in="SourceAlpha" type="matrix" values="0 0 0 0 0 0 0 0 0 0 0 0 0 0 0 0 0 0 127 0" result="hardAlpha"/>
<feOffset/>
<feGaussianBlur stdDeviation="2"/>
<feComposite in2="hardAlpha" operator="arithmetic" k2="-1" k3="1"/>
<feColorMatrix type="matrix" values="0 0 0 0 0 0 0 0 0 0 0 0 0 0 0 0 0 0 0.25 0"/>
<feBlend mode="normal" in2="shape" result="effect1_innerShadow_23_41006"/>
</filter>
<filter id="filter5_ii_23_41006" x="55" y="138" width="19" height="8" filterUnits="userSpaceOnUse" color-interpolation-filters="sRGB">
<feFlood flood-opacity="0" result="BackgroundImageFix"/>
<feBlend mode="normal" in="SourceGraphic" in2="BackgroundImageFix" result="shape"/>
<feColorMatrix in="SourceAlpha" type="matrix" values="0 0 0 0 0 0 0 0 0 0 0 0 0 0 0 0 0 0 127 0" result="hardAlpha"/>
<feOffset dy="3"/>
<feGaussianBlur stdDeviation="2"/>
<feComposite in2="hardAlpha" operator="arithmetic" k2="-1" k3="1"/>
<feColorMatrix type="matrix" values="0 0 0 0 1 0 0 0 0 1 0 0 0 0 1 0 0 0 0.25 0"/>
<feBlend mode="normal" in2="shape" result="effect1_innerShadow_23_41006"/>
<feColorMatrix in="SourceAlpha" type="matrix" values="0 0 0 0 0 0 0 0 0 0 0 0 0 0 0 0 0 0 127 0" result="hardAlpha"/>
<feOffset dy="-2"/>
<feGaussianBlur stdDeviation="0.5"/>
<feComposite in2="hardAlpha" operator="arithmetic" k2="-1" k3="1"/>
<feColorMatrix type="matrix" values="0 0 0 0 0 0 0 0 0 0 0 0 0 0 0 0 0 0 0.25 0"/>
<feBlend mode="normal" in2="effect1_innerShadow_23_41006" result="effect2_innerShadow_23_41006"/>
</filter>
<filter id="filter6_ii_23_41006" x="46" y="117" width="19" height="8" filterUnits="userSpaceOnUse" color-interpolation-filters="sRGB">
<feFlood flood-opacity="0" result="BackgroundImageFix"/>
<feBlend mode="normal" in="SourceGraphic" in2="BackgroundImageFix" result="shape"/>
<feColorMatrix in="SourceAlpha" type="matrix" values="0 0 0 0 0 0 0 0 0 0 0 0 0 0 0 0 0 0 127 0" result="hardAlpha"/>
<feOffset dy="3"/>
<feGaussianBlur stdDeviation="2"/>
<feComposite in2="hardAlpha" operator="arithmetic" k2="-1" k3="1"/>
<feColorMatrix type="matrix" values="0 0 0 0 1 0 0 0 0 1 0 0 0 0 1 0 0 0 0.25 0"/>
<feBlend mode="normal" in2="shape" result="effect1_innerShadow_23_41006"/>
<feColorMatrix in="SourceAlpha" type="matrix" values="0 0 0 0 0 0 0 0 0 0 0 0 0 0 0 0 0 0 127 0" result="hardAlpha"/>
<feOffset dy="-2"/>
<feGaussianBlur stdDeviation="0.5"/>
<feComposite in2="hardAlpha" operator="arithmetic" k2="-1" k3="1"/>
<feColorMatrix type="matrix" values="0 0 0 0 0 0 0 0 0 0 0 0 0 0 0 0 0 0 0.25 0"/>
<feBlend mode="normal" in2="effect1_innerShadow_23_41006" result="effect2_innerShadow_23_41006"/>
</filter>
<filter id="filter7_i_23_41006" x="25.1992" y="62.229" width="58.7148" height="116.759" filterUnits="userSpaceOnUse" color-interpolation-filters="sRGB">
<feFlood flood-opacity="0" result="BackgroundImageFix"/>
<feBlend mode="normal" in="SourceGraphic" in2="BackgroundImageFix" result="shape"/>
<feColorMatrix in="SourceAlpha" type="matrix" values="0 0 0 0 0 0 0 0 0 0 0 0 0 0 0 0 0 0 127 0" result="hardAlpha"/>
<feOffset dx="-2" dy="-2"/>
<feComposite in2="hardAlpha" operator="arithmetic" k2="-1" k3="1"/>
<feColorMatrix type="matrix" values="0 0 0 0 0 0 0 0 0 0 0 0 0 0 0 0 0 0 0.15 0"/>
<feBlend mode="normal" in2="shape" result="effect1_innerShadow_23_41006"/>
</filter>
<filter id="filter8_i_23_41006" x="21.043" y="56.0405" width="23.7656" height="34.5044" filterUnits="userSpaceOnUse" color-interpolation-filters="sRGB">
<feFlood flood-opacity="0" result="BackgroundImageFix"/>
<feBlend mode="normal" in="SourceGraphic" in2="BackgroundImageFix" result="shape"/>
<feColorMatrix in="SourceAlpha" type="matrix" values="0 0 0 0 0 0 0 0 0 0 0 0 0 0 0 0 0 0 127 0" result="hardAlpha"/>
<feOffset dx="-1" dy="-4"/>
<feGaussianBlur stdDeviation="3"/>
<feComposite in2="hardAlpha" operator="arithmetic" k2="-1" k3="1"/>
<feColorMatrix type="matrix" values="0 0 0 0 0 0 0 0 0 0 0 0 0 0 0 0 0 0 0.2 0"/>
<feBlend mode="normal" in2="shape" result="effect1_innerShadow_23_41006"/>
</filter>
<filter id="filter9_ii_23_41006" x="59" y="118" width="28" height="8" filterUnits="userSpaceOnUse" color-interpolation-filters="sRGB">
<feFlood flood-opacity="0" result="BackgroundImageFix"/>
<feBlend mode="normal" in="SourceGraphic" in2="BackgroundImageFix" result="shape"/>
<feColorMatrix in="SourceAlpha" type="matrix" values="0 0 0 0 0 0 0 0 0 0 0 0 0 0 0 0 0 0 127 0" result="hardAlpha"/>
<feOffset dy="3"/>
<feGaussianBlur stdDeviation="2"/>
<feComposite in2="hardAlpha" operator="arithmetic" k2="-1" k3="1"/>
<feColorMatrix type="matrix" values="0 0 0 0 1 0 0 0 0 1 0 0 0 0 1 0 0 0 0.25 0"/>
<feBlend mode="normal" in2="shape" result="effect1_innerShadow_23_41006"/>
<feColorMatrix in="SourceAlpha" type="matrix" values="0 0 0 0 0 0 0 0 0 0 0 0 0 0 0 0 0 0 127 0" result="hardAlpha"/>
<feOffset dy="-2"/>
<feGaussianBlur stdDeviation="0.5"/>
<feComposite in2="hardAlpha" operator="arithmetic" k2="-1" k3="1"/>
<feColorMatrix type="matrix" values="0 0 0 0 0 0 0 0 0 0 0 0 0 0 0 0 0 0 0.25 0"/>
<feBlend mode="normal" in2="effect1_innerShadow_23_41006" result="effect2_innerShadow_23_41006"/>
</filter>
<filter id="filter10_ii_23_41006" x="46" y="119" width="19" height="8" filterUnits="userSpaceOnUse" color-interpolation-filters="sRGB">
<feFlood flood-opacity="0" result="BackgroundImageFix"/>
<feBlend mode="normal" in="SourceGraphic" in2="BackgroundImageFix" result="shape"/>
<feColorMatrix in="SourceAlpha" type="matrix" values="0 0 0 0 0 0 0 0 0 0 0 0 0 0 0 0 0 0 127 0" result="hardAlpha"/>
<feOffset dy="3"/>
<feGaussianBlur stdDeviation="2"/>
<feComposite in2="hardAlpha" operator="arithmetic" k2="-1" k3="1"/>
<feColorMatrix type="matrix" values="0 0 0 0 1 0 0 0 0 1 0 0 0 0 1 0 0 0 0.25 0"/>
<feBlend mode="normal" in2="shape" result="effect1_innerShadow_23_41006"/>
<feColorMatrix in="SourceAlpha" type="matrix" values="0 0 0 0 0 0 0 0 0 0 0 0 0 0 0 0 0 0 127 0" result="hardAlpha"/>
<feOffset dy="-2"/>
<feGaussianBlur stdDeviation="0.5"/>
<feComposite in2="hardAlpha" operator="arithmetic" k2="-1" k3="1"/>
<feColorMatrix type="matrix" values="0 0 0 0 0 0 0 0 0 0 0 0 0 0 0 0 0 0 0.25 0"/>
<feBlend mode="normal" in2="effect1_innerShadow_23_41006" result="effect2_innerShadow_23_41006"/>
</filter>
<filter id="filter11_ii_23_41006" x="70" y="139" width="17" height="8" filterUnits="userSpaceOnUse" color-interpolation-filters="sRGB">
<feFlood flood-opacity="0" result="BackgroundImageFix"/>
<feBlend mode="normal" in="SourceGraphic" in2="BackgroundImageFix" result="shape"/>
<feColorMatrix in="SourceAlpha" type="matrix" values="0 0 0 0 0 0 0 0 0 0 0 0 0 0 0 0 0 0 127 0" result="hardAlpha"/>
<feOffset dy="3"/>
<feGaussianBlur stdDeviation="2"/>
<feComposite in2="hardAlpha" operator="arithmetic" k2="-1" k3="1"/>
<feColorMatrix type="matrix" values="0 0 0 0 1 0 0 0 0 1 0 0 0 0 1 0 0 0 0.25 0"/>
<feBlend mode="normal" in2="shape" result="effect1_innerShadow_23_41006"/>
<feColorMatrix in="SourceAlpha" type="matrix" values="0 0 0 0 0 0 0 0 0 0 0 0 0 0 0 0 0 0 127 0" result="hardAlpha"/>
<feOffset dy="-2"/>
<feGaussianBlur stdDeviation="0.5"/>
<feComposite in2="hardAlpha" operator="arithmetic" k2="-1" k3="1"/>
<feColorMatrix type="matrix" values="0 0 0 0 0 0 0 0 0 0 0 0 0 0 0 0 0 0 0.25 0"/>
<feBlend mode="normal" in2="effect1_innerShadow_23_41006" result="effect2_innerShadow_23_41006"/>
</filter>
<filter id="filter12_ii_23_41006" x="55" y="140" width="19" height="8" filterUnits="userSpaceOnUse" color-interpolation-filters="sRGB">
<feFlood flood-opacity="0" result="BackgroundImageFix"/>
<feBlend mode="normal" in="SourceGraphic" in2="BackgroundImageFix" result="shape"/>
<feColorMatrix in="SourceAlpha" type="matrix" values="0 0 0 0 0 0 0 0 0 0 0 0 0 0 0 0 0 0 127 0" result="hardAlpha"/>
<feOffset dy="3"/>
<feGaussianBlur stdDeviation="2"/>
<feComposite in2="hardAlpha" operator="arithmetic" k2="-1" k3="1"/>
<feColorMatrix type="matrix" values="0 0 0 0 1 0 0 0 0 1 0 0 0 0 1 0 0 0 0.25 0"/>
<feBlend mode="normal" in2="shape" result="effect1_innerShadow_23_41006"/>
<feColorMatrix in="SourceAlpha" type="matrix" values="0 0 0 0 0 0 0 0 0 0 0 0 0 0 0 0 0 0 127 0" result="hardAlpha"/>
<feOffset dy="-2"/>
<feGaussianBlur stdDeviation="0.5"/>
<feComposite in2="hardAlpha" operator="arithmetic" k2="-1" k3="1"/>
<feColorMatrix type="matrix" values="0 0 0 0 0 0 0 0 0 0 0 0 0 0 0 0 0 0 0.25 0"/>
<feBlend mode="normal" in2="effect1_innerShadow_23_41006" result="effect2_innerShadow_23_41006"/>
</filter>
<clipPath id="clip0_23_41006">
<rect width="135" height="541" fill="white" transform="matrix(-1 0 0 1 135 0)"/>
</clipPath>
</defs>
</svg>
