<svg width="327" height="609" viewBox="0 0 327 609" fill="none" xmlns="http://www.w3.org/2000/svg">
<rect y="535" width="112.151" height="74" rx="9" fill="black" fill-opacity="0.12"/>
<rect x="5.00684" y="540" width="101.136" height="62" rx="2" fill="black" fill-opacity="0.2"/>
<rect x="31.042" y="497" width="49.0661" height="41" fill="#78716C"/>
<g filter="url(#filter0_iii_33_127280)">
<path d="M104.141 543.174L80.1082 497V552.826L104.141 599V543.174Z" fill="#A8A29E"/>
</g>
<path d="M31.042 552.826L7.0096 599V543.174L31.042 497V552.826Z" fill="#44403C"/>
<g filter="url(#filter1_iii_33_127280)">
<path d="M7.00977 599H104.141L80.3474 538H30.803L7.00977 599Z" fill="#57534E"/>
</g>
<path d="M58.079 182.662L165.724 75.2499L123.24 75.2499L58.079 140.25L58.079 182.662Z" fill="#A16207"/>
<g filter="url(#filter2_iii_33_127280)">
<path d="M48.2717 206.963L180.236 75.2498L137.753 75.2498L48.2717 164.551L48.2717 206.963Z" fill="#854D0E"/>
</g>
<g filter="url(#filter3_i_33_127280)">
<rect x="54.0732" y="62" width="34" height="239.323" rx="2.27007" transform="rotate(-90 54.0732 62)" fill="#A16207"/>
</g>
<g filter="url(#filter4_ii_33_127280)">
<rect x="54.0732" y="76" width="34" height="239.323" rx="2.27007" transform="rotate(-90 54.0732 76)" fill="#854D0E"/>
</g>
<path opacity="0.1" d="M251.629 74.5797C249.071 74.5797 246.335 75.1757 246.335 76.4554C246.335 77.735 248.409 78 250.968 78C253.526 78 255.6 77.735 255.6 76.4554C255.6 75.1757 254.187 74.5797 251.629 74.5797Z" fill="black"/>
<path opacity="0.1" d="M234.657 60.8986C232.4 60.8986 229.986 61.4946 229.986 62.7742C229.986 64.0538 231.816 64.3188 234.073 64.3188C236.33 64.3188 238.16 64.0538 238.16 62.7742C238.16 61.4946 236.914 60.8986 234.657 60.8986Z" fill="white"/>
<path opacity="0.1" d="M264.707 64.3191C263.203 64.3191 261.593 65.2727 261.593 67.3201C261.593 69.3675 262.813 69.7915 264.318 69.7915C265.823 69.7915 267.043 69.3675 267.043 67.3201C267.043 65.2727 266.212 64.3191 264.707 64.3191Z" fill="black"/>
<path opacity="0.1" d="M196.443 51.3221C194.938 51.3221 193.329 50.7261 193.329 49.4465C193.329 48.1669 194.549 47.9019 196.054 47.9019C197.558 47.9019 198.778 48.1669 198.778 49.4465C198.778 50.7261 197.948 51.3221 196.443 51.3221Z" fill="white"/>
<path opacity="0.1" d="M188.114 58.8465C185.104 58.8465 181.886 58.1313 181.886 56.5958C181.886 55.0602 184.326 54.7422 187.336 54.7422C190.345 54.7422 192.785 55.0602 192.785 56.5958C192.785 58.1313 191.124 58.8465 188.114 58.8465Z" fill="black"/>
<path opacity="0.1" d="M88.7226 52.6901C86.7664 52.6901 84.6744 53.2861 84.6744 54.5657C84.6744 55.8453 86.2603 56.1104 88.2166 56.1104C90.1729 56.1104 91.7588 55.8453 91.7588 54.5657C91.7588 53.2861 90.6789 52.6901 88.7226 52.6901Z" fill="white"/>
<path opacity="0.1" d="M140.027 65.6872C137.77 65.6872 135.356 66.2832 135.356 67.5628C135.356 68.8424 137.186 69.1074 139.443 69.1074C141.7 69.1074 143.53 68.8424 143.53 67.5628C143.53 66.2832 142.284 65.6871 140.027 65.6872Z" fill="white"/>
<path opacity="0.1" d="M117.059 61.5827C112.996 61.5827 108.652 62.4171 108.652 64.2086C108.652 66.0001 111.945 66.3711 116.008 66.3711C120.071 66.3711 123.365 66.0001 123.365 64.2086C123.365 62.4171 121.122 61.5827 117.059 61.5827Z" fill="black"/>
<rect x="33.0449" y="499" width="45.0607" height="36" rx="2" fill="black" fill-opacity="0.2"/>
<g filter="url(#filter5_iii_33_127280)">
<path d="M35.0479 23C35.0479 21.3431 36.3996 20 38.0565 20C53.1673 20 53.8005 20 73.0867 20C74.7435 20 76.1032 21.3431 76.1032 23V530C76.1032 531.657 74.76 533 73.1032 533H38.0479C36.391 533 35.0479 531.657 35.0479 530V23Z" fill="#854D0E"/>
</g>
<g filter="url(#filter6_i_33_127280)">
<path d="M35.0479 4C35.0479 1.79086 36.8387 0 39.0479 0H55.5755H72.1032C74.3123 0 76.1032 1.79086 76.1032 4V37C76.1032 39.2091 74.312 41 72.1028 41C60.492 41 50.3229 41 39.048 41C36.8389 41 35.0479 39.2091 35.0479 37V4Z" fill="#A16207"/>
</g>
<path opacity="0.2" d="M72.0972 366.309C72.0972 369.822 71.3992 373.578 69.9007 373.578C68.4022 373.578 68.0918 370.73 68.0918 367.218C68.0918 363.705 68.4022 360.858 69.9007 360.858C71.3992 360.858 72.0972 362.797 72.0972 366.309Z" fill="white"/>
<path opacity="0.2" d="M59.08 382.943C59.08 386.456 58.2075 390.212 56.3344 390.212C54.4612 390.212 54.0732 387.364 54.0732 383.852C54.0732 380.339 54.4612 377.492 56.3344 377.492C58.2075 377.492 59.08 379.431 59.08 382.943Z" fill="#1C1917"/>
<path opacity="0.15" d="M65.0874 128.546C65.0874 132.059 64.3895 135.815 62.8909 135.815C61.3924 135.815 61.082 132.967 61.082 129.455C61.082 125.942 61.3924 123.095 62.8909 123.095C64.3895 123.095 65.0874 125.034 65.0874 128.546Z" fill="white"/>
<path opacity="0.2" d="M56.0761 191.167C56.0761 194.68 55.2036 198.436 53.3304 198.436C51.4573 198.436 51.0693 195.588 51.0693 192.076C51.0693 188.563 51.4573 185.716 53.3304 185.716C55.2036 185.716 56.0761 187.655 56.0761 191.167Z" fill="#1C1917"/>
<path opacity="0.2" d="M56.0761 151.889C56.0761 154.051 55.2036 156.362 53.3304 156.362C51.4573 156.362 51.0693 154.61 51.0693 152.448C51.0693 150.287 51.4573 148.535 53.3304 148.535C55.2036 148.535 56.0761 149.728 56.0761 151.889Z" fill="#1C1917"/>
<path opacity="0.2" d="M50.0679 259.02C50.0679 262.533 49.3699 266.289 47.8714 266.289C46.3729 266.289 46.0625 263.441 46.0625 259.929C46.0625 256.416 46.3729 253.569 47.8714 253.569C49.3699 253.569 50.0679 255.508 50.0679 259.02Z" fill="white"/>
<path opacity="0.2" d="M55.0741 291.309C55.0741 294.822 54.2017 298.578 52.3285 298.578C50.4553 298.578 50.0674 295.73 50.0674 292.218C50.0674 288.705 50.4553 285.858 52.3285 285.858C54.2017 285.858 55.0741 287.797 55.0741 291.309Z" fill="#1C1917"/>
<path opacity="0.2" d="M48.0653 239.312C48.0653 241.473 47.1929 243.785 45.3197 243.785C43.4465 243.785 43.0586 242.032 43.0586 239.871C43.0586 237.709 43.4465 235.957 45.3197 235.957C47.1929 235.957 48.0653 237.15 48.0653 239.312Z" fill="#1C1917"/>
<path opacity="0.2" d="M48.0653 315.631C48.0653 317.792 47.1929 320.103 45.3197 320.103C43.4465 320.103 43.0586 318.351 43.0586 316.19C43.0586 314.028 43.4465 312.276 45.3197 312.276C47.1929 312.276 48.0653 313.469 48.0653 315.631Z" fill="white"/>
<g filter="url(#filter7_ii_33_127280)">
<path d="M60.0098 57C60.0098 53.6863 62.6961 51 66.0098 51C69.3235 51 72.0098 53.6863 72.0098 57V63H60.0098V57Z" fill="#A16207"/>
</g>
<g filter="url(#filter8_d_33_127280)">
<circle cx="66.0098" cy="63" r="6" fill="#713F12"/>
</g>
<g filter="url(#filter9_ii_33_127280)">
<path d="M60.0098 160C60.0098 156.686 62.6961 154 66.0098 154C69.3235 154 72.0098 156.686 72.0098 160V166H60.0098V160Z" fill="#A16207"/>
</g>
<g filter="url(#filter10_d_33_127280)">
<circle cx="66.0098" cy="166" r="6" fill="#713F12"/>
</g>
<g filter="url(#filter11_ii_33_127280)">
<path d="M157.01 57C157.01 53.6863 159.696 51 163.01 51C166.323 51 169.01 53.6863 169.01 57V63H157.01V57Z" fill="#A16207"/>
</g>
<g filter="url(#filter12_d_33_127280)">
<circle cx="163.01" cy="63" r="6" fill="#713F12"/>
</g>
<rect x="283.908" y="190.558" width="55.7158" height="55.791" rx="6" transform="rotate(90 283.908 190.558)" fill="#78716C"/>
<rect x="283.908" y="184.063" width="55.7158" height="55.791" rx="6" transform="rotate(90 283.908 184.063)" fill="#A8A29E"/>
<path d="M222.801 173.791L232.314 233.613H278.877L292.068 165.053C292.068 165.053 289.79 136.655 251.691 136.653C213.592 136.651 222.801 173.791 222.801 173.791Z" fill="url(#paint0_linear_33_127280)"/>
<ellipse cx="256.262" cy="222.305" rx="7.49431" ry="7.48421" fill="url(#paint1_linear_33_127280)"/>
<g filter="url(#filter13_i_33_127280)">
<path d="M242.327 181L247.334 234" stroke="#78716C" stroke-width="4.02125" stroke-linecap="round"/>
</g>
<g filter="url(#filter14_i_33_127280)">
<path d="M270.365 173L265.358 233" stroke="#78716C" stroke-width="4.02125" stroke-linecap="round"/>
</g>
<g filter="url(#filter15_i_33_127280)">
<path d="M289.569 174.074L279.704 233.459C279.623 233.941 279.206 234.295 278.717 234.295H255.163H233.084C232.59 234.295 232.17 233.935 232.095 233.447L222.953 174.074" stroke="#78716C" stroke-width="4.0205"/>
</g>
<path d="M280.398 130C288.683 130 295.398 136.716 295.398 145L295.398 181C295.398 189.284 288.683 196 280.398 196L231.292 196C223.008 196 216.292 189.284 216.292 181L216.292 145C216.292 136.716 223.008 130 231.292 130L280.398 130Z" fill="#57534E"/>
<path d="M280.398 124C288.683 124 295.398 130.716 295.398 139L295.398 172C295.398 180.284 288.683 187 280.398 187L231.292 187C223.008 187 216.292 180.284 216.292 172L216.292 139C216.292 130.716 223.008 124 231.292 124L280.398 124Z" fill="#78716C"/>
<g filter="url(#filter16_ii_33_127280)">
<rect x="290.392" y="129" width="54" height="69.0931" rx="10" transform="rotate(90 290.392 129)" fill="#78716C"/>
</g>
<g filter="url(#filter17_dii_33_127280)">
<path d="M246.332 135C246.332 129.477 250.823 125 256.346 125C261.868 125 266.359 129.477 266.359 135V139C266.359 140.657 265.016 142 263.359 142H249.332C247.675 142 246.332 140.657 246.332 139V135Z" stroke="#64748B" stroke-width="4" shape-rendering="crispEdges"/>
</g>
<g filter="url(#filter18_ii_33_127280)">
<path d="M250.338 87.9919C250.338 91.3101 253.028 94 256.346 94C259.664 94 262.354 91.3101 262.354 87.9919V80C262.354 78.3431 261.011 77 259.354 77H253.338C251.681 77 250.338 78.3431 250.338 80V87.9919Z" stroke="#64748B" stroke-width="4"/>
</g>
<g filter="url(#filter19_ii_33_127280)">
<path d="M250.338 107.008C250.338 103.69 253.028 101 256.346 101C259.664 101 262.354 103.69 262.354 107.008V111.992C262.354 115.31 259.664 118 256.346 118C253.028 118 250.338 115.31 250.338 111.992V107.008Z" stroke="#64748B" stroke-width="4"/>
</g>
<g filter="url(#filter20_ii_33_127280)">
<path d="M256.346 113V129" stroke="#64748B" stroke-width="4" stroke-linecap="round"/>
</g>
<g filter="url(#filter21_ii_33_127280)">
<path d="M256.346 89V105" stroke="#64748B" stroke-width="4" stroke-linecap="round"/>
</g>
<g filter="url(#filter22_dii_33_127280)">
<rect x="264.325" y="135" width="17.4632" height="14.9886" rx="6" transform="rotate(90 264.325 135)" fill="#57534E"/>
</g>
<g filter="url(#filter23_i_33_127280)">
<path d="M240.324 37H272.367V78C272.367 79.1046 271.472 80 270.367 80H242.324C241.22 80 240.324 79.1046 240.324 78V37Z" fill="#57534E"/>
</g>
<g filter="url(#filter24_iii_33_127280)">
<path d="M240.324 40H272.367V25C272.367 23.8954 271.472 23 270.367 23H242.324C241.22 23 240.324 23.8954 240.324 25V40Z" fill="#78716C"/>
</g>
<defs>
<filter id="filter0_iii_33_127280" x="48.1084" y="493" width="80.0322" height="150" filterUnits="userSpaceOnUse" color-interpolation-filters="sRGB">
<feFlood flood-opacity="0" result="BackgroundImageFix"/>
<feBlend mode="normal" in="SourceGraphic" in2="BackgroundImageFix" result="shape"/>
<feColorMatrix in="SourceAlpha" type="matrix" values="0 0 0 0 0 0 0 0 0 0 0 0 0 0 0 0 0 0 127 0" result="hardAlpha"/>
<feOffset dx="24" dy="4"/>
<feGaussianBlur stdDeviation="34"/>
<feComposite in2="hardAlpha" operator="arithmetic" k2="-1" k3="1"/>
<feColorMatrix type="matrix" values="0 0 0 0 0 0 0 0 0 0 0 0 0 0 0 0 0 0 0.25 0"/>
<feBlend mode="normal" in2="shape" result="effect1_innerShadow_33_127280"/>
<feColorMatrix in="SourceAlpha" type="matrix" values="0 0 0 0 0 0 0 0 0 0 0 0 0 0 0 0 0 0 127 0" result="hardAlpha"/>
<feOffset dx="-32" dy="44"/>
<feGaussianBlur stdDeviation="26"/>
<feComposite in2="hardAlpha" operator="arithmetic" k2="-1" k3="1"/>
<feColorMatrix type="matrix" values="0 0 0 0 1 0 0 0 0 1 0 0 0 0 1 0 0 0 0.25 0"/>
<feBlend mode="normal" in2="effect1_innerShadow_33_127280" result="effect2_innerShadow_33_127280"/>
<feColorMatrix in="SourceAlpha" type="matrix" values="0 0 0 0 0 0 0 0 0 0 0 0 0 0 0 0 0 0 127 0" result="hardAlpha"/>
<feOffset dy="-4"/>
<feGaussianBlur stdDeviation="6"/>
<feComposite in2="hardAlpha" operator="arithmetic" k2="-1" k3="1"/>
<feColorMatrix type="matrix" values="0 0 0 0 0 0 0 0 0 0 0 0 0 0 0 0 0 0 0.25 0"/>
<feBlend mode="normal" in2="effect2_innerShadow_33_127280" result="effect3_innerShadow_33_127280"/>
</filter>
<filter id="filter1_iii_33_127280" x="-24.9902" y="534" width="153.131" height="109" filterUnits="userSpaceOnUse" color-interpolation-filters="sRGB">
<feFlood flood-opacity="0" result="BackgroundImageFix"/>
<feBlend mode="normal" in="SourceGraphic" in2="BackgroundImageFix" result="shape"/>
<feColorMatrix in="SourceAlpha" type="matrix" values="0 0 0 0 0 0 0 0 0 0 0 0 0 0 0 0 0 0 127 0" result="hardAlpha"/>
<feOffset dx="24" dy="4"/>
<feGaussianBlur stdDeviation="34"/>
<feComposite in2="hardAlpha" operator="arithmetic" k2="-1" k3="1"/>
<feColorMatrix type="matrix" values="0 0 0 0 0 0 0 0 0 0 0 0 0 0 0 0 0 0 0.25 0"/>
<feBlend mode="normal" in2="shape" result="effect1_innerShadow_33_127280"/>
<feColorMatrix in="SourceAlpha" type="matrix" values="0 0 0 0 0 0 0 0 0 0 0 0 0 0 0 0 0 0 127 0" result="hardAlpha"/>
<feOffset dx="-32" dy="44"/>
<feGaussianBlur stdDeviation="26"/>
<feComposite in2="hardAlpha" operator="arithmetic" k2="-1" k3="1"/>
<feColorMatrix type="matrix" values="0 0 0 0 1 0 0 0 0 1 0 0 0 0 1 0 0 0 0.25 0"/>
<feBlend mode="normal" in2="effect1_innerShadow_33_127280" result="effect2_innerShadow_33_127280"/>
<feColorMatrix in="SourceAlpha" type="matrix" values="0 0 0 0 0 0 0 0 0 0 0 0 0 0 0 0 0 0 127 0" result="hardAlpha"/>
<feOffset dy="-4"/>
<feGaussianBlur stdDeviation="6"/>
<feComposite in2="hardAlpha" operator="arithmetic" k2="-1" k3="1"/>
<feColorMatrix type="matrix" values="0 0 0 0 0 0 0 0 0 0 0 0 0 0 0 0 0 0 0.25 0"/>
<feBlend mode="normal" in2="effect2_innerShadow_33_127280" result="effect3_innerShadow_33_127280"/>
</filter>
<filter id="filter2_iii_33_127280" x="48.2715" y="63.25" width="143.965" height="143.713" filterUnits="userSpaceOnUse" color-interpolation-filters="sRGB">
<feFlood flood-opacity="0" result="BackgroundImageFix"/>
<feBlend mode="normal" in="SourceGraphic" in2="BackgroundImageFix" result="shape"/>
<feColorMatrix in="SourceAlpha" type="matrix" values="0 0 0 0 0 0 0 0 0 0 0 0 0 0 0 0 0 0 127 0" result="hardAlpha"/>
<feOffset dx="29" dy="-30"/>
<feComposite in2="hardAlpha" operator="arithmetic" k2="-1" k3="1"/>
<feColorMatrix type="matrix" values="0 0 0 0 0 0 0 0 0 0 0 0 0 0 0 0 0 0 0.25 0"/>
<feBlend mode="normal" in2="shape" result="effect1_innerShadow_33_127280"/>
<feColorMatrix in="SourceAlpha" type="matrix" values="0 0 0 0 0 0 0 0 0 0 0 0 0 0 0 0 0 0 127 0" result="hardAlpha"/>
<feOffset dx="-8" dy="8"/>
<feComposite in2="hardAlpha" operator="arithmetic" k2="-1" k3="1"/>
<feColorMatrix type="matrix" values="0 0 0 0 0 0 0 0 0 0 0 0 0 0 0 0 0 0 0.25 0"/>
<feBlend mode="normal" in2="effect1_innerShadow_33_127280" result="effect2_innerShadow_33_127280"/>
<feColorMatrix in="SourceAlpha" type="matrix" values="0 0 0 0 0 0 0 0 0 0 0 0 0 0 0 0 0 0 127 0" result="hardAlpha"/>
<feOffset dx="32" dy="-32"/>
<feGaussianBlur stdDeviation="6"/>
<feComposite in2="hardAlpha" operator="arithmetic" k2="-1" k3="1"/>
<feColorMatrix type="matrix" values="0 0 0 0 0 0 0 0 0 0 0 0 0 0 0 0 0 0 0.25 0"/>
<feBlend mode="normal" in2="effect2_innerShadow_33_127280" result="effect3_innerShadow_33_127280"/>
</filter>
<filter id="filter3_i_33_127280" x="54.0732" y="28" width="239.322" height="34" filterUnits="userSpaceOnUse" color-interpolation-filters="sRGB">
<feFlood flood-opacity="0" result="BackgroundImageFix"/>
<feBlend mode="normal" in="SourceGraphic" in2="BackgroundImageFix" result="shape"/>
<feColorMatrix in="SourceAlpha" type="matrix" values="0 0 0 0 0 0 0 0 0 0 0 0 0 0 0 0 0 0 127 0" result="hardAlpha"/>
<feOffset dx="23"/>
<feComposite in2="hardAlpha" operator="arithmetic" k2="-1" k3="1"/>
<feColorMatrix type="matrix" values="0 0 0 0 0 0 0 0 0 0 0 0 0 0 0 0 0 0 0.25 0"/>
<feBlend mode="normal" in2="shape" result="effect1_innerShadow_33_127280"/>
</filter>
<filter id="filter4_ii_33_127280" x="54.0732" y="42" width="239.322" height="34" filterUnits="userSpaceOnUse" color-interpolation-filters="sRGB">
<feFlood flood-opacity="0" result="BackgroundImageFix"/>
<feBlend mode="normal" in="SourceGraphic" in2="BackgroundImageFix" result="shape"/>
<feColorMatrix in="SourceAlpha" type="matrix" values="0 0 0 0 0 0 0 0 0 0 0 0 0 0 0 0 0 0 127 0" result="hardAlpha"/>
<feOffset dy="1.13504"/>
<feComposite in2="hardAlpha" operator="arithmetic" k2="-1" k3="1"/>
<feColorMatrix type="matrix" values="0 0 0 0 1 0 0 0 0 1 0 0 0 0 1 0 0 0 0.25 0"/>
<feBlend mode="normal" in2="shape" result="effect1_innerShadow_33_127280"/>
<feColorMatrix in="SourceAlpha" type="matrix" values="0 0 0 0 0 0 0 0 0 0 0 0 0 0 0 0 0 0 127 0" result="hardAlpha"/>
<feOffset dx="23"/>
<feComposite in2="hardAlpha" operator="arithmetic" k2="-1" k3="1"/>
<feColorMatrix type="matrix" values="0 0 0 0 0 0 0 0 0 0 0 0 0 0 0 0 0 0 0.25 0"/>
<feBlend mode="normal" in2="effect1_innerShadow_33_127280" result="effect2_innerShadow_33_127280"/>
</filter>
<filter id="filter5_iii_33_127280" x="35.0479" y="-8" width="41.0557" height="541" filterUnits="userSpaceOnUse" color-interpolation-filters="sRGB">
<feFlood flood-opacity="0" result="BackgroundImageFix"/>
<feBlend mode="normal" in="SourceGraphic" in2="BackgroundImageFix" result="shape"/>
<feColorMatrix in="SourceAlpha" type="matrix" values="0 0 0 0 0 0 0 0 0 0 0 0 0 0 0 0 0 0 127 0" result="hardAlpha"/>
<feOffset dx="1" dy="-1"/>
<feComposite in2="hardAlpha" operator="arithmetic" k2="-1" k3="1"/>
<feColorMatrix type="matrix" values="0 0 0 0 0 0 0 0 0 0 0 0 0 0 0 0 0 0 0.25 0"/>
<feBlend mode="normal" in2="shape" result="effect1_innerShadow_33_127280"/>
<feColorMatrix in="SourceAlpha" type="matrix" values="0 0 0 0 0 0 0 0 0 0 0 0 0 0 0 0 0 0 127 0" result="hardAlpha"/>
<feOffset dx="-1"/>
<feComposite in2="hardAlpha" operator="arithmetic" k2="-1" k3="1"/>
<feColorMatrix type="matrix" values="0 0 0 0 1 0 0 0 0 1 0 0 0 0 1 0 0 0 0.15 0"/>
<feBlend mode="normal" in2="effect1_innerShadow_33_127280" result="effect2_innerShadow_33_127280"/>
<feColorMatrix in="SourceAlpha" type="matrix" values="0 0 0 0 0 0 0 0 0 0 0 0 0 0 0 0 0 0 127 0" result="hardAlpha"/>
<feOffset dy="-28"/>
<feGaussianBlur stdDeviation="14"/>
<feComposite in2="hardAlpha" operator="arithmetic" k2="-1" k3="1"/>
<feColorMatrix type="matrix" values="0 0 0 0 0 0 0 0 0 0 0 0 0 0 0 0 0 0 0.15 0"/>
<feBlend mode="normal" in2="effect2_innerShadow_33_127280" result="effect3_innerShadow_33_127280"/>
</filter>
<filter id="filter6_i_33_127280" x="35.0479" y="0" width="41.0557" height="41" filterUnits="userSpaceOnUse" color-interpolation-filters="sRGB">
<feFlood flood-opacity="0" result="BackgroundImageFix"/>
<feBlend mode="normal" in="SourceGraphic" in2="BackgroundImageFix" result="shape"/>
<feColorMatrix in="SourceAlpha" type="matrix" values="0 0 0 0 0 0 0 0 0 0 0 0 0 0 0 0 0 0 127 0" result="hardAlpha"/>
<feOffset dx="-1" dy="-1"/>
<feComposite in2="hardAlpha" operator="arithmetic" k2="-1" k3="1"/>
<feColorMatrix type="matrix" values="0 0 0 0 1 0 0 0 0 1 0 0 0 0 1 0 0 0 0.15 0"/>
<feBlend mode="normal" in2="shape" result="effect1_innerShadow_33_127280"/>
</filter>
<filter id="filter7_ii_33_127280" x="58.0098" y="49" width="16" height="14" filterUnits="userSpaceOnUse" color-interpolation-filters="sRGB">
<feFlood flood-opacity="0" result="BackgroundImageFix"/>
<feBlend mode="normal" in="SourceGraphic" in2="BackgroundImageFix" result="shape"/>
<feColorMatrix in="SourceAlpha" type="matrix" values="0 0 0 0 0 0 0 0 0 0 0 0 0 0 0 0 0 0 127 0" result="hardAlpha"/>
<feOffset dx="3" dy="-3"/>
<feGaussianBlur stdDeviation="1"/>
<feComposite in2="hardAlpha" operator="arithmetic" k2="-1" k3="1"/>
<feColorMatrix type="matrix" values="0 0 0 0 0 0 0 0 0 0 0 0 0 0 0 0 0 0 0.25 0"/>
<feBlend mode="normal" in2="shape" result="effect1_innerShadow_33_127280"/>
<feColorMatrix in="SourceAlpha" type="matrix" values="0 0 0 0 0 0 0 0 0 0 0 0 0 0 0 0 0 0 127 0" result="hardAlpha"/>
<feOffset dx="-3" dy="-1"/>
<feGaussianBlur stdDeviation="1"/>
<feComposite in2="hardAlpha" operator="arithmetic" k2="-1" k3="1"/>
<feColorMatrix type="matrix" values="0 0 0 0 1 0 0 0 0 1 0 0 0 0 1 0 0 0 0.25 0"/>
<feBlend mode="normal" in2="effect1_innerShadow_33_127280" result="effect2_innerShadow_33_127280"/>
</filter>
<filter id="filter8_d_33_127280" x="60.0098" y="57" width="12" height="16" filterUnits="userSpaceOnUse" color-interpolation-filters="sRGB">
<feFlood flood-opacity="0" result="BackgroundImageFix"/>
<feColorMatrix in="SourceAlpha" type="matrix" values="0 0 0 0 0 0 0 0 0 0 0 0 0 0 0 0 0 0 127 0" result="hardAlpha"/>
<feOffset dy="4"/>
<feComposite in2="hardAlpha" operator="out"/>
<feColorMatrix type="matrix" values="0 0 0 0 0 0 0 0 0 0 0 0 0 0 0 0 0 0 0.25 0"/>
<feBlend mode="normal" in2="BackgroundImageFix" result="effect1_dropShadow_33_127280"/>
<feBlend mode="normal" in="SourceGraphic" in2="effect1_dropShadow_33_127280" result="shape"/>
</filter>
<filter id="filter9_ii_33_127280" x="58.0098" y="152" width="16" height="14" filterUnits="userSpaceOnUse" color-interpolation-filters="sRGB">
<feFlood flood-opacity="0" result="BackgroundImageFix"/>
<feBlend mode="normal" in="SourceGraphic" in2="BackgroundImageFix" result="shape"/>
<feColorMatrix in="SourceAlpha" type="matrix" values="0 0 0 0 0 0 0 0 0 0 0 0 0 0 0 0 0 0 127 0" result="hardAlpha"/>
<feOffset dx="3" dy="-3"/>
<feGaussianBlur stdDeviation="1"/>
<feComposite in2="hardAlpha" operator="arithmetic" k2="-1" k3="1"/>
<feColorMatrix type="matrix" values="0 0 0 0 0 0 0 0 0 0 0 0 0 0 0 0 0 0 0.25 0"/>
<feBlend mode="normal" in2="shape" result="effect1_innerShadow_33_127280"/>
<feColorMatrix in="SourceAlpha" type="matrix" values="0 0 0 0 0 0 0 0 0 0 0 0 0 0 0 0 0 0 127 0" result="hardAlpha"/>
<feOffset dx="-3" dy="-1"/>
<feGaussianBlur stdDeviation="1"/>
<feComposite in2="hardAlpha" operator="arithmetic" k2="-1" k3="1"/>
<feColorMatrix type="matrix" values="0 0 0 0 1 0 0 0 0 1 0 0 0 0 1 0 0 0 0.25 0"/>
<feBlend mode="normal" in2="effect1_innerShadow_33_127280" result="effect2_innerShadow_33_127280"/>
</filter>
<filter id="filter10_d_33_127280" x="60.0098" y="160" width="12" height="16" filterUnits="userSpaceOnUse" color-interpolation-filters="sRGB">
<feFlood flood-opacity="0" result="BackgroundImageFix"/>
<feColorMatrix in="SourceAlpha" type="matrix" values="0 0 0 0 0 0 0 0 0 0 0 0 0 0 0 0 0 0 127 0" result="hardAlpha"/>
<feOffset dy="4"/>
<feComposite in2="hardAlpha" operator="out"/>
<feColorMatrix type="matrix" values="0 0 0 0 0 0 0 0 0 0 0 0 0 0 0 0 0 0 0.25 0"/>
<feBlend mode="normal" in2="BackgroundImageFix" result="effect1_dropShadow_33_127280"/>
<feBlend mode="normal" in="SourceGraphic" in2="effect1_dropShadow_33_127280" result="shape"/>
</filter>
<filter id="filter11_ii_33_127280" x="155.01" y="49" width="16" height="14" filterUnits="userSpaceOnUse" color-interpolation-filters="sRGB">
<feFlood flood-opacity="0" result="BackgroundImageFix"/>
<feBlend mode="normal" in="SourceGraphic" in2="BackgroundImageFix" result="shape"/>
<feColorMatrix in="SourceAlpha" type="matrix" values="0 0 0 0 0 0 0 0 0 0 0 0 0 0 0 0 0 0 127 0" result="hardAlpha"/>
<feOffset dx="3" dy="-3"/>
<feGaussianBlur stdDeviation="1"/>
<feComposite in2="hardAlpha" operator="arithmetic" k2="-1" k3="1"/>
<feColorMatrix type="matrix" values="0 0 0 0 0 0 0 0 0 0 0 0 0 0 0 0 0 0 0.25 0"/>
<feBlend mode="normal" in2="shape" result="effect1_innerShadow_33_127280"/>
<feColorMatrix in="SourceAlpha" type="matrix" values="0 0 0 0 0 0 0 0 0 0 0 0 0 0 0 0 0 0 127 0" result="hardAlpha"/>
<feOffset dx="-3" dy="-1"/>
<feGaussianBlur stdDeviation="1"/>
<feComposite in2="hardAlpha" operator="arithmetic" k2="-1" k3="1"/>
<feColorMatrix type="matrix" values="0 0 0 0 1 0 0 0 0 1 0 0 0 0 1 0 0 0 0.25 0"/>
<feBlend mode="normal" in2="effect1_innerShadow_33_127280" result="effect2_innerShadow_33_127280"/>
</filter>
<filter id="filter12_d_33_127280" x="157.01" y="57" width="12" height="16" filterUnits="userSpaceOnUse" color-interpolation-filters="sRGB">
<feFlood flood-opacity="0" result="BackgroundImageFix"/>
<feColorMatrix in="SourceAlpha" type="matrix" values="0 0 0 0 0 0 0 0 0 0 0 0 0 0 0 0 0 0 127 0" result="hardAlpha"/>
<feOffset dy="4"/>
<feComposite in2="hardAlpha" operator="out"/>
<feColorMatrix type="matrix" values="0 0 0 0 0 0 0 0 0 0 0 0 0 0 0 0 0 0 0.25 0"/>
<feBlend mode="normal" in2="BackgroundImageFix" result="effect1_dropShadow_33_127280"/>
<feBlend mode="normal" in="SourceGraphic" in2="effect1_dropShadow_33_127280" result="shape"/>
</filter>
<filter id="filter13_i_33_127280" x="240.316" y="178.989" width="10.4818" height="57.0215" filterUnits="userSpaceOnUse" color-interpolation-filters="sRGB">
<feFlood flood-opacity="0" result="BackgroundImageFix"/>
<feBlend mode="normal" in="SourceGraphic" in2="BackgroundImageFix" result="shape"/>
<feColorMatrix in="SourceAlpha" type="matrix" values="0 0 0 0 0 0 0 0 0 0 0 0 0 0 0 0 0 0 127 0" result="hardAlpha"/>
<feOffset dx="1.93795"/>
<feGaussianBlur stdDeviation="0.726732"/>
<feComposite in2="hardAlpha" operator="arithmetic" k2="-1" k3="1"/>
<feColorMatrix type="matrix" values="0 0 0 0 0 0 0 0 0 0 0 0 0 0 0 0 0 0 0.25 0"/>
<feBlend mode="normal" in2="shape" result="effect1_innerShadow_33_127280"/>
</filter>
<filter id="filter14_i_33_127280" x="263.348" y="170.989" width="10.4818" height="64.0215" filterUnits="userSpaceOnUse" color-interpolation-filters="sRGB">
<feFlood flood-opacity="0" result="BackgroundImageFix"/>
<feBlend mode="normal" in="SourceGraphic" in2="BackgroundImageFix" result="shape"/>
<feColorMatrix in="SourceAlpha" type="matrix" values="0 0 0 0 0 0 0 0 0 0 0 0 0 0 0 0 0 0 127 0" result="hardAlpha"/>
<feOffset dx="1.93795"/>
<feGaussianBlur stdDeviation="0.726732"/>
<feComposite in2="hardAlpha" operator="arithmetic" k2="-1" k3="1"/>
<feColorMatrix type="matrix" values="0 0 0 0 0 0 0 0 0 0 0 0 0 0 0 0 0 0 0.25 0"/>
<feBlend mode="normal" in2="shape" result="effect1_innerShadow_33_127280"/>
</filter>
<filter id="filter15_i_33_127280" x="220.966" y="171.806" width="70.5869" height="64.499" filterUnits="userSpaceOnUse" color-interpolation-filters="sRGB">
<feFlood flood-opacity="0" result="BackgroundImageFix"/>
<feBlend mode="normal" in="SourceGraphic" in2="BackgroundImageFix" result="shape"/>
<feColorMatrix in="SourceAlpha" type="matrix" values="0 0 0 0 0 0 0 0 0 0 0 0 0 0 0 0 0 0 127 0" result="hardAlpha"/>
<feOffset dy="-1.93795"/>
<feGaussianBlur stdDeviation="0.968975"/>
<feComposite in2="hardAlpha" operator="arithmetic" k2="-1" k3="1"/>
<feColorMatrix type="matrix" values="0 0 0 0 0 0 0 0 0 0 0 0 0 0 0 0 0 0 0.25 0"/>
<feBlend mode="normal" in2="shape" result="effect1_innerShadow_33_127280"/>
</filter>
<filter id="filter16_ii_33_127280" x="213.615" y="120.41" width="85.3668" height="63.6214" filterUnits="userSpaceOnUse" color-interpolation-filters="sRGB">
<feFlood flood-opacity="0" result="BackgroundImageFix"/>
<feBlend mode="normal" in="SourceGraphic" in2="BackgroundImageFix" result="shape"/>
<feColorMatrix in="SourceAlpha" type="matrix" values="0 0 0 0 0 0 0 0 0 0 0 0 0 0 0 0 0 0 127 0" result="hardAlpha"/>
<feOffset dx="-7.68379" dy="1.03116"/>
<feGaussianBlur stdDeviation="7.16821"/>
<feComposite in2="hardAlpha" operator="arithmetic" k2="-1" k3="1"/>
<feColorMatrix type="matrix" values="0 0 0 0 1 0 0 0 0 1 0 0 0 0 1 0 0 0 0.3 0"/>
<feBlend mode="normal" in2="shape" result="effect1_innerShadow_33_127280"/>
<feColorMatrix in="SourceAlpha" type="matrix" values="0 0 0 0 0 0 0 0 0 0 0 0 0 0 0 0 0 0 127 0" result="hardAlpha"/>
<feOffset dx="8.59021" dy="-8.59021"/>
<feGaussianBlur stdDeviation="9.77105"/>
<feComposite in2="hardAlpha" operator="arithmetic" k2="-1" k3="1"/>
<feColorMatrix type="matrix" values="0 0 0 0 0 0 0 0 0 0 0 0 0 0 0 0 0 0 0.45 0"/>
<feBlend mode="normal" in2="effect1_innerShadow_33_127280" result="effect2_innerShadow_33_127280"/>
</filter>
<filter id="filter17_dii_33_127280" x="240.332" y="122" width="32.0273" height="30" filterUnits="userSpaceOnUse" color-interpolation-filters="sRGB">
<feFlood flood-opacity="0" result="BackgroundImageFix"/>
<feColorMatrix in="SourceAlpha" type="matrix" values="0 0 0 0 0 0 0 0 0 0 0 0 0 0 0 0 0 0 127 0" result="hardAlpha"/>
<feOffset dy="4"/>
<feGaussianBlur stdDeviation="2"/>
<feComposite in2="hardAlpha" operator="out"/>
<feColorMatrix type="matrix" values="0 0 0 0 0 0 0 0 0 0 0 0 0 0 0 0 0 0 0.25 0"/>
<feBlend mode="normal" in2="BackgroundImageFix" result="effect1_dropShadow_33_127280"/>
<feBlend mode="normal" in="SourceGraphic" in2="effect1_dropShadow_33_127280" result="shape"/>
<feColorMatrix in="SourceAlpha" type="matrix" values="0 0 0 0 0 0 0 0 0 0 0 0 0 0 0 0 0 0 127 0" result="hardAlpha"/>
<feOffset dy="3"/>
<feGaussianBlur stdDeviation="1"/>
<feComposite in2="hardAlpha" operator="arithmetic" k2="-1" k3="1"/>
<feColorMatrix type="matrix" values="0 0 0 0 1 0 0 0 0 1 0 0 0 0 1 0 0 0 0.25 0"/>
<feBlend mode="normal" in2="shape" result="effect2_innerShadow_33_127280"/>
<feColorMatrix in="SourceAlpha" type="matrix" values="0 0 0 0 0 0 0 0 0 0 0 0 0 0 0 0 0 0 127 0" result="hardAlpha"/>
<feOffset dy="-2"/>
<feGaussianBlur stdDeviation="0.5"/>
<feComposite in2="hardAlpha" operator="arithmetic" k2="-1" k3="1"/>
<feColorMatrix type="matrix" values="0 0 0 0 0 0 0 0 0 0 0 0 0 0 0 0 0 0 0.25 0"/>
<feBlend mode="normal" in2="effect2_innerShadow_33_127280" result="effect3_innerShadow_33_127280"/>
</filter>
<filter id="filter18_ii_33_127280" x="248.338" y="74" width="16.0166" height="23" filterUnits="userSpaceOnUse" color-interpolation-filters="sRGB">
<feFlood flood-opacity="0" result="BackgroundImageFix"/>
<feBlend mode="normal" in="SourceGraphic" in2="BackgroundImageFix" result="shape"/>
<feColorMatrix in="SourceAlpha" type="matrix" values="0 0 0 0 0 0 0 0 0 0 0 0 0 0 0 0 0 0 127 0" result="hardAlpha"/>
<feOffset dy="1"/>
<feGaussianBlur stdDeviation="1"/>
<feComposite in2="hardAlpha" operator="arithmetic" k2="-1" k3="1"/>
<feColorMatrix type="matrix" values="0 0 0 0 1 0 0 0 0 1 0 0 0 0 1 0 0 0 0.25 0"/>
<feBlend mode="normal" in2="shape" result="effect1_innerShadow_33_127280"/>
<feColorMatrix in="SourceAlpha" type="matrix" values="0 0 0 0 0 0 0 0 0 0 0 0 0 0 0 0 0 0 127 0" result="hardAlpha"/>
<feOffset dy="-2"/>
<feGaussianBlur stdDeviation="0.5"/>
<feComposite in2="hardAlpha" operator="arithmetic" k2="-1" k3="1"/>
<feColorMatrix type="matrix" values="0 0 0 0 0 0 0 0 0 0 0 0 0 0 0 0 0 0 0.25 0"/>
<feBlend mode="normal" in2="effect1_innerShadow_33_127280" result="effect2_innerShadow_33_127280"/>
</filter>
<filter id="filter19_ii_33_127280" x="248.338" y="98" width="16.0166" height="24" filterUnits="userSpaceOnUse" color-interpolation-filters="sRGB">
<feFlood flood-opacity="0" result="BackgroundImageFix"/>
<feBlend mode="normal" in="SourceGraphic" in2="BackgroundImageFix" result="shape"/>
<feColorMatrix in="SourceAlpha" type="matrix" values="0 0 0 0 0 0 0 0 0 0 0 0 0 0 0 0 0 0 127 0" result="hardAlpha"/>
<feOffset dy="3"/>
<feGaussianBlur stdDeviation="1"/>
<feComposite in2="hardAlpha" operator="arithmetic" k2="-1" k3="1"/>
<feColorMatrix type="matrix" values="0 0 0 0 1 0 0 0 0 1 0 0 0 0 1 0 0 0 0.25 0"/>
<feBlend mode="normal" in2="shape" result="effect1_innerShadow_33_127280"/>
<feColorMatrix in="SourceAlpha" type="matrix" values="0 0 0 0 0 0 0 0 0 0 0 0 0 0 0 0 0 0 127 0" result="hardAlpha"/>
<feOffset dy="-2"/>
<feGaussianBlur stdDeviation="0.5"/>
<feComposite in2="hardAlpha" operator="arithmetic" k2="-1" k3="1"/>
<feColorMatrix type="matrix" values="0 0 0 0 0 0 0 0 0 0 0 0 0 0 0 0 0 0 0.25 0"/>
<feBlend mode="normal" in2="effect1_innerShadow_33_127280" result="effect2_innerShadow_33_127280"/>
</filter>
<filter id="filter20_ii_33_127280" x="254.346" y="110" width="4" height="24" filterUnits="userSpaceOnUse" color-interpolation-filters="sRGB">
<feFlood flood-opacity="0" result="BackgroundImageFix"/>
<feBlend mode="normal" in="SourceGraphic" in2="BackgroundImageFix" result="shape"/>
<feColorMatrix in="SourceAlpha" type="matrix" values="0 0 0 0 0 0 0 0 0 0 0 0 0 0 0 0 0 0 127 0" result="hardAlpha"/>
<feOffset dy="3"/>
<feGaussianBlur stdDeviation="2"/>
<feComposite in2="hardAlpha" operator="arithmetic" k2="-1" k3="1"/>
<feColorMatrix type="matrix" values="0 0 0 0 1 0 0 0 0 1 0 0 0 0 1 0 0 0 0.25 0"/>
<feBlend mode="normal" in2="shape" result="effect1_innerShadow_33_127280"/>
<feColorMatrix in="SourceAlpha" type="matrix" values="0 0 0 0 0 0 0 0 0 0 0 0 0 0 0 0 0 0 127 0" result="hardAlpha"/>
<feOffset dy="-2"/>
<feGaussianBlur stdDeviation="0.5"/>
<feComposite in2="hardAlpha" operator="arithmetic" k2="-1" k3="1"/>
<feColorMatrix type="matrix" values="0 0 0 0 0 0 0 0 0 0 0 0 0 0 0 0 0 0 0.25 0"/>
<feBlend mode="normal" in2="effect1_innerShadow_33_127280" result="effect2_innerShadow_33_127280"/>
</filter>
<filter id="filter21_ii_33_127280" x="254.346" y="86" width="4" height="22" filterUnits="userSpaceOnUse" color-interpolation-filters="sRGB">
<feFlood flood-opacity="0" result="BackgroundImageFix"/>
<feBlend mode="normal" in="SourceGraphic" in2="BackgroundImageFix" result="shape"/>
<feColorMatrix in="SourceAlpha" type="matrix" values="0 0 0 0 0 0 0 0 0 0 0 0 0 0 0 0 0 0 127 0" result="hardAlpha"/>
<feOffset dy="3"/>
<feGaussianBlur stdDeviation="0.5"/>
<feComposite in2="hardAlpha" operator="arithmetic" k2="-1" k3="1"/>
<feColorMatrix type="matrix" values="0 0 0 0 1 0 0 0 0 1 0 0 0 0 1 0 0 0 0.25 0"/>
<feBlend mode="normal" in2="shape" result="effect1_innerShadow_33_127280"/>
<feColorMatrix in="SourceAlpha" type="matrix" values="0 0 0 0 0 0 0 0 0 0 0 0 0 0 0 0 0 0 127 0" result="hardAlpha"/>
<feOffset dy="-2"/>
<feGaussianBlur stdDeviation="0.5"/>
<feComposite in2="hardAlpha" operator="arithmetic" k2="-1" k3="1"/>
<feColorMatrix type="matrix" values="0 0 0 0 0 0 0 0 0 0 0 0 0 0 0 0 0 0 0.25 0"/>
<feBlend mode="normal" in2="effect1_innerShadow_33_127280" result="effect2_innerShadow_33_127280"/>
</filter>
<filter id="filter22_dii_33_127280" x="247.337" y="131.674" width="20.3146" height="23.7897" filterUnits="userSpaceOnUse" color-interpolation-filters="sRGB">
<feFlood flood-opacity="0" result="BackgroundImageFix"/>
<feColorMatrix in="SourceAlpha" type="matrix" values="0 0 0 0 0 0 0 0 0 0 0 0 0 0 0 0 0 0 127 0" result="hardAlpha"/>
<feOffset dx="-1" dy="2"/>
<feGaussianBlur stdDeviation="0.5"/>
<feComposite in2="hardAlpha" operator="out"/>
<feColorMatrix type="matrix" values="0 0 0 0 0 0 0 0 0 0 0 0 0 0 0 0 0 0 0.25 0"/>
<feBlend mode="normal" in2="BackgroundImageFix" result="effect1_dropShadow_33_127280"/>
<feBlend mode="normal" in="SourceGraphic" in2="effect1_dropShadow_33_127280" result="shape"/>
<feColorMatrix in="SourceAlpha" type="matrix" values="0 0 0 0 0 0 0 0 0 0 0 0 0 0 0 0 0 0 127 0" result="hardAlpha"/>
<feOffset dx="3.32632" dy="-3.32632"/>
<feGaussianBlur stdDeviation="3.32632"/>
<feComposite in2="hardAlpha" operator="arithmetic" k2="-1" k3="1"/>
<feColorMatrix type="matrix" values="0 0 0 0 0 0 0 0 0 0 0 0 0 0 0 0 0 0 0.25 0"/>
<feBlend mode="normal" in2="shape" result="effect2_innerShadow_33_127280"/>
<feColorMatrix in="SourceAlpha" type="matrix" values="0 0 0 0 0 0 0 0 0 0 0 0 0 0 0 0 0 0 127 0" result="hardAlpha"/>
<feOffset dx="-1.66316" dy="2.49474"/>
<feGaussianBlur stdDeviation="1.66316"/>
<feComposite in2="hardAlpha" operator="arithmetic" k2="-1" k3="1"/>
<feColorMatrix type="matrix" values="0 0 0 0 1 0 0 0 0 1 0 0 0 0 1 0 0 0 0.25 0"/>
<feBlend mode="normal" in2="effect2_innerShadow_33_127280" result="effect3_innerShadow_33_127280"/>
</filter>
<filter id="filter23_i_33_127280" x="240.324" y="33" width="33.043" height="47" filterUnits="userSpaceOnUse" color-interpolation-filters="sRGB">
<feFlood flood-opacity="0" result="BackgroundImageFix"/>
<feBlend mode="normal" in="SourceGraphic" in2="BackgroundImageFix" result="shape"/>
<feColorMatrix in="SourceAlpha" type="matrix" values="0 0 0 0 0 0 0 0 0 0 0 0 0 0 0 0 0 0 127 0" result="hardAlpha"/>
<feOffset dx="1" dy="-4"/>
<feGaussianBlur stdDeviation="6"/>
<feComposite in2="hardAlpha" operator="arithmetic" k2="-1" k3="1"/>
<feColorMatrix type="matrix" values="0 0 0 0 0 0 0 0 0 0 0 0 0 0 0 0 0 0 0.25 0"/>
<feBlend mode="normal" in2="shape" result="effect1_innerShadow_33_127280"/>
</filter>
<filter id="filter24_iii_33_127280" x="240.324" y="23" width="32.043" height="17" filterUnits="userSpaceOnUse" color-interpolation-filters="sRGB">
<feFlood flood-opacity="0" result="BackgroundImageFix"/>
<feBlend mode="normal" in="SourceGraphic" in2="BackgroundImageFix" result="shape"/>
<feColorMatrix in="SourceAlpha" type="matrix" values="0 0 0 0 0 0 0 0 0 0 0 0 0 0 0 0 0 0 127 0" result="hardAlpha"/>
<feOffset/>
<feGaussianBlur stdDeviation="2"/>
<feComposite in2="hardAlpha" operator="arithmetic" k2="-1" k3="1"/>
<feColorMatrix type="matrix" values="0 0 0 0 0 0 0 0 0 0 0 0 0 0 0 0 0 0 0.25 0"/>
<feBlend mode="normal" in2="shape" result="effect1_innerShadow_33_127280"/>
<feColorMatrix in="SourceAlpha" type="matrix" values="0 0 0 0 0 0 0 0 0 0 0 0 0 0 0 0 0 0 127 0" result="hardAlpha"/>
<feOffset dy="1"/>
<feComposite in2="hardAlpha" operator="arithmetic" k2="-1" k3="1"/>
<feColorMatrix type="matrix" values="0 0 0 0 1 0 0 0 0 1 0 0 0 0 1 0 0 0 0.25 0"/>
<feBlend mode="normal" in2="effect1_innerShadow_33_127280" result="effect2_innerShadow_33_127280"/>
<feColorMatrix in="SourceAlpha" type="matrix" values="0 0 0 0 0 0 0 0 0 0 0 0 0 0 0 0 0 0 127 0" result="hardAlpha"/>
<feOffset dy="-2"/>
<feComposite in2="hardAlpha" operator="arithmetic" k2="-1" k3="1"/>
<feColorMatrix type="matrix" values="0 0 0 0 1 0 0 0 0 1 0 0 0 0 1 0 0 0 0.15 0"/>
<feBlend mode="normal" in2="effect2_innerShadow_33_127280" result="effect3_innerShadow_33_127280"/>
</filter>
<linearGradient id="paint0_linear_33_127280" x1="259.387" y1="214.21" x2="259.387" y2="137.485" gradientUnits="userSpaceOnUse">
<stop stop-color="#FFF4DE"/>
<stop offset="1" stop-color="white" stop-opacity="0"/>
</linearGradient>
<linearGradient id="paint1_linear_33_127280" x1="257.147" y1="227.512" x2="257.147" y2="214.957" gradientUnits="userSpaceOnUse">
<stop stop-color="white" stop-opacity="0"/>
<stop offset="1" stop-color="#FFECC7"/>
</linearGradient>
</defs>
</svg>
