<svg width="273" height="488" viewBox="0 0 273 488" fill="none" xmlns="http://www.w3.org/2000/svg">
<rect width="60" height="60" rx="8" transform="matrix(-1 0 0 1 273 428)" fill="black" fill-opacity="0.12"/>
<rect width="48" height="48" rx="4" transform="matrix(-1 0 0 1 267 434)" fill="black" fill-opacity="0.2"/>
<g filter="url(#filter0_dii_23_41003)">
<rect width="44" height="136" rx="4" transform="matrix(-1 0 0 1 265 343)" fill="#854D0E"/>
</g>
<g filter="url(#filter1_ii_23_41003)">
<rect width="44" height="44" rx="4" transform="matrix(-1 0 0 1 265 343)" fill="#A16207"/>
</g>
<path opacity="0.2" d="M239 417.078C239 420.994 239.871 425.182 241.742 425.182C243.613 425.182 244 422.007 244 418.091C244 414.175 243.613 411 241.742 411C239.871 411 239 413.162 239 417.078Z" fill="#1C1917"/>
<path opacity="0.2" d="M246 444.195C246 446.605 246.871 449.182 248.742 449.182C250.613 449.182 251 447.228 251 444.818C251 442.408 250.613 440.455 248.742 440.455C246.871 440.455 246 441.785 246 444.195Z" fill="white"/>
<path d="M247.001 141.5L150.663 45.25L181.927 45.25L247.001 110.25L247.001 141.5Z" fill="#A16207"/>
<g filter="url(#filter2_iii_23_41003)">
<path d="M256.794 152.963L141.007 37.2499L167.434 37.2499L256.794 126.551L256.794 152.963Z" fill="#854D0E"/>
</g>
<rect width="28" height="168" rx="2.27007" transform="matrix(4.58155e-08 -1 -1 -4.17039e-08 251 46)" fill="#A16207"/>
<g filter="url(#filter3_i_23_41003)">
<rect width="14" height="168" rx="2.27007" transform="matrix(4.58155e-08 -1 -1 -4.17039e-08 251 46)" fill="#854D0E"/>
</g>
<path d="M105 123L0 99V231L105 199V123Z" fill="url(#paint0_linear_23_41003)"/>
<path d="M131 123L236 99V231L131 199V123Z" fill="url(#paint1_linear_23_41003)"/>
<g filter="url(#filter4_ii_23_41003)">
<rect width="39" height="30" rx="8" transform="matrix(-1 0 0 1 137.5 177)" fill="#334155"/>
</g>
<rect width="39" height="27" rx="8" transform="matrix(-1 0 0 1 137.5 177)" fill="#64748B"/>
<g filter="url(#filter5_i_23_41003)">
<path d="M133 199.5L137.5 145.5H98.5L103 199.5H133Z" fill="#FEF08A"/>
</g>
<path d="M133 199.5L137.5 145.5H98.5L103 199.5H133Z" stroke="#334155" stroke-width="3" stroke-linejoin="round"/>
<path d="M134.086 186.5L121.501 199.085" stroke="#334155" stroke-width="2" stroke-linecap="round"/>
<path d="M135.5 168.586L105 199.086" stroke="#334155" stroke-width="2" stroke-linecap="round"/>
<path d="M136.086 148.5L102 182.586" stroke="#334155" stroke-width="2" stroke-linecap="round"/>
<path d="M118.086 147L100.5 164.586" stroke="#334155" stroke-width="2" stroke-linecap="round"/>
<path d="M101.914 186.5L114.5 199.087" stroke="#334155" stroke-width="2" stroke-linecap="round"/>
<path d="M100.5 168.586L131 199.086" stroke="#334155" stroke-width="2" stroke-linecap="round"/>
<path d="M99.9139 148.5L134 182.586" stroke="#334155" stroke-width="2" stroke-linecap="round"/>
<path d="M117.914 147L135.5 164.586" stroke="#334155" stroke-width="2" stroke-linecap="round"/>
<g filter="url(#filter6_ii_23_41003)">
<rect width="48" height="42" rx="8" transform="matrix(-1 0 0 1 142 108)" fill="#334155"/>
</g>
<rect width="48" height="36" rx="8" transform="matrix(-1 0 0 1 142 108)" fill="#64748B"/>
<g filter="url(#filter7_ii_23_41003)">
<path d="M136 116.361C136 114.808 135.639 113.277 134.944 111.889L133 108H103L101.056 111.889C100.361 113.277 100 114.808 100 116.361V134C100 136.209 101.791 138 104 138H132C134.209 138 136 136.209 136 134V116.361Z" fill="#334155"/>
</g>
<rect width="30" height="18" rx="4" transform="matrix(-1 0 0 1 133 105)" fill="#64748B"/>
<g filter="url(#filter8_ii_23_41003)">
<path d="M110 111V102C110 97.5817 113.582 94 118 94C122.418 94 126 97.5817 126 102V111" stroke="#64748B" stroke-width="4" stroke-linecap="round"/>
</g>
<g filter="url(#filter9_ii_23_41003)">
<path d="M122.801 58.2C122.801 60.851 120.652 63 118.001 63C115.35 63 113.201 60.851 113.201 58.2V49C113.201 47.3431 114.544 46 116.201 46H119.801C121.458 46 122.801 47.3431 122.801 49V58.2Z" stroke="#64748B" stroke-width="4"/>
</g>
<g filter="url(#filter10_ii_23_41003)">
<path d="M122.801 74.8C122.801 72.149 120.652 70 118.001 70C115.35 70 113.201 72.149 113.201 74.8V82.2C113.201 84.851 115.35 87 118.001 87C120.652 87 122.801 84.851 122.801 82.2V74.8Z" stroke="#64748B" stroke-width="4"/>
</g>
<g filter="url(#filter11_ii_23_41003)">
<path d="M118 82V98" stroke="#64748B" stroke-width="4" stroke-linecap="round"/>
</g>
<g filter="url(#filter12_ii_23_41003)">
<path d="M118 58V74" stroke="#64748B" stroke-width="4" stroke-linecap="round"/>
</g>
<g filter="url(#filter13_i_23_41003)">
<path d="M134 31H102V47C102 48.1046 102.895 49 104 49H132C133.105 49 134 48.1046 134 47V31Z" fill="#57534E"/>
</g>
<g filter="url(#filter14_iii_23_41003)">
<path d="M134 31H102V16C102 14.8954 102.895 14 104 14H132C133.105 14 134 14.8954 134 16V31Z" fill="#78716C"/>
</g>
<g filter="url(#filter15_ii_23_41003)">
<rect width="32" height="380" rx="4" transform="matrix(-1 0 0 1 259 0)" fill="#854D0E"/>
</g>
<mask id="mask0_23_41003" style="mask-type:alpha" maskUnits="userSpaceOnUse" x="227" y="32" width="32" height="348">
<rect width="32" height="348" rx="4" transform="matrix(-1 0 0 1 259 32)" fill="#854D0E"/>
</mask>
<g mask="url(#mask0_23_41003)">
<path opacity="0.15" d="M233 26.5956C233 31.6948 233.697 37.1476 235.194 37.1476C236.69 37.1476 237 33.0138 237 27.9146C237 22.8154 236.69 18.6816 235.194 18.6816C233.697 18.6816 233 21.4964 233 26.5956Z" fill="white"/>
<path opacity="0.2" d="M242 117.505C242 122.604 242.871 128.057 244.742 128.057C246.613 128.057 247 123.923 247 118.824C247 113.725 246.613 109.591 244.742 109.591C242.871 109.591 242 112.406 242 117.505Z" fill="#1C1917"/>
<path opacity="0.2" d="M242 60.4839C242 63.6219 242.871 66.9774 244.742 66.9774C246.613 66.9774 247 64.4336 247 61.2956C247 58.1576 246.613 55.6138 244.742 55.6138C242.871 55.6138 242 57.3459 242 60.4839Z" fill="#1C1917"/>
<path opacity="0.2" d="M240 264.032C240 269.091 240.697 274.5 242.194 274.5C243.69 274.5 244 270.399 244 265.341C244 260.282 243.69 256.182 242.194 256.182C240.697 256.182 240 258.974 240 264.032Z" fill="white"/>
<path opacity="0.2" d="M235 310.532C235 315.591 235.871 321 237.742 321C239.613 321 240 316.899 240 311.841C240 306.782 239.613 302.682 237.742 302.682C235.871 302.682 235 305.474 235 310.532Z" fill="#1C1917"/>
<path opacity="0.2" d="M242 235.65C242 238.762 242.871 242.091 244.742 242.091C246.613 242.091 247 239.568 247 236.455C247 233.342 246.613 230.818 244.742 230.818C242.871 230.818 242 232.537 242 235.65Z" fill="#1C1917"/>
<path opacity="0.2" d="M242 345.558C242 348.671 242.871 352 244.742 352C246.613 352 247 349.476 247 346.363C247 343.251 246.613 340.727 244.742 340.727C242.871 340.727 242 342.445 242 345.558Z" fill="white"/>
<path opacity="0.15" d="M250 137.365C250 140.877 249.303 144.633 247.806 144.633C246.31 144.633 246 141.786 246 138.273C246 134.761 246.31 131.914 247.806 131.914C249.303 131.914 250 133.852 250 137.365Z" fill="white"/>
<path opacity="0.2" d="M241 199.986C241 203.499 240.129 207.254 238.258 207.254C236.387 207.254 236 204.407 236 200.895C236 197.382 236.387 194.535 238.258 194.535C240.129 194.535 241 196.474 241 199.986Z" fill="#1C1917"/>
<path opacity="0.2" d="M241 160.708C241 162.87 240.129 165.181 238.258 165.181C236.387 165.181 236 163.429 236 161.267C236 159.106 236.387 157.354 238.258 157.354C240.129 157.354 241 158.547 241 160.708Z" fill="#1C1917"/>
</g>
<g filter="url(#filter16_ii_23_41003)">
<rect width="32" height="32" rx="4" transform="matrix(-1 0 0 1 259 0)" fill="#A16207"/>
</g>
<defs>
<filter id="filter0_dii_23_41003" x="221" y="343" width="46" height="138" filterUnits="userSpaceOnUse" color-interpolation-filters="sRGB">
<feFlood flood-opacity="0" result="BackgroundImageFix"/>
<feColorMatrix in="SourceAlpha" type="matrix" values="0 0 0 0 0 0 0 0 0 0 0 0 0 0 0 0 0 0 127 0" result="hardAlpha"/>
<feOffset dy="1"/>
<feComposite in2="hardAlpha" operator="out"/>
<feColorMatrix type="matrix" values="0 0 0 0 0 0 0 0 0 0 0 0 0 0 0 0 0 0 0.25 0"/>
<feBlend mode="normal" in2="BackgroundImageFix" result="effect1_dropShadow_23_41003"/>
<feBlend mode="normal" in="SourceGraphic" in2="effect1_dropShadow_23_41003" result="shape"/>
<feColorMatrix in="SourceAlpha" type="matrix" values="0 0 0 0 0 0 0 0 0 0 0 0 0 0 0 0 0 0 127 0" result="hardAlpha"/>
<feOffset dx="-1" dy="1"/>
<feComposite in2="hardAlpha" operator="arithmetic" k2="-1" k3="1"/>
<feColorMatrix type="matrix" values="0 0 0 0 1 0 0 0 0 1 0 0 0 0 1 0 0 0 0.15 0"/>
<feBlend mode="normal" in2="shape" result="effect2_innerShadow_23_41003"/>
<feColorMatrix in="SourceAlpha" type="matrix" values="0 0 0 0 0 0 0 0 0 0 0 0 0 0 0 0 0 0 127 0" result="hardAlpha"/>
<feOffset dx="2" dy="2"/>
<feGaussianBlur stdDeviation="3"/>
<feComposite in2="hardAlpha" operator="arithmetic" k2="-1" k3="1"/>
<feColorMatrix type="matrix" values="0 0 0 0 0 0 0 0 0 0 0 0 0 0 0 0 0 0 0.1 0"/>
<feBlend mode="normal" in2="effect2_innerShadow_23_41003" result="effect3_innerShadow_23_41003"/>
</filter>
<filter id="filter1_ii_23_41003" x="221" y="343" width="44" height="44" filterUnits="userSpaceOnUse" color-interpolation-filters="sRGB">
<feFlood flood-opacity="0" result="BackgroundImageFix"/>
<feBlend mode="normal" in="SourceGraphic" in2="BackgroundImageFix" result="shape"/>
<feColorMatrix in="SourceAlpha" type="matrix" values="0 0 0 0 0 0 0 0 0 0 0 0 0 0 0 0 0 0 127 0" result="hardAlpha"/>
<feOffset dx="-1" dy="-1"/>
<feComposite in2="hardAlpha" operator="arithmetic" k2="-1" k3="1"/>
<feColorMatrix type="matrix" values="0 0 0 0 1 0 0 0 0 1 0 0 0 0 1 0 0 0 0.15 0"/>
<feBlend mode="normal" in2="shape" result="effect1_innerShadow_23_41003"/>
<feColorMatrix in="SourceAlpha" type="matrix" values="0 0 0 0 0 0 0 0 0 0 0 0 0 0 0 0 0 0 127 0" result="hardAlpha"/>
<feOffset dx="1"/>
<feComposite in2="hardAlpha" operator="arithmetic" k2="-1" k3="1"/>
<feColorMatrix type="matrix" values="0 0 0 0 0 0 0 0 0 0 0 0 0 0 0 0 0 0 0.15 0"/>
<feBlend mode="normal" in2="effect1_innerShadow_23_41003" result="effect2_innerShadow_23_41003"/>
</filter>
<filter id="filter2_iii_23_41003" x="129.008" y="25.25" width="127.785" height="127.713" filterUnits="userSpaceOnUse" color-interpolation-filters="sRGB">
<feFlood flood-opacity="0" result="BackgroundImageFix"/>
<feBlend mode="normal" in="SourceGraphic" in2="BackgroundImageFix" result="shape"/>
<feColorMatrix in="SourceAlpha" type="matrix" values="0 0 0 0 0 0 0 0 0 0 0 0 0 0 0 0 0 0 127 0" result="hardAlpha"/>
<feOffset dx="-29" dy="-30"/>
<feComposite in2="hardAlpha" operator="arithmetic" k2="-1" k3="1"/>
<feColorMatrix type="matrix" values="0 0 0 0 0 0 0 0 0 0 0 0 0 0 0 0 0 0 0.25 0"/>
<feBlend mode="normal" in2="shape" result="effect1_innerShadow_23_41003"/>
<feColorMatrix in="SourceAlpha" type="matrix" values="0 0 0 0 0 0 0 0 0 0 0 0 0 0 0 0 0 0 127 0" result="hardAlpha"/>
<feOffset dx="12" dy="12"/>
<feComposite in2="hardAlpha" operator="arithmetic" k2="-1" k3="1"/>
<feColorMatrix type="matrix" values="0 0 0 0 0 0 0 0 0 0 0 0 0 0 0 0 0 0 0.25 0"/>
<feBlend mode="normal" in2="effect1_innerShadow_23_41003" result="effect2_innerShadow_23_41003"/>
<feColorMatrix in="SourceAlpha" type="matrix" values="0 0 0 0 0 0 0 0 0 0 0 0 0 0 0 0 0 0 127 0" result="hardAlpha"/>
<feOffset dx="-32" dy="-32"/>
<feGaussianBlur stdDeviation="6"/>
<feComposite in2="hardAlpha" operator="arithmetic" k2="-1" k3="1"/>
<feColorMatrix type="matrix" values="0 0 0 0 0 0 0 0 0 0 0 0 0 0 0 0 0 0 0.25 0"/>
<feBlend mode="normal" in2="effect2_innerShadow_23_41003" result="effect3_innerShadow_23_41003"/>
</filter>
<filter id="filter3_i_23_41003" x="83" y="32" width="168" height="14" filterUnits="userSpaceOnUse" color-interpolation-filters="sRGB">
<feFlood flood-opacity="0" result="BackgroundImageFix"/>
<feBlend mode="normal" in="SourceGraphic" in2="BackgroundImageFix" result="shape"/>
<feColorMatrix in="SourceAlpha" type="matrix" values="0 0 0 0 0 0 0 0 0 0 0 0 0 0 0 0 0 0 127 0" result="hardAlpha"/>
<feOffset dy="1.13504"/>
<feComposite in2="hardAlpha" operator="arithmetic" k2="-1" k3="1"/>
<feColorMatrix type="matrix" values="0 0 0 0 1 0 0 0 0 1 0 0 0 0 1 0 0 0 0.25 0"/>
<feBlend mode="normal" in2="shape" result="effect1_innerShadow_23_41003"/>
</filter>
<filter id="filter4_ii_23_41003" x="93.5" y="177" width="49" height="35" filterUnits="userSpaceOnUse" color-interpolation-filters="sRGB">
<feFlood flood-opacity="0" result="BackgroundImageFix"/>
<feBlend mode="normal" in="SourceGraphic" in2="BackgroundImageFix" result="shape"/>
<feColorMatrix in="SourceAlpha" type="matrix" values="0 0 0 0 0 0 0 0 0 0 0 0 0 0 0 0 0 0 127 0" result="hardAlpha"/>
<feOffset dx="-5" dy="5"/>
<feGaussianBlur stdDeviation="2.5"/>
<feComposite in2="hardAlpha" operator="arithmetic" k2="-1" k3="1"/>
<feColorMatrix type="matrix" values="0 0 0 0 1 0 0 0 0 1 0 0 0 0 1 0 0 0 0.14 0"/>
<feBlend mode="normal" in2="shape" result="effect1_innerShadow_23_41003"/>
<feColorMatrix in="SourceAlpha" type="matrix" values="0 0 0 0 0 0 0 0 0 0 0 0 0 0 0 0 0 0 127 0" result="hardAlpha"/>
<feOffset dx="5"/>
<feGaussianBlur stdDeviation="2.5"/>
<feComposite in2="hardAlpha" operator="arithmetic" k2="-1" k3="1"/>
<feColorMatrix type="matrix" values="0 0 0 0 0 0 0 0 0 0 0 0 0 0 0 0 0 0 0.14 0"/>
<feBlend mode="normal" in2="effect1_innerShadow_23_41003" result="effect2_innerShadow_23_41003"/>
</filter>
<filter id="filter5_i_23_41003" x="97" y="144" width="42" height="57" filterUnits="userSpaceOnUse" color-interpolation-filters="sRGB">
<feFlood flood-opacity="0" result="BackgroundImageFix"/>
<feBlend mode="normal" in="SourceGraphic" in2="BackgroundImageFix" result="shape"/>
<feColorMatrix in="SourceAlpha" type="matrix" values="0 0 0 0 0 0 0 0 0 0 0 0 0 0 0 0 0 0 127 0" result="hardAlpha"/>
<feOffset/>
<feGaussianBlur stdDeviation="4"/>
<feComposite in2="hardAlpha" operator="arithmetic" k2="-1" k3="1"/>
<feColorMatrix type="matrix" values="0 0 0 0 1 0 0 0 0 1 0 0 0 0 1 0 0 0 1 0"/>
<feBlend mode="normal" in2="shape" result="effect1_innerShadow_23_41003"/>
</filter>
<filter id="filter6_ii_23_41003" x="89" y="108" width="58" height="47" filterUnits="userSpaceOnUse" color-interpolation-filters="sRGB">
<feFlood flood-opacity="0" result="BackgroundImageFix"/>
<feBlend mode="normal" in="SourceGraphic" in2="BackgroundImageFix" result="shape"/>
<feColorMatrix in="SourceAlpha" type="matrix" values="0 0 0 0 0 0 0 0 0 0 0 0 0 0 0 0 0 0 127 0" result="hardAlpha"/>
<feOffset dx="-5" dy="5"/>
<feGaussianBlur stdDeviation="2.5"/>
<feComposite in2="hardAlpha" operator="arithmetic" k2="-1" k3="1"/>
<feColorMatrix type="matrix" values="0 0 0 0 1 0 0 0 0 1 0 0 0 0 1 0 0 0 0.14 0"/>
<feBlend mode="normal" in2="shape" result="effect1_innerShadow_23_41003"/>
<feColorMatrix in="SourceAlpha" type="matrix" values="0 0 0 0 0 0 0 0 0 0 0 0 0 0 0 0 0 0 127 0" result="hardAlpha"/>
<feOffset dx="5"/>
<feGaussianBlur stdDeviation="2.5"/>
<feComposite in2="hardAlpha" operator="arithmetic" k2="-1" k3="1"/>
<feColorMatrix type="matrix" values="0 0 0 0 0 0 0 0 0 0 0 0 0 0 0 0 0 0 0.14 0"/>
<feBlend mode="normal" in2="effect1_innerShadow_23_41003" result="effect2_innerShadow_23_41003"/>
</filter>
<filter id="filter7_ii_23_41003" x="95" y="108" width="46" height="35" filterUnits="userSpaceOnUse" color-interpolation-filters="sRGB">
<feFlood flood-opacity="0" result="BackgroundImageFix"/>
<feBlend mode="normal" in="SourceGraphic" in2="BackgroundImageFix" result="shape"/>
<feColorMatrix in="SourceAlpha" type="matrix" values="0 0 0 0 0 0 0 0 0 0 0 0 0 0 0 0 0 0 127 0" result="hardAlpha"/>
<feOffset dx="-5" dy="5"/>
<feGaussianBlur stdDeviation="2.5"/>
<feComposite in2="hardAlpha" operator="arithmetic" k2="-1" k3="1"/>
<feColorMatrix type="matrix" values="0 0 0 0 1 0 0 0 0 1 0 0 0 0 1 0 0 0 0.14 0"/>
<feBlend mode="normal" in2="shape" result="effect1_innerShadow_23_41003"/>
<feColorMatrix in="SourceAlpha" type="matrix" values="0 0 0 0 0 0 0 0 0 0 0 0 0 0 0 0 0 0 127 0" result="hardAlpha"/>
<feOffset dx="5"/>
<feGaussianBlur stdDeviation="2.5"/>
<feComposite in2="hardAlpha" operator="arithmetic" k2="-1" k3="1"/>
<feColorMatrix type="matrix" values="0 0 0 0 0 0 0 0 0 0 0 0 0 0 0 0 0 0 0.14 0"/>
<feBlend mode="normal" in2="effect1_innerShadow_23_41003" result="effect2_innerShadow_23_41003"/>
</filter>
<filter id="filter8_ii_23_41003" x="108" y="91" width="21" height="24" filterUnits="userSpaceOnUse" color-interpolation-filters="sRGB">
<feFlood flood-opacity="0" result="BackgroundImageFix"/>
<feBlend mode="normal" in="SourceGraphic" in2="BackgroundImageFix" result="shape"/>
<feColorMatrix in="SourceAlpha" type="matrix" values="0 0 0 0 0 0 0 0 0 0 0 0 0 0 0 0 0 0 127 0" result="hardAlpha"/>
<feOffset dy="3"/>
<feGaussianBlur stdDeviation="1"/>
<feComposite in2="hardAlpha" operator="arithmetic" k2="-1" k3="1"/>
<feColorMatrix type="matrix" values="0 0 0 0 1 0 0 0 0 1 0 0 0 0 1 0 0 0 0.25 0"/>
<feBlend mode="normal" in2="shape" result="effect1_innerShadow_23_41003"/>
<feColorMatrix in="SourceAlpha" type="matrix" values="0 0 0 0 0 0 0 0 0 0 0 0 0 0 0 0 0 0 127 0" result="hardAlpha"/>
<feOffset dx="1" dy="-1"/>
<feGaussianBlur stdDeviation="0.5"/>
<feComposite in2="hardAlpha" operator="arithmetic" k2="-1" k3="1"/>
<feColorMatrix type="matrix" values="0 0 0 0 0 0 0 0 0 0 0 0 0 0 0 0 0 0 0.25 0"/>
<feBlend mode="normal" in2="effect1_innerShadow_23_41003" result="effect2_innerShadow_23_41003"/>
</filter>
<filter id="filter9_ii_23_41003" x="111.199" y="43" width="13.6016" height="23" filterUnits="userSpaceOnUse" color-interpolation-filters="sRGB">
<feFlood flood-opacity="0" result="BackgroundImageFix"/>
<feBlend mode="normal" in="SourceGraphic" in2="BackgroundImageFix" result="shape"/>
<feColorMatrix in="SourceAlpha" type="matrix" values="0 0 0 0 0 0 0 0 0 0 0 0 0 0 0 0 0 0 127 0" result="hardAlpha"/>
<feOffset dy="1"/>
<feGaussianBlur stdDeviation="1"/>
<feComposite in2="hardAlpha" operator="arithmetic" k2="-1" k3="1"/>
<feColorMatrix type="matrix" values="0 0 0 0 1 0 0 0 0 1 0 0 0 0 1 0 0 0 0.25 0"/>
<feBlend mode="normal" in2="shape" result="effect1_innerShadow_23_41003"/>
<feColorMatrix in="SourceAlpha" type="matrix" values="0 0 0 0 0 0 0 0 0 0 0 0 0 0 0 0 0 0 127 0" result="hardAlpha"/>
<feOffset dy="-2"/>
<feGaussianBlur stdDeviation="0.5"/>
<feComposite in2="hardAlpha" operator="arithmetic" k2="-1" k3="1"/>
<feColorMatrix type="matrix" values="0 0 0 0 0 0 0 0 0 0 0 0 0 0 0 0 0 0 0.25 0"/>
<feBlend mode="normal" in2="effect1_innerShadow_23_41003" result="effect2_innerShadow_23_41003"/>
</filter>
<filter id="filter10_ii_23_41003" x="111.199" y="67" width="13.6016" height="24" filterUnits="userSpaceOnUse" color-interpolation-filters="sRGB">
<feFlood flood-opacity="0" result="BackgroundImageFix"/>
<feBlend mode="normal" in="SourceGraphic" in2="BackgroundImageFix" result="shape"/>
<feColorMatrix in="SourceAlpha" type="matrix" values="0 0 0 0 0 0 0 0 0 0 0 0 0 0 0 0 0 0 127 0" result="hardAlpha"/>
<feOffset dy="3"/>
<feGaussianBlur stdDeviation="1"/>
<feComposite in2="hardAlpha" operator="arithmetic" k2="-1" k3="1"/>
<feColorMatrix type="matrix" values="0 0 0 0 1 0 0 0 0 1 0 0 0 0 1 0 0 0 0.25 0"/>
<feBlend mode="normal" in2="shape" result="effect1_innerShadow_23_41003"/>
<feColorMatrix in="SourceAlpha" type="matrix" values="0 0 0 0 0 0 0 0 0 0 0 0 0 0 0 0 0 0 127 0" result="hardAlpha"/>
<feOffset dy="-2"/>
<feGaussianBlur stdDeviation="0.5"/>
<feComposite in2="hardAlpha" operator="arithmetic" k2="-1" k3="1"/>
<feColorMatrix type="matrix" values="0 0 0 0 0 0 0 0 0 0 0 0 0 0 0 0 0 0 0.25 0"/>
<feBlend mode="normal" in2="effect1_innerShadow_23_41003" result="effect2_innerShadow_23_41003"/>
</filter>
<filter id="filter11_ii_23_41003" x="116" y="79" width="4" height="24" filterUnits="userSpaceOnUse" color-interpolation-filters="sRGB">
<feFlood flood-opacity="0" result="BackgroundImageFix"/>
<feBlend mode="normal" in="SourceGraphic" in2="BackgroundImageFix" result="shape"/>
<feColorMatrix in="SourceAlpha" type="matrix" values="0 0 0 0 0 0 0 0 0 0 0 0 0 0 0 0 0 0 127 0" result="hardAlpha"/>
<feOffset dy="3"/>
<feGaussianBlur stdDeviation="2"/>
<feComposite in2="hardAlpha" operator="arithmetic" k2="-1" k3="1"/>
<feColorMatrix type="matrix" values="0 0 0 0 1 0 0 0 0 1 0 0 0 0 1 0 0 0 0.25 0"/>
<feBlend mode="normal" in2="shape" result="effect1_innerShadow_23_41003"/>
<feColorMatrix in="SourceAlpha" type="matrix" values="0 0 0 0 0 0 0 0 0 0 0 0 0 0 0 0 0 0 127 0" result="hardAlpha"/>
<feOffset dy="-2"/>
<feGaussianBlur stdDeviation="0.5"/>
<feComposite in2="hardAlpha" operator="arithmetic" k2="-1" k3="1"/>
<feColorMatrix type="matrix" values="0 0 0 0 0 0 0 0 0 0 0 0 0 0 0 0 0 0 0.25 0"/>
<feBlend mode="normal" in2="effect1_innerShadow_23_41003" result="effect2_innerShadow_23_41003"/>
</filter>
<filter id="filter12_ii_23_41003" x="116" y="55" width="4" height="22" filterUnits="userSpaceOnUse" color-interpolation-filters="sRGB">
<feFlood flood-opacity="0" result="BackgroundImageFix"/>
<feBlend mode="normal" in="SourceGraphic" in2="BackgroundImageFix" result="shape"/>
<feColorMatrix in="SourceAlpha" type="matrix" values="0 0 0 0 0 0 0 0 0 0 0 0 0 0 0 0 0 0 127 0" result="hardAlpha"/>
<feOffset dy="3"/>
<feGaussianBlur stdDeviation="0.5"/>
<feComposite in2="hardAlpha" operator="arithmetic" k2="-1" k3="1"/>
<feColorMatrix type="matrix" values="0 0 0 0 1 0 0 0 0 1 0 0 0 0 1 0 0 0 0.25 0"/>
<feBlend mode="normal" in2="shape" result="effect1_innerShadow_23_41003"/>
<feColorMatrix in="SourceAlpha" type="matrix" values="0 0 0 0 0 0 0 0 0 0 0 0 0 0 0 0 0 0 127 0" result="hardAlpha"/>
<feOffset dy="-2"/>
<feGaussianBlur stdDeviation="0.5"/>
<feComposite in2="hardAlpha" operator="arithmetic" k2="-1" k3="1"/>
<feColorMatrix type="matrix" values="0 0 0 0 0 0 0 0 0 0 0 0 0 0 0 0 0 0 0.25 0"/>
<feBlend mode="normal" in2="effect1_innerShadow_23_41003" result="effect2_innerShadow_23_41003"/>
</filter>
<filter id="filter13_i_23_41003" x="102" y="27" width="33" height="22" filterUnits="userSpaceOnUse" color-interpolation-filters="sRGB">
<feFlood flood-opacity="0" result="BackgroundImageFix"/>
<feBlend mode="normal" in="SourceGraphic" in2="BackgroundImageFix" result="shape"/>
<feColorMatrix in="SourceAlpha" type="matrix" values="0 0 0 0 0 0 0 0 0 0 0 0 0 0 0 0 0 0 127 0" result="hardAlpha"/>
<feOffset dx="1" dy="-4"/>
<feGaussianBlur stdDeviation="6"/>
<feComposite in2="hardAlpha" operator="arithmetic" k2="-1" k3="1"/>
<feColorMatrix type="matrix" values="0 0 0 0 0 0 0 0 0 0 0 0 0 0 0 0 0 0 0.25 0"/>
<feBlend mode="normal" in2="shape" result="effect1_innerShadow_23_41003"/>
</filter>
<filter id="filter14_iii_23_41003" x="102" y="14" width="32" height="17" filterUnits="userSpaceOnUse" color-interpolation-filters="sRGB">
<feFlood flood-opacity="0" result="BackgroundImageFix"/>
<feBlend mode="normal" in="SourceGraphic" in2="BackgroundImageFix" result="shape"/>
<feColorMatrix in="SourceAlpha" type="matrix" values="0 0 0 0 0 0 0 0 0 0 0 0 0 0 0 0 0 0 127 0" result="hardAlpha"/>
<feOffset/>
<feGaussianBlur stdDeviation="2"/>
<feComposite in2="hardAlpha" operator="arithmetic" k2="-1" k3="1"/>
<feColorMatrix type="matrix" values="0 0 0 0 0 0 0 0 0 0 0 0 0 0 0 0 0 0 0.25 0"/>
<feBlend mode="normal" in2="shape" result="effect1_innerShadow_23_41003"/>
<feColorMatrix in="SourceAlpha" type="matrix" values="0 0 0 0 0 0 0 0 0 0 0 0 0 0 0 0 0 0 127 0" result="hardAlpha"/>
<feOffset dy="1"/>
<feComposite in2="hardAlpha" operator="arithmetic" k2="-1" k3="1"/>
<feColorMatrix type="matrix" values="0 0 0 0 1 0 0 0 0 1 0 0 0 0 1 0 0 0 0.25 0"/>
<feBlend mode="normal" in2="effect1_innerShadow_23_41003" result="effect2_innerShadow_23_41003"/>
<feColorMatrix in="SourceAlpha" type="matrix" values="0 0 0 0 0 0 0 0 0 0 0 0 0 0 0 0 0 0 127 0" result="hardAlpha"/>
<feOffset dy="-2"/>
<feComposite in2="hardAlpha" operator="arithmetic" k2="-1" k3="1"/>
<feColorMatrix type="matrix" values="0 0 0 0 1 0 0 0 0 1 0 0 0 0 1 0 0 0 0.15 0"/>
<feBlend mode="normal" in2="effect2_innerShadow_23_41003" result="effect3_innerShadow_23_41003"/>
</filter>
<filter id="filter15_ii_23_41003" x="227" y="0" width="32" height="380" filterUnits="userSpaceOnUse" color-interpolation-filters="sRGB">
<feFlood flood-opacity="0" result="BackgroundImageFix"/>
<feBlend mode="normal" in="SourceGraphic" in2="BackgroundImageFix" result="shape"/>
<feColorMatrix in="SourceAlpha" type="matrix" values="0 0 0 0 0 0 0 0 0 0 0 0 0 0 0 0 0 0 127 0" result="hardAlpha"/>
<feOffset dx="-1" dy="1"/>
<feComposite in2="hardAlpha" operator="arithmetic" k2="-1" k3="1"/>
<feColorMatrix type="matrix" values="0 0 0 0 1 0 0 0 0 1 0 0 0 0 1 0 0 0 0.15 0"/>
<feBlend mode="normal" in2="shape" result="effect1_innerShadow_23_41003"/>
<feColorMatrix in="SourceAlpha" type="matrix" values="0 0 0 0 0 0 0 0 0 0 0 0 0 0 0 0 0 0 127 0" result="hardAlpha"/>
<feOffset dx="2" dy="2"/>
<feComposite in2="hardAlpha" operator="arithmetic" k2="-1" k3="1"/>
<feColorMatrix type="matrix" values="0 0 0 0 0 0 0 0 0 0 0 0 0 0 0 0 0 0 0.15 0"/>
<feBlend mode="normal" in2="effect1_innerShadow_23_41003" result="effect2_innerShadow_23_41003"/>
</filter>
<filter id="filter16_ii_23_41003" x="227" y="0" width="32" height="32" filterUnits="userSpaceOnUse" color-interpolation-filters="sRGB">
<feFlood flood-opacity="0" result="BackgroundImageFix"/>
<feBlend mode="normal" in="SourceGraphic" in2="BackgroundImageFix" result="shape"/>
<feColorMatrix in="SourceAlpha" type="matrix" values="0 0 0 0 0 0 0 0 0 0 0 0 0 0 0 0 0 0 127 0" result="hardAlpha"/>
<feOffset dx="-1" dy="-1"/>
<feComposite in2="hardAlpha" operator="arithmetic" k2="-1" k3="1"/>
<feColorMatrix type="matrix" values="0 0 0 0 1 0 0 0 0 1 0 0 0 0 1 0 0 0 0.15 0"/>
<feBlend mode="normal" in2="shape" result="effect1_innerShadow_23_41003"/>
<feColorMatrix in="SourceAlpha" type="matrix" values="0 0 0 0 0 0 0 0 0 0 0 0 0 0 0 0 0 0 127 0" result="hardAlpha"/>
<feOffset dx="2"/>
<feComposite in2="hardAlpha" operator="arithmetic" k2="-1" k3="1"/>
<feColorMatrix type="matrix" values="0 0 0 0 0 0 0 0 0 0 0 0 0 0 0 0 0 0 0.15 0"/>
<feBlend mode="normal" in2="effect1_innerShadow_23_41003" result="effect2_innerShadow_23_41003"/>
</filter>
<linearGradient id="paint0_linear_23_41003" x1="105" y1="163" x2="8.5" y2="163" gradientUnits="userSpaceOnUse">
<stop stop-color="#FEFCE8" stop-opacity="0.7"/>
<stop offset="0.723958" stop-color="#FEFCE8" stop-opacity="0"/>
</linearGradient>
<linearGradient id="paint1_linear_23_41003" x1="131" y1="163" x2="227.5" y2="163" gradientUnits="userSpaceOnUse">
<stop stop-color="#FEFCE8" stop-opacity="0.7"/>
<stop offset="0.723958" stop-color="#FEFCE8" stop-opacity="0"/>
</linearGradient>
</defs>
</svg>
