<svg width="273" height="488" viewBox="0 0 273 488" fill="none" xmlns="http://www.w3.org/2000/svg">
<rect y="428" width="60" height="60" rx="8" fill="black" fill-opacity="0.12"/>
<rect x="6" y="434" width="48" height="48" rx="4" fill="black" fill-opacity="0.2"/>
<g filter="url(#filter0_dii_23_41004)">
<rect x="8" y="343" width="44" height="136" rx="4" fill="#854D0E"/>
</g>
<g filter="url(#filter1_ii_23_41004)">
<rect x="8" y="343" width="44" height="44" rx="4" fill="#A16207"/>
</g>
<path opacity="0.2" d="M34 417.078C34 420.994 33.1287 425.182 31.2581 425.182C29.3874 425.182 29 422.007 29 418.091C29 414.175 29.3874 411 31.2581 411C33.1287 411 34 413.162 34 417.078Z" fill="#1C1917"/>
<path opacity="0.2" d="M27 444.195C27 446.605 26.1287 449.182 24.2581 449.182C22.3874 449.182 22 447.228 22 444.818C22 442.408 22.3874 440.455 24.2581 440.455C26.1287 440.455 27 441.785 27 444.195Z" fill="white"/>
<path d="M25.9993 141.5L122.337 45.25L91.0725 45.25L25.9991 110.25L25.9993 141.5Z" fill="#A16207"/>
<g filter="url(#filter2_iii_23_41004)">
<path d="M16.2059 152.963L131.993 37.2499L105.566 37.2499L16.2059 126.551L16.2059 152.963Z" fill="#854D0E"/>
</g>
<g filter="url(#filter3_i_23_41004)">
<rect x="22" y="46" width="28" height="168" rx="2.27007" transform="rotate(-90 22 46)" fill="#A16207"/>
</g>
<g filter="url(#filter4_ii_23_41004)">
<rect x="22" y="46" width="14" height="168" rx="2.27007" transform="rotate(-90 22 46)" fill="#854D0E"/>
</g>
<path d="M168 123L273 99V231L168 199V123Z" fill="url(#paint0_linear_23_41004)"/>
<path d="M142 123L37 99V231L142 199V123Z" fill="url(#paint1_linear_23_41004)"/>
<g filter="url(#filter5_ii_23_41004)">
<rect x="135.5" y="177" width="39" height="30" rx="8" fill="#334155"/>
</g>
<rect x="135.5" y="177" width="39" height="27" rx="8" fill="#64748B"/>
<g filter="url(#filter6_i_23_41004)">
<path d="M140 199.5L135.5 145.5H174.5L170 199.5H140Z" fill="#FEF08A"/>
</g>
<path d="M140 199.5L135.5 145.5H174.5L170 199.5H140Z" stroke="#334155" stroke-width="3" stroke-linejoin="round"/>
<path d="M138.914 186.5L151.499 199.085" stroke="#334155" stroke-width="2" stroke-linecap="round"/>
<path d="M137.5 168.586L168 199.086" stroke="#334155" stroke-width="2" stroke-linecap="round"/>
<path d="M136.914 148.5L171 182.586" stroke="#334155" stroke-width="2" stroke-linecap="round"/>
<path d="M154.914 147L172.5 164.586" stroke="#334155" stroke-width="2" stroke-linecap="round"/>
<path d="M171.086 186.5L158.5 199.087" stroke="#334155" stroke-width="2" stroke-linecap="round"/>
<path d="M172.5 168.586L142 199.086" stroke="#334155" stroke-width="2" stroke-linecap="round"/>
<path d="M173.086 148.5L139 182.586" stroke="#334155" stroke-width="2" stroke-linecap="round"/>
<path d="M155.086 147L137.5 164.586" stroke="#334155" stroke-width="2" stroke-linecap="round"/>
<g filter="url(#filter7_ii_23_41004)">
<rect x="131" y="108" width="48" height="42" rx="8" fill="#334155"/>
</g>
<rect x="131" y="108" width="48" height="36" rx="8" fill="#64748B"/>
<g filter="url(#filter8_ii_23_41004)">
<path d="M137 116.361C137 114.808 137.361 113.277 138.056 111.889L140 108H170L171.944 111.889C172.639 113.277 173 114.808 173 116.361V134C173 136.209 171.209 138 169 138H141C138.791 138 137 136.209 137 134V116.361Z" fill="#334155"/>
</g>
<rect x="140" y="105" width="30" height="18" rx="4" fill="#64748B"/>
<g filter="url(#filter9_ii_23_41004)">
<path d="M163 111V102C163 97.5817 159.418 94 155 94C150.582 94 147 97.5817 147 102V111" stroke="#64748B" stroke-width="4" stroke-linecap="round"/>
</g>
<g filter="url(#filter10_ii_23_41004)">
<path d="M150.199 58.2C150.199 60.851 152.348 63 154.999 63C157.65 63 159.799 60.851 159.799 58.2V49C159.799 47.3431 158.456 46 156.799 46H153.199C151.542 46 150.199 47.3431 150.199 49V58.2Z" stroke="#64748B" stroke-width="4"/>
</g>
<g filter="url(#filter11_ii_23_41004)">
<path d="M150.199 74.8C150.199 72.149 152.348 70 154.999 70C157.65 70 159.799 72.149 159.799 74.8V82.2C159.799 84.851 157.65 87 154.999 87C152.348 87 150.199 84.851 150.199 82.2V74.8Z" stroke="#64748B" stroke-width="4"/>
</g>
<g filter="url(#filter12_ii_23_41004)">
<path d="M155 82V98" stroke="#64748B" stroke-width="4" stroke-linecap="round"/>
</g>
<g filter="url(#filter13_ii_23_41004)">
<path d="M155 58V74" stroke="#64748B" stroke-width="4" stroke-linecap="round"/>
</g>
<g filter="url(#filter14_i_23_41004)">
<path d="M139 31H171V47C171 48.1046 170.105 49 169 49H141C139.895 49 139 48.1046 139 47V31Z" fill="#57534E"/>
</g>
<g filter="url(#filter15_iii_23_41004)">
<path d="M139 31H171V16C171 14.8954 170.105 14 169 14H141C139.895 14 139 14.8954 139 16V31Z" fill="#78716C"/>
</g>
<g filter="url(#filter16_ii_23_41004)">
<rect x="14" width="32" height="380" rx="4" fill="#854D0E"/>
</g>
<mask id="mask0_23_41004" style="mask-type:alpha" maskUnits="userSpaceOnUse" x="14" y="32" width="32" height="348">
<rect x="14" y="32" width="32" height="348" rx="4" fill="#854D0E"/>
</mask>
<g mask="url(#mask0_23_41004)">
<path opacity="0.15" d="M40 26.5956C40 31.6948 39.303 37.1476 37.8065 37.1476C36.3099 37.1476 36 33.0138 36 27.9146C36 22.8154 36.3099 18.6816 37.8065 18.6816C39.303 18.6816 40 21.4964 40 26.5956Z" fill="white"/>
<path opacity="0.2" d="M31 117.505C31 122.604 30.1287 128.057 28.2581 128.057C26.3874 128.057 26 123.923 26 118.824C26 113.725 26.3874 109.591 28.2581 109.591C30.1287 109.591 31 112.406 31 117.505Z" fill="#1C1917"/>
<path opacity="0.2" d="M31 60.4839C31 63.6219 30.1287 66.9774 28.2581 66.9774C26.3874 66.9774 26 64.4336 26 61.2956C26 58.1576 26.3874 55.6138 28.2581 55.6138C30.1287 55.6138 31 57.3459 31 60.4839Z" fill="#1C1917"/>
<path opacity="0.2" d="M33 264.032C33 269.091 32.303 274.5 30.8065 274.5C29.3099 274.5 29 270.399 29 265.341C29 260.282 29.3099 256.182 30.8065 256.182C32.303 256.182 33 258.974 33 264.032Z" fill="white"/>
<path opacity="0.2" d="M38 310.532C38 315.591 37.1287 321 35.2581 321C33.3874 321 33 316.899 33 311.841C33 306.782 33.3874 302.682 35.2581 302.682C37.1287 302.682 38 305.474 38 310.532Z" fill="#1C1917"/>
<path opacity="0.2" d="M31 235.65C31 238.762 30.1287 242.091 28.2581 242.091C26.3874 242.091 26 239.568 26 236.455C26 233.342 26.3874 230.818 28.2581 230.818C30.1287 230.818 31 232.537 31 235.65Z" fill="#1C1917"/>
<path opacity="0.2" d="M31 345.558C31 348.671 30.1287 352 28.2581 352C26.3874 352 26 349.476 26 346.363C26 343.251 26.3874 340.727 28.2581 340.727C30.1287 340.727 31 342.445 31 345.558Z" fill="white"/>
<path opacity="0.15" d="M23 137.365C23 140.877 23.697 144.633 25.1935 144.633C26.6901 144.633 27 141.786 27 138.273C27 134.761 26.6901 131.914 25.1935 131.914C23.697 131.914 23 133.852 23 137.365Z" fill="white"/>
<path opacity="0.2" d="M32 199.986C32 203.499 32.8713 207.254 34.7419 207.254C36.6126 207.254 37 204.407 37 200.895C37 197.382 36.6126 194.535 34.7419 194.535C32.8713 194.535 32 196.474 32 199.986Z" fill="#1C1917"/>
<path opacity="0.2" d="M32 160.708C32 162.87 32.8713 165.181 34.7419 165.181C36.6126 165.181 37 163.429 37 161.267C37 159.106 36.6126 157.354 34.7419 157.354C32.8713 157.354 32 158.547 32 160.708Z" fill="#1C1917"/>
</g>
<g filter="url(#filter17_ii_23_41004)">
<rect x="14" width="32" height="32" rx="4" fill="#A16207"/>
</g>
<defs>
<filter id="filter0_dii_23_41004" x="8" y="343" width="46" height="138" filterUnits="userSpaceOnUse" color-interpolation-filters="sRGB">
<feFlood flood-opacity="0" result="BackgroundImageFix"/>
<feColorMatrix in="SourceAlpha" type="matrix" values="0 0 0 0 0 0 0 0 0 0 0 0 0 0 0 0 0 0 127 0" result="hardAlpha"/>
<feOffset dy="1"/>
<feComposite in2="hardAlpha" operator="out"/>
<feColorMatrix type="matrix" values="0 0 0 0 0 0 0 0 0 0 0 0 0 0 0 0 0 0 0.25 0"/>
<feBlend mode="normal" in2="BackgroundImageFix" result="effect1_dropShadow_23_41004"/>
<feBlend mode="normal" in="SourceGraphic" in2="effect1_dropShadow_23_41004" result="shape"/>
<feColorMatrix in="SourceAlpha" type="matrix" values="0 0 0 0 0 0 0 0 0 0 0 0 0 0 0 0 0 0 127 0" result="hardAlpha"/>
<feOffset dx="-1" dy="1"/>
<feComposite in2="hardAlpha" operator="arithmetic" k2="-1" k3="1"/>
<feColorMatrix type="matrix" values="0 0 0 0 1 0 0 0 0 1 0 0 0 0 1 0 0 0 0.15 0"/>
<feBlend mode="normal" in2="shape" result="effect2_innerShadow_23_41004"/>
<feColorMatrix in="SourceAlpha" type="matrix" values="0 0 0 0 0 0 0 0 0 0 0 0 0 0 0 0 0 0 127 0" result="hardAlpha"/>
<feOffset dx="2" dy="2"/>
<feGaussianBlur stdDeviation="3"/>
<feComposite in2="hardAlpha" operator="arithmetic" k2="-1" k3="1"/>
<feColorMatrix type="matrix" values="0 0 0 0 0 0 0 0 0 0 0 0 0 0 0 0 0 0 0.1 0"/>
<feBlend mode="normal" in2="effect2_innerShadow_23_41004" result="effect3_innerShadow_23_41004"/>
</filter>
<filter id="filter1_ii_23_41004" x="8" y="343" width="44" height="44" filterUnits="userSpaceOnUse" color-interpolation-filters="sRGB">
<feFlood flood-opacity="0" result="BackgroundImageFix"/>
<feBlend mode="normal" in="SourceGraphic" in2="BackgroundImageFix" result="shape"/>
<feColorMatrix in="SourceAlpha" type="matrix" values="0 0 0 0 0 0 0 0 0 0 0 0 0 0 0 0 0 0 127 0" result="hardAlpha"/>
<feOffset dx="-1" dy="-1"/>
<feComposite in2="hardAlpha" operator="arithmetic" k2="-1" k3="1"/>
<feColorMatrix type="matrix" values="0 0 0 0 1 0 0 0 0 1 0 0 0 0 1 0 0 0 0.15 0"/>
<feBlend mode="normal" in2="shape" result="effect1_innerShadow_23_41004"/>
<feColorMatrix in="SourceAlpha" type="matrix" values="0 0 0 0 0 0 0 0 0 0 0 0 0 0 0 0 0 0 127 0" result="hardAlpha"/>
<feOffset dx="1"/>
<feComposite in2="hardAlpha" operator="arithmetic" k2="-1" k3="1"/>
<feColorMatrix type="matrix" values="0 0 0 0 0 0 0 0 0 0 0 0 0 0 0 0 0 0 0.15 0"/>
<feBlend mode="normal" in2="effect1_innerShadow_23_41004" result="effect2_innerShadow_23_41004"/>
</filter>
<filter id="filter2_iii_23_41004" x="16.207" y="25.25" width="127.785" height="127.713" filterUnits="userSpaceOnUse" color-interpolation-filters="sRGB">
<feFlood flood-opacity="0" result="BackgroundImageFix"/>
<feBlend mode="normal" in="SourceGraphic" in2="BackgroundImageFix" result="shape"/>
<feColorMatrix in="SourceAlpha" type="matrix" values="0 0 0 0 0 0 0 0 0 0 0 0 0 0 0 0 0 0 127 0" result="hardAlpha"/>
<feOffset dx="29" dy="-30"/>
<feComposite in2="hardAlpha" operator="arithmetic" k2="-1" k3="1"/>
<feColorMatrix type="matrix" values="0 0 0 0 0 0 0 0 0 0 0 0 0 0 0 0 0 0 0.25 0"/>
<feBlend mode="normal" in2="shape" result="effect1_innerShadow_23_41004"/>
<feColorMatrix in="SourceAlpha" type="matrix" values="0 0 0 0 0 0 0 0 0 0 0 0 0 0 0 0 0 0 127 0" result="hardAlpha"/>
<feOffset dx="-12" dy="12"/>
<feComposite in2="hardAlpha" operator="arithmetic" k2="-1" k3="1"/>
<feColorMatrix type="matrix" values="0 0 0 0 0 0 0 0 0 0 0 0 0 0 0 0 0 0 0.25 0"/>
<feBlend mode="normal" in2="effect1_innerShadow_23_41004" result="effect2_innerShadow_23_41004"/>
<feColorMatrix in="SourceAlpha" type="matrix" values="0 0 0 0 0 0 0 0 0 0 0 0 0 0 0 0 0 0 127 0" result="hardAlpha"/>
<feOffset dx="32" dy="-32"/>
<feGaussianBlur stdDeviation="6"/>
<feComposite in2="hardAlpha" operator="arithmetic" k2="-1" k3="1"/>
<feColorMatrix type="matrix" values="0 0 0 0 0 0 0 0 0 0 0 0 0 0 0 0 0 0 0.25 0"/>
<feBlend mode="normal" in2="effect2_innerShadow_23_41004" result="effect3_innerShadow_23_41004"/>
</filter>
<filter id="filter3_i_23_41004" x="22" y="18" width="168" height="28" filterUnits="userSpaceOnUse" color-interpolation-filters="sRGB">
<feFlood flood-opacity="0" result="BackgroundImageFix"/>
<feBlend mode="normal" in="SourceGraphic" in2="BackgroundImageFix" result="shape"/>
<feColorMatrix in="SourceAlpha" type="matrix" values="0 0 0 0 0 0 0 0 0 0 0 0 0 0 0 0 0 0 127 0" result="hardAlpha"/>
<feOffset dx="23"/>
<feComposite in2="hardAlpha" operator="arithmetic" k2="-1" k3="1"/>
<feColorMatrix type="matrix" values="0 0 0 0 0 0 0 0 0 0 0 0 0 0 0 0 0 0 0.25 0"/>
<feBlend mode="normal" in2="shape" result="effect1_innerShadow_23_41004"/>
</filter>
<filter id="filter4_ii_23_41004" x="22" y="32" width="168" height="14" filterUnits="userSpaceOnUse" color-interpolation-filters="sRGB">
<feFlood flood-opacity="0" result="BackgroundImageFix"/>
<feBlend mode="normal" in="SourceGraphic" in2="BackgroundImageFix" result="shape"/>
<feColorMatrix in="SourceAlpha" type="matrix" values="0 0 0 0 0 0 0 0 0 0 0 0 0 0 0 0 0 0 127 0" result="hardAlpha"/>
<feOffset dy="1.13504"/>
<feComposite in2="hardAlpha" operator="arithmetic" k2="-1" k3="1"/>
<feColorMatrix type="matrix" values="0 0 0 0 1 0 0 0 0 1 0 0 0 0 1 0 0 0 0.25 0"/>
<feBlend mode="normal" in2="shape" result="effect1_innerShadow_23_41004"/>
<feColorMatrix in="SourceAlpha" type="matrix" values="0 0 0 0 0 0 0 0 0 0 0 0 0 0 0 0 0 0 127 0" result="hardAlpha"/>
<feOffset dx="23"/>
<feComposite in2="hardAlpha" operator="arithmetic" k2="-1" k3="1"/>
<feColorMatrix type="matrix" values="0 0 0 0 0 0 0 0 0 0 0 0 0 0 0 0 0 0 0.25 0"/>
<feBlend mode="normal" in2="effect1_innerShadow_23_41004" result="effect2_innerShadow_23_41004"/>
</filter>
<filter id="filter5_ii_23_41004" x="130.5" y="177" width="49" height="35" filterUnits="userSpaceOnUse" color-interpolation-filters="sRGB">
<feFlood flood-opacity="0" result="BackgroundImageFix"/>
<feBlend mode="normal" in="SourceGraphic" in2="BackgroundImageFix" result="shape"/>
<feColorMatrix in="SourceAlpha" type="matrix" values="0 0 0 0 0 0 0 0 0 0 0 0 0 0 0 0 0 0 127 0" result="hardAlpha"/>
<feOffset dx="-5" dy="5"/>
<feGaussianBlur stdDeviation="2.5"/>
<feComposite in2="hardAlpha" operator="arithmetic" k2="-1" k3="1"/>
<feColorMatrix type="matrix" values="0 0 0 0 1 0 0 0 0 1 0 0 0 0 1 0 0 0 0.14 0"/>
<feBlend mode="normal" in2="shape" result="effect1_innerShadow_23_41004"/>
<feColorMatrix in="SourceAlpha" type="matrix" values="0 0 0 0 0 0 0 0 0 0 0 0 0 0 0 0 0 0 127 0" result="hardAlpha"/>
<feOffset dx="5"/>
<feGaussianBlur stdDeviation="2.5"/>
<feComposite in2="hardAlpha" operator="arithmetic" k2="-1" k3="1"/>
<feColorMatrix type="matrix" values="0 0 0 0 0 0 0 0 0 0 0 0 0 0 0 0 0 0 0.14 0"/>
<feBlend mode="normal" in2="effect1_innerShadow_23_41004" result="effect2_innerShadow_23_41004"/>
</filter>
<filter id="filter6_i_23_41004" x="134" y="144" width="42" height="57" filterUnits="userSpaceOnUse" color-interpolation-filters="sRGB">
<feFlood flood-opacity="0" result="BackgroundImageFix"/>
<feBlend mode="normal" in="SourceGraphic" in2="BackgroundImageFix" result="shape"/>
<feColorMatrix in="SourceAlpha" type="matrix" values="0 0 0 0 0 0 0 0 0 0 0 0 0 0 0 0 0 0 127 0" result="hardAlpha"/>
<feOffset/>
<feGaussianBlur stdDeviation="4"/>
<feComposite in2="hardAlpha" operator="arithmetic" k2="-1" k3="1"/>
<feColorMatrix type="matrix" values="0 0 0 0 1 0 0 0 0 1 0 0 0 0 1 0 0 0 1 0"/>
<feBlend mode="normal" in2="shape" result="effect1_innerShadow_23_41004"/>
</filter>
<filter id="filter7_ii_23_41004" x="126" y="108" width="58" height="47" filterUnits="userSpaceOnUse" color-interpolation-filters="sRGB">
<feFlood flood-opacity="0" result="BackgroundImageFix"/>
<feBlend mode="normal" in="SourceGraphic" in2="BackgroundImageFix" result="shape"/>
<feColorMatrix in="SourceAlpha" type="matrix" values="0 0 0 0 0 0 0 0 0 0 0 0 0 0 0 0 0 0 127 0" result="hardAlpha"/>
<feOffset dx="-5" dy="5"/>
<feGaussianBlur stdDeviation="2.5"/>
<feComposite in2="hardAlpha" operator="arithmetic" k2="-1" k3="1"/>
<feColorMatrix type="matrix" values="0 0 0 0 1 0 0 0 0 1 0 0 0 0 1 0 0 0 0.14 0"/>
<feBlend mode="normal" in2="shape" result="effect1_innerShadow_23_41004"/>
<feColorMatrix in="SourceAlpha" type="matrix" values="0 0 0 0 0 0 0 0 0 0 0 0 0 0 0 0 0 0 127 0" result="hardAlpha"/>
<feOffset dx="5"/>
<feGaussianBlur stdDeviation="2.5"/>
<feComposite in2="hardAlpha" operator="arithmetic" k2="-1" k3="1"/>
<feColorMatrix type="matrix" values="0 0 0 0 0 0 0 0 0 0 0 0 0 0 0 0 0 0 0.14 0"/>
<feBlend mode="normal" in2="effect1_innerShadow_23_41004" result="effect2_innerShadow_23_41004"/>
</filter>
<filter id="filter8_ii_23_41004" x="132" y="108" width="46" height="35" filterUnits="userSpaceOnUse" color-interpolation-filters="sRGB">
<feFlood flood-opacity="0" result="BackgroundImageFix"/>
<feBlend mode="normal" in="SourceGraphic" in2="BackgroundImageFix" result="shape"/>
<feColorMatrix in="SourceAlpha" type="matrix" values="0 0 0 0 0 0 0 0 0 0 0 0 0 0 0 0 0 0 127 0" result="hardAlpha"/>
<feOffset dx="-5" dy="5"/>
<feGaussianBlur stdDeviation="2.5"/>
<feComposite in2="hardAlpha" operator="arithmetic" k2="-1" k3="1"/>
<feColorMatrix type="matrix" values="0 0 0 0 1 0 0 0 0 1 0 0 0 0 1 0 0 0 0.14 0"/>
<feBlend mode="normal" in2="shape" result="effect1_innerShadow_23_41004"/>
<feColorMatrix in="SourceAlpha" type="matrix" values="0 0 0 0 0 0 0 0 0 0 0 0 0 0 0 0 0 0 127 0" result="hardAlpha"/>
<feOffset dx="5"/>
<feGaussianBlur stdDeviation="2.5"/>
<feComposite in2="hardAlpha" operator="arithmetic" k2="-1" k3="1"/>
<feColorMatrix type="matrix" values="0 0 0 0 0 0 0 0 0 0 0 0 0 0 0 0 0 0 0.14 0"/>
<feBlend mode="normal" in2="effect1_innerShadow_23_41004" result="effect2_innerShadow_23_41004"/>
</filter>
<filter id="filter9_ii_23_41004" x="145" y="91" width="21" height="24" filterUnits="userSpaceOnUse" color-interpolation-filters="sRGB">
<feFlood flood-opacity="0" result="BackgroundImageFix"/>
<feBlend mode="normal" in="SourceGraphic" in2="BackgroundImageFix" result="shape"/>
<feColorMatrix in="SourceAlpha" type="matrix" values="0 0 0 0 0 0 0 0 0 0 0 0 0 0 0 0 0 0 127 0" result="hardAlpha"/>
<feOffset dy="3"/>
<feGaussianBlur stdDeviation="1"/>
<feComposite in2="hardAlpha" operator="arithmetic" k2="-1" k3="1"/>
<feColorMatrix type="matrix" values="0 0 0 0 1 0 0 0 0 1 0 0 0 0 1 0 0 0 0.25 0"/>
<feBlend mode="normal" in2="shape" result="effect1_innerShadow_23_41004"/>
<feColorMatrix in="SourceAlpha" type="matrix" values="0 0 0 0 0 0 0 0 0 0 0 0 0 0 0 0 0 0 127 0" result="hardAlpha"/>
<feOffset dx="1" dy="-1"/>
<feGaussianBlur stdDeviation="0.5"/>
<feComposite in2="hardAlpha" operator="arithmetic" k2="-1" k3="1"/>
<feColorMatrix type="matrix" values="0 0 0 0 0 0 0 0 0 0 0 0 0 0 0 0 0 0 0.25 0"/>
<feBlend mode="normal" in2="effect1_innerShadow_23_41004" result="effect2_innerShadow_23_41004"/>
</filter>
<filter id="filter10_ii_23_41004" x="148.199" y="43" width="13.6016" height="23" filterUnits="userSpaceOnUse" color-interpolation-filters="sRGB">
<feFlood flood-opacity="0" result="BackgroundImageFix"/>
<feBlend mode="normal" in="SourceGraphic" in2="BackgroundImageFix" result="shape"/>
<feColorMatrix in="SourceAlpha" type="matrix" values="0 0 0 0 0 0 0 0 0 0 0 0 0 0 0 0 0 0 127 0" result="hardAlpha"/>
<feOffset dy="1"/>
<feGaussianBlur stdDeviation="1"/>
<feComposite in2="hardAlpha" operator="arithmetic" k2="-1" k3="1"/>
<feColorMatrix type="matrix" values="0 0 0 0 1 0 0 0 0 1 0 0 0 0 1 0 0 0 0.25 0"/>
<feBlend mode="normal" in2="shape" result="effect1_innerShadow_23_41004"/>
<feColorMatrix in="SourceAlpha" type="matrix" values="0 0 0 0 0 0 0 0 0 0 0 0 0 0 0 0 0 0 127 0" result="hardAlpha"/>
<feOffset dy="-2"/>
<feGaussianBlur stdDeviation="0.5"/>
<feComposite in2="hardAlpha" operator="arithmetic" k2="-1" k3="1"/>
<feColorMatrix type="matrix" values="0 0 0 0 0 0 0 0 0 0 0 0 0 0 0 0 0 0 0.25 0"/>
<feBlend mode="normal" in2="effect1_innerShadow_23_41004" result="effect2_innerShadow_23_41004"/>
</filter>
<filter id="filter11_ii_23_41004" x="148.199" y="67" width="13.6016" height="24" filterUnits="userSpaceOnUse" color-interpolation-filters="sRGB">
<feFlood flood-opacity="0" result="BackgroundImageFix"/>
<feBlend mode="normal" in="SourceGraphic" in2="BackgroundImageFix" result="shape"/>
<feColorMatrix in="SourceAlpha" type="matrix" values="0 0 0 0 0 0 0 0 0 0 0 0 0 0 0 0 0 0 127 0" result="hardAlpha"/>
<feOffset dy="3"/>
<feGaussianBlur stdDeviation="1"/>
<feComposite in2="hardAlpha" operator="arithmetic" k2="-1" k3="1"/>
<feColorMatrix type="matrix" values="0 0 0 0 1 0 0 0 0 1 0 0 0 0 1 0 0 0 0.25 0"/>
<feBlend mode="normal" in2="shape" result="effect1_innerShadow_23_41004"/>
<feColorMatrix in="SourceAlpha" type="matrix" values="0 0 0 0 0 0 0 0 0 0 0 0 0 0 0 0 0 0 127 0" result="hardAlpha"/>
<feOffset dy="-2"/>
<feGaussianBlur stdDeviation="0.5"/>
<feComposite in2="hardAlpha" operator="arithmetic" k2="-1" k3="1"/>
<feColorMatrix type="matrix" values="0 0 0 0 0 0 0 0 0 0 0 0 0 0 0 0 0 0 0.25 0"/>
<feBlend mode="normal" in2="effect1_innerShadow_23_41004" result="effect2_innerShadow_23_41004"/>
</filter>
<filter id="filter12_ii_23_41004" x="153" y="79" width="4" height="24" filterUnits="userSpaceOnUse" color-interpolation-filters="sRGB">
<feFlood flood-opacity="0" result="BackgroundImageFix"/>
<feBlend mode="normal" in="SourceGraphic" in2="BackgroundImageFix" result="shape"/>
<feColorMatrix in="SourceAlpha" type="matrix" values="0 0 0 0 0 0 0 0 0 0 0 0 0 0 0 0 0 0 127 0" result="hardAlpha"/>
<feOffset dy="3"/>
<feGaussianBlur stdDeviation="2"/>
<feComposite in2="hardAlpha" operator="arithmetic" k2="-1" k3="1"/>
<feColorMatrix type="matrix" values="0 0 0 0 1 0 0 0 0 1 0 0 0 0 1 0 0 0 0.25 0"/>
<feBlend mode="normal" in2="shape" result="effect1_innerShadow_23_41004"/>
<feColorMatrix in="SourceAlpha" type="matrix" values="0 0 0 0 0 0 0 0 0 0 0 0 0 0 0 0 0 0 127 0" result="hardAlpha"/>
<feOffset dy="-2"/>
<feGaussianBlur stdDeviation="0.5"/>
<feComposite in2="hardAlpha" operator="arithmetic" k2="-1" k3="1"/>
<feColorMatrix type="matrix" values="0 0 0 0 0 0 0 0 0 0 0 0 0 0 0 0 0 0 0.25 0"/>
<feBlend mode="normal" in2="effect1_innerShadow_23_41004" result="effect2_innerShadow_23_41004"/>
</filter>
<filter id="filter13_ii_23_41004" x="153" y="55" width="4" height="22" filterUnits="userSpaceOnUse" color-interpolation-filters="sRGB">
<feFlood flood-opacity="0" result="BackgroundImageFix"/>
<feBlend mode="normal" in="SourceGraphic" in2="BackgroundImageFix" result="shape"/>
<feColorMatrix in="SourceAlpha" type="matrix" values="0 0 0 0 0 0 0 0 0 0 0 0 0 0 0 0 0 0 127 0" result="hardAlpha"/>
<feOffset dy="3"/>
<feGaussianBlur stdDeviation="0.5"/>
<feComposite in2="hardAlpha" operator="arithmetic" k2="-1" k3="1"/>
<feColorMatrix type="matrix" values="0 0 0 0 1 0 0 0 0 1 0 0 0 0 1 0 0 0 0.25 0"/>
<feBlend mode="normal" in2="shape" result="effect1_innerShadow_23_41004"/>
<feColorMatrix in="SourceAlpha" type="matrix" values="0 0 0 0 0 0 0 0 0 0 0 0 0 0 0 0 0 0 127 0" result="hardAlpha"/>
<feOffset dy="-2"/>
<feGaussianBlur stdDeviation="0.5"/>
<feComposite in2="hardAlpha" operator="arithmetic" k2="-1" k3="1"/>
<feColorMatrix type="matrix" values="0 0 0 0 0 0 0 0 0 0 0 0 0 0 0 0 0 0 0.25 0"/>
<feBlend mode="normal" in2="effect1_innerShadow_23_41004" result="effect2_innerShadow_23_41004"/>
</filter>
<filter id="filter14_i_23_41004" x="139" y="27" width="33" height="22" filterUnits="userSpaceOnUse" color-interpolation-filters="sRGB">
<feFlood flood-opacity="0" result="BackgroundImageFix"/>
<feBlend mode="normal" in="SourceGraphic" in2="BackgroundImageFix" result="shape"/>
<feColorMatrix in="SourceAlpha" type="matrix" values="0 0 0 0 0 0 0 0 0 0 0 0 0 0 0 0 0 0 127 0" result="hardAlpha"/>
<feOffset dx="1" dy="-4"/>
<feGaussianBlur stdDeviation="6"/>
<feComposite in2="hardAlpha" operator="arithmetic" k2="-1" k3="1"/>
<feColorMatrix type="matrix" values="0 0 0 0 0 0 0 0 0 0 0 0 0 0 0 0 0 0 0.25 0"/>
<feBlend mode="normal" in2="shape" result="effect1_innerShadow_23_41004"/>
</filter>
<filter id="filter15_iii_23_41004" x="139" y="14" width="32" height="17" filterUnits="userSpaceOnUse" color-interpolation-filters="sRGB">
<feFlood flood-opacity="0" result="BackgroundImageFix"/>
<feBlend mode="normal" in="SourceGraphic" in2="BackgroundImageFix" result="shape"/>
<feColorMatrix in="SourceAlpha" type="matrix" values="0 0 0 0 0 0 0 0 0 0 0 0 0 0 0 0 0 0 127 0" result="hardAlpha"/>
<feOffset/>
<feGaussianBlur stdDeviation="2"/>
<feComposite in2="hardAlpha" operator="arithmetic" k2="-1" k3="1"/>
<feColorMatrix type="matrix" values="0 0 0 0 0 0 0 0 0 0 0 0 0 0 0 0 0 0 0.25 0"/>
<feBlend mode="normal" in2="shape" result="effect1_innerShadow_23_41004"/>
<feColorMatrix in="SourceAlpha" type="matrix" values="0 0 0 0 0 0 0 0 0 0 0 0 0 0 0 0 0 0 127 0" result="hardAlpha"/>
<feOffset dy="1"/>
<feComposite in2="hardAlpha" operator="arithmetic" k2="-1" k3="1"/>
<feColorMatrix type="matrix" values="0 0 0 0 1 0 0 0 0 1 0 0 0 0 1 0 0 0 0.25 0"/>
<feBlend mode="normal" in2="effect1_innerShadow_23_41004" result="effect2_innerShadow_23_41004"/>
<feColorMatrix in="SourceAlpha" type="matrix" values="0 0 0 0 0 0 0 0 0 0 0 0 0 0 0 0 0 0 127 0" result="hardAlpha"/>
<feOffset dy="-2"/>
<feComposite in2="hardAlpha" operator="arithmetic" k2="-1" k3="1"/>
<feColorMatrix type="matrix" values="0 0 0 0 1 0 0 0 0 1 0 0 0 0 1 0 0 0 0.15 0"/>
<feBlend mode="normal" in2="effect2_innerShadow_23_41004" result="effect3_innerShadow_23_41004"/>
</filter>
<filter id="filter16_ii_23_41004" x="14" y="0" width="32" height="380" filterUnits="userSpaceOnUse" color-interpolation-filters="sRGB">
<feFlood flood-opacity="0" result="BackgroundImageFix"/>
<feBlend mode="normal" in="SourceGraphic" in2="BackgroundImageFix" result="shape"/>
<feColorMatrix in="SourceAlpha" type="matrix" values="0 0 0 0 0 0 0 0 0 0 0 0 0 0 0 0 0 0 127 0" result="hardAlpha"/>
<feOffset dx="-1" dy="1"/>
<feComposite in2="hardAlpha" operator="arithmetic" k2="-1" k3="1"/>
<feColorMatrix type="matrix" values="0 0 0 0 1 0 0 0 0 1 0 0 0 0 1 0 0 0 0.15 0"/>
<feBlend mode="normal" in2="shape" result="effect1_innerShadow_23_41004"/>
<feColorMatrix in="SourceAlpha" type="matrix" values="0 0 0 0 0 0 0 0 0 0 0 0 0 0 0 0 0 0 127 0" result="hardAlpha"/>
<feOffset dx="2" dy="2"/>
<feComposite in2="hardAlpha" operator="arithmetic" k2="-1" k3="1"/>
<feColorMatrix type="matrix" values="0 0 0 0 0 0 0 0 0 0 0 0 0 0 0 0 0 0 0.15 0"/>
<feBlend mode="normal" in2="effect1_innerShadow_23_41004" result="effect2_innerShadow_23_41004"/>
</filter>
<filter id="filter17_ii_23_41004" x="14" y="0" width="32" height="32" filterUnits="userSpaceOnUse" color-interpolation-filters="sRGB">
<feFlood flood-opacity="0" result="BackgroundImageFix"/>
<feBlend mode="normal" in="SourceGraphic" in2="BackgroundImageFix" result="shape"/>
<feColorMatrix in="SourceAlpha" type="matrix" values="0 0 0 0 0 0 0 0 0 0 0 0 0 0 0 0 0 0 127 0" result="hardAlpha"/>
<feOffset dx="-1" dy="-1"/>
<feComposite in2="hardAlpha" operator="arithmetic" k2="-1" k3="1"/>
<feColorMatrix type="matrix" values="0 0 0 0 1 0 0 0 0 1 0 0 0 0 1 0 0 0 0.15 0"/>
<feBlend mode="normal" in2="shape" result="effect1_innerShadow_23_41004"/>
<feColorMatrix in="SourceAlpha" type="matrix" values="0 0 0 0 0 0 0 0 0 0 0 0 0 0 0 0 0 0 127 0" result="hardAlpha"/>
<feOffset dx="2"/>
<feComposite in2="hardAlpha" operator="arithmetic" k2="-1" k3="1"/>
<feColorMatrix type="matrix" values="0 0 0 0 0 0 0 0 0 0 0 0 0 0 0 0 0 0 0.15 0"/>
<feBlend mode="normal" in2="effect1_innerShadow_23_41004" result="effect2_innerShadow_23_41004"/>
</filter>
<linearGradient id="paint0_linear_23_41004" x1="168" y1="163" x2="264.5" y2="163" gradientUnits="userSpaceOnUse">
<stop stop-color="#FEFCE8" stop-opacity="0.7"/>
<stop offset="0.723958" stop-color="#FEFCE8" stop-opacity="0"/>
</linearGradient>
<linearGradient id="paint1_linear_23_41004" x1="142" y1="163" x2="45.5" y2="163" gradientUnits="userSpaceOnUse">
<stop stop-color="#FEFCE8" stop-opacity="0.7"/>
<stop offset="0.723958" stop-color="#FEFCE8" stop-opacity="0"/>
</linearGradient>
</defs>
</svg>
