<svg width="184" height="541" viewBox="0 0 184 541" fill="none" xmlns="http://www.w3.org/2000/svg">
<rect width="60" height="60" rx="8" transform="matrix(-1 0 0 1 184 481)" fill="black" fill-opacity="0.12"/>
<rect width="48" height="48" rx="4" transform="matrix(-1 0 0 1 178 487)" fill="black" fill-opacity="0.2"/>
<g filter="url(#filter0_dii_23_41177)">
<rect width="44" height="136" rx="4" transform="matrix(-1 0 0 1 176 396)" fill="#854D0E"/>
</g>
<g filter="url(#filter1_ii_23_41177)">
<rect width="44" height="44" rx="4" transform="matrix(-1 0 0 1 176 396)" fill="#A16207"/>
</g>
<path opacity="0.2" d="M150 470.078C150 473.994 150.871 478.182 152.742 478.182C154.613 478.182 155 475.007 155 471.091C155 467.175 154.613 464 152.742 464C150.871 464 150 466.162 150 470.078Z" fill="#1C1917"/>
<path opacity="0.2" d="M157 497.195C157 499.605 157.871 502.182 159.742 502.182C161.613 502.182 162 500.228 162 497.818C162 495.408 161.613 493.455 159.742 493.455C157.871 493.455 157 494.785 157 497.195Z" fill="white"/>
<g filter="url(#filter2_ii_23_41177)">
<path d="M21 58L137 58" stroke="#78716C" stroke-width="8" stroke-linecap="round"/>
</g>
<g filter="url(#filter3_ii_23_41177)">
<circle cx="8" cy="8" r="8" transform="matrix(-1 0 0 1 16 50)" fill="#78716C"/>
</g>
<rect width="1" height="8" transform="matrix(-1 0 0 1 22 54)" fill="black" fill-opacity="0.12"/>
<path d="M172 47L136 47V20C136 18.8954 136.895 18 138 18L170 18C171.105 18 172 18.8954 172 20V47Z" fill="#78716C"/>
<g filter="url(#filter4_ii_23_41177)">
<rect width="32" height="433" rx="4" transform="matrix(-1 0 0 1 170 0)" fill="#854D0E"/>
</g>
<mask id="mask0_23_41177" style="mask-type:alpha" maskUnits="userSpaceOnUse" x="138" y="32" width="32" height="401">
<rect width="32" height="401" rx="4" transform="matrix(-1 0 0 1 170 32)" fill="#854D0E"/>
</mask>
<g mask="url(#mask0_23_41177)">
<path opacity="0.15" d="M144 79.5958C144 84.695 144.697 90.1477 146.194 90.1477C147.69 90.1477 148 86.014 148 80.9148C148 75.8156 147.69 71.6818 146.194 71.6818C144.697 71.6818 144 74.4966 144 79.5958Z" fill="white"/>
<path opacity="0.2" d="M153 170.505C153 175.604 153.871 181.057 155.742 181.057C157.613 181.057 158 176.923 158 171.824C158 166.725 157.613 162.591 155.742 162.591C153.871 162.591 153 165.406 153 170.505Z" fill="#1C1917"/>
<path opacity="0.2" d="M153 113.484C153 116.622 153.871 119.977 155.742 119.977C157.613 119.977 158 117.433 158 114.295C158 111.157 157.613 108.614 155.742 108.614C153.871 108.614 153 110.346 153 113.484Z" fill="#1C1917"/>
<path opacity="0.2" d="M151 317.032C151 322.091 151.697 327.5 153.194 327.5C154.69 327.5 155 323.399 155 318.341C155 313.282 154.69 309.182 153.194 309.182C151.697 309.182 151 311.974 151 317.032Z" fill="white"/>
<path opacity="0.2" d="M146 363.532C146 368.591 146.871 374 148.742 374C150.613 374 151 369.899 151 364.841C151 359.782 150.613 355.682 148.742 355.682C146.871 355.682 146 358.474 146 363.532Z" fill="#1C1917"/>
<path opacity="0.2" d="M153 288.649C153 291.762 153.871 295.091 155.742 295.091C157.613 295.091 158 292.567 158 289.455C158 286.342 157.613 283.818 155.742 283.818C153.871 283.818 153 285.537 153 288.649Z" fill="#1C1917"/>
<path opacity="0.2" d="M153 398.558C153 401.671 153.871 405 155.742 405C157.613 405 158 402.477 158 399.364C158 396.251 157.613 393.727 155.742 393.727C153.871 393.727 153 395.446 153 398.558Z" fill="white"/>
<path opacity="0.15" d="M161 190.365C161 193.878 160.303 197.634 158.806 197.634C157.31 197.634 157 194.786 157 191.274C157 187.761 157.31 184.914 158.806 184.914C160.303 184.914 161 186.853 161 190.365Z" fill="white"/>
<path opacity="0.2" d="M152 252.986C152 256.498 151.129 260.254 149.258 260.254C147.387 260.254 147 257.407 147 253.894C147 250.382 147.387 247.534 149.258 247.534C151.129 247.534 152 249.473 152 252.986Z" fill="#1C1917"/>
<path opacity="0.2" d="M152 213.708C152 215.87 151.129 218.181 149.258 218.181C147.387 218.181 147 216.429 147 214.267C147 212.106 147.387 210.353 149.258 210.353C151.129 210.353 152 211.547 152 213.708Z" fill="#1C1917"/>
</g>
<g filter="url(#filter5_ii_23_41177)">
<rect width="32" height="32" rx="4" transform="matrix(-1 0 0 1 170 0)" fill="#A16207"/>
</g>
<rect width="4" height="8" transform="matrix(-1 0 0 1 138 54)" fill="black" fill-opacity="0.12"/>
<path d="M170 88H138V85H170V88Z" fill="black" fill-opacity="0.12"/>
<g filter="url(#filter6_i_23_41177)">
<path d="M172.004 84C172.004 85.1046 171.108 86 170.004 86H138.004C136.899 86 136.004 85.1046 136.004 84V46L172.004 46V84Z" fill="#57534E"/>
</g>
<path d="M170 47L138 47V45L170 45V47Z" fill="black" fill-opacity="0.12"/>
<path d="M172 46C172 47.1046 171.105 48 170 48L138 48C136.895 48 136 47.1046 136 46L172 46Z" fill="#78716C"/>
<g filter="url(#filter7_iii_23_41177)">
<path d="M29.9961 62H117.996L78.6498 162.154C76.9885 166.383 71.0037 166.383 69.3423 162.154L29.9961 62Z" fill="#1D4ED8"/>
</g>
<g filter="url(#filter8_ii_23_41177)">
<rect width="88" height="8" transform="matrix(-1 0 0 1 117.996 54)" fill="#1D4ED8"/>
</g>
<path d="M56.0902 102.732C56.0921 102.525 56.1169 102.305 56.1643 102.071C56.1786 102.003 56.1885 101.935 56.2047 101.867C56.2139 101.831 56.2153 101.8 56.2254 101.763C58.744 92.6858 66.8428 86.8534 73.9961 82C81.1494 86.8534 89.2481 92.6858 91.7667 101.763C91.7769 101.8 91.7783 101.831 91.7875 101.867C91.8037 101.935 91.8136 102.003 91.8279 102.071C91.8752 102.305 91.9001 102.525 91.902 102.732C91.9346 103.011 91.9961 103.283 91.9961 103.57C91.9961 108.031 87.9667 111.647 82.9961 111.647C80.2367 111.647 77.7781 110.525 76.1273 108.77C77.4404 111.533 79.5586 114.765 82.9961 118H64.9961C68.4336 114.765 70.5517 111.533 71.8649 108.77C70.2141 110.525 67.7554 111.647 64.9961 111.647C60.0255 111.647 55.9961 108.031 55.9961 103.57C55.9961 103.283 56.0576 103.011 56.0902 102.732Z" fill="#FACC15"/>
<g filter="url(#filter9_i_23_41177)">
<path fill-rule="evenodd" clip-rule="evenodd" d="M19 65C20.1046 65 21 64.1046 21 63V53C21 51.8954 20.1046 51 19 51H15C13.8954 51 13 51.8954 13 53L13 63C13 64.1046 13.8954 65 15 65H19Z" fill="#57534E"/>
</g>
<defs>
<filter id="filter0_dii_23_41177" x="132" y="396" width="46" height="138" filterUnits="userSpaceOnUse" color-interpolation-filters="sRGB">
<feFlood flood-opacity="0" result="BackgroundImageFix"/>
<feColorMatrix in="SourceAlpha" type="matrix" values="0 0 0 0 0 0 0 0 0 0 0 0 0 0 0 0 0 0 127 0" result="hardAlpha"/>
<feOffset dy="1"/>
<feComposite in2="hardAlpha" operator="out"/>
<feColorMatrix type="matrix" values="0 0 0 0 0 0 0 0 0 0 0 0 0 0 0 0 0 0 0.25 0"/>
<feBlend mode="normal" in2="BackgroundImageFix" result="effect1_dropShadow_23_41177"/>
<feBlend mode="normal" in="SourceGraphic" in2="effect1_dropShadow_23_41177" result="shape"/>
<feColorMatrix in="SourceAlpha" type="matrix" values="0 0 0 0 0 0 0 0 0 0 0 0 0 0 0 0 0 0 127 0" result="hardAlpha"/>
<feOffset dx="-1" dy="1"/>
<feComposite in2="hardAlpha" operator="arithmetic" k2="-1" k3="1"/>
<feColorMatrix type="matrix" values="0 0 0 0 1 0 0 0 0 1 0 0 0 0 1 0 0 0 0.15 0"/>
<feBlend mode="normal" in2="shape" result="effect2_innerShadow_23_41177"/>
<feColorMatrix in="SourceAlpha" type="matrix" values="0 0 0 0 0 0 0 0 0 0 0 0 0 0 0 0 0 0 127 0" result="hardAlpha"/>
<feOffset dx="2" dy="2"/>
<feGaussianBlur stdDeviation="3"/>
<feComposite in2="hardAlpha" operator="arithmetic" k2="-1" k3="1"/>
<feColorMatrix type="matrix" values="0 0 0 0 0 0 0 0 0 0 0 0 0 0 0 0 0 0 0.1 0"/>
<feBlend mode="normal" in2="effect2_innerShadow_23_41177" result="effect3_innerShadow_23_41177"/>
</filter>
<filter id="filter1_ii_23_41177" x="132" y="396" width="44" height="44" filterUnits="userSpaceOnUse" color-interpolation-filters="sRGB">
<feFlood flood-opacity="0" result="BackgroundImageFix"/>
<feBlend mode="normal" in="SourceGraphic" in2="BackgroundImageFix" result="shape"/>
<feColorMatrix in="SourceAlpha" type="matrix" values="0 0 0 0 0 0 0 0 0 0 0 0 0 0 0 0 0 0 127 0" result="hardAlpha"/>
<feOffset dx="-1" dy="-1"/>
<feComposite in2="hardAlpha" operator="arithmetic" k2="-1" k3="1"/>
<feColorMatrix type="matrix" values="0 0 0 0 1 0 0 0 0 1 0 0 0 0 1 0 0 0 0.15 0"/>
<feBlend mode="normal" in2="shape" result="effect1_innerShadow_23_41177"/>
<feColorMatrix in="SourceAlpha" type="matrix" values="0 0 0 0 0 0 0 0 0 0 0 0 0 0 0 0 0 0 127 0" result="hardAlpha"/>
<feOffset dx="1"/>
<feComposite in2="hardAlpha" operator="arithmetic" k2="-1" k3="1"/>
<feColorMatrix type="matrix" values="0 0 0 0 0 0 0 0 0 0 0 0 0 0 0 0 0 0 0.15 0"/>
<feBlend mode="normal" in2="effect1_innerShadow_23_41177" result="effect2_innerShadow_23_41177"/>
</filter>
<filter id="filter2_ii_23_41177" x="17" y="53" width="124" height="12" filterUnits="userSpaceOnUse" color-interpolation-filters="sRGB">
<feFlood flood-opacity="0" result="BackgroundImageFix"/>
<feBlend mode="normal" in="SourceGraphic" in2="BackgroundImageFix" result="shape"/>
<feColorMatrix in="SourceAlpha" type="matrix" values="0 0 0 0 0 0 0 0 0 0 0 0 0 0 0 0 0 0 127 0" result="hardAlpha"/>
<feOffset dy="3"/>
<feGaussianBlur stdDeviation="2"/>
<feComposite in2="hardAlpha" operator="arithmetic" k2="-1" k3="1"/>
<feColorMatrix type="matrix" values="0 0 0 0 1 0 0 0 0 1 0 0 0 0 1 0 0 0 0.25 0"/>
<feBlend mode="normal" in2="shape" result="effect1_innerShadow_23_41177"/>
<feColorMatrix in="SourceAlpha" type="matrix" values="0 0 0 0 0 0 0 0 0 0 0 0 0 0 0 0 0 0 127 0" result="hardAlpha"/>
<feOffset dy="-2"/>
<feGaussianBlur stdDeviation="0.5"/>
<feComposite in2="hardAlpha" operator="arithmetic" k2="-1" k3="1"/>
<feColorMatrix type="matrix" values="0 0 0 0 0 0 0 0 0 0 0 0 0 0 0 0 0 0 0.25 0"/>
<feBlend mode="normal" in2="effect1_innerShadow_23_41177" result="effect2_innerShadow_23_41177"/>
</filter>
<filter id="filter3_ii_23_41177" x="-3" y="45" width="22" height="23" filterUnits="userSpaceOnUse" color-interpolation-filters="sRGB">
<feFlood flood-opacity="0" result="BackgroundImageFix"/>
<feBlend mode="normal" in="SourceGraphic" in2="BackgroundImageFix" result="shape"/>
<feColorMatrix in="SourceAlpha" type="matrix" values="0 0 0 0 0 0 0 0 0 0 0 0 0 0 0 0 0 0 127 0" result="hardAlpha"/>
<feOffset dx="3" dy="-6"/>
<feGaussianBlur stdDeviation="2.5"/>
<feComposite in2="hardAlpha" operator="arithmetic" k2="-1" k3="1"/>
<feColorMatrix type="matrix" values="0 0 0 0 0 0 0 0 0 0 0 0 0 0 0 0 0 0 0.3 0"/>
<feBlend mode="normal" in2="shape" result="effect1_innerShadow_23_41177"/>
<feColorMatrix in="SourceAlpha" type="matrix" values="0 0 0 0 0 0 0 0 0 0 0 0 0 0 0 0 0 0 127 0" result="hardAlpha"/>
<feOffset dx="-3" dy="2"/>
<feGaussianBlur stdDeviation="2"/>
<feComposite in2="hardAlpha" operator="arithmetic" k2="-1" k3="1"/>
<feColorMatrix type="matrix" values="0 0 0 0 1 0 0 0 0 1 0 0 0 0 1 0 0 0 0.25 0"/>
<feBlend mode="normal" in2="effect1_innerShadow_23_41177" result="effect2_innerShadow_23_41177"/>
</filter>
<filter id="filter4_ii_23_41177" x="138" y="0" width="32" height="433" filterUnits="userSpaceOnUse" color-interpolation-filters="sRGB">
<feFlood flood-opacity="0" result="BackgroundImageFix"/>
<feBlend mode="normal" in="SourceGraphic" in2="BackgroundImageFix" result="shape"/>
<feColorMatrix in="SourceAlpha" type="matrix" values="0 0 0 0 0 0 0 0 0 0 0 0 0 0 0 0 0 0 127 0" result="hardAlpha"/>
<feOffset dx="-1" dy="1"/>
<feComposite in2="hardAlpha" operator="arithmetic" k2="-1" k3="1"/>
<feColorMatrix type="matrix" values="0 0 0 0 1 0 0 0 0 1 0 0 0 0 1 0 0 0 0.15 0"/>
<feBlend mode="normal" in2="shape" result="effect1_innerShadow_23_41177"/>
<feColorMatrix in="SourceAlpha" type="matrix" values="0 0 0 0 0 0 0 0 0 0 0 0 0 0 0 0 0 0 127 0" result="hardAlpha"/>
<feOffset dx="2" dy="2"/>
<feComposite in2="hardAlpha" operator="arithmetic" k2="-1" k3="1"/>
<feColorMatrix type="matrix" values="0 0 0 0 0 0 0 0 0 0 0 0 0 0 0 0 0 0 0.15 0"/>
<feBlend mode="normal" in2="effect1_innerShadow_23_41177" result="effect2_innerShadow_23_41177"/>
</filter>
<filter id="filter5_ii_23_41177" x="138" y="0" width="32" height="32" filterUnits="userSpaceOnUse" color-interpolation-filters="sRGB">
<feFlood flood-opacity="0" result="BackgroundImageFix"/>
<feBlend mode="normal" in="SourceGraphic" in2="BackgroundImageFix" result="shape"/>
<feColorMatrix in="SourceAlpha" type="matrix" values="0 0 0 0 0 0 0 0 0 0 0 0 0 0 0 0 0 0 127 0" result="hardAlpha"/>
<feOffset dx="-1" dy="-1"/>
<feComposite in2="hardAlpha" operator="arithmetic" k2="-1" k3="1"/>
<feColorMatrix type="matrix" values="0 0 0 0 1 0 0 0 0 1 0 0 0 0 1 0 0 0 0.15 0"/>
<feBlend mode="normal" in2="shape" result="effect1_innerShadow_23_41177"/>
<feColorMatrix in="SourceAlpha" type="matrix" values="0 0 0 0 0 0 0 0 0 0 0 0 0 0 0 0 0 0 127 0" result="hardAlpha"/>
<feOffset dx="2"/>
<feComposite in2="hardAlpha" operator="arithmetic" k2="-1" k3="1"/>
<feColorMatrix type="matrix" values="0 0 0 0 0 0 0 0 0 0 0 0 0 0 0 0 0 0 0.15 0"/>
<feBlend mode="normal" in2="effect1_innerShadow_23_41177" result="effect2_innerShadow_23_41177"/>
</filter>
<filter id="filter6_i_23_41177" x="136.004" y="46" width="36" height="40" filterUnits="userSpaceOnUse" color-interpolation-filters="sRGB">
<feFlood flood-opacity="0" result="BackgroundImageFix"/>
<feBlend mode="normal" in="SourceGraphic" in2="BackgroundImageFix" result="shape"/>
<feColorMatrix in="SourceAlpha" type="matrix" values="0 0 0 0 0 0 0 0 0 0 0 0 0 0 0 0 0 0 127 0" result="hardAlpha"/>
<feOffset/>
<feGaussianBlur stdDeviation="2"/>
<feComposite in2="hardAlpha" operator="arithmetic" k2="-1" k3="1"/>
<feColorMatrix type="matrix" values="0 0 0 0 0 0 0 0 0 0 0 0 0 0 0 0 0 0 0.25 0"/>
<feBlend mode="normal" in2="shape" result="effect1_innerShadow_23_41177"/>
</filter>
<filter id="filter7_iii_23_41177" x="9.99609" y="52" width="108" height="113.326" filterUnits="userSpaceOnUse" color-interpolation-filters="sRGB">
<feFlood flood-opacity="0" result="BackgroundImageFix"/>
<feBlend mode="normal" in="SourceGraphic" in2="BackgroundImageFix" result="shape"/>
<feColorMatrix in="SourceAlpha" type="matrix" values="0 0 0 0 0 0 0 0 0 0 0 0 0 0 0 0 0 0 127 0" result="hardAlpha"/>
<feOffset dy="4"/>
<feComposite in2="hardAlpha" operator="arithmetic" k2="-1" k3="1"/>
<feColorMatrix type="matrix" values="0 0 0 0 0 0 0 0 0 0 0 0 0 0 0 0 0 0 0.08 0"/>
<feBlend mode="normal" in2="shape" result="effect1_innerShadow_23_41177"/>
<feColorMatrix in="SourceAlpha" type="matrix" values="0 0 0 0 0 0 0 0 0 0 0 0 0 0 0 0 0 0 127 0" result="hardAlpha"/>
<feOffset dy="1"/>
<feComposite in2="hardAlpha" operator="arithmetic" k2="-1" k3="1"/>
<feColorMatrix type="matrix" values="0 0 0 0 0 0 0 0 0 0 0 0 0 0 0 0 0 0 0.25 0"/>
<feBlend mode="normal" in2="effect1_innerShadow_23_41177" result="effect2_innerShadow_23_41177"/>
<feColorMatrix in="SourceAlpha" type="matrix" values="0 0 0 0 0 0 0 0 0 0 0 0 0 0 0 0 0 0 127 0" result="hardAlpha"/>
<feOffset dx="-24" dy="-10"/>
<feGaussianBlur stdDeviation="10"/>
<feComposite in2="hardAlpha" operator="arithmetic" k2="-1" k3="1"/>
<feColorMatrix type="matrix" values="0 0 0 0 1 0 0 0 0 1 0 0 0 0 1 0 0 0 0.1 0"/>
<feBlend mode="normal" in2="effect2_innerShadow_23_41177" result="effect3_innerShadow_23_41177"/>
</filter>
<filter id="filter8_ii_23_41177" x="29.9961" y="52" width="88" height="12" filterUnits="userSpaceOnUse" color-interpolation-filters="sRGB">
<feFlood flood-opacity="0" result="BackgroundImageFix"/>
<feBlend mode="normal" in="SourceGraphic" in2="BackgroundImageFix" result="shape"/>
<feColorMatrix in="SourceAlpha" type="matrix" values="0 0 0 0 0 0 0 0 0 0 0 0 0 0 0 0 0 0 127 0" result="hardAlpha"/>
<feOffset dy="-2"/>
<feGaussianBlur stdDeviation="1"/>
<feComposite in2="hardAlpha" operator="arithmetic" k2="-1" k3="1"/>
<feColorMatrix type="matrix" values="0 0 0 0 0 0 0 0 0 0 0 0 0 0 0 0 0 0 0.15 0"/>
<feBlend mode="normal" in2="shape" result="effect1_innerShadow_23_41177"/>
<feColorMatrix in="SourceAlpha" type="matrix" values="0 0 0 0 0 0 0 0 0 0 0 0 0 0 0 0 0 0 127 0" result="hardAlpha"/>
<feOffset dy="3"/>
<feGaussianBlur stdDeviation="1"/>
<feComposite in2="hardAlpha" operator="arithmetic" k2="-1" k3="1"/>
<feColorMatrix type="matrix" values="0 0 0 0 1 0 0 0 0 1 0 0 0 0 1 0 0 0 0.25 0"/>
<feBlend mode="normal" in2="effect1_innerShadow_23_41177" result="effect2_innerShadow_23_41177"/>
</filter>
<filter id="filter9_i_23_41177" x="13" y="48" width="8" height="17" filterUnits="userSpaceOnUse" color-interpolation-filters="sRGB">
<feFlood flood-opacity="0" result="BackgroundImageFix"/>
<feBlend mode="normal" in="SourceGraphic" in2="BackgroundImageFix" result="shape"/>
<feColorMatrix in="SourceAlpha" type="matrix" values="0 0 0 0 0 0 0 0 0 0 0 0 0 0 0 0 0 0 127 0" result="hardAlpha"/>
<feOffset dy="-8"/>
<feGaussianBlur stdDeviation="1.5"/>
<feComposite in2="hardAlpha" operator="arithmetic" k2="-1" k3="1"/>
<feColorMatrix type="matrix" values="0 0 0 0 0 0 0 0 0 0 0 0 0 0 0 0 0 0 0.25 0"/>
<feBlend mode="normal" in2="shape" result="effect1_innerShadow_23_41177"/>
</filter>
</defs>
</svg>
