<svg width="170" height="204" viewBox="0 0 170 204" fill="none" xmlns="http://www.w3.org/2000/svg">
<g filter="url(#filter0_d_33_127171)">
<g filter="url(#filter1_ii_33_127171)">
<path d="M0 49H170V8C170 3.58172 166.418 0 162 0H8C3.58172 0 0 3.58172 0 8V49Z" fill="#A16207"/>
</g>
<path d="M138.066 165.717H156.851V172.129C156.851 173.233 155.956 174.129 154.851 174.129H140.066C138.962 174.129 138.066 173.233 138.066 172.129V165.717Z" fill="black" fill-opacity="0.12"/>
<path d="M13.1494 165.717H31.9339V172.129C31.9339 173.233 31.0385 174.129 29.9339 174.129H15.1494C14.0448 174.129 13.1494 173.233 13.1494 172.129V165.717Z" fill="black" fill-opacity="0.12"/>
<path d="M0 24C0 19.5817 3.58172 16 8 16H162C166.418 16 170 19.5817 170 24V188C170 192.418 166.418 196 162 196H8C3.58172 196 0 192.418 0 188V24Z" fill="#854D0E"/>
<g filter="url(#filter2_d_33_127171)">
<path d="M1.5 21L35.5 55" stroke="white" stroke-opacity="0.25" stroke-linejoin="round" shape-rendering="crispEdges"/>
</g>
<g filter="url(#filter3_d_33_127171)">
<path d="M168 21L132 57" stroke="white" stroke-opacity="0.25" stroke-linejoin="round" shape-rendering="crispEdges"/>
</g>
<g filter="url(#filter4_d_33_127171)">
<path d="M1.5 193L35.5 159" stroke="white" stroke-opacity="0.25" stroke-linejoin="round" shape-rendering="crispEdges"/>
</g>
<g filter="url(#filter5_d_33_127171)">
<path d="M168 193L132 157" stroke="white" stroke-opacity="0.25" stroke-linejoin="round" shape-rendering="crispEdges"/>
</g>
<g filter="url(#filter6_i_33_127171)">
<path d="M32 52C32 49.7909 33.7909 48 36 48H134C136.209 48 138 49.7909 138 52V160C138 162.209 136.209 164 134 164H36C33.7909 164 32 162.209 32 160V52Z" fill="#0F172A"/>
</g>
<mask id="mask0_33_127171" style="mask-type:alpha" maskUnits="userSpaceOnUse" x="32" y="48" width="106" height="116">
<path d="M32 52C32 49.7909 33.7909 48 36 48H134C136.209 48 138 49.7909 138 52V160C138 162.209 136.209 164 134 164H36C33.7909 164 32 162.209 32 160V52Z" fill="#0F172A"/>
</mask>
<g mask="url(#mask0_33_127171)">
<path opacity="0.1" d="M133.231 -98.6584H164L57.7692 314.171H27L133.231 -98.6584Z" fill="white"/>
<path opacity="0.1" d="M103.75 -55.8535H115L19.25 314.171H8L103.75 -55.8535Z" fill="white"/>
<path d="M138 98.9724L138 105.702L32 105.702L32 98.9724L138 98.9724Z" fill="#713F12"/>
<path d="M138 95.6076L138 98.9724L32 98.9724L32 95.6076L138 95.6076Z" fill="#A16207"/>
</g>
<g filter="url(#filter7_ii_33_127171)">
<path fill-rule="evenodd" clip-rule="evenodd" d="M32 144V160C32 162.209 33.7909 164 36 164H134C136.209 164 138 162.209 138 160V144C138 146.209 136.209 148 134 148H36C33.7909 148 32 146.209 32 144Z" fill="#A16207"/>
</g>
<path d="M89.2267 157H81.7129V48H89.2267V157Z" fill="#713F12"/>
</g>
<defs>
<filter id="filter0_d_33_127171" x="0" y="0" width="170" height="204" filterUnits="userSpaceOnUse" color-interpolation-filters="sRGB">
<feFlood flood-opacity="0" result="BackgroundImageFix"/>
<feColorMatrix in="SourceAlpha" type="matrix" values="0 0 0 0 0 0 0 0 0 0 0 0 0 0 0 0 0 0 127 0" result="hardAlpha"/>
<feOffset dy="8"/>
<feComposite in2="hardAlpha" operator="out"/>
<feColorMatrix type="matrix" values="0 0 0 0 0 0 0 0 0 0 0 0 0 0 0 0 0 0 0.25 0"/>
<feBlend mode="normal" in2="BackgroundImageFix" result="effect1_dropShadow_33_127171"/>
<feBlend mode="normal" in="SourceGraphic" in2="effect1_dropShadow_33_127171" result="shape"/>
</filter>
<filter id="filter1_ii_33_127171" x="-4" y="-4" width="178" height="53" filterUnits="userSpaceOnUse" color-interpolation-filters="sRGB">
<feFlood flood-opacity="0" result="BackgroundImageFix"/>
<feBlend mode="normal" in="SourceGraphic" in2="BackgroundImageFix" result="shape"/>
<feColorMatrix in="SourceAlpha" type="matrix" values="0 0 0 0 0 0 0 0 0 0 0 0 0 0 0 0 0 0 127 0" result="hardAlpha"/>
<feOffset dx="4" dy="-4"/>
<feGaussianBlur stdDeviation="2"/>
<feComposite in2="hardAlpha" operator="arithmetic" k2="-1" k3="1"/>
<feColorMatrix type="matrix" values="0 0 0 0 0 0 0 0 0 0 0 0 0 0 0 0 0 0 0.25 0"/>
<feBlend mode="normal" in2="shape" result="effect1_innerShadow_33_127171"/>
<feColorMatrix in="SourceAlpha" type="matrix" values="0 0 0 0 0 0 0 0 0 0 0 0 0 0 0 0 0 0 127 0" result="hardAlpha"/>
<feOffset dx="-4" dy="-4"/>
<feGaussianBlur stdDeviation="2"/>
<feComposite in2="hardAlpha" operator="arithmetic" k2="-1" k3="1"/>
<feColorMatrix type="matrix" values="0 0 0 0 1 0 0 0 0 1 0 0 0 0 1 0 0 0 0.25 0"/>
<feBlend mode="normal" in2="effect1_innerShadow_33_127171" result="effect2_innerShadow_33_127171"/>
</filter>
<filter id="filter2_d_33_127171" x="1.14648" y="18.6465" width="34.707" height="36.707" filterUnits="userSpaceOnUse" color-interpolation-filters="sRGB">
<feFlood flood-opacity="0" result="BackgroundImageFix"/>
<feColorMatrix in="SourceAlpha" type="matrix" values="0 0 0 0 0 0 0 0 0 0 0 0 0 0 0 0 0 0 127 0" result="hardAlpha"/>
<feOffset dy="-2"/>
<feComposite in2="hardAlpha" operator="out"/>
<feColorMatrix type="matrix" values="0 0 0 0 0 0 0 0 0 0 0 0 0 0 0 0 0 0 0.25 0"/>
<feBlend mode="normal" in2="BackgroundImageFix" result="effect1_dropShadow_33_127171"/>
<feBlend mode="normal" in="SourceGraphic" in2="effect1_dropShadow_33_127171" result="shape"/>
</filter>
<filter id="filter3_d_33_127171" x="131.646" y="18.6465" width="36.707" height="38.707" filterUnits="userSpaceOnUse" color-interpolation-filters="sRGB">
<feFlood flood-opacity="0" result="BackgroundImageFix"/>
<feColorMatrix in="SourceAlpha" type="matrix" values="0 0 0 0 0 0 0 0 0 0 0 0 0 0 0 0 0 0 127 0" result="hardAlpha"/>
<feOffset dy="-2"/>
<feComposite in2="hardAlpha" operator="out"/>
<feColorMatrix type="matrix" values="0 0 0 0 0 0 0 0 0 0 0 0 0 0 0 0 0 0 0.25 0"/>
<feBlend mode="normal" in2="BackgroundImageFix" result="effect1_dropShadow_33_127171"/>
<feBlend mode="normal" in="SourceGraphic" in2="effect1_dropShadow_33_127171" result="shape"/>
</filter>
<filter id="filter4_d_33_127171" x="1.14648" y="156.646" width="34.707" height="36.707" filterUnits="userSpaceOnUse" color-interpolation-filters="sRGB">
<feFlood flood-opacity="0" result="BackgroundImageFix"/>
<feColorMatrix in="SourceAlpha" type="matrix" values="0 0 0 0 0 0 0 0 0 0 0 0 0 0 0 0 0 0 127 0" result="hardAlpha"/>
<feOffset dy="-2"/>
<feComposite in2="hardAlpha" operator="out"/>
<feColorMatrix type="matrix" values="0 0 0 0 0 0 0 0 0 0 0 0 0 0 0 0 0 0 0.25 0"/>
<feBlend mode="normal" in2="BackgroundImageFix" result="effect1_dropShadow_33_127171"/>
<feBlend mode="normal" in="SourceGraphic" in2="effect1_dropShadow_33_127171" result="shape"/>
</filter>
<filter id="filter5_d_33_127171" x="131.646" y="154.646" width="36.707" height="38.707" filterUnits="userSpaceOnUse" color-interpolation-filters="sRGB">
<feFlood flood-opacity="0" result="BackgroundImageFix"/>
<feColorMatrix in="SourceAlpha" type="matrix" values="0 0 0 0 0 0 0 0 0 0 0 0 0 0 0 0 0 0 127 0" result="hardAlpha"/>
<feOffset dy="-2"/>
<feComposite in2="hardAlpha" operator="out"/>
<feColorMatrix type="matrix" values="0 0 0 0 0 0 0 0 0 0 0 0 0 0 0 0 0 0 0.25 0"/>
<feBlend mode="normal" in2="BackgroundImageFix" result="effect1_dropShadow_33_127171"/>
<feBlend mode="normal" in="SourceGraphic" in2="effect1_dropShadow_33_127171" result="shape"/>
</filter>
<filter id="filter6_i_33_127171" x="32" y="48" width="106" height="116" filterUnits="userSpaceOnUse" color-interpolation-filters="sRGB">
<feFlood flood-opacity="0" result="BackgroundImageFix"/>
<feBlend mode="normal" in="SourceGraphic" in2="BackgroundImageFix" result="shape"/>
<feColorMatrix in="SourceAlpha" type="matrix" values="0 0 0 0 0 0 0 0 0 0 0 0 0 0 0 0 0 0 127 0" result="hardAlpha"/>
<feOffset dy="4"/>
<feComposite in2="hardAlpha" operator="arithmetic" k2="-1" k3="1"/>
<feColorMatrix type="matrix" values="0 0 0 0 0 0 0 0 0 0 0 0 0 0 0 0 0 0 0.35 0"/>
<feBlend mode="normal" in2="shape" result="effect1_innerShadow_33_127171"/>
</filter>
<filter id="filter7_ii_33_127171" x="28" y="143" width="114" height="21" filterUnits="userSpaceOnUse" color-interpolation-filters="sRGB">
<feFlood flood-opacity="0" result="BackgroundImageFix"/>
<feBlend mode="normal" in="SourceGraphic" in2="BackgroundImageFix" result="shape"/>
<feColorMatrix in="SourceAlpha" type="matrix" values="0 0 0 0 0 0 0 0 0 0 0 0 0 0 0 0 0 0 127 0" result="hardAlpha"/>
<feOffset dx="-4"/>
<feGaussianBlur stdDeviation="2"/>
<feComposite in2="hardAlpha" operator="arithmetic" k2="-1" k3="1"/>
<feColorMatrix type="matrix" values="0 0 0 0 0 0 0 0 0 0 0 0 0 0 0 0 0 0 0.25 0"/>
<feBlend mode="normal" in2="shape" result="effect1_innerShadow_33_127171"/>
<feColorMatrix in="SourceAlpha" type="matrix" values="0 0 0 0 0 0 0 0 0 0 0 0 0 0 0 0 0 0 127 0" result="hardAlpha"/>
<feOffset dx="4" dy="-1"/>
<feGaussianBlur stdDeviation="2"/>
<feComposite in2="hardAlpha" operator="arithmetic" k2="-1" k3="1"/>
<feColorMatrix type="matrix" values="0 0 0 0 1 0 0 0 0 1 0 0 0 0 1 0 0 0 0.25 0"/>
<feBlend mode="normal" in2="effect1_innerShadow_33_127171" result="effect2_innerShadow_33_127171"/>
</filter>
</defs>
</svg>
