<svg width="230" height="496" viewBox="0 0 230 496" fill="none" xmlns="http://www.w3.org/2000/svg">
<rect y="204" width="230" height="292" rx="24" fill="black" fill-opacity="0.12"/>
<circle cx="205.5" cy="461.5" r="17.5" fill="black" fill-opacity="0.2"/>
<circle cx="23.5" cy="431.499" r="17.5" fill="black" fill-opacity="0.2"/>
<circle cx="205.5" cy="397.5" r="17.5" fill="black" fill-opacity="0.2"/>
<circle cx="23.5" cy="367.499" r="17.5" fill="black" fill-opacity="0.2"/>
<circle cx="205.5" cy="333.5" r="17.5" fill="black" fill-opacity="0.2"/>
<circle cx="23.5" cy="303.5" r="17.5" fill="black" fill-opacity="0.2"/>
<circle cx="205.5" cy="269.501" r="17.5" fill="black" fill-opacity="0.2"/>
<circle cx="23.5" cy="239.5" r="17.5" fill="black" fill-opacity="0.2"/>
<rect x="46" y="233" width="137" height="249" rx="23" fill="black" fill-opacity="0.12"/>
<g filter="url(#filter0_ii_23_41001)">
<path d="M186.123 20.6831L210.636 41.2523L35.7982 249.616C30.1182 256.386 20.0261 257.269 13.2569 251.589C6.48772 245.908 5.60479 235.816 11.2848 229.047L186.123 20.6831Z" fill="#A16207"/>
</g>
<g filter="url(#filter1_i_23_41001)">
<path d="M185.89 20.9618C189.717 16.4008 202.454 13.0536 209.995 11.4146C212.998 10.762 215.74 13.0631 215.619 16.1335C215.315 23.8452 214.23 36.97 210.403 41.531C204.852 48.1463 194.865 48.9045 188.095 43.2245C181.326 37.5445 180.339 27.5771 185.89 20.9618Z" fill="#CA8A04"/>
</g>
<g filter="url(#filter2_ii_23_41001)">
<path d="M42.8691 50.6831L18.3557 71.2523L193.194 279.616C198.874 286.386 208.966 287.269 215.735 281.589C222.504 275.908 223.387 265.816 217.707 259.047L42.8691 50.6831Z" fill="#A16207"/>
</g>
<g filter="url(#filter3_i_23_41001)">
<path d="M43.1027 50.9618C39.2755 46.4008 26.5385 43.0536 18.9968 41.4146C15.9941 40.762 13.2518 43.0631 13.373 46.1335C13.6776 53.8452 14.7621 66.97 18.5893 71.531C24.1402 78.1463 34.1276 78.9045 40.8968 73.2245C47.666 67.5445 48.6536 57.5771 43.1027 50.9618Z" fill="#CA8A04"/>
</g>
<path opacity="0.2" d="M169.067 67.2C166.759 69.9499 163.758 72.4425 162.612 71.4806C161.465 70.5186 163.098 68.0901 165.406 65.3401C167.713 62.5901 169.821 60.5601 170.968 61.522C172.114 62.4839 171.374 64.45 169.067 67.2Z" fill="white"/>
<path opacity="0.2" d="M151.686 95.6933C149.379 98.4433 146.244 100.824 144.811 99.6215C143.378 98.419 144.952 95.9407 147.259 93.1907C149.567 90.4407 151.734 88.4605 153.167 89.6629C154.6 90.8653 153.994 92.9433 151.686 95.6933Z" fill="#1C1917"/>
<path opacity="0.2" d="M180.484 50.4839C179.064 52.1762 176.878 53.4258 175.445 52.2234C174.012 51.0209 174.866 49.4 176.286 47.7077C177.706 46.0154 179.154 44.8926 180.587 46.095C182.02 47.2974 181.904 48.7916 180.484 50.4839Z" fill="#1C1917"/>
<path opacity="0.2" d="M130.345 110.235C128.925 111.928 126.739 113.177 125.306 111.975C123.873 110.772 124.728 109.151 126.148 107.459C127.568 105.767 129.016 104.644 130.449 105.846C131.882 107.049 131.765 108.543 130.345 110.235Z" fill="white"/>
<path opacity="0.2" d="M170.583 178.823C172.89 181.573 174.824 184.961 173.678 185.923C172.531 186.885 170.423 184.855 168.116 182.105C165.808 179.355 164.175 176.927 165.321 175.965C166.468 175.003 168.275 176.073 170.583 178.823Z" fill="white"/>
<path opacity="0.2" d="M171.552 200.202C173.86 202.952 175.66 206.453 174.227 207.655C172.794 208.857 170.626 206.877 168.319 204.127C166.011 201.377 164.437 198.899 165.87 197.696C167.303 196.494 169.245 197.452 171.552 200.202Z" fill="#1C1917"/>
<path opacity="0.2" d="M203.819 227.767C205.239 229.459 206.09 231.829 204.657 233.031C203.224 234.234 201.776 233.111 200.356 231.419C198.936 229.726 198.082 228.105 199.515 226.903C200.948 225.701 202.399 226.075 203.819 227.767Z" fill="#1C1917"/>
<path opacity="0.2" d="M147.034 170.983C148.454 172.675 149.305 175.045 147.872 176.247C146.439 177.45 144.991 176.327 143.571 174.634C142.151 172.942 141.297 171.321 142.73 170.119C144.163 168.916 145.614 169.291 147.034 170.983Z" fill="white"/>
<g filter="url(#filter4_ii_23_41001)">
<path d="M186.123 84.6831L210.636 105.252L35.7982 313.616C30.1182 320.386 20.0261 321.269 13.2569 315.589C6.48772 309.908 5.60479 299.816 11.2848 293.047L186.123 84.6831Z" fill="#A16207"/>
</g>
<g filter="url(#filter5_i_23_41001)">
<path d="M185.89 84.9618C189.717 80.4008 202.454 77.0536 209.995 75.4146C212.998 74.762 215.74 77.0631 215.619 80.1335C215.315 87.8452 214.23 100.97 210.403 105.531C204.852 112.146 194.865 112.905 188.095 107.225C181.326 101.544 180.339 91.5771 185.89 84.9618Z" fill="#CA8A04"/>
</g>
<g filter="url(#filter6_ii_23_41001)">
<path d="M42.8691 114.683L18.3557 135.252L193.194 343.616C198.874 350.386 208.966 351.269 215.735 345.589C222.504 339.908 223.387 329.816 217.707 323.047L42.8691 114.683Z" fill="#A16207"/>
</g>
<g filter="url(#filter7_i_23_41001)">
<path d="M43.1027 114.962C39.2755 110.401 26.5385 107.054 18.9968 105.415C15.9941 104.762 13.2518 107.063 13.373 110.133C13.6776 117.845 14.7621 130.97 18.5893 135.531C24.1402 142.146 34.1276 142.905 40.8968 137.225C47.666 131.544 48.6536 121.577 43.1027 114.962Z" fill="#CA8A04"/>
</g>
<g filter="url(#filter8_ii_23_41001)">
<path d="M186.123 148.683L210.636 169.252L35.7982 377.616C30.1182 384.386 20.0261 385.269 13.2569 379.589C6.48772 373.908 5.60479 363.816 11.2848 357.047L186.123 148.683Z" fill="#A16207"/>
</g>
<g filter="url(#filter9_i_23_41001)">
<path d="M185.89 148.962C189.717 144.401 202.454 141.054 209.995 139.415C212.998 138.762 215.74 141.063 215.619 144.133C215.315 151.845 214.23 164.97 210.403 169.531C204.852 176.146 194.865 176.905 188.095 171.225C181.326 165.544 180.339 155.577 185.89 148.962Z" fill="#CA8A04"/>
</g>
<path opacity="0.2" d="M85.2017 245.902C82.8942 248.652 79.8927 251.145 78.7463 250.183C77.5999 249.221 79.2331 246.792 81.5406 244.042C83.8481 241.292 85.9562 239.262 87.1026 240.224C88.249 241.186 87.5092 243.152 85.2017 245.902Z" fill="white"/>
<path opacity="0.2" d="M37.1689 289.144C34.8614 291.894 31.7265 294.275 30.2935 293.072C28.8605 291.87 30.4343 289.391 32.7418 286.641C35.0493 283.891 37.2167 281.911 38.6497 283.114C40.0827 284.316 39.4764 286.394 37.1689 289.144Z" fill="#1C1917"/>
<path opacity="0.2" d="M62.9721 258.393C61.5521 260.085 59.3662 261.334 57.9332 260.132C56.5002 258.93 57.3545 257.309 58.7746 255.616C60.1946 253.924 61.6425 252.801 63.0755 254.004C64.5085 255.206 64.3921 256.7 62.9721 258.393Z" fill="#1C1917"/>
<path opacity="0.2" d="M54.1928 279.745C52.7728 281.437 50.5869 282.687 49.1539 281.485C47.7209 280.282 48.5752 278.661 49.9953 276.969C51.4153 275.277 52.8632 274.154 54.2962 275.356C55.7292 276.559 55.6128 278.053 54.1928 279.745Z" fill="white"/>
<path opacity="0.2" d="M54.9403 139.332C57.2479 142.082 59.1814 145.471 58.035 146.433C56.8886 147.395 54.7806 145.365 52.473 142.615C50.1655 139.865 48.5323 137.436 49.6787 136.474C50.8251 135.512 52.6328 136.582 54.9403 139.332Z" fill="white"/>
<path opacity="0.2" d="M89.1849 194.144C91.4924 196.894 93.2924 200.395 91.8595 201.597C90.4265 202.8 88.2591 200.82 85.9516 198.07C83.644 195.32 82.0702 192.841 83.5032 191.639C84.9362 190.436 86.8774 191.394 89.1849 194.144Z" fill="#1C1917"/>
<path opacity="0.2" d="M63.3817 163.393C64.8017 165.085 65.6527 167.455 64.2197 168.657C62.7867 169.86 61.3388 168.737 59.9188 167.045C58.4988 165.352 57.6444 163.731 59.0774 162.529C60.5104 161.327 61.9617 161.701 63.3817 163.393Z" fill="#1C1917"/>
<path opacity="0.2" d="M82.8856 175.746C84.3056 177.439 85.1566 179.808 83.7236 181.011C82.2906 182.213 80.8427 181.09 79.4227 179.398C78.0027 177.706 77.1483 176.085 78.5813 174.883C80.0143 173.68 81.4656 174.054 82.8856 175.746Z" fill="white"/>
<g filter="url(#filter10_ii_23_41001)">
<path d="M42.8691 178.683L18.3557 199.252L193.194 407.616C198.874 414.386 208.966 415.269 215.735 409.589C222.504 403.908 223.387 393.816 217.707 387.047L42.8691 178.683Z" fill="#A16207"/>
</g>
<g filter="url(#filter11_i_23_41001)">
<path d="M43.1027 178.962C39.2755 174.401 26.5385 171.054 18.9968 169.415C15.9941 168.762 13.2518 171.063 13.373 174.133C13.6776 181.845 14.7621 194.97 18.5893 199.531C24.1402 206.146 34.1276 206.905 40.8968 201.225C47.666 195.544 48.6536 185.577 43.1027 178.962Z" fill="#CA8A04"/>
</g>
<path opacity="0.2" d="M163.864 341.088C166.172 343.838 168.105 347.227 166.959 348.189C165.812 349.151 163.704 347.121 161.397 344.371C159.089 341.621 157.456 339.192 158.603 338.23C159.749 337.268 161.557 338.338 163.864 341.088Z" fill="white"/>
<path opacity="0.2" d="M188.906 363.154C191.213 365.904 193.013 369.405 191.58 370.607C190.147 371.81 187.98 369.829 185.672 367.079C183.365 364.329 181.791 361.851 183.224 360.649C184.657 359.446 186.598 360.404 188.906 363.154Z" fill="#1C1917"/>
<path opacity="0.2" d="M149.384 326.944C150.804 328.636 151.655 331.006 150.222 332.208C148.789 333.411 147.341 332.288 145.921 330.595C144.501 328.903 143.646 327.282 145.079 326.08C146.512 324.877 147.964 325.251 149.384 326.944Z" fill="#1C1917"/>
<path opacity="0.2" d="M199.52 386.695C200.94 388.388 201.791 390.757 200.358 391.96C198.925 393.162 197.477 392.039 196.057 390.347C194.637 388.655 193.783 387.034 195.216 385.831C196.649 384.629 198.1 385.003 199.52 386.695Z" fill="white"/>
<path opacity="0.2" d="M175.559 203.393C173.252 206.143 170.25 208.635 169.104 207.673C167.957 206.712 169.591 204.283 171.898 201.533C174.206 198.783 176.314 196.753 177.46 197.715C178.606 198.677 177.867 200.643 175.559 203.393Z" fill="white"/>
<path opacity="0.2" d="M154.673 208.06C152.365 210.81 149.23 213.19 147.797 211.988C146.364 210.785 147.938 208.307 150.246 205.557C152.553 202.807 154.721 200.827 156.154 202.029C157.587 203.232 156.98 205.31 154.673 208.06Z" fill="#1C1917"/>
<path opacity="0.2" d="M133.13 244.624C131.71 246.316 129.524 247.565 128.091 246.363C126.658 245.161 127.513 243.54 128.933 241.847C130.353 240.155 131.801 239.032 133.234 240.235C134.667 241.437 134.55 242.931 133.13 244.624Z" fill="#1C1917"/>
<path opacity="0.2" d="M179.191 178.84C177.771 180.533 175.585 181.782 174.152 180.58C172.719 179.377 173.573 177.756 174.993 176.064C176.413 174.372 177.861 173.249 179.294 174.451C180.727 175.654 180.611 177.148 179.191 178.84Z" fill="white"/>
<g filter="url(#filter12_ii_23_41001)">
<path d="M186.123 212.683L210.636 233.252L35.7982 441.616C30.1182 448.386 20.0261 449.269 13.2569 443.589C6.48772 437.908 5.60479 427.816 11.2848 421.047L186.123 212.683Z" fill="#A16207"/>
</g>
<g filter="url(#filter13_i_23_41001)">
<path d="M185.89 212.962C189.717 208.401 202.454 205.054 209.995 203.415C212.998 202.762 215.74 205.063 215.619 208.133C215.315 215.845 214.23 228.97 210.403 233.531C204.852 240.146 194.865 240.905 188.095 235.225C181.326 229.544 180.339 219.577 185.89 212.962Z" fill="#CA8A04"/>
</g>
<path opacity="0.2" d="M82.2017 371.902C79.8942 374.652 76.8927 377.145 75.7463 376.183C74.5999 375.221 76.2331 372.792 78.5406 370.042C80.8481 367.292 82.9562 365.262 84.1026 366.224C85.249 367.186 84.5092 369.152 82.2017 371.902Z" fill="white"/>
<path opacity="0.2" d="M34.1689 415.144C31.8614 417.894 28.7265 420.275 27.2935 419.072C25.8605 417.87 27.4343 415.391 29.7418 412.641C32.0493 409.891 34.2167 407.911 35.6497 409.114C37.0827 410.316 36.4764 412.394 34.1689 415.144Z" fill="#1C1917"/>
<path opacity="0.2" d="M59.9721 384.393C58.5521 386.085 56.3662 387.334 54.9332 386.132C53.5002 384.93 54.3545 383.309 55.7746 381.616C57.1946 379.924 58.6425 378.801 60.0755 380.004C61.5085 381.206 61.3921 382.7 59.9721 384.393Z" fill="#1C1917"/>
<path opacity="0.2" d="M51.1928 405.745C49.7728 407.437 47.5869 408.687 46.1539 407.485C44.7209 406.282 45.5752 404.661 46.9953 402.969C48.4153 401.277 49.8632 400.154 51.2962 401.356C52.7292 402.559 52.6128 404.053 51.1928 405.745Z" fill="white"/>
<g filter="url(#filter14_ii_23_41001)">
<path d="M42.8691 242.683L18.3557 263.252L193.194 471.616C198.874 478.385 208.966 479.268 215.735 473.588C222.504 467.908 223.387 457.816 217.707 451.047L42.8691 242.683Z" fill="#A16207"/>
</g>
<g filter="url(#filter15_i_23_41001)">
<path d="M43.1027 242.961C39.2755 238.4 26.5385 235.053 18.9968 233.414C15.9941 232.762 13.2518 235.063 13.373 238.133C13.6776 245.845 14.7621 258.969 18.5893 263.53C24.1402 270.146 34.1276 270.904 40.8968 265.224C47.666 259.544 48.6536 249.577 43.1027 242.961Z" fill="#CA8A04"/>
</g>
<rect x="91" y="108" width="39" height="264" rx="19.5" fill="black" fill-opacity="0.12"/>
<path opacity="0.2" d="M54.9403 269.332C57.2479 272.082 59.1814 275.471 58.035 276.433C56.8886 277.395 54.7806 275.365 52.473 272.615C50.1655 269.865 48.5323 267.436 49.6787 266.474C50.8251 265.512 52.6328 266.582 54.9403 269.332Z" fill="white"/>
<path opacity="0.2" d="M89.1849 324.144C91.4924 326.894 93.2924 330.395 91.8595 331.597C90.4265 332.8 88.2591 330.82 85.9516 328.07C83.644 325.32 82.0702 322.841 83.5032 321.639C84.9362 320.436 86.8774 321.394 89.1849 324.144Z" fill="#1C1917"/>
<path opacity="0.2" d="M63.3817 293.393C64.8017 295.085 65.6527 297.455 64.2197 298.657C62.7867 299.86 61.3388 298.737 59.9188 297.045C58.4988 295.352 57.6444 293.731 59.0774 292.529C60.5104 291.327 61.9617 291.701 63.3817 293.393Z" fill="#1C1917"/>
<path opacity="0.2" d="M82.8856 305.746C84.3056 307.439 85.1566 309.808 83.7236 311.011C82.2906 312.213 80.8427 311.09 79.4227 309.398C78.0027 307.706 77.1483 306.085 78.5813 304.883C80.0143 303.68 81.4656 304.054 82.8856 305.746Z" fill="white"/>
<g filter="url(#filter16_ii_23_41001)">
<path d="M95 62C95 53.1634 102.163 46 111 46C119.837 46 127 53.1634 127 62V362H95V62Z" fill="#A16207"/>
</g>
<path opacity="0.1" d="M105.653 289.789C105.653 284.85 105.017 279.568 103.65 279.568C102.283 279.568 102 283.572 102 288.511C102 293.451 102.283 297.455 103.65 297.455C105.017 297.455 105.653 294.728 105.653 289.789Z" fill="black"/>
<path opacity="0.1" d="M120.265 257.018C120.265 252.66 119.628 248 118.261 248C116.894 248 116.611 251.533 116.611 255.891C116.611 260.249 116.894 263.782 118.261 263.782C119.628 263.782 120.265 261.377 120.265 257.018Z" fill="white"/>
<path opacity="0.1" d="M116.611 315.036C116.611 312.131 115.592 309.024 113.405 309.024C111.219 309.024 110.766 311.379 110.766 314.285C110.766 317.19 111.219 319.545 113.405 319.545C115.592 319.545 116.611 317.942 116.611 315.036Z" fill="black"/>
<path opacity="0.1" d="M104.653 83.501C104.653 81.6921 104.017 79.7577 102.65 79.7577C101.283 79.7577 101 81.2241 101 83.0331C101 84.8421 101.283 86.3086 102.65 86.3086C104.017 86.3086 104.653 85.31 104.653 83.501Z" fill="white"/>
<path opacity="0.1" d="M112.69 73.487C112.69 69.869 111.927 66.0002 110.286 66.0002C108.646 66.0002 108.307 68.9331 108.307 72.5511C108.307 76.1691 108.646 79.1021 110.286 79.1021C111.927 79.1021 112.69 77.1049 112.69 73.487Z" fill="black"/>
<path opacity="0.1" d="M108.999 155.738C108.999 152.482 109.636 149 111.003 149C112.369 149 112.652 151.639 112.652 154.896C112.652 158.152 112.369 160.792 111.003 160.792C109.636 160.792 108.999 158.994 108.999 155.738Z" fill="white"/>
<path opacity="0.1" d="M112.651 171.179C112.651 169.008 113.542 166.687 115.456 166.687C117.369 166.687 117.766 168.446 117.766 170.617C117.766 172.788 117.369 174.548 115.456 174.548C113.542 174.548 112.651 173.35 112.651 171.179Z" fill="black"/>
<path d="M111.854 343.259C112.422 343.28 112.735 343.673 112.85 343.839C112.892 343.805 112.934 343.77 112.979 343.739C113.067 343.678 113.19 343.601 113.34 343.543C113.469 343.493 113.664 343.44 113.896 343.457L113.996 343.469L114.642 343.587C121.253 344.932 126.187 350.197 126.188 358.246C126.188 362.913 124.525 366.685 121.774 369.286C119.032 371.879 115.275 373.246 111.188 373.246C107.923 373.246 104.87 372.376 102.374 370.702C102.05 370.485 101.926 370.172 101.878 369.976C101.83 369.78 101.83 369.596 101.837 369.47C101.839 369.422 101.844 369.374 101.849 369.325C101.803 369.34 101.757 369.354 101.712 369.366C101.589 369.398 101.409 369.436 101.207 369.429C101.003 369.421 100.673 369.361 100.396 369.088C97.7665 366.494 96.1875 362.795 96.1875 358.246C96.1875 353.579 97.8496 349.807 100.601 347.206C103.343 344.613 107.1 343.246 111.188 343.246C111.411 343.246 111.633 343.251 111.854 343.259Z" fill="#CA8A04" stroke="#854D0E" stroke-width="2"/>
<defs>
<filter id="filter0_ii_23_41001" x="-3.45898" y="18.6831" width="214.096" height="246.649" filterUnits="userSpaceOnUse" color-interpolation-filters="sRGB">
<feFlood flood-opacity="0" result="BackgroundImageFix"/>
<feBlend mode="normal" in="SourceGraphic" in2="BackgroundImageFix" result="shape"/>
<feColorMatrix in="SourceAlpha" type="matrix" values="0 0 0 0 0 0 0 0 0 0 0 0 0 0 0 0 0 0 127 0" result="hardAlpha"/>
<feOffset dx="-11" dy="-2"/>
<feGaussianBlur stdDeviation="8"/>
<feComposite in2="hardAlpha" operator="arithmetic" k2="-1" k3="1"/>
<feColorMatrix type="matrix" values="0 0 0 0 0 0 0 0 0 0 0 0 0 0 0 0 0 0 0.35 0"/>
<feBlend mode="normal" in2="shape" result="effect1_innerShadow_23_41001"/>
<feColorMatrix in="SourceAlpha" type="matrix" values="0 0 0 0 0 0 0 0 0 0 0 0 0 0 0 0 0 0 127 0" result="hardAlpha"/>
<feOffset dx="-2" dy="10"/>
<feGaussianBlur stdDeviation="8"/>
<feComposite in2="hardAlpha" operator="arithmetic" k2="-1" k3="1"/>
<feColorMatrix type="matrix" values="0 0 0 0 1 0 0 0 0 1 0 0 0 0 1 0 0 0 0.25 0"/>
<feBlend mode="normal" in2="effect1_innerShadow_23_41001" result="effect2_innerShadow_23_41001"/>
</filter>
<filter id="filter1_i_23_41001" x="182.295" y="11.3032" width="43.3281" height="43.731" filterUnits="userSpaceOnUse" color-interpolation-filters="sRGB">
<feFlood flood-opacity="0" result="BackgroundImageFix"/>
<feBlend mode="normal" in="SourceGraphic" in2="BackgroundImageFix" result="shape"/>
<feColorMatrix in="SourceAlpha" type="matrix" values="0 0 0 0 0 0 0 0 0 0 0 0 0 0 0 0 0 0 127 0" result="hardAlpha"/>
<feOffset dx="10" dy="8"/>
<feGaussianBlur stdDeviation="6"/>
<feComposite in2="hardAlpha" operator="arithmetic" k2="-1" k3="1"/>
<feColorMatrix type="matrix" values="0 0 0 0 1 0 0 0 0 1 0 0 0 0 1 0 0 0 0.25 0"/>
<feBlend mode="normal" in2="shape" result="effect1_innerShadow_23_41001"/>
</filter>
<filter id="filter2_ii_23_41001" x="18.3555" y="48.6831" width="214.096" height="246.649" filterUnits="userSpaceOnUse" color-interpolation-filters="sRGB">
<feFlood flood-opacity="0" result="BackgroundImageFix"/>
<feBlend mode="normal" in="SourceGraphic" in2="BackgroundImageFix" result="shape"/>
<feColorMatrix in="SourceAlpha" type="matrix" values="0 0 0 0 0 0 0 0 0 0 0 0 0 0 0 0 0 0 127 0" result="hardAlpha"/>
<feOffset dx="11" dy="-2"/>
<feGaussianBlur stdDeviation="8"/>
<feComposite in2="hardAlpha" operator="arithmetic" k2="-1" k3="1"/>
<feColorMatrix type="matrix" values="0 0 0 0 0 0 0 0 0 0 0 0 0 0 0 0 0 0 0.35 0"/>
<feBlend mode="normal" in2="shape" result="effect1_innerShadow_23_41001"/>
<feColorMatrix in="SourceAlpha" type="matrix" values="0 0 0 0 0 0 0 0 0 0 0 0 0 0 0 0 0 0 127 0" result="hardAlpha"/>
<feOffset dx="2" dy="10"/>
<feGaussianBlur stdDeviation="8"/>
<feComposite in2="hardAlpha" operator="arithmetic" k2="-1" k3="1"/>
<feColorMatrix type="matrix" values="0 0 0 0 1 0 0 0 0 1 0 0 0 0 1 0 0 0 0.25 0"/>
<feBlend mode="normal" in2="effect1_innerShadow_23_41001" result="effect2_innerShadow_23_41001"/>
</filter>
<filter id="filter3_i_23_41001" x="7.36914" y="41.3032" width="39.3281" height="43.731" filterUnits="userSpaceOnUse" color-interpolation-filters="sRGB">
<feFlood flood-opacity="0" result="BackgroundImageFix"/>
<feBlend mode="normal" in="SourceGraphic" in2="BackgroundImageFix" result="shape"/>
<feColorMatrix in="SourceAlpha" type="matrix" values="0 0 0 0 0 0 0 0 0 0 0 0 0 0 0 0 0 0 127 0" result="hardAlpha"/>
<feOffset dx="-6" dy="8"/>
<feGaussianBlur stdDeviation="6"/>
<feComposite in2="hardAlpha" operator="arithmetic" k2="-1" k3="1"/>
<feColorMatrix type="matrix" values="0 0 0 0 1 0 0 0 0 1 0 0 0 0 1 0 0 0 0.25 0"/>
<feBlend mode="normal" in2="shape" result="effect1_innerShadow_23_41001"/>
</filter>
<filter id="filter4_ii_23_41001" x="-3.45898" y="82.6831" width="214.096" height="246.649" filterUnits="userSpaceOnUse" color-interpolation-filters="sRGB">
<feFlood flood-opacity="0" result="BackgroundImageFix"/>
<feBlend mode="normal" in="SourceGraphic" in2="BackgroundImageFix" result="shape"/>
<feColorMatrix in="SourceAlpha" type="matrix" values="0 0 0 0 0 0 0 0 0 0 0 0 0 0 0 0 0 0 127 0" result="hardAlpha"/>
<feOffset dx="-11" dy="-2"/>
<feGaussianBlur stdDeviation="8"/>
<feComposite in2="hardAlpha" operator="arithmetic" k2="-1" k3="1"/>
<feColorMatrix type="matrix" values="0 0 0 0 0 0 0 0 0 0 0 0 0 0 0 0 0 0 0.35 0"/>
<feBlend mode="normal" in2="shape" result="effect1_innerShadow_23_41001"/>
<feColorMatrix in="SourceAlpha" type="matrix" values="0 0 0 0 0 0 0 0 0 0 0 0 0 0 0 0 0 0 127 0" result="hardAlpha"/>
<feOffset dx="-2" dy="10"/>
<feGaussianBlur stdDeviation="8"/>
<feComposite in2="hardAlpha" operator="arithmetic" k2="-1" k3="1"/>
<feColorMatrix type="matrix" values="0 0 0 0 1 0 0 0 0 1 0 0 0 0 1 0 0 0 0.25 0"/>
<feBlend mode="normal" in2="effect1_innerShadow_23_41001" result="effect2_innerShadow_23_41001"/>
</filter>
<filter id="filter5_i_23_41001" x="182.295" y="75.3032" width="43.3281" height="43.731" filterUnits="userSpaceOnUse" color-interpolation-filters="sRGB">
<feFlood flood-opacity="0" result="BackgroundImageFix"/>
<feBlend mode="normal" in="SourceGraphic" in2="BackgroundImageFix" result="shape"/>
<feColorMatrix in="SourceAlpha" type="matrix" values="0 0 0 0 0 0 0 0 0 0 0 0 0 0 0 0 0 0 127 0" result="hardAlpha"/>
<feOffset dx="10" dy="8"/>
<feGaussianBlur stdDeviation="6"/>
<feComposite in2="hardAlpha" operator="arithmetic" k2="-1" k3="1"/>
<feColorMatrix type="matrix" values="0 0 0 0 1 0 0 0 0 1 0 0 0 0 1 0 0 0 0.25 0"/>
<feBlend mode="normal" in2="shape" result="effect1_innerShadow_23_41001"/>
</filter>
<filter id="filter6_ii_23_41001" x="18.3555" y="112.683" width="214.096" height="246.649" filterUnits="userSpaceOnUse" color-interpolation-filters="sRGB">
<feFlood flood-opacity="0" result="BackgroundImageFix"/>
<feBlend mode="normal" in="SourceGraphic" in2="BackgroundImageFix" result="shape"/>
<feColorMatrix in="SourceAlpha" type="matrix" values="0 0 0 0 0 0 0 0 0 0 0 0 0 0 0 0 0 0 127 0" result="hardAlpha"/>
<feOffset dx="11" dy="-2"/>
<feGaussianBlur stdDeviation="8"/>
<feComposite in2="hardAlpha" operator="arithmetic" k2="-1" k3="1"/>
<feColorMatrix type="matrix" values="0 0 0 0 0 0 0 0 0 0 0 0 0 0 0 0 0 0 0.35 0"/>
<feBlend mode="normal" in2="shape" result="effect1_innerShadow_23_41001"/>
<feColorMatrix in="SourceAlpha" type="matrix" values="0 0 0 0 0 0 0 0 0 0 0 0 0 0 0 0 0 0 127 0" result="hardAlpha"/>
<feOffset dx="2" dy="10"/>
<feGaussianBlur stdDeviation="8"/>
<feComposite in2="hardAlpha" operator="arithmetic" k2="-1" k3="1"/>
<feColorMatrix type="matrix" values="0 0 0 0 1 0 0 0 0 1 0 0 0 0 1 0 0 0 0.25 0"/>
<feBlend mode="normal" in2="effect1_innerShadow_23_41001" result="effect2_innerShadow_23_41001"/>
</filter>
<filter id="filter7_i_23_41001" x="7.36914" y="105.303" width="39.3281" height="43.731" filterUnits="userSpaceOnUse" color-interpolation-filters="sRGB">
<feFlood flood-opacity="0" result="BackgroundImageFix"/>
<feBlend mode="normal" in="SourceGraphic" in2="BackgroundImageFix" result="shape"/>
<feColorMatrix in="SourceAlpha" type="matrix" values="0 0 0 0 0 0 0 0 0 0 0 0 0 0 0 0 0 0 127 0" result="hardAlpha"/>
<feOffset dx="-6" dy="8"/>
<feGaussianBlur stdDeviation="6"/>
<feComposite in2="hardAlpha" operator="arithmetic" k2="-1" k3="1"/>
<feColorMatrix type="matrix" values="0 0 0 0 1 0 0 0 0 1 0 0 0 0 1 0 0 0 0.25 0"/>
<feBlend mode="normal" in2="shape" result="effect1_innerShadow_23_41001"/>
</filter>
<filter id="filter8_ii_23_41001" x="-3.45898" y="146.683" width="214.096" height="246.649" filterUnits="userSpaceOnUse" color-interpolation-filters="sRGB">
<feFlood flood-opacity="0" result="BackgroundImageFix"/>
<feBlend mode="normal" in="SourceGraphic" in2="BackgroundImageFix" result="shape"/>
<feColorMatrix in="SourceAlpha" type="matrix" values="0 0 0 0 0 0 0 0 0 0 0 0 0 0 0 0 0 0 127 0" result="hardAlpha"/>
<feOffset dx="-11" dy="-2"/>
<feGaussianBlur stdDeviation="8"/>
<feComposite in2="hardAlpha" operator="arithmetic" k2="-1" k3="1"/>
<feColorMatrix type="matrix" values="0 0 0 0 0 0 0 0 0 0 0 0 0 0 0 0 0 0 0.35 0"/>
<feBlend mode="normal" in2="shape" result="effect1_innerShadow_23_41001"/>
<feColorMatrix in="SourceAlpha" type="matrix" values="0 0 0 0 0 0 0 0 0 0 0 0 0 0 0 0 0 0 127 0" result="hardAlpha"/>
<feOffset dx="-2" dy="10"/>
<feGaussianBlur stdDeviation="8"/>
<feComposite in2="hardAlpha" operator="arithmetic" k2="-1" k3="1"/>
<feColorMatrix type="matrix" values="0 0 0 0 1 0 0 0 0 1 0 0 0 0 1 0 0 0 0.25 0"/>
<feBlend mode="normal" in2="effect1_innerShadow_23_41001" result="effect2_innerShadow_23_41001"/>
</filter>
<filter id="filter9_i_23_41001" x="182.295" y="139.303" width="43.3281" height="43.731" filterUnits="userSpaceOnUse" color-interpolation-filters="sRGB">
<feFlood flood-opacity="0" result="BackgroundImageFix"/>
<feBlend mode="normal" in="SourceGraphic" in2="BackgroundImageFix" result="shape"/>
<feColorMatrix in="SourceAlpha" type="matrix" values="0 0 0 0 0 0 0 0 0 0 0 0 0 0 0 0 0 0 127 0" result="hardAlpha"/>
<feOffset dx="10" dy="8"/>
<feGaussianBlur stdDeviation="6"/>
<feComposite in2="hardAlpha" operator="arithmetic" k2="-1" k3="1"/>
<feColorMatrix type="matrix" values="0 0 0 0 1 0 0 0 0 1 0 0 0 0 1 0 0 0 0.25 0"/>
<feBlend mode="normal" in2="shape" result="effect1_innerShadow_23_41001"/>
</filter>
<filter id="filter10_ii_23_41001" x="18.3555" y="176.683" width="214.096" height="246.649" filterUnits="userSpaceOnUse" color-interpolation-filters="sRGB">
<feFlood flood-opacity="0" result="BackgroundImageFix"/>
<feBlend mode="normal" in="SourceGraphic" in2="BackgroundImageFix" result="shape"/>
<feColorMatrix in="SourceAlpha" type="matrix" values="0 0 0 0 0 0 0 0 0 0 0 0 0 0 0 0 0 0 127 0" result="hardAlpha"/>
<feOffset dx="11" dy="-2"/>
<feGaussianBlur stdDeviation="8"/>
<feComposite in2="hardAlpha" operator="arithmetic" k2="-1" k3="1"/>
<feColorMatrix type="matrix" values="0 0 0 0 0 0 0 0 0 0 0 0 0 0 0 0 0 0 0.35 0"/>
<feBlend mode="normal" in2="shape" result="effect1_innerShadow_23_41001"/>
<feColorMatrix in="SourceAlpha" type="matrix" values="0 0 0 0 0 0 0 0 0 0 0 0 0 0 0 0 0 0 127 0" result="hardAlpha"/>
<feOffset dx="2" dy="10"/>
<feGaussianBlur stdDeviation="8"/>
<feComposite in2="hardAlpha" operator="arithmetic" k2="-1" k3="1"/>
<feColorMatrix type="matrix" values="0 0 0 0 1 0 0 0 0 1 0 0 0 0 1 0 0 0 0.25 0"/>
<feBlend mode="normal" in2="effect1_innerShadow_23_41001" result="effect2_innerShadow_23_41001"/>
</filter>
<filter id="filter11_i_23_41001" x="7.36914" y="169.303" width="39.3281" height="43.731" filterUnits="userSpaceOnUse" color-interpolation-filters="sRGB">
<feFlood flood-opacity="0" result="BackgroundImageFix"/>
<feBlend mode="normal" in="SourceGraphic" in2="BackgroundImageFix" result="shape"/>
<feColorMatrix in="SourceAlpha" type="matrix" values="0 0 0 0 0 0 0 0 0 0 0 0 0 0 0 0 0 0 127 0" result="hardAlpha"/>
<feOffset dx="-6" dy="8"/>
<feGaussianBlur stdDeviation="6"/>
<feComposite in2="hardAlpha" operator="arithmetic" k2="-1" k3="1"/>
<feColorMatrix type="matrix" values="0 0 0 0 1 0 0 0 0 1 0 0 0 0 1 0 0 0 0.25 0"/>
<feBlend mode="normal" in2="shape" result="effect1_innerShadow_23_41001"/>
</filter>
<filter id="filter12_ii_23_41001" x="-3.45898" y="210.683" width="214.096" height="246.649" filterUnits="userSpaceOnUse" color-interpolation-filters="sRGB">
<feFlood flood-opacity="0" result="BackgroundImageFix"/>
<feBlend mode="normal" in="SourceGraphic" in2="BackgroundImageFix" result="shape"/>
<feColorMatrix in="SourceAlpha" type="matrix" values="0 0 0 0 0 0 0 0 0 0 0 0 0 0 0 0 0 0 127 0" result="hardAlpha"/>
<feOffset dx="-11" dy="-2"/>
<feGaussianBlur stdDeviation="8"/>
<feComposite in2="hardAlpha" operator="arithmetic" k2="-1" k3="1"/>
<feColorMatrix type="matrix" values="0 0 0 0 0 0 0 0 0 0 0 0 0 0 0 0 0 0 0.35 0"/>
<feBlend mode="normal" in2="shape" result="effect1_innerShadow_23_41001"/>
<feColorMatrix in="SourceAlpha" type="matrix" values="0 0 0 0 0 0 0 0 0 0 0 0 0 0 0 0 0 0 127 0" result="hardAlpha"/>
<feOffset dx="-2" dy="10"/>
<feGaussianBlur stdDeviation="8"/>
<feComposite in2="hardAlpha" operator="arithmetic" k2="-1" k3="1"/>
<feColorMatrix type="matrix" values="0 0 0 0 1 0 0 0 0 1 0 0 0 0 1 0 0 0 0.25 0"/>
<feBlend mode="normal" in2="effect1_innerShadow_23_41001" result="effect2_innerShadow_23_41001"/>
</filter>
<filter id="filter13_i_23_41001" x="182.295" y="203.303" width="43.3281" height="43.731" filterUnits="userSpaceOnUse" color-interpolation-filters="sRGB">
<feFlood flood-opacity="0" result="BackgroundImageFix"/>
<feBlend mode="normal" in="SourceGraphic" in2="BackgroundImageFix" result="shape"/>
<feColorMatrix in="SourceAlpha" type="matrix" values="0 0 0 0 0 0 0 0 0 0 0 0 0 0 0 0 0 0 127 0" result="hardAlpha"/>
<feOffset dx="10" dy="8"/>
<feGaussianBlur stdDeviation="6"/>
<feComposite in2="hardAlpha" operator="arithmetic" k2="-1" k3="1"/>
<feColorMatrix type="matrix" values="0 0 0 0 1 0 0 0 0 1 0 0 0 0 1 0 0 0 0.25 0"/>
<feBlend mode="normal" in2="shape" result="effect1_innerShadow_23_41001"/>
</filter>
<filter id="filter14_ii_23_41001" x="18.3555" y="240.683" width="214.096" height="246.649" filterUnits="userSpaceOnUse" color-interpolation-filters="sRGB">
<feFlood flood-opacity="0" result="BackgroundImageFix"/>
<feBlend mode="normal" in="SourceGraphic" in2="BackgroundImageFix" result="shape"/>
<feColorMatrix in="SourceAlpha" type="matrix" values="0 0 0 0 0 0 0 0 0 0 0 0 0 0 0 0 0 0 127 0" result="hardAlpha"/>
<feOffset dx="11" dy="-2"/>
<feGaussianBlur stdDeviation="8"/>
<feComposite in2="hardAlpha" operator="arithmetic" k2="-1" k3="1"/>
<feColorMatrix type="matrix" values="0 0 0 0 0 0 0 0 0 0 0 0 0 0 0 0 0 0 0.35 0"/>
<feBlend mode="normal" in2="shape" result="effect1_innerShadow_23_41001"/>
<feColorMatrix in="SourceAlpha" type="matrix" values="0 0 0 0 0 0 0 0 0 0 0 0 0 0 0 0 0 0 127 0" result="hardAlpha"/>
<feOffset dx="2" dy="10"/>
<feGaussianBlur stdDeviation="8"/>
<feComposite in2="hardAlpha" operator="arithmetic" k2="-1" k3="1"/>
<feColorMatrix type="matrix" values="0 0 0 0 1 0 0 0 0 1 0 0 0 0 1 0 0 0 0.25 0"/>
<feBlend mode="normal" in2="effect1_innerShadow_23_41001" result="effect2_innerShadow_23_41001"/>
</filter>
<filter id="filter15_i_23_41001" x="7.36914" y="233.303" width="39.3281" height="43.731" filterUnits="userSpaceOnUse" color-interpolation-filters="sRGB">
<feFlood flood-opacity="0" result="BackgroundImageFix"/>
<feBlend mode="normal" in="SourceGraphic" in2="BackgroundImageFix" result="shape"/>
<feColorMatrix in="SourceAlpha" type="matrix" values="0 0 0 0 0 0 0 0 0 0 0 0 0 0 0 0 0 0 127 0" result="hardAlpha"/>
<feOffset dx="-6" dy="8"/>
<feGaussianBlur stdDeviation="6"/>
<feComposite in2="hardAlpha" operator="arithmetic" k2="-1" k3="1"/>
<feColorMatrix type="matrix" values="0 0 0 0 1 0 0 0 0 1 0 0 0 0 1 0 0 0 0.25 0"/>
<feBlend mode="normal" in2="shape" result="effect1_innerShadow_23_41001"/>
</filter>
<filter id="filter16_ii_23_41001" x="79" y="30" width="64" height="340" filterUnits="userSpaceOnUse" color-interpolation-filters="sRGB">
<feFlood flood-opacity="0" result="BackgroundImageFix"/>
<feBlend mode="normal" in="SourceGraphic" in2="BackgroundImageFix" result="shape"/>
<feColorMatrix in="SourceAlpha" type="matrix" values="0 0 0 0 0 0 0 0 0 0 0 0 0 0 0 0 0 0 127 0" result="hardAlpha"/>
<feOffset dx="16" dy="-24"/>
<feGaussianBlur stdDeviation="8"/>
<feComposite in2="hardAlpha" operator="arithmetic" k2="-1" k3="1"/>
<feColorMatrix type="matrix" values="0 0 0 0 0 0 0 0 0 0 0 0 0 0 0 0 0 0 0.25 0"/>
<feBlend mode="normal" in2="shape" result="effect1_innerShadow_23_41001"/>
<feColorMatrix in="SourceAlpha" type="matrix" values="0 0 0 0 0 0 0 0 0 0 0 0 0 0 0 0 0 0 127 0" result="hardAlpha"/>
<feOffset dx="-16" dy="8"/>
<feGaussianBlur stdDeviation="8"/>
<feComposite in2="hardAlpha" operator="arithmetic" k2="-1" k3="1"/>
<feColorMatrix type="matrix" values="0 0 0 0 1 0 0 0 0 1 0 0 0 0 1 0 0 0 0.15 0"/>
<feBlend mode="normal" in2="effect1_innerShadow_23_41001" result="effect2_innerShadow_23_41001"/>
</filter>
</defs>
</svg>
