<svg width="100" height="190" viewBox="0 0 100 190" fill="none" xmlns="http://www.w3.org/2000/svg">
<path d="M57.3916 155.682L45.4874 149.877L35.1017 146.283C33.3787 145.686 31.478 145.906 29.9363 146.879L9.61687 159.707C5.98672 161.999 5.86792 167.251 9.39073 169.704L29.267 183.548C31.4429 185.064 34.3556 184.971 36.4309 183.32L58.4967 165.771C61.9498 163.024 61.3574 157.616 57.3916 155.682Z" fill="black" fill-opacity="0.12"/>
<path d="M53.6973 159.031L50.4884 156.655C50.2628 156.488 50.0046 156.371 49.7305 156.31L28.6709 151.651C28.1026 151.526 27.5078 151.654 27.0416 152.002L14.5182 161.362C13.4335 162.173 13.4511 163.804 14.5531 164.591L32.116 177.136C32.8342 177.649 33.8038 177.631 34.5019 177.091L53.7308 162.22C54.78 161.409 54.7632 159.82 53.6973 159.031Z" fill="black" fill-opacity="0.2"/>
<path d="M59.6507 62.5808L22.4272 35.4548L60.2601 5.4318L59.6507 62.5808Z" fill="#2DD4BF"/>
<g filter="url(#filter0_i_1368_329712)">
<path d="M17.9794 163.653L22.4274 35.4545L59.6509 62.5806L33.1522 173.544L17.9794 163.653Z" fill="#14B8A6"/>
</g>
<path d="M59.6513 62.58L95.5222 40.6797L51.2006 160.154L33.1526 173.543L59.6513 62.58Z" fill="#2DD4BF"/>
<path d="M59.6516 62.581L60.261 5.43192L95.5225 40.6807L59.6516 62.581Z" fill="#99F6E4"/>
<defs>
<filter id="filter0_i_1368_329712" x="17.9795" y="9.4541" width="65.6714" height="164.09" filterUnits="userSpaceOnUse" color-interpolation-filters="sRGB">
<feFlood flood-opacity="0" result="BackgroundImageFix"/>
<feBlend mode="normal" in="SourceGraphic" in2="BackgroundImageFix" result="shape"/>
<feColorMatrix in="SourceAlpha" type="matrix" values="0 0 0 0 0 0 0 0 0 0 0 0 0 0 0 0 0 0 127 0" result="hardAlpha"/>
<feOffset dx="24" dy="-52"/>
<feGaussianBlur stdDeviation="13"/>
<feComposite in2="hardAlpha" operator="arithmetic" k2="-1" k3="1"/>
<feColorMatrix type="matrix" values="0 0 0 0 0 0 0 0 0 0 0 0 0 0 0 0 0 0 0.25 0"/>
<feBlend mode="normal" in2="shape" result="effect1_innerShadow_1368_329712"/>
</filter>
</defs>
</svg>
