<svg width="1878" height="1559" viewBox="0 0 1878 1559" fill="none" xmlns="http://www.w3.org/2000/svg">
<g filter="url(#filter0_dddd_1368_327119)">
<path d="M1628 658.324C1628 961.307 1417.67 1364 1114.55 1364C811.437 1364 250 1119.8 250 816.818C250 513.835 642.636 280.953 850.279 443.223C1057.92 605.492 1628 355.342 1628 658.324Z" fill="#DC2626"/>
</g>
<g filter="url(#filter1_d_1368_327119)">
<path d="M1519 681C1519 797.397 1490.27 1022.15 1403 1123C1300.08 1241.93 1245 1187 995 1253C745 1319 719 1107 601 1073C483 1039 362.644 916.402 362.644 813.049C362.644 559.39 585 409 741.024 481.027C897.048 553.054 876.287 603 1068.64 567C1261 531 1519 516.047 1519 681Z" fill="#EF4444"/>
</g>
<g filter="url(#filter2_d_1368_327119)">
<path d="M1407.12 681C1495.12 897.001 1253.12 867 1205.12 1055C1174.66 1174.29 882.204 1191.41 775.116 1119C713.428 1077.29 793.116 1011 615.116 971C437.116 931 464.714 720.489 519.116 641.001C584.466 545.516 825.116 535.001 911.116 641.001C997.116 747.001 1319.12 465 1407.12 681Z" fill="#FB923C"/>
</g>
<g filter="url(#filter3_d_1368_327119)">
<path d="M569.194 688.149L591.76 660.552C603.081 646.705 618.353 636.637 635.541 631.689L681.83 618.364C713.604 609.217 747.824 618.653 770.42 642.792L811.511 686.69C824.504 700.57 841.712 709.632 859.989 714.868C891.167 723.799 935.694 741.717 927.039 769.7C913.946 812.03 847.305 911.048 792.2 919.209C737.095 927.371 675.46 934.777 630.082 903.26C600.968 883.039 571.847 815.263 554.712 769.278C544.416 741.646 550.529 710.977 569.194 688.149Z" fill="#FACC15"/>
</g>
<g filter="url(#filter4_d_1368_327119)">
<path d="M1248.42 653.913C1259.68 661.427 1272.29 671.94 1283.73 682.242C1306.87 703.067 1314.58 735.55 1306.06 765.492L1290.68 819.606C1281.91 850.443 1257.08 874.927 1225.1 877.276C1212.7 878.186 1199.94 878.269 1189.18 876.551C1171.04 873.654 1131.81 864.933 1106.89 859.258C1092.26 855.927 1078.56 848.937 1069.58 836.917C1057.1 820.22 1041.25 792.383 1040.4 757.929C1039.52 722.182 1075.21 708.406 1102.13 703.101C1120.85 699.412 1139.4 693.364 1155.41 682.979C1183.33 664.868 1228.09 640.346 1248.42 653.913Z" fill="#FACC15"/>
</g>
<g filter="url(#filter5_d_1368_327119)">
<path d="M1065.65 862.688C1077.48 883.32 1090.81 912.925 1098.81 931.407C1102.69 940.375 1097.51 950.567 1088.03 952.902L1038.16 965.18C1035.35 965.872 1032.4 965.802 1029.75 964.638C1022.43 961.425 1007.03 952.95 997.415 935.51C988.465 919.267 991.012 857.999 993.441 821.676C994.262 809.41 1007.93 803.223 1017.4 811.063C1033.79 824.632 1055.15 844.378 1065.65 862.688Z" fill="#FACC15"/>
</g>
<g filter="url(#filter6_d_1368_327119)">
<path d="M922.24 832.45C909.711 845.229 894.58 863.836 884.482 876.674C878.476 884.31 880.847 895.416 889.349 900.116L919.73 916.909C920.241 917.191 920.754 917.441 921.304 917.635C925.84 919.232 948.391 925.777 960.715 903.192C969.469 887.147 977.603 848.496 982.356 822.542C984.497 810.851 973.476 801.675 962.661 806.606C949.086 812.795 932.775 821.704 922.24 832.45Z" fill="#FACC15"/>
</g>
<g filter="url(#filter7_d_1368_327119)">
<path d="M852.714 1061.32C847.172 1085.11 836.63 1076.37 826.684 1065.7C816.739 1055.04 805.147 1050.8 810.689 1027.02C816.231 1003.23 830.793 983.978 840.738 994.645C850.684 1005.31 858.255 1037.53 852.714 1061.32Z" fill="#FACC15"/>
</g>
<g filter="url(#filter8_d_1368_327119)">
<path d="M996.035 1006.49C991.933 971.285 1009.18 979.447 1026.58 990.52C1043.98 1001.59 1060.45 1003.09 1064.55 1038.3C1068.65 1073.51 1059.36 1105.83 1041.96 1094.75C1024.57 1083.68 1000.14 1041.71 996.035 1006.49Z" fill="#FACC15"/>
</g>
<g filter="url(#filter9_d_1368_327119)">
<path d="M937.642 1015.4C934.798 1042.4 947.941 1036 961.173 1027.38C974.405 1018.75 987.01 1017.46 989.854 990.456C992.697 963.451 985.305 938.776 972.073 947.405C958.841 956.034 940.485 988.393 937.642 1015.4Z" fill="#FACC15"/>
</g>
<g filter="url(#filter10_d_1368_327119)">
<path d="M929.78 967.575C928.73 927.363 912.724 940.581 896.995 957.079C881.266 973.577 865.061 979.182 866.111 1019.39C867.161 1059.61 881.142 1093.39 896.871 1076.9C912.6 1060.4 930.829 1007.79 929.78 967.575Z" fill="#FACC15"/>
</g>
<g filter="url(#filter11_d_1368_327119)">
<path d="M1131.03 1057.18C1128.96 1087.58 1115.08 1078.35 1101.53 1066.62C1087.99 1054.9 1073.72 1051.42 1075.79 1021.02C1077.85 990.615 1091.26 964.463 1104.8 976.187C1118.34 987.91 1133.1 1026.78 1131.03 1057.18Z" fill="#FACC15"/>
</g>
<defs>
<filter id="filter0_dddd_1368_327119" x="0" y="0" width="1878" height="1474" filterUnits="userSpaceOnUse" color-interpolation-filters="sRGB">
<feFlood flood-opacity="0" result="BackgroundImageFix"/>
<feColorMatrix in="SourceAlpha" type="matrix" values="0 0 0 0 0 0 0 0 0 0 0 0 0 0 0 0 0 0 127 0" result="hardAlpha"/>
<feOffset dy="-76"/>
<feComposite in2="hardAlpha" operator="out"/>
<feColorMatrix type="matrix" values="0 0 0 0 0 0 0 0 0 0 0 0 0 0 0 0 0 0 0.1 0"/>
<feBlend mode="normal" in2="BackgroundImageFix" result="effect1_dropShadow_1368_327119"/>
<feColorMatrix in="SourceAlpha" type="matrix" values="0 0 0 0 0 0 0 0 0 0 0 0 0 0 0 0 0 0 127 0" result="hardAlpha"/>
<feOffset dy="-44"/>
<feComposite in2="hardAlpha" operator="out"/>
<feColorMatrix type="matrix" values="0 0 0 0 0 0 0 0 0 0 0 0 0 0 0 0 0 0 0.25 0"/>
<feBlend mode="normal" in2="effect1_dropShadow_1368_327119" result="effect2_dropShadow_1368_327119"/>
<feColorMatrix in="SourceAlpha" type="matrix" values="0 0 0 0 0 0 0 0 0 0 0 0 0 0 0 0 0 0 127 0" result="hardAlpha"/>
<feOffset dy="12"/>
<feComposite in2="hardAlpha" operator="out"/>
<feColorMatrix type="matrix" values="0 0 0 0 1 0 0 0 0 1 0 0 0 0 1 0 0 0 0.25 0"/>
<feBlend mode="normal" in2="effect2_dropShadow_1368_327119" result="effect3_dropShadow_1368_327119"/>
<feColorMatrix in="SourceAlpha" type="matrix" values="0 0 0 0 0 0 0 0 0 0 0 0 0 0 0 0 0 0 127 0" result="hardAlpha"/>
<feOffset dy="-140"/>
<feGaussianBlur stdDeviation="125"/>
<feComposite in2="hardAlpha" operator="out"/>
<feColorMatrix type="matrix" values="0 0 0 0 1 0 0 0 0 0.24 0 0 0 0 0 0 0 0 0.5 0"/>
<feBlend mode="normal" in2="effect3_dropShadow_1368_327119" result="effect4_dropShadow_1368_327119"/>
<feBlend mode="normal" in="SourceGraphic" in2="effect4_dropShadow_1368_327119" result="shape"/>
</filter>
<filter id="filter1_d_1368_327119" x="73.9196" y="178.887" width="1733.8" height="1380.11" filterUnits="userSpaceOnUse" color-interpolation-filters="sRGB">
<feFlood flood-opacity="0" result="BackgroundImageFix"/>
<feColorMatrix in="SourceAlpha" type="matrix" values="0 0 0 0 0 0 0 0 0 0 0 0 0 0 0 0 0 0 127 0" result="hardAlpha"/>
<feOffset dy="4.61958"/>
<feGaussianBlur stdDeviation="144.362"/>
<feComposite in2="hardAlpha" operator="out"/>
<feColorMatrix type="matrix" values="0 0 0 0 1 0 0 0 0 0.193167 0 0 0 0 0.141667 0 0 0 1 0"/>
<feBlend mode="normal" in2="BackgroundImageFix" result="effect1_dropShadow_1368_327119"/>
<feBlend mode="normal" in="SourceGraphic" in2="effect1_dropShadow_1368_327119" result="shape"/>
</filter>
<filter id="filter2_d_1368_327119" x="346" y="437.393" width="1212.21" height="860.727" filterUnits="userSpaceOnUse" color-interpolation-filters="sRGB">
<feFlood flood-opacity="0" result="BackgroundImageFix"/>
<feColorMatrix in="SourceAlpha" type="matrix" values="0 0 0 0 0 0 0 0 0 0 0 0 0 0 0 0 0 0 127 0" result="hardAlpha"/>
<feOffset dy="4"/>
<feGaussianBlur stdDeviation="66"/>
<feComposite in2="hardAlpha" operator="out"/>
<feColorMatrix type="matrix" values="0 0 0 0 1 0 0 0 0 0.6 0 0 0 0 0 0 0 0 1 0"/>
<feBlend mode="normal" in2="BackgroundImageFix" result="effect1_dropShadow_1368_327119"/>
<feBlend mode="normal" in="SourceGraphic" in2="effect1_dropShadow_1368_327119" result="shape"/>
</filter>
<filter id="filter3_d_1368_327119" x="417.741" y="486.927" width="642.394" height="575.366" filterUnits="userSpaceOnUse" color-interpolation-filters="sRGB">
<feFlood flood-opacity="0" result="BackgroundImageFix"/>
<feColorMatrix in="SourceAlpha" type="matrix" values="0 0 0 0 0 0 0 0 0 0 0 0 0 0 0 0 0 0 127 0" result="hardAlpha"/>
<feOffset dy="4"/>
<feGaussianBlur stdDeviation="66"/>
<feComposite in2="hardAlpha" operator="out"/>
<feColorMatrix type="matrix" values="0 0 0 0 1 0 0 0 0 0.78 0 0 0 0 0 0 0 0 1 0"/>
<feBlend mode="normal" in2="BackgroundImageFix" result="effect1_dropShadow_1368_327119"/>
<feBlend mode="normal" in="SourceGraphic" in2="effect1_dropShadow_1368_327119" result="shape"/>
</filter>
<filter id="filter4_d_1368_327119" x="908.385" y="521.987" width="533.047" height="491.927" filterUnits="userSpaceOnUse" color-interpolation-filters="sRGB">
<feFlood flood-opacity="0" result="BackgroundImageFix"/>
<feColorMatrix in="SourceAlpha" type="matrix" values="0 0 0 0 0 0 0 0 0 0 0 0 0 0 0 0 0 0 127 0" result="hardAlpha"/>
<feOffset dy="4"/>
<feGaussianBlur stdDeviation="66"/>
<feComposite in2="hardAlpha" operator="out"/>
<feColorMatrix type="matrix" values="0 0 0 0 1 0 0 0 0 0.78 0 0 0 0 0 0 0 0 1 0"/>
<feBlend mode="normal" in2="BackgroundImageFix" result="effect1_dropShadow_1368_327119"/>
<feBlend mode="normal" in="SourceGraphic" in2="effect1_dropShadow_1368_327119" result="shape"/>
</filter>
<filter id="filter5_d_1368_327119" x="859.145" y="679.578" width="372.965" height="422.046" filterUnits="userSpaceOnUse" color-interpolation-filters="sRGB">
<feFlood flood-opacity="0" result="BackgroundImageFix"/>
<feColorMatrix in="SourceAlpha" type="matrix" values="0 0 0 0 0 0 0 0 0 0 0 0 0 0 0 0 0 0 127 0" result="hardAlpha"/>
<feOffset dy="4"/>
<feGaussianBlur stdDeviation="66"/>
<feComposite in2="hardAlpha" operator="out"/>
<feColorMatrix type="matrix" values="0 0 0 0 1 0 0 0 0 0.78 0 0 0 0 0 0 0 0 1 0"/>
<feBlend mode="normal" in2="BackgroundImageFix" result="effect1_dropShadow_1368_327119"/>
<feBlend mode="normal" in="SourceGraphic" in2="effect1_dropShadow_1368_327119" result="shape"/>
</filter>
<filter id="filter6_d_1368_327119" x="749.141" y="677.244" width="365.484" height="378.502" filterUnits="userSpaceOnUse" color-interpolation-filters="sRGB">
<feFlood flood-opacity="0" result="BackgroundImageFix"/>
<feColorMatrix in="SourceAlpha" type="matrix" values="0 0 0 0 0 0 0 0 0 0 0 0 0 0 0 0 0 0 127 0" result="hardAlpha"/>
<feOffset dy="4"/>
<feGaussianBlur stdDeviation="66"/>
<feComposite in2="hardAlpha" operator="out"/>
<feColorMatrix type="matrix" values="0 0 0 0 1 0 0 0 0 0.78 0 0 0 0 0 0 0 0 1 0"/>
<feBlend mode="normal" in2="BackgroundImageFix" result="effect1_dropShadow_1368_327119"/>
<feBlend mode="normal" in="SourceGraphic" in2="effect1_dropShadow_1368_327119" result="shape"/>
</filter>
<filter id="filter7_d_1368_327119" x="677.252" y="863.63" width="309.336" height="348.854" filterUnits="userSpaceOnUse" color-interpolation-filters="sRGB">
<feFlood flood-opacity="0" result="BackgroundImageFix"/>
<feColorMatrix in="SourceAlpha" type="matrix" values="0 0 0 0 0 0 0 0 0 0 0 0 0 0 0 0 0 0 127 0" result="hardAlpha"/>
<feOffset dy="4"/>
<feGaussianBlur stdDeviation="66"/>
<feComposite in2="hardAlpha" operator="out"/>
<feColorMatrix type="matrix" values="0 0 0 0 1 0 0 0 0 0.78 0 0 0 0 0 0 0 0 1 0"/>
<feBlend mode="normal" in2="BackgroundImageFix" result="effect1_dropShadow_1368_327119"/>
<feBlend mode="normal" in="SourceGraphic" in2="effect1_dropShadow_1368_327119" result="shape"/>
</filter>
<filter id="filter8_d_1368_327119" x="863.424" y="853.024" width="334.09" height="379.941" filterUnits="userSpaceOnUse" color-interpolation-filters="sRGB">
<feFlood flood-opacity="0" result="BackgroundImageFix"/>
<feColorMatrix in="SourceAlpha" type="matrix" values="0 0 0 0 0 0 0 0 0 0 0 0 0 0 0 0 0 0 127 0" result="hardAlpha"/>
<feOffset dy="4"/>
<feGaussianBlur stdDeviation="66"/>
<feComposite in2="hardAlpha" operator="out"/>
<feColorMatrix type="matrix" values="0 0 0 0 1 0 0 0 0 0.78 0 0 0 0 0 0 0 0 1 0"/>
<feBlend mode="normal" in2="BackgroundImageFix" result="effect1_dropShadow_1368_327119"/>
<feBlend mode="normal" in="SourceGraphic" in2="effect1_dropShadow_1368_327119" result="shape"/>
</filter>
<filter id="filter9_d_1368_327119" x="805.25" y="817.653" width="317.209" height="353.18" filterUnits="userSpaceOnUse" color-interpolation-filters="sRGB">
<feFlood flood-opacity="0" result="BackgroundImageFix"/>
<feColorMatrix in="SourceAlpha" type="matrix" values="0 0 0 0 0 0 0 0 0 0 0 0 0 0 0 0 0 0 127 0" result="hardAlpha"/>
<feOffset dy="4"/>
<feGaussianBlur stdDeviation="66"/>
<feComposite in2="hardAlpha" operator="out"/>
<feColorMatrix type="matrix" values="0 0 0 0 1 0 0 0 0 0.78 0 0 0 0 0 0 0 0 1 0"/>
<feBlend mode="normal" in2="BackgroundImageFix" result="effect1_dropShadow_1368_327119"/>
<feBlend mode="normal" in="SourceGraphic" in2="effect1_dropShadow_1368_327119" result="shape"/>
</filter>
<filter id="filter10_d_1368_327119" x="734.062" y="813.049" width="327.76" height="404.125" filterUnits="userSpaceOnUse" color-interpolation-filters="sRGB">
<feFlood flood-opacity="0" result="BackgroundImageFix"/>
<feColorMatrix in="SourceAlpha" type="matrix" values="0 0 0 0 0 0 0 0 0 0 0 0 0 0 0 0 0 0 127 0" result="hardAlpha"/>
<feOffset dy="4"/>
<feGaussianBlur stdDeviation="66"/>
<feComposite in2="hardAlpha" operator="out"/>
<feColorMatrix type="matrix" values="0 0 0 0 1 0 0 0 0 0.78 0 0 0 0 0 0 0 0 1 0"/>
<feBlend mode="normal" in2="BackgroundImageFix" result="effect1_dropShadow_1368_327119"/>
<feBlend mode="normal" in="SourceGraphic" in2="effect1_dropShadow_1368_327119" result="shape"/>
</filter>
<filter id="filter11_d_1368_327119" x="943.584" y="845.325" width="319.639" height="368.372" filterUnits="userSpaceOnUse" color-interpolation-filters="sRGB">
<feFlood flood-opacity="0" result="BackgroundImageFix"/>
<feColorMatrix in="SourceAlpha" type="matrix" values="0 0 0 0 0 0 0 0 0 0 0 0 0 0 0 0 0 0 127 0" result="hardAlpha"/>
<feOffset dy="4"/>
<feGaussianBlur stdDeviation="66"/>
<feComposite in2="hardAlpha" operator="out"/>
<feColorMatrix type="matrix" values="0 0 0 0 1 0 0 0 0 0.78 0 0 0 0 0 0 0 0 1 0"/>
<feBlend mode="normal" in2="BackgroundImageFix" result="effect1_dropShadow_1368_327119"/>
<feBlend mode="normal" in="SourceGraphic" in2="effect1_dropShadow_1368_327119" result="shape"/>
</filter>
</defs>
</svg>
