<svg width="1418" height="1052" viewBox="0 0 1418 1052" fill="none" xmlns="http://www.w3.org/2000/svg">
<path d="M180.76 352.722L486.329 305.361L611.139 189.111L890.886 103L1298 164L1418 388L1360 700L1205.06 768L1054 1052L492 1029L307 860H115L0 598.139L180.76 352.722Z" fill="black" fill-opacity="0.12"/>
<path d="M94 518L123 460L536 270L1387 304L1403 389L1352 660L1219 706L1032 990L553 944L389 786L196 775L94 518Z" fill="#44403C"/>
<g filter="url(#filter0_i_1368_327111)">
<path d="M553 944L603 832L971 864L1032 990L553 944Z" fill="#44403C"/>
</g>
<g filter="url(#filter1_i_1368_327111)">
<path d="M196 775L231 676H411L389 786L196 775Z" fill="#44403C"/>
</g>
<g filter="url(#filter2_i_1368_327111)">
<path d="M1219 706L1151 628L1311 584L1352 660L1219 706Z" fill="#44403C"/>
</g>
<g filter="url(#filter3_i_1368_327111)">
<path d="M94 518L123 460L234 671L196 775L94 518Z" fill="#44403C"/>
</g>
<g filter="url(#filter4_i_1368_327111)">
<path d="M389 786L411.5 674.5L603.5 832L553 944L389 786Z" fill="#44403C"/>
</g>
<g filter="url(#filter5_i_1368_327111)">
<path d="M291 232L575 188L691 80L951 0L1243 40L1387 304L1311 584L1151 628L971 864L603 832L411 676H231L123 460L291 232Z" fill="#57534E"/>
</g>
<defs>
<filter id="filter0_i_1368_327111" x="553" y="832" width="479" height="158" filterUnits="userSpaceOnUse" color-interpolation-filters="sRGB">
<feFlood flood-opacity="0" result="BackgroundImageFix"/>
<feBlend mode="normal" in="SourceGraphic" in2="BackgroundImageFix" result="shape"/>
<feColorMatrix in="SourceAlpha" type="matrix" values="0 0 0 0 0 0 0 0 0 0 0 0 0 0 0 0 0 0 127 0" result="hardAlpha"/>
<feOffset dy="-471"/>
<feComposite in2="hardAlpha" operator="arithmetic" k2="-1" k3="1"/>
<feColorMatrix type="matrix" values="0 0 0 0 0 0 0 0 0 0 0 0 0 0 0 0 0 0 0.15 0"/>
<feBlend mode="normal" in2="shape" result="effect1_innerShadow_1368_327111"/>
</filter>
<filter id="filter1_i_1368_327111" x="196" y="676" width="215" height="110" filterUnits="userSpaceOnUse" color-interpolation-filters="sRGB">
<feFlood flood-opacity="0" result="BackgroundImageFix"/>
<feBlend mode="normal" in="SourceGraphic" in2="BackgroundImageFix" result="shape"/>
<feColorMatrix in="SourceAlpha" type="matrix" values="0 0 0 0 0 0 0 0 0 0 0 0 0 0 0 0 0 0 127 0" result="hardAlpha"/>
<feOffset dy="-471"/>
<feComposite in2="hardAlpha" operator="arithmetic" k2="-1" k3="1"/>
<feColorMatrix type="matrix" values="0 0 0 0 0 0 0 0 0 0 0 0 0 0 0 0 0 0 0.15 0"/>
<feBlend mode="normal" in2="shape" result="effect1_innerShadow_1368_327111"/>
</filter>
<filter id="filter2_i_1368_327111" x="1151" y="584" width="201" height="122" filterUnits="userSpaceOnUse" color-interpolation-filters="sRGB">
<feFlood flood-opacity="0" result="BackgroundImageFix"/>
<feBlend mode="normal" in="SourceGraphic" in2="BackgroundImageFix" result="shape"/>
<feColorMatrix in="SourceAlpha" type="matrix" values="0 0 0 0 0 0 0 0 0 0 0 0 0 0 0 0 0 0 127 0" result="hardAlpha"/>
<feOffset dy="-471"/>
<feComposite in2="hardAlpha" operator="arithmetic" k2="-1" k3="1"/>
<feColorMatrix type="matrix" values="0 0 0 0 0 0 0 0 0 0 0 0 0 0 0 0 0 0 0.15 0"/>
<feBlend mode="normal" in2="shape" result="effect1_innerShadow_1368_327111"/>
</filter>
<filter id="filter3_i_1368_327111" x="94" y="460" width="140" height="315" filterUnits="userSpaceOnUse" color-interpolation-filters="sRGB">
<feFlood flood-opacity="0" result="BackgroundImageFix"/>
<feBlend mode="normal" in="SourceGraphic" in2="BackgroundImageFix" result="shape"/>
<feColorMatrix in="SourceAlpha" type="matrix" values="0 0 0 0 0 0 0 0 0 0 0 0 0 0 0 0 0 0 127 0" result="hardAlpha"/>
<feOffset dy="-471"/>
<feComposite in2="hardAlpha" operator="arithmetic" k2="-1" k3="1"/>
<feColorMatrix type="matrix" values="0 0 0 0 0 0 0 0 0 0 0 0 0 0 0 0 0 0 0.25 0"/>
<feBlend mode="normal" in2="shape" result="effect1_innerShadow_1368_327111"/>
</filter>
<filter id="filter4_i_1368_327111" x="389" y="674.5" width="214.5" height="269.5" filterUnits="userSpaceOnUse" color-interpolation-filters="sRGB">
<feFlood flood-opacity="0" result="BackgroundImageFix"/>
<feBlend mode="normal" in="SourceGraphic" in2="BackgroundImageFix" result="shape"/>
<feColorMatrix in="SourceAlpha" type="matrix" values="0 0 0 0 0 0 0 0 0 0 0 0 0 0 0 0 0 0 127 0" result="hardAlpha"/>
<feOffset dy="-471"/>
<feComposite in2="hardAlpha" operator="arithmetic" k2="-1" k3="1"/>
<feColorMatrix type="matrix" values="0 0 0 0 0 0 0 0 0 0 0 0 0 0 0 0 0 0 0.25 0"/>
<feBlend mode="normal" in2="shape" result="effect1_innerShadow_1368_327111"/>
</filter>
<filter id="filter5_i_1368_327111" x="123" y="0" width="1264" height="864" filterUnits="userSpaceOnUse" color-interpolation-filters="sRGB">
<feFlood flood-opacity="0" result="BackgroundImageFix"/>
<feBlend mode="normal" in="SourceGraphic" in2="BackgroundImageFix" result="shape"/>
<feColorMatrix in="SourceAlpha" type="matrix" values="0 0 0 0 0 0 0 0 0 0 0 0 0 0 0 0 0 0 127 0" result="hardAlpha"/>
<feOffset dy="-1000"/>
<feGaussianBlur stdDeviation="1.1172"/>
<feComposite in2="hardAlpha" operator="arithmetic" k2="-1" k3="1"/>
<feColorMatrix type="matrix" values="0 0 0 0 1 0 0 0 0 1 0 0 0 0 1 0 0 0 0.1 0"/>
<feBlend mode="normal" in2="shape" result="effect1_innerShadow_1368_327111"/>
</filter>
</defs>
</svg>
