<svg width="162" height="161" viewBox="0 0 162 161" fill="none" xmlns="http://www.w3.org/2000/svg">
<circle cx="100.5" cy="118.5" r="41.5" fill="black" fill-opacity="0.12"/>
<g filter="url(#filter0_d_33_159288)">
<g filter="url(#filter1_iii_33_159288)">
<path d="M66 108H136V119C136 138.33 120.33 154 101 154C81.67 154 66 138.33 66 119V108Z" fill="#1E293B"/>
</g>
<circle cx="101" cy="108" r="35" fill="#475569"/>
<mask id="mask0_33_159288" style="mask-type:alpha" maskUnits="userSpaceOnUse" x="74" y="81" width="54" height="54">
<path d="M128 108C128 122.912 115.912 135 101 135C86.0883 135 74 122.912 74 108C74 93.0883 86.0883 81 101 81C115.912 81 128 93.0883 128 108Z" fill="#C2410C"/>
</mask>
<g mask="url(#mask0_33_159288)">
<g filter="url(#filter2_i_33_159288)">
<path d="M128 108C128 122.912 115.912 135 101 135C86.0883 135 74 122.912 74 108C74 93.0883 86.0883 81 101 81C115.912 81 128 93.0883 128 108Z" fill="#334155"/>
</g>
<g filter="url(#filter3_i_33_159288)">
<path d="M128 112C128 126.912 115.912 139 101 139C86.0883 139 74 126.912 74 112C74 97.0883 86.0883 85 101 85C115.912 85 128 97.0883 128 112Z" fill="#A6815E"/>
</g>
</g>
</g>
<g filter="url(#filter4_i_33_159288)">
<path d="M102.38 74.9171C98.8335 75.1148 99.3946 68.2319 100.664 66.3863C101.934 64.5407 107.321 65.4131 113.113 62.2947C119.415 58.9013 116.609 57.1771 120.468 53.6755L130.007 45.9699C130.794 46.4034 124.922 55.4106 124.422 58.5775C123.829 63.6847 119.274 70.4031 102.38 74.9171Z" fill="#82644D"/>
</g>
<g filter="url(#filter5_i_33_159288)">
<path d="M132.526 32.0157C131.556 32.0157 130.631 32.1771 129.787 32.4695C128.49 30.9734 126.379 30 123.996 30C121.456 30 119.225 31.1059 117.959 32.7719C116.928 32.2903 115.739 32.0157 114.474 32.0157C110.912 32.0157 107.959 34.1901 107.42 37.0339C103.999 37.4758 101.381 39.9423 101.381 42.9188C101.381 43.348 101.435 43.7665 101.538 44.1699C99.955 45.7351 99 47.761 99 49.9738C99 53.9523 102.087 57.3264 106.363 58.5052C107.15 61.0802 109.95 62.9843 113.283 62.9843C114.29 62.9843 115.247 62.8108 116.115 62.4977C118.214 64.0549 120.974 65 123.996 65C126.877 65 129.518 64.1414 131.577 62.7125C132.253 62.8891 132.971 62.9843 133.717 62.9843C137.05 62.9843 139.85 61.0802 140.637 58.5052C144.913 57.3264 148 53.9523 148 49.9738C148 47.761 147.045 45.7351 145.462 44.1699C145.565 43.7665 145.619 43.348 145.619 42.9188C145.619 39.9423 143.001 37.4758 139.58 37.0339C139.041 34.1901 136.088 32.0157 132.526 32.0157Z" fill="#7AB87B"/>
</g>
<path d="M139.709 48.9202C140.126 48.0566 145.416 48.4764 144.205 51.2279C143.366 53.1326 139.666 50.6188 139.709 48.9202Z" fill="white" fill-opacity="0.2"/>
<path d="M106.176 52.1518C103.86 51.054 105.836 49.7299 107.194 49.0201C107.609 48.8031 108.115 49.0271 108.181 49.4669C108.486 51.4832 107.935 52.9856 106.176 52.1518Z" fill="black" fill-opacity="0.12"/>
<path d="M120.801 35.8745C119.603 36.176 114.815 37.3172 117.28 39.3755C118.986 40.8003 120.372 38.6266 120.801 35.8745Z" fill="black" fill-opacity="0.12"/>
<path d="M135.639 59.185C133.295 60.173 132.762 56.6933 132.749 54.7755C132.746 54.2841 133.263 54.0434 133.666 54.3471C135.715 55.8943 137.394 58.4454 135.639 59.185Z" fill="black" fill-opacity="0.12"/>
<path d="M131.709 36.9202C132.126 36.0566 137.416 36.4764 136.205 39.2279C135.366 41.1326 131.666 38.6188 131.709 36.9202Z" fill="white" fill-opacity="0.2"/>
<path d="M117.936 61.3873C115.528 60.9446 115.892 59.2119 117.211 58.001C117.608 57.6362 118.218 57.9301 118.35 58.4368C118.762 60.0203 119.559 61.6856 117.936 61.3873Z" fill="black" fill-opacity="0.12"/>
<g filter="url(#filter6_i_33_159288)">
<path d="M130.211 29.267C129.597 29.267 129.011 29.3685 128.478 29.5523C127.657 28.6119 126.322 28 124.814 28C123.207 28 121.796 28.6952 120.995 29.7424C120.342 29.4396 119.59 29.267 118.789 29.267C116.536 29.267 114.668 30.6338 114.327 32.4213C112.163 32.6991 110.506 34.2495 110.506 36.1204C110.506 36.3902 110.541 36.6533 110.606 36.9068C109.604 37.8906 109 39.164 109 40.555C109 43.0557 110.953 45.1766 113.658 45.9175C114.156 47.5361 115.928 48.733 118.036 48.733C118.673 48.733 119.279 48.6239 119.828 48.4271C121.156 49.4059 122.902 50 124.814 50C126.636 50 128.308 49.4603 129.61 48.5621C130.037 48.6731 130.492 48.733 130.964 48.733C133.072 48.733 134.844 47.5361 135.342 45.9175C138.047 45.1766 140 43.0557 140 40.555C140 39.164 139.396 37.8906 138.394 36.9068C138.459 36.6533 138.494 36.3902 138.494 36.1204C138.494 34.2495 136.837 32.6991 134.673 32.4213C134.332 30.6338 132.464 29.267 130.211 29.267Z" fill="#7AB87B"/>
</g>
<circle cx="101" cy="111" r="21" fill="black" fill-opacity="0.12"/>
<circle cx="87.5" cy="125.5" r="3.5" fill="black" fill-opacity="0.12"/>
<path d="M118 111.256C118 114.699 116.935 118.533 113 120.535C110.463 121.825 105.856 122 102.5 122C93.9396 122 89 115.455 89 109.791C89 104.127 93.9396 101 102.5 101C111.06 101 118 105.592 118 111.256Z" fill="black" fill-opacity="0.12"/>
<circle cx="120.5" cy="120.5" r="3.5" fill="black" fill-opacity="0.12"/>
<circle cx="114.5" cy="104.5" r="3.5" fill="black" fill-opacity="0.12"/>
<g filter="url(#filter7_i_33_159288)">
<path d="M106.658 100.38L110.021 107.826C112.998 105.676 112.219 108.346 117.07 105.676C117.477 105.452 117.744 105.021 117.701 104.558C117.27 99.969 111.274 97.4449 106.658 100.38Z" fill="#82644D"/>
</g>
<g filter="url(#filter8_ii_33_159288)">
<path d="M79.756 48.2684C79.756 48.2684 86.3237 55.2365 86.6673 55.4873C105.16 67.4065 107.414 68.9327 96.2206 82.3778L95.9966 82.5373C91.606 85.6622 94.5113 87.3344 92.0732 92.2886C91.165 93.0808 97.5025 98.7996 100.494 99.2243C100.931 99.6236 107.666 100.299 109.895 101.347C118.014 103.985 116.466 111.186 116.732 112.388C117.824 114.284 115.357 117.204 113.313 119.607C111.269 122.01 96.5303 120.929 92.0732 119.182C88.1152 117.38 89.6369 111.204 86.4533 108.991C83.2696 106.778 82.5179 104.557 80.2811 102.9C78.2042 101.362 75.902 99.4069 74.7173 97.2831C73.1608 94.4928 74.4816 91.8641 75.442 90.4239C76.5178 88.8107 78.1232 87.2309 79.7559 85.8069C83.3563 82.6665 82.2217 78.0425 86.4533 75.0307C90.8944 71.8697 90.1052 69.0751 86.6673 65.2534C82.4655 60.5824 81.2486 58.2983 77.4186 51.6457C70.1475 39.016 79.756 48.2684 79.756 48.2684Z" fill="#82644D"/>
</g>
<g filter="url(#filter9_i_33_159288)">
<path d="M118.971 112.529C117.87 112.223 116.518 111.177 115.772 109.902C115.208 108.938 114.339 107.907 113.24 108.105C107.404 109.154 108.691 117.733 110.644 118.344C112.793 119.017 114.943 119.241 116.285 119.69C117.628 120.138 117.628 121.707 118.971 121.932C120.314 122.156 123 121.932 123 119.69C123 117.448 120.583 112.978 118.971 112.529Z" fill="#82644D"/>
</g>
<g filter="url(#filter10_i_33_159288)">
<path d="M86.129 119.12C87.5696 117.922 90.306 113.15 89.3938 111.2C97.3048 106.727 98.1888 118.521 96.3021 120.191C94.4154 121.86 92.3252 123.097 91.1589 124.167C89.9926 125.238 90.7024 126.754 89.4343 127.608C88.1663 128.462 85.3268 129.52 84.3129 127.353C83.2989 125.186 84.6884 120.318 86.129 119.12Z" fill="#82644D"/>
</g>
<path d="M86 93.44C86 94.412 85.3459 96 84.3333 96C83.3208 96 82 94.732 82 93.76C82 92.788 82.8208 92 83.8333 92C84.8459 92 86 92.468 86 93.44Z" fill="black" fill-opacity="0.12"/>
<g filter="url(#filter11_ii_33_159288)">
<path d="M108.003 97.4282C100.948 97.6522 99.6816 95.7984 96.362 95.9038C93.2979 96.0012 89.9447 92.9461 89.7481 89.8868C89.615 87.8165 90.0272 86.2754 91.3651 86.2329C94.3527 86.138 103.795 90.4648 104.81 91.0361C106.118 91.7722 107.829 91.946 109.872 90.8753C112.572 87.1945 118.609 82.0898 117.976 80.1028L122.395 79.9624C123.246 83.825 115.606 90.1135 114.603 92.682C113.977 94.2874 112.983 97.27 108.003 97.4282Z" fill="#82644D"/>
</g>
<g filter="url(#filter12_i_33_159288)">
<path d="M84.7132 108.421C87.2738 107.239 88.5333 106.001 89.0008 104.54C87.7056 97.9946 85.7106 92.6828 83.406 93.747C80.5253 95.0773 74.3043 105.141 73.7016 106.357C72.9249 107.925 71.4174 108.975 68.8208 108.611C63.9768 105.261 55.094 101.727 54.4538 98.9028L50.1929 100.87C51.7957 106.176 62.9303 110.43 65.4776 113.197C67.0697 114.926 69.8671 118.221 74.6688 116.003C81.4712 112.862 81.5123 109.899 84.7132 108.421Z" fill="#82644D"/>
</g>
<g filter="url(#filter13_i_33_159288)">
<g filter="url(#filter14_ii_33_159288)">
<path fill-rule="evenodd" clip-rule="evenodd" d="M76.5 15C78.8161 15 80.9158 15.7629 82.4489 17.0001L82.5 17C85.893 17 88.8217 18.6372 90.1847 21.0047C90.2894 21.0016 90.3945 21 90.5 21C95.1944 21 99 24.134 99 28C99 28.6862 98.8801 29.3493 98.6567 29.9759C101.834 31.3996 104 34.2348 104 37.5C104 40.1829 102.538 42.5755 100.253 44.1333C100.727 44.8209 101 45.6317 101 46.5C101 48.619 99.3727 50.3959 97.1814 50.8736C95.6454 53.8898 92.1126 56 88 56C86.3898 56 84.8686 55.6765 83.5212 55.1019C81.6884 56.8784 78.9983 58 76 58C73.0017 58 70.3116 56.8784 68.4788 55.1019C67.1314 55.6765 65.6102 56 64 56C59.8874 56 56.3546 53.8898 54.8186 50.8736C52.6273 50.3959 51 48.619 51 46.5C51 45.6317 51.2732 44.8209 51.7465 44.1333C49.4624 42.5755 48 40.1829 48 37.5C48 34.2348 50.166 31.3996 53.3433 29.9759C53.1199 29.3493 53 28.6862 53 28C53 24.134 56.8056 21 61.5 21C61.6055 21 61.7106 21.0016 61.8153 21.0047C63.1783 18.6372 66.107 17 69.5 17C69.836 17 70.1674 17.0161 70.4932 17.0473C72.0311 15.7823 74.1546 15 76.5 15Z" fill="#7AB87B"/>
</g>
<path d="M91.7926 41.6091C92.1019 41.0406 96.3267 41.437 95.4352 43.2509C94.818 44.5064 91.8033 42.7442 91.7926 41.6091Z" fill="white" fill-opacity="0.2"/>
<path d="M60.196 43.9481C58.766 43.3453 59.8147 42.4647 60.77 41.8888C61.2083 41.6245 61.7749 41.8589 61.7794 42.32C61.7916 43.5476 61.3036 44.4149 60.196 43.9481Z" fill="black" fill-opacity="0.12"/>
<path d="M74.5547 31.563C73.6148 31.8396 69.8629 32.901 71.6142 34.1936C72.8264 35.0883 74.0382 33.4999 74.5547 31.563Z" fill="black" fill-opacity="0.12"/>
<path d="M85.838 47.3949C84.4208 48.014 83.8054 45.6841 83.6095 44.0919C83.5425 43.5473 84.1207 43.3026 84.525 43.7093C85.873 45.0652 86.9055 46.9286 85.838 47.3949Z" fill="black" fill-opacity="0.12"/>
<path d="M62.1278 29.3084C61.5651 28.9394 62.3061 28.2859 63.0702 27.7981C63.501 27.523 63.9471 27.855 63.6834 28.2609C63.2056 28.9959 62.5526 29.587 62.1278 29.3084Z" fill="white" fill-opacity="0.2"/>
<path d="M82.7926 26.6091C83.1019 26.0406 87.3267 26.437 86.4352 28.2509C85.818 29.5064 82.8033 27.7442 82.7926 26.6091Z" fill="white" fill-opacity="0.2"/>
<path d="M71.4708 50.1958C70.0426 49.9753 70.1152 48.9527 70.7966 48.0759C71.1489 47.6224 71.8326 47.8979 71.9514 48.4279C72.1767 49.4333 72.4328 50.3444 71.4708 50.1958Z" fill="black" fill-opacity="0.12"/>
<path d="M94.6019 112.416C94.7911 113.785 96.7178 120.354 98.7361 117.785C100.133 116.007 97.0464 113.149 94.6019 112.416Z" fill="black" fill-opacity="0.12"/>
<path d="M63.69 107.476C62.784 108.412 58.887 114.21 61.6433 115.498C63.5513 116.39 64.2467 110.983 63.69 107.476Z" fill="black" fill-opacity="0.12"/>
<path d="M90.6019 90.4162C90.7911 91.7846 92.7178 98.3543 94.7361 95.7851C96.1333 94.0066 93.0464 91.1489 90.6019 90.4162Z" fill="black" fill-opacity="0.12"/>
<path d="M66.6459 74.9941C65.6443 75.3767 61.6428 76.8319 63.6454 79.156C65.0317 80.7648 66.2301 78.2026 66.6459 74.9941Z" fill="black" fill-opacity="0.12"/>
<path d="M77.9563 70.7007C77.1169 71.3983 73.7388 74.117 76.4502 75.5865C78.3271 76.6038 78.6277 73.8179 77.9563 70.7007Z" fill="black" fill-opacity="0.12"/>
<path d="M99.7885 72.9417C100.123 72.0704 105.16 72.9707 104.205 75.7569C103.544 77.6857 99.8659 74.7228 99.7885 72.9417Z" fill="white" fill-opacity="0.2"/>
<path d="M54.4781 87.6888C53.4526 88.1587 48.5895 91.7415 50.656 93.9517C52.0865 95.4817 54.0683 90.9933 54.4781 87.6888Z" fill="white" fill-opacity="0.2"/>
<path d="M70.4264 14.5327C71.8324 11.8206 74.4337 10 77.4102 10C80.1825 10 82.6292 11.5793 84.0879 13.9872H84.8005C89.5618 13.9872 93.4216 18.3609 93.4216 23.756C93.4216 24.4624 93.3555 25.1513 93.2298 25.8151C94.7234 27.3824 95.3944 29.8747 94.7632 32.1547L94.3947 33.486C93.5658 36.4802 90.8051 37.9747 88.2286 36.8239C87.8941 36.6745 87.5791 36.4879 87.2861 36.2697L87.1783 36.659C85.7677 41.7545 81.0697 44.2977 76.6851 42.3395C76.0415 42.052 75.4404 41.6836 74.8877 41.248C74.1497 41.5843 73.3588 41.8069 72.5305 41.8953L71.4788 42.0074C67.7107 42.4093 64.3394 39.9061 63.0573 36.1164H62.9821C59.6783 36.1164 57 33.0817 57 29.3381C57 26.8291 58.203 24.6385 59.9911 23.4666V22.7595C59.9911 17.9147 63.4573 13.9872 67.733 13.9872C68.6801 13.9872 69.5876 14.18 70.4264 14.5327Z" fill="black" fill-opacity="0.12"/>
<g filter="url(#filter15_i_33_159288)">
<path d="M70.4257 13.5036C71.8316 10.809 74.4327 9 77.4091 9C80.1812 9 82.6278 10.5692 84.0863 12.9616H84.623C89.384 12.9616 93.2437 17.3072 93.2437 22.6677C93.2437 23.3757 93.1764 24.0659 93.0485 24.7308C94.668 26.3133 95.4186 28.9269 94.7641 31.3064L94.3997 32.6309C93.5661 35.6614 90.7688 37.1646 88.1519 35.9883C87.6734 35.7733 87.2341 35.4835 86.8407 35.1351C85.3441 39.9124 80.8316 42.2377 76.6035 40.3372C76.0813 40.1026 75.5874 39.8142 75.1248 39.4796C74.296 39.9067 73.3933 40.1874 72.4409 40.2898L71.3893 40.4028C67.7716 40.7916 64.526 38.4894 63.1814 34.9488H62.9817C59.6781 34.9488 57 31.9335 57 28.214C57 25.7211 58.203 23.5446 59.991 22.3801V21.6776C59.991 16.8639 63.4569 12.9616 67.7324 12.9616C68.6795 12.9616 69.5869 13.1532 70.4257 13.5036Z" fill="#7AB87B"/>
</g>
<path d="M88.7959 25.6102C89.1019 25.0411 93.3185 25.4541 92.4375 27.2703C91.8277 28.5275 88.8119 26.7489 88.7959 25.6102Z" fill="white" fill-opacity="0.2"/>
<path d="M61.2124 30.971C59.7895 30.3589 60.828 29.4738 61.7748 28.8957C62.2092 28.6305 62.773 28.8685 62.7792 29.3335C62.7958 30.5718 62.3143 31.4451 61.2124 30.971Z" fill="black" fill-opacity="0.12"/>
<path d="M75.5496 18.568C74.6165 18.8485 70.8919 19.9248 72.6278 21.2282C73.8294 22.1305 75.0342 20.5249 75.5496 18.568Z" fill="black" fill-opacity="0.12"/>
<path d="M79.8107 34.3983C78.3939 35.0244 77.7909 32.6895 77.603 31.0931C77.5387 30.5471 78.1166 30.2995 78.518 30.706C79.8565 32.0612 80.8778 33.9267 79.8107 34.3983Z" fill="black" fill-opacity="0.12"/>
<path d="M64.1405 20.3331C63.5825 19.9606 64.3183 19.3001 65.0768 18.8068C65.5045 18.5286 65.9468 18.8638 65.6848 19.2739C65.2102 20.0167 64.5617 20.6142 64.1405 20.3331Z" fill="white" fill-opacity="0.2"/>
<path d="M84.7959 15.6102C85.1019 15.0411 89.3185 15.4541 88.4375 17.2703C87.8277 18.5275 84.8119 16.7489 84.7959 15.6102Z" fill="white" fill-opacity="0.2"/>
</g>
<g filter="url(#filter16_i_33_159288)">
<g filter="url(#filter17_i_33_159288)">
<path d="M139.666 63.1032C138.478 63.1032 137.346 63.2877 136.314 63.622C134.726 61.9117 132.144 60.7988 129.228 60.7988C126.119 60.7988 123.39 62.0631 121.841 63.9677C120.579 63.4171 119.124 63.1032 117.575 63.1032C113.217 63.1032 109.604 65.5889 108.944 68.8399C104.758 69.3452 101.554 72.1649 101.554 75.5676C101.554 76.0582 101.62 76.5367 101.747 76.9978C99.8093 78.7871 98.6406 81.1031 98.6406 83.6328C98.6406 88.181 102.418 92.0383 107.65 93.3858C108.614 96.3296 112.04 98.5063 116.119 98.5063C117.35 98.5063 118.522 98.308 119.584 97.9501C122.153 99.7303 125.529 100.811 129.228 100.811C132.753 100.811 135.985 99.8291 138.505 98.1956C139.331 98.3975 140.211 98.5063 141.123 98.5063C145.201 98.5063 148.627 96.3296 149.591 93.3858C154.823 92.0383 158.601 88.181 158.601 83.6328C158.601 81.1031 157.432 78.7871 155.495 76.9978C155.621 76.5367 155.688 76.0582 155.688 75.5676C155.688 72.1649 152.484 69.3452 148.297 68.8399C147.638 65.5889 144.024 63.1032 139.666 63.1032Z" fill="#7AB87B"/>
</g>
<path d="M145.446 83.844C145.869 83.0581 151.468 83.5341 150.246 86.0402C149.4 87.775 145.436 85.4031 145.446 83.844Z" fill="white" fill-opacity="0.2"/>
<path d="M107.212 87.7574C104.804 86.7406 106.994 85.2737 108.49 84.4705C108.936 84.2316 109.485 84.455 109.527 84.9022C109.721 86.9606 109.036 88.5277 107.212 87.7574Z" fill="black" fill-opacity="0.12"/>
<path d="M123.972 70.4139C122.695 70.7417 117.597 71.9905 120.12 73.8956C121.867 75.2144 123.414 73.0778 123.972 70.4139Z" fill="black" fill-opacity="0.12"/>
<path d="M139.767 94.5867C137.306 95.5732 136.653 91.8645 136.593 89.867C136.579 89.3766 137.105 89.1467 137.521 89.4589C139.738 91.1224 141.604 93.8501 139.767 94.5867Z" fill="black" fill-opacity="0.12"/>
<path d="M134.766 64.3616C135.189 63.5756 140.788 64.0517 139.566 66.5578C138.72 68.2925 134.756 65.9207 134.766 64.3616Z" fill="white" fill-opacity="0.2"/>
<path d="M120.177 97.4435C117.395 96.9987 117.955 94.9201 119.578 93.484C119.997 93.1129 120.619 93.3975 120.729 93.9093C121.124 95.7547 122.056 97.7441 120.177 97.4435Z" fill="black" fill-opacity="0.12"/>
</g>
<g filter="url(#filter18_ii_33_159288)">
<path fill-rule="evenodd" clip-rule="evenodd" d="M51 57C54.364 57 57.3752 58.1668 59.393 60.0053C63.6851 60.1218 67.3518 62.1384 69.0272 65C75.0898 65.0114 80 68.8126 80 73.5C80 74.0831 79.924 74.6525 79.7793 75.2026C84.0726 76.9603 87 80.4642 87 84.5C87 87.3009 85.59 89.8456 83.2919 91.7283C83.7446 92.4099 84 93.182 84 94C84 96.4626 81.6856 98.5094 78.6386 98.9235C77.232 103.554 71.8834 107 65.5 107C63.4951 107 61.5923 106.66 59.8816 106.05C57.4527 107.876 54.145 109 50.5 109C46.6871 109 43.2435 107.771 40.7885 105.794C38.9106 106.564 36.7708 107 34.5 107C28.1166 107 22.768 103.554 21.3614 98.9235C18.3144 98.5094 16 96.4626 16 94C16 93.182 16.2554 92.4099 16.7081 91.7283C14.41 89.8456 13 87.3009 13 84.5C13 80.4642 15.9274 76.9603 20.2207 75.2026C20.076 74.6525 20 74.0831 20 73.5C20 68.8126 24.9102 65.0114 30.9728 65C32.6992 62.0515 36.5395 60 41 60C41.5174 60 42.0265 60.0276 42.5249 60.081C44.5426 58.1989 47.5901 57 51 57Z" fill="#7AB87B"/>
</g>
<path d="M69.6851 89.9124C70.1263 89.0536 75.4704 89.373 74.1841 92.1071C73.2937 93.9997 69.6039 91.5876 69.6851 89.9124Z" fill="white" fill-opacity="0.2"/>
<path d="M26.0757 93C23.702 91.9784 25.7671 90.6783 27.1821 89.9771C27.6147 89.7627 28.1342 89.9708 28.1951 90.3923C28.4743 92.3248 27.8784 93.7758 26.0757 93Z" fill="black" fill-opacity="0.12"/>
<path d="M44.8377 75.8389C43.5953 76.1198 38.6296 77.1815 41.2046 79.1592C42.987 80.5283 44.4117 78.4623 44.8377 75.8389Z" fill="black" fill-opacity="0.12"/>
<path d="M60.7978 96.1759C58.4469 97.1079 57.8303 93.6684 57.7752 91.7778C57.761 91.2933 58.2796 91.0653 58.6935 91.3719C60.8017 92.9336 62.5576 95.4783 60.7978 96.1759Z" fill="black" fill-opacity="0.12"/>
<path d="M28.799 73.3418C27.4597 72.3606 29.3221 71.2197 30.5746 70.6798C30.9687 70.5099 31.3705 70.7825 31.2737 71.1543C30.89 72.6286 29.8109 74.0832 28.799 73.3418Z" fill="white" fill-opacity="0.2"/>
<path d="M56.6851 68.9124C57.1263 68.0536 62.4704 68.373 61.1841 71.1071C60.2937 72.9998 56.6039 70.5876 56.6851 68.9124Z" fill="white" fill-opacity="0.2"/>
<path d="M41.5302 102.252C39.114 101.913 39.6227 99.8247 41.0668 98.2536C41.4763 97.808 42.1747 98.0985 42.2554 98.6613C42.5253 100.543 43.1701 102.482 41.5302 102.252Z" fill="black" fill-opacity="0.12"/>
<g filter="url(#filter19_ii_33_159288)">
<path fill-rule="evenodd" clip-rule="evenodd" d="M73.808 65.3015C72.9964 61.768 69.7045 59.1035 65.733 59.0029C64.7905 55.551 61.4618 53 57.5 53C57.3765 53 57.2535 53.0025 57.1313 53.0074C55.6318 51.7583 53.66 51 51.5 51C49.2063 51 47.1248 51.8551 45.5957 53.245C44.9253 53.085 44.2232 53 43.5 53C39.5382 53 36.2095 55.551 35.267 59.0029C31.2955 59.1035 28.0036 61.768 27.192 65.3015C24.0855 66.9515 22 70.0054 22 73.5C22 76.5338 23.5718 79.2354 26.0188 80.9747C25.3795 81.8147 25 82.863 25 84C25 86.4632 26.7811 88.5103 29.1257 88.9238C29.8429 92.9404 33.5432 96 38 96C39.9687 96 41.7898 95.403 43.2713 94.3902C45.154 96.0076 47.6989 97 50.5 97C52.8947 97 55.1022 96.2747 56.8687 95.0536C58.106 95.6584 59.5107 96 61 96C65.475 96 69.1872 92.9154 69.8829 88.8747C70.2421 88.9567 70.616 89 71 89C73.7614 89 76 86.7614 76 84C76 82.863 75.6205 81.8147 74.9812 80.9747C77.4282 79.2354 79 76.5338 79 73.5C79 70.0054 76.9145 66.9515 73.808 65.3015Z" fill="#7AB87B"/>
</g>
<path d="M26.053 91.9653C23.6671 90.9603 25.7517 89.6663 27.1793 88.9675C27.6159 88.7538 28.1381 88.9583 28.1977 89.3757C28.4709 91.2893 27.8649 92.7285 26.053 91.9653Z" fill="black" fill-opacity="0.12"/>
<path d="M44.8458 75.8308C43.5939 76.1071 38.5901 77.1514 41.1889 79.1106C42.9879 80.4669 44.4206 78.4251 44.8458 75.8308Z" fill="black" fill-opacity="0.12"/>
<path d="M67.8341 78.1725C65.4821 79.0924 64.8462 75.6624 64.7811 73.7781C64.7644 73.2952 65.2832 73.0699 65.6997 73.377C67.8212 74.9413 69.5947 77.4839 67.8341 78.1725Z" fill="black" fill-opacity="0.12"/>
<path d="M28.7842 73.3034C27.4331 72.3321 29.3095 71.2051 30.5718 70.6719C30.9689 70.5042 31.3742 70.7741 31.277 71.1417C30.8916 72.5994 29.805 74.0372 28.7842 73.3034Z" fill="white" fill-opacity="0.2"/>
<path d="M56.6796 68.9105C57.1264 68.0529 62.4821 68.3512 61.1786 71.0809C60.2762 72.9704 56.5896 70.5803 56.6796 68.9105Z" fill="white" fill-opacity="0.2"/>
<g filter="url(#filter20_i_33_159288)">
<path fill-rule="evenodd" clip-rule="evenodd" d="M54.4693 50.1186C53.6769 49.4223 52.6378 49 51.5 49C50.3622 49 49.3231 49.4223 48.5307 50.1186C48.1997 50.041 47.8547 50 47.5 50C45.9368 50 44.5597 50.7971 43.7531 52.007C43.6693 52.0024 43.5849 52 43.5 52C41.0147 52 39 54.0147 39 56.5C39 56.8579 39.0418 57.2061 39.1207 57.5398C37.2745 58.4271 36 60.3147 36 62.5C36 64.7266 37.3231 66.6442 39.226 67.5094C39.0791 67.9802 39 68.4808 39 69C39 71.7614 41.2386 74 44 74C44.9984 74 45.9284 73.7074 46.709 73.2032C47.6532 74.8729 49.445 76 51.5 76C53.555 76 55.3468 74.8729 56.291 73.2032C57.0716 73.7074 58.0016 74 59 74C61.7614 74 64 71.7614 64 69C64 68.4808 63.9209 67.9802 63.774 67.5094C65.6769 66.6442 67 64.7266 67 62.5C67 60.3147 65.7255 58.4271 63.8793 57.5398C63.9582 57.2061 64 56.8579 64 56.5C64 54.0147 61.9853 52 59.5 52C59.4151 52 59.3307 52.0024 59.2469 52.007C58.4403 50.7971 57.0632 50 55.5 50C55.1453 50 54.8003 50.041 54.4693 50.1186Z" fill="#7AB87B"/>
</g>
<path d="M44.5315 66.2533C42.1155 65.9135 42.6237 63.8249 44.0671 62.2538C44.4765 61.8083 45.1748 62.0989 45.2557 62.6618C45.5261 64.544 46.1712 66.4838 44.5315 66.2533Z" fill="black" fill-opacity="0.12"/>
<g filter="url(#filter21_i_33_159288)">
<path fill-rule="evenodd" clip-rule="evenodd" d="M144 64.5C144 64.9347 143.925 65.355 143.784 65.7526C145.708 66.7076 147 68.4762 147 70.5C147 72.5621 145.659 74.3592 143.674 75.3007C143.885 75.8312 144 76.4034 144 77C144 79.7614 141.538 82 138.5 82C136.956 82 135.56 81.4216 134.561 80.49C133.619 82.544 131.26 84 128.5 84C125.995 84 123.821 82.8008 122.735 81.0438C121.828 81.6452 120.709 82 119.5 82C116.462 82 114 79.7614 114 77C114 76.4034 114.115 75.8312 114.326 75.3007C112.341 74.3592 111 72.5621 111 70.5C111 68.4762 112.292 66.7076 114.216 65.7526C114.075 65.355 114 64.9347 114 64.5C114 62.0147 116.462 60 119.5 60C119.64 60 119.779 60.0043 119.916 60.0127C120.901 58.7996 122.586 58 124.5 58C124.965 58 125.416 58.0472 125.847 58.1359C126.818 57.4293 128.098 57 129.5 57C130.823 57 132.037 57.3823 132.986 58.0194C133.155 58.0066 133.327 58 133.5 58C135.414 58 137.099 58.7996 138.084 60.0127C138.221 60.0043 138.36 60 138.5 60C141.538 60 144 62.0147 144 64.5Z" fill="#7AB87B"/>
</g>
<defs>
<filter id="filter0_d_33_159288" x="66" y="73" width="70" height="82.6999" filterUnits="userSpaceOnUse" color-interpolation-filters="sRGB">
<feFlood flood-opacity="0" result="BackgroundImageFix"/>
<feColorMatrix in="SourceAlpha" type="matrix" values="0 0 0 0 0 0 0 0 0 0 0 0 0 0 0 0 0 0 127 0" result="hardAlpha"/>
<feOffset dy="1.69992"/>
<feComposite in2="hardAlpha" operator="out"/>
<feColorMatrix type="matrix" values="0 0 0 0 0 0 0 0 0 0 0 0 0 0 0 0 0 0 0.25 0"/>
<feBlend mode="normal" in2="BackgroundImageFix" result="effect1_dropShadow_33_159288"/>
<feBlend mode="normal" in="SourceGraphic" in2="effect1_dropShadow_33_159288" result="shape"/>
</filter>
<filter id="filter1_iii_33_159288" x="58.22" y="100.22" width="85.56" height="61.56" filterUnits="userSpaceOnUse" color-interpolation-filters="sRGB">
<feFlood flood-opacity="0" result="BackgroundImageFix"/>
<feBlend mode="normal" in="SourceGraphic" in2="BackgroundImageFix" result="shape"/>
<feColorMatrix in="SourceAlpha" type="matrix" values="0 0 0 0 0 0 0 0 0 0 0 0 0 0 0 0 0 0 127 0" result="hardAlpha"/>
<feOffset dx="7.77998" dy="-7.77998"/>
<feGaussianBlur stdDeviation="7.77998"/>
<feComposite in2="hardAlpha" operator="arithmetic" k2="-1" k3="1"/>
<feColorMatrix type="matrix" values="0 0 0 0 0 0 0 0 0 0 0 0 0 0 0 0 0 0 0.25 0"/>
<feBlend mode="normal" in2="shape" result="effect1_innerShadow_33_159288"/>
<feColorMatrix in="SourceAlpha" type="matrix" values="0 0 0 0 0 0 0 0 0 0 0 0 0 0 0 0 0 0 127 0" result="hardAlpha"/>
<feOffset dx="-7.77998" dy="7.77998"/>
<feGaussianBlur stdDeviation="7.77998"/>
<feComposite in2="hardAlpha" operator="arithmetic" k2="-1" k3="1"/>
<feColorMatrix type="matrix" values="0 0 0 0 1 0 0 0 0 1 0 0 0 0 1 0 0 0 0.25 0"/>
<feBlend mode="normal" in2="effect1_innerShadow_33_159288" result="effect2_innerShadow_33_159288"/>
<feColorMatrix in="SourceAlpha" type="matrix" values="0 0 0 0 0 0 0 0 0 0 0 0 0 0 0 0 0 0 127 0" result="hardAlpha"/>
<feOffset dx="-0.849962"/>
<feGaussianBlur stdDeviation="1.27494"/>
<feComposite in2="hardAlpha" operator="arithmetic" k2="-1" k3="1"/>
<feColorMatrix type="matrix" values="0 0 0 0 1 0 0 0 0 1 0 0 0 0 1 0 0 0 0.25 0"/>
<feBlend mode="normal" in2="effect2_innerShadow_33_159288" result="effect3_innerShadow_33_159288"/>
</filter>
<filter id="filter2_i_33_159288" x="70.11" y="81" width="57.89" height="57.89" filterUnits="userSpaceOnUse" color-interpolation-filters="sRGB">
<feFlood flood-opacity="0" result="BackgroundImageFix"/>
<feBlend mode="normal" in="SourceGraphic" in2="BackgroundImageFix" result="shape"/>
<feColorMatrix in="SourceAlpha" type="matrix" values="0 0 0 0 0 0 0 0 0 0 0 0 0 0 0 0 0 0 127 0" result="hardAlpha"/>
<feOffset dx="-3.88999" dy="3.88999"/>
<feGaussianBlur stdDeviation="3.88999"/>
<feComposite in2="hardAlpha" operator="arithmetic" k2="-1" k3="1"/>
<feColorMatrix type="matrix" values="0 0 0 0 0 0 0 0 0 0 0 0 0 0 0 0 0 0 0.25 0"/>
<feBlend mode="normal" in2="shape" result="effect1_innerShadow_33_159288"/>
</filter>
<filter id="filter3_i_33_159288" x="70.11" y="85" width="57.89" height="57.89" filterUnits="userSpaceOnUse" color-interpolation-filters="sRGB">
<feFlood flood-opacity="0" result="BackgroundImageFix"/>
<feBlend mode="normal" in="SourceGraphic" in2="BackgroundImageFix" result="shape"/>
<feColorMatrix in="SourceAlpha" type="matrix" values="0 0 0 0 0 0 0 0 0 0 0 0 0 0 0 0 0 0 127 0" result="hardAlpha"/>
<feOffset dx="-3.88999" dy="3.88999"/>
<feGaussianBlur stdDeviation="3.88999"/>
<feComposite in2="hardAlpha" operator="arithmetic" k2="-1" k3="1"/>
<feColorMatrix type="matrix" values="0 0 0 0 0 0 0 0 0 0 0 0 0 0 0 0 0 0 0.25 0"/>
<feBlend mode="normal" in2="shape" result="effect1_innerShadow_33_159288"/>
</filter>
<filter id="filter4_i_33_159288" x="99.4693" y="45.9697" width="30.6108" height="31.5271" filterUnits="userSpaceOnUse" color-interpolation-filters="sRGB">
<feFlood flood-opacity="0" result="BackgroundImageFix"/>
<feBlend mode="normal" in="SourceGraphic" in2="BackgroundImageFix" result="shape"/>
<feColorMatrix in="SourceAlpha" type="matrix" values="0 0 0 0 0 0 0 0 0 0 0 0 0 0 0 0 0 0 127 0" result="hardAlpha"/>
<feOffset dx="-0.220196" dy="3.01633"/>
<feGaussianBlur stdDeviation="1.28797"/>
<feComposite in2="hardAlpha" operator="arithmetic" k2="-1" k3="1"/>
<feColorMatrix type="matrix" values="0 0 0 0 0 0 0 0 0 0 0 0 0 0 0 0 0 0 0.28 0"/>
<feBlend mode="normal" in2="shape" result="effect1_innerShadow_33_159288"/>
</filter>
<filter id="filter5_i_33_159288" x="99" y="21.4864" width="49" height="43.5136" filterUnits="userSpaceOnUse" color-interpolation-filters="sRGB">
<feFlood flood-opacity="0" result="BackgroundImageFix"/>
<feBlend mode="normal" in="SourceGraphic" in2="BackgroundImageFix" result="shape"/>
<feColorMatrix in="SourceAlpha" type="matrix" values="0 0 0 0 0 0 0 0 0 0 0 0 0 0 0 0 0 0 127 0" result="hardAlpha"/>
<feOffset dy="-8.51364"/>
<feGaussianBlur stdDeviation="4.25682"/>
<feComposite in2="hardAlpha" operator="arithmetic" k2="-1" k3="1"/>
<feColorMatrix type="matrix" values="0 0 0 0 0 0 0 0 0 0 0 0 0 0 0 0 0 0 0.25 0"/>
<feBlend mode="normal" in2="shape" result="effect1_innerShadow_33_159288"/>
</filter>
<filter id="filter6_i_33_159288" x="109" y="19.4864" width="31" height="30.5136" filterUnits="userSpaceOnUse" color-interpolation-filters="sRGB">
<feFlood flood-opacity="0" result="BackgroundImageFix"/>
<feBlend mode="normal" in="SourceGraphic" in2="BackgroundImageFix" result="shape"/>
<feColorMatrix in="SourceAlpha" type="matrix" values="0 0 0 0 0 0 0 0 0 0 0 0 0 0 0 0 0 0 127 0" result="hardAlpha"/>
<feOffset dy="-8.51364"/>
<feGaussianBlur stdDeviation="4.25682"/>
<feComposite in2="hardAlpha" operator="arithmetic" k2="-1" k3="1"/>
<feColorMatrix type="matrix" values="0 0 0 0 0 0 0 0 0 0 0 0 0 0 0 0 0 0 0.25 0"/>
<feBlend mode="normal" in2="shape" result="effect1_innerShadow_33_159288"/>
</filter>
<filter id="filter7_i_33_159288" x="106.658" y="96.1383" width="12.006" height="11.6868" filterUnits="userSpaceOnUse" color-interpolation-filters="sRGB">
<feFlood flood-opacity="0" result="BackgroundImageFix"/>
<feBlend mode="normal" in="SourceGraphic" in2="BackgroundImageFix" result="shape"/>
<feColorMatrix in="SourceAlpha" type="matrix" values="0 0 0 0 0 0 0 0 0 0 0 0 0 0 0 0 0 0 127 0" result="hardAlpha"/>
<feOffset dx="0.959173" dy="-2.98275"/>
<feGaussianBlur stdDeviation="1.49137"/>
<feComposite in2="hardAlpha" operator="arithmetic" k2="-1" k3="1"/>
<feColorMatrix type="matrix" values="0 0 0 0 0 0 0 0 0 0 0 0 0 0 0 0 0 0 0.28 0"/>
<feBlend mode="normal" in2="shape" result="effect1_innerShadow_33_159288"/>
</filter>
<filter id="filter8_ii_33_159288" x="74" y="44.6304" width="47.805" height="77.8481" filterUnits="userSpaceOnUse" color-interpolation-filters="sRGB">
<feFlood flood-opacity="0" result="BackgroundImageFix"/>
<feBlend mode="normal" in="SourceGraphic" in2="BackgroundImageFix" result="shape"/>
<feColorMatrix in="SourceAlpha" type="matrix" values="0 0 0 0 0 0 0 0 0 0 0 0 0 0 0 0 0 0 127 0" result="hardAlpha"/>
<feOffset dx="10.1995" dy="-0.369614"/>
<feGaussianBlur stdDeviation="2.40249"/>
<feComposite in2="hardAlpha" operator="arithmetic" k2="-1" k3="1"/>
<feColorMatrix type="matrix" values="0 0 0 0 0 0 0 0 0 0 0 0 0 0 0 0 0 0 0.25 0"/>
<feBlend mode="normal" in2="shape" result="effect1_innerShadow_33_159288"/>
<feColorMatrix in="SourceAlpha" type="matrix" values="0 0 0 0 0 0 0 0 0 0 0 0 0 0 0 0 0 0 127 0" result="hardAlpha"/>
<feOffset dx="1.84807" dy="1.47846"/>
<feGaussianBlur stdDeviation="0.739228"/>
<feComposite in2="hardAlpha" operator="arithmetic" k2="-1" k3="1"/>
<feColorMatrix type="matrix" values="0 0 0 0 0 0 0 0 0 0 0 0 0 0 0 0 0 0 0.25 0"/>
<feBlend mode="normal" in2="effect1_innerShadow_33_159288" result="effect2_innerShadow_33_159288"/>
</filter>
<filter id="filter9_i_33_159288" x="108.914" y="106.539" width="14.0859" height="15.4609" filterUnits="userSpaceOnUse" color-interpolation-filters="sRGB">
<feFlood flood-opacity="0" result="BackgroundImageFix"/>
<feBlend mode="normal" in="SourceGraphic" in2="BackgroundImageFix" result="shape"/>
<feColorMatrix in="SourceAlpha" type="matrix" values="0 0 0 0 0 0 0 0 0 0 0 0 0 0 0 0 0 0 127 0" result="hardAlpha"/>
<feOffset dx="-0.0859073" dy="-1.54096"/>
<feGaussianBlur stdDeviation="1.17317"/>
<feComposite in2="hardAlpha" operator="arithmetic" k2="-1" k3="1"/>
<feColorMatrix type="matrix" values="0 0 0 0 0 0 0 0 0 0 0 0 0 0 0 0 0 0 0.28 0"/>
<feBlend mode="normal" in2="shape" result="effect1_innerShadow_33_159288"/>
</filter>
<filter id="filter10_i_33_159288" x="83.9648" y="108.172" width="15.7276" height="20.4604" filterUnits="userSpaceOnUse" color-interpolation-filters="sRGB">
<feFlood flood-opacity="0" result="BackgroundImageFix"/>
<feBlend mode="normal" in="SourceGraphic" in2="BackgroundImageFix" result="shape"/>
<feColorMatrix in="SourceAlpha" type="matrix" values="0 0 0 0 0 0 0 0 0 0 0 0 0 0 0 0 0 0 127 0" result="hardAlpha"/>
<feOffset dx="2.54989" dy="-2.02192"/>
<feGaussianBlur stdDeviation="1.27494"/>
<feComposite in2="hardAlpha" operator="arithmetic" k2="-1" k3="1"/>
<feColorMatrix type="matrix" values="0 0 0 0 0 0 0 0 0 0 0 0 0 0 0 0 0 0 0.28 0"/>
<feBlend mode="normal" in2="shape" result="effect1_innerShadow_33_159288"/>
</filter>
<filter id="filter11_ii_33_159288" x="89.7246" y="79.1129" width="36.1362" height="21.9817" filterUnits="userSpaceOnUse" color-interpolation-filters="sRGB">
<feFlood flood-opacity="0" result="BackgroundImageFix"/>
<feBlend mode="normal" in="SourceGraphic" in2="BackgroundImageFix" result="shape"/>
<feColorMatrix in="SourceAlpha" type="matrix" values="0 0 0 0 0 0 0 0 0 0 0 0 0 0 0 0 0 0 127 0" result="hardAlpha"/>
<feOffset dx="1.42401" dy="3.64732"/>
<feGaussianBlur stdDeviation="2.97487"/>
<feComposite in2="hardAlpha" operator="arithmetic" k2="-1" k3="1"/>
<feColorMatrix type="matrix" values="0 0 0 0 0 0 0 0 0 0 0 0 0 0 0 0 0 0 0.28 0"/>
<feBlend mode="normal" in2="shape" result="effect1_innerShadow_33_159288"/>
<feColorMatrix in="SourceAlpha" type="matrix" values="0 0 0 0 0 0 0 0 0 0 0 0 0 0 0 0 0 0 127 0" result="hardAlpha"/>
<feOffset dx="3.39985" dy="-0.849962"/>
<feGaussianBlur stdDeviation="1.69992"/>
<feComposite in2="hardAlpha" operator="arithmetic" k2="-1" k3="1"/>
<feColorMatrix type="matrix" values="0 0 0 0 0 0 0 0 0 0 0 0 0 0 0 0 0 0 0.25 0"/>
<feBlend mode="normal" in2="effect1_innerShadow_33_159288" result="effect2_innerShadow_33_159288"/>
</filter>
<filter id="filter12_i_33_159288" x="50.1934" y="93.6104" width="40.9268" height="27.7724" filterUnits="userSpaceOnUse" color-interpolation-filters="sRGB">
<feFlood flood-opacity="0" result="BackgroundImageFix"/>
<feBlend mode="normal" in="SourceGraphic" in2="BackgroundImageFix" result="shape"/>
<feColorMatrix in="SourceAlpha" type="matrix" values="0 0 0 0 0 0 0 0 0 0 0 0 0 0 0 0 0 0 127 0" result="hardAlpha"/>
<feOffset dx="2.12019" dy="5.43046"/>
<feGaussianBlur stdDeviation="2.3188"/>
<feComposite in2="hardAlpha" operator="arithmetic" k2="-1" k3="1"/>
<feColorMatrix type="matrix" values="0 0 0 0 0 0 0 0 0 0 0 0 0 0 0 0 0 0 0.28 0"/>
<feBlend mode="normal" in2="shape" result="effect1_innerShadow_33_159288"/>
</filter>
<filter id="filter13_i_33_159288" x="48" y="-4.59939" width="69.9236" height="122.974" filterUnits="userSpaceOnUse" color-interpolation-filters="sRGB">
<feFlood flood-opacity="0" result="BackgroundImageFix"/>
<feBlend mode="normal" in="SourceGraphic" in2="BackgroundImageFix" result="shape"/>
<feColorMatrix in="SourceAlpha" type="matrix" values="0 0 0 0 0 0 0 0 0 0 0 0 0 0 0 0 0 0 127 0" result="hardAlpha"/>
<feOffset dx="13.5994" dy="-22.6855"/>
<feGaussianBlur stdDeviation="6.7997"/>
<feComposite in2="hardAlpha" operator="arithmetic" k2="-1" k3="1"/>
<feColorMatrix type="matrix" values="0 0 0 0 0 0 0 0 0 0 0 0 0 0 0 0 0 0 0.12 0"/>
<feBlend mode="normal" in2="shape" result="effect1_innerShadow_33_159288"/>
</filter>
<filter id="filter14_ii_33_159288" x="48" y="6.11404" width="56" height="51.886" filterUnits="userSpaceOnUse" color-interpolation-filters="sRGB">
<feFlood flood-opacity="0" result="BackgroundImageFix"/>
<feBlend mode="normal" in="SourceGraphic" in2="BackgroundImageFix" result="shape"/>
<feColorMatrix in="SourceAlpha" type="matrix" values="0 0 0 0 0 0 0 0 0 0 0 0 0 0 0 0 0 0 127 0" result="hardAlpha"/>
<feOffset dy="-13.3287"/>
<feGaussianBlur stdDeviation="4.44298"/>
<feComposite in2="hardAlpha" operator="arithmetic" k2="-1" k3="1"/>
<feColorMatrix type="matrix" values="0 0 0 0 0 0 0 0 0 0 0 0 0 0 0 0 0 0 0.25 0"/>
<feBlend mode="normal" in2="shape" result="effect1_innerShadow_33_159288"/>
<feColorMatrix in="SourceAlpha" type="matrix" values="0 0 0 0 0 0 0 0 0 0 0 0 0 0 0 0 0 0 127 0" result="hardAlpha"/>
<feOffset dy="-2.28655"/>
<feGaussianBlur stdDeviation="2.66765"/>
<feComposite in2="hardAlpha" operator="arithmetic" k2="-1" k3="1"/>
<feColorMatrix type="matrix" values="0 0 0 0 0 0 0 0 0 0 0 0 0 0 0 0 0 0 0.12 0"/>
<feBlend mode="normal" in2="effect1_innerShadow_33_159288" result="effect2_innerShadow_33_159288"/>
</filter>
<filter id="filter15_i_33_159288" x="57" y="0.486363" width="38" height="40.5136" filterUnits="userSpaceOnUse" color-interpolation-filters="sRGB">
<feFlood flood-opacity="0" result="BackgroundImageFix"/>
<feBlend mode="normal" in="SourceGraphic" in2="BackgroundImageFix" result="shape"/>
<feColorMatrix in="SourceAlpha" type="matrix" values="0 0 0 0 0 0 0 0 0 0 0 0 0 0 0 0 0 0 127 0" result="hardAlpha"/>
<feOffset dy="-8.51364"/>
<feGaussianBlur stdDeviation="4.25682"/>
<feComposite in2="hardAlpha" operator="arithmetic" k2="-1" k3="1"/>
<feColorMatrix type="matrix" values="0 0 0 0 0 0 0 0 0 0 0 0 0 0 0 0 0 0 0.25 0"/>
<feBlend mode="normal" in2="shape" result="effect1_innerShadow_33_159288"/>
</filter>
<filter id="filter16_i_33_159288" x="95" y="38.4006" width="80.5994" height="66.5994" filterUnits="userSpaceOnUse" color-interpolation-filters="sRGB">
<feFlood flood-opacity="0" result="BackgroundImageFix"/>
<feBlend mode="normal" in="SourceGraphic" in2="BackgroundImageFix" result="shape"/>
<feColorMatrix in="SourceAlpha" type="matrix" values="0 0 0 0 0 0 0 0 0 0 0 0 0 0 0 0 0 0 127 0" result="hardAlpha"/>
<feOffset dx="13.5994" dy="-22.6855"/>
<feGaussianBlur stdDeviation="6.7997"/>
<feComposite in2="hardAlpha" operator="arithmetic" k2="-1" k3="1"/>
<feColorMatrix type="matrix" values="0 0 0 0 0 0 0 0 0 0 0 0 0 0 0 0 0 0 0.12 0"/>
<feBlend mode="normal" in2="shape" result="effect1_innerShadow_33_159288"/>
</filter>
<filter id="filter17_i_33_159288" x="98.6406" y="52.2852" width="59.9609" height="48.5254" filterUnits="userSpaceOnUse" color-interpolation-filters="sRGB">
<feFlood flood-opacity="0" result="BackgroundImageFix"/>
<feBlend mode="normal" in="SourceGraphic" in2="BackgroundImageFix" result="shape"/>
<feColorMatrix in="SourceAlpha" type="matrix" values="0 0 0 0 0 0 0 0 0 0 0 0 0 0 0 0 0 0 127 0" result="hardAlpha"/>
<feOffset dy="-8.51364"/>
<feGaussianBlur stdDeviation="4.25682"/>
<feComposite in2="hardAlpha" operator="arithmetic" k2="-1" k3="1"/>
<feColorMatrix type="matrix" values="0 0 0 0 0 0 0 0 0 0 0 0 0 0 0 0 0 0 0.25 0"/>
<feBlend mode="normal" in2="shape" result="effect1_innerShadow_33_159288"/>
</filter>
<filter id="filter18_ii_33_159288" x="13" y="43.4006" width="87.5994" height="65.5994" filterUnits="userSpaceOnUse" color-interpolation-filters="sRGB">
<feFlood flood-opacity="0" result="BackgroundImageFix"/>
<feBlend mode="normal" in="SourceGraphic" in2="BackgroundImageFix" result="shape"/>
<feColorMatrix in="SourceAlpha" type="matrix" values="0 0 0 0 0 0 0 0 0 0 0 0 0 0 0 0 0 0 127 0" result="hardAlpha"/>
<feOffset dy="-13.3287"/>
<feGaussianBlur stdDeviation="4.44298"/>
<feComposite in2="hardAlpha" operator="arithmetic" k2="-1" k3="1"/>
<feColorMatrix type="matrix" values="0 0 0 0 0 0 0 0 0 0 0 0 0 0 0 0 0 0 0.25 0"/>
<feBlend mode="normal" in2="shape" result="effect1_innerShadow_33_159288"/>
<feColorMatrix in="SourceAlpha" type="matrix" values="0 0 0 0 0 0 0 0 0 0 0 0 0 0 0 0 0 0 127 0" result="hardAlpha"/>
<feOffset dx="13.5994" dy="-22.6855"/>
<feGaussianBlur stdDeviation="6.7997"/>
<feComposite in2="hardAlpha" operator="arithmetic" k2="-1" k3="1"/>
<feColorMatrix type="matrix" values="0 0 0 0 0 0 0 0 0 0 0 0 0 0 0 0 0 0 0.12 0"/>
<feBlend mode="normal" in2="effect1_innerShadow_33_159288" result="effect2_innerShadow_33_159288"/>
</filter>
<filter id="filter19_ii_33_159288" x="22" y="42.114" width="57" height="54.886" filterUnits="userSpaceOnUse" color-interpolation-filters="sRGB">
<feFlood flood-opacity="0" result="BackgroundImageFix"/>
<feBlend mode="normal" in="SourceGraphic" in2="BackgroundImageFix" result="shape"/>
<feColorMatrix in="SourceAlpha" type="matrix" values="0 0 0 0 0 0 0 0 0 0 0 0 0 0 0 0 0 0 127 0" result="hardAlpha"/>
<feOffset dy="-13.3289"/>
<feGaussianBlur stdDeviation="4.44298"/>
<feComposite in2="hardAlpha" operator="arithmetic" k2="-1" k3="1"/>
<feColorMatrix type="matrix" values="0 0 0 0 0 0 0 0 0 0 0 0 0 0 0 0 0 0 0.25 0"/>
<feBlend mode="normal" in2="shape" result="effect1_innerShadow_33_159288"/>
<feColorMatrix in="SourceAlpha" type="matrix" values="0 0 0 0 0 0 0 0 0 0 0 0 0 0 0 0 0 0 127 0" result="hardAlpha"/>
<feOffset dy="-2.28655"/>
<feGaussianBlur stdDeviation="2.66765"/>
<feComposite in2="hardAlpha" operator="arithmetic" k2="-1" k3="1"/>
<feColorMatrix type="matrix" values="0 0 0 0 0 0 0 0 0 0 0 0 0 0 0 0 0 0 0.12 0"/>
<feBlend mode="normal" in2="effect1_innerShadow_33_159288" result="effect2_innerShadow_33_159288"/>
</filter>
<filter id="filter20_i_33_159288" x="36" y="40.114" width="31" height="35.886" filterUnits="userSpaceOnUse" color-interpolation-filters="sRGB">
<feFlood flood-opacity="0" result="BackgroundImageFix"/>
<feBlend mode="normal" in="SourceGraphic" in2="BackgroundImageFix" result="shape"/>
<feColorMatrix in="SourceAlpha" type="matrix" values="0 0 0 0 0 0 0 0 0 0 0 0 0 0 0 0 0 0 127 0" result="hardAlpha"/>
<feOffset dy="-8.88596"/>
<feGaussianBlur stdDeviation="4.44298"/>
<feComposite in2="hardAlpha" operator="arithmetic" k2="-1" k3="1"/>
<feColorMatrix type="matrix" values="0 0 0 0 0 0 0 0 0 0 0 0 0 0 0 0 0 0 0.25 0"/>
<feBlend mode="normal" in2="shape" result="effect1_innerShadow_33_159288"/>
</filter>
<filter id="filter21_i_33_159288" x="111" y="48.114" width="36" height="35.886" filterUnits="userSpaceOnUse" color-interpolation-filters="sRGB">
<feFlood flood-opacity="0" result="BackgroundImageFix"/>
<feBlend mode="normal" in="SourceGraphic" in2="BackgroundImageFix" result="shape"/>
<feColorMatrix in="SourceAlpha" type="matrix" values="0 0 0 0 0 0 0 0 0 0 0 0 0 0 0 0 0 0 127 0" result="hardAlpha"/>
<feOffset dy="-8.88596"/>
<feGaussianBlur stdDeviation="4.44298"/>
<feComposite in2="hardAlpha" operator="arithmetic" k2="-1" k3="1"/>
<feColorMatrix type="matrix" values="0 0 0 0 0 0 0 0 0 0 0 0 0 0 0 0 0 0 0.25 0"/>
<feBlend mode="normal" in2="shape" result="effect1_innerShadow_33_159288"/>
</filter>
</defs>
</svg>
