<svg width="226" height="380" viewBox="0 0 226 380" fill="none" xmlns="http://www.w3.org/2000/svg">
<rect y="69" width="226" height="311" rx="14.419" fill="black" fill-opacity="0.12"/>
<g filter="url(#filter0_iii_33_159093)">
<rect x="29" y="150" width="143" height="29" rx="14.419" fill="#854D0E"/>
</g>
<g filter="url(#filter1_iii_33_159093)">
<path d="M30 302H196V325.581C196 333.544 189.544 340 181.581 340H44.419C36.4556 340 30 333.544 30 325.581V302Z" fill="#854D0E"/>
</g>
<g filter="url(#filter2_ii_33_159093)">
<path d="M49 307.419C49 299.456 55.4556 293 63.419 293H160.581C168.544 293 175 299.456 175 307.419V319.581C175 327.544 168.544 334 160.581 334H63.419C55.4556 334 49 327.544 49 319.581V307.419Z" fill="#713F12"/>
</g>
<path d="M27.7273 358.636C27.7273 364.36 23.0873 369 17.3636 369C11.64 369 7 364.36 7 358.636C7 352.913 11.64 348.273 17.3636 348.273C23.0873 348.273 27.7273 352.913 27.7273 358.636Z" fill="black" fill-opacity="0.2"/>
<g filter="url(#filter3_ii_33_159093)">
<path d="M13.8954 294.061C14.3494 287.621 19.7062 282.628 26.1622 282.628C33.9495 282.628 39.7759 289.775 38.2075 297.403L25.3661 359.852C24.5946 363.604 21.292 366.296 17.4616 366.296C12.7813 366.296 9.08253 362.328 9.41168 357.659L13.8954 294.061Z" fill="#854D0E"/>
</g>
<path d="M218.001 358.636C218.001 364.36 213.361 369 207.637 369C201.913 369 197.273 364.36 197.273 358.636C197.273 352.913 201.913 348.273 207.637 348.273C213.361 348.273 218.001 352.913 218.001 358.636Z" fill="black" fill-opacity="0.2"/>
<g filter="url(#filter4_ii_33_159093)">
<path d="M211.105 294.061C210.651 287.621 205.294 282.628 198.838 282.628C191.051 282.628 185.224 289.775 186.793 297.403L199.634 359.852C200.405 363.604 203.708 366.296 207.538 366.296C212.219 366.296 215.917 362.328 215.588 357.659L211.105 294.061Z" fill="#854D0E"/>
</g>
<rect x="13" y="16" width="199" height="303" rx="14.419" fill="black" fill-opacity="0.2"/>
<g filter="url(#filter5_iiii_33_159093)">
<rect x="7" y="5" width="211" height="303" rx="14.419" fill="#854D0E"/>
</g>
<g filter="url(#filter6_ii_33_159093)">
<rect x="7" width="211" height="296" rx="14.419" fill="#CA8A04"/>
</g>
<path opacity="0.1" d="M67 42.7143C67 49.6178 68.2198 57 70.8387 57C73.4576 57 74 51.4036 74 44.5C74 37.5964 73.4576 32 70.8387 32C68.2198 32 67 35.8107 67 42.7143Z" fill="white"/>
<path opacity="0.1" d="M39 87C39 92.799 40.3941 99 43.3871 99C46.3801 99 47 94.299 47 88.5C47 82.701 46.3801 78 43.3871 78C40.3941 78 39 81.201 39 87Z" fill="white"/>
<path opacity="0.1" d="M47 28.8571C47 33.2754 48.7426 38 52.4839 38C56.2252 38 57 34.4183 57 30C57 25.5817 56.2252 22 52.4839 22C48.7426 22 47 24.4389 47 28.8571Z" fill="black"/>
<path opacity="0.1" d="M180 235C180 238.866 181.22 243 183.839 243C186.458 243 187 239.866 187 236C187 232.134 186.458 229 183.839 229C181.22 229 180 231.134 180 235Z" fill="white"/>
<path opacity="0.1" d="M164 256.429C164 264.437 165.394 273 168.387 273C171.38 273 172 266.508 172 258.5C172 250.492 171.38 244 168.387 244C165.394 244 164 248.42 164 256.429Z" fill="black"/>
<defs>
<filter id="filter0_iii_33_159093" x="29" y="150" width="143" height="36.2095" filterUnits="userSpaceOnUse" color-interpolation-filters="sRGB">
<feFlood flood-opacity="0" result="BackgroundImageFix"/>
<feBlend mode="normal" in="SourceGraphic" in2="BackgroundImageFix" result="shape"/>
<feColorMatrix in="SourceAlpha" type="matrix" values="0 0 0 0 0 0 0 0 0 0 0 0 0 0 0 0 0 0 127 0" result="hardAlpha"/>
<feOffset dy="14.419"/>
<feGaussianBlur stdDeviation="3.60474"/>
<feComposite in2="hardAlpha" operator="arithmetic" k2="-1" k3="1"/>
<feColorMatrix type="matrix" values="0 0 0 0 0 0 0 0 0 0 0 0 0 0 0 0 0 0 0.25 0"/>
<feBlend mode="normal" in2="shape" result="effect1_innerShadow_33_159093"/>
<feColorMatrix in="SourceAlpha" type="matrix" values="0 0 0 0 0 0 0 0 0 0 0 0 0 0 0 0 0 0 127 0" result="hardAlpha"/>
<feOffset dx="1.80237" dy="1.80237"/>
<feComposite in2="hardAlpha" operator="arithmetic" k2="-1" k3="1"/>
<feColorMatrix type="matrix" values="0 0 0 0 0 0 0 0 0 0 0 0 0 0 0 0 0 0 0.25 0"/>
<feBlend mode="normal" in2="effect1_innerShadow_33_159093" result="effect2_innerShadow_33_159093"/>
<feColorMatrix in="SourceAlpha" type="matrix" values="0 0 0 0 0 0 0 0 0 0 0 0 0 0 0 0 0 0 127 0" result="hardAlpha"/>
<feOffset dx="-1.80237" dy="1.80237"/>
<feComposite in2="hardAlpha" operator="arithmetic" k2="-1" k3="1"/>
<feColorMatrix type="matrix" values="0 0 0 0 0 0 0 0 0 0 0 0 0 0 0 0 0 0 0.25 0"/>
<feBlend mode="normal" in2="effect2_innerShadow_33_159093" result="effect3_innerShadow_33_159093"/>
</filter>
<filter id="filter1_iii_33_159093" x="30" y="302" width="166" height="45.2095" filterUnits="userSpaceOnUse" color-interpolation-filters="sRGB">
<feFlood flood-opacity="0" result="BackgroundImageFix"/>
<feBlend mode="normal" in="SourceGraphic" in2="BackgroundImageFix" result="shape"/>
<feColorMatrix in="SourceAlpha" type="matrix" values="0 0 0 0 0 0 0 0 0 0 0 0 0 0 0 0 0 0 127 0" result="hardAlpha"/>
<feOffset dy="14.419"/>
<feGaussianBlur stdDeviation="3.60474"/>
<feComposite in2="hardAlpha" operator="arithmetic" k2="-1" k3="1"/>
<feColorMatrix type="matrix" values="0 0 0 0 0 0 0 0 0 0 0 0 0 0 0 0 0 0 0.25 0"/>
<feBlend mode="normal" in2="shape" result="effect1_innerShadow_33_159093"/>
<feColorMatrix in="SourceAlpha" type="matrix" values="0 0 0 0 0 0 0 0 0 0 0 0 0 0 0 0 0 0 127 0" result="hardAlpha"/>
<feOffset dx="1.80237" dy="1.80237"/>
<feComposite in2="hardAlpha" operator="arithmetic" k2="-1" k3="1"/>
<feColorMatrix type="matrix" values="0 0 0 0 0 0 0 0 0 0 0 0 0 0 0 0 0 0 0.25 0"/>
<feBlend mode="normal" in2="effect1_innerShadow_33_159093" result="effect2_innerShadow_33_159093"/>
<feColorMatrix in="SourceAlpha" type="matrix" values="0 0 0 0 0 0 0 0 0 0 0 0 0 0 0 0 0 0 127 0" result="hardAlpha"/>
<feOffset dx="-1.80237" dy="1.80237"/>
<feComposite in2="hardAlpha" operator="arithmetic" k2="-1" k3="1"/>
<feColorMatrix type="matrix" values="0 0 0 0 0 0 0 0 0 0 0 0 0 0 0 0 0 0 0.25 0"/>
<feBlend mode="normal" in2="effect2_innerShadow_33_159093" result="effect3_innerShadow_33_159093"/>
</filter>
<filter id="filter2_ii_33_159093" x="49" y="293" width="126" height="48.2095" filterUnits="userSpaceOnUse" color-interpolation-filters="sRGB">
<feFlood flood-opacity="0" result="BackgroundImageFix"/>
<feBlend mode="normal" in="SourceGraphic" in2="BackgroundImageFix" result="shape"/>
<feColorMatrix in="SourceAlpha" type="matrix" values="0 0 0 0 0 0 0 0 0 0 0 0 0 0 0 0 0 0 127 0" result="hardAlpha"/>
<feOffset dy="28.8379"/>
<feGaussianBlur stdDeviation="3.60474"/>
<feComposite in2="hardAlpha" operator="arithmetic" k2="-1" k3="1"/>
<feColorMatrix type="matrix" values="0 0 0 0 0 0 0 0 0 0 0 0 0 0 0 0 0 0 0.25 0"/>
<feBlend mode="normal" in2="shape" result="effect1_innerShadow_33_159093"/>
<feColorMatrix in="SourceAlpha" type="matrix" values="0 0 0 0 0 0 0 0 0 0 0 0 0 0 0 0 0 0 127 0" result="hardAlpha"/>
<feOffset dy="-3.60474"/>
<feComposite in2="hardAlpha" operator="arithmetic" k2="-1" k3="1"/>
<feColorMatrix type="matrix" values="0 0 0 0 1 0 0 0 0 1 0 0 0 0 1 0 0 0 0.3 0"/>
<feBlend mode="normal" in2="effect1_innerShadow_33_159093" result="effect2_innerShadow_33_159093"/>
</filter>
<filter id="filter3_ii_33_159093" x="2.18114" y="282.628" width="43.4912" height="90.8775" filterUnits="userSpaceOnUse" color-interpolation-filters="sRGB">
<feFlood flood-opacity="0" result="BackgroundImageFix"/>
<feBlend mode="normal" in="SourceGraphic" in2="BackgroundImageFix" result="shape"/>
<feColorMatrix in="SourceAlpha" type="matrix" values="0 0 0 0 0 0 0 0 0 0 0 0 0 0 0 0 0 0 127 0" result="hardAlpha"/>
<feOffset dx="7.20949" dy="21.6285"/>
<feGaussianBlur stdDeviation="3.60474"/>
<feComposite in2="hardAlpha" operator="arithmetic" k2="-1" k3="1"/>
<feColorMatrix type="matrix" values="0 0 0 0 0 0 0 0 0 0 0 0 0 0 0 0 0 0 0.25 0"/>
<feBlend mode="normal" in2="shape" result="effect1_innerShadow_33_159093"/>
<feColorMatrix in="SourceAlpha" type="matrix" values="0 0 0 0 0 0 0 0 0 0 0 0 0 0 0 0 0 0 127 0" result="hardAlpha"/>
<feOffset dx="-7.20949" dy="7.20949"/>
<feGaussianBlur stdDeviation="3.60474"/>
<feComposite in2="hardAlpha" operator="arithmetic" k2="-1" k3="1"/>
<feColorMatrix type="matrix" values="0 0 0 0 1 0 0 0 0 1 0 0 0 0 1 0 0 0 0.25 0"/>
<feBlend mode="normal" in2="effect1_innerShadow_33_159093" result="effect2_innerShadow_33_159093"/>
</filter>
<filter id="filter4_ii_33_159093" x="179.328" y="282.628" width="43.4912" height="90.8775" filterUnits="userSpaceOnUse" color-interpolation-filters="sRGB">
<feFlood flood-opacity="0" result="BackgroundImageFix"/>
<feBlend mode="normal" in="SourceGraphic" in2="BackgroundImageFix" result="shape"/>
<feColorMatrix in="SourceAlpha" type="matrix" values="0 0 0 0 0 0 0 0 0 0 0 0 0 0 0 0 0 0 127 0" result="hardAlpha"/>
<feOffset dx="7.20949" dy="21.6285"/>
<feGaussianBlur stdDeviation="3.60474"/>
<feComposite in2="hardAlpha" operator="arithmetic" k2="-1" k3="1"/>
<feColorMatrix type="matrix" values="0 0 0 0 0 0 0 0 0 0 0 0 0 0 0 0 0 0 0.25 0"/>
<feBlend mode="normal" in2="shape" result="effect1_innerShadow_33_159093"/>
<feColorMatrix in="SourceAlpha" type="matrix" values="0 0 0 0 0 0 0 0 0 0 0 0 0 0 0 0 0 0 127 0" result="hardAlpha"/>
<feOffset dx="-7.20949" dy="7.20949"/>
<feGaussianBlur stdDeviation="3.60474"/>
<feComposite in2="hardAlpha" operator="arithmetic" k2="-1" k3="1"/>
<feColorMatrix type="matrix" values="0 0 0 0 1 0 0 0 0 1 0 0 0 0 1 0 0 0 0.25 0"/>
<feBlend mode="normal" in2="effect1_innerShadow_33_159093" result="effect2_innerShadow_33_159093"/>
</filter>
<filter id="filter5_iiii_33_159093" x="-0.209486" y="5" width="225.419" height="310.209" filterUnits="userSpaceOnUse" color-interpolation-filters="sRGB">
<feFlood flood-opacity="0" result="BackgroundImageFix"/>
<feBlend mode="normal" in="SourceGraphic" in2="BackgroundImageFix" result="shape"/>
<feColorMatrix in="SourceAlpha" type="matrix" values="0 0 0 0 0 0 0 0 0 0 0 0 0 0 0 0 0 0 127 0" result="hardAlpha"/>
<feOffset dx="7.20949" dy="10.8142"/>
<feGaussianBlur stdDeviation="3.60474"/>
<feComposite in2="hardAlpha" operator="arithmetic" k2="-1" k3="1"/>
<feColorMatrix type="matrix" values="0 0 0 0 0 0 0 0 0 0 0 0 0 0 0 0 0 0 0.25 0"/>
<feBlend mode="normal" in2="shape" result="effect1_innerShadow_33_159093"/>
<feColorMatrix in="SourceAlpha" type="matrix" values="0 0 0 0 0 0 0 0 0 0 0 0 0 0 0 0 0 0 127 0" result="hardAlpha"/>
<feOffset dx="-7.20949" dy="7.20949"/>
<feGaussianBlur stdDeviation="3.60474"/>
<feComposite in2="hardAlpha" operator="arithmetic" k2="-1" k3="1"/>
<feColorMatrix type="matrix" values="0 0 0 0 1 0 0 0 0 1 0 0 0 0 1 0 0 0 0.25 0"/>
<feBlend mode="normal" in2="effect1_innerShadow_33_159093" result="effect2_innerShadow_33_159093"/>
<feColorMatrix in="SourceAlpha" type="matrix" values="0 0 0 0 0 0 0 0 0 0 0 0 0 0 0 0 0 0 127 0" result="hardAlpha"/>
<feOffset dx="-0.901186"/>
<feComposite in2="hardAlpha" operator="arithmetic" k2="-1" k3="1"/>
<feColorMatrix type="matrix" values="0 0 0 0 1 0 0 0 0 1 0 0 0 0 1 0 0 0 0.25 0"/>
<feBlend mode="normal" in2="effect2_innerShadow_33_159093" result="effect3_innerShadow_33_159093"/>
<feColorMatrix in="SourceAlpha" type="matrix" values="0 0 0 0 0 0 0 0 0 0 0 0 0 0 0 0 0 0 127 0" result="hardAlpha"/>
<feOffset dx="0.901186"/>
<feComposite in2="hardAlpha" operator="arithmetic" k2="-1" k3="1"/>
<feColorMatrix type="matrix" values="0 0 0 0 0 0 0 0 0 0 0 0 0 0 0 0 0 0 0.25 0"/>
<feBlend mode="normal" in2="effect3_innerShadow_33_159093" result="effect4_innerShadow_33_159093"/>
</filter>
<filter id="filter6_ii_33_159093" x="7" y="0" width="211" height="296" filterUnits="userSpaceOnUse" color-interpolation-filters="sRGB">
<feFlood flood-opacity="0" result="BackgroundImageFix"/>
<feBlend mode="normal" in="SourceGraphic" in2="BackgroundImageFix" result="shape"/>
<feColorMatrix in="SourceAlpha" type="matrix" values="0 0 0 0 0 0 0 0 0 0 0 0 0 0 0 0 0 0 127 0" result="hardAlpha"/>
<feOffset dx="-1.80237"/>
<feComposite in2="hardAlpha" operator="arithmetic" k2="-1" k3="1"/>
<feColorMatrix type="matrix" values="0 0 0 0 1 0 0 0 0 1 0 0 0 0 1 0 0 0 0.25 0"/>
<feBlend mode="normal" in2="shape" result="effect1_innerShadow_33_159093"/>
<feColorMatrix in="SourceAlpha" type="matrix" values="0 0 0 0 0 0 0 0 0 0 0 0 0 0 0 0 0 0 127 0" result="hardAlpha"/>
<feOffset dx="1.80237"/>
<feComposite in2="hardAlpha" operator="arithmetic" k2="-1" k3="1"/>
<feColorMatrix type="matrix" values="0 0 0 0 0 0 0 0 0 0 0 0 0 0 0 0 0 0 0.25 0"/>
<feBlend mode="normal" in2="effect1_innerShadow_33_159093" result="effect2_innerShadow_33_159093"/>
</filter>
</defs>
</svg>
