<svg width="156" height="308" viewBox="0 0 156 308" fill="none" xmlns="http://www.w3.org/2000/svg">
<rect width="113" height="156" rx="6.52215" transform="matrix(-4.3415e-08 1 1 4.40098e-08 0 195)" fill="black" fill-opacity="0.2"/>
<rect width="90" height="134" rx="6.52215" transform="matrix(-4.3415e-08 1 1 4.40098e-08 14 204)" fill="black" fill-opacity="0.2"/>
<path d="M6 207C6 205.343 7.34315 204 9 204H17C18.6569 204 20 205.343 20 207V298C20 299.657 18.6569 301 17 301H9C7.34315 301 6 299.657 6 298V207Z" fill="black" fill-opacity="0.2"/>
<path d="M136 207C136 205.343 137.343 204 139 204H147C148.657 204 150 205.343 150 207V298C150 299.657 148.657 301 147 301H139C137.343 301 136 299.657 136 298V207Z" fill="black" fill-opacity="0.2"/>
<rect x="15" y="290" width="11" height="133" rx="2.17405" transform="rotate(-90 15 290)" fill="#3C2D24"/>
<g filter="url(#filter0_i_33_159118)">
<rect x="138" y="299" width="27" height="10" rx="2.17405" transform="rotate(-90 138 299)" fill="#475569"/>
</g>
<g filter="url(#filter1_i_33_159118)">
<rect x="8" y="299" width="27" height="10" rx="2.17405" transform="rotate(-90 8 299)" fill="#475569"/>
</g>
<g filter="url(#filter2_ii_33_159118)">
<rect width="140" height="227" rx="4" transform="matrix(-1 -1.0681e-07 -7.15543e-08 1 148 0)" fill="#A6815E"/>
</g>
<path opacity="0.1" d="M76.3925 18.5496C80.3302 18.5496 84.5409 18.1053 84.5409 17.1514C84.5409 16.1976 81.3488 16 77.4111 16C73.4734 16 70.2812 16.1976 70.2812 17.1514C70.2812 18.1053 72.4548 18.5496 76.3925 18.5496Z" fill="white"/>
<path opacity="0.1" d="M99.0266 24.4988C107.339 24.4988 116.229 23.9558 116.229 22.7899C116.229 21.624 109.49 21.3826 101.177 21.3826C92.8639 21.3826 86.125 21.624 86.125 22.7899C86.125 23.9558 90.7137 24.4988 99.0266 24.4988Z" fill="black"/>
<path opacity="0.1" d="M30.4193 72.3337C35.8239 72.3337 41.6033 72.7983 41.6033 73.7959C41.6033 74.7934 37.2219 75 31.8173 75C26.4126 75 22.0312 74.7934 22.0312 73.7959C22.0312 72.7983 25.0146 72.3337 30.4193 72.3337Z" fill="#1C1917"/>
<path opacity="0.1" d="M117.816 55.9651C123.22 55.9651 129 56.4297 129 57.4272C129 58.4248 124.618 58.6313 119.214 58.6313C113.809 58.6313 109.428 58.4248 109.428 57.4272C109.428 56.4297 112.411 55.9651 117.816 55.9651Z" fill="white"/>
<path opacity="0.1" d="M29.4946 47.375C35.6123 47.375 42.1541 47.8748 42.1541 48.9479C42.1541 50.0209 37.1947 50.2432 31.077 50.2432C24.9594 50.2432 20 50.0209 20 48.9479C20 47.8748 23.3769 47.375 29.4946 47.375Z" fill="white"/>
<path opacity="0.1" d="M76.2538 43.6944C80.944 43.6944 85.9594 44.3608 85.9594 45.7915C85.9594 47.2222 82.1572 47.5186 77.467 47.5186C72.7768 47.5186 68.9746 47.2222 68.9746 45.7915C68.9746 44.3608 71.5636 43.6944 76.2538 43.6944Z" fill="black"/>
<g filter="url(#filter3_i_33_159118)">
<rect x="8" y="284" width="193" height="140" rx="4" transform="rotate(-90 8 284)" fill="#9A7858"/>
</g>
<g filter="url(#filter4_ii_33_159118)">
<rect x="22" y="152" width="49" height="113" rx="4" transform="rotate(-90 22 152)" fill="#C8A078"/>
</g>
<g filter="url(#filter5_d_33_159118)">
<rect x="22" y="156" width="49" height="113" rx="4" transform="rotate(-90 22 156)" fill="#A6815E"/>
</g>
<g filter="url(#filter6_d_33_159118)">
<rect width="6" height="31" rx="2" transform="matrix(-4.38755e-08 -1 -1 4.35479e-08 94 138)" fill="#64748B"/>
</g>
<path fill-rule="evenodd" clip-rule="evenodd" d="M94 132C94 133.105 93.1046 134 92 134L65 134C63.8954 134 63 133.105 63 132V126H67V130C67 130.552 67.4477 131 68 131L89 131C89.5523 131 90 130.552 90 130V126H94V132Z" fill="#A6B4C8"/>
<g filter="url(#filter7_ii_33_159118)">
<rect x="22" y="209" width="49" height="113" rx="4" transform="rotate(-90 22 209)" fill="#C8A078"/>
</g>
<g filter="url(#filter8_d_33_159118)">
<rect x="22" y="213" width="49" height="113" rx="4" transform="rotate(-90 22 213)" fill="#A6815E"/>
</g>
<g filter="url(#filter9_d_33_159118)">
<rect width="6" height="31" rx="2" transform="matrix(-4.38755e-08 -1 -1 4.35479e-08 94 195)" fill="#64748B"/>
</g>
<path fill-rule="evenodd" clip-rule="evenodd" d="M94 189C94 190.105 93.1046 191 92 191L65 191C63.8954 191 63 190.105 63 189V183H67V187C67 187.552 67.4477 188 68 188L89 188C89.5523 188 90 187.552 90 187V183H94V189Z" fill="#A6B4C8"/>
<g filter="url(#filter10_ii_33_159118)">
<rect x="22" y="266" width="49" height="113" rx="4" transform="rotate(-90 22 266)" fill="#C8A078"/>
</g>
<g filter="url(#filter11_d_33_159118)">
<rect x="22" y="270" width="49" height="113" rx="4" transform="rotate(-90 22 270)" fill="#A6815E"/>
</g>
<g filter="url(#filter12_d_33_159118)">
<rect width="6" height="31" rx="2" transform="matrix(-4.38755e-08 -1 -1 4.35479e-08 94 252)" fill="#64748B"/>
</g>
<path fill-rule="evenodd" clip-rule="evenodd" d="M94 246C94 247.105 93.1046 248 92 248L65 248C63.8954 248 63 247.105 63 246V240H67V244C67 244.552 67.4477 245 68 245L89 245C89.5523 245 90 244.552 90 244V240H94V246Z" fill="#A6B4C8"/>
<defs>
<filter id="filter0_i_33_159118" x="138" y="272" width="14" height="31" filterUnits="userSpaceOnUse" color-interpolation-filters="sRGB">
<feFlood flood-opacity="0" result="BackgroundImageFix"/>
<feBlend mode="normal" in="SourceGraphic" in2="BackgroundImageFix" result="shape"/>
<feColorMatrix in="SourceAlpha" type="matrix" values="0 0 0 0 0 0 0 0 0 0 0 0 0 0 0 0 0 0 127 0" result="hardAlpha"/>
<feOffset dx="4" dy="14"/>
<feGaussianBlur stdDeviation="2"/>
<feComposite in2="hardAlpha" operator="arithmetic" k2="-1" k3="1"/>
<feColorMatrix type="matrix" values="0 0 0 0 0 0 0 0 0 0 0 0 0 0 0 0 0 0 0.35 0"/>
<feBlend mode="normal" in2="shape" result="effect1_innerShadow_33_159118"/>
</filter>
<filter id="filter1_i_33_159118" x="8" y="272" width="14" height="31" filterUnits="userSpaceOnUse" color-interpolation-filters="sRGB">
<feFlood flood-opacity="0" result="BackgroundImageFix"/>
<feBlend mode="normal" in="SourceGraphic" in2="BackgroundImageFix" result="shape"/>
<feColorMatrix in="SourceAlpha" type="matrix" values="0 0 0 0 0 0 0 0 0 0 0 0 0 0 0 0 0 0 127 0" result="hardAlpha"/>
<feOffset dx="4" dy="14"/>
<feGaussianBlur stdDeviation="2"/>
<feComposite in2="hardAlpha" operator="arithmetic" k2="-1" k3="1"/>
<feColorMatrix type="matrix" values="0 0 0 0 0 0 0 0 0 0 0 0 0 0 0 0 0 0 0.35 0"/>
<feBlend mode="normal" in2="shape" result="effect1_innerShadow_33_159118"/>
</filter>
<filter id="filter2_ii_33_159118" x="6" y="-4" width="144" height="231" filterUnits="userSpaceOnUse" color-interpolation-filters="sRGB">
<feFlood flood-opacity="0" result="BackgroundImageFix"/>
<feBlend mode="normal" in="SourceGraphic" in2="BackgroundImageFix" result="shape"/>
<feColorMatrix in="SourceAlpha" type="matrix" values="0 0 0 0 0 0 0 0 0 0 0 0 0 0 0 0 0 0 127 0" result="hardAlpha"/>
<feOffset dx="2" dy="-4"/>
<feGaussianBlur stdDeviation="2"/>
<feComposite in2="hardAlpha" operator="arithmetic" k2="-1" k3="1"/>
<feColorMatrix type="matrix" values="0 0 0 0 0 0 0 0 0 0 0 0 0 0 0 0 0 0 0.25 0"/>
<feBlend mode="normal" in2="shape" result="effect1_innerShadow_33_159118"/>
<feColorMatrix in="SourceAlpha" type="matrix" values="0 0 0 0 0 0 0 0 0 0 0 0 0 0 0 0 0 0 127 0" result="hardAlpha"/>
<feOffset dx="-2" dy="-4"/>
<feGaussianBlur stdDeviation="2"/>
<feComposite in2="hardAlpha" operator="arithmetic" k2="-1" k3="1"/>
<feColorMatrix type="matrix" values="0 0 0 0 1 0 0 0 0 1 0 0 0 0 1 0 0 0 0.25 0"/>
<feBlend mode="normal" in2="effect1_innerShadow_33_159118" result="effect2_innerShadow_33_159118"/>
</filter>
<filter id="filter3_i_33_159118" x="8" y="47" width="140" height="237" filterUnits="userSpaceOnUse" color-interpolation-filters="sRGB">
<feFlood flood-opacity="0" result="BackgroundImageFix"/>
<feBlend mode="normal" in="SourceGraphic" in2="BackgroundImageFix" result="shape"/>
<feColorMatrix in="SourceAlpha" type="matrix" values="0 0 0 0 0 0 0 0 0 0 0 0 0 0 0 0 0 0 127 0" result="hardAlpha"/>
<feOffset dy="-44"/>
<feGaussianBlur stdDeviation="66"/>
<feComposite in2="hardAlpha" operator="arithmetic" k2="-1" k3="1"/>
<feColorMatrix type="matrix" values="0 0 0 0 0 0 0 0 0 0 0 0 0 0 0 0 0 0 0.25 0"/>
<feBlend mode="normal" in2="shape" result="effect1_innerShadow_33_159118"/>
</filter>
<filter id="filter4_ii_33_159118" x="20" y="99" width="117" height="53" filterUnits="userSpaceOnUse" color-interpolation-filters="sRGB">
<feFlood flood-opacity="0" result="BackgroundImageFix"/>
<feBlend mode="normal" in="SourceGraphic" in2="BackgroundImageFix" result="shape"/>
<feColorMatrix in="SourceAlpha" type="matrix" values="0 0 0 0 0 0 0 0 0 0 0 0 0 0 0 0 0 0 127 0" result="hardAlpha"/>
<feOffset dx="2" dy="-4"/>
<feGaussianBlur stdDeviation="2"/>
<feComposite in2="hardAlpha" operator="arithmetic" k2="-1" k3="1"/>
<feColorMatrix type="matrix" values="0 0 0 0 0 0 0 0 0 0 0 0 0 0 0 0 0 0 0.25 0"/>
<feBlend mode="normal" in2="shape" result="effect1_innerShadow_33_159118"/>
<feColorMatrix in="SourceAlpha" type="matrix" values="0 0 0 0 0 0 0 0 0 0 0 0 0 0 0 0 0 0 127 0" result="hardAlpha"/>
<feOffset dx="-2" dy="-4"/>
<feGaussianBlur stdDeviation="2"/>
<feComposite in2="hardAlpha" operator="arithmetic" k2="-1" k3="1"/>
<feColorMatrix type="matrix" values="0 0 0 0 1 0 0 0 0 1 0 0 0 0 1 0 0 0 0.25 0"/>
<feBlend mode="normal" in2="effect1_innerShadow_33_159118" result="effect2_innerShadow_33_159118"/>
</filter>
<filter id="filter5_d_33_159118" x="22" y="107" width="113" height="53" filterUnits="userSpaceOnUse" color-interpolation-filters="sRGB">
<feFlood flood-opacity="0" result="BackgroundImageFix"/>
<feColorMatrix in="SourceAlpha" type="matrix" values="0 0 0 0 0 0 0 0 0 0 0 0 0 0 0 0 0 0 127 0" result="hardAlpha"/>
<feOffset dy="4"/>
<feComposite in2="hardAlpha" operator="out"/>
<feColorMatrix type="matrix" values="0 0 0 0 0 0 0 0 0 0 0 0 0 0 0 0 0 0 0.25 0"/>
<feBlend mode="normal" in2="BackgroundImageFix" result="effect1_dropShadow_33_159118"/>
<feBlend mode="normal" in="SourceGraphic" in2="effect1_dropShadow_33_159118" result="shape"/>
</filter>
<filter id="filter6_d_33_159118" x="59" y="132" width="39" height="14" filterUnits="userSpaceOnUse" color-interpolation-filters="sRGB">
<feFlood flood-opacity="0" result="BackgroundImageFix"/>
<feColorMatrix in="SourceAlpha" type="matrix" values="0 0 0 0 0 0 0 0 0 0 0 0 0 0 0 0 0 0 127 0" result="hardAlpha"/>
<feOffset dy="4"/>
<feGaussianBlur stdDeviation="2"/>
<feComposite in2="hardAlpha" operator="out"/>
<feColorMatrix type="matrix" values="0 0 0 0 0 0 0 0 0 0 0 0 0 0 0 0 0 0 0.25 0"/>
<feBlend mode="normal" in2="BackgroundImageFix" result="effect1_dropShadow_33_159118"/>
<feBlend mode="normal" in="SourceGraphic" in2="effect1_dropShadow_33_159118" result="shape"/>
</filter>
<filter id="filter7_ii_33_159118" x="20" y="156" width="117" height="53" filterUnits="userSpaceOnUse" color-interpolation-filters="sRGB">
<feFlood flood-opacity="0" result="BackgroundImageFix"/>
<feBlend mode="normal" in="SourceGraphic" in2="BackgroundImageFix" result="shape"/>
<feColorMatrix in="SourceAlpha" type="matrix" values="0 0 0 0 0 0 0 0 0 0 0 0 0 0 0 0 0 0 127 0" result="hardAlpha"/>
<feOffset dx="2" dy="-4"/>
<feGaussianBlur stdDeviation="2"/>
<feComposite in2="hardAlpha" operator="arithmetic" k2="-1" k3="1"/>
<feColorMatrix type="matrix" values="0 0 0 0 0 0 0 0 0 0 0 0 0 0 0 0 0 0 0.25 0"/>
<feBlend mode="normal" in2="shape" result="effect1_innerShadow_33_159118"/>
<feColorMatrix in="SourceAlpha" type="matrix" values="0 0 0 0 0 0 0 0 0 0 0 0 0 0 0 0 0 0 127 0" result="hardAlpha"/>
<feOffset dx="-2" dy="-4"/>
<feGaussianBlur stdDeviation="2"/>
<feComposite in2="hardAlpha" operator="arithmetic" k2="-1" k3="1"/>
<feColorMatrix type="matrix" values="0 0 0 0 1 0 0 0 0 1 0 0 0 0 1 0 0 0 0.25 0"/>
<feBlend mode="normal" in2="effect1_innerShadow_33_159118" result="effect2_innerShadow_33_159118"/>
</filter>
<filter id="filter8_d_33_159118" x="22" y="164" width="113" height="53" filterUnits="userSpaceOnUse" color-interpolation-filters="sRGB">
<feFlood flood-opacity="0" result="BackgroundImageFix"/>
<feColorMatrix in="SourceAlpha" type="matrix" values="0 0 0 0 0 0 0 0 0 0 0 0 0 0 0 0 0 0 127 0" result="hardAlpha"/>
<feOffset dy="4"/>
<feComposite in2="hardAlpha" operator="out"/>
<feColorMatrix type="matrix" values="0 0 0 0 0 0 0 0 0 0 0 0 0 0 0 0 0 0 0.25 0"/>
<feBlend mode="normal" in2="BackgroundImageFix" result="effect1_dropShadow_33_159118"/>
<feBlend mode="normal" in="SourceGraphic" in2="effect1_dropShadow_33_159118" result="shape"/>
</filter>
<filter id="filter9_d_33_159118" x="59" y="189" width="39" height="14" filterUnits="userSpaceOnUse" color-interpolation-filters="sRGB">
<feFlood flood-opacity="0" result="BackgroundImageFix"/>
<feColorMatrix in="SourceAlpha" type="matrix" values="0 0 0 0 0 0 0 0 0 0 0 0 0 0 0 0 0 0 127 0" result="hardAlpha"/>
<feOffset dy="4"/>
<feGaussianBlur stdDeviation="2"/>
<feComposite in2="hardAlpha" operator="out"/>
<feColorMatrix type="matrix" values="0 0 0 0 0 0 0 0 0 0 0 0 0 0 0 0 0 0 0.25 0"/>
<feBlend mode="normal" in2="BackgroundImageFix" result="effect1_dropShadow_33_159118"/>
<feBlend mode="normal" in="SourceGraphic" in2="effect1_dropShadow_33_159118" result="shape"/>
</filter>
<filter id="filter10_ii_33_159118" x="20" y="213" width="117" height="53" filterUnits="userSpaceOnUse" color-interpolation-filters="sRGB">
<feFlood flood-opacity="0" result="BackgroundImageFix"/>
<feBlend mode="normal" in="SourceGraphic" in2="BackgroundImageFix" result="shape"/>
<feColorMatrix in="SourceAlpha" type="matrix" values="0 0 0 0 0 0 0 0 0 0 0 0 0 0 0 0 0 0 127 0" result="hardAlpha"/>
<feOffset dx="2" dy="-4"/>
<feGaussianBlur stdDeviation="2"/>
<feComposite in2="hardAlpha" operator="arithmetic" k2="-1" k3="1"/>
<feColorMatrix type="matrix" values="0 0 0 0 0 0 0 0 0 0 0 0 0 0 0 0 0 0 0.25 0"/>
<feBlend mode="normal" in2="shape" result="effect1_innerShadow_33_159118"/>
<feColorMatrix in="SourceAlpha" type="matrix" values="0 0 0 0 0 0 0 0 0 0 0 0 0 0 0 0 0 0 127 0" result="hardAlpha"/>
<feOffset dx="-2" dy="-4"/>
<feGaussianBlur stdDeviation="2"/>
<feComposite in2="hardAlpha" operator="arithmetic" k2="-1" k3="1"/>
<feColorMatrix type="matrix" values="0 0 0 0 1 0 0 0 0 1 0 0 0 0 1 0 0 0 0.25 0"/>
<feBlend mode="normal" in2="effect1_innerShadow_33_159118" result="effect2_innerShadow_33_159118"/>
</filter>
<filter id="filter11_d_33_159118" x="22" y="221" width="113" height="53" filterUnits="userSpaceOnUse" color-interpolation-filters="sRGB">
<feFlood flood-opacity="0" result="BackgroundImageFix"/>
<feColorMatrix in="SourceAlpha" type="matrix" values="0 0 0 0 0 0 0 0 0 0 0 0 0 0 0 0 0 0 127 0" result="hardAlpha"/>
<feOffset dy="4"/>
<feComposite in2="hardAlpha" operator="out"/>
<feColorMatrix type="matrix" values="0 0 0 0 0 0 0 0 0 0 0 0 0 0 0 0 0 0 0.25 0"/>
<feBlend mode="normal" in2="BackgroundImageFix" result="effect1_dropShadow_33_159118"/>
<feBlend mode="normal" in="SourceGraphic" in2="effect1_dropShadow_33_159118" result="shape"/>
</filter>
<filter id="filter12_d_33_159118" x="59" y="246" width="39" height="14" filterUnits="userSpaceOnUse" color-interpolation-filters="sRGB">
<feFlood flood-opacity="0" result="BackgroundImageFix"/>
<feColorMatrix in="SourceAlpha" type="matrix" values="0 0 0 0 0 0 0 0 0 0 0 0 0 0 0 0 0 0 127 0" result="hardAlpha"/>
<feOffset dy="4"/>
<feGaussianBlur stdDeviation="2"/>
<feComposite in2="hardAlpha" operator="out"/>
<feColorMatrix type="matrix" values="0 0 0 0 0 0 0 0 0 0 0 0 0 0 0 0 0 0 0.25 0"/>
<feBlend mode="normal" in2="BackgroundImageFix" result="effect1_dropShadow_33_159118"/>
<feBlend mode="normal" in="SourceGraphic" in2="effect1_dropShadow_33_159118" result="shape"/>
</filter>
</defs>
</svg>
