<svg width="156" height="423" viewBox="0 0 156 423" fill="none" xmlns="http://www.w3.org/2000/svg">
<rect width="113" height="156" rx="6.52215" transform="matrix(-4.3415e-08 1 1 4.40098e-08 0 310)" fill="black" fill-opacity="0.2"/>
<rect width="90" height="134" rx="6.52215" transform="matrix(-4.3415e-08 1 1 4.40098e-08 14 319)" fill="black" fill-opacity="0.2"/>
<path d="M6 322C6 320.343 7.34315 319 9 319H17C18.6569 319 20 320.343 20 322V413C20 414.657 18.6569 416 17 416H9C7.34315 416 6 414.657 6 413V322Z" fill="black" fill-opacity="0.2"/>
<path d="M136 322C136 320.343 137.343 319 139 319H147C148.657 319 150 320.343 150 322V413C150 414.657 148.657 416 147 416H139C137.343 416 136 414.657 136 413V322Z" fill="black" fill-opacity="0.2"/>
<rect x="15" y="405" width="11" height="133" rx="2.17405" transform="rotate(-90 15 405)" fill="#3C2D24"/>
<g filter="url(#filter0_i_33_159124)">
<rect x="138" y="414" width="27" height="10" rx="2.17405" transform="rotate(-90 138 414)" fill="#57534E"/>
</g>
<g filter="url(#filter1_i_33_159124)">
<rect x="8" y="414" width="27" height="10" rx="2.17405" transform="rotate(-90 8 414)" fill="#57534E"/>
</g>
<g filter="url(#filter2_ii_33_159124)">
<rect width="140" height="342" rx="4" transform="matrix(-1 -1.0681e-07 -7.15543e-08 1 148 0)" fill="#78716C"/>
</g>
<path opacity="0.1" d="M30.4657 40.9515C30.4657 38.4852 29.6875 35.8478 28.0168 35.8478C26.346 35.8478 26 37.8472 26 40.3136C26 42.7799 26.346 44.7793 28.0168 44.7793C29.6875 44.7793 30.4657 43.4179 30.4657 40.9515Z" fill="white"/>
<path opacity="0.1" d="M40.8859 26.7745C40.8859 21.5677 39.9347 16 37.8927 16C35.8507 16 35.4277 20.2209 35.4277 25.4277C35.4277 30.6344 35.8507 34.8553 37.8927 34.8553C39.9347 34.8553 40.8859 31.9812 40.8859 26.7745Z" fill="black"/>
<path opacity="0.1" d="M124.67 69.7462C124.67 66.361 125.484 62.7411 127.231 62.7411C128.978 62.7411 129.34 65.4854 129.34 68.8706C129.34 72.2558 128.978 75 127.231 75C125.484 75 124.67 73.1314 124.67 69.7462Z" fill="#1C1917"/>
<path opacity="0.1" d="M95.9999 15.0051C95.9999 11.6199 96.8137 8.00003 98.5609 8.00003C100.308 8.00003 100.67 10.7443 100.67 14.1295C100.67 17.5147 100.308 20.2589 98.5609 20.2589C96.8137 20.2589 95.9999 18.3903 95.9999 15.0051Z" fill="white"/>
<path opacity="0.1" d="M80.9549 70.3249C80.9549 66.4931 81.8303 62.3957 83.7098 62.3957C85.5893 62.3957 85.9785 65.502 85.9785 69.3338C85.9785 73.1656 85.5893 76.2719 83.7098 76.2719C81.8303 76.2719 80.9549 74.1567 80.9549 70.3249Z" fill="white"/>
<path opacity="0.1" d="M74.5069 41.0379C74.5069 38.1001 75.6741 34.9588 78.1801 34.9588C80.6861 34.9588 81.2051 37.3403 81.2051 40.278C81.2051 43.2157 80.6861 45.5972 78.1801 45.5972C75.6741 45.5972 74.5069 43.9756 74.5069 41.0379Z" fill="black"/>
<g filter="url(#filter3_i_33_159124)">
<rect x="8" y="399" width="308" height="140" rx="4" transform="rotate(-90 8 399)" fill="#78716C"/>
</g>
<g filter="url(#filter4_ii_33_159124)">
<rect x="22" y="152" width="49" height="113" rx="4" transform="rotate(-90 22 152)" fill="#A8A29E"/>
</g>
<g filter="url(#filter5_d_33_159124)">
<rect x="22" y="156" width="49" height="113" rx="4" transform="rotate(-90 22 156)" fill="#78716C"/>
</g>
<g filter="url(#filter6_d_33_159124)">
<rect width="6" height="31" rx="2" transform="matrix(-4.38755e-08 -1 -1 4.35479e-08 94 138)" fill="#64748B"/>
</g>
<path fill-rule="evenodd" clip-rule="evenodd" d="M94 132C94 133.105 93.1046 134 92 134L65 134C63.8954 134 63 133.105 63 132V126H67V130C67 130.552 67.4477 131 68 131L89 131C89.5523 131 90 130.552 90 130V126H94V132Z" fill="#A6B4C8"/>
<g filter="url(#filter7_ii_33_159124)">
<rect x="22" y="209" width="49" height="113" rx="4" transform="rotate(-90 22 209)" fill="#A8A29E"/>
</g>
<g filter="url(#filter8_d_33_159124)">
<rect x="22" y="213" width="49" height="113" rx="4" transform="rotate(-90 22 213)" fill="#78716C"/>
</g>
<g filter="url(#filter9_d_33_159124)">
<rect width="6" height="31" rx="2" transform="matrix(-4.38755e-08 -1 -1 4.35479e-08 94 195)" fill="#64748B"/>
</g>
<path fill-rule="evenodd" clip-rule="evenodd" d="M94 189C94 190.105 93.1046 191 92 191L65 191C63.8954 191 63 190.105 63 189V183H67V187C67 187.552 67.4477 188 68 188L89 188C89.5523 188 90 187.552 90 187V183H94V189Z" fill="#A6B4C8"/>
<g filter="url(#filter10_ii_33_159124)">
<rect x="22" y="266" width="49" height="113" rx="4" transform="rotate(-90 22 266)" fill="#A8A29E"/>
</g>
<g filter="url(#filter11_d_33_159124)">
<rect x="22" y="270" width="49" height="113" rx="4" transform="rotate(-90 22 270)" fill="#78716C"/>
</g>
<g filter="url(#filter12_d_33_159124)">
<rect width="6" height="31" rx="2" transform="matrix(-4.38755e-08 -1 -1 4.35479e-08 94 252)" fill="#64748B"/>
</g>
<path fill-rule="evenodd" clip-rule="evenodd" d="M94 246C94 247.105 93.1046 248 92 248L65 248C63.8954 248 63 247.105 63 246V240H67V244C67 244.552 67.4477 245 68 245L89 245C89.5523 245 90 244.552 90 244V240H94V246Z" fill="#A6B4C8"/>
<g filter="url(#filter13_ii_33_159124)">
<rect x="22" y="323" width="49" height="113" rx="4" transform="rotate(-90 22 323)" fill="#A8A29E"/>
</g>
<g filter="url(#filter14_d_33_159124)">
<rect x="22" y="327" width="49" height="113" rx="4" transform="rotate(-90 22 327)" fill="#78716C"/>
</g>
<g filter="url(#filter15_d_33_159124)">
<rect width="6" height="31" rx="2" transform="matrix(-4.38755e-08 -1 -1 4.35479e-08 94 309)" fill="#64748B"/>
</g>
<path fill-rule="evenodd" clip-rule="evenodd" d="M94 303C94 304.105 93.1046 305 92 305L65 305C63.8954 305 63 304.105 63 303V297H67V301C67 301.552 67.4477 302 68 302L89 302C89.5523 302 90 301.552 90 301V297H94V303Z" fill="#A6B4C8"/>
<g filter="url(#filter16_ii_33_159124)">
<rect x="22" y="380" width="49" height="113" rx="4" transform="rotate(-90 22 380)" fill="#A8A29E"/>
</g>
<g filter="url(#filter17_d_33_159124)">
<rect x="22" y="384" width="49" height="113" rx="4" transform="rotate(-90 22 384)" fill="#78716C"/>
</g>
<g filter="url(#filter18_d_33_159124)">
<rect width="6" height="31" rx="2" transform="matrix(-4.38755e-08 -1 -1 4.35479e-08 94 366)" fill="#64748B"/>
</g>
<path fill-rule="evenodd" clip-rule="evenodd" d="M94 360C94 361.105 93.1046 362 92 362L65 362C63.8954 362 63 361.105 63 360V354H67V358C67 358.552 67.4477 359 68 359L89 359C89.5523 359 90 358.552 90 358V354H94V360Z" fill="#A6B4C8"/>
<defs>
<filter id="filter0_i_33_159124" x="138" y="387" width="14" height="31" filterUnits="userSpaceOnUse" color-interpolation-filters="sRGB">
<feFlood flood-opacity="0" result="BackgroundImageFix"/>
<feBlend mode="normal" in="SourceGraphic" in2="BackgroundImageFix" result="shape"/>
<feColorMatrix in="SourceAlpha" type="matrix" values="0 0 0 0 0 0 0 0 0 0 0 0 0 0 0 0 0 0 127 0" result="hardAlpha"/>
<feOffset dx="4" dy="14"/>
<feGaussianBlur stdDeviation="2"/>
<feComposite in2="hardAlpha" operator="arithmetic" k2="-1" k3="1"/>
<feColorMatrix type="matrix" values="0 0 0 0 0 0 0 0 0 0 0 0 0 0 0 0 0 0 0.35 0"/>
<feBlend mode="normal" in2="shape" result="effect1_innerShadow_33_159124"/>
</filter>
<filter id="filter1_i_33_159124" x="8" y="387" width="14" height="31" filterUnits="userSpaceOnUse" color-interpolation-filters="sRGB">
<feFlood flood-opacity="0" result="BackgroundImageFix"/>
<feBlend mode="normal" in="SourceGraphic" in2="BackgroundImageFix" result="shape"/>
<feColorMatrix in="SourceAlpha" type="matrix" values="0 0 0 0 0 0 0 0 0 0 0 0 0 0 0 0 0 0 127 0" result="hardAlpha"/>
<feOffset dx="4" dy="14"/>
<feGaussianBlur stdDeviation="2"/>
<feComposite in2="hardAlpha" operator="arithmetic" k2="-1" k3="1"/>
<feColorMatrix type="matrix" values="0 0 0 0 0 0 0 0 0 0 0 0 0 0 0 0 0 0 0.35 0"/>
<feBlend mode="normal" in2="shape" result="effect1_innerShadow_33_159124"/>
</filter>
<filter id="filter2_ii_33_159124" x="6" y="-4" width="144" height="346" filterUnits="userSpaceOnUse" color-interpolation-filters="sRGB">
<feFlood flood-opacity="0" result="BackgroundImageFix"/>
<feBlend mode="normal" in="SourceGraphic" in2="BackgroundImageFix" result="shape"/>
<feColorMatrix in="SourceAlpha" type="matrix" values="0 0 0 0 0 0 0 0 0 0 0 0 0 0 0 0 0 0 127 0" result="hardAlpha"/>
<feOffset dx="2" dy="-4"/>
<feGaussianBlur stdDeviation="2"/>
<feComposite in2="hardAlpha" operator="arithmetic" k2="-1" k3="1"/>
<feColorMatrix type="matrix" values="0 0 0 0 0 0 0 0 0 0 0 0 0 0 0 0 0 0 0.25 0"/>
<feBlend mode="normal" in2="shape" result="effect1_innerShadow_33_159124"/>
<feColorMatrix in="SourceAlpha" type="matrix" values="0 0 0 0 0 0 0 0 0 0 0 0 0 0 0 0 0 0 127 0" result="hardAlpha"/>
<feOffset dx="-2" dy="-4"/>
<feGaussianBlur stdDeviation="2"/>
<feComposite in2="hardAlpha" operator="arithmetic" k2="-1" k3="1"/>
<feColorMatrix type="matrix" values="0 0 0 0 1 0 0 0 0 1 0 0 0 0 1 0 0 0 0.25 0"/>
<feBlend mode="normal" in2="effect1_innerShadow_33_159124" result="effect2_innerShadow_33_159124"/>
</filter>
<filter id="filter3_i_33_159124" x="8" y="47.0001" width="140" height="352" filterUnits="userSpaceOnUse" color-interpolation-filters="sRGB">
<feFlood flood-opacity="0" result="BackgroundImageFix"/>
<feBlend mode="normal" in="SourceGraphic" in2="BackgroundImageFix" result="shape"/>
<feColorMatrix in="SourceAlpha" type="matrix" values="0 0 0 0 0 0 0 0 0 0 0 0 0 0 0 0 0 0 127 0" result="hardAlpha"/>
<feOffset dy="-44"/>
<feGaussianBlur stdDeviation="66"/>
<feComposite in2="hardAlpha" operator="arithmetic" k2="-1" k3="1"/>
<feColorMatrix type="matrix" values="0 0 0 0 0 0 0 0 0 0 0 0 0 0 0 0 0 0 0.25 0"/>
<feBlend mode="normal" in2="shape" result="effect1_innerShadow_33_159124"/>
</filter>
<filter id="filter4_ii_33_159124" x="20" y="99" width="117" height="53" filterUnits="userSpaceOnUse" color-interpolation-filters="sRGB">
<feFlood flood-opacity="0" result="BackgroundImageFix"/>
<feBlend mode="normal" in="SourceGraphic" in2="BackgroundImageFix" result="shape"/>
<feColorMatrix in="SourceAlpha" type="matrix" values="0 0 0 0 0 0 0 0 0 0 0 0 0 0 0 0 0 0 127 0" result="hardAlpha"/>
<feOffset dx="2" dy="-4"/>
<feGaussianBlur stdDeviation="2"/>
<feComposite in2="hardAlpha" operator="arithmetic" k2="-1" k3="1"/>
<feColorMatrix type="matrix" values="0 0 0 0 0 0 0 0 0 0 0 0 0 0 0 0 0 0 0.25 0"/>
<feBlend mode="normal" in2="shape" result="effect1_innerShadow_33_159124"/>
<feColorMatrix in="SourceAlpha" type="matrix" values="0 0 0 0 0 0 0 0 0 0 0 0 0 0 0 0 0 0 127 0" result="hardAlpha"/>
<feOffset dx="-2" dy="-4"/>
<feGaussianBlur stdDeviation="2"/>
<feComposite in2="hardAlpha" operator="arithmetic" k2="-1" k3="1"/>
<feColorMatrix type="matrix" values="0 0 0 0 1 0 0 0 0 1 0 0 0 0 1 0 0 0 0.25 0"/>
<feBlend mode="normal" in2="effect1_innerShadow_33_159124" result="effect2_innerShadow_33_159124"/>
</filter>
<filter id="filter5_d_33_159124" x="22" y="107" width="113" height="53" filterUnits="userSpaceOnUse" color-interpolation-filters="sRGB">
<feFlood flood-opacity="0" result="BackgroundImageFix"/>
<feColorMatrix in="SourceAlpha" type="matrix" values="0 0 0 0 0 0 0 0 0 0 0 0 0 0 0 0 0 0 127 0" result="hardAlpha"/>
<feOffset dy="4"/>
<feComposite in2="hardAlpha" operator="out"/>
<feColorMatrix type="matrix" values="0 0 0 0 0 0 0 0 0 0 0 0 0 0 0 0 0 0 0.25 0"/>
<feBlend mode="normal" in2="BackgroundImageFix" result="effect1_dropShadow_33_159124"/>
<feBlend mode="normal" in="SourceGraphic" in2="effect1_dropShadow_33_159124" result="shape"/>
</filter>
<filter id="filter6_d_33_159124" x="59" y="132" width="39" height="14" filterUnits="userSpaceOnUse" color-interpolation-filters="sRGB">
<feFlood flood-opacity="0" result="BackgroundImageFix"/>
<feColorMatrix in="SourceAlpha" type="matrix" values="0 0 0 0 0 0 0 0 0 0 0 0 0 0 0 0 0 0 127 0" result="hardAlpha"/>
<feOffset dy="4"/>
<feGaussianBlur stdDeviation="2"/>
<feComposite in2="hardAlpha" operator="out"/>
<feColorMatrix type="matrix" values="0 0 0 0 0 0 0 0 0 0 0 0 0 0 0 0 0 0 0.25 0"/>
<feBlend mode="normal" in2="BackgroundImageFix" result="effect1_dropShadow_33_159124"/>
<feBlend mode="normal" in="SourceGraphic" in2="effect1_dropShadow_33_159124" result="shape"/>
</filter>
<filter id="filter7_ii_33_159124" x="20" y="156" width="117" height="53" filterUnits="userSpaceOnUse" color-interpolation-filters="sRGB">
<feFlood flood-opacity="0" result="BackgroundImageFix"/>
<feBlend mode="normal" in="SourceGraphic" in2="BackgroundImageFix" result="shape"/>
<feColorMatrix in="SourceAlpha" type="matrix" values="0 0 0 0 0 0 0 0 0 0 0 0 0 0 0 0 0 0 127 0" result="hardAlpha"/>
<feOffset dx="2" dy="-4"/>
<feGaussianBlur stdDeviation="2"/>
<feComposite in2="hardAlpha" operator="arithmetic" k2="-1" k3="1"/>
<feColorMatrix type="matrix" values="0 0 0 0 0 0 0 0 0 0 0 0 0 0 0 0 0 0 0.25 0"/>
<feBlend mode="normal" in2="shape" result="effect1_innerShadow_33_159124"/>
<feColorMatrix in="SourceAlpha" type="matrix" values="0 0 0 0 0 0 0 0 0 0 0 0 0 0 0 0 0 0 127 0" result="hardAlpha"/>
<feOffset dx="-2" dy="-4"/>
<feGaussianBlur stdDeviation="2"/>
<feComposite in2="hardAlpha" operator="arithmetic" k2="-1" k3="1"/>
<feColorMatrix type="matrix" values="0 0 0 0 1 0 0 0 0 1 0 0 0 0 1 0 0 0 0.25 0"/>
<feBlend mode="normal" in2="effect1_innerShadow_33_159124" result="effect2_innerShadow_33_159124"/>
</filter>
<filter id="filter8_d_33_159124" x="22" y="164" width="113" height="53" filterUnits="userSpaceOnUse" color-interpolation-filters="sRGB">
<feFlood flood-opacity="0" result="BackgroundImageFix"/>
<feColorMatrix in="SourceAlpha" type="matrix" values="0 0 0 0 0 0 0 0 0 0 0 0 0 0 0 0 0 0 127 0" result="hardAlpha"/>
<feOffset dy="4"/>
<feComposite in2="hardAlpha" operator="out"/>
<feColorMatrix type="matrix" values="0 0 0 0 0 0 0 0 0 0 0 0 0 0 0 0 0 0 0.25 0"/>
<feBlend mode="normal" in2="BackgroundImageFix" result="effect1_dropShadow_33_159124"/>
<feBlend mode="normal" in="SourceGraphic" in2="effect1_dropShadow_33_159124" result="shape"/>
</filter>
<filter id="filter9_d_33_159124" x="59" y="189" width="39" height="14" filterUnits="userSpaceOnUse" color-interpolation-filters="sRGB">
<feFlood flood-opacity="0" result="BackgroundImageFix"/>
<feColorMatrix in="SourceAlpha" type="matrix" values="0 0 0 0 0 0 0 0 0 0 0 0 0 0 0 0 0 0 127 0" result="hardAlpha"/>
<feOffset dy="4"/>
<feGaussianBlur stdDeviation="2"/>
<feComposite in2="hardAlpha" operator="out"/>
<feColorMatrix type="matrix" values="0 0 0 0 0 0 0 0 0 0 0 0 0 0 0 0 0 0 0.25 0"/>
<feBlend mode="normal" in2="BackgroundImageFix" result="effect1_dropShadow_33_159124"/>
<feBlend mode="normal" in="SourceGraphic" in2="effect1_dropShadow_33_159124" result="shape"/>
</filter>
<filter id="filter10_ii_33_159124" x="20" y="213" width="117" height="53" filterUnits="userSpaceOnUse" color-interpolation-filters="sRGB">
<feFlood flood-opacity="0" result="BackgroundImageFix"/>
<feBlend mode="normal" in="SourceGraphic" in2="BackgroundImageFix" result="shape"/>
<feColorMatrix in="SourceAlpha" type="matrix" values="0 0 0 0 0 0 0 0 0 0 0 0 0 0 0 0 0 0 127 0" result="hardAlpha"/>
<feOffset dx="2" dy="-4"/>
<feGaussianBlur stdDeviation="2"/>
<feComposite in2="hardAlpha" operator="arithmetic" k2="-1" k3="1"/>
<feColorMatrix type="matrix" values="0 0 0 0 0 0 0 0 0 0 0 0 0 0 0 0 0 0 0.25 0"/>
<feBlend mode="normal" in2="shape" result="effect1_innerShadow_33_159124"/>
<feColorMatrix in="SourceAlpha" type="matrix" values="0 0 0 0 0 0 0 0 0 0 0 0 0 0 0 0 0 0 127 0" result="hardAlpha"/>
<feOffset dx="-2" dy="-4"/>
<feGaussianBlur stdDeviation="2"/>
<feComposite in2="hardAlpha" operator="arithmetic" k2="-1" k3="1"/>
<feColorMatrix type="matrix" values="0 0 0 0 1 0 0 0 0 1 0 0 0 0 1 0 0 0 0.25 0"/>
<feBlend mode="normal" in2="effect1_innerShadow_33_159124" result="effect2_innerShadow_33_159124"/>
</filter>
<filter id="filter11_d_33_159124" x="22" y="221" width="113" height="53" filterUnits="userSpaceOnUse" color-interpolation-filters="sRGB">
<feFlood flood-opacity="0" result="BackgroundImageFix"/>
<feColorMatrix in="SourceAlpha" type="matrix" values="0 0 0 0 0 0 0 0 0 0 0 0 0 0 0 0 0 0 127 0" result="hardAlpha"/>
<feOffset dy="4"/>
<feComposite in2="hardAlpha" operator="out"/>
<feColorMatrix type="matrix" values="0 0 0 0 0 0 0 0 0 0 0 0 0 0 0 0 0 0 0.25 0"/>
<feBlend mode="normal" in2="BackgroundImageFix" result="effect1_dropShadow_33_159124"/>
<feBlend mode="normal" in="SourceGraphic" in2="effect1_dropShadow_33_159124" result="shape"/>
</filter>
<filter id="filter12_d_33_159124" x="59" y="246" width="39" height="14" filterUnits="userSpaceOnUse" color-interpolation-filters="sRGB">
<feFlood flood-opacity="0" result="BackgroundImageFix"/>
<feColorMatrix in="SourceAlpha" type="matrix" values="0 0 0 0 0 0 0 0 0 0 0 0 0 0 0 0 0 0 127 0" result="hardAlpha"/>
<feOffset dy="4"/>
<feGaussianBlur stdDeviation="2"/>
<feComposite in2="hardAlpha" operator="out"/>
<feColorMatrix type="matrix" values="0 0 0 0 0 0 0 0 0 0 0 0 0 0 0 0 0 0 0.25 0"/>
<feBlend mode="normal" in2="BackgroundImageFix" result="effect1_dropShadow_33_159124"/>
<feBlend mode="normal" in="SourceGraphic" in2="effect1_dropShadow_33_159124" result="shape"/>
</filter>
<filter id="filter13_ii_33_159124" x="20" y="270" width="117" height="53" filterUnits="userSpaceOnUse" color-interpolation-filters="sRGB">
<feFlood flood-opacity="0" result="BackgroundImageFix"/>
<feBlend mode="normal" in="SourceGraphic" in2="BackgroundImageFix" result="shape"/>
<feColorMatrix in="SourceAlpha" type="matrix" values="0 0 0 0 0 0 0 0 0 0 0 0 0 0 0 0 0 0 127 0" result="hardAlpha"/>
<feOffset dx="2" dy="-4"/>
<feGaussianBlur stdDeviation="2"/>
<feComposite in2="hardAlpha" operator="arithmetic" k2="-1" k3="1"/>
<feColorMatrix type="matrix" values="0 0 0 0 0 0 0 0 0 0 0 0 0 0 0 0 0 0 0.25 0"/>
<feBlend mode="normal" in2="shape" result="effect1_innerShadow_33_159124"/>
<feColorMatrix in="SourceAlpha" type="matrix" values="0 0 0 0 0 0 0 0 0 0 0 0 0 0 0 0 0 0 127 0" result="hardAlpha"/>
<feOffset dx="-2" dy="-4"/>
<feGaussianBlur stdDeviation="2"/>
<feComposite in2="hardAlpha" operator="arithmetic" k2="-1" k3="1"/>
<feColorMatrix type="matrix" values="0 0 0 0 1 0 0 0 0 1 0 0 0 0 1 0 0 0 0.25 0"/>
<feBlend mode="normal" in2="effect1_innerShadow_33_159124" result="effect2_innerShadow_33_159124"/>
</filter>
<filter id="filter14_d_33_159124" x="22" y="278" width="113" height="53" filterUnits="userSpaceOnUse" color-interpolation-filters="sRGB">
<feFlood flood-opacity="0" result="BackgroundImageFix"/>
<feColorMatrix in="SourceAlpha" type="matrix" values="0 0 0 0 0 0 0 0 0 0 0 0 0 0 0 0 0 0 127 0" result="hardAlpha"/>
<feOffset dy="4"/>
<feComposite in2="hardAlpha" operator="out"/>
<feColorMatrix type="matrix" values="0 0 0 0 0 0 0 0 0 0 0 0 0 0 0 0 0 0 0.25 0"/>
<feBlend mode="normal" in2="BackgroundImageFix" result="effect1_dropShadow_33_159124"/>
<feBlend mode="normal" in="SourceGraphic" in2="effect1_dropShadow_33_159124" result="shape"/>
</filter>
<filter id="filter15_d_33_159124" x="59" y="303" width="39" height="14" filterUnits="userSpaceOnUse" color-interpolation-filters="sRGB">
<feFlood flood-opacity="0" result="BackgroundImageFix"/>
<feColorMatrix in="SourceAlpha" type="matrix" values="0 0 0 0 0 0 0 0 0 0 0 0 0 0 0 0 0 0 127 0" result="hardAlpha"/>
<feOffset dy="4"/>
<feGaussianBlur stdDeviation="2"/>
<feComposite in2="hardAlpha" operator="out"/>
<feColorMatrix type="matrix" values="0 0 0 0 0 0 0 0 0 0 0 0 0 0 0 0 0 0 0.25 0"/>
<feBlend mode="normal" in2="BackgroundImageFix" result="effect1_dropShadow_33_159124"/>
<feBlend mode="normal" in="SourceGraphic" in2="effect1_dropShadow_33_159124" result="shape"/>
</filter>
<filter id="filter16_ii_33_159124" x="20" y="327" width="117" height="53" filterUnits="userSpaceOnUse" color-interpolation-filters="sRGB">
<feFlood flood-opacity="0" result="BackgroundImageFix"/>
<feBlend mode="normal" in="SourceGraphic" in2="BackgroundImageFix" result="shape"/>
<feColorMatrix in="SourceAlpha" type="matrix" values="0 0 0 0 0 0 0 0 0 0 0 0 0 0 0 0 0 0 127 0" result="hardAlpha"/>
<feOffset dx="2" dy="-4"/>
<feGaussianBlur stdDeviation="2"/>
<feComposite in2="hardAlpha" operator="arithmetic" k2="-1" k3="1"/>
<feColorMatrix type="matrix" values="0 0 0 0 0 0 0 0 0 0 0 0 0 0 0 0 0 0 0.25 0"/>
<feBlend mode="normal" in2="shape" result="effect1_innerShadow_33_159124"/>
<feColorMatrix in="SourceAlpha" type="matrix" values="0 0 0 0 0 0 0 0 0 0 0 0 0 0 0 0 0 0 127 0" result="hardAlpha"/>
<feOffset dx="-2" dy="-4"/>
<feGaussianBlur stdDeviation="2"/>
<feComposite in2="hardAlpha" operator="arithmetic" k2="-1" k3="1"/>
<feColorMatrix type="matrix" values="0 0 0 0 1 0 0 0 0 1 0 0 0 0 1 0 0 0 0.25 0"/>
<feBlend mode="normal" in2="effect1_innerShadow_33_159124" result="effect2_innerShadow_33_159124"/>
</filter>
<filter id="filter17_d_33_159124" x="22" y="335" width="113" height="53" filterUnits="userSpaceOnUse" color-interpolation-filters="sRGB">
<feFlood flood-opacity="0" result="BackgroundImageFix"/>
<feColorMatrix in="SourceAlpha" type="matrix" values="0 0 0 0 0 0 0 0 0 0 0 0 0 0 0 0 0 0 127 0" result="hardAlpha"/>
<feOffset dy="4"/>
<feComposite in2="hardAlpha" operator="out"/>
<feColorMatrix type="matrix" values="0 0 0 0 0 0 0 0 0 0 0 0 0 0 0 0 0 0 0.25 0"/>
<feBlend mode="normal" in2="BackgroundImageFix" result="effect1_dropShadow_33_159124"/>
<feBlend mode="normal" in="SourceGraphic" in2="effect1_dropShadow_33_159124" result="shape"/>
</filter>
<filter id="filter18_d_33_159124" x="59" y="360" width="39" height="14" filterUnits="userSpaceOnUse" color-interpolation-filters="sRGB">
<feFlood flood-opacity="0" result="BackgroundImageFix"/>
<feColorMatrix in="SourceAlpha" type="matrix" values="0 0 0 0 0 0 0 0 0 0 0 0 0 0 0 0 0 0 127 0" result="hardAlpha"/>
<feOffset dy="4"/>
<feGaussianBlur stdDeviation="2"/>
<feComposite in2="hardAlpha" operator="out"/>
<feColorMatrix type="matrix" values="0 0 0 0 0 0 0 0 0 0 0 0 0 0 0 0 0 0 0.25 0"/>
<feBlend mode="normal" in2="BackgroundImageFix" result="effect1_dropShadow_33_159124"/>
<feBlend mode="normal" in="SourceGraphic" in2="effect1_dropShadow_33_159124" result="shape"/>
</filter>
</defs>
</svg>
