<svg width="156" height="247" viewBox="0 0 156 247" fill="none" xmlns="http://www.w3.org/2000/svg">
<rect width="113" height="156" rx="6.52215" transform="matrix(-4.3415e-08 1 1 4.40098e-08 0 134)" fill="black" fill-opacity="0.2"/>
<rect width="90" height="134" rx="6.52215" transform="matrix(-4.3415e-08 1 1 4.40098e-08 14 143)" fill="black" fill-opacity="0.2"/>
<path d="M6 146C6 144.343 7.34315 143 9 143H17C18.6569 143 20 144.343 20 146V237C20 238.657 18.6569 240 17 240H9C7.34315 240 6 238.657 6 237V146Z" fill="black" fill-opacity="0.2"/>
<path d="M136 146C136 144.343 137.343 143 139 143H147C148.657 143 150 144.343 150 146V237C150 238.657 148.657 240 147 240H139C137.343 240 136 238.657 136 237V146Z" fill="black" fill-opacity="0.2"/>
<rect x="15" y="229" width="11" height="133" rx="2.17405" transform="rotate(-90 15 229)" fill="#3C2D24"/>
<g filter="url(#filter0_i_33_159114)">
<rect x="138" y="238" width="27" height="10" rx="2.17405" transform="rotate(-90 138 238)" fill="#82644D"/>
</g>
<g filter="url(#filter1_i_33_159114)">
<rect x="8" y="238" width="27" height="10" rx="2.17405" transform="rotate(-90 8 238)" fill="#82644D"/>
</g>
<g filter="url(#filter2_ii_33_159114)">
<rect width="140" height="166" rx="4" transform="matrix(-1 -1.0681e-07 -7.15543e-08 1 148 0)" fill="#A6815E"/>
</g>
<path opacity="0.1" d="M30.4657 40.9515C30.4657 38.4852 29.6876 35.8478 28.0168 35.8478C26.346 35.8478 26 37.8472 26 40.3136C26 42.7799 26.346 44.7793 28.0168 44.7793C29.6875 44.7793 30.4657 43.4179 30.4657 40.9515Z" fill="white"/>
<path opacity="0.1" d="M40.8859 26.7746C40.8859 21.5678 39.9347 16.0001 37.8927 16.0001C35.8507 16.0001 35.4277 20.221 35.4277 25.4278C35.4277 30.6346 35.8507 34.8555 37.8927 34.8555C39.9347 34.8555 40.8859 31.9814 40.8859 26.7746Z" fill="black"/>
<path opacity="0.1" d="M124.67 69.7462C124.67 66.361 125.484 62.7411 127.231 62.7411C128.978 62.7411 129.34 65.4854 129.34 68.8706C129.34 72.2558 128.978 75 127.231 75C125.484 75 124.67 73.1314 124.67 69.7462Z" fill="#1C1917"/>
<path opacity="0.1" d="M95.9999 15.005C95.9999 11.6198 96.8137 7.99991 98.5609 7.99991C100.308 7.99991 100.67 10.7442 100.67 14.1293C100.67 17.5145 100.308 20.2588 98.5609 20.2588C96.8137 20.2588 95.9999 18.3902 95.9999 15.005Z" fill="white"/>
<path opacity="0.1" d="M80.9549 70.325C80.9549 66.4932 81.8303 62.3958 83.7098 62.3958C85.5893 62.3958 85.9785 65.5021 85.9785 69.3339C85.9785 73.1657 85.5893 76.272 83.7098 76.272C81.8303 76.272 80.9549 74.1568 80.9549 70.325Z" fill="white"/>
<path opacity="0.1" d="M74.5069 41.0379C74.5069 38.1001 75.6741 34.9588 78.1801 34.9588C80.6861 34.9588 81.2051 37.3403 81.2051 40.278C81.2051 43.2157 80.6861 45.5972 78.1801 45.5972C75.6741 45.5972 74.5069 43.9756 74.5069 41.0379Z" fill="black"/>
<g filter="url(#filter3_i_33_159114)">
<rect x="8" y="223" width="132" height="140" rx="4" transform="rotate(-90 8 223)" fill="#82644D"/>
</g>
<g filter="url(#filter4_ii_33_159114)">
<rect x="22" y="152" width="49" height="113" rx="4" transform="rotate(-90 22 152)" fill="#CA8A04"/>
</g>
<g filter="url(#filter5_d_33_159114)">
<rect x="22" y="156" width="49" height="113" rx="4" transform="rotate(-90 22 156)" fill="#A16207"/>
</g>
<g filter="url(#filter6_d_33_159114)">
<rect width="6" height="31" rx="2" transform="matrix(-4.38755e-08 -1 -1 4.35479e-08 94 138)" fill="#9A7858"/>
</g>
<path fill-rule="evenodd" clip-rule="evenodd" d="M94 132C94 133.105 93.1046 134 92 134L65 134C63.8954 134 63 133.105 63 132V126H67V130C67 130.552 67.4477 131 68 131L89 131C89.5523 131 90 130.552 90 130V126H94V132Z" fill="#C8A078"/>
<g filter="url(#filter7_ii_33_159114)">
<rect x="22" y="209" width="49" height="113" rx="4" transform="rotate(-90 22 209)" fill="#CA8A04"/>
</g>
<g filter="url(#filter8_d_33_159114)">
<rect x="22" y="213" width="49" height="113" rx="4" transform="rotate(-90 22 213)" fill="#A16207"/>
</g>
<g filter="url(#filter9_d_33_159114)">
<rect width="6" height="31" rx="2" transform="matrix(-4.38755e-08 -1 -1 4.35479e-08 94 195)" fill="#9A7858"/>
</g>
<path fill-rule="evenodd" clip-rule="evenodd" d="M94 189C94 190.105 93.1046 191 92 191L65 191C63.8954 191 63 190.105 63 189V183H67V187C67 187.552 67.4477 188 68 188L89 188C89.5523 188 90 187.552 90 187V183H94V189Z" fill="#C8A078"/>
<defs>
<filter id="filter0_i_33_159114" x="138" y="211" width="14" height="31" filterUnits="userSpaceOnUse" color-interpolation-filters="sRGB">
<feFlood flood-opacity="0" result="BackgroundImageFix"/>
<feBlend mode="normal" in="SourceGraphic" in2="BackgroundImageFix" result="shape"/>
<feColorMatrix in="SourceAlpha" type="matrix" values="0 0 0 0 0 0 0 0 0 0 0 0 0 0 0 0 0 0 127 0" result="hardAlpha"/>
<feOffset dx="4" dy="14"/>
<feGaussianBlur stdDeviation="2"/>
<feComposite in2="hardAlpha" operator="arithmetic" k2="-1" k3="1"/>
<feColorMatrix type="matrix" values="0 0 0 0 0 0 0 0 0 0 0 0 0 0 0 0 0 0 0.35 0"/>
<feBlend mode="normal" in2="shape" result="effect1_innerShadow_33_159114"/>
</filter>
<filter id="filter1_i_33_159114" x="8" y="211" width="14" height="31" filterUnits="userSpaceOnUse" color-interpolation-filters="sRGB">
<feFlood flood-opacity="0" result="BackgroundImageFix"/>
<feBlend mode="normal" in="SourceGraphic" in2="BackgroundImageFix" result="shape"/>
<feColorMatrix in="SourceAlpha" type="matrix" values="0 0 0 0 0 0 0 0 0 0 0 0 0 0 0 0 0 0 127 0" result="hardAlpha"/>
<feOffset dx="4" dy="14"/>
<feGaussianBlur stdDeviation="2"/>
<feComposite in2="hardAlpha" operator="arithmetic" k2="-1" k3="1"/>
<feColorMatrix type="matrix" values="0 0 0 0 0 0 0 0 0 0 0 0 0 0 0 0 0 0 0.35 0"/>
<feBlend mode="normal" in2="shape" result="effect1_innerShadow_33_159114"/>
</filter>
<filter id="filter2_ii_33_159114" x="6" y="-4" width="144" height="170" filterUnits="userSpaceOnUse" color-interpolation-filters="sRGB">
<feFlood flood-opacity="0" result="BackgroundImageFix"/>
<feBlend mode="normal" in="SourceGraphic" in2="BackgroundImageFix" result="shape"/>
<feColorMatrix in="SourceAlpha" type="matrix" values="0 0 0 0 0 0 0 0 0 0 0 0 0 0 0 0 0 0 127 0" result="hardAlpha"/>
<feOffset dx="2" dy="-4"/>
<feGaussianBlur stdDeviation="2"/>
<feComposite in2="hardAlpha" operator="arithmetic" k2="-1" k3="1"/>
<feColorMatrix type="matrix" values="0 0 0 0 0 0 0 0 0 0 0 0 0 0 0 0 0 0 0.25 0"/>
<feBlend mode="normal" in2="shape" result="effect1_innerShadow_33_159114"/>
<feColorMatrix in="SourceAlpha" type="matrix" values="0 0 0 0 0 0 0 0 0 0 0 0 0 0 0 0 0 0 127 0" result="hardAlpha"/>
<feOffset dx="-2" dy="-4"/>
<feGaussianBlur stdDeviation="2"/>
<feComposite in2="hardAlpha" operator="arithmetic" k2="-1" k3="1"/>
<feColorMatrix type="matrix" values="0 0 0 0 1 0 0 0 0 1 0 0 0 0 1 0 0 0 0.25 0"/>
<feBlend mode="normal" in2="effect1_innerShadow_33_159114" result="effect2_innerShadow_33_159114"/>
</filter>
<filter id="filter3_i_33_159114" x="8" y="47" width="140" height="176" filterUnits="userSpaceOnUse" color-interpolation-filters="sRGB">
<feFlood flood-opacity="0" result="BackgroundImageFix"/>
<feBlend mode="normal" in="SourceGraphic" in2="BackgroundImageFix" result="shape"/>
<feColorMatrix in="SourceAlpha" type="matrix" values="0 0 0 0 0 0 0 0 0 0 0 0 0 0 0 0 0 0 127 0" result="hardAlpha"/>
<feOffset dy="-44"/>
<feGaussianBlur stdDeviation="66"/>
<feComposite in2="hardAlpha" operator="arithmetic" k2="-1" k3="1"/>
<feColorMatrix type="matrix" values="0 0 0 0 0 0 0 0 0 0 0 0 0 0 0 0 0 0 0.25 0"/>
<feBlend mode="normal" in2="shape" result="effect1_innerShadow_33_159114"/>
</filter>
<filter id="filter4_ii_33_159114" x="20" y="99" width="117" height="53" filterUnits="userSpaceOnUse" color-interpolation-filters="sRGB">
<feFlood flood-opacity="0" result="BackgroundImageFix"/>
<feBlend mode="normal" in="SourceGraphic" in2="BackgroundImageFix" result="shape"/>
<feColorMatrix in="SourceAlpha" type="matrix" values="0 0 0 0 0 0 0 0 0 0 0 0 0 0 0 0 0 0 127 0" result="hardAlpha"/>
<feOffset dx="2" dy="-4"/>
<feGaussianBlur stdDeviation="2"/>
<feComposite in2="hardAlpha" operator="arithmetic" k2="-1" k3="1"/>
<feColorMatrix type="matrix" values="0 0 0 0 0 0 0 0 0 0 0 0 0 0 0 0 0 0 0.25 0"/>
<feBlend mode="normal" in2="shape" result="effect1_innerShadow_33_159114"/>
<feColorMatrix in="SourceAlpha" type="matrix" values="0 0 0 0 0 0 0 0 0 0 0 0 0 0 0 0 0 0 127 0" result="hardAlpha"/>
<feOffset dx="-2" dy="-4"/>
<feGaussianBlur stdDeviation="2"/>
<feComposite in2="hardAlpha" operator="arithmetic" k2="-1" k3="1"/>
<feColorMatrix type="matrix" values="0 0 0 0 1 0 0 0 0 1 0 0 0 0 1 0 0 0 0.25 0"/>
<feBlend mode="normal" in2="effect1_innerShadow_33_159114" result="effect2_innerShadow_33_159114"/>
</filter>
<filter id="filter5_d_33_159114" x="22" y="107" width="113" height="53" filterUnits="userSpaceOnUse" color-interpolation-filters="sRGB">
<feFlood flood-opacity="0" result="BackgroundImageFix"/>
<feColorMatrix in="SourceAlpha" type="matrix" values="0 0 0 0 0 0 0 0 0 0 0 0 0 0 0 0 0 0 127 0" result="hardAlpha"/>
<feOffset dy="4"/>
<feComposite in2="hardAlpha" operator="out"/>
<feColorMatrix type="matrix" values="0 0 0 0 0 0 0 0 0 0 0 0 0 0 0 0 0 0 0.25 0"/>
<feBlend mode="normal" in2="BackgroundImageFix" result="effect1_dropShadow_33_159114"/>
<feBlend mode="normal" in="SourceGraphic" in2="effect1_dropShadow_33_159114" result="shape"/>
</filter>
<filter id="filter6_d_33_159114" x="59" y="132" width="39" height="14" filterUnits="userSpaceOnUse" color-interpolation-filters="sRGB">
<feFlood flood-opacity="0" result="BackgroundImageFix"/>
<feColorMatrix in="SourceAlpha" type="matrix" values="0 0 0 0 0 0 0 0 0 0 0 0 0 0 0 0 0 0 127 0" result="hardAlpha"/>
<feOffset dy="4"/>
<feGaussianBlur stdDeviation="2"/>
<feComposite in2="hardAlpha" operator="out"/>
<feColorMatrix type="matrix" values="0 0 0 0 0 0 0 0 0 0 0 0 0 0 0 0 0 0 0.25 0"/>
<feBlend mode="normal" in2="BackgroundImageFix" result="effect1_dropShadow_33_159114"/>
<feBlend mode="normal" in="SourceGraphic" in2="effect1_dropShadow_33_159114" result="shape"/>
</filter>
<filter id="filter7_ii_33_159114" x="20" y="156" width="117" height="53" filterUnits="userSpaceOnUse" color-interpolation-filters="sRGB">
<feFlood flood-opacity="0" result="BackgroundImageFix"/>
<feBlend mode="normal" in="SourceGraphic" in2="BackgroundImageFix" result="shape"/>
<feColorMatrix in="SourceAlpha" type="matrix" values="0 0 0 0 0 0 0 0 0 0 0 0 0 0 0 0 0 0 127 0" result="hardAlpha"/>
<feOffset dx="2" dy="-4"/>
<feGaussianBlur stdDeviation="2"/>
<feComposite in2="hardAlpha" operator="arithmetic" k2="-1" k3="1"/>
<feColorMatrix type="matrix" values="0 0 0 0 0 0 0 0 0 0 0 0 0 0 0 0 0 0 0.25 0"/>
<feBlend mode="normal" in2="shape" result="effect1_innerShadow_33_159114"/>
<feColorMatrix in="SourceAlpha" type="matrix" values="0 0 0 0 0 0 0 0 0 0 0 0 0 0 0 0 0 0 127 0" result="hardAlpha"/>
<feOffset dx="-2" dy="-4"/>
<feGaussianBlur stdDeviation="2"/>
<feComposite in2="hardAlpha" operator="arithmetic" k2="-1" k3="1"/>
<feColorMatrix type="matrix" values="0 0 0 0 1 0 0 0 0 1 0 0 0 0 1 0 0 0 0.25 0"/>
<feBlend mode="normal" in2="effect1_innerShadow_33_159114" result="effect2_innerShadow_33_159114"/>
</filter>
<filter id="filter8_d_33_159114" x="22" y="164" width="113" height="53" filterUnits="userSpaceOnUse" color-interpolation-filters="sRGB">
<feFlood flood-opacity="0" result="BackgroundImageFix"/>
<feColorMatrix in="SourceAlpha" type="matrix" values="0 0 0 0 0 0 0 0 0 0 0 0 0 0 0 0 0 0 127 0" result="hardAlpha"/>
<feOffset dy="4"/>
<feComposite in2="hardAlpha" operator="out"/>
<feColorMatrix type="matrix" values="0 0 0 0 0 0 0 0 0 0 0 0 0 0 0 0 0 0 0.25 0"/>
<feBlend mode="normal" in2="BackgroundImageFix" result="effect1_dropShadow_33_159114"/>
<feBlend mode="normal" in="SourceGraphic" in2="effect1_dropShadow_33_159114" result="shape"/>
</filter>
<filter id="filter9_d_33_159114" x="59" y="189" width="39" height="14" filterUnits="userSpaceOnUse" color-interpolation-filters="sRGB">
<feFlood flood-opacity="0" result="BackgroundImageFix"/>
<feColorMatrix in="SourceAlpha" type="matrix" values="0 0 0 0 0 0 0 0 0 0 0 0 0 0 0 0 0 0 127 0" result="hardAlpha"/>
<feOffset dy="4"/>
<feGaussianBlur stdDeviation="2"/>
<feComposite in2="hardAlpha" operator="out"/>
<feColorMatrix type="matrix" values="0 0 0 0 0 0 0 0 0 0 0 0 0 0 0 0 0 0 0.25 0"/>
<feBlend mode="normal" in2="BackgroundImageFix" result="effect1_dropShadow_33_159114"/>
<feBlend mode="normal" in="SourceGraphic" in2="effect1_dropShadow_33_159114" result="shape"/>
</filter>
</defs>
</svg>
