<svg width="445" height="315" viewBox="0 0 445 315" fill="none" xmlns="http://www.w3.org/2000/svg">
<path d="M40.4583 166C30.3962 166 22.7873 175.195 25.2969 184.94C34.5521 220.874 50.5742 254.014 81.2857 278.787C107.151 299.65 142.681 300.329 175.191 293.444C204.845 287.164 235.46 286.924 265.209 292.74L269.12 293.504C304.156 300.353 342.482 299.146 369.146 275.408C395.007 252.385 412.55 221.016 420.146 183.716C422.054 174.349 414.569 166 405.01 166H40.4583Z" fill="black" fill-opacity="0.12"/>
<circle cx="401.584" cy="257.5" r="8.5" fill="black" fill-opacity="0.2"/>
<circle cx="45.584" cy="257.5" r="8.5" fill="black" fill-opacity="0.2"/>
<g filter="url(#filter0_ii_33_159150)">
<path d="M52.4523 174.769C53.1291 170.302 56.9691 167 61.4873 167C67.3986 167 71.7544 172.528 70.372 178.275L51.0235 258.716C50.4191 261.229 48.1713 263 45.5868 263C42.1648 263 39.5455 259.954 40.0581 256.571L52.4523 174.769Z" fill="#A6B4C8"/>
</g>
<mask id="mask0_33_159150" style="mask-type:alpha" maskUnits="userSpaceOnUse" x="39" y="167" width="32" height="96">
<path d="M52.4523 174.769C53.1291 170.302 56.9691 167 61.4873 167C67.3986 167 71.7544 172.528 70.372 178.275L51.0235 258.716C50.4191 261.229 48.1713 263 45.5868 263C42.1648 263 39.5455 259.954 40.0581 256.571L52.4523 174.769Z" fill="#A6B4C8"/>
</mask>
<g mask="url(#mask0_33_159150)">
<rect x="11.084" y="167" width="86" height="25.6" fill="black" fill-opacity="0.12"/>
</g>
<g filter="url(#filter1_ii_33_159150)">
<path d="M394.662 174.414C394.016 170.151 390.351 167 386.04 167C380.434 167 376.284 172.213 377.541 177.676L396.181 258.68C396.763 261.208 399.013 263 401.608 263C405.016 263 407.624 259.966 407.114 256.597L394.662 174.414Z" fill="#A6B4C8"/>
</g>
<mask id="mask1_33_159150" style="mask-type:alpha" maskUnits="userSpaceOnUse" x="377" y="167" width="31" height="96">
<path d="M394.662 174.414C394.016 170.151 390.351 167 386.04 167C380.434 167 376.284 172.213 377.541 177.676L396.181 258.68C396.763 261.208 399.013 263 401.608 263C405.016 263 407.624 259.966 407.114 256.597L394.662 174.414Z" fill="#A6B4C8"/>
</mask>
<g mask="url(#mask1_33_159150)">
<rect x="364.084" y="167" width="86" height="25.6" fill="black" fill-opacity="0.12"/>
</g>
<g filter="url(#filter2_iii_33_159150)">
<path d="M40.1637 132C30.1994 132 22.6207 141.023 24.8631 150.732C34.1213 190.816 50.3408 227.818 82.0227 255.236C107.139 276.971 142.793 277.984 175.161 270.533C204.781 263.715 235.533 263.455 265.263 269.772L269.161 270.6C304.042 278.012 342.437 276.372 368.256 251.776C394.957 226.339 412.94 191.34 420.449 149.605C422.132 140.254 414.674 132 405.173 132H40.1637Z" fill="#DB2777"/>
</g>
<g filter="url(#filter3_iii_33_159150)">
<path d="M37.8483 124C27.9891 124 20.3938 132.864 22.7045 142.449C31.9326 180.727 48.5143 200.083 79.5138 218.583C107.949 235.553 142.639 237.543 174.736 229.396C204.234 221.909 235.1 221.624 264.731 228.567L268.602 229.474C303.186 237.576 340.661 235.585 370.999 217.111C396.642 201.497 414.314 181.926 421.589 141.479C423.26 132.19 415.787 124 406.349 124H37.8483Z" fill="#EC4899"/>
</g>
<g filter="url(#filter4_ii_33_159150)">
<path d="M40.2579 151C25.9157 151 18.2568 133.001 27.2431 121.823C58.3825 83.0889 79.593 43.2344 120.517 15.9654C138.628 3.89686 161.829 4.93407 181.765 13.6645L191.411 17.8884C211.867 26.8464 235.137 26.8464 255.593 17.8884L264.833 13.8418C285.008 5.00732 308.674 3.98112 326.137 17.4015C359.082 42.721 380.189 81.0698 416.246 121.674C425.931 132.58 418.502 151 403.917 151H40.2579Z" fill="#EC4899"/>
</g>
<g filter="url(#filter5_iii_33_159150)">
<path d="M39.2531 151C24.9113 151 17.6012 133.353 27.4479 122.926C57.7471 90.8401 78.8616 66.3091 118.774 44.577C137.89 34.1683 160.828 34.9351 180.766 43.6671L190.406 47.889C210.864 56.8487 234.136 56.8487 254.594 47.889L263.829 43.8444C284.004 35.0084 307.327 34.2242 326.254 45.4884C358.508 64.6836 379.92 88.3115 415.179 122.715C425.618 132.901 418.505 151 403.92 151H39.2531Z" fill="#EC4899"/>
</g>
<defs>
<filter id="filter0_ii_33_159150" x="31.9941" y="159" width="46.6348" height="112" filterUnits="userSpaceOnUse" color-interpolation-filters="sRGB">
<feFlood flood-opacity="0" result="BackgroundImageFix"/>
<feBlend mode="normal" in="SourceGraphic" in2="BackgroundImageFix" result="shape"/>
<feColorMatrix in="SourceAlpha" type="matrix" values="0 0 0 0 0 0 0 0 0 0 0 0 0 0 0 0 0 0 127 0" result="hardAlpha"/>
<feOffset dx="8" dy="-8"/>
<feGaussianBlur stdDeviation="4"/>
<feComposite in2="hardAlpha" operator="arithmetic" k2="-1" k3="1"/>
<feColorMatrix type="matrix" values="0 0 0 0 0 0 0 0 0 0 0 0 0 0 0 0 0 0 0.25 0"/>
<feBlend mode="normal" in2="shape" result="effect1_innerShadow_33_159150"/>
<feColorMatrix in="SourceAlpha" type="matrix" values="0 0 0 0 0 0 0 0 0 0 0 0 0 0 0 0 0 0 127 0" result="hardAlpha"/>
<feOffset dx="-8" dy="8"/>
<feGaussianBlur stdDeviation="4"/>
<feComposite in2="hardAlpha" operator="arithmetic" k2="-1" k3="1"/>
<feColorMatrix type="matrix" values="0 0 0 0 1 0 0 0 0 1 0 0 0 0 1 0 0 0 0.25 0"/>
<feBlend mode="normal" in2="effect1_innerShadow_33_159150" result="effect2_innerShadow_33_159150"/>
</filter>
<filter id="filter1_ii_33_159150" x="369.314" y="159" width="45.8633" height="112" filterUnits="userSpaceOnUse" color-interpolation-filters="sRGB">
<feFlood flood-opacity="0" result="BackgroundImageFix"/>
<feBlend mode="normal" in="SourceGraphic" in2="BackgroundImageFix" result="shape"/>
<feColorMatrix in="SourceAlpha" type="matrix" values="0 0 0 0 0 0 0 0 0 0 0 0 0 0 0 0 0 0 127 0" result="hardAlpha"/>
<feOffset dx="8" dy="-8"/>
<feGaussianBlur stdDeviation="4"/>
<feComposite in2="hardAlpha" operator="arithmetic" k2="-1" k3="1"/>
<feColorMatrix type="matrix" values="0 0 0 0 0 0 0 0 0 0 0 0 0 0 0 0 0 0 0.25 0"/>
<feBlend mode="normal" in2="shape" result="effect1_innerShadow_33_159150"/>
<feColorMatrix in="SourceAlpha" type="matrix" values="0 0 0 0 0 0 0 0 0 0 0 0 0 0 0 0 0 0 127 0" result="hardAlpha"/>
<feOffset dx="-8" dy="8"/>
<feGaussianBlur stdDeviation="4"/>
<feComposite in2="hardAlpha" operator="arithmetic" k2="-1" k3="1"/>
<feColorMatrix type="matrix" values="0 0 0 0 1 0 0 0 0 1 0 0 0 0 1 0 0 0 0.25 0"/>
<feBlend mode="normal" in2="effect1_innerShadow_33_159150" result="effect2_innerShadow_33_159150"/>
</filter>
<filter id="filter2_iii_33_159150" x="24.4668" y="112" width="396.221" height="162.72" filterUnits="userSpaceOnUse" color-interpolation-filters="sRGB">
<feFlood flood-opacity="0" result="BackgroundImageFix"/>
<feBlend mode="normal" in="SourceGraphic" in2="BackgroundImageFix" result="shape"/>
<feColorMatrix in="SourceAlpha" type="matrix" values="0 0 0 0 0 0 0 0 0 0 0 0 0 0 0 0 0 0 127 0" result="hardAlpha"/>
<feOffset dy="-24"/>
<feGaussianBlur stdDeviation="10"/>
<feComposite in2="hardAlpha" operator="arithmetic" k2="-1" k3="1"/>
<feColorMatrix type="matrix" values="0 0 0 0 0 0 0 0 0 0 0 0 0 0 0 0 0 0 0.15 0"/>
<feBlend mode="normal" in2="shape" result="effect1_innerShadow_33_159150"/>
<feColorMatrix in="SourceAlpha" type="matrix" values="0 0 0 0 0 0 0 0 0 0 0 0 0 0 0 0 0 0 127 0" result="hardAlpha"/>
<feOffset dy="-108"/>
<feGaussianBlur stdDeviation="2"/>
<feComposite in2="hardAlpha" operator="arithmetic" k2="-1" k3="1"/>
<feColorMatrix type="matrix" values="0 0 0 0 1 0 0 0 0 1 0 0 0 0 1 0 0 0 0.15 0"/>
<feBlend mode="normal" in2="effect1_innerShadow_33_159150" result="effect2_innerShadow_33_159150"/>
<feColorMatrix in="SourceAlpha" type="matrix" values="0 0 0 0 0 0 0 0 0 0 0 0 0 0 0 0 0 0 127 0" result="hardAlpha"/>
<feOffset dy="-4"/>
<feGaussianBlur stdDeviation="9.5"/>
<feComposite in2="hardAlpha" operator="arithmetic" k2="-1" k3="1"/>
<feColorMatrix type="matrix" values="0 0 0 0 0 0 0 0 0 0 0 0 0 0 0 0 0 0 0.15 0"/>
<feBlend mode="normal" in2="effect2_innerShadow_33_159150" result="effect3_innerShadow_33_159150"/>
</filter>
<filter id="filter3_iii_33_159150" x="14.2871" y="120" width="423.537" height="138.031" filterUnits="userSpaceOnUse" color-interpolation-filters="sRGB">
<feFlood flood-opacity="0" result="BackgroundImageFix"/>
<feBlend mode="normal" in="SourceGraphic" in2="BackgroundImageFix" result="shape"/>
<feColorMatrix in="SourceAlpha" type="matrix" values="0 0 0 0 0 0 0 0 0 0 0 0 0 0 0 0 0 0 127 0" result="hardAlpha"/>
<feOffset dx="16" dy="24"/>
<feGaussianBlur stdDeviation="14"/>
<feComposite in2="hardAlpha" operator="arithmetic" k2="-1" k3="1"/>
<feColorMatrix type="matrix" values="0 0 0 0 0 0 0 0 0 0 0 0 0 0 0 0 0 0 0.15 0"/>
<feBlend mode="normal" in2="shape" result="effect1_innerShadow_33_159150"/>
<feColorMatrix in="SourceAlpha" type="matrix" values="0 0 0 0 0 0 0 0 0 0 0 0 0 0 0 0 0 0 127 0" result="hardAlpha"/>
<feOffset dx="-8" dy="-4"/>
<feGaussianBlur stdDeviation="6"/>
<feComposite in2="hardAlpha" operator="arithmetic" k2="-1" k3="1"/>
<feColorMatrix type="matrix" values="0 0 0 0 1 0 0 0 0 1 0 0 0 0 1 0 0 0 0.25 0"/>
<feBlend mode="normal" in2="effect1_innerShadow_33_159150" result="effect2_innerShadow_33_159150"/>
<feColorMatrix in="SourceAlpha" type="matrix" values="0 0 0 0 0 0 0 0 0 0 0 0 0 0 0 0 0 0 127 0" result="hardAlpha"/>
<feOffset dy="-140"/>
<feGaussianBlur stdDeviation="2"/>
<feComposite in2="hardAlpha" operator="arithmetic" k2="-1" k3="1"/>
<feColorMatrix type="matrix" values="0 0 0 0 1 0 0 0 0 1 0 0 0 0 1 0 0 0 0.15 0"/>
<feBlend mode="normal" in2="effect2_innerShadow_33_159150" result="effect3_innerShadow_33_159150"/>
</filter>
<filter id="filter4_ii_33_159150" x="-20.6191" y="7.0083" width="441.234" height="155.992" filterUnits="userSpaceOnUse" color-interpolation-filters="sRGB">
<feFlood flood-opacity="0" result="BackgroundImageFix"/>
<feBlend mode="normal" in="SourceGraphic" in2="BackgroundImageFix" result="shape"/>
<feColorMatrix in="SourceAlpha" type="matrix" values="0 0 0 0 0 0 0 0 0 0 0 0 0 0 0 0 0 0 127 0" result="hardAlpha"/>
<feOffset dx="-56" dy="12"/>
<feGaussianBlur stdDeviation="22"/>
<feComposite in2="hardAlpha" operator="arithmetic" k2="-1" k3="1"/>
<feColorMatrix type="matrix" values="0 0 0 0 1 0 0 0 0 1 0 0 0 0 1 0 0 0 0.25 0"/>
<feBlend mode="normal" in2="shape" result="effect1_innerShadow_33_159150"/>
<feColorMatrix in="SourceAlpha" type="matrix" values="0 0 0 0 0 0 0 0 0 0 0 0 0 0 0 0 0 0 127 0" result="hardAlpha"/>
<feOffset dy="52"/>
<feGaussianBlur stdDeviation="2"/>
<feComposite in2="hardAlpha" operator="arithmetic" k2="-1" k3="1"/>
<feColorMatrix type="matrix" values="0 0 0 0 1 0 0 0 0 1 0 0 0 0 1 0 0 0 0.2 0"/>
<feBlend mode="normal" in2="effect1_innerShadow_33_159150" result="effect2_innerShadow_33_159150"/>
</filter>
<filter id="filter5_iii_33_159150" x="6.93359" y="10.9443" width="445.209" height="160.056" filterUnits="userSpaceOnUse" color-interpolation-filters="sRGB">
<feFlood flood-opacity="0" result="BackgroundImageFix"/>
<feBlend mode="normal" in="SourceGraphic" in2="BackgroundImageFix" result="shape"/>
<feColorMatrix in="SourceAlpha" type="matrix" values="0 0 0 0 0 0 0 0 0 0 0 0 0 0 0 0 0 0 127 0" result="hardAlpha"/>
<feOffset dx="32" dy="-26"/>
<feGaussianBlur stdDeviation="22"/>
<feComposite in2="hardAlpha" operator="arithmetic" k2="-1" k3="1"/>
<feColorMatrix type="matrix" values="0 0 0 0 0 0 0 0 0 0 0 0 0 0 0 0 0 0 0.15 0"/>
<feBlend mode="normal" in2="shape" result="effect1_innerShadow_33_159150"/>
<feColorMatrix in="SourceAlpha" type="matrix" values="0 0 0 0 0 0 0 0 0 0 0 0 0 0 0 0 0 0 127 0" result="hardAlpha"/>
<feOffset dx="-16" dy="20"/>
<feGaussianBlur stdDeviation="10"/>
<feComposite in2="hardAlpha" operator="arithmetic" k2="-1" k3="1"/>
<feColorMatrix type="matrix" values="0 0 0 0 1 0 0 0 0 1 0 0 0 0 1 0 0 0 0.25 0"/>
<feBlend mode="normal" in2="effect1_innerShadow_33_159150" result="effect2_innerShadow_33_159150"/>
<feColorMatrix in="SourceAlpha" type="matrix" values="0 0 0 0 0 0 0 0 0 0 0 0 0 0 0 0 0 0 127 0" result="hardAlpha"/>
<feOffset dx="-7" dy="7"/>
<feGaussianBlur stdDeviation="5.5"/>
<feComposite in2="hardAlpha" operator="arithmetic" k2="-1" k3="1"/>
<feColorMatrix type="matrix" values="0 0 0 0 1 0 0 0 0 1 0 0 0 0 1 0 0 0 0.25 0"/>
<feBlend mode="normal" in2="effect2_innerShadow_33_159150" result="effect3_innerShadow_33_159150"/>
</filter>
</defs>
</svg>
