<svg width="464" height="350" viewBox="0 0 464 350" fill="none" xmlns="http://www.w3.org/2000/svg">
<rect y="326" width="304" height="464" rx="152" transform="rotate(-90 0 326)" fill="black" fill-opacity="0.12"/>
<rect x="35" y="303" width="258" height="394" rx="129" transform="rotate(-90 35 303)" fill="black" fill-opacity="0.12"/>
<ellipse cx="402.5" cy="281.707" rx="8.5" ry="8.29268" fill="black" fill-opacity="0.2"/>
<ellipse cx="63.5" cy="281.707" rx="8.5" ry="8.29268" fill="black" fill-opacity="0.2"/>
<g filter="url(#filter0_ii_33_159107)">
<path d="M70.0267 203.71C70.901 198.12 75.716 194 81.3737 194C89.1233 194 94.6485 201.518 92.3349 208.914L69.1666 282.98C68.4184 285.372 66.203 287 63.697 287C60.1788 287 57.4912 283.859 58.0348 280.383L70.0267 203.71Z" fill="#C2410C"/>
</g>
<g filter="url(#filter1_ii_33_159107)">
<path d="M395.973 203.71C395.099 198.12 390.284 194 384.626 194C376.877 194 371.352 201.518 373.665 208.914L396.833 282.98C397.582 285.372 399.797 287 402.303 287C405.821 287 408.509 283.859 407.965 280.383L395.973 203.71Z" fill="#C2410C"/>
</g>
<mask id="mask0_33_159107" style="mask-type:alpha" maskUnits="userSpaceOnUse" x="57" y="194" width="36" height="96">
<path d="M70.0603 203.802C70.9142 198.166 75.759 194 81.4594 194C89.1957 194 94.7367 201.469 92.4931 208.873L69.1413 285.934C68.4095 288.349 66.1835 290 63.6603 290C60.1554 290 57.4727 286.88 57.9977 283.415L70.0603 203.802Z" fill="#C2410C"/>
</mask>
<g mask="url(#mask0_33_159107)">
<rect x="57" y="194" width="234" height="25.6" fill="black" fill-opacity="0.12"/>
</g>
<mask id="mask1_33_159107" style="mask-type:alpha" maskUnits="userSpaceOnUse" x="373" y="194" width="36" height="96">
<path d="M395.94 203.802C395.086 198.166 390.241 194 384.541 194C376.804 194 371.263 201.469 373.507 208.873L396.859 285.934C397.59 288.349 399.816 290 402.34 290C405.845 290 408.527 286.88 408.002 283.415L395.94 203.802Z" fill="#C2410C"/>
</mask>
<g mask="url(#mask1_33_159107)">
<rect x="317" y="194" width="86" height="25.6" fill="black" fill-opacity="0.12"/>
</g>
<path d="M401 247L387 254L388.706 261.676C388.852 262.333 389.593 262.661 390.178 262.327L396 259L401.486 255.343C401.801 255.133 401.97 254.763 401.923 254.387L401 247Z" fill="black" fill-opacity="0.12"/>
<path d="M65 247L79 255L78.1199 259.401C78.0523 259.739 77.7354 259.967 77.3935 259.924L76.7853 259.848C72.3231 259.29 68.052 257.701 64.3103 255.207C64.1201 255.08 64.0179 254.857 64.0463 254.63L65 247Z" fill="black" fill-opacity="0.12"/>
<g filter="url(#filter2_ii_33_159107)">
<rect x="13" y="274" width="256" height="439" rx="128" transform="rotate(-90 13 274)" fill="#A8A29E"/>
</g>
<g filter="url(#filter3_i_33_159107)">
<rect x="13" y="258" width="256" height="439" rx="128" transform="rotate(-90 13 258)" fill="#E7E5E4"/>
</g>
<rect x="13" y="258" width="256" height="439" rx="128" transform="rotate(-90 13 258)" stroke="#D6D3D1" stroke-width="4" stroke-linejoin="round"/>
<mask id="mask2_33_159107" style="mask-type:alpha" maskUnits="userSpaceOnUse" x="15" y="4" width="435" height="252">
<rect x="15" y="256" width="252" height="435" rx="126" transform="rotate(-90 15 256)" fill="#C4C4C4"/>
</mask>
<g mask="url(#mask2_33_159107)">
<path opacity="0.3" fill-rule="evenodd" clip-rule="evenodd" d="M290.5 -103.5H283.092L175.5 323.5H182.908L290.5 -103.5ZM318.5 -103.5H297.673L189.5 323.5H210.327L318.5 -103.5Z" fill="white"/>
</g>
<rect x="59" y="47" width="347" height="164" rx="82" fill="#CA8A04"/>
<rect x="59" y="45" width="347" height="164" rx="82" fill="#FACC15"/>
<rect x="79" y="66" width="307" height="124" rx="62" fill="#EAB308"/>
<rect x="99" y="86" width="267" height="84" rx="42" fill="#FACC15"/>
<defs>
<filter id="filter0_ii_33_159107" x="49.9648" y="186" width="50.9023" height="109" filterUnits="userSpaceOnUse" color-interpolation-filters="sRGB">
<feFlood flood-opacity="0" result="BackgroundImageFix"/>
<feBlend mode="normal" in="SourceGraphic" in2="BackgroundImageFix" result="shape"/>
<feColorMatrix in="SourceAlpha" type="matrix" values="0 0 0 0 0 0 0 0 0 0 0 0 0 0 0 0 0 0 127 0" result="hardAlpha"/>
<feOffset dx="8" dy="-8"/>
<feGaussianBlur stdDeviation="4"/>
<feComposite in2="hardAlpha" operator="arithmetic" k2="-1" k3="1"/>
<feColorMatrix type="matrix" values="0 0 0 0 0 0 0 0 0 0 0 0 0 0 0 0 0 0 0.25 0"/>
<feBlend mode="normal" in2="shape" result="effect1_innerShadow_33_159107"/>
<feColorMatrix in="SourceAlpha" type="matrix" values="0 0 0 0 0 0 0 0 0 0 0 0 0 0 0 0 0 0 127 0" result="hardAlpha"/>
<feOffset dx="-8" dy="8"/>
<feGaussianBlur stdDeviation="4"/>
<feComposite in2="hardAlpha" operator="arithmetic" k2="-1" k3="1"/>
<feColorMatrix type="matrix" values="0 0 0 0 1 0 0 0 0 1 0 0 0 0 1 0 0 0 0.25 0"/>
<feBlend mode="normal" in2="effect1_innerShadow_33_159107" result="effect2_innerShadow_33_159107"/>
</filter>
<filter id="filter1_ii_33_159107" x="365.133" y="186" width="50.9023" height="109" filterUnits="userSpaceOnUse" color-interpolation-filters="sRGB">
<feFlood flood-opacity="0" result="BackgroundImageFix"/>
<feBlend mode="normal" in="SourceGraphic" in2="BackgroundImageFix" result="shape"/>
<feColorMatrix in="SourceAlpha" type="matrix" values="0 0 0 0 0 0 0 0 0 0 0 0 0 0 0 0 0 0 127 0" result="hardAlpha"/>
<feOffset dx="8" dy="-8"/>
<feGaussianBlur stdDeviation="4"/>
<feComposite in2="hardAlpha" operator="arithmetic" k2="-1" k3="1"/>
<feColorMatrix type="matrix" values="0 0 0 0 0 0 0 0 0 0 0 0 0 0 0 0 0 0 0.25 0"/>
<feBlend mode="normal" in2="shape" result="effect1_innerShadow_33_159107"/>
<feColorMatrix in="SourceAlpha" type="matrix" values="0 0 0 0 0 0 0 0 0 0 0 0 0 0 0 0 0 0 127 0" result="hardAlpha"/>
<feOffset dx="-8" dy="8"/>
<feGaussianBlur stdDeviation="4"/>
<feComposite in2="hardAlpha" operator="arithmetic" k2="-1" k3="1"/>
<feColorMatrix type="matrix" values="0 0 0 0 1 0 0 0 0 1 0 0 0 0 1 0 0 0 0.25 0"/>
<feBlend mode="normal" in2="effect1_innerShadow_33_159107" result="effect2_innerShadow_33_159107"/>
</filter>
<filter id="filter2_ii_33_159107" x="5" y="18" width="455" height="264" filterUnits="userSpaceOnUse" color-interpolation-filters="sRGB">
<feFlood flood-opacity="0" result="BackgroundImageFix"/>
<feBlend mode="normal" in="SourceGraphic" in2="BackgroundImageFix" result="shape"/>
<feColorMatrix in="SourceAlpha" type="matrix" values="0 0 0 0 0 0 0 0 0 0 0 0 0 0 0 0 0 0 127 0" result="hardAlpha"/>
<feOffset dx="8" dy="8"/>
<feGaussianBlur stdDeviation="8"/>
<feComposite in2="hardAlpha" operator="arithmetic" k2="-1" k3="1"/>
<feColorMatrix type="matrix" values="0 0 0 0 0 0 0 0 0 0 0 0 0 0 0 0 0 0 0.25 0"/>
<feBlend mode="normal" in2="shape" result="effect1_innerShadow_33_159107"/>
<feColorMatrix in="SourceAlpha" type="matrix" values="0 0 0 0 0 0 0 0 0 0 0 0 0 0 0 0 0 0 127 0" result="hardAlpha"/>
<feOffset dx="-8" dy="8"/>
<feGaussianBlur stdDeviation="8"/>
<feComposite in2="hardAlpha" operator="arithmetic" k2="-1" k3="1"/>
<feColorMatrix type="matrix" values="0 0 0 0 1 0 0 0 0 1 0 0 0 0 1 0 0 0 0.25 0"/>
<feBlend mode="normal" in2="effect1_innerShadow_33_159107" result="effect2_innerShadow_33_159107"/>
</filter>
<filter id="filter3_i_33_159107" x="11" y="0" width="443" height="260" filterUnits="userSpaceOnUse" color-interpolation-filters="sRGB">
<feFlood flood-opacity="0" result="BackgroundImageFix"/>
<feBlend mode="normal" in="SourceGraphic" in2="BackgroundImageFix" result="shape"/>
<feColorMatrix in="SourceAlpha" type="matrix" values="0 0 0 0 0 0 0 0 0 0 0 0 0 0 0 0 0 0 127 0" result="hardAlpha"/>
<feOffset dx="-3" dy="2"/>
<feComposite in2="hardAlpha" operator="arithmetic" k2="-1" k3="1"/>
<feColorMatrix type="matrix" values="0 0 0 0 1 0 0 0 0 1 0 0 0 0 1 0 0 0 0.25 0"/>
<feBlend mode="normal" in2="shape" result="effect1_innerShadow_33_159107"/>
</filter>
</defs>
</svg>
