<svg width="329" height="512" viewBox="0 0 329 512" fill="none" xmlns="http://www.w3.org/2000/svg">
<rect y="10.0957" width="329" height="491.087" rx="8" fill="black" fill-opacity="0.12"/>
<g filter="url(#filter0_i_33_159378)">
<path d="M6.46289 1.175C6.46289 0.526064 6.98896 0 7.63789 0C8.28682 0 8.81289 0.526065 8.81289 1.175V13.7014H6.46289V1.175Z" fill="#B91C1C"/>
<path d="M14.6875 1.175C14.6875 0.526065 15.2136 0 15.8625 0C16.5114 0 17.0375 0.526065 17.0375 1.175V13.7014H14.6875V1.175Z" fill="#B91C1C"/>
<path d="M22.9121 1.175C22.9121 0.526065 23.4382 0 24.0871 0C24.736 0 25.2621 0.526065 25.2621 1.175V13.7014H22.9121V1.175Z" fill="#B91C1C"/>
<path d="M31.1387 1.175C31.1387 0.526064 31.6647 0 32.3137 0C32.9626 0 33.4887 0.526065 33.4887 1.175V13.7014H31.1387V1.175Z" fill="#B91C1C"/>
<path d="M39.3633 1.175C39.3633 0.526065 39.8893 0 40.5383 0C41.1872 0 41.7133 0.526066 41.7133 1.175V13.7014H39.3633V1.175Z" fill="#B91C1C"/>
<path d="M47.5879 1.175C47.5879 0.526064 48.114 0 48.7629 0C49.4118 0 49.9379 0.526065 49.9379 1.175V13.7014H47.5879V1.175Z" fill="#B91C1C"/>
<path d="M55.8125 1.175C55.8125 0.526064 56.3386 0 56.9875 0C57.6364 0 58.1625 0.526065 58.1625 1.175V13.7014H55.8125V1.175Z" fill="#B91C1C"/>
<path d="M64.0371 1.175C64.0371 0.526064 64.5632 0 65.2121 0C65.861 0 66.3871 0.526065 66.3871 1.175V13.7014H64.0371V1.175Z" fill="#B91C1C"/>
<path d="M72.2637 1.175C72.2637 0.526066 72.7897 0 73.4387 0C74.0876 0 74.6137 0.526067 74.6137 1.175V13.7014H72.2637V1.175Z" fill="#B91C1C"/>
<path d="M80.4883 1.175C80.4883 0.526064 81.0143 0 81.6633 0C82.3122 0 82.8383 0.526065 82.8383 1.175V13.7014H80.4883V1.175Z" fill="#B91C1C"/>
<path d="M88.7129 1.175C88.7129 0.526064 89.239 0 89.8879 0C90.5368 0 91.0629 0.526065 91.0629 1.175V13.7014H88.7129V1.175Z" fill="#B91C1C"/>
<path d="M96.9375 1.175C96.9375 0.526064 97.4636 0 98.1125 0C98.7614 0 99.2875 0.526065 99.2875 1.175V13.7014H96.9375V1.175Z" fill="#B91C1C"/>
<path d="M105.162 1.175C105.162 0.526064 105.688 0 106.337 0C106.986 0 107.512 0.526065 107.512 1.175V13.7014H105.162V1.175Z" fill="#B91C1C"/>
<path d="M113.389 1.175C113.389 0.526066 113.915 0 114.564 0C115.213 0 115.739 0.526067 115.739 1.175V13.7014H113.389V1.175Z" fill="#B91C1C"/>
<path d="M121.613 1.175C121.613 0.526064 122.139 0 122.788 0C123.437 0 123.963 0.526065 123.963 1.175V13.7014H121.613V1.175Z" fill="#B91C1C"/>
<path d="M129.838 1.175C129.838 0.526066 130.364 0 131.013 0C131.662 0 132.188 0.526067 132.188 1.175V13.7014H129.838V1.175Z" fill="#B91C1C"/>
<path d="M138.062 1.175C138.062 0.526066 138.589 0 139.238 0C139.886 0 140.413 0.526067 140.413 1.175V13.7014H138.062V1.175Z" fill="#B91C1C"/>
<path d="M146.287 1.175C146.287 0.526063 146.813 0 147.462 0C148.111 0 148.637 0.526063 148.637 1.175V13.7014H146.287V1.175Z" fill="#B91C1C"/>
<path d="M154.514 1.175C154.514 0.526066 155.04 0 155.689 0C156.338 0 156.864 0.526067 156.864 1.175V13.7014H154.514V1.175Z" fill="#B91C1C"/>
<path d="M162.738 1.175C162.738 0.526063 163.264 0 163.913 0C164.562 0 165.088 0.526063 165.088 1.175V13.7014H162.738V1.175Z" fill="#B91C1C"/>
<path d="M170.963 1.175C170.963 0.526066 171.489 0 172.138 0C172.787 0 173.313 0.526067 173.313 1.175V13.7014H170.963V1.175Z" fill="#B91C1C"/>
<path d="M179.188 1.175C179.188 0.526066 179.714 0 180.363 0C181.011 0 181.538 0.526067 181.538 1.175V13.7014H179.188V1.175Z" fill="#B91C1C"/>
<path d="M187.412 1.175C187.412 0.526063 187.938 0 188.587 0C189.236 0 189.762 0.526063 189.762 1.175V13.7014H187.412V1.175Z" fill="#B91C1C"/>
<path d="M195.639 1.175C195.639 0.526066 196.165 0 196.814 0C197.463 0 197.989 0.526067 197.989 1.175V13.7014H195.639V1.175Z" fill="#B91C1C"/>
<path d="M203.863 1.175C203.863 0.526063 204.389 0 205.038 0C205.687 0 206.213 0.526063 206.213 1.175V13.7014H203.863V1.175Z" fill="#B91C1C"/>
<path d="M212.088 1.175C212.088 0.526066 212.614 0 213.263 0C213.912 0 214.438 0.526067 214.438 1.175V13.7014H212.088V1.175Z" fill="#B91C1C"/>
<path d="M220.312 1.175C220.312 0.526066 220.839 0 221.488 0C222.136 0 222.663 0.526067 222.663 1.175V13.7014H220.312V1.175Z" fill="#B91C1C"/>
<path d="M228.537 1.175C228.537 0.526063 229.063 0 229.712 0C230.361 0 230.887 0.526063 230.887 1.175V13.7014H228.537V1.175Z" fill="#B91C1C"/>
<path d="M236.764 1.175C236.764 0.526066 237.29 0 237.939 0C238.588 0 239.114 0.526067 239.114 1.175V13.7014H236.764V1.175Z" fill="#B91C1C"/>
<path d="M244.988 1.175C244.988 0.526063 245.514 0 246.163 0C246.812 0 247.338 0.526063 247.338 1.175V13.7014H244.988V1.175Z" fill="#B91C1C"/>
<path d="M253.213 1.175C253.213 0.526066 253.739 0 254.388 0C255.037 0 255.563 0.526067 255.563 1.175V13.7014H253.213V1.175Z" fill="#B91C1C"/>
<path d="M261.438 1.175C261.438 0.526066 261.964 0 262.613 0C263.261 0 263.788 0.526067 263.788 1.175V13.7014H261.438V1.175Z" fill="#B91C1C"/>
<path d="M269.662 1.175C269.662 0.526066 270.188 0 270.837 0C271.486 0 272.012 0.526067 272.012 1.175V13.7014H269.662V1.175Z" fill="#B91C1C"/>
<path d="M277.889 1.17499C277.889 0.526059 278.415 0 279.064 0C279.713 0 280.239 0.52606 280.239 1.17499V13.7014H277.889V1.17499Z" fill="#B91C1C"/>
<path d="M286.113 1.175C286.113 0.526066 286.639 0 287.288 0C287.937 0 288.463 0.526067 288.463 1.175V13.7014H286.113V1.175Z" fill="#B91C1C"/>
<path d="M294.338 1.175C294.338 0.526066 294.864 0 295.513 0C296.162 0 296.688 0.526067 296.688 1.175V13.7014H294.338V1.175Z" fill="#B91C1C"/>
<path d="M302.562 1.175C302.562 0.526066 303.089 0 303.738 0C304.386 0 304.913 0.526067 304.913 1.175V13.7014H302.562V1.175Z" fill="#B91C1C"/>
<path d="M310.787 1.175C310.787 0.526066 311.313 0 311.962 0C312.611 0 313.137 0.526067 313.137 1.175V13.7014H310.787V1.175Z" fill="#B91C1C"/>
<path d="M319.014 1.17499C319.014 0.526059 319.54 0 320.189 0C320.838 0 321.364 0.52606 321.364 1.17499V13.7014H319.014V1.17499Z" fill="#B91C1C"/>
</g>
<g filter="url(#filter1_i_33_159378)">
<path d="M6.46289 510.825C6.46289 511.474 6.98896 512 7.63789 512C8.28682 512 8.81289 511.474 8.81289 510.825V498.299H6.46289V510.825Z" fill="#B91C1C"/>
<path d="M14.6875 510.825C14.6875 511.474 15.2136 512 15.8625 512C16.5114 512 17.0375 511.474 17.0375 510.825V498.299H14.6875V510.825Z" fill="#B91C1C"/>
<path d="M22.9121 510.825C22.9121 511.474 23.4382 512 24.0871 512C24.736 512 25.2621 511.474 25.2621 510.825V498.299H22.9121V510.825Z" fill="#B91C1C"/>
<path d="M31.1387 510.825C31.1387 511.474 31.6647 512 32.3137 512C32.9626 512 33.4887 511.474 33.4887 510.825V498.299H31.1387V510.825Z" fill="#B91C1C"/>
<path d="M39.3633 510.825C39.3633 511.474 39.8893 512 40.5383 512C41.1872 512 41.7133 511.474 41.7133 510.825V498.299H39.3633V510.825Z" fill="#B91C1C"/>
<path d="M47.5879 510.825C47.5879 511.474 48.114 512 48.7629 512C49.4118 512 49.9379 511.474 49.9379 510.825V498.299H47.5879V510.825Z" fill="#B91C1C"/>
<path d="M55.8125 510.825C55.8125 511.474 56.3386 512 56.9875 512C57.6364 512 58.1625 511.474 58.1625 510.825V498.299H55.8125V510.825Z" fill="#B91C1C"/>
<path d="M64.0371 510.825C64.0371 511.474 64.5632 512 65.2121 512C65.861 512 66.3871 511.474 66.3871 510.825V498.299H64.0371V510.825Z" fill="#B91C1C"/>
<path d="M72.2637 510.825C72.2637 511.474 72.7897 512 73.4387 512C74.0876 512 74.6137 511.474 74.6137 510.825V498.299H72.2637V510.825Z" fill="#B91C1C"/>
<path d="M80.4883 510.825C80.4883 511.474 81.0143 512 81.6633 512C82.3122 512 82.8383 511.474 82.8383 510.825V498.299H80.4883V510.825Z" fill="#B91C1C"/>
<path d="M88.7129 510.825C88.7129 511.474 89.239 512 89.8879 512C90.5368 512 91.0629 511.474 91.0629 510.825V498.299H88.7129V510.825Z" fill="#B91C1C"/>
<path d="M96.9375 510.825C96.9375 511.474 97.4636 512 98.1125 512C98.7614 512 99.2875 511.474 99.2875 510.825V498.299H96.9375V510.825Z" fill="#B91C1C"/>
<path d="M105.162 510.825C105.162 511.474 105.688 512 106.337 512C106.986 512 107.512 511.474 107.512 510.825V498.299H105.162V510.825Z" fill="#B91C1C"/>
<path d="M113.389 510.825C113.389 511.474 113.915 512 114.564 512C115.213 512 115.739 511.474 115.739 510.825V498.299H113.389V510.825Z" fill="#B91C1C"/>
<path d="M121.613 510.825C121.613 511.474 122.139 512 122.788 512C123.437 512 123.963 511.474 123.963 510.825V498.299H121.613V510.825Z" fill="#B91C1C"/>
<path d="M129.838 510.825C129.838 511.474 130.364 512 131.013 512C131.662 512 132.188 511.474 132.188 510.825V498.299H129.838V510.825Z" fill="#B91C1C"/>
<path d="M138.062 510.825C138.062 511.474 138.589 512 139.238 512C139.886 512 140.413 511.474 140.413 510.825V498.299H138.062V510.825Z" fill="#B91C1C"/>
<path d="M146.287 510.825C146.287 511.474 146.813 512 147.462 512C148.111 512 148.637 511.474 148.637 510.825V498.299H146.287V510.825Z" fill="#B91C1C"/>
<path d="M154.514 510.825C154.514 511.474 155.04 512 155.689 512C156.338 512 156.864 511.474 156.864 510.825V498.299H154.514V510.825Z" fill="#B91C1C"/>
<path d="M162.738 510.825C162.738 511.474 163.264 512 163.913 512C164.562 512 165.088 511.474 165.088 510.825V498.299H162.738V510.825Z" fill="#B91C1C"/>
<path d="M170.963 510.825C170.963 511.474 171.489 512 172.138 512C172.787 512 173.313 511.474 173.313 510.825V498.299H170.963V510.825Z" fill="#B91C1C"/>
<path d="M179.188 510.825C179.188 511.474 179.714 512 180.363 512C181.011 512 181.538 511.474 181.538 510.825V498.299H179.188V510.825Z" fill="#B91C1C"/>
<path d="M187.412 510.825C187.412 511.474 187.938 512 188.587 512C189.236 512 189.762 511.474 189.762 510.825V498.299H187.412V510.825Z" fill="#B91C1C"/>
<path d="M195.639 510.825C195.639 511.474 196.165 512 196.814 512C197.463 512 197.989 511.474 197.989 510.825V498.299H195.639V510.825Z" fill="#B91C1C"/>
<path d="M203.863 510.825C203.863 511.474 204.389 512 205.038 512C205.687 512 206.213 511.474 206.213 510.825V498.299H203.863V510.825Z" fill="#B91C1C"/>
<path d="M212.088 510.825C212.088 511.474 212.614 512 213.263 512C213.912 512 214.438 511.474 214.438 510.825V498.299H212.088V510.825Z" fill="#B91C1C"/>
<path d="M220.312 510.825C220.312 511.474 220.839 512 221.488 512C222.136 512 222.663 511.474 222.663 510.825V498.299H220.312V510.825Z" fill="#B91C1C"/>
<path d="M228.537 510.825C228.537 511.474 229.063 512 229.712 512C230.361 512 230.887 511.474 230.887 510.825V498.299H228.537V510.825Z" fill="#B91C1C"/>
<path d="M236.764 510.825C236.764 511.474 237.29 512 237.939 512C238.588 512 239.114 511.474 239.114 510.825V498.299H236.764V510.825Z" fill="#B91C1C"/>
<path d="M244.988 510.825C244.988 511.474 245.514 512 246.163 512C246.812 512 247.338 511.474 247.338 510.825V498.299H244.988V510.825Z" fill="#B91C1C"/>
<path d="M253.213 510.825C253.213 511.474 253.739 512 254.388 512C255.037 512 255.563 511.474 255.563 510.825V498.299H253.213V510.825Z" fill="#B91C1C"/>
<path d="M261.438 510.825C261.438 511.474 261.964 512 262.613 512C263.261 512 263.788 511.474 263.788 510.825V498.299H261.438V510.825Z" fill="#B91C1C"/>
<path d="M269.662 510.825C269.662 511.474 270.188 512 270.837 512C271.486 512 272.012 511.474 272.012 510.825V498.299H269.662V510.825Z" fill="#B91C1C"/>
<path d="M277.889 510.825C277.889 511.474 278.415 512 279.064 512C279.713 512 280.239 511.474 280.239 510.825V498.299H277.889V510.825Z" fill="#B91C1C"/>
<path d="M286.113 510.825C286.113 511.474 286.639 512 287.288 512C287.937 512 288.463 511.474 288.463 510.825V498.299H286.113V510.825Z" fill="#B91C1C"/>
<path d="M294.338 510.825C294.338 511.474 294.864 512 295.513 512C296.162 512 296.688 511.474 296.688 510.825V498.299H294.338V510.825Z" fill="#B91C1C"/>
<path d="M302.562 510.825C302.562 511.474 303.089 512 303.738 512C304.386 512 304.913 511.474 304.913 510.825V498.299H302.562V510.825Z" fill="#B91C1C"/>
<path d="M310.787 510.825C310.787 511.474 311.313 512 311.962 512C312.611 512 313.137 511.474 313.137 510.825V498.299H310.787V510.825Z" fill="#B91C1C"/>
<path d="M319.014 510.825C319.014 511.474 319.54 512 320.189 512C320.838 512 321.364 511.474 321.364 510.825V498.299H319.014V510.825Z" fill="#B91C1C"/>
</g>
<rect y="18.0283" width="329" height="480.992" rx="8" fill="#7F1D1D"/>
<rect y="12.2588" width="329" height="485.318" rx="8" fill="#991B1B"/>
<rect y="12.2588" width="329" height="485.318" rx="8" fill="url(#paint0_linear_33_159378)" fill-opacity="0.15"/>
<path d="M200.555 383.204C201.025 381.016 202.781 379.336 204.987 378.962L206.746 378.664C213.702 377.484 220.85 378.252 227.398 380.88L230.346 382.064C232.243 382.826 233.557 384.582 233.751 386.618L235.842 408.527C236.109 411.326 233.545 413.557 230.811 412.905L217.753 409.795L201.37 407.798C198.179 407.409 196.011 404.366 196.686 401.224L200.555 383.204Z" fill="white" fill-opacity="0.2"/>
<path d="M191.001 392.184L202.809 393.329" stroke="black" stroke-opacity="0.2" stroke-width="2" stroke-linecap="round"/>
<path d="M193.954 388.746L205.762 389.892" stroke="black" stroke-opacity="0.2" stroke-width="2" stroke-linecap="round"/>
<path d="M228.638 393.329L240.445 394.475" stroke="black" stroke-opacity="0.2" stroke-width="2" stroke-linecap="round"/>
<path d="M230.114 397.337L241.922 398.482" stroke="black" stroke-opacity="0.2" stroke-width="2" stroke-linecap="round"/>
<path d="M217.373 407.648L216.828 416.874" stroke="black" stroke-opacity="0.2" stroke-width="2" stroke-linecap="round"/>
<path d="M212.945 405.356L212.4 414.582" stroke="black" stroke-opacity="0.2" stroke-width="2" stroke-linecap="round"/>
<path d="M219.587 377.29L219.043 386.517" stroke="black" stroke-opacity="0.2" stroke-width="2" stroke-linecap="round"/>
<path d="M213.683 375L213.139 384.227" stroke="black" stroke-opacity="0.2" stroke-width="2" stroke-linecap="round"/>
<circle opacity="0.25" cx="49.5" cy="142.5" r="2.5" fill="black" fill-opacity="0.2"/>
<circle opacity="0.25" cx="51.5" cy="156.5" r="4.5" fill="black" fill-opacity="0.12"/>
<ellipse opacity="0.25" cx="202.5" cy="429" rx="4.5" ry="4" fill="white" fill-opacity="0.2"/>
<ellipse opacity="0.25" cx="44" cy="345.5" rx="4" ry="4.5" fill="black" fill-opacity="0.4"/>
<ellipse opacity="0.25" cx="173" cy="100.5" rx="5" ry="3.5" fill="white" fill-opacity="0.2"/>
<ellipse opacity="0.25" cx="305" cy="315" rx="6" ry="7" fill="white" fill-opacity="0.4"/>
<circle opacity="0.25" cx="59" cy="360" r="3" fill="black" fill-opacity="0.4"/>
<circle opacity="0.25" cx="35" cy="370" r="2" fill="black" fill-opacity="0.12"/>
<ellipse opacity="0.25" cx="217.5" cy="433" rx="1.5" ry="2" fill="black" fill-opacity="0.2"/>
<circle opacity="0.25" cx="152.5" cy="444.5" r="2.5" fill="black" fill-opacity="0.2"/>
<circle opacity="0.25" cx="68.5" cy="154.5" r="2.5" fill="white" fill-opacity="0.4"/>
<defs>
<filter id="filter0_i_33_159378" x="6.46289" y="-2" width="314.9" height="15.7012" filterUnits="userSpaceOnUse" color-interpolation-filters="sRGB">
<feFlood flood-opacity="0" result="BackgroundImageFix"/>
<feBlend mode="normal" in="SourceGraphic" in2="BackgroundImageFix" result="shape"/>
<feColorMatrix in="SourceAlpha" type="matrix" values="0 0 0 0 0 0 0 0 0 0 0 0 0 0 0 0 0 0 127 0" result="hardAlpha"/>
<feOffset dy="-3"/>
<feGaussianBlur stdDeviation="1"/>
<feComposite in2="hardAlpha" operator="arithmetic" k2="-1" k3="1"/>
<feColorMatrix type="matrix" values="0 0 0 0 0 0 0 0 0 0 0 0 0 0 0 0 0 0 0.25 0"/>
<feBlend mode="normal" in2="shape" result="effect1_innerShadow_33_159378"/>
</filter>
<filter id="filter1_i_33_159378" x="6.46289" y="498.299" width="314.9" height="15.7012" filterUnits="userSpaceOnUse" color-interpolation-filters="sRGB">
<feFlood flood-opacity="0" result="BackgroundImageFix"/>
<feBlend mode="normal" in="SourceGraphic" in2="BackgroundImageFix" result="shape"/>
<feColorMatrix in="SourceAlpha" type="matrix" values="0 0 0 0 0 0 0 0 0 0 0 0 0 0 0 0 0 0 127 0" result="hardAlpha"/>
<feOffset dy="3"/>
<feGaussianBlur stdDeviation="1"/>
<feComposite in2="hardAlpha" operator="arithmetic" k2="-1" k3="1"/>
<feColorMatrix type="matrix" values="0 0 0 0 0 0 0 0 0 0 0 0 0 0 0 0 0 0 0.25 0"/>
<feBlend mode="normal" in2="shape" result="effect1_innerShadow_33_159378"/>
</filter>
<linearGradient id="paint0_linear_33_159378" x1="-148.638" y1="478.828" x2="489.935" y2="102.781" gradientUnits="userSpaceOnUse">
<stop/>
<stop offset="0.635417" stop-opacity="0"/>
</linearGradient>
</defs>
</svg>
