<svg width="151" height="156" viewBox="0 0 151 156" fill="none" xmlns="http://www.w3.org/2000/svg">
<circle cx="76.6602" cy="103.242" r="41" fill="black" fill-opacity="0.2"/>
<circle cx="76.6602" cy="109.242" r="46" fill="black" fill-opacity="0.12"/>
<g filter="url(#filter0_ii_1368_327035)">
<g filter="url(#filter1_i_1368_327035)">
<path d="M83.93 138.779C87.4741 138.015 89.5069 134.457 88.5023 131.287C86.5388 125.09 86.0566 121.056 83.0945 116.348C81.263 113.437 76.7575 113.642 74.6999 116.567C71.2474 121.473 69.7842 125.203 66.9951 131.052C65.5449 134.093 67.1061 137.619 70.483 138.479C76.3164 139.964 78.5808 139.933 83.93 138.779Z" fill="#334155"/>
</g>
<g filter="url(#filter2_i_1368_327035)">
<path d="M62.4882 137.296C66.0136 139.773 70.7357 138.668 71.4791 135.183C72.8807 128.613 73.5461 123.293 73.1448 116.777C72.944 113.516 69.2208 110.907 65.6902 111.462C58.9232 112.524 53.557 113.828 46.9978 116.028C43.6471 117.152 42.9668 120.967 45.7111 123.656C51.0376 128.875 56.0245 132.756 62.4882 137.296Z" fill="#334155"/>
</g>
<g filter="url(#filter3_i_1368_327035)">
<path d="M50.4522 132.381C53.2738 134.555 57.3712 133.408 58.779 130.124C62.1337 122.298 64.2806 116.203 65.5678 108.487C66.1454 105.025 63.2421 102.05 59.7566 102.422C52.343 103.212 46.4732 104.404 38.7856 106.689C35.792 107.579 34.1102 110.798 35.3087 113.679C38.6565 121.726 43.1128 126.727 50.4522 132.381Z" fill="#334155"/>
</g>
<g filter="url(#filter4_i_1368_327035)">
<path d="M91.0749 130.912C92.2859 134.53 96.6944 135.891 99.7064 133.567C105.487 129.107 109.77 125.291 113.967 120.07C116.202 117.289 114.99 113.196 111.66 111.902C105.278 109.422 99.8883 107.811 92.8922 106.318C89.3146 105.554 86.0326 108.455 86.4941 112.089C87.3345 118.707 88.8205 124.176 91.0749 130.912Z" fill="#334155"/>
</g>
<g filter="url(#filter5_i_1368_327035)">
<path d="M44.7237 116.39C43.6262 121.029 37.3477 122.292 34.3076 118.259C29.6028 112.018 26.0127 106.445 22.5254 99.1968C21.0313 96.0915 22.7177 92.6652 25.8818 91.662C32.9944 89.4068 39.6244 86.4784 47.085 85.2572C51.2002 84.5836 54.0879 88.9846 52.5041 92.7158C49.4179 99.9862 46.7399 107.869 44.7237 116.39Z" fill="#334155"/>
</g>
<g filter="url(#filter6_i_1368_327035)">
<path d="M83.7339 134.889C84.8076 138.313 89.5095 139.268 92.7129 136.612C98.9897 131.408 101.316 127.325 101.624 113.7C101.671 111.611 100.358 109.827 98.2338 109.35C92.4573 108.052 91.7188 109.595 86.9658 110.189C83.2004 110.66 79.6978 113.548 79.9749 116.951C80.4973 123.368 81.7481 128.557 83.7339 134.889Z" fill="#334155"/>
</g>
<g filter="url(#filter7_i_1368_327035)">
<path d="M104.21 120.905C105.582 124.884 110.964 125.64 113.905 122.325C120.561 114.82 124.738 109.711 127.521 100.427C128.351 97.659 126.712 94.9293 123.953 94.2077C116.768 92.3288 111.926 91.568 104.323 91.3459C100.85 91.2444 97.9892 94.3075 98.4466 97.6682C99.618 106.274 101.438 112.867 104.21 120.905Z" fill="#334155"/>
</g>
<g filter="url(#filter8_i_1368_327035)">
<path d="M71.1089 132.72C73.2985 135.711 77.7226 135.725 79.7771 132.694C85.8603 123.719 89.0626 115.647 90.71 105.066C91.1863 102.007 88.9359 99.1913 85.8432 98.8913C77.6948 98.1009 71.4174 98.198 62.7952 99.2792C59.8997 99.6423 57.8055 102.223 58.2597 105.114C59.7128 114.368 63.5271 122.362 71.1089 132.72Z" fill="#334155"/>
</g>
<g filter="url(#filter9_i_1368_327035)">
<path d="M34.2665 102.767C32.1384 107.636 25.4702 108.779 23.869 104.13C21.074 96.0163 19.6631 87.7648 19.2966 78.8393C19.1756 75.8936 21.5432 73.0915 24.5214 73.0916C30.7038 73.0919 34.7108 75.3039 40.3853 77.0537C44.2593 78.2482 45.9548 82.9847 43.4412 86.6095C39.8747 91.7525 36.9449 96.6392 34.2665 102.767Z" fill="#334155"/>
</g>
<g filter="url(#filter10_i_1368_327035)">
<path d="M118.18 104.286C120.553 108.241 125.979 108.619 127.444 104.77C130.836 95.8576 131.757 87.3248 131.605 76.5611C131.565 73.6887 129.26 70.9541 126.367 70.7504C119.821 70.2894 116.738 72.3605 110.299 73.6838C107.064 74.3487 105.098 77.5229 106.4 80.8451C109.838 89.6163 113.354 96.2437 118.18 104.286Z" fill="#334155"/>
</g>
<g filter="url(#filter11_i_1368_327035)">
<path d="M64.0232 113.119C62.0102 116.243 57.5256 116.458 55.1605 113.542C45.76 101.953 40.9556 93.4109 39.2137 80.4493C38.8233 77.5436 40.9072 74.9508 43.8068 74.5698C54.3483 73.1845 62.1478 73.051 73.1719 74.1566C76.4472 74.485 78.7317 77.5922 78.0052 80.7902C75.0896 93.6256 71.0798 102.169 64.0232 113.119Z" fill="#334155"/>
</g>
<g filter="url(#filter12_i_1368_327035)">
<path d="M123.134 76.9393C127.141 79.1733 132.148 76.956 131.816 73.0251C130.4 56.2382 124.74 47.3024 116.896 33.6182C115.378 30.9693 111.649 29.6879 108.638 30.8909C99.4448 34.5642 93.1705 38.1605 85.4202 44.2833C82.9579 46.2286 83.1864 49.6279 85.8379 51.6688C99.0875 61.8672 108.877 68.9907 123.134 76.9393Z" fill="#334155"/>
</g>
<g filter="url(#filter13_i_1368_327035)">
<path d="M26.6688 77.1848C22.6188 79.3601 17.5986 77.1248 17.8601 73.1939C19.0781 54.8803 24.4005 48.8221 32.2563 35.6035C33.8204 32.9716 37.5449 31.6881 40.5556 32.8911C49.7488 36.5644 56.023 40.1607 63.7733 46.2836C66.2356 48.2288 66.009 51.6301 63.3368 53.6515C50.1989 63.5902 40.7607 69.6161 26.6688 77.1848Z" fill="#334155"/>
</g>
<g filter="url(#filter14_i_1368_327035)">
<path d="M97.0896 115.741C94.7593 118.933 89.9431 118.667 87.9078 115.28C81.2723 104.235 76.9847 95.8958 73.3796 84.0262C72.3946 80.783 74.6055 77.4709 77.9738 77.0916C88.2482 75.9343 96.0463 75.9512 107.02 77.194C110.137 77.5469 112.337 80.4301 111.756 83.5124C109.334 96.3632 105.05 104.837 97.0896 115.741Z" fill="#334155"/>
</g>
<g filter="url(#filter15_i_1368_327035)">
<path d="M118.58 47.8451C121.744 49.0932 125.155 46.8353 123.962 44.1124C119.286 33.4385 113.156 26.7718 105.934 20.1758C104.022 18.4293 100.925 17.9188 98.6177 19.1349C93.2434 21.9675 92.9817 23.8947 89.332 28.2119C87.3701 30.5325 87.7447 33.8601 90.6032 35.6129C101.103 42.0514 107.537 43.4884 118.58 47.8451Z" fill="#334155"/>
</g>
<g filter="url(#filter16_i_1368_327035)">
<path d="M42.7592 83.3898C39.0719 87.3167 32.177 85.8902 32.1054 80.909C31.9559 70.5084 33.012 62.2895 35.1758 50.6742C35.7541 47.57 39.0066 45.3294 42.2461 45.8718C51.3652 47.3984 58.0647 49.3673 66.4423 53.0959C69.8988 54.6343 70.2498 59.0344 67.171 61.6026C58.4793 68.8528 50.981 74.6335 42.7592 83.3898Z" fill="#334155"/>
</g>
<g filter="url(#filter17_i_1368_327035)">
<path d="M106.913 90.0225C110.401 94.7443 118.848 94.055 119.303 88.6195C120.097 79.1413 120.084 70.6304 118.8 59.7948C118.429 56.6654 115.28 54.2781 112.019 54.6662C102.702 55.7749 95.7691 57.4374 87.2046 60.733C83.4438 62.1802 83.1079 66.9593 86.4321 69.6592C94.6339 76.3207 101.087 82.1353 106.913 90.0225Z" fill="#334155"/>
</g>
<g filter="url(#filter18_i_1368_327035)">
<path d="M81.9043 101.142C79.777 104.84 74.4614 104.889 72.2766 101.225C65.9979 90.6964 61.8691 82.5151 58.3796 71.0262C57.3946 67.783 59.6055 64.4709 62.9738 64.0916C72.9668 62.966 80.6173 62.9511 91.1255 64.0946C94.5709 64.4695 96.8037 67.8955 95.7213 71.1879C91.9687 82.6019 87.8941 90.7307 81.9043 101.142Z" fill="#334155"/>
</g>
<g filter="url(#filter19_i_1368_327035)">
<path d="M65.4678 85.8543C62.8884 89.7508 57.059 89.2457 55.5763 84.989C52.2866 75.5445 50.2216 67.8478 48.9934 57.481C48.6139 54.2779 51.1713 51.3569 54.4498 51.2648C62.1338 51.0489 68.1196 51.6086 75.912 53.3157C79.1483 54.0247 80.8339 57.4485 79.4833 60.5364C75.2096 70.3074 71.0883 77.3638 65.4678 85.8543Z" fill="#334155"/>
</g>
<g filter="url(#filter20_i_1368_327035)">
<path d="M120.823 57.7882C122.242 61.2217 118.152 64.3392 114.19 62.8354C105.605 59.5762 98.8392 56.5556 90.694 51.7824C87.8581 50.1205 87.2686 46.8154 89.4834 44.6581C93.2602 40.9794 96.8145 38.3063 101.806 35.4243C104.663 33.7749 108.625 34.6605 110.283 37.2662C114.937 44.5778 117.799 50.4699 120.823 57.7882Z" fill="#334155"/>
</g>
<g filter="url(#filter21_i_1368_327035)">
<path d="M112.982 36.097C114.116 38.774 110.975 41.3716 107.803 40.3483C98.0168 37.1909 90.6874 34.397 81.6542 29.6234C78.7481 28.0877 78.0158 24.8166 80.0064 22.4843C83.0438 18.9256 85.0987 16.9494 89.9753 13.9264C92.1321 12.5893 95.1295 12.6684 97.1348 14.1711C106.265 21.0129 109.313 27.4346 112.982 36.097Z" fill="#334155"/>
</g>
<g filter="url(#filter22_i_1368_327035)">
<path d="M101.989 84.9588C100.556 89.2352 94.7405 89.8329 92.1179 85.965C86.299 77.383 82.1567 70.274 78.0899 60.4087C76.8333 57.3603 78.5146 54.0374 81.6816 53.3349C89.1043 51.6885 95.0882 51.1147 103.149 51.3205C106.497 51.406 109.086 54.4253 108.626 57.685C107.17 67.9986 105.111 75.6403 101.989 84.9588Z" fill="#334155"/>
</g>
<g filter="url(#filter23_i_1368_327035)">
<path d="M82.5359 64.3229C80.5662 68.5014 74.6558 68.5516 72.6373 64.3964C69.3963 57.7251 67.0696 51.9242 65.0669 44.391C64.2316 41.2493 66.3524 38.0985 69.5817 37.7252C75.1304 37.0836 79.7468 37.0774 85.5497 37.7293C88.8486 38.1 90.9934 41.3476 90.0801 44.5391C87.9462 51.9955 85.637 57.7441 82.5359 64.3229Z" fill="#334155"/>
</g>
<g filter="url(#filter24_i_1368_327035)">
<path d="M30.0341 50.6229C26.8037 51.7637 23.4923 49.3222 24.8629 46.6562C30.6027 35.4925 38.3042 27.2865 46.2773 20.5206C48.2427 18.8528 51.3671 18.4893 53.5702 19.8578C58.9747 23.2147 59.4513 25.9569 63.0724 30.8347C64.8682 33.2539 64.3276 36.5305 61.4081 38.1418C50.0082 44.434 41.975 46.4062 30.0341 50.6229Z" fill="#334155"/>
</g>
<g filter="url(#filter25_i_1368_327035)">
<path d="M35.6522 60.3974C34.7682 64.0059 39.283 66.4696 42.9716 64.3844C50.9656 59.8654 57.1976 55.8571 64.528 49.908C67.0802 47.8367 67.1635 44.4804 64.6482 42.6825C60.3589 39.6167 56.4415 37.5114 51.0717 35.4168C47.9984 34.218 44.216 35.6921 42.9702 38.5184C39.4745 46.4493 37.5363 52.7062 35.6522 60.3974Z" fill="#334155"/>
</g>
<g filter="url(#filter26_i_1368_327035)">
<path d="M43.5826 41.9884C40.4142 42.8742 37.4178 40.1936 38.623 37.566C42.4551 29.2114 45.6597 23.0135 52.5442 16.4436C54.5397 14.5394 57.9734 14.3781 60.366 15.9752C65.0346 19.0916 68.0964 21.5489 71.6789 25.6315C73.7807 28.0267 72.8297 31.3871 69.7494 32.7703C60.5477 36.9026 53.2265 39.2923 43.5826 41.9884Z" fill="#334155"/>
</g>
<g filter="url(#filter27_i_1368_327035)">
<path d="M83.623 9.25444C79.6801 6.81552 72.5986 6.80162 68.412 8.71655C64.5471 10.4843 60.5394 11.0806 57.968 14.3046C55.9493 16.8358 58.3625 20.1398 61.5962 20.5111C69.5938 21.4295 80.3386 22.2441 88.535 21.8615C91.8507 21.7067 94.0753 18.3419 92.1578 15.6155C89.8376 12.3165 86.7683 11.2 83.623 9.25444Z" fill="#334155"/>
</g>
<g filter="url(#filter28_i_1368_327035)">
<path d="M62.362 58.1559C59.9156 61.2458 55.0777 60.4812 54.2417 56.8658C52.4217 48.9943 51.4053 42.5634 51.2582 34.1826C51.2025 31.0063 54.0371 28.3094 57.3 28.472C62.8909 28.7505 67.4155 29.4987 72.9429 31.0847C76.0934 31.9887 77.4251 35.477 75.7788 38.4198C71.5388 45.9984 67.5897 51.5532 62.362 58.1559Z" fill="#334155"/>
</g>
<g filter="url(#filter29_i_1368_327035)">
<path d="M100.715 55.0076C100.612 58.698 95.8561 60.1798 92.8301 57.4577C86.2774 51.563 81.3114 46.5244 75.8253 39.4357C73.8012 36.8204 74.5331 33.382 77.4271 32.1063C82.3601 29.9318 86.6871 28.6161 92.4017 27.5805C95.6752 26.9872 99.0087 29.292 99.4816 32.4281C100.733 40.7274 100.935 47.1587 100.715 55.0076Z" fill="#334155"/>
</g>
<g filter="url(#filter30_i_1368_327035)">
<path d="M91.9628 13.4433C89.4628 9.79562 83.1083 7.87488 78.9194 10.5924C76.422 12.2125 74.7954 13.2787 71.8683 16.8633C69.7705 19.4324 70.5415 22.8787 73.4385 24.1494C80.6626 27.3183 88.3564 29.6803 96.861 30.9842C97.8323 31.1331 98.8152 30.4527 98.9245 29.5287C99.9363 20.9788 95.3408 18.3721 91.9628 13.4433Z" fill="#334155"/>
</g>
<g filter="url(#filter31_i_1368_327035)">
<path d="M56.7934 13.9127C59.3623 10.309 65.7118 8.37546 69.9042 11.0881C72.3731 12.6855 73.9819 13.7405 76.8893 17.3023C78.9867 19.8716 78.2158 23.3197 75.3004 24.5592C68.4032 27.4915 61.097 29.5397 53.0343 30.8223C51.4838 31.0689 49.9023 29.9877 49.799 28.5111C49.2631 20.8563 53.5612 18.4471 56.7934 13.9127Z" fill="#334155"/>
</g>
<g filter="url(#filter32_i_1368_327035)">
<path d="M80.4895 42.8934C78.3074 46.9815 72.3015 46.9461 70.1528 42.8772C67.124 37.1417 64.4447 31.8511 62.5745 25.5402C61.6531 22.4307 63.8649 19.3263 67.1044 19.0152C72.6705 18.4807 78.3188 18.3725 84.0548 18.9151C87.358 19.2276 89.4231 22.5042 88.3287 25.6474C86.1514 31.9008 83.5155 37.2244 80.4895 42.8934Z" fill="#334155"/>
</g>
</g>
<defs>
<filter id="filter0_ii_1368_327035" x="17.8501" y="-20.6533" width="141.981" height="160.274" filterUnits="userSpaceOnUse" color-interpolation-filters="sRGB">
<feFlood flood-opacity="0" result="BackgroundImageFix"/>
<feBlend mode="normal" in="SourceGraphic" in2="BackgroundImageFix" result="shape"/>
<feColorMatrix in="SourceAlpha" type="matrix" values="0 0 0 0 0 0 0 0 0 0 0 0 0 0 0 0 0 0 127 0" result="hardAlpha"/>
<feOffset dx="40" dy="-28"/>
<feGaussianBlur stdDeviation="14"/>
<feComposite in2="hardAlpha" operator="arithmetic" k2="-1" k3="1"/>
<feColorMatrix type="matrix" values="0 0 0 0 0 0 0 0 0 0 0 0 0 0 0 0 0 0 0.25 0"/>
<feBlend mode="normal" in2="shape" result="effect1_innerShadow_1368_327035"/>
<feColorMatrix in="SourceAlpha" type="matrix" values="0 0 0 0 0 0 0 0 0 0 0 0 0 0 0 0 0 0 127 0" result="hardAlpha"/>
<feOffset dx="8" dy="-12"/>
<feGaussianBlur stdDeviation="10"/>
<feComposite in2="hardAlpha" operator="arithmetic" k2="-1" k3="1"/>
<feColorMatrix type="matrix" values="0 0 0 0 0 0 0 0 0 0 0 0 0 0 0 0 0 0 0.25 0"/>
<feBlend mode="normal" in2="effect1_innerShadow_1368_327035" result="effect2_innerShadow_1368_327035"/>
</filter>
<filter id="filter1_i_1368_327035" x="66.4531" y="111.267" width="23.3057" height="28.3545" filterUnits="userSpaceOnUse" color-interpolation-filters="sRGB">
<feFlood flood-opacity="0" result="BackgroundImageFix"/>
<feBlend mode="normal" in="SourceGraphic" in2="BackgroundImageFix" result="shape"/>
<feColorMatrix in="SourceAlpha" type="matrix" values="0 0 0 0 0 0 0 0 0 0 0 0 0 0 0 0 0 0 127 0" result="hardAlpha"/>
<feOffset dx="1" dy="-3"/>
<feGaussianBlur stdDeviation="4"/>
<feComposite in2="hardAlpha" operator="arithmetic" k2="-1" k3="1"/>
<feColorMatrix type="matrix" values="0 0 0 0 0 0 0 0 0 0 0 0 0 0 0 0 0 0 0.35 0"/>
<feBlend mode="normal" in2="shape" result="effect1_innerShadow_1368_327035"/>
</filter>
<filter id="filter2_i_1368_327035" x="44.0098" y="108.387" width="30.2505" height="30.248" filterUnits="userSpaceOnUse" color-interpolation-filters="sRGB">
<feFlood flood-opacity="0" result="BackgroundImageFix"/>
<feBlend mode="normal" in="SourceGraphic" in2="BackgroundImageFix" result="shape"/>
<feColorMatrix in="SourceAlpha" type="matrix" values="0 0 0 0 0 0 0 0 0 0 0 0 0 0 0 0 0 0 127 0" result="hardAlpha"/>
<feOffset dx="1" dy="-3"/>
<feGaussianBlur stdDeviation="4"/>
<feComposite in2="hardAlpha" operator="arithmetic" k2="-1" k3="1"/>
<feColorMatrix type="matrix" values="0 0 0 0 0 0 0 0 0 0 0 0 0 0 0 0 0 0 0.35 0"/>
<feBlend mode="normal" in2="shape" result="effect1_innerShadow_1368_327035"/>
</filter>
<filter id="filter3_i_1368_327035" x="34.9189" y="99.3906" width="31.7227" height="34.1035" filterUnits="userSpaceOnUse" color-interpolation-filters="sRGB">
<feFlood flood-opacity="0" result="BackgroundImageFix"/>
<feBlend mode="normal" in="SourceGraphic" in2="BackgroundImageFix" result="shape"/>
<feColorMatrix in="SourceAlpha" type="matrix" values="0 0 0 0 0 0 0 0 0 0 0 0 0 0 0 0 0 0 127 0" result="hardAlpha"/>
<feOffset dx="1" dy="-3"/>
<feGaussianBlur stdDeviation="4"/>
<feComposite in2="hardAlpha" operator="arithmetic" k2="-1" k3="1"/>
<feColorMatrix type="matrix" values="0 0 0 0 0 0 0 0 0 0 0 0 0 0 0 0 0 0 0.35 0"/>
<feBlend mode="normal" in2="shape" result="effect1_innerShadow_1368_327035"/>
</filter>
<filter id="filter4_i_1368_327035" x="86.4507" y="103.195" width="29.6533" height="31.5205" filterUnits="userSpaceOnUse" color-interpolation-filters="sRGB">
<feFlood flood-opacity="0" result="BackgroundImageFix"/>
<feBlend mode="normal" in="SourceGraphic" in2="BackgroundImageFix" result="shape"/>
<feColorMatrix in="SourceAlpha" type="matrix" values="0 0 0 0 0 0 0 0 0 0 0 0 0 0 0 0 0 0 127 0" result="hardAlpha"/>
<feOffset dx="1" dy="-3"/>
<feGaussianBlur stdDeviation="4"/>
<feComposite in2="hardAlpha" operator="arithmetic" k2="-1" k3="1"/>
<feColorMatrix type="matrix" values="0 0 0 0 0 0 0 0 0 0 0 0 0 0 0 0 0 0 0.35 0"/>
<feBlend mode="normal" in2="shape" result="effect1_innerShadow_1368_327035"/>
</filter>
<filter id="filter5_i_1368_327035" x="21.9746" y="82.1885" width="31.9702" height="38.4922" filterUnits="userSpaceOnUse" color-interpolation-filters="sRGB">
<feFlood flood-opacity="0" result="BackgroundImageFix"/>
<feBlend mode="normal" in="SourceGraphic" in2="BackgroundImageFix" result="shape"/>
<feColorMatrix in="SourceAlpha" type="matrix" values="0 0 0 0 0 0 0 0 0 0 0 0 0 0 0 0 0 0 127 0" result="hardAlpha"/>
<feOffset dx="1" dy="-3"/>
<feGaussianBlur stdDeviation="4"/>
<feComposite in2="hardAlpha" operator="arithmetic" k2="-1" k3="1"/>
<feColorMatrix type="matrix" values="0 0 0 0 0 0 0 0 0 0 0 0 0 0 0 0 0 0 0.35 0"/>
<feBlend mode="normal" in2="shape" result="effect1_innerShadow_1368_327035"/>
</filter>
<filter id="filter6_i_1368_327035" x="79.9595" y="105.845" width="22.666" height="32.2949" filterUnits="userSpaceOnUse" color-interpolation-filters="sRGB">
<feFlood flood-opacity="0" result="BackgroundImageFix"/>
<feBlend mode="normal" in="SourceGraphic" in2="BackgroundImageFix" result="shape"/>
<feColorMatrix in="SourceAlpha" type="matrix" values="0 0 0 0 0 0 0 0 0 0 0 0 0 0 0 0 0 0 127 0" result="hardAlpha"/>
<feOffset dx="1" dy="-3"/>
<feGaussianBlur stdDeviation="4"/>
<feComposite in2="hardAlpha" operator="arithmetic" k2="-1" k3="1"/>
<feColorMatrix type="matrix" values="0 0 0 0 0 0 0 0 0 0 0 0 0 0 0 0 0 0 0.35 0"/>
<feBlend mode="normal" in2="shape" result="effect1_innerShadow_1368_327035"/>
</filter>
<filter id="filter7_i_1368_327035" x="98.3984" y="88.3438" width="30.3389" height="36.0674" filterUnits="userSpaceOnUse" color-interpolation-filters="sRGB">
<feFlood flood-opacity="0" result="BackgroundImageFix"/>
<feBlend mode="normal" in="SourceGraphic" in2="BackgroundImageFix" result="shape"/>
<feColorMatrix in="SourceAlpha" type="matrix" values="0 0 0 0 0 0 0 0 0 0 0 0 0 0 0 0 0 0 127 0" result="hardAlpha"/>
<feOffset dx="1" dy="-3"/>
<feGaussianBlur stdDeviation="4"/>
<feComposite in2="hardAlpha" operator="arithmetic" k2="-1" k3="1"/>
<feColorMatrix type="matrix" values="0 0 0 0 0 0 0 0 0 0 0 0 0 0 0 0 0 0 0.35 0"/>
<feBlend mode="normal" in2="shape" result="effect1_innerShadow_1368_327035"/>
</filter>
<filter id="filter8_i_1368_327035" x="58.1978" y="95.3721" width="33.5762" height="39.5938" filterUnits="userSpaceOnUse" color-interpolation-filters="sRGB">
<feFlood flood-opacity="0" result="BackgroundImageFix"/>
<feBlend mode="normal" in="SourceGraphic" in2="BackgroundImageFix" result="shape"/>
<feColorMatrix in="SourceAlpha" type="matrix" values="0 0 0 0 0 0 0 0 0 0 0 0 0 0 0 0 0 0 127 0" result="hardAlpha"/>
<feOffset dx="1" dy="-3"/>
<feGaussianBlur stdDeviation="4"/>
<feComposite in2="hardAlpha" operator="arithmetic" k2="-1" k3="1"/>
<feColorMatrix type="matrix" values="0 0 0 0 0 0 0 0 0 0 0 0 0 0 0 0 0 0 0.35 0"/>
<feBlend mode="normal" in2="shape" result="effect1_innerShadow_1368_327035"/>
</filter>
<filter id="filter9_i_1368_327035" x="19.292" y="70.0918" width="26.3359" height="36.9873" filterUnits="userSpaceOnUse" color-interpolation-filters="sRGB">
<feFlood flood-opacity="0" result="BackgroundImageFix"/>
<feBlend mode="normal" in="SourceGraphic" in2="BackgroundImageFix" result="shape"/>
<feColorMatrix in="SourceAlpha" type="matrix" values="0 0 0 0 0 0 0 0 0 0 0 0 0 0 0 0 0 0 127 0" result="hardAlpha"/>
<feOffset dx="1" dy="-3"/>
<feGaussianBlur stdDeviation="4"/>
<feComposite in2="hardAlpha" operator="arithmetic" k2="-1" k3="1"/>
<feColorMatrix type="matrix" values="0 0 0 0 0 0 0 0 0 0 0 0 0 0 0 0 0 0 0.35 0"/>
<feBlend mode="normal" in2="shape" result="effect1_innerShadow_1368_327035"/>
</filter>
<filter id="filter10_i_1368_327035" x="105.994" y="67.6846" width="26.627" height="39.7783" filterUnits="userSpaceOnUse" color-interpolation-filters="sRGB">
<feFlood flood-opacity="0" result="BackgroundImageFix"/>
<feBlend mode="normal" in="SourceGraphic" in2="BackgroundImageFix" result="shape"/>
<feColorMatrix in="SourceAlpha" type="matrix" values="0 0 0 0 0 0 0 0 0 0 0 0 0 0 0 0 0 0 127 0" result="hardAlpha"/>
<feOffset dx="1" dy="-3"/>
<feGaussianBlur stdDeviation="4"/>
<feComposite in2="hardAlpha" operator="arithmetic" k2="-1" k3="1"/>
<feColorMatrix type="matrix" values="0 0 0 0 0 0 0 0 0 0 0 0 0 0 0 0 0 0 0.35 0"/>
<feBlend mode="normal" in2="shape" result="effect1_innerShadow_1368_327035"/>
</filter>
<filter id="filter11_i_1368_327035" x="39.1665" y="70.418" width="39.9741" height="45.1836" filterUnits="userSpaceOnUse" color-interpolation-filters="sRGB">
<feFlood flood-opacity="0" result="BackgroundImageFix"/>
<feBlend mode="normal" in="SourceGraphic" in2="BackgroundImageFix" result="shape"/>
<feColorMatrix in="SourceAlpha" type="matrix" values="0 0 0 0 0 0 0 0 0 0 0 0 0 0 0 0 0 0 127 0" result="hardAlpha"/>
<feOffset dx="1" dy="-3"/>
<feGaussianBlur stdDeviation="4"/>
<feComposite in2="hardAlpha" operator="arithmetic" k2="-1" k3="1"/>
<feColorMatrix type="matrix" values="0 0 0 0 0 0 0 0 0 0 0 0 0 0 0 0 0 0 0.35 0"/>
<feBlend mode="normal" in2="shape" result="effect1_innerShadow_1368_327035"/>
</filter>
<filter id="filter12_i_1368_327035" x="83.7036" y="27.4365" width="49.1279" height="50.3926" filterUnits="userSpaceOnUse" color-interpolation-filters="sRGB">
<feFlood flood-opacity="0" result="BackgroundImageFix"/>
<feBlend mode="normal" in="SourceGraphic" in2="BackgroundImageFix" result="shape"/>
<feColorMatrix in="SourceAlpha" type="matrix" values="0 0 0 0 0 0 0 0 0 0 0 0 0 0 0 0 0 0 127 0" result="hardAlpha"/>
<feOffset dx="1" dy="-3"/>
<feGaussianBlur stdDeviation="4"/>
<feComposite in2="hardAlpha" operator="arithmetic" k2="-1" k3="1"/>
<feColorMatrix type="matrix" values="0 0 0 0 0 0 0 0 0 0 0 0 0 0 0 0 0 0 0.35 0"/>
<feBlend mode="normal" in2="shape" result="effect1_innerShadow_1368_327035"/>
</filter>
<filter id="filter13_i_1368_327035" x="17.8501" y="29.4365" width="48.6382" height="48.5996" filterUnits="userSpaceOnUse" color-interpolation-filters="sRGB">
<feFlood flood-opacity="0" result="BackgroundImageFix"/>
<feBlend mode="normal" in="SourceGraphic" in2="BackgroundImageFix" result="shape"/>
<feColorMatrix in="SourceAlpha" type="matrix" values="0 0 0 0 0 0 0 0 0 0 0 0 0 0 0 0 0 0 127 0" result="hardAlpha"/>
<feOffset dx="1" dy="-3"/>
<feGaussianBlur stdDeviation="4"/>
<feComposite in2="hardAlpha" operator="arithmetic" k2="-1" k3="1"/>
<feColorMatrix type="matrix" values="0 0 0 0 0 0 0 0 0 0 0 0 0 0 0 0 0 0 0.35 0"/>
<feBlend mode="normal" in2="shape" result="effect1_innerShadow_1368_327035"/>
</filter>
<filter id="filter14_i_1368_327035" x="73.144" y="73.2422" width="39.7051" height="44.7432" filterUnits="userSpaceOnUse" color-interpolation-filters="sRGB">
<feFlood flood-opacity="0" result="BackgroundImageFix"/>
<feBlend mode="normal" in="SourceGraphic" in2="BackgroundImageFix" result="shape"/>
<feColorMatrix in="SourceAlpha" type="matrix" values="0 0 0 0 0 0 0 0 0 0 0 0 0 0 0 0 0 0 127 0" result="hardAlpha"/>
<feOffset dx="1" dy="-3"/>
<feGaussianBlur stdDeviation="4"/>
<feComposite in2="hardAlpha" operator="arithmetic" k2="-1" k3="1"/>
<feColorMatrix type="matrix" values="0 0 0 0 0 0 0 0 0 0 0 0 0 0 0 0 0 0 0.35 0"/>
<feBlend mode="normal" in2="shape" result="effect1_innerShadow_1368_327035"/>
</filter>
<filter id="filter15_i_1368_327035" x="88.1069" y="15.4697" width="37.0986" height="32.7285" filterUnits="userSpaceOnUse" color-interpolation-filters="sRGB">
<feFlood flood-opacity="0" result="BackgroundImageFix"/>
<feBlend mode="normal" in="SourceGraphic" in2="BackgroundImageFix" result="shape"/>
<feColorMatrix in="SourceAlpha" type="matrix" values="0 0 0 0 0 0 0 0 0 0 0 0 0 0 0 0 0 0 127 0" result="hardAlpha"/>
<feOffset dx="1" dy="-3"/>
<feGaussianBlur stdDeviation="4"/>
<feComposite in2="hardAlpha" operator="arithmetic" k2="-1" k3="1"/>
<feColorMatrix type="matrix" values="0 0 0 0 0 0 0 0 0 0 0 0 0 0 0 0 0 0 0.35 0"/>
<feBlend mode="normal" in2="shape" result="effect1_innerShadow_1368_327035"/>
</filter>
<filter id="filter16_i_1368_327035" x="32.0913" y="42.791" width="38.1826" height="42.8574" filterUnits="userSpaceOnUse" color-interpolation-filters="sRGB">
<feFlood flood-opacity="0" result="BackgroundImageFix"/>
<feBlend mode="normal" in="SourceGraphic" in2="BackgroundImageFix" result="shape"/>
<feColorMatrix in="SourceAlpha" type="matrix" values="0 0 0 0 0 0 0 0 0 0 0 0 0 0 0 0 0 0 127 0" result="hardAlpha"/>
<feOffset dx="1" dy="-3"/>
<feGaussianBlur stdDeviation="4"/>
<feComposite in2="hardAlpha" operator="arithmetic" k2="-1" k3="1"/>
<feColorMatrix type="matrix" values="0 0 0 0 0 0 0 0 0 0 0 0 0 0 0 0 0 0 0.35 0"/>
<feBlend mode="normal" in2="shape" result="effect1_innerShadow_1368_327035"/>
</filter>
<filter id="filter17_i_1368_327035" x="84.145" y="51.625" width="36.6978" height="41.5449" filterUnits="userSpaceOnUse" color-interpolation-filters="sRGB">
<feFlood flood-opacity="0" result="BackgroundImageFix"/>
<feBlend mode="normal" in="SourceGraphic" in2="BackgroundImageFix" result="shape"/>
<feColorMatrix in="SourceAlpha" type="matrix" values="0 0 0 0 0 0 0 0 0 0 0 0 0 0 0 0 0 0 127 0" result="hardAlpha"/>
<feOffset dx="1" dy="-3"/>
<feGaussianBlur stdDeviation="4"/>
<feComposite in2="hardAlpha" operator="arithmetic" k2="-1" k3="1"/>
<feColorMatrix type="matrix" values="0 0 0 0 0 0 0 0 0 0 0 0 0 0 0 0 0 0 0.35 0"/>
<feBlend mode="normal" in2="shape" result="effect1_innerShadow_1368_327035"/>
</filter>
<filter id="filter18_i_1368_327035" x="58.144" y="60.2422" width="38.8521" height="43.7021" filterUnits="userSpaceOnUse" color-interpolation-filters="sRGB">
<feFlood flood-opacity="0" result="BackgroundImageFix"/>
<feBlend mode="normal" in="SourceGraphic" in2="BackgroundImageFix" result="shape"/>
<feColorMatrix in="SourceAlpha" type="matrix" values="0 0 0 0 0 0 0 0 0 0 0 0 0 0 0 0 0 0 127 0" result="hardAlpha"/>
<feOffset dx="1" dy="-3"/>
<feGaussianBlur stdDeviation="4"/>
<feComposite in2="hardAlpha" operator="arithmetic" k2="-1" k3="1"/>
<feColorMatrix type="matrix" values="0 0 0 0 0 0 0 0 0 0 0 0 0 0 0 0 0 0 0.35 0"/>
<feBlend mode="normal" in2="shape" result="effect1_innerShadow_1368_327035"/>
</filter>
<filter id="filter19_i_1368_327035" x="48.9561" y="48.2207" width="31.9956" height="40.2803" filterUnits="userSpaceOnUse" color-interpolation-filters="sRGB">
<feFlood flood-opacity="0" result="BackgroundImageFix"/>
<feBlend mode="normal" in="SourceGraphic" in2="BackgroundImageFix" result="shape"/>
<feColorMatrix in="SourceAlpha" type="matrix" values="0 0 0 0 0 0 0 0 0 0 0 0 0 0 0 0 0 0 127 0" result="hardAlpha"/>
<feOffset dx="1" dy="-3"/>
<feGaussianBlur stdDeviation="4"/>
<feComposite in2="hardAlpha" operator="arithmetic" k2="-1" k3="1"/>
<feColorMatrix type="matrix" values="0 0 0 0 0 0 0 0 0 0 0 0 0 0 0 0 0 0 0.35 0"/>
<feBlend mode="normal" in2="shape" result="effect1_innerShadow_1368_327035"/>
</filter>
<filter id="filter20_i_1368_327035" x="88.1348" y="31.5889" width="33.9761" height="31.6348" filterUnits="userSpaceOnUse" color-interpolation-filters="sRGB">
<feFlood flood-opacity="0" result="BackgroundImageFix"/>
<feBlend mode="normal" in="SourceGraphic" in2="BackgroundImageFix" result="shape"/>
<feColorMatrix in="SourceAlpha" type="matrix" values="0 0 0 0 0 0 0 0 0 0 0 0 0 0 0 0 0 0 127 0" result="hardAlpha"/>
<feOffset dx="1" dy="-3"/>
<feGaussianBlur stdDeviation="4"/>
<feComposite in2="hardAlpha" operator="arithmetic" k2="-1" k3="1"/>
<feColorMatrix type="matrix" values="0 0 0 0 0 0 0 0 0 0 0 0 0 0 0 0 0 0 0.35 0"/>
<feBlend mode="normal" in2="shape" result="effect1_innerShadow_1368_327035"/>
</filter>
<filter id="filter21_i_1368_327035" x="78.8867" y="9.98047" width="35.332" height="30.5957" filterUnits="userSpaceOnUse" color-interpolation-filters="sRGB">
<feFlood flood-opacity="0" result="BackgroundImageFix"/>
<feBlend mode="normal" in="SourceGraphic" in2="BackgroundImageFix" result="shape"/>
<feColorMatrix in="SourceAlpha" type="matrix" values="0 0 0 0 0 0 0 0 0 0 0 0 0 0 0 0 0 0 127 0" result="hardAlpha"/>
<feOffset dx="1" dy="-3"/>
<feGaussianBlur stdDeviation="4"/>
<feComposite in2="hardAlpha" operator="arithmetic" k2="-1" k3="1"/>
<feColorMatrix type="matrix" values="0 0 0 0 0 0 0 0 0 0 0 0 0 0 0 0 0 0 0.35 0"/>
<feBlend mode="normal" in2="shape" result="effect1_innerShadow_1368_327035"/>
</filter>
<filter id="filter22_i_1368_327035" x="77.6714" y="48.2803" width="32.0078" height="40.2656" filterUnits="userSpaceOnUse" color-interpolation-filters="sRGB">
<feFlood flood-opacity="0" result="BackgroundImageFix"/>
<feBlend mode="normal" in="SourceGraphic" in2="BackgroundImageFix" result="shape"/>
<feColorMatrix in="SourceAlpha" type="matrix" values="0 0 0 0 0 0 0 0 0 0 0 0 0 0 0 0 0 0 127 0" result="hardAlpha"/>
<feOffset dx="1" dy="-3"/>
<feGaussianBlur stdDeviation="4"/>
<feComposite in2="hardAlpha" operator="arithmetic" k2="-1" k3="1"/>
<feColorMatrix type="matrix" values="0 0 0 0 0 0 0 0 0 0 0 0 0 0 0 0 0 0 0.35 0"/>
<feBlend mode="normal" in2="shape" result="effect1_innerShadow_1368_327035"/>
</filter>
<filter id="filter23_i_1368_327035" x="64.8843" y="34.2422" width="26.4072" height="33.2432" filterUnits="userSpaceOnUse" color-interpolation-filters="sRGB">
<feFlood flood-opacity="0" result="BackgroundImageFix"/>
<feBlend mode="normal" in="SourceGraphic" in2="BackgroundImageFix" result="shape"/>
<feColorMatrix in="SourceAlpha" type="matrix" values="0 0 0 0 0 0 0 0 0 0 0 0 0 0 0 0 0 0 127 0" result="hardAlpha"/>
<feOffset dx="1" dy="-3"/>
<feGaussianBlur stdDeviation="4"/>
<feComposite in2="hardAlpha" operator="arithmetic" k2="-1" k3="1"/>
<feColorMatrix type="matrix" values="0 0 0 0 0 0 0 0 0 0 0 0 0 0 0 0 0 0 0.35 0"/>
<feBlend mode="normal" in2="shape" result="effect1_innerShadow_1368_327035"/>
</filter>
<filter id="filter24_i_1368_327035" x="24.5449" y="16.0186" width="40.5601" height="34.8926" filterUnits="userSpaceOnUse" color-interpolation-filters="sRGB">
<feFlood flood-opacity="0" result="BackgroundImageFix"/>
<feBlend mode="normal" in="SourceGraphic" in2="BackgroundImageFix" result="shape"/>
<feColorMatrix in="SourceAlpha" type="matrix" values="0 0 0 0 0 0 0 0 0 0 0 0 0 0 0 0 0 0 127 0" result="hardAlpha"/>
<feOffset dx="1" dy="-3"/>
<feGaussianBlur stdDeviation="4"/>
<feComposite in2="hardAlpha" operator="arithmetic" k2="-1" k3="1"/>
<feColorMatrix type="matrix" values="0 0 0 0 0 0 0 0 0 0 0 0 0 0 0 0 0 0 0.35 0"/>
<feBlend mode="normal" in2="shape" result="effect1_innerShadow_1368_327035"/>
</filter>
<filter id="filter25_i_1368_327035" x="35.54" y="31.9971" width="31.9492" height="33.1514" filterUnits="userSpaceOnUse" color-interpolation-filters="sRGB">
<feFlood flood-opacity="0" result="BackgroundImageFix"/>
<feBlend mode="normal" in="SourceGraphic" in2="BackgroundImageFix" result="shape"/>
<feColorMatrix in="SourceAlpha" type="matrix" values="0 0 0 0 0 0 0 0 0 0 0 0 0 0 0 0 0 0 127 0" result="hardAlpha"/>
<feOffset dx="1" dy="-3"/>
<feGaussianBlur stdDeviation="4"/>
<feComposite in2="hardAlpha" operator="arithmetic" k2="-1" k3="1"/>
<feColorMatrix type="matrix" values="0 0 0 0 0 0 0 0 0 0 0 0 0 0 0 0 0 0 0.35 0"/>
<feBlend mode="normal" in2="shape" result="effect1_innerShadow_1368_327035"/>
</filter>
<filter id="filter26_i_1368_327035" x="38.3506" y="11.8857" width="35.4546" height="30.2754" filterUnits="userSpaceOnUse" color-interpolation-filters="sRGB">
<feFlood flood-opacity="0" result="BackgroundImageFix"/>
<feBlend mode="normal" in="SourceGraphic" in2="BackgroundImageFix" result="shape"/>
<feColorMatrix in="SourceAlpha" type="matrix" values="0 0 0 0 0 0 0 0 0 0 0 0 0 0 0 0 0 0 127 0" result="hardAlpha"/>
<feOffset dx="1" dy="-3"/>
<feGaussianBlur stdDeviation="4"/>
<feComposite in2="hardAlpha" operator="arithmetic" k2="-1" k3="1"/>
<feColorMatrix type="matrix" values="0 0 0 0 0 0 0 0 0 0 0 0 0 0 0 0 0 0 0.35 0"/>
<feBlend mode="normal" in2="shape" result="effect1_innerShadow_1368_327035"/>
</filter>
<filter id="filter27_i_1368_327035" x="57.2285" y="4.34668" width="36.6387" height="17.6113" filterUnits="userSpaceOnUse" color-interpolation-filters="sRGB">
<feFlood flood-opacity="0" result="BackgroundImageFix"/>
<feBlend mode="normal" in="SourceGraphic" in2="BackgroundImageFix" result="shape"/>
<feColorMatrix in="SourceAlpha" type="matrix" values="0 0 0 0 0 0 0 0 0 0 0 0 0 0 0 0 0 0 127 0" result="hardAlpha"/>
<feOffset dx="1" dy="-3"/>
<feGaussianBlur stdDeviation="4"/>
<feComposite in2="hardAlpha" operator="arithmetic" k2="-1" k3="1"/>
<feColorMatrix type="matrix" values="0 0 0 0 0 0 0 0 0 0 0 0 0 0 0 0 0 0 0.35 0"/>
<feBlend mode="normal" in2="shape" result="effect1_innerShadow_1368_327035"/>
</filter>
<filter id="filter28_i_1368_327035" x="51.2573" y="25.4648" width="26.231" height="34.6191" filterUnits="userSpaceOnUse" color-interpolation-filters="sRGB">
<feFlood flood-opacity="0" result="BackgroundImageFix"/>
<feBlend mode="normal" in="SourceGraphic" in2="BackgroundImageFix" result="shape"/>
<feColorMatrix in="SourceAlpha" type="matrix" values="0 0 0 0 0 0 0 0 0 0 0 0 0 0 0 0 0 0 127 0" result="hardAlpha"/>
<feOffset dx="1" dy="-3"/>
<feGaussianBlur stdDeviation="4"/>
<feComposite in2="hardAlpha" operator="arithmetic" k2="-1" k3="1"/>
<feColorMatrix type="matrix" values="0 0 0 0 0 0 0 0 0 0 0 0 0 0 0 0 0 0 0.35 0"/>
<feBlend mode="normal" in2="shape" result="effect1_innerShadow_1368_327035"/>
</filter>
<filter id="filter29_i_1368_327035" x="74.6792" y="24.4873" width="27.1133" height="34.3691" filterUnits="userSpaceOnUse" color-interpolation-filters="sRGB">
<feFlood flood-opacity="0" result="BackgroundImageFix"/>
<feBlend mode="normal" in="SourceGraphic" in2="BackgroundImageFix" result="shape"/>
<feColorMatrix in="SourceAlpha" type="matrix" values="0 0 0 0 0 0 0 0 0 0 0 0 0 0 0 0 0 0 127 0" result="hardAlpha"/>
<feOffset dx="1" dy="-3"/>
<feGaussianBlur stdDeviation="4"/>
<feComposite in2="hardAlpha" operator="arithmetic" k2="-1" k3="1"/>
<feColorMatrix type="matrix" values="0 0 0 0 0 0 0 0 0 0 0 0 0 0 0 0 0 0 0.35 0"/>
<feBlend mode="normal" in2="shape" result="effect1_innerShadow_1368_327035"/>
</filter>
<filter id="filter30_i_1368_327035" x="70.6787" y="6.3125" width="29.3882" height="24.6924" filterUnits="userSpaceOnUse" color-interpolation-filters="sRGB">
<feFlood flood-opacity="0" result="BackgroundImageFix"/>
<feBlend mode="normal" in="SourceGraphic" in2="BackgroundImageFix" result="shape"/>
<feColorMatrix in="SourceAlpha" type="matrix" values="0 0 0 0 0 0 0 0 0 0 0 0 0 0 0 0 0 0 127 0" result="hardAlpha"/>
<feOffset dx="1" dy="-3"/>
<feGaussianBlur stdDeviation="4"/>
<feComposite in2="hardAlpha" operator="arithmetic" k2="-1" k3="1"/>
<feColorMatrix type="matrix" values="0 0 0 0 0 0 0 0 0 0 0 0 0 0 0 0 0 0 0.35 0"/>
<feBlend mode="normal" in2="shape" result="effect1_innerShadow_1368_327035"/>
</filter>
<filter id="filter31_i_1368_327035" x="49.7534" y="6.81348" width="29.3242" height="24.0439" filterUnits="userSpaceOnUse" color-interpolation-filters="sRGB">
<feFlood flood-opacity="0" result="BackgroundImageFix"/>
<feBlend mode="normal" in="SourceGraphic" in2="BackgroundImageFix" result="shape"/>
<feColorMatrix in="SourceAlpha" type="matrix" values="0 0 0 0 0 0 0 0 0 0 0 0 0 0 0 0 0 0 127 0" result="hardAlpha"/>
<feOffset dx="1" dy="-3"/>
<feGaussianBlur stdDeviation="4"/>
<feComposite in2="hardAlpha" operator="arithmetic" k2="-1" k3="1"/>
<feColorMatrix type="matrix" values="0 0 0 0 0 0 0 0 0 0 0 0 0 0 0 0 0 0 0.35 0"/>
<feBlend mode="normal" in2="shape" result="effect1_innerShadow_1368_327035"/>
</filter>
<filter id="filter32_i_1368_327035" x="62.3643" y="15.5576" width="27.2598" height="30.3867" filterUnits="userSpaceOnUse" color-interpolation-filters="sRGB">
<feFlood flood-opacity="0" result="BackgroundImageFix"/>
<feBlend mode="normal" in="SourceGraphic" in2="BackgroundImageFix" result="shape"/>
<feColorMatrix in="SourceAlpha" type="matrix" values="0 0 0 0 0 0 0 0 0 0 0 0 0 0 0 0 0 0 127 0" result="hardAlpha"/>
<feOffset dx="1" dy="-3"/>
<feGaussianBlur stdDeviation="4"/>
<feComposite in2="hardAlpha" operator="arithmetic" k2="-1" k3="1"/>
<feColorMatrix type="matrix" values="0 0 0 0 0 0 0 0 0 0 0 0 0 0 0 0 0 0 0.35 0"/>
<feBlend mode="normal" in2="shape" result="effect1_innerShadow_1368_327035"/>
</filter>
</defs>
</svg>
