<svg width="1626" height="1416" viewBox="0 0 1626 1416" fill="none" xmlns="http://www.w3.org/2000/svg">
<g filter="url(#filter0_i_1328_323379)">
<path d="M591.878 1062L376 824.112L455.427 182.664L600.024 144.432L591.878 1062Z" fill="#44403C"/>
</g>
<path d="M877 845.352L781.281 692.424L710 106.2L583.732 208.152L591.878 1062L693.708 934.56L877 845.352Z" fill="#44403C"/>
<g filter="url(#filter1_i_1328_323379)">
<path d="M543 0L455.427 182.664H520.597L583.732 208.152L710 106.2L695.744 50.976L543 0Z" fill="#44403C"/>
</g>
<path d="M1112 1257L762 1340L482 1416L132 1257L732 794L1506 742L1482 1000L1318 1046V1152L1112 1257Z" fill="black" fill-opacity="0.12"/>
<path d="M0 1247L292 1218L528 806L174 908L56 1043L0 1247Z" fill="black" fill-opacity="0.12"/>
<g filter="url(#filter2_i_1328_323379)">
<path d="M1029.48 150.809L912.516 82.6348L1016.95 69L1158.98 113.313L1029.48 150.809Z" fill="#44403C"/>
</g>
<path d="M1284.31 218.983L1489 764.374L1158.98 853L1100.5 328.061L1029.48 150.809L1158.98 113.313L1284.31 218.983Z" fill="#44403C"/>
<g filter="url(#filter3_i_1328_323379)">
<path d="M920.871 832.548L712 754.148L803.903 317.835L866.565 280.339L912.516 82.6348L1029.48 150.809L1100.5 328.061L1158.98 853L1054.55 805.278L920.871 832.548Z" fill="#44403C"/>
</g>
<path d="M1054.55 805.279L1016.86 399.291L920.871 832.548L1054.55 805.279Z" fill="#44403C"/>
<g filter="url(#filter4_i_1328_323379)">
<path d="M1016.95 399.643L803.903 317.835L866.565 280.339L1016.95 399.643Z" fill="#44403C"/>
</g>
<g filter="url(#filter5_i_1328_323379)">
<path d="M1115.01 1096.12L860.216 927.142L997.524 553.988L1180 549.187L1115.01 1096.12Z" fill="#44403C"/>
</g>
<path d="M1483.26 1002.3L1373.12 899.038L1319.33 540.069L1155.89 585.208L1115.01 1096.12L1249.52 1032.72L1483.26 1002.3Z" fill="#44403C"/>
<g filter="url(#filter6_i_1328_323379)">
<path d="M1117.57 455.824L997.524 553.987L1078.74 562.114L1155.89 585.207L1319.33 540.069L1304.86 505.313L1117.57 455.824Z" fill="#44403C"/>
</g>
<g filter="url(#filter7_ii_1328_323379)">
<path d="M791.226 1206.72L487.259 1022.29L645.857 622.847L862.131 619.735L791.226 1206.72Z" fill="#44403C"/>
</g>
<path d="M1226.74 1110.04L1095.01 997.839L1027.21 611.501L833.95 658.171L791.225 1206.72L949.978 1140.1L1226.74 1110.04Z" fill="#44403C"/>
<g filter="url(#filter8_i_1328_323379)">
<path d="M787.071 518.711L645.857 622.847L742.227 632.491L833.951 658.171L1027.21 611.501L1009.67 573.991L787.071 518.711Z" fill="#44403C"/>
</g>
<path d="M678 275.655C678 266.689 673.925 258 664 258C654.075 258 649 270.21 649 279.176C649 288.143 658.066 290 667.991 290C677.916 290 678 284.622 678 275.655Z" fill="black" fill-opacity="0.12"/>
<path d="M689.251 224.344C691.497 222.097 687.19 215.114 685.93 213.855C684.67 212.595 680.101 214.032 677.854 216.279C675.608 218.525 673.686 224.71 674.946 225.969C676.205 227.229 687.004 226.591 689.251 224.344Z" fill="black" fill-opacity="0.12"/>
<g filter="url(#filter9_i_1328_323379)">
<path d="M323.021 475.843L231.645 400.974L313.231 386L424.188 434.665L323.021 475.843Z" fill="#44403C"/>
</g>
<path d="M522.091 550.713L682 1149.67L424.188 1247L378.5 670.504L323.021 475.843L424.188 434.665L522.091 550.713Z" fill="#44403C"/>
<g filter="url(#filter10_i_1328_323379)">
<path d="M238.172 1224.54L75 1138.44L146.796 659.274L195.747 618.095L231.645 400.974L323.021 475.843L378.5 670.504L424.188 1247L342.602 1194.59L238.172 1224.54Z" fill="#44403C"/>
</g>
<path d="M342.602 1194.59L313.158 748.729L238.172 1224.54L342.602 1194.59Z" fill="#44403C"/>
<g filter="url(#filter11_i_1328_323379)">
<path d="M313.231 749.117L146.796 659.274L195.748 618.096L313.231 749.117Z" fill="#44403C"/>
</g>
<g filter="url(#filter12_i_1328_323379)">
<path d="M609.455 1284L419 1197.31L489.073 963.564L616.642 949.632L609.455 1284Z" fill="#44403C"/>
</g>
<path d="M861 1205.05L776.553 1149.32L713.666 935.7L602.268 972.852L609.455 1284L699.292 1237.56L861 1205.05Z" fill="#44403C"/>
<g filter="url(#filter13_i_1328_323379)">
<path d="M566.333 897L489.073 963.564H546.569L602.268 972.852L713.667 935.7L701.089 915.576L566.333 897Z" fill="#44403C"/>
</g>
<path d="M650.647 1328.83L356.929 1352.33L324.754 1265.2L723 1288.69L650.647 1328.83Z" fill="black" fill-opacity="0.12"/>
<g filter="url(#filter14_i_1328_323379)">
<path d="M549.786 1097.79L469.429 1142.82L564.072 1135.97L626.572 1101.71L612.286 1088L549.786 1097.79Z" fill="#44403C"/>
</g>
<g filter="url(#filter15_i_1328_323379)">
<path d="M512.286 1321L323 1267.16L469.429 1142.82L564.071 1135.97L512.286 1321Z" fill="#44403C"/>
</g>
<path d="M665.857 1181.98L626.571 1101.71L564.071 1135.97L512.286 1321L651.489 1316.37L723 1288.69L680.143 1236.81L665.857 1181.98Z" fill="#44403C"/>
<path d="M740.21 1235.43L744 1227.33L816 1233.52L813.158 1238.76L770.526 1253.52L740.21 1235.43Z" fill="black" fill-opacity="0.2"/>
<path d="M777.631 1204L753.947 1214.95L777.158 1229.24L807.474 1218.76L777.631 1204Z" fill="#D6D3D1"/>
<g filter="url(#filter16_d_1328_323379)">
<path d="M753.947 1214.95L744 1227.33L774.316 1244L777.158 1229.24L753.947 1214.95Z" fill="#78716C"/>
</g>
<g filter="url(#filter17_d_1328_323379)">
<path d="M816 1233.52L807.474 1218.76L777.158 1229.24L774.316 1244L816 1233.52Z" fill="#44403C"/>
</g>
<path d="M1262.62 1161.39L1131.18 1180.55L1116.79 1109.5L1295 1128.66L1262.62 1161.39Z" fill="black" fill-opacity="0.12"/>
<g filter="url(#filter18_i_1328_323379)">
<path d="M1217.49 972.983L1181.53 1009.71L1223.88 1004.12L1251.85 976.176L1245.46 965L1217.49 972.983Z" fill="#44403C"/>
</g>
<g filter="url(#filter19_i_1328_323379)">
<path d="M1200.71 1155L1116 1111.09L1181.53 1009.71L1223.88 1004.12L1200.71 1155Z" fill="#44403C"/>
</g>
<g filter="url(#filter20_d_1328_323379)">
<path d="M1269.43 1041.64L1251.85 976.177L1223.88 1004.12L1200.71 1155L1263 1151.23L1295 1128.66L1275.82 1086.34L1269.43 1041.64Z" fill="#44403C"/>
</g>
<g filter="url(#filter21_i_1328_323379)">
<path d="M1056.24 1272L1028.61 1284.6L1055.68 1301.02L1091.05 1288.98L1056.24 1272Z" fill="#44403C"/>
</g>
<g filter="url(#filter22_i_1328_323379)">
<path d="M1028.61 1284.6L1017 1298.83L1052.37 1318L1055.68 1301.02L1028.61 1284.6Z" fill="#44403C"/>
</g>
<g filter="url(#filter23_d_1328_323379)">
<path d="M1101 1305.95L1091.05 1288.98L1055.68 1301.02L1052.37 1318L1101 1305.95Z" fill="#44403C"/>
</g>
<g filter="url(#filter24_i_1328_323379)">
<path d="M824.484 836.713L763.516 794.452L817.952 786L891.984 813.47L824.484 836.713Z" fill="#44403C"/>
</g>
<g filter="url(#filter25_d_1328_323379)">
<path d="M957.306 878.974L1064 1217.06L891.984 1272L861.5 946.591L824.484 836.713L891.984 813.47L957.306 878.974Z" fill="#44403C"/>
</g>
<g filter="url(#filter26_i_1328_323379)">
<path d="M767.871 1259.32L659 1210.72L706.903 940.252L739.565 917.009L763.516 794.452L824.484 836.713L861.5 946.591L891.984 1272L837.548 1242.42L767.871 1259.32Z" fill="#44403C"/>
</g>
<path d="M837.549 1242.42L817.903 990.746L767.871 1259.32L837.549 1242.42Z" fill="#44403C"/>
<g filter="url(#filter27_i_1328_323379)">
<path d="M817.952 990.965L706.903 940.252L739.565 917.009L817.952 990.965Z" fill="#44403C"/>
</g>
<path d="M167.217 1071.9C161.687 1059.47 167.915 1036.01 180.424 1030.44C192.932 1024.87 214.303 1025.27 219.833 1037.7C225.363 1050.13 219.706 1064.71 207.197 1070.28C194.689 1075.84 172.747 1084.32 167.217 1071.9Z" fill="black" fill-opacity="0.12"/>
<path d="M507 1267.19C507 1277.38 498.922 1279 488.956 1279C478.991 1279 478.43 1277.38 478.43 1267.19C478.43 1257 468.463 1248 478.429 1248C488.395 1248 507 1257 507 1267.19Z" fill="black" fill-opacity="0.12"/>
<path d="M497.948 1234.8C494.597 1238.7 485.775 1240.54 482.033 1237.32C478.292 1234.1 475.232 1226.95 478.583 1223.06C481.935 1219.16 487.686 1218.61 491.427 1221.83C495.169 1225.04 501.3 1230.9 497.948 1234.8Z" fill="black" fill-opacity="0.12"/>
<path d="M986.991 837.765C986.991 834.585 983.91 833 980.011 833C976.112 833 976 834.982 976 838.162C976 841.341 979.562 842 983.461 842C987.36 842 986.991 840.944 986.991 837.765Z" fill="black" fill-opacity="0.12"/>
<path d="M937.382 1128.63C922.771 1118.19 929.22 1106.49 936.841 1095.83C944.463 1085.16 948.145 1071.48 962.757 1081.92C977.368 1092.36 988.326 1113.25 980.704 1123.92C973.083 1134.59 951.994 1139.07 937.382 1128.63Z" fill="black" fill-opacity="0.12"/>
<path d="M1227 394.385C1227 408.149 1216.93 420 1201.16 420C1185.39 420 1176 402.611 1176 388.846C1176 375.082 1194.23 357 1210 357C1225.77 357 1227 380.62 1227 394.385Z" fill="white" fill-opacity="0.2"/>
<path d="M1240 267.904C1240 280.128 1248.1 291.5 1240 291.5C1231.9 291.5 1218 294.791 1218 282.567C1218 270.344 1222.23 261.28 1230.33 261.28C1238.43 261.28 1240 255.681 1240 267.904Z" fill="white" fill-opacity="0.2"/>
<path d="M1214.26 336.201C1208.32 336.736 1202.77 332.368 1202.09 324.801C1201.41 317.235 1208.5 312.056 1214.44 311.52C1220.38 310.985 1220.78 317.236 1221.46 324.803C1222.14 332.369 1220.2 335.666 1214.26 336.201Z" fill="white" fill-opacity="0.2"/>
<path d="M1245.18 715.997C1226.49 717.681 1209.73 711.693 1208.68 700.039C1207.63 688.385 1230.61 679.322 1249.31 677.638C1268 675.954 1268.35 685.605 1269.4 697.259C1270.45 708.913 1263.87 714.312 1245.18 715.997Z" fill="black" fill-opacity="0.12"/>
<path d="M1223.96 637.56C1216.56 638.227 1211.34 636.718 1210.93 632.105C1210.51 627.492 1214.94 621.359 1222.33 620.693C1229.73 620.026 1230.23 622.304 1230.64 626.916C1231.06 631.529 1231.35 636.894 1223.96 637.56Z" fill="black" fill-opacity="0.12"/>
<path d="M1044 1241L1052 1224L1204 1237L1198 1248L1108 1279L1044 1241Z" fill="black" fill-opacity="0.2"/>
<g filter="url(#filter28_i_1328_323379)">
<path d="M1123 1175L1073 1198L1122 1228L1186 1206L1123 1175Z" fill="#44403C"/>
</g>
<g filter="url(#filter29_i_1328_323379)">
<path d="M1073 1198L1052 1224L1116 1259L1122 1228L1073 1198Z" fill="#44403C"/>
</g>
<g filter="url(#filter30_d_1328_323379)">
<path d="M1204 1237L1186 1206L1122 1228L1116 1259L1204 1237Z" fill="#44403C"/>
</g>
<defs>
<filter id="filter0_i_1328_323379" x="376" y="144.432" width="224.024" height="917.568" filterUnits="userSpaceOnUse" color-interpolation-filters="sRGB">
<feFlood flood-opacity="0" result="BackgroundImageFix"/>
<feBlend mode="normal" in="SourceGraphic" in2="BackgroundImageFix" result="shape"/>
<feColorMatrix in="SourceAlpha" type="matrix" values="0 0 0 0 0 0 0 0 0 0 0 0 0 0 0 0 0 0 127 0" result="hardAlpha"/>
<feOffset dy="-1000"/>
<feComposite in2="hardAlpha" operator="arithmetic" k2="-1" k3="1"/>
<feColorMatrix type="matrix" values="0 0 0 0 0 0 0 0 0 0 0 0 0 0 0 0 0 0 0.15 0"/>
<feBlend mode="normal" in2="shape" result="effect1_innerShadow_1328_323379"/>
</filter>
<filter id="filter1_i_1328_323379" x="455.427" y="-4" width="254.573" height="212.152" filterUnits="userSpaceOnUse" color-interpolation-filters="sRGB">
<feFlood flood-opacity="0" result="BackgroundImageFix"/>
<feBlend mode="normal" in="SourceGraphic" in2="BackgroundImageFix" result="shape"/>
<feColorMatrix in="SourceAlpha" type="matrix" values="0 0 0 0 0 0 0 0 0 0 0 0 0 0 0 0 0 0 127 0" result="hardAlpha"/>
<feOffset dy="-196"/>
<feGaussianBlur stdDeviation="2"/>
<feComposite in2="hardAlpha" operator="arithmetic" k2="-1" k3="1"/>
<feColorMatrix type="matrix" values="0 0 0 0 1 0 0 0 0 1 0 0 0 0 1 0 0 0 0.25 0"/>
<feBlend mode="normal" in2="shape" result="effect1_innerShadow_1328_323379"/>
</filter>
<filter id="filter2_i_1328_323379" x="912.516" y="69" width="246.468" height="81.8086" filterUnits="userSpaceOnUse" color-interpolation-filters="sRGB">
<feFlood flood-opacity="0" result="BackgroundImageFix"/>
<feBlend mode="normal" in="SourceGraphic" in2="BackgroundImageFix" result="shape"/>
<feColorMatrix in="SourceAlpha" type="matrix" values="0 0 0 0 0 0 0 0 0 0 0 0 0 0 0 0 0 0 127 0" result="hardAlpha"/>
<feOffset dy="-196"/>
<feGaussianBlur stdDeviation="2"/>
<feComposite in2="hardAlpha" operator="arithmetic" k2="-1" k3="1"/>
<feColorMatrix type="matrix" values="0 0 0 0 1 0 0 0 0 1 0 0 0 0 1 0 0 0 0.25 0"/>
<feBlend mode="normal" in2="shape" result="effect1_innerShadow_1328_323379"/>
</filter>
<filter id="filter3_i_1328_323379" x="712" y="82.6348" width="446.984" height="770.365" filterUnits="userSpaceOnUse" color-interpolation-filters="sRGB">
<feFlood flood-opacity="0" result="BackgroundImageFix"/>
<feBlend mode="normal" in="SourceGraphic" in2="BackgroundImageFix" result="shape"/>
<feColorMatrix in="SourceAlpha" type="matrix" values="0 0 0 0 0 0 0 0 0 0 0 0 0 0 0 0 0 0 127 0" result="hardAlpha"/>
<feOffset dy="-1000"/>
<feComposite in2="hardAlpha" operator="arithmetic" k2="-1" k3="1"/>
<feColorMatrix type="matrix" values="0 0 0 0 0 0 0 0 0 0 0 0 0 0 0 0 0 0 0.15 0"/>
<feBlend mode="normal" in2="shape" result="effect1_innerShadow_1328_323379"/>
</filter>
<filter id="filter4_i_1328_323379" x="803.903" y="280.339" width="213.048" height="119.305" filterUnits="userSpaceOnUse" color-interpolation-filters="sRGB">
<feFlood flood-opacity="0" result="BackgroundImageFix"/>
<feBlend mode="normal" in="SourceGraphic" in2="BackgroundImageFix" result="shape"/>
<feColorMatrix in="SourceAlpha" type="matrix" values="0 0 0 0 0 0 0 0 0 0 0 0 0 0 0 0 0 0 127 0" result="hardAlpha"/>
<feOffset dy="-196"/>
<feGaussianBlur stdDeviation="2"/>
<feComposite in2="hardAlpha" operator="arithmetic" k2="-1" k3="1"/>
<feColorMatrix type="matrix" values="0 0 0 0 1 0 0 0 0 1 0 0 0 0 1 0 0 0 0.25 0"/>
<feBlend mode="normal" in2="shape" result="effect1_innerShadow_1328_323379"/>
</filter>
<filter id="filter5_i_1328_323379" x="860.216" y="549.188" width="319.782" height="546.935" filterUnits="userSpaceOnUse" color-interpolation-filters="sRGB">
<feFlood flood-opacity="0" result="BackgroundImageFix"/>
<feBlend mode="normal" in="SourceGraphic" in2="BackgroundImageFix" result="shape"/>
<feColorMatrix in="SourceAlpha" type="matrix" values="0 0 0 0 0 0 0 0 0 0 0 0 0 0 0 0 0 0 127 0" result="hardAlpha"/>
<feOffset dy="-1000"/>
<feComposite in2="hardAlpha" operator="arithmetic" k2="-1" k3="1"/>
<feColorMatrix type="matrix" values="0 0 0 0 0 0 0 0 0 0 0 0 0 0 0 0 0 0 0.15 0"/>
<feBlend mode="normal" in2="shape" result="effect1_innerShadow_1328_323379"/>
</filter>
<filter id="filter6_i_1328_323379" x="997.524" y="455.824" width="321.803" height="129.383" filterUnits="userSpaceOnUse" color-interpolation-filters="sRGB">
<feFlood flood-opacity="0" result="BackgroundImageFix"/>
<feBlend mode="normal" in="SourceGraphic" in2="BackgroundImageFix" result="shape"/>
<feColorMatrix in="SourceAlpha" type="matrix" values="0 0 0 0 0 0 0 0 0 0 0 0 0 0 0 0 0 0 127 0" result="hardAlpha"/>
<feOffset dy="-196"/>
<feGaussianBlur stdDeviation="2"/>
<feComposite in2="hardAlpha" operator="arithmetic" k2="-1" k3="1"/>
<feColorMatrix type="matrix" values="0 0 0 0 1 0 0 0 0 1 0 0 0 0 1 0 0 0 0.25 0"/>
<feBlend mode="normal" in2="shape" result="effect1_innerShadow_1328_323379"/>
</filter>
<filter id="filter7_ii_1328_323379" x="487.259" y="511.735" width="374.871" height="694.988" filterUnits="userSpaceOnUse" color-interpolation-filters="sRGB">
<feFlood flood-opacity="0" result="BackgroundImageFix"/>
<feBlend mode="normal" in="SourceGraphic" in2="BackgroundImageFix" result="shape"/>
<feColorMatrix in="SourceAlpha" type="matrix" values="0 0 0 0 0 0 0 0 0 0 0 0 0 0 0 0 0 0 127 0" result="hardAlpha"/>
<feOffset dy="-1000"/>
<feComposite in2="hardAlpha" operator="arithmetic" k2="-1" k3="1"/>
<feColorMatrix type="matrix" values="0 0 0 0 0 0 0 0 0 0 0 0 0 0 0 0 0 0 0.15 0"/>
<feBlend mode="normal" in2="shape" result="effect1_innerShadow_1328_323379"/>
<feColorMatrix in="SourceAlpha" type="matrix" values="0 0 0 0 0 0 0 0 0 0 0 0 0 0 0 0 0 0 127 0" result="hardAlpha"/>
<feOffset dy="-168"/>
<feGaussianBlur stdDeviation="54"/>
<feComposite in2="hardAlpha" operator="arithmetic" k2="-1" k3="1"/>
<feColorMatrix type="matrix" values="0 0 0 0 0 0 0 0 0 0 0 0 0 0 0 0 0 0 0.25 0"/>
<feBlend mode="normal" in2="effect1_innerShadow_1328_323379" result="effect2_innerShadow_1328_323379"/>
</filter>
<filter id="filter8_i_1328_323379" x="645.857" y="518.711" width="381.351" height="139.46" filterUnits="userSpaceOnUse" color-interpolation-filters="sRGB">
<feFlood flood-opacity="0" result="BackgroundImageFix"/>
<feBlend mode="normal" in="SourceGraphic" in2="BackgroundImageFix" result="shape"/>
<feColorMatrix in="SourceAlpha" type="matrix" values="0 0 0 0 0 0 0 0 0 0 0 0 0 0 0 0 0 0 127 0" result="hardAlpha"/>
<feOffset dy="-196"/>
<feGaussianBlur stdDeviation="2"/>
<feComposite in2="hardAlpha" operator="arithmetic" k2="-1" k3="1"/>
<feColorMatrix type="matrix" values="0 0 0 0 1 0 0 0 0 1 0 0 0 0 1 0 0 0 0.25 0"/>
<feBlend mode="normal" in2="shape" result="effect1_innerShadow_1328_323379"/>
</filter>
<filter id="filter9_i_1328_323379" x="231.645" y="386" width="192.543" height="89.8438" filterUnits="userSpaceOnUse" color-interpolation-filters="sRGB">
<feFlood flood-opacity="0" result="BackgroundImageFix"/>
<feBlend mode="normal" in="SourceGraphic" in2="BackgroundImageFix" result="shape"/>
<feColorMatrix in="SourceAlpha" type="matrix" values="0 0 0 0 0 0 0 0 0 0 0 0 0 0 0 0 0 0 127 0" result="hardAlpha"/>
<feOffset dy="-196"/>
<feGaussianBlur stdDeviation="2"/>
<feComposite in2="hardAlpha" operator="arithmetic" k2="-1" k3="1"/>
<feColorMatrix type="matrix" values="0 0 0 0 1 0 0 0 0 1 0 0 0 0 1 0 0 0 0.25 0"/>
<feBlend mode="normal" in2="shape" result="effect1_innerShadow_1328_323379"/>
</filter>
<filter id="filter10_i_1328_323379" x="75" y="400.974" width="349.188" height="846.026" filterUnits="userSpaceOnUse" color-interpolation-filters="sRGB">
<feFlood flood-opacity="0" result="BackgroundImageFix"/>
<feBlend mode="normal" in="SourceGraphic" in2="BackgroundImageFix" result="shape"/>
<feColorMatrix in="SourceAlpha" type="matrix" values="0 0 0 0 0 0 0 0 0 0 0 0 0 0 0 0 0 0 127 0" result="hardAlpha"/>
<feOffset dy="-1000"/>
<feComposite in2="hardAlpha" operator="arithmetic" k2="-1" k3="1"/>
<feColorMatrix type="matrix" values="0 0 0 0 0 0 0 0 0 0 0 0 0 0 0 0 0 0 0.15 0"/>
<feBlend mode="normal" in2="shape" result="effect1_innerShadow_1328_323379"/>
</filter>
<filter id="filter11_i_1328_323379" x="146.796" y="618.096" width="166.436" height="131.021" filterUnits="userSpaceOnUse" color-interpolation-filters="sRGB">
<feFlood flood-opacity="0" result="BackgroundImageFix"/>
<feBlend mode="normal" in="SourceGraphic" in2="BackgroundImageFix" result="shape"/>
<feColorMatrix in="SourceAlpha" type="matrix" values="0 0 0 0 0 0 0 0 0 0 0 0 0 0 0 0 0 0 127 0" result="hardAlpha"/>
<feOffset dy="-196"/>
<feGaussianBlur stdDeviation="2"/>
<feComposite in2="hardAlpha" operator="arithmetic" k2="-1" k3="1"/>
<feColorMatrix type="matrix" values="0 0 0 0 1 0 0 0 0 1 0 0 0 0 1 0 0 0 0.25 0"/>
<feBlend mode="normal" in2="shape" result="effect1_innerShadow_1328_323379"/>
</filter>
<filter id="filter12_i_1328_323379" x="419" y="949.632" width="197.642" height="334.368" filterUnits="userSpaceOnUse" color-interpolation-filters="sRGB">
<feFlood flood-opacity="0" result="BackgroundImageFix"/>
<feBlend mode="normal" in="SourceGraphic" in2="BackgroundImageFix" result="shape"/>
<feColorMatrix in="SourceAlpha" type="matrix" values="0 0 0 0 0 0 0 0 0 0 0 0 0 0 0 0 0 0 127 0" result="hardAlpha"/>
<feOffset dy="-1000"/>
<feComposite in2="hardAlpha" operator="arithmetic" k2="-1" k3="1"/>
<feColorMatrix type="matrix" values="0 0 0 0 0 0 0 0 0 0 0 0 0 0 0 0 0 0 0.15 0"/>
<feBlend mode="normal" in2="shape" result="effect1_innerShadow_1328_323379"/>
</filter>
<filter id="filter13_i_1328_323379" x="489.073" y="897" width="224.593" height="75.8516" filterUnits="userSpaceOnUse" color-interpolation-filters="sRGB">
<feFlood flood-opacity="0" result="BackgroundImageFix"/>
<feBlend mode="normal" in="SourceGraphic" in2="BackgroundImageFix" result="shape"/>
<feColorMatrix in="SourceAlpha" type="matrix" values="0 0 0 0 0 0 0 0 0 0 0 0 0 0 0 0 0 0 127 0" result="hardAlpha"/>
<feOffset dy="-196"/>
<feGaussianBlur stdDeviation="2"/>
<feComposite in2="hardAlpha" operator="arithmetic" k2="-1" k3="1"/>
<feColorMatrix type="matrix" values="0 0 0 0 1 0 0 0 0 1 0 0 0 0 1 0 0 0 0.25 0"/>
<feBlend mode="normal" in2="shape" result="effect1_innerShadow_1328_323379"/>
</filter>
<filter id="filter14_i_1328_323379" x="469.429" y="1088" width="157.143" height="54.8232" filterUnits="userSpaceOnUse" color-interpolation-filters="sRGB">
<feFlood flood-opacity="0" result="BackgroundImageFix"/>
<feBlend mode="normal" in="SourceGraphic" in2="BackgroundImageFix" result="shape"/>
<feColorMatrix in="SourceAlpha" type="matrix" values="0 0 0 0 0 0 0 0 0 0 0 0 0 0 0 0 0 0 127 0" result="hardAlpha"/>
<feOffset dy="-196"/>
<feGaussianBlur stdDeviation="2"/>
<feComposite in2="hardAlpha" operator="arithmetic" k2="-1" k3="1"/>
<feColorMatrix type="matrix" values="0 0 0 0 1 0 0 0 0 1 0 0 0 0 1 0 0 0 0.25 0"/>
<feBlend mode="normal" in2="shape" result="effect1_innerShadow_1328_323379"/>
</filter>
<filter id="filter15_i_1328_323379" x="323" y="1135.97" width="241.071" height="185.029" filterUnits="userSpaceOnUse" color-interpolation-filters="sRGB">
<feFlood flood-opacity="0" result="BackgroundImageFix"/>
<feBlend mode="normal" in="SourceGraphic" in2="BackgroundImageFix" result="shape"/>
<feColorMatrix in="SourceAlpha" type="matrix" values="0 0 0 0 0 0 0 0 0 0 0 0 0 0 0 0 0 0 127 0" result="hardAlpha"/>
<feOffset dy="-1000"/>
<feComposite in2="hardAlpha" operator="arithmetic" k2="-1" k3="1"/>
<feColorMatrix type="matrix" values="0 0 0 0 0 0 0 0 0 0 0 0 0 0 0 0 0 0 0.15 0"/>
<feBlend mode="normal" in2="shape" result="effect1_innerShadow_1328_323379"/>
</filter>
<filter id="filter16_d_1328_323379" x="744" y="1214.95" width="33.1577" height="30.0479" filterUnits="userSpaceOnUse" color-interpolation-filters="sRGB">
<feFlood flood-opacity="0" result="BackgroundImageFix"/>
<feColorMatrix in="SourceAlpha" type="matrix" values="0 0 0 0 0 0 0 0 0 0 0 0 0 0 0 0 0 0 127 0" result="hardAlpha"/>
<feOffset dy="1"/>
<feComposite in2="hardAlpha" operator="out"/>
<feColorMatrix type="matrix" values="0 0 0 0 0 0 0 0 0 0 0 0 0 0 0 0 0 0 0.25 0"/>
<feBlend mode="normal" in2="BackgroundImageFix" result="effect1_dropShadow_1328_323379"/>
<feBlend mode="normal" in="SourceGraphic" in2="effect1_dropShadow_1328_323379" result="shape"/>
</filter>
<filter id="filter17_d_1328_323379" x="774.316" y="1218.76" width="41.6841" height="26.2383" filterUnits="userSpaceOnUse" color-interpolation-filters="sRGB">
<feFlood flood-opacity="0" result="BackgroundImageFix"/>
<feColorMatrix in="SourceAlpha" type="matrix" values="0 0 0 0 0 0 0 0 0 0 0 0 0 0 0 0 0 0 127 0" result="hardAlpha"/>
<feOffset dy="1"/>
<feComposite in2="hardAlpha" operator="out"/>
<feColorMatrix type="matrix" values="0 0 0 0 0 0 0 0 0 0 0 0 0 0 0 0 0 0 0.25 0"/>
<feBlend mode="normal" in2="BackgroundImageFix" result="effect1_dropShadow_1328_323379"/>
<feBlend mode="normal" in="SourceGraphic" in2="effect1_dropShadow_1328_323379" result="shape"/>
</filter>
<filter id="filter18_i_1328_323379" x="1181.53" y="965" width="70.3213" height="44.7061" filterUnits="userSpaceOnUse" color-interpolation-filters="sRGB">
<feFlood flood-opacity="0" result="BackgroundImageFix"/>
<feBlend mode="normal" in="SourceGraphic" in2="BackgroundImageFix" result="shape"/>
<feColorMatrix in="SourceAlpha" type="matrix" values="0 0 0 0 0 0 0 0 0 0 0 0 0 0 0 0 0 0 127 0" result="hardAlpha"/>
<feOffset dy="-196"/>
<feGaussianBlur stdDeviation="2"/>
<feComposite in2="hardAlpha" operator="arithmetic" k2="-1" k3="1"/>
<feColorMatrix type="matrix" values="0 0 0 0 1 0 0 0 0 1 0 0 0 0 1 0 0 0 0.25 0"/>
<feBlend mode="normal" in2="shape" result="effect1_innerShadow_1328_323379"/>
</filter>
<filter id="filter19_i_1328_323379" x="1116" y="1004.12" width="107.879" height="150.883" filterUnits="userSpaceOnUse" color-interpolation-filters="sRGB">
<feFlood flood-opacity="0" result="BackgroundImageFix"/>
<feBlend mode="normal" in="SourceGraphic" in2="BackgroundImageFix" result="shape"/>
<feColorMatrix in="SourceAlpha" type="matrix" values="0 0 0 0 0 0 0 0 0 0 0 0 0 0 0 0 0 0 127 0" result="hardAlpha"/>
<feOffset dy="-1000"/>
<feComposite in2="hardAlpha" operator="arithmetic" k2="-1" k3="1"/>
<feColorMatrix type="matrix" values="0 0 0 0 0 0 0 0 0 0 0 0 0 0 0 0 0 0 0.15 0"/>
<feBlend mode="normal" in2="shape" result="effect1_innerShadow_1328_323379"/>
</filter>
<filter id="filter20_d_1328_323379" x="1200.71" y="976.177" width="94.2944" height="179.823" filterUnits="userSpaceOnUse" color-interpolation-filters="sRGB">
<feFlood flood-opacity="0" result="BackgroundImageFix"/>
<feColorMatrix in="SourceAlpha" type="matrix" values="0 0 0 0 0 0 0 0 0 0 0 0 0 0 0 0 0 0 127 0" result="hardAlpha"/>
<feOffset dy="1"/>
<feComposite in2="hardAlpha" operator="out"/>
<feColorMatrix type="matrix" values="0 0 0 0 0 0 0 0 0 0 0 0 0 0 0 0 0 0 0.25 0"/>
<feBlend mode="normal" in2="BackgroundImageFix" result="effect1_dropShadow_1328_323379"/>
<feBlend mode="normal" in="SourceGraphic" in2="effect1_dropShadow_1328_323379" result="shape"/>
</filter>
<filter id="filter21_i_1328_323379" x="1028.61" y="1272" width="62.4473" height="29.0234" filterUnits="userSpaceOnUse" color-interpolation-filters="sRGB">
<feFlood flood-opacity="0" result="BackgroundImageFix"/>
<feBlend mode="normal" in="SourceGraphic" in2="BackgroundImageFix" result="shape"/>
<feColorMatrix in="SourceAlpha" type="matrix" values="0 0 0 0 0 0 0 0 0 0 0 0 0 0 0 0 0 0 127 0" result="hardAlpha"/>
<feOffset dy="-196"/>
<feGaussianBlur stdDeviation="2"/>
<feComposite in2="hardAlpha" operator="arithmetic" k2="-1" k3="1"/>
<feColorMatrix type="matrix" values="0 0 0 0 1 0 0 0 0 1 0 0 0 0 1 0 0 0 0.25 0"/>
<feBlend mode="normal" in2="shape" result="effect1_innerShadow_1328_323379"/>
</filter>
<filter id="filter22_i_1328_323379" x="1017" y="1284.6" width="38.6841" height="33.4043" filterUnits="userSpaceOnUse" color-interpolation-filters="sRGB">
<feFlood flood-opacity="0" result="BackgroundImageFix"/>
<feBlend mode="normal" in="SourceGraphic" in2="BackgroundImageFix" result="shape"/>
<feColorMatrix in="SourceAlpha" type="matrix" values="0 0 0 0 0 0 0 0 0 0 0 0 0 0 0 0 0 0 127 0" result="hardAlpha"/>
<feOffset dy="-1000"/>
<feComposite in2="hardAlpha" operator="arithmetic" k2="-1" k3="1"/>
<feColorMatrix type="matrix" values="0 0 0 0 0 0 0 0 0 0 0 0 0 0 0 0 0 0 0.15 0"/>
<feBlend mode="normal" in2="shape" result="effect1_innerShadow_1328_323379"/>
</filter>
<filter id="filter23_d_1328_323379" x="1052.37" y="1288.98" width="48.6313" height="30.0234" filterUnits="userSpaceOnUse" color-interpolation-filters="sRGB">
<feFlood flood-opacity="0" result="BackgroundImageFix"/>
<feColorMatrix in="SourceAlpha" type="matrix" values="0 0 0 0 0 0 0 0 0 0 0 0 0 0 0 0 0 0 127 0" result="hardAlpha"/>
<feOffset dy="1"/>
<feComposite in2="hardAlpha" operator="out"/>
<feColorMatrix type="matrix" values="0 0 0 0 0 0 0 0 0 0 0 0 0 0 0 0 0 0 0.25 0"/>
<feBlend mode="normal" in2="BackgroundImageFix" result="effect1_dropShadow_1328_323379"/>
<feBlend mode="normal" in="SourceGraphic" in2="effect1_dropShadow_1328_323379" result="shape"/>
</filter>
<filter id="filter24_i_1328_323379" x="763.516" y="786" width="128.468" height="50.7129" filterUnits="userSpaceOnUse" color-interpolation-filters="sRGB">
<feFlood flood-opacity="0" result="BackgroundImageFix"/>
<feBlend mode="normal" in="SourceGraphic" in2="BackgroundImageFix" result="shape"/>
<feColorMatrix in="SourceAlpha" type="matrix" values="0 0 0 0 0 0 0 0 0 0 0 0 0 0 0 0 0 0 127 0" result="hardAlpha"/>
<feOffset dy="-196"/>
<feGaussianBlur stdDeviation="2"/>
<feComposite in2="hardAlpha" operator="arithmetic" k2="-1" k3="1"/>
<feColorMatrix type="matrix" values="0 0 0 0 1 0 0 0 0 1 0 0 0 0 1 0 0 0 0.25 0"/>
<feBlend mode="normal" in2="shape" result="effect1_innerShadow_1328_323379"/>
</filter>
<filter id="filter25_d_1328_323379" x="824.484" y="813.47" width="239.516" height="459.53" filterUnits="userSpaceOnUse" color-interpolation-filters="sRGB">
<feFlood flood-opacity="0" result="BackgroundImageFix"/>
<feColorMatrix in="SourceAlpha" type="matrix" values="0 0 0 0 0 0 0 0 0 0 0 0 0 0 0 0 0 0 127 0" result="hardAlpha"/>
<feOffset dy="1"/>
<feComposite in2="hardAlpha" operator="out"/>
<feColorMatrix type="matrix" values="0 0 0 0 0 0 0 0 0 0 0 0 0 0 0 0 0 0 0.25 0"/>
<feBlend mode="normal" in2="BackgroundImageFix" result="effect1_dropShadow_1328_323379"/>
<feBlend mode="normal" in="SourceGraphic" in2="effect1_dropShadow_1328_323379" result="shape"/>
</filter>
<filter id="filter26_i_1328_323379" x="659" y="794.452" width="232.984" height="477.548" filterUnits="userSpaceOnUse" color-interpolation-filters="sRGB">
<feFlood flood-opacity="0" result="BackgroundImageFix"/>
<feBlend mode="normal" in="SourceGraphic" in2="BackgroundImageFix" result="shape"/>
<feColorMatrix in="SourceAlpha" type="matrix" values="0 0 0 0 0 0 0 0 0 0 0 0 0 0 0 0 0 0 127 0" result="hardAlpha"/>
<feOffset dy="-1000"/>
<feComposite in2="hardAlpha" operator="arithmetic" k2="-1" k3="1"/>
<feColorMatrix type="matrix" values="0 0 0 0 0 0 0 0 0 0 0 0 0 0 0 0 0 0 0.15 0"/>
<feBlend mode="normal" in2="shape" result="effect1_innerShadow_1328_323379"/>
</filter>
<filter id="filter27_i_1328_323379" x="706.903" y="917.009" width="111.048" height="73.9561" filterUnits="userSpaceOnUse" color-interpolation-filters="sRGB">
<feFlood flood-opacity="0" result="BackgroundImageFix"/>
<feBlend mode="normal" in="SourceGraphic" in2="BackgroundImageFix" result="shape"/>
<feColorMatrix in="SourceAlpha" type="matrix" values="0 0 0 0 0 0 0 0 0 0 0 0 0 0 0 0 0 0 127 0" result="hardAlpha"/>
<feOffset dy="-196"/>
<feGaussianBlur stdDeviation="2"/>
<feComposite in2="hardAlpha" operator="arithmetic" k2="-1" k3="1"/>
<feColorMatrix type="matrix" values="0 0 0 0 1 0 0 0 0 1 0 0 0 0 1 0 0 0 0.25 0"/>
<feBlend mode="normal" in2="shape" result="effect1_innerShadow_1328_323379"/>
</filter>
<filter id="filter28_i_1328_323379" x="1073" y="1175" width="113" height="53" filterUnits="userSpaceOnUse" color-interpolation-filters="sRGB">
<feFlood flood-opacity="0" result="BackgroundImageFix"/>
<feBlend mode="normal" in="SourceGraphic" in2="BackgroundImageFix" result="shape"/>
<feColorMatrix in="SourceAlpha" type="matrix" values="0 0 0 0 0 0 0 0 0 0 0 0 0 0 0 0 0 0 127 0" result="hardAlpha"/>
<feOffset dy="-196"/>
<feGaussianBlur stdDeviation="2"/>
<feComposite in2="hardAlpha" operator="arithmetic" k2="-1" k3="1"/>
<feColorMatrix type="matrix" values="0 0 0 0 1 0 0 0 0 1 0 0 0 0 1 0 0 0 0.25 0"/>
<feBlend mode="normal" in2="shape" result="effect1_innerShadow_1328_323379"/>
</filter>
<filter id="filter29_i_1328_323379" x="1052" y="1198" width="70" height="61" filterUnits="userSpaceOnUse" color-interpolation-filters="sRGB">
<feFlood flood-opacity="0" result="BackgroundImageFix"/>
<feBlend mode="normal" in="SourceGraphic" in2="BackgroundImageFix" result="shape"/>
<feColorMatrix in="SourceAlpha" type="matrix" values="0 0 0 0 0 0 0 0 0 0 0 0 0 0 0 0 0 0 127 0" result="hardAlpha"/>
<feOffset dy="-1000"/>
<feComposite in2="hardAlpha" operator="arithmetic" k2="-1" k3="1"/>
<feColorMatrix type="matrix" values="0 0 0 0 0 0 0 0 0 0 0 0 0 0 0 0 0 0 0.15 0"/>
<feBlend mode="normal" in2="shape" result="effect1_innerShadow_1328_323379"/>
</filter>
<filter id="filter30_d_1328_323379" x="1116" y="1206" width="88" height="54" filterUnits="userSpaceOnUse" color-interpolation-filters="sRGB">
<feFlood flood-opacity="0" result="BackgroundImageFix"/>
<feColorMatrix in="SourceAlpha" type="matrix" values="0 0 0 0 0 0 0 0 0 0 0 0 0 0 0 0 0 0 127 0" result="hardAlpha"/>
<feOffset dy="1"/>
<feComposite in2="hardAlpha" operator="out"/>
<feColorMatrix type="matrix" values="0 0 0 0 0 0 0 0 0 0 0 0 0 0 0 0 0 0 0.25 0"/>
<feBlend mode="normal" in2="BackgroundImageFix" result="effect1_dropShadow_1328_323379"/>
<feBlend mode="normal" in="SourceGraphic" in2="effect1_dropShadow_1328_323379" result="shape"/>
</filter>
</defs>
</svg>
