<svg width="156" height="449" viewBox="0 0 156 449" fill="none" xmlns="http://www.w3.org/2000/svg">
<circle cx="112.5" cy="423.75" r="25" fill="black" fill-opacity="0.12"/>
<circle cx="111.875" cy="424.375" r="10.625" fill="black" fill-opacity="0.2"/>
<g filter="url(#filter0_i_1368_329197)">
<path d="M83.4379 258.691L104.385 424.876C104.903 428.986 108.654 431.895 112.763 431.373C116.872 430.852 119.783 427.097 119.265 422.988L98.3186 256.803C97.8006 252.693 94.0495 249.784 89.9403 250.306C85.8311 250.827 82.9199 254.582 83.4379 258.691Z" fill="#82644D"/>
</g>
<g filter="url(#filter1_iii_1368_329197)">
<g filter="url(#filter2_ii_1368_329197)">
<path d="M18.4616 183.606C16.8292 151.491 41.5394 124.125 73.6534 122.481C105.767 120.838 133.124 145.539 134.757 177.654L135.108 184.571C136.741 216.686 112.031 244.052 79.9166 245.696C47.8026 247.339 20.4457 222.637 18.8132 190.523L18.4616 183.606Z" fill="#ECDECE"/>
</g>
<g filter="url(#filter3_ii_1368_329197)">
<rect width="62.1053" height="65.5422" rx="25" transform="matrix(0.998693 -0.0511111 0.0507658 0.998711 18.5396 185.139)" fill="#ECDECE"/>
<rect width="62.1053" height="65.5422" rx="25" transform="matrix(0.998693 -0.0511111 0.0507658 0.998711 72.8105 182.361)" fill="#ECDECE"/>
<path d="M55.4935 240.19C52.7357 240.331 50.6136 242.681 50.7538 245.439L51.3226 256.629C51.4628 259.387 53.826 261.508 56.5839 261.367C57.1172 261.339 57.6449 261.227 58.1427 261.033L58.7066 260.814C59.7086 260.424 60.8093 260.368 61.8456 260.653L62.4288 260.814C62.9436 260.955 63.4778 261.014 64.0111 260.986L72.2866 260.563C72.6922 260.542 73.0938 260.472 73.4825 260.354L75.6561 259.695C76.3599 259.481 77.1021 259.426 77.8298 259.532L81.1328 260.014C81.4564 260.061 81.7839 260.077 82.1106 260.06L93.1889 259.493C93.5509 259.475 93.9098 259.417 94.2593 259.321L96.9151 258.59C97.6587 258.386 98.4394 258.356 99.1963 258.503L101.371 258.927C101.77 259.004 102.176 259.033 102.582 259.012L108.607 258.704C111.365 258.563 113.487 256.213 113.347 253.455L112.778 242.265C112.638 239.507 110.288 237.385 107.531 237.527L55.4935 240.19Z" fill="#ECDECE"/>
</g>
</g>
<g opacity="0.25" filter="url(#filter4_f_1368_329197)">
<path d="M108.626 150.097C111.199 153.477 113.226 160.524 109.233 162.051C106.418 163.129 102.263 159.5 100.405 156.845C98.3467 153.903 96.9609 151.237 99.0216 148.417C101.237 145.385 106.296 147.036 108.626 150.097Z" fill="#F0FDF4"/>
</g>
<g filter="url(#filter5_i_1368_329197)">
<g filter="url(#filter6_ii_1368_329197)">
<path d="M87.8135 255.907C85.092 256.046 82.9979 258.365 83.1362 261.087L83.3949 266.176C83.465 267.555 84.6397 268.616 86.0186 268.545L90.8806 268.297C92.2595 268.226 93.3205 267.051 93.2504 265.672L92.9917 260.583C92.8534 257.861 90.535 255.768 87.8135 255.907Z" fill="white"/>
</g>
<g filter="url(#filter7_ii_1368_329197)">
<path fill-rule="evenodd" clip-rule="evenodd" d="M101.807 259.051L101.714 257.217C101.604 255.04 99.7488 253.366 97.5716 253.477C95.3974 253.588 93.7237 255.439 93.8293 257.612L93.923 259.454C96.3134 258.698 98.8508 258.53 101.32 258.965L101.807 259.051Z" fill="#44403C"/>
</g>
<path fill-rule="evenodd" clip-rule="evenodd" d="M83.9829 254.88L87.5121 253.058L88.0266 251.022L87.2708 248.79L87.4532 245.374L81.4931 241.409L88.7795 244.558L88.5971 247.974L89.7381 250.448L88.788 253.27L82.8712 257.719L81.7005 259.091L81.7507 260.077L81.1975 259.994C78.4246 259.574 75.5935 259.757 72.8973 260.531L72.8288 259.182C72.7045 256.737 74.5857 254.654 77.0305 254.528C78.7854 254.439 80.3537 255.382 81.145 256.826L83.9829 254.88Z" fill="black" fill-opacity="0.2"/>
<g filter="url(#filter8_ii_1368_329197)">
<path d="M67.0677 256.003C64.8905 256.115 63.2152 257.97 63.3259 260.147L63.5857 265.26C63.6558 266.639 64.8305 267.699 66.2094 267.629L69.1003 267.481C70.4793 267.41 71.5403 266.235 71.4702 264.856L71.2103 259.744C71.0996 257.567 69.2449 255.892 67.0677 256.003Z" fill="white"/>
</g>
<g filter="url(#filter9_ii_1368_329197)">
<path d="M104.47 253.124C102.837 253.208 101.581 254.599 101.664 256.232L101.974 262.33C102.044 263.709 103.219 264.77 104.598 264.699L105.517 264.652C106.896 264.581 107.957 263.406 107.887 262.027L107.577 255.929C107.494 254.297 106.103 253.041 104.47 253.124Z" fill="white"/>
</g>
<g filter="url(#filter10_ii_1368_329197)">
<path d="M109.349 251.909C108.26 251.965 107.423 252.892 107.478 253.981L107.767 259.665C107.822 260.753 108.75 261.591 109.838 261.535C110.927 261.479 111.765 260.552 111.709 259.463L111.42 253.779C111.365 252.691 110.438 251.853 109.349 251.909Z" fill="white"/>
</g>
<g filter="url(#filter11_ii_1368_329197)">
<path fill-rule="evenodd" clip-rule="evenodd" d="M63.156 260.05C63.0574 258.461 61.6973 257.243 60.1027 257.325C58.497 257.407 57.2615 258.775 57.3431 260.381L57.391 261.324C59.1608 260.809 61.0216 260.689 62.8427 260.97L63.2056 261.026L63.156 260.05Z" fill="#44403C"/>
</g>
<g filter="url(#filter12_ii_1368_329197)">
<path d="M55.144 254.683C54.0553 254.739 53.2177 255.667 53.273 256.755L53.562 262.439C53.6173 263.528 54.5447 264.365 55.6333 264.309C56.7219 264.254 57.5595 263.326 57.5042 262.237L57.2153 256.554C57.1599 255.465 56.2326 254.628 55.144 254.683Z" fill="white"/>
</g>
</g>
<g filter="url(#filter13_i_1368_329197)">
<rect width="38.8158" height="30.8434" rx="15.4217" transform="matrix(0.998693 -0.0511111 0.0507658 0.998711 29.8853 198.069)" fill="#0F172A"/>
</g>
<g filter="url(#filter14_i_1368_329197)">
<path d="M71.2783 217.733C73.5495 211.146 82.748 210.675 85.6753 216.997L90.2417 226.857C92.5359 231.812 89.065 237.506 83.58 237.787L75.4709 238.202C69.9859 238.483 65.9556 233.172 67.7355 228.009L71.2783 217.733Z" fill="#0F172A"/>
</g>
<g filter="url(#filter15_i_1368_329197)">
<rect width="38.8158" height="30.8434" rx="15.4217" transform="matrix(0.998693 -0.0511111 0.0507658 0.998711 86.0942 195.193)" fill="#0F172A"/>
</g>
<g filter="url(#filter16_i_1368_329197)">
<path d="M58.7505 141.811L68.7505 140.258L78.7505 137.393V131.251L73.7505 134.268L55.8466 140.258L51.2505 146.337L51.9812 153.275L48.7505 161.423L63.7505 175.001L52.6159 160.52L55.8466 152.372V146.337L58.7505 141.811Z" fill="black" fill-opacity="0.2"/>
</g>
<circle cx="75" cy="131.25" r="10" fill="black" fill-opacity="0.2"/>
<g filter="url(#filter17_i_1368_329197)">
<path d="M58.7974 26.9985C58.6812 23.9797 63.0227 23.3784 63.7263 26.3158L75.6397 76.053L82.5443 130.831C83.0623 134.941 80.151 138.695 76.0419 139.217C71.9327 139.738 68.1816 136.829 67.6636 132.72L60.7591 77.9414L58.7974 26.9985Z" fill="#82644D"/>
</g>
<defs>
<filter id="filter0_i_1368_329197" x="83.3784" y="246.495" width="40.9468" height="184.938" filterUnits="userSpaceOnUse" color-interpolation-filters="sRGB">
<feFlood flood-opacity="0" result="BackgroundImageFix"/>
<feBlend mode="normal" in="SourceGraphic" in2="BackgroundImageFix" result="shape"/>
<feColorMatrix in="SourceAlpha" type="matrix" values="0 0 0 0 0 0 0 0 0 0 0 0 0 0 0 0 0 0 127 0" result="hardAlpha"/>
<feOffset dx="6.25" dy="-3.75"/>
<feGaussianBlur stdDeviation="2.5"/>
<feComposite in2="hardAlpha" operator="arithmetic" k2="-1" k3="1"/>
<feColorMatrix type="matrix" values="0 0 0 0 0 0 0 0 0 0 0 0 0 0 0 0 0 0 0.25 0"/>
<feBlend mode="normal" in2="shape" result="effect1_innerShadow_1368_329197"/>
</filter>
<filter id="filter1_iii_1368_329197" x="-1.61475" y="92.4033" width="168.541" height="198.97" filterUnits="userSpaceOnUse" color-interpolation-filters="sRGB">
<feFlood flood-opacity="0" result="BackgroundImageFix"/>
<feBlend mode="normal" in="SourceGraphic" in2="BackgroundImageFix" result="shape"/>
<feColorMatrix in="SourceAlpha" type="matrix" values="0 0 0 0 0 0 0 0 0 0 0 0 0 0 0 0 0 0 127 0" result="hardAlpha"/>
<feOffset dx="30" dy="-30"/>
<feGaussianBlur stdDeviation="26.25"/>
<feComposite in2="hardAlpha" operator="arithmetic" k2="-1" k3="1"/>
<feColorMatrix type="matrix" values="0 0 0 0 0 0 0 0 0 0 0 0 0 0 0 0 0 0 0.25 0"/>
<feBlend mode="normal" in2="shape" result="effect1_innerShadow_1368_329197"/>
<feColorMatrix in="SourceAlpha" type="matrix" values="0 0 0 0 0 0 0 0 0 0 0 0 0 0 0 0 0 0 127 0" result="hardAlpha"/>
<feOffset dx="10" dy="-10"/>
<feGaussianBlur stdDeviation="10"/>
<feComposite in2="hardAlpha" operator="arithmetic" k2="-1" k3="1"/>
<feColorMatrix type="matrix" values="0 0 0 0 0 0 0 0 0 0 0 0 0 0 0 0 0 0 0.25 0"/>
<feBlend mode="normal" in2="effect1_innerShadow_1368_329197" result="effect2_innerShadow_1368_329197"/>
<feColorMatrix in="SourceAlpha" type="matrix" values="0 0 0 0 0 0 0 0 0 0 0 0 0 0 0 0 0 0 127 0" result="hardAlpha"/>
<feOffset dx="-20" dy="30"/>
<feGaussianBlur stdDeviation="15"/>
<feComposite in2="hardAlpha" operator="arithmetic" k2="-1" k3="1"/>
<feColorMatrix type="matrix" values="0 0 0 0 1 0 0 0 0 1 0 0 0 0 1 0 0 0 0.25 0"/>
<feBlend mode="normal" in2="effect2_innerShadow_1368_329197" result="effect3_innerShadow_1368_329197"/>
</filter>
<filter id="filter2_ii_1368_329197" x="-1.61475" y="92.4033" width="166.8" height="183.37" filterUnits="userSpaceOnUse" color-interpolation-filters="sRGB">
<feFlood flood-opacity="0" result="BackgroundImageFix"/>
<feBlend mode="normal" in="SourceGraphic" in2="BackgroundImageFix" result="shape"/>
<feColorMatrix in="SourceAlpha" type="matrix" values="0 0 0 0 0 0 0 0 0 0 0 0 0 0 0 0 0 0 127 0" result="hardAlpha"/>
<feOffset dx="30" dy="-30"/>
<feGaussianBlur stdDeviation="26.25"/>
<feComposite in2="hardAlpha" operator="arithmetic" k2="-1" k3="1"/>
<feColorMatrix type="matrix" values="0 0 0 0 0 0 0 0 0 0 0 0 0 0 0 0 0 0 0.25 0"/>
<feBlend mode="normal" in2="shape" result="effect1_innerShadow_1368_329197"/>
<feColorMatrix in="SourceAlpha" type="matrix" values="0 0 0 0 0 0 0 0 0 0 0 0 0 0 0 0 0 0 127 0" result="hardAlpha"/>
<feOffset dx="-20" dy="30"/>
<feGaussianBlur stdDeviation="15"/>
<feComposite in2="hardAlpha" operator="arithmetic" k2="-1" k3="1"/>
<feColorMatrix type="matrix" values="0 0 0 0 1 0 0 0 0 1 0 0 0 0 1 0 0 0 0.25 0"/>
<feBlend mode="normal" in2="effect1_innerShadow_1368_329197" result="effect2_innerShadow_1368_329197"/>
</filter>
<filter id="filter3_ii_1368_329197" x="9.77588" y="170.432" width="137.15" height="100.941" filterUnits="userSpaceOnUse" color-interpolation-filters="sRGB">
<feFlood flood-opacity="0" result="BackgroundImageFix"/>
<feBlend mode="normal" in="SourceGraphic" in2="BackgroundImageFix" result="shape"/>
<feColorMatrix in="SourceAlpha" type="matrix" values="0 0 0 0 0 0 0 0 0 0 0 0 0 0 0 0 0 0 127 0" result="hardAlpha"/>
<feOffset dx="10" dy="-10"/>
<feGaussianBlur stdDeviation="5"/>
<feComposite in2="hardAlpha" operator="arithmetic" k2="-1" k3="1"/>
<feColorMatrix type="matrix" values="0 0 0 0 0 0 0 0 0 0 0 0 0 0 0 0 0 0 0.25 0"/>
<feBlend mode="normal" in2="shape" result="effect1_innerShadow_1368_329197"/>
<feColorMatrix in="SourceAlpha" type="matrix" values="0 0 0 0 0 0 0 0 0 0 0 0 0 0 0 0 0 0 127 0" result="hardAlpha"/>
<feOffset dx="-10" dy="10"/>
<feGaussianBlur stdDeviation="5"/>
<feComposite in2="hardAlpha" operator="arithmetic" k2="-1" k3="1"/>
<feColorMatrix type="matrix" values="0 0 0 0 1 0 0 0 0 1 0 0 0 0 1 0 0 0 0.25 0"/>
<feBlend mode="normal" in2="effect1_innerShadow_1368_329197" result="effect2_innerShadow_1368_329197"/>
</filter>
<filter id="filter4_f_1368_329197" x="94.8333" y="143.637" width="19.8245" height="21.7815" filterUnits="userSpaceOnUse" color-interpolation-filters="sRGB">
<feFlood flood-opacity="0" result="BackgroundImageFix"/>
<feBlend mode="normal" in="SourceGraphic" in2="BackgroundImageFix" result="shape"/>
<feGaussianBlur stdDeviation="1.58601" result="effect1_foregroundBlur_1368_329197"/>
</filter>
<filter id="filter5_i_1368_329197" x="53.2705" y="241.409" width="63.4414" height="27.1396" filterUnits="userSpaceOnUse" color-interpolation-filters="sRGB">
<feFlood flood-opacity="0" result="BackgroundImageFix"/>
<feBlend mode="normal" in="SourceGraphic" in2="BackgroundImageFix" result="shape"/>
<feColorMatrix in="SourceAlpha" type="matrix" values="0 0 0 0 0 0 0 0 0 0 0 0 0 0 0 0 0 0 127 0" result="hardAlpha"/>
<feOffset dx="10"/>
<feGaussianBlur stdDeviation="2.5"/>
<feComposite in2="hardAlpha" operator="arithmetic" k2="-1" k3="1"/>
<feColorMatrix type="matrix" values="0 0 0 0 0 0 0 0 0 0 0 0 0 0 0 0 0 0 0.25 0"/>
<feBlend mode="normal" in2="shape" result="effect1_innerShadow_1368_329197"/>
</filter>
<filter id="filter6_ii_1368_329197" x="73.1299" y="245.9" width="30.124" height="32.6484" filterUnits="userSpaceOnUse" color-interpolation-filters="sRGB">
<feFlood flood-opacity="0" result="BackgroundImageFix"/>
<feBlend mode="normal" in="SourceGraphic" in2="BackgroundImageFix" result="shape"/>
<feColorMatrix in="SourceAlpha" type="matrix" values="0 0 0 0 0 0 0 0 0 0 0 0 0 0 0 0 0 0 127 0" result="hardAlpha"/>
<feOffset dx="10" dy="-10"/>
<feGaussianBlur stdDeviation="5"/>
<feComposite in2="hardAlpha" operator="arithmetic" k2="-1" k3="1"/>
<feColorMatrix type="matrix" values="0 0 0 0 0 0 0 0 0 0 0 0 0 0 0 0 0 0 0.25 0"/>
<feBlend mode="normal" in2="shape" result="effect1_innerShadow_1368_329197"/>
<feColorMatrix in="SourceAlpha" type="matrix" values="0 0 0 0 0 0 0 0 0 0 0 0 0 0 0 0 0 0 127 0" result="hardAlpha"/>
<feOffset dx="-10" dy="10"/>
<feGaussianBlur stdDeviation="5"/>
<feComposite in2="hardAlpha" operator="arithmetic" k2="-1" k3="1"/>
<feColorMatrix type="matrix" values="0 0 0 0 1 0 0 0 0 1 0 0 0 0 1 0 0 0 0.25 0"/>
<feBlend mode="normal" in2="effect1_innerShadow_1368_329197" result="effect2_innerShadow_1368_329197"/>
</filter>
<filter id="filter7_ii_1368_329197" x="83.8247" y="243.472" width="27.9829" height="25.9824" filterUnits="userSpaceOnUse" color-interpolation-filters="sRGB">
<feFlood flood-opacity="0" result="BackgroundImageFix"/>
<feBlend mode="normal" in="SourceGraphic" in2="BackgroundImageFix" result="shape"/>
<feColorMatrix in="SourceAlpha" type="matrix" values="0 0 0 0 0 0 0 0 0 0 0 0 0 0 0 0 0 0 127 0" result="hardAlpha"/>
<feOffset dx="10" dy="-10"/>
<feGaussianBlur stdDeviation="5"/>
<feComposite in2="hardAlpha" operator="arithmetic" k2="-1" k3="1"/>
<feColorMatrix type="matrix" values="0 0 0 0 0 0 0 0 0 0 0 0 0 0 0 0 0 0 0.25 0"/>
<feBlend mode="normal" in2="shape" result="effect1_innerShadow_1368_329197"/>
<feColorMatrix in="SourceAlpha" type="matrix" values="0 0 0 0 0 0 0 0 0 0 0 0 0 0 0 0 0 0 127 0" result="hardAlpha"/>
<feOffset dx="-10" dy="10"/>
<feGaussianBlur stdDeviation="5"/>
<feComposite in2="hardAlpha" operator="arithmetic" k2="-1" k3="1"/>
<feColorMatrix type="matrix" values="0 0 0 0 1 0 0 0 0 1 0 0 0 0 1 0 0 0 0.25 0"/>
<feBlend mode="normal" in2="effect1_innerShadow_1368_329197" result="effect2_innerShadow_1368_329197"/>
</filter>
<filter id="filter8_ii_1368_329197" x="53.3208" y="245.998" width="28.1528" height="31.6338" filterUnits="userSpaceOnUse" color-interpolation-filters="sRGB">
<feFlood flood-opacity="0" result="BackgroundImageFix"/>
<feBlend mode="normal" in="SourceGraphic" in2="BackgroundImageFix" result="shape"/>
<feColorMatrix in="SourceAlpha" type="matrix" values="0 0 0 0 0 0 0 0 0 0 0 0 0 0 0 0 0 0 127 0" result="hardAlpha"/>
<feOffset dx="10" dy="-10"/>
<feGaussianBlur stdDeviation="5"/>
<feComposite in2="hardAlpha" operator="arithmetic" k2="-1" k3="1"/>
<feColorMatrix type="matrix" values="0 0 0 0 0 0 0 0 0 0 0 0 0 0 0 0 0 0 0.25 0"/>
<feBlend mode="normal" in2="shape" result="effect1_innerShadow_1368_329197"/>
<feColorMatrix in="SourceAlpha" type="matrix" values="0 0 0 0 0 0 0 0 0 0 0 0 0 0 0 0 0 0 127 0" result="hardAlpha"/>
<feOffset dx="-10" dy="10"/>
<feGaussianBlur stdDeviation="5"/>
<feComposite in2="hardAlpha" operator="arithmetic" k2="-1" k3="1"/>
<feColorMatrix type="matrix" values="0 0 0 0 1 0 0 0 0 1 0 0 0 0 1 0 0 0 0.25 0"/>
<feBlend mode="normal" in2="effect1_innerShadow_1368_329197" result="effect2_innerShadow_1368_329197"/>
</filter>
<filter id="filter9_ii_1368_329197" x="91.6602" y="243.12" width="26.2305" height="31.582" filterUnits="userSpaceOnUse" color-interpolation-filters="sRGB">
<feFlood flood-opacity="0" result="BackgroundImageFix"/>
<feBlend mode="normal" in="SourceGraphic" in2="BackgroundImageFix" result="shape"/>
<feColorMatrix in="SourceAlpha" type="matrix" values="0 0 0 0 0 0 0 0 0 0 0 0 0 0 0 0 0 0 127 0" result="hardAlpha"/>
<feOffset dx="10" dy="-10"/>
<feGaussianBlur stdDeviation="5"/>
<feComposite in2="hardAlpha" operator="arithmetic" k2="-1" k3="1"/>
<feColorMatrix type="matrix" values="0 0 0 0 0 0 0 0 0 0 0 0 0 0 0 0 0 0 0.25 0"/>
<feBlend mode="normal" in2="shape" result="effect1_innerShadow_1368_329197"/>
<feColorMatrix in="SourceAlpha" type="matrix" values="0 0 0 0 0 0 0 0 0 0 0 0 0 0 0 0 0 0 127 0" result="hardAlpha"/>
<feOffset dx="-10" dy="10"/>
<feGaussianBlur stdDeviation="5"/>
<feComposite in2="hardAlpha" operator="arithmetic" k2="-1" k3="1"/>
<feColorMatrix type="matrix" values="0 0 0 0 1 0 0 0 0 1 0 0 0 0 1 0 0 0 0.25 0"/>
<feBlend mode="normal" in2="effect1_innerShadow_1368_329197" result="effect2_innerShadow_1368_329197"/>
</filter>
<filter id="filter10_ii_1368_329197" x="97.4756" y="241.906" width="24.2363" height="29.6318" filterUnits="userSpaceOnUse" color-interpolation-filters="sRGB">
<feFlood flood-opacity="0" result="BackgroundImageFix"/>
<feBlend mode="normal" in="SourceGraphic" in2="BackgroundImageFix" result="shape"/>
<feColorMatrix in="SourceAlpha" type="matrix" values="0 0 0 0 0 0 0 0 0 0 0 0 0 0 0 0 0 0 127 0" result="hardAlpha"/>
<feOffset dx="10" dy="-10"/>
<feGaussianBlur stdDeviation="5"/>
<feComposite in2="hardAlpha" operator="arithmetic" k2="-1" k3="1"/>
<feColorMatrix type="matrix" values="0 0 0 0 0 0 0 0 0 0 0 0 0 0 0 0 0 0 0.25 0"/>
<feBlend mode="normal" in2="shape" result="effect1_innerShadow_1368_329197"/>
<feColorMatrix in="SourceAlpha" type="matrix" values="0 0 0 0 0 0 0 0 0 0 0 0 0 0 0 0 0 0 127 0" result="hardAlpha"/>
<feOffset dx="-10" dy="10"/>
<feGaussianBlur stdDeviation="5"/>
<feComposite in2="hardAlpha" operator="arithmetic" k2="-1" k3="1"/>
<feColorMatrix type="matrix" values="0 0 0 0 1 0 0 0 0 1 0 0 0 0 1 0 0 0 0.25 0"/>
<feBlend mode="normal" in2="effect1_innerShadow_1368_329197" result="effect2_innerShadow_1368_329197"/>
</filter>
<filter id="filter11_ii_1368_329197" x="47.3394" y="247.321" width="25.8662" height="24.0029" filterUnits="userSpaceOnUse" color-interpolation-filters="sRGB">
<feFlood flood-opacity="0" result="BackgroundImageFix"/>
<feBlend mode="normal" in="SourceGraphic" in2="BackgroundImageFix" result="shape"/>
<feColorMatrix in="SourceAlpha" type="matrix" values="0 0 0 0 0 0 0 0 0 0 0 0 0 0 0 0 0 0 127 0" result="hardAlpha"/>
<feOffset dx="10" dy="-10"/>
<feGaussianBlur stdDeviation="5"/>
<feComposite in2="hardAlpha" operator="arithmetic" k2="-1" k3="1"/>
<feColorMatrix type="matrix" values="0 0 0 0 0 0 0 0 0 0 0 0 0 0 0 0 0 0 0.25 0"/>
<feBlend mode="normal" in2="shape" result="effect1_innerShadow_1368_329197"/>
<feColorMatrix in="SourceAlpha" type="matrix" values="0 0 0 0 0 0 0 0 0 0 0 0 0 0 0 0 0 0 127 0" result="hardAlpha"/>
<feOffset dx="-10" dy="10"/>
<feGaussianBlur stdDeviation="5"/>
<feComposite in2="hardAlpha" operator="arithmetic" k2="-1" k3="1"/>
<feColorMatrix type="matrix" values="0 0 0 0 1 0 0 0 0 1 0 0 0 0 1 0 0 0 0.25 0"/>
<feBlend mode="normal" in2="effect1_innerShadow_1368_329197" result="effect2_innerShadow_1368_329197"/>
</filter>
<filter id="filter12_ii_1368_329197" x="43.2705" y="244.681" width="24.2363" height="29.6318" filterUnits="userSpaceOnUse" color-interpolation-filters="sRGB">
<feFlood flood-opacity="0" result="BackgroundImageFix"/>
<feBlend mode="normal" in="SourceGraphic" in2="BackgroundImageFix" result="shape"/>
<feColorMatrix in="SourceAlpha" type="matrix" values="0 0 0 0 0 0 0 0 0 0 0 0 0 0 0 0 0 0 127 0" result="hardAlpha"/>
<feOffset dx="10" dy="-10"/>
<feGaussianBlur stdDeviation="5"/>
<feComposite in2="hardAlpha" operator="arithmetic" k2="-1" k3="1"/>
<feColorMatrix type="matrix" values="0 0 0 0 0 0 0 0 0 0 0 0 0 0 0 0 0 0 0.25 0"/>
<feBlend mode="normal" in2="shape" result="effect1_innerShadow_1368_329197"/>
<feColorMatrix in="SourceAlpha" type="matrix" values="0 0 0 0 0 0 0 0 0 0 0 0 0 0 0 0 0 0 127 0" result="hardAlpha"/>
<feOffset dx="-10" dy="10"/>
<feGaussianBlur stdDeviation="5"/>
<feComposite in2="hardAlpha" operator="arithmetic" k2="-1" k3="1"/>
<feColorMatrix type="matrix" values="0 0 0 0 1 0 0 0 0 1 0 0 0 0 1 0 0 0 0.25 0"/>
<feBlend mode="normal" in2="effect1_innerShadow_1368_329197" result="effect2_innerShadow_1368_329197"/>
</filter>
<filter id="filter13_i_1368_329197" x="30.6479" y="194.354" width="38.8057" height="33.752" filterUnits="userSpaceOnUse" color-interpolation-filters="sRGB">
<feFlood flood-opacity="0" result="BackgroundImageFix"/>
<feBlend mode="normal" in="SourceGraphic" in2="BackgroundImageFix" result="shape"/>
<feColorMatrix in="SourceAlpha" type="matrix" values="0 0 0 0 0 0 0 0 0 0 0 0 0 0 0 0 0 0 127 0" result="hardAlpha"/>
<feOffset dy="-10"/>
<feGaussianBlur stdDeviation="1.25"/>
<feComposite in2="hardAlpha" operator="arithmetic" k2="-1" k3="1"/>
<feColorMatrix type="matrix" values="0 0 0 0 1 0 0 0 0 1 0 0 0 0 1 0 0 0 0.25 0"/>
<feBlend mode="normal" in2="shape" result="effect1_innerShadow_1368_329197"/>
</filter>
<filter id="filter14_i_1368_329197" x="67.3096" y="210.014" width="23.6499" height="28.1992" filterUnits="userSpaceOnUse" color-interpolation-filters="sRGB">
<feFlood flood-opacity="0" result="BackgroundImageFix"/>
<feBlend mode="normal" in="SourceGraphic" in2="BackgroundImageFix" result="shape"/>
<feColorMatrix in="SourceAlpha" type="matrix" values="0 0 0 0 0 0 0 0 0 0 0 0 0 0 0 0 0 0 127 0" result="hardAlpha"/>
<feOffset dy="-10"/>
<feGaussianBlur stdDeviation="1.25"/>
<feComposite in2="hardAlpha" operator="arithmetic" k2="-1" k3="1"/>
<feColorMatrix type="matrix" values="0 0 0 0 1 0 0 0 0 1 0 0 0 0 1 0 0 0 0.25 0"/>
<feBlend mode="normal" in2="shape" result="effect1_innerShadow_1368_329197"/>
</filter>
<filter id="filter15_i_1368_329197" x="86.8569" y="191.478" width="38.8057" height="33.752" filterUnits="userSpaceOnUse" color-interpolation-filters="sRGB">
<feFlood flood-opacity="0" result="BackgroundImageFix"/>
<feBlend mode="normal" in="SourceGraphic" in2="BackgroundImageFix" result="shape"/>
<feColorMatrix in="SourceAlpha" type="matrix" values="0 0 0 0 0 0 0 0 0 0 0 0 0 0 0 0 0 0 127 0" result="hardAlpha"/>
<feOffset dy="-10"/>
<feGaussianBlur stdDeviation="1.25"/>
<feComposite in2="hardAlpha" operator="arithmetic" k2="-1" k3="1"/>
<feColorMatrix type="matrix" values="0 0 0 0 1 0 0 0 0 1 0 0 0 0 1 0 0 0 0.25 0"/>
<feBlend mode="normal" in2="shape" result="effect1_innerShadow_1368_329197"/>
</filter>
<filter id="filter16_i_1368_329197" x="48.75" y="131.25" width="32.5005" height="45.001" filterUnits="userSpaceOnUse" color-interpolation-filters="sRGB">
<feFlood flood-opacity="0" result="BackgroundImageFix"/>
<feBlend mode="normal" in="SourceGraphic" in2="BackgroundImageFix" result="shape"/>
<feColorMatrix in="SourceAlpha" type="matrix" values="0 0 0 0 0 0 0 0 0 0 0 0 0 0 0 0 0 0 127 0" result="hardAlpha"/>
<feOffset dx="2.5" dy="1.25"/>
<feGaussianBlur stdDeviation="1.875"/>
<feComposite in2="hardAlpha" operator="arithmetic" k2="-1" k3="1"/>
<feColorMatrix type="matrix" values="0 0 0 0 0 0 0 0 0 0 0 0 0 0 0 0 0 0 0.25 0"/>
<feBlend mode="normal" in2="shape" result="effect1_innerShadow_1368_329197"/>
</filter>
<filter id="filter17_i_1368_329197" x="58.7949" y="20.6475" width="28.8091" height="118.63" filterUnits="userSpaceOnUse" color-interpolation-filters="sRGB">
<feFlood flood-opacity="0" result="BackgroundImageFix"/>
<feBlend mode="normal" in="SourceGraphic" in2="BackgroundImageFix" result="shape"/>
<feColorMatrix in="SourceAlpha" type="matrix" values="0 0 0 0 0 0 0 0 0 0 0 0 0 0 0 0 0 0 127 0" result="hardAlpha"/>
<feOffset dx="6.25" dy="-3.75"/>
<feGaussianBlur stdDeviation="2.5"/>
<feComposite in2="hardAlpha" operator="arithmetic" k2="-1" k3="1"/>
<feColorMatrix type="matrix" values="0 0 0 0 0 0 0 0 0 0 0 0 0 0 0 0 0 0 0.25 0"/>
<feBlend mode="normal" in2="shape" result="effect1_innerShadow_1368_329197"/>
</filter>
</defs>
</svg>
