<svg width="135" height="541" viewBox="0 0 135 541" fill="none" xmlns="http://www.w3.org/2000/svg">
<g clip-path="url(#clip0_1368_329473)">
<rect width="60" height="60" rx="8" transform="matrix(-1 0 0 1 135 481)" fill="black" fill-opacity="0.12"/>
<rect width="48" height="48" rx="4" transform="matrix(-1 0 0 1 129 487)" fill="black" fill-opacity="0.2"/>
<g filter="url(#filter0_dii_1368_329473)">
<rect width="44" height="136" rx="4" transform="matrix(-1 0 0 1 127 396)" fill="#82644D"/>
</g>
<g filter="url(#filter1_ii_1368_329473)">
<rect width="44" height="44" rx="4" transform="matrix(-1 0 0 1 127 396)" fill="#9A7858"/>
</g>
<path opacity="0.2" d="M101 470.078C101 473.994 101.871 478.182 103.742 478.182C105.613 478.182 106 475.007 106 471.091C106 467.175 105.613 464 103.742 464C101.871 464 101 466.162 101 470.078Z" fill="#1C1917"/>
<path opacity="0.2" d="M108 497.194C108 499.604 108.871 502.181 110.742 502.181C112.613 502.181 113 500.228 113 497.818C113 495.408 112.613 493.454 110.742 493.454C108.871 493.454 108 494.784 108 497.194Z" fill="white"/>
<path d="M123 113H87V86C87 84.8954 87.8954 84 89 84H121C122.105 84 123 84.8954 123 86V113Z" fill="#64748B"/>
<g filter="url(#filter2_ii_1368_329473)">
<rect width="32" height="382" rx="4" transform="matrix(-1 0 0 1 121 51)" fill="#82644D"/>
</g>
<mask id="mask0_1368_329473" style="mask-type:alpha" maskUnits="userSpaceOnUse" x="89" y="83" width="32" height="350">
<rect width="32" height="350" rx="4" transform="matrix(-1 0 0 1 121 83)" fill="#854D0E"/>
</mask>
<g mask="url(#mask0_1368_329473)">
<path opacity="0.2" d="M104 137.775C104 141.912 104.871 146.335 106.742 146.335C108.613 146.335 109 142.982 109 138.845C109 134.709 108.613 131.355 106.742 131.355C104.871 131.355 104 133.639 104 137.775Z" fill="#1C1917"/>
<path opacity="0.2" d="M104 91.5191C104 94.0646 104.871 96.7866 106.742 96.7866C108.613 96.7866 109 94.7231 109 92.1775C109 89.6319 108.613 87.5684 106.742 87.5684C104.871 87.5684 104 88.9735 104 91.5191Z" fill="#1C1917"/>
<path opacity="0.2" d="M102 256.64C102 260.743 102.697 265.131 104.194 265.131C105.69 265.131 106 261.805 106 257.701C106 253.598 105.69 250.271 104.194 250.271C102.697 250.271 102 252.537 102 256.64Z" fill="white"/>
<path opacity="0.2" d="M97 294.362C97 298.465 97.8713 302.853 99.7419 302.853C101.613 302.853 102 299.527 102 295.423C102 291.32 101.613 287.993 99.7419 287.993C97.8713 287.993 97 290.258 97 294.362Z" fill="#1C1917"/>
<path opacity="0.2" d="M104 233.615C104 236.141 104.871 238.841 106.742 238.841C108.613 238.841 109 236.794 109 234.269C109 231.743 108.613 229.696 106.742 229.696C104.871 229.696 104 231.09 104 233.615Z" fill="#1C1917"/>
<path opacity="0.2" d="M104 322.775C104 325.3 104.871 328 106.742 328C108.613 328 109 325.953 109 323.428C109 320.903 108.613 318.855 106.742 318.855C104.871 318.855 104 320.249 104 322.775Z" fill="white"/>
<path opacity="0.15" d="M112 153.886C112 156.735 111.303 159.782 109.806 159.782C108.31 159.782 108 157.472 108 154.623C108 151.774 108.31 149.464 109.806 149.464C111.303 149.464 112 151.037 112 153.886Z" fill="white"/>
<path opacity="0.2" d="M103 204.685C103 207.534 102.129 210.581 100.258 210.581C98.3874 210.581 98 208.271 98 205.422C98 202.573 98.3874 200.263 100.258 200.263C102.129 200.263 103 201.836 103 204.685Z" fill="#1C1917"/>
<path opacity="0.2" d="M103 172.822C103 174.575 102.129 176.45 100.258 176.45C98.3874 176.45 98 175.029 98 173.275C98 171.522 98.3874 170.101 100.258 170.101C102.129 170.101 103 171.068 103 172.822Z" fill="#1C1917"/>
</g>
<g filter="url(#filter3_ii_1368_329473)">
<rect width="32" height="32" rx="4" transform="matrix(-1 0 0 1 121 51)" fill="#9A7858"/>
</g>
<g filter="url(#filter4_i_1368_329473)">
<path d="M123.004 151C123.004 152.105 122.108 153 121.004 153H89.0039C87.8993 153 87.0039 152.105 87.0039 151V113H123.004V151Z" fill="#475569"/>
</g>
<path d="M123 113C123 114.105 122.105 115 121 115H89C87.8954 115 87 114.105 87 113H123Z" fill="#64748B"/>
<g filter="url(#filter5_ii_1368_329473)">
<path d="M57 141L72 141" stroke="#64748B" stroke-width="4" stroke-linecap="round"/>
</g>
<g filter="url(#filter6_ii_1368_329473)">
<path d="M48 120L63 120" stroke="#64748B" stroke-width="4" stroke-linecap="round"/>
</g>
<g opacity="0.8">
<path d="M0.0939095 68.5344C0.159452 85.3882 14.9171 99.1081 33.0561 99.1786C51.1951 99.2491 65.8465 85.6435 65.781 68.7897C65.7532 61.6545 63.2169 51.414 58.782 39.0494C58.0433 36.9901 55.3929 36.4519 53.6269 37.739C38.786 48.5557 44.5991 12.0564 32.6721 0.433877C14.5331 0.36338 0.0283668 51.6805 0.0939095 68.5344Z" fill="#FB923C"/>
<path d="M11.8928 74.7354C11.9369 86.0661 22.023 95.2904 34.4209 95.3386C46.8188 95.3868 56.8335 86.2405 56.7894 74.9099C56.7718 70.3788 55.8773 63.7116 53.3525 55.9269C52.6833 53.8635 50.0465 53.4254 47.977 54.0967C37.1957 57.5943 30.9233 28.5154 25.0484 28.4926C21.578 50.5301 11.8487 63.4047 11.8928 74.7354Z" fill="#FACC15"/>
<path d="M51.9546 29.0521C55.7425 29.7239 59.4621 26.2126 60.2624 21.2095C60.9972 16.6162 56.5019 13.4405 56.1251 5.26714C56.0848 4.39325 55.0554 3.89269 54.4557 4.51978C51.9442 7.14602 49.212 11.3507 46.545 18.7769C45.7447 23.78 48.1666 28.3804 51.9546 29.0521Z" fill="#FB923C"/>
<path d="M52.3746 26.389C54.346 26.7384 56.3473 24.5026 56.8447 21.3952C56.8627 21.2828 56.8764 21.172 56.8861 21.0624C57.2242 17.2543 51.073 16.0482 49.8612 19.6596C49.7939 19.8602 49.687 20.235 49.6608 20.4456C49.2904 23.4249 50.4703 26.0515 52.3746 26.389Z" fill="#FACC15"/>
</g>
<g filter="url(#filter7_i_1368_329473)">
<path fill-rule="evenodd" clip-rule="evenodd" d="M27.5068 62.6042C25.5046 63.5379 24.6384 65.9178 25.572 67.9199L76.2864 176.677C77.22 178.679 79.6 179.546 81.6021 178.612C83.6043 177.678 84.4705 175.299 83.5369 173.296L32.8225 64.539C31.8888 62.5368 29.5089 61.6706 27.5068 62.6042Z" fill="#82644D"/>
</g>
<g filter="url(#filter8_i_1368_329473)">
<line x1="8" y1="-8" x2="24.002" y2="-8" transform="matrix(0.422592 0.906251 0.906251 -0.422592 33.9116 57.4111)" stroke="#9A7858" stroke-width="16" stroke-linecap="round"/>
</g>
<line x1="1" y1="-1" x2="13.118" y2="-1" transform="matrix(-0.958605 0.290696 0.289646 0.955218 42.3022 77.7725)" stroke="#82644D" stroke-width="2" stroke-linecap="round"/>
<line x1="1" y1="-1" x2="13.0015" y2="-1" transform="matrix(-0.906249 0.422591 0.42259 0.906248 36.3862 65.084)" stroke="#82644D" stroke-width="2" stroke-linecap="round"/>
<line x1="1" y1="-1" x2="13.0015" y2="-1" transform="matrix(-0.906249 0.422591 0.42259 0.906248 43.5718 80.4912)" stroke="#82644D" stroke-width="2" stroke-linecap="round"/>
<line x1="1" y1="-1" x2="13.1681" y2="-1" transform="matrix(-0.835897 0.545541 0.547488 0.838858 38.9214 70.5225)" stroke="#82644D" stroke-width="2" stroke-linecap="round"/>
<path d="M25.0562 74.2129L37.3459 70.703" stroke="#82644D" stroke-width="2" stroke-linecap="round"/>
<g opacity="0.8">
<path d="M0.113576 68.5512C0.183863 85.4092 14.9392 99.127 33.0705 99.1908C51.2018 99.2545 65.8431 85.6401 65.7728 68.7821C65.7431 61.6454 63.2051 51.404 58.7689 39.0387C58.0299 36.9788 55.3786 36.4416 53.6128 37.73C38.7843 48.5492 44.5832 12.042 32.6587 0.421653C14.5274 0.357888 0.0432881 51.6932 0.113576 68.5512Z" fill="#EF4444"/>
<path d="M11.9056 74.747C11.9528 86.0805 22.0374 95.3034 34.4301 95.347C46.8227 95.3906 56.8307 86.2383 56.7834 74.9048C56.7645 70.3729 55.8686 63.705 53.3431 55.9199C52.6735 53.8559 50.0357 53.419 47.9658 54.0907C37.1918 57.5868 30.9145 28.5083 25.0426 28.4877C21.5798 50.5321 11.8583 63.4135 11.9056 74.747Z" fill="#FACC15"/>
<path d="M51.958 29.0545C55.7475 29.7249 59.4675 26.2119 60.2667 21.2078C61.0005 16.6135 56.5023 13.439 56.1232 5.26415C56.0827 4.39034 55.0535 3.89017 54.4539 4.51734C51.942 7.14478 49.2096 11.3511 46.5435 18.7801C45.7442 23.7841 48.1684 28.3841 51.958 29.0545Z" fill="#EF4444"/>
<path d="M52.3768 26.3892C54.3491 26.7379 56.3506 24.5011 56.8473 21.3932C56.8652 21.2808 56.8789 21.1698 56.8886 21.0601C57.2256 17.2505 51.0722 16.0467 49.8606 19.6597C49.7933 19.8605 49.6863 20.2357 49.6602 20.4465C49.2906 23.4262 50.4716 26.0524 52.3768 26.3892Z" fill="#FACC15"/>
</g>
<g filter="url(#filter9_ii_1368_329473)">
<path d="M61 123C59.8954 123 59 122.105 59 121C59 119.895 59.8954 119 61 119L61 123ZM85 119L87 119L87 123L85 123L85 119ZM85 123L61 123L61 119L85 119L85 123Z" fill="#64748B"/>
</g>
<g filter="url(#filter10_ii_1368_329473)">
<path d="M48 122L63 122" stroke="#64748B" stroke-width="4" stroke-linecap="round"/>
</g>
<g filter="url(#filter11_ii_1368_329473)">
<path d="M72 144C70.8954 144 70 143.105 70 142C70 140.895 70.8954 140 72 140L72 144ZM85 140L87 140L87 144L85 144L85 140ZM85 144L72 144L72 140L85 140L85 144Z" fill="#64748B"/>
</g>
<g filter="url(#filter12_ii_1368_329473)">
<path d="M57 143L72 143" stroke="#64748B" stroke-width="4" stroke-linecap="round"/>
</g>
</g>
<defs>
<filter id="filter0_dii_1368_329473" x="83" y="396" width="46" height="138" filterUnits="userSpaceOnUse" color-interpolation-filters="sRGB">
<feFlood flood-opacity="0" result="BackgroundImageFix"/>
<feColorMatrix in="SourceAlpha" type="matrix" values="0 0 0 0 0 0 0 0 0 0 0 0 0 0 0 0 0 0 127 0" result="hardAlpha"/>
<feOffset dy="1"/>
<feComposite in2="hardAlpha" operator="out"/>
<feColorMatrix type="matrix" values="0 0 0 0 0 0 0 0 0 0 0 0 0 0 0 0 0 0 0.25 0"/>
<feBlend mode="normal" in2="BackgroundImageFix" result="effect1_dropShadow_1368_329473"/>
<feBlend mode="normal" in="SourceGraphic" in2="effect1_dropShadow_1368_329473" result="shape"/>
<feColorMatrix in="SourceAlpha" type="matrix" values="0 0 0 0 0 0 0 0 0 0 0 0 0 0 0 0 0 0 127 0" result="hardAlpha"/>
<feOffset dx="-1" dy="1"/>
<feComposite in2="hardAlpha" operator="arithmetic" k2="-1" k3="1"/>
<feColorMatrix type="matrix" values="0 0 0 0 1 0 0 0 0 1 0 0 0 0 1 0 0 0 0.15 0"/>
<feBlend mode="normal" in2="shape" result="effect2_innerShadow_1368_329473"/>
<feColorMatrix in="SourceAlpha" type="matrix" values="0 0 0 0 0 0 0 0 0 0 0 0 0 0 0 0 0 0 127 0" result="hardAlpha"/>
<feOffset dx="2" dy="2"/>
<feGaussianBlur stdDeviation="3"/>
<feComposite in2="hardAlpha" operator="arithmetic" k2="-1" k3="1"/>
<feColorMatrix type="matrix" values="0 0 0 0 0 0 0 0 0 0 0 0 0 0 0 0 0 0 0.1 0"/>
<feBlend mode="normal" in2="effect2_innerShadow_1368_329473" result="effect3_innerShadow_1368_329473"/>
</filter>
<filter id="filter1_ii_1368_329473" x="83" y="396" width="44" height="44" filterUnits="userSpaceOnUse" color-interpolation-filters="sRGB">
<feFlood flood-opacity="0" result="BackgroundImageFix"/>
<feBlend mode="normal" in="SourceGraphic" in2="BackgroundImageFix" result="shape"/>
<feColorMatrix in="SourceAlpha" type="matrix" values="0 0 0 0 0 0 0 0 0 0 0 0 0 0 0 0 0 0 127 0" result="hardAlpha"/>
<feOffset dx="-1" dy="-1"/>
<feComposite in2="hardAlpha" operator="arithmetic" k2="-1" k3="1"/>
<feColorMatrix type="matrix" values="0 0 0 0 1 0 0 0 0 1 0 0 0 0 1 0 0 0 0.15 0"/>
<feBlend mode="normal" in2="shape" result="effect1_innerShadow_1368_329473"/>
<feColorMatrix in="SourceAlpha" type="matrix" values="0 0 0 0 0 0 0 0 0 0 0 0 0 0 0 0 0 0 127 0" result="hardAlpha"/>
<feOffset dx="1"/>
<feComposite in2="hardAlpha" operator="arithmetic" k2="-1" k3="1"/>
<feColorMatrix type="matrix" values="0 0 0 0 0 0 0 0 0 0 0 0 0 0 0 0 0 0 0.15 0"/>
<feBlend mode="normal" in2="effect1_innerShadow_1368_329473" result="effect2_innerShadow_1368_329473"/>
</filter>
<filter id="filter2_ii_1368_329473" x="89" y="51" width="32" height="382" filterUnits="userSpaceOnUse" color-interpolation-filters="sRGB">
<feFlood flood-opacity="0" result="BackgroundImageFix"/>
<feBlend mode="normal" in="SourceGraphic" in2="BackgroundImageFix" result="shape"/>
<feColorMatrix in="SourceAlpha" type="matrix" values="0 0 0 0 0 0 0 0 0 0 0 0 0 0 0 0 0 0 127 0" result="hardAlpha"/>
<feOffset dx="-1" dy="1"/>
<feComposite in2="hardAlpha" operator="arithmetic" k2="-1" k3="1"/>
<feColorMatrix type="matrix" values="0 0 0 0 1 0 0 0 0 1 0 0 0 0 1 0 0 0 0.15 0"/>
<feBlend mode="normal" in2="shape" result="effect1_innerShadow_1368_329473"/>
<feColorMatrix in="SourceAlpha" type="matrix" values="0 0 0 0 0 0 0 0 0 0 0 0 0 0 0 0 0 0 127 0" result="hardAlpha"/>
<feOffset dx="2" dy="2"/>
<feComposite in2="hardAlpha" operator="arithmetic" k2="-1" k3="1"/>
<feColorMatrix type="matrix" values="0 0 0 0 0 0 0 0 0 0 0 0 0 0 0 0 0 0 0.15 0"/>
<feBlend mode="normal" in2="effect1_innerShadow_1368_329473" result="effect2_innerShadow_1368_329473"/>
</filter>
<filter id="filter3_ii_1368_329473" x="89" y="51" width="32" height="32" filterUnits="userSpaceOnUse" color-interpolation-filters="sRGB">
<feFlood flood-opacity="0" result="BackgroundImageFix"/>
<feBlend mode="normal" in="SourceGraphic" in2="BackgroundImageFix" result="shape"/>
<feColorMatrix in="SourceAlpha" type="matrix" values="0 0 0 0 0 0 0 0 0 0 0 0 0 0 0 0 0 0 127 0" result="hardAlpha"/>
<feOffset dx="-1" dy="-1"/>
<feComposite in2="hardAlpha" operator="arithmetic" k2="-1" k3="1"/>
<feColorMatrix type="matrix" values="0 0 0 0 1 0 0 0 0 1 0 0 0 0 1 0 0 0 0.15 0"/>
<feBlend mode="normal" in2="shape" result="effect1_innerShadow_1368_329473"/>
<feColorMatrix in="SourceAlpha" type="matrix" values="0 0 0 0 0 0 0 0 0 0 0 0 0 0 0 0 0 0 127 0" result="hardAlpha"/>
<feOffset dx="2"/>
<feComposite in2="hardAlpha" operator="arithmetic" k2="-1" k3="1"/>
<feColorMatrix type="matrix" values="0 0 0 0 0 0 0 0 0 0 0 0 0 0 0 0 0 0 0.15 0"/>
<feBlend mode="normal" in2="effect1_innerShadow_1368_329473" result="effect2_innerShadow_1368_329473"/>
</filter>
<filter id="filter4_i_1368_329473" x="87.0039" y="113" width="36" height="40" filterUnits="userSpaceOnUse" color-interpolation-filters="sRGB">
<feFlood flood-opacity="0" result="BackgroundImageFix"/>
<feBlend mode="normal" in="SourceGraphic" in2="BackgroundImageFix" result="shape"/>
<feColorMatrix in="SourceAlpha" type="matrix" values="0 0 0 0 0 0 0 0 0 0 0 0 0 0 0 0 0 0 127 0" result="hardAlpha"/>
<feOffset/>
<feGaussianBlur stdDeviation="2"/>
<feComposite in2="hardAlpha" operator="arithmetic" k2="-1" k3="1"/>
<feColorMatrix type="matrix" values="0 0 0 0 0 0 0 0 0 0 0 0 0 0 0 0 0 0 0.25 0"/>
<feBlend mode="normal" in2="shape" result="effect1_innerShadow_1368_329473"/>
</filter>
<filter id="filter5_ii_1368_329473" x="55" y="138" width="19" height="8" filterUnits="userSpaceOnUse" color-interpolation-filters="sRGB">
<feFlood flood-opacity="0" result="BackgroundImageFix"/>
<feBlend mode="normal" in="SourceGraphic" in2="BackgroundImageFix" result="shape"/>
<feColorMatrix in="SourceAlpha" type="matrix" values="0 0 0 0 0 0 0 0 0 0 0 0 0 0 0 0 0 0 127 0" result="hardAlpha"/>
<feOffset dy="3"/>
<feGaussianBlur stdDeviation="2"/>
<feComposite in2="hardAlpha" operator="arithmetic" k2="-1" k3="1"/>
<feColorMatrix type="matrix" values="0 0 0 0 1 0 0 0 0 1 0 0 0 0 1 0 0 0 0.25 0"/>
<feBlend mode="normal" in2="shape" result="effect1_innerShadow_1368_329473"/>
<feColorMatrix in="SourceAlpha" type="matrix" values="0 0 0 0 0 0 0 0 0 0 0 0 0 0 0 0 0 0 127 0" result="hardAlpha"/>
<feOffset dy="-2"/>
<feGaussianBlur stdDeviation="0.5"/>
<feComposite in2="hardAlpha" operator="arithmetic" k2="-1" k3="1"/>
<feColorMatrix type="matrix" values="0 0 0 0 0 0 0 0 0 0 0 0 0 0 0 0 0 0 0.25 0"/>
<feBlend mode="normal" in2="effect1_innerShadow_1368_329473" result="effect2_innerShadow_1368_329473"/>
</filter>
<filter id="filter6_ii_1368_329473" x="46" y="117" width="19" height="8" filterUnits="userSpaceOnUse" color-interpolation-filters="sRGB">
<feFlood flood-opacity="0" result="BackgroundImageFix"/>
<feBlend mode="normal" in="SourceGraphic" in2="BackgroundImageFix" result="shape"/>
<feColorMatrix in="SourceAlpha" type="matrix" values="0 0 0 0 0 0 0 0 0 0 0 0 0 0 0 0 0 0 127 0" result="hardAlpha"/>
<feOffset dy="3"/>
<feGaussianBlur stdDeviation="2"/>
<feComposite in2="hardAlpha" operator="arithmetic" k2="-1" k3="1"/>
<feColorMatrix type="matrix" values="0 0 0 0 1 0 0 0 0 1 0 0 0 0 1 0 0 0 0.25 0"/>
<feBlend mode="normal" in2="shape" result="effect1_innerShadow_1368_329473"/>
<feColorMatrix in="SourceAlpha" type="matrix" values="0 0 0 0 0 0 0 0 0 0 0 0 0 0 0 0 0 0 127 0" result="hardAlpha"/>
<feOffset dy="-2"/>
<feGaussianBlur stdDeviation="0.5"/>
<feComposite in2="hardAlpha" operator="arithmetic" k2="-1" k3="1"/>
<feColorMatrix type="matrix" values="0 0 0 0 0 0 0 0 0 0 0 0 0 0 0 0 0 0 0.25 0"/>
<feBlend mode="normal" in2="effect1_innerShadow_1368_329473" result="effect2_innerShadow_1368_329473"/>
</filter>
<filter id="filter7_i_1368_329473" x="25.1963" y="62.2285" width="58.7163" height="116.76" filterUnits="userSpaceOnUse" color-interpolation-filters="sRGB">
<feFlood flood-opacity="0" result="BackgroundImageFix"/>
<feBlend mode="normal" in="SourceGraphic" in2="BackgroundImageFix" result="shape"/>
<feColorMatrix in="SourceAlpha" type="matrix" values="0 0 0 0 0 0 0 0 0 0 0 0 0 0 0 0 0 0 127 0" result="hardAlpha"/>
<feOffset dx="-2" dy="-2"/>
<feComposite in2="hardAlpha" operator="arithmetic" k2="-1" k3="1"/>
<feColorMatrix type="matrix" values="0 0 0 0 0 0 0 0 0 0 0 0 0 0 0 0 0 0 0.15 0"/>
<feBlend mode="normal" in2="shape" result="effect1_innerShadow_1368_329473"/>
</filter>
<filter id="filter8_i_1368_329473" x="21.041" y="56.04" width="23.7651" height="34.5049" filterUnits="userSpaceOnUse" color-interpolation-filters="sRGB">
<feFlood flood-opacity="0" result="BackgroundImageFix"/>
<feBlend mode="normal" in="SourceGraphic" in2="BackgroundImageFix" result="shape"/>
<feColorMatrix in="SourceAlpha" type="matrix" values="0 0 0 0 0 0 0 0 0 0 0 0 0 0 0 0 0 0 127 0" result="hardAlpha"/>
<feOffset dx="-1" dy="-4"/>
<feGaussianBlur stdDeviation="3"/>
<feComposite in2="hardAlpha" operator="arithmetic" k2="-1" k3="1"/>
<feColorMatrix type="matrix" values="0 0 0 0 0 0 0 0 0 0 0 0 0 0 0 0 0 0 0.2 0"/>
<feBlend mode="normal" in2="shape" result="effect1_innerShadow_1368_329473"/>
</filter>
<filter id="filter9_ii_1368_329473" x="59" y="118" width="28" height="8" filterUnits="userSpaceOnUse" color-interpolation-filters="sRGB">
<feFlood flood-opacity="0" result="BackgroundImageFix"/>
<feBlend mode="normal" in="SourceGraphic" in2="BackgroundImageFix" result="shape"/>
<feColorMatrix in="SourceAlpha" type="matrix" values="0 0 0 0 0 0 0 0 0 0 0 0 0 0 0 0 0 0 127 0" result="hardAlpha"/>
<feOffset dy="3"/>
<feGaussianBlur stdDeviation="2"/>
<feComposite in2="hardAlpha" operator="arithmetic" k2="-1" k3="1"/>
<feColorMatrix type="matrix" values="0 0 0 0 1 0 0 0 0 1 0 0 0 0 1 0 0 0 0.25 0"/>
<feBlend mode="normal" in2="shape" result="effect1_innerShadow_1368_329473"/>
<feColorMatrix in="SourceAlpha" type="matrix" values="0 0 0 0 0 0 0 0 0 0 0 0 0 0 0 0 0 0 127 0" result="hardAlpha"/>
<feOffset dy="-2"/>
<feGaussianBlur stdDeviation="0.5"/>
<feComposite in2="hardAlpha" operator="arithmetic" k2="-1" k3="1"/>
<feColorMatrix type="matrix" values="0 0 0 0 0 0 0 0 0 0 0 0 0 0 0 0 0 0 0.25 0"/>
<feBlend mode="normal" in2="effect1_innerShadow_1368_329473" result="effect2_innerShadow_1368_329473"/>
</filter>
<filter id="filter10_ii_1368_329473" x="46" y="119" width="19" height="8" filterUnits="userSpaceOnUse" color-interpolation-filters="sRGB">
<feFlood flood-opacity="0" result="BackgroundImageFix"/>
<feBlend mode="normal" in="SourceGraphic" in2="BackgroundImageFix" result="shape"/>
<feColorMatrix in="SourceAlpha" type="matrix" values="0 0 0 0 0 0 0 0 0 0 0 0 0 0 0 0 0 0 127 0" result="hardAlpha"/>
<feOffset dy="3"/>
<feGaussianBlur stdDeviation="2"/>
<feComposite in2="hardAlpha" operator="arithmetic" k2="-1" k3="1"/>
<feColorMatrix type="matrix" values="0 0 0 0 1 0 0 0 0 1 0 0 0 0 1 0 0 0 0.25 0"/>
<feBlend mode="normal" in2="shape" result="effect1_innerShadow_1368_329473"/>
<feColorMatrix in="SourceAlpha" type="matrix" values="0 0 0 0 0 0 0 0 0 0 0 0 0 0 0 0 0 0 127 0" result="hardAlpha"/>
<feOffset dy="-2"/>
<feGaussianBlur stdDeviation="0.5"/>
<feComposite in2="hardAlpha" operator="arithmetic" k2="-1" k3="1"/>
<feColorMatrix type="matrix" values="0 0 0 0 0 0 0 0 0 0 0 0 0 0 0 0 0 0 0.25 0"/>
<feBlend mode="normal" in2="effect1_innerShadow_1368_329473" result="effect2_innerShadow_1368_329473"/>
</filter>
<filter id="filter11_ii_1368_329473" x="70" y="139" width="17" height="8" filterUnits="userSpaceOnUse" color-interpolation-filters="sRGB">
<feFlood flood-opacity="0" result="BackgroundImageFix"/>
<feBlend mode="normal" in="SourceGraphic" in2="BackgroundImageFix" result="shape"/>
<feColorMatrix in="SourceAlpha" type="matrix" values="0 0 0 0 0 0 0 0 0 0 0 0 0 0 0 0 0 0 127 0" result="hardAlpha"/>
<feOffset dy="3"/>
<feGaussianBlur stdDeviation="2"/>
<feComposite in2="hardAlpha" operator="arithmetic" k2="-1" k3="1"/>
<feColorMatrix type="matrix" values="0 0 0 0 1 0 0 0 0 1 0 0 0 0 1 0 0 0 0.25 0"/>
<feBlend mode="normal" in2="shape" result="effect1_innerShadow_1368_329473"/>
<feColorMatrix in="SourceAlpha" type="matrix" values="0 0 0 0 0 0 0 0 0 0 0 0 0 0 0 0 0 0 127 0" result="hardAlpha"/>
<feOffset dy="-2"/>
<feGaussianBlur stdDeviation="0.5"/>
<feComposite in2="hardAlpha" operator="arithmetic" k2="-1" k3="1"/>
<feColorMatrix type="matrix" values="0 0 0 0 0 0 0 0 0 0 0 0 0 0 0 0 0 0 0.25 0"/>
<feBlend mode="normal" in2="effect1_innerShadow_1368_329473" result="effect2_innerShadow_1368_329473"/>
</filter>
<filter id="filter12_ii_1368_329473" x="55" y="140" width="19" height="8" filterUnits="userSpaceOnUse" color-interpolation-filters="sRGB">
<feFlood flood-opacity="0" result="BackgroundImageFix"/>
<feBlend mode="normal" in="SourceGraphic" in2="BackgroundImageFix" result="shape"/>
<feColorMatrix in="SourceAlpha" type="matrix" values="0 0 0 0 0 0 0 0 0 0 0 0 0 0 0 0 0 0 127 0" result="hardAlpha"/>
<feOffset dy="3"/>
<feGaussianBlur stdDeviation="2"/>
<feComposite in2="hardAlpha" operator="arithmetic" k2="-1" k3="1"/>
<feColorMatrix type="matrix" values="0 0 0 0 1 0 0 0 0 1 0 0 0 0 1 0 0 0 0.25 0"/>
<feBlend mode="normal" in2="shape" result="effect1_innerShadow_1368_329473"/>
<feColorMatrix in="SourceAlpha" type="matrix" values="0 0 0 0 0 0 0 0 0 0 0 0 0 0 0 0 0 0 127 0" result="hardAlpha"/>
<feOffset dy="-2"/>
<feGaussianBlur stdDeviation="0.5"/>
<feComposite in2="hardAlpha" operator="arithmetic" k2="-1" k3="1"/>
<feColorMatrix type="matrix" values="0 0 0 0 0 0 0 0 0 0 0 0 0 0 0 0 0 0 0.25 0"/>
<feBlend mode="normal" in2="effect1_innerShadow_1368_329473" result="effect2_innerShadow_1368_329473"/>
</filter>
<clipPath id="clip0_1368_329473">
<rect width="135" height="541" fill="white" transform="matrix(-1 0 0 1 135 0)"/>
</clipPath>
</defs>
</svg>
