<svg width="135" height="541" viewBox="0 0 135 541" fill="none" xmlns="http://www.w3.org/2000/svg">
<g clip-path="url(#clip0_1368_329474)">
<rect y="481" width="60" height="60" rx="8" fill="black" fill-opacity="0.12"/>
<rect x="6" y="487" width="48" height="48" rx="4" fill="black" fill-opacity="0.2"/>
<g filter="url(#filter0_dii_1368_329474)">
<rect x="8" y="396" width="44" height="136" rx="4" fill="#82644D"/>
</g>
<g filter="url(#filter1_ii_1368_329474)">
<rect x="8" y="396" width="44" height="44" rx="4" fill="#9A7858"/>
</g>
<path opacity="0.2" d="M34 470.078C34 473.994 33.1287 478.182 31.2581 478.182C29.3874 478.182 29 475.007 29 471.091C29 467.175 29.3874 464 31.2581 464C33.1287 464 34 466.162 34 470.078Z" fill="#1C1917"/>
<path opacity="0.2" d="M27 497.194C27 499.604 26.1287 502.181 24.2581 502.181C22.3874 502.181 22 500.228 22 497.818C22 495.408 22.3874 493.454 24.2581 493.454C26.1287 493.454 27 494.784 27 497.194Z" fill="white"/>
<path d="M12 113H48L48 86C48 84.8954 47.1046 84 46 84H14C12.8954 84 12 84.8954 12 86L12 113Z" fill="#64748B"/>
<g filter="url(#filter2_ii_1368_329474)">
<rect x="14" y="51" width="32" height="382" rx="4" fill="#82644D"/>
</g>
<mask id="mask0_1368_329474" style="mask-type:alpha" maskUnits="userSpaceOnUse" x="14" y="83" width="32" height="350">
<rect x="14" y="83" width="32" height="350" rx="4" fill="#854D0E"/>
</mask>
<g mask="url(#mask0_1368_329474)">
<path opacity="0.2" d="M31 137.775C31 141.912 30.1287 146.335 28.2581 146.335C26.3874 146.335 26 142.982 26 138.845C26 134.709 26.3874 131.355 28.2581 131.355C30.1287 131.355 31 133.639 31 137.775Z" fill="#1C1917"/>
<path opacity="0.2" d="M31 91.5191C31 94.0646 30.1287 96.7866 28.2581 96.7866C26.3874 96.7866 26 94.7231 26 92.1775C26 89.6319 26.3874 87.5684 28.2581 87.5684C30.1287 87.5684 31 88.9735 31 91.5191Z" fill="#1C1917"/>
<path opacity="0.2" d="M33 256.64C33 260.743 32.303 265.131 30.8065 265.131C29.3099 265.131 29 261.805 29 257.701C29 253.598 29.3099 250.271 30.8065 250.271C32.303 250.271 33 252.537 33 256.64Z" fill="white"/>
<path opacity="0.2" d="M38 294.362C38 298.465 37.1287 302.853 35.2581 302.853C33.3874 302.853 33 299.527 33 295.423C33 291.32 33.3874 287.993 35.2581 287.993C37.1287 287.993 38 290.258 38 294.362Z" fill="#1C1917"/>
<path opacity="0.2" d="M31 233.615C31 236.141 30.1287 238.841 28.2581 238.841C26.3874 238.841 26 236.794 26 234.269C26 231.743 26.3874 229.696 28.2581 229.696C30.1287 229.696 31 231.09 31 233.615Z" fill="#1C1917"/>
<path opacity="0.2" d="M31 322.775C31 325.3 30.1287 328 28.2581 328C26.3874 328 26 325.953 26 323.428C26 320.903 26.3874 318.855 28.2581 318.855C30.1287 318.855 31 320.249 31 322.775Z" fill="white"/>
<path opacity="0.15" d="M23 153.886C23 156.735 23.697 159.782 25.1935 159.782C26.6901 159.782 27 157.472 27 154.623C27 151.774 26.6901 149.464 25.1935 149.464C23.697 149.464 23 151.037 23 153.886Z" fill="white"/>
<path opacity="0.2" d="M32 204.685C32 207.534 32.8713 210.581 34.7419 210.581C36.6126 210.581 37 208.271 37 205.422C37 202.573 36.6126 200.263 34.7419 200.263C32.8713 200.263 32 201.836 32 204.685Z" fill="#1C1917"/>
<path opacity="0.2" d="M32 172.822C32 174.575 32.8713 176.45 34.7419 176.45C36.6126 176.45 37 175.029 37 173.275C37 171.522 36.6126 170.101 34.7419 170.101C32.8713 170.101 32 171.068 32 172.822Z" fill="#1C1917"/>
</g>
<g filter="url(#filter3_ii_1368_329474)">
<rect x="14" y="51" width="32" height="32" rx="4" fill="#9A7858"/>
</g>
<g filter="url(#filter4_i_1368_329474)">
<path d="M11.9961 151C11.9961 152.105 12.8915 153 13.9961 153H45.9961C47.1007 153 47.9961 152.105 47.9961 151L47.9961 113H11.9961L11.9961 151Z" fill="#475569"/>
</g>
<path d="M12 113C12 114.105 12.8954 115 14 115H46C47.1046 115 48 114.105 48 113H12Z" fill="#64748B"/>
<g filter="url(#filter5_ii_1368_329474)">
<path d="M78 141L63 141" stroke="#64748B" stroke-width="4" stroke-linecap="round"/>
</g>
<g filter="url(#filter6_ii_1368_329474)">
<path d="M87 120L72 120" stroke="#64748B" stroke-width="4" stroke-linecap="round"/>
</g>
<g opacity="0.8">
<path d="M134.906 68.5344C134.841 85.3882 120.083 99.1081 101.944 99.1786C83.8049 99.2491 69.1535 85.6435 69.219 68.7897C69.2468 61.6545 71.7831 51.414 76.218 39.0494C76.9567 36.9901 79.6071 36.4519 81.3731 37.739C96.214 48.5557 90.4009 12.0564 102.328 0.433877C120.467 0.36338 134.972 51.6805 134.906 68.5344Z" fill="#FB923C"/>
<path d="M123.107 74.7354C123.063 86.0661 112.977 95.2904 100.579 95.3386C88.1812 95.3868 78.1665 86.2405 78.2106 74.9099C78.2282 70.3788 79.1227 63.7116 81.6475 55.9269C82.3167 53.8635 84.9535 53.4254 87.023 54.0967C97.8043 57.5943 104.077 28.5154 109.952 28.4926C113.422 50.5301 123.151 63.4047 123.107 74.7354Z" fill="#FACC15"/>
<path d="M83.0454 29.0521C79.2575 29.7239 75.5379 26.2126 74.7376 21.2095C74.0028 16.6162 78.4981 13.4405 78.8749 5.26714C78.9152 4.39325 79.9446 3.89269 80.5443 4.51978C83.0558 7.14602 85.788 11.3507 88.455 18.7769C89.2553 23.78 86.8334 28.3804 83.0454 29.0521Z" fill="#FB923C"/>
<path d="M82.6254 26.389C80.654 26.7384 78.6527 24.5026 78.1553 21.3952C78.1373 21.2828 78.1236 21.172 78.1139 21.0624C77.7758 17.2543 83.927 16.0482 85.1388 19.6596C85.2061 19.8602 85.313 20.235 85.3392 20.4456C85.7096 23.4249 84.5297 26.0515 82.6254 26.389Z" fill="#FACC15"/>
</g>
<g filter="url(#filter7_i_1368_329474)">
<path fill-rule="evenodd" clip-rule="evenodd" d="M107.493 62.6042C109.495 63.5379 110.362 65.9178 109.428 67.9199L58.7136 176.677C57.78 178.679 55.4 179.546 53.3979 178.612C51.3957 177.678 50.5295 175.299 51.4631 173.296L102.178 64.539C103.111 62.5368 105.491 61.6706 107.493 62.6042Z" fill="#82644D"/>
</g>
<g filter="url(#filter8_i_1368_329474)">
<line x1="104.958" y1="68.0419" x2="98.1953" y2="82.5437" stroke="#9A7858" stroke-width="16" stroke-linecap="round"/>
</g>
<line x1="1" y1="-1" x2="13.118" y2="-1" transform="matrix(0.958605 0.290696 -0.289646 0.955218 92.6978 77.7725)" stroke="#82644D" stroke-width="2" stroke-linecap="round"/>
<line x1="99.9426" y1="64.6003" x2="110.819" y2="69.6721" stroke="#82644D" stroke-width="2" stroke-linecap="round"/>
<line x1="92.7571" y1="80.0076" x2="103.633" y2="85.0793" stroke="#82644D" stroke-width="2" stroke-linecap="round"/>
<line x1="1" y1="-1" x2="13.1681" y2="-1" transform="matrix(0.835897 0.545541 -0.547488 0.838858 96.0786 70.5225)" stroke="#82644D" stroke-width="2" stroke-linecap="round"/>
<path d="M109.944 74.2129L97.6541 70.703" stroke="#82644D" stroke-width="2" stroke-linecap="round"/>
<g opacity="0.8">
<path d="M134.886 68.5512C134.816 85.4092 120.061 99.127 101.93 99.1908C83.7982 99.2545 69.1569 85.6401 69.2272 68.7821C69.2569 61.6454 71.7949 51.404 76.2311 39.0387C76.9701 36.9788 79.6214 36.4416 81.3872 37.73C96.2157 48.5492 90.4168 12.042 102.341 0.421653C120.473 0.357888 134.957 51.6932 134.886 68.5512Z" fill="#EF4444"/>
<path d="M123.094 74.747C123.047 86.0805 112.963 95.3034 100.57 95.347C88.1773 95.3906 78.1693 86.2383 78.2166 74.9048C78.2355 70.3729 79.1314 63.705 81.6569 55.9199C82.3265 53.8559 84.9643 53.419 87.0342 54.0907C97.8082 57.5868 104.085 28.5083 109.957 28.4877C113.42 50.5321 123.142 63.4135 123.094 74.747Z" fill="#FACC15"/>
<path d="M83.042 29.0545C79.2525 29.7249 75.5325 26.2119 74.7333 21.2078C73.9995 16.6135 78.4977 13.439 78.8768 5.26415C78.9173 4.39034 79.9465 3.89017 80.5461 4.51734C83.058 7.14478 85.7904 11.3511 88.4565 18.7801C89.2558 23.7841 86.8316 28.3841 83.042 29.0545Z" fill="#EF4444"/>
<path d="M82.6232 26.3892C80.6509 26.7379 78.6494 24.5011 78.1527 21.3932C78.1348 21.2808 78.1211 21.1698 78.1114 21.0601C77.7744 17.2505 83.9278 16.0467 85.1394 19.6597C85.2067 19.8605 85.3137 20.2357 85.3398 20.4465C85.7094 23.4262 84.5284 26.0524 82.6232 26.3892Z" fill="#FACC15"/>
</g>
<g filter="url(#filter9_ii_1368_329474)">
<path d="M74 123C75.1046 123 76 122.105 76 121C76 119.895 75.1046 119 74 119L74 123ZM50 119L48 119L48 123L50 123L50 119ZM50 123L74 123L74 119L50 119L50 123Z" fill="#64748B"/>
</g>
<g filter="url(#filter10_ii_1368_329474)">
<path d="M87 122L72 122" stroke="#64748B" stroke-width="4" stroke-linecap="round"/>
</g>
<g filter="url(#filter11_ii_1368_329474)">
<path d="M63 144C64.1046 144 65 143.105 65 142C65 140.895 64.1046 140 63 140L63 144ZM50 140L48 140L48 144L50 144L50 140ZM50 144L63 144L63 140L50 140L50 144Z" fill="#64748B"/>
</g>
<g filter="url(#filter12_ii_1368_329474)">
<path d="M78 143L63 143" stroke="#64748B" stroke-width="4" stroke-linecap="round"/>
</g>
</g>
<defs>
<filter id="filter0_dii_1368_329474" x="8" y="396" width="46" height="138" filterUnits="userSpaceOnUse" color-interpolation-filters="sRGB">
<feFlood flood-opacity="0" result="BackgroundImageFix"/>
<feColorMatrix in="SourceAlpha" type="matrix" values="0 0 0 0 0 0 0 0 0 0 0 0 0 0 0 0 0 0 127 0" result="hardAlpha"/>
<feOffset dy="1"/>
<feComposite in2="hardAlpha" operator="out"/>
<feColorMatrix type="matrix" values="0 0 0 0 0 0 0 0 0 0 0 0 0 0 0 0 0 0 0.25 0"/>
<feBlend mode="normal" in2="BackgroundImageFix" result="effect1_dropShadow_1368_329474"/>
<feBlend mode="normal" in="SourceGraphic" in2="effect1_dropShadow_1368_329474" result="shape"/>
<feColorMatrix in="SourceAlpha" type="matrix" values="0 0 0 0 0 0 0 0 0 0 0 0 0 0 0 0 0 0 127 0" result="hardAlpha"/>
<feOffset dx="-1" dy="1"/>
<feComposite in2="hardAlpha" operator="arithmetic" k2="-1" k3="1"/>
<feColorMatrix type="matrix" values="0 0 0 0 1 0 0 0 0 1 0 0 0 0 1 0 0 0 0.15 0"/>
<feBlend mode="normal" in2="shape" result="effect2_innerShadow_1368_329474"/>
<feColorMatrix in="SourceAlpha" type="matrix" values="0 0 0 0 0 0 0 0 0 0 0 0 0 0 0 0 0 0 127 0" result="hardAlpha"/>
<feOffset dx="2" dy="2"/>
<feGaussianBlur stdDeviation="3"/>
<feComposite in2="hardAlpha" operator="arithmetic" k2="-1" k3="1"/>
<feColorMatrix type="matrix" values="0 0 0 0 0 0 0 0 0 0 0 0 0 0 0 0 0 0 0.1 0"/>
<feBlend mode="normal" in2="effect2_innerShadow_1368_329474" result="effect3_innerShadow_1368_329474"/>
</filter>
<filter id="filter1_ii_1368_329474" x="8" y="396" width="44" height="44" filterUnits="userSpaceOnUse" color-interpolation-filters="sRGB">
<feFlood flood-opacity="0" result="BackgroundImageFix"/>
<feBlend mode="normal" in="SourceGraphic" in2="BackgroundImageFix" result="shape"/>
<feColorMatrix in="SourceAlpha" type="matrix" values="0 0 0 0 0 0 0 0 0 0 0 0 0 0 0 0 0 0 127 0" result="hardAlpha"/>
<feOffset dx="-1" dy="-1"/>
<feComposite in2="hardAlpha" operator="arithmetic" k2="-1" k3="1"/>
<feColorMatrix type="matrix" values="0 0 0 0 1 0 0 0 0 1 0 0 0 0 1 0 0 0 0.15 0"/>
<feBlend mode="normal" in2="shape" result="effect1_innerShadow_1368_329474"/>
<feColorMatrix in="SourceAlpha" type="matrix" values="0 0 0 0 0 0 0 0 0 0 0 0 0 0 0 0 0 0 127 0" result="hardAlpha"/>
<feOffset dx="1"/>
<feComposite in2="hardAlpha" operator="arithmetic" k2="-1" k3="1"/>
<feColorMatrix type="matrix" values="0 0 0 0 0 0 0 0 0 0 0 0 0 0 0 0 0 0 0.15 0"/>
<feBlend mode="normal" in2="effect1_innerShadow_1368_329474" result="effect2_innerShadow_1368_329474"/>
</filter>
<filter id="filter2_ii_1368_329474" x="14" y="51" width="32" height="382" filterUnits="userSpaceOnUse" color-interpolation-filters="sRGB">
<feFlood flood-opacity="0" result="BackgroundImageFix"/>
<feBlend mode="normal" in="SourceGraphic" in2="BackgroundImageFix" result="shape"/>
<feColorMatrix in="SourceAlpha" type="matrix" values="0 0 0 0 0 0 0 0 0 0 0 0 0 0 0 0 0 0 127 0" result="hardAlpha"/>
<feOffset dx="-1" dy="1"/>
<feComposite in2="hardAlpha" operator="arithmetic" k2="-1" k3="1"/>
<feColorMatrix type="matrix" values="0 0 0 0 1 0 0 0 0 1 0 0 0 0 1 0 0 0 0.15 0"/>
<feBlend mode="normal" in2="shape" result="effect1_innerShadow_1368_329474"/>
<feColorMatrix in="SourceAlpha" type="matrix" values="0 0 0 0 0 0 0 0 0 0 0 0 0 0 0 0 0 0 127 0" result="hardAlpha"/>
<feOffset dx="2" dy="2"/>
<feComposite in2="hardAlpha" operator="arithmetic" k2="-1" k3="1"/>
<feColorMatrix type="matrix" values="0 0 0 0 0 0 0 0 0 0 0 0 0 0 0 0 0 0 0.15 0"/>
<feBlend mode="normal" in2="effect1_innerShadow_1368_329474" result="effect2_innerShadow_1368_329474"/>
</filter>
<filter id="filter3_ii_1368_329474" x="14" y="51" width="32" height="32" filterUnits="userSpaceOnUse" color-interpolation-filters="sRGB">
<feFlood flood-opacity="0" result="BackgroundImageFix"/>
<feBlend mode="normal" in="SourceGraphic" in2="BackgroundImageFix" result="shape"/>
<feColorMatrix in="SourceAlpha" type="matrix" values="0 0 0 0 0 0 0 0 0 0 0 0 0 0 0 0 0 0 127 0" result="hardAlpha"/>
<feOffset dx="-1" dy="-1"/>
<feComposite in2="hardAlpha" operator="arithmetic" k2="-1" k3="1"/>
<feColorMatrix type="matrix" values="0 0 0 0 1 0 0 0 0 1 0 0 0 0 1 0 0 0 0.15 0"/>
<feBlend mode="normal" in2="shape" result="effect1_innerShadow_1368_329474"/>
<feColorMatrix in="SourceAlpha" type="matrix" values="0 0 0 0 0 0 0 0 0 0 0 0 0 0 0 0 0 0 127 0" result="hardAlpha"/>
<feOffset dx="2"/>
<feComposite in2="hardAlpha" operator="arithmetic" k2="-1" k3="1"/>
<feColorMatrix type="matrix" values="0 0 0 0 0 0 0 0 0 0 0 0 0 0 0 0 0 0 0.15 0"/>
<feBlend mode="normal" in2="effect1_innerShadow_1368_329474" result="effect2_innerShadow_1368_329474"/>
</filter>
<filter id="filter4_i_1368_329474" x="11.9961" y="113" width="36" height="40" filterUnits="userSpaceOnUse" color-interpolation-filters="sRGB">
<feFlood flood-opacity="0" result="BackgroundImageFix"/>
<feBlend mode="normal" in="SourceGraphic" in2="BackgroundImageFix" result="shape"/>
<feColorMatrix in="SourceAlpha" type="matrix" values="0 0 0 0 0 0 0 0 0 0 0 0 0 0 0 0 0 0 127 0" result="hardAlpha"/>
<feOffset/>
<feGaussianBlur stdDeviation="2"/>
<feComposite in2="hardAlpha" operator="arithmetic" k2="-1" k3="1"/>
<feColorMatrix type="matrix" values="0 0 0 0 0 0 0 0 0 0 0 0 0 0 0 0 0 0 0.25 0"/>
<feBlend mode="normal" in2="shape" result="effect1_innerShadow_1368_329474"/>
</filter>
<filter id="filter5_ii_1368_329474" x="61" y="138" width="19" height="8" filterUnits="userSpaceOnUse" color-interpolation-filters="sRGB">
<feFlood flood-opacity="0" result="BackgroundImageFix"/>
<feBlend mode="normal" in="SourceGraphic" in2="BackgroundImageFix" result="shape"/>
<feColorMatrix in="SourceAlpha" type="matrix" values="0 0 0 0 0 0 0 0 0 0 0 0 0 0 0 0 0 0 127 0" result="hardAlpha"/>
<feOffset dy="3"/>
<feGaussianBlur stdDeviation="2"/>
<feComposite in2="hardAlpha" operator="arithmetic" k2="-1" k3="1"/>
<feColorMatrix type="matrix" values="0 0 0 0 1 0 0 0 0 1 0 0 0 0 1 0 0 0 0.25 0"/>
<feBlend mode="normal" in2="shape" result="effect1_innerShadow_1368_329474"/>
<feColorMatrix in="SourceAlpha" type="matrix" values="0 0 0 0 0 0 0 0 0 0 0 0 0 0 0 0 0 0 127 0" result="hardAlpha"/>
<feOffset dy="-2"/>
<feGaussianBlur stdDeviation="0.5"/>
<feComposite in2="hardAlpha" operator="arithmetic" k2="-1" k3="1"/>
<feColorMatrix type="matrix" values="0 0 0 0 0 0 0 0 0 0 0 0 0 0 0 0 0 0 0.25 0"/>
<feBlend mode="normal" in2="effect1_innerShadow_1368_329474" result="effect2_innerShadow_1368_329474"/>
</filter>
<filter id="filter6_ii_1368_329474" x="70" y="117" width="19" height="8" filterUnits="userSpaceOnUse" color-interpolation-filters="sRGB">
<feFlood flood-opacity="0" result="BackgroundImageFix"/>
<feBlend mode="normal" in="SourceGraphic" in2="BackgroundImageFix" result="shape"/>
<feColorMatrix in="SourceAlpha" type="matrix" values="0 0 0 0 0 0 0 0 0 0 0 0 0 0 0 0 0 0 127 0" result="hardAlpha"/>
<feOffset dy="3"/>
<feGaussianBlur stdDeviation="2"/>
<feComposite in2="hardAlpha" operator="arithmetic" k2="-1" k3="1"/>
<feColorMatrix type="matrix" values="0 0 0 0 1 0 0 0 0 1 0 0 0 0 1 0 0 0 0.25 0"/>
<feBlend mode="normal" in2="shape" result="effect1_innerShadow_1368_329474"/>
<feColorMatrix in="SourceAlpha" type="matrix" values="0 0 0 0 0 0 0 0 0 0 0 0 0 0 0 0 0 0 127 0" result="hardAlpha"/>
<feOffset dy="-2"/>
<feGaussianBlur stdDeviation="0.5"/>
<feComposite in2="hardAlpha" operator="arithmetic" k2="-1" k3="1"/>
<feColorMatrix type="matrix" values="0 0 0 0 0 0 0 0 0 0 0 0 0 0 0 0 0 0 0.25 0"/>
<feBlend mode="normal" in2="effect1_innerShadow_1368_329474" result="effect2_innerShadow_1368_329474"/>
</filter>
<filter id="filter7_i_1368_329474" x="51.0874" y="62.2285" width="58.7163" height="116.76" filterUnits="userSpaceOnUse" color-interpolation-filters="sRGB">
<feFlood flood-opacity="0" result="BackgroundImageFix"/>
<feBlend mode="normal" in="SourceGraphic" in2="BackgroundImageFix" result="shape"/>
<feColorMatrix in="SourceAlpha" type="matrix" values="0 0 0 0 0 0 0 0 0 0 0 0 0 0 0 0 0 0 127 0" result="hardAlpha"/>
<feOffset dx="-2" dy="-2"/>
<feComposite in2="hardAlpha" operator="arithmetic" k2="-1" k3="1"/>
<feColorMatrix type="matrix" values="0 0 0 0 0 0 0 0 0 0 0 0 0 0 0 0 0 0 0.15 0"/>
<feBlend mode="normal" in2="shape" result="effect1_innerShadow_1368_329474"/>
</filter>
<filter id="filter8_i_1368_329474" x="89.1938" y="56.04" width="23.7651" height="34.5049" filterUnits="userSpaceOnUse" color-interpolation-filters="sRGB">
<feFlood flood-opacity="0" result="BackgroundImageFix"/>
<feBlend mode="normal" in="SourceGraphic" in2="BackgroundImageFix" result="shape"/>
<feColorMatrix in="SourceAlpha" type="matrix" values="0 0 0 0 0 0 0 0 0 0 0 0 0 0 0 0 0 0 127 0" result="hardAlpha"/>
<feOffset dx="-1" dy="-4"/>
<feGaussianBlur stdDeviation="3"/>
<feComposite in2="hardAlpha" operator="arithmetic" k2="-1" k3="1"/>
<feColorMatrix type="matrix" values="0 0 0 0 0 0 0 0 0 0 0 0 0 0 0 0 0 0 0.2 0"/>
<feBlend mode="normal" in2="shape" result="effect1_innerShadow_1368_329474"/>
</filter>
<filter id="filter9_ii_1368_329474" x="48" y="118" width="28" height="8" filterUnits="userSpaceOnUse" color-interpolation-filters="sRGB">
<feFlood flood-opacity="0" result="BackgroundImageFix"/>
<feBlend mode="normal" in="SourceGraphic" in2="BackgroundImageFix" result="shape"/>
<feColorMatrix in="SourceAlpha" type="matrix" values="0 0 0 0 0 0 0 0 0 0 0 0 0 0 0 0 0 0 127 0" result="hardAlpha"/>
<feOffset dy="3"/>
<feGaussianBlur stdDeviation="2"/>
<feComposite in2="hardAlpha" operator="arithmetic" k2="-1" k3="1"/>
<feColorMatrix type="matrix" values="0 0 0 0 1 0 0 0 0 1 0 0 0 0 1 0 0 0 0.25 0"/>
<feBlend mode="normal" in2="shape" result="effect1_innerShadow_1368_329474"/>
<feColorMatrix in="SourceAlpha" type="matrix" values="0 0 0 0 0 0 0 0 0 0 0 0 0 0 0 0 0 0 127 0" result="hardAlpha"/>
<feOffset dy="-2"/>
<feGaussianBlur stdDeviation="0.5"/>
<feComposite in2="hardAlpha" operator="arithmetic" k2="-1" k3="1"/>
<feColorMatrix type="matrix" values="0 0 0 0 0 0 0 0 0 0 0 0 0 0 0 0 0 0 0.25 0"/>
<feBlend mode="normal" in2="effect1_innerShadow_1368_329474" result="effect2_innerShadow_1368_329474"/>
</filter>
<filter id="filter10_ii_1368_329474" x="70" y="119" width="19" height="8" filterUnits="userSpaceOnUse" color-interpolation-filters="sRGB">
<feFlood flood-opacity="0" result="BackgroundImageFix"/>
<feBlend mode="normal" in="SourceGraphic" in2="BackgroundImageFix" result="shape"/>
<feColorMatrix in="SourceAlpha" type="matrix" values="0 0 0 0 0 0 0 0 0 0 0 0 0 0 0 0 0 0 127 0" result="hardAlpha"/>
<feOffset dy="3"/>
<feGaussianBlur stdDeviation="2"/>
<feComposite in2="hardAlpha" operator="arithmetic" k2="-1" k3="1"/>
<feColorMatrix type="matrix" values="0 0 0 0 1 0 0 0 0 1 0 0 0 0 1 0 0 0 0.25 0"/>
<feBlend mode="normal" in2="shape" result="effect1_innerShadow_1368_329474"/>
<feColorMatrix in="SourceAlpha" type="matrix" values="0 0 0 0 0 0 0 0 0 0 0 0 0 0 0 0 0 0 127 0" result="hardAlpha"/>
<feOffset dy="-2"/>
<feGaussianBlur stdDeviation="0.5"/>
<feComposite in2="hardAlpha" operator="arithmetic" k2="-1" k3="1"/>
<feColorMatrix type="matrix" values="0 0 0 0 0 0 0 0 0 0 0 0 0 0 0 0 0 0 0.25 0"/>
<feBlend mode="normal" in2="effect1_innerShadow_1368_329474" result="effect2_innerShadow_1368_329474"/>
</filter>
<filter id="filter11_ii_1368_329474" x="48" y="139" width="17" height="8" filterUnits="userSpaceOnUse" color-interpolation-filters="sRGB">
<feFlood flood-opacity="0" result="BackgroundImageFix"/>
<feBlend mode="normal" in="SourceGraphic" in2="BackgroundImageFix" result="shape"/>
<feColorMatrix in="SourceAlpha" type="matrix" values="0 0 0 0 0 0 0 0 0 0 0 0 0 0 0 0 0 0 127 0" result="hardAlpha"/>
<feOffset dy="3"/>
<feGaussianBlur stdDeviation="2"/>
<feComposite in2="hardAlpha" operator="arithmetic" k2="-1" k3="1"/>
<feColorMatrix type="matrix" values="0 0 0 0 1 0 0 0 0 1 0 0 0 0 1 0 0 0 0.25 0"/>
<feBlend mode="normal" in2="shape" result="effect1_innerShadow_1368_329474"/>
<feColorMatrix in="SourceAlpha" type="matrix" values="0 0 0 0 0 0 0 0 0 0 0 0 0 0 0 0 0 0 127 0" result="hardAlpha"/>
<feOffset dy="-2"/>
<feGaussianBlur stdDeviation="0.5"/>
<feComposite in2="hardAlpha" operator="arithmetic" k2="-1" k3="1"/>
<feColorMatrix type="matrix" values="0 0 0 0 0 0 0 0 0 0 0 0 0 0 0 0 0 0 0.25 0"/>
<feBlend mode="normal" in2="effect1_innerShadow_1368_329474" result="effect2_innerShadow_1368_329474"/>
</filter>
<filter id="filter12_ii_1368_329474" x="61" y="140" width="19" height="8" filterUnits="userSpaceOnUse" color-interpolation-filters="sRGB">
<feFlood flood-opacity="0" result="BackgroundImageFix"/>
<feBlend mode="normal" in="SourceGraphic" in2="BackgroundImageFix" result="shape"/>
<feColorMatrix in="SourceAlpha" type="matrix" values="0 0 0 0 0 0 0 0 0 0 0 0 0 0 0 0 0 0 127 0" result="hardAlpha"/>
<feOffset dy="3"/>
<feGaussianBlur stdDeviation="2"/>
<feComposite in2="hardAlpha" operator="arithmetic" k2="-1" k3="1"/>
<feColorMatrix type="matrix" values="0 0 0 0 1 0 0 0 0 1 0 0 0 0 1 0 0 0 0.25 0"/>
<feBlend mode="normal" in2="shape" result="effect1_innerShadow_1368_329474"/>
<feColorMatrix in="SourceAlpha" type="matrix" values="0 0 0 0 0 0 0 0 0 0 0 0 0 0 0 0 0 0 127 0" result="hardAlpha"/>
<feOffset dy="-2"/>
<feGaussianBlur stdDeviation="0.5"/>
<feComposite in2="hardAlpha" operator="arithmetic" k2="-1" k3="1"/>
<feColorMatrix type="matrix" values="0 0 0 0 0 0 0 0 0 0 0 0 0 0 0 0 0 0 0.25 0"/>
<feBlend mode="normal" in2="effect1_innerShadow_1368_329474" result="effect2_innerShadow_1368_329474"/>
</filter>
<clipPath id="clip0_1368_329474">
<rect width="135" height="541" fill="white"/>
</clipPath>
</defs>
</svg>
