<svg width="135" height="460" viewBox="0 0 135 460" fill="none" xmlns="http://www.w3.org/2000/svg">
<rect x="5.39453" y="138.336" width="122" height="308" rx="9.03" fill="black" fill-opacity="0.12"/>
<rect x="13.3906" y="437.34" width="290" height="106" rx="4.55" transform="rotate(-90 13.3906 437.34)" fill="black" fill-opacity="0.2"/>
<ellipse cx="66.9159" cy="390.279" rx="44.33" ry="43.0724" fill="black" fill-opacity="0.2"/>
<g filter="url(#filter0_ii_25_76009)">
<path d="M25.1016 369.846H109.36V388.081C109.36 411.348 90.498 430.21 67.2307 430.21C43.9634 430.21 25.1016 411.348 25.1016 388.081V369.846Z" fill="#D6D3D1"/>
</g>
<circle cx="67.2307" cy="371.731" r="42.1292" fill="#E7E5E4"/>
<circle cx="67.2302" cy="372.358" r="23.2654" fill="black" fill-opacity="0.2"/>
<g filter="url(#filter1_iii_25_76009)">
<path d="M45.2227 344.066H89.2382V371.733C89.2382 383.887 79.385 393.74 67.2304 393.74C55.0759 393.74 45.2227 383.887 45.2227 371.733V344.066Z" fill="#D6D3D1"/>
</g>
<g filter="url(#filter2_i_25_76009)">
<path d="M29.5527 8.99999C29.5527 4.02943 33.5822 0 38.5527 0L95.3792 0C100.35 0 104.379 4.02944 104.379 9L104.379 345.011C104.379 349.981 100.35 354.011 95.3792 354.011H38.5527C33.5822 354.011 29.5527 349.981 29.5527 345.011L29.5527 8.99999Z" fill="#E7E5E4"/>
</g>
<path d="M29.5527 274.98C29.5527 270.01 33.5822 265.98 38.5527 265.98H95.3792C100.35 265.98 104.379 270.01 104.379 274.98V365.133C104.379 370.103 100.35 374.133 95.3792 374.133H38.5527C33.5822 374.133 29.5527 370.103 29.5527 365.133L29.5527 274.98Z" fill="#D6D3D1"/>
<circle cx="67.2838" cy="206.242" r="29.5533" fill="black" fill-opacity="0.2"/>
<rect x="40.2461" y="172.916" width="54.0763" height="60.3642" rx="27.0381" fill="#64748B"/>
<circle cx="67.2842" cy="199.954" r="27.0381" fill="#CBD5E1"/>
<path d="M44.8287 181.649C45.7925 169.962 55.5584 160.969 67.2845 160.969C79.0105 160.969 88.7764 169.962 89.7402 181.649L90.946 196.268C92.087 210.103 81.1663 221.962 67.2845 221.962C53.4026 221.962 42.4819 210.103 43.6229 196.268L44.8287 181.649Z" fill="#EA580C"/>
<circle cx="67.2834" cy="182.977" r="20.7502" fill="#F97316"/>
<circle cx="67.2842" cy="182.977" r="16.3486" fill="#FB923C"/>
<circle cx="67.2836" cy="182.976" r="8.80311" fill="#FACC15"/>
<circle cx="67.2838" cy="50.9332" r="29.5533" fill="black" fill-opacity="0.2"/>
<rect x="40.2461" y="17.6072" width="54.0763" height="60.3642" rx="27.0381" fill="#64748B"/>
<circle cx="67.2842" cy="44.6453" r="27.0381" fill="#CBD5E1"/>
<path d="M44.8287 26.3401C45.7925 14.6538 55.5584 5.66016 67.2845 5.66016C79.0105 5.66016 88.7764 14.6538 89.7402 26.3401L90.946 40.9598C92.087 54.7948 81.1663 66.6532 67.2845 66.6532C53.4026 66.6532 42.4819 54.7948 43.6229 40.9599L44.8287 26.3401Z" fill="#EA580C"/>
<circle cx="67.2834" cy="27.6679" r="20.7502" fill="#F97316"/>
<circle cx="67.2842" cy="27.668" r="16.3486" fill="#FB923C"/>
<circle cx="67.2836" cy="27.6679" r="8.80311" fill="#FACC15"/>
<path d="M19.3945 28.6511C18.29 28.6511 17.3945 29.5466 17.3945 30.6511L17.3945 73.5689C17.3945 74.6735 18.29 75.5689 19.3945 75.5689L27.3945 75.5689C28.4991 75.5689 29.3945 74.6735 29.3945 73.5689L29.3945 30.6511C29.3945 29.5466 28.4991 28.6511 27.3945 28.6511L19.3945 28.6511Z" fill="#FACC15"/>
<path d="M19.3945 67.1238C18.29 67.1238 17.3945 68.0192 17.3945 69.1238L17.3945 112.042C17.3945 113.146 18.29 114.042 19.3945 114.042L27.3945 114.042C28.4991 114.042 29.3945 113.146 29.3945 112.042L29.3945 69.1238C29.3945 68.0192 28.4991 67.1238 27.3945 67.1238L19.3945 67.1238Z" fill="#64748B"/>
<path d="M19.3945 105.596C18.29 105.596 17.3945 106.492 17.3945 107.596L17.3945 150.514C17.3945 151.619 18.29 152.514 19.3945 152.514L27.3945 152.514C28.4991 152.514 29.3945 151.619 29.3945 150.514L29.3945 107.596C29.3945 106.492 28.4991 105.596 27.3945 105.596L19.3945 105.596Z" fill="#FACC15"/>
<path d="M19.3945 144.069C18.29 144.069 17.3945 144.965 17.3945 146.069L17.3945 188.987C17.3945 190.091 18.29 190.987 19.3945 190.987L27.3945 190.987C28.4991 190.987 29.3945 190.091 29.3945 188.987L29.3945 146.069C29.3945 144.965 28.4991 144.069 27.3945 144.069L19.3945 144.069Z" fill="#64748B"/>
<path d="M19.3945 182.542C18.29 182.542 17.3945 183.437 17.3945 184.542L17.3945 227.459C17.3945 228.564 18.29 229.459 19.3945 229.459L27.3945 229.459C28.4991 229.459 29.3945 228.564 29.3945 227.459L29.3945 184.542C29.3945 183.437 28.4991 182.542 27.3945 182.542L19.3945 182.542Z" fill="#FACC15"/>
<path d="M19.3945 221.014C18.29 221.014 17.3945 221.91 17.3945 223.014L17.3945 265.932C17.3945 267.037 18.29 267.932 19.3945 267.932L27.3945 267.932C28.4991 267.932 29.3945 267.037 29.3945 265.932L29.3945 223.014C29.3945 221.91 28.4991 221.014 27.3945 221.014L19.3945 221.014Z" fill="#64748B"/>
<path d="M19.3945 259.487C18.29 259.487 17.3945 260.382 17.3945 261.487L17.3945 304.405C17.3945 305.509 18.29 306.405 19.3945 306.405L27.3945 306.405C28.4991 306.405 29.3945 305.509 29.3945 304.405L29.3945 261.487C29.3945 260.382 28.4991 259.487 27.3945 259.487L19.3945 259.487Z" fill="#FACC15"/>
<path d="M106.395 27.6523C105.29 27.6523 104.395 28.5478 104.395 29.6523L104.395 72.7414C104.395 73.846 105.29 74.7414 106.395 74.7414L114.395 74.7414C115.499 74.7414 116.395 73.846 116.395 72.7414L116.395 29.6523C116.395 28.5478 115.499 27.6523 114.395 27.6523L106.395 27.6523Z" fill="#FACC15"/>
<path d="M106.395 66.2654C105.29 66.2654 104.395 67.1608 104.395 68.2654L104.395 111.354C104.395 112.459 105.29 113.354 106.395 113.354L114.395 113.354C115.499 113.354 116.395 112.459 116.395 111.354L116.395 68.2654C116.395 67.1608 115.499 66.2654 114.395 66.2654L106.395 66.2654Z" fill="#64748B"/>
<path d="M106.395 104.878C105.29 104.878 104.395 105.774 104.395 106.878L104.395 149.967C104.395 151.072 105.29 151.967 106.395 151.967L114.395 151.967C115.499 151.967 116.395 151.072 116.395 149.967L116.395 106.878C116.395 105.774 115.499 104.878 114.395 104.878L106.395 104.878Z" fill="#FACC15"/>
<path d="M106.395 143.491C105.29 143.491 104.395 144.387 104.395 145.491L104.395 188.58C104.395 189.685 105.29 190.581 106.395 190.581L114.395 190.581C115.499 190.581 116.395 189.685 116.395 188.581L116.395 145.491C116.395 144.387 115.499 143.491 114.395 143.491L106.395 143.491Z" fill="#64748B"/>
<path d="M106.395 182.104C105.29 182.104 104.395 183 104.395 184.104L104.395 227.194C104.395 228.298 105.29 229.194 106.395 229.194L114.395 229.194C115.499 229.194 116.395 228.298 116.395 227.194L116.395 184.104C116.395 183 115.499 182.104 114.395 182.104L106.395 182.104Z" fill="#FACC15"/>
<path d="M106.395 220.717C105.29 220.717 104.395 221.613 104.395 222.717L104.395 265.806C104.395 266.911 105.29 267.806 106.395 267.806L114.395 267.806C115.499 267.806 116.395 266.911 116.395 265.806L116.395 222.717C116.395 221.613 115.499 220.717 114.395 220.717L106.395 220.717Z" fill="#64748B"/>
<path d="M106.395 259.33C105.29 259.33 104.395 260.226 104.395 261.33L104.395 304.419C104.395 305.524 105.29 306.419 106.395 306.419L114.395 306.419C115.499 306.419 116.395 305.524 116.395 304.419L116.395 261.33C116.395 260.226 115.499 259.33 114.395 259.33L106.395 259.33Z" fill="#FACC15"/>
<rect width="77" height="12" rx="4.40156" transform="matrix(4.63017e-08 1 1 -4.1266e-08 17.5547 280.336)" fill="#EAB308"/>
<rect width="77" height="12" rx="4.40156" transform="matrix(4.63017e-08 1 1 -4.1266e-08 104.383 279.883)" fill="#EAB308"/>
<defs>
<filter id="filter0_ii_25_76009" x="17.556" y="369.846" width="104.379" height="72.9401" filterUnits="userSpaceOnUse" color-interpolation-filters="sRGB">
<feFlood flood-opacity="0" result="BackgroundImageFix"/>
<feBlend mode="normal" in="SourceGraphic" in2="BackgroundImageFix" result="shape"/>
<feColorMatrix in="SourceAlpha" type="matrix" values="0 0 0 0 0 0 0 0 0 0 0 0 0 0 0 0 0 0 127 0" result="hardAlpha"/>
<feOffset dx="12.5759" dy="10.0607"/>
<feGaussianBlur stdDeviation="6.28794"/>
<feComposite in2="hardAlpha" operator="arithmetic" k2="-1" k3="1"/>
<feColorMatrix type="matrix" values="0 0 0 0 0 0 0 0 0 0 0 0 0 0 0 0 0 0 0.25 0"/>
<feBlend mode="normal" in2="shape" result="effect1_innerShadow_25_76009"/>
<feColorMatrix in="SourceAlpha" type="matrix" values="0 0 0 0 0 0 0 0 0 0 0 0 0 0 0 0 0 0 127 0" result="hardAlpha"/>
<feOffset dx="-7.54552" dy="17.6062"/>
<feGaussianBlur stdDeviation="6.28794"/>
<feComposite in2="hardAlpha" operator="arithmetic" k2="-1" k3="1"/>
<feColorMatrix type="matrix" values="0 0 0 0 1 0 0 0 0 1 0 0 0 0 1 0 0 0 0.25 0"/>
<feBlend mode="normal" in2="effect1_innerShadow_25_76009" result="effect2_innerShadow_25_76009"/>
</filter>
<filter id="filter1_iii_25_76009" x="37.6771" y="344.066" width="60.9931" height="62.2507" filterUnits="userSpaceOnUse" color-interpolation-filters="sRGB">
<feFlood flood-opacity="0" result="BackgroundImageFix"/>
<feBlend mode="normal" in="SourceGraphic" in2="BackgroundImageFix" result="shape"/>
<feColorMatrix in="SourceAlpha" type="matrix" values="0 0 0 0 0 0 0 0 0 0 0 0 0 0 0 0 0 0 127 0" result="hardAlpha"/>
<feOffset dx="9.43191" dy="10.0607"/>
<feGaussianBlur stdDeviation="11.3183"/>
<feComposite in2="hardAlpha" operator="arithmetic" k2="-1" k3="1"/>
<feColorMatrix type="matrix" values="0 0 0 0 0 0 0 0 0 0 0 0 0 0 0 0 0 0 0.25 0"/>
<feBlend mode="normal" in2="shape" result="effect1_innerShadow_25_76009"/>
<feColorMatrix in="SourceAlpha" type="matrix" values="0 0 0 0 0 0 0 0 0 0 0 0 0 0 0 0 0 0 127 0" result="hardAlpha"/>
<feOffset dx="-7.54552" dy="17.6062"/>
<feGaussianBlur stdDeviation="6.28794"/>
<feComposite in2="hardAlpha" operator="arithmetic" k2="-1" k3="1"/>
<feColorMatrix type="matrix" values="0 0 0 0 1 0 0 0 0 1 0 0 0 0 1 0 0 0 0.25 0"/>
<feBlend mode="normal" in2="effect1_innerShadow_25_76009" result="effect2_innerShadow_25_76009"/>
<feColorMatrix in="SourceAlpha" type="matrix" values="0 0 0 0 0 0 0 0 0 0 0 0 0 0 0 0 0 0 127 0" result="hardAlpha"/>
<feOffset dx="5.03035" dy="16.3486"/>
<feGaussianBlur stdDeviation="6.28794"/>
<feComposite in2="hardAlpha" operator="arithmetic" k2="-1" k3="1"/>
<feColorMatrix type="matrix" values="0 0 0 0 0 0 0 0 0 0 0 0 0 0 0 0 0 0 0.25 0"/>
<feBlend mode="normal" in2="effect2_innerShadow_25_76009" result="effect3_innerShadow_25_76009"/>
</filter>
<filter id="filter2_i_25_76009" x="29.5527" y="-3.77276" width="79.8565" height="357.784" filterUnits="userSpaceOnUse" color-interpolation-filters="sRGB">
<feFlood flood-opacity="0" result="BackgroundImageFix"/>
<feBlend mode="normal" in="SourceGraphic" in2="BackgroundImageFix" result="shape"/>
<feColorMatrix in="SourceAlpha" type="matrix" values="0 0 0 0 0 0 0 0 0 0 0 0 0 0 0 0 0 0 127 0" result="hardAlpha"/>
<feOffset dx="5.03035" dy="-3.77276"/>
<feGaussianBlur stdDeviation="4.40156"/>
<feComposite in2="hardAlpha" operator="arithmetic" k2="-1" k3="1"/>
<feColorMatrix type="matrix" values="0 0 0 0 0 0 0 0 0 0 0 0 0 0 0 0 0 0 0.25 0"/>
<feBlend mode="normal" in2="shape" result="effect1_innerShadow_25_76009"/>
</filter>
</defs>
</svg>
