<svg width="692" height="1080" viewBox="0 0 692 1080" fill="none" xmlns="http://www.w3.org/2000/svg">
<g filter="url(#filter0_ii_2620_210913)">
<path d="M8 927C8 922.582 11.5817 919 16 919H312C316.418 919 320 922.582 320 927V1005C320 1009.42 316.418 1013 312 1013H16C11.5817 1013 8 1009.42 8 1005V927Z" fill="#A6815E"/>
</g>
<path d="M8 594C8 589.582 11.5817 586 16 586H312C316.418 586 320 589.582 320 594V945C320 949.418 316.418 953 312 953H16C11.5817 953 8 949.418 8 945V594Z" fill="#C8A078"/>
<g filter="url(#filter1_ii_2620_210913)">
<path d="M308 927C308 922.582 311.582 919 316 919H675C679.418 919 683 922.582 683 927V1005C683 1009.42 679.418 1013 675 1013H316C311.582 1013 308 1009.42 308 1005V927Z" fill="#A6815E"/>
</g>
<path d="M308 594C308 589.582 311.582 586 316 586H675C679.418 586 683 589.582 683 594V945C683 949.418 679.418 953 675 953H316C311.582 953 308 949.418 308 945V594Z" fill="#C8A078"/>
<rect x="20" y="603" width="651" height="336" rx="4" fill="black" fill-opacity="0.2"/>
<g filter="url(#filter2_i_2620_210913)">
<rect x="28" y="350" width="634" height="577" fill="#7F1D1D"/>
</g>
<g filter="url(#filter3_di_2620_210913)">
<rect x="240" y="675" width="212" height="338" fill="#3C2D24"/>
</g>
<path d="M419 923C419 918.029 423.029 914 428 914C432.971 914 437 918.029 437 923V927C437 931.971 432.971 936 428 936C423.029 936 419 931.971 419 927V923Z" fill="#D6D3D1"/>
<g filter="url(#filter4_dii_2620_210913)">
<path d="M419 927C419 922.029 423.029 918 428 918C432.971 918 437 922.029 437 927C437 931.971 432.971 936 428 936C423.029 936 419 931.971 419 927Z" fill="#A8A29E"/>
</g>
<g filter="url(#filter5_ii_2620_210913)">
<path d="M224 675H468V657C468 652.582 464.418 649 460 649H232C227.582 649 224 652.582 224 657V675Z" fill="#C8A078"/>
</g>
<path d="M450 1013H468V1021C468 1022.1 467.105 1023 466 1023H452C450.895 1023 450 1022.1 450 1021V1013Z" fill="black" fill-opacity="0.2"/>
<path d="M224 1013H242V1021C242 1022.1 241.105 1023 240 1023H226C224.895 1023 224 1022.1 224 1021V1013Z" fill="black" fill-opacity="0.2"/>
<path fill-rule="evenodd" clip-rule="evenodd" d="M232 657C227.582 657 224 660.582 224 665V1021H240V679C240 676.791 241.791 675 244 675H448C450.209 675 452 676.791 452 679V1021H468V665C468 660.582 464.418 657 460 657H232Z" fill="#A6815E"/>
<path d="M293 846.5C293 841.253 297.253 837 302.5 837C307.747 837 312 841.253 312 846.5V850.5C312 855.747 307.747 860 302.5 860C297.253 860 293 855.747 293 850.5V846.5Z" fill="#A6815E"/>
<g filter="url(#filter6_dii_2620_210913)">
<path d="M293 850.5C293 845.253 297.253 841 302.5 841C307.747 841 312 845.253 312 850.5C312 855.747 307.747 860 302.5 860C297.253 860 293 855.747 293 850.5Z" fill="#82644D"/>
</g>
<g filter="url(#filter7_ii_2620_210913)">
<path d="M0 274H692V325C692 329.418 688.418 333 684 333H7.99999C3.58171 333 0 329.418 0 325V274Z" fill="#A6815E"/>
</g>
<g filter="url(#filter8_i_2620_210913)">
<path d="M16 333H676V357C676 361.418 672.418 365 668 365H24C19.5817 365 16 361.418 16 357V333Z" fill="#82644D"/>
</g>
<g filter="url(#filter9_i_2620_210913)">
<path d="M0 31C0 26.5817 3.58172 23 8 23H684C688.418 23 692 26.5817 692 31V293C692 297.418 688.418 301 684 301H7.99999C3.58171 301 0 297.418 0 293V31Z" fill="#C8A078"/>
</g>
<path d="M20 53C20 48.5817 23.5817 45 28 45H664C668.418 45 672 48.5817 672 53V272C672 276.418 668.418 280 664 280H28C23.5817 280 20 276.418 20 272V53Z" fill="black" fill-opacity="0.2"/>
<g filter="url(#filter10_ii_2620_210913)">
<path d="M24 45H668V269C668 273.418 664.418 277 660 277H32C27.5817 277 24 273.418 24 269V45Z" fill="#A6815E"/>
</g>
<path d="M24 8C24 3.58172 27.5817 0 32 0H660C664.418 0 668 3.58172 668 8V222C668 226.418 664.418 230 660 230H32C27.5817 230 24 226.418 24 222V8Z" fill="#C8A078"/>
<g filter="url(#filter11_dd_2620_210913)">
<path d="M143 591H549V634H143V591Z" fill="#A6815E"/>
</g>
<g filter="url(#filter12_i_2620_210913)">
<path d="M143 618H549V583H143V618Z" fill="#D7B99A"/>
</g>
<g filter="url(#filter13_ii_2620_210913)">
<path d="M159 462H533V454C533 449.582 529.418 446 525 446H167C162.582 446 159 449.582 159 454V462Z" fill="#A6815E"/>
</g>
<path d="M515 583H535V591C535 592.105 534.105 593 533 593H517C515.895 593 515 592.105 515 591V583Z" fill="black" fill-opacity="0.12"/>
<path d="M157 583H177V591C177 592.105 176.105 593 175 593H159C157.895 593 157 592.105 157 591V583Z" fill="black" fill-opacity="0.12"/>
<path fill-rule="evenodd" clip-rule="evenodd" d="M167 454C162.582 454 159 457.582 159 462V591H175V474C175 471.791 176.791 470 179 470H513C515.209 470 517 471.791 517 474V591H533V462C533 457.582 529.418 454 525 454H167Z" fill="#82644D"/>
<g filter="url(#filter14_i_2620_210913)">
<path d="M175 474C175 471.791 176.791 470 179 470H513C515.209 470 517 471.791 517 474V587H175V474Z" fill="#0F172A"/>
</g>
<mask id="mask0_2620_210913" style="mask-type:alpha" maskUnits="userSpaceOnUse" x="175" y="470" width="342" height="117">
<path d="M175 474C175 471.791 176.791 470 179 470H513C515.209 470 517 471.791 517 474V587H175V474Z" fill="#0F172A"/>
</mask>
<g mask="url(#mask0_2620_210913)">
<path opacity="0.1" d="M394.231 324.342H425L318.769 737.171H288L394.231 324.342Z" fill="white"/>
<path opacity="0.1" d="M364.75 367.146H376L280.25 737.171H269L364.75 367.146Z" fill="white"/>
</g>
<defs>
<filter id="filter0_ii_2620_210913" x="0" y="919" width="328" height="102" filterUnits="userSpaceOnUse" color-interpolation-filters="sRGB">
<feFlood flood-opacity="0" result="BackgroundImageFix"/>
<feBlend mode="normal" in="SourceGraphic" in2="BackgroundImageFix" result="shape"/>
<feColorMatrix in="SourceAlpha" type="matrix" values="0 0 0 0 0 0 0 0 0 0 0 0 0 0 0 0 0 0 127 0" result="hardAlpha"/>
<feOffset dx="8" dy="8"/>
<feGaussianBlur stdDeviation="6"/>
<feComposite in2="hardAlpha" operator="arithmetic" k2="-1" k3="1"/>
<feColorMatrix type="matrix" values="0 0 0 0 0 0 0 0 0 0 0 0 0 0 0 0 0 0 0.25 0"/>
<feBlend mode="normal" in2="shape" result="effect1_innerShadow_2620_210913"/>
<feColorMatrix in="SourceAlpha" type="matrix" values="0 0 0 0 0 0 0 0 0 0 0 0 0 0 0 0 0 0 127 0" result="hardAlpha"/>
<feOffset dx="-8" dy="8"/>
<feGaussianBlur stdDeviation="6"/>
<feComposite in2="hardAlpha" operator="arithmetic" k2="-1" k3="1"/>
<feColorMatrix type="matrix" values="0 0 0 0 1 0 0 0 0 1 0 0 0 0 1 0 0 0 0.25 0"/>
<feBlend mode="normal" in2="effect1_innerShadow_2620_210913" result="effect2_innerShadow_2620_210913"/>
</filter>
<filter id="filter1_ii_2620_210913" x="300" y="919" width="391" height="102" filterUnits="userSpaceOnUse" color-interpolation-filters="sRGB">
<feFlood flood-opacity="0" result="BackgroundImageFix"/>
<feBlend mode="normal" in="SourceGraphic" in2="BackgroundImageFix" result="shape"/>
<feColorMatrix in="SourceAlpha" type="matrix" values="0 0 0 0 0 0 0 0 0 0 0 0 0 0 0 0 0 0 127 0" result="hardAlpha"/>
<feOffset dx="8" dy="8"/>
<feGaussianBlur stdDeviation="6"/>
<feComposite in2="hardAlpha" operator="arithmetic" k2="-1" k3="1"/>
<feColorMatrix type="matrix" values="0 0 0 0 0 0 0 0 0 0 0 0 0 0 0 0 0 0 0.25 0"/>
<feBlend mode="normal" in2="shape" result="effect1_innerShadow_2620_210913"/>
<feColorMatrix in="SourceAlpha" type="matrix" values="0 0 0 0 0 0 0 0 0 0 0 0 0 0 0 0 0 0 127 0" result="hardAlpha"/>
<feOffset dx="-8" dy="8"/>
<feGaussianBlur stdDeviation="6"/>
<feComposite in2="hardAlpha" operator="arithmetic" k2="-1" k3="1"/>
<feColorMatrix type="matrix" values="0 0 0 0 1 0 0 0 0 1 0 0 0 0 1 0 0 0 0.25 0"/>
<feBlend mode="normal" in2="effect1_innerShadow_2620_210913" result="effect2_innerShadow_2620_210913"/>
</filter>
<filter id="filter2_i_2620_210913" x="28" y="349" width="634" height="579" filterUnits="userSpaceOnUse" color-interpolation-filters="sRGB">
<feFlood flood-opacity="0" result="BackgroundImageFix"/>
<feBlend mode="normal" in="SourceGraphic" in2="BackgroundImageFix" result="shape"/>
<feColorMatrix in="SourceAlpha" type="matrix" values="0 0 0 0 0 0 0 0 0 0 0 0 0 0 0 0 0 0 127 0" result="hardAlpha"/>
<feOffset dy="16"/>
<feComposite in2="hardAlpha" operator="arithmetic" k2="-1" k3="1"/>
<feColorMatrix type="matrix" values="0 0 0 0 0 0 0 0 0 0 0 0 0 0 0 0 0 0 0.25 0"/>
<feBlend mode="normal" in2="shape" result="effect1_innerShadow_2620_210913"/>
</filter>
<filter id="filter3_di_2620_210913" x="240" y="675" width="212" height="340" filterUnits="userSpaceOnUse" color-interpolation-filters="sRGB">
<feFlood flood-opacity="0" result="BackgroundImageFix"/>
<feColorMatrix in="SourceAlpha" type="matrix" values="0 0 0 0 0 0 0 0 0 0 0 0 0 0 0 0 0 0 127 0" result="hardAlpha"/>
<feOffset dy="2"/>
<feComposite in2="hardAlpha" operator="out"/>
<feColorMatrix type="matrix" values="0 0 0 0 0 0 0 0 0 0 0 0 0 0 0 0 0 0 0.25 0"/>
<feBlend mode="normal" in2="BackgroundImageFix" result="effect1_dropShadow_2620_210913"/>
<feBlend mode="normal" in="SourceGraphic" in2="effect1_dropShadow_2620_210913" result="shape"/>
<feColorMatrix in="SourceAlpha" type="matrix" values="0 0 0 0 0 0 0 0 0 0 0 0 0 0 0 0 0 0 127 0" result="hardAlpha"/>
<feOffset dy="8"/>
<feComposite in2="hardAlpha" operator="arithmetic" k2="-1" k3="1"/>
<feColorMatrix type="matrix" values="0 0 0 0 0 0 0 0 0 0 0 0 0 0 0 0 0 0 0.25 0"/>
<feBlend mode="normal" in2="shape" result="effect2_innerShadow_2620_210913"/>
</filter>
<filter id="filter4_dii_2620_210913" x="417" y="914" width="22" height="26" filterUnits="userSpaceOnUse" color-interpolation-filters="sRGB">
<feFlood flood-opacity="0" result="BackgroundImageFix"/>
<feColorMatrix in="SourceAlpha" type="matrix" values="0 0 0 0 0 0 0 0 0 0 0 0 0 0 0 0 0 0 127 0" result="hardAlpha"/>
<feOffset dy="4"/>
<feComposite in2="hardAlpha" operator="out"/>
<feColorMatrix type="matrix" values="0 0 0 0 0 0 0 0 0 0 0 0 0 0 0 0 0 0 0.25 0"/>
<feBlend mode="normal" in2="BackgroundImageFix" result="effect1_dropShadow_2620_210913"/>
<feBlend mode="normal" in="SourceGraphic" in2="effect1_dropShadow_2620_210913" result="shape"/>
<feColorMatrix in="SourceAlpha" type="matrix" values="0 0 0 0 0 0 0 0 0 0 0 0 0 0 0 0 0 0 127 0" result="hardAlpha"/>
<feOffset dx="2" dy="-4"/>
<feGaussianBlur stdDeviation="2"/>
<feComposite in2="hardAlpha" operator="arithmetic" k2="-1" k3="1"/>
<feColorMatrix type="matrix" values="0 0 0 0 0 0 0 0 0 0 0 0 0 0 0 0 0 0 0.25 0"/>
<feBlend mode="normal" in2="shape" result="effect2_innerShadow_2620_210913"/>
<feColorMatrix in="SourceAlpha" type="matrix" values="0 0 0 0 0 0 0 0 0 0 0 0 0 0 0 0 0 0 127 0" result="hardAlpha"/>
<feOffset dx="-2" dy="2"/>
<feGaussianBlur stdDeviation="3"/>
<feComposite in2="hardAlpha" operator="arithmetic" k2="-1" k3="1"/>
<feColorMatrix type="matrix" values="0 0 0 0 1 0 0 0 0 1 0 0 0 0 1 0 0 0 0.25 0"/>
<feBlend mode="normal" in2="effect2_innerShadow_2620_210913" result="effect3_innerShadow_2620_210913"/>
</filter>
<filter id="filter5_ii_2620_210913" x="220" y="645" width="252" height="30" filterUnits="userSpaceOnUse" color-interpolation-filters="sRGB">
<feFlood flood-opacity="0" result="BackgroundImageFix"/>
<feBlend mode="normal" in="SourceGraphic" in2="BackgroundImageFix" result="shape"/>
<feColorMatrix in="SourceAlpha" type="matrix" values="0 0 0 0 0 0 0 0 0 0 0 0 0 0 0 0 0 0 127 0" result="hardAlpha"/>
<feOffset dx="4" dy="-4"/>
<feGaussianBlur stdDeviation="2"/>
<feComposite in2="hardAlpha" operator="arithmetic" k2="-1" k3="1"/>
<feColorMatrix type="matrix" values="0 0 0 0 0 0 0 0 0 0 0 0 0 0 0 0 0 0 0.25 0"/>
<feBlend mode="normal" in2="shape" result="effect1_innerShadow_2620_210913"/>
<feColorMatrix in="SourceAlpha" type="matrix" values="0 0 0 0 0 0 0 0 0 0 0 0 0 0 0 0 0 0 127 0" result="hardAlpha"/>
<feOffset dx="-4" dy="-4"/>
<feGaussianBlur stdDeviation="2"/>
<feComposite in2="hardAlpha" operator="arithmetic" k2="-1" k3="1"/>
<feColorMatrix type="matrix" values="0 0 0 0 1 0 0 0 0 1 0 0 0 0 1 0 0 0 0.25 0"/>
<feBlend mode="normal" in2="effect1_innerShadow_2620_210913" result="effect2_innerShadow_2620_210913"/>
</filter>
<filter id="filter6_dii_2620_210913" x="291" y="837" width="23" height="27" filterUnits="userSpaceOnUse" color-interpolation-filters="sRGB">
<feFlood flood-opacity="0" result="BackgroundImageFix"/>
<feColorMatrix in="SourceAlpha" type="matrix" values="0 0 0 0 0 0 0 0 0 0 0 0 0 0 0 0 0 0 127 0" result="hardAlpha"/>
<feOffset dy="4"/>
<feComposite in2="hardAlpha" operator="out"/>
<feColorMatrix type="matrix" values="0 0 0 0 0 0 0 0 0 0 0 0 0 0 0 0 0 0 0.25 0"/>
<feBlend mode="normal" in2="BackgroundImageFix" result="effect1_dropShadow_2620_210913"/>
<feBlend mode="normal" in="SourceGraphic" in2="effect1_dropShadow_2620_210913" result="shape"/>
<feColorMatrix in="SourceAlpha" type="matrix" values="0 0 0 0 0 0 0 0 0 0 0 0 0 0 0 0 0 0 127 0" result="hardAlpha"/>
<feOffset dx="2" dy="-4"/>
<feGaussianBlur stdDeviation="2"/>
<feComposite in2="hardAlpha" operator="arithmetic" k2="-1" k3="1"/>
<feColorMatrix type="matrix" values="0 0 0 0 0 0 0 0 0 0 0 0 0 0 0 0 0 0 0.25 0"/>
<feBlend mode="normal" in2="shape" result="effect2_innerShadow_2620_210913"/>
<feColorMatrix in="SourceAlpha" type="matrix" values="0 0 0 0 0 0 0 0 0 0 0 0 0 0 0 0 0 0 127 0" result="hardAlpha"/>
<feOffset dx="-2" dy="2"/>
<feGaussianBlur stdDeviation="3"/>
<feComposite in2="hardAlpha" operator="arithmetic" k2="-1" k3="1"/>
<feColorMatrix type="matrix" values="0 0 0 0 1 0 0 0 0 1 0 0 0 0 1 0 0 0 0.25 0"/>
<feBlend mode="normal" in2="effect2_innerShadow_2620_210913" result="effect3_innerShadow_2620_210913"/>
</filter>
<filter id="filter7_ii_2620_210913" x="-8" y="274" width="708" height="67" filterUnits="userSpaceOnUse" color-interpolation-filters="sRGB">
<feFlood flood-opacity="0" result="BackgroundImageFix"/>
<feBlend mode="normal" in="SourceGraphic" in2="BackgroundImageFix" result="shape"/>
<feColorMatrix in="SourceAlpha" type="matrix" values="0 0 0 0 0 0 0 0 0 0 0 0 0 0 0 0 0 0 127 0" result="hardAlpha"/>
<feOffset dx="8" dy="8"/>
<feGaussianBlur stdDeviation="6"/>
<feComposite in2="hardAlpha" operator="arithmetic" k2="-1" k3="1"/>
<feColorMatrix type="matrix" values="0 0 0 0 0 0 0 0 0 0 0 0 0 0 0 0 0 0 0.25 0"/>
<feBlend mode="normal" in2="shape" result="effect1_innerShadow_2620_210913"/>
<feColorMatrix in="SourceAlpha" type="matrix" values="0 0 0 0 0 0 0 0 0 0 0 0 0 0 0 0 0 0 127 0" result="hardAlpha"/>
<feOffset dx="-8" dy="8"/>
<feGaussianBlur stdDeviation="6"/>
<feComposite in2="hardAlpha" operator="arithmetic" k2="-1" k3="1"/>
<feColorMatrix type="matrix" values="0 0 0 0 1 0 0 0 0 1 0 0 0 0 1 0 0 0 0.25 0"/>
<feBlend mode="normal" in2="effect1_innerShadow_2620_210913" result="effect2_innerShadow_2620_210913"/>
</filter>
<filter id="filter8_i_2620_210913" x="16" y="333" width="660" height="32" filterUnits="userSpaceOnUse" color-interpolation-filters="sRGB">
<feFlood flood-opacity="0" result="BackgroundImageFix"/>
<feBlend mode="normal" in="SourceGraphic" in2="BackgroundImageFix" result="shape"/>
<feColorMatrix in="SourceAlpha" type="matrix" values="0 0 0 0 0 0 0 0 0 0 0 0 0 0 0 0 0 0 127 0" result="hardAlpha"/>
<feOffset dy="8"/>
<feComposite in2="hardAlpha" operator="arithmetic" k2="-1" k3="1"/>
<feColorMatrix type="matrix" values="0 0 0 0 0 0 0 0 0 0 0 0 0 0 0 0 0 0 0.25 0"/>
<feBlend mode="normal" in2="shape" result="effect1_innerShadow_2620_210913"/>
</filter>
<filter id="filter9_i_2620_210913" x="0" y="23" width="692" height="282" filterUnits="userSpaceOnUse" color-interpolation-filters="sRGB">
<feFlood flood-opacity="0" result="BackgroundImageFix"/>
<feBlend mode="normal" in="SourceGraphic" in2="BackgroundImageFix" result="shape"/>
<feColorMatrix in="SourceAlpha" type="matrix" values="0 0 0 0 0 0 0 0 0 0 0 0 0 0 0 0 0 0 127 0" result="hardAlpha"/>
<feOffset dy="4"/>
<feGaussianBlur stdDeviation="125"/>
<feComposite in2="hardAlpha" operator="arithmetic" k2="-1" k3="1"/>
<feColorMatrix type="matrix" values="0 0 0 0 0 0 0 0 0 0 0 0 0 0 0 0 0 0 0.15 0"/>
<feBlend mode="normal" in2="shape" result="effect1_innerShadow_2620_210913"/>
</filter>
<filter id="filter10_ii_2620_210913" x="16" y="45" width="660" height="240" filterUnits="userSpaceOnUse" color-interpolation-filters="sRGB">
<feFlood flood-opacity="0" result="BackgroundImageFix"/>
<feBlend mode="normal" in="SourceGraphic" in2="BackgroundImageFix" result="shape"/>
<feColorMatrix in="SourceAlpha" type="matrix" values="0 0 0 0 0 0 0 0 0 0 0 0 0 0 0 0 0 0 127 0" result="hardAlpha"/>
<feOffset dx="8" dy="8"/>
<feGaussianBlur stdDeviation="6"/>
<feComposite in2="hardAlpha" operator="arithmetic" k2="-1" k3="1"/>
<feColorMatrix type="matrix" values="0 0 0 0 0 0 0 0 0 0 0 0 0 0 0 0 0 0 0.25 0"/>
<feBlend mode="normal" in2="shape" result="effect1_innerShadow_2620_210913"/>
<feColorMatrix in="SourceAlpha" type="matrix" values="0 0 0 0 0 0 0 0 0 0 0 0 0 0 0 0 0 0 127 0" result="hardAlpha"/>
<feOffset dx="-8" dy="8"/>
<feGaussianBlur stdDeviation="6"/>
<feComposite in2="hardAlpha" operator="arithmetic" k2="-1" k3="1"/>
<feColorMatrix type="matrix" values="0 0 0 0 1 0 0 0 0 1 0 0 0 0 1 0 0 0 0.25 0"/>
<feBlend mode="normal" in2="effect1_innerShadow_2620_210913" result="effect2_innerShadow_2620_210913"/>
</filter>
<filter id="filter11_dd_2620_210913" x="127" y="591" width="438" height="75" filterUnits="userSpaceOnUse" color-interpolation-filters="sRGB">
<feFlood flood-opacity="0" result="BackgroundImageFix"/>
<feColorMatrix in="SourceAlpha" type="matrix" values="0 0 0 0 0 0 0 0 0 0 0 0 0 0 0 0 0 0 127 0" result="hardAlpha"/>
<feOffset dy="16"/>
<feGaussianBlur stdDeviation="8"/>
<feComposite in2="hardAlpha" operator="out"/>
<feColorMatrix type="matrix" values="0 0 0 0 0 0 0 0 0 0 0 0 0 0 0 0 0 0 0.25 0"/>
<feBlend mode="normal" in2="BackgroundImageFix" result="effect1_dropShadow_2620_210913"/>
<feColorMatrix in="SourceAlpha" type="matrix" values="0 0 0 0 0 0 0 0 0 0 0 0 0 0 0 0 0 0 127 0" result="hardAlpha"/>
<feOffset dy="8"/>
<feComposite in2="hardAlpha" operator="out"/>
<feColorMatrix type="matrix" values="0 0 0 0 0 0 0 0 0 0 0 0 0 0 0 0 0 0 0.25 0"/>
<feBlend mode="normal" in2="effect1_dropShadow_2620_210913" result="effect2_dropShadow_2620_210913"/>
<feBlend mode="normal" in="SourceGraphic" in2="effect2_dropShadow_2620_210913" result="shape"/>
</filter>
<filter id="filter12_i_2620_210913" x="143" y="583" width="406" height="35" filterUnits="userSpaceOnUse" color-interpolation-filters="sRGB">
<feFlood flood-opacity="0" result="BackgroundImageFix"/>
<feBlend mode="normal" in="SourceGraphic" in2="BackgroundImageFix" result="shape"/>
<feColorMatrix in="SourceAlpha" type="matrix" values="0 0 0 0 0 0 0 0 0 0 0 0 0 0 0 0 0 0 127 0" result="hardAlpha"/>
<feOffset dy="-2"/>
<feComposite in2="hardAlpha" operator="arithmetic" k2="-1" k3="1"/>
<feColorMatrix type="matrix" values="0 0 0 0 1 0 0 0 0 1 0 0 0 0 1 0 0 0 0.25 0"/>
<feBlend mode="normal" in2="shape" result="effect1_innerShadow_2620_210913"/>
</filter>
<filter id="filter13_ii_2620_210913" x="155" y="442" width="382" height="20" filterUnits="userSpaceOnUse" color-interpolation-filters="sRGB">
<feFlood flood-opacity="0" result="BackgroundImageFix"/>
<feBlend mode="normal" in="SourceGraphic" in2="BackgroundImageFix" result="shape"/>
<feColorMatrix in="SourceAlpha" type="matrix" values="0 0 0 0 0 0 0 0 0 0 0 0 0 0 0 0 0 0 127 0" result="hardAlpha"/>
<feOffset dx="4" dy="-4"/>
<feGaussianBlur stdDeviation="2"/>
<feComposite in2="hardAlpha" operator="arithmetic" k2="-1" k3="1"/>
<feColorMatrix type="matrix" values="0 0 0 0 0 0 0 0 0 0 0 0 0 0 0 0 0 0 0.25 0"/>
<feBlend mode="normal" in2="shape" result="effect1_innerShadow_2620_210913"/>
<feColorMatrix in="SourceAlpha" type="matrix" values="0 0 0 0 0 0 0 0 0 0 0 0 0 0 0 0 0 0 127 0" result="hardAlpha"/>
<feOffset dx="-4" dy="-4"/>
<feGaussianBlur stdDeviation="2"/>
<feComposite in2="hardAlpha" operator="arithmetic" k2="-1" k3="1"/>
<feColorMatrix type="matrix" values="0 0 0 0 1 0 0 0 0 1 0 0 0 0 1 0 0 0 0.25 0"/>
<feBlend mode="normal" in2="effect1_innerShadow_2620_210913" result="effect2_innerShadow_2620_210913"/>
</filter>
<filter id="filter14_i_2620_210913" x="175" y="470" width="342" height="117" filterUnits="userSpaceOnUse" color-interpolation-filters="sRGB">
<feFlood flood-opacity="0" result="BackgroundImageFix"/>
<feBlend mode="normal" in="SourceGraphic" in2="BackgroundImageFix" result="shape"/>
<feColorMatrix in="SourceAlpha" type="matrix" values="0 0 0 0 0 0 0 0 0 0 0 0 0 0 0 0 0 0 127 0" result="hardAlpha"/>
<feOffset dy="4"/>
<feComposite in2="hardAlpha" operator="arithmetic" k2="-1" k3="1"/>
<feColorMatrix type="matrix" values="0 0 0 0 0 0 0 0 0 0 0 0 0 0 0 0 0 0 0.35 0"/>
<feBlend mode="normal" in2="shape" result="effect1_innerShadow_2620_210913"/>
</filter>
</defs>
</svg>
