<svg width="139" height="177" viewBox="0 0 139 177" fill="none" xmlns="http://www.w3.org/2000/svg">
<circle cx="68" cy="68" r="68" transform="matrix(0.999998 -0.00217506 0.000452238 1 0 41)" fill="black" fill-opacity="0.12"/>
<circle cx="61" cy="61" r="61" transform="matrix(0.999998 -0.00217506 0.000452238 1 7 48)" fill="black" fill-opacity="0.4"/>
<g filter="url(#filter0_ii_25_76065)">
<circle cx="61" cy="61" r="61" transform="matrix(0.999998 -0.00217506 0.000452239 1 7 46)" fill="#EA580C"/>
</g>
<ellipse cx="60" cy="61" rx="60" ry="61" transform="matrix(0.999998 -0.00217506 0.000452239 1 8 38)" fill="#F97316"/>
<circle cx="47" cy="47" r="47" transform="matrix(-4.37713e-08 -1 -0.999996 0.00293671 116 146)" fill="black" fill-opacity="0.12"/>
<g filter="url(#filter1_ii_25_76065)">
<path d="M55.8048 8.94655C57.7209 3.58139 62.8029 0 68.5 0C74.1971 0 79.2791 3.58138 81.1952 8.94655L107.988 83.9663C117.741 111.274 97.4965 140 68.5 140C39.5035 140 19.2594 111.274 29.012 83.9664L55.8048 8.94655Z" fill="#F97316"/>
</g>
<g filter="url(#filter2_i_25_76065)">
<path fill-rule="evenodd" clip-rule="evenodd" d="M44.2674 40.7695L39.6571 53.5108C32.4454 73.4412 47.2095 94.4844 68.4045 94.4844C89.5996 94.4844 104.364 73.4412 97.1519 53.5108L92.782 41.434C93.5139 54.8431 82.8609 67.0001 68.502 67.0001C53.9062 67.0001 43.1395 54.4388 44.2674 40.7695Z" fill="#CBD5E1"/>
</g>
<g filter="url(#filter3_i_25_76065)">
<path fill-rule="evenodd" clip-rule="evenodd" d="M44.2674 40.7695L39.6571 53.5108C32.4454 73.4412 47.2095 94.4844 68.4045 94.4844C89.5996 94.4844 104.364 73.4412 97.1519 53.5108L92.782 41.434C93.5139 54.8431 82.8609 67.0001 68.502 67.0001C53.9062 67.0001 43.1396 54.4388 44.2674 40.7695Z" fill="url(#paint0_linear_25_76065)"/>
</g>
<circle cx="68.5" cy="13.5" r="13.5" fill="#FB923C"/>
<circle cx="68.5" cy="13.5" r="5.5" fill="#C2410C"/>
<defs>
<filter id="filter0_ii_25_76065" x="-0.972656" y="45.8672" width="138" height="130" filterUnits="userSpaceOnUse" color-interpolation-filters="sRGB">
<feFlood flood-opacity="0" result="BackgroundImageFix"/>
<feBlend mode="normal" in="SourceGraphic" in2="BackgroundImageFix" result="shape"/>
<feColorMatrix in="SourceAlpha" type="matrix" values="0 0 0 0 0 0 0 0 0 0 0 0 0 0 0 0 0 0 127 0" result="hardAlpha"/>
<feOffset dx="8" dy="8"/>
<feGaussianBlur stdDeviation="8"/>
<feComposite in2="hardAlpha" operator="arithmetic" k2="-1" k3="1"/>
<feColorMatrix type="matrix" values="0 0 0 0 0 0 0 0 0 0 0 0 0 0 0 0 0 0 0.25 0"/>
<feBlend mode="normal" in2="shape" result="effect1_innerShadow_25_76065"/>
<feColorMatrix in="SourceAlpha" type="matrix" values="0 0 0 0 0 0 0 0 0 0 0 0 0 0 0 0 0 0 127 0" result="hardAlpha"/>
<feOffset dx="-8" dy="8"/>
<feGaussianBlur stdDeviation="8"/>
<feComposite in2="hardAlpha" operator="arithmetic" k2="-1" k3="1"/>
<feColorMatrix type="matrix" values="0 0 0 0 1 0 0 0 0 1 0 0 0 0 1 0 0 0 0.25 0"/>
<feBlend mode="normal" in2="effect1_innerShadow_25_76065" result="effect2_innerShadow_25_76065"/>
</filter>
<filter id="filter1_ii_25_76065" x="18.5332" y="0" width="99.9336" height="156" filterUnits="userSpaceOnUse" color-interpolation-filters="sRGB">
<feFlood flood-opacity="0" result="BackgroundImageFix"/>
<feBlend mode="normal" in="SourceGraphic" in2="BackgroundImageFix" result="shape"/>
<feColorMatrix in="SourceAlpha" type="matrix" values="0 0 0 0 0 0 0 0 0 0 0 0 0 0 0 0 0 0 127 0" result="hardAlpha"/>
<feOffset dx="8"/>
<feGaussianBlur stdDeviation="12"/>
<feComposite in2="hardAlpha" operator="arithmetic" k2="-1" k3="1"/>
<feColorMatrix type="matrix" values="0 0 0 0 0 0 0 0 0 0 0 0 0 0 0 0 0 0 0.25 0"/>
<feBlend mode="normal" in2="shape" result="effect1_innerShadow_25_76065"/>
<feColorMatrix in="SourceAlpha" type="matrix" values="0 0 0 0 0 0 0 0 0 0 0 0 0 0 0 0 0 0 127 0" result="hardAlpha"/>
<feOffset dx="-8" dy="16"/>
<feGaussianBlur stdDeviation="8"/>
<feComposite in2="hardAlpha" operator="arithmetic" k2="-1" k3="1"/>
<feColorMatrix type="matrix" values="0 0 0 0 1 0 0 0 0 1 0 0 0 0 1 0 0 0 0.25 0"/>
<feBlend mode="normal" in2="effect1_innerShadow_25_76065" result="effect2_innerShadow_25_76065"/>
</filter>
<filter id="filter2_i_25_76065" x="21.8066" y="40.7695" width="77.1953" height="77.7148" filterUnits="userSpaceOnUse" color-interpolation-filters="sRGB">
<feFlood flood-opacity="0" result="BackgroundImageFix"/>
<feBlend mode="normal" in="SourceGraphic" in2="BackgroundImageFix" result="shape"/>
<feColorMatrix in="SourceAlpha" type="matrix" values="0 0 0 0 0 0 0 0 0 0 0 0 0 0 0 0 0 0 127 0" result="hardAlpha"/>
<feOffset dx="-16" dy="24"/>
<feGaussianBlur stdDeviation="12"/>
<feComposite in2="hardAlpha" operator="arithmetic" k2="-1" k3="1"/>
<feColorMatrix type="matrix" values="0 0 0 0 1 0 0 0 0 1 0 0 0 0 1 0 0 0 0.25 0"/>
<feBlend mode="normal" in2="shape" result="effect1_innerShadow_25_76065"/>
</filter>
<filter id="filter3_i_25_76065" x="21.8066" y="40.7695" width="77.1953" height="77.7148" filterUnits="userSpaceOnUse" color-interpolation-filters="sRGB">
<feFlood flood-opacity="0" result="BackgroundImageFix"/>
<feBlend mode="normal" in="SourceGraphic" in2="BackgroundImageFix" result="shape"/>
<feColorMatrix in="SourceAlpha" type="matrix" values="0 0 0 0 0 0 0 0 0 0 0 0 0 0 0 0 0 0 127 0" result="hardAlpha"/>
<feOffset dx="-16" dy="24"/>
<feGaussianBlur stdDeviation="12"/>
<feComposite in2="hardAlpha" operator="arithmetic" k2="-1" k3="1"/>
<feColorMatrix type="matrix" values="0 0 0 0 1 0 0 0 0 1 0 0 0 0 1 0 0 0 0.25 0"/>
<feBlend mode="normal" in2="shape" result="effect1_innerShadow_25_76065"/>
</filter>
<linearGradient id="paint0_linear_25_76065" x1="34.4683" y1="94.3104" x2="102.532" y2="94.3104" gradientUnits="userSpaceOnUse">
<stop offset="0.09375" stop-opacity="0.24"/>
<stop offset="1" stop-color="white" stop-opacity="0"/>
</linearGradient>
</defs>
</svg>
