<svg width="149" height="390" viewBox="0 0 149 390" fill="none" xmlns="http://www.w3.org/2000/svg">
<circle cx="74" cy="372" r="10" fill="black" fill-opacity="0.4"/>
<circle cx="74" cy="372" r="18" fill="black" fill-opacity="0.12"/>
<g filter="url(#filter0_iii_25_76071)">
<path fill-rule="evenodd" clip-rule="evenodd" d="M67.0703 78H66V372C66 376.418 69.5817 380 74 380C78.4183 380 82 376.418 82 372V78H80.9297C79.5465 80.3912 76.9611 82 74 82C71.0389 82 68.4535 80.3912 67.0703 78Z" fill="#64748B"/>
</g>
<g filter="url(#filter1_ii_25_76071)">
<path d="M70.567 129.101C72.1042 131.742 75.9157 131.754 77.469 129.122L145.167 14.411C145.712 13.4873 146 12.4342 146 11.3615V4C146 1.79086 144.209 0 142 0H7C4.79086 0 3 1.79086 3 4V11.3812C3 12.4414 3.28095 13.4828 3.81425 14.3991L70.567 129.101Z" fill="#FB923C"/>
</g>
<g filter="url(#filter2_i_25_76071)">
<path d="M70.5671 129.108C72.1049 131.748 75.9141 131.759 77.4674 129.129L145.437 14.034C147.011 11.3675 145.089 8 141.992 8H6.9602C3.87391 8 1.95031 11.3472 3.5041 14.0138L70.5671 129.108Z" fill="#F97316"/>
</g>
<path d="M135.513 16H13.4639L74.0791 121.02L135.513 16Z" stroke="#F8FAFC" stroke-width="4"/>
<defs>
<filter id="filter0_iii_25_76071" x="58" y="70" width="32" height="318" filterUnits="userSpaceOnUse" color-interpolation-filters="sRGB">
<feFlood flood-opacity="0" result="BackgroundImageFix"/>
<feBlend mode="normal" in="SourceGraphic" in2="BackgroundImageFix" result="shape"/>
<feColorMatrix in="SourceAlpha" type="matrix" values="0 0 0 0 0 0 0 0 0 0 0 0 0 0 0 0 0 0 127 0" result="hardAlpha"/>
<feOffset dx="8" dy="-8"/>
<feGaussianBlur stdDeviation="4"/>
<feComposite in2="hardAlpha" operator="arithmetic" k2="-1" k3="1"/>
<feColorMatrix type="matrix" values="0 0 0 0 0 0 0 0 0 0 0 0 0 0 0 0 0 0 0.25 0"/>
<feBlend mode="normal" in2="shape" result="effect1_innerShadow_25_76071"/>
<feColorMatrix in="SourceAlpha" type="matrix" values="0 0 0 0 0 0 0 0 0 0 0 0 0 0 0 0 0 0 127 0" result="hardAlpha"/>
<feOffset dx="-8" dy="8"/>
<feGaussianBlur stdDeviation="4"/>
<feComposite in2="hardAlpha" operator="arithmetic" k2="-1" k3="1"/>
<feColorMatrix type="matrix" values="0 0 0 0 1 0 0 0 0 1 0 0 0 0 1 0 0 0 0.25 0"/>
<feBlend mode="normal" in2="effect1_innerShadow_25_76071" result="effect2_innerShadow_25_76071"/>
<feColorMatrix in="SourceAlpha" type="matrix" values="0 0 0 0 0 0 0 0 0 0 0 0 0 0 0 0 0 0 127 0" result="hardAlpha"/>
<feOffset dy="56"/>
<feComposite in2="hardAlpha" operator="arithmetic" k2="-1" k3="1"/>
<feColorMatrix type="matrix" values="0 0 0 0 0 0 0 0 0 0 0 0 0 0 0 0 0 0 0.24 0"/>
<feBlend mode="normal" in2="effect2_innerShadow_25_76071" result="effect3_innerShadow_25_76071"/>
</filter>
<filter id="filter1_ii_25_76071" x="-1" y="-4" width="151" height="135.089" filterUnits="userSpaceOnUse" color-interpolation-filters="sRGB">
<feFlood flood-opacity="0" result="BackgroundImageFix"/>
<feBlend mode="normal" in="SourceGraphic" in2="BackgroundImageFix" result="shape"/>
<feColorMatrix in="SourceAlpha" type="matrix" values="0 0 0 0 0 0 0 0 0 0 0 0 0 0 0 0 0 0 127 0" result="hardAlpha"/>
<feOffset dx="4" dy="-4"/>
<feGaussianBlur stdDeviation="2"/>
<feComposite in2="hardAlpha" operator="arithmetic" k2="-1" k3="1"/>
<feColorMatrix type="matrix" values="0 0 0 0 0 0 0 0 0 0 0 0 0 0 0 0 0 0 0.25 0"/>
<feBlend mode="normal" in2="shape" result="effect1_innerShadow_25_76071"/>
<feColorMatrix in="SourceAlpha" type="matrix" values="0 0 0 0 0 0 0 0 0 0 0 0 0 0 0 0 0 0 127 0" result="hardAlpha"/>
<feOffset dx="-4" dy="-2"/>
<feGaussianBlur stdDeviation="2"/>
<feComposite in2="hardAlpha" operator="arithmetic" k2="-1" k3="1"/>
<feColorMatrix type="matrix" values="0 0 0 0 1 0 0 0 0 1 0 0 0 0 1 0 0 0 0.25 0"/>
<feBlend mode="normal" in2="effect1_innerShadow_25_76071" result="effect2_innerShadow_25_76071"/>
</filter>
<filter id="filter2_i_25_76071" x="2.95312" y="6" width="145.045" height="125.095" filterUnits="userSpaceOnUse" color-interpolation-filters="sRGB">
<feFlood flood-opacity="0" result="BackgroundImageFix"/>
<feBlend mode="normal" in="SourceGraphic" in2="BackgroundImageFix" result="shape"/>
<feColorMatrix in="SourceAlpha" type="matrix" values="0 0 0 0 0 0 0 0 0 0 0 0 0 0 0 0 0 0 127 0" result="hardAlpha"/>
<feOffset dx="2" dy="-2"/>
<feGaussianBlur stdDeviation="1"/>
<feComposite in2="hardAlpha" operator="arithmetic" k2="-1" k3="1"/>
<feColorMatrix type="matrix" values="0 0 0 0 0 0 0 0 0 0 0 0 0 0 0 0 0 0 0.25 0"/>
<feBlend mode="normal" in2="shape" result="effect1_innerShadow_25_76071"/>
</filter>
</defs>
</svg>
