<svg width="157" height="986" viewBox="0 0 157 986" fill="none" xmlns="http://www.w3.org/2000/svg">
<ellipse cx="76.5" cy="68.5" rx="76.5" ry="68.5" transform="matrix(-1 0 0 1 153 849.001)" fill="black" fill-opacity="0.12"/>
<ellipse cx="65.5" cy="58.5" rx="65.5" ry="58.5" transform="matrix(-1 0 0 1 142 859.001)" fill="black" fill-opacity="0.4"/>
<path d="M140 905.001H13V909.501C13 944.571 41.4299 973.001 76.5 973.001C111.57 973.001 140 944.571 140 909.501V905.001Z" fill="#334155"/>
<g filter="url(#filter0_i_25_76059)">
<ellipse cx="63.4996" cy="57.3242" rx="63.4996" ry="57.3242" transform="matrix(-1 0 0 1 140 851.046)" fill="#64748B"/>
</g>
<g filter="url(#filter1_d_25_76059)">
<path d="M98.2578 483.007C98.2578 470.774 88.3405 460.856 76.1068 460.856C63.8731 460.856 53.9558 470.774 53.9558 483.007V899.178C53.9558 911.412 63.8731 921.329 76.1068 921.329C88.3405 921.329 98.2578 911.412 98.2578 899.178V483.007Z" fill="#64748B"/>
</g>
<g filter="url(#filter2_i_25_76059)">
<path d="M98.2578 483.007C98.2578 470.774 88.3405 460.856 76.1068 460.856C63.8731 460.856 53.9558 470.774 53.9558 483.007V899.178C53.9558 911.412 63.8731 921.329 76.1068 921.329C88.3405 921.329 98.2578 911.412 98.2578 899.178V483.007Z" fill="#475569"/>
</g>
<g filter="url(#filter3_i_25_76059)">
<circle cx="22.0168" cy="22.0168" r="22.0168" transform="matrix(-1 0 0 1 98.2578 460.856)" fill="#64748B"/>
</g>
<path d="M98 347.001C98 334.851 88.1503 325.001 76 325.001C63.8497 325.001 54 334.851 54 347.001V357.001C54 369.151 63.8497 379.001 76 379.001C88.1503 379.001 98 369.151 98 357.001V347.001Z" fill="#334155"/>
<g filter="url(#filter4_ii_25_76059)">
<path d="M91 23.3408C91 15.0565 84.2843 8.34082 76 8.34082C67.7157 8.34082 61 15.0565 61 23.3408V367.341C61 375.625 67.7157 382.341 76 382.341C84.2843 382.341 91 375.625 91 367.341V23.3408Z" fill="#475569"/>
</g>
<g filter="url(#filter5_i_25_76059)">
<path d="M91 136.341C91 128.057 84.2843 121.341 76 121.341C67.7157 121.341 61 128.057 61 136.341V480.341C61 488.625 67.7157 495.341 76 495.341C84.2843 495.341 91 488.625 91 480.341V136.341Z" fill="#475569"/>
</g>
<path d="M98 357.001C98 344.851 88.1503 335.001 76 335.001C63.8497 335.001 54 344.851 54 357.001C54 369.151 63.8497 379.001 76 379.001C88.1503 379.001 98 369.151 98 357.001Z" fill="#64748B"/>
<g filter="url(#filter6_i_25_76059)">
<path d="M98 53.3398C98 41.1896 88.1503 31.3398 76 31.3398C63.8497 31.3398 54 41.1896 54 53.3398L54 220.34C54 232.49 63.8497 242.34 76 242.34C88.1503 242.34 98 232.49 98 220.34L98 53.3398Z" fill="#64748B"/>
</g>
<g filter="url(#filter7_i_25_76059)">
<path d="M134 195.589C134 193.335 132.173 191.508 129.919 191.508C81.9151 191.508 43 230.423 43 278.427V353.866C43 400.612 80.8955 438.508 127.642 438.508C131.153 438.508 134 435.661 134 432.15V195.589Z" fill="#334155"/>
</g>
<g filter="url(#filter8_i_25_76059)">
<path d="M130 217.508C130 211.985 125.523 207.508 120 207.508H96C66.7289 207.508 43 231.237 43 260.508V369.508C43 398.779 66.7289 422.508 96 422.508H114C122.837 422.508 130 415.344 130 406.508V217.508Z" fill="#475569"/>
</g>
<rect width="24.0732" height="44.1667" transform="matrix(-1 0 0 1 125.219 253.508)" fill="#7F1D1D"/>
<path d="M121.781 253.508H124.917C137.114 253.508 147.001 263.395 147.001 275.591C147.001 287.787 137.114 297.674 124.917 297.674H121.781V253.508Z" fill="#991B1B"/>
<path d="M142.414 263.46C141.246 263.277 135.969 264.781 129.804 267.862" stroke="#B91C1C" stroke-width="2.68" stroke-linecap="round"/>
<path d="M142.414 286.618C141.246 286.801 135.969 285.297 129.804 282.216" stroke="#B91C1C" stroke-width="2.68" stroke-linecap="round"/>
<path d="M145.854 275.591H129.805" stroke="#B91C1C" stroke-width="2.68" stroke-linecap="round"/>
<path d="M132.097 260.133C140.121 271.727 139.548 282.768 132.097 290.497" stroke="#B91C1C" stroke-width="2.68" stroke-linecap="round"/>
<rect width="24.0732" height="44.1667" transform="matrix(-1 0 0 1 125.219 310.924)" fill="#713F12"/>
<path d="M121.781 310.924H124.917C137.114 310.924 147.001 320.811 147.001 333.007C147.001 345.203 137.114 355.09 124.917 355.09H121.781V310.924Z" fill="#854D0E"/>
<path d="M142.414 320.876C141.246 320.693 135.969 322.197 129.804 325.278" stroke="#A16207" stroke-width="2.68" stroke-linecap="round"/>
<path d="M142.414 344.034C141.246 344.217 135.969 342.713 129.804 339.632" stroke="#A16207" stroke-width="2.68" stroke-linecap="round"/>
<path d="M145.854 333.007H129.805" stroke="#A16207" stroke-width="2.68" stroke-linecap="round"/>
<path d="M132.097 317.549C140.121 329.143 139.548 340.184 132.097 347.913" stroke="#A16207" stroke-width="2.68" stroke-linecap="round"/>
<rect width="24.0732" height="44.1667" transform="matrix(-1 0 0 1 124.072 368.342)" fill="#365314"/>
<path d="M121.781 368.342H124.917C137.114 368.342 147.001 378.229 147.001 390.425C147.001 402.621 137.114 412.508 124.917 412.508H121.781V368.342Z" fill="#3F6212"/>
<path d="M142.414 378.294C141.246 378.111 135.969 379.615 129.804 382.696" stroke="#4D7C0F" stroke-width="2.68" stroke-linecap="round"/>
<path d="M142.414 401.452C141.246 401.635 135.969 400.131 129.804 397.05" stroke="#4D7C0F" stroke-width="2.68" stroke-linecap="round"/>
<path d="M145.854 390.425H129.805" stroke="#4D7C0F" stroke-width="2.68" stroke-linecap="round"/>
<path d="M132.097 374.967C140.121 386.561 139.548 397.602 132.097 405.331" stroke="#4D7C0F" stroke-width="2.68" stroke-linecap="round"/>
<g filter="url(#filter9_i_25_76059)">
<path d="M126 201.508C126 195.985 121.523 191.508 116 191.508H86C56.7289 191.508 33 215.237 33 244.508V385.508C33 414.779 56.7289 438.508 86 438.508H117C121.971 438.508 126 434.478 126 429.508V201.508Z" fill="#475569"/>
</g>
<g filter="url(#filter10_i_25_76059)">
<path d="M126 191.508H112V438.508H119C122.866 438.508 126 435.374 126 431.508V191.508Z" fill="#475569"/>
</g>
<g filter="url(#filter11_i_25_76059)">
<path d="M126 191.508H120V438.508C123.314 438.508 126 435.822 126 432.508V191.508Z" fill="#64748B"/>
</g>
<ellipse cx="16.1098" cy="14.4988" rx="16.1098" ry="14.4988" transform="matrix(-1 0 0 1 108 189.709)" fill="#334155"/>
<ellipse cx="16.1098" cy="14.4988" rx="16.1098" ry="14.4988" transform="matrix(-1 0 0 1 108 184.34)" fill="#475569"/>
<path d="M157 209.508C157 203.985 152.523 199.508 147 199.508H130C124.477 199.508 120 203.985 120 209.508V249.008C120 259.225 128.283 267.508 138.5 267.508C148.717 267.508 157 259.225 157 249.008V209.508Z" fill="#334155"/>
<g filter="url(#filter12_i_25_76059)">
<path d="M157 201.508C157 195.985 152.523 191.508 147 191.508H120V241.008C120 251.225 128.283 259.508 138.5 259.508C148.717 259.508 157 251.225 157 241.008V201.508Z" fill="#64748B"/>
</g>
<defs>
<filter id="filter0_i_25_76059" x="13" y="843.046" width="133" height="122.648" filterUnits="userSpaceOnUse" color-interpolation-filters="sRGB">
<feFlood flood-opacity="0" result="BackgroundImageFix"/>
<feBlend mode="normal" in="SourceGraphic" in2="BackgroundImageFix" result="shape"/>
<feColorMatrix in="SourceAlpha" type="matrix" values="0 0 0 0 0 0 0 0 0 0 0 0 0 0 0 0 0 0 127 0" result="hardAlpha"/>
<feOffset dx="6" dy="-8"/>
<feGaussianBlur stdDeviation="4"/>
<feComposite in2="hardAlpha" operator="arithmetic" k2="-1" k3="1"/>
<feColorMatrix type="matrix" values="0 0 0 0 0 0 0 0 0 0 0 0 0 0 0 0 0 0 0.25 0"/>
<feBlend mode="normal" in2="shape" result="effect1_innerShadow_25_76059"/>
</filter>
<filter id="filter1_d_25_76059" x="53.9551" y="460.856" width="44.3027" height="462.473" filterUnits="userSpaceOnUse" color-interpolation-filters="sRGB">
<feFlood flood-opacity="0" result="BackgroundImageFix"/>
<feColorMatrix in="SourceAlpha" type="matrix" values="0 0 0 0 0 0 0 0 0 0 0 0 0 0 0 0 0 0 127 0" result="hardAlpha"/>
<feOffset dy="2"/>
<feComposite in2="hardAlpha" operator="out"/>
<feColorMatrix type="matrix" values="0 0 0 0 0 0 0 0 0 0 0 0 0 0 0 0 0 0 0.25 0"/>
<feBlend mode="normal" in2="BackgroundImageFix" result="effect1_dropShadow_25_76059"/>
<feBlend mode="normal" in="SourceGraphic" in2="effect1_dropShadow_25_76059" result="shape"/>
</filter>
<filter id="filter2_i_25_76059" x="53.9551" y="460.856" width="52.3027" height="468.473" filterUnits="userSpaceOnUse" color-interpolation-filters="sRGB">
<feFlood flood-opacity="0" result="BackgroundImageFix"/>
<feBlend mode="normal" in="SourceGraphic" in2="BackgroundImageFix" result="shape"/>
<feColorMatrix in="SourceAlpha" type="matrix" values="0 0 0 0 0 0 0 0 0 0 0 0 0 0 0 0 0 0 127 0" result="hardAlpha"/>
<feOffset dx="14" dy="19"/>
<feGaussianBlur stdDeviation="4"/>
<feComposite in2="hardAlpha" operator="arithmetic" k2="-1" k3="1"/>
<feColorMatrix type="matrix" values="0 0 0 0 0 0 0 0 0 0 0 0 0 0 0 0 0 0 0.25 0"/>
<feBlend mode="normal" in2="shape" result="effect1_innerShadow_25_76059"/>
</filter>
<filter id="filter3_i_25_76059" x="54.2246" y="460.856" width="48.0332" height="48.0337" filterUnits="userSpaceOnUse" color-interpolation-filters="sRGB">
<feFlood flood-opacity="0" result="BackgroundImageFix"/>
<feBlend mode="normal" in="SourceGraphic" in2="BackgroundImageFix" result="shape"/>
<feColorMatrix in="SourceAlpha" type="matrix" values="0 0 0 0 0 0 0 0 0 0 0 0 0 0 0 0 0 0 127 0" result="hardAlpha"/>
<feOffset dx="12" dy="4"/>
<feGaussianBlur stdDeviation="2"/>
<feComposite in2="hardAlpha" operator="arithmetic" k2="-1" k3="1"/>
<feColorMatrix type="matrix" values="0 0 0 0 0 0 0 0 0 0 0 0 0 0 0 0 0 0 0.25 0"/>
<feBlend mode="normal" in2="shape" result="effect1_innerShadow_25_76059"/>
</filter>
<filter id="filter4_ii_25_76059" x="53" y="4.34082" width="46" height="381" filterUnits="userSpaceOnUse" color-interpolation-filters="sRGB">
<feFlood flood-opacity="0" result="BackgroundImageFix"/>
<feBlend mode="normal" in="SourceGraphic" in2="BackgroundImageFix" result="shape"/>
<feColorMatrix in="SourceAlpha" type="matrix" values="0 0 0 0 0 0 0 0 0 0 0 0 0 0 0 0 0 0 127 0" result="hardAlpha"/>
<feOffset dx="14" dy="3"/>
<feGaussianBlur stdDeviation="4"/>
<feComposite in2="hardAlpha" operator="arithmetic" k2="-1" k3="1"/>
<feColorMatrix type="matrix" values="0 0 0 0 0 0 0 0 0 0 0 0 0 0 0 0 0 0 0.25 0"/>
<feBlend mode="normal" in2="shape" result="effect1_innerShadow_25_76059"/>
<feColorMatrix in="SourceAlpha" type="matrix" values="0 0 0 0 0 0 0 0 0 0 0 0 0 0 0 0 0 0 127 0" result="hardAlpha"/>
<feOffset dx="-8" dy="-4"/>
<feGaussianBlur stdDeviation="6"/>
<feComposite in2="hardAlpha" operator="arithmetic" k2="-1" k3="1"/>
<feColorMatrix type="matrix" values="0 0 0 0 1 0 0 0 0 1 0 0 0 0 1 0 0 0 0.25 0"/>
<feBlend mode="normal" in2="effect1_innerShadow_25_76059" result="effect2_innerShadow_25_76059"/>
</filter>
<filter id="filter5_i_25_76059" x="61" y="121.341" width="38" height="377" filterUnits="userSpaceOnUse" color-interpolation-filters="sRGB">
<feFlood flood-opacity="0" result="BackgroundImageFix"/>
<feBlend mode="normal" in="SourceGraphic" in2="BackgroundImageFix" result="shape"/>
<feColorMatrix in="SourceAlpha" type="matrix" values="0 0 0 0 0 0 0 0 0 0 0 0 0 0 0 0 0 0 127 0" result="hardAlpha"/>
<feOffset dx="14" dy="3"/>
<feGaussianBlur stdDeviation="4"/>
<feComposite in2="hardAlpha" operator="arithmetic" k2="-1" k3="1"/>
<feColorMatrix type="matrix" values="0 0 0 0 0 0 0 0 0 0 0 0 0 0 0 0 0 0 0.25 0"/>
<feBlend mode="normal" in2="shape" result="effect1_innerShadow_25_76059"/>
</filter>
<filter id="filter6_i_25_76059" x="54" y="23.3398" width="52" height="219" filterUnits="userSpaceOnUse" color-interpolation-filters="sRGB">
<feFlood flood-opacity="0" result="BackgroundImageFix"/>
<feBlend mode="normal" in="SourceGraphic" in2="BackgroundImageFix" result="shape"/>
<feColorMatrix in="SourceAlpha" type="matrix" values="0 0 0 0 0 0 0 0 0 0 0 0 0 0 0 0 0 0 127 0" result="hardAlpha"/>
<feOffset dx="15" dy="-18"/>
<feGaussianBlur stdDeviation="4"/>
<feComposite in2="hardAlpha" operator="arithmetic" k2="-1" k3="1"/>
<feColorMatrix type="matrix" values="0 0 0 0 0 0 0 0 0 0 0 0 0 0 0 0 0 0 0.25 0"/>
<feBlend mode="normal" in2="shape" result="effect1_innerShadow_25_76059"/>
</filter>
<filter id="filter7_i_25_76059" x="43" y="175.508" width="115" height="263" filterUnits="userSpaceOnUse" color-interpolation-filters="sRGB">
<feFlood flood-opacity="0" result="BackgroundImageFix"/>
<feBlend mode="normal" in="SourceGraphic" in2="BackgroundImageFix" result="shape"/>
<feColorMatrix in="SourceAlpha" type="matrix" values="0 0 0 0 0 0 0 0 0 0 0 0 0 0 0 0 0 0 127 0" result="hardAlpha"/>
<feOffset dx="24" dy="-16"/>
<feGaussianBlur stdDeviation="16"/>
<feComposite in2="hardAlpha" operator="arithmetic" k2="-1" k3="1"/>
<feColorMatrix type="matrix" values="0 0 0 0 0 0 0 0 0 0 0 0 0 0 0 0 0 0 0.25 0"/>
<feBlend mode="normal" in2="shape" result="effect1_innerShadow_25_76059"/>
</filter>
<filter id="filter8_i_25_76059" x="43" y="191.508" width="111" height="231" filterUnits="userSpaceOnUse" color-interpolation-filters="sRGB">
<feFlood flood-opacity="0" result="BackgroundImageFix"/>
<feBlend mode="normal" in="SourceGraphic" in2="BackgroundImageFix" result="shape"/>
<feColorMatrix in="SourceAlpha" type="matrix" values="0 0 0 0 0 0 0 0 0 0 0 0 0 0 0 0 0 0 127 0" result="hardAlpha"/>
<feOffset dx="24" dy="-16"/>
<feGaussianBlur stdDeviation="16"/>
<feComposite in2="hardAlpha" operator="arithmetic" k2="-1" k3="1"/>
<feColorMatrix type="matrix" values="0 0 0 0 0 0 0 0 0 0 0 0 0 0 0 0 0 0 0.25 0"/>
<feBlend mode="normal" in2="shape" result="effect1_innerShadow_25_76059"/>
</filter>
<filter id="filter9_i_25_76059" x="33" y="169.508" width="115" height="269" filterUnits="userSpaceOnUse" color-interpolation-filters="sRGB">
<feFlood flood-opacity="0" result="BackgroundImageFix"/>
<feBlend mode="normal" in="SourceGraphic" in2="BackgroundImageFix" result="shape"/>
<feColorMatrix in="SourceAlpha" type="matrix" values="0 0 0 0 0 0 0 0 0 0 0 0 0 0 0 0 0 0 127 0" result="hardAlpha"/>
<feOffset dx="40" dy="-36"/>
<feGaussianBlur stdDeviation="11"/>
<feComposite in2="hardAlpha" operator="arithmetic" k2="-1" k3="1"/>
<feColorMatrix type="matrix" values="0 0 0 0 0 0 0 0 0 0 0 0 0 0 0 0 0 0 0.25 0"/>
<feBlend mode="normal" in2="shape" result="effect1_innerShadow_25_76059"/>
</filter>
<filter id="filter10_i_25_76059" x="112" y="175.508" width="38" height="263" filterUnits="userSpaceOnUse" color-interpolation-filters="sRGB">
<feFlood flood-opacity="0" result="BackgroundImageFix"/>
<feBlend mode="normal" in="SourceGraphic" in2="BackgroundImageFix" result="shape"/>
<feColorMatrix in="SourceAlpha" type="matrix" values="0 0 0 0 0 0 0 0 0 0 0 0 0 0 0 0 0 0 127 0" result="hardAlpha"/>
<feOffset dx="24" dy="-16"/>
<feGaussianBlur stdDeviation="16"/>
<feComposite in2="hardAlpha" operator="arithmetic" k2="-1" k3="1"/>
<feColorMatrix type="matrix" values="0 0 0 0 0 0 0 0 0 0 0 0 0 0 0 0 0 0 0.25 0"/>
<feBlend mode="normal" in2="shape" result="effect1_innerShadow_25_76059"/>
</filter>
<filter id="filter11_i_25_76059" x="120" y="175.508" width="30" height="263" filterUnits="userSpaceOnUse" color-interpolation-filters="sRGB">
<feFlood flood-opacity="0" result="BackgroundImageFix"/>
<feBlend mode="normal" in="SourceGraphic" in2="BackgroundImageFix" result="shape"/>
<feColorMatrix in="SourceAlpha" type="matrix" values="0 0 0 0 0 0 0 0 0 0 0 0 0 0 0 0 0 0 127 0" result="hardAlpha"/>
<feOffset dx="24" dy="-16"/>
<feGaussianBlur stdDeviation="16"/>
<feComposite in2="hardAlpha" operator="arithmetic" k2="-1" k3="1"/>
<feColorMatrix type="matrix" values="0 0 0 0 0 0 0 0 0 0 0 0 0 0 0 0 0 0 0.25 0"/>
<feBlend mode="normal" in2="shape" result="effect1_innerShadow_25_76059"/>
</filter>
<filter id="filter12_i_25_76059" x="120" y="191.508" width="44" height="78" filterUnits="userSpaceOnUse" color-interpolation-filters="sRGB">
<feFlood flood-opacity="0" result="BackgroundImageFix"/>
<feBlend mode="normal" in="SourceGraphic" in2="BackgroundImageFix" result="shape"/>
<feColorMatrix in="SourceAlpha" type="matrix" values="0 0 0 0 0 0 0 0 0 0 0 0 0 0 0 0 0 0 127 0" result="hardAlpha"/>
<feOffset dx="7" dy="11"/>
<feGaussianBlur stdDeviation="5"/>
<feComposite in2="hardAlpha" operator="arithmetic" k2="-1" k3="1"/>
<feColorMatrix type="matrix" values="0 0 0 0 0 0 0 0 0 0 0 0 0 0 0 0 0 0 0.25 0"/>
<feBlend mode="normal" in2="shape" result="effect1_innerShadow_25_76059"/>
</filter>
</defs>
</svg>
