<svg width="140" height="390" viewBox="0 0 140 390" fill="none" xmlns="http://www.w3.org/2000/svg">
<circle cx="71" cy="372" r="10" fill="black" fill-opacity="0.4"/>
<circle cx="71" cy="372" r="18" fill="black" fill-opacity="0.12"/>
<g filter="url(#filter0_iii_25_76080)">
<path fill-rule="evenodd" clip-rule="evenodd" d="M64.0703 111H63V372C63 376.418 66.5817 380 71 380C75.4183 380 79 376.418 79 372V111H77.9297C76.5465 113.391 73.9611 115 71 115C68.0389 115 65.4535 113.391 64.0703 111Z" fill="#64748B"/>
</g>
<g filter="url(#filter1_ii_25_76080)">
<rect y="13" width="140" height="111" rx="8" fill="#F5F5F4"/>
</g>
<g filter="url(#filter2_i_25_76080)">
<rect y="21" width="140" height="111" rx="8" fill="#E7E5E4"/>
</g>
<rect x="6" y="27" width="128" height="99" rx="4" stroke="#292524" stroke-width="4"/>
<path d="M35.6875 46.25H42.7656C44.276 46.25 45.5625 46.5104 46.625 47.0312C47.6875 47.5521 48.4948 48.3229 49.0469 49.3438C49.6094 50.3646 49.8906 51.6198 49.8906 53.1094C49.8906 54.2969 49.7188 55.3281 49.375 56.2031C49.0417 57.0677 48.5625 57.7917 47.9375 58.375C47.3229 58.9583 46.5781 59.4115 45.7031 59.7344L44.4375 60.4531H38.5781L38.5625 56.9688H42.6719C43.349 56.9688 43.9115 56.8177 44.3594 56.5156C44.8177 56.2135 45.1562 55.7969 45.375 55.2656C45.6042 54.724 45.7188 54.1042 45.7188 53.4062C45.7188 52.6458 45.6146 51.9948 45.4062 51.4531C45.2083 50.901 44.8906 50.4792 44.4531 50.1875C44.026 49.8958 43.4635 49.75 42.7656 49.75H39.875V69H35.6875V46.25ZM46.1562 69L41.8906 58.8125H46.2812L50.625 68.7812V69H46.1562ZM68.9375 55.8125V59.6406C68.9375 61.2448 68.75 62.651 68.375 63.8594C68 65.0677 67.4583 66.0781 66.75 66.8906C66.0417 67.6927 65.1927 68.2969 64.2031 68.7031C63.2135 69.1094 62.1198 69.3125 60.9219 69.3125C59.7135 69.3125 58.6146 69.1094 57.625 68.7031C56.6354 68.2969 55.7812 67.6927 55.0625 66.8906C54.3542 66.0781 53.8021 65.0677 53.4062 63.8594C53.0208 62.651 52.8281 61.2448 52.8281 59.6406V55.8125C52.8281 54.1771 53.0208 52.7448 53.4062 51.5156C53.7917 50.2865 54.3385 49.2604 55.0469 48.4375C55.7656 47.6146 56.6198 46.9948 57.6094 46.5781C58.599 46.151 59.6927 45.9375 60.8906 45.9375C62.099 45.9375 63.1927 46.151 64.1719 46.5781C65.1615 46.9948 66.0104 47.6146 66.7188 48.4375C67.4375 49.2604 67.9844 50.2865 68.3594 51.5156C68.7448 52.7448 68.9375 54.1771 68.9375 55.8125ZM64.7812 59.6406V55.7812C64.7812 54.6667 64.6979 53.7083 64.5312 52.9062C64.3646 52.1042 64.1146 51.4531 63.7812 50.9531C63.4479 50.4427 63.0365 50.0677 62.5469 49.8281C62.0677 49.5885 61.5156 49.4688 60.8906 49.4688C60.2552 49.4688 59.6927 49.5885 59.2031 49.8281C58.724 50.0677 58.3177 50.4427 57.9844 50.9531C57.6615 51.4531 57.4167 52.1042 57.25 52.9062C57.0833 53.7083 57 54.6667 57 55.7812V59.6406C57 60.7344 57.0833 61.6719 57.25 62.4531C57.4167 63.2344 57.6667 63.8698 58 64.3594C58.3438 64.849 58.7552 65.2135 59.2344 65.4531C59.724 65.6823 60.2865 65.7969 60.9219 65.7969C61.5469 65.7969 62.099 65.6823 62.5781 65.4531C63.0677 65.2135 63.474 64.849 63.7969 64.3594C64.1302 63.8698 64.375 63.2344 64.5312 62.4531C64.6979 61.6719 64.7812 60.7344 64.7812 59.6406ZM80.25 49.8438L75.0469 69H70.6406L77.8125 46.25H80.5625L80.25 49.8438ZM84.3594 69L79.1562 49.8438L78.7969 46.25H81.5781L88.7812 69H84.3594ZM84.5 60.5312V64.0156H74.0625V60.5312H84.5ZM96.9375 69H92.9531L92.9844 65.5156H96.9375C98.0938 65.5156 99.0052 65.3073 99.6719 64.8906C100.349 64.4635 100.828 63.8021 101.109 62.9062C101.401 62.0104 101.547 60.8542 101.547 59.4375V55.7969C101.547 54.7135 101.469 53.7917 101.312 53.0312C101.156 52.2604 100.901 51.6354 100.547 51.1562C100.193 50.6771 99.7292 50.3229 99.1562 50.0938C98.5833 49.8646 97.875 49.75 97.0312 49.75H92.875V46.25H97.0312C98.3438 46.25 99.5312 46.4635 100.594 46.8906C101.656 47.3073 102.568 47.9219 103.328 48.7344C104.099 49.5469 104.688 50.5521 105.094 51.75C105.5 52.9375 105.703 54.2969 105.703 55.8281V59.4375C105.703 60.9688 105.5 62.3281 105.094 63.5156C104.688 64.7031 104.099 65.7031 103.328 66.5156C102.568 67.3281 101.646 67.9479 100.562 68.375C99.4896 68.7917 98.2812 69 96.9375 69ZM95.3594 46.25V69H91.1719V46.25H95.3594ZM32.0625 96.5H36.2344C36.1615 98.1771 35.8177 99.599 35.2031 100.766C34.599 101.922 33.7292 102.802 32.5938 103.406C31.4688 104.01 30.099 104.312 28.4844 104.312C27.2552 104.312 26.1562 104.099 25.1875 103.672C24.2188 103.234 23.3958 102.604 22.7188 101.781C22.0521 100.958 21.5417 99.9479 21.1875 98.75C20.8438 97.5417 20.6719 96.1615 20.6719 94.6094V90.6562C20.6719 89.1042 20.8542 87.724 21.2188 86.5156C21.5833 85.3073 22.1042 84.2865 22.7812 83.4531C23.4688 82.6198 24.3021 81.9896 25.2812 81.5625C26.2604 81.1354 27.3646 80.9219 28.5938 80.9219C30.2188 80.9219 31.5781 81.2292 32.6719 81.8438C33.7656 82.4583 34.6094 83.3594 35.2031 84.5469C35.7969 85.724 36.1458 87.1615 36.25 88.8594H32.0781C32.0365 87.7552 31.901 86.8802 31.6719 86.2344C31.4427 85.5781 31.0833 85.1094 30.5938 84.8281C30.1042 84.5469 29.4375 84.4062 28.5938 84.4062C27.9375 84.4062 27.3698 84.526 26.8906 84.7656C26.4115 85.0052 26.0208 85.3802 25.7188 85.8906C25.4167 86.3906 25.1927 87.0312 25.0469 87.8125C24.901 88.5938 24.8281 89.5312 24.8281 90.625V94.6094C24.8281 95.6615 24.8906 96.5781 25.0156 97.3594C25.1406 98.1406 25.3385 98.7917 25.6094 99.3125C25.8906 99.8229 26.2656 100.208 26.7344 100.469C27.2031 100.719 27.7865 100.844 28.4844 100.844C29.3281 100.844 30 100.719 30.5 100.469C31 100.208 31.3698 99.7656 31.6094 99.1406C31.8594 98.5052 32.0104 97.625 32.0625 96.5ZM51.75 100.516V104H42.2969V100.516H51.75ZM43.5 81.25V104H39.3125V81.25H43.5ZM69.2656 90.8125V94.6406C69.2656 96.2448 69.0781 97.651 68.7031 98.8594C68.3281 100.068 67.7865 101.078 67.0781 101.891C66.3698 102.693 65.5208 103.297 64.5312 103.703C63.5417 104.109 62.4479 104.312 61.25 104.312C60.0417 104.312 58.9427 104.109 57.9531 103.703C56.9635 103.297 56.1094 102.693 55.3906 101.891C54.6823 101.078 54.1302 100.068 53.7344 98.8594C53.349 97.651 53.1562 96.2448 53.1562 94.6406V90.8125C53.1562 89.1771 53.349 87.7448 53.7344 86.5156C54.1198 85.2865 54.6667 84.2604 55.375 83.4375C56.0938 82.6146 56.9479 81.9948 57.9375 81.5781C58.9271 81.151 60.0208 80.9375 61.2188 80.9375C62.4271 80.9375 63.5208 81.151 64.5 81.5781C65.4896 81.9948 66.3385 82.6146 67.0469 83.4375C67.7656 84.2604 68.3125 85.2865 68.6875 86.5156C69.0729 87.7448 69.2656 89.1771 69.2656 90.8125ZM65.1094 94.6406V90.7812C65.1094 89.6667 65.026 88.7083 64.8594 87.9062C64.6927 87.1042 64.4427 86.4531 64.1094 85.9531C63.776 85.4427 63.3646 85.0677 62.875 84.8281C62.3958 84.5885 61.8438 84.4688 61.2188 84.4688C60.5833 84.4688 60.0208 84.5885 59.5312 84.8281C59.0521 85.0677 58.6458 85.4427 58.3125 85.9531C57.9896 86.4531 57.7448 87.1042 57.5781 87.9062C57.4115 88.7083 57.3281 89.6667 57.3281 90.7812V94.6406C57.3281 95.7344 57.4115 96.6719 57.5781 97.4531C57.7448 98.2344 57.9948 98.8698 58.3281 99.3594C58.6719 99.849 59.0833 100.214 59.5625 100.453C60.0521 100.682 60.6146 100.797 61.25 100.797C61.875 100.797 62.4271 100.682 62.9062 100.453C63.3958 100.214 63.8021 99.849 64.125 99.3594C64.4583 98.8698 64.7031 98.2344 64.8594 97.4531C65.026 96.6719 65.1094 95.7344 65.1094 94.6406ZM82.5781 98.0781C82.5781 97.6302 82.5312 97.2344 82.4375 96.8906C82.3542 96.5365 82.1875 96.2135 81.9375 95.9219C81.6875 95.6302 81.3281 95.3438 80.8594 95.0625C80.3906 94.7708 79.7865 94.474 79.0469 94.1719C78.1719 93.8177 77.3438 93.4427 76.5625 93.0469C75.7812 92.6406 75.0833 92.1719 74.4688 91.6406C73.8542 91.1094 73.3698 90.4844 73.0156 89.7656C72.6719 89.0469 72.5 88.2083 72.5 87.25C72.5 86.3125 72.6667 85.4583 73 84.6875C73.3438 83.9062 73.8281 83.2396 74.4531 82.6875C75.0781 82.125 75.8177 81.6927 76.6719 81.3906C77.5365 81.0885 78.4896 80.9375 79.5312 80.9375C81 80.9375 82.2604 81.2448 83.3125 81.8594C84.3646 82.474 85.1771 83.3073 85.75 84.3594C86.3229 85.4115 86.6094 86.599 86.6094 87.9219H82.4375C82.4375 87.2344 82.3333 86.625 82.125 86.0938C81.9271 85.5521 81.6094 85.1302 81.1719 84.8281C80.7344 84.526 80.1719 84.375 79.4844 84.375C78.8385 84.375 78.3073 84.5052 77.8906 84.7656C77.474 85.0156 77.1667 85.3594 76.9688 85.7969C76.7708 86.224 76.6719 86.7135 76.6719 87.2656C76.6719 87.6615 76.7604 88.0208 76.9375 88.3438C77.125 88.6562 77.3802 88.9427 77.7031 89.2031C78.026 89.4635 78.4167 89.7135 78.875 89.9531C79.3438 90.1823 79.8646 90.4062 80.4375 90.625C81.4896 91.0208 82.4115 91.4583 83.2031 91.9375C83.9948 92.4062 84.651 92.9375 85.1719 93.5312C85.7031 94.1146 86.099 94.776 86.3594 95.5156C86.6198 96.2552 86.75 97.099 86.75 98.0469C86.75 98.9844 86.5885 99.8385 86.2656 100.609C85.9427 101.38 85.474 102.042 84.8594 102.594C84.2448 103.146 83.5 103.573 82.625 103.875C81.7604 104.167 80.7969 104.312 79.7344 104.312C78.7135 104.312 77.7396 104.167 76.8125 103.875C75.8958 103.573 75.0833 103.12 74.375 102.516C73.6667 101.911 73.1094 101.151 72.7031 100.234C72.2969 99.3073 72.0938 98.2188 72.0938 96.9688H76.2656C76.2656 97.6667 76.3438 98.2708 76.5 98.7812C76.6562 99.2812 76.8906 99.6875 77.2031 100C77.5156 100.302 77.8906 100.526 78.3281 100.672C78.7656 100.807 79.2604 100.875 79.8125 100.875C80.4688 100.875 81 100.755 81.4062 100.516C81.8125 100.276 82.1094 99.9479 82.2969 99.5312C82.4844 99.1042 82.5781 98.6198 82.5781 98.0781ZM102.859 100.516V104H92.9844V100.516H102.859ZM94.1875 81.25V104H90V81.25H94.1875ZM101.531 90.5938V93.9844H92.9844V90.5938H101.531ZM102.797 81.25V84.75H92.9844V81.25H102.797ZM111.516 104H107.531L107.562 100.516H111.516C112.672 100.516 113.583 100.307 114.25 99.8906C114.927 99.4635 115.406 98.8021 115.688 97.9062C115.979 97.0104 116.125 95.8542 116.125 94.4375V90.7969C116.125 89.7135 116.047 88.7917 115.891 88.0312C115.734 87.2604 115.479 86.6354 115.125 86.1562C114.771 85.6771 114.307 85.3229 113.734 85.0938C113.161 84.8646 112.453 84.75 111.609 84.75H107.453V81.25H111.609C112.922 81.25 114.109 81.4635 115.172 81.8906C116.234 82.3073 117.146 82.9219 117.906 83.7344C118.677 84.5469 119.266 85.5521 119.672 86.75C120.078 87.9375 120.281 89.2969 120.281 90.8281V94.4375C120.281 95.9688 120.078 97.3281 119.672 98.5156C119.266 99.7031 118.677 100.703 117.906 101.516C117.146 102.328 116.224 102.948 115.141 103.375C114.068 103.792 112.859 104 111.516 104ZM109.938 81.25V104H105.75V81.25H109.938Z" fill="black"/>
<defs>
<filter id="filter0_iii_25_76080" x="55" y="103" width="32" height="285" filterUnits="userSpaceOnUse" color-interpolation-filters="sRGB">
<feFlood flood-opacity="0" result="BackgroundImageFix"/>
<feBlend mode="normal" in="SourceGraphic" in2="BackgroundImageFix" result="shape"/>
<feColorMatrix in="SourceAlpha" type="matrix" values="0 0 0 0 0 0 0 0 0 0 0 0 0 0 0 0 0 0 127 0" result="hardAlpha"/>
<feOffset dx="8" dy="-8"/>
<feGaussianBlur stdDeviation="4"/>
<feComposite in2="hardAlpha" operator="arithmetic" k2="-1" k3="1"/>
<feColorMatrix type="matrix" values="0 0 0 0 0 0 0 0 0 0 0 0 0 0 0 0 0 0 0.25 0"/>
<feBlend mode="normal" in2="shape" result="effect1_innerShadow_25_76080"/>
<feColorMatrix in="SourceAlpha" type="matrix" values="0 0 0 0 0 0 0 0 0 0 0 0 0 0 0 0 0 0 127 0" result="hardAlpha"/>
<feOffset dx="-8" dy="8"/>
<feGaussianBlur stdDeviation="4"/>
<feComposite in2="hardAlpha" operator="arithmetic" k2="-1" k3="1"/>
<feColorMatrix type="matrix" values="0 0 0 0 1 0 0 0 0 1 0 0 0 0 1 0 0 0 0.25 0"/>
<feBlend mode="normal" in2="effect1_innerShadow_25_76080" result="effect2_innerShadow_25_76080"/>
<feColorMatrix in="SourceAlpha" type="matrix" values="0 0 0 0 0 0 0 0 0 0 0 0 0 0 0 0 0 0 127 0" result="hardAlpha"/>
<feOffset dy="26"/>
<feComposite in2="hardAlpha" operator="arithmetic" k2="-1" k3="1"/>
<feColorMatrix type="matrix" values="0 0 0 0 0 0 0 0 0 0 0 0 0 0 0 0 0 0 0.24 0"/>
<feBlend mode="normal" in2="effect2_innerShadow_25_76080" result="effect3_innerShadow_25_76080"/>
</filter>
<filter id="filter1_ii_25_76080" x="-8" y="5" width="156" height="119" filterUnits="userSpaceOnUse" color-interpolation-filters="sRGB">
<feFlood flood-opacity="0" result="BackgroundImageFix"/>
<feBlend mode="normal" in="SourceGraphic" in2="BackgroundImageFix" result="shape"/>
<feColorMatrix in="SourceAlpha" type="matrix" values="0 0 0 0 0 0 0 0 0 0 0 0 0 0 0 0 0 0 127 0" result="hardAlpha"/>
<feOffset dx="8" dy="-8"/>
<feGaussianBlur stdDeviation="4"/>
<feComposite in2="hardAlpha" operator="arithmetic" k2="-1" k3="1"/>
<feColorMatrix type="matrix" values="0 0 0 0 0 0 0 0 0 0 0 0 0 0 0 0 0 0 0.25 0"/>
<feBlend mode="normal" in2="shape" result="effect1_innerShadow_25_76080"/>
<feColorMatrix in="SourceAlpha" type="matrix" values="0 0 0 0 0 0 0 0 0 0 0 0 0 0 0 0 0 0 127 0" result="hardAlpha"/>
<feOffset dx="-8" dy="-8"/>
<feGaussianBlur stdDeviation="4"/>
<feComposite in2="hardAlpha" operator="arithmetic" k2="-1" k3="1"/>
<feColorMatrix type="matrix" values="0 0 0 0 1 0 0 0 0 1 0 0 0 0 1 0 0 0 0.25 0"/>
<feBlend mode="normal" in2="effect1_innerShadow_25_76080" result="effect2_innerShadow_25_76080"/>
</filter>
<filter id="filter2_i_25_76080" x="0" y="19" width="142" height="113" filterUnits="userSpaceOnUse" color-interpolation-filters="sRGB">
<feFlood flood-opacity="0" result="BackgroundImageFix"/>
<feBlend mode="normal" in="SourceGraphic" in2="BackgroundImageFix" result="shape"/>
<feColorMatrix in="SourceAlpha" type="matrix" values="0 0 0 0 0 0 0 0 0 0 0 0 0 0 0 0 0 0 127 0" result="hardAlpha"/>
<feOffset dx="2" dy="-2"/>
<feGaussianBlur stdDeviation="1"/>
<feComposite in2="hardAlpha" operator="arithmetic" k2="-1" k3="1"/>
<feColorMatrix type="matrix" values="0 0 0 0 0 0 0 0 0 0 0 0 0 0 0 0 0 0 0.25 0"/>
<feBlend mode="normal" in2="shape" result="effect1_innerShadow_25_76080"/>
</filter>
</defs>
</svg>
