<svg width="157" height="986" viewBox="0 0 157 986" fill="none" xmlns="http://www.w3.org/2000/svg">
<g filter="url(#filter0_i_25_76057)">
<path d="M134 11.2487C134 8.99498 132.173 7.16797 129.919 7.16797C81.9151 7.16797 43 46.0831 43 94.0873V169.526C43 216.272 80.8955 254.168 127.642 254.168C131.153 254.168 134 251.321 134 247.81V11.2487Z" fill="#334155"/>
</g>
<g filter="url(#filter1_i_25_76057)">
<path d="M130 33.168C130 27.6451 125.523 23.168 120 23.168H96C66.7289 23.168 43 46.8969 43 76.168V185.168C43 214.439 66.7289 238.168 96 238.168H114C122.837 238.168 130 231.005 130 222.168V33.168Z" fill="#475569"/>
</g>
<rect width="24.0732" height="44.1667" transform="matrix(-1 0 0 1 125.219 69.168)" fill="#7F1D1D"/>
<path d="M121.781 69.168H124.917C137.114 69.168 147.001 79.055 147.001 91.2513C147.001 103.448 137.114 113.335 124.917 113.335H121.781V69.168Z" fill="#991B1B"/>
<path d="M142.414 79.1204C141.246 78.937 135.969 80.441 129.804 83.5221" stroke="#B91C1C" stroke-width="2.68" stroke-linecap="round"/>
<path d="M142.414 102.278C141.246 102.461 135.969 100.957 129.804 97.8763" stroke="#B91C1C" stroke-width="2.68" stroke-linecap="round"/>
<path d="M145.854 91.2515H129.805" stroke="#B91C1C" stroke-width="2.68" stroke-linecap="round"/>
<path d="M132.097 75.793C140.121 87.3867 139.548 98.4284 132.097 106.158" stroke="#B91C1C" stroke-width="2.68" stroke-linecap="round"/>
<rect width="24.0732" height="44.1667" transform="matrix(-1 0 0 1 125.219 126.584)" fill="#713F12"/>
<path d="M121.781 126.584H124.917C137.114 126.584 147.001 136.471 147.001 148.667C147.001 160.864 137.114 170.751 124.917 170.751H121.781V126.584Z" fill="#854D0E"/>
<path d="M142.414 136.536C141.246 136.353 135.969 137.857 129.804 140.938" stroke="#A16207" stroke-width="2.68" stroke-linecap="round"/>
<path d="M142.414 159.694C141.246 159.877 135.969 158.373 129.804 155.292" stroke="#A16207" stroke-width="2.68" stroke-linecap="round"/>
<path d="M145.854 148.667H129.805" stroke="#A16207" stroke-width="2.68" stroke-linecap="round"/>
<path d="M132.097 133.209C140.121 144.803 139.548 155.844 132.097 163.574" stroke="#A16207" stroke-width="2.68" stroke-linecap="round"/>
<rect width="24.0732" height="44.1667" transform="matrix(-1 0 0 1 124.072 184.002)" fill="#365314"/>
<path d="M121.781 184.002H124.917C137.114 184.002 147.001 193.889 147.001 206.085C147.001 218.282 137.114 228.169 124.917 228.169H121.781V184.002Z" fill="#3F6212"/>
<path d="M142.414 193.954C141.246 193.771 135.969 195.275 129.804 198.356" stroke="#4D7C0F" stroke-width="2.68" stroke-linecap="round"/>
<path d="M142.414 217.112C141.246 217.295 135.969 215.791 129.804 212.71" stroke="#4D7C0F" stroke-width="2.68" stroke-linecap="round"/>
<path d="M145.854 206.085H129.805" stroke="#4D7C0F" stroke-width="2.68" stroke-linecap="round"/>
<path d="M132.097 190.627C140.121 202.221 139.548 213.262 132.097 220.992" stroke="#4D7C0F" stroke-width="2.68" stroke-linecap="round"/>
<g filter="url(#filter2_i_25_76057)">
<path d="M126 17.168C126 11.6451 121.523 7.16797 116 7.16797H86C56.7289 7.16797 33 30.8969 33 60.168V201.168C33 230.439 56.7289 254.168 86 254.168H117C121.971 254.168 126 250.139 126 245.168V17.168Z" fill="#475569"/>
</g>
<g filter="url(#filter3_i_25_76057)">
<path d="M126 7.16797H112V254.168H119C122.866 254.168 126 251.034 126 247.168V7.16797Z" fill="#475569"/>
</g>
<g filter="url(#filter4_i_25_76057)">
<path d="M126 7.16797H120V254.168C123.314 254.168 126 251.482 126 248.168V7.16797Z" fill="#64748B"/>
</g>
<ellipse cx="16.1098" cy="14.4988" rx="16.1098" ry="14.4988" transform="matrix(-1 0 0 1 108 5.36914)" fill="#334155"/>
<ellipse cx="16.1098" cy="14.4988" rx="16.1098" ry="14.4988" transform="matrix(-1 0 0 1 108 0)" fill="#475569"/>
<path d="M157 25.168C157 19.6451 152.523 15.168 147 15.168H130C124.477 15.168 120 19.6451 120 25.168V64.668C120 74.8852 128.283 83.168 138.5 83.168C148.717 83.168 157 74.8852 157 64.668V25.168Z" fill="#334155"/>
<g filter="url(#filter5_i_25_76057)">
<path d="M157 17.168C157 11.6451 152.523 7.16797 147 7.16797H120V56.668C120 66.8852 128.283 75.168 138.5 75.168C148.717 75.168 157 66.8852 157 56.668V17.168Z" fill="#64748B"/>
</g>
<g filter="url(#filter6_i_25_76057)">
<path d="M98 181C98 168.85 88.1503 159 76 159C63.8497 159 54 168.85 54 181L54 348C54 360.15 63.8497 370 76 370C88.1503 370 98 360.15 98 348L98 181Z" fill="#64748B"/>
</g>
<ellipse cx="76.5" cy="68.5" rx="76.5" ry="68.5" transform="matrix(-1 0 0 1 153 849.001)" fill="black" fill-opacity="0.12"/>
<ellipse cx="65.5" cy="58.5" rx="65.5" ry="58.5" transform="matrix(-1 0 0 1 142 859.001)" fill="black" fill-opacity="0.4"/>
<path d="M140 905.001H13V909.501C13 944.571 41.4299 973.001 76.5 973.001C111.57 973.001 140 944.571 140 909.501V905.001Z" fill="#334155"/>
<g filter="url(#filter7_i_25_76057)">
<ellipse cx="63.4996" cy="57.3242" rx="63.4996" ry="57.3242" transform="matrix(-1 0 0 1 140 851.046)" fill="#64748B"/>
</g>
<g filter="url(#filter8_d_25_76057)">
<path d="M98.2578 483.007C98.2578 470.774 88.3405 460.856 76.1068 460.856C63.8731 460.856 53.9558 470.774 53.9558 483.007V899.178C53.9558 911.412 63.8731 921.329 76.1068 921.329C88.3405 921.329 98.2578 911.412 98.2578 899.178V483.007Z" fill="#64748B"/>
</g>
<g filter="url(#filter9_i_25_76057)">
<path d="M98.2578 483.007C98.2578 470.774 88.3405 460.856 76.1068 460.856C63.8731 460.856 53.9558 470.774 53.9558 483.007V899.178C53.9558 911.412 63.8731 921.329 76.1068 921.329C88.3405 921.329 98.2578 911.412 98.2578 899.178V483.007Z" fill="#475569"/>
</g>
<g filter="url(#filter10_i_25_76057)">
<circle cx="22.0168" cy="22.0168" r="22.0168" transform="matrix(-1 0 0 1 98.2578 460.856)" fill="#64748B"/>
</g>
<path d="M98 347.001C98 334.851 88.1503 325.001 76 325.001C63.8497 325.001 54 334.851 54 347.001V357.001C54 369.151 63.8497 379.001 76 379.001C88.1503 379.001 98 369.151 98 357.001V347.001Z" fill="#334155"/>
<path d="M98 357.001C98 344.851 88.1503 335.001 76 335.001C63.8497 335.001 54 344.851 54 357.001C54 369.151 63.8497 379.001 76 379.001C88.1503 379.001 98 369.151 98 357.001Z" fill="#64748B"/>
<g filter="url(#filter11_i_25_76057)">
<path d="M91 359.001C91 350.717 84.2843 344.001 76 344.001C67.7157 344.001 61 350.717 61 359.001V480.001C61 488.285 67.7157 495.001 76 495.001C84.2843 495.001 91 488.285 91 480.001V359.001Z" fill="#475569"/>
</g>
<defs>
<filter id="filter0_i_25_76057" x="43" y="-8.83203" width="115" height="263" filterUnits="userSpaceOnUse" color-interpolation-filters="sRGB">
<feFlood flood-opacity="0" result="BackgroundImageFix"/>
<feBlend mode="normal" in="SourceGraphic" in2="BackgroundImageFix" result="shape"/>
<feColorMatrix in="SourceAlpha" type="matrix" values="0 0 0 0 0 0 0 0 0 0 0 0 0 0 0 0 0 0 127 0" result="hardAlpha"/>
<feOffset dx="24" dy="-16"/>
<feGaussianBlur stdDeviation="16"/>
<feComposite in2="hardAlpha" operator="arithmetic" k2="-1" k3="1"/>
<feColorMatrix type="matrix" values="0 0 0 0 0 0 0 0 0 0 0 0 0 0 0 0 0 0 0.25 0"/>
<feBlend mode="normal" in2="shape" result="effect1_innerShadow_25_76057"/>
</filter>
<filter id="filter1_i_25_76057" x="43" y="7.16797" width="111" height="231" filterUnits="userSpaceOnUse" color-interpolation-filters="sRGB">
<feFlood flood-opacity="0" result="BackgroundImageFix"/>
<feBlend mode="normal" in="SourceGraphic" in2="BackgroundImageFix" result="shape"/>
<feColorMatrix in="SourceAlpha" type="matrix" values="0 0 0 0 0 0 0 0 0 0 0 0 0 0 0 0 0 0 127 0" result="hardAlpha"/>
<feOffset dx="24" dy="-16"/>
<feGaussianBlur stdDeviation="16"/>
<feComposite in2="hardAlpha" operator="arithmetic" k2="-1" k3="1"/>
<feColorMatrix type="matrix" values="0 0 0 0 0 0 0 0 0 0 0 0 0 0 0 0 0 0 0.25 0"/>
<feBlend mode="normal" in2="shape" result="effect1_innerShadow_25_76057"/>
</filter>
<filter id="filter2_i_25_76057" x="33" y="-14.832" width="115" height="269" filterUnits="userSpaceOnUse" color-interpolation-filters="sRGB">
<feFlood flood-opacity="0" result="BackgroundImageFix"/>
<feBlend mode="normal" in="SourceGraphic" in2="BackgroundImageFix" result="shape"/>
<feColorMatrix in="SourceAlpha" type="matrix" values="0 0 0 0 0 0 0 0 0 0 0 0 0 0 0 0 0 0 127 0" result="hardAlpha"/>
<feOffset dx="40" dy="-36"/>
<feGaussianBlur stdDeviation="11"/>
<feComposite in2="hardAlpha" operator="arithmetic" k2="-1" k3="1"/>
<feColorMatrix type="matrix" values="0 0 0 0 0 0 0 0 0 0 0 0 0 0 0 0 0 0 0.25 0"/>
<feBlend mode="normal" in2="shape" result="effect1_innerShadow_25_76057"/>
</filter>
<filter id="filter3_i_25_76057" x="112" y="-8.83203" width="38" height="263" filterUnits="userSpaceOnUse" color-interpolation-filters="sRGB">
<feFlood flood-opacity="0" result="BackgroundImageFix"/>
<feBlend mode="normal" in="SourceGraphic" in2="BackgroundImageFix" result="shape"/>
<feColorMatrix in="SourceAlpha" type="matrix" values="0 0 0 0 0 0 0 0 0 0 0 0 0 0 0 0 0 0 127 0" result="hardAlpha"/>
<feOffset dx="24" dy="-16"/>
<feGaussianBlur stdDeviation="16"/>
<feComposite in2="hardAlpha" operator="arithmetic" k2="-1" k3="1"/>
<feColorMatrix type="matrix" values="0 0 0 0 0 0 0 0 0 0 0 0 0 0 0 0 0 0 0.25 0"/>
<feBlend mode="normal" in2="shape" result="effect1_innerShadow_25_76057"/>
</filter>
<filter id="filter4_i_25_76057" x="120" y="-8.83203" width="30" height="263" filterUnits="userSpaceOnUse" color-interpolation-filters="sRGB">
<feFlood flood-opacity="0" result="BackgroundImageFix"/>
<feBlend mode="normal" in="SourceGraphic" in2="BackgroundImageFix" result="shape"/>
<feColorMatrix in="SourceAlpha" type="matrix" values="0 0 0 0 0 0 0 0 0 0 0 0 0 0 0 0 0 0 127 0" result="hardAlpha"/>
<feOffset dx="24" dy="-16"/>
<feGaussianBlur stdDeviation="16"/>
<feComposite in2="hardAlpha" operator="arithmetic" k2="-1" k3="1"/>
<feColorMatrix type="matrix" values="0 0 0 0 0 0 0 0 0 0 0 0 0 0 0 0 0 0 0.25 0"/>
<feBlend mode="normal" in2="shape" result="effect1_innerShadow_25_76057"/>
</filter>
<filter id="filter5_i_25_76057" x="120" y="7.16797" width="44" height="78" filterUnits="userSpaceOnUse" color-interpolation-filters="sRGB">
<feFlood flood-opacity="0" result="BackgroundImageFix"/>
<feBlend mode="normal" in="SourceGraphic" in2="BackgroundImageFix" result="shape"/>
<feColorMatrix in="SourceAlpha" type="matrix" values="0 0 0 0 0 0 0 0 0 0 0 0 0 0 0 0 0 0 127 0" result="hardAlpha"/>
<feOffset dx="7" dy="11"/>
<feGaussianBlur stdDeviation="5"/>
<feComposite in2="hardAlpha" operator="arithmetic" k2="-1" k3="1"/>
<feColorMatrix type="matrix" values="0 0 0 0 0 0 0 0 0 0 0 0 0 0 0 0 0 0 0.25 0"/>
<feBlend mode="normal" in2="shape" result="effect1_innerShadow_25_76057"/>
</filter>
<filter id="filter6_i_25_76057" x="54" y="151" width="52" height="219" filterUnits="userSpaceOnUse" color-interpolation-filters="sRGB">
<feFlood flood-opacity="0" result="BackgroundImageFix"/>
<feBlend mode="normal" in="SourceGraphic" in2="BackgroundImageFix" result="shape"/>
<feColorMatrix in="SourceAlpha" type="matrix" values="0 0 0 0 0 0 0 0 0 0 0 0 0 0 0 0 0 0 127 0" result="hardAlpha"/>
<feOffset dx="15" dy="-18"/>
<feGaussianBlur stdDeviation="4"/>
<feComposite in2="hardAlpha" operator="arithmetic" k2="-1" k3="1"/>
<feColorMatrix type="matrix" values="0 0 0 0 0 0 0 0 0 0 0 0 0 0 0 0 0 0 0.25 0"/>
<feBlend mode="normal" in2="shape" result="effect1_innerShadow_25_76057"/>
</filter>
<filter id="filter7_i_25_76057" x="13" y="843.046" width="133" height="122.648" filterUnits="userSpaceOnUse" color-interpolation-filters="sRGB">
<feFlood flood-opacity="0" result="BackgroundImageFix"/>
<feBlend mode="normal" in="SourceGraphic" in2="BackgroundImageFix" result="shape"/>
<feColorMatrix in="SourceAlpha" type="matrix" values="0 0 0 0 0 0 0 0 0 0 0 0 0 0 0 0 0 0 127 0" result="hardAlpha"/>
<feOffset dx="6" dy="-8"/>
<feGaussianBlur stdDeviation="4"/>
<feComposite in2="hardAlpha" operator="arithmetic" k2="-1" k3="1"/>
<feColorMatrix type="matrix" values="0 0 0 0 0 0 0 0 0 0 0 0 0 0 0 0 0 0 0.25 0"/>
<feBlend mode="normal" in2="shape" result="effect1_innerShadow_25_76057"/>
</filter>
<filter id="filter8_d_25_76057" x="53.9551" y="460.856" width="44.3027" height="462.473" filterUnits="userSpaceOnUse" color-interpolation-filters="sRGB">
<feFlood flood-opacity="0" result="BackgroundImageFix"/>
<feColorMatrix in="SourceAlpha" type="matrix" values="0 0 0 0 0 0 0 0 0 0 0 0 0 0 0 0 0 0 127 0" result="hardAlpha"/>
<feOffset dy="2"/>
<feComposite in2="hardAlpha" operator="out"/>
<feColorMatrix type="matrix" values="0 0 0 0 0 0 0 0 0 0 0 0 0 0 0 0 0 0 0.25 0"/>
<feBlend mode="normal" in2="BackgroundImageFix" result="effect1_dropShadow_25_76057"/>
<feBlend mode="normal" in="SourceGraphic" in2="effect1_dropShadow_25_76057" result="shape"/>
</filter>
<filter id="filter9_i_25_76057" x="53.9551" y="460.856" width="52.3027" height="468.473" filterUnits="userSpaceOnUse" color-interpolation-filters="sRGB">
<feFlood flood-opacity="0" result="BackgroundImageFix"/>
<feBlend mode="normal" in="SourceGraphic" in2="BackgroundImageFix" result="shape"/>
<feColorMatrix in="SourceAlpha" type="matrix" values="0 0 0 0 0 0 0 0 0 0 0 0 0 0 0 0 0 0 127 0" result="hardAlpha"/>
<feOffset dx="14" dy="19"/>
<feGaussianBlur stdDeviation="4"/>
<feComposite in2="hardAlpha" operator="arithmetic" k2="-1" k3="1"/>
<feColorMatrix type="matrix" values="0 0 0 0 0 0 0 0 0 0 0 0 0 0 0 0 0 0 0.25 0"/>
<feBlend mode="normal" in2="shape" result="effect1_innerShadow_25_76057"/>
</filter>
<filter id="filter10_i_25_76057" x="54.2246" y="460.856" width="48.0332" height="48.0337" filterUnits="userSpaceOnUse" color-interpolation-filters="sRGB">
<feFlood flood-opacity="0" result="BackgroundImageFix"/>
<feBlend mode="normal" in="SourceGraphic" in2="BackgroundImageFix" result="shape"/>
<feColorMatrix in="SourceAlpha" type="matrix" values="0 0 0 0 0 0 0 0 0 0 0 0 0 0 0 0 0 0 127 0" result="hardAlpha"/>
<feOffset dx="12" dy="4"/>
<feGaussianBlur stdDeviation="2"/>
<feComposite in2="hardAlpha" operator="arithmetic" k2="-1" k3="1"/>
<feColorMatrix type="matrix" values="0 0 0 0 0 0 0 0 0 0 0 0 0 0 0 0 0 0 0.25 0"/>
<feBlend mode="normal" in2="shape" result="effect1_innerShadow_25_76057"/>
</filter>
<filter id="filter11_i_25_76057" x="61" y="344.001" width="38" height="159" filterUnits="userSpaceOnUse" color-interpolation-filters="sRGB">
<feFlood flood-opacity="0" result="BackgroundImageFix"/>
<feBlend mode="normal" in="SourceGraphic" in2="BackgroundImageFix" result="shape"/>
<feColorMatrix in="SourceAlpha" type="matrix" values="0 0 0 0 0 0 0 0 0 0 0 0 0 0 0 0 0 0 127 0" result="hardAlpha"/>
<feOffset dx="14" dy="19"/>
<feGaussianBlur stdDeviation="4"/>
<feComposite in2="hardAlpha" operator="arithmetic" k2="-1" k3="1"/>
<feColorMatrix type="matrix" values="0 0 0 0 0 0 0 0 0 0 0 0 0 0 0 0 0 0 0.25 0"/>
<feBlend mode="normal" in2="shape" result="effect1_innerShadow_25_76057"/>
</filter>
</defs>
</svg>
