<svg width="72" height="81" viewBox="0 0 72 81" fill="none" xmlns="http://www.w3.org/2000/svg">
<circle cx="36" cy="36" r="36" transform="matrix(-1 0 0 1 72 9)" fill="black" fill-opacity="0.12"/>
<g filter="url(#filter0_ii_1142_270685)">
<rect width="66" height="73.5" rx="33" transform="matrix(-1 0 0 1 69 3)" fill="#CA8A04"/>
</g>
<circle cx="33" cy="33" r="33" transform="matrix(-1 0 0 1 69 3)" fill="#FACC15"/>
<g filter="url(#filter1_i_1142_270685)">
<circle cx="27" cy="27" r="27" transform="matrix(-1 0 0 1 63 9)" fill="#EAB308"/>
</g>
<path d="M37.4286 41.7373L36.5233 42.4676L36.5233 42.4676L37.4286 41.7373ZM40.7791 42.2655C40.9236 41.6325 41.5412 41.2348 42.1584 41.3772C42.7757 41.5196 43.1589 42.1482 43.0144 42.7813L40.7791 42.2655ZM38.031 38.3348L37.2458 37.4848L37.2458 37.4848L38.031 38.3348ZM38.3339 41.0071C38.8152 41.6348 39.6129 42.1736 40.258 42.3463C40.5797 42.4324 40.7268 42.3919 40.7491 42.3824C40.7493 42.3823 40.7382 42.3891 40.732 42.397C40.7285 42.4015 40.7551 42.3709 40.7791 42.2655L43.0144 42.7813C42.8276 43.5993 42.3468 44.2393 41.6149 44.5508C40.951 44.8334 40.2424 44.776 39.659 44.6198C38.494 44.3079 37.2844 43.4602 36.5233 42.4676L38.3339 41.0071ZM37.2458 37.4848C38.4857 36.2839 40.3209 35.3885 42.4828 35.7502C44.6277 36.1091 46.8354 37.6628 48.9456 40.7827L47.0544 42.1314C45.1426 39.3048 43.4068 38.289 42.0933 38.0692C40.7968 37.8523 39.6585 38.369 38.8161 39.1849L37.2458 37.4848ZM36.5233 42.4676C35.8796 41.6281 35.7689 40.6294 35.9612 39.7446C36.1494 38.8784 36.6295 38.0818 37.2458 37.4848L38.8161 39.1849C38.4944 39.4965 38.278 39.8857 38.2019 40.2358C38.1298 40.5673 38.187 40.8155 38.3339 41.0071L36.5233 42.4676Z" fill="#CA8A04"/>
<mask id="path-6-inside-1_1142_270685" fill="white">
<path fill-rule="evenodd" clip-rule="evenodd" d="M57.1899 29.0465C59.188 26.7839 59.0156 23.2835 56.805 21.2281L52.5093 17.2341C50.2987 15.1788 46.8869 15.3467 44.8888 17.6093L43.0808 19.6567C41.707 21.2124 39.207 20.6869 38.5322 18.7007L37.6084 15.981C36.6318 13.1063 33.5356 11.5526 30.6927 12.5107L25.3261 14.3193C22.4833 15.2774 20.9703 18.3845 21.9468 21.2592L22.3548 22.4602C23.0664 24.5549 21.1668 26.5972 19.0772 26.0275C16.1818 25.2381 13.2585 26.991 12.5478 29.9428L11.2073 35.5106C10.4967 38.4624 12.2678 41.4952 15.1632 42.2846L18.1675 43.1037C19.714 43.5253 20.2796 45.4767 19.2073 46.6909C17.2093 48.9535 17.3816 52.4539 19.5922 54.5093L23.8879 58.5033C26.0986 60.5587 29.5104 60.3907 31.5084 58.1281L31.583 58.0437C32.513 56.9905 34.2055 57.3462 34.6623 58.6909C35.6388 61.5656 38.7351 63.1194 41.578 62.1613L46.9445 60.3526C49.7874 59.3946 51.3004 56.2875 50.3239 53.4127C50.0779 52.6886 50.7195 51.9786 51.4418 52.1755L52.8768 52.5668C55.7723 53.3562 58.6956 51.6032 59.4062 48.6515L60.7467 43.0836C61.4574 40.1319 59.6863 37.099 56.7909 36.3096L56.2304 36.1569C54.2753 35.6238 53.5602 33.1568 54.9159 31.6216L57.1899 29.0465Z"/>
</mask>
<path d="M57.1899 29.0465L55.4888 27.4648L57.1899 29.0465ZM44.8888 17.6093L46.59 19.191L44.8888 17.6093ZM37.6084 15.981L39.7735 15.2119L39.7735 15.2119L37.6084 15.981ZM30.6927 12.5107L31.4133 14.7456L31.4133 14.7456L30.6927 12.5107ZM25.3261 14.3193L24.6055 12.0843L24.6055 12.0843L25.3261 14.3193ZM21.9468 21.2592L19.7817 22.0282V22.0282L21.9468 21.2592ZM12.5478 29.9428L14.7741 30.5122V30.5122L12.5478 29.9428ZM11.2073 35.5106L13.4335 36.0801L13.4335 36.0801L11.2073 35.5106ZM15.1632 42.2846L14.5794 44.5579V44.5579L15.1632 42.2846ZM41.578 62.1613L40.8573 59.9263L40.8573 59.9263L41.578 62.1613ZM46.9445 60.3526L47.6652 62.5876L47.6652 62.5876L46.9445 60.3526ZM52.8768 52.5668L53.4606 50.2935V50.2935L52.8768 52.5668ZM59.4062 48.6515L57.18 48.0821V48.0821L59.4062 48.6515ZM60.7467 43.0836L62.973 43.653L62.973 43.653L60.7467 43.0836ZM56.7909 36.3096L57.3746 34.0364V34.0364L56.7909 36.3096ZM54.9159 31.6216L56.617 33.2033L54.9159 31.6216ZM50.3239 53.4127L52.489 52.6437L52.489 52.6437L50.3239 53.4127ZM51.4418 52.1755L50.858 54.4488L51.4418 52.1755ZM34.6623 58.6909L36.8274 57.9219L36.8274 57.9219L34.6623 58.6909ZM18.1675 43.1037L17.5838 45.377L18.1675 43.1037ZM19.2073 46.6909L20.9085 48.2726L19.2073 46.6909ZM22.3548 22.4602L24.5199 21.6911L22.3548 22.4602ZM19.0772 26.0275L19.661 23.7542V23.7542L19.0772 26.0275ZM43.0808 19.6567L44.782 21.2384L43.0808 19.6567ZM38.5322 18.7007L40.6974 17.9316L38.5322 18.7007ZM58.3426 19.487C61.4927 22.4159 61.7383 27.404 58.8911 30.6282L55.4888 27.4648C56.6377 26.1638 56.5386 24.1511 55.2674 22.9692L58.3426 19.487ZM54.0469 15.493L58.3426 19.487L55.2674 22.9692L50.9718 18.9753L54.0469 15.493ZM43.1877 16.0276C46.0349 12.8035 50.8967 12.5641 54.0469 15.493L50.9718 18.9753C49.7007 17.7934 47.7389 17.89 46.59 19.191L43.1877 16.0276ZM41.3797 18.075L43.1877 16.0276L46.59 19.191L44.782 21.2384L41.3797 18.075ZM36.3671 19.4698L35.4432 16.7501L39.7735 15.2119L40.6974 17.9316L36.3671 19.4698ZM35.4432 16.7501C34.8859 15.1094 33.0873 14.1815 31.4133 14.7456L29.9721 10.2757C33.9839 8.92365 38.3777 11.1032 39.7735 15.2119L35.4432 16.7501ZM31.4133 14.7456L26.0468 16.5542L24.6055 12.0843L29.9721 10.2757L31.4133 14.7456ZM26.0468 16.5542C24.3989 17.1096 23.5643 18.878 24.1119 20.4901L19.7817 22.0282C18.3762 17.8909 20.5676 13.4452 24.6055 12.0843L26.0468 16.5542ZM24.1119 20.4901L24.5199 21.6911L20.1897 23.2292L19.7817 22.0282L24.1119 20.4901ZM10.3216 29.3733C11.3441 25.1263 15.548 22.6329 19.661 23.7542L18.4935 28.3007C16.8156 27.8433 15.1729 28.8557 14.7741 30.5122L10.3216 29.3733ZM8.98109 34.9412L10.3216 29.3733L14.7741 30.5122L13.4335 36.0801L8.98109 34.9412ZM14.5794 44.5579C10.4922 43.4435 7.96544 39.1598 8.98109 34.9412L13.4335 36.0801C13.0279 37.765 14.0433 39.5469 15.747 40.0113L14.5794 44.5579ZM17.5838 45.377L14.5794 44.5579L15.747 40.0113L18.7513 40.8304L17.5838 45.377ZM18.0547 56.2504C14.9045 53.3215 14.6589 48.3335 17.5062 45.1093L20.9085 48.2726C19.7596 49.5736 19.8587 51.5863 21.1298 52.7682L18.0547 56.2504ZM22.3504 60.2444L18.0547 56.2504L21.1298 52.7682L25.4255 56.7622L22.3504 60.2444ZM33.2096 59.7098C30.3624 62.934 25.5005 63.1733 22.3504 60.2444L25.4255 56.7622C26.6966 57.944 28.6584 57.8474 29.8073 56.5464L33.2096 59.7098ZM33.2841 59.6254L33.2096 59.7098L29.8073 56.5464L29.8818 56.462L33.2841 59.6254ZM36.8274 57.9219C37.3848 59.5625 39.1834 60.4904 40.8573 59.9263L42.2986 64.3962C38.2868 65.7483 33.8929 63.5688 32.4972 59.46L36.8274 57.9219ZM40.8573 59.9263L46.2239 58.1177L47.6652 62.5876L42.2986 64.3962L40.8573 59.9263ZM46.2239 58.1177C47.8717 57.5623 48.7063 55.7939 48.1587 54.1818L52.489 52.6437C53.8944 56.781 51.7031 61.2268 47.6652 62.5876L46.2239 58.1177ZM52.2931 54.84L50.858 54.4488L52.0255 49.9022L53.4606 50.2935L52.2931 54.84ZM61.6325 49.2209C60.61 53.4679 56.4061 55.9614 52.2931 54.84L53.4606 50.2935C55.1385 50.7509 56.7812 49.7386 57.18 48.0821L61.6325 49.2209ZM62.973 43.653L61.6325 49.2209L57.18 48.0821L58.5205 42.5142L62.973 43.653ZM57.3746 34.0364C61.4618 35.1507 63.9886 39.4345 62.973 43.653L58.5205 42.5142C58.9262 40.8292 57.9107 39.0474 56.2071 38.5829L57.3746 34.0364ZM56.8142 33.8836L57.3746 34.0364L56.2071 38.5829L55.6467 38.4301L56.8142 33.8836ZM58.8911 30.6282L56.617 33.2033L53.2147 30.04L55.4888 27.4648L58.8911 30.6282ZM55.6467 38.4301C52.0296 37.444 50.7067 32.88 53.2147 30.04L56.617 33.2033C56.4137 33.4336 56.5209 33.8036 56.8142 33.8836L55.6467 38.4301ZM48.1587 54.1818C47.3079 51.6772 49.5271 49.2211 52.0255 49.9022L50.858 54.4488C51.9118 54.7361 52.8478 53.7001 52.489 52.6437L48.1587 54.1818ZM29.8818 56.462C31.9796 54.0865 35.7971 54.8889 36.8274 57.9219L32.4972 59.46C32.6139 59.8036 33.0464 59.8945 33.2841 59.6254L29.8818 56.462ZM18.7513 40.8304C21.9597 41.7052 23.1331 45.7534 20.9085 48.2726L17.5062 45.1093C17.4969 45.1198 17.4785 45.1495 17.4704 45.1894C17.4635 45.2231 17.4668 45.2484 17.4717 45.2653C17.4766 45.2822 17.4873 45.3053 17.511 45.3297C17.5392 45.3586 17.5703 45.3733 17.5838 45.377L18.7513 40.8304ZM24.5199 21.6911C25.8589 25.6328 22.2925 29.3365 18.4935 28.3007L19.661 23.7542C19.8271 23.7995 19.979 23.7539 20.0994 23.6235C20.1595 23.5583 20.1925 23.489 20.2059 23.4314C20.2171 23.3829 20.2207 23.3205 20.1897 23.2292L24.5199 21.6911ZM44.782 21.2384C42.2404 24.1164 37.6154 23.1443 36.3671 19.4698L40.6974 17.9316C40.7986 18.2296 41.1736 18.3084 41.3797 18.075L44.782 21.2384Z" fill="#CA8A04" mask="url(#path-6-inside-1_1142_270685)"/>
<path d="M35.2348 25.1608C28.4938 25.161 23.0681 30.9593 23.255 38.2502C23.442 45.541 29.1649 51.3384 35.9059 51.3387C42.6471 51.3387 48.0736 45.5412 47.8868 38.2502C47.6999 30.9591 41.9761 25.1608 35.2348 25.1608Z" stroke="#CA8A04" stroke-width="2.32285"/>
<path d="M36.5326 44.2823L29.9773 38.1156C29.1277 37.3164 27.8085 37.3738 27.0315 38.2436C26.2545 39.1134 26.3133 40.467 27.1628 41.2662L33.7181 47.4328C34.5677 48.232 35.8869 48.1747 36.6639 47.3049C37.4409 46.435 37.3821 45.0814 36.5326 44.2823Z" stroke="#CA8A04" stroke-width="1.7763" stroke-linecap="round"/>
<path d="M33.7342 36.5627L33.6094 35.3936V35.3936L33.7342 36.5627ZM30.1488 33.5428C30.5232 33.022 30.4123 32.2858 29.901 31.8984C29.3897 31.511 28.6717 31.6191 28.2973 32.1399L30.1488 33.5428ZM33.6094 35.3936C32.7133 35.4871 31.7637 35.0016 31.0424 34.2742C30.6913 33.9202 30.457 33.5686 30.3443 33.3169C30.2871 33.1891 30.2816 33.1324 30.2825 33.1426C30.2828 33.146 30.3004 33.3319 30.1488 33.5428L28.2973 32.1399C28.0019 32.5506 27.9675 33.0117 27.9974 33.3423C28.028 33.6798 28.1338 34.0026 28.2595 34.2834C28.5127 34.8489 28.9308 35.4311 29.4386 35.9431C30.4348 36.9477 32.0283 37.9231 33.8591 37.7319L33.6094 35.3936ZM33.8591 37.7319C34.9682 37.6161 35.805 36.9416 36.3128 36.021C36.805 35.1288 36.9998 34.003 36.9513 32.8126C36.8538 30.4198 35.7676 27.4791 33.4817 24.7403L31.742 26.2597C33.7475 28.6627 34.5858 31.111 34.6584 32.893C34.695 33.79 34.5362 34.4479 34.3127 34.8533C34.1048 35.2302 33.8637 35.367 33.6094 35.3936L33.8591 37.7319Z" fill="#CA8A04"/>
<g filter="url(#filter2_d_1142_270685)">
<rect x="-1.09934" y="0.047761" width="13.4234" height="4.42341" rx="2.2117" transform="matrix(-0.728371 -0.685183 -0.666204 0.74577 37.4408 43.8448)" stroke="#FACC15" stroke-width="1.57659" stroke-linecap="round" stroke-linejoin="round" shape-rendering="crispEdges"/>
</g>
<path d="M35.2456 23.774C28.2703 23.7743 22.758 29.4356 22.937 36.4222C23.1161 43.4089 28.9188 49.0702 35.8941 49.0704C42.8696 49.0704 48.3827 43.4091 48.2036 36.4222C48.0244 29.4354 42.2211 23.774 35.2456 23.774Z" stroke="#FACC15" stroke-width="2.32285"/>
<ellipse cx="1.37958" cy="1.38151" rx="1.37958" ry="1.38151" transform="matrix(-0.732191 -0.681099 -0.662111 0.749406 41.1123 14.7188)" fill="#FACC15"/>
<ellipse cx="1.37957" cy="1.38151" rx="1.37957" ry="1.38151" transform="matrix(-0.732357 -0.680921 -0.661929 0.749566 46.5938 32.6797)" fill="#FACC15"/>
<ellipse cx="1.37957" cy="1.38151" rx="1.37957" ry="1.38151" transform="matrix(-0.732357 -0.680921 -0.661929 0.749566 41.1123 27.1172)" fill="#FACC15"/>
<ellipse cx="1.37958" cy="1.38151" rx="1.37958" ry="1.38151" transform="matrix(-0.732191 -0.681099 -0.662111 0.749406 54.8164 53.6445)" fill="#FACC15"/>
<ellipse cx="1.37958" cy="1.38151" rx="1.37958" ry="1.38151" transform="matrix(-0.732191 -0.681099 -0.662111 0.749406 60 31.8828)" fill="#FACC15"/>
<ellipse cx="1.37958" cy="1.38151" rx="1.37958" ry="1.38151" transform="matrix(-0.732191 -0.681099 -0.662111 0.749406 34.5 60.3828)" fill="#FACC15"/>
<ellipse cx="1.37957" cy="1.38151" rx="1.37957" ry="1.38151" transform="matrix(-0.732357 -0.680921 -0.661929 0.749566 16.5 45.3828)" fill="#FACC15"/>
<ellipse cx="1.37958" cy="1.38151" rx="1.37958" ry="1.38151" transform="matrix(-0.732191 -0.681099 -0.662111 0.749406 19.1841 20.2812)" fill="#FACC15"/>
<mask id="path-21-inside-2_1142_270685" fill="white">
<path fill-rule="evenodd" clip-rule="evenodd" d="M56.681 27.1487C58.679 24.8861 58.5067 21.3857 56.296 19.3303L52.1785 15.502C49.9679 13.4466 46.556 13.6146 44.558 15.8772L42.7725 17.8991C41.3937 19.4603 38.8836 18.9245 38.2185 16.9269L37.3669 14.3696C36.4077 11.4888 33.3302 9.94491 30.4933 10.9212L25.1927 12.7453C22.3558 13.7216 20.8336 16.8483 21.7929 19.7291L22.1767 20.8818C22.8709 22.9666 21.0313 25.0021 18.9529 24.4491C16.0529 23.6775 13.1118 25.4411 12.3838 28.3884L11.0233 33.8954C10.2952 36.8426 12.0559 39.8574 14.9558 40.629L17.832 41.3943C19.375 41.8049 19.9447 43.7491 18.8765 44.9588C16.8784 47.2214 17.0508 50.7218 19.2614 52.7772L23.3789 56.6055C25.5896 58.6609 29.0014 58.4929 30.9994 56.2303L31.1385 56.0729C32.0368 55.0556 33.6723 55.4048 34.1057 56.7063C35.0649 59.5871 38.1424 61.131 40.9793 60.1547L46.2799 58.3306C49.1168 57.3544 50.639 54.2276 49.6798 51.3468C49.4479 50.6504 50.0623 49.9705 50.7566 50.1552L52.1775 50.5333C55.0775 51.3049 58.0186 49.5413 58.7466 46.594L60.1071 41.087C60.8352 38.1398 59.0745 35.125 56.1746 34.3534L55.7559 34.242C53.7908 33.7191 53.0653 31.2431 54.4257 29.7025L56.681 27.1487Z"/>
</mask>
<path d="M44.558 15.8772L42.8568 14.2955L44.558 15.8772ZM37.3669 14.3696L39.5367 13.6143L37.3669 14.3696ZM30.4933 10.9212L31.2275 13.1515L31.2275 13.1515L30.4933 10.9212ZM25.1927 12.7453L25.9269 14.9756L25.9269 14.9756L25.1927 12.7453ZM21.7929 19.7291L23.9626 18.9738V18.9738L21.7929 19.7291ZM12.3838 28.3884L10.1609 27.8051V27.8051L12.3838 28.3884ZM11.0233 33.8954L13.2462 34.4786V34.4786L11.0233 33.8954ZM14.9558 40.629L14.3853 42.9058V42.9058L14.9558 40.629ZM30.9994 56.2303L32.7006 57.812L30.9994 56.2303ZM40.9793 60.1547L40.2451 57.9244L40.2451 57.9244L40.9793 60.1547ZM46.2799 58.3306L47.0141 60.561L47.0141 60.561L46.2799 58.3306ZM52.1775 50.5333L52.748 48.2565L52.748 48.2565L52.1775 50.5333ZM58.7466 46.594L56.5238 46.0108L58.7466 46.594ZM60.1071 41.087L57.8842 40.5038V40.5038L60.1071 41.087ZM56.1746 34.3534L55.6041 36.6302V36.6302L56.1746 34.3534ZM55.7559 34.242L55.1854 36.5188L55.7559 34.242ZM50.7566 50.1552L50.1861 52.432L50.7566 50.1552ZM34.1057 56.7063L31.9359 57.4617L31.936 57.4617L34.1057 56.7063ZM17.832 41.3943L17.2615 43.6712L17.832 41.3943ZM18.8765 44.9588L17.1753 43.3771L18.8765 44.9588ZM22.1767 20.8818L24.3464 20.1265V20.1265L22.1767 20.8818ZM18.9529 24.4491L18.3824 26.7259L18.3824 26.7259L18.9529 24.4491ZM42.7725 17.8991L44.4736 19.4808L42.7725 17.8991ZM57.8336 17.5892C60.9838 20.5181 61.2293 25.5062 58.3821 28.7304L54.9798 25.567C56.1287 24.266 56.0296 22.2533 54.7585 21.0715L57.8336 17.5892ZM53.7161 13.7609L57.8336 17.5892L54.7585 21.0715L50.6409 17.2431L53.7161 13.7609ZM42.8568 14.2955C45.7041 11.0713 50.5659 10.8319 53.7161 13.7609L50.6409 17.2431C49.3698 16.0613 47.408 16.1579 46.2591 17.4588L42.8568 14.2955ZM41.0713 16.3174L42.8568 14.2955L46.2591 17.4588L44.4736 19.4808L41.0713 16.3174ZM36.0487 17.6823L35.1972 15.125L39.5367 13.6143L40.3882 16.1716L36.0487 17.6823ZM35.1972 15.125C34.6534 13.492 32.8878 12.5802 31.2275 13.1515L29.7591 8.69086C33.7727 7.30965 38.1619 9.48566 39.5367 13.6143L35.1972 15.125ZM31.2275 13.1515L25.9269 14.9756L24.4585 10.5149L29.7591 8.69086L31.2275 13.1515ZM25.9269 14.9756C24.2724 15.545 23.4209 17.3471 23.9626 18.9738L19.6231 20.4845C18.2463 16.3496 20.4392 11.8981 24.4585 10.5149L25.9269 14.9756ZM23.9626 18.9738L24.3464 20.1265L20.007 21.6372L19.6231 20.4845L23.9626 18.9738ZM10.1609 27.8051C11.2057 23.5757 15.414 21.0788 19.5234 22.1723L18.3824 26.7259C16.6918 26.2761 15.0179 27.3065 14.6066 28.9716L10.1609 27.8051ZM8.80045 33.3121L10.1609 27.8051L14.6066 28.9716L13.2462 34.4786L8.80045 33.3121ZM14.3853 42.9058C10.2817 41.8139 7.75717 37.5353 8.80045 33.3121L13.2462 34.4786C12.8333 36.1499 13.8301 37.9008 15.5263 38.3522L14.3853 42.9058ZM17.2615 43.6712L14.3853 42.9058L15.5263 38.3522L18.4025 39.1175L17.2615 43.6712ZM17.7238 54.5183C14.5737 51.5894 14.3281 46.6013 17.1753 43.3771L20.5776 46.5405C19.4288 47.8415 19.5279 49.8542 20.799 51.036L17.7238 54.5183ZM21.8414 58.3466L17.7238 54.5183L20.799 51.036L24.9165 54.8644L21.8414 58.3466ZM32.7006 57.812C29.8534 61.0362 24.9915 61.2755 21.8414 58.3466L24.9165 54.8644C26.1876 56.0462 28.1494 55.9496 29.2983 54.6486L32.7006 57.812ZM32.8396 57.6546L32.7006 57.812L29.2983 54.6486L29.4373 54.4912L32.8396 57.6546ZM36.2754 55.951C36.8192 57.5839 38.5848 58.4957 40.2451 57.9244L41.7135 62.3851C37.6999 63.7663 33.3107 61.5903 31.9359 57.4617L36.2754 55.951ZM40.2451 57.9244L45.5457 56.1003L47.0141 60.561L41.7135 62.3851L40.2451 57.9244ZM45.5457 56.1003C47.2002 55.5309 48.0517 53.7288 47.51 52.1022L51.8495 50.5915C53.2263 54.7263 51.0334 59.1778 47.0141 60.561L45.5457 56.1003ZM51.607 52.8101L50.1861 52.432L51.3271 47.8784L52.748 48.2565L51.607 52.8101ZM60.9695 47.1773C59.9247 51.4067 55.7164 53.9036 51.607 52.8101L52.748 48.2565C54.4386 48.7063 56.1124 47.6759 56.5238 46.0108L60.9695 47.1773ZM62.3299 41.6703L60.9695 47.1773L56.5238 46.0108L57.8842 40.5038L62.3299 41.6703ZM56.7451 32.0766C60.8487 33.1685 63.3732 37.4471 62.3299 41.6703L57.8842 40.5038C58.2971 38.8325 57.3003 37.0816 55.6041 36.6302L56.7451 32.0766ZM56.3264 31.9651L56.7451 32.0766L55.6041 36.6302L55.1854 36.5188L56.3264 31.9651ZM58.3821 28.7304L56.1268 31.2842L52.7245 28.1209L54.9798 25.567L58.3821 28.7304ZM55.1854 36.5188C51.55 35.5515 50.2077 30.9709 52.7245 28.1209L56.1268 31.2842C55.9228 31.5153 56.0316 31.8867 56.3264 31.9651L55.1854 36.5188ZM47.51 52.1022C46.6881 49.6337 48.8662 47.2235 51.3271 47.8784L50.1861 52.432C51.2585 52.7174 52.2077 51.6671 51.8495 50.5915L47.51 52.1022ZM29.4373 54.4912C31.5076 52.1469 35.2766 52.9515 36.2754 55.951L31.936 57.4617C32.0679 57.858 32.566 57.9644 32.8396 57.6546L29.4373 54.4912ZM18.4025 39.1175C21.6158 39.9725 22.8023 44.0213 20.5776 46.5405L17.1753 43.3771C17.1641 43.3898 17.1445 43.4221 17.1358 43.465C17.1284 43.5014 17.132 43.5295 17.1376 43.5489C17.1433 43.5682 17.1555 43.5936 17.1812 43.6199C17.2115 43.6509 17.2453 43.6669 17.2615 43.6712L18.4025 39.1175ZM24.3464 20.1265C25.6307 23.9834 22.2274 27.7491 18.3824 26.7259L19.5233 22.1723C19.8352 22.2552 20.1111 21.9498 20.007 21.6372L24.3464 20.1265ZM44.4736 19.4808C41.923 22.3691 37.2793 21.3778 36.0487 17.6823L40.3882 16.1716C40.488 16.4712 40.8645 16.5516 41.0713 16.3174L44.4736 19.4808Z" fill="#FACC15" mask="url(#path-21-inside-2_1142_270685)"/>
<path d="M47.1196 38.6211C45.5961 36.3686 43.0911 35.6358 41.7758 35.6348C39.7714 35.6332 36.6381 37.8677 37.2911 38.8331C37.944 39.7985 39.9321 43.747 42.635 41.8194" stroke="#FACC15" stroke-width="2.32285" stroke-linecap="round"/>
<path d="M31.7217 25.0508C34.3609 27.0422 35.3022 28.5362 35.65 30.8891C35.9979 33.242 33.748 36.3843 32.4284 35.3886C31.1088 34.3929 27.6972 32.5341 29.6406 29.8197" stroke="#FACC15" stroke-width="2.32285" stroke-linecap="round"/>
<defs>
<filter id="filter0_ii_1142_270685" x="-18.8621" y="3" width="98.7932" height="95.3621" filterUnits="userSpaceOnUse" color-interpolation-filters="sRGB">
<feFlood flood-opacity="0" result="BackgroundImageFix"/>
<feBlend mode="normal" in="SourceGraphic" in2="BackgroundImageFix" result="shape"/>
<feColorMatrix in="SourceAlpha" type="matrix" values="0 0 0 0 0 0 0 0 0 0 0 0 0 0 0 0 0 0 127 0" result="hardAlpha"/>
<feOffset dx="10.9311" dy="10.9311"/>
<feGaussianBlur stdDeviation="10.9311"/>
<feComposite in2="hardAlpha" operator="arithmetic" k2="-1" k3="1"/>
<feColorMatrix type="matrix" values="0 0 0 0 0 0 0 0 0 0 0 0 0 0 0 0 0 0 0.25 0"/>
<feBlend mode="normal" in2="shape" result="effect1_innerShadow_1142_270685"/>
<feColorMatrix in="SourceAlpha" type="matrix" values="0 0 0 0 0 0 0 0 0 0 0 0 0 0 0 0 0 0 127 0" result="hardAlpha"/>
<feOffset dx="-21.8621" dy="43.7242"/>
<feGaussianBlur stdDeviation="10.9311"/>
<feComposite in2="hardAlpha" operator="arithmetic" k2="-1" k3="1"/>
<feColorMatrix type="matrix" values="0 0 0 0 1 0 0 0 0 1 0 0 0 0 1 0 0 0 0.25 0"/>
<feBlend mode="normal" in2="effect1_innerShadow_1142_270685" result="effect2_innerShadow_1142_270685"/>
</filter>
<filter id="filter1_i_1142_270685" x="9.00002" y="9" width="54" height="54" filterUnits="userSpaceOnUse" color-interpolation-filters="sRGB">
<feFlood flood-opacity="0" result="BackgroundImageFix"/>
<feBlend mode="normal" in="SourceGraphic" in2="BackgroundImageFix" result="shape"/>
<feColorMatrix in="SourceAlpha" type="matrix" values="0 0 0 0 0 0 0 0 0 0 0 0 0 0 0 0 0 0 127 0" result="hardAlpha"/>
<feOffset dx="-1.23" dy="1.23"/>
<feComposite in2="hardAlpha" operator="arithmetic" k2="-1" k3="1"/>
<feColorMatrix type="matrix" values="0 0 0 0 0 0 0 0 0 0 0 0 0 0 0 0 0 0 0.12 0"/>
<feBlend mode="normal" in2="shape" result="effect1_innerShadow_1142_270685"/>
</filter>
<filter id="filter2_d_1142_270685" x="25.6089" y="35.5625" width="12.4775" height="12.2422" filterUnits="userSpaceOnUse" color-interpolation-filters="sRGB">
<feFlood flood-opacity="0" result="BackgroundImageFix"/>
<feColorMatrix in="SourceAlpha" type="matrix" values="0 0 0 0 0 0 0 0 0 0 0 0 0 0 0 0 0 0 127 0" result="hardAlpha"/>
<feOffset/>
<feComposite in2="hardAlpha" operator="out"/>
<feColorMatrix type="matrix" values="0 0 0 0 0 0 0 0 0 0 0 0 0 0 0 0 0 0 0.25 0"/>
<feBlend mode="normal" in2="BackgroundImageFix" result="effect1_dropShadow_1142_270685"/>
<feBlend mode="normal" in="SourceGraphic" in2="effect1_dropShadow_1142_270685" result="shape"/>
</filter>
</defs>
</svg>
