<svg width="249" height="115" viewBox="0 0 249 115" fill="none" xmlns="http://www.w3.org/2000/svg">
<g filter="url(#filter0_i_1142_274134)">
<path d="M120.839 89.9269C123.885 89.311 126.405 83.0609 128.782 78.3352C129.36 77.1871 128.227 75.4286 126.939 75.3284C116.088 74.4853 93.3616 65.0208 86.4016 62.0291C85.0133 61.4323 83.5238 61.1598 82.3349 62.0547C78.3008 65.0913 71.2291 74.6382 75.8504 77.0519C81.0997 79.7937 89.9444 83.0629 98.954 85.6537C103.156 86.862 111.589 82.4149 111.589 82.4149C111.589 82.4149 108.065 86.7103 110.167 87.1807C114.962 88.254 119.388 90.2203 120.839 89.9269Z" fill="#2DD4BF"/>
</g>
<g filter="url(#filter1_ii_1142_274134)">
<path d="M7.73015 14.3296C7.46488 13.7571 7.95863 13.1294 8.57355 13.271C12.5939 14.1965 24.0005 16.9232 33.5086 20.1641C36.1728 21.0722 38.9734 21.604 41.5948 22.6288C52.226 26.7848 61.9598 41.5749 60.0416 45.05C59.8865 45.331 59.8765 45.7409 60.1392 45.9253L61.9443 47.1923C64.9174 49.2791 64.9621 53.6689 62.0322 55.8158C61.9951 55.843 61.967 55.8806 61.9514 55.9239L61.8528 56.1986C59.5953 62.4835 56.757 68.8766 51.3838 72.8422C47.7611 75.5159 43.6294 77.1226 37.5417 78.6811L0.63724 83.5002C0.344355 83.5384 0.113541 83.2552 0.21011 82.9761C1.47631 79.316 3.39244 75.9145 5.86644 72.9348L8.5 69.763H7.059C6.48843 69.763 6.16485 69.1094 6.51074 68.6557L7.44841 67.4256C10.7692 63.0691 14.4541 59.0026 18.4634 55.27L25.3735 50.4113C26.2836 49.7713 26.3494 48.4463 25.5073 47.7193C20.0377 42.9974 16.0635 36.7831 14.0713 29.8373L12.9153 25.8068C12.8405 25.5461 13.071 25.3 13.336 25.3575L16.2917 25.9982C12.8716 23.1023 10.1238 19.4957 8.2398 15.4295L7.73015 14.3296Z" fill="#2DD4BF"/>
</g>
<g filter="url(#filter2_ii_1142_274134)">
<path d="M183.376 23.2027C152.329 16.3599 79.5 34.2839 59.0461 39.9772C59.7549 42.301 61.2833 44.7587 50.6145 46.949C49.6607 48.7801 48.6424 50.651 49.123 52.3714C50.0751 55.7789 54.1471 58.5958 56.9201 59.3428C62.5651 60.8634 94.4856 90.327 183.376 83.2663C196.748 82.2041 213.078 77.5712 225.008 72.6221C234.232 68.7958 239.793 63.8585 243.944 59.6157C246.734 56.7633 246.631 52.0811 243.529 49.5712C239.115 46.0004 232.627 41.3543 225.008 37.6477C212.747 31.6819 197.963 26.4175 183.376 23.2027Z" fill="#14B8A6"/>
</g>
<g filter="url(#filter3_ii_1142_274134)">
<path d="M178.5 71.1463C187.423 69.8457 191.203 98.9645 190.529 106.937C190.46 107.751 189.902 108.419 189.126 108.686C175.794 113.268 158.456 100.943 163.203 93.5569C167.126 87.4517 161.515 81.0036 166.785 77.7899C167.507 77.35 168.1 77.1237 168.659 76.9471C171.818 75.95 173.82 72.8296 176.882 71.5674C177.321 71.3864 177.846 71.2416 178.5 71.1463Z" fill="#2DD4BF"/>
</g>
<g filter="url(#filter4_di_1142_274134)">
<path d="M225.155 72.5967C234.237 68.8707 239.745 64.073 243.859 59.9289C246.691 57.0749 246.581 52.346 243.438 49.8386C239.054 46.3421 232.656 41.8266 225.155 38.2174C219.674 35.5799 213.686 33.0818 207.437 30.8438C206.497 31.5269 210.96 32.1438 202.506 39.7459C195.605 45.9524 196.167 78.607 207.437 78.607C213.778 76.8508 219.896 74.7543 225.155 72.5967Z" fill="#2DD4BF"/>
</g>
<g filter="url(#filter5_dd_1142_274134)">
<ellipse cx="3.19152" cy="3.18214" rx="3.19152" ry="3.18214" transform="matrix(0.999823 -0.018837 0.0189482 0.99982 228 50.8672)" fill="#334155"/>
</g>
<ellipse cx="0.911862" cy="0.909183" rx="0.911862" ry="0.909183" transform="matrix(0.999823 -0.018837 0.0189482 0.99982 231.437 51.7109)" fill="#E2E8F0"/>
<g opacity="0.84" filter="url(#filter6_f_1142_274134)">
<path d="M62.4907 40.5794C72.5 37.8006 81.5416 35.4572 91 33.3228C102.579 30.7099 142.925 23.9565 151.5 23.3715C162.925 22.592 203.746 26.3217 223 38.7966" stroke="white" stroke-linecap="round"/>
</g>
<ellipse cx="87.1928" cy="44.2518" rx="0.708884" ry="0.77136" fill="white" fill-opacity="0.4"/>
<ellipse cx="177.93" cy="41.1656" rx="2.12665" ry="2.31408" fill="white" fill-opacity="0.4"/>
<ellipse cx="177.93" cy="41.1656" rx="2.12665" ry="2.31408" fill="white" fill-opacity="0.4"/>
<ellipse cx="75.1419" cy="49.6482" rx="1.41777" ry="1.54272" fill="white" fill-opacity="0.4"/>
<ellipse cx="2" cy="2.17627" rx="2" ry="2.17627" transform="matrix(-1 0 0 1 106 44.0547)" fill="white" fill-opacity="0.4"/>
<ellipse cx="1.00724" cy="1.08143" rx="1.00724" ry="1.08143" transform="matrix(0.952791 0.303628 -0.259893 0.965637 150.06 38.8633)" fill="white" fill-opacity="0.4"/>
<ellipse cx="2.01448" cy="2.16286" rx="2.01448" ry="2.16286" transform="matrix(0.952791 0.303628 -0.259893 0.965637 140.137 37.3086)" fill="white" fill-opacity="0.4"/>
<ellipse cx="1.51086" cy="1.62215" rx="1.51086" ry="1.62215" transform="matrix(-0.952791 -0.303628 -0.259893 0.965637 194.45 32.918)" fill="white" fill-opacity="0.4"/>
<ellipse cx="2" cy="2.17627" rx="2" ry="2.17627" transform="matrix(-1 0 0 1 120.017 36.4375)" fill="white" fill-opacity="0.4"/>
<ellipse opacity="0.8" cx="132.853" cy="47.6506" rx="1" ry="1.08813" fill="white" fill-opacity="0.4"/>
<g filter="url(#filter7_ii_1142_274134)">
<path d="M181.103 20.4216C182.94 22.4026 184.595 24.5207 185.86 26.7184C186.181 27.2769 185.624 27.908 185.012 27.707C170.347 22.8944 141.143 26.1092 120.963 29.2692C110.382 30.9261 98.5682 24.5547 89.2168 19.3338L89.0025 19.2139C87.7827 18.5295 105.253 20.4814 105.253 20.4814L100.706 16.3972C99.9338 15.7033 100.141 14.4417 101.097 14.0353C110.609 9.98906 125.036 3.98539 136.143 6.04456C139.183 6.60817 145.156 8.7714 149.145 10.3157C144.997 8.0584 142.607 4.24174 141.683 2.50065C141.484 2.12539 141.816 1.72236 142.23 1.81988C156.493 5.18353 171.14 9.6747 181.103 20.4216Z" fill="#2DD4BF"/>
</g>
<g opacity="0.6">
<path d="M179 50.7461H177.99C176.891 50.7461 176 51.6371 176 52.7362C176 53.8354 176.891 54.7264 177.99 54.7264H179" stroke="#A6B4C8" stroke-linecap="round"/>
<path d="M182 53.3984H180.99C179.891 53.3984 179 54.2895 179 55.3886C179 56.4877 179.891 57.3787 180.99 57.3787H182" stroke="#A6B4C8" stroke-linecap="round"/>
</g>
<g opacity="0.6">
<path d="M144 54.7266H143.687C142.203 54.7266 141 55.9294 141 57.4132C141 58.8971 142.203 60.0999 143.687 60.0999H144" stroke="#A6B4C8" stroke-linecap="round"/>
<path d="M147 58.3086H146.687C145.203 58.3086 144 59.5115 144 60.9953C144 62.4791 145.203 63.682 146.687 63.682H147" stroke="#A6B4C8" stroke-linecap="round"/>
<path d="M141 58.3086H140.687C139.203 58.3086 138 59.5115 138 60.9953C138 62.4791 139.203 63.682 140.687 63.682H141" stroke="#A6B4C8" stroke-linecap="round"/>
</g>
<g opacity="0.6">
<path d="M101 54.7266H99.9901C98.891 54.7266 98 55.6176 98 56.7167C98 57.8158 98.891 58.7068 99.9901 58.7068H101" stroke="#A6B4C8" stroke-linecap="round"/>
<path d="M101 58.707H99.9901C98.891 58.707 98 59.598 98 60.6972C98 61.7963 98.891 62.6873 99.9901 62.6873H101" stroke="#A6B4C8" stroke-linecap="round"/>
<path d="M98 57.3789H96.9901C95.891 57.3789 95 58.2699 95 59.369C95 60.4682 95.891 61.3592 96.9901 61.3592H98" stroke="#A6B4C8" stroke-linecap="round"/>
</g>
<defs>
<filter id="filter0_i_1142_274134" x="74.3379" y="61.4805" width="54.5991" height="28.4766" filterUnits="userSpaceOnUse" color-interpolation-filters="sRGB">
<feFlood flood-opacity="0" result="BackgroundImageFix"/>
<feBlend mode="normal" in="SourceGraphic" in2="BackgroundImageFix" result="shape"/>
<feColorMatrix in="SourceAlpha" type="matrix" values="0 0 0 0 0 0 0 0 0 0 0 0 0 0 0 0 0 0 127 0" result="hardAlpha"/>
<feOffset dx="-5.67107" dy="8.50661"/>
<feComposite in2="hardAlpha" operator="arithmetic" k2="-1" k3="1"/>
<feColorMatrix type="matrix" values="0 0 0 0 0.3375 0 0 0 0 0.3375 0 0 0 0 0.3375 0 0 0 0.15 0"/>
<feBlend mode="normal" in2="shape" result="effect1_innerShadow_1142_274134"/>
</filter>
<filter id="filter1_ii_1142_274134" x="0.187988" y="9.25" width="64.0142" height="74.2539" filterUnits="userSpaceOnUse" color-interpolation-filters="sRGB">
<feFlood flood-opacity="0" result="BackgroundImageFix"/>
<feBlend mode="normal" in="SourceGraphic" in2="BackgroundImageFix" result="shape"/>
<feColorMatrix in="SourceAlpha" type="matrix" values="0 0 0 0 0 0 0 0 0 0 0 0 0 0 0 0 0 0 127 0" result="hardAlpha"/>
<feOffset dx="-1" dy="1.21"/>
<feComposite in2="hardAlpha" operator="arithmetic" k2="-1" k3="1"/>
<feColorMatrix type="matrix" values="0 0 0 0 1 0 0 0 0 1 0 0 0 0 1 0 0 0 0.54 0"/>
<feBlend mode="normal" in2="shape" result="effect1_innerShadow_1142_274134"/>
<feColorMatrix in="SourceAlpha" type="matrix" values="0 0 0 0 0 0 0 0 0 0 0 0 0 0 0 0 0 0 127 0" result="hardAlpha"/>
<feOffset dy="-4"/>
<feGaussianBlur stdDeviation="3.5"/>
<feComposite in2="hardAlpha" operator="arithmetic" k2="-1" k3="1"/>
<feColorMatrix type="matrix" values="0 0 0 0 0 0 0 0 0 0 0 0 0 0 0 0 0 0 0.15 0"/>
<feBlend mode="normal" in2="effect1_innerShadow_1142_274134" result="effect2_innerShadow_1142_274134"/>
</filter>
<filter id="filter2_ii_1142_274134" x="35.15" y="5.39797" width="210.8" height="81.9575" filterUnits="userSpaceOnUse" color-interpolation-filters="sRGB">
<feFlood flood-opacity="0" result="BackgroundImageFix"/>
<feBlend mode="normal" in="SourceGraphic" in2="BackgroundImageFix" result="shape"/>
<feColorMatrix in="SourceAlpha" type="matrix" values="0 0 0 0 0 0 0 0 0 0 0 0 0 0 0 0 0 0 127 0" result="hardAlpha"/>
<feOffset dx="-13.85" dy="-26.06"/>
<feGaussianBlur stdDeviation="8.135"/>
<feComposite in2="hardAlpha" operator="arithmetic" k2="-1" k3="1"/>
<feColorMatrix type="matrix" values="0 0 0 0 0 0 0 0 0 0 0 0 0 0 0 0 0 0 0.2 0"/>
<feBlend mode="normal" in2="shape" result="effect1_innerShadow_1142_274134"/>
<feColorMatrix in="SourceAlpha" type="matrix" values="0 0 0 0 0 0 0 0 0 0 0 0 0 0 0 0 0 0 127 0" result="hardAlpha"/>
<feOffset dx="-5" dy="3"/>
<feGaussianBlur stdDeviation="5.5"/>
<feComposite in2="hardAlpha" operator="arithmetic" k2="-1" k3="1"/>
<feColorMatrix type="matrix" values="0 0 0 0 1 0 0 0 0 1 0 0 0 0 1 0 0 0 0.35 0"/>
<feBlend mode="normal" in2="effect1_innerShadow_1142_274134" result="effect2_innerShadow_1142_274134"/>
</filter>
<filter id="filter3_ii_1142_274134" x="162.402" y="69.6155" width="29.2036" height="41.0642" filterUnits="userSpaceOnUse" color-interpolation-filters="sRGB">
<feFlood flood-opacity="0" result="BackgroundImageFix"/>
<feBlend mode="normal" in="SourceGraphic" in2="BackgroundImageFix" result="shape"/>
<feColorMatrix in="SourceAlpha" type="matrix" values="0 0 0 0 0 0 0 0 0 0 0 0 0 0 0 0 0 0 127 0" result="hardAlpha"/>
<feOffset dx="0.33" dy="-1.49"/>
<feGaussianBlur stdDeviation="1"/>
<feComposite in2="hardAlpha" operator="arithmetic" k2="-1" k3="1"/>
<feColorMatrix type="matrix" values="0 0 0 0 0.3375 0 0 0 0 0.3375 0 0 0 0 0.3375 0 0 0 0.24 0"/>
<feBlend mode="normal" in2="shape" result="effect1_innerShadow_1142_274134"/>
<feColorMatrix in="SourceAlpha" type="matrix" values="0 0 0 0 0 0 0 0 0 0 0 0 0 0 0 0 0 0 127 0" result="hardAlpha"/>
<feOffset dx="1" dy="1"/>
<feGaussianBlur stdDeviation="2"/>
<feComposite in2="hardAlpha" operator="arithmetic" k2="-1" k3="1"/>
<feColorMatrix type="matrix" values="0 0 0 0 0 0 0 0 0 0 0 0 0 0 0 0 0 0 0.15 0"/>
<feBlend mode="normal" in2="effect1_innerShadow_1142_274134" result="effect2_innerShadow_1142_274134"/>
</filter>
<filter id="filter4_di_1142_274134" x="196" y="25.5738" width="54.7836" height="53.0317" filterUnits="userSpaceOnUse" color-interpolation-filters="sRGB">
<feFlood flood-opacity="0" result="BackgroundImageFix"/>
<feColorMatrix in="SourceAlpha" type="matrix" values="0 0 0 0 0 0 0 0 0 0 0 0 0 0 0 0 0 0 127 0" result="hardAlpha"/>
<feOffset dx="-2" dy="-1"/>
<feComposite in2="hardAlpha" operator="out"/>
<feColorMatrix type="matrix" values="0 0 0 0 0 0 0 0 0 0 0 0 0 0 0 0 0 0 0.15 0"/>
<feBlend mode="normal" in2="BackgroundImageFix" result="effect1_dropShadow_1142_274134"/>
<feBlend mode="normal" in="SourceGraphic" in2="effect1_dropShadow_1142_274134" result="shape"/>
<feColorMatrix in="SourceAlpha" type="matrix" values="0 0 0 0 0 0 0 0 0 0 0 0 0 0 0 0 0 0 127 0" result="hardAlpha"/>
<feOffset dx="4.89" dy="-11.06"/>
<feGaussianBlur stdDeviation="2.635"/>
<feComposite in2="hardAlpha" operator="arithmetic" k2="-1" k3="1"/>
<feColorMatrix type="matrix" values="0 0 0 0 0 0 0 0 0 0 0 0 0 0 0 0 0 0 0.11 0"/>
<feBlend mode="normal" in2="shape" result="effect2_innerShadow_1142_274134"/>
</filter>
<filter id="filter5_dd_1142_274134" x="221.021" y="46.5818" width="17.6444" height="17.6283" filterUnits="userSpaceOnUse" color-interpolation-filters="sRGB">
<feFlood flood-opacity="0" result="BackgroundImageFix"/>
<feColorMatrix in="SourceAlpha" type="matrix" values="0 0 0 0 0 0 0 0 0 0 0 0 0 0 0 0 0 0 127 0" result="hardAlpha"/>
<feOffset dx="1.40763" dy="-1.40763"/>
<feGaussianBlur stdDeviation="1.40763"/>
<feComposite in2="hardAlpha" operator="out"/>
<feColorMatrix type="matrix" values="0 0 0 0 0 0 0 0 0 0 0 0 0 0 0 0 0 0 0.25 0"/>
<feBlend mode="normal" in2="BackgroundImageFix" result="effect1_dropShadow_1142_274134"/>
<feColorMatrix in="SourceAlpha" type="matrix" values="0 0 0 0 0 0 0 0 0 0 0 0 0 0 0 0 0 0 127 0" result="hardAlpha"/>
<feOffset dx="-1.40763" dy="1.40763"/>
<feGaussianBlur stdDeviation="2.81527"/>
<feComposite in2="hardAlpha" operator="out"/>
<feColorMatrix type="matrix" values="0 0 0 0 1 0 0 0 0 1 0 0 0 0 1 0 0 0 0.25 0"/>
<feBlend mode="normal" in2="effect1_dropShadow_1142_274134" result="effect2_dropShadow_1142_274134"/>
<feBlend mode="normal" in="SourceGraphic" in2="effect2_dropShadow_1142_274134" result="shape"/>
</filter>
<filter id="filter6_f_1142_274134" x="58.9907" y="19.7734" width="167.509" height="24.3047" filterUnits="userSpaceOnUse" color-interpolation-filters="sRGB">
<feFlood flood-opacity="0" result="BackgroundImageFix"/>
<feBlend mode="normal" in="SourceGraphic" in2="BackgroundImageFix" result="shape"/>
<feGaussianBlur stdDeviation="1.5" result="effect1_foregroundBlur_1142_274134"/>
</filter>
<filter id="filter7_ii_1142_274134" x="88.9414" y="-1.03085" width="97.0122" height="30.566" filterUnits="userSpaceOnUse" color-interpolation-filters="sRGB">
<feFlood flood-opacity="0" result="BackgroundImageFix"/>
<feBlend mode="normal" in="SourceGraphic" in2="BackgroundImageFix" result="shape"/>
<feColorMatrix in="SourceAlpha" type="matrix" values="0 0 0 0 0 0 0 0 0 0 0 0 0 0 0 0 0 0 127 0" result="hardAlpha"/>
<feOffset dy="1.84"/>
<feComposite in2="hardAlpha" operator="arithmetic" k2="-1" k3="1"/>
<feColorMatrix type="matrix" values="0 0 0 0 1 0 0 0 0 1 0 0 0 0 1 0 0 0 0.25 0"/>
<feBlend mode="normal" in2="shape" result="effect1_innerShadow_1142_274134"/>
<feColorMatrix in="SourceAlpha" type="matrix" values="0 0 0 0 0 0 0 0 0 0 0 0 0 0 0 0 0 0 127 0" result="hardAlpha"/>
<feOffset dy="-2.83554"/>
<feGaussianBlur stdDeviation="1.67"/>
<feComposite in2="hardAlpha" operator="arithmetic" k2="-1" k3="1"/>
<feColorMatrix type="matrix" values="0 0 0 0 0 0 0 0 0 0 0 0 0 0 0 0 0 0 0.1 0"/>
<feBlend mode="normal" in2="effect1_innerShadow_1142_274134" result="effect2_innerShadow_1142_274134"/>
</filter>
</defs>
</svg>
