<svg width="730" height="1445" viewBox="0 0 730 1445" fill="none" xmlns="http://www.w3.org/2000/svg">
<g filter="url(#filter0_i_1142_271034)">
<path d="M192.808 169.062C186.479 180.458 212.299 202.118 200.963 237.211C189.627 272.303 206.543 306.036 218.923 313.227C231.304 320.418 230.368 330.375 229.056 344.313C227.745 358.251 218.379 457.812 248.028 559.034C263.792 612.853 251.171 653.745 239.893 698.887C228.615 744.029 222.416 818.111 251.344 886.785C269.407 929.666 283.614 1006.11 262.79 1035.29" stroke="#9A7858" stroke-width="8" stroke-linecap="round"/>
</g>
<g filter="url(#filter1_i_1142_271034)">
<path d="M186.649 174.943C181.02 181.292 218.912 202.742 206.233 237.708C193.555 272.674 199.771 306.405 214.333 313.801C228.895 321.198 224.027 336.16 222.716 350.098C190.716 451.098 230.07 431.794 266.263 533.632C285.507 587.778 238.243 648.255 225.79 693.287C214.333 723.287 224.391 829.008 246.154 886.298C275.748 944.325 303.828 995.179 279.983 1024.07" stroke="#4D7C0F" stroke-width="5" stroke-linecap="round"/>
</g>
<g filter="url(#filter2_i_1142_271034)">
<path d="M287.79 489.785C287.79 493.318 285.434 496.48 281.728 498.589C275.891 489.709 274.864 491.737 276.836 500.537C274.957 501.02 272.919 501.285 270.79 501.285C261.401 501.285 253.79 507.636 253.79 501.285C253.79 494.934 261.401 478.285 270.79 478.285C280.179 478.285 287.79 483.434 287.79 489.785Z" fill="#65A30D"/>
</g>
<g filter="url(#filter3_i_1142_271034)">
<path d="M258.356 688.828C257.217 695.076 248.806 698.777 239.57 697.093C240.805 689.887 238.974 690.569 235.024 696.717C233.99 696.719 232.985 696.772 232.026 696.845C226.206 697.29 222.031 698.511 222.845 694.045C223.984 687.797 234.457 672.783 243.693 674.466C244.765 674.661 245.801 674.921 246.793 675.236C247.691 682.709 249.13 682.306 250.868 676.972C256.064 679.826 259.168 684.373 258.356 688.828Z" fill="#65A30D"/>
</g>
<g filter="url(#filter4_i_1142_271034)">
<path d="M312.79 939.785C312.79 942.467 311.433 944.934 309.159 946.89C303.76 938.093 302.659 939.328 305.297 949.32C302.584 950.561 299.312 951.285 295.79 951.285C286.401 951.285 278.79 957.636 278.79 951.285C278.79 944.934 286.401 928.285 295.79 928.285C305.179 928.285 312.79 933.434 312.79 939.785Z" fill="#65A30D"/>
</g>
<g filter="url(#filter5_i_1142_271034)">
<path d="M247.839 1012.26C247.839 1018.61 255.45 1023.76 264.839 1023.76C274.228 1023.76 281.839 1030.11 281.839 1023.76C281.839 1017.41 274.228 1000.76 264.839 1000.76C263.064 1006.11 261.42 1006.27 259.805 1001.27C252.874 1002.72 247.839 1007.09 247.839 1012.26Z" fill="#65A30D"/>
</g>
<g filter="url(#filter6_i_1142_271034)">
<path d="M216.538 622.453C216.538 627.754 221.838 632.216 229.05 633.548C231.852 626.125 233.16 627.411 233.538 633.953C235.535 633.953 237.453 634.241 239.233 634.632C241.816 628.792 242.23 631.118 242.085 635.355C247.14 636.77 250.538 638.197 250.538 633.953C250.538 630.598 248.414 624.369 245.025 619.239C244.003 617.69 242.865 616.242 241.636 615.003C239.228 612.577 236.469 610.953 233.538 610.953C224.149 610.953 216.538 616.102 216.538 622.453Z" fill="#65A30D"/>
</g>
<g filter="url(#filter7_i_1142_271034)">
<path d="M200.79 836.785C200.79 843.136 208.401 848.285 217.79 848.285C227.179 848.285 234.79 854.636 234.79 848.285C234.79 841.934 227.179 825.285 217.79 825.285C208.401 825.285 200.79 830.434 200.79 836.785Z" fill="#65A30D"/>
</g>
<g filter="url(#filter8_i_1142_271034)">
<path d="M583.37 434.606C588.07 442.261 570.946 457.953 579.809 481.773C588.672 505.593 578.042 529.329 569.735 534.653C561.427 539.978 562.372 546.805 563.695 556.362C565.018 565.919 574.469 634.186 557.106 704.773C547.875 742.304 557.798 770.078 566.923 800.82C576.049 831.561 582.551 882.381 564.704 930.537C553.56 960.605 546.083 1013.67 561.3 1033.13" stroke="#9A7858" stroke-width="5.51343" stroke-linecap="round"/>
</g>
<g filter="url(#filter9_i_1142_271034)">
<path d="M587.787 438.467C591.855 442.668 566.412 458.58 576.196 482.272C585.979 505.965 582.716 529.377 572.913 534.908C563.109 540.44 566.912 550.595 568.235 560.152C593.313 628.728 565.635 616.623 543.785 687.831C532.168 725.692 566.534 765.907 576.465 796.537C585.258 816.847 581.52 889.941 568.263 930.043C549.636 970.888 531.836 1006.75 549.125 1025.92" stroke="#4D7C0F" stroke-width="3.44589" stroke-linecap="round"/>
</g>
<g filter="url(#filter10_i_1142_271034)">
<path d="M527.642 658.295C527.748 660.727 529.465 662.833 532.081 664.174C535.832 657.883 536.6 659.249 535.508 665.367C536.816 665.643 538.227 665.764 539.693 665.7C546.158 665.417 551.589 669.56 551.398 665.188C551.207 660.815 545.464 649.581 539 649.864C532.535 650.147 527.45 653.922 527.642 658.295Z" fill="#65A30D"/>
</g>
<g filter="url(#filter11_i_1142_271034)">
<path d="M553.908 794.449C554.881 798.716 560.783 801.011 567.092 799.573C566.024 794.649 567.306 795.063 570.211 799.177C570.923 799.148 571.616 799.153 572.279 799.175C576.3 799.306 579.211 800.021 578.516 796.971C577.543 792.703 569.88 782.681 563.571 784.118C562.839 784.285 562.133 784.495 561.46 784.742C561.067 789.914 560.064 789.681 558.706 786.061C555.215 788.182 553.215 791.406 553.908 794.449Z" fill="#65A30D"/>
</g>
<g filter="url(#filter12_i_1142_271034)">
<path d="M523.996 968.881C524.076 970.727 525.085 972.385 526.71 973.663C530.162 967.443 530.957 968.26 529.442 975.22C531.348 975.992 533.622 976.392 536.047 976.286C542.512 976.003 547.943 980.146 547.752 975.773C547.561 971.4 541.818 960.167 535.354 960.45C528.889 960.733 523.804 964.508 523.996 968.881Z" fill="#65A30D"/>
</g>
<g filter="url(#filter13_i_1142_271034)">
<path d="M570.9 1016.82C571.092 1021.19 566.007 1024.97 559.542 1025.25C553.078 1025.53 548.029 1030.13 547.837 1025.76C547.646 1021.39 552.384 1009.7 558.849 1009.41C560.232 1013.04 561.369 1013.11 562.331 1009.61C567.146 1010.4 570.745 1013.26 570.9 1016.82Z" fill="#65A30D"/>
</g>
<g filter="url(#filter14_i_1142_271034)">
<path d="M580.7 747.491C580.86 751.14 577.345 754.373 572.42 755.507C570.267 750.481 569.405 751.405 569.342 755.921C567.967 755.981 566.655 756.237 565.441 756.56C563.487 752.617 563.272 754.231 563.5 757.144C560.061 758.27 557.765 759.355 557.637 756.434C557.536 754.123 558.811 749.771 560.989 746.136C561.646 745.039 562.386 744.008 563.195 743.118C564.78 741.374 566.63 740.174 568.649 740.085C575.113 739.802 580.509 743.118 580.7 747.491Z" fill="#65A30D"/>
</g>
<g filter="url(#filter15_i_1142_271034)">
<path d="M598.004 894.584C598.196 898.957 593.111 902.732 586.646 903.015C580.182 903.298 575.133 907.9 574.941 903.527C574.75 899.154 579.488 887.462 585.953 887.179C592.417 886.896 597.813 890.211 598.004 894.584Z" fill="#65A30D"/>
</g>
<circle cx="38.5" cy="38.5" r="38.5" transform="matrix(-1 0 0 1 403 1043)" fill="black" fill-opacity="0.2"/>
<circle opacity="0.5" cx="91.5" cy="91.5" r="91.5" transform="matrix(-1 0 0 1 456 989)" fill="black" fill-opacity="0.12"/>
<circle cx="202" cy="202" r="202" transform="matrix(-1 0 0 1 567 878)" fill="black" fill-opacity="0.12"/>
<g filter="url(#filter16_i_1142_271034)">
<path fill-rule="evenodd" clip-rule="evenodd" d="M227.531 384.866C221.813 387.056 227.264 389.468 229.47 395.145L275.547 514.946C277.753 520.622 284.176 523.449 289.894 521.259C295.612 519.069 298.459 512.691 296.253 507.015L237.768 390.363C235.562 384.686 234.071 382.676 227.531 384.866Z" fill="#82644D"/>
</g>
<g filter="url(#filter17_i_1142_271034)">
<path d="M318.359 445.411L269.226 537.751C258.32 559.855 248.834 573.089 248.834 598.381L243 660.745C246.517 692.524 257.004 695.916 275.813 721.776L296.899 750.767C307.16 764.875 314.46 780.913 318.359 797.916L333.358 948.74C335.021 955.993 336.055 963.375 336.448 970.806L329.993 1079.23C328.806 1099.18 344.658 1116 364.636 1116C384.81 1116 400.733 1098.86 399.246 1078.74L391.056 967.92C390.497 957.349 389.026 946.845 386.659 936.527L362.453 797.916C356.906 773.726 347.957 759.339 333.358 739.266L296.899 696.842C283.678 678.665 278.285 678.387 275.813 656.05L274.558 610.186C272.993 596.054 275.506 581.769 281.797 569.017L336.256 445.411C342.935 431.874 357.148 355 357.148 355C357.148 355 350.619 355.002 350.619 355C341.189 375.366 321.598 438.845 318.359 445.411Z" fill="#9A7858"/>
</g>
<g filter="url(#filter18_i_1142_271034)">
<path fill-rule="evenodd" clip-rule="evenodd" d="M438.939 548C438.939 548 432.116 573.701 430.056 582.892L420.892 623.763C416.989 641.175 415 659.376 415 677.691V686.887C415 708.237 417.702 729.404 422.971 749.33L436.895 792.518C439.281 801.541 443.599 805.174 449.799 801.701C455.998 798.228 457.256 788.965 454.87 779.942L437.59 736.753C433.382 720.841 430.105 703.937 430.105 686.887V677.691C430.105 663.064 428.896 648.53 432.013 634.625L438.939 593.754C441 584.562 445.254 550.999 438.939 548Z" fill="#82644D"/>
</g>
<g filter="url(#filter19_i_1142_271034)">
<path fill-rule="evenodd" clip-rule="evenodd" d="M596.141 433.835C596.141 433.835 589.612 441.712 586.574 454.643L559.717 568.937C555.129 588.465 546.161 606.697 533.491 622.259L513.919 646.3C503.748 658.792 495.295 672.588 488.785 687.318L401.992 883.719C397.715 893.397 392.294 902.528 385.843 910.918L357.485 947.285C349.386 957.82 351.367 972.917 361.911 981.005C372.455 989.094 387.569 987.112 395.668 976.578L417.544 944.543C426.337 933.108 436.413 902.908 442.242 889.717L511.847 703.608C516.622 692.802 519.404 675.744 526.865 666.579L545.22 636.099C553.054 623.667 566.976 597.568 573.23 570.951L594.706 459.853C597.744 446.922 598.901 431.794 596.141 433.835Z" fill="#9A7858"/>
</g>
<g filter="url(#filter20_i_1142_271034)">
<path fill-rule="evenodd" clip-rule="evenodd" d="M602.364 618.612C602.364 618.612 594.451 635.949 591.413 641.98L577.904 668.798C572.149 680.223 564.985 691.232 556.677 701.418L552.506 706.531C542.822 718.405 531.738 732.971 519.808 741.701L492.576 759.507C487.174 763.461 483.156 759.554 481.329 754.857C479.502 750.16 483.013 744.447 488.415 740.494L517.489 724.185C527.016 717.213 536.482 709.274 544.216 699.792L548.387 694.678C555.021 686.544 562.278 679 566.874 669.876L581.611 644.057C584.649 638.026 597.537 617.462 602.364 618.612Z" fill="#9A7858"/>
</g>
<g filter="url(#filter21_i_1142_271034)">
<path d="M315.071 64.3697C430.752 65.0242 582.308 183.129 567.449 296.552C564.615 318.186 540.653 322.773 529.074 342.915C516.783 364.295 516.322 401.079 494.179 418.677C472.854 435.624 431.936 432.185 406.151 441.87C372.101 454.659 351.977 477.872 315.071 477.999C281.577 478.114 256.437 448.522 224.99 438.208C194.852 428.323 158.238 438.141 133.747 418.677C113.787 402.814 113.538 367.174 101.583 348.151C87.7814 326.189 63.6073 320.45 60.4764 296.552C45.9526 185.691 202.878 63.7348 315.071 64.3697Z" fill="#65A30D"/>
</g>
<path opacity="0.2" d="M245.598 187.393C246.212 192.018 248.971 210.413 234.859 204.639C225.089 200.642 233.133 192.742 245.598 187.393Z" fill="white" fill-opacity="0.2"/>
<path opacity="0.5" d="M240.684 231.749C241.973 238.169 247.568 263.703 226.172 255.542C211.361 249.893 222.641 239.029 240.684 231.749Z" fill="black" fill-opacity="0.12"/>
<path d="M207.143 362.772C200.729 360.395 173.342 381.874 193.122 389.885C206.814 395.43 215.441 370.324 207.143 362.772Z" fill="white" fill-opacity="0.2"/>
<path opacity="0.5" d="M486.641 304.418C479.856 305.816 476.671 336.497 498.148 332.718C513.015 330.101 499.068 306.106 486.641 304.418Z" fill="black" fill-opacity="0.12"/>
<path opacity="0.3" d="M80.4245 282.534C93.5169 289.513 101.27 272.21 103.992 261.796C104.793 258.733 101.585 256.827 98.2708 258.376C83.7368 265.17 70.5532 277.272 80.4245 282.534Z" fill="black" fill-opacity="0.12"/>
<path opacity="0.8" d="M393.198 400.647C375.693 404.053 376.7 381.827 379.173 370.019C379.826 366.899 383.408 365.995 385.784 368.314C397.97 380.21 406.346 398.089 393.198 400.647Z" fill="black" fill-opacity="0.12"/>
<path d="M540.277 288.251C556.142 280.745 549.602 267.65 537.293 259.671C533.181 257.005 528.349 261.001 528.82 265.728C530.167 279.244 529.536 293.333 540.277 288.251Z" fill="black" fill-opacity="0.12"/>
<path d="M236.702 419.152C219.24 417.707 223.899 401.998 235.344 389.02C238.978 384.899 245.279 386.994 245.463 391.764C246.015 406.093 248.576 420.135 236.702 419.152Z" fill="black" fill-opacity="0.12"/>
<path d="M448.93 404.072C458.63 401.392 456.383 393.962 449.847 387.544C446.039 383.806 440.053 386.872 440.599 391.548C441.504 399.296 442.377 405.882 448.93 404.072Z" fill="black" fill-opacity="0.12"/>
<path opacity="0.5" d="M129.861 359.722C146.799 365.82 151.585 343.84 152.203 330.977C152.386 327.171 148.277 325.453 144.803 327.854C129.525 338.412 117.078 355.121 129.861 359.722Z" fill="black" fill-opacity="0.12"/>
<path opacity="0.7" d="M425.758 198.497C431.783 195.978 460.884 216.792 442.376 225.24C429.564 231.087 418.44 206.224 425.758 198.497Z" fill="white" fill-opacity="0.2"/>
<path opacity="0.5" d="M368.727 243.344C373.757 242.956 385.553 262.598 369.833 264.255C358.951 265.402 360.849 246.862 368.727 243.344Z" fill="white" fill-opacity="0.2"/>
<path d="M296.394 278.67C301.258 279.602 304.018 301.507 288.63 299.017C277.978 297.293 287.552 280 296.394 278.67Z" fill="black" fill-opacity="0.12"/>
<path opacity="0.5" d="M345.1 403.523C338.065 403.413 324.266 432.099 346.31 433.068C361.57 433.738 356.5 407.793 345.1 403.523Z" fill="white" fill-opacity="0.2"/>
<path d="M311.627 30.9481C401.601 31.4589 522.704 95.1 511.146 183.612C508.759 201.897 493.634 211.178 483.269 228.029C473.905 243.251 470.033 266.257 454.158 278.915C433.566 295.335 409.57 289.916 383.981 297.6C360.725 304.584 336.154 325.431 311.627 325.199C285.192 324.949 258.809 303.038 234.177 294.408C212.274 286.733 191.757 293.216 173.821 278.915C155.689 264.456 150.551 239.158 140.913 221.477C132.772 206.543 118.914 199.548 116.833 183.612C105.537 97.0988 224.366 30.4527 311.627 30.9481Z" fill="black" fill-opacity="0.12"/>
<g filter="url(#filter22_i_1142_271034)">
<path d="M311.727 10.0021C397.893 10.492 513.869 87.766 502.801 172.65C500.515 190.186 486.031 199.086 476.104 215.246C467.136 229.844 463.428 251.907 448.226 264.047C428.505 279.794 405.524 274.597 381.019 281.966C358.748 288.664 335.216 308.656 311.727 308.434C286.412 308.194 261.145 287.181 237.556 278.905C216.58 271.545 196.931 277.762 179.755 264.047C162.39 250.181 157.469 225.919 148.239 208.963C140.443 194.642 127.172 187.932 125.179 172.65C114.361 89.6829 228.16 9.52701 311.727 10.0021Z" fill="#65A30D"/>
</g>
<path opacity="0.5" d="M463.507 149.818C457.694 150.992 455.134 177.24 473.539 174.076C486.279 171.886 474.177 151.304 463.507 149.818Z" fill="black" fill-opacity="0.12"/>
<path opacity="0.3" d="M152.043 175.259C166.629 182.664 175.086 163.962 177.89 153.213C178.661 150.256 175.504 148.441 172.158 149.886C156.02 156.856 141.073 169.69 152.043 175.259Z" fill="black" fill-opacity="0.12"/>
<path opacity="0.8" d="M428.279 235.782C410.806 238.956 411.935 218.52 414.46 207.695C415.145 204.756 418.53 203.904 420.896 206.019C433.06 216.894 441.441 233.391 428.279 235.782Z" fill="black" fill-opacity="0.12"/>
<path opacity="0.5" d="M321.212 164.727C325.591 164.442 336.296 182.11 322.62 183.394C313.154 184.283 314.416 167.767 321.212 164.727Z" fill="white" fill-opacity="0.2"/>
<path d="M215.386 217.035C219.601 217.819 221.933 236.416 208.597 234.326C199.366 232.879 207.715 218.178 215.386 217.035Z" fill="black" fill-opacity="0.12"/>
<path opacity="0.5" d="M298.027 235.896C291.986 235.834 279.903 260.405 298.828 261.129C311.928 261.63 307.784 239.49 298.027 235.896Z" fill="white" fill-opacity="0.2"/>
<g filter="url(#filter23_i_1142_271034)">
<path d="M530.344 353.018C621.493 353.565 740.909 452.354 729.201 547.226C726.856 566.228 704.712 576.572 694.77 594.156C685.194 611.093 688.094 635.353 671.469 649.378C653.484 664.551 632.936 659.47 611 667.684C585.383 677.276 557.873 698.898 530.344 698.998C504.036 699.094 485.71 678.081 461 669.508C437.165 661.239 406.834 665.712 387.473 649.378C370.848 635.353 365.748 611.093 356.172 594.156C346.229 576.572 332.086 566.228 329.741 547.226C318.297 454.497 441.944 352.487 530.344 353.018Z" fill="#65A30D"/>
</g>
<path opacity="0.2" d="M612.914 432.176C612.321 436.637 609.683 454.382 622.148 448.707C630.776 444.778 623.802 437.23 612.914 432.176Z" fill="white" fill-opacity="0.2"/>
<path opacity="0.5" d="M617.214 475.594C616.12 481.835 611.365 506.657 629.752 498.754C642.48 493.284 632.753 482.701 617.214 475.594Z" fill="black" fill-opacity="0.12"/>
<path opacity="0.5" d="M446.915 522.271C452.774 523.625 455.541 553.288 436.994 549.626C424.155 547.091 436.186 523.899 446.915 522.271Z" fill="black" fill-opacity="0.12"/>
<path opacity="0.3" d="M686.458 542.704C672.884 550.86 664.798 530.308 662.007 518.201C661.241 514.882 664.586 512.732 667.833 514.445C682.896 522.389 696.643 536.585 686.458 542.704Z" fill="black" fill-opacity="0.12"/>
<path d="M383.483 566.167C368.266 564.677 370.334 550.308 378.66 538.068C381.637 533.691 388.064 535.919 388.776 540.942C390.68 554.374 393.82 567.179 383.483 566.167Z" fill="black" fill-opacity="0.12"/>
<path d="M596.533 654.959C611.309 650.336 605.643 636.744 594.291 626.553C590.286 622.957 584.446 626.447 584.984 631.43C586.441 644.93 586.492 658.1 596.533 654.959Z" fill="black" fill-opacity="0.12"/>
<path d="M436.122 642.496C428.149 639.971 429.259 633.597 434.027 627.84C437.375 623.797 443.435 627.114 442.991 632.046C442.382 638.799 441.496 644.198 436.122 642.496Z" fill="black" fill-opacity="0.12"/>
<path opacity="0.5" d="M660.679 626.297C645.593 632.27 641.553 612.103 641.106 599.646C640.964 595.677 645.151 593.791 648.494 596.312C661.746 606.303 672.096 621.777 660.679 626.297Z" fill="black" fill-opacity="0.12"/>
<path opacity="0.7" d="M454.906 442.219C449.573 439.683 424.377 459.713 440.769 468.194C452.116 474.065 461.461 449.865 454.906 442.219Z" fill="white" fill-opacity="0.2"/>
<path opacity="0.5" d="M505.411 486.078C500.938 485.694 490.408 505.486 504.384 507.132C514.059 508.272 512.409 489.609 505.411 486.078Z" fill="white" fill-opacity="0.2"/>
<path d="M568.17 520.426C564.147 521.306 561.914 542.152 574.641 539.805C583.451 538.181 575.489 521.706 568.17 520.426Z" fill="black" fill-opacity="0.12"/>
<path opacity="0.5" d="M537.946 600.293C544.017 600.184 555.912 627.957 536.891 628.901C523.724 629.554 528.108 604.43 537.946 600.293Z" fill="white" fill-opacity="0.2"/>
<path d="M527.153 341.486C597.164 341.915 691.394 401.154 682.401 475.44C680.737 489.187 671.298 501.66 667.871 514.504C664.016 528.95 665.561 543.576 651.784 555.425C636.226 568.806 617.255 569.988 596.635 576.457C574.639 583.357 550.765 595.067 527.153 594.102C503.946 593.153 480.992 579.662 460.324 571.114C445.414 564.947 431.694 565.546 419.926 555.425C406.149 543.576 403.847 528.95 396.372 514.504C389.727 501.66 377.247 489.187 375.583 475.44C366.793 402.831 459.255 341.071 527.153 341.486Z" fill="black" fill-opacity="0.12"/>
<g filter="url(#filter24_i_1142_271034)">
<path d="M527.225 331.002C594.508 331.413 685.067 396.293 676.425 467.562C674.825 480.751 665.754 492.718 662.46 505.04C658.756 518.9 660.24 532.932 647 544.3C632.048 557.137 613.817 558.271 594 564.477C572.86 571.097 549.917 582.332 527.225 581.406C504.922 580.495 482.863 567.552 463 559.351C448.671 553.435 435.485 554.01 424.176 544.3C410.935 532.932 408.723 518.9 401.54 505.04C395.153 492.718 383.16 480.751 381.56 467.562C373.113 397.902 461.972 330.603 527.225 331.002Z" fill="#65A30D"/>
</g>
<path opacity="0.3" d="M651.864 429.707C637.375 438.075 628.443 416.279 625.381 403.791C624.579 400.522 627.946 398.436 631.268 400.133C647.569 408.459 662.715 423.44 651.864 429.707Z" fill="black" fill-opacity="0.12"/>
<path opacity="0.8" d="M462.031 522.324C479.512 525.888 478.411 503.011 475.888 490.826C475.227 487.635 471.572 486.697 469.214 489.083C457.139 501.305 448.915 519.649 462.031 522.324Z" fill="black" fill-opacity="0.12"/>
<path d="M412.062 468.017C401.071 464.71 404.034 455.708 411.677 448.33C415.495 444.644 421.362 447.912 420.911 452.722C420.041 462 419.499 470.254 412.062 468.017Z" fill="black" fill-opacity="0.12"/>
<path d="M598.492 448.073C594.16 448.99 591.811 470.91 605.518 468.469C615.006 466.779 606.382 449.434 598.492 448.073Z" fill="black" fill-opacity="0.12"/>
<path opacity="0.5" d="M565.622 482.867C572.022 482.781 584.731 511.556 564.68 512.449C550.8 513.067 555.273 487.103 565.622 482.867Z" fill="white" fill-opacity="0.2"/>
<g filter="url(#filter25_i_1142_271034)">
<path fill-rule="evenodd" clip-rule="evenodd" d="M123.03 501.359C117.403 504.122 119.386 507.812 122.147 513.451L153.603 591.024C166.217 616.787 189.077 634.296 212.384 650.978L246.916 675.694C255.23 680.191 260.014 668.59 260.012 662.675C260.01 654.738 260.01 656.156 255.22 650.674L220.69 631.661C200.445 617.171 180.194 608.483 169.238 586.105L130.495 507.232C127.734 501.593 128.656 498.597 123.03 501.359Z" fill="#9A7858"/>
</g>
<g filter="url(#filter26_i_1142_271034)">
<path d="M128.597 414.002C183.832 414.335 259.631 459.787 252.536 517.567C251.214 528.33 239.901 532.951 234.597 543C228.705 554.162 228.357 570.618 217.551 579.779C204.383 590.945 180.947 591.016 164.5 595.994C150.347 600.277 143.446 610.27 128.597 609.971C112.317 609.643 91.3673 593.829 76.268 587.994C63.3872 583.016 56.052 588.766 45.4534 579.779C34.648 570.617 34.2995 552.162 28.4077 541C23.1033 530.951 11.7903 528.33 10.4686 517.567C3.53381 461.092 75.0274 413.678 128.597 414.002Z" fill="#65A30D"/>
</g>
<path opacity="0.5" d="M68.8664 485.816C73.8055 486.71 76.0488 506.516 60.4125 504.104C49.5886 502.434 59.8096 486.923 68.8664 485.816Z" fill="black" fill-opacity="0.12"/>
<path opacity="0.3" d="M224.742 496.036C213.423 501.308 206.3 488.431 203.538 480.129C202.602 477.314 205.714 475.639 209.121 477.108C221.954 482.638 233.348 492.028 224.742 496.036Z" fill="black" fill-opacity="0.12"/>
<path opacity="0.8" d="M80.3578 562.87C94.0221 565.147 93.7146 551 91.8614 542.695C91.2395 539.909 88.048 539.109 85.7298 541.098C76.2043 549.268 69.9212 561.13 80.3578 562.87Z" fill="black" fill-opacity="0.12"/>
<path d="M206.841 556.763C218.119 554.13 214.642 546.104 206.364 539.376C202.13 535.933 196.207 538.692 196.914 543.043C198.25 551.259 199.214 558.544 206.841 556.763Z" fill="black" fill-opacity="0.12"/>
<path d="M163.635 498.471C160.231 499.072 158.477 513.656 169.249 512.064C176.706 510.962 169.847 499.396 163.635 498.471Z" fill="black" fill-opacity="0.12"/>
<path opacity="0.5" d="M157.885 547.579C163.016 547.519 173.167 565.984 157.088 566.573C145.958 566.98 149.581 550.307 157.885 547.579Z" fill="white" fill-opacity="0.2"/>
<rect opacity="0.5" width="7" height="28" rx="3.5" transform="matrix(-1 0 0 1 366 1010)" fill="black" fill-opacity="0.12"/>
<rect opacity="0.5" width="7" height="29" rx="3.5" transform="matrix(-0.993553 0.113369 0.113362 0.993554 338 850)" fill="black" fill-opacity="0.12"/>
<rect opacity="0.75" width="8" height="36" rx="4" transform="matrix(-0.98924 0.146301 0.146292 0.989242 351 801)" fill="black" fill-opacity="0.12"/>
<rect width="6" height="27" rx="3" transform="matrix(-0.98924 0.146301 0.146292 0.989242 359 890)" fill="white" fill-opacity="0.2"/>
<rect width="4" height="18" rx="2" transform="matrix(-0.829953 0.557833 0.557808 0.82997 273 695)" fill="white" fill-opacity="0.2"/>
<rect opacity="0.5" width="7" height="18" rx="3.5" transform="matrix(-0.915086 -0.403259 -0.403237 0.915096 274 561)" fill="white" fill-opacity="0.2"/>
<rect opacity="0.5" width="6" height="33" rx="3" transform="matrix(-0.849669 -0.527317 -0.527292 0.849684 398 931)" fill="white" fill-opacity="0.2"/>
<rect width="7" height="26" rx="3.5" transform="matrix(-0.99827 -0.0587924 -0.0587886 0.99827 348 1060)" fill="white" fill-opacity="0.2"/>
<rect width="4" height="22" rx="2" transform="matrix(-0.927938 -0.372736 -0.372715 0.927946 458 791)" fill="black" fill-opacity="0.12"/>
<rect width="5" height="17" rx="2.5" transform="matrix(0.870412 0.492323 0.492299 -0.870426 282 534)" fill="black" fill-opacity="0.12"/>
<defs>
<filter id="filter0_i_1142_271034" x="187.793" y="162.062" width="93.3252" height="877.223" filterUnits="userSpaceOnUse" color-interpolation-filters="sRGB">
<feFlood flood-opacity="0" result="BackgroundImageFix"/>
<feBlend mode="normal" in="SourceGraphic" in2="BackgroundImageFix" result="shape"/>
<feColorMatrix in="SourceAlpha" type="matrix" values="0 0 0 0 0 0 0 0 0 0 0 0 0 0 0 0 0 0 127 0" result="hardAlpha"/>
<feOffset dx="5" dy="-3"/>
<feGaussianBlur stdDeviation="2"/>
<feComposite in2="hardAlpha" operator="arithmetic" k2="-1" k3="1"/>
<feColorMatrix type="matrix" values="0 0 0 0 0 0 0 0 0 0 0 0 0 0 0 0 0 0 0.25 0"/>
<feBlend mode="normal" in2="shape" result="effect1_innerShadow_1142_271034"/>
</filter>
<filter id="filter1_i_1142_271034" x="183.576" y="170.445" width="108.862" height="856.129" filterUnits="userSpaceOnUse" color-interpolation-filters="sRGB">
<feFlood flood-opacity="0" result="BackgroundImageFix"/>
<feBlend mode="normal" in="SourceGraphic" in2="BackgroundImageFix" result="shape"/>
<feColorMatrix in="SourceAlpha" type="matrix" values="0 0 0 0 0 0 0 0 0 0 0 0 0 0 0 0 0 0 127 0" result="hardAlpha"/>
<feOffset dx="1" dy="-2"/>
<feGaussianBlur stdDeviation="1"/>
<feComposite in2="hardAlpha" operator="arithmetic" k2="-1" k3="1"/>
<feColorMatrix type="matrix" values="0 0 0 0 0 0 0 0 0 0 0 0 0 0 0 0 0 0 0.25 0"/>
<feBlend mode="normal" in2="shape" result="effect1_innerShadow_1142_271034"/>
</filter>
<filter id="filter2_i_1142_271034" x="253.79" y="470.285" width="42" height="33.8242" filterUnits="userSpaceOnUse" color-interpolation-filters="sRGB">
<feFlood flood-opacity="0" result="BackgroundImageFix"/>
<feBlend mode="normal" in="SourceGraphic" in2="BackgroundImageFix" result="shape"/>
<feColorMatrix in="SourceAlpha" type="matrix" values="0 0 0 0 0 0 0 0 0 0 0 0 0 0 0 0 0 0 127 0" result="hardAlpha"/>
<feOffset dx="8" dy="-8"/>
<feGaussianBlur stdDeviation="6"/>
<feComposite in2="hardAlpha" operator="arithmetic" k2="-1" k3="1"/>
<feColorMatrix type="matrix" values="0 0 0 0 0 0 0 0 0 0 0 0 0 0 0 0 0 0 0.25 0"/>
<feBlend mode="normal" in2="shape" result="effect1_innerShadow_1142_271034"/>
</filter>
<filter id="filter3_i_1142_271034" x="222.744" y="666.336" width="43.7407" height="31.1641" filterUnits="userSpaceOnUse" color-interpolation-filters="sRGB">
<feFlood flood-opacity="0" result="BackgroundImageFix"/>
<feBlend mode="normal" in="SourceGraphic" in2="BackgroundImageFix" result="shape"/>
<feColorMatrix in="SourceAlpha" type="matrix" values="0 0 0 0 0 0 0 0 0 0 0 0 0 0 0 0 0 0 127 0" result="hardAlpha"/>
<feOffset dx="8" dy="-8"/>
<feGaussianBlur stdDeviation="6"/>
<feComposite in2="hardAlpha" operator="arithmetic" k2="-1" k3="1"/>
<feColorMatrix type="matrix" values="0 0 0 0 0 0 0 0 0 0 0 0 0 0 0 0 0 0 0.25 0"/>
<feBlend mode="normal" in2="shape" result="effect1_innerShadow_1142_271034"/>
</filter>
<filter id="filter4_i_1142_271034" x="278.79" y="920.285" width="42" height="33.8242" filterUnits="userSpaceOnUse" color-interpolation-filters="sRGB">
<feFlood flood-opacity="0" result="BackgroundImageFix"/>
<feBlend mode="normal" in="SourceGraphic" in2="BackgroundImageFix" result="shape"/>
<feColorMatrix in="SourceAlpha" type="matrix" values="0 0 0 0 0 0 0 0 0 0 0 0 0 0 0 0 0 0 127 0" result="hardAlpha"/>
<feOffset dx="8" dy="-8"/>
<feGaussianBlur stdDeviation="6"/>
<feComposite in2="hardAlpha" operator="arithmetic" k2="-1" k3="1"/>
<feColorMatrix type="matrix" values="0 0 0 0 0 0 0 0 0 0 0 0 0 0 0 0 0 0 0.25 0"/>
<feBlend mode="normal" in2="shape" result="effect1_innerShadow_1142_271034"/>
</filter>
<filter id="filter5_i_1142_271034" x="239.839" y="996.758" width="42" height="29.8242" filterUnits="userSpaceOnUse" color-interpolation-filters="sRGB">
<feFlood flood-opacity="0" result="BackgroundImageFix"/>
<feBlend mode="normal" in="SourceGraphic" in2="BackgroundImageFix" result="shape"/>
<feColorMatrix in="SourceAlpha" type="matrix" values="0 0 0 0 0 0 0 0 0 0 0 0 0 0 0 0 0 0 127 0" result="hardAlpha"/>
<feOffset dx="-8" dy="-4"/>
<feGaussianBlur stdDeviation="6"/>
<feComposite in2="hardAlpha" operator="arithmetic" k2="-1" k3="1"/>
<feColorMatrix type="matrix" values="0 0 0 0 0 0 0 0 0 0 0 0 0 0 0 0 0 0 0.25 0"/>
<feBlend mode="normal" in2="shape" result="effect1_innerShadow_1142_271034"/>
</filter>
<filter id="filter6_i_1142_271034" x="208.538" y="606.953" width="42" height="29.8242" filterUnits="userSpaceOnUse" color-interpolation-filters="sRGB">
<feFlood flood-opacity="0" result="BackgroundImageFix"/>
<feBlend mode="normal" in="SourceGraphic" in2="BackgroundImageFix" result="shape"/>
<feColorMatrix in="SourceAlpha" type="matrix" values="0 0 0 0 0 0 0 0 0 0 0 0 0 0 0 0 0 0 127 0" result="hardAlpha"/>
<feOffset dx="-8" dy="-4"/>
<feGaussianBlur stdDeviation="6"/>
<feComposite in2="hardAlpha" operator="arithmetic" k2="-1" k3="1"/>
<feColorMatrix type="matrix" values="0 0 0 0 0 0 0 0 0 0 0 0 0 0 0 0 0 0 0.25 0"/>
<feBlend mode="normal" in2="shape" result="effect1_innerShadow_1142_271034"/>
</filter>
<filter id="filter7_i_1142_271034" x="192.79" y="821.285" width="42" height="29.8242" filterUnits="userSpaceOnUse" color-interpolation-filters="sRGB">
<feFlood flood-opacity="0" result="BackgroundImageFix"/>
<feBlend mode="normal" in="SourceGraphic" in2="BackgroundImageFix" result="shape"/>
<feColorMatrix in="SourceAlpha" type="matrix" values="0 0 0 0 0 0 0 0 0 0 0 0 0 0 0 0 0 0 127 0" result="hardAlpha"/>
<feOffset dx="-8" dy="-4"/>
<feGaussianBlur stdDeviation="6"/>
<feComposite in2="hardAlpha" operator="arithmetic" k2="-1" k3="1"/>
<feColorMatrix type="matrix" values="0 0 0 0 0 0 0 0 0 0 0 0 0 0 0 0 0 0 0.25 0"/>
<feBlend mode="normal" in2="shape" result="effect1_innerShadow_1142_271034"/>
</filter>
<filter id="filter8_i_1142_271034" x="549.958" y="429.78" width="39.7587" height="606.103" filterUnits="userSpaceOnUse" color-interpolation-filters="sRGB">
<feFlood flood-opacity="0" result="BackgroundImageFix"/>
<feBlend mode="normal" in="SourceGraphic" in2="BackgroundImageFix" result="shape"/>
<feColorMatrix in="SourceAlpha" type="matrix" values="0 0 0 0 0 0 0 0 0 0 0 0 0 0 0 0 0 0 127 0" result="hardAlpha"/>
<feOffset dx="3.44589" dy="-2.06754"/>
<feGaussianBlur stdDeviation="1.37836"/>
<feComposite in2="hardAlpha" operator="arithmetic" k2="-1" k3="1"/>
<feColorMatrix type="matrix" values="0 0 0 0 0 0 0 0 0 0 0 0 0 0 0 0 0 0 0.25 0"/>
<feBlend mode="normal" in2="shape" result="effect1_innerShadow_1142_271034"/>
</filter>
<filter id="filter9_i_1142_271034" x="539.693" y="435.368" width="50.9489" height="592.277" filterUnits="userSpaceOnUse" color-interpolation-filters="sRGB">
<feFlood flood-opacity="0" result="BackgroundImageFix"/>
<feBlend mode="normal" in="SourceGraphic" in2="BackgroundImageFix" result="shape"/>
<feColorMatrix in="SourceAlpha" type="matrix" values="0 0 0 0 0 0 0 0 0 0 0 0 0 0 0 0 0 0 127 0" result="hardAlpha"/>
<feOffset dx="0.689179" dy="-1.37836"/>
<feGaussianBlur stdDeviation="0.689179"/>
<feComposite in2="hardAlpha" operator="arithmetic" k2="-1" k3="1"/>
<feColorMatrix type="matrix" values="0 0 0 0 0 0 0 0 0 0 0 0 0 0 0 0 0 0 0.25 0"/>
<feBlend mode="normal" in2="shape" result="effect1_innerShadow_1142_271034"/>
</filter>
<filter id="filter10_i_1142_271034" x="527.636" y="644.346" width="29.28" height="22.8572" filterUnits="userSpaceOnUse" color-interpolation-filters="sRGB">
<feFlood flood-opacity="0" result="BackgroundImageFix"/>
<feBlend mode="normal" in="SourceGraphic" in2="BackgroundImageFix" result="shape"/>
<feColorMatrix in="SourceAlpha" type="matrix" values="0 0 0 0 0 0 0 0 0 0 0 0 0 0 0 0 0 0 127 0" result="hardAlpha"/>
<feOffset dx="5.51343" dy="-5.51343"/>
<feGaussianBlur stdDeviation="4.13507"/>
<feComposite in2="hardAlpha" operator="arithmetic" k2="-1" k3="1"/>
<feColorMatrix type="matrix" values="0 0 0 0 0 0 0 0 0 0 0 0 0 0 0 0 0 0 0.25 0"/>
<feBlend mode="normal" in2="shape" result="effect1_innerShadow_1142_271034"/>
</filter>
<filter id="filter11_i_1142_271034" x="553.772" y="778.467" width="30.3596" height="21.5369" filterUnits="userSpaceOnUse" color-interpolation-filters="sRGB">
<feFlood flood-opacity="0" result="BackgroundImageFix"/>
<feBlend mode="normal" in="SourceGraphic" in2="BackgroundImageFix" result="shape"/>
<feColorMatrix in="SourceAlpha" type="matrix" values="0 0 0 0 0 0 0 0 0 0 0 0 0 0 0 0 0 0 127 0" result="hardAlpha"/>
<feOffset dx="5.51343" dy="-5.51343"/>
<feGaussianBlur stdDeviation="4.13507"/>
<feComposite in2="hardAlpha" operator="arithmetic" k2="-1" k3="1"/>
<feColorMatrix type="matrix" values="0 0 0 0 0 0 0 0 0 0 0 0 0 0 0 0 0 0 0.25 0"/>
<feBlend mode="normal" in2="shape" result="effect1_innerShadow_1142_271034"/>
</filter>
<filter id="filter12_i_1142_271034" x="523.99" y="954.932" width="29.28" height="22.8572" filterUnits="userSpaceOnUse" color-interpolation-filters="sRGB">
<feFlood flood-opacity="0" result="BackgroundImageFix"/>
<feBlend mode="normal" in="SourceGraphic" in2="BackgroundImageFix" result="shape"/>
<feColorMatrix in="SourceAlpha" type="matrix" values="0 0 0 0 0 0 0 0 0 0 0 0 0 0 0 0 0 0 127 0" result="hardAlpha"/>
<feOffset dx="5.51343" dy="-5.51343"/>
<feGaussianBlur stdDeviation="4.13507"/>
<feComposite in2="hardAlpha" operator="arithmetic" k2="-1" k3="1"/>
<feColorMatrix type="matrix" values="0 0 0 0 0 0 0 0 0 0 0 0 0 0 0 0 0 0 0.25 0"/>
<feBlend mode="normal" in2="shape" result="effect1_innerShadow_1142_271034"/>
</filter>
<filter id="filter13_i_1142_271034" x="542.319" y="1006.66" width="28.5872" height="20.9794" filterUnits="userSpaceOnUse" color-interpolation-filters="sRGB">
<feFlood flood-opacity="0" result="BackgroundImageFix"/>
<feBlend mode="normal" in="SourceGraphic" in2="BackgroundImageFix" result="shape"/>
<feColorMatrix in="SourceAlpha" type="matrix" values="0 0 0 0 0 0 0 0 0 0 0 0 0 0 0 0 0 0 127 0" result="hardAlpha"/>
<feOffset dx="-5.51343" dy="-2.75672"/>
<feGaussianBlur stdDeviation="4.13507"/>
<feComposite in2="hardAlpha" operator="arithmetic" k2="-1" k3="1"/>
<feColorMatrix type="matrix" values="0 0 0 0 0 0 0 0 0 0 0 0 0 0 0 0 0 0 0.25 0"/>
<feBlend mode="normal" in2="shape" result="effect1_innerShadow_1142_271034"/>
</filter>
<filter id="filter14_i_1142_271034" x="552.118" y="737.31" width="28.5872" height="20.9989" filterUnits="userSpaceOnUse" color-interpolation-filters="sRGB">
<feFlood flood-opacity="0" result="BackgroundImageFix"/>
<feBlend mode="normal" in="SourceGraphic" in2="BackgroundImageFix" result="shape"/>
<feColorMatrix in="SourceAlpha" type="matrix" values="0 0 0 0 0 0 0 0 0 0 0 0 0 0 0 0 0 0 127 0" result="hardAlpha"/>
<feOffset dx="-5.51343" dy="-2.75672"/>
<feGaussianBlur stdDeviation="4.13507"/>
<feComposite in2="hardAlpha" operator="arithmetic" k2="-1" k3="1"/>
<feColorMatrix type="matrix" values="0 0 0 0 0 0 0 0 0 0 0 0 0 0 0 0 0 0 0.25 0"/>
<feBlend mode="normal" in2="shape" result="effect1_innerShadow_1142_271034"/>
</filter>
<filter id="filter15_i_1142_271034" x="569.423" y="884.403" width="28.5872" height="20.9989" filterUnits="userSpaceOnUse" color-interpolation-filters="sRGB">
<feFlood flood-opacity="0" result="BackgroundImageFix"/>
<feBlend mode="normal" in="SourceGraphic" in2="BackgroundImageFix" result="shape"/>
<feColorMatrix in="SourceAlpha" type="matrix" values="0 0 0 0 0 0 0 0 0 0 0 0 0 0 0 0 0 0 127 0" result="hardAlpha"/>
<feOffset dx="-5.51343" dy="-2.75672"/>
<feGaussianBlur stdDeviation="4.13507"/>
<feComposite in2="hardAlpha" operator="arithmetic" k2="-1" k3="1"/>
<feColorMatrix type="matrix" values="0 0 0 0 0 0 0 0 0 0 0 0 0 0 0 0 0 0 0.25 0"/>
<feBlend mode="normal" in2="shape" result="effect1_innerShadow_1142_271034"/>
</filter>
<filter id="filter16_i_1142_271034" x="225" y="384" width="88" height="142" filterUnits="userSpaceOnUse" color-interpolation-filters="sRGB">
<feFlood flood-opacity="0" result="BackgroundImageFix"/>
<feBlend mode="normal" in="SourceGraphic" in2="BackgroundImageFix" result="shape"/>
<feColorMatrix in="SourceAlpha" type="matrix" values="0 0 0 0 0 0 0 0 0 0 0 0 0 0 0 0 0 0 127 0" result="hardAlpha"/>
<feOffset dx="16" dy="4"/>
<feGaussianBlur stdDeviation="10"/>
<feComposite in2="hardAlpha" operator="arithmetic" k2="-1" k3="1"/>
<feColorMatrix type="matrix" values="0 0 0 0 0 0 0 0 0 0 0 0 0 0 0 0 0 0 0.25 0"/>
<feBlend mode="normal" in2="shape" result="effect1_innerShadow_1142_271034"/>
</filter>
<filter id="filter17_i_1142_271034" x="243" y="355" width="172.342" height="765" filterUnits="userSpaceOnUse" color-interpolation-filters="sRGB">
<feFlood flood-opacity="0" result="BackgroundImageFix"/>
<feBlend mode="normal" in="SourceGraphic" in2="BackgroundImageFix" result="shape"/>
<feColorMatrix in="SourceAlpha" type="matrix" values="0 0 0 0 0 0 0 0 0 0 0 0 0 0 0 0 0 0 127 0" result="hardAlpha"/>
<feOffset dx="16" dy="4"/>
<feGaussianBlur stdDeviation="10"/>
<feComposite in2="hardAlpha" operator="arithmetic" k2="-1" k3="1"/>
<feColorMatrix type="matrix" values="0 0 0 0 0 0 0 0 0 0 0 0 0 0 0 0 0 0 0.25 0"/>
<feBlend mode="normal" in2="shape" result="effect1_innerShadow_1142_271034"/>
</filter>
<filter id="filter18_i_1142_271034" x="415" y="548" width="57" height="259" filterUnits="userSpaceOnUse" color-interpolation-filters="sRGB">
<feFlood flood-opacity="0" result="BackgroundImageFix"/>
<feBlend mode="normal" in="SourceGraphic" in2="BackgroundImageFix" result="shape"/>
<feColorMatrix in="SourceAlpha" type="matrix" values="0 0 0 0 0 0 0 0 0 0 0 0 0 0 0 0 0 0 127 0" result="hardAlpha"/>
<feOffset dx="16" dy="4"/>
<feGaussianBlur stdDeviation="10"/>
<feComposite in2="hardAlpha" operator="arithmetic" k2="-1" k3="1"/>
<feColorMatrix type="matrix" values="0 0 0 0 0 0 0 0 0 0 0 0 0 0 0 0 0 0 0.25 0"/>
<feBlend mode="normal" in2="shape" result="effect1_innerShadow_1142_271034"/>
</filter>
<filter id="filter19_i_1142_271034" x="352.501" y="433.648" width="261.202" height="556.332" filterUnits="userSpaceOnUse" color-interpolation-filters="sRGB">
<feFlood flood-opacity="0" result="BackgroundImageFix"/>
<feBlend mode="normal" in="SourceGraphic" in2="BackgroundImageFix" result="shape"/>
<feColorMatrix in="SourceAlpha" type="matrix" values="0 0 0 0 0 0 0 0 0 0 0 0 0 0 0 0 0 0 127 0" result="hardAlpha"/>
<feOffset dx="16" dy="4"/>
<feGaussianBlur stdDeviation="10"/>
<feComposite in2="hardAlpha" operator="arithmetic" k2="-1" k3="1"/>
<feColorMatrix type="matrix" values="0 0 0 0 0 0 0 0 0 0 0 0 0 0 0 0 0 0 0.25 0"/>
<feBlend mode="normal" in2="shape" result="effect1_innerShadow_1142_271034"/>
</filter>
<filter id="filter20_i_1142_271034" x="480.841" y="618.566" width="137.523" height="146.57" filterUnits="userSpaceOnUse" color-interpolation-filters="sRGB">
<feFlood flood-opacity="0" result="BackgroundImageFix"/>
<feBlend mode="normal" in="SourceGraphic" in2="BackgroundImageFix" result="shape"/>
<feColorMatrix in="SourceAlpha" type="matrix" values="0 0 0 0 0 0 0 0 0 0 0 0 0 0 0 0 0 0 127 0" result="hardAlpha"/>
<feOffset dx="16" dy="4"/>
<feGaussianBlur stdDeviation="10"/>
<feComposite in2="hardAlpha" operator="arithmetic" k2="-1" k3="1"/>
<feColorMatrix type="matrix" values="0 0 0 0 0 0 0 0 0 0 0 0 0 0 0 0 0 0 0.25 0"/>
<feBlend mode="normal" in2="shape" result="effect1_innerShadow_1142_271034"/>
</filter>
<filter id="filter21_i_1142_271034" x="59.5366" y="-5.63281" width="508.926" height="483.633" filterUnits="userSpaceOnUse" color-interpolation-filters="sRGB">
<feFlood flood-opacity="0" result="BackgroundImageFix"/>
<feBlend mode="normal" in="SourceGraphic" in2="BackgroundImageFix" result="shape"/>
<feColorMatrix in="SourceAlpha" type="matrix" values="0 0 0 0 0 0 0 0 0 0 0 0 0 0 0 0 0 0 127 0" result="hardAlpha"/>
<feOffset dy="-70"/>
<feGaussianBlur stdDeviation="41"/>
<feComposite in2="hardAlpha" operator="arithmetic" k2="-1" k3="1"/>
<feColorMatrix type="matrix" values="0 0 0 0 0 0 0 0 0 0 0 0 0 0 0 0 0 0 0.25 0"/>
<feBlend mode="normal" in2="shape" result="effect1_innerShadow_1142_271034"/>
</filter>
<filter id="filter22_i_1142_271034" x="124.461" y="-60" width="379.077" height="368.434" filterUnits="userSpaceOnUse" color-interpolation-filters="sRGB">
<feFlood flood-opacity="0" result="BackgroundImageFix"/>
<feBlend mode="normal" in="SourceGraphic" in2="BackgroundImageFix" result="shape"/>
<feColorMatrix in="SourceAlpha" type="matrix" values="0 0 0 0 0 0 0 0 0 0 0 0 0 0 0 0 0 0 127 0" result="hardAlpha"/>
<feOffset dy="-70"/>
<feGaussianBlur stdDeviation="41"/>
<feComposite in2="hardAlpha" operator="arithmetic" k2="-1" k3="1"/>
<feColorMatrix type="matrix" values="0 0 0 0 0 0 0 0 0 0 0 0 0 0 0 0 0 0 0.25 0"/>
<feBlend mode="normal" in2="shape" result="effect1_innerShadow_1142_271034"/>
</filter>
<filter id="filter23_i_1142_271034" x="329" y="283.016" width="401" height="415.984" filterUnits="userSpaceOnUse" color-interpolation-filters="sRGB">
<feFlood flood-opacity="0" result="BackgroundImageFix"/>
<feBlend mode="normal" in="SourceGraphic" in2="BackgroundImageFix" result="shape"/>
<feColorMatrix in="SourceAlpha" type="matrix" values="0 0 0 0 0 0 0 0 0 0 0 0 0 0 0 0 0 0 127 0" result="hardAlpha"/>
<feOffset dy="-70"/>
<feGaussianBlur stdDeviation="41"/>
<feComposite in2="hardAlpha" operator="arithmetic" k2="-1" k3="1"/>
<feColorMatrix type="matrix" values="0 0 0 0 0 0 0 0 0 0 0 0 0 0 0 0 0 0 0.25 0"/>
<feBlend mode="normal" in2="shape" result="effect1_innerShadow_1142_271034"/>
</filter>
<filter id="filter24_i_1142_271034" x="381" y="261" width="296" height="320.461" filterUnits="userSpaceOnUse" color-interpolation-filters="sRGB">
<feFlood flood-opacity="0" result="BackgroundImageFix"/>
<feBlend mode="normal" in="SourceGraphic" in2="BackgroundImageFix" result="shape"/>
<feColorMatrix in="SourceAlpha" type="matrix" values="0 0 0 0 0 0 0 0 0 0 0 0 0 0 0 0 0 0 127 0" result="hardAlpha"/>
<feOffset dy="-70"/>
<feGaussianBlur stdDeviation="41"/>
<feComposite in2="hardAlpha" operator="arithmetic" k2="-1" k3="1"/>
<feColorMatrix type="matrix" values="0 0 0 0 0 0 0 0 0 0 0 0 0 0 0 0 0 0 0.25 0"/>
<feBlend mode="normal" in2="shape" result="effect1_innerShadow_1142_271034"/>
</filter>
<filter id="filter25_i_1142_271034" x="119.43" y="500.316" width="156.583" height="180.391" filterUnits="userSpaceOnUse" color-interpolation-filters="sRGB">
<feFlood flood-opacity="0" result="BackgroundImageFix"/>
<feBlend mode="normal" in="SourceGraphic" in2="BackgroundImageFix" result="shape"/>
<feColorMatrix in="SourceAlpha" type="matrix" values="0 0 0 0 0 0 0 0 0 0 0 0 0 0 0 0 0 0 127 0" result="hardAlpha"/>
<feOffset dx="16" dy="4"/>
<feGaussianBlur stdDeviation="10"/>
<feComposite in2="hardAlpha" operator="arithmetic" k2="-1" k3="1"/>
<feColorMatrix type="matrix" values="0 0 0 0 0 0 0 0 0 0 0 0 0 0 0 0 0 0 0.25 0"/>
<feBlend mode="normal" in2="shape" result="effect1_innerShadow_1142_271034"/>
</filter>
<filter id="filter26_i_1142_271034" x="10" y="344" width="243" height="265.977" filterUnits="userSpaceOnUse" color-interpolation-filters="sRGB">
<feFlood flood-opacity="0" result="BackgroundImageFix"/>
<feBlend mode="normal" in="SourceGraphic" in2="BackgroundImageFix" result="shape"/>
<feColorMatrix in="SourceAlpha" type="matrix" values="0 0 0 0 0 0 0 0 0 0 0 0 0 0 0 0 0 0 127 0" result="hardAlpha"/>
<feOffset dy="-70"/>
<feGaussianBlur stdDeviation="41"/>
<feComposite in2="hardAlpha" operator="arithmetic" k2="-1" k3="1"/>
<feColorMatrix type="matrix" values="0 0 0 0 0 0 0 0 0 0 0 0 0 0 0 0 0 0 0.25 0"/>
<feBlend mode="normal" in2="shape" result="effect1_innerShadow_1142_271034"/>
</filter>
</defs>
</svg>
