<svg width="508" height="806" viewBox="0 0 508 806" fill="none" xmlns="http://www.w3.org/2000/svg">
<circle cx="113" cy="113" r="113" transform="matrix(-1 0 0 1 311.771 580)" fill="black" fill-opacity="0.12"/>
<circle cx="37" cy="37" r="37" transform="matrix(-1 0 0 1 238.771 652)" fill="black" fill-opacity="0.12"/>
<g filter="url(#filter0_ii_1142_269671)">
<path d="M273.624 159.098C267.158 150.161 259.95 150.989 251.024 157.479C181.991 292.828 169.109 497.019 170.179 672.628L170.367 686.809C170.591 703.687 184.33 717.258 201.194 717.258C218.203 717.258 231.986 703.463 231.985 686.438L231.985 671.628C220.825 530.177 211.491 367.459 263.876 183.2C272.801 176.71 280.089 168.035 273.624 159.098Z" fill="#854D0E"/>
</g>
<mask id="mask0_1142_269671" style="mask-type:alpha" maskUnits="userSpaceOnUse" x="170" y="152" width="107" height="567">
<path d="M273.624 159.096C267.158 150.159 259.95 150.987 251.025 157.477C179.958 296.813 168.4 509.105 170.309 688.066C170.493 705.253 184.526 718.999 201.699 718.999C220.069 719 234.519 703.349 233.051 685.02C221.48 540.474 209.83 373.3 263.876 183.198C272.802 176.708 280.09 168.033 273.624 159.096Z" fill="#854D0E"/>
</mask>
<g mask="url(#mask0_1142_269671)">
<path opacity="0.1" d="M223.386 662.5C214.879 666.863 212.502 667.657 213.886 670.5C215.27 673.343 214.879 676.863 223.386 672.501C231.892 668.138 235.79 655.593 234.406 652.75C228.684 641 231.892 658.137 223.386 662.5Z" fill="white"/>
<path opacity="0.1" d="M169.427 540.274C184.91 545.784 190.168 544.911 192.887 547.567C191.429 552.84 179.124 555.756 167.63 551.138C161.231 548.567 157.835 542.258 159.293 536.984C159.898 534.792 162.24 537.717 169.427 540.274Z" fill="white"/>
<path opacity="0.1" d="M197.227 607.883C213.658 607.568 212.511 602.616 215.994 604.141C216.493 609.589 210.26 615.167 197.876 614.907C190.981 614.763 181.326 611.555 180.827 606.107C180.619 603.842 189.6 608.029 197.227 607.883Z" fill="white"/>
<path opacity="0.1" d="M218.626 572.323C224.692 570.299 228.071 565.223 228.426 566.158C230.12 571.049 225.159 576.781 219.093 578.806C213.027 580.831 207.556 579.246 206.497 577.522C206.315 575.976 208.109 574.465 218.626 572.323Z" fill="white"/>
<path opacity="0.1" d="M175.575 643.802C182.457 646.545 189.384 643.802 188.109 647.513C185.715 654.477 179.281 651.854 172.399 649.111C165.517 646.367 162.971 645.685 165.364 638.721C167.758 631.757 168.693 641.059 175.575 643.802Z" fill="white"/>
<path opacity="0.1" d="M163.748 506.575C171.633 511.98 173.89 513.069 172.157 515.714C170.423 518.359 170.365 521.9 162.48 516.494C154.595 511.089 152.319 498.151 154.053 495.506C161.218 484.576 155.863 501.169 163.748 506.575Z" fill="white"/>
<path opacity="0.1" d="M232.766 392.177C216.71 395.679 211.605 394.147 208.571 396.437C209.348 401.853 221.184 406.305 233.171 403.181C239.845 401.442 244.013 395.614 243.235 390.199C242.912 387.947 240.219 390.551 232.766 392.177Z" fill="white"/>
<path opacity="0.1" d="M196.619 455.711C180.361 453.316 182.126 448.549 178.479 449.619C177.293 454.961 182.768 461.284 195.086 462.596C201.943 463.327 211.927 461.369 213.113 456.028C213.606 453.808 204.167 456.823 196.619 455.711Z" fill="white"/>
<path opacity="0.1" d="M179.9 417.728C174.14 414.95 171.432 409.488 170.961 410.37C168.66 415.007 172.855 421.322 178.615 424.099C184.376 426.876 190.003 425.998 191.273 424.422C191.649 422.912 190.061 421.185 179.9 417.728Z" fill="white"/>
<path opacity="0.1" d="M213.543 494.085C206.369 495.934 199.846 492.335 200.641 496.177C202.132 503.389 208.847 501.602 216.021 499.754C223.195 497.905 225.807 497.551 224.316 490.34C222.825 483.129 220.718 492.237 213.543 494.085Z" fill="white"/>
</g>
<g filter="url(#filter1_ii_1142_269671)">
<path d="M263.758 67.9915C183.298 38.875 203.869 134.557 250.563 176.775C251.477 177.601 252.852 177.687 253.9 177.04C339.185 124.365 323.979 55.0683 267.299 68.2029C266.158 68.4672 264.858 68.3899 263.758 67.9915Z" fill="#16A34A"/>
</g>
<g filter="url(#filter2_df_1142_269671)">
<path d="M265.215 67.1193L250.851 174.51C257.105 172.272 253.978 173.391 256.75 175.817L266.708 67.2688C265.471 67.3468 266.253 67.5626 265.215 67.1193Z" fill="black" fill-opacity="0.12" shape-rendering="crispEdges"/>
</g>
<g filter="url(#filter3_ii_1142_269671)">
<path d="M406.743 112.601C335.211 47.2862 266.885 146.815 254.257 186.236C253.876 187.425 254.364 188.664 255.461 189.259C282.624 203.99 346.909 180.26 360.255 172.728C361.166 172.214 361.604 171.211 361.492 170.172L360.852 164.233C360.554 161.467 363.999 159.969 365.819 162.072L369.868 166.752C370.703 167.716 372.084 168.011 373.212 167.417C394.573 156.157 402.521 132.423 408.111 119.178C409.058 116.934 408.542 114.243 406.743 112.601Z" fill="#22C55E"/>
</g>
<g filter="url(#filter4_ii_1142_269671)">
<path d="M471.061 277.482C445.9 215.558 391.93 84.4369 261.876 168.695C260.023 169.895 259.744 172.583 261.424 173.625C285.869 188.798 334.42 225.708 365.759 272.391C367.258 274.624 371.12 273.154 371.128 270.293C371.134 268.298 371.073 266.225 370.888 264.046C370.606 260.725 375.255 258.059 376.732 260.889C382.108 271.192 387.446 283.539 392.215 296.036C393.119 298.406 396.775 298.069 397.832 295.516C402.077 285.259 407.739 269.977 403.915 253.763C406.971 265.33 438.606 291.106 467.157 285.028C470.503 284.316 472.29 280.507 471.061 277.482Z" fill="#22C55E"/>
</g>
<g filter="url(#filter5_ii_1142_269671)">
<path d="M364.13 425.93C429.603 281.905 357.42 196.048 260.623 174.142C259.226 173.826 257.831 174.594 257.423 175.967C254.774 184.891 246.643 217.223 259.625 241.266C260.608 243.086 263.151 243.052 264.405 241.406C268.823 235.609 273.313 233.062 277.549 232.163C279.941 231.655 281.027 234.542 279.378 236.348C254.778 263.294 260.293 296.134 270.488 322.778C285.97 353.819 317.939 398.005 355.698 428.053C358.499 430.282 362.648 429.189 364.13 425.93Z" fill="#22C55E"/>
</g>
<g filter="url(#filter6_ii_1142_269671)">
<path d="M115.025 80.8798C211.323 33.3267 245.757 136.204 251.525 177.904C251.775 179.711 250.229 181.219 248.421 180.976C219.554 177.1 195.837 168.328 176.668 157.295C139.952 136.165 119.917 106.743 112.314 87.5552C111.3 84.9972 112.558 82.0982 115.025 80.8798Z" fill="#16A34A"/>
</g>
<g filter="url(#filter7_df_1142_269671)">
<path d="M145.42 83.2604C210.799 94.0947 227.705 144.122 232.867 173.449L229.452 178.108C215.082 104.667 164.736 87.8142 145.42 83.2604Z" fill="black" fill-opacity="0.12" shape-rendering="crispEdges"/>
</g>
<g filter="url(#filter8_df_1142_269671)">
<path d="M384.383 179.062C326.788 138.621 281.315 158.855 258.332 174.165L256.832 179.092C315.503 141.801 366.491 167.993 384.383 179.062Z" fill="black" fill-opacity="0.12" shape-rendering="crispEdges"/>
</g>
<g filter="url(#filter9_ii_1142_269671)">
<path d="M248.778 188.186C165.845 54.4252 67.4329 179.876 36.6404 237.249C35.3655 239.625 35.8931 242.813 38.1939 244.196C54.143 253.779 82.84 239.602 94.975 232.955C96.5966 232.067 98.6218 233.289 98.5572 235.347C98.5136 236.735 98.3363 238.004 98.074 239.153C97.4325 241.962 99.8727 246.788 102.489 246.575C193.193 239.181 211.743 213.136 247.953 192.549C249.334 191.764 249.708 189.686 248.778 188.186Z" fill="#16A34A"/>
</g>
<g filter="url(#filter10_ii_1142_269671)">
<path d="M87.1829 391.891C59.0601 236.894 149.223 171.19 247.864 173.145C249.533 173.178 250.795 174.696 250.574 176.351C240.86 249.238 217.947 277.122 199.841 297.708C197.941 299.868 194.126 298.099 194.262 295.225C194.941 280.846 190.375 274.772 184.943 270.262C183.069 268.707 180.234 270.294 180.303 272.728C182.344 344.642 126.998 379.688 95.1299 395.917C91.8241 397.601 87.8452 395.541 87.1829 391.891Z" fill="#15803D"/>
</g>
<g filter="url(#filter11_ii_1142_269671)">
<path d="M250.185 173.751C144.113 110.99 153.411 379.892 226.189 428.113C227.029 428.669 228.068 428.692 228.95 428.206C326.775 374.333 356.503 133.221 255.866 174.169C254.099 174.888 251.827 174.722 250.185 173.751Z" fill="#22C55E"/>
</g>
<g filter="url(#filter12_df_1142_269671)">
<path d="M233.008 374.245L257.138 171.946C251.075 175.807 251.297 173.595 248.82 169.996L233.008 374.245Z" fill="black" fill-opacity="0.12" shape-rendering="crispEdges"/>
</g>
<defs>
<filter id="filter0_ii_1142_269671" x="154.12" y="144.5" width="137.972" height="595.758" filterUnits="userSpaceOnUse" color-interpolation-filters="sRGB">
<feFlood flood-opacity="0" result="BackgroundImageFix"/>
<feBlend mode="normal" in="SourceGraphic" in2="BackgroundImageFix" result="shape"/>
<feColorMatrix in="SourceAlpha" type="matrix" values="0 0 0 0 0 0 0 0 0 0 0 0 0 0 0 0 0 0 127 0" result="hardAlpha"/>
<feOffset dx="16" dy="-8"/>
<feGaussianBlur stdDeviation="12"/>
<feComposite in2="hardAlpha" operator="arithmetic" k2="-1" k3="1"/>
<feColorMatrix type="matrix" values="0 0 0 0 0 0 0 0 0 0 0 0 0 0 0 0 0 0 0.25 0"/>
<feBlend mode="normal" in2="shape" result="effect1_innerShadow_1142_269671"/>
<feColorMatrix in="SourceAlpha" type="matrix" values="0 0 0 0 0 0 0 0 0 0 0 0 0 0 0 0 0 0 127 0" result="hardAlpha"/>
<feOffset dx="-16" dy="24"/>
<feGaussianBlur stdDeviation="11.5"/>
<feComposite in2="hardAlpha" operator="arithmetic" k2="-1" k3="1"/>
<feColorMatrix type="matrix" values="0 0 0 0 1 0 0 0 0 1 0 0 0 0 1 0 0 0 0.25 0"/>
<feBlend mode="normal" in2="effect1_innerShadow_1142_269671" result="effect2_innerShadow_1142_269671"/>
</filter>
<filter id="filter1_ii_1142_269671" x="203.763" y="25.1703" width="136.126" height="172.162" filterUnits="userSpaceOnUse" color-interpolation-filters="sRGB">
<feFlood flood-opacity="0" result="BackgroundImageFix"/>
<feBlend mode="normal" in="SourceGraphic" in2="BackgroundImageFix" result="shape"/>
<feColorMatrix in="SourceAlpha" type="matrix" values="0 0 0 0 0 0 0 0 0 0 0 0 0 0 0 0 0 0 127 0" result="hardAlpha"/>
<feOffset dx="26.05" dy="-37.4"/>
<feGaussianBlur stdDeviation="25.445"/>
<feComposite in2="hardAlpha" operator="arithmetic" k2="-1" k3="1"/>
<feColorMatrix type="matrix" values="0 0 0 0 0 0 0 0 0 0 0 0 0 0 0 0 0 0 0.25 0"/>
<feBlend mode="normal" in2="shape" result="effect1_innerShadow_1142_269671"/>
<feColorMatrix in="SourceAlpha" type="matrix" values="0 0 0 0 0 0 0 0 0 0 0 0 0 0 0 0 0 0 127 0" result="hardAlpha"/>
<feOffset dx="-5.67537" dy="19.8638"/>
<feGaussianBlur stdDeviation="11.3507"/>
<feComposite in2="hardAlpha" operator="arithmetic" k2="-1" k3="1"/>
<feColorMatrix type="matrix" values="0 0 0 0 1 0 0 0 0 1 0 0 0 0 1 0 0 0 0.25 0"/>
<feBlend mode="normal" in2="effect1_innerShadow_1142_269671" result="effect2_innerShadow_1142_269671"/>
</filter>
<filter id="filter2_df_1142_269671" x="245.175" y="66.1211" width="27.2082" height="121.046" filterUnits="userSpaceOnUse" color-interpolation-filters="sRGB">
<feFlood flood-opacity="0" result="BackgroundImageFix"/>
<feColorMatrix in="SourceAlpha" type="matrix" values="0 0 0 0 0 0 0 0 0 0 0 0 0 0 0 0 0 0 127 0" result="hardAlpha"/>
<feOffset dy="5.67537"/>
<feGaussianBlur stdDeviation="2.83768"/>
<feComposite in2="hardAlpha" operator="out"/>
<feColorMatrix type="matrix" values="0 0 0 0 1 0 0 0 0 1 0 0 0 0 1 0 0 0 0.25 0"/>
<feBlend mode="normal" in2="BackgroundImageFix" result="effect1_dropShadow_1142_269671"/>
<feBlend mode="normal" in="SourceGraphic" in2="effect1_dropShadow_1142_269671" result="shape"/>
<feGaussianBlur stdDeviation="0.5" result="effect2_foregroundBlur_1142_269671"/>
</filter>
<filter id="filter3_ii_1142_269671" x="220.077" y="90.9453" width="245.254" height="125.741" filterUnits="userSpaceOnUse" color-interpolation-filters="sRGB">
<feFlood flood-opacity="0" result="BackgroundImageFix"/>
<feBlend mode="normal" in="SourceGraphic" in2="BackgroundImageFix" result="shape"/>
<feColorMatrix in="SourceAlpha" type="matrix" values="0 0 0 0 0 0 0 0 0 0 0 0 0 0 0 0 0 0 127 0" result="hardAlpha"/>
<feOffset dx="56.7537"/>
<feGaussianBlur stdDeviation="29.7957"/>
<feComposite in2="hardAlpha" operator="arithmetic" k2="-1" k3="1"/>
<feColorMatrix type="matrix" values="0 0 0 0 0 0 0 0 0 0 0 0 0 0 0 0 0 0 0.25 0"/>
<feBlend mode="normal" in2="shape" result="effect1_innerShadow_1142_269671"/>
<feColorMatrix in="SourceAlpha" type="matrix" values="0 0 0 0 0 0 0 0 0 0 0 0 0 0 0 0 0 0 127 0" result="hardAlpha"/>
<feOffset dx="-34.0522" dy="22.7015"/>
<feGaussianBlur stdDeviation="17.0261"/>
<feComposite in2="hardAlpha" operator="arithmetic" k2="-1" k3="1"/>
<feColorMatrix type="matrix" values="0 0 0 0 1 0 0 0 0 1 0 0 0 0 1 0 0 0 0.25 0"/>
<feBlend mode="normal" in2="effect1_innerShadow_1142_269671" result="effect2_innerShadow_1142_269671"/>
</filter>
<filter id="filter4_ii_1142_269671" x="235.911" y="101.813" width="259.539" height="202.523" filterUnits="userSpaceOnUse" color-interpolation-filters="sRGB">
<feFlood flood-opacity="0" result="BackgroundImageFix"/>
<feBlend mode="normal" in="SourceGraphic" in2="BackgroundImageFix" result="shape"/>
<feColorMatrix in="SourceAlpha" type="matrix" values="0 0 0 0 0 0 0 0 0 0 0 0 0 0 0 0 0 0 127 0" result="hardAlpha"/>
<feOffset dx="24" dy="-39.46"/>
<feGaussianBlur stdDeviation="29.7957"/>
<feComposite in2="hardAlpha" operator="arithmetic" k2="-1" k3="1"/>
<feColorMatrix type="matrix" values="0 0 0 0 0 0 0 0 0 0 0 0 0 0 0 0 0 0 0.25 0"/>
<feBlend mode="normal" in2="shape" result="effect1_innerShadow_1142_269671"/>
<feColorMatrix in="SourceAlpha" type="matrix" values="0 0 0 0 0 0 0 0 0 0 0 0 0 0 0 0 0 0 127 0" result="hardAlpha"/>
<feOffset dx="-24.4" dy="6.7"/>
<feGaussianBlur stdDeviation="17.0261"/>
<feComposite in2="hardAlpha" operator="arithmetic" k2="-1" k3="1"/>
<feColorMatrix type="matrix" values="0 0 0 0 1 0 0 0 0 1 0 0 0 0 1 0 0 0 0.25 0"/>
<feBlend mode="normal" in2="effect1_innerShadow_1142_269671" result="effect2_innerShadow_1142_269671"/>
</filter>
<filter id="filter5_ii_1142_269671" x="245.77" y="150.07" width="191.756" height="297.202" filterUnits="userSpaceOnUse" color-interpolation-filters="sRGB">
<feFlood flood-opacity="0" result="BackgroundImageFix"/>
<feBlend mode="normal" in="SourceGraphic" in2="BackgroundImageFix" result="shape"/>
<feColorMatrix in="SourceAlpha" type="matrix" values="0 0 0 0 0 0 0 0 0 0 0 0 0 0 0 0 0 0 127 0" result="hardAlpha"/>
<feOffset dx="61.31" dy="-24"/>
<feGaussianBlur stdDeviation="24.1203"/>
<feComposite in2="hardAlpha" operator="arithmetic" k2="-1" k3="1"/>
<feColorMatrix type="matrix" values="0 0 0 0 0 0 0 0 0 0 0 0 0 0 0 0 0 0 0.25 0"/>
<feBlend mode="normal" in2="shape" result="effect1_innerShadow_1142_269671"/>
<feColorMatrix in="SourceAlpha" type="matrix" values="0 0 0 0 0 0 0 0 0 0 0 0 0 0 0 0 0 0 127 0" result="hardAlpha"/>
<feOffset dx="-6.7" dy="18.05"/>
<feGaussianBlur stdDeviation="33.025"/>
<feComposite in2="hardAlpha" operator="arithmetic" k2="-1" k3="1"/>
<feColorMatrix type="matrix" values="0 0 0 0 1 0 0 0 0 1 0 0 0 0 1 0 0 0 0.25 0"/>
<feBlend mode="normal" in2="effect1_innerShadow_1142_269671" result="effect2_innerShadow_1142_269671"/>
</filter>
<filter id="filter6_ii_1142_269671" x="82.5619" y="23.1869" width="191.691" height="175.863" filterUnits="userSpaceOnUse" color-interpolation-filters="sRGB">
<feFlood flood-opacity="0" result="BackgroundImageFix"/>
<feBlend mode="normal" in="SourceGraphic" in2="BackgroundImageFix" result="shape"/>
<feColorMatrix in="SourceAlpha" type="matrix" values="0 0 0 0 0 0 0 0 0 0 0 0 0 0 0 0 0 0 127 0" result="hardAlpha"/>
<feOffset dx="22.7015" dy="-45.403"/>
<feGaussianBlur stdDeviation="29.7957"/>
<feComposite in2="hardAlpha" operator="arithmetic" k2="-1" k3="1"/>
<feColorMatrix type="matrix" values="0 0 0 0 0 0 0 0 0 0 0 0 0 0 0 0 0 0 0.25 0"/>
<feBlend mode="normal" in2="shape" result="effect1_innerShadow_1142_269671"/>
<feColorMatrix in="SourceAlpha" type="matrix" values="0 0 0 0 0 0 0 0 0 0 0 0 0 0 0 0 0 0 127 0" result="hardAlpha"/>
<feOffset dx="-29.4" dy="18.05"/>
<feGaussianBlur stdDeviation="17.0261"/>
<feComposite in2="hardAlpha" operator="arithmetic" k2="-1" k3="1"/>
<feColorMatrix type="matrix" values="0 0 0 0 1 0 0 0 0 1 0 0 0 0 1 0 0 0 0.25 0"/>
<feBlend mode="normal" in2="effect1_innerShadow_1142_269671" result="effect2_innerShadow_1142_269671"/>
</filter>
<filter id="filter7_df_1142_269671" x="139.745" y="82.2617" width="98.7975" height="107.198" filterUnits="userSpaceOnUse" color-interpolation-filters="sRGB">
<feFlood flood-opacity="0" result="BackgroundImageFix"/>
<feColorMatrix in="SourceAlpha" type="matrix" values="0 0 0 0 0 0 0 0 0 0 0 0 0 0 0 0 0 0 127 0" result="hardAlpha"/>
<feOffset dy="5.67537"/>
<feGaussianBlur stdDeviation="2.83768"/>
<feComposite in2="hardAlpha" operator="out"/>
<feColorMatrix type="matrix" values="0 0 0 0 1 0 0 0 0 1 0 0 0 0 1 0 0 0 0.25 0"/>
<feBlend mode="normal" in2="BackgroundImageFix" result="effect1_dropShadow_1142_269671"/>
<feBlend mode="normal" in="SourceGraphic" in2="effect1_dropShadow_1142_269671" result="shape"/>
<feGaussianBlur stdDeviation="0.5" result="effect2_foregroundBlur_1142_269671"/>
</filter>
<filter id="filter8_df_1142_269671" x="251.157" y="154.332" width="138.902" height="36.1125" filterUnits="userSpaceOnUse" color-interpolation-filters="sRGB">
<feFlood flood-opacity="0" result="BackgroundImageFix"/>
<feColorMatrix in="SourceAlpha" type="matrix" values="0 0 0 0 0 0 0 0 0 0 0 0 0 0 0 0 0 0 127 0" result="hardAlpha"/>
<feOffset dy="5.67537"/>
<feGaussianBlur stdDeviation="2.83768"/>
<feComposite in2="hardAlpha" operator="out"/>
<feColorMatrix type="matrix" values="0 0 0 0 1 0 0 0 0 1 0 0 0 0 1 0 0 0 0.25 0"/>
<feBlend mode="normal" in2="BackgroundImageFix" result="effect1_dropShadow_1142_269671"/>
<feBlend mode="normal" in="SourceGraphic" in2="effect1_dropShadow_1142_269671" result="shape"/>
<feGaussianBlur stdDeviation="0.5" result="effect2_foregroundBlur_1142_269671"/>
</filter>
<filter id="filter9_ii_1142_269671" x="13.2614" y="85.0819" width="279.619" height="173.691" filterUnits="userSpaceOnUse" color-interpolation-filters="sRGB">
<feFlood flood-opacity="0" result="BackgroundImageFix"/>
<feBlend mode="normal" in="SourceGraphic" in2="BackgroundImageFix" result="shape"/>
<feColorMatrix in="SourceAlpha" type="matrix" values="0 0 0 0 0 0 0 0 0 0 0 0 0 0 0 0 0 0 127 0" result="hardAlpha"/>
<feOffset dx="90.05" dy="-72.75"/>
<feGaussianBlur stdDeviation="21.795"/>
<feComposite in2="hardAlpha" operator="arithmetic" k2="-1" k3="1"/>
<feColorMatrix type="matrix" values="0 0 0 0 0 0 0 0 0 0 0 0 0 0 0 0 0 0 0.25 0"/>
<feBlend mode="normal" in2="shape" result="effect1_innerShadow_1142_269671"/>
<feColorMatrix in="SourceAlpha" type="matrix" values="0 0 0 0 0 0 0 0 0 0 0 0 0 0 0 0 0 0 127 0" result="hardAlpha"/>
<feOffset dx="-22.7015" dy="11.3507"/>
<feGaussianBlur stdDeviation="17.0261"/>
<feComposite in2="hardAlpha" operator="arithmetic" k2="-1" k3="1"/>
<feColorMatrix type="matrix" values="0 0 0 0 1 0 0 0 0 1 0 0 0 0 1 0 0 0 0.25 0"/>
<feBlend mode="normal" in2="effect1_innerShadow_1142_269671" result="effect2_innerShadow_1142_269671"/>
</filter>
<filter id="filter10_ii_1142_269671" x="70.6158" y="120.212" width="183.334" height="302.05" filterUnits="userSpaceOnUse" color-interpolation-filters="sRGB">
<feFlood flood-opacity="0" result="BackgroundImageFix"/>
<feBlend mode="normal" in="SourceGraphic" in2="BackgroundImageFix" result="shape"/>
<feColorMatrix in="SourceAlpha" type="matrix" values="0 0 0 0 0 0 0 0 0 0 0 0 0 0 0 0 0 0 127 0" result="hardAlpha"/>
<feOffset dx="3.35" dy="-72.12"/>
<feGaussianBlur stdDeviation="26.445"/>
<feComposite in2="hardAlpha" operator="arithmetic" k2="-1" k3="1"/>
<feColorMatrix type="matrix" values="0 0 0 0 0 0 0 0 0 0 0 0 0 0 0 0 0 0 0.15 0"/>
<feBlend mode="normal" in2="shape" result="effect1_innerShadow_1142_269671"/>
<feColorMatrix in="SourceAlpha" type="matrix" values="0 0 0 0 0 0 0 0 0 0 0 0 0 0 0 0 0 0 127 0" result="hardAlpha"/>
<feOffset dx="-11.3507" dy="25.75"/>
<feGaussianBlur stdDeviation="17.0261"/>
<feComposite in2="hardAlpha" operator="arithmetic" k2="-1" k3="1"/>
<feColorMatrix type="matrix" values="0 0 0 0 1 0 0 0 0 1 0 0 0 0 1 0 0 0 0.25 0"/>
<feBlend mode="normal" in2="effect1_innerShadow_1142_269671" result="effect2_innerShadow_1142_269671"/>
</filter>
<filter id="filter11_ii_1142_269671" x="148.303" y="130.256" width="204.074" height="332.347" filterUnits="userSpaceOnUse" color-interpolation-filters="sRGB">
<feFlood flood-opacity="0" result="BackgroundImageFix"/>
<feBlend mode="normal" in="SourceGraphic" in2="BackgroundImageFix" result="shape"/>
<feColorMatrix in="SourceAlpha" type="matrix" values="0 0 0 0 0 0 0 0 0 0 0 0 0 0 0 0 0 0 127 0" result="hardAlpha"/>
<feOffset dx="34.0522" dy="-34.0522"/>
<feGaussianBlur stdDeviation="29.7957"/>
<feComposite in2="hardAlpha" operator="arithmetic" k2="-1" k3="1"/>
<feColorMatrix type="matrix" values="0 0 0 0 0 0 0 0 0 0 0 0 0 0 0 0 0 0 0.25 0"/>
<feBlend mode="normal" in2="shape" result="effect1_innerShadow_1142_269671"/>
<feColorMatrix in="SourceAlpha" type="matrix" values="0 0 0 0 0 0 0 0 0 0 0 0 0 0 0 0 0 0 127 0" result="hardAlpha"/>
<feOffset dx="-22.7015" dy="34.0522"/>
<feGaussianBlur stdDeviation="17.0261"/>
<feComposite in2="hardAlpha" operator="arithmetic" k2="-1" k3="1"/>
<feColorMatrix type="matrix" values="0 0 0 0 1 0 0 0 0 1 0 0 0 0 1 0 0 0 0.25 0"/>
<feBlend mode="normal" in2="effect1_innerShadow_1142_269671" result="effect2_innerShadow_1142_269671"/>
</filter>
<filter id="filter12_df_1142_269671" x="227.332" y="168.996" width="35.4804" height="216.601" filterUnits="userSpaceOnUse" color-interpolation-filters="sRGB">
<feFlood flood-opacity="0" result="BackgroundImageFix"/>
<feColorMatrix in="SourceAlpha" type="matrix" values="0 0 0 0 0 0 0 0 0 0 0 0 0 0 0 0 0 0 127 0" result="hardAlpha"/>
<feOffset dy="5.67537"/>
<feGaussianBlur stdDeviation="2.83768"/>
<feComposite in2="hardAlpha" operator="out"/>
<feColorMatrix type="matrix" values="0 0 0 0 1 0 0 0 0 1 0 0 0 0 1 0 0 0 0.25 0"/>
<feBlend mode="normal" in2="BackgroundImageFix" result="effect1_dropShadow_1142_269671"/>
<feBlend mode="normal" in="SourceGraphic" in2="effect1_dropShadow_1142_269671" result="shape"/>
<feGaussianBlur stdDeviation="0.5" result="effect2_foregroundBlur_1142_269671"/>
</filter>
</defs>
</svg>
