<svg width="1008" height="964" viewBox="0 0 1008 964" fill="none" xmlns="http://www.w3.org/2000/svg">
<path d="M93 661L115 625L247 572L880.5 670L943 740L962 785L906 844L750 859L715 853L676 894L589 910L480 833L421 854L146 777L93 661Z" fill="black" fill-opacity="0.12"/>
<path d="M166 607V572L421 600L915 837L729 936L603 964L483 930L309 948L214 895L120 879L83 798L11 778L0 713L34 666L166 607Z" fill="black" fill-opacity="0.12"/>
<g filter="url(#filter0_i_1142_267074)">
<path d="M441 774L192.02 714.883L125.196 587.918L103 661.016L154.773 769.922L419.5 842.5L441 774Z" fill="#C8A078"/>
</g>
<path d="M608.546 682.74L590.733 614.646L520 736.999L422 770.999L419 842.999L540 800.999L608.546 682.74Z" fill="#C8A078"/>
<g filter="url(#filter1_i_1142_267074)">
<path d="M590.735 614.648L481.59 481L272.209 498.82L125.196 587.918L183.11 714.883L423.5 772L546 731L590.735 614.648Z" fill="#C8A078"/>
</g>
<g filter="url(#filter2_i_1142_267074)">
<path d="M571.319 205.16L687.511 10.6087L623.288 0L535.944 34.4783L571.319 205.16Z" fill="#C8A078"/>
</g>
<g filter="url(#filter3_i_1142_267074)">
<path d="M458.877 116.696L384 539L535.945 610L571.91 201.565L535.945 34.4785L458.877 116.696Z" fill="#C8A078"/>
</g>
<g filter="url(#filter4_d_1142_267074)">
<path d="M600.168 572.87L682.374 594.088L702.278 586.867L732.953 606.348L812 532.077L806.101 431.019L788.404 398.145L754.304 193.609L715.77 164.435L687.512 10.6094L613.793 125.41L571.91 201.566L535.945 610.001L600.168 572.87Z" fill="#C8A078"/>
</g>
<g filter="url(#filter5_i_1142_267074)">
<path d="M600.168 572.87L623.346 256.986L649.187 283.692L682.374 594.087L600.168 572.87Z" fill="#C8A078"/>
</g>
<g filter="url(#filter6_i_1142_267074)">
<path d="M672.208 552.848L661 397L689.315 456.661L702.293 572.329L672.208 552.848Z" fill="#C8A078"/>
</g>
<g filter="url(#filter7_i_1142_267074)">
<path d="M715.77 164.436L623.288 257.262L649.187 283.693L754.304 193.609L715.77 164.436Z" fill="#C8A078"/>
</g>
<g filter="url(#filter8_i_1142_267074)">
<path d="M270 692.999L164 591.495L203 231.511L274 210.055L270 692.999Z" fill="#C8A078"/>
</g>
<path d="M410 603.416L363 517.592L328 188.6L266 245.816L270 693L320 653.48L410 603.416Z" fill="#C8A078"/>
<g filter="url(#filter9_i_1142_267074)">
<path d="M251.5 158.499L203 231.511H235L266 245.815L328 188.599L321 157.607L251.5 158.499Z" fill="#C8A078"/>
</g>
<g filter="url(#filter10_i_1142_267074)">
<path d="M474.869 312.696L413.391 268.783L468.282 260L542.934 288.543L474.869 312.696Z" fill="#C8A078"/>
</g>
<g filter="url(#filter11_d_1142_267074)">
<path d="M608.805 356.608L716.392 707.913L542.935 765L512.196 426.869L474.87 312.695L542.935 288.543L608.805 356.608Z" fill="#C8A078"/>
</g>
<g filter="url(#filter12_i_1142_267074)">
<path d="M417.783 751.827L308 701.327L356.304 420.283L389.239 396.131L413.391 268.783L474.87 312.696L512.196 426.87L556 734.261L512.196 751.827H417.783Z" fill="#C8A078"/>
</g>
<path d="M512 751.825L468.233 472.75L417.782 751.825H512Z" fill="#C8A078"/>
<g filter="url(#filter13_i_1142_267074)">
<path d="M468.283 472.977L356.305 420.281L389.239 396.129L468.283 472.977Z" fill="#C8A078"/>
</g>
<g filter="url(#filter14_i_1142_267074)">
<path d="M774.717 432.222L842.924 528.58L748.936 500.559L695.66 427.023L714.205 403.976L774.717 432.222Z" fill="#C8A078"/>
</g>
<path d="M748.936 500.56L746.77 851.344L902 834.998L954.718 782.386L842.925 528.581L748.936 500.56Z" fill="#C8A078"/>
<g filter="url(#filter15_i_1142_267074)">
<path d="M632.071 569.206L695.659 427.023L748.935 500.559L746.768 851.344L606.916 820.216L542.552 757.408L601.37 668.34L632.071 569.206Z" fill="#C8A078"/>
</g>
<g filter="url(#filter16_i_1142_267074)">
<path d="M581.889 621.017L540.714 681.513L593.66 724.305L649.661 687.105L638.18 651.379L581.889 621.017Z" fill="#C8A078"/>
</g>
<g filter="url(#filter17_i_1142_267074)">
<path d="M589.619 897.917L479.332 821.967L540.714 681.515L593.659 724.307L589.619 897.917Z" fill="#C8A078"/>
</g>
<path d="M661.253 717.177L649.661 687.105L593.66 724.306L589.619 897.915L670.727 883.367L709.021 844.779L676.946 783.693L661.253 717.177Z" fill="#C8A078"/>
<defs>
<filter id="filter0_i_1142_267074" x="103" y="587.918" width="338" height="254.582" filterUnits="userSpaceOnUse" color-interpolation-filters="sRGB">
<feFlood flood-opacity="0" result="BackgroundImageFix"/>
<feBlend mode="normal" in="SourceGraphic" in2="BackgroundImageFix" result="shape"/>
<feColorMatrix in="SourceAlpha" type="matrix" values="0 0 0 0 0 0 0 0 0 0 0 0 0 0 0 0 0 0 127 0" result="hardAlpha"/>
<feOffset dy="-1623.04"/>
<feComposite in2="hardAlpha" operator="arithmetic" k2="-1" k3="1"/>
<feColorMatrix type="matrix" values="0 0 0 0 0 0 0 0 0 0 0 0 0 0 0 0 0 0 0.15 0"/>
<feBlend mode="normal" in2="shape" result="effect1_innerShadow_1142_267074"/>
</filter>
<filter id="filter1_i_1142_267074" x="125.197" y="481" width="465.539" height="291" filterUnits="userSpaceOnUse" color-interpolation-filters="sRGB">
<feFlood flood-opacity="0" result="BackgroundImageFix"/>
<feBlend mode="normal" in="SourceGraphic" in2="BackgroundImageFix" result="shape"/>
<feColorMatrix in="SourceAlpha" type="matrix" values="0 0 0 0 0 0 0 0 0 0 0 0 0 0 0 0 0 0 127 0" result="hardAlpha"/>
<feOffset dy="-1000"/>
<feGaussianBlur stdDeviation="2"/>
<feComposite in2="hardAlpha" operator="arithmetic" k2="-1" k3="1"/>
<feColorMatrix type="matrix" values="0 0 0 0 1 0 0 0 0 1 0 0 0 0 1 0 0 0 0.25 0"/>
<feBlend mode="normal" in2="shape" result="effect1_innerShadow_1142_267074"/>
</filter>
<filter id="filter2_i_1142_267074" x="535.944" y="-4" width="151.567" height="209.16" filterUnits="userSpaceOnUse" color-interpolation-filters="sRGB">
<feFlood flood-opacity="0" result="BackgroundImageFix"/>
<feBlend mode="normal" in="SourceGraphic" in2="BackgroundImageFix" result="shape"/>
<feColorMatrix in="SourceAlpha" type="matrix" values="0 0 0 0 0 0 0 0 0 0 0 0 0 0 0 0 0 0 127 0" result="hardAlpha"/>
<feOffset dy="-196"/>
<feGaussianBlur stdDeviation="2"/>
<feComposite in2="hardAlpha" operator="arithmetic" k2="-1" k3="1"/>
<feColorMatrix type="matrix" values="0 0 0 0 1 0 0 0 0 1 0 0 0 0 1 0 0 0 0.25 0"/>
<feBlend mode="normal" in2="shape" result="effect1_innerShadow_1142_267074"/>
</filter>
<filter id="filter3_i_1142_267074" x="384" y="34.4785" width="187.91" height="575.521" filterUnits="userSpaceOnUse" color-interpolation-filters="sRGB">
<feFlood flood-opacity="0" result="BackgroundImageFix"/>
<feBlend mode="normal" in="SourceGraphic" in2="BackgroundImageFix" result="shape"/>
<feColorMatrix in="SourceAlpha" type="matrix" values="0 0 0 0 0 0 0 0 0 0 0 0 0 0 0 0 0 0 127 0" result="hardAlpha"/>
<feOffset dx="-137" dy="-472"/>
<feComposite in2="hardAlpha" operator="arithmetic" k2="-1" k3="1"/>
<feColorMatrix type="matrix" values="0 0 0 0 0 0 0 0 0 0 0 0 0 0 0 0 0 0 0.15 0"/>
<feBlend mode="normal" in2="shape" result="effect1_innerShadow_1142_267074"/>
</filter>
<filter id="filter4_d_1142_267074" x="535.945" y="10.6094" width="276.055" height="600.391" filterUnits="userSpaceOnUse" color-interpolation-filters="sRGB">
<feFlood flood-opacity="0" result="BackgroundImageFix"/>
<feColorMatrix in="SourceAlpha" type="matrix" values="0 0 0 0 0 0 0 0 0 0 0 0 0 0 0 0 0 0 127 0" result="hardAlpha"/>
<feOffset dy="1"/>
<feComposite in2="hardAlpha" operator="out"/>
<feColorMatrix type="matrix" values="0 0 0 0 0 0 0 0 0 0 0 0 0 0 0 0 0 0 0.25 0"/>
<feBlend mode="normal" in2="BackgroundImageFix" result="effect1_dropShadow_1142_267074"/>
<feBlend mode="normal" in="SourceGraphic" in2="effect1_dropShadow_1142_267074" result="shape"/>
</filter>
<filter id="filter5_i_1142_267074" x="600.168" y="256.986" width="82.2056" height="337.102" filterUnits="userSpaceOnUse" color-interpolation-filters="sRGB">
<feFlood flood-opacity="0" result="BackgroundImageFix"/>
<feBlend mode="normal" in="SourceGraphic" in2="BackgroundImageFix" result="shape"/>
<feColorMatrix in="SourceAlpha" type="matrix" values="0 0 0 0 0 0 0 0 0 0 0 0 0 0 0 0 0 0 127 0" result="hardAlpha"/>
<feOffset dy="-471"/>
<feComposite in2="hardAlpha" operator="arithmetic" k2="-1" k3="1"/>
<feColorMatrix type="matrix" values="0 0 0 0 0 0 0 0 0 0 0 0 0 0 0 0 0 0 0.15 0"/>
<feBlend mode="normal" in2="shape" result="effect1_innerShadow_1142_267074"/>
</filter>
<filter id="filter6_i_1142_267074" x="661" y="397" width="41.2931" height="175.33" filterUnits="userSpaceOnUse" color-interpolation-filters="sRGB">
<feFlood flood-opacity="0" result="BackgroundImageFix"/>
<feBlend mode="normal" in="SourceGraphic" in2="BackgroundImageFix" result="shape"/>
<feColorMatrix in="SourceAlpha" type="matrix" values="0 0 0 0 0 0 0 0 0 0 0 0 0 0 0 0 0 0 127 0" result="hardAlpha"/>
<feOffset dy="-471"/>
<feComposite in2="hardAlpha" operator="arithmetic" k2="-1" k3="1"/>
<feColorMatrix type="matrix" values="0 0 0 0 0 0 0 0 0 0 0 0 0 0 0 0 0 0 0.15 0"/>
<feBlend mode="normal" in2="shape" result="effect1_innerShadow_1142_267074"/>
</filter>
<filter id="filter7_i_1142_267074" x="623.288" y="164.436" width="131.015" height="119.258" filterUnits="userSpaceOnUse" color-interpolation-filters="sRGB">
<feFlood flood-opacity="0" result="BackgroundImageFix"/>
<feBlend mode="normal" in="SourceGraphic" in2="BackgroundImageFix" result="shape"/>
<feColorMatrix in="SourceAlpha" type="matrix" values="0 0 0 0 0 0 0 0 0 0 0 0 0 0 0 0 0 0 127 0" result="hardAlpha"/>
<feOffset dy="-196"/>
<feGaussianBlur stdDeviation="2"/>
<feComposite in2="hardAlpha" operator="arithmetic" k2="-1" k3="1"/>
<feColorMatrix type="matrix" values="0 0 0 0 1 0 0 0 0 1 0 0 0 0 1 0 0 0 0.25 0"/>
<feBlend mode="normal" in2="shape" result="effect1_innerShadow_1142_267074"/>
</filter>
<filter id="filter8_i_1142_267074" x="164" y="210.055" width="110" height="482.943" filterUnits="userSpaceOnUse" color-interpolation-filters="sRGB">
<feFlood flood-opacity="0" result="BackgroundImageFix"/>
<feBlend mode="normal" in="SourceGraphic" in2="BackgroundImageFix" result="shape"/>
<feColorMatrix in="SourceAlpha" type="matrix" values="0 0 0 0 0 0 0 0 0 0 0 0 0 0 0 0 0 0 127 0" result="hardAlpha"/>
<feOffset dy="-471"/>
<feComposite in2="hardAlpha" operator="arithmetic" k2="-1" k3="1"/>
<feColorMatrix type="matrix" values="0 0 0 0 0 0 0 0 0 0 0 0 0 0 0 0 0 0 0.15 0"/>
<feBlend mode="normal" in2="shape" result="effect1_innerShadow_1142_267074"/>
</filter>
<filter id="filter9_i_1142_267074" x="203" y="157.607" width="125" height="88.207" filterUnits="userSpaceOnUse" color-interpolation-filters="sRGB">
<feFlood flood-opacity="0" result="BackgroundImageFix"/>
<feBlend mode="normal" in="SourceGraphic" in2="BackgroundImageFix" result="shape"/>
<feColorMatrix in="SourceAlpha" type="matrix" values="0 0 0 0 0 0 0 0 0 0 0 0 0 0 0 0 0 0 127 0" result="hardAlpha"/>
<feOffset dy="-196"/>
<feGaussianBlur stdDeviation="2"/>
<feComposite in2="hardAlpha" operator="arithmetic" k2="-1" k3="1"/>
<feColorMatrix type="matrix" values="0 0 0 0 1 0 0 0 0 1 0 0 0 0 1 0 0 0 0.25 0"/>
<feBlend mode="normal" in2="shape" result="effect1_innerShadow_1142_267074"/>
</filter>
<filter id="filter10_i_1142_267074" x="413.391" y="260" width="129.543" height="52.6953" filterUnits="userSpaceOnUse" color-interpolation-filters="sRGB">
<feFlood flood-opacity="0" result="BackgroundImageFix"/>
<feBlend mode="normal" in="SourceGraphic" in2="BackgroundImageFix" result="shape"/>
<feColorMatrix in="SourceAlpha" type="matrix" values="0 0 0 0 0 0 0 0 0 0 0 0 0 0 0 0 0 0 127 0" result="hardAlpha"/>
<feOffset dy="-196"/>
<feGaussianBlur stdDeviation="2"/>
<feComposite in2="hardAlpha" operator="arithmetic" k2="-1" k3="1"/>
<feColorMatrix type="matrix" values="0 0 0 0 1 0 0 0 0 1 0 0 0 0 1 0 0 0 0.25 0"/>
<feBlend mode="normal" in2="shape" result="effect1_innerShadow_1142_267074"/>
</filter>
<filter id="filter11_d_1142_267074" x="474.87" y="288.543" width="241.522" height="477.457" filterUnits="userSpaceOnUse" color-interpolation-filters="sRGB">
<feFlood flood-opacity="0" result="BackgroundImageFix"/>
<feColorMatrix in="SourceAlpha" type="matrix" values="0 0 0 0 0 0 0 0 0 0 0 0 0 0 0 0 0 0 127 0" result="hardAlpha"/>
<feOffset dy="1"/>
<feComposite in2="hardAlpha" operator="out"/>
<feColorMatrix type="matrix" values="0 0 0 0 0 0 0 0 0 0 0 0 0 0 0 0 0 0 0.25 0"/>
<feBlend mode="normal" in2="BackgroundImageFix" result="effect1_dropShadow_1142_267074"/>
<feBlend mode="normal" in="SourceGraphic" in2="effect1_dropShadow_1142_267074" result="shape"/>
</filter>
<filter id="filter12_i_1142_267074" x="308" y="268.783" width="248" height="483.043" filterUnits="userSpaceOnUse" color-interpolation-filters="sRGB">
<feFlood flood-opacity="0" result="BackgroundImageFix"/>
<feBlend mode="normal" in="SourceGraphic" in2="BackgroundImageFix" result="shape"/>
<feColorMatrix in="SourceAlpha" type="matrix" values="0 0 0 0 0 0 0 0 0 0 0 0 0 0 0 0 0 0 127 0" result="hardAlpha"/>
<feOffset dy="-543"/>
<feComposite in2="hardAlpha" operator="arithmetic" k2="-1" k3="1"/>
<feColorMatrix type="matrix" values="0 0 0 0 0 0 0 0 0 0 0 0 0 0 0 0 0 0 0.15 0"/>
<feBlend mode="normal" in2="shape" result="effect1_innerShadow_1142_267074"/>
</filter>
<filter id="filter13_i_1142_267074" x="356.305" y="396.129" width="111.978" height="76.8477" filterUnits="userSpaceOnUse" color-interpolation-filters="sRGB">
<feFlood flood-opacity="0" result="BackgroundImageFix"/>
<feBlend mode="normal" in="SourceGraphic" in2="BackgroundImageFix" result="shape"/>
<feColorMatrix in="SourceAlpha" type="matrix" values="0 0 0 0 0 0 0 0 0 0 0 0 0 0 0 0 0 0 127 0" result="hardAlpha"/>
<feOffset dy="-196"/>
<feGaussianBlur stdDeviation="2"/>
<feComposite in2="hardAlpha" operator="arithmetic" k2="-1" k3="1"/>
<feColorMatrix type="matrix" values="0 0 0 0 1 0 0 0 0 1 0 0 0 0 1 0 0 0 0.25 0"/>
<feBlend mode="normal" in2="shape" result="effect1_innerShadow_1142_267074"/>
</filter>
<filter id="filter14_i_1142_267074" x="695.66" y="403.977" width="147.264" height="124.604" filterUnits="userSpaceOnUse" color-interpolation-filters="sRGB">
<feFlood flood-opacity="0" result="BackgroundImageFix"/>
<feBlend mode="normal" in="SourceGraphic" in2="BackgroundImageFix" result="shape"/>
<feColorMatrix in="SourceAlpha" type="matrix" values="0 0 0 0 0 0 0 0 0 0 0 0 0 0 0 0 0 0 127 0" result="hardAlpha"/>
<feOffset dy="-196"/>
<feGaussianBlur stdDeviation="2"/>
<feComposite in2="hardAlpha" operator="arithmetic" k2="-1" k3="1"/>
<feColorMatrix type="matrix" values="0 0 0 0 1 0 0 0 0 1 0 0 0 0 1 0 0 0 0.25 0"/>
<feBlend mode="normal" in2="shape" result="effect1_innerShadow_1142_267074"/>
</filter>
<filter id="filter15_i_1142_267074" x="542.552" y="427.023" width="206.383" height="424.32" filterUnits="userSpaceOnUse" color-interpolation-filters="sRGB">
<feFlood flood-opacity="0" result="BackgroundImageFix"/>
<feBlend mode="normal" in="SourceGraphic" in2="BackgroundImageFix" result="shape"/>
<feColorMatrix in="SourceAlpha" type="matrix" values="0 0 0 0 0 0 0 0 0 0 0 0 0 0 0 0 0 0 127 0" result="hardAlpha"/>
<feOffset dy="-471"/>
<feComposite in2="hardAlpha" operator="arithmetic" k2="-1" k3="1"/>
<feColorMatrix type="matrix" values="0 0 0 0 0 0 0 0 0 0 0 0 0 0 0 0 0 0 0.15 0"/>
<feBlend mode="normal" in2="shape" result="effect1_innerShadow_1142_267074"/>
</filter>
<filter id="filter16_i_1142_267074" x="540.714" y="621.018" width="108.947" height="103.287" filterUnits="userSpaceOnUse" color-interpolation-filters="sRGB">
<feFlood flood-opacity="0" result="BackgroundImageFix"/>
<feBlend mode="normal" in="SourceGraphic" in2="BackgroundImageFix" result="shape"/>
<feColorMatrix in="SourceAlpha" type="matrix" values="0 0 0 0 0 0 0 0 0 0 0 0 0 0 0 0 0 0 127 0" result="hardAlpha"/>
<feOffset dy="-196"/>
<feGaussianBlur stdDeviation="2"/>
<feComposite in2="hardAlpha" operator="arithmetic" k2="-1" k3="1"/>
<feColorMatrix type="matrix" values="0 0 0 0 1 0 0 0 0 1 0 0 0 0 1 0 0 0 0.25 0"/>
<feBlend mode="normal" in2="shape" result="effect1_innerShadow_1142_267074"/>
</filter>
<filter id="filter17_i_1142_267074" x="479.332" y="681.514" width="114.327" height="216.402" filterUnits="userSpaceOnUse" color-interpolation-filters="sRGB">
<feFlood flood-opacity="0" result="BackgroundImageFix"/>
<feBlend mode="normal" in="SourceGraphic" in2="BackgroundImageFix" result="shape"/>
<feColorMatrix in="SourceAlpha" type="matrix" values="0 0 0 0 0 0 0 0 0 0 0 0 0 0 0 0 0 0 127 0" result="hardAlpha"/>
<feOffset dy="-263"/>
<feComposite in2="hardAlpha" operator="arithmetic" k2="-1" k3="1"/>
<feColorMatrix type="matrix" values="0 0 0 0 0 0 0 0 0 0 0 0 0 0 0 0 0 0 0.15 0"/>
<feBlend mode="normal" in2="shape" result="effect1_innerShadow_1142_267074"/>
</filter>
</defs>
</svg>
