<svg width="482" height="406" viewBox="0 0 482 406" fill="none" xmlns="http://www.w3.org/2000/svg">
<circle cx="232" cy="236" r="133" fill="black" fill-opacity="0.2"/>
<circle cx="232.144" cy="235.875" r="169.5" fill="black" fill-opacity="0.12"/>
<g filter="url(#filter0_ii_1148_281267)">
<path d="M239.815 35.4276C334.265 13.5491 300.868 107.327 243.481 145.05C242.481 145.707 241.065 145.649 240.018 144.957C148.732 84.6528 173.232 16.894 236.162 35.3125C237.323 35.6523 238.664 35.6943 239.815 35.4276Z" fill="#65A30D"/>
</g>
<g filter="url(#filter1_df_1148_281267)">
<path d="M238.547 42.3797L243.599 142.633C239.463 148.185 240.026 147.682 236.788 143.397L236.843 42.3925C238.234 42.5829 237.327 42.7266 238.547 42.3797Z" fill="black" fill-opacity="0.12" shape-rendering="crispEdges"/>
</g>
<g filter="url(#filter2_ii_1148_281267)">
<path d="M106.247 124.629C83.7409 111.976 76.8281 88.6602 71.8944 74.6663C70.8557 71.7199 72.3709 68.2891 75.4561 67.2257C86.5705 63.3947 95.0152 62.7268 103.703 60.0927C103.9 60.0329 104.11 59.9916 104.313 59.9729C203.935 50.8417 230.411 118.498 238.509 153.794C238.806 155.088 238.112 156.426 236.817 156.913C204.479 169.091 134.049 139.494 119.903 130.837C118.985 130.276 118.617 129.21 118.861 128.143L120.377 121.517C120.979 118.885 117.878 117.145 115.768 118.932L109.482 124.254C108.561 125.035 107.259 125.198 106.247 124.629Z" fill="#65A30D"/>
</g>
<g filter="url(#filter3_df_1148_281267)">
<path d="M90.9998 72.0013C191.999 76.002 213.954 116.512 223.26 145.142L218.229 152.117C193.295 80.5726 113.37 74.5183 90.9998 72.0013Z" fill="black" fill-opacity="0.12" shape-rendering="crispEdges"/>
</g>
<g filter="url(#filter4_i_1148_281267)">
<path d="M53.0016 271.178C19.5996 171.583 138.214 134.273 180.004 134.815C181.331 134.832 182.407 135.852 182.542 137.228C185.899 171.62 139.019 231.94 126.983 243.352C126.202 244.092 125.077 244.17 124.111 243.658L118.107 240.472C115.721 239.207 113.235 241.75 114.412 244.251L117.919 251.704C118.433 252.797 118.252 254.096 117.44 254.926C98.8666 273.889 73.6929 274.009 59.0443 275.213C56.4412 275.427 53.8721 273.773 53.0016 271.178Z" fill="#4D7C0F"/>
</g>
<g filter="url(#filter5_ii_1148_281267)">
<path d="M4.86404 229.467C46.3142 166.627 106.744 43.0163 232.125 135.92C233.893 137.23 233.884 139.965 232.044 140.881C205.064 154.323 150.744 187.783 113.317 232.171C111.558 234.257 107.875 232.559 108.162 229.736C108.385 227.539 108.7 225.254 109.193 222.847C109.861 219.583 105.515 216.607 103.693 219.292C96.8948 229.313 89.8973 241.483 83.5016 253.838C82.3299 256.101 78.7425 255.551 77.9342 252.982C74.6295 242.481 70.2909 226.757 76.0331 210.758C71.6586 221.985 36.5749 245.224 7.7813 237.643C4.24098 236.711 2.91369 232.424 4.86404 229.467Z" fill="#65A30D"/>
</g>
<g opacity="0.8" filter="url(#filter6_df_1148_281267)">
<path d="M50.9991 192.002C125 88.0006 196.215 121.809 223.245 133.933L225.318 138.658C156.458 109.504 94.9995 138.658 50.9991 192.002Z" fill="black" fill-opacity="0.12" shape-rendering="crispEdges"/>
</g>
<g filter="url(#filter7_i_1148_281267)">
<path d="M437.821 254.06C441.918 159.203 331.796 138.452 295.123 143.546C293.678 143.747 292.708 145.128 292.977 146.625C298.761 178.839 353.241 228.625 366.623 237.992C367.552 238.642 368.734 238.518 369.622 237.787L373.497 234.598C375.503 232.948 378.362 234.734 377.914 237.356L376.641 244.802C376.457 245.875 376.864 246.969 377.704 247.598C397.835 262.65 419.118 260.404 432.289 259.698C435.201 259.542 437.689 257.116 437.821 254.06Z" fill="#4D7C0F"/>
</g>
<g filter="url(#filter8_i_1148_281267)">
<path d="M330.177 333.223C377.099 250.682 288.572 181.976 253.615 169.777C252.237 169.296 250.744 170.083 250.3 171.538C240.751 202.842 266.517 272.001 274.151 286.441C274.681 287.443 275.789 287.872 276.913 287.627L281.816 286.558C284.354 286.004 286.084 288.898 284.488 291.027L279.959 297.071C279.306 297.943 279.169 299.102 279.63 300.045C290.675 322.623 310.64 330.335 322.682 335.716C325.344 336.905 328.665 335.882 330.177 333.223Z" fill="#4D7C0F"/>
</g>
<g filter="url(#filter9_i_1148_281267)">
<path d="M165.882 353.405C243.978 299.406 194.04 199.088 167.84 172.927C166.808 171.896 165.121 171.957 164.089 173.075C141.9 197.133 135.099 270.621 135.71 286.944C135.753 288.077 136.565 288.944 137.684 289.211L142.565 290.376C145.092 290.979 145.394 294.336 143.033 295.562L136.329 299.042C135.362 299.544 134.736 300.528 134.742 301.578C134.894 326.713 149.534 342.325 158.048 352.399C159.93 354.625 163.366 355.145 165.882 353.405Z" fill="#4D7C0F"/>
</g>
<g filter="url(#filter10_ii_1148_281267)">
<path d="M406.807 61.6688C303.013 5.83274 253.439 104.752 242.522 145.812C242.045 147.61 243.544 149.372 245.451 149.302C278.621 148.096 306.444 141.514 329.332 132.254C372.842 114.651 398.521 87.3742 409.215 68.9616C410.687 66.4286 409.51 63.1231 406.807 61.6688Z" fill="#84CC16"/>
</g>
<g filter="url(#filter11_df_1148_281267)">
<path d="M359.821 65.5312C284.648 69.4966 252.867 116.511 243.562 145.141L248.593 152.117C273.527 80.5724 337.451 68.0483 359.821 65.5312Z" fill="black" fill-opacity="0.12" shape-rendering="crispEdges"/>
</g>
<g filter="url(#filter12_i_1148_281267)">
<path d="M197.561 88.6843C203.571 91.3669 208.823 94.1301 213.409 96.9619M243.978 153.792C244.612 134.101 241.412 114.252 213.409 96.9619M213.409 96.9619C213.614 95.2674 215.115 90.8068 219.484 86.5211" stroke="#ECFCCB" stroke-width="3.47357" stroke-linecap="round"/>
</g>
<g filter="url(#filter13_i_1148_281267)">
<path d="M282.248 99.2078C255.884 100.966 247.615 111.154 242.173 133.205" stroke="#ECFCCB" stroke-width="3.47357" stroke-linecap="round"/>
</g>
<g filter="url(#filter14_i_1148_281267)">
<path d="M193.01 101.571C201.93 101.93 209.616 104.969 215.939 109.716M236.362 149.051C235.177 134.213 228.065 118.821 215.939 109.716M215.939 109.716C213.531 115.881 209.256 121.382 197.108 122.321" stroke="#ECFCCB" stroke-width="3.47357" stroke-linecap="round"/>
</g>
<g filter="url(#filter15_i_1148_281267)">
<path d="M262.393 84.3332C243.552 88.2504 234.778 101.196 232.036 111.632" stroke="#ECFCCB" stroke-width="3.47357" stroke-linecap="round"/>
</g>
<g filter="url(#filter16_i_1148_281267)">
<path d="M247.582 153.959C248.481 134.677 259.85 123.925 269.694 119.546" stroke="#ECFCCB" stroke-width="3.47357" stroke-linecap="round"/>
</g>
<g filter="url(#filter17_i_1148_281267)">
<rect width="11.5594" height="11.6026" rx="5.77972" transform="matrix(0.980552 0.19626 -0.185685 0.982609 259.21 77.5312)" fill="#EF4444"/>
</g>
<path opacity="0.5" d="M267.198 84.1934C266.284 84.7529 266.403 83.7142 265.844 82.8004C265.284 81.8865 264.258 81.4435 265.172 80.8841C266.086 80.3246 267.28 80.6119 267.839 81.5258C268.399 82.4396 268.112 83.634 267.198 84.1934Z" fill="white"/>
<g filter="url(#filter18_i_1148_281267)">
<rect width="11.5594" height="11.6026" rx="5.77972" transform="matrix(0.980552 0.19626 -0.185685 0.982609 280.301 93.9336)" fill="#EF4444"/>
</g>
<path opacity="0.5" d="M288.289 100.596C287.375 101.155 287.494 100.117 286.934 99.2027C286.375 98.2889 285.349 97.8459 286.263 97.2864C287.176 96.727 288.371 97.0143 288.93 97.9281C289.49 98.842 289.202 100.036 288.289 100.596Z" fill="white"/>
<g filter="url(#filter19_i_1148_281267)">
<rect width="11.5594" height="11.6026" rx="5.77972" transform="matrix(0.980552 0.19626 -0.185685 0.982609 268.584 112.684)" fill="#EF4444"/>
</g>
<path opacity="0.5" d="M276.572 119.346C275.658 119.905 275.777 118.867 275.218 117.953C274.658 117.039 273.632 116.596 274.546 116.036C275.46 115.477 276.654 115.764 277.213 116.678C277.773 117.592 277.486 118.786 276.572 119.346Z" fill="white"/>
<g filter="url(#filter20_i_1148_281267)">
<rect width="11.5594" height="11.6026" rx="5.77972" transform="matrix(0.980552 0.19626 -0.185685 0.982609 247.494 104.48)" fill="#EF4444"/>
</g>
<path opacity="0.5" d="M255.481 111.143C254.567 111.702 254.686 110.663 254.127 109.75C253.567 108.836 252.541 108.393 253.455 107.833C254.369 107.274 255.563 107.561 256.123 108.475C256.682 109.389 256.395 110.583 255.481 111.143Z" fill="white"/>
<g filter="url(#filter21_i_1148_281267)">
<rect width="11.5594" height="11.6026" rx="5.77972" transform="matrix(0.980552 0.19626 -0.185685 0.982609 232.261 89.25)" fill="#EF4444"/>
</g>
<path opacity="0.5" d="M240.249 95.9122C239.335 96.4716 239.454 95.433 238.894 94.5191C238.335 93.6053 237.309 93.1623 238.223 92.6028C239.136 92.0434 240.331 92.3307 240.89 93.2445C241.45 94.1584 241.162 95.3527 240.249 95.9122Z" fill="white"/>
<g filter="url(#filter22_i_1148_281267)">
<rect width="11.5594" height="11.6026" rx="5.77972" transform="matrix(0.980552 0.19626 -0.185685 0.982609 215.857 77.5312)" fill="#EF4444"/>
</g>
<path opacity="0.5" d="M223.844 84.1934C222.93 84.7529 223.049 83.7142 222.49 82.8004C221.931 81.8865 220.904 81.4435 221.818 80.8841C222.732 80.3246 223.926 80.6119 224.486 81.5258C225.045 82.4396 224.758 83.634 223.844 84.1934Z" fill="white"/>
<g filter="url(#filter23_i_1148_281267)">
<rect width="11.5594" height="11.6026" rx="5.77972" transform="matrix(0.980552 0.19626 -0.185685 0.982609 191.251 79.875)" fill="#EF4444"/>
</g>
<path opacity="0.5" d="M199.239 86.5372C198.325 87.0966 198.444 86.058 197.885 85.1441C197.325 84.2303 196.299 83.7873 197.213 83.2278C198.127 82.6684 199.321 82.9557 199.88 83.8695C200.44 84.7834 200.153 85.9777 199.239 86.5372Z" fill="white"/>
<g filter="url(#filter24_i_1148_281267)">
<rect width="11.5594" height="11.6026" rx="5.77972" transform="matrix(0.980552 0.19626 -0.185685 0.982609 184.221 93.9336)" fill="#EF4444"/>
</g>
<path opacity="0.5" d="M192.208 100.596C191.295 101.155 191.414 100.117 190.854 99.2027C190.295 98.2889 189.269 97.8459 190.182 97.2864C191.096 96.727 192.291 97.0143 192.85 97.9281C193.41 98.842 193.122 100.036 192.208 100.596Z" fill="white"/>
<g filter="url(#filter25_i_1148_281267)">
<rect width="11.5594" height="11.6026" rx="5.77972" transform="matrix(0.980552 0.19626 -0.185685 0.982609 194.766 116.195)" fill="#EF4444"/>
</g>
<path opacity="0.5" d="M202.753 122.857C201.84 123.417 201.959 122.378 201.399 121.464C200.84 120.551 199.814 120.108 200.727 119.548C201.641 118.989 202.836 119.276 203.395 120.19C203.955 121.104 203.667 122.298 202.753 122.857Z" fill="white"/>
<g filter="url(#filter26_i_1148_281267)">
<rect width="11.5594" height="11.6026" rx="5.77972" transform="matrix(0.980552 0.19626 -0.185685 0.982609 218.201 115.023)" fill="#EF4444"/>
</g>
<path opacity="0.5" d="M226.188 121.686C225.274 122.245 225.393 121.206 224.834 120.293C224.274 119.379 223.248 118.936 224.162 118.376C225.076 117.817 226.27 118.104 226.83 119.018C227.389 119.932 227.102 121.126 226.188 121.686Z" fill="white"/>
<g filter="url(#filter27_ii_1148_281267)">
<path d="M244.486 156.487C352.222 30.7458 450.625 164.715 479.519 224.656C480.706 227.118 479.908 230.133 477.413 231.247C458.197 239.82 426.379 222.443 413.513 214.788C411.924 213.843 409.86 214.708 409.68 216.593C409.515 218.326 409.606 219.899 409.852 221.303C410.336 224.06 407.587 228.462 404.871 228.049C302.311 212.449 283.983 184.759 245.082 160.902C243.597 159.991 243.327 157.839 244.486 156.487Z" fill="#84CC16"/>
</g>
<g opacity="0.8" filter="url(#filter28_df_1148_281267)">
<path d="M442.88 192C372.999 101.5 281.499 117 270.635 133.931L268.562 138.656C306.999 109 398.88 138.656 442.88 192Z" fill="black" fill-opacity="0.12" shape-rendering="crispEdges"/>
</g>
<g filter="url(#filter29_ii_1148_281267)">
<path d="M411.468 329.337C440.918 194.547 352.92 138.331 255.744 140.92C254.081 140.964 252.83 142.476 253.058 144.125C261.787 207.107 283.985 231.064 301.545 248.754C303.52 250.743 307.133 248.927 307.045 246.129C306.663 233.939 311.186 228.688 316.529 224.763C318.455 223.348 321.164 225.002 321.066 227.392C318.509 289.741 372.762 319.551 403.835 333.266C407.034 334.678 410.723 332.748 411.468 329.337Z" fill="#65A30D"/>
</g>
<g filter="url(#filter30_df_1148_281267)">
<path d="M381.346 258.854C365.078 182.183 315.671 159.196 287.136 151.236L282.521 153.544C354.108 175.153 375.245 236.111 381.346 258.854Z" fill="black" fill-opacity="0.12" shape-rendering="crispEdges"/>
</g>
<g filter="url(#filter31_ii_1148_281267)">
<path d="M80.1636 334.746C40.2502 196.934 123.861 141.2 224.432 139.383C225.827 139.358 227.037 140.345 227.211 141.734C228.287 150.3 230.528 179.995 213.221 198.631C211.914 200.038 209.627 199.532 208.663 197.842C205.378 192.088 201.475 189.031 197.515 187.429C195.167 186.479 193.63 189.226 195.153 191.258C214.438 217.003 205.66 228.662 190.893 249.999C177.151 266.027 155.513 286.789 130 304C107.518 319.167 100.623 330.683 87.6468 338.123C84.7365 339.792 81.1067 338.002 80.1636 334.746Z" fill="#4D7C0F"/>
</g>
<g filter="url(#filter32_df_1148_281267)">
<path d="M95.999 275C124.436 169 166.674 159.196 195.209 151.236L199.825 153.544C138.999 168 102.1 252.257 95.999 275Z" fill="black" fill-opacity="0.12" shape-rendering="crispEdges"/>
</g>
<g filter="url(#filter33_ii_1148_281267)">
<path d="M244.073 142.091C371.127 88.5731 332.62 356.361 245.061 397.513C244.158 397.937 243.086 397.858 242.198 397.33C136.907 334.81 128.27 91.5173 238.2 141.949C239.984 142.768 242.33 142.825 244.073 142.091Z" fill="#84CC16"/>
</g>
<g filter="url(#filter34_df_1148_281267)">
<path d="M243.099 343.167L236.752 139.51C243.212 143.908 243.19 141.685 246.366 138.326L243.099 343.167Z" fill="black" fill-opacity="0.12" shape-rendering="crispEdges"/>
</g>
<defs>
<filter id="filter0_ii_1148_281267" x="174.327" y="-5.23985" width="150.844" height="170.615" filterUnits="userSpaceOnUse" color-interpolation-filters="sRGB">
<feFlood flood-opacity="0" result="BackgroundImageFix"/>
<feBlend mode="normal" in="SourceGraphic" in2="BackgroundImageFix" result="shape"/>
<feColorMatrix in="SourceAlpha" type="matrix" values="0 0 0 0 0 0 0 0 0 0 0 0 0 0 0 0 0 0 127 0" result="hardAlpha"/>
<feOffset dx="26.05" dy="-37.4"/>
<feGaussianBlur stdDeviation="25.445"/>
<feComposite in2="hardAlpha" operator="arithmetic" k2="-1" k3="1"/>
<feColorMatrix type="matrix" values="0 0 0 0 0 0 0 0 0 0 0 0 0 0 0 0 0 0 0.25 0"/>
<feBlend mode="normal" in2="shape" result="effect1_innerShadow_1148_281267"/>
<feColorMatrix in="SourceAlpha" type="matrix" values="0 0 0 0 0 0 0 0 0 0 0 0 0 0 0 0 0 0 127 0" result="hardAlpha"/>
<feOffset dx="-5.67537" dy="19.8638"/>
<feGaussianBlur stdDeviation="11.3507"/>
<feComposite in2="hardAlpha" operator="arithmetic" k2="-1" k3="1"/>
<feColorMatrix type="matrix" values="0 0 0 0 1 0 0 0 0 1 0 0 0 0 1 0 0 0 0.25 0"/>
<feBlend mode="normal" in2="effect1_innerShadow_1148_281267" result="effect2_innerShadow_1148_281267"/>
</filter>
<filter id="filter1_df_1148_281267" x="231.113" y="41.3789" width="18.1619" height="116.675" filterUnits="userSpaceOnUse" color-interpolation-filters="sRGB">
<feFlood flood-opacity="0" result="BackgroundImageFix"/>
<feColorMatrix in="SourceAlpha" type="matrix" values="0 0 0 0 0 0 0 0 0 0 0 0 0 0 0 0 0 0 127 0" result="hardAlpha"/>
<feOffset dy="5.67537"/>
<feGaussianBlur stdDeviation="2.83768"/>
<feComposite in2="hardAlpha" operator="out"/>
<feColorMatrix type="matrix" values="0 0 0 0 1 0 0 0 0 1 0 0 0 0 1 0 0 0 0.25 0"/>
<feBlend mode="normal" in2="BackgroundImageFix" result="effect1_dropShadow_1148_281267"/>
<feBlend mode="normal" in="SourceGraphic" in2="effect1_dropShadow_1148_281267" result="shape"/>
<feGaussianBlur stdDeviation="0.5" result="effect2_foregroundBlur_1148_281267"/>
</filter>
<filter id="filter2_ii_1148_281267" x="37.5165" y="59.1328" width="257.814" height="123.381" filterUnits="userSpaceOnUse" color-interpolation-filters="sRGB">
<feFlood flood-opacity="0" result="BackgroundImageFix"/>
<feBlend mode="normal" in="SourceGraphic" in2="BackgroundImageFix" result="shape"/>
<feColorMatrix in="SourceAlpha" type="matrix" values="0 0 0 0 0 0 0 0 0 0 0 0 0 0 0 0 0 0 127 0" result="hardAlpha"/>
<feOffset dx="56.7537"/>
<feGaussianBlur stdDeviation="29.7957"/>
<feComposite in2="hardAlpha" operator="arithmetic" k2="-1" k3="1"/>
<feColorMatrix type="matrix" values="0 0 0 0 0 0 0 0 0 0 0 0 0 0 0 0 0 0 0.25 0"/>
<feBlend mode="normal" in2="shape" result="effect1_innerShadow_1148_281267"/>
<feColorMatrix in="SourceAlpha" type="matrix" values="0 0 0 0 0 0 0 0 0 0 0 0 0 0 0 0 0 0 127 0" result="hardAlpha"/>
<feOffset dx="-34.0522" dy="22.7015"/>
<feGaussianBlur stdDeviation="17.0261"/>
<feComposite in2="hardAlpha" operator="arithmetic" k2="-1" k3="1"/>
<feColorMatrix type="matrix" values="0 0 0 0 1 0 0 0 0 1 0 0 0 0 1 0 0 0 0.25 0"/>
<feBlend mode="normal" in2="effect1_innerShadow_1148_281267" result="effect2_innerShadow_1148_281267"/>
</filter>
<filter id="filter3_df_1148_281267" x="85.3244" y="71" width="143.611" height="92.4679" filterUnits="userSpaceOnUse" color-interpolation-filters="sRGB">
<feFlood flood-opacity="0" result="BackgroundImageFix"/>
<feColorMatrix in="SourceAlpha" type="matrix" values="0 0 0 0 0 0 0 0 0 0 0 0 0 0 0 0 0 0 127 0" result="hardAlpha"/>
<feOffset dy="5.67537"/>
<feGaussianBlur stdDeviation="2.83768"/>
<feComposite in2="hardAlpha" operator="out"/>
<feColorMatrix type="matrix" values="0 0 0 0 1 0 0 0 0 1 0 0 0 0 1 0 0 0 0.25 0"/>
<feBlend mode="normal" in2="BackgroundImageFix" result="effect1_dropShadow_1148_281267"/>
<feBlend mode="normal" in="SourceGraphic" in2="effect1_dropShadow_1148_281267" result="shape"/>
<feGaussianBlur stdDeviation="0.5" result="effect2_foregroundBlur_1148_281267"/>
</filter>
<filter id="filter4_i_1148_281267" x="47.1483" y="134.809" width="192.319" height="140.422" filterUnits="userSpaceOnUse" color-interpolation-filters="sRGB">
<feFlood flood-opacity="0" result="BackgroundImageFix"/>
<feBlend mode="normal" in="SourceGraphic" in2="BackgroundImageFix" result="shape"/>
<feColorMatrix in="SourceAlpha" type="matrix" values="0 0 0 0 0 0 0 0 0 0 0 0 0 0 0 0 0 0 127 0" result="hardAlpha"/>
<feOffset dx="56.7537"/>
<feGaussianBlur stdDeviation="29.7957"/>
<feComposite in2="hardAlpha" operator="arithmetic" k2="-1" k3="1"/>
<feColorMatrix type="matrix" values="0 0 0 0 0 0 0 0 0 0 0 0 0 0 0 0 0 0 0.25 0"/>
<feBlend mode="normal" in2="shape" result="effect1_innerShadow_1148_281267"/>
</filter>
<filter id="filter5_ii_1148_281267" x="-30.0888" y="42.893" width="323.118" height="235.07" filterUnits="userSpaceOnUse" color-interpolation-filters="sRGB">
<feFlood flood-opacity="0" result="BackgroundImageFix"/>
<feBlend mode="normal" in="SourceGraphic" in2="BackgroundImageFix" result="shape"/>
<feColorMatrix in="SourceAlpha" type="matrix" values="0 0 0 0 0 0 0 0 0 0 0 0 0 0 0 0 0 0 127 0" result="hardAlpha"/>
<feOffset dx="124.858" dy="-79.4552"/>
<feGaussianBlur stdDeviation="29.7957"/>
<feComposite in2="hardAlpha" operator="arithmetic" k2="-1" k3="1"/>
<feColorMatrix type="matrix" values="0 0 0 0 0 0 0 0 0 0 0 0 0 0 0 0 0 0 0.25 0"/>
<feBlend mode="normal" in2="shape" result="effect1_innerShadow_1148_281267"/>
<feColorMatrix in="SourceAlpha" type="matrix" values="0 0 0 0 0 0 0 0 0 0 0 0 0 0 0 0 0 0 127 0" result="hardAlpha"/>
<feOffset dx="-45.403" dy="22.7015"/>
<feGaussianBlur stdDeviation="17.0261"/>
<feComposite in2="hardAlpha" operator="arithmetic" k2="-1" k3="1"/>
<feColorMatrix type="matrix" values="0 0 0 0 1 0 0 0 0 1 0 0 0 0 1 0 0 0 0.25 0"/>
<feBlend mode="normal" in2="effect1_innerShadow_1148_281267" result="effect2_innerShadow_1148_281267"/>
</filter>
<filter id="filter6_df_1148_281267" x="45.3238" y="117.918" width="185.669" height="85.4367" filterUnits="userSpaceOnUse" color-interpolation-filters="sRGB">
<feFlood flood-opacity="0" result="BackgroundImageFix"/>
<feColorMatrix in="SourceAlpha" type="matrix" values="0 0 0 0 0 0 0 0 0 0 0 0 0 0 0 0 0 0 127 0" result="hardAlpha"/>
<feOffset dy="5.67537"/>
<feGaussianBlur stdDeviation="2.83768"/>
<feComposite in2="hardAlpha" operator="out"/>
<feColorMatrix type="matrix" values="0 0 0 0 1 0 0 0 0 1 0 0 0 0 1 0 0 0 0.25 0"/>
<feBlend mode="normal" in2="BackgroundImageFix" result="effect1_dropShadow_1148_281267"/>
<feBlend mode="normal" in="SourceGraphic" in2="effect1_dropShadow_1148_281267" result="shape"/>
<feGaussianBlur stdDeviation="0.5" result="effect2_foregroundBlur_1148_281267"/>
</filter>
<filter id="filter7_i_1148_281267" x="292.932" y="142.832" width="201.754" height="117.41" filterUnits="userSpaceOnUse" color-interpolation-filters="sRGB">
<feFlood flood-opacity="0" result="BackgroundImageFix"/>
<feBlend mode="normal" in="SourceGraphic" in2="BackgroundImageFix" result="shape"/>
<feColorMatrix in="SourceAlpha" type="matrix" values="0 0 0 0 0 0 0 0 0 0 0 0 0 0 0 0 0 0 127 0" result="hardAlpha"/>
<feOffset dx="56.7537"/>
<feGaussianBlur stdDeviation="29.7957"/>
<feComposite in2="hardAlpha" operator="arithmetic" k2="-1" k3="1"/>
<feColorMatrix type="matrix" values="0 0 0 0 0 0 0 0 0 0 0 0 0 0 0 0 0 0 0.25 0"/>
<feBlend mode="normal" in2="shape" result="effect1_innerShadow_1148_281267"/>
</filter>
<filter id="filter8_i_1148_281267" x="248.205" y="169.637" width="152.137" height="166.57" filterUnits="userSpaceOnUse" color-interpolation-filters="sRGB">
<feFlood flood-opacity="0" result="BackgroundImageFix"/>
<feBlend mode="normal" in="SourceGraphic" in2="BackgroundImageFix" result="shape"/>
<feColorMatrix in="SourceAlpha" type="matrix" values="0 0 0 0 0 0 0 0 0 0 0 0 0 0 0 0 0 0 127 0" result="hardAlpha"/>
<feOffset dx="56.7537"/>
<feGaussianBlur stdDeviation="29.7957"/>
<feComposite in2="hardAlpha" operator="arithmetic" k2="-1" k3="1"/>
<feColorMatrix type="matrix" values="0 0 0 0 0 0 0 0 0 0 0 0 0 0 0 0 0 0 0.25 0"/>
<feBlend mode="normal" in2="shape" result="effect1_innerShadow_1148_281267"/>
</filter>
<filter id="filter9_i_1148_281267" x="134.742" y="172.191" width="129.866" height="182.254" filterUnits="userSpaceOnUse" color-interpolation-filters="sRGB">
<feFlood flood-opacity="0" result="BackgroundImageFix"/>
<feBlend mode="normal" in="SourceGraphic" in2="BackgroundImageFix" result="shape"/>
<feColorMatrix in="SourceAlpha" type="matrix" values="0 0 0 0 0 0 0 0 0 0 0 0 0 0 0 0 0 0 127 0" result="hardAlpha"/>
<feOffset dx="56.7537"/>
<feGaussianBlur stdDeviation="29.7957"/>
<feComposite in2="hardAlpha" operator="arithmetic" k2="-1" k3="1"/>
<feColorMatrix type="matrix" values="0 0 0 0 0 0 0 0 0 0 0 0 0 0 0 0 0 0 0.25 0"/>
<feBlend mode="normal" in2="shape" result="effect1_innerShadow_1148_281267"/>
</filter>
<filter id="filter10_ii_1148_281267" x="208.381" y="-0.406864" width="224.176" height="183.764" filterUnits="userSpaceOnUse" color-interpolation-filters="sRGB">
<feFlood flood-opacity="0" result="BackgroundImageFix"/>
<feBlend mode="normal" in="SourceGraphic" in2="BackgroundImageFix" result="shape"/>
<feColorMatrix in="SourceAlpha" type="matrix" values="0 0 0 0 0 0 0 0 0 0 0 0 0 0 0 0 0 0 127 0" result="hardAlpha"/>
<feOffset dx="22.7015" dy="-45.403"/>
<feGaussianBlur stdDeviation="29.7957"/>
<feComposite in2="hardAlpha" operator="arithmetic" k2="-1" k3="1"/>
<feColorMatrix type="matrix" values="0 0 0 0 0 0 0 0 0 0 0 0 0 0 0 0 0 0 0.25 0"/>
<feBlend mode="normal" in2="shape" result="effect1_innerShadow_1148_281267"/>
<feColorMatrix in="SourceAlpha" type="matrix" values="0 0 0 0 0 0 0 0 0 0 0 0 0 0 0 0 0 0 127 0" result="hardAlpha"/>
<feOffset dx="-45.403" dy="34.0522"/>
<feGaussianBlur stdDeviation="17.0261"/>
<feComposite in2="hardAlpha" operator="arithmetic" k2="-1" k3="1"/>
<feColorMatrix type="matrix" values="0 0 0 0 1 0 0 0 0 1 0 0 0 0 1 0 0 0 0.25 0"/>
<feBlend mode="normal" in2="effect1_innerShadow_1148_281267" result="effect2_innerShadow_1148_281267"/>
</filter>
<filter id="filter11_df_1148_281267" x="237.886" y="64.5312" width="127.61" height="98.9367" filterUnits="userSpaceOnUse" color-interpolation-filters="sRGB">
<feFlood flood-opacity="0" result="BackgroundImageFix"/>
<feColorMatrix in="SourceAlpha" type="matrix" values="0 0 0 0 0 0 0 0 0 0 0 0 0 0 0 0 0 0 127 0" result="hardAlpha"/>
<feOffset dy="5.67537"/>
<feGaussianBlur stdDeviation="2.83768"/>
<feComposite in2="hardAlpha" operator="out"/>
<feColorMatrix type="matrix" values="0 0 0 0 1 0 0 0 0 1 0 0 0 0 1 0 0 0 0.25 0"/>
<feBlend mode="normal" in2="BackgroundImageFix" result="effect1_dropShadow_1148_281267"/>
<feBlend mode="normal" in="SourceGraphic" in2="effect1_dropShadow_1148_281267" result="shape"/>
<feGaussianBlur stdDeviation="0.5" result="effect2_foregroundBlur_1148_281267"/>
</filter>
<filter id="filter12_i_1148_281267" x="195.368" y="84.7852" width="50.4153" height="70.7461" filterUnits="userSpaceOnUse" color-interpolation-filters="sRGB">
<feFlood flood-opacity="0" result="BackgroundImageFix"/>
<feBlend mode="normal" in="SourceGraphic" in2="BackgroundImageFix" result="shape"/>
<feColorMatrix in="SourceAlpha" type="matrix" values="0 0 0 0 0 0 0 0 0 0 0 0 0 0 0 0 0 0 127 0" result="hardAlpha"/>
<feOffset dx="-0.456968"/>
<feGaussianBlur stdDeviation="4.10099"/>
<feComposite in2="hardAlpha" operator="arithmetic" k2="-1" k3="1"/>
<feColorMatrix type="matrix" values="0 0 0 0 0 0 0 0 0 0 0 0 0 0 0 0 0 0 0.35 0"/>
<feBlend mode="normal" in2="shape" result="effect1_innerShadow_1148_281267"/>
</filter>
<filter id="filter13_i_1148_281267" x="231.778" y="97.4688" width="52.2051" height="37.4766" filterUnits="userSpaceOnUse" color-interpolation-filters="sRGB">
<feFlood flood-opacity="0" result="BackgroundImageFix"/>
<feBlend mode="normal" in="SourceGraphic" in2="BackgroundImageFix" result="shape"/>
<feColorMatrix in="SourceAlpha" type="matrix" values="0 0 0 0 0 0 0 0 0 0 0 0 0 0 0 0 0 0 127 0" result="hardAlpha"/>
<feOffset dx="-8.65945"/>
<feGaussianBlur stdDeviation="5.77297"/>
<feComposite in2="hardAlpha" operator="arithmetic" k2="-1" k3="1"/>
<feColorMatrix type="matrix" values="0 0 0 0 0 0 0 0 0 0 0 0 0 0 0 0 0 0 0.25 0"/>
<feBlend mode="normal" in2="shape" result="effect1_innerShadow_1148_281267"/>
</filter>
<filter id="filter14_i_1148_281267" x="182.614" y="99.832" width="55.4849" height="50.957" filterUnits="userSpaceOnUse" color-interpolation-filters="sRGB">
<feFlood flood-opacity="0" result="BackgroundImageFix"/>
<feBlend mode="normal" in="SourceGraphic" in2="BackgroundImageFix" result="shape"/>
<feColorMatrix in="SourceAlpha" type="matrix" values="0 0 0 0 0 0 0 0 0 0 0 0 0 0 0 0 0 0 127 0" result="hardAlpha"/>
<feOffset dx="-8.65946"/>
<feGaussianBlur stdDeviation="5.77297"/>
<feComposite in2="hardAlpha" operator="arithmetic" k2="-1" k3="1"/>
<feColorMatrix type="matrix" values="0 0 0 0 0 0 0 0 0 0 0 0 0 0 0 0 0 0 0.25 0"/>
<feBlend mode="normal" in2="shape" result="effect1_innerShadow_1148_281267"/>
</filter>
<filter id="filter15_i_1148_281267" x="221.64" y="82.5938" width="42.4894" height="30.7773" filterUnits="userSpaceOnUse" color-interpolation-filters="sRGB">
<feFlood flood-opacity="0" result="BackgroundImageFix"/>
<feBlend mode="normal" in="SourceGraphic" in2="BackgroundImageFix" result="shape"/>
<feColorMatrix in="SourceAlpha" type="matrix" values="0 0 0 0 0 0 0 0 0 0 0 0 0 0 0 0 0 0 127 0" result="hardAlpha"/>
<feOffset dx="-8.65945"/>
<feGaussianBlur stdDeviation="5.77297"/>
<feComposite in2="hardAlpha" operator="arithmetic" k2="-1" k3="1"/>
<feColorMatrix type="matrix" values="0 0 0 0 0 0 0 0 0 0 0 0 0 0 0 0 0 0 0.25 0"/>
<feBlend mode="normal" in2="shape" result="effect1_innerShadow_1148_281267"/>
</filter>
<filter id="filter16_i_1148_281267" x="237.187" y="117.809" width="34.2423" height="37.8867" filterUnits="userSpaceOnUse" color-interpolation-filters="sRGB">
<feFlood flood-opacity="0" result="BackgroundImageFix"/>
<feBlend mode="normal" in="SourceGraphic" in2="BackgroundImageFix" result="shape"/>
<feColorMatrix in="SourceAlpha" type="matrix" values="0 0 0 0 0 0 0 0 0 0 0 0 0 0 0 0 0 0 127 0" result="hardAlpha"/>
<feOffset dx="-8.65945"/>
<feGaussianBlur stdDeviation="5.77297"/>
<feComposite in2="hardAlpha" operator="arithmetic" k2="-1" k3="1"/>
<feColorMatrix type="matrix" values="0 0 0 0 0 0 0 0 0 0 0 0 0 0 0 0 0 0 0.25 0"/>
<feBlend mode="normal" in2="shape" result="effect1_innerShadow_1148_281267"/>
</filter>
<filter id="filter17_i_1148_281267" x="258.031" y="77.3028" width="11.5385" height="12.8769" filterUnits="userSpaceOnUse" color-interpolation-filters="sRGB">
<feFlood flood-opacity="0" result="BackgroundImageFix"/>
<feBlend mode="normal" in="SourceGraphic" in2="BackgroundImageFix" result="shape"/>
<feColorMatrix in="SourceAlpha" type="matrix" values="0 0 0 0 0 0 0 0 0 0 0 0 0 0 0 0 0 0 127 0" result="hardAlpha"/>
<feOffset dy="-1.25191"/>
<feGaussianBlur stdDeviation="1.25191"/>
<feComposite in2="hardAlpha" operator="arithmetic" k2="-1" k3="1"/>
<feColorMatrix type="matrix" values="0 0 0 0 0 0 0 0 0 0 0 0 0 0 0 0 0 0 0.45 0"/>
<feBlend mode="normal" in2="shape" result="effect1_innerShadow_1148_281267"/>
</filter>
<filter id="filter18_i_1148_281267" x="279.122" y="93.7051" width="11.5385" height="12.8769" filterUnits="userSpaceOnUse" color-interpolation-filters="sRGB">
<feFlood flood-opacity="0" result="BackgroundImageFix"/>
<feBlend mode="normal" in="SourceGraphic" in2="BackgroundImageFix" result="shape"/>
<feColorMatrix in="SourceAlpha" type="matrix" values="0 0 0 0 0 0 0 0 0 0 0 0 0 0 0 0 0 0 127 0" result="hardAlpha"/>
<feOffset dy="-1.25191"/>
<feGaussianBlur stdDeviation="1.25191"/>
<feComposite in2="hardAlpha" operator="arithmetic" k2="-1" k3="1"/>
<feColorMatrix type="matrix" values="0 0 0 0 0 0 0 0 0 0 0 0 0 0 0 0 0 0 0.45 0"/>
<feBlend mode="normal" in2="shape" result="effect1_innerShadow_1148_281267"/>
</filter>
<filter id="filter19_i_1148_281267" x="267.405" y="112.455" width="11.5385" height="12.8769" filterUnits="userSpaceOnUse" color-interpolation-filters="sRGB">
<feFlood flood-opacity="0" result="BackgroundImageFix"/>
<feBlend mode="normal" in="SourceGraphic" in2="BackgroundImageFix" result="shape"/>
<feColorMatrix in="SourceAlpha" type="matrix" values="0 0 0 0 0 0 0 0 0 0 0 0 0 0 0 0 0 0 127 0" result="hardAlpha"/>
<feOffset dy="-1.25191"/>
<feGaussianBlur stdDeviation="1.25191"/>
<feComposite in2="hardAlpha" operator="arithmetic" k2="-1" k3="1"/>
<feColorMatrix type="matrix" values="0 0 0 0 0 0 0 0 0 0 0 0 0 0 0 0 0 0 0.45 0"/>
<feBlend mode="normal" in2="shape" result="effect1_innerShadow_1148_281267"/>
</filter>
<filter id="filter20_i_1148_281267" x="246.314" y="104.252" width="11.5385" height="12.8769" filterUnits="userSpaceOnUse" color-interpolation-filters="sRGB">
<feFlood flood-opacity="0" result="BackgroundImageFix"/>
<feBlend mode="normal" in="SourceGraphic" in2="BackgroundImageFix" result="shape"/>
<feColorMatrix in="SourceAlpha" type="matrix" values="0 0 0 0 0 0 0 0 0 0 0 0 0 0 0 0 0 0 127 0" result="hardAlpha"/>
<feOffset dy="-1.25191"/>
<feGaussianBlur stdDeviation="1.25191"/>
<feComposite in2="hardAlpha" operator="arithmetic" k2="-1" k3="1"/>
<feColorMatrix type="matrix" values="0 0 0 0 0 0 0 0 0 0 0 0 0 0 0 0 0 0 0.45 0"/>
<feBlend mode="normal" in2="shape" result="effect1_innerShadow_1148_281267"/>
</filter>
<filter id="filter21_i_1148_281267" x="231.082" y="89.0215" width="11.5385" height="12.8769" filterUnits="userSpaceOnUse" color-interpolation-filters="sRGB">
<feFlood flood-opacity="0" result="BackgroundImageFix"/>
<feBlend mode="normal" in="SourceGraphic" in2="BackgroundImageFix" result="shape"/>
<feColorMatrix in="SourceAlpha" type="matrix" values="0 0 0 0 0 0 0 0 0 0 0 0 0 0 0 0 0 0 127 0" result="hardAlpha"/>
<feOffset dy="-1.25191"/>
<feGaussianBlur stdDeviation="1.25191"/>
<feComposite in2="hardAlpha" operator="arithmetic" k2="-1" k3="1"/>
<feColorMatrix type="matrix" values="0 0 0 0 0 0 0 0 0 0 0 0 0 0 0 0 0 0 0.45 0"/>
<feBlend mode="normal" in2="shape" result="effect1_innerShadow_1148_281267"/>
</filter>
<filter id="filter22_i_1148_281267" x="214.678" y="77.3028" width="11.5385" height="12.8769" filterUnits="userSpaceOnUse" color-interpolation-filters="sRGB">
<feFlood flood-opacity="0" result="BackgroundImageFix"/>
<feBlend mode="normal" in="SourceGraphic" in2="BackgroundImageFix" result="shape"/>
<feColorMatrix in="SourceAlpha" type="matrix" values="0 0 0 0 0 0 0 0 0 0 0 0 0 0 0 0 0 0 127 0" result="hardAlpha"/>
<feOffset dy="-1.25191"/>
<feGaussianBlur stdDeviation="1.25191"/>
<feComposite in2="hardAlpha" operator="arithmetic" k2="-1" k3="1"/>
<feColorMatrix type="matrix" values="0 0 0 0 0 0 0 0 0 0 0 0 0 0 0 0 0 0 0.45 0"/>
<feBlend mode="normal" in2="shape" result="effect1_innerShadow_1148_281267"/>
</filter>
<filter id="filter23_i_1148_281267" x="190.072" y="79.6465" width="11.5385" height="12.8769" filterUnits="userSpaceOnUse" color-interpolation-filters="sRGB">
<feFlood flood-opacity="0" result="BackgroundImageFix"/>
<feBlend mode="normal" in="SourceGraphic" in2="BackgroundImageFix" result="shape"/>
<feColorMatrix in="SourceAlpha" type="matrix" values="0 0 0 0 0 0 0 0 0 0 0 0 0 0 0 0 0 0 127 0" result="hardAlpha"/>
<feOffset dy="-1.25191"/>
<feGaussianBlur stdDeviation="1.25191"/>
<feComposite in2="hardAlpha" operator="arithmetic" k2="-1" k3="1"/>
<feColorMatrix type="matrix" values="0 0 0 0 0 0 0 0 0 0 0 0 0 0 0 0 0 0 0.45 0"/>
<feBlend mode="normal" in2="shape" result="effect1_innerShadow_1148_281267"/>
</filter>
<filter id="filter24_i_1148_281267" x="183.042" y="93.7051" width="11.5385" height="12.8769" filterUnits="userSpaceOnUse" color-interpolation-filters="sRGB">
<feFlood flood-opacity="0" result="BackgroundImageFix"/>
<feBlend mode="normal" in="SourceGraphic" in2="BackgroundImageFix" result="shape"/>
<feColorMatrix in="SourceAlpha" type="matrix" values="0 0 0 0 0 0 0 0 0 0 0 0 0 0 0 0 0 0 127 0" result="hardAlpha"/>
<feOffset dy="-1.25191"/>
<feGaussianBlur stdDeviation="1.25191"/>
<feComposite in2="hardAlpha" operator="arithmetic" k2="-1" k3="1"/>
<feColorMatrix type="matrix" values="0 0 0 0 0 0 0 0 0 0 0 0 0 0 0 0 0 0 0.45 0"/>
<feBlend mode="normal" in2="shape" result="effect1_innerShadow_1148_281267"/>
</filter>
<filter id="filter25_i_1148_281267" x="193.587" y="115.967" width="11.5385" height="12.8769" filterUnits="userSpaceOnUse" color-interpolation-filters="sRGB">
<feFlood flood-opacity="0" result="BackgroundImageFix"/>
<feBlend mode="normal" in="SourceGraphic" in2="BackgroundImageFix" result="shape"/>
<feColorMatrix in="SourceAlpha" type="matrix" values="0 0 0 0 0 0 0 0 0 0 0 0 0 0 0 0 0 0 127 0" result="hardAlpha"/>
<feOffset dy="-1.25191"/>
<feGaussianBlur stdDeviation="1.25191"/>
<feComposite in2="hardAlpha" operator="arithmetic" k2="-1" k3="1"/>
<feColorMatrix type="matrix" values="0 0 0 0 0 0 0 0 0 0 0 0 0 0 0 0 0 0 0.45 0"/>
<feBlend mode="normal" in2="shape" result="effect1_innerShadow_1148_281267"/>
</filter>
<filter id="filter26_i_1148_281267" x="217.021" y="114.795" width="11.5385" height="12.8769" filterUnits="userSpaceOnUse" color-interpolation-filters="sRGB">
<feFlood flood-opacity="0" result="BackgroundImageFix"/>
<feBlend mode="normal" in="SourceGraphic" in2="BackgroundImageFix" result="shape"/>
<feColorMatrix in="SourceAlpha" type="matrix" values="0 0 0 0 0 0 0 0 0 0 0 0 0 0 0 0 0 0 127 0" result="hardAlpha"/>
<feOffset dy="-1.25191"/>
<feGaussianBlur stdDeviation="1.25191"/>
<feComposite in2="hardAlpha" operator="arithmetic" k2="-1" k3="1"/>
<feColorMatrix type="matrix" values="0 0 0 0 0 0 0 0 0 0 0 0 0 0 0 0 0 0 0.45 0"/>
<feBlend mode="normal" in2="shape" result="effect1_innerShadow_1148_281267"/>
</filter>
<filter id="filter27_ii_1148_281267" x="221.065" y="47.676" width="293.047" height="197.241" filterUnits="userSpaceOnUse" color-interpolation-filters="sRGB">
<feFlood flood-opacity="0" result="BackgroundImageFix"/>
<feBlend mode="normal" in="SourceGraphic" in2="BackgroundImageFix" result="shape"/>
<feColorMatrix in="SourceAlpha" type="matrix" values="0 0 0 0 0 0 0 0 0 0 0 0 0 0 0 0 0 0 127 0" result="hardAlpha"/>
<feOffset dx="34.0522" dy="-56.7537"/>
<feGaussianBlur stdDeviation="29.7957"/>
<feComposite in2="hardAlpha" operator="arithmetic" k2="-1" k3="1"/>
<feColorMatrix type="matrix" values="0 0 0 0 0 0 0 0 0 0 0 0 0 0 0 0 0 0 0.25 0"/>
<feBlend mode="normal" in2="shape" result="effect1_innerShadow_1148_281267"/>
<feColorMatrix in="SourceAlpha" type="matrix" values="0 0 0 0 0 0 0 0 0 0 0 0 0 0 0 0 0 0 127 0" result="hardAlpha"/>
<feOffset dx="-22.7015" dy="11.3507"/>
<feGaussianBlur stdDeviation="17.0261"/>
<feComposite in2="hardAlpha" operator="arithmetic" k2="-1" k3="1"/>
<feColorMatrix type="matrix" values="0 0 0 0 1 0 0 0 0 1 0 0 0 0 1 0 0 0 0.25 0"/>
<feBlend mode="normal" in2="effect1_innerShadow_1148_281267" result="effect2_innerShadow_1148_281267"/>
</filter>
<filter id="filter28_df_1148_281267" x="262.886" y="119.977" width="185.669" height="83.3742" filterUnits="userSpaceOnUse" color-interpolation-filters="sRGB">
<feFlood flood-opacity="0" result="BackgroundImageFix"/>
<feColorMatrix in="SourceAlpha" type="matrix" values="0 0 0 0 0 0 0 0 0 0 0 0 0 0 0 0 0 0 127 0" result="hardAlpha"/>
<feOffset dy="5.67537"/>
<feGaussianBlur stdDeviation="2.83768"/>
<feComposite in2="hardAlpha" operator="out"/>
<feColorMatrix type="matrix" values="0 0 0 0 1 0 0 0 0 1 0 0 0 0 1 0 0 0 0.25 0"/>
<feBlend mode="normal" in2="BackgroundImageFix" result="effect1_dropShadow_1148_281267"/>
<feBlend mode="normal" in="SourceGraphic" in2="effect1_dropShadow_1148_281267" result="shape"/>
<feGaussianBlur stdDeviation="0.5" result="effect2_foregroundBlur_1148_281267"/>
</filter>
<filter id="filter29_ii_1148_281267" x="241.68" y="116.716" width="186.911" height="251.071" filterUnits="userSpaceOnUse" color-interpolation-filters="sRGB">
<feFlood flood-opacity="0" result="BackgroundImageFix"/>
<feBlend mode="normal" in="SourceGraphic" in2="BackgroundImageFix" result="shape"/>
<feColorMatrix in="SourceAlpha" type="matrix" values="0 0 0 0 0 0 0 0 0 0 0 0 0 0 0 0 0 0 127 0" result="hardAlpha"/>
<feOffset dx="11.3507" dy="-24.1203"/>
<feGaussianBlur stdDeviation="18.445"/>
<feComposite in2="hardAlpha" operator="arithmetic" k2="-1" k3="1"/>
<feColorMatrix type="matrix" values="0 0 0 0 0 0 0 0 0 0 0 0 0 0 0 0 0 0 0.25 0"/>
<feBlend mode="normal" in2="shape" result="effect1_innerShadow_1148_281267"/>
<feColorMatrix in="SourceAlpha" type="matrix" values="0 0 0 0 0 0 0 0 0 0 0 0 0 0 0 0 0 0 127 0" result="hardAlpha"/>
<feOffset dx="-11.3507" dy="56.7537"/>
<feGaussianBlur stdDeviation="17.0261"/>
<feComposite in2="hardAlpha" operator="arithmetic" k2="-1" k3="1"/>
<feColorMatrix type="matrix" values="0 0 0 0 1 0 0 0 0 1 0 0 0 0 1 0 0 0 0.25 0"/>
<feBlend mode="normal" in2="effect1_innerShadow_1148_281267" result="effect2_innerShadow_1148_281267"/>
</filter>
<filter id="filter30_df_1148_281267" x="276.846" y="150.234" width="110.176" height="119.972" filterUnits="userSpaceOnUse" color-interpolation-filters="sRGB">
<feFlood flood-opacity="0" result="BackgroundImageFix"/>
<feColorMatrix in="SourceAlpha" type="matrix" values="0 0 0 0 0 0 0 0 0 0 0 0 0 0 0 0 0 0 127 0" result="hardAlpha"/>
<feOffset dy="5.67537"/>
<feGaussianBlur stdDeviation="2.83768"/>
<feComposite in2="hardAlpha" operator="out"/>
<feColorMatrix type="matrix" values="0 0 0 0 1 0 0 0 0 1 0 0 0 0 1 0 0 0 0.25 0"/>
<feBlend mode="normal" in2="BackgroundImageFix" result="effect1_dropShadow_1148_281267"/>
<feBlend mode="normal" in="SourceGraphic" in2="effect1_dropShadow_1148_281267" result="shape"/>
<feGaussianBlur stdDeviation="0.5" result="effect2_foregroundBlur_1148_281267"/>
</filter>
<filter id="filter31_ii_1148_281267" x="21.7461" y="139.383" width="231.49" height="201.425" filterUnits="userSpaceOnUse" color-interpolation-filters="sRGB">
<feFlood flood-opacity="0" result="BackgroundImageFix"/>
<feBlend mode="normal" in="SourceGraphic" in2="BackgroundImageFix" result="shape"/>
<feColorMatrix in="SourceAlpha" type="matrix" values="0 0 0 0 0 0 0 0 0 0 0 0 0 0 0 0 0 0 127 0" result="hardAlpha"/>
<feOffset dx="-66.6856"/>
<feGaussianBlur stdDeviation="24.1203"/>
<feComposite in2="hardAlpha" operator="arithmetic" k2="-1" k3="1"/>
<feColorMatrix type="matrix" values="0 0 0 0 0 0 0 0 0 0 0 0 0 0 0 0 0 0 0.15 0"/>
<feBlend mode="normal" in2="shape" result="effect1_innerShadow_1148_281267"/>
<feColorMatrix in="SourceAlpha" type="matrix" values="0 0 0 0 0 0 0 0 0 0 0 0 0 0 0 0 0 0 127 0" result="hardAlpha"/>
<feOffset dx="25.3" dy="2.05"/>
<feGaussianBlur stdDeviation="33.025"/>
<feComposite in2="hardAlpha" operator="arithmetic" k2="-1" k3="1"/>
<feColorMatrix type="matrix" values="0 0 0 0 1 0 0 0 0 1 0 0 0 0 1 0 0 0 0.25 0"/>
<feBlend mode="normal" in2="effect1_innerShadow_1148_281267" result="effect2_innerShadow_1148_281267"/>
</filter>
<filter id="filter32_df_1148_281267" x="90.3237" y="150.238" width="115.176" height="136.112" filterUnits="userSpaceOnUse" color-interpolation-filters="sRGB">
<feFlood flood-opacity="0" result="BackgroundImageFix"/>
<feColorMatrix in="SourceAlpha" type="matrix" values="0 0 0 0 0 0 0 0 0 0 0 0 0 0 0 0 0 0 127 0" result="hardAlpha"/>
<feOffset dy="5.67537"/>
<feGaussianBlur stdDeviation="2.83768"/>
<feComposite in2="hardAlpha" operator="out"/>
<feColorMatrix type="matrix" values="0 0 0 0 1 0 0 0 0 1 0 0 0 0 1 0 0 0 0.25 0"/>
<feBlend mode="normal" in2="BackgroundImageFix" result="effect1_dropShadow_1148_281267"/>
<feBlend mode="normal" in="SourceGraphic" in2="effect1_dropShadow_1148_281267" result="shape"/>
<feGaussianBlur stdDeviation="0.5" result="effect2_foregroundBlur_1148_281267"/>
</filter>
<filter id="filter33_ii_1148_281267" x="136.72" y="100.999" width="222.985" height="330.839" filterUnits="userSpaceOnUse" color-interpolation-filters="sRGB">
<feFlood flood-opacity="0" result="BackgroundImageFix"/>
<feBlend mode="normal" in="SourceGraphic" in2="BackgroundImageFix" result="shape"/>
<feColorMatrix in="SourceAlpha" type="matrix" values="0 0 0 0 0 0 0 0 0 0 0 0 0 0 0 0 0 0 127 0" result="hardAlpha"/>
<feOffset dx="34.0522" dy="-34.0522"/>
<feGaussianBlur stdDeviation="29.7957"/>
<feComposite in2="hardAlpha" operator="arithmetic" k2="-1" k3="1"/>
<feColorMatrix type="matrix" values="0 0 0 0 0 0 0 0 0 0 0 0 0 0 0 0 0 0 0.38 0"/>
<feBlend mode="normal" in2="shape" result="effect1_innerShadow_1148_281267"/>
<feColorMatrix in="SourceAlpha" type="matrix" values="0 0 0 0 0 0 0 0 0 0 0 0 0 0 0 0 0 0 127 0" result="hardAlpha"/>
<feOffset dx="-22.7015" dy="34.0522"/>
<feGaussianBlur stdDeviation="17.0261"/>
<feComposite in2="hardAlpha" operator="arithmetic" k2="-1" k3="1"/>
<feColorMatrix type="matrix" values="0 0 0 0 1 0 0 0 0 1 0 0 0 0 1 0 0 0 0.25 0"/>
<feBlend mode="normal" in2="effect1_innerShadow_1148_281267" result="effect2_innerShadow_1148_281267"/>
</filter>
<filter id="filter34_df_1148_281267" x="231.076" y="137.324" width="20.9655" height="217.194" filterUnits="userSpaceOnUse" color-interpolation-filters="sRGB">
<feFlood flood-opacity="0" result="BackgroundImageFix"/>
<feColorMatrix in="SourceAlpha" type="matrix" values="0 0 0 0 0 0 0 0 0 0 0 0 0 0 0 0 0 0 127 0" result="hardAlpha"/>
<feOffset dy="5.67537"/>
<feGaussianBlur stdDeviation="2.83768"/>
<feComposite in2="hardAlpha" operator="out"/>
<feColorMatrix type="matrix" values="0 0 0 0 1 0 0 0 0 1 0 0 0 0 1 0 0 0 0.25 0"/>
<feBlend mode="normal" in2="BackgroundImageFix" result="effect1_dropShadow_1148_281267"/>
<feBlend mode="normal" in="SourceGraphic" in2="effect1_dropShadow_1148_281267" result="shape"/>
<feGaussianBlur stdDeviation="0.5" result="effect2_foregroundBlur_1148_281267"/>
</filter>
</defs>
</svg>
