<svg width="257" height="231" viewBox="0 0 257 231" fill="none" xmlns="http://www.w3.org/2000/svg">
<rect y="140" width="257" height="91" rx="8" fill="black" fill-opacity="0.12"/>
<rect x="8" y="143" width="241" height="83" rx="3" fill="black" fill-opacity="0.12"/>
<g filter="url(#filter0_i_892_288586)">
<path d="M243.182 121L244.273 197L217 218V146C222.111 130.946 235.059 123.855 243.182 121Z" fill="#9A7858"/>
</g>
<g filter="url(#filter1_i_892_288586)">
<path d="M243.182 193L253 222L217 218C222.111 202.946 235.059 195.855 243.182 193Z" fill="#C8A078"/>
</g>
<g filter="url(#filter2_i_892_288586)">
<path d="M243.182 121L253 150V222L243.182 193V121Z" fill="#D7B99A"/>
</g>
<path opacity="0.5" d="M233.909 212.25C233.658 212.451 235.14 210.057 235.515 209.528C236.742 207.795 238.251 205.73 240.031 204.444C241.893 203.099 243.326 202.174 245.637 201.75" stroke="#A6815E" stroke-width="2" stroke-linecap="round"/>
<path opacity="0.5" d="M242.909 216.5C243.151 216.472 245.439 213.862 245.636 213.5" stroke="#A6815E" stroke-width="2" stroke-linecap="round"/>
<path opacity="0.5" d="M232 217.5C232.441 216.994 232.436 216.275 232.818 215.75" stroke="#A6815E" stroke-width="2" stroke-linecap="round"/>
<path opacity="0.1" d="M225.728 140C224.957 144.239 223.4 148.325 222.728 152.639C222.358 155.007 222.455 157.389 222.455 159.778C222.455 163.118 221.621 166.422 221.94 169.778C222.245 172.993 223.531 176.038 224.061 179.194C224.56 182.171 226.693 185.23 226.818 188.111C226.88 189.515 227.45 194.461 226.273 195" stroke="#3C2D24" stroke-width="2" stroke-linecap="round"/>
<path opacity="0.1" d="M221.91 202C221.715 197.727 221.91 193.476 221.91 189.5" stroke="#3C2D24" stroke-width="2" stroke-linecap="round"/>
<path opacity="0.1" d="M229 158.5C229 153.571 231.577 148.907 232.242 144.028C232.731 140.445 231.727 136.925 231.727 133.5" stroke="#3C2D24" stroke-width="2" stroke-linecap="round"/>
<path opacity="0.1" d="M235.546 176.5C237.929 173.223 235.365 169.232 236.061 165.722C237.012 160.926 235.551 156.266 237.182 151.5C238.88 146.54 239.534 141.246 238.819 136C238.478 133.501 238.819 130.005 238.819 127.5" stroke="#3C2D24" stroke-width="2" stroke-linecap="round"/>
<g filter="url(#filter3_i_892_288586)">
<path d="M3 146C3 136.611 10.6112 129 20 129C29.3888 129 37 136.611 37 146V204H3V146Z" fill="#9A7858"/>
</g>
<circle cx="20" cy="205" r="16.0714" fill="#C8A078" stroke="#82644D" stroke-width="2.14286"/>
<path opacity="0.5" d="M11 205.742C12.1214 204.413 12.7374 202.257 13.6871 200.709C14.8082 198.882 17.5922 198.034 19.3837 198.001C22.8727 197.939 26.3815 199.872 29.1915 202.27C31.2985 204.068 31.266 207.545 30.5888 210.154C29.9928 212.45 28.7525 213.454 26.8269 214.056C25.1071 214.594 23.774 214.916 21.9633 214.916C20.6159 214.916 18.4724 215.286 17.1937 214.47C15.2332 213.219 13.8855 211.248 14.6276 208.609" stroke="#A6815E" stroke-width="2" stroke-linecap="round"/>
<path opacity="0.5" d="M19.1925 208.937C19.1161 207.286 18.6299 205.722 19.5769 204.812C21.3284 203.13 22.4903 204.332 24.2558 205.958C25.1919 206.821 26.3968 207.621 25.8728 210.169C25.7435 210.798 23.6094 211 23.2484 211" stroke="#A6815E" stroke-width="2" stroke-linecap="round"/>
<path opacity="0.5" d="M16.5 203C16.5793 202.286 17.7443 202.003 18.25 201.75" stroke="#A6815E" stroke-width="2" stroke-linecap="round"/>
<path opacity="0.1" d="M9.52737 137C9.52737 139 9.11231 143.035 8.49959 145.111C7.74495 147.669 9.75861 150.174 9.52737 152.833C9.01624 158.711 6.15272 163.523 8.38848 168.889C10.1155 173.034 10.4996 180 10.4996 184" stroke="#3C2D24" stroke-width="2" stroke-linecap="round"/>
<path opacity="0.1" d="M19.5005 184C20.5005 178 14.6169 169.247 14.5005 163.889C14.4481 161.479 13.6163 157.006 15.0005 154.889C18.0057 150.293 15.0005 137.402 15.0005 132.5" stroke="#3C2D24" stroke-width="2" stroke-linecap="round"/>
<path opacity="0.1" d="M26.9998 173C26.3889 165.058 27.4998 157.453 27.4998 149.5C27.4998 145.333 27.4998 137.167 27.4998 133" stroke="#3C2D24" stroke-width="2" stroke-linecap="round"/>
<path opacity="0.1" d="M20 134C20 136.227 21.4208 138.314 21.5 140.611C21.5478 141.996 21.5 143.392 21.5 144.778C21.5 147.852 20.1969 151.795 22 154.5" stroke="#3C2D24" stroke-width="2" stroke-linecap="round"/>
<path opacity="0.1" d="M33.5 191C34.4822 187.685 32.9811 182.167 34.3889 179C35.1535 177.28 34.5 173.849 34.5 172C34.5 170.32 34.5645 168.02 33.8889 166.5C32.9088 164.295 33.5 162.503 33.5 160.5" stroke="#3C2D24" stroke-width="2" stroke-linecap="round"/>
<path opacity="0.1" d="M32 147C32 144.689 32.5 142.41 32.5 140" stroke="#3C2D24" stroke-width="2" stroke-linecap="round"/>
<path opacity="0.1" d="M5.50035 179.5C5.00037 184.5 6.00035 189.381 6.00035 191.5" stroke="#3C2D24" stroke-width="2" stroke-linecap="round"/>
<g filter="url(#filter4_i_892_288586)">
<path d="M71 131.5C71 126.253 75.2533 122 80.5 122C85.7467 122 90 126.253 90 131.5V210.857H71V131.5Z" fill="#9A7858"/>
</g>
<path d="M80.5 202.245C85.4801 202.245 89.4941 206.37 89.4941 211.428C89.4941 216.487 85.4802 220.612 80.5 220.612C75.5196 220.612 71.5049 216.488 71.5049 211.428C71.505 206.369 75.5197 202.245 80.5 202.245Z" fill="#C8A078" stroke="#82644D" stroke-width="1.22449"/>
<path opacity="0.5" d="M75.4707 211.853C76.0974 211.093 76.4416 209.861 76.9723 208.977C77.5988 207.932 79.1546 207.448 80.1557 207.429C82.1054 207.394 84.0663 208.498 85.6366 209.868C86.814 210.896 86.7958 212.883 86.4174 214.374C86.0843 215.686 85.3912 216.259 84.3152 216.603C83.3541 216.911 82.6091 217.095 81.5972 217.095C80.8443 217.095 79.6465 217.306 78.9319 216.84C77.8363 216.125 77.0832 214.999 77.4979 213.491" stroke="#A6815E" stroke-width="1.14286" stroke-linecap="round"/>
<path opacity="0.5" d="M80.049 213.679C80.0063 212.735 79.7346 211.841 80.2638 211.321C81.2425 210.36 81.8919 211.047 82.8785 211.976C83.4016 212.469 84.0749 212.926 83.7821 214.382C83.7098 214.742 82.5172 214.857 82.3155 214.857" stroke="#A6815E" stroke-width="1.14286" stroke-linecap="round"/>
<path opacity="0.5" d="M78.5439 210.286C78.5883 209.878 79.2393 209.716 79.5219 209.572" stroke="#A6815E" stroke-width="1.14286" stroke-linecap="round"/>
<path opacity="0.1" d="M74.6483 126.572C74.6483 129.672 74.4164 135.926 74.074 139.145C73.6523 143.109 74.7775 146.993 74.6483 151.116C74.3627 160.227 72.7625 167.686 74.0119 176.004C74.977 182.429 75.1916 193.228 75.1916 199.429" stroke="#3C2D24" stroke-width="1.14286" stroke-linecap="round"/>
<path opacity="0.1" d="M80.2209 199.429C80.7797 190.641 77.4919 177.82 77.4268 169.973C77.3975 166.444 76.9327 159.892 77.7062 156.791C79.3856 150.06 77.7062 131.179 77.7062 124" stroke="#3C2D24" stroke-width="1.14286" stroke-linecap="round"/>
<path opacity="0.1" d="M84.4121 193.143C84.0707 179.47 84.6915 166.38 84.6915 152.689C84.6915 145.517 84.6915 131.458 84.6915 124.286" stroke="#3C2D24" stroke-width="1.14286" stroke-linecap="round"/>
<path opacity="0.1" d="M80.5 124.857C80.5 131.126 81.294 137.003 81.3382 143.47C81.3649 147.369 81.3382 151.298 81.3382 155.2C81.3382 163.854 80.61 174.957 81.6176 182.571" stroke="#3C2D24" stroke-width="1.14286" stroke-linecap="round"/>
<path opacity="0.1" d="M88.0441 203.429C88.5929 196.535 87.7541 185.06 88.5408 178.473C88.9681 174.895 88.6029 167.76 88.6029 163.916C88.6029 160.422 88.6389 155.639 88.2614 152.478C87.7137 147.892 88.0441 144.165 88.0441 140" stroke="#3C2D24" stroke-width="1.14286" stroke-linecap="round"/>
<path opacity="0.1" d="M87.2061 178.286C87.2061 161.776 87.4855 145.502 87.4855 128.286" stroke="#3C2D24" stroke-width="1.14286" stroke-linecap="round"/>
<path opacity="0.1" d="M72.3966 150.857C72.1172 172.881 72.676 194.383 72.676 203.714" stroke="#3C2D24" stroke-width="1.14286" stroke-linecap="round"/>
<g filter="url(#filter5_ii_892_288586)">
<path d="M157 173V100L194 142V214L184 217.5L157 173Z" fill="#D7B99A"/>
</g>
<g filter="url(#filter6_i_892_288586)">
<path d="M128 221L157 172L194 214C173.217 225.348 139 225.728 128 221Z" fill="#C8A078"/>
</g>
<g filter="url(#filter7_ii_892_288586)">
<path d="M128 149L157 100V172.5L128 221V149Z" fill="#D7B99A"/>
</g>
<path opacity="0.5" d="M135.75 210.75C139.824 210.75 143.898 210.75 147.972 210.75C152.892 210.75 157.955 211.088 162.861 210.625C165.585 210.368 168.449 210.274 170.986 209.111C172.313 208.503 173.64 207.703 175 207.25" stroke="#A6815E" stroke-width="2" stroke-linecap="round"/>
<path opacity="0.5" d="M151.25 201.25C154.3 201.792 157.629 201.945 160.722 202C163.241 202.045 165.654 201.93 168.125 201.5C170.771 201.04 173.047 199.568 175.5 198.75" stroke="#A6815E" stroke-width="2" stroke-linecap="round"/>
<path opacity="0.5" d="M162.75 193.5C159.469 193.5 156.016 194.187 152.75 193.694C151.031 193.435 149.225 192.75 147.5 192.75" stroke="#A6815E" stroke-width="2" stroke-linecap="round"/>
<path opacity="0.5" d="M157.75 186.5C159.49 186.5 161.358 187.121 163.056 186.556C163.734 186.33 164.586 185.75 165.25 185.75" stroke="#A6815E" stroke-width="2" stroke-linecap="round"/>
<path opacity="0.5" d="M167 193C167.615 192.675 168.94 192.371 169.25 191.75" stroke="#A6815E" stroke-width="2" stroke-linecap="round"/>
<path opacity="0.5" d="M178.5 205.5C178.994 205.438 179.647 204.603 180 204.25" stroke="#A6815E" stroke-width="2" stroke-linecap="round"/>
<path opacity="0.25" d="M135.5 195C135.5 188.277 135 181.617 135 174.889C135 172.794 135.204 170.585 134.972 168.5C134.806 167.007 133.675 165.836 134.028 164.25C134.538 161.952 136 159.957 136 157.5C136 155.294 135.5 152.954 135.5 151" stroke="#A6815E" stroke-width="2" stroke-linecap="round"/>
<path opacity="0.25" d="M141 137C141 147.951 142.404 159.094 140.472 169.722C139.915 172.786 140.315 174.793 140.972 177.75C141.689 180.976 140.03 185.061 141.5 188" stroke="#A6815E" stroke-width="2" stroke-linecap="round"/>
<path opacity="0.25" d="M150 166C150.324 169.562 151.029 171.249 148.389 173.889C147.735 174.543 147 178.512 147 179.5" stroke="#A6815E" stroke-width="2" stroke-linecap="round"/>
<path opacity="0.25" d="M163 129.5C161.315 129.289 161 122.841 161 121.5C161 119.165 160.488 116.024 161.5 114" stroke="#A6815E" stroke-width="2" stroke-linecap="round"/>
<path opacity="0.25" d="M170.5 123.5C175.248 134.578 168 144.825 168 155.806C168 159.964 168.5 164.027 168.5 168.111C168.5 171.831 167.5 175.408 167.5 179" stroke="#A6815E" stroke-width="2" stroke-linecap="round"/>
<path opacity="0.25" d="M174.5 164C174.5 160.277 172.094 155.294 173.612 151.5C175.092 147.798 177.5 151.853 177.5 154" stroke="#A6815E" stroke-width="2" stroke-linecap="round"/>
<path opacity="0.25" d="M179.5 163C179.5 166.489 178.673 170.661 175.75 173C174.848 173.722 175.028 179.923 175 181C174.949 182.997 175 185.002 175 187" stroke="#A6815E" stroke-width="2" stroke-linecap="round"/>
<path opacity="0.25" d="M178.5 142.5C178.716 138.401 180 134.667 180 130.5" stroke="#A6815E" stroke-width="2" stroke-linecap="round"/>
<path opacity="0.25" d="M184.5 137.5C184.5 142.632 182.007 148 183.25 153.222C184.681 159.232 186.5 165.475 186.5 171.75C186.5 179.754 182.5 186.66 182.5 194.5" stroke="#A6815E" stroke-width="2" stroke-linecap="round"/>
<g filter="url(#filter8_i_892_288586)">
<path d="M179 104.196C202.304 96.9815 233.67 108.886 242.5 120.477L242 190.1L179 174.1L179 104.196Z" fill="#9A7858"/>
</g>
<g filter="url(#filter9_i_892_288586)">
<path d="M242 190.103L198.5 220.103L179 174.103C202.304 166.889 233.17 178.512 242 190.103Z" fill="#C8A078"/>
</g>
<path opacity="0.5" d="M188.318 184.6C189.072 184.563 189.716 184.313 190.429 184.1C191.769 183.701 193.259 183.85 194.638 183.85C197.841 183.85 201.046 183.754 204.179 184.545C207.429 185.365 210.861 185.855 213.943 187.212C216.018 188.124 218.28 188.93 220.429 189.684C222.127 190.279 224.536 191.293 225.763 192.656C226.376 193.337 227.42 194.053 227.818 194.85" stroke="#A6815E" stroke-width="2" stroke-linecap="round"/>
<path opacity="0.5" d="M223.318 199.85C220.145 198.264 216.788 196.806 213.374 195.739C211.262 195.079 209.061 194.1 206.818 194.1" stroke="#A6815E" stroke-width="2" stroke-linecap="round"/>
<path opacity="0.5" d="M199.06 203.987C201.686 203.58 204.981 204.781 207.549 205.257C208.772 205.484 209.747 206.117 210.828 206.463" stroke="#A6815E" stroke-width="2" stroke-linecap="round"/>
<path opacity="0.5" d="M201.818 195.1C200.201 195.1 198.598 194.451 197.013 194.156C196.074 193.981 195.025 194.1 194.068 194.1" stroke="#A6815E" stroke-width="2" stroke-linecap="round"/>
<path opacity="0.1" d="M183.818 167.1C182.306 163.132 182.736 156.127 183.818 151.934C184.516 149.228 184.818 146.435 185.429 143.711C186.685 138.116 188.284 132.655 189.207 126.934C190.101 121.39 189.818 115.726 189.818 110.1" stroke="#3C2D24" stroke-width="2" stroke-linecap="round"/>
<path opacity="0.1" d="M183.818 119.6C183.818 117.223 183.318 115.048 183.318 112.878C183.318 111.027 182.444 109.848 183.318 108.1" stroke="#3C2D24" stroke-width="2" stroke-linecap="round"/>
<path opacity="0.1" d="M192.819 142.1C192.169 146.648 190.319 150.867 190.319 155.489C190.319 157.943 190.319 160.397 190.319 162.85C190.319 164.21 190.144 168.013 191.319 168.6" stroke="#3C2D24" stroke-width="2" stroke-linecap="round"/>
<path opacity="0.1" d="M209.818 171.6C209.208 165.501 206.87 159.714 208.568 153.6C210.132 147.972 210.782 142.002 211.929 136.267C212.453 133.649 212.614 131.071 213.596 128.545C214.595 125.976 215.818 123.113 215.818 120.323C215.818 117.415 215.818 114.508 215.818 111.6" stroke="#3C2D24" stroke-width="2" stroke-linecap="round"/>
<path opacity="0.1" d="M208.318 131.1C207.688 128.263 207.318 125.337 207.318 122.434C207.318 120.66 206.318 119.094 206.318 117.323C206.318 115.157 205.818 112.876 205.818 110.6" stroke="#3C2D24" stroke-width="2" stroke-linecap="round"/>
<path opacity="0.1" d="M230.318 116.1C231.582 125.581 235.818 135.034 235.818 144.628C235.818 148.792 232.818 152.374 232.818 156.6" stroke="#3C2D24" stroke-width="2" stroke-linecap="round"/>
<path opacity="0.1" d="M228.318 162.6C228.318 165.984 227.818 169.35 227.818 172.767C227.818 174.623 228.318 176.48 228.318 178.1" stroke="#3C2D24" stroke-width="2" stroke-linecap="round"/>
<path opacity="0.1" d="M238.319 178.6C236.863 178.418 238.319 173.214 238.319 172.1C238.319 170.468 237.697 168.928 237.346 167.35C236.67 164.306 236.444 161.35 237.819 158.6" stroke="#3C2D24" stroke-width="2" stroke-linecap="round"/>
<g filter="url(#filter10_i_892_288586)">
<path d="M83 104.196C106.304 96.9815 137.67 108.886 146.5 120.477L146 190.1L83.0001 174.1L83 104.196Z" fill="#9A7858"/>
</g>
<g filter="url(#filter11_i_892_288586)">
<path d="M146 190.103L102.5 220.103L83 174.103C106.304 166.889 137.17 178.512 146 190.103Z" fill="#C8A078"/>
</g>
<path opacity="0.5" d="M92.3184 184.6C93.0722 184.563 93.7157 184.313 94.4295 184.1C95.7692 183.701 97.2589 183.85 98.6378 183.85C101.841 183.85 105.046 183.754 108.179 184.545C111.429 185.365 114.861 185.855 117.943 187.212C120.018 188.124 122.28 188.93 124.429 189.684C126.127 190.279 128.536 191.293 129.763 192.656C130.376 193.337 131.42 194.053 131.818 194.85" stroke="#A6815E" stroke-width="2" stroke-linecap="round"/>
<path opacity="0.5" d="M127.318 199.85C124.145 198.264 120.788 196.806 117.374 195.739C115.262 195.079 113.061 194.1 110.818 194.1" stroke="#A6815E" stroke-width="2" stroke-linecap="round"/>
<path opacity="0.5" d="M103.06 203.987C105.686 203.58 108.981 204.781 111.549 205.257C112.772 205.484 113.747 206.117 114.828 206.463" stroke="#A6815E" stroke-width="2" stroke-linecap="round"/>
<path opacity="0.5" d="M105.818 195.1C104.201 195.1 102.598 194.451 101.013 194.156C100.074 193.981 99.0247 194.1 98.0684 194.1" stroke="#A6815E" stroke-width="2" stroke-linecap="round"/>
<path opacity="0.1" d="M87.8182 167.1C86.3063 163.132 86.7361 156.127 87.8182 151.934C88.5164 149.228 88.8178 146.435 89.4293 143.711C90.6854 138.116 92.2843 132.655 93.207 126.934C94.1012 121.39 93.8182 115.726 93.8182 110.1" stroke="#3C2D24" stroke-width="2" stroke-linecap="round"/>
<path opacity="0.1" d="M87.818 119.6C87.818 117.223 87.318 115.048 87.318 112.878C87.318 111.027 86.4443 109.848 87.318 108.1" stroke="#3C2D24" stroke-width="2" stroke-linecap="round"/>
<path opacity="0.1" d="M96.8187 142.1C96.169 146.648 94.3187 150.867 94.3187 155.489C94.3187 157.943 94.3187 160.397 94.3187 162.85C94.3187 164.21 94.1445 168.013 95.3187 168.6" stroke="#3C2D24" stroke-width="2" stroke-linecap="round"/>
<path opacity="0.1" d="M113.818 171.6C113.208 165.501 110.87 159.714 112.568 153.6C114.132 147.972 114.782 142.002 115.929 136.267C116.453 133.649 116.614 131.071 117.596 128.545C118.595 125.976 119.818 123.113 119.818 120.323C119.818 117.415 119.818 114.508 119.818 111.6" stroke="#3C2D24" stroke-width="2" stroke-linecap="round"/>
<path opacity="0.1" d="M112.318 131.1C111.688 128.263 111.318 125.337 111.318 122.434C111.318 120.66 110.318 119.094 110.318 117.323C110.318 115.157 109.818 112.876 109.818 110.6" stroke="#3C2D24" stroke-width="2" stroke-linecap="round"/>
<path opacity="0.1" d="M134.318 116.1C135.582 125.581 139.818 135.034 139.818 144.628C139.818 148.792 136.818 152.374 136.818 156.6" stroke="#3C2D24" stroke-width="2" stroke-linecap="round"/>
<path opacity="0.1" d="M132.318 162.6C132.318 165.984 131.818 169.35 131.818 172.767C131.818 174.623 132.318 176.48 132.318 178.1" stroke="#3C2D24" stroke-width="2" stroke-linecap="round"/>
<path opacity="0.1" d="M142.319 178.6C140.863 178.418 142.319 173.214 142.319 172.1C142.319 170.468 141.697 168.928 141.346 167.35C140.67 164.306 140.444 161.35 141.819 158.6" stroke="#3C2D24" stroke-width="2" stroke-linecap="round"/>
<g filter="url(#filter12_i_892_288586)">
<path d="M28 186.332L79 173.332L67.0001 224.332C44.4754 217.111 32.1817 197.54 28 186.332Z" fill="#C8A078"/>
</g>
<g filter="url(#filter13_ii_892_288586)">
<path d="M28.6594 114L79.6593 101L79 173.332L28 186.332L28.6594 114Z" fill="#D7B99A"/>
</g>
<path opacity="0.5" d="M58.8184 204.582C55.5189 201.573 51.4126 199.555 47.7628 197.026C46.5693 196.199 45.5015 195.221 44.8045 193.943C44.26 192.945 43.6715 191.958 43.1795 190.929C42.8192 190.176 42.0684 189.455 42.0684 188.582" stroke="#A6815E" stroke-width="2" stroke-linecap="round"/>
<path opacity="0.5" d="M56.5684 190.332C58.0362 192.572 59.6535 194.637 61.4017 196.665C62.2611 197.662 63.1372 198.564 64.4295 198.887C65.7011 199.205 66.8567 199.678 68.0684 200.082" stroke="#A6815E" stroke-width="2" stroke-linecap="round"/>
<path opacity="0.5" d="M67.8184 189.082C65.4796 187.728 64.2879 185.828 62.9295 183.693C62.2683 182.654 62.3298 181.355 61.8184 180.332" stroke="#A6815E" stroke-width="2" stroke-linecap="round"/>
<path opacity="0.5" d="M69.8184 179.832C70.1983 180.212 70.5896 180.624 70.8184 181.082" stroke="#A6815E" stroke-width="2" stroke-linecap="round"/>
<path opacity="0.5" d="M61.3184 206.582C61.8675 207.619 62.903 208.119 63.9434 208.582C64.9223 209.017 65.643 209.869 66.5684 210.332" stroke="#A6815E" stroke-width="2" stroke-linecap="round"/>
<path opacity="0.5" d="M54.5684 185.832C54.5684 184.666 53.2776 183.311 52.3184 182.832" stroke="#A6815E" stroke-width="2" stroke-linecap="round"/>
<path opacity="0.25" d="M41.3183 113.832C41.3183 117.485 39.2964 121.333 38.1238 124.721C37.2712 127.184 35.9459 131.166 37.6516 133.554C41.1737 138.485 41.8183 144.687 41.8183 150.554C41.8183 155.283 41.3183 159.88 41.3183 164.61C41.3183 168.377 41.8183 172.087 41.8183 175.832" stroke="#A6815E" stroke-width="2" stroke-linecap="round"/>
<path opacity="0.25" d="M48.8184 134.332C48.8184 131.388 49.195 129.349 46.5406 127.832C44.1972 126.493 42.3184 126.859 42.3184 129.832" stroke="#A6815E" stroke-width="2" stroke-linecap="round"/>
<path opacity="0.25" d="M54.3179 126.832C54.3179 124.489 53.6987 121.374 54.3457 119.11C54.7251 117.782 55.3179 115.731 55.3179 114.332" stroke="#A6815E" stroke-width="2" stroke-linecap="round"/>
<path opacity="0.25" d="M62.8186 112.832C61.7397 117.039 60.3031 121.135 59.0963 125.304C58.462 127.495 57.3546 129.715 56.8186 131.86C55.2091 138.297 55.9945 144.304 58.0963 150.61C60.2231 156.99 60.8186 164.17 60.8186 170.832" stroke="#A6815E" stroke-width="2" stroke-linecap="round"/>
<path opacity="0.25" d="M66.8184 159.332C66.6675 158.125 65.6107 156.833 65.3461 155.554C64.8983 153.389 64.3184 151.326 64.3184 149.11C64.3184 147.283 64.8184 145.487 64.8184 143.832" stroke="#A6815E" stroke-width="2" stroke-linecap="round"/>
<path opacity="0.25" d="M64.8184 135.332C67.2189 132.665 65.826 127.218 67.5684 124.082C68.8421 121.789 67.8184 116.138 67.8184 113.332" stroke="#A6815E" stroke-width="2" stroke-linecap="round"/>
<path opacity="0.25" d="M74.8184 122.832C74.602 124.779 73.8184 126.573 73.8184 128.61C73.8184 132.081 74.0253 135.589 74.7072 138.998C75.6801 143.863 75.8184 149.13 75.8184 154.082C75.8184 155.94 75.3703 157.797 74.9295 159.61C74.5212 161.288 72.8184 162.884 72.8184 164.582C72.8184 166.408 72.3184 168.74 72.3184 170.832" stroke="#A6815E" stroke-width="2" stroke-linecap="round"/>
<path d="M47.0069 180.955L14.8396 184.62C13.0597 184.822 11.5 183.43 11.5 181.639V131.5L15.5 131L53 137L227.566 111.502C229.377 111.237 231 112.641 231 114.47V174.91C231 176.937 229.032 178.381 227.099 177.772L204 170.5L196.19 168.715C190.251 167.357 184.054 169.47 180.181 174.173C179.762 174.682 179.657 175.381 179.908 175.991L182.97 183.427C184.078 186.118 181.091 188.652 178.617 187.12L161.945 176.799C157.405 173.989 152.172 172.5 146.832 172.5C144.618 172.5 142.412 172.756 140.256 173.263L129.621 175.766C127.571 176.248 125.435 176.225 123.395 175.699L112.479 172.882C111.498 172.629 110.559 172.235 109.691 171.714L107.07 170.142C104.918 168.851 102.195 169.015 100.214 170.556C99.4172 171.175 98.4786 171.587 97.4829 171.753L96.4622 171.923C94.2209 172.297 91.9192 171.897 89.9351 170.789L76.2425 163.147C73.1774 161.436 69.6111 160.85 66.1596 161.489C61.0799 162.43 56.8367 165.908 54.9181 170.705L52.4926 176.768C51.5733 179.067 49.4663 180.675 47.0069 180.955Z" fill="black" fill-opacity="0.2"/>
<g filter="url(#filter14_i_892_288586)">
<path d="M106 98C106 88.6112 113.611 81 123 81C132.389 81 140 88.6112 140 98V156H106V98Z" fill="#9A7858"/>
</g>
<circle cx="123" cy="157" r="16.0714" fill="#C8A078" stroke="#82644D" stroke-width="2.14286"/>
<path opacity="0.5" d="M114 157.742C115.121 156.413 115.737 154.257 116.687 152.709C117.808 150.882 120.592 150.034 122.384 150.001C125.873 149.939 129.382 151.872 132.192 154.27C134.298 156.068 134.266 159.545 133.589 162.154C132.993 164.45 131.753 165.454 129.827 166.056C128.107 166.594 126.774 166.916 124.963 166.916C123.616 166.916 121.472 167.286 120.194 166.47C118.233 165.219 116.885 163.248 117.628 160.609" stroke="#A6815E" stroke-width="2" stroke-linecap="round"/>
<path opacity="0.5" d="M122.192 160.937C122.116 159.286 121.63 157.722 122.577 156.812C124.328 155.13 125.49 156.332 127.256 157.958C128.192 158.821 129.397 159.621 128.873 162.169C128.744 162.798 126.609 163 126.248 163" stroke="#A6815E" stroke-width="2" stroke-linecap="round"/>
<path opacity="0.5" d="M119.5 155C119.579 154.286 120.744 154.003 121.25 153.75" stroke="#A6815E" stroke-width="2" stroke-linecap="round"/>
<path opacity="0.1" d="M112.527 89C112.527 91 112.112 95.0347 111.5 97.1111C110.745 99.6685 112.759 102.174 112.527 104.833C112.016 110.711 109.153 115.523 111.388 120.889C113.115 125.034 113.5 132 113.5 136" stroke="#3C2D24" stroke-width="2" stroke-linecap="round"/>
<path opacity="0.1" d="M122.5 136C123.5 130 117.617 121.247 117.5 115.889C117.448 113.479 116.616 109.006 118 106.889C121.006 102.293 118 89.4017 118 84.5" stroke="#3C2D24" stroke-width="2" stroke-linecap="round"/>
<path opacity="0.1" d="M130 125C129.389 117.058 130.5 109.453 130.5 101.5C130.5 97.3333 130.5 89.1667 130.5 85" stroke="#3C2D24" stroke-width="2" stroke-linecap="round"/>
<path opacity="0.1" d="M123 86C123 88.2268 124.421 90.3142 124.5 92.6111C124.548 93.996 124.5 95.3918 124.5 96.7778C124.5 99.8515 123.197 103.795 125 106.5" stroke="#3C2D24" stroke-width="2" stroke-linecap="round"/>
<path opacity="0.1" d="M136.5 143C137.482 139.685 135.981 134.167 137.389 131C138.154 129.28 137.5 125.849 137.5 124C137.5 122.32 137.564 120.02 136.889 118.5C135.909 116.295 136.5 114.503 136.5 112.5" stroke="#3C2D24" stroke-width="2" stroke-linecap="round"/>
<path opacity="0.1" d="M135 99C135 96.6887 135.5 94.4104 135.5 92" stroke="#3C2D24" stroke-width="2" stroke-linecap="round"/>
<path opacity="0.1" d="M108.5 131.5C108 136.5 109 141.381 109 143.5" stroke="#3C2D24" stroke-width="2" stroke-linecap="round"/>
<path d="M228.976 160L216.992 122.5L216.993 51C225.75 62.7488 228.84 75.9134 228.976 87V160Z" fill="#9A7858"/>
<g filter="url(#filter15_ii_892_288586)">
<path d="M216.992 123L208 158.5L183 161V88.8839L216.992 51V123Z" fill="#D7B99A"/>
</g>
<g filter="url(#filter16_i_892_288586)">
<path d="M226.542 176.175L183 161L216.992 123C231.091 141.915 230.5 164.5 226.542 176.175Z" fill="#C8A078"/>
</g>
<path opacity="0.5" d="M209.25 133.75C209.373 134.73 210.715 136.044 211.139 137.014C211.757 138.426 212.325 139.862 213 141.25C214.525 144.384 214.548 147.559 215.556 150.806C216.423 153.601 215.849 157.668 215.056 160.444C214.538 162.255 214.343 164.222 213.75 166" stroke="#A6815E" stroke-width="2" stroke-linecap="round"/>
<path opacity="0.5" d="M206.5 144.75C208.076 146.501 208.017 149.727 208.389 151.903C208.836 154.52 209.47 157.698 208.986 160.361C208.563 162.686 207.466 164.602 206.75 166.75" stroke="#A6815E" stroke-width="2" stroke-linecap="round"/>
<path opacity="0.5" d="M196.5 161.25C196.5 158.91 196.75 156.609 196.75 154.25C196.75 152.486 196.29 151.08 195.5 149.5" stroke="#A6815E" stroke-width="2" stroke-linecap="round"/>
<path opacity="0.5" d="M190.75 162C190.75 161.209 190.5 160.489 190.5 159.75" stroke="#A6815E" stroke-width="2" stroke-linecap="round"/>
<path opacity="0.5" d="M204.75 140.75C204.4 140.706 204.183 140.025 204 139.75" stroke="#A6815E" stroke-width="2" stroke-linecap="round"/>
<path opacity="0.25" d="M185.5 89C185.784 91.8443 186.166 94.5613 185.972 97.4722C185.773 100.453 185.138 103.287 185.778 106.306C186.616 110.259 188.508 113.624 189.889 117.389C190.734 119.695 192.869 122.227 193 124.722C193.246 129.396 192.044 132.476 190.5 136.722C189.156 140.417 188.5 144 188.5 148" stroke="#A6815E" stroke-width="2" stroke-linecap="round"/>
<path opacity="0.25" d="M188 130C188 128.366 188.5 126.759 188.5 125.25C188.5 124.225 187.5 123.585 187.5 122.5" stroke="#A6815E" stroke-width="2" stroke-linecap="round"/>
<path opacity="0.25" d="M193 109.5C192.732 106.289 192 103.421 192 100.167C192 97.1794 192.396 94.3071 192.5 91.3889C192.592 88.8031 193 86.204 193 83.5" stroke="#A6815E" stroke-width="2" stroke-linecap="round"/>
<path opacity="0.25" d="M197 140C194.201 140 194.134 135.244 196 134" stroke="#A6815E" stroke-width="2" stroke-linecap="round"/>
<path opacity="0.25" d="M205 130C205 125.281 204.061 119.349 206.25 114.972C208.394 110.685 208.5 104.706 208.5 100C208.5 97.6062 208.891 94.8067 208.25 92.5C207.537 89.9336 207 87.4381 207 84.75C207 80.8072 206.5 76.6592 206.5 72.5" stroke="#A6815E" stroke-width="2" stroke-linecap="round"/>
<path opacity="0.25" d="M202.5 98C202.5 100.228 202 102.363 202 104.611C202 106.899 202.321 107.231 203.5 109" stroke="#A6815E" stroke-width="2" stroke-linecap="round"/>
<path opacity="0.25" d="M201 83.5C201 79.3864 201.5 75.4887 201.5 71.5" stroke="#A6815E" stroke-width="2" stroke-linecap="round"/>
<path opacity="0.1" d="M220.5 73.5C220.5 83.0647 218.754 93.324 220.473 102.778C221.262 107.119 222.425 116.726 221 121" stroke="#3C2D24" stroke-width="2" stroke-linecap="round"/>
<path opacity="0.1" d="M226.676 100C227.69 107.034 226 113.122 226 119.345C226 124.244 226.338 129.037 226.338 134" stroke="#3C2D24" stroke-width="2" stroke-linecap="round"/>
<path opacity="0.1" d="M225 95.5C225 91.5549 224 87.5602 224 83.5C224 80.7787 225.5 78.3987 225.5 76" stroke="#3C2D24" stroke-width="2" stroke-linecap="round"/>
<path opacity="0.1" d="M220.5 60.5V65.5" stroke="#3C2D24" stroke-width="2" stroke-linecap="round"/>
<g filter="url(#filter17_i_892_288586)">
<path d="M23.8181 81L22.7272 157L50 178V106C44.8887 90.9458 31.9406 83.8553 23.8181 81Z" fill="#9A7858"/>
</g>
<g filter="url(#filter18_i_892_288586)">
<path d="M23.8181 153L14 182L50 178C44.8887 162.946 31.9406 155.855 23.8181 153Z" fill="#C8A078"/>
</g>
<g filter="url(#filter19_ii_892_288586)">
<path d="M23.8183 81L14.0002 110V182L23.8183 153V81Z" fill="#D7B99A"/>
</g>
<path opacity="0.5" d="M33.0907 172.25C33.3416 172.451 31.8598 170.057 31.4846 169.528C30.2576 167.795 28.7492 165.73 26.9695 164.444C25.1067 163.099 23.6741 162.174 21.3634 161.75" stroke="#A6815E" stroke-width="2" stroke-linecap="round"/>
<path opacity="0.5" d="M24.0908 176.5C23.8489 176.472 21.5608 173.862 21.3635 173.5" stroke="#A6815E" stroke-width="2" stroke-linecap="round"/>
<path opacity="0.5" d="M35 177.5C34.5586 176.994 34.5637 176.275 34.1818 175.75" stroke="#A6815E" stroke-width="2" stroke-linecap="round"/>
<path opacity="0.1" d="M41.2724 100C42.0432 104.239 43.6001 108.325 44.2725 112.639C44.6415 115.007 44.5452 117.389 44.5452 119.778C44.5452 123.118 45.3787 126.422 45.0603 129.778C44.7554 132.993 43.4689 136.038 42.9391 139.194C42.4396 142.171 40.3073 145.23 40.1815 148.111C40.1203 149.515 39.55 154.461 40.727 155" stroke="#3C2D24" stroke-width="2" stroke-linecap="round"/>
<path opacity="0.1" d="M45.0904 162C45.2847 157.727 45.0904 153.476 45.0904 149.5" stroke="#3C2D24" stroke-width="2" stroke-linecap="round"/>
<path opacity="0.1" d="M38 118.5C38 113.571 35.4229 108.907 34.7576 104.028C34.269 100.445 35.2727 96.9252 35.2727 93.5" stroke="#3C2D24" stroke-width="2" stroke-linecap="round"/>
<path opacity="0.1" d="M31.4541 136.5C29.0707 133.223 31.6352 129.232 30.9389 125.722C29.9877 120.926 31.4487 116.266 29.8177 111.5C28.1203 106.54 27.466 101.246 28.1814 96C28.5222 93.5009 28.1814 90.0047 28.1814 87.5" stroke="#3C2D24" stroke-width="2" stroke-linecap="round"/>
<g filter="url(#filter20_i_892_288586)">
<path d="M138 144.332L189 131.332L177 182.332C154.475 175.111 142.182 155.54 138 144.332Z" fill="#C8A078"/>
</g>
<g filter="url(#filter21_ii_892_288586)">
<path d="M138.659 72L189.659 59L189 131.332L138 144.332L138.659 72Z" fill="#D7B99A"/>
</g>
<path opacity="0.5" d="M168.818 162.582C165.519 159.573 161.413 157.555 157.763 155.026C156.569 154.199 155.502 153.221 154.804 151.943C154.26 150.945 153.671 149.958 153.179 148.929C152.819 148.176 152.068 147.455 152.068 146.582" stroke="#A6815E" stroke-width="2" stroke-linecap="round"/>
<path opacity="0.5" d="M166.568 148.332C168.036 150.572 169.654 152.637 171.402 154.665C172.261 155.662 173.137 156.564 174.429 156.887C175.701 157.205 176.857 157.678 178.068 158.082" stroke="#A6815E" stroke-width="2" stroke-linecap="round"/>
<path opacity="0.5" d="M177.818 147.082C175.48 145.728 174.288 143.828 172.929 141.693C172.268 140.654 172.33 139.355 171.818 138.332" stroke="#A6815E" stroke-width="2" stroke-linecap="round"/>
<path opacity="0.5" d="M179.818 137.832C180.198 138.212 180.59 138.624 180.818 139.082" stroke="#A6815E" stroke-width="2" stroke-linecap="round"/>
<path opacity="0.5" d="M171.318 164.582C171.867 165.619 172.903 166.119 173.943 166.582C174.922 167.017 175.643 167.869 176.568 168.332" stroke="#A6815E" stroke-width="2" stroke-linecap="round"/>
<path opacity="0.5" d="M164.568 143.832C164.568 142.666 163.278 141.311 162.318 140.832" stroke="#A6815E" stroke-width="2" stroke-linecap="round"/>
<path opacity="0.25" d="M151.318 71.8318C151.318 75.4855 149.296 79.3333 148.124 82.7207C147.271 85.1839 145.946 89.1661 147.652 91.554C151.174 96.485 151.818 102.687 151.818 108.554C151.818 113.283 151.318 117.88 151.318 122.61C151.318 126.377 151.818 130.087 151.818 133.832" stroke="#A6815E" stroke-width="2" stroke-linecap="round"/>
<path opacity="0.25" d="M158.818 92.332C158.818 89.3883 159.195 87.3488 156.541 85.832C154.197 84.4929 152.318 84.8591 152.318 87.832" stroke="#A6815E" stroke-width="2" stroke-linecap="round"/>
<path opacity="0.25" d="M164.318 84.8318C164.318 82.4886 163.699 79.3741 164.346 77.1096C164.725 75.7819 165.318 73.7313 165.318 72.3318" stroke="#A6815E" stroke-width="2" stroke-linecap="round"/>
<path opacity="0.25" d="M172.819 70.8318C171.74 75.0392 170.303 79.1352 169.096 83.304C168.462 85.4955 167.355 87.7155 166.819 89.8596C165.209 96.2973 165.995 102.304 168.096 108.61C170.223 114.99 170.819 122.17 170.819 128.832" stroke="#A6815E" stroke-width="2" stroke-linecap="round"/>
<path opacity="0.25" d="M176.818 117.332C176.668 116.125 175.611 114.833 175.346 113.554C174.898 111.389 174.318 109.326 174.318 107.11C174.318 105.283 174.818 103.487 174.818 101.832" stroke="#A6815E" stroke-width="2" stroke-linecap="round"/>
<path opacity="0.25" d="M174.818 93.3318C177.219 90.6646 175.826 85.2181 177.568 82.0818C178.842 79.789 177.818 74.1381 177.818 71.3318" stroke="#A6815E" stroke-width="2" stroke-linecap="round"/>
<path opacity="0.25" d="M184.818 80.8318C184.602 82.7793 183.818 84.5729 183.818 86.6096C183.818 90.0811 184.025 93.5889 184.707 96.9985C185.68 101.863 185.818 107.13 185.818 112.082C185.818 113.94 185.37 115.797 184.929 117.61C184.521 119.288 182.818 120.884 182.818 122.582C182.818 124.408 182.318 126.74 182.318 128.832" stroke="#A6815E" stroke-width="2" stroke-linecap="round"/>
<g filter="url(#filter22_i_892_288586)">
<path d="M115.5 54.1955C92.196 46.9815 60.83 58.8857 51.9996 70.4775L52.4999 140.1L115.5 124.1L115.5 54.1955Z" fill="#9A7858"/>
</g>
<g filter="url(#filter23_i_892_288586)">
<path d="M52.5 140.103L96.0001 170.103L115.5 124.103C92.196 116.889 61.3304 128.512 52.5 140.103Z" fill="#C8A078"/>
</g>
<path opacity="0.5" d="M106.182 134.6C105.428 134.563 104.784 134.313 104.071 134.1C102.731 133.701 101.241 133.85 99.8622 133.85C96.659 133.85 93.4544 133.754 90.3205 134.545C87.0711 135.365 83.6386 135.855 80.5566 137.212C78.4819 138.124 76.2199 138.93 74.0705 139.684C72.3731 140.279 69.964 141.293 68.7372 142.656C68.1243 143.337 67.0805 144.053 66.6816 144.85" stroke="#A6815E" stroke-width="2" stroke-linecap="round"/>
<path opacity="0.5" d="M71.1816 149.85C74.3546 148.264 77.7122 146.806 81.1261 145.739C83.2377 145.079 85.4385 144.1 87.6816 144.1" stroke="#A6815E" stroke-width="2" stroke-linecap="round"/>
<path opacity="0.5" d="M95.4404 153.987C92.8141 153.58 89.5189 154.781 86.9512 155.257C85.7284 155.484 84.7532 156.117 83.672 156.463" stroke="#A6815E" stroke-width="2" stroke-linecap="round"/>
<path opacity="0.5" d="M92.6816 145.1C94.2995 145.1 95.9022 144.451 97.4872 144.156C98.4256 143.981 99.4753 144.1 100.432 144.1" stroke="#A6815E" stroke-width="2" stroke-linecap="round"/>
<path opacity="0.1" d="M110.682 117.1C112.194 113.132 111.764 106.127 110.682 101.934C109.984 99.2278 109.682 96.4352 109.071 93.7115C107.815 88.1159 106.216 82.655 105.293 76.9337C104.399 71.3898 104.682 65.726 104.682 60.1003" stroke="#3C2D24" stroke-width="2" stroke-linecap="round"/>
<path opacity="0.1" d="M110.682 69.6003C110.682 67.223 111.182 65.0485 111.182 62.8781C111.182 61.027 112.056 59.8478 111.182 58.1003" stroke="#3C2D24" stroke-width="2" stroke-linecap="round"/>
<path opacity="0.1" d="M101.681 92.1003C102.331 96.6481 104.181 100.867 104.181 105.489C104.181 107.943 104.181 110.397 104.181 112.85C104.181 114.21 104.356 118.013 103.181 118.6" stroke="#3C2D24" stroke-width="2" stroke-linecap="round"/>
<path opacity="0.1" d="M84.6817 121.6C85.2916 115.501 87.6299 109.714 85.9317 103.6C84.3683 97.9718 83.7175 92.0015 82.5706 86.267C82.047 83.6489 81.8863 81.0709 80.904 78.5448C79.9049 75.9759 78.6817 73.1129 78.6817 70.3226C78.6817 67.4152 78.6817 64.5077 78.6817 61.6003" stroke="#3C2D24" stroke-width="2" stroke-linecap="round"/>
<path opacity="0.1" d="M86.1816 81.1003C86.8122 78.2629 87.1816 75.3374 87.1816 72.4337C87.1816 70.6599 88.1816 69.0937 88.1816 67.3226C88.1816 65.1568 88.6816 62.8756 88.6816 60.6003" stroke="#3C2D24" stroke-width="2" stroke-linecap="round"/>
<path opacity="0.1" d="M64.1816 66.1003C62.9175 75.5813 58.6816 85.0335 58.6816 94.6281C58.6816 98.792 61.6816 102.374 61.6816 106.6" stroke="#3C2D24" stroke-width="2" stroke-linecap="round"/>
<path opacity="0.1" d="M66.1816 112.6C66.1816 115.984 66.6816 119.35 66.6816 122.767C66.6816 124.623 66.1816 126.48 66.1816 128.1" stroke="#3C2D24" stroke-width="2" stroke-linecap="round"/>
<path opacity="0.1" d="M56.1814 128.6C57.6375 128.418 56.1814 123.214 56.1814 122.1C56.1814 120.468 56.803 118.928 57.1536 117.35C57.8301 114.306 58.056 111.35 56.6814 108.6" stroke="#3C2D24" stroke-width="2" stroke-linecap="round"/>
<g filter="url(#filter24_i_892_288586)">
<path d="M115 121L153 100L144.945 140.817C129.3 138.791 119.082 127.854 115 121Z" fill="#C8A078"/>
</g>
<g filter="url(#filter25_ii_892_288586)">
<path d="M115 49L153 28L153 100L115 121L115 49Z" fill="#D7B99A"/>
</g>
<path opacity="0.5" d="M133.318 116.25C134.117 117.138 134.564 118.413 135.263 119.389C136.637 121.308 138.507 122.768 140.318 124.25C141.801 125.463 144.022 127.25 146.068 127.25" stroke="#A6815E" stroke-width="2" stroke-linecap="round"/>
<path opacity="0.5" d="M141.818 110C142.907 111.198 143.651 112.291 145.068 113" stroke="#A6815E" stroke-width="2" stroke-linecap="round"/>
<path opacity="0.5" d="M140.318 116C142.019 117.701 143.95 118.75 146.318 118.75" stroke="#A6815E" stroke-width="2" stroke-linecap="round"/>
<path opacity="0.25" d="M126.318 48C126.318 52.8835 125.783 58.0652 126.707 62.8889C127.202 65.4722 127.985 68.1586 128.29 70.75C128.664 73.929 129.318 77.3593 129.318 80.5" stroke="#A6815E" stroke-width="2" stroke-linecap="round"/>
<path opacity="0.25" d="M135.818 95.5C135.818 89.1104 137.318 82.8005 137.318 76.3333C137.318 72.3763 136.818 68.4758 136.818 64.5C136.818 61.6459 137.968 59.6497 138.346 57C138.719 54.391 138.194 52.1279 137.318 49.5" stroke="#A6815E" stroke-width="2" stroke-linecap="round"/>
<path opacity="0.25" d="M131.318 63.9999C130.132 62.945 129.318 61.9283 129.318 60.2222C129.318 59.1109 131.313 55.4896 132.318 57.4999" stroke="#A6815E" stroke-width="2" stroke-linecap="round"/>
<path opacity="0.25" d="M143.318 38C145.106 44.0337 145.318 58 143.318 68.5C143.448 82.4771 145.318 94.6439 145.318 99.5" stroke="#A6815E" stroke-width="2" stroke-linecap="round"/>
<path opacity="0.25" d="M127.318 109.5C128.523 107.844 127.62 104.751 127.929 102.778C128.256 100.698 128.372 98.9512 129.068 97C130.229 93.7505 128.818 91.683 128.818 88.5" stroke="#A6815E" stroke-width="2" stroke-linecap="round"/>
<g filter="url(#filter26_i_892_288586)">
<path d="M58 71C58 61.6112 50.3888 54 41 54C31.6112 54 24 61.6112 24 71V138H58V71Z" fill="#9A7858"/>
</g>
<circle cx="15" cy="15" r="16.0714" transform="matrix(-1 0 0 1 56 124)" fill="#C8A078" stroke="#82644D" stroke-width="2.14286"/>
<path opacity="0.5" d="M50 139.742C48.8786 138.413 48.2626 136.257 47.3129 134.709C46.1918 132.882 43.4078 132.034 41.6163 132.001C38.1273 131.939 34.6185 133.872 31.8085 136.27C29.7015 138.068 29.734 141.545 30.4112 144.154C31.0072 146.45 32.2475 147.454 34.1731 148.056C35.8929 148.594 37.226 148.916 39.0367 148.916C40.3841 148.916 42.5276 149.286 43.8063 148.47C45.7668 147.219 47.1145 145.248 46.3724 142.609" stroke="#A6815E" stroke-width="2" stroke-linecap="round"/>
<path opacity="0.5" d="M41.8075 142.937C41.8839 141.286 42.3701 139.722 41.4231 138.812C39.6716 137.13 38.5097 138.332 36.7442 139.958C35.8081 140.821 34.6032 141.621 35.1272 144.169C35.2565 144.798 37.3906 145 37.7516 145" stroke="#A6815E" stroke-width="2" stroke-linecap="round"/>
<path opacity="0.5" d="M44.5 137C44.4207 136.286 43.2557 136.003 42.75 135.75" stroke="#A6815E" stroke-width="2" stroke-linecap="round"/>
<path opacity="0.1" d="M51.4726 62C51.4726 64.383 51.8877 69.1902 52.5004 71.6643C53.255 74.7114 51.2414 77.6967 51.4726 80.8652C51.9838 87.8688 54.8473 93.6019 52.6115 99.9953C50.8845 104.934 50.5004 113.234 50.5004 118" stroke="#3C2D24" stroke-width="2" stroke-linecap="round"/>
<path opacity="0.1" d="M41.4995 118C40.4995 110.951 46.3831 100.668 46.4995 94.3743C46.5519 91.5434 47.3837 86.2884 45.9995 83.8015C42.9943 78.402 45.9995 63.2583 45.9995 57.5" stroke="#3C2D24" stroke-width="2" stroke-linecap="round"/>
<path opacity="0.1" d="M34.0002 107C34.6111 97.2705 33.5002 87.9553 33.5002 78.2125C33.5002 73.1083 33.5002 63.1042 33.5002 58" stroke="#3C2D24" stroke-width="2" stroke-linecap="round"/>
<path opacity="0.1" d="M41 59C41 62.2044 39.5792 65.2083 39.5 68.5136C39.4522 70.5064 39.5 72.5151 39.5 74.5095C39.5 78.9327 40.8031 84.608 39 88.5" stroke="#3C2D24" stroke-width="2" stroke-linecap="round"/>
<path opacity="0.1" d="M27.5 125C26.5178 120.707 28.0189 113.561 26.6111 109.459C25.8465 107.231 26.5 102.788 26.5 100.393C26.5 98.2175 26.4355 95.2391 27.1111 93.2705C28.0912 90.4145 27.5 88.0935 27.5 85.5" stroke="#3C2D24" stroke-width="2" stroke-linecap="round"/>
<path opacity="0.1" d="M29 81C29 75.7169 28.5 70.5094 28.5 65" stroke="#3C2D24" stroke-width="2" stroke-linecap="round"/>
<path opacity="0.1" d="M55.4996 104.5C55.9996 113.25 54.9996 121.793 54.9996 125.5" stroke="#3C2D24" stroke-width="2" stroke-linecap="round"/>
<path d="M53.8372 123.952C47.9433 120.426 39.7474 117.827 34.8614 116.883C33.277 116.577 32 115.223 32 113.609V58.3541C32 57.2178 32.642 56.179 33.6584 55.6708L34 55.5L73 56.5L79.8907 54.7281C86.9364 52.9164 94.1795 51.9853 101.454 51.9562L215.5 51.5L220.211 56.6398C220.719 57.1931 221 57.9164 221 58.667V126C221 127.657 219.657 129 218 129H212L190 132H156.544C151.567 132 147.798 127.503 148.667 122.602L152.5 101L144.93 99.9678C142.674 99.66 140.376 99.8746 138.215 100.595C134.55 101.817 131.503 104.417 129.72 107.845L126 115L100.962 117.54C94.693 118.176 88.5637 119.795 82.799 122.339L76.4693 125.131C75.1668 125.706 73.7725 126.044 72.3515 126.13L63.1611 126.687C59.8668 126.887 56.6693 125.647 53.8372 123.952Z" fill="black" fill-opacity="0.12"/>
<g filter="url(#filter27_ii_892_288586)">
<path d="M190 79V6L153 48V120L163 123.5L190 79Z" fill="#D7B99A"/>
</g>
<g filter="url(#filter28_i_892_288586)">
<path d="M219 127L190 78L153 120C173.783 131.348 208 131.728 219 127Z" fill="#C8A078"/>
</g>
<g filter="url(#filter29_i_892_288586)">
<path d="M219 55L190 6V78.5L219 127V55Z" fill="#D7B99A"/>
</g>
<path opacity="0.5" d="M211.25 116.75C207.176 116.75 203.102 116.75 199.028 116.75C194.108 116.75 189.045 117.088 184.139 116.625C181.415 116.368 178.551 116.274 176.014 115.111C174.687 114.503 173.36 113.703 172 113.25" stroke="#A6815E" stroke-width="2" stroke-linecap="round"/>
<path opacity="0.5" d="M195.75 107.25C192.7 107.792 189.371 107.945 186.278 108C183.759 108.045 181.346 107.93 178.875 107.5C176.229 107.04 173.953 105.568 171.5 104.75" stroke="#A6815E" stroke-width="2" stroke-linecap="round"/>
<path opacity="0.5" d="M184.25 99.5C187.531 99.5 190.984 100.187 194.25 99.6944C195.969 99.435 197.775 98.75 199.5 98.75" stroke="#A6815E" stroke-width="2" stroke-linecap="round"/>
<path opacity="0.5" d="M189.25 92.5C187.51 92.5 185.642 93.1215 183.944 92.5556C183.266 92.3295 182.414 91.75 181.75 91.75" stroke="#A6815E" stroke-width="2" stroke-linecap="round"/>
<path opacity="0.5" d="M180 99C179.385 98.6745 178.06 98.3709 177.75 97.75" stroke="#A6815E" stroke-width="2" stroke-linecap="round"/>
<path opacity="0.5" d="M168.5 111.5C168.006 111.438 167.353 110.603 167 110.25" stroke="#A6815E" stroke-width="2" stroke-linecap="round"/>
<path opacity="0.5" d="M211.5 101C211.5 94.2772 212 87.6172 212 80.8889C212 78.7942 211.796 76.5845 212.028 74.5C212.194 73.0074 213.325 71.8361 212.972 70.25C212.462 67.9515 211 65.9573 211 63.5C211 61.2942 211.5 58.9541 211.5 57" stroke="#C8A078" stroke-width="2" stroke-linecap="round"/>
<path opacity="0.5" d="M206 43C206 53.9506 204.596 65.0941 206.528 75.7222C207.085 78.7861 206.685 80.793 206.028 83.75C205.311 86.9762 206.97 91.0606 205.5 94" stroke="#C8A078" stroke-width="2" stroke-linecap="round"/>
<path opacity="0.5" d="M197 72C196.676 75.5618 195.971 77.2485 198.611 79.8889C199.265 80.5428 200 84.5122 200 85.5" stroke="#C8A078" stroke-width="2" stroke-linecap="round"/>
<path opacity="0.25" d="M184 35.5C185.685 35.2894 186 28.8408 186 27.5C186 25.1653 186.512 22.0239 185.5 20" stroke="#A6815E" stroke-width="2" stroke-linecap="round"/>
<path opacity="0.25" d="M176.5 29.5C171.752 40.5777 179 50.8252 179 61.8056C179 65.9637 178.5 70.0268 178.5 74.1111C178.5 77.831 179.5 81.408 179.5 85" stroke="#A6815E" stroke-width="2" stroke-linecap="round"/>
<path opacity="0.25" d="M172.5 70C172.5 66.2766 174.906 61.2945 173.388 57.5C171.908 53.7983 169.5 57.853 169.5 60" stroke="#A6815E" stroke-width="2" stroke-linecap="round"/>
<path opacity="0.25" d="M167.5 69C167.5 72.489 168.327 76.6614 171.25 79C172.152 79.7222 171.972 85.923 172 87C172.051 88.9966 172 91.0022 172 93" stroke="#A6815E" stroke-width="2" stroke-linecap="round"/>
<path opacity="0.25" d="M168.5 48.5C168.284 44.4006 167 40.667 167 36.5" stroke="#A6815E" stroke-width="2" stroke-linecap="round"/>
<path opacity="0.25" d="M162.5 43.5C162.5 48.6315 164.993 53.9998 163.75 59.2222C162.319 65.2319 160.5 71.4752 160.5 77.75C160.5 85.754 164.5 92.6599 164.5 100.5" stroke="#A6815E" stroke-width="2" stroke-linecap="round"/>
<g filter="url(#filter30_i_892_288586)">
<path d="M116.091 13L117.303 89L87 110V38C92.6792 22.9458 107.066 15.8553 116.091 13Z" fill="#9A7858"/>
</g>
<g filter="url(#filter31_i_892_288586)">
<path d="M116.091 85L127 114L87 110C92.6792 94.9458 107.066 87.8553 116.091 85Z" fill="#C8A078"/>
</g>
<g filter="url(#filter32_i_892_288586)">
<path d="M116.091 13L127 42V114L116.091 85V13Z" fill="#D7B99A"/>
</g>
<path opacity="0.5" d="M105.787 104.25C105.509 104.451 107.155 102.057 107.572 101.528C108.935 99.7949 110.611 97.7298 112.589 96.4444C114.659 95.0991 116.25 94.1736 118.818 93.75" stroke="#A6815E" stroke-width="2" stroke-linecap="round"/>
<path opacity="0.5" d="M115.788 108.5C116.057 108.472 118.599 105.862 118.818 105.5" stroke="#A6815E" stroke-width="2" stroke-linecap="round"/>
<path opacity="0.5" d="M103.667 109.5C104.157 108.994 104.152 108.275 104.576 107.75" stroke="#A6815E" stroke-width="2" stroke-linecap="round"/>
<path opacity="0.1" d="M96.6965 32C95.8401 36.239 94.1103 40.3245 93.3632 44.6389C92.9531 47.0071 93.0601 49.3893 93.0601 51.7778C93.0601 55.1181 92.134 58.4219 92.4878 61.7778C92.8266 64.9926 94.256 68.038 94.8447 71.1944C95.3997 74.1708 97.7689 77.2298 97.9086 80.1111C97.9767 81.5151 98.6104 86.4605 97.3026 87" stroke="#3C2D24" stroke-width="2" stroke-linecap="round"/>
<path opacity="0.1" d="M92.4543 94C92.2385 89.7272 92.4543 85.4761 92.4543 81.5" stroke="#3C2D24" stroke-width="2" stroke-linecap="round"/>
<path opacity="0.1" d="M100.333 50.5C100.333 45.5711 103.196 40.9071 103.936 36.0278C104.479 32.4451 103.363 28.9252 103.363 25.5" stroke="#3C2D24" stroke-width="2" stroke-linecap="round"/>
<path opacity="0.1" d="M107.606 68.5C110.255 65.2228 107.405 61.2325 108.179 57.7222C109.236 52.9261 107.612 48.2656 109.425 43.5C111.311 38.5402 112.038 33.2459 111.243 28C110.864 25.5009 111.243 22.0047 111.243 19.5" stroke="#3C2D24" stroke-width="2" stroke-linecap="round"/>
<path d="M79.976 111L67.9922 73.5L67.9927 2C76.7503 13.7488 79.8402 26.9134 79.976 38V111Z" fill="#9A7858"/>
<g filter="url(#filter33_ii_892_288586)">
<path d="M67.9917 74L59 109.5L34 112V39.8839L67.9917 2V74Z" fill="#D7B99A"/>
</g>
<g filter="url(#filter34_i_892_288586)">
<path d="M77.5419 127.175L34 112L67.9917 74C82.0911 92.9151 81.5 115.5 77.5419 127.175Z" fill="#C8A078"/>
</g>
<path opacity="0.5" d="M60.25 84.75C60.3725 85.7302 61.7148 87.0445 62.1389 88.0139C62.7569 89.4265 63.3246 90.8618 64 92.25C65.5245 95.3837 65.5479 98.5588 66.5556 101.806C67.423 104.601 66.8489 108.668 66.0556 111.444C65.5381 113.255 65.3428 115.222 64.75 117" stroke="#A6815E" stroke-width="2" stroke-linecap="round"/>
<path opacity="0.5" d="M57.5 95.75C59.0763 97.5014 59.0175 100.727 59.3889 102.903C59.8357 105.52 60.4703 108.698 59.9861 111.361C59.5635 113.686 58.4659 115.602 57.75 117.75" stroke="#A6815E" stroke-width="2" stroke-linecap="round"/>
<path opacity="0.5" d="M47.5 112.25C47.5 109.91 47.75 107.609 47.75 105.25C47.75 103.486 47.29 102.08 46.5 100.5" stroke="#A6815E" stroke-width="2" stroke-linecap="round"/>
<path opacity="0.5" d="M41.75 113C41.75 112.209 41.5 111.489 41.5 110.75" stroke="#A6815E" stroke-width="2" stroke-linecap="round"/>
<path opacity="0.5" d="M55.75 91.75C55.4004 91.7063 55.1832 91.0249 55 90.75" stroke="#A6815E" stroke-width="2" stroke-linecap="round"/>
<path opacity="0.25" d="M36.5 40C36.7844 42.8443 37.1663 45.5613 36.9722 48.4722C36.7735 51.4529 36.1375 54.2872 36.7778 57.3056C37.6164 61.2591 39.5085 64.6242 40.8889 68.3889C41.7343 70.6948 43.8686 73.2265 44 75.7222C44.2459 80.3955 43.044 83.4761 41.5 87.7222C40.1563 91.4173 39.5 94.9998 39.5 99" stroke="#A6815E" stroke-width="2" stroke-linecap="round"/>
<path opacity="0.25" d="M39 81C39 79.3657 39.5 77.7593 39.5 76.25C39.5 75.2252 38.5 74.5847 38.5 73.5" stroke="#A6815E" stroke-width="2" stroke-linecap="round"/>
<path opacity="0.25" d="M44 60.5C43.7324 57.2894 43 54.4207 43 51.1667C43 48.1794 43.3958 45.3071 43.5 42.3889C43.5923 39.8031 44 37.204 44 34.5" stroke="#A6815E" stroke-width="2" stroke-linecap="round"/>
<path opacity="0.25" d="M47.9999 91C45.2014 91 45.1336 86.2442 46.9999 85" stroke="#A6815E" stroke-width="2" stroke-linecap="round"/>
<path opacity="0.25" d="M55.9999 81C55.9999 76.2814 55.0613 70.3493 57.2499 65.9722C59.3937 61.6845 59.4999 55.7062 59.4999 51C59.4999 48.6062 59.8906 45.8067 59.2499 43.5C58.537 40.9336 57.9999 38.4381 57.9999 35.75C57.9999 31.8072 57.4999 27.6592 57.4999 23.5" stroke="#A6815E" stroke-width="2" stroke-linecap="round"/>
<path opacity="0.25" d="M53.5 49C53.5 51.228 53 53.3628 53 55.6111C53 57.8993 53.3205 58.2308 54.5 60" stroke="#A6815E" stroke-width="2" stroke-linecap="round"/>
<path opacity="0.25" d="M52 34.5C52 30.3864 52.5 26.4887 52.5 22.5" stroke="#A6815E" stroke-width="2" stroke-linecap="round"/>
<path opacity="0.1" d="M71.5004 24.5C71.5004 34.0647 69.7538 44.324 71.4726 53.7778C72.262 58.1193 73.425 67.7262 72.0004 72" stroke="#3C2D24" stroke-width="2" stroke-linecap="round"/>
<path opacity="0.1" d="M77.676 51C78.69 58.0345 77 64.1215 77 70.3448C77 75.2437 77.338 80.0367 77.338 85" stroke="#3C2D24" stroke-width="2" stroke-linecap="round"/>
<path opacity="0.1" d="M76 46.5C76 42.5549 75 38.5602 75 34.5C75 31.7787 76.5 29.3987 76.5 27" stroke="#3C2D24" stroke-width="2" stroke-linecap="round"/>
<path opacity="0.1" d="M71.5 11.5V16.5" stroke="#3C2D24" stroke-width="2" stroke-linecap="round"/>
<g filter="url(#filter35_i_892_288586)">
<path d="M158 30C158 20.6112 150.389 13 141 13C131.611 13 124 20.6112 124 30V82H158V30Z" fill="#9A7858"/>
</g>
<circle cx="15" cy="15" r="16.0714" transform="matrix(-1 0 0 1 156 68)" fill="#C8A078" stroke="#82644D" stroke-width="2.14286"/>
<path opacity="0.5" d="M150 83.7421C148.879 82.4127 148.263 80.257 147.313 78.7091C146.192 76.8817 143.408 76.0337 141.616 76.0015C138.127 75.9388 134.618 77.8715 131.808 80.27C129.702 82.0683 129.734 85.545 130.411 88.154C131.007 90.4503 132.247 91.4538 134.173 92.0561C135.893 92.5941 137.226 92.9162 139.037 92.9162C140.384 92.9162 142.528 93.2865 143.806 92.4702C145.767 91.2188 147.115 89.2482 146.372 86.609" stroke="#A6815E" stroke-width="2" stroke-linecap="round"/>
<path opacity="0.5" d="M141.808 86.9375C141.884 85.2863 142.37 83.722 141.423 82.8124C139.672 81.1301 138.51 82.332 136.744 83.9583C135.808 84.8207 134.603 85.6213 135.127 88.1693C135.256 88.7981 137.391 89 137.752 89" stroke="#A6815E" stroke-width="2" stroke-linecap="round"/>
<path opacity="0.5" d="M144.5 81C144.421 80.2861 143.256 80.0029 142.75 79.75" stroke="#A6815E" stroke-width="2" stroke-linecap="round"/>
<path opacity="0.1" d="M151.473 21C151.473 22.7447 151.888 26.2643 152.5 28.0756C153.255 30.3066 151.241 32.4922 151.473 34.8121C151.984 39.9397 154.847 44.1371 152.612 48.818C150.885 52.4336 150.5 58.5106 150.5 62" stroke="#3C2D24" stroke-width="2" stroke-linecap="round"/>
<path opacity="0.1" d="M141.5 62C140.5 56.699 146.383 48.9654 146.5 44.2319C146.552 42.1029 147.384 38.1508 146 36.2805C142.994 32.2197 146 20.8306 146 16.5" stroke="#3C2D24" stroke-width="2" stroke-linecap="round"/>
<path opacity="0.1" d="M134 51C134.611 44.2489 133.5 37.7853 133.5 31.025C133.5 27.4833 133.5 20.5417 133.5 17" stroke="#3C2D24" stroke-width="2" stroke-linecap="round"/>
<path opacity="0.1" d="M141 18C141 19.5751 139.579 21.0515 139.5 22.6762C139.452 23.6557 139.5 24.643 139.5 25.6233C139.5 27.7974 140.803 30.587 139 32.5" stroke="#3C2D24" stroke-width="2" stroke-linecap="round"/>
<path opacity="0.1" d="M127.5 69C126.518 66.3373 128.019 61.905 126.611 59.3607C125.846 57.9787 126.5 55.2227 126.5 53.7377C126.5 52.3881 126.436 50.5407 127.111 49.3197C128.091 47.5482 127.5 46.1086 127.5 44.5" stroke="#3C2D24" stroke-width="2" stroke-linecap="round"/>
<path opacity="0.1" d="M129 25C129 24.6698 128.5 24.3443 128.5 24" stroke="#3C2D24" stroke-width="2" stroke-linecap="round"/>
<path opacity="0.1" d="M155.5 63.5C156 66 155 68.4407 155 69.5" stroke="#3C2D24" stroke-width="2" stroke-linecap="round"/>
<defs>
<filter id="filter0_i_892_288586" x="217" y="121" width="27.2725" height="97" filterUnits="userSpaceOnUse" color-interpolation-filters="sRGB">
<feFlood flood-opacity="0" result="BackgroundImageFix"/>
<feBlend mode="normal" in="SourceGraphic" in2="BackgroundImageFix" result="shape"/>
<feColorMatrix in="SourceAlpha" type="matrix" values="0 0 0 0 0 0 0 0 0 0 0 0 0 0 0 0 0 0 127 0" result="hardAlpha"/>
<feOffset dx="100" dy="4"/>
<feComposite in2="hardAlpha" operator="arithmetic" k2="-1" k3="1"/>
<feColorMatrix type="matrix" values="0 0 0 0 0 0 0 0 0 0 0 0 0 0 0 0 0 0 0.1 0"/>
<feBlend mode="normal" in2="shape" result="effect1_innerShadow_892_288586"/>
</filter>
<filter id="filter1_i_892_288586" x="217" y="193" width="36" height="29" filterUnits="userSpaceOnUse" color-interpolation-filters="sRGB">
<feFlood flood-opacity="0" result="BackgroundImageFix"/>
<feBlend mode="normal" in="SourceGraphic" in2="BackgroundImageFix" result="shape"/>
<feColorMatrix in="SourceAlpha" type="matrix" values="0 0 0 0 0 0 0 0 0 0 0 0 0 0 0 0 0 0 127 0" result="hardAlpha"/>
<feOffset dx="4.2221" dy="2.81473"/>
<feComposite in2="hardAlpha" operator="arithmetic" k2="-1" k3="1"/>
<feColorMatrix type="matrix" values="0 0 0 0 0.509804 0 0 0 0 0.392157 0 0 0 0 0.301961 0 0 0 1 0"/>
<feBlend mode="normal" in2="shape" result="effect1_innerShadow_892_288586"/>
</filter>
<filter id="filter2_i_892_288586" x="243.182" y="121" width="9.81836" height="101" filterUnits="userSpaceOnUse" color-interpolation-filters="sRGB">
<feFlood flood-opacity="0" result="BackgroundImageFix"/>
<feBlend mode="normal" in="SourceGraphic" in2="BackgroundImageFix" result="shape"/>
<feColorMatrix in="SourceAlpha" type="matrix" values="0 0 0 0 0 0 0 0 0 0 0 0 0 0 0 0 0 0 127 0" result="hardAlpha"/>
<feOffset dx="2" dy="6"/>
<feComposite in2="hardAlpha" operator="arithmetic" k2="-1" k3="1"/>
<feColorMatrix type="matrix" values="0 0 0 0 0.679167 0 0 0 0 0.562542 0 0 0 0 0.452778 0 0 0 1 0"/>
<feBlend mode="normal" in2="shape" result="effect1_innerShadow_892_288586"/>
</filter>
<filter id="filter3_i_892_288586" x="3" y="129" width="50" height="80" filterUnits="userSpaceOnUse" color-interpolation-filters="sRGB">
<feFlood flood-opacity="0" result="BackgroundImageFix"/>
<feBlend mode="normal" in="SourceGraphic" in2="BackgroundImageFix" result="shape"/>
<feColorMatrix in="SourceAlpha" type="matrix" values="0 0 0 0 0 0 0 0 0 0 0 0 0 0 0 0 0 0 127 0" result="hardAlpha"/>
<feOffset dx="16" dy="5"/>
<feGaussianBlur stdDeviation="10"/>
<feComposite in2="hardAlpha" operator="arithmetic" k2="-1" k3="1"/>
<feColorMatrix type="matrix" values="0 0 0 0 0 0 0 0 0 0 0 0 0 0 0 0 0 0 0.2 0"/>
<feBlend mode="normal" in2="shape" result="effect1_innerShadow_892_288586"/>
</filter>
<filter id="filter4_i_892_288586" x="71" y="122" width="28.1429" height="91.7143" filterUnits="userSpaceOnUse" color-interpolation-filters="sRGB">
<feFlood flood-opacity="0" result="BackgroundImageFix"/>
<feBlend mode="normal" in="SourceGraphic" in2="BackgroundImageFix" result="shape"/>
<feColorMatrix in="SourceAlpha" type="matrix" values="0 0 0 0 0 0 0 0 0 0 0 0 0 0 0 0 0 0 127 0" result="hardAlpha"/>
<feOffset dx="9.14286" dy="2.85714"/>
<feGaussianBlur stdDeviation="5.71429"/>
<feComposite in2="hardAlpha" operator="arithmetic" k2="-1" k3="1"/>
<feColorMatrix type="matrix" values="0 0 0 0 0 0 0 0 0 0 0 0 0 0 0 0 0 0 0.2 0"/>
<feBlend mode="normal" in2="shape" result="effect1_innerShadow_892_288586"/>
</filter>
<filter id="filter5_ii_892_288586" x="157" y="100" width="37" height="117.5" filterUnits="userSpaceOnUse" color-interpolation-filters="sRGB">
<feFlood flood-opacity="0" result="BackgroundImageFix"/>
<feBlend mode="normal" in="SourceGraphic" in2="BackgroundImageFix" result="shape"/>
<feColorMatrix in="SourceAlpha" type="matrix" values="0 0 0 0 0 0 0 0 0 0 0 0 0 0 0 0 0 0 127 0" result="hardAlpha"/>
<feOffset dx="-4" dy="-5"/>
<feComposite in2="hardAlpha" operator="arithmetic" k2="-1" k3="1"/>
<feColorMatrix type="matrix" values="0 0 0 0 0.679167 0 0 0 0 0.562542 0 0 0 0 0.452778 0 0 0 1 0"/>
<feBlend mode="normal" in2="shape" result="effect1_innerShadow_892_288586"/>
<feColorMatrix in="SourceAlpha" type="matrix" values="0 0 0 0 0 0 0 0 0 0 0 0 0 0 0 0 0 0 127 0" result="hardAlpha"/>
<feOffset dx="-72" dy="4"/>
<feGaussianBlur stdDeviation="2"/>
<feComposite in2="hardAlpha" operator="arithmetic" k2="-1" k3="1"/>
<feColorMatrix type="matrix" values="0 0 0 0 0 0 0 0 0 0 0 0 0 0 0 0 0 0 0.1 0"/>
<feBlend mode="normal" in2="effect1_innerShadow_892_288586" result="effect2_innerShadow_892_288586"/>
</filter>
<filter id="filter6_i_892_288586" x="128" y="172" width="66" height="51.8555" filterUnits="userSpaceOnUse" color-interpolation-filters="sRGB">
<feFlood flood-opacity="0" result="BackgroundImageFix"/>
<feBlend mode="normal" in="SourceGraphic" in2="BackgroundImageFix" result="shape"/>
<feColorMatrix in="SourceAlpha" type="matrix" values="0 0 0 0 0 0 0 0 0 0 0 0 0 0 0 0 0 0 127 0" result="hardAlpha"/>
<feOffset dy="-5.62947"/>
<feComposite in2="hardAlpha" operator="arithmetic" k2="-1" k3="1"/>
<feColorMatrix type="matrix" values="0 0 0 0 0.509804 0 0 0 0 0.392157 0 0 0 0 0.301961 0 0 0 1 0"/>
<feBlend mode="normal" in2="shape" result="effect1_innerShadow_892_288586"/>
</filter>
<filter id="filter7_ii_892_288586" x="128" y="100" width="29" height="121" filterUnits="userSpaceOnUse" color-interpolation-filters="sRGB">
<feFlood flood-opacity="0" result="BackgroundImageFix"/>
<feBlend mode="normal" in="SourceGraphic" in2="BackgroundImageFix" result="shape"/>
<feColorMatrix in="SourceAlpha" type="matrix" values="0 0 0 0 0 0 0 0 0 0 0 0 0 0 0 0 0 0 127 0" result="hardAlpha"/>
<feOffset dx="3" dy="-5"/>
<feComposite in2="hardAlpha" operator="arithmetic" k2="-1" k3="1"/>
<feColorMatrix type="matrix" values="0 0 0 0 0.679167 0 0 0 0 0.562542 0 0 0 0 0.452778 0 0 0 1 0"/>
<feBlend mode="normal" in2="shape" result="effect1_innerShadow_892_288586"/>
<feColorMatrix in="SourceAlpha" type="matrix" values="0 0 0 0 0 0 0 0 0 0 0 0 0 0 0 0 0 0 127 0" result="hardAlpha"/>
<feOffset dx="100" dy="4"/>
<feComposite in2="hardAlpha" operator="arithmetic" k2="-1" k3="1"/>
<feColorMatrix type="matrix" values="0 0 0 0 0 0 0 0 0 0 0 0 0 0 0 0 0 0 0.2 0"/>
<feBlend mode="normal" in2="effect1_innerShadow_892_288586" result="effect2_innerShadow_892_288586"/>
</filter>
<filter id="filter8_i_892_288586" x="179" y="102" width="83.5" height="93.1003" filterUnits="userSpaceOnUse" color-interpolation-filters="sRGB">
<feFlood flood-opacity="0" result="BackgroundImageFix"/>
<feBlend mode="normal" in="SourceGraphic" in2="BackgroundImageFix" result="shape"/>
<feColorMatrix in="SourceAlpha" type="matrix" values="0 0 0 0 0 0 0 0 0 0 0 0 0 0 0 0 0 0 127 0" result="hardAlpha"/>
<feOffset dx="24" dy="5"/>
<feGaussianBlur stdDeviation="10"/>
<feComposite in2="hardAlpha" operator="arithmetic" k2="-1" k3="1"/>
<feColorMatrix type="matrix" values="0 0 0 0 0 0 0 0 0 0 0 0 0 0 0 0 0 0 0.1 0"/>
<feBlend mode="normal" in2="shape" result="effect1_innerShadow_892_288586"/>
</filter>
<filter id="filter9_i_892_288586" x="179" y="171.875" width="63" height="48.2285" filterUnits="userSpaceOnUse" color-interpolation-filters="sRGB">
<feFlood flood-opacity="0" result="BackgroundImageFix"/>
<feBlend mode="normal" in="SourceGraphic" in2="BackgroundImageFix" result="shape"/>
<feColorMatrix in="SourceAlpha" type="matrix" values="0 0 0 0 0 0 0 0 0 0 0 0 0 0 0 0 0 0 127 0" result="hardAlpha"/>
<feOffset dy="5.62947"/>
<feComposite in2="hardAlpha" operator="arithmetic" k2="-1" k3="1"/>
<feColorMatrix type="matrix" values="0 0 0 0 0.509804 0 0 0 0 0.392157 0 0 0 0 0.301961 0 0 0 1 0"/>
<feBlend mode="normal" in2="shape" result="effect1_innerShadow_892_288586"/>
</filter>
<filter id="filter10_i_892_288586" x="83" y="102" width="83.5" height="93.1003" filterUnits="userSpaceOnUse" color-interpolation-filters="sRGB">
<feFlood flood-opacity="0" result="BackgroundImageFix"/>
<feBlend mode="normal" in="SourceGraphic" in2="BackgroundImageFix" result="shape"/>
<feColorMatrix in="SourceAlpha" type="matrix" values="0 0 0 0 0 0 0 0 0 0 0 0 0 0 0 0 0 0 127 0" result="hardAlpha"/>
<feOffset dx="24" dy="5"/>
<feGaussianBlur stdDeviation="10"/>
<feComposite in2="hardAlpha" operator="arithmetic" k2="-1" k3="1"/>
<feColorMatrix type="matrix" values="0 0 0 0 0 0 0 0 0 0 0 0 0 0 0 0 0 0 0.1 0"/>
<feBlend mode="normal" in2="shape" result="effect1_innerShadow_892_288586"/>
</filter>
<filter id="filter11_i_892_288586" x="83" y="171.875" width="63" height="48.2285" filterUnits="userSpaceOnUse" color-interpolation-filters="sRGB">
<feFlood flood-opacity="0" result="BackgroundImageFix"/>
<feBlend mode="normal" in="SourceGraphic" in2="BackgroundImageFix" result="shape"/>
<feColorMatrix in="SourceAlpha" type="matrix" values="0 0 0 0 0 0 0 0 0 0 0 0 0 0 0 0 0 0 127 0" result="hardAlpha"/>
<feOffset dy="5.62947"/>
<feComposite in2="hardAlpha" operator="arithmetic" k2="-1" k3="1"/>
<feColorMatrix type="matrix" values="0 0 0 0 0.509804 0 0 0 0 0.392157 0 0 0 0 0.301961 0 0 0 1 0"/>
<feBlend mode="normal" in2="shape" result="effect1_innerShadow_892_288586"/>
</filter>
<filter id="filter12_i_892_288586" x="28" y="173.332" width="51" height="51" filterUnits="userSpaceOnUse" color-interpolation-filters="sRGB">
<feFlood flood-opacity="0" result="BackgroundImageFix"/>
<feBlend mode="normal" in="SourceGraphic" in2="BackgroundImageFix" result="shape"/>
<feColorMatrix in="SourceAlpha" type="matrix" values="0 0 0 0 0 0 0 0 0 0 0 0 0 0 0 0 0 0 127 0" result="hardAlpha"/>
<feOffset dx="2.81473" dy="-4.2221"/>
<feComposite in2="hardAlpha" operator="arithmetic" k2="-1" k3="1"/>
<feColorMatrix type="matrix" values="0 0 0 0 0.509804 0 0 0 0 0.392157 0 0 0 0 0.301961 0 0 0 1 0"/>
<feBlend mode="normal" in2="shape" result="effect1_innerShadow_892_288586"/>
</filter>
<filter id="filter13_ii_892_288586" x="28" y="101" width="51.6592" height="85.3318" filterUnits="userSpaceOnUse" color-interpolation-filters="sRGB">
<feFlood flood-opacity="0" result="BackgroundImageFix"/>
<feBlend mode="normal" in="SourceGraphic" in2="BackgroundImageFix" result="shape"/>
<feColorMatrix in="SourceAlpha" type="matrix" values="0 0 0 0 0 0 0 0 0 0 0 0 0 0 0 0 0 0 127 0" result="hardAlpha"/>
<feOffset dx="4.81" dy="-1.22"/>
<feComposite in2="hardAlpha" operator="arithmetic" k2="-1" k3="1"/>
<feColorMatrix type="matrix" values="0 0 0 0 0.603922 0 0 0 0 0.470588 0 0 0 0 0.345098 0 0 0 1 0"/>
<feBlend mode="normal" in2="shape" result="effect1_innerShadow_892_288586"/>
<feColorMatrix in="SourceAlpha" type="matrix" values="0 0 0 0 0 0 0 0 0 0 0 0 0 0 0 0 0 0 127 0" result="hardAlpha"/>
<feOffset dx="-80" dy="4"/>
<feComposite in2="hardAlpha" operator="arithmetic" k2="-1" k3="1"/>
<feColorMatrix type="matrix" values="0 0 0 0 0 0 0 0 0 0 0 0 0 0 0 0 0 0 0.15 0"/>
<feBlend mode="normal" in2="effect1_innerShadow_892_288586" result="effect2_innerShadow_892_288586"/>
</filter>
<filter id="filter14_i_892_288586" x="106" y="81" width="50" height="80" filterUnits="userSpaceOnUse" color-interpolation-filters="sRGB">
<feFlood flood-opacity="0" result="BackgroundImageFix"/>
<feBlend mode="normal" in="SourceGraphic" in2="BackgroundImageFix" result="shape"/>
<feColorMatrix in="SourceAlpha" type="matrix" values="0 0 0 0 0 0 0 0 0 0 0 0 0 0 0 0 0 0 127 0" result="hardAlpha"/>
<feOffset dx="16" dy="5"/>
<feGaussianBlur stdDeviation="10"/>
<feComposite in2="hardAlpha" operator="arithmetic" k2="-1" k3="1"/>
<feColorMatrix type="matrix" values="0 0 0 0 0 0 0 0 0 0 0 0 0 0 0 0 0 0 0.2 0"/>
<feBlend mode="normal" in2="shape" result="effect1_innerShadow_892_288586"/>
</filter>
<filter id="filter15_ii_892_288586" x="183" y="51" width="33.9912" height="110" filterUnits="userSpaceOnUse" color-interpolation-filters="sRGB">
<feFlood flood-opacity="0" result="BackgroundImageFix"/>
<feBlend mode="normal" in="SourceGraphic" in2="BackgroundImageFix" result="shape"/>
<feColorMatrix in="SourceAlpha" type="matrix" values="0 0 0 0 0 0 0 0 0 0 0 0 0 0 0 0 0 0 127 0" result="hardAlpha"/>
<feOffset dx="-4" dy="4"/>
<feComposite in2="hardAlpha" operator="arithmetic" k2="-1" k3="1"/>
<feColorMatrix type="matrix" values="0 0 0 0 0.679167 0 0 0 0 0.562542 0 0 0 0 0.452778 0 0 0 1 0"/>
<feBlend mode="normal" in2="shape" result="effect1_innerShadow_892_288586"/>
<feColorMatrix in="SourceAlpha" type="matrix" values="0 0 0 0 0 0 0 0 0 0 0 0 0 0 0 0 0 0 127 0" result="hardAlpha"/>
<feOffset dx="100" dy="4"/>
<feComposite in2="hardAlpha" operator="arithmetic" k2="-1" k3="1"/>
<feColorMatrix type="matrix" values="0 0 0 0 0 0 0 0 0 0 0 0 0 0 0 0 0 0 0.1 0"/>
<feBlend mode="normal" in2="effect1_innerShadow_892_288586" result="effect2_innerShadow_892_288586"/>
</filter>
<filter id="filter16_i_892_288586" x="183" y="123" width="45.9795" height="53.1748" filterUnits="userSpaceOnUse" color-interpolation-filters="sRGB">
<feFlood flood-opacity="0" result="BackgroundImageFix"/>
<feBlend mode="normal" in="SourceGraphic" in2="BackgroundImageFix" result="shape"/>
<feColorMatrix in="SourceAlpha" type="matrix" values="0 0 0 0 0 0 0 0 0 0 0 0 0 0 0 0 0 0 127 0" result="hardAlpha"/>
<feOffset dx="-5.62947" dy="1.40737"/>
<feComposite in2="hardAlpha" operator="arithmetic" k2="-1" k3="1"/>
<feColorMatrix type="matrix" values="0 0 0 0 0.509804 0 0 0 0 0.392157 0 0 0 0 0.301961 0 0 0 1 0"/>
<feBlend mode="normal" in2="shape" result="effect1_innerShadow_892_288586"/>
</filter>
<filter id="filter17_i_892_288586" x="22.7275" y="81" width="27.2725" height="97" filterUnits="userSpaceOnUse" color-interpolation-filters="sRGB">
<feFlood flood-opacity="0" result="BackgroundImageFix"/>
<feBlend mode="normal" in="SourceGraphic" in2="BackgroundImageFix" result="shape"/>
<feColorMatrix in="SourceAlpha" type="matrix" values="0 0 0 0 0 0 0 0 0 0 0 0 0 0 0 0 0 0 127 0" result="hardAlpha"/>
<feOffset dx="100" dy="4"/>
<feComposite in2="hardAlpha" operator="arithmetic" k2="-1" k3="1"/>
<feColorMatrix type="matrix" values="0 0 0 0 0 0 0 0 0 0 0 0 0 0 0 0 0 0 0.1 0"/>
<feBlend mode="normal" in2="shape" result="effect1_innerShadow_892_288586"/>
</filter>
<filter id="filter18_i_892_288586" x="14" y="153" width="36" height="29" filterUnits="userSpaceOnUse" color-interpolation-filters="sRGB">
<feFlood flood-opacity="0" result="BackgroundImageFix"/>
<feBlend mode="normal" in="SourceGraphic" in2="BackgroundImageFix" result="shape"/>
<feColorMatrix in="SourceAlpha" type="matrix" values="0 0 0 0 0 0 0 0 0 0 0 0 0 0 0 0 0 0 127 0" result="hardAlpha"/>
<feOffset dx="-2.78" dy="2.81473"/>
<feComposite in2="hardAlpha" operator="arithmetic" k2="-1" k3="1"/>
<feColorMatrix type="matrix" values="0 0 0 0 0.509804 0 0 0 0 0.392157 0 0 0 0 0.301961 0 0 0 1 0"/>
<feBlend mode="normal" in2="shape" result="effect1_innerShadow_892_288586"/>
</filter>
<filter id="filter19_ii_892_288586" x="14" y="81" width="9.81836" height="101" filterUnits="userSpaceOnUse" color-interpolation-filters="sRGB">
<feFlood flood-opacity="0" result="BackgroundImageFix"/>
<feBlend mode="normal" in="SourceGraphic" in2="BackgroundImageFix" result="shape"/>
<feColorMatrix in="SourceAlpha" type="matrix" values="0 0 0 0 0 0 0 0 0 0 0 0 0 0 0 0 0 0 127 0" result="hardAlpha"/>
<feOffset dx="-2" dy="6"/>
<feComposite in2="hardAlpha" operator="arithmetic" k2="-1" k3="1"/>
<feColorMatrix type="matrix" values="0 0 0 0 0.679167 0 0 0 0 0.562542 0 0 0 0 0.452778 0 0 0 1 0"/>
<feBlend mode="normal" in2="shape" result="effect1_innerShadow_892_288586"/>
<feColorMatrix in="SourceAlpha" type="matrix" values="0 0 0 0 0 0 0 0 0 0 0 0 0 0 0 0 0 0 127 0" result="hardAlpha"/>
<feOffset dx="16"/>
<feComposite in2="hardAlpha" operator="arithmetic" k2="-1" k3="1"/>
<feColorMatrix type="matrix" values="0 0 0 0 0 0 0 0 0 0 0 0 0 0 0 0 0 0 0.1 0"/>
<feBlend mode="normal" in2="effect1_innerShadow_892_288586" result="effect2_innerShadow_892_288586"/>
</filter>
<filter id="filter20_i_892_288586" x="138" y="131.332" width="51" height="51" filterUnits="userSpaceOnUse" color-interpolation-filters="sRGB">
<feFlood flood-opacity="0" result="BackgroundImageFix"/>
<feBlend mode="normal" in="SourceGraphic" in2="BackgroundImageFix" result="shape"/>
<feColorMatrix in="SourceAlpha" type="matrix" values="0 0 0 0 0 0 0 0 0 0 0 0 0 0 0 0 0 0 127 0" result="hardAlpha"/>
<feOffset dx="2.81473" dy="-4.2221"/>
<feComposite in2="hardAlpha" operator="arithmetic" k2="-1" k3="1"/>
<feColorMatrix type="matrix" values="0 0 0 0 0.509804 0 0 0 0 0.392157 0 0 0 0 0.301961 0 0 0 1 0"/>
<feBlend mode="normal" in2="shape" result="effect1_innerShadow_892_288586"/>
</filter>
<filter id="filter21_ii_892_288586" x="138" y="59" width="51.6592" height="85.3318" filterUnits="userSpaceOnUse" color-interpolation-filters="sRGB">
<feFlood flood-opacity="0" result="BackgroundImageFix"/>
<feBlend mode="normal" in="SourceGraphic" in2="BackgroundImageFix" result="shape"/>
<feColorMatrix in="SourceAlpha" type="matrix" values="0 0 0 0 0 0 0 0 0 0 0 0 0 0 0 0 0 0 127 0" result="hardAlpha"/>
<feOffset dx="4.81" dy="-1.22"/>
<feComposite in2="hardAlpha" operator="arithmetic" k2="-1" k3="1"/>
<feColorMatrix type="matrix" values="0 0 0 0 0.603922 0 0 0 0 0.470588 0 0 0 0 0.345098 0 0 0 1 0"/>
<feBlend mode="normal" in2="shape" result="effect1_innerShadow_892_288586"/>
<feColorMatrix in="SourceAlpha" type="matrix" values="0 0 0 0 0 0 0 0 0 0 0 0 0 0 0 0 0 0 127 0" result="hardAlpha"/>
<feOffset dx="-88" dy="4"/>
<feComposite in2="hardAlpha" operator="arithmetic" k2="-1" k3="1"/>
<feColorMatrix type="matrix" values="0 0 0 0 0 0 0 0 0 0 0 0 0 0 0 0 0 0 0.1 0"/>
<feBlend mode="normal" in2="effect1_innerShadow_892_288586" result="effect2_innerShadow_892_288586"/>
</filter>
<filter id="filter22_i_892_288586" x="52" y="52" width="83.5" height="93.1003" filterUnits="userSpaceOnUse" color-interpolation-filters="sRGB">
<feFlood flood-opacity="0" result="BackgroundImageFix"/>
<feBlend mode="normal" in="SourceGraphic" in2="BackgroundImageFix" result="shape"/>
<feColorMatrix in="SourceAlpha" type="matrix" values="0 0 0 0 0 0 0 0 0 0 0 0 0 0 0 0 0 0 127 0" result="hardAlpha"/>
<feOffset dx="24" dy="5"/>
<feGaussianBlur stdDeviation="10"/>
<feComposite in2="hardAlpha" operator="arithmetic" k2="-1" k3="1"/>
<feColorMatrix type="matrix" values="0 0 0 0 0 0 0 0 0 0 0 0 0 0 0 0 0 0 0.1 0"/>
<feBlend mode="normal" in2="shape" result="effect1_innerShadow_892_288586"/>
</filter>
<filter id="filter23_i_892_288586" x="52.5" y="121.875" width="63" height="48.2285" filterUnits="userSpaceOnUse" color-interpolation-filters="sRGB">
<feFlood flood-opacity="0" result="BackgroundImageFix"/>
<feBlend mode="normal" in="SourceGraphic" in2="BackgroundImageFix" result="shape"/>
<feColorMatrix in="SourceAlpha" type="matrix" values="0 0 0 0 0 0 0 0 0 0 0 0 0 0 0 0 0 0 127 0" result="hardAlpha"/>
<feOffset dy="5.62947"/>
<feComposite in2="hardAlpha" operator="arithmetic" k2="-1" k3="1"/>
<feColorMatrix type="matrix" values="0 0 0 0 0.509804 0 0 0 0 0.392157 0 0 0 0 0.301961 0 0 0 1 0"/>
<feBlend mode="normal" in2="shape" result="effect1_innerShadow_892_288586"/>
</filter>
<filter id="filter24_i_892_288586" x="115" y="100" width="38" height="40.8171" filterUnits="userSpaceOnUse" color-interpolation-filters="sRGB">
<feFlood flood-opacity="0" result="BackgroundImageFix"/>
<feBlend mode="normal" in="SourceGraphic" in2="BackgroundImageFix" result="shape"/>
<feColorMatrix in="SourceAlpha" type="matrix" values="0 0 0 0 0 0 0 0 0 0 0 0 0 0 0 0 0 0 127 0" result="hardAlpha"/>
<feOffset dx="2.81473" dy="-4.2221"/>
<feComposite in2="hardAlpha" operator="arithmetic" k2="-1" k3="1"/>
<feColorMatrix type="matrix" values="0 0 0 0 0.509804 0 0 0 0 0.392157 0 0 0 0 0.301961 0 0 0 1 0"/>
<feBlend mode="normal" in2="shape" result="effect1_innerShadow_892_288586"/>
</filter>
<filter id="filter25_ii_892_288586" x="115" y="28" width="38" height="93" filterUnits="userSpaceOnUse" color-interpolation-filters="sRGB">
<feFlood flood-opacity="0" result="BackgroundImageFix"/>
<feBlend mode="normal" in="SourceGraphic" in2="BackgroundImageFix" result="shape"/>
<feColorMatrix in="SourceAlpha" type="matrix" values="0 0 0 0 0 0 0 0 0 0 0 0 0 0 0 0 0 0 127 0" result="hardAlpha"/>
<feOffset dx="3.81" dy="-2"/>
<feComposite in2="hardAlpha" operator="arithmetic" k2="-1" k3="1"/>
<feColorMatrix type="matrix" values="0 0 0 0 0.603922 0 0 0 0 0.470588 0 0 0 0 0.345098 0 0 0 1 0"/>
<feBlend mode="normal" in2="shape" result="effect1_innerShadow_892_288586"/>
<feColorMatrix in="SourceAlpha" type="matrix" values="0 0 0 0 0 0 0 0 0 0 0 0 0 0 0 0 0 0 127 0" result="hardAlpha"/>
<feOffset dx="100"/>
<feComposite in2="hardAlpha" operator="arithmetic" k2="-1" k3="1"/>
<feColorMatrix type="matrix" values="0 0 0 0 0 0 0 0 0 0 0 0 0 0 0 0 0 0 0.1 0"/>
<feBlend mode="normal" in2="effect1_innerShadow_892_288586" result="effect2_innerShadow_892_288586"/>
</filter>
<filter id="filter26_i_892_288586" x="24" y="54" width="50" height="89" filterUnits="userSpaceOnUse" color-interpolation-filters="sRGB">
<feFlood flood-opacity="0" result="BackgroundImageFix"/>
<feBlend mode="normal" in="SourceGraphic" in2="BackgroundImageFix" result="shape"/>
<feColorMatrix in="SourceAlpha" type="matrix" values="0 0 0 0 0 0 0 0 0 0 0 0 0 0 0 0 0 0 127 0" result="hardAlpha"/>
<feOffset dx="16" dy="5"/>
<feGaussianBlur stdDeviation="10"/>
<feComposite in2="hardAlpha" operator="arithmetic" k2="-1" k3="1"/>
<feColorMatrix type="matrix" values="0 0 0 0 0 0 0 0 0 0 0 0 0 0 0 0 0 0 0.2 0"/>
<feBlend mode="normal" in2="shape" result="effect1_innerShadow_892_288586"/>
</filter>
<filter id="filter27_ii_892_288586" x="153" y="6" width="37" height="117.5" filterUnits="userSpaceOnUse" color-interpolation-filters="sRGB">
<feFlood flood-opacity="0" result="BackgroundImageFix"/>
<feBlend mode="normal" in="SourceGraphic" in2="BackgroundImageFix" result="shape"/>
<feColorMatrix in="SourceAlpha" type="matrix" values="0 0 0 0 0 0 0 0 0 0 0 0 0 0 0 0 0 0 127 0" result="hardAlpha"/>
<feOffset dx="4" dy="-5"/>
<feComposite in2="hardAlpha" operator="arithmetic" k2="-1" k3="1"/>
<feColorMatrix type="matrix" values="0 0 0 0 0.679167 0 0 0 0 0.562542 0 0 0 0 0.452778 0 0 0 1 0"/>
<feBlend mode="normal" in2="shape" result="effect1_innerShadow_892_288586"/>
<feColorMatrix in="SourceAlpha" type="matrix" values="0 0 0 0 0 0 0 0 0 0 0 0 0 0 0 0 0 0 127 0" result="hardAlpha"/>
<feOffset dx="48" dy="4"/>
<feComposite in2="hardAlpha" operator="arithmetic" k2="-1" k3="1"/>
<feColorMatrix type="matrix" values="0 0 0 0 0 0 0 0 0 0 0 0 0 0 0 0 0 0 0.1 0"/>
<feBlend mode="normal" in2="effect1_innerShadow_892_288586" result="effect2_innerShadow_892_288586"/>
</filter>
<filter id="filter28_i_892_288586" x="153" y="78" width="66" height="51.8555" filterUnits="userSpaceOnUse" color-interpolation-filters="sRGB">
<feFlood flood-opacity="0" result="BackgroundImageFix"/>
<feBlend mode="normal" in="SourceGraphic" in2="BackgroundImageFix" result="shape"/>
<feColorMatrix in="SourceAlpha" type="matrix" values="0 0 0 0 0 0 0 0 0 0 0 0 0 0 0 0 0 0 127 0" result="hardAlpha"/>
<feOffset dy="-5.62947"/>
<feComposite in2="hardAlpha" operator="arithmetic" k2="-1" k3="1"/>
<feColorMatrix type="matrix" values="0 0 0 0 0.509804 0 0 0 0 0.392157 0 0 0 0 0.301961 0 0 0 1 0"/>
<feBlend mode="normal" in2="shape" result="effect1_innerShadow_892_288586"/>
</filter>
<filter id="filter29_i_892_288586" x="190" y="6" width="29" height="121" filterUnits="userSpaceOnUse" color-interpolation-filters="sRGB">
<feFlood flood-opacity="0" result="BackgroundImageFix"/>
<feBlend mode="normal" in="SourceGraphic" in2="BackgroundImageFix" result="shape"/>
<feColorMatrix in="SourceAlpha" type="matrix" values="0 0 0 0 0 0 0 0 0 0 0 0 0 0 0 0 0 0 127 0" result="hardAlpha"/>
<feOffset dx="-3" dy="-5"/>
<feComposite in2="hardAlpha" operator="arithmetic" k2="-1" k3="1"/>
<feColorMatrix type="matrix" values="0 0 0 0 0.679167 0 0 0 0 0.562542 0 0 0 0 0.452778 0 0 0 1 0"/>
<feBlend mode="normal" in2="shape" result="effect1_innerShadow_892_288586"/>
</filter>
<filter id="filter30_i_892_288586" x="87" y="13" width="30.3027" height="97" filterUnits="userSpaceOnUse" color-interpolation-filters="sRGB">
<feFlood flood-opacity="0" result="BackgroundImageFix"/>
<feBlend mode="normal" in="SourceGraphic" in2="BackgroundImageFix" result="shape"/>
<feColorMatrix in="SourceAlpha" type="matrix" values="0 0 0 0 0 0 0 0 0 0 0 0 0 0 0 0 0 0 127 0" result="hardAlpha"/>
<feOffset dx="100" dy="4"/>
<feComposite in2="hardAlpha" operator="arithmetic" k2="-1" k3="1"/>
<feColorMatrix type="matrix" values="0 0 0 0 0 0 0 0 0 0 0 0 0 0 0 0 0 0 0.1 0"/>
<feBlend mode="normal" in2="shape" result="effect1_innerShadow_892_288586"/>
</filter>
<filter id="filter31_i_892_288586" x="87" y="85" width="40" height="29" filterUnits="userSpaceOnUse" color-interpolation-filters="sRGB">
<feFlood flood-opacity="0" result="BackgroundImageFix"/>
<feBlend mode="normal" in="SourceGraphic" in2="BackgroundImageFix" result="shape"/>
<feColorMatrix in="SourceAlpha" type="matrix" values="0 0 0 0 0 0 0 0 0 0 0 0 0 0 0 0 0 0 127 0" result="hardAlpha"/>
<feOffset dx="4.2221" dy="2.81473"/>
<feComposite in2="hardAlpha" operator="arithmetic" k2="-1" k3="1"/>
<feColorMatrix type="matrix" values="0 0 0 0 0.509804 0 0 0 0 0.392157 0 0 0 0 0.301961 0 0 0 1 0"/>
<feBlend mode="normal" in2="shape" result="effect1_innerShadow_892_288586"/>
</filter>
<filter id="filter32_i_892_288586" x="116.091" y="13" width="10.9092" height="101" filterUnits="userSpaceOnUse" color-interpolation-filters="sRGB">
<feFlood flood-opacity="0" result="BackgroundImageFix"/>
<feBlend mode="normal" in="SourceGraphic" in2="BackgroundImageFix" result="shape"/>
<feColorMatrix in="SourceAlpha" type="matrix" values="0 0 0 0 0 0 0 0 0 0 0 0 0 0 0 0 0 0 127 0" result="hardAlpha"/>
<feOffset dx="2" dy="6"/>
<feComposite in2="hardAlpha" operator="arithmetic" k2="-1" k3="1"/>
<feColorMatrix type="matrix" values="0 0 0 0 0.679167 0 0 0 0 0.562542 0 0 0 0 0.452778 0 0 0 1 0"/>
<feBlend mode="normal" in2="shape" result="effect1_innerShadow_892_288586"/>
</filter>
<filter id="filter33_ii_892_288586" x="34" y="2" width="33.9912" height="110" filterUnits="userSpaceOnUse" color-interpolation-filters="sRGB">
<feFlood flood-opacity="0" result="BackgroundImageFix"/>
<feBlend mode="normal" in="SourceGraphic" in2="BackgroundImageFix" result="shape"/>
<feColorMatrix in="SourceAlpha" type="matrix" values="0 0 0 0 0 0 0 0 0 0 0 0 0 0 0 0 0 0 127 0" result="hardAlpha"/>
<feOffset dx="-4" dy="4"/>
<feComposite in2="hardAlpha" operator="arithmetic" k2="-1" k3="1"/>
<feColorMatrix type="matrix" values="0 0 0 0 0.679167 0 0 0 0 0.562542 0 0 0 0 0.452778 0 0 0 1 0"/>
<feBlend mode="normal" in2="shape" result="effect1_innerShadow_892_288586"/>
<feColorMatrix in="SourceAlpha" type="matrix" values="0 0 0 0 0 0 0 0 0 0 0 0 0 0 0 0 0 0 127 0" result="hardAlpha"/>
<feOffset dx="100" dy="4"/>
<feComposite in2="hardAlpha" operator="arithmetic" k2="-1" k3="1"/>
<feColorMatrix type="matrix" values="0 0 0 0 0 0 0 0 0 0 0 0 0 0 0 0 0 0 0.1 0"/>
<feBlend mode="normal" in2="effect1_innerShadow_892_288586" result="effect2_innerShadow_892_288586"/>
</filter>
<filter id="filter34_i_892_288586" x="34" y="74" width="45.9795" height="53.1748" filterUnits="userSpaceOnUse" color-interpolation-filters="sRGB">
<feFlood flood-opacity="0" result="BackgroundImageFix"/>
<feBlend mode="normal" in="SourceGraphic" in2="BackgroundImageFix" result="shape"/>
<feColorMatrix in="SourceAlpha" type="matrix" values="0 0 0 0 0 0 0 0 0 0 0 0 0 0 0 0 0 0 127 0" result="hardAlpha"/>
<feOffset dx="-5.62947" dy="1.40737"/>
<feComposite in2="hardAlpha" operator="arithmetic" k2="-1" k3="1"/>
<feColorMatrix type="matrix" values="0 0 0 0 0.509804 0 0 0 0 0.392157 0 0 0 0 0.301961 0 0 0 1 0"/>
<feBlend mode="normal" in2="shape" result="effect1_innerShadow_892_288586"/>
</filter>
<filter id="filter35_i_892_288586" x="124" y="13" width="50" height="74" filterUnits="userSpaceOnUse" color-interpolation-filters="sRGB">
<feFlood flood-opacity="0" result="BackgroundImageFix"/>
<feBlend mode="normal" in="SourceGraphic" in2="BackgroundImageFix" result="shape"/>
<feColorMatrix in="SourceAlpha" type="matrix" values="0 0 0 0 0 0 0 0 0 0 0 0 0 0 0 0 0 0 127 0" result="hardAlpha"/>
<feOffset dx="16" dy="5"/>
<feGaussianBlur stdDeviation="10"/>
<feComposite in2="hardAlpha" operator="arithmetic" k2="-1" k3="1"/>
<feColorMatrix type="matrix" values="0 0 0 0 0 0 0 0 0 0 0 0 0 0 0 0 0 0 0.2 0"/>
<feBlend mode="normal" in2="shape" result="effect1_innerShadow_892_288586"/>
</filter>
</defs>
</svg>
