<svg width="208" height="200" viewBox="0 0 208 200" fill="none" xmlns="http://www.w3.org/2000/svg">
<rect x="168.102" y="190.957" width="91" height="39" rx="4" transform="rotate(-91.9256 168.102 190.957)" fill="#9A7858"/>
<g filter="url(#filter0_i_892_273296)">
<rect x="167.834" y="182.994" width="176" height="39" rx="4" transform="rotate(-91.9256 167.834 182.994)" fill="#C8A078"/>
</g>
<path opacity="0.1" d="M182.838 33.7768C182.975 37.8385 181.552 42.2345 178.183 42.3478C174.814 42.4611 174.005 39.1919 173.869 35.1302C173.732 31.0685 174.319 27.7524 177.688 27.6392C181.057 27.5259 182.702 29.7152 182.838 33.7768Z" fill="black"/>
<path opacity="0.1" d="M195.73 169.713C195.827 172.59 192.913 175.768 186.434 175.986C179.955 176.203 178.535 173.916 178.438 171.039C178.342 168.162 179.605 165.785 186.084 165.567C192.563 165.349 195.634 166.836 195.73 169.713Z" fill="black"/>
<path opacity="0.1" d="M190.86 24.8609C191.116 32.4766 190.424 40.6527 188.351 40.7224C186.278 40.7921 185.641 34.6328 185.385 27.0172C185.129 19.4015 185.351 13.2133 187.424 13.1436C189.497 13.0739 190.604 17.2453 190.86 24.8609Z" fill="white"/>
<rect x="114.92" y="184.82" width="184.048" height="39" rx="4" transform="rotate(-91.1924 114.92 184.82)" fill="#9A7858"/>
<g filter="url(#filter1_i_892_273296)">
<rect x="114.752" y="176.773" width="176" height="39" rx="4" transform="rotate(-91.1924 114.752 176.773)" fill="#C8A078"/>
</g>
<path opacity="0.1" d="M136.86 133.205C136.945 137.268 135.466 141.645 132.096 141.716C128.725 141.786 127.959 138.506 127.874 134.443C127.79 130.38 128.419 127.072 131.789 127.002C135.159 126.932 136.776 129.142 136.86 133.205Z" fill="black"/>
<path opacity="0.1" d="M138.536 47.1278C138.708 55.4233 137.021 64.3329 133.003 64.4165C128.985 64.5001 128.013 57.7926 127.84 49.4971C127.667 41.2016 128.36 34.4595 132.378 34.3758C136.396 34.2922 138.363 38.8323 138.536 47.1278Z" fill="white"/>
<rect x="60.1084" y="199.13" width="91" height="39" rx="4" transform="rotate(-92.548 60.1084 199.13)" fill="#9A7858"/>
<g filter="url(#filter2_i_892_273296)">
<rect x="59.7539" y="191.17" width="176" height="39" rx="4" transform="rotate(-92.548 59.7539 191.17)" fill="#C8A078"/>
</g>
<path opacity="0.1" d="M73.1369 41.7989C73.3175 45.8589 71.9422 50.2701 68.5747 50.42C65.2072 50.5698 64.3633 47.3096 64.1826 43.2497C64.0019 39.1897 64.5529 35.8674 67.9204 35.7175C71.288 35.5677 72.9562 37.739 73.1369 41.7989Z" fill="black"/>
<path opacity="0.1" d="M87.5043 177.587C87.6323 180.462 84.7528 183.672 78.2768 183.96C71.8008 184.248 70.3558 181.976 70.2278 179.101C70.0998 176.225 71.3373 173.834 77.8133 173.546C84.2893 173.258 87.3763 174.711 87.5043 177.587Z" fill="black"/>
<path opacity="0.1" d="M81.0609 32.7965C81.3997 40.4089 80.7967 48.592 78.7244 48.6843C76.652 48.7765 75.9482 42.6245 75.6095 35.012C75.2707 27.3996 75.4253 21.2094 77.4976 21.1172C79.5699 21.025 80.7222 25.184 81.0609 32.7965Z" fill="white"/>
<rect y="195.354" width="91" height="39" rx="4" transform="rotate(-90 0 195.354)" fill="#9A7858"/>
<g filter="url(#filter3_i_892_273296)">
<rect y="187.386" width="176" height="39" rx="4" transform="rotate(-90 0 187.386)" fill="#C8A078"/>
</g>
<path opacity="0.1" d="M19.0099 148.612C19.0099 152.676 17.4398 157.022 14.069 157.022C10.6981 157.022 10 153.727 10 149.663C10 145.599 10.6981 142.305 14.069 142.305C17.4398 142.305 19.0099 144.548 19.0099 148.612Z" fill="white"/>
<path opacity="0.1" d="M24.5543 123.471C24.5543 131.091 23.5881 139.239 21.5138 139.239C19.4394 139.239 19.0098 133.062 19.0098 125.442C19.0098 117.822 19.4394 111.645 21.5138 111.645C23.5881 111.645 24.5543 115.851 24.5543 123.471Z" fill="white"/>
<path opacity="0.1" d="M30.7929 49.8859C30.7929 52.7645 28.7398 55.8427 24.3317 55.8427C19.9237 55.8427 19.0107 53.5091 19.0107 50.6305C19.0107 47.7518 19.9237 45.4182 24.3317 45.4182C28.7398 45.4182 30.7929 47.0072 30.7929 49.8859Z" fill="black"/>
<defs>
<filter id="filter0_i_892_273296" x="162.052" y="5.91455" width="44.6274" height="176.947" filterUnits="userSpaceOnUse" color-interpolation-filters="sRGB">
<feFlood flood-opacity="0" result="BackgroundImageFix"/>
<feBlend mode="normal" in="SourceGraphic" in2="BackgroundImageFix" result="shape"/>
<feColorMatrix in="SourceAlpha" type="matrix" values="0 0 0 0 0 0 0 0 0 0 0 0 0 0 0 0 0 0 127 0" result="hardAlpha"/>
<feOffset dx="1"/>
<feComposite in2="hardAlpha" operator="arithmetic" k2="-1" k3="1"/>
<feColorMatrix type="matrix" values="0 0 0 0 0 0 0 0 0 0 0 0 0 0 0 0 0 0 0.25 0"/>
<feBlend mode="normal" in2="shape" result="effect1_innerShadow_892_273296"/>
</filter>
<filter id="filter1_i_892_273296" x="111.172" y="0.0822754" width="42.4893" height="176.609" filterUnits="userSpaceOnUse" color-interpolation-filters="sRGB">
<feFlood flood-opacity="0" result="BackgroundImageFix"/>
<feBlend mode="normal" in="SourceGraphic" in2="BackgroundImageFix" result="shape"/>
<feColorMatrix in="SourceAlpha" type="matrix" values="0 0 0 0 0 0 0 0 0 0 0 0 0 0 0 0 0 0 127 0" result="hardAlpha"/>
<feOffset dx="1"/>
<feComposite in2="hardAlpha" operator="arithmetic" k2="-1" k3="1"/>
<feColorMatrix type="matrix" values="0 0 0 0 0 0 0 0 0 0 0 0 0 0 0 0 0 0 0.25 0"/>
<feBlend mode="normal" in2="shape" result="effect1_innerShadow_892_273296"/>
</filter>
<filter id="filter2_i_892_273296" x="52.1035" y="13.7837" width="46.438" height="177.212" filterUnits="userSpaceOnUse" color-interpolation-filters="sRGB">
<feFlood flood-opacity="0" result="BackgroundImageFix"/>
<feBlend mode="normal" in="SourceGraphic" in2="BackgroundImageFix" result="shape"/>
<feColorMatrix in="SourceAlpha" type="matrix" values="0 0 0 0 0 0 0 0 0 0 0 0 0 0 0 0 0 0 127 0" result="hardAlpha"/>
<feOffset dx="1"/>
<feComposite in2="hardAlpha" operator="arithmetic" k2="-1" k3="1"/>
<feColorMatrix type="matrix" values="0 0 0 0 0 0 0 0 0 0 0 0 0 0 0 0 0 0 0.25 0"/>
<feBlend mode="normal" in2="shape" result="effect1_innerShadow_892_273296"/>
</filter>
<filter id="filter3_i_892_273296" x="0" y="11.386" width="39" height="176" filterUnits="userSpaceOnUse" color-interpolation-filters="sRGB">
<feFlood flood-opacity="0" result="BackgroundImageFix"/>
<feBlend mode="normal" in="SourceGraphic" in2="BackgroundImageFix" result="shape"/>
<feColorMatrix in="SourceAlpha" type="matrix" values="0 0 0 0 0 0 0 0 0 0 0 0 0 0 0 0 0 0 127 0" result="hardAlpha"/>
<feOffset dx="1"/>
<feComposite in2="hardAlpha" operator="arithmetic" k2="-1" k3="1"/>
<feColorMatrix type="matrix" values="0 0 0 0 0 0 0 0 0 0 0 0 0 0 0 0 0 0 0.25 0"/>
<feBlend mode="normal" in2="shape" result="effect1_innerShadow_892_273296"/>
</filter>
</defs>
</svg>
