<svg width="635" height="567" viewBox="0 0 635 567" fill="none" xmlns="http://www.w3.org/2000/svg">
<rect x="59.5854" y="369.603" width="421.416" height="196.891" rx="81.1744" fill="black" fill-opacity="0.12"/>
<rect x="91.5371" y="388.601" width="363.557" height="158.894" rx="79.4472" fill="black" fill-opacity="0.12"/>
<g filter="url(#filter0_d_892_287418)">
<path d="M172.233 393.232L168.823 400.36L169.417 404.694C170.043 409.27 172.898 413.352 177.382 414.461C182.716 415.782 189.729 416.197 193.186 410.832C199.194 401.506 184.965 393.661 172.233 393.232Z" fill="black" fill-opacity="0.7"/>
<path d="M173.204 395.135L168.77 404.405L169.843 412.242C170.47 416.818 173.328 420.846 177.756 422.16C184.832 424.259 195.478 425.748 200.454 418.024C208.267 405.895 189.763 395.692 173.204 395.135Z" fill="black" fill-opacity="0.7"/>
</g>
<g filter="url(#filter1_i_892_287418)">
<path d="M195.466 307.97L168.285 312.97L160.73 382.348C160.409 385.289 161.362 388.227 163.346 390.422L165.694 393.017L168.594 400.226C169.428 402.3 171.179 403.868 173.332 404.469L173.63 404.553C175.217 404.996 176.913 404.812 178.368 404.039C181.153 402.559 182.45 399.273 181.426 396.289L176.114 380.813C174.984 377.521 174.932 373.954 175.967 370.63L195.466 307.97Z" fill="#82644D"/>
</g>
<g filter="url(#filter2_d_892_287418)">
<path d="M339.202 394.769L336.161 401.996L336.958 406.275C337.795 410.773 340.814 414.676 345.303 415.563C350.654 416.62 357.633 416.702 360.805 411.216C366.316 401.687 351.841 394.589 339.202 394.769Z" fill="black" fill-opacity="0.7"/>
<path d="M340.254 396.609L336.3 406.008L337.739 413.736C338.576 418.234 341.595 422.084 346.039 423.174C353.152 424.921 363.783 425.895 368.35 417.998C375.517 405.606 356.692 396.374 340.254 396.609Z" fill="black" fill-opacity="0.7"/>
</g>
<g filter="url(#filter3_i_892_287418)">
<path d="M353.544 322.864L332.878 330.246V396.824C332.878 401.762 336.881 405.765 341.819 405.765C342.331 405.765 342.842 405.721 343.346 405.634C349.027 404.65 352.337 398.653 350.136 393.324L347.193 386.198C346.558 384.66 346.328 382.984 346.527 381.332L353.544 322.864Z" fill="#82644D"/>
</g>
<g filter="url(#filter4_i_892_287418)">
<path d="M357.016 325.319C357.053 319.69 352.273 315.315 346.646 315.461L342.895 315.558C337.881 315.687 333.64 319.386 333.057 324.367C332.078 332.715 331.831 339.693 332.049 349.099C332.124 352.349 334.802 354.923 338.053 354.923H343.454C349.111 354.923 354.071 351.011 355.078 345.445C356.383 338.239 356.969 332.241 357.016 325.319Z" fill="#82644D"/>
</g>
<g filter="url(#filter5_i_892_287418)">
<path d="M375.154 246.115L332.709 266.004L335.081 329.257C335.318 335.575 340.135 340.773 346.417 341.488C350.964 342.006 355.162 338.992 356.125 334.519L375.154 246.115Z" fill="#82644D"/>
</g>
<g filter="url(#filter6_iii_892_287418)">
<path fill-rule="evenodd" clip-rule="evenodd" d="M474.65 111.24C480.068 120.036 482.46 130.456 480.896 140.669C474.562 182.018 464.502 203.493 455.942 221.764C447.175 240.478 439.982 255.831 439.982 285.737C439.584 288.095 439.146 290.323 438.669 292.424C436.219 306.162 428.949 318.666 418.053 327.611C381.041 357.995 321.048 339.294 274.474 324.776C273.061 324.335 271.661 323.899 270.275 323.468C260.757 320.509 250.138 318.854 238.341 319.102C233.927 319.195 229.34 319.638 224.634 320.375C167.414 329.335 100.913 295.373 103.817 237.528C107.13 171.533 177.968 131.235 236.721 161.474C276.762 182.082 325.203 178.734 361.875 152.596L391.577 131.426C395.022 126.111 396.345 121.087 397.786 115.612C399.026 110.903 400.354 105.859 403.197 100.007C407.489 91.1722 416.325 85.7315 425.762 83.0038L452.496 75.2759L474.65 111.24Z" fill="#A6815E"/>
</g>
<path d="M480.815 140.669C482.379 130.456 479.988 120.036 474.569 111.24L452.415 75.2759L425.681 83.0038C416.245 85.7315 407.321 91.1646 403.516 100.22C392.069 127.464 409.231 147.154 336.243 172.774C335.509 173.031 334.783 173.409 334.17 173.887C306.326 195.614 286.139 236.563 352.536 271.072C356.434 267.505 364.03 281.377 364.03 285.737C391.679 319.514 429.539 347.149 439.902 285.737C439.902 226.634 467.994 224.371 480.815 140.669Z" fill="url(#paint0_linear_892_287418)" fill-opacity="0.51"/>
<mask id="mask0_892_287418" style="mask-type:alpha" maskUnits="userSpaceOnUse" x="107" y="75" width="375" height="269">
<path fill-rule="evenodd" clip-rule="evenodd" d="M474.65 111.24C480.068 120.036 482.46 130.456 480.896 140.669C474.562 182.018 464.502 203.493 455.942 221.764C447.175 240.478 439.982 255.831 439.982 285.737C435.848 310.24 427.336 320.567 416.841 321.984C413.037 325.531 408.835 328.702 404.278 331.425C386.32 342.154 365.195 346.438 344.68 342.352C328.749 339.179 308.75 334.705 289.292 329.017C264.68 320.381 241.776 315.903 224.093 319.949C172.496 331.756 103.72 290.745 107.909 237.981L110.599 204.109C112.805 176.319 139.044 156.877 166.273 162.856L251.533 181.58C274.602 186.646 298.157 188.2 321.424 186.314C326.185 177.296 333.38 170.195 342.4 165.802C390.775 142.242 393.834 130.625 397.786 115.612C399.026 110.903 400.354 105.859 403.197 100.007C407.489 91.1722 416.325 85.7315 425.762 83.0038L452.496 75.2759L474.65 111.24Z" fill="#A6815E"/>
</mask>
<g mask="url(#mask0_892_287418)">
<g filter="url(#filter7_f_892_287418)">
<path d="M443.868 231.096L393.781 217.051L379.574 224.426C343.903 242.944 303.294 249.724 263.541 243.798L176.94 230.89C145.94 226.269 117.029 247.558 112.241 278.533C106.373 316.49 150.332 344.968 186.197 331.226C204.144 324.349 222.376 319.438 238.341 319.103C250.015 318.858 260.536 320.475 269.977 323.376C317.283 337.913 380.039 358.818 418.29 327.417C430.765 317.175 438.508 302.276 439.72 286.181L443.868 231.096Z" fill="url(#paint1_linear_892_287418)" fill-opacity="0.2"/>
</g>
</g>
<g filter="url(#filter8_di_892_287418)">
<ellipse cx="6.88992" cy="12.7322" rx="6.88992" ry="12.7322" transform="matrix(-0.798863 0.601513 0.429736 0.902955 581.741 93.2)" fill="#82644D"/>
</g>
<path d="M591 117.432C590.612 110.016 585.838 103.546 578.867 100.987L565.148 95.9509L525.206 72.9959C485.74 100.746 514.692 103.993 475.226 131.743L502.502 142.654L544.478 162.587C567.114 173.336 593.019 155.997 591.709 130.972L591 117.432Z" fill="#82644D"/>
<mask id="mask1_892_287418" style="mask-type:alpha" maskUnits="userSpaceOnUse" x="469" y="72" width="122" height="94">
<path d="M590.922 117.83C590.922 110.212 586.266 103.368 579.179 100.573L565.547 95.1944L530.121 72.677C490.655 100.427 508.708 99.0834 469.242 126.833L503.886 140.186L541.502 161.545C563.557 174.069 590.922 158.139 590.922 132.776L590.922 117.83Z" fill="#82644D"/>
</mask>
<g mask="url(#mask1_892_287418)">
<g filter="url(#filter9_f_892_287418)">
<path d="M550.273 118.652C510.807 146.402 493.979 99.6288 454.513 127.379L503.886 140.186L546.06 161.92C561.697 169.978 580.905 164.391 589.781 149.203L592.013 145.382L581.512 143.184C572.257 141.248 563.982 136.11 558.143 128.674L550.273 118.652Z" fill="black" fill-opacity="0.2"/>
</g>
</g>
<g filter="url(#filter10_i_892_287418)">
<path d="M565.157 95.9522L525.215 72.9972L491.173 36.7471L475.566 28.3386C454.428 16.95 428.093 23.578 414.864 43.616L404.917 58.683C397.243 70.3067 394.582 84.5742 397.516 98.1899C406.176 138.369 449.552 160.655 487.173 144.101L488.07 143.707L513.277 148.722C528.433 151.738 543.663 143.879 549.987 129.778L565.157 95.9522Z" fill="#9A7858"/>
</g>
<mask id="mask2_892_287418" style="mask-type:alpha" maskUnits="userSpaceOnUse" x="393" y="17" width="173" height="133">
<path d="M565.158 95.952L524.893 72.5445L491.175 32.3829L477.785 24.199C455.937 10.8459 427.401 17.7255 414.038 39.5677L393.862 72.5445L396.237 92.2558C401.198 133.415 442.935 159.446 482.08 145.796L488.098 143.698L515.494 149.156C529.353 151.918 543.28 144.733 549.063 131.839L565.158 95.952Z" fill="#9A7858"/>
</mask>
<g mask="url(#mask2_892_287418)">
<path d="M501.102 53.6477C494.866 50.2989 471.603 48.0815 465.083 45.4171C458.799 47.9553 458.265 56.6464 464.193 59.9337L464.619 60.1699L487.832 76.0223C489.856 77.3185 494.93 80.3365 499.037 82.0397C503.144 83.743 521.719 90.8728 530.723 93.1973C534.546 95.0407 549.022 95.5341 553.219 97.7883L520.164 76.0223C520.164 76.0223 508.897 57.8337 501.102 53.6477Z" fill="#C8A078"/>
<g filter="url(#filter11_f_892_287418)">
<path d="M444.271 49.9054C424.545 51.6441 408.87 67.2142 406.999 86.9284L405.05 107.464C407.981 132.516 429.549 151.189 454.763 150.503L491.175 149.512L524.737 147.739C529.338 147.496 533.838 146.297 537.95 144.217L570.739 127.63L505.276 98.4977C499.567 95.9568 494.405 92.3299 490.08 87.819L459.046 55.4537C455.216 51.4603 449.782 49.4197 444.271 49.9054Z" fill="black" fill-opacity="0.2"/>
</g>
</g>
<g filter="url(#filter12_i_892_287418)">
<path d="M440.461 16.4248C441.178 8.98594 447.428 3.30859 454.901 3.30859H456.002C457.88 3.30859 459.339 4.94396 459.125 6.80956L455.62 37.4591C455.126 41.7789 451.47 45.0406 447.122 45.0406C442.074 45.0406 438.124 40.6919 438.608 35.6672L440.461 16.4248Z" fill="#A6815E"/>
</g>
<g filter="url(#filter13_i_892_287418)">
<path d="M440.49 20.4206C441.193 14.2041 446.452 9.50659 452.708 9.50659H455.355C457.177 9.50659 458.593 11.0917 458.388 12.9016L455.603 37.5229C455.119 41.805 451.496 45.0408 447.187 45.0408C442.132 45.0408 438.203 40.6418 438.771 35.619L440.49 20.4206Z" fill="#9A7858"/>
</g>
<g filter="url(#filter14_d_892_287418)">
<g filter="url(#filter15_ii_892_287418)">
<path fill-rule="evenodd" clip-rule="evenodd" d="M441.685 15.6661C451.148 10.255 463.824 3.00569 472.598 4.64671C466.22 7.34336 466.224 9.88445 466.226 11.184C466.226 11.5768 466.227 11.8562 466.051 11.9921C472.165 10.9815 486.056 13.245 492.711 30.3837C489.59 29.002 486.381 28.7198 483.474 28.9666C486.17 31.0805 488.565 33.107 489.975 34.4759C494.4 38.7694 497.243 43.229 497.557 47.6685C496.797 46.156 494.125 42.9382 489.209 41.2021C496.635 51.6641 495.684 57.8255 495.019 62.142C494.689 64.2824 494.429 65.9691 495.294 67.5016C496.987 70.4984 493.372 68.488 485.588 64.1589C480.084 61.0979 472.496 56.8775 463.225 52.4482C450.508 46.3724 454.648 59.3775 454.648 59.3775C442.51 59.7373 395.891 52.7942 433.492 21.3178C434.973 19.6735 437.162 17.9905 439.917 16.6755C440.492 16.3484 441.082 16.011 441.685 15.6661Z" fill="#44403C"/>
</g>
<g filter="url(#filter16_i_892_287418)">
<path fill-rule="evenodd" clip-rule="evenodd" d="M295.703 186.378C309.1 181.995 323.528 177.276 335.075 165.695C350.613 150.111 352.732 145.831 363.1 124.893C365.794 119.453 369.044 112.888 373.232 104.709C377.565 96.2434 381.273 88.5513 384.617 81.615C400.256 49.1702 407.925 33.2598 434.415 32.074C434.415 32.074 435.404 54.1512 435.562 57.6876C435.315 57.958 435.21 59.1401 435.038 61.0905C434.723 64.6525 434.181 70.7772 432.129 78.5916C430.421 85.0962 427.019 94.4113 423.076 95.9248C422.98 93.7881 423.108 91.9882 423.227 90.3132C423.441 87.2886 423.627 84.6707 422.417 81.2106C421.645 88.344 420.303 100.542 413.088 104.563C412.322 104.99 411.737 103.417 411.072 101.624C410.693 100.605 410.289 99.5158 409.809 98.681C409.801 115.04 406.848 135.753 396.334 152.066C396.5 149.418 396.681 146.808 396.858 144.261C397.34 137.334 397.789 130.873 397.805 125.37C394.77 137.478 391.578 149.763 388.839 152.61C387.301 154.208 385.696 155.955 384.03 157.768C377.217 165.184 369.383 173.712 360.961 177.709C356.996 179.59 353.315 181.424 349.817 183.168C333.586 191.256 321.277 197.39 302.711 197.221C299.244 197.189 295.349 196.866 291.446 196.543C283.204 195.859 274.926 195.173 270.571 197.221C277.573 192.308 286.389 189.424 295.703 186.378Z" fill="#44403C"/>
</g>
</g>
<g filter="url(#filter17_ii_892_287418)">
<path d="M437.246 47.0161C438.205 39.9832 442.968 34.0538 449.628 31.6L455.378 29.4817C456.633 29.0191 457.982 29.8906 458.076 31.2255L458.537 37.7757C459.594 52.7889 449.115 66.1652 434.285 68.7319L437.246 47.0161Z" fill="#A6815E"/>
</g>
<g filter="url(#filter18_ii_892_287418)">
<path d="M442.32 49.9923C442.32 42.5466 446.968 35.8925 453.958 33.3293L456.036 32.5676C456.691 32.3272 457.386 32.8124 457.386 33.5105V45.1294L454.713 53.2131C452.332 60.4151 446.25 65.772 438.805 67.2257L441.235 58.2017C441.955 55.5248 442.32 52.7645 442.32 49.9923Z" fill="#82644D"/>
</g>
<g filter="url(#filter19_di_892_287418)">
<ellipse cx="6.88992" cy="12.7322" rx="6.88992" ry="12.7322" transform="matrix(-0.630015 0.776583 0.635017 0.772498 567.232 112.222)" fill="#82644D"/>
</g>
<ellipse cx="3.59333" cy="7.11279" rx="3.59333" ry="7.11279" transform="matrix(-0.69571 0.718322 0.677749 0.735294 570.129 122.21)" fill="black" fill-opacity="0.4"/>
<ellipse cx="3.59333" cy="7.11279" rx="3.59333" ry="7.11279" transform="matrix(-0.69571 0.718322 0.677749 0.735294 570.129 122.21)" fill="url(#paint2_linear_892_287418)"/>
<path d="M481.516 95.3476C481.516 99.3178 478.7 102.536 475.226 102.536C471.752 102.536 468.936 99.3178 468.936 95.3476" stroke="#3C2D24" stroke-width="4.01751" stroke-linecap="round"/>
<g filter="url(#filter20_d_892_287418)">
<path d="M128.553 487.99L123.757 495.955L123.965 501.097C124.184 506.527 127.069 511.629 132.194 513.433C138.293 515.579 146.46 516.854 151.112 510.96C159.197 500.713 143.416 489.925 128.553 487.99Z" fill="black" fill-opacity="0.7"/>
<path d="M129.476 490.328L123.24 500.686L123.615 509.985C123.834 515.415 126.728 520.454 131.766 522.49C139.817 525.746 152.118 528.686 158.814 520.2C169.329 506.875 148.806 492.844 129.476 490.328Z" fill="black" fill-opacity="0.7"/>
</g>
<g filter="url(#filter21_i_892_287418)">
<path d="M152.288 406.415L125.107 411.415L117.552 480.793C117.231 483.734 118.184 486.672 120.169 488.867L122.516 491.462L125.416 498.671C126.25 500.745 128.001 502.313 130.154 502.914L130.453 502.998C132.039 503.441 133.735 503.257 135.19 502.484C137.975 501.003 139.272 497.718 138.248 494.734L132.936 479.258C131.806 475.966 131.754 472.399 132.789 469.075L152.288 406.415Z" fill="#9A7858"/>
</g>
<path d="M152.087 406.746L124.906 411.746L117.351 481.124C117.03 484.066 117.983 487.004 119.968 489.198L122.315 491.793L125.215 499.003C126.049 501.077 127.8 502.645 129.953 503.246L130.252 503.329C131.838 503.772 133.534 503.588 134.989 502.815C137.774 501.335 139.071 498.049 138.047 495.066L132.735 479.59C131.605 476.297 131.553 472.73 132.588 469.407L152.087 406.746Z" fill="black" fill-opacity="0.12"/>
<g filter="url(#filter22_i_892_287418)">
<path d="M122.574 420.549C122.25 427.825 127.033 434.674 134.185 436.053C140.549 437.281 146.918 433.78 149.22 427.722C158.561 403.145 157.324 400.207 136.556 397.127C131.437 396.368 126.264 399.065 124.773 404.02C122.947 410.089 122.823 414.939 122.574 420.549Z" fill="#9A7858"/>
</g>
<path d="M122.574 420.549C122.25 427.825 127.033 434.674 134.185 436.053C140.549 437.281 146.918 433.78 149.22 427.722C158.561 403.145 157.324 400.207 136.556 397.127C131.437 396.368 126.264 399.065 124.773 404.02C122.947 410.089 122.823 414.939 122.574 420.549Z" fill="black" fill-opacity="0.2"/>
<g filter="url(#filter23_ii_892_287418)">
<path d="M204.062 351.723C210.922 344.185 217.387 336.058 221.025 326.537L228.822 306.135C236.845 285.143 236.092 261.806 226.734 241.374C219.403 225.368 207.214 212.08 191.9 203.398L169.941 190.95C164.08 187.627 156.989 187.282 150.834 190.022C108.38 208.913 88.9826 258.41 107.297 301.115L126.67 346.287C129.096 351.945 130.075 358.118 129.518 364.249L126.195 400.809C125.591 407.459 130.491 413.339 137.141 413.943L143.35 414.508C169.581 404.402 184.861 372.826 204.062 351.723Z" fill="#A6815E"/>
</g>
<g filter="url(#filter24_d_892_287418)">
<path d="M377.215 489.233L372.459 496.95L372.61 501.98C372.768 507.267 375.524 512.261 380.494 514.071C386.42 516.228 394.378 517.56 398.976 511.857C406.963 501.949 391.687 491.27 377.215 489.233Z" fill="black" fill-opacity="0.7"/>
<path d="M378.091 491.522L371.906 501.558L372.177 510.642C372.336 515.929 375.102 520.862 379.984 522.897C387.8 526.154 399.773 529.154 406.391 520.944C416.779 508.059 396.911 494.171 378.091 491.522Z" fill="black" fill-opacity="0.7"/>
</g>
<g filter="url(#filter25_i_892_287418)">
<path d="M391.578 426.007L370.912 433.389V499.967C370.912 504.905 374.916 508.908 379.854 508.908C380.366 508.908 380.877 508.864 381.381 508.777C387.062 507.792 390.372 501.796 388.171 496.466L385.228 489.341C384.592 487.803 384.363 486.127 384.561 484.474L391.578 426.007Z" fill="#9A7858"/>
</g>
<path d="M391.578 426.007L370.912 433.389V499.967C370.912 504.905 374.916 508.908 379.854 508.908C380.366 508.908 380.877 508.864 381.381 508.777C387.062 507.792 390.372 501.796 388.171 496.466L385.228 489.341C384.592 487.803 384.363 486.127 384.561 484.474L391.578 426.007Z" fill="black" fill-opacity="0.12"/>
<g filter="url(#filter26_i_892_287418)">
<path d="M395.5 415.997C395.204 411.506 392.121 407.62 387.79 406.383L381.978 404.722C376.333 403.11 370.53 406.493 369.303 412.216C368.614 415.427 367.916 418.776 367.272 421.912C365.743 429.355 371.112 436.464 378.695 437.115C387.19 437.844 395.563 432.712 395.772 424.191C395.837 421.502 395.688 418.855 395.5 415.997Z" fill="#9A7858"/>
</g>
<path d="M395.5 415.997C395.204 411.506 392.121 407.62 387.79 406.383L381.978 404.722C376.333 403.11 370.53 406.493 369.303 412.216C368.614 415.427 367.916 418.776 367.272 421.912C365.743 429.355 371.112 436.464 378.695 437.115C387.19 437.844 395.563 432.712 395.772 424.191C395.837 421.502 395.688 418.855 395.5 415.997Z" fill="black" fill-opacity="0.2"/>
<g filter="url(#filter27_i_892_287418)">
<path fill-rule="evenodd" clip-rule="evenodd" d="M432.652 291.879C432.358 294.015 431.805 296.107 431.004 298.108L418.712 328.814L416.268 348.04C416.11 349.283 415.84 350.509 415.463 351.704L398.663 404.886C396.335 412.255 391.69 418.671 385.417 423.181C379.719 427.277 371.717 423.537 371.187 416.53L367.875 372.674L365.321 333.807L363.125 329.668L344.429 287.599C331.674 258.898 349.71 226.013 380.739 221.395C412.14 216.722 439.293 243.563 434.971 275.005L432.652 291.879Z" fill="#A6815E"/>
</g>
<path fill-rule="evenodd" clip-rule="evenodd" d="M432.662 291.805C432.362 293.99 431.796 296.13 430.976 298.176L418.712 328.814L416.268 348.04C416.11 349.283 415.84 350.509 415.463 351.704L398.663 404.886C396.335 412.255 391.69 418.671 385.417 423.181C379.719 427.277 371.717 423.537 371.187 416.53L367.875 372.674L365.321 333.807L363.125 329.668L344.439 285.027C332.334 256.108 351.065 223.686 382.137 219.775C413.126 215.875 439.442 242.479 435.19 273.411L432.662 291.805Z" fill="url(#paint3_linear_892_287418)" fill-opacity="0.2"/>
<g filter="url(#filter28_i_892_287418)">
<path fill-rule="evenodd" clip-rule="evenodd" d="M129.53 156.043C118.926 144.141 102.024 130.728 92.9325 133.755C96.3285 136.348 97.7788 138.51 98.0795 139.266C91.5805 138.345 77.0546 140.263 70.9433 155.307C79.7054 151.562 84.954 152.258 86.483 153.074L86.551 153.086C48.6624 161.154 52.0096 221.287 53.8008 253.466C53.9818 256.718 54.147 259.684 54.252 262.282C55.4005 290.685 28.4922 310.396 13.1617 267.872C-10.3725 321.671 73.7847 385.598 96.7221 303.127C100.556 289.343 97.0743 258.554 93.9915 241.182C89.6269 216.588 107.229 175.759 126.409 182.553C130.839 184.122 136.146 184.55 139.45 181.207C141.025 179.614 141.981 177.443 141.494 175.256C140.161 169.268 135.718 162.168 129.53 156.043Z" fill="#292524"/>
</g>
<defs>
<filter id="filter0_d_892_287418" x="167.043" y="393.232" width="35.2564" height="34.068" filterUnits="userSpaceOnUse" color-interpolation-filters="sRGB">
<feFlood flood-opacity="0" result="BackgroundImageFix"/>
<feColorMatrix in="SourceAlpha" type="matrix" values="0 0 0 0 0 0 0 0 0 0 0 0 0 0 0 0 0 0 127 0" result="hardAlpha"/>
<feOffset dx="-0.863557" dy="2.59067"/>
<feGaussianBlur stdDeviation="0.431778"/>
<feComposite in2="hardAlpha" operator="out"/>
<feColorMatrix type="matrix" values="0 0 0 0 0 0 0 0 0 0 0 0 0 0 0 0 0 0 0.25 0"/>
<feBlend mode="normal" in2="BackgroundImageFix" result="effect1_dropShadow_892_287418"/>
<feBlend mode="normal" in="SourceGraphic" in2="effect1_dropShadow_892_287418" result="shape"/>
</filter>
<filter id="filter1_i_892_287418" x="160.668" y="307.97" width="46.8872" height="110.636" filterUnits="userSpaceOnUse" color-interpolation-filters="sRGB">
<feFlood flood-opacity="0" result="BackgroundImageFix"/>
<feBlend mode="normal" in="SourceGraphic" in2="BackgroundImageFix" result="shape"/>
<feColorMatrix in="SourceAlpha" type="matrix" values="0 0 0 0 0 0 0 0 0 0 0 0 0 0 0 0 0 0 127 0" result="hardAlpha"/>
<feOffset dx="12.0898" dy="25.0432"/>
<feGaussianBlur stdDeviation="6.90846"/>
<feComposite in2="hardAlpha" operator="arithmetic" k2="-1" k3="1"/>
<feColorMatrix type="matrix" values="0 0 0 0 0 0 0 0 0 0 0 0 0 0 0 0 0 0 0.25 0"/>
<feBlend mode="normal" in2="shape" result="effect1_innerShadow_892_287418"/>
</filter>
<filter id="filter2_d_892_287418" x="334.435" y="394.766" width="35.4815" height="33.0746" filterUnits="userSpaceOnUse" color-interpolation-filters="sRGB">
<feFlood flood-opacity="0" result="BackgroundImageFix"/>
<feColorMatrix in="SourceAlpha" type="matrix" values="0 0 0 0 0 0 0 0 0 0 0 0 0 0 0 0 0 0 127 0" result="hardAlpha"/>
<feOffset dx="-0.863557" dy="2.59067"/>
<feGaussianBlur stdDeviation="0.431778"/>
<feComposite in2="hardAlpha" operator="out"/>
<feColorMatrix type="matrix" values="0 0 0 0 0 0 0 0 0 0 0 0 0 0 0 0 0 0 0.25 0"/>
<feBlend mode="normal" in2="BackgroundImageFix" result="effect1_dropShadow_892_287418"/>
<feBlend mode="normal" in="SourceGraphic" in2="effect1_dropShadow_892_287418" result="shape"/>
</filter>
<filter id="filter3_i_892_287418" x="332.878" y="322.864" width="32.7553" height="96.7183" filterUnits="userSpaceOnUse" color-interpolation-filters="sRGB">
<feFlood flood-opacity="0" result="BackgroundImageFix"/>
<feBlend mode="normal" in="SourceGraphic" in2="BackgroundImageFix" result="shape"/>
<feColorMatrix in="SourceAlpha" type="matrix" values="0 0 0 0 0 0 0 0 0 0 0 0 0 0 0 0 0 0 127 0" result="hardAlpha"/>
<feOffset dx="12.0898" dy="25.0432"/>
<feGaussianBlur stdDeviation="6.90846"/>
<feComposite in2="hardAlpha" operator="arithmetic" k2="-1" k3="1"/>
<feColorMatrix type="matrix" values="0 0 0 0 0 0 0 0 0 0 0 0 0 0 0 0 0 0 0.25 0"/>
<feBlend mode="normal" in2="shape" result="effect1_innerShadow_892_287418"/>
</filter>
<filter id="filter4_i_892_287418" x="331.976" y="312.866" width="25.04" height="42.0562" filterUnits="userSpaceOnUse" color-interpolation-filters="sRGB">
<feFlood flood-opacity="0" result="BackgroundImageFix"/>
<feBlend mode="normal" in="SourceGraphic" in2="BackgroundImageFix" result="shape"/>
<feColorMatrix in="SourceAlpha" type="matrix" values="0 0 0 0 0 0 0 0 0 0 0 0 0 0 0 0 0 0 127 0" result="hardAlpha"/>
<feOffset dy="-2.59067"/>
<feGaussianBlur stdDeviation="3.45423"/>
<feComposite in2="hardAlpha" operator="arithmetic" k2="-1" k3="1"/>
<feColorMatrix type="matrix" values="0 0 0 0 0 0 0 0 0 0 0 0 0 0 0 0 0 0 0.25 0"/>
<feBlend mode="normal" in2="shape" result="effect1_innerShadow_892_287418"/>
</filter>
<filter id="filter5_i_892_287418" x="332.708" y="246.115" width="54.5351" height="109.249" filterUnits="userSpaceOnUse" color-interpolation-filters="sRGB">
<feFlood flood-opacity="0" result="BackgroundImageFix"/>
<feBlend mode="normal" in="SourceGraphic" in2="BackgroundImageFix" result="shape"/>
<feColorMatrix in="SourceAlpha" type="matrix" values="0 0 0 0 0 0 0 0 0 0 0 0 0 0 0 0 0 0 127 0" result="hardAlpha"/>
<feOffset dx="12.0898" dy="25.0432"/>
<feGaussianBlur stdDeviation="6.90846"/>
<feComposite in2="hardAlpha" operator="arithmetic" k2="-1" k3="1"/>
<feColorMatrix type="matrix" values="0 0 0 0 0 0 0 0 0 0 0 0 0 0 0 0 0 0 0.25 0"/>
<feBlend mode="normal" in2="shape" result="effect1_innerShadow_892_287418"/>
</filter>
<filter id="filter6_iii_892_287418" x="103.725" y="46.8099" width="423.188" height="297.114" filterUnits="userSpaceOnUse" color-interpolation-filters="sRGB">
<feFlood flood-opacity="0" result="BackgroundImageFix"/>
<feBlend mode="normal" in="SourceGraphic" in2="BackgroundImageFix" result="shape"/>
<feColorMatrix in="SourceAlpha" type="matrix" values="0 0 0 0 0 0 0 0 0 0 0 0 0 0 0 0 0 0 127 0" result="hardAlpha"/>
<feOffset dx="11.3864" dy="-12.4093"/>
<feGaussianBlur stdDeviation="5.6932"/>
<feComposite in2="hardAlpha" operator="arithmetic" k2="-1" k3="1"/>
<feColorMatrix type="matrix" values="0 0 0 0 0 0 0 0 0 0 0 0 0 0 0 0 0 0 0.15 0"/>
<feBlend mode="normal" in2="shape" result="effect1_innerShadow_892_287418"/>
<feColorMatrix in="SourceAlpha" type="matrix" values="0 0 0 0 0 0 0 0 0 0 0 0 0 0 0 0 0 0 127 0" result="hardAlpha"/>
<feOffset dx="57.6942" dy="-28.466"/>
<feGaussianBlur stdDeviation="22.7728"/>
<feComposite in2="hardAlpha" operator="arithmetic" k2="-1" k3="1"/>
<feColorMatrix type="matrix" values="0 0 0 0 0 0 0 0 0 0 0 0 0 0 0 0 0 0 0.15 0"/>
<feBlend mode="normal" in2="effect1_innerShadow_892_287418" result="effect2_innerShadow_892_287418"/>
<feColorMatrix in="SourceAlpha" type="matrix" values="0 0 0 0 0 0 0 0 0 0 0 0 0 0 0 0 0 0 127 0" result="hardAlpha"/>
<feOffset dx="11.3864" dy="-28.466"/>
<feGaussianBlur stdDeviation="22.7728"/>
<feComposite in2="hardAlpha" operator="arithmetic" k2="-1" k3="1"/>
<feColorMatrix type="matrix" values="0 0 0 0 0 0 0 0 0 0 0 0 0 0 0 0 0 0 0.15 0"/>
<feBlend mode="normal" in2="effect2_innerShadow_892_287418" result="effect3_innerShadow_892_287418"/>
</filter>
<filter id="filter7_f_892_287418" x="94.4388" y="199.78" width="366.7" height="161.266" filterUnits="userSpaceOnUse" color-interpolation-filters="sRGB">
<feFlood flood-opacity="0" result="BackgroundImageFix"/>
<feBlend mode="normal" in="SourceGraphic" in2="BackgroundImageFix" result="shape"/>
<feGaussianBlur stdDeviation="8.63557" result="effect1_foregroundBlur_892_287418"/>
</filter>
<filter id="filter8_di_892_287418" x="571.939" y="95.6123" width="19.5395" height="28.4657" filterUnits="userSpaceOnUse" color-interpolation-filters="sRGB">
<feFlood flood-opacity="0" result="BackgroundImageFix"/>
<feColorMatrix in="SourceAlpha" type="matrix" values="0 0 0 0 0 0 0 0 0 0 0 0 0 0 0 0 0 0 127 0" result="hardAlpha"/>
<feOffset dy="1.00438"/>
<feGaussianBlur stdDeviation="1.00438"/>
<feComposite in2="hardAlpha" operator="out"/>
<feColorMatrix type="matrix" values="0 0 0 0 0 0 0 0 0 0 0 0 0 0 0 0 0 0 0.25 0"/>
<feBlend mode="normal" in2="BackgroundImageFix" result="effect1_dropShadow_892_287418"/>
<feBlend mode="normal" in="SourceGraphic" in2="effect1_dropShadow_892_287418" result="shape"/>
<feColorMatrix in="SourceAlpha" type="matrix" values="0 0 0 0 0 0 0 0 0 0 0 0 0 0 0 0 0 0 127 0" result="hardAlpha"/>
<feOffset dy="-1.00438"/>
<feGaussianBlur stdDeviation="1.50656"/>
<feComposite in2="hardAlpha" operator="arithmetic" k2="-1" k3="1"/>
<feColorMatrix type="matrix" values="0 0 0 0 0 0 0 0 0 0 0 0 0 0 0 0 0 0 0.25 0"/>
<feBlend mode="normal" in2="shape" result="effect2_innerShadow_892_287418"/>
</filter>
<filter id="filter9_f_892_287418" x="450.496" y="114.192" width="145.535" height="55.4256" filterUnits="userSpaceOnUse" color-interpolation-filters="sRGB">
<feFlood flood-opacity="0" result="BackgroundImageFix"/>
<feBlend mode="normal" in="SourceGraphic" in2="BackgroundImageFix" result="shape"/>
<feGaussianBlur stdDeviation="2.00875" result="effect1_foregroundBlur_892_287418"/>
</filter>
<filter id="filter10_i_892_287418" x="396.351" y="13.5087" width="178.082" height="136.106" filterUnits="userSpaceOnUse" color-interpolation-filters="sRGB">
<feFlood flood-opacity="0" result="BackgroundImageFix"/>
<feBlend mode="normal" in="SourceGraphic" in2="BackgroundImageFix" result="shape"/>
<feColorMatrix in="SourceAlpha" type="matrix" values="0 0 0 0 0 0 0 0 0 0 0 0 0 0 0 0 0 0 127 0" result="hardAlpha"/>
<feOffset dx="9.27571" dy="-9.27571"/>
<feGaussianBlur stdDeviation="4.63786"/>
<feComposite in2="hardAlpha" operator="arithmetic" k2="-1" k3="1"/>
<feColorMatrix type="matrix" values="0 0 0 0 0 0 0 0 0 0 0 0 0 0 0 0 0 0 0.08 0"/>
<feBlend mode="normal" in2="shape" result="effect1_innerShadow_892_287418"/>
</filter>
<filter id="filter11_f_892_287418" x="401.032" y="45.8175" width="173.724" height="108.721" filterUnits="userSpaceOnUse" color-interpolation-filters="sRGB">
<feFlood flood-opacity="0" result="BackgroundImageFix"/>
<feBlend mode="normal" in="SourceGraphic" in2="BackgroundImageFix" result="shape"/>
<feGaussianBlur stdDeviation="2.00875" result="effect1_foregroundBlur_892_287418"/>
</filter>
<filter id="filter12_i_892_287418" x="438.568" y="-0.529922" width="23.457" height="45.5704" filterUnits="userSpaceOnUse" color-interpolation-filters="sRGB">
<feFlood flood-opacity="0" result="BackgroundImageFix"/>
<feBlend mode="normal" in="SourceGraphic" in2="BackgroundImageFix" result="shape"/>
<feColorMatrix in="SourceAlpha" type="matrix" values="0 0 0 0 0 0 0 0 0 0 0 0 0 0 0 0 0 0 127 0" result="hardAlpha"/>
<feOffset dx="2.87889" dy="-3.83852"/>
<feGaussianBlur stdDeviation="1.91926"/>
<feComposite in2="hardAlpha" operator="arithmetic" k2="-1" k3="1"/>
<feColorMatrix type="matrix" values="0 0 0 0 0 0 0 0 0 0 0 0 0 0 0 0 0 0 0.15 0"/>
<feBlend mode="normal" in2="shape" result="effect1_innerShadow_892_287418"/>
</filter>
<filter id="filter13_i_892_287418" x="438.716" y="5.66808" width="22.5703" height="39.3727" filterUnits="userSpaceOnUse" color-interpolation-filters="sRGB">
<feFlood flood-opacity="0" result="BackgroundImageFix"/>
<feBlend mode="normal" in="SourceGraphic" in2="BackgroundImageFix" result="shape"/>
<feColorMatrix in="SourceAlpha" type="matrix" values="0 0 0 0 0 0 0 0 0 0 0 0 0 0 0 0 0 0 127 0" result="hardAlpha"/>
<feOffset dx="2.87889" dy="-3.83852"/>
<feGaussianBlur stdDeviation="1.91926"/>
<feComposite in2="hardAlpha" operator="arithmetic" k2="-1" k3="1"/>
<feColorMatrix type="matrix" values="0 0 0 0 0 0 0 0 0 0 0 0 0 0 0 0 0 0 0.1 0"/>
<feBlend mode="normal" in2="shape" result="effect1_innerShadow_892_287418"/>
</filter>
<filter id="filter14_d_892_287418" x="268.734" y="4.4104" width="230.659" height="196.487" filterUnits="userSpaceOnUse" color-interpolation-filters="sRGB">
<feFlood flood-opacity="0" result="BackgroundImageFix"/>
<feColorMatrix in="SourceAlpha" type="matrix" values="0 0 0 0 0 0 0 0 0 0 0 0 0 0 0 0 0 0 127 0" result="hardAlpha"/>
<feOffset dy="1.8364"/>
<feGaussianBlur stdDeviation="0.918202"/>
<feComposite in2="hardAlpha" operator="out"/>
<feColorMatrix type="matrix" values="0 0 0 0 0 0 0 0 0 0 0 0 0 0 0 0 0 0 0.25 0"/>
<feBlend mode="normal" in2="BackgroundImageFix" result="effect1_dropShadow_892_287418"/>
<feBlend mode="normal" in="SourceGraphic" in2="effect1_dropShadow_892_287418" result="shape"/>
</filter>
<filter id="filter15_ii_892_287418" x="417.272" y="0.0421472" width="80.2842" height="70.7235" filterUnits="userSpaceOnUse" color-interpolation-filters="sRGB">
<feFlood flood-opacity="0" result="BackgroundImageFix"/>
<feBlend mode="normal" in="SourceGraphic" in2="BackgroundImageFix" result="shape"/>
<feColorMatrix in="SourceAlpha" type="matrix" values="0 0 0 0 0 0 0 0 0 0 0 0 0 0 0 0 0 0 127 0" result="hardAlpha"/>
<feOffset dy="-13.1048"/>
<feGaussianBlur stdDeviation="2.18413"/>
<feComposite in2="hardAlpha" operator="arithmetic" k2="-1" k3="1"/>
<feColorMatrix type="matrix" values="0 0 0 0 0 0 0 0 0 0 0 0 0 0 0 0 0 0 0.25 0"/>
<feBlend mode="normal" in2="shape" result="effect1_innerShadow_892_287418"/>
<feColorMatrix in="SourceAlpha" type="matrix" values="0 0 0 0 0 0 0 0 0 0 0 0 0 0 0 0 0 0 127 0" result="hardAlpha"/>
<feOffset dx="-1.8364" dy="1.8364"/>
<feGaussianBlur stdDeviation="2.29551"/>
<feComposite in2="hardAlpha" operator="arithmetic" k2="-1" k3="1"/>
<feColorMatrix type="matrix" values="0 0 0 0 1 0 0 0 0 1 0 0 0 0 1 0 0 0 0.2 0"/>
<feBlend mode="normal" in2="effect1_innerShadow_892_287418" result="effect2_innerShadow_892_287418"/>
</filter>
<filter id="filter16_i_892_287418" x="270.571" y="18.9692" width="173.728" height="178.255" filterUnits="userSpaceOnUse" color-interpolation-filters="sRGB">
<feFlood flood-opacity="0" result="BackgroundImageFix"/>
<feBlend mode="normal" in="SourceGraphic" in2="BackgroundImageFix" result="shape"/>
<feColorMatrix in="SourceAlpha" type="matrix" values="0 0 0 0 0 0 0 0 0 0 0 0 0 0 0 0 0 0 127 0" result="hardAlpha"/>
<feOffset dx="8.73651" dy="-13.1048"/>
<feGaussianBlur stdDeviation="6.55238"/>
<feComposite in2="hardAlpha" operator="arithmetic" k2="-1" k3="1"/>
<feColorMatrix type="matrix" values="0 0 0 0 0 0 0 0 0 0 0 0 0 0 0 0 0 0 0.25 0"/>
<feBlend mode="normal" in2="shape" result="effect1_innerShadow_892_287418"/>
</filter>
<filter id="filter17_ii_892_287418" x="434.285" y="25.5179" width="27.3383" height="43.214" filterUnits="userSpaceOnUse" color-interpolation-filters="sRGB">
<feFlood flood-opacity="0" result="BackgroundImageFix"/>
<feBlend mode="normal" in="SourceGraphic" in2="BackgroundImageFix" result="shape"/>
<feColorMatrix in="SourceAlpha" type="matrix" values="0 0 0 0 0 0 0 0 0 0 0 0 0 0 0 0 0 0 127 0" result="hardAlpha"/>
<feOffset dx="2.87889" dy="-3.83852"/>
<feGaussianBlur stdDeviation="1.91926"/>
<feComposite in2="hardAlpha" operator="arithmetic" k2="-1" k3="1"/>
<feColorMatrix type="matrix" values="0 0 0 0 0 0 0 0 0 0 0 0 0 0 0 0 0 0 0.15 0"/>
<feBlend mode="normal" in2="shape" result="effect1_innerShadow_892_287418"/>
<feColorMatrix in="SourceAlpha" type="matrix" values="0 0 0 0 0 0 0 0 0 0 0 0 0 0 0 0 0 0 127 0" result="hardAlpha"/>
<feOffset dx="3.01313" dy="-3.01313"/>
<feGaussianBlur stdDeviation="2.00875"/>
<feComposite in2="hardAlpha" operator="arithmetic" k2="-1" k3="1"/>
<feColorMatrix type="matrix" values="0 0 0 0 0 0 0 0 0 0 0 0 0 0 0 0 0 0 0.25 0"/>
<feBlend mode="normal" in2="effect1_innerShadow_892_287418" result="effect2_innerShadow_892_287418"/>
</filter>
<filter id="filter18_ii_892_287418" x="438.805" y="28.6669" width="21.4599" height="42.5762" filterUnits="userSpaceOnUse" color-interpolation-filters="sRGB">
<feFlood flood-opacity="0" result="BackgroundImageFix"/>
<feBlend mode="normal" in="SourceGraphic" in2="BackgroundImageFix" result="shape"/>
<feColorMatrix in="SourceAlpha" type="matrix" values="0 0 0 0 0 0 0 0 0 0 0 0 0 0 0 0 0 0 127 0" result="hardAlpha"/>
<feOffset dx="2.87889" dy="-3.83852"/>
<feGaussianBlur stdDeviation="1.91926"/>
<feComposite in2="hardAlpha" operator="arithmetic" k2="-1" k3="1"/>
<feColorMatrix type="matrix" values="0 0 0 0 0 0 0 0 0 0 0 0 0 0 0 0 0 0 0.1 0"/>
<feBlend mode="normal" in2="shape" result="effect1_innerShadow_892_287418"/>
<feColorMatrix in="SourceAlpha" type="matrix" values="0 0 0 0 0 0 0 0 0 0 0 0 0 0 0 0 0 0 127 0" result="hardAlpha"/>
<feOffset dx="2.00875" dy="4.01751"/>
<feGaussianBlur stdDeviation="2.00875"/>
<feComposite in2="hardAlpha" operator="arithmetic" k2="-1" k3="1"/>
<feColorMatrix type="matrix" values="0 0 0 0 0 0 0 0 0 0 0 0 0 0 0 0 0 0 0.25 0"/>
<feBlend mode="normal" in2="effect1_innerShadow_892_287418" result="effect2_innerShadow_892_287418"/>
</filter>
<filter id="filter19_di_892_287418" x="559.79" y="115.205" width="22.3744" height="26.4152" filterUnits="userSpaceOnUse" color-interpolation-filters="sRGB">
<feFlood flood-opacity="0" result="BackgroundImageFix"/>
<feColorMatrix in="SourceAlpha" type="matrix" values="0 0 0 0 0 0 0 0 0 0 0 0 0 0 0 0 0 0 127 0" result="hardAlpha"/>
<feOffset dy="1.00438"/>
<feGaussianBlur stdDeviation="1.00438"/>
<feComposite in2="hardAlpha" operator="out"/>
<feColorMatrix type="matrix" values="0 0 0 0 0 0 0 0 0 0 0 0 0 0 0 0 0 0 0.25 0"/>
<feBlend mode="normal" in2="BackgroundImageFix" result="effect1_dropShadow_892_287418"/>
<feBlend mode="normal" in="SourceGraphic" in2="effect1_dropShadow_892_287418" result="shape"/>
<feColorMatrix in="SourceAlpha" type="matrix" values="0 0 0 0 0 0 0 0 0 0 0 0 0 0 0 0 0 0 127 0" result="hardAlpha"/>
<feOffset dy="-1.00438"/>
<feGaussianBlur stdDeviation="1.50656"/>
<feComposite in2="hardAlpha" operator="arithmetic" k2="-1" k3="1"/>
<feColorMatrix type="matrix" values="0 0 0 0 0 0 0 0 0 0 0 0 0 0 0 0 0 0 0.25 0"/>
<feBlend mode="normal" in2="shape" result="effect2_innerShadow_892_287418"/>
</filter>
<filter id="filter20_d_892_287418" x="121.513" y="487.99" width="40.1553" height="41.2157" filterUnits="userSpaceOnUse" color-interpolation-filters="sRGB">
<feFlood flood-opacity="0" result="BackgroundImageFix"/>
<feColorMatrix in="SourceAlpha" type="matrix" values="0 0 0 0 0 0 0 0 0 0 0 0 0 0 0 0 0 0 127 0" result="hardAlpha"/>
<feOffset dx="-0.863557" dy="2.59067"/>
<feGaussianBlur stdDeviation="0.431778"/>
<feComposite in2="hardAlpha" operator="out"/>
<feColorMatrix type="matrix" values="0 0 0 0 0 0 0 0 0 0 0 0 0 0 0 0 0 0 0.25 0"/>
<feBlend mode="normal" in2="BackgroundImageFix" result="effect1_dropShadow_892_287418"/>
<feBlend mode="normal" in="SourceGraphic" in2="effect1_dropShadow_892_287418" result="shape"/>
</filter>
<filter id="filter21_i_892_287418" x="117.491" y="406.415" width="46.8872" height="110.636" filterUnits="userSpaceOnUse" color-interpolation-filters="sRGB">
<feFlood flood-opacity="0" result="BackgroundImageFix"/>
<feBlend mode="normal" in="SourceGraphic" in2="BackgroundImageFix" result="shape"/>
<feColorMatrix in="SourceAlpha" type="matrix" values="0 0 0 0 0 0 0 0 0 0 0 0 0 0 0 0 0 0 127 0" result="hardAlpha"/>
<feOffset dx="12.0898" dy="25.0432"/>
<feGaussianBlur stdDeviation="6.90846"/>
<feComposite in2="hardAlpha" operator="arithmetic" k2="-1" k3="1"/>
<feColorMatrix type="matrix" values="0 0 0 0 0 0 0 0 0 0 0 0 0 0 0 0 0 0 0.25 0"/>
<feBlend mode="normal" in2="shape" result="effect1_innerShadow_892_287418"/>
</filter>
<filter id="filter22_i_892_287418" x="122.558" y="392.683" width="35.6915" height="43.6144" filterUnits="userSpaceOnUse" color-interpolation-filters="sRGB">
<feFlood flood-opacity="0" result="BackgroundImageFix"/>
<feBlend mode="normal" in="SourceGraphic" in2="BackgroundImageFix" result="shape"/>
<feColorMatrix in="SourceAlpha" type="matrix" values="0 0 0 0 0 0 0 0 0 0 0 0 0 0 0 0 0 0 127 0" result="hardAlpha"/>
<feOffset dx="3.45423" dy="-4.31778"/>
<feGaussianBlur stdDeviation="6.90846"/>
<feComposite in2="hardAlpha" operator="arithmetic" k2="-1" k3="1"/>
<feColorMatrix type="matrix" values="0 0 0 0 0 0 0 0 0 0 0 0 0 0 0 0 0 0 0.25 0"/>
<feBlend mode="normal" in2="shape" result="effect1_innerShadow_892_287418"/>
</filter>
<filter id="filter23_ii_892_287418" x="100.4" y="159.69" width="162.436" height="254.818" filterUnits="userSpaceOnUse" color-interpolation-filters="sRGB">
<feFlood flood-opacity="0" result="BackgroundImageFix"/>
<feBlend mode="normal" in="SourceGraphic" in2="BackgroundImageFix" result="shape"/>
<feColorMatrix in="SourceAlpha" type="matrix" values="0 0 0 0 0 0 0 0 0 0 0 0 0 0 0 0 0 0 127 0" result="hardAlpha"/>
<feOffset dx="37.1329" dy="-41.4507"/>
<feGaussianBlur stdDeviation="14.2487"/>
<feComposite in2="hardAlpha" operator="arithmetic" k2="-1" k3="1"/>
<feColorMatrix type="matrix" values="0 0 0 0 0 0 0 0 0 0 0 0 0 0 0 0 0 0 0.25 0"/>
<feBlend mode="normal" in2="shape" result="effect1_innerShadow_892_287418"/>
<feColorMatrix in="SourceAlpha" type="matrix" values="0 0 0 0 0 0 0 0 0 0 0 0 0 0 0 0 0 0 127 0" result="hardAlpha"/>
<feOffset dx="1.72711" dy="-16.4076"/>
<feGaussianBlur stdDeviation="15.9758"/>
<feComposite in2="hardAlpha" operator="arithmetic" k2="-1" k3="1"/>
<feColorMatrix type="matrix" values="0 0 0 0 0 0 0 0 0 0 0 0 0 0 0 0 0 0 0.25 0"/>
<feBlend mode="normal" in2="effect1_innerShadow_892_287418" result="effect2_innerShadow_892_287418"/>
</filter>
<filter id="filter24_d_892_287418" x="370.179" y="489.233" width="39.0718" height="40.4508" filterUnits="userSpaceOnUse" color-interpolation-filters="sRGB">
<feFlood flood-opacity="0" result="BackgroundImageFix"/>
<feColorMatrix in="SourceAlpha" type="matrix" values="0 0 0 0 0 0 0 0 0 0 0 0 0 0 0 0 0 0 127 0" result="hardAlpha"/>
<feOffset dx="-0.863557" dy="2.59067"/>
<feGaussianBlur stdDeviation="0.431778"/>
<feComposite in2="hardAlpha" operator="out"/>
<feColorMatrix type="matrix" values="0 0 0 0 0 0 0 0 0 0 0 0 0 0 0 0 0 0 0.25 0"/>
<feBlend mode="normal" in2="BackgroundImageFix" result="effect1_dropShadow_892_287418"/>
<feBlend mode="normal" in="SourceGraphic" in2="effect1_dropShadow_892_287418" result="shape"/>
</filter>
<filter id="filter25_i_892_287418" x="370.913" y="426.007" width="32.7553" height="96.7183" filterUnits="userSpaceOnUse" color-interpolation-filters="sRGB">
<feFlood flood-opacity="0" result="BackgroundImageFix"/>
<feBlend mode="normal" in="SourceGraphic" in2="BackgroundImageFix" result="shape"/>
<feColorMatrix in="SourceAlpha" type="matrix" values="0 0 0 0 0 0 0 0 0 0 0 0 0 0 0 0 0 0 127 0" result="hardAlpha"/>
<feOffset dx="12.0898" dy="25.0432"/>
<feGaussianBlur stdDeviation="6.90846"/>
<feComposite in2="hardAlpha" operator="arithmetic" k2="-1" k3="1"/>
<feColorMatrix type="matrix" values="0 0 0 0 0 0 0 0 0 0 0 0 0 0 0 0 0 0 0.25 0"/>
<feBlend mode="normal" in2="shape" result="effect1_innerShadow_892_287418"/>
</filter>
<filter id="filter26_i_892_287418" x="367.011" y="404.32" width="32.2306" height="33.7271" filterUnits="userSpaceOnUse" color-interpolation-filters="sRGB">
<feFlood flood-opacity="0" result="BackgroundImageFix"/>
<feBlend mode="normal" in="SourceGraphic" in2="BackgroundImageFix" result="shape"/>
<feColorMatrix in="SourceAlpha" type="matrix" values="0 0 0 0 0 0 0 0 0 0 0 0 0 0 0 0 0 0 127 0" result="hardAlpha"/>
<feOffset dx="3.45423" dy="0.863557"/>
<feGaussianBlur stdDeviation="6.90846"/>
<feComposite in2="hardAlpha" operator="arithmetic" k2="-1" k3="1"/>
<feColorMatrix type="matrix" values="0 0 0 0 0 0 0 0 0 0 0 0 0 0 0 0 0 0 0.25 0"/>
<feBlend mode="normal" in2="shape" result="effect1_innerShadow_892_287418"/>
</filter>
<filter id="filter27_i_892_287418" x="340.292" y="205.319" width="97.724" height="219.56" filterUnits="userSpaceOnUse" color-interpolation-filters="sRGB">
<feFlood flood-opacity="0" result="BackgroundImageFix"/>
<feBlend mode="normal" in="SourceGraphic" in2="BackgroundImageFix" result="shape"/>
<feColorMatrix in="SourceAlpha" type="matrix" values="0 0 0 0 0 0 0 0 0 0 0 0 0 0 0 0 0 0 127 0" result="hardAlpha"/>
<feOffset dx="2.59067" dy="-19.8618"/>
<feGaussianBlur stdDeviation="7.77201"/>
<feComposite in2="hardAlpha" operator="arithmetic" k2="-1" k3="1"/>
<feColorMatrix type="matrix" values="0 0 0 0 0 0 0 0 0 0 0 0 0 0 0 0 0 0 0.19 0"/>
<feBlend mode="normal" in2="shape" result="effect1_innerShadow_892_287418"/>
</filter>
<filter id="filter28_i_892_287418" x="-4.76711" y="133.322" width="146.388" height="219.677" filterUnits="userSpaceOnUse" color-interpolation-filters="sRGB">
<feFlood flood-opacity="0" result="BackgroundImageFix"/>
<feBlend mode="normal" in="SourceGraphic" in2="BackgroundImageFix" result="shape"/>
<feColorMatrix in="SourceAlpha" type="matrix" values="0 0 0 0 0 0 0 0 0 0 0 0 0 0 0 0 0 0 127 0" result="hardAlpha"/>
<feOffset dx="-13.8169" dy="10.3627"/>
<feGaussianBlur stdDeviation="8.63557"/>
<feComposite in2="hardAlpha" operator="arithmetic" k2="-1" k3="1"/>
<feColorMatrix type="matrix" values="0 0 0 0 1 0 0 0 0 1 0 0 0 0 1 0 0 0 0.15 0"/>
<feBlend mode="normal" in2="shape" result="effect1_innerShadow_892_287418"/>
</filter>
<linearGradient id="paint0_linear_892_287418" x1="499.135" y1="83.3339" x2="372.624" y2="193.437" gradientUnits="userSpaceOnUse">
<stop offset="0.169883"/>
<stop offset="0.956494" stop-opacity="0"/>
</linearGradient>
<linearGradient id="paint1_linear_892_287418" x1="270.293" y1="217.051" x2="363.557" y2="173.144" gradientUnits="userSpaceOnUse">
<stop/>
<stop offset="1" stop-opacity="0"/>
</linearGradient>
<linearGradient id="paint2_linear_892_287418" x1="3.59333" y1="0" x2="3.59333" y2="14.2256" gradientUnits="userSpaceOnUse">
<stop stop-opacity="0.24"/>
<stop offset="1" stop-opacity="0"/>
</linearGradient>
<linearGradient id="paint3_linear_892_287418" x1="371.691" y1="204.026" x2="378.716" y2="418.018" gradientUnits="userSpaceOnUse">
<stop offset="0.609894" stop-opacity="0"/>
<stop offset="1"/>
</linearGradient>
</defs>
</svg>
