<svg width="207" height="193" viewBox="0 0 207 193" fill="none" xmlns="http://www.w3.org/2000/svg">
<ellipse cx="132" cy="95.0646" rx="75" ry="64.8903" fill="black" fill-opacity="0.12"/>
<ellipse cx="132" cy="77.6581" rx="47" ry="40.6323" fill="black" fill-opacity="0.2"/>
<g filter="url(#filter0_di_892_286722)">
<path d="M132 41.5C167.678 41.5 194.5 65.3928 194.5 92.5C194.5 119.607 167.678 143.5 132 143.5C96.3222 143.5 69.5 119.607 69.5 92.5C69.5 65.3928 96.3222 41.5 132 41.5Z" stroke="#D7B99A" stroke-width="13" stroke-linecap="round" shape-rendering="crispEdges"/>
</g>
<g filter="url(#filter1_di_892_286722)">
<path d="M131 30.5C163.541 30.5 188.5 53.6235 188.5 80.5C188.5 107.377 163.541 130.5 131 130.5C98.4586 130.5 73.5 107.377 73.5 80.5C73.5 53.6235 98.4586 30.5 131 30.5Z" stroke="#D7B99A" stroke-width="13" stroke-linecap="round" shape-rendering="crispEdges"/>
</g>
<g filter="url(#filter2_di_892_286722)">
<path d="M131 18.5C160.319 18.5 183.5 40.9774 183.5 68C183.5 95.0226 160.319 117.5 131 117.5C101.681 117.5 78.5 95.0226 78.5 68C78.5 40.9774 101.681 18.5 131 18.5Z" stroke="#D7B99A" stroke-width="13" stroke-linecap="round" shape-rendering="crispEdges"/>
</g>
<g filter="url(#filter3_dii_892_286722)">
<path d="M130.5 6.5C161.519 6.5 185.5 29.0497 185.5 55.5C185.5 81.9503 161.519 104.5 130.5 104.5C99.4805 104.5 75.5 81.9503 75.5 55.5C75.5 29.0497 99.4805 6.5 130.5 6.5Z" stroke="#D7B99A" stroke-width="13" stroke-linecap="round" shape-rendering="crispEdges"/>
</g>
<g filter="url(#filter4_dii_892_286722)">
<path d="M130 6.5C156.043 6.5 176.5 26.3273 176.5 50C176.5 73.6727 156.043 93.5 130 93.5C103.957 93.5 83.5 73.6727 83.5 50C83.5 26.3273 103.957 6.5 130 6.5Z" stroke="#D7B99A" stroke-width="13" stroke-linecap="round" shape-rendering="crispEdges"/>
</g>
<ellipse cx="130" cy="48.5" rx="41" ry="38.5" fill="url(#paint0_linear_892_286722)"/>
<g filter="url(#filter5_di_892_286722)">
<path fill-rule="evenodd" clip-rule="evenodd" d="M104.192 47.0443C104.249 51.7522 102.46 55.8731 99.5184 58.9129C86.9678 71.8811 80.1588 95.5829 81.7804 116.321C82.5799 126.545 85.3851 135.388 89.9878 141.657C94.4723 147.764 101.056 151.986 110.522 152.373C119.858 152.754 126.32 148.957 130.947 143.3C135.746 137.432 138.926 129.099 140.659 120.037C142.387 111.001 142.551 101.876 141.765 95.0841C141.368 91.654 140.77 89.193 140.214 87.7484C140.153 87.5912 138.854 86.6882 138.804 86.5747C136.152 85.0732 135.83 82.2904 136.429 78.6544C137.133 74.3848 140.979 73.1461 144.5 74C148.997 75.0911 150.906 78.2541 151.992 81.0743C153.285 84.4315 154.137 88.561 154.638 92.8916C155.649 101.621 155.407 112.698 153.323 123.6C151.243 134.474 147.204 145.813 140.175 154.405C132.974 163.209 122.999 168.66 110.084 168.132C97.2999 167.609 87.2821 161.68 80.2796 152.143C73.3953 142.767 69.8286 130.471 68.8385 117.81C66.8829 92.801 74.8063 63.7748 91.0399 46.9599C90.9456 46.7575 90.7972 46.4846 90.5651 46.1437C89.0732 43.953 85.7406 41.4305 81.6563 40.4925C77.6984 39.5835 74.0303 40.3707 71.3296 43.0136C68.6994 45.5876 65.8046 51.0819 65.3104 62.6009C66.0343 79.7159 64.4186 91.1755 59.5326 98.9341C55.0124 106.112 48.3686 108.747 43.1501 110.816C42.7091 110.991 42.2783 111.162 41.8598 111.331C29.7212 116.24 22.0474 121.967 17.8902 127.393C13.9485 132.537 13.3871 136.979 14.4069 140.934C15.5869 145.511 19.3529 151.25 27.2073 157.049C34.9374 162.757 45.9533 168.005 60.2518 171.973C62.4444 172.582 66.8042 174.56 63.8042 177.839C62.8907 178.838 66.1032 180.5 65.8042 182.085C65.3042 186.936 63.3042 184.51 63.8042 188.756C64.5819 191.431 55.6391 189.404 53.3042 188.756C38.1028 184.537 29.717 177.362 20.4475 170.517C11.3024 163.765 4.51893 155.412 1.99951 145.641C-0.680132 135.249 1.90892 125.088 8.36759 116.659C14.6107 108.511 24.5871 101.695 37.7483 96.3729C44.3796 93.6915 47.2298 92.494 49.2016 89.3629C51.1508 86.2677 53.0464 79.6557 52.3114 63.0372L52.2941 62.645L52.309 62.2526C52.8629 47.6472 56.6842 37.0858 63.1665 30.7421C69.6067 24.4396 77.4701 23.4832 84.0749 25C90.5532 26.4878 96.8144 30.5606 100.588 36.1024C102.495 38.9027 104.139 42.6533 104.192 47.0443Z" fill="#D7B99A"/>
</g>
<path d="M63.5 179.265C63 176.839 59 176.839 54 175.02M64 186.542C62 187.755 53.5 185.936 43 180.478" stroke="black" stroke-opacity="0.1" stroke-linecap="round"/>
<defs>
<filter id="filter0_di_892_286722" x="63" y="29" width="138" height="123" filterUnits="userSpaceOnUse" color-interpolation-filters="sRGB">
<feFlood flood-opacity="0" result="BackgroundImageFix"/>
<feColorMatrix in="SourceAlpha" type="matrix" values="0 0 0 0 0 0 0 0 0 0 0 0 0 0 0 0 0 0 127 0" result="hardAlpha"/>
<feOffset dy="2"/>
<feComposite in2="hardAlpha" operator="out"/>
<feColorMatrix type="matrix" values="0 0 0 0 0 0 0 0 0 0 0 0 0 0 0 0 0 0 0.25 0"/>
<feBlend mode="normal" in2="BackgroundImageFix" result="effect1_dropShadow_892_286722"/>
<feBlend mode="normal" in="SourceGraphic" in2="effect1_dropShadow_892_286722" result="shape"/>
<feColorMatrix in="SourceAlpha" type="matrix" values="0 0 0 0 0 0 0 0 0 0 0 0 0 0 0 0 0 0 127 0" result="hardAlpha"/>
<feOffset dy="-7"/>
<feGaussianBlur stdDeviation="3"/>
<feComposite in2="hardAlpha" operator="arithmetic" k2="-1" k3="1"/>
<feColorMatrix type="matrix" values="0 0 0 0 0 0 0 0 0 0 0 0 0 0 0 0 0 0 0.25 0"/>
<feBlend mode="normal" in2="shape" result="effect2_innerShadow_892_286722"/>
</filter>
<filter id="filter1_di_892_286722" x="67" y="18" width="128" height="121" filterUnits="userSpaceOnUse" color-interpolation-filters="sRGB">
<feFlood flood-opacity="0" result="BackgroundImageFix"/>
<feColorMatrix in="SourceAlpha" type="matrix" values="0 0 0 0 0 0 0 0 0 0 0 0 0 0 0 0 0 0 127 0" result="hardAlpha"/>
<feOffset dy="2"/>
<feComposite in2="hardAlpha" operator="out"/>
<feColorMatrix type="matrix" values="0 0 0 0 0 0 0 0 0 0 0 0 0 0 0 0 0 0 0.25 0"/>
<feBlend mode="normal" in2="BackgroundImageFix" result="effect1_dropShadow_892_286722"/>
<feBlend mode="normal" in="SourceGraphic" in2="effect1_dropShadow_892_286722" result="shape"/>
<feColorMatrix in="SourceAlpha" type="matrix" values="0 0 0 0 0 0 0 0 0 0 0 0 0 0 0 0 0 0 127 0" result="hardAlpha"/>
<feOffset dy="-7"/>
<feGaussianBlur stdDeviation="3"/>
<feComposite in2="hardAlpha" operator="arithmetic" k2="-1" k3="1"/>
<feColorMatrix type="matrix" values="0 0 0 0 0 0 0 0 0 0 0 0 0 0 0 0 0 0 0.25 0"/>
<feBlend mode="normal" in2="shape" result="effect2_innerShadow_892_286722"/>
</filter>
<filter id="filter2_di_892_286722" x="72" y="6" width="118" height="120" filterUnits="userSpaceOnUse" color-interpolation-filters="sRGB">
<feFlood flood-opacity="0" result="BackgroundImageFix"/>
<feColorMatrix in="SourceAlpha" type="matrix" values="0 0 0 0 0 0 0 0 0 0 0 0 0 0 0 0 0 0 127 0" result="hardAlpha"/>
<feOffset dy="2"/>
<feComposite in2="hardAlpha" operator="out"/>
<feColorMatrix type="matrix" values="0 0 0 0 0 0 0 0 0 0 0 0 0 0 0 0 0 0 0.25 0"/>
<feBlend mode="normal" in2="BackgroundImageFix" result="effect1_dropShadow_892_286722"/>
<feBlend mode="normal" in="SourceGraphic" in2="effect1_dropShadow_892_286722" result="shape"/>
<feColorMatrix in="SourceAlpha" type="matrix" values="0 0 0 0 0 0 0 0 0 0 0 0 0 0 0 0 0 0 127 0" result="hardAlpha"/>
<feOffset dy="-7"/>
<feGaussianBlur stdDeviation="3"/>
<feComposite in2="hardAlpha" operator="arithmetic" k2="-1" k3="1"/>
<feColorMatrix type="matrix" values="0 0 0 0 0 0 0 0 0 0 0 0 0 0 0 0 0 0 0.25 0"/>
<feBlend mode="normal" in2="shape" result="effect2_innerShadow_892_286722"/>
</filter>
<filter id="filter3_dii_892_286722" x="67" y="-6" width="125" height="121" filterUnits="userSpaceOnUse" color-interpolation-filters="sRGB">
<feFlood flood-opacity="0" result="BackgroundImageFix"/>
<feColorMatrix in="SourceAlpha" type="matrix" values="0 0 0 0 0 0 0 0 0 0 0 0 0 0 0 0 0 0 127 0" result="hardAlpha"/>
<feOffset dy="2"/>
<feComposite in2="hardAlpha" operator="out"/>
<feColorMatrix type="matrix" values="0 0 0 0 0 0 0 0 0 0 0 0 0 0 0 0 0 0 0.25 0"/>
<feBlend mode="normal" in2="BackgroundImageFix" result="effect1_dropShadow_892_286722"/>
<feBlend mode="normal" in="SourceGraphic" in2="effect1_dropShadow_892_286722" result="shape"/>
<feColorMatrix in="SourceAlpha" type="matrix" values="0 0 0 0 0 0 0 0 0 0 0 0 0 0 0 0 0 0 127 0" result="hardAlpha"/>
<feOffset dy="-6"/>
<feGaussianBlur stdDeviation="3"/>
<feComposite in2="hardAlpha" operator="arithmetic" k2="-1" k3="1"/>
<feColorMatrix type="matrix" values="0 0 0 0 0 0 0 0 0 0 0 0 0 0 0 0 0 0 0.25 0"/>
<feBlend mode="normal" in2="shape" result="effect2_innerShadow_892_286722"/>
<feColorMatrix in="SourceAlpha" type="matrix" values="0 0 0 0 0 0 0 0 0 0 0 0 0 0 0 0 0 0 127 0" result="hardAlpha"/>
<feOffset dx="-2" dy="4"/>
<feGaussianBlur stdDeviation="2"/>
<feComposite in2="hardAlpha" operator="arithmetic" k2="-1" k3="1"/>
<feColorMatrix type="matrix" values="0 0 0 0 1 0 0 0 0 1 0 0 0 0 1 0 0 0 0.25 0"/>
<feBlend mode="normal" in2="effect2_innerShadow_892_286722" result="effect3_innerShadow_892_286722"/>
</filter>
<filter id="filter4_dii_892_286722" x="75" y="-6" width="108" height="110" filterUnits="userSpaceOnUse" color-interpolation-filters="sRGB">
<feFlood flood-opacity="0" result="BackgroundImageFix"/>
<feColorMatrix in="SourceAlpha" type="matrix" values="0 0 0 0 0 0 0 0 0 0 0 0 0 0 0 0 0 0 127 0" result="hardAlpha"/>
<feOffset dy="2"/>
<feComposite in2="hardAlpha" operator="out"/>
<feColorMatrix type="matrix" values="0 0 0 0 0 0 0 0 0 0 0 0 0 0 0 0 0 0 0.25 0"/>
<feBlend mode="normal" in2="BackgroundImageFix" result="effect1_dropShadow_892_286722"/>
<feBlend mode="normal" in="SourceGraphic" in2="effect1_dropShadow_892_286722" result="shape"/>
<feColorMatrix in="SourceAlpha" type="matrix" values="0 0 0 0 0 0 0 0 0 0 0 0 0 0 0 0 0 0 127 0" result="hardAlpha"/>
<feOffset dy="-6"/>
<feGaussianBlur stdDeviation="3"/>
<feComposite in2="hardAlpha" operator="arithmetic" k2="-1" k3="1"/>
<feColorMatrix type="matrix" values="0 0 0 0 0 0 0 0 0 0 0 0 0 0 0 0 0 0 0.25 0"/>
<feBlend mode="normal" in2="shape" result="effect2_innerShadow_892_286722"/>
<feColorMatrix in="SourceAlpha" type="matrix" values="0 0 0 0 0 0 0 0 0 0 0 0 0 0 0 0 0 0 127 0" result="hardAlpha"/>
<feOffset dx="-2" dy="4"/>
<feGaussianBlur stdDeviation="2"/>
<feComposite in2="hardAlpha" operator="arithmetic" k2="-1" k3="1"/>
<feColorMatrix type="matrix" values="0 0 0 0 1 0 0 0 0 1 0 0 0 0 1 0 0 0 0.25 0"/>
<feBlend mode="normal" in2="effect2_innerShadow_892_286722" result="effect3_innerShadow_892_286722"/>
</filter>
<filter id="filter5_di_892_286722" x="0.953125" y="18.3687" width="154.263" height="173.734" filterUnits="userSpaceOnUse" color-interpolation-filters="sRGB">
<feFlood flood-opacity="0" result="BackgroundImageFix"/>
<feColorMatrix in="SourceAlpha" type="matrix" values="0 0 0 0 0 0 0 0 0 0 0 0 0 0 0 0 0 0 127 0" result="hardAlpha"/>
<feOffset dy="2"/>
<feComposite in2="hardAlpha" operator="out"/>
<feColorMatrix type="matrix" values="0 0 0 0 0 0 0 0 0 0 0 0 0 0 0 0 0 0 0.25 0"/>
<feBlend mode="normal" in2="BackgroundImageFix" result="effect1_dropShadow_892_286722"/>
<feBlend mode="normal" in="SourceGraphic" in2="effect1_dropShadow_892_286722" result="shape"/>
<feColorMatrix in="SourceAlpha" type="matrix" values="0 0 0 0 0 0 0 0 0 0 0 0 0 0 0 0 0 0 127 0" result="hardAlpha"/>
<feOffset dy="-7"/>
<feGaussianBlur stdDeviation="3"/>
<feComposite in2="hardAlpha" operator="arithmetic" k2="-1" k3="1"/>
<feColorMatrix type="matrix" values="0 0 0 0 0 0 0 0 0 0 0 0 0 0 0 0 0 0 0.25 0"/>
<feBlend mode="normal" in2="shape" result="effect2_innerShadow_892_286722"/>
</filter>
<linearGradient id="paint0_linear_892_286722" x1="130" y1="10" x2="130" y2="87" gradientUnits="userSpaceOnUse">
<stop stop-opacity="0"/>
<stop offset="0.630208" stop-opacity="0.32"/>
</linearGradient>
</defs>
</svg>
