<svg width="757" height="504" viewBox="0 0 757 504" fill="none" xmlns="http://www.w3.org/2000/svg">
<g opacity="0.5" filter="url(#filter0_f_892_272442)">
<path d="M18.0141 362.616C18.0141 362.616 19.2651 361.963 18.0141 362.766C16.7631 363.569 99.2083 486 99.2083 486L378.143 391.125L657.207 486L738.014 362.766C736.651 361.888 738.014 362.616 738.014 362.616L378.143 75.7227L18.0141 362.616Z" fill="url(#paint0_linear_892_272442)"/>
</g>
<path opacity="0.12" d="M18.0141 362.616C18.0141 362.616 19.2651 361.963 18.0141 362.766C16.7631 363.569 99.2083 486 99.2083 486L378.143 309.72L657.207 486L738.014 362.766C736.651 361.888 738.014 362.616 738.014 362.616L378.143 75.7227L18.0141 362.616Z" fill="url(#paint1_radial_892_272442)"/>
<path d="M380.341 13.5L501.015 191.25L383.265 171.859L265.515 191.25L380.341 13.5Z" fill="#3C2D24"/>
<g filter="url(#filter1_ii_892_272442)">
<g filter="url(#filter2_dd_892_272442)">
<rect x="367.515" y="321.75" width="24" height="24" rx="12" fill="#D9D9D9"/>
</g>
<g filter="url(#filter3_iii_892_272442)">
<path d="M391.515 333.75C391.515 340.377 386.142 345.75 379.515 345.75C372.887 345.75 367.515 340.377 367.515 333.75L367.515 17.25L391.515 17.25L391.515 333.75Z" fill="#A16207"/>
</g>
<path d="M379.315 10.0127C379.53 10.0172 379.694 10.1084 379.806 10.2021C379.905 10.2858 379.982 10.3881 380.021 10.4385C380.028 10.4465 380.033 10.4542 380.038 10.4609C380.103 10.4341 380.177 10.3968 380.274 10.3477C380.369 10.2999 380.49 10.2384 380.608 10.1924C380.69 10.1606 380.808 10.1202 380.941 10.1094L381.08 10.1104L381.605 10.1641C384.213 10.4617 386.532 11.1793 388.246 12.291C390.083 13.4827 391.258 15.1565 391.258 17.25C391.258 17.7202 391.008 18.0965 390.822 18.3535C390.71 18.5095 390.64 18.5954 390.551 18.7236C390.472 18.8367 390.421 18.9259 390.393 19.002C390.327 19.1756 390.332 19.3468 390.313 19.6777C390.297 19.9699 390.253 20.3761 389.952 20.7334C388.903 21.977 387.298 22.9132 385.38 23.5391C383.456 24.1666 381.186 24.4932 378.765 24.4932C376.073 24.4932 373.565 24.0899 371.514 23.3164C371.359 23.2579 371.234 23.143 371.166 22.9873C371.107 22.8518 371.108 22.7225 371.115 22.6416C371.12 22.593 371.129 22.5435 371.14 22.4961C371.097 22.5059 371.053 22.5165 371.007 22.5273C370.847 22.5648 370.661 22.6089 370.498 22.6328C370.416 22.6448 370.323 22.6543 370.231 22.6523C370.151 22.6506 370.012 22.6402 369.877 22.5654C367.705 21.3597 366.271 19.5648 366.271 17.25C366.271 14.8742 367.78 13.0479 370.048 11.8418C372.312 10.6377 375.398 10.0068 378.765 10.0068C378.949 10.0068 379.133 10.0089 379.315 10.0127Z" fill="#854D0E" stroke="#3C2D24" stroke-width="0.986405"/>
<path opacity="0.5" fill-rule="evenodd" clip-rule="evenodd" d="M371.149 12.9665C369.326 13.7909 368.209 14.9867 368.209 16.5C368.209 18.0133 369.326 19.2091 371.149 20.0335C372.982 20.8619 375.537 21.3177 378.39 21.3177C381.242 21.3177 383.798 20.8619 385.63 20.0335C387.454 19.2091 388.57 18.0133 388.57 16.5C388.57 14.9867 387.454 13.7909 385.63 12.9665C383.798 12.1381 381.242 11.6823 378.39 11.6823C375.537 11.6823 372.982 12.1381 371.149 12.9665ZM370.741 12.6167C372.719 11.7225 375.428 11.25 378.39 11.25C381.352 11.25 384.06 11.7225 386.038 12.6167C388.025 13.5149 389.265 14.836 389.265 16.5C389.265 18.164 388.025 19.4851 386.038 20.3833C384.06 21.2775 381.352 21.75 378.39 21.75C375.428 21.75 372.719 21.2775 370.741 20.3833C368.755 19.4851 367.515 18.164 367.515 16.5C367.515 14.836 368.755 13.5149 370.741 12.6167Z" fill="#A16207"/>
<path opacity="0.5" fill-rule="evenodd" clip-rule="evenodd" d="M372.854 15.4887C371.476 15.9901 370.642 16.7121 370.642 17.625C370.642 18.5379 371.476 19.2599 372.854 19.7613C374.244 20.267 376.196 20.5492 378.39 20.5492C380.583 20.5492 382.535 20.267 383.925 19.7613C385.303 19.2599 386.138 18.5379 386.138 17.625C386.138 16.7121 385.303 15.9901 383.925 15.4887C382.535 14.983 380.583 14.7008 378.39 14.7008C376.196 14.7008 374.244 14.983 372.854 15.4887ZM372.348 15.1207C373.92 14.5486 376.062 14.25 378.39 14.25C380.717 14.25 382.859 14.5486 384.432 15.1207C386.016 15.6971 387.015 16.55 387.015 17.625C387.015 18.7 386.016 19.5529 384.432 20.1293C382.859 20.7014 380.717 21 378.39 21C376.062 21 373.92 20.7014 372.348 20.1293C370.763 19.5529 369.765 18.7 369.765 17.625C369.765 16.55 370.763 15.6971 372.348 15.1207Z" fill="#A16207"/>
<path opacity="0.5" fill-rule="evenodd" clip-rule="evenodd" d="M375.86 15.7298C374.988 15.9083 374.452 16.1654 374.452 16.5C374.452 16.8346 374.988 17.0917 375.86 17.2702C376.75 17.4527 378.031 17.5603 379.515 17.5603C380.998 17.5603 382.279 17.4527 383.169 17.2702C384.041 17.0917 384.577 16.8346 384.577 16.5C384.577 16.1654 384.041 15.9083 383.169 15.7298C382.279 15.5473 380.998 15.4397 379.515 15.4397C378.031 15.4397 376.75 15.5473 375.86 15.7298ZM374.817 15.3841C376.064 15.1285 377.736 15 379.515 15C381.293 15 382.965 15.1285 384.213 15.3841C385.479 15.6436 386.265 16.0266 386.265 16.5C386.265 16.9734 385.479 17.3564 384.213 17.6159C382.965 17.8715 381.293 18 379.515 18C377.736 18 376.064 17.8715 374.817 17.6159C373.55 17.3564 372.765 16.9734 372.765 16.5C372.765 16.0266 373.55 15.6436 374.817 15.3841Z" fill="#A16207"/>
<path opacity="0.5" fill-rule="evenodd" clip-rule="evenodd" d="M376.064 16.8998C376.063 16.8998 376.068 16.899 376.084 16.8976C376.073 16.8991 376.066 16.8998 376.064 16.8998ZM376.514 16.875C376.943 16.8587 377.586 16.8465 378.39 16.8465C379.193 16.8465 379.837 16.8587 380.265 16.875C379.837 16.8913 379.193 16.9035 378.39 16.9035C377.586 16.9035 376.943 16.8913 376.514 16.875ZM380.715 16.8998C380.714 16.8998 380.706 16.8991 380.696 16.8976C380.711 16.899 380.716 16.8998 380.715 16.8998ZM380.696 16.8524C380.706 16.8509 380.714 16.8502 380.715 16.8502C380.716 16.8502 380.711 16.851 380.696 16.8524ZM376.084 16.8524C376.068 16.851 376.063 16.8502 376.064 16.8502C376.066 16.8502 376.073 16.8509 376.084 16.8524ZM374.885 16.5697C375.894 16.5208 377.146 16.5 378.39 16.5C379.633 16.5 380.885 16.5208 381.894 16.5697C382.872 16.6171 384.015 16.714 384.015 16.875C384.015 17.036 382.872 17.1329 381.894 17.1803C380.885 17.2292 379.633 17.25 378.39 17.25C377.146 17.25 375.894 17.2292 374.885 17.1803C373.907 17.1329 372.765 17.036 372.765 16.875C372.765 16.714 373.907 16.6171 374.885 16.5697Z" fill="#A16207"/>
<path opacity="0.1" d="M376.515 239.893C376.515 233.058 376.253 225.75 375.692 225.75C375.131 225.75 375.015 231.29 375.015 238.125C375.015 244.96 375.131 250.5 375.692 250.5C376.253 250.5 376.515 246.727 376.515 239.893Z" fill="white"/>
<path opacity="0.1" d="M383.265 192.429C383.265 186.422 383.003 180 382.442 180C381.881 180 381.765 184.869 381.765 190.875C381.765 196.881 381.881 201.75 382.442 201.75C383.003 201.75 383.265 198.435 383.265 192.429Z" fill="white"/>
<path opacity="0.1" d="M381.765 267.321C381.765 263.179 381.242 258.75 380.119 258.75C378.997 258.75 378.765 262.108 378.765 266.25C378.765 270.392 378.997 273.75 380.119 273.75C381.242 273.75 381.765 271.464 381.765 267.321Z" fill="black"/>
<path opacity="0.1" d="M371.265 179.571C371.265 175.429 371.003 171 370.442 171C369.881 171 369.765 174.358 369.765 178.5C369.765 182.642 369.881 186 370.442 186C371.003 186 371.265 183.714 371.265 179.571Z" fill="white"/>
<path opacity="0.1" d="M376.515 156.321C376.515 147.83 375.992 138.75 374.869 138.75C373.747 138.75 373.515 145.634 373.515 154.125C373.515 162.616 373.747 169.5 374.869 169.5C375.992 169.5 376.515 164.813 376.515 156.321Z" fill="black"/>
<path opacity="0.1" d="M368.265 265.5C368.265 258.251 368.526 250.5 369.087 250.5C369.648 250.5 369.765 256.376 369.765 263.625C369.765 270.874 369.648 276.75 369.087 276.75C368.526 276.75 368.265 272.749 368.265 265.5Z" fill="white"/>
<path opacity="0.1" d="M369.765 300.536C369.765 295.565 370.157 290.25 370.999 290.25C371.84 290.25 372.015 294.279 372.015 299.25C372.015 304.221 371.84 308.25 370.999 308.25C370.157 308.25 369.765 305.506 369.765 300.536Z" fill="black"/>
<path opacity="0.1" d="M384.765 311.143C384.765 305.758 385.026 300 385.587 300C386.148 300 386.265 304.365 386.265 309.75C386.265 315.135 386.148 319.5 385.587 319.5C385.026 319.5 384.765 316.528 384.765 311.143Z" fill="white"/>
<path opacity="0.1" d="M384.765 161.143C384.765 155.758 385.026 150 385.587 150C386.148 150 386.265 154.365 386.265 159.75C386.265 165.135 386.148 169.5 385.587 169.5C385.026 169.5 384.765 166.528 384.765 161.143Z" fill="black"/>
<path opacity="0.1" d="M388.515 280.179C388.515 274.172 388.776 267.75 389.337 267.75C389.898 267.75 390.015 272.619 390.015 278.625C390.015 284.631 389.898 289.5 389.337 289.5C388.776 289.5 388.515 286.185 388.515 280.179Z" fill="white"/>
<path opacity="0.1" d="M387.015 219.643C387.015 211.359 387.276 202.5 387.837 202.5C388.398 202.5 388.515 209.216 388.515 217.5C388.515 225.784 388.398 232.5 387.837 232.5C387.276 232.5 387.015 227.927 387.015 219.643Z" fill="black"/>
</g>
<g filter="url(#filter4_iii_892_272442)">
<path d="M6.01465 362.766C170.157 257.415 250.337 134.299 378.015 0V34.9611C326.455 219.604 99.2088 486 99.2088 486L6.01465 362.766Z" fill="#D7B99A"/>
</g>
<g filter="url(#filter5_i_892_272442)">
<path d="M378.015 0C308.928 35.1302 262.874 113.831 195.399 116.109C193.522 116.172 191.737 117.039 190.602 118.537L6.01465 362.25C174.541 274.273 257.639 141.502 378.015 0Z" fill="#D7B99A"/>
</g>
<g filter="url(#filter6_iii_892_272442)">
<path d="M750.015 362.766C586.614 257.415 505.251 134.299 378.15 0C378.15 8.47541 378.015 25.4262 378.015 34.9611C413.047 169.483 521.281 370.653 657.242 486L750.015 362.766Z" fill="#E4CEB8"/>
</g>
<path d="M378.015 0C446.869 35.1583 489.741 113.957 561.392 116.114C563.274 116.171 565.068 117.043 566.202 118.546L750.015 362.25C582.963 273.042 500.619 141.001 378.015 0Z" fill="#F2E9DE"/>
<defs>
<filter id="filter0_f_892_272442" x="0" y="57.7227" width="756.014" height="446.277" filterUnits="userSpaceOnUse" color-interpolation-filters="sRGB">
<feFlood flood-opacity="0" result="BackgroundImageFix"/>
<feBlend mode="normal" in="SourceGraphic" in2="BackgroundImageFix" result="shape"/>
<feGaussianBlur stdDeviation="9" result="effect1_foregroundBlur_892_272442"/>
</filter>
<filter id="filter1_ii_892_272442" x="357.015" y="9.51367" width="34.7363" height="348.236" filterUnits="userSpaceOnUse" color-interpolation-filters="sRGB">
<feFlood flood-opacity="0" result="BackgroundImageFix"/>
<feBlend mode="normal" in="SourceGraphic" in2="BackgroundImageFix" result="shape"/>
<feColorMatrix in="SourceAlpha" type="matrix" values="0 0 0 0 0 0 0 0 0 0 0 0 0 0 0 0 0 0 127 0" result="hardAlpha"/>
<feOffset dy="111"/>
<feGaussianBlur stdDeviation="6"/>
<feComposite in2="hardAlpha" operator="arithmetic" k2="-1" k3="1"/>
<feColorMatrix type="matrix" values="0 0 0 0 0 0 0 0 0 0 0 0 0 0 0 0 0 0 0.25 0"/>
<feBlend mode="normal" in2="shape" result="effect1_innerShadow_892_272442"/>
<feColorMatrix in="SourceAlpha" type="matrix" values="0 0 0 0 0 0 0 0 0 0 0 0 0 0 0 0 0 0 127 0" result="hardAlpha"/>
<feOffset dx="-8.25" dy="3"/>
<feGaussianBlur stdDeviation="5.625"/>
<feComposite in2="hardAlpha" operator="arithmetic" k2="-1" k3="1"/>
<feColorMatrix type="matrix" values="0 0 0 0 1 0 0 0 0 1 0 0 0 0 1 0 0 0 0.12 0"/>
<feBlend mode="normal" in2="effect1_innerShadow_892_272442" result="effect2_innerShadow_892_272442"/>
</filter>
<filter id="filter2_dd_892_272442" x="355.515" y="309.75" width="48" height="48" filterUnits="userSpaceOnUse" color-interpolation-filters="sRGB">
<feFlood flood-opacity="0" result="BackgroundImageFix"/>
<feColorMatrix in="SourceAlpha" type="matrix" values="0 0 0 0 0 0 0 0 0 0 0 0 0 0 0 0 0 0 127 0" result="hardAlpha"/>
<feMorphology radius="1.5" operator="dilate" in="SourceAlpha" result="effect1_dropShadow_892_272442"/>
<feOffset/>
<feComposite in2="hardAlpha" operator="out"/>
<feColorMatrix type="matrix" values="0 0 0 0 0 0 0 0 0 0 0 0 0 0 0 0 0 0 0.12 0"/>
<feBlend mode="normal" in2="BackgroundImageFix" result="effect1_dropShadow_892_272442"/>
<feColorMatrix in="SourceAlpha" type="matrix" values="0 0 0 0 0 0 0 0 0 0 0 0 0 0 0 0 0 0 127 0" result="hardAlpha"/>
<feMorphology radius="12" operator="dilate" in="SourceAlpha" result="effect2_dropShadow_892_272442"/>
<feOffset/>
<feComposite in2="hardAlpha" operator="out"/>
<feColorMatrix type="matrix" values="0 0 0 0 0 0 0 0 0 0 0 0 0 0 0 0 0 0 0.12 0"/>
<feBlend mode="normal" in2="effect1_dropShadow_892_272442" result="effect2_dropShadow_892_272442"/>
<feBlend mode="normal" in="SourceGraphic" in2="effect2_dropShadow_892_272442" result="shape"/>
</filter>
<filter id="filter3_iii_892_272442" x="364.358" y="15.6718" width="41.4065" height="345.978" filterUnits="userSpaceOnUse" color-interpolation-filters="sRGB">
<feFlood flood-opacity="0" result="BackgroundImageFix"/>
<feBlend mode="normal" in="SourceGraphic" in2="BackgroundImageFix" result="shape"/>
<feColorMatrix in="SourceAlpha" type="matrix" values="0 0 0 0 0 0 0 0 0 0 0 0 0 0 0 0 0 0 127 0" result="hardAlpha"/>
<feOffset dx="1.57825" dy="-1.57825"/>
<feGaussianBlur stdDeviation="3.15649"/>
<feComposite in2="hardAlpha" operator="arithmetic" k2="-1" k3="1"/>
<feColorMatrix type="matrix" values="0 0 0 0 0 0 0 0 0 0 0 0 0 0 0 0 0 0 0.45 0"/>
<feBlend mode="normal" in2="shape" result="effect1_innerShadow_892_272442"/>
<feColorMatrix in="SourceAlpha" type="matrix" values="0 0 0 0 0 0 0 0 0 0 0 0 0 0 0 0 0 0 127 0" result="hardAlpha"/>
<feOffset dx="-3.15649"/>
<feGaussianBlur stdDeviation="2.36737"/>
<feComposite in2="hardAlpha" operator="arithmetic" k2="-1" k3="1"/>
<feColorMatrix type="matrix" values="0 0 0 0 1 0 0 0 0 1 0 0 0 0 1 0 0 0 0.25 0"/>
<feBlend mode="normal" in2="effect1_innerShadow_892_272442" result="effect2_innerShadow_892_272442"/>
<feColorMatrix in="SourceAlpha" type="matrix" values="0 0 0 0 0 0 0 0 0 0 0 0 0 0 0 0 0 0 127 0" result="hardAlpha"/>
<feOffset dx="14.25" dy="81.9"/>
<feGaussianBlur stdDeviation="7.95"/>
<feComposite in2="hardAlpha" operator="arithmetic" k2="-1" k3="1"/>
<feColorMatrix type="matrix" values="0 0 0 0 0 0 0 0 0 0 0 0 0 0 0 0 0 0 0.25 0"/>
<feBlend mode="normal" in2="effect2_innerShadow_892_272442" result="effect3_innerShadow_892_272442"/>
</filter>
<filter id="filter4_iii_892_272442" x="-11.2354" y="-1.5" width="390.75" height="504.75" filterUnits="userSpaceOnUse" color-interpolation-filters="sRGB">
<feFlood flood-opacity="0" result="BackgroundImageFix"/>
<feBlend mode="normal" in="SourceGraphic" in2="BackgroundImageFix" result="shape"/>
<feColorMatrix in="SourceAlpha" type="matrix" values="0 0 0 0 0 0 0 0 0 0 0 0 0 0 0 0 0 0 127 0" result="hardAlpha"/>
<feOffset dx="1.5" dy="1.5"/>
<feGaussianBlur stdDeviation="1.5"/>
<feComposite in2="hardAlpha" operator="arithmetic" k2="-1" k3="1"/>
<feColorMatrix type="matrix" values="0 0 0 0 1 0 0 0 0 1 0 0 0 0 1 0 0 0 0.15 0"/>
<feBlend mode="normal" in2="shape" result="effect1_innerShadow_892_272442"/>
<feColorMatrix in="SourceAlpha" type="matrix" values="0 0 0 0 0 0 0 0 0 0 0 0 0 0 0 0 0 0 127 0" result="hardAlpha"/>
<feOffset dx="-1.5" dy="-1.5"/>
<feGaussianBlur stdDeviation="1.5"/>
<feComposite in2="hardAlpha" operator="arithmetic" k2="-1" k3="1"/>
<feColorMatrix type="matrix" values="0 0 0 0 1 0 0 0 0 1 0 0 0 0 1 0 0 0 0.15 0"/>
<feBlend mode="normal" in2="effect1_innerShadow_892_272442" result="effect2_innerShadow_892_272442"/>
<feColorMatrix in="SourceAlpha" type="matrix" values="0 0 0 0 0 0 0 0 0 0 0 0 0 0 0 0 0 0 127 0" result="hardAlpha"/>
<feOffset dx="-26.25" dy="41.25"/>
<feGaussianBlur stdDeviation="8.625"/>
<feComposite in2="hardAlpha" operator="arithmetic" k2="-1" k3="1"/>
<feColorMatrix type="matrix" values="0 0 0 0 0 0 0 0 0 0 0 0 0 0 0 0 0 0 0.1 0"/>
<feBlend mode="normal" in2="effect2_innerShadow_892_272442" result="effect3_innerShadow_892_272442"/>
</filter>
<filter id="filter5_i_892_272442" x="6.01465" y="-11.25" width="383.25" height="373.5" filterUnits="userSpaceOnUse" color-interpolation-filters="sRGB">
<feFlood flood-opacity="0" result="BackgroundImageFix"/>
<feBlend mode="normal" in="SourceGraphic" in2="BackgroundImageFix" result="shape"/>
<feColorMatrix in="SourceAlpha" type="matrix" values="0 0 0 0 0 0 0 0 0 0 0 0 0 0 0 0 0 0 127 0" result="hardAlpha"/>
<feOffset dx="43.5" dy="-53.25"/>
<feGaussianBlur stdDeviation="5.625"/>
<feComposite in2="hardAlpha" operator="arithmetic" k2="-1" k3="1"/>
<feColorMatrix type="matrix" values="0 0 0 0 0 0 0 0 0 0 0 0 0 0 0 0 0 0 0.1 0"/>
<feBlend mode="normal" in2="shape" result="effect1_innerShadow_892_272442"/>
</filter>
<filter id="filter6_iii_892_272442" x="376.515" y="-1.5" width="385.5" height="526.5" filterUnits="userSpaceOnUse" color-interpolation-filters="sRGB">
<feFlood flood-opacity="0" result="BackgroundImageFix"/>
<feBlend mode="normal" in="SourceGraphic" in2="BackgroundImageFix" result="shape"/>
<feColorMatrix in="SourceAlpha" type="matrix" values="0 0 0 0 0 0 0 0 0 0 0 0 0 0 0 0 0 0 127 0" result="hardAlpha"/>
<feOffset dx="-1.5" dy="-1.5"/>
<feGaussianBlur stdDeviation="1.5"/>
<feComposite in2="hardAlpha" operator="arithmetic" k2="-1" k3="1"/>
<feColorMatrix type="matrix" values="0 0 0 0 1 0 0 0 0 1 0 0 0 0 1 0 0 0 0.15 0"/>
<feBlend mode="normal" in2="shape" result="effect1_innerShadow_892_272442"/>
<feColorMatrix in="SourceAlpha" type="matrix" values="0 0 0 0 0 0 0 0 0 0 0 0 0 0 0 0 0 0 127 0" result="hardAlpha"/>
<feOffset dx="1.5" dy="1.5"/>
<feGaussianBlur stdDeviation="1.5"/>
<feComposite in2="hardAlpha" operator="arithmetic" k2="-1" k3="1"/>
<feColorMatrix type="matrix" values="0 0 0 0 1 0 0 0 0 1 0 0 0 0 1 0 0 0 0.15 0"/>
<feBlend mode="normal" in2="effect1_innerShadow_892_272442" result="effect2_innerShadow_892_272442"/>
<feColorMatrix in="SourceAlpha" type="matrix" values="0 0 0 0 0 0 0 0 0 0 0 0 0 0 0 0 0 0 127 0" result="hardAlpha"/>
<feOffset dx="12" dy="57"/>
<feGaussianBlur stdDeviation="19.5"/>
<feComposite in2="hardAlpha" operator="arithmetic" k2="-1" k3="1"/>
<feColorMatrix type="matrix" values="0 0 0 0 1 0 0 0 0 1 0 0 0 0 1 0 0 0 0.4 0"/>
<feBlend mode="normal" in2="effect2_innerShadow_892_272442" result="effect3_innerShadow_892_272442"/>
</filter>
<linearGradient id="paint0_linear_892_272442" x1="378.008" y1="177.75" x2="378.008" y2="486" gradientUnits="userSpaceOnUse">
<stop/>
<stop offset="0.854167" stop-color="#C4C4C4" stop-opacity="0"/>
</linearGradient>
<radialGradient id="paint1_radial_892_272442" cx="0" cy="0" r="1" gradientUnits="userSpaceOnUse" gradientTransform="translate(368.264 475.5) rotate(180) scale(337.5 612.035)">
<stop offset="0.375" stop-opacity="0"/>
<stop offset="1"/>
</radialGradient>
</defs>
</svg>
