<svg width="243" height="246" viewBox="0 0 243 246" fill="none" xmlns="http://www.w3.org/2000/svg">
<g filter="url(#filter0_i_892_268335)">
<path d="M101.936 62.3224C128.943 55.5935 154.855 67.6685 164.574 79.5065C167.847 82.1025 183.176 96.0235 189.56 111.724C197.539 131.351 188.939 157.44 173.9 178.313C158.862 199.185 94.0957 217.394 65.5534 173.157C37.011 128.921 54.8504 105.295 57.9195 96.2608C60.9886 87.2266 68.1758 70.7336 101.936 62.3224Z" fill="#9A7858"/>
</g>
<g filter="url(#filter1_i_892_268335)">
<path d="M112.788 196.648C137.042 204.396 160.782 188.946 171.019 170.578C178.181 157.725 185.042 145.678 190.089 131.861C194.086 120.921 191.393 109.231 187.086 98.373C182.415 86.597 176.549 80.6612 164.229 76.297C156.565 73.582 147.831 72.5001 139.855 71.5503C124.385 69.7084 110.126 70.2473 96.2779 75.8371C76.8234 83.69 57.5781 96.4923 55.7415 118.185C54.7511 129.882 60.3741 140.42 65.2226 151.35C68.3494 158.399 72.2749 163.467 78.7055 168.339C89.887 176.81 103.495 174.284 116.036 172.44C122.122 171.545 131.871 169.793 136.813 166.615" stroke="#A6815E" stroke-width="5" stroke-linecap="round"/>
<path d="M161.69 147.806C162.864 143.465 161.977 137.343 160.841 133.017C158.102 122.586 153.644 110.736 147.508 101.442C139.737 89.6705 127.877 83.1045 113.386 81.1557C100.351 79.4027 88.4534 78.7569 75.8031 81.5177C64.4793 83.989 58.1789 93.9337 53.3901 102.686C45.685 116.768 47.9434 131.715 47.5019 147.217C47.2146 157.307 50.0103 168.772 58.0947 176.404C66.8608 184.679 75.4757 186.789 86.4931 190.57C90.5262 191.954 98.1791 194.469 101.75 192.15" stroke="#A6815E" stroke-width="5" stroke-linecap="round"/>
<path d="M127.184 146.726C131.651 147.337 132.853 135.087 133.155 132.55C133.919 126.118 133.587 116.596 127.369 111.669C110.53 98.3247 87.6384 107.481 82.257 124.546C80.0627 131.505 88.7371 141.237 93.5602 146.234C99.9391 152.842 109.506 156.342 117.58 151.661C123.472 148.245 127.803 142.425 128.79 135.862C129.249 132.811 130.54 126.028 128.035 123.55" stroke="#A6815E" stroke-width="5" stroke-linecap="round"/>
<path d="M105.314 93.1998C98.2854 93.4583 88.8181 147.278 124.962 122.183C131.874 117.384 165.361 93.8977 144.471 86.1175C141.35 84.9553 138.487 83.9324 135.173 83.4571C132.263 83.0399 129.661 84.5837 126.786 84.6894C124.591 84.7702 117.558 86.6913 115.649 87.8211C108.191 92.2354 112.334 104.068 119.976 106.914" stroke="#A6815E" stroke-width="5" stroke-linecap="round"/>
<path d="M138.072 147.275C134.255 151.922 142.869 157.199 146.235 160.829C152.309 167.381 162.118 166.937 169.023 163.332C186.803 154.048 183.907 129.112 163.14 121.378C156.281 118.823 144.83 122.547 140.67 127.55C136.647 132.389 138.889 134.198 144.033 138.421C148.787 142.325 160.807 148.728 163.84 140.765" stroke="#A6815E" stroke-width="5" stroke-linecap="round"/>
<path d="M99.3225 148.159C110.091 152.558 134.904 159.478 129.569 173.481C125.083 185.256 107.025 196.869 92.4748 193.061C86.8125 191.579 81.0242 185.371 79.7958 180.134C78.8042 175.906 79.9207 166.145 83.9213 163.653C89.1647 160.388 110.899 159.658 107.095 169.644" stroke="#A6815E" stroke-width="5" stroke-linecap="round"/>
<path d="M77.9672 129.399C83.0433 133.32 76.3688 145.35 73.1013 148.117C68.3385 152.15 61.5753 152.469 55.3919 151.67C38.7872 149.524 44.3254 119.492 49.0624 110.819C51.9804 105.476 54.7824 104.204 61.1914 105.071C65.4013 105.641 69.7637 107.713 69.4087 112.564C69.0379 117.631 68.6392 122.732 65.5874 126.888C64.58 128.261 58.494 135.467 57.9571 131.395" stroke="#A6815E" stroke-width="5" stroke-linecap="round"/>
<path d="M149.82 173.636C148.169 182.222 155.696 189.8 164.371 186.66C169.131 184.937 172.359 183.772 174.188 178.969C175.228 176.241 171.53 174.165 169.808 172.389" stroke="#A6815E" stroke-width="5" stroke-linecap="round"/>
<path d="M173.386 114.072C185.457 107.951 192.173 94.0088 179.563 84.5943C169.928 77.4012 163.4 72.0884 150.933 75.4667C140.837 78.2026 140.01 88.298 148.147 95.2356C152.255 98.7372 160.612 96.5369 165.537 96.8232" stroke="#A6815E" stroke-width="5" stroke-linecap="round"/>
<path d="M129.975 73.8016C125.103 71.4542 121.729 67.0086 116.551 64.68C109.249 61.3957 101.572 60.8771 94.5709 64.3318C88.3435 67.4048 84.9173 79.9028 77.6866 80.4541" stroke="#A6815E" stroke-width="5" stroke-linecap="round"/>
<path d="M90.874 97.9716C92.4739 91.7853 92.3422 84.5998 95.8975 78.9705C98.5651 74.7468 109.771 69.6779 114.748 68.8623C129.548 66.437 144.225 68.8374 158.437 74.13C173.892 79.886 170.713 101.325 169.932 113.066C168.883 128.849 158.79 141.299 148.108 152.41C140.521 160.302 128.27 167.028 116.268 162.558C101.418 157.028 92.5151 148.92 83.0414 137.139C77.0812 129.727 76.6679 125.508 82.6996 119.429" stroke="#A6815E" stroke-width="5" stroke-linecap="round"/>
<path d="M143.776 123.264C141.13 130.21 143.113 137.959 135.135 142.805C126.441 148.085 121.6 141.28 119.108 134.307" stroke="#A6815E" stroke-width="5" stroke-linecap="round"/>
</g>
<g filter="url(#filter2_i_892_268335)">
<path d="M61.5356 132.257C59.7753 153.448 77.0799 175.605 94.0944 180.283C106 183.556 117.063 180.788 129.359 182.157C139.095 183.24 148.177 178.753 156.271 173.121C165.05 167.012 172.383 159.655 173.629 148.807C174.404 142.058 178.188 138.889 177.455 132.235C176.034 119.33 164.76 105.181 157.548 95.0564C147.414 80.832 133.259 67.7527 115.109 70.5398C105.322 72.0427 97.1598 76.7346 89.1091 82.8202C83.9172 86.7447 81.0832 92.8705 78.3044 99.0444C73.4726 109.78 78.126 120.314 82.0171 130.118C83.9052 134.876 87.192 142.434 90.7371 145.814" stroke="#9A7858" stroke-width="5" stroke-linecap="round"/>
<path d="M110.889 162.274C114.674 162.37 119.53 160.445 122.864 158.671C130.905 154.394 139.784 148.444 146.248 141.637C154.435 133.016 157.575 122.107 156.426 109.974C155.393 99.0604 153.668 89.2873 149.003 79.5755C144.828 70.882 135.473 67.7344 127.382 65.5772C114.365 62.1064 102.527 66.8838 89.7219 69.5816C81.3867 71.3378 72.5079 75.8645 67.7781 83.9232C62.6494 92.6614 62.551 100.062 61.5372 109.739C61.1661 113.282 60.5527 119.982 63.1337 122.42" stroke="#9A7858" stroke-width="5" stroke-linecap="round"/>
<path d="M105.233 134.089C105.579 137.83 115.859 136.39 117.998 136.135C123.421 135.486 131.172 133.34 134.037 127.328C141.795 111.045 129.941 94.2909 114.916 93.2921C108.789 92.8848 102.447 101.836 99.2616 106.731C95.048 113.205 93.9898 121.651 99.3619 127.274C103.283 131.378 108.88 133.743 114.453 133.249C117.043 133.02 122.855 132.729 124.413 130.21" stroke="#9A7858" stroke-width="5" stroke-linecap="round"/>
<path d="M145.013 105.806C143.469 100.159 97.5067 103.093 124.954 127.449C130.203 132.106 155.826 154.626 158.25 136.156C158.612 133.397 158.909 130.874 158.67 128.093C158.461 125.652 156.701 123.847 156.069 121.536C155.586 119.773 152.676 114.45 151.387 113.125C146.35 107.949 137.426 113.64 136.539 120.397" stroke="#9A7858" stroke-width="5" stroke-linecap="round"/>
<path d="M106.846 143.022C102.309 140.843 99.6119 148.867 97.271 152.312C93.046 158.528 95.2701 166.393 99.5378 171.28C110.528 183.865 130.442 176.601 132.852 158.24C133.647 152.176 128.421 143.626 123.526 141.24C118.792 138.932 117.733 141.106 115.242 146.109C112.94 150.733 109.965 161.74 117.074 162.63" stroke="#9A7858" stroke-width="5" stroke-linecap="round"/>
<path d="M98.7732 111.782C97.2047 121.379 96.2305 142.86 83.7273 141.295C73.2139 139.98 60.2597 127.629 60.6259 115.081C60.7684 110.199 64.7655 104.282 68.8306 102.254C72.1121 100.616 80.3343 99.5974 83.1376 102.35C86.8117 105.957 91.5319 123.434 82.6149 122.318" stroke="#9A7858" stroke-width="5" stroke-linecap="round"/>
<path d="M110.12 90.7703C107.865 95.6586 96.7273 92.6187 93.8372 90.515C89.6246 87.4486 88.0805 82.0283 87.5639 76.8576C86.1766 62.9725 111.872 61.5426 119.888 63.6733C124.825 64.9859 126.4 67.0069 126.904 72.3738C127.235 75.8992 126.362 79.8444 122.313 80.5129C118.085 81.2111 113.824 81.8932 109.834 80.2385C108.516 79.6922 101.449 76.1786 104.688 74.9407" stroke="#9A7858" stroke-width="5" stroke-linecap="round"/>
<path d="M87.4409 157.743C80.0817 158.098 75.2898 165.694 79.5116 172.108C81.8281 175.628 83.3963 178.014 87.6844 178.551C90.1207 178.856 91.1231 175.449 92.2542 173.703" stroke="#9A7858" stroke-width="5" stroke-linecap="round"/>
<path d="M140.79 165.107C148.102 173.687 160.817 176.383 166.152 164.304C170.228 155.075 173.35 148.735 168.214 139.294C164.055 131.648 155.613 132.967 151.463 140.932C149.368 144.952 152.758 151.294 153.457 155.344" stroke="#9A7858" stroke-width="5" stroke-linecap="round"/>
<path d="M165.608 121.976C166.61 117.563 169.619 113.951 170.548 109.294C171.859 102.727 170.829 96.4003 166.666 91.4055C162.964 86.9625 152.058 86.6484 150.234 80.8949" stroke="#9A7858" stroke-width="5" stroke-linecap="round"/>
<path d="M138.359 95.0382C143.739 95.1158 149.611 93.5926 154.905 95.3653C158.877 96.6954 165.161 104.781 166.774 108.656C171.571 120.176 172.384 132.549 170.735 145.114C168.942 158.779 150.745 160.428 140.962 162.109C127.811 164.37 115.68 158.641 104.536 152.171C96.6211 147.576 88.7788 138.969 90.1713 128.358C91.8943 115.228 96.8602 106.412 104.732 96.4088C109.684 90.1157 113.068 88.9488 119.2 92.6407" stroke="#9A7858" stroke-width="5" stroke-linecap="round"/>
<path d="M127.633 142.914C121.431 142.138 115.448 145.273 109.959 139.76C103.977 133.752 108.644 128.486 113.894 125.092" stroke="#9A7858" stroke-width="5" stroke-linecap="round"/>
</g>
<g filter="url(#filter3_i_892_268335)">
<path d="M75.9399 106.596C74.9249 118.815 84.9031 131.591 94.714 134.289C101.579 136.177 107.958 134.58 115.048 135.37C120.662 135.994 125.9 133.407 130.567 130.159C135.628 126.637 139.857 122.394 140.575 116.139C141.022 112.248 143.204 110.42 142.782 106.583C141.962 99.1423 135.462 90.9838 131.303 85.1455C125.46 76.9434 117.297 69.4016 106.832 71.0087C101.188 71.8753 96.4816 74.5807 91.8394 78.0898C88.8456 80.3528 87.2115 83.8851 85.6092 87.4451C82.823 93.6352 85.5063 99.7097 87.75 105.363C88.8387 108.106 90.734 112.465 92.7782 114.414" stroke="#9A7858" stroke-width="5" stroke-linecap="round"/>
<path d="M104.399 123.907C106.582 123.963 109.382 122.853 111.305 121.83C115.941 119.364 121.061 115.933 124.789 112.008C129.509 107.037 131.32 100.746 130.657 93.7501C130.062 87.457 129.067 81.8216 126.377 76.2215C123.97 71.2087 118.575 69.3937 113.91 68.1498C106.404 66.1484 99.5778 68.9032 92.1941 70.4588C87.3879 71.4715 82.2681 74.0817 79.5408 78.7285C76.5835 83.7671 76.5268 88.0344 75.9422 93.6147C75.7282 95.6574 75.3745 99.521 76.8628 100.927" stroke="#9A7858" stroke-width="5" stroke-linecap="round"/>
<path d="M101.138 107.655C101.338 109.813 107.266 108.983 108.499 108.835C111.626 108.461 116.096 107.224 117.747 103.757C122.221 94.368 115.386 84.7071 106.722 84.1312C103.189 83.8963 99.5323 89.0578 97.6952 91.8805C95.2656 95.6137 94.6554 100.484 97.7531 103.726C100.014 106.093 103.241 107.456 106.455 107.171C107.949 107.039 111.299 106.871 112.198 105.419" stroke="#9A7858" stroke-width="5" stroke-linecap="round"/>
<path d="M124.075 91.3448C123.184 88.0882 96.6813 89.7799 112.508 103.824C115.535 106.51 130.31 119.496 131.707 108.845C131.916 107.254 132.087 105.8 131.95 104.196C131.829 102.788 130.814 101.747 130.449 100.415C130.171 99.3984 128.493 96.3288 127.75 95.565C124.846 92.5802 119.7 95.8618 119.188 99.758" stroke="#9A7858" stroke-width="5" stroke-linecap="round"/>
<path d="M102.067 112.804C99.4503 111.547 97.895 116.174 96.5452 118.16C94.109 121.745 95.3915 126.28 97.8523 129.098C104.189 136.355 115.672 132.167 117.062 121.579C117.521 118.082 114.507 113.152 111.684 111.776C108.955 110.446 108.344 111.699 106.908 114.584C105.58 117.25 103.865 123.597 107.964 124.11" stroke="#9A7858" stroke-width="5" stroke-linecap="round"/>
<path d="M97.4133 94.7924C96.5089 100.327 95.9471 112.713 88.7374 111.811C82.6752 111.052 75.2055 103.93 75.4167 96.6951C75.4988 93.8796 77.8036 90.468 80.1477 89.2984C82.0399 88.3543 86.781 87.7667 88.3974 89.3537C90.516 91.4337 93.2378 101.511 88.096 100.868" stroke="#9A7858" stroke-width="5" stroke-linecap="round"/>
<path d="M103.956 82.6767C102.656 85.4954 96.2333 83.7425 94.5668 82.5295C92.1377 80.7613 91.2474 77.6358 90.9495 74.6543C90.1495 66.6479 104.966 65.8234 109.588 67.052C112.435 67.8088 113.343 68.9742 113.634 72.0689C113.825 74.1017 113.321 76.3766 110.987 76.762C108.549 77.1646 106.091 77.558 103.791 76.6038C103.031 76.2888 98.9558 74.2628 100.824 73.549" stroke="#9A7858" stroke-width="5" stroke-linecap="round"/>
<path d="M90.8769 121.292C86.6335 121.496 83.8704 125.877 86.3047 129.575C87.6405 131.605 88.5448 132.981 91.0174 133.29C92.4222 133.466 93.0002 131.501 93.6524 130.495" stroke="#9A7858" stroke-width="5" stroke-linecap="round"/>
<path d="M121.639 125.539C125.856 130.486 133.187 132.041 136.264 125.075C138.614 119.754 140.415 116.098 137.453 110.654C135.054 106.245 130.187 107.006 127.794 111.598C126.586 113.917 128.541 117.573 128.944 119.908" stroke="#9A7858" stroke-width="5" stroke-linecap="round"/>
<path d="M135.951 100.668C136.529 98.124 138.264 96.0412 138.799 93.3561C139.555 89.5689 138.961 85.921 136.561 83.0409C134.426 80.479 128.137 80.2978 127.086 76.9802" stroke="#9A7858" stroke-width="5" stroke-linecap="round"/>
<path d="M120.238 85.1347C123.34 85.1795 126.726 84.3012 129.778 85.3234C132.069 86.0903 135.692 90.7528 136.622 92.9868C139.388 99.63 139.857 106.764 138.906 114.01C137.872 121.889 127.38 122.84 121.739 123.809C114.155 125.113 107.16 121.81 100.735 118.079C96.1705 115.429 91.6484 110.466 92.4514 104.348C93.4449 96.7766 96.3084 91.6931 100.847 85.9251C103.703 82.2963 105.654 81.6235 109.19 83.7523" stroke="#9A7858" stroke-width="5" stroke-linecap="round"/>
<path d="M114.053 112.741C110.476 112.294 107.026 114.102 103.861 110.923C100.412 107.459 103.103 104.422 106.13 102.465" stroke="#9A7858" stroke-width="5" stroke-linecap="round"/>
</g>
<g filter="url(#filter4_i_892_268335)">
<path d="M61.7983 136.679C60.7833 148.898 70.7615 161.674 80.5724 164.372C87.4375 166.26 93.8169 164.663 100.907 165.453C106.521 166.077 111.758 163.49 116.425 160.242C121.487 156.72 125.716 152.477 126.434 146.222C126.881 142.331 129.063 140.503 128.64 136.666C127.82 129.225 121.32 121.067 117.161 115.228C111.318 107.026 103.156 99.4846 92.69 101.092C87.0468 101.958 82.34 104.664 77.6978 108.173C74.704 110.436 73.0699 113.968 71.4676 117.528C68.6814 123.718 71.3647 129.793 73.6084 135.446C74.6971 138.189 76.5924 142.548 78.6366 144.497" stroke="#9A7858" stroke-width="5" stroke-linecap="round"/>
<path d="M90.2578 153.99C92.4403 154.046 95.2406 152.936 97.1631 151.913C101.8 149.447 106.92 146.016 110.647 142.091C115.368 137.12 117.178 130.829 116.516 123.833C115.92 117.54 114.925 111.905 112.236 106.305C109.828 101.292 104.433 99.4767 99.7683 98.2328C92.2622 96.2314 85.4362 98.9862 78.0525 100.542C73.2463 101.554 68.1265 104.165 65.3992 108.811C62.4419 113.85 62.3852 118.117 61.8006 123.698C61.5866 125.74 61.2329 129.604 62.7212 131.01" stroke="#9A7858" stroke-width="5" stroke-linecap="round"/>
<path d="M86.9967 137.738C87.1961 139.896 93.124 139.066 94.3576 138.918C97.4848 138.544 101.954 137.307 103.606 133.84C108.08 124.451 101.244 114.79 92.5803 114.214C89.0476 113.979 85.3907 119.141 83.5536 121.963C81.124 125.697 80.5138 130.567 83.6115 133.809C85.8723 136.176 89.0997 137.539 92.3134 137.254C93.8069 137.122 97.1579 136.954 98.0566 135.502" stroke="#9A7858" stroke-width="5" stroke-linecap="round"/>
<path d="M109.933 121.428C109.042 118.171 82.5397 119.863 98.3666 133.907C101.393 136.593 116.168 149.579 117.566 138.928C117.774 137.337 117.945 135.883 117.808 134.279C117.687 132.871 116.672 131.83 116.308 130.498C116.03 129.481 114.352 126.412 113.608 125.648C110.704 122.663 105.558 125.945 105.047 129.841" stroke="#9A7858" stroke-width="5" stroke-linecap="round"/>
<path d="M87.925 142.887C85.3087 141.63 83.7534 146.257 82.4036 148.243C79.9674 151.828 81.2499 156.363 83.7107 159.181C90.0478 166.438 101.531 162.25 102.92 151.662C103.379 148.165 100.365 143.235 97.5428 141.859C94.8129 140.529 94.2024 141.782 92.7661 144.667C91.4386 147.333 89.7231 153.68 93.8226 154.193" stroke="#9A7858" stroke-width="5" stroke-linecap="round"/>
<path d="M83.2717 124.875C82.3673 130.41 81.8055 142.796 74.5958 141.894C68.5336 141.135 61.0639 134.013 61.2751 126.778C61.3572 123.963 63.662 120.551 66.0061 119.381C67.8983 118.437 72.6394 117.85 74.2558 119.437C76.3744 121.517 79.0962 131.594 73.9544 130.951" stroke="#9A7858" stroke-width="5" stroke-linecap="round"/>
<path d="M89.8144 112.76C88.514 115.578 82.0917 113.826 80.4252 112.612C77.9961 110.844 77.1058 107.719 76.8079 104.737C76.0079 96.7309 90.8243 95.9064 95.4464 97.135C98.2936 97.8918 99.2019 99.0572 99.4923 102.152C99.683 104.185 99.1795 106.46 96.845 106.845C94.4069 107.248 91.9498 107.641 89.6491 106.687C88.8896 106.372 84.8142 104.346 86.6821 103.632" stroke="#9A7858" stroke-width="5" stroke-linecap="round"/>
<path d="M76.7353 151.375C72.4919 151.579 69.7288 155.96 72.1631 159.658C73.4989 161.688 74.4032 163.064 76.8758 163.373C78.2806 163.549 78.8586 161.584 79.5108 160.578" stroke="#9A7858" stroke-width="5" stroke-linecap="round"/>
<path d="M107.498 155.622C111.714 160.569 119.046 162.124 122.122 155.158C124.473 149.837 126.273 146.181 123.311 140.737C120.913 136.328 116.045 137.089 113.652 141.681C112.444 144 114.399 147.656 114.802 149.991" stroke="#9A7858" stroke-width="5" stroke-linecap="round"/>
<path d="M121.809 130.751C122.387 128.207 124.122 126.124 124.658 123.439C125.414 119.652 124.82 116.004 122.42 113.124C120.285 110.562 113.996 110.381 112.944 107.063" stroke="#9A7858" stroke-width="5" stroke-linecap="round"/>
<path d="M106.096 115.218C109.198 115.263 112.584 114.384 115.637 115.406C117.927 116.173 121.551 120.836 122.481 123.07C125.247 129.713 125.715 136.847 124.765 144.093C123.731 151.972 113.238 152.923 107.597 153.892C100.014 155.196 93.0187 151.893 86.593 148.162C82.0289 145.512 77.5068 140.549 78.3098 134.431C79.3033 126.86 82.1668 121.776 86.7057 116.008C89.5612 112.379 91.5126 111.706 95.0486 113.835" stroke="#9A7858" stroke-width="5" stroke-linecap="round"/>
<path d="M99.9109 142.824C96.3348 142.377 92.8849 144.185 89.7197 141.006C86.2703 137.542 88.9616 134.505 91.9886 132.548" stroke="#9A7858" stroke-width="5" stroke-linecap="round"/>
</g>
<g filter="url(#filter5_i_892_268335)">
<path d="M79.5922 164.457C78.5772 176.676 88.5554 189.452 98.3664 192.15C105.231 194.037 111.611 192.441 118.701 193.23C124.315 193.855 129.552 191.268 134.219 188.02C139.281 184.498 143.509 180.255 144.228 174C144.675 170.108 146.857 168.281 146.434 164.444C145.614 157.003 139.114 148.845 134.955 143.006C129.112 134.804 120.95 127.262 110.484 128.87C104.841 129.736 100.134 132.442 95.4917 135.951C92.498 138.214 90.8638 141.746 89.2615 145.306C86.4754 151.496 89.1587 157.571 91.4023 163.224C92.4911 165.967 94.3863 170.325 96.4305 172.274" stroke="#9A7858" stroke-width="5" stroke-linecap="round"/>
<path d="M107.95 129.586C106.935 141.805 116.913 154.582 126.724 157.279C133.589 159.167 139.968 157.571 147.058 158.36C152.672 158.985 157.909 156.397 162.576 153.149C167.638 149.627 171.867 145.385 172.585 139.129C173.032 135.238 175.214 133.41 174.791 129.574C173.972 122.133 167.471 113.974 163.312 108.136C157.469 99.9336 149.307 92.3918 138.841 93.9989C133.198 94.8655 128.491 97.5709 123.849 101.08C120.855 103.343 119.221 106.875 117.619 110.435C114.833 116.625 117.516 122.7 119.76 128.353C120.848 131.097 122.744 135.455 124.788 137.404" stroke="#9A7858" stroke-width="5" stroke-linecap="round"/>
<path d="M108.052 181.768C110.234 181.823 113.035 180.713 114.957 179.69C119.594 177.224 124.714 173.793 128.441 169.868C133.162 164.897 134.972 158.606 134.31 151.61C133.714 145.317 132.719 139.682 130.03 134.082C127.622 129.069 122.227 127.254 117.562 126.01C110.056 124.009 103.23 126.764 95.8465 128.319C91.0402 129.332 85.9205 131.942 83.1932 136.589C80.2359 141.627 80.1792 145.895 79.5946 151.475C79.3806 153.518 79.0269 157.381 80.5151 158.787" stroke="#9A7858" stroke-width="5" stroke-linecap="round"/>
<path d="M136.41 146.898C138.593 146.953 141.393 145.843 143.315 144.82C147.952 142.354 153.072 138.923 156.799 134.998C161.52 130.027 163.33 123.736 162.668 116.74C162.073 110.447 161.077 104.812 158.388 99.2117C155.98 94.1989 150.586 92.3839 145.921 91.14C138.415 89.1387 131.589 91.8934 124.205 93.4491C119.399 94.4617 114.279 97.0719 111.552 101.719C108.594 106.757 108.538 111.025 107.953 116.605C107.739 118.648 107.385 122.511 108.874 123.917" stroke="#9A7858" stroke-width="5" stroke-linecap="round"/>
<path d="M104.791 165.516C104.99 167.673 110.918 166.843 112.152 166.695C115.279 166.322 119.748 165.084 121.4 161.617C125.873 152.228 119.038 142.567 110.374 141.992C106.842 141.757 103.185 146.918 101.348 149.741C98.9179 153.474 98.3077 158.344 101.405 161.587C103.666 163.953 106.894 165.316 110.107 165.032C111.601 164.899 114.952 164.732 115.851 163.279" stroke="#9A7858" stroke-width="5" stroke-linecap="round"/>
<path d="M133.149 130.645C133.348 132.803 139.276 131.972 140.51 131.825C143.637 131.451 148.106 130.213 149.758 126.747C154.232 117.358 147.397 107.697 138.733 107.121C135.2 106.886 131.543 112.048 129.706 114.87C127.276 118.603 126.666 123.474 129.764 126.716C132.025 129.082 135.252 130.446 138.466 130.161C139.959 130.029 143.31 129.861 144.209 128.409" stroke="#9A7858" stroke-width="5" stroke-linecap="round"/>
<path d="M127.727 149.205C126.836 145.949 100.334 147.64 116.161 161.685C119.187 164.37 133.962 177.356 135.36 166.705C135.568 165.114 135.739 163.66 135.602 162.056C135.481 160.649 134.466 159.608 134.102 158.275C133.824 157.259 132.146 154.189 131.402 153.425C128.498 150.441 123.352 153.722 122.841 157.618" stroke="#9A7858" stroke-width="5" stroke-linecap="round"/>
<path d="M156.085 114.335C155.194 111.078 128.691 112.77 144.518 126.814C147.545 129.5 162.319 142.485 163.717 131.835C163.926 130.244 164.097 128.789 163.959 127.186C163.839 125.778 162.824 124.737 162.459 123.405C162.181 122.388 160.503 119.319 159.76 118.555C156.856 115.57 151.709 118.851 151.198 122.748" stroke="#9A7858" stroke-width="5" stroke-linecap="round"/>
<path d="M105.719 170.665C103.103 169.408 101.547 174.035 100.198 176.021C97.7613 179.606 99.0438 184.141 101.505 186.959C107.842 194.216 119.325 190.027 120.714 179.44C121.173 175.943 118.159 171.013 115.337 169.637C112.607 168.306 111.996 169.56 110.56 172.445C109.233 175.111 107.517 181.458 111.617 181.971" stroke="#9A7858" stroke-width="5" stroke-linecap="round"/>
<path d="M134.076 135.794C131.46 134.538 129.905 139.165 128.555 141.151C126.119 144.735 127.401 149.27 129.862 152.088C136.199 159.345 147.682 155.157 149.072 144.569C149.53 141.072 146.517 136.142 143.694 134.767C140.964 133.436 140.354 134.689 138.917 137.574C137.59 140.24 135.874 146.588 139.974 147.101" stroke="#9A7858" stroke-width="5" stroke-linecap="round"/>
<path d="M101.066 152.653C100.161 158.187 99.5994 170.574 92.3898 169.672C86.3275 168.913 78.8579 161.791 79.069 154.556C79.1512 151.74 81.456 148.329 83.8 147.159C85.6922 146.215 90.4333 145.628 92.0498 147.215C94.1683 149.295 96.8901 159.372 91.7484 158.729" stroke="#9A7858" stroke-width="5" stroke-linecap="round"/>
<path d="M129.424 117.783C128.52 123.317 127.958 135.703 120.748 134.801C114.686 134.042 107.216 126.92 107.427 119.685C107.51 116.87 109.814 113.458 112.158 112.289C114.051 111.344 118.792 110.757 120.408 112.344C122.527 114.424 125.249 124.502 120.107 123.858" stroke="#9A7858" stroke-width="5" stroke-linecap="round"/>
<path d="M107.608 140.538C106.308 143.356 99.8856 141.603 98.2192 140.39C95.7901 138.622 94.8997 135.497 94.6018 132.515C93.8019 124.509 108.618 123.684 113.24 124.913C116.088 125.67 116.996 126.835 117.286 129.93C117.477 131.963 116.973 134.237 114.639 134.623C112.201 135.025 109.744 135.419 107.443 134.465C106.684 134.15 102.608 132.124 104.476 131.41" stroke="#9A7858" stroke-width="5" stroke-linecap="round"/>
<path d="M135.967 105.667C134.666 108.486 128.244 106.733 126.578 105.52C124.148 103.752 123.258 100.627 122.96 97.645C122.16 89.6386 136.977 88.8141 141.599 90.0427C144.446 90.7995 145.354 91.9649 145.645 95.0596C145.835 97.0924 145.332 99.3673 142.997 99.7528C140.559 100.155 138.102 100.549 135.801 99.5945C135.042 99.2796 130.967 97.2535 132.834 96.5397" stroke="#9A7858" stroke-width="5" stroke-linecap="round"/>
<path d="M94.5293 179.153C90.2858 179.357 87.5227 183.737 89.9571 187.436C91.2929 189.466 92.1971 190.842 94.6697 191.151C96.0745 191.327 96.6525 189.362 97.3047 188.356" stroke="#9A7858" stroke-width="5" stroke-linecap="round"/>
<path d="M122.888 144.282C118.644 144.487 115.881 148.867 118.315 152.566C119.651 154.595 120.556 155.971 123.028 156.281C124.433 156.456 125.011 154.492 125.663 153.485" stroke="#9A7858" stroke-width="5" stroke-linecap="round"/>
<path d="M125.292 183.399C129.508 188.346 136.84 189.901 139.916 182.936C142.267 177.614 144.067 173.958 141.105 168.514C138.707 164.105 133.839 164.866 131.446 169.459C130.238 171.777 132.193 175.434 132.596 177.769" stroke="#9A7858" stroke-width="5" stroke-linecap="round"/>
<path d="M153.649 148.529C157.866 153.476 165.197 155.031 168.274 148.066C170.624 142.744 172.424 139.088 169.463 133.644C167.064 129.235 162.197 129.996 159.803 134.589C158.595 136.907 160.55 140.564 160.953 142.899" stroke="#9A7858" stroke-width="5" stroke-linecap="round"/>
<path d="M139.603 158.53C140.181 155.985 141.916 153.903 142.452 151.217C143.208 147.43 142.614 143.782 140.213 140.902C138.078 138.34 131.79 138.159 130.738 134.842" stroke="#9A7858" stroke-width="5" stroke-linecap="round"/>
<path d="M167.961 123.659C168.539 121.115 170.273 119.032 170.809 116.347C171.565 112.56 170.971 108.912 168.571 106.032C166.436 103.47 160.147 103.289 159.096 99.9709" stroke="#9A7858" stroke-width="5" stroke-linecap="round"/>
<path d="M123.89 142.995C126.992 143.039 130.378 142.161 133.431 143.183C135.721 143.95 139.345 148.613 140.275 150.847C143.04 157.49 143.509 164.624 142.559 171.869C141.524 179.749 131.032 180.7 125.391 181.669C117.808 182.973 110.813 179.669 104.387 175.939C99.8228 173.289 95.3008 168.326 96.1037 162.207C97.0973 154.636 99.9607 149.553 104.5 143.785C107.355 140.156 109.307 139.483 112.843 141.612" stroke="#9A7858" stroke-width="5" stroke-linecap="round"/>
<path d="M152.248 108.124C155.351 108.169 158.736 107.29 161.789 108.313C164.079 109.08 167.703 113.742 168.633 115.976C171.399 122.619 171.868 129.754 170.917 136.999C169.883 144.878 159.39 145.829 153.749 146.799C146.166 148.102 139.171 144.799 132.745 141.068C128.181 138.419 123.659 133.456 124.462 127.337C125.456 119.766 128.319 114.682 132.858 108.914C135.714 105.286 137.665 104.613 141.201 106.742" stroke="#9A7858" stroke-width="5" stroke-linecap="round"/>
<path d="M117.705 170.602C114.129 170.155 110.679 171.963 107.514 168.784C104.064 165.319 106.756 162.283 109.783 160.325" stroke="#9A7858" stroke-width="5" stroke-linecap="round"/>
<path d="M146.063 135.732C142.487 135.285 139.037 137.093 135.872 133.914C132.423 130.449 135.114 127.413 138.141 125.455" stroke="#9A7858" stroke-width="5" stroke-linecap="round"/>
</g>
<g filter="url(#filter6_i_892_268335)">
<path d="M54.5692 140.45C52.4692 165.729 73.1123 192.161 93.4094 197.742C107.612 201.647 120.81 198.345 135.477 199.977C147.091 201.27 157.927 195.917 167.582 189.198C178.054 181.911 186.802 173.134 188.288 160.193C189.213 152.142 193.727 148.362 192.853 140.424C191.157 125.03 177.709 108.151 169.104 96.0728C157.016 79.1041 140.13 63.5015 118.478 66.8263C106.804 68.6191 97.0663 74.2162 87.4623 81.4758C81.2688 86.1575 77.888 93.4652 74.5731 100.83C68.8091 113.637 74.3603 126.204 79.002 137.899C81.2544 143.575 85.1754 152.591 89.4045 156.623" stroke="#A6815E" stroke-width="5" stroke-linecap="round"/>
<path d="M113.443 176.259C117.959 176.374 123.752 174.077 127.729 171.961C137.321 166.859 147.914 159.761 155.625 151.641C165.391 141.357 169.136 128.343 167.766 113.869C166.534 100.85 164.475 89.1914 158.911 77.6059C153.931 67.2353 142.77 63.4804 133.119 60.907C117.59 56.7666 103.468 62.4656 88.1929 65.684C78.2496 67.7789 67.6578 73.179 62.0155 82.7924C55.8974 93.2164 55.78 102.045 54.5706 113.589C54.1279 117.815 53.3962 125.808 56.4751 128.717" stroke="#A6815E" stroke-width="5" stroke-linecap="round"/>
<path d="M106.697 142.636C107.11 147.099 119.373 145.382 121.925 145.076C128.395 144.303 137.641 141.743 141.059 134.571C150.314 115.146 136.173 95.16 118.249 93.9684C110.94 93.4826 103.375 104.161 99.5741 110C94.5476 117.724 93.2852 127.799 99.6938 134.507C104.371 139.403 111.048 142.223 117.696 141.634C120.786 141.361 127.719 141.014 129.578 138.009" stroke="#A6815E" stroke-width="5" stroke-linecap="round"/>
<path d="M154.152 108.897C152.309 102.16 97.4798 105.659 130.223 134.715C136.484 140.271 167.051 167.136 169.942 145.102C170.374 141.81 170.728 138.801 170.443 135.484C170.194 132.571 168.094 130.418 167.34 127.662C166.764 125.558 163.293 119.208 161.755 117.628C155.747 111.453 145.101 118.242 144.043 126.302" stroke="#A6815E" stroke-width="5" stroke-linecap="round"/>
<path d="M108.621 153.293C103.208 150.694 99.9906 160.266 97.1981 164.375C92.1579 171.791 94.8112 181.173 99.9022 187.003C113.013 202.016 136.769 193.351 139.643 171.448C140.592 164.213 134.357 154.013 128.518 151.167C122.871 148.414 121.608 151.008 118.636 156.976C115.89 162.492 112.341 175.623 120.822 176.684" stroke="#A6815E" stroke-width="5" stroke-linecap="round"/>
<path d="M98.9921 116.025C97.121 127.475 95.9588 153.1 81.0433 151.233C68.5017 149.664 53.0483 134.93 53.4851 119.962C53.6551 114.137 58.4233 107.079 63.2727 104.659C67.1873 102.706 76.9958 101.491 80.3399 104.774C84.7228 109.077 90.3537 129.926 79.7164 128.595" stroke="#A6815E" stroke-width="5" stroke-linecap="round"/>
<path d="M112.527 90.9604C109.837 96.7918 96.5505 93.1654 93.1028 90.6558C88.0775 86.9978 86.2355 80.5318 85.6192 74.3636C83.9643 57.7997 114.617 56.0939 124.179 58.6357C130.069 60.2015 131.948 62.6124 132.549 69.0148C132.944 73.2203 131.902 77.9266 127.072 78.7241C122.028 79.557 116.945 80.3707 112.185 78.3967C110.614 77.7451 102.183 73.5536 106.047 72.0769" stroke="#A6815E" stroke-width="5" stroke-linecap="round"/>
<path d="M85.4718 170.854C76.6929 171.277 70.9765 180.338 76.0128 187.99C78.7762 192.189 80.647 195.036 85.7623 195.676C88.6686 196.04 89.8644 191.975 91.2137 189.893" stroke="#A6815E" stroke-width="5" stroke-linecap="round"/>
<path d="M149.113 179.639C157.836 189.874 173.004 193.09 179.368 178.681C184.23 167.671 187.955 160.108 181.828 148.845C176.866 139.724 166.796 141.298 161.845 150.799C159.346 155.595 163.39 163.161 164.224 167.991" stroke="#A6815E" stroke-width="5" stroke-linecap="round"/>
<path d="M178.719 128.185C179.915 122.921 183.504 118.613 184.612 113.057C186.176 105.222 184.947 97.6756 179.982 91.7172C175.565 86.417 162.555 86.0424 160.38 79.1788" stroke="#A6815E" stroke-width="5" stroke-linecap="round"/>
<path d="M146.213 96.0514C152.631 96.144 159.636 94.3269 165.951 96.4416C170.689 98.0283 178.186 107.674 180.11 112.296C185.832 126.039 186.802 140.799 184.835 155.788C182.696 172.089 160.989 174.056 149.319 176.062C133.63 178.759 119.159 171.925 105.865 164.207C96.4228 158.725 87.0676 148.458 88.7287 135.799C90.7842 120.136 96.7081 109.619 106.098 97.6865C112.006 90.1792 116.043 88.7872 123.358 93.1913" stroke="#A6815E" stroke-width="5" stroke-linecap="round"/>
<path d="M133.419 153.164C126.02 152.238 118.883 155.979 112.335 149.402C105.199 142.235 110.767 135.953 117.029 131.904" stroke="#A6815E" stroke-width="5" stroke-linecap="round"/>
</g>
<g filter="url(#filter7_dii_892_268335)">
<path fill-rule="evenodd" clip-rule="evenodd" d="M135.374 207.572C136.697 206.945 139.3 197.113 138.675 195.798C134.828 187.705 127.204 183.1 122.539 181.232C122.333 178.967 121.648 176.607 120.379 174.182C119.704 172.892 118.105 172.394 116.808 173.07C115.51 173.746 115.006 175.341 115.681 176.631C116.933 179.024 117.36 181.161 117.305 183.049C117.192 186.899 115.036 190.234 112.426 192.841C109.826 195.438 107.078 197.003 106.511 197.276C105.192 197.91 94.3431 202.384 94.9761 203.696C95.6091 205.008 107.484 202.66 108.803 202.025C109.836 201.529 113.094 199.634 116.171 196.561C118.565 194.17 121.035 190.876 122.084 186.804C125.898 188.647 131.16 192.331 133.887 198.067C134.512 199.383 134.052 208.199 135.374 207.572ZM160.114 174.618C156.19 173.987 152.619 172.341 150.6 171.058C149.369 170.275 147.731 170.636 146.942 171.865C146.152 173.094 146.51 174.725 147.742 175.508C150.267 177.114 154.51 179.064 159.255 179.827C164.012 180.593 169.588 180.205 174.347 176.677C175.522 175.806 175.412 168.282 174.541 167.114C173.67 165.947 172.367 171.576 171.192 172.447C167.979 174.83 164.028 175.248 160.114 174.618ZM137.169 185.107C138.626 184.972 136.596 181.382 136.464 179.932C136.238 177.444 136.365 173.414 137.477 169.62C138.527 166.035 140.33 163.052 143.13 161.465C145.643 161.58 150.382 161.625 153.641 160.989C155.077 160.709 160.277 154.97 160 153.541C159.723 152.111 154.073 155.531 152.637 155.812C149.839 156.358 145.221 156.298 142.971 156.174C139.629 155.344 131.857 154.037 125.784 155.333C124.353 155.639 123.438 157.042 123.741 158.466C124.044 159.891 125.449 160.798 126.88 160.492C129.758 159.878 133.314 160 136.376 160.36C134.43 162.686 133.179 165.471 132.393 168.155C131.061 172.701 130.915 177.411 131.189 180.423C131.321 181.873 135.713 185.243 137.169 185.107ZM100.43 197.475C101.801 196.964 98.0596 193.663 97.5505 192.299C97.2433 191.475 97.0223 189.9 97.582 188.242C98.1067 186.687 99.3913 184.832 102.489 183.404C103.817 182.792 104.399 181.224 103.788 179.902C103.177 178.58 101.605 178.004 100.276 178.617C95.9525 180.61 93.5863 183.539 92.5622 186.574C91.5731 189.505 91.9053 192.327 92.5853 194.149C93.0944 195.514 99.0585 197.986 100.43 197.475ZM197.066 159.532C196.974 158.078 191.73 152.916 190.271 153.012C170.601 154.311 161.957 140.596 160.082 133.742C159.698 132.337 158.242 131.512 156.831 131.899C155.42 132.286 154.588 133.738 154.972 135.143C156.249 139.81 159.985 146.837 166.937 151.941C166.401 153.322 165.419 154.786 164.186 156.191C162.644 157.947 160.929 159.361 159.878 160.089C158.676 160.922 158.377 162.567 159.209 163.762C160.042 164.957 161.692 165.251 162.894 164.418C164.27 163.465 166.316 161.768 168.168 159.658C169.384 158.273 170.62 156.594 171.49 154.733C176.545 157.28 182.86 158.789 190.606 158.277C192.065 158.181 197.159 160.986 197.066 159.532ZM107.594 178.486C111.289 177.242 112.741 173.076 112.868 171.625C113.149 168.412 113.055 163.157 111.914 157.546C110.795 152.042 108.621 145.963 104.58 141.152C103.351 138.766 101.766 134.918 100.903 130.939C99.9811 126.691 100.025 122.942 101.413 120.54C102.144 119.276 101.71 117.664 100.443 116.939C99.1762 116.215 97.5568 116.652 96.8259 117.916C94.4077 122.099 94.7399 127.524 95.7257 132.068C96.6818 136.475 98.3897 140.667 99.7748 143.393C99.8885 145.661 98.7102 148.577 96.6523 151.653C94.5414 154.808 91.8537 157.616 90.0564 159.203C88.9602 160.171 87.847 165.259 88.8152 166.348C89.7834 167.437 92.4665 164.115 93.5627 163.147C95.6351 161.318 98.6467 158.173 101.057 154.57C102.06 153.071 103.029 151.39 103.764 149.618C105.149 152.452 106.101 155.55 106.723 158.608C107.76 163.707 107.83 168.455 107.592 171.182C107.465 172.634 107.742 174.891 107.594 178.486ZM91.6828 169.542C78.3035 179.86 68.757 179.398 66.3974 178.522C65.0281 178.014 57.5498 171.367 57.0359 172.733C56.5219 174.098 63.1671 182.96 64.5363 183.468C69.2366 185.212 80.7071 184.669 94.9174 173.71C96.0755 172.817 96.2903 171.16 95.3971 170.009C94.5039 168.858 92.8409 168.648 91.6828 169.542ZM82.8458 162.91C78.8274 165.26 75.2164 165.003 74.2938 164.756C72.8822 164.379 62.9907 162.81 62.608 164.218C62.2253 165.625 71.4964 169.476 72.908 169.853C75.1676 170.457 80.2441 170.542 85.5171 167.458C86.78 166.72 87.2058 165.103 86.4681 163.847C85.7304 162.591 84.1086 162.171 82.8458 162.91ZM179.195 142.882C180.513 142.248 175.991 135.748 175.358 134.436C174.349 132.346 172.856 126.128 176.009 119.812C176.034 119.763 176.057 119.713 176.078 119.662L177.291 116.799C178.601 117.836 180.025 118.918 181.559 120.025C182.167 120.618 183.106 121.65 183.99 122.867C184.958 124.2 185.713 125.558 186.01 126.687C186.381 128.095 187.867 136.778 189.281 136.404C190.696 136.03 191.504 126.741 191.133 125.333C190.593 123.284 189.405 121.309 188.285 119.767C187.142 118.193 185.918 116.863 185.098 116.084C185.011 116.001 184.919 115.925 184.822 115.855C177.314 110.454 172.679 105.779 171.401 104.259C170.463 103.144 168.793 103 167.67 103.938C166.548 104.876 166.399 106.54 167.337 107.655C168.236 108.724 170.172 110.73 173.047 113.26L171.231 117.549C167.238 125.619 169.044 133.543 170.583 136.733C171.216 138.045 177.877 143.517 179.195 142.882ZM139.397 136.335C140.552 135.815 141.731 135.238 142.919 134.599C144.208 133.907 145.813 134.385 146.505 135.667C147.196 136.949 146.712 138.549 145.423 139.242C141.557 141.319 137.792 142.796 134.566 143.816C130.797 145.007 127.691 145.595 125.951 145.763C124.495 145.904 119.072 150.528 118.935 149.077C118.797 147.627 123.997 140.653 125.454 140.512C126.646 140.396 129.072 139.965 132.194 139.028C133.389 137.346 135.272 133.708 135.265 129.527C135.263 128.07 138.295 122.417 139.757 122.411C141.22 122.404 140.56 128.047 140.562 129.504C140.566 131.996 140.084 134.317 139.397 136.335ZM79.2242 154.099C80.6312 154.049 81.8392 155.11 81.9505 156.522C82.0648 157.974 80.9756 159.247 79.5175 159.365C78.9169 159.414 78.1997 159.297 77.5883 159.175C76.8733 159.032 75.9409 158.802 74.7615 158.461C72.3995 157.78 68.9532 156.629 64.115 154.765C63.1213 154.383 62.1747 153.932 61.2745 153.428C56.7848 150.912 53.4414 147.041 51.0892 143.305C48.7348 139.566 47.2683 135.795 46.607 133.251C46.2406 131.842 42.6345 126.026 44.0504 125.657C45.4664 125.288 51.3681 130.505 51.7344 131.915C52.2632 133.949 53.5179 137.22 55.5783 140.492C57.0908 142.895 58.9808 145.208 61.2515 147.04C61.981 144.921 62.7729 142.403 63.4289 139.89C63.9427 137.921 64.3625 135.995 64.608 134.288C64.8595 132.54 64.9012 131.195 64.7667 130.315C64.5466 128.875 65.5403 127.527 66.9862 127.304C68.4321 127.08 69.7826 128.066 70.0027 129.506C70.2537 131.148 70.1278 133.095 69.8508 135.021C69.5679 136.989 69.0985 139.12 68.5546 141.204C67.7491 144.29 66.7568 147.361 65.8938 149.787C65.9416 149.806 65.9895 149.825 66.0376 149.843C70.7824 151.671 74.0773 152.767 76.2486 153.393C77.336 153.707 78.1183 153.896 78.6453 154.002C79.0604 154.085 79.2244 154.096 79.2242 154.099ZM156.124 122.744C156.968 123.932 158.62 124.211 159.815 123.367C160.914 122.591 161.698 121.173 162.146 119.543C162.623 117.809 162.814 115.52 162.467 112.595C162.295 111.149 158.034 107.619 156.582 107.795C155.13 107.97 157.035 111.784 157.207 113.231C157.492 115.627 157.299 117.214 157.038 118.163C156.842 118.875 156.639 119.14 156.626 119.167C155.545 120.036 155.314 121.602 156.124 122.744ZM148.887 127.084C150.344 126.957 151.426 125.677 151.302 124.225C150.969 120.318 148.49 111.337 140.917 105.854C139.735 104.999 133.314 106.115 132.452 107.294C131.59 108.474 136.613 109.27 137.795 110.126C143.7 114.401 145.768 121.682 146.024 124.687C146.148 126.138 147.43 127.211 148.887 127.084ZM125.667 133.548C126.746 134.528 128.421 134.448 129.408 133.37C129.679 133.073 129.946 132.664 130.088 132.138C130.228 131.617 130.2 131.147 130.129 130.793C130.023 130.261 129.771 129.806 129.699 129.677C129.694 129.668 129.69 129.661 129.687 129.655C129.668 129.62 129.649 129.586 129.63 129.553C129.466 129.253 129.326 128.998 129.187 128.565C128.885 127.625 128.512 125.54 129.247 121.171C129.744 120.214 130.371 118.879 130.858 117.551C131.136 116.794 131.394 115.968 131.544 115.177C131.676 114.484 131.811 113.407 131.464 112.376C131 110.995 129.972 105.189 128.585 105.656C127.262 106.102 126.047 112.552 126.386 113.877C126.383 113.93 126.373 114.037 126.34 114.21C126.264 114.61 126.109 115.138 125.884 115.754C125.579 116.583 125.195 117.445 124.844 118.163L119.286 120.034C118.652 116.541 119.146 113.419 120.042 111.107C120.501 109.92 121.048 108.993 121.557 108.359C122.032 107.765 122.348 107.579 122.403 107.547C122.412 107.541 122.414 107.54 122.408 107.542C123.795 107.075 124.738 102.009 124.273 100.628C123.809 99.2483 122.113 102.077 120.726 102.544C119.386 102.995 118.267 104.017 117.42 105.076C116.526 106.192 115.726 107.607 115.101 109.22C113.848 112.455 113.228 116.677 114.134 121.305C115.589 128.743 112.6 131.444 112.093 131.723C110.811 132.429 105.968 134.89 106.673 136.165C107.378 137.439 113.365 137.044 114.646 136.338C117.083 134.995 119.706 131.352 119.814 125.42L123.569 124.156C123.407 126.88 123.691 128.783 124.142 130.186C124.365 130.88 124.619 131.414 124.811 131.779C124.855 132.434 125.142 133.072 125.667 133.548ZM125.08 132.28C125.08 132.28 125.076 132.27 125.064 132.246C125.073 132.267 125.08 132.28 125.08 132.28ZM187.345 103.086C187.478 101.634 183.895 95.9695 182.438 95.8409C176.924 95.3542 169.396 92.5215 166.278 91.1243C164.946 90.5272 163.377 91.1205 162.773 92.4496C162.17 93.7786 162.761 95.3401 164.094 95.9372C167.342 97.3928 175.53 100.529 181.955 101.097C183.412 101.225 187.212 104.537 187.345 103.086ZM72.8428 125.068C73.5272 126.354 75.1298 126.84 76.4223 126.155C79.7177 124.407 87.0239 119.046 90.5961 111.004C90.6037 110.987 90.6113 110.97 90.6189 110.953C92.9086 110.982 95.8367 110.755 98.7919 110.027C102.611 109.087 106.843 107.216 109.615 103.587C110.501 102.425 112.271 93.407 111.108 92.527C109.945 91.6471 106.289 99.2388 105.402 100.4C103.672 102.667 100.785 104.105 97.535 104.905C96.1089 105.257 94.6835 105.467 93.3729 105.578C95.6756 101.637 97.8378 99.1031 98.7439 98.2397C99.8023 97.2311 105.079 92.4601 104.07 91.4086C103.061 90.3571 96.147 93.4233 95.0886 94.4319C93.3903 96.0502 89.7715 100.495 86.5812 107.096C86.3019 107.674 86.0256 108.269 85.7538 108.881C82.8224 115.48 76.6 120.09 73.944 121.499C72.6515 122.185 72.1584 123.782 72.8428 125.068ZM142.878 96.0375C149.499 95.5925 153.737 94.6024 154.98 94.1839C156.367 93.717 161.36 97.2173 161.825 98.5975C162.289 99.9777 158.049 98.7152 156.663 99.182C154.612 99.8721 148.757 101.143 140.127 101.462C130.979 101.801 122.499 98.0384 119.284 96.0565C118.042 95.2908 117.661 93.6652 118.433 92.4256C119.206 91.186 120.838 90.8018 122.081 91.5675C124.437 93.0202 130.656 95.8093 137.521 96.1691C137.848 93.2843 138.795 89.7925 140.761 86.5349C143.458 82.0647 148.057 78.0813 155.342 76.8005L155.364 76.7967C156.963 76.5296 159.594 76.3002 162.511 76.4227C165.411 76.5444 168.788 77.0208 171.766 78.2899C173.109 78.8623 178.544 81.215 177.966 82.5548C177.387 83.8947 171.014 83.7144 169.671 83.1419C167.51 82.2211 164.842 81.8021 162.273 81.6943C159.73 81.5875 157.474 81.7928 156.237 81.9983C150.624 82.9884 147.284 85.9519 145.298 89.2435C143.928 91.515 143.196 93.9631 142.878 96.0375ZM67.8878 117.461C68.6508 116.216 68.2579 114.593 67.0102 113.836C65.0996 112.678 59.4845 107.398 56.1552 96.8509C55.7169 95.4621 54.6256 87.7211 53.2303 88.1618C51.835 88.6025 50.664 97.058 51.1023 98.4468C54.7468 109.993 61.0634 116.415 64.247 118.345C65.4947 119.102 67.1247 118.706 67.8878 117.461ZM74.1302 109.628C75.408 110.333 77.0207 109.871 77.7321 108.596C79.7773 104.93 82.0036 98.5174 81.5832 91.5958C83.2815 91.3715 85.263 91.0045 87.2647 90.4518C90.4614 89.5692 94.079 88.1149 96.5706 85.7039C97.6212 84.6873 97.2863 77.8971 96.2689 76.8533C95.2514 75.8096 93.9366 80.9077 92.886 81.9243C91.3582 83.4027 88.7796 84.5625 85.8638 85.3675C84.0461 85.8694 82.2406 86.195 80.7385 86.3866C79.5918 82.162 77.2416 77.9887 73.1258 74.4082C72.0257 73.4512 71.1192 67.0564 70.1555 68.1551C69.1917 69.2538 68.5355 77.4299 69.6356 78.3868C73.5273 81.7723 75.3763 85.7345 76.0399 89.6701C77.1301 96.1354 75.0187 102.612 73.1045 106.043C72.3931 107.318 72.8523 108.923 74.1302 109.628ZM135.263 89.0586C135.781 87.6948 132.948 80.1446 131.58 79.6319C130.523 79.2354 128.529 78.808 125.881 78.7365C126.697 77.7374 127.643 76.6978 128.705 75.6934C131.493 73.0579 134.908 70.8296 138.697 70.0459C140.13 69.7496 145.643 67.0003 145.35 65.5738C145.056 64.1472 139.068 64.5836 137.635 64.8799C132.544 65.9326 128.275 68.837 125.065 71.871C122.383 74.4068 120.319 77.1479 119.014 79.2832C114.246 79.9039 108.071 80.1409 105.368 80.1789C103.905 80.1994 102.733 81.3971 102.749 82.854C102.766 84.3108 103.965 85.4752 105.427 85.4546C108.437 85.4123 115.81 85.1315 121.063 84.3198C125.76 83.594 128.985 84.3018 129.702 84.5707C131.07 85.0834 134.744 90.4224 135.263 89.0586Z" fill="#A6815E"/>
<path d="M83.8131 148.111C81.4652 145.632 80.7798 138.308 80.4877 133.767C80.354 131.687 82.3742 130.324 84.3425 131.019C86.0196 131.612 86.8629 133.481 86.6965 135.249C86.3508 138.923 86.83 143.481 87.5429 145.264C89.434 146.722 92.982 151.327 91.3707 152.299C89.7594 153.271 85.3012 149.065 83.8131 148.111Z" fill="#A6815E"/>
</g>
<g filter="url(#filter8_f_892_268335)">
<ellipse cx="146.5" cy="90.5" rx="28.5" ry="22.5" fill="white" fill-opacity="0.2"/>
</g>
<defs>
<filter id="filter0_i_892_268335" x="49.5996" y="32.8334" width="169.105" height="167.556" filterUnits="userSpaceOnUse" color-interpolation-filters="sRGB">
<feFlood flood-opacity="0" result="BackgroundImageFix"/>
<feBlend mode="normal" in="SourceGraphic" in2="BackgroundImageFix" result="shape"/>
<feColorMatrix in="SourceAlpha" type="matrix" values="0 0 0 0 0 0 0 0 0 0 0 0 0 0 0 0 0 0 127 0" result="hardAlpha"/>
<feOffset dx="26.1055" dy="-27.5558"/>
<feGaussianBlur stdDeviation="18.48"/>
<feComposite in2="hardAlpha" operator="arithmetic" k2="-1" k3="1"/>
<feColorMatrix type="matrix" values="0 0 0 0 0 0 0 0 0 0 0 0 0 0 0 0 0 0 0.24 0"/>
<feBlend mode="normal" in2="shape" result="effect1_innerShadow_892_268335"/>
</filter>
<filter id="filter1_i_892_268335" x="41.7148" y="55.4741" width="156.837" height="145.724" filterUnits="userSpaceOnUse" color-interpolation-filters="sRGB">
<feFlood flood-opacity="0" result="BackgroundImageFix"/>
<feBlend mode="normal" in="SourceGraphic" in2="BackgroundImageFix" result="shape"/>
<feColorMatrix in="SourceAlpha" type="matrix" values="0 0 0 0 0 0 0 0 0 0 0 0 0 0 0 0 0 0 127 0" result="hardAlpha"/>
<feOffset dx="4" dy="-4"/>
<feGaussianBlur stdDeviation="4"/>
<feComposite in2="hardAlpha" operator="arithmetic" k2="-1" k3="1"/>
<feColorMatrix type="matrix" values="0 0 0 0 0 0 0 0 0 0 0 0 0 0 0 0 0 0 0.35 0"/>
<feBlend mode="normal" in2="shape" result="effect1_innerShadow_892_268335"/>
</filter>
<filter id="filter2_i_892_268335" x="58.1123" y="56.3823" width="125.942" height="128.431" filterUnits="userSpaceOnUse" color-interpolation-filters="sRGB">
<feFlood flood-opacity="0" result="BackgroundImageFix"/>
<feBlend mode="normal" in="SourceGraphic" in2="BackgroundImageFix" result="shape"/>
<feColorMatrix in="SourceAlpha" type="matrix" values="0 0 0 0 0 0 0 0 0 0 0 0 0 0 0 0 0 0 127 0" result="hardAlpha"/>
<feOffset dx="4" dy="-4"/>
<feGaussianBlur stdDeviation="4"/>
<feComposite in2="hardAlpha" operator="arithmetic" k2="-1" k3="1"/>
<feColorMatrix type="matrix" values="0 0 0 0 0 0 0 0 0 0 0 0 0 0 0 0 0 0 0.35 0"/>
<feBlend mode="normal" in2="shape" result="effect1_innerShadow_892_268335"/>
</filter>
<filter id="filter3_i_892_268335" x="72.9062" y="64.0981" width="72.4355" height="73.8594" filterUnits="userSpaceOnUse" color-interpolation-filters="sRGB">
<feFlood flood-opacity="0" result="BackgroundImageFix"/>
<feBlend mode="normal" in="SourceGraphic" in2="BackgroundImageFix" result="shape"/>
<feColorMatrix in="SourceAlpha" type="matrix" values="0 0 0 0 0 0 0 0 0 0 0 0 0 0 0 0 0 0 127 0" result="hardAlpha"/>
<feOffset/>
<feGaussianBlur stdDeviation="12"/>
<feComposite in2="hardAlpha" operator="arithmetic" k2="-1" k3="1"/>
<feColorMatrix type="matrix" values="0 0 0 0 0 0 0 0 0 0 0 0 0 0 0 0 0 0 0.5 0"/>
<feBlend mode="normal" in2="shape" result="effect1_innerShadow_892_268335"/>
</filter>
<filter id="filter4_i_892_268335" x="58.7646" y="94.1812" width="72.4355" height="73.8594" filterUnits="userSpaceOnUse" color-interpolation-filters="sRGB">
<feFlood flood-opacity="0" result="BackgroundImageFix"/>
<feBlend mode="normal" in="SourceGraphic" in2="BackgroundImageFix" result="shape"/>
<feColorMatrix in="SourceAlpha" type="matrix" values="0 0 0 0 0 0 0 0 0 0 0 0 0 0 0 0 0 0 127 0" result="hardAlpha"/>
<feOffset/>
<feGaussianBlur stdDeviation="12"/>
<feComposite in2="hardAlpha" operator="arithmetic" k2="-1" k3="1"/>
<feColorMatrix type="matrix" values="0 0 0 0 0 0 0 0 0 0 0 0 0 0 0 0 0 0 0.5 0"/>
<feBlend mode="normal" in2="shape" result="effect1_innerShadow_892_268335"/>
</filter>
<filter id="filter5_i_892_268335" x="76.5586" y="87.0889" width="100.793" height="108.729" filterUnits="userSpaceOnUse" color-interpolation-filters="sRGB">
<feFlood flood-opacity="0" result="BackgroundImageFix"/>
<feBlend mode="normal" in="SourceGraphic" in2="BackgroundImageFix" result="shape"/>
<feColorMatrix in="SourceAlpha" type="matrix" values="0 0 0 0 0 0 0 0 0 0 0 0 0 0 0 0 0 0 127 0" result="hardAlpha"/>
<feOffset/>
<feGaussianBlur stdDeviation="12"/>
<feComposite in2="hardAlpha" operator="arithmetic" k2="-1" k3="1"/>
<feColorMatrix type="matrix" values="0 0 0 0 0 0 0 0 0 0 0 0 0 0 0 0 0 0 0.5 0"/>
<feBlend mode="normal" in2="shape" result="effect1_innerShadow_892_268335"/>
</filter>
<filter id="filter6_i_892_268335" x="50.9697" y="51.1909" width="148.5" height="151.474" filterUnits="userSpaceOnUse" color-interpolation-filters="sRGB">
<feFlood flood-opacity="0" result="BackgroundImageFix"/>
<feBlend mode="normal" in="SourceGraphic" in2="BackgroundImageFix" result="shape"/>
<feColorMatrix in="SourceAlpha" type="matrix" values="0 0 0 0 0 0 0 0 0 0 0 0 0 0 0 0 0 0 127 0" result="hardAlpha"/>
<feOffset dx="4" dy="-4"/>
<feGaussianBlur stdDeviation="4"/>
<feComposite in2="hardAlpha" operator="arithmetic" k2="-1" k3="1"/>
<feColorMatrix type="matrix" values="0 0 0 0 0 0 0 0 0 0 0 0 0 0 0 0 0 0 0.35 0"/>
<feBlend mode="normal" in2="shape" result="effect1_innerShadow_892_268335"/>
</filter>
<filter id="filter7_dii_892_268335" x="43.7227" y="62.5771" width="154.795" height="146.477" filterUnits="userSpaceOnUse" color-interpolation-filters="sRGB">
<feFlood flood-opacity="0" result="BackgroundImageFix"/>
<feColorMatrix in="SourceAlpha" type="matrix" values="0 0 0 0 0 0 0 0 0 0 0 0 0 0 0 0 0 0 127 0" result="hardAlpha"/>
<feOffset dy="1.4503"/>
<feComposite in2="hardAlpha" operator="out"/>
<feColorMatrix type="matrix" values="0 0 0 0 0 0 0 0 0 0 0 0 0 0 0 0 0 0 0.25 0"/>
<feBlend mode="normal" in2="BackgroundImageFix" result="effect1_dropShadow_892_268335"/>
<feBlend mode="normal" in="SourceGraphic" in2="effect1_dropShadow_892_268335" result="shape"/>
<feColorMatrix in="SourceAlpha" type="matrix" values="0 0 0 0 0 0 0 0 0 0 0 0 0 0 0 0 0 0 127 0" result="hardAlpha"/>
<feOffset dx="1.4503" dy="-2"/>
<feGaussianBlur stdDeviation="2.53803"/>
<feComposite in2="hardAlpha" operator="arithmetic" k2="-1" k3="1"/>
<feColorMatrix type="matrix" values="0 0 0 0 0 0 0 0 0 0 0 0 0 0 0 0 0 0 0.25 0"/>
<feBlend mode="normal" in2="shape" result="effect2_innerShadow_892_268335"/>
<feColorMatrix in="SourceAlpha" type="matrix" values="0 0 0 0 0 0 0 0 0 0 0 0 0 0 0 0 0 0 127 0" result="hardAlpha"/>
<feOffset dy="-228"/>
<feGaussianBlur stdDeviation="2"/>
<feComposite in2="hardAlpha" operator="arithmetic" k2="-1" k3="1"/>
<feColorMatrix type="matrix" values="0 0 0 0 1 0 0 0 0 1 0 0 0 0 1 0 0 0 0.05 0"/>
<feBlend mode="normal" in2="effect2_innerShadow_892_268335" result="effect3_innerShadow_892_268335"/>
</filter>
<filter id="filter8_f_892_268335" x="50" y="0" width="193" height="181" filterUnits="userSpaceOnUse" color-interpolation-filters="sRGB">
<feFlood flood-opacity="0" result="BackgroundImageFix"/>
<feBlend mode="normal" in="SourceGraphic" in2="BackgroundImageFix" result="shape"/>
<feGaussianBlur stdDeviation="34" result="effect1_foregroundBlur_892_268335"/>
</filter>
</defs>
</svg>
