<svg width="214" height="271" viewBox="0 0 214 271" fill="none" xmlns="http://www.w3.org/2000/svg">
<path d="M118 225C118 250.405 91.5848 271 59 271C26.4152 271 0 250.405 0 225C0 199.595 26.4152 179 59 179C91.5848 179 118 199.595 118 225Z" fill="black" fill-opacity="0.2"/>
<ellipse cx="59" cy="223.5" rx="56" ry="41.5" fill="black" fill-opacity="0.2"/>
<g filter="url(#filter0_i_892_286720)">
<path fill-rule="evenodd" clip-rule="evenodd" d="M115.127 130.309H3.38086V214.105C3.38086 244.959 28.3961 262.987 59.2539 262.987C90.1117 262.987 115.127 244.959 115.127 214.105V130.309Z" fill="#9A7858"/>
</g>
<g opacity="0.15" filter="url(#filter1_d_892_286720)">
<path d="M65.207 156.119V170.242" stroke="white" stroke-width="2" stroke-linecap="round" stroke-linejoin="round"/>
</g>
<g opacity="0.15" filter="url(#filter2_d_892_286720)">
<path d="M97.3047 191.333V205.456" stroke="white" stroke-width="2" stroke-linecap="round" stroke-linejoin="round"/>
</g>
<g opacity="0.15" filter="url(#filter3_d_892_286720)">
<path d="M103.725 230.187V244.31" stroke="white" stroke-width="2" stroke-linecap="round" stroke-linejoin="round"/>
</g>
<g opacity="0.15" filter="url(#filter4_d_892_286720)">
<path d="M60.5 199V213.123" stroke="white" stroke-width="2" stroke-linecap="round" stroke-linejoin="round"/>
</g>
<g opacity="0.15" filter="url(#filter5_d_892_286720)">
<path d="M24.5508 163.895V178.018" stroke="white" stroke-width="2" stroke-linecap="round" stroke-linejoin="round"/>
</g>
<g opacity="0.15" filter="url(#filter6_d_892_286720)">
<path d="M48.5166 224.825V238.948" stroke="white" stroke-width="2" stroke-linecap="round" stroke-linejoin="round"/>
</g>
<g opacity="0.15" filter="url(#filter7_d_892_286720)">
<path d="M52.3682 169.948V191.737" stroke="white" stroke-width="2" stroke-linecap="round" stroke-linejoin="round"/>
</g>
<g opacity="0.15" filter="url(#filter8_d_892_286720)">
<path d="M17.7031 211.913V233.702" stroke="white" stroke-width="2" stroke-linecap="round" stroke-linejoin="round"/>
</g>
<g opacity="0.15" filter="url(#filter9_d_892_286720)">
<path d="M87.8896 212.316V234.106" stroke="white" stroke-width="2" stroke-linecap="round" stroke-linejoin="round"/>
</g>
<g opacity="0.15" filter="url(#filter10_d_892_286720)">
<path d="M106.72 153V174.79" stroke="white" stroke-width="2" stroke-linecap="round" stroke-linejoin="round"/>
</g>
<g opacity="0.15" filter="url(#filter11_d_892_286720)">
<path d="M71.1992 185.281V191.132" stroke="white" stroke-width="2" stroke-linecap="round" stroke-linejoin="round"/>
</g>
<g opacity="0.15" filter="url(#filter12_d_892_286720)">
<path d="M14.2793 153V158.851" stroke="white" stroke-width="2" stroke-linecap="round" stroke-linejoin="round"/>
</g>
<g opacity="0.15" filter="url(#filter13_d_892_286720)">
<path d="M32.2539 202.632V208.482" stroke="white" stroke-width="2" stroke-linecap="round" stroke-linejoin="round"/>
</g>
<g opacity="0.15" filter="url(#filter14_d_892_286720)">
<path d="M28.4023 235.254V241.105" stroke="white" stroke-width="2" stroke-linecap="round" stroke-linejoin="round"/>
</g>
<path d="M115.127 130.309C115.127 158.958 90.1117 175.699 59.2539 175.699C28.3961 175.699 3.38086 158.958 3.38086 130.309C3.38086 101.66 28.3961 84.9192 59.2539 84.9192C90.1117 84.9192 115.127 101.66 115.127 130.309Z" fill="#D7B99A"/>
<path fill-rule="evenodd" clip-rule="evenodd" d="M28.036 105.8C20.1738 111.518 15.3574 119.812 15.3574 130.309C15.3574 140.806 20.1738 149.1 28.036 154.818C35.9369 160.563 46.9551 163.724 59.2542 163.724C71.5534 163.724 82.5716 160.563 90.4725 154.818C98.3347 149.1 103.151 140.806 103.151 130.309C103.151 119.812 98.3347 111.518 90.4725 105.8C82.5716 100.055 71.5534 96.8938 59.2542 96.8938C46.9551 96.8938 35.9369 100.055 28.036 105.8ZM26.2716 103.374C34.8012 97.1714 46.4814 93.8938 59.2542 93.8938C72.0271 93.8938 83.7073 97.1714 92.2369 103.374C100.805 109.605 106.151 118.768 106.151 130.309C106.151 141.85 100.805 151.013 92.2369 157.244C83.7073 163.447 72.0271 166.724 59.2542 166.724C46.4814 166.724 34.8012 163.447 26.2716 157.244C17.7035 151.013 12.3574 141.85 12.3574 130.309C12.3574 118.768 17.7035 109.605 26.2716 103.374Z" fill="#A6815E"/>
<path fill-rule="evenodd" clip-rule="evenodd" d="M40.3674 116.1C35.6642 119.434 32.8174 124.236 32.8174 130.309C32.8174 136.382 35.6642 141.184 40.3674 144.518C45.1101 147.881 51.7688 149.758 59.2539 149.758C66.739 149.758 73.3977 147.881 78.1404 144.518C82.8436 141.184 85.6904 136.382 85.6904 130.309C85.6904 124.236 82.8436 119.434 78.1404 116.1C73.3977 112.737 66.739 110.86 59.2539 110.86C51.7688 110.86 45.1101 112.737 40.3674 116.1ZM38.6322 113.652C44.0005 109.846 51.3101 107.86 59.2539 107.86C67.1977 107.86 74.5072 109.846 79.8756 113.652C85.2834 117.487 88.6904 123.159 88.6904 130.309C88.6904 137.459 85.2834 143.132 79.8756 146.966C74.5072 150.772 67.1977 152.758 59.2539 152.758C51.3101 152.758 44.0005 150.772 38.6322 146.966C33.2244 143.132 29.8174 137.459 29.8174 130.309C29.8174 123.159 33.2244 117.487 38.6322 113.652Z" fill="#A6815E"/>
<path fill-rule="evenodd" clip-rule="evenodd" d="M52.774 123.311C51.229 124.528 50.2773 126.281 50.2773 128.563C50.2773 130.846 51.229 132.598 52.774 133.815C54.3523 135.059 56.6231 135.792 59.2535 135.792C61.884 135.792 64.1548 135.059 65.7331 133.815C67.278 132.598 68.2297 130.846 68.2297 128.563C68.2297 126.281 67.278 124.528 65.7331 123.311C64.1548 122.068 61.884 121.334 59.2535 121.334C56.6231 121.334 54.3523 122.068 52.774 123.311ZM50.9175 120.955C53.1308 119.211 56.0982 118.334 59.2535 118.334C62.4089 118.334 65.3762 119.211 67.5896 120.955C69.8363 122.724 71.2297 125.336 71.2297 128.563C71.2297 131.79 69.8363 134.402 67.5896 136.172C65.3762 137.916 62.4089 138.792 59.2535 138.792C56.0982 138.792 53.1308 137.916 50.9175 136.172C48.6708 134.402 47.2773 131.79 47.2773 128.563C47.2773 125.336 48.6708 122.724 50.9175 120.955Z" fill="#A6815E"/>
<path fill-rule="evenodd" clip-rule="evenodd" d="M57.1948 128.777C57.1936 128.777 57.1981 128.771 57.212 128.759C57.203 128.772 57.1961 128.778 57.1948 128.777ZM57.5933 128.563C57.973 128.423 58.5427 128.317 59.2538 128.317C59.9649 128.317 60.5346 128.423 60.9143 128.563C60.5346 128.704 59.9649 128.809 59.2538 128.809C58.5427 128.809 57.973 128.704 57.5933 128.563ZM61.3127 128.777C61.3115 128.778 61.3045 128.772 61.2956 128.759C61.3095 128.771 61.314 128.777 61.3127 128.777ZM61.2956 128.368C61.3045 128.355 61.3115 128.349 61.3127 128.349C61.314 128.349 61.3095 128.356 61.2956 128.368ZM57.212 128.368C57.1981 128.356 57.1936 128.349 57.1948 128.349C57.1961 128.349 57.203 128.355 57.212 128.368ZM56.1435 125.921C57.039 125.498 58.1503 125.317 59.2538 125.317C60.3573 125.317 61.4685 125.498 62.3641 125.921C63.2333 126.332 64.2459 127.171 64.2459 128.563C64.2459 129.956 63.2333 130.794 62.3641 131.205C61.4685 131.629 60.3573 131.809 59.2538 131.809C58.1503 131.809 57.039 131.629 56.1435 131.205C55.2742 130.794 54.2617 129.956 54.2617 128.563C54.2617 127.171 55.2742 126.332 56.1435 125.921Z" fill="#A6815E"/>
<path d="M16.5 160.919C25.7 148.919 29.3333 135.253 30 129.919L64.5 128.919L75 122C63.8346 138.773 67.382 161.303 83.1611 173.834L84 174.5C40.5 181 23.7 169.319 16.5 160.919Z" fill="url(#paint0_linear_892_286720)"/>
<g filter="url(#filter15_i_892_286720)">
<path d="M4.32832 71.9152C3.7133 70.0681 4.72375 68.0741 6.57698 67.4777L97.4573 38.234L182.158 2.05246C184.448 1.07397 186.999 2.73368 187.032 5.22431L187.238 20.6171C187.258 22.0968 186.345 23.429 184.958 23.9446L105.674 53.4156L11.2048 81.8141C9.39201 82.3591 7.47446 81.364 6.87646 79.568L4.32832 71.9152Z" fill="#9A7858"/>
</g>
<g filter="url(#filter16_diii_892_286720)">
<mask id="mask0_892_286720" style="mask-type:alpha" maskUnits="userSpaceOnUse" x="22" y="73" width="54" height="58">
<path d="M22.5381 81.0757L46.2578 73.1779C52.094 90.7059 61.4297 106.866 73.6987 120.678L75.3345 122.519L64.8967 129.156L29.4788 130.41L30.1138 122.82C30.9517 112.806 29.7467 102.725 26.5719 93.1903L22.5381 81.0757Z" fill="#FECACA"/>
</mask>
<g mask="url(#mask0_892_286720)">
<rect x="10.999" y="84.9189" width="49" height="69" transform="rotate(-18.416 10.999 84.9189)" fill="#A6B4C8"/>
<rect x="10.999" y="84.9189" width="49" height="40" transform="rotate(-18.416 10.999 84.9189)" fill="#64748B"/>
</g>
</g>
<g filter="url(#filter17_ii_892_286720)">
<path d="M12.9134 61.6627C12.4238 60.1924 13.3078 58.6202 14.8185 58.2745L40.037 52.504C41.3547 52.2025 42.686 52.9511 43.1131 54.2336L49.1128 72.2528C49.5708 73.6283 48.827 75.1146 47.4515 75.5726L23.0203 83.7074C21.6447 84.1654 20.1584 83.4216 19.7004 82.0461L12.9134 61.6627Z" fill="#64748B"/>
</g>
<defs>
<filter id="filter0_i_892_286720" x="3.38086" y="130.309" width="119.746" height="140.678" filterUnits="userSpaceOnUse" color-interpolation-filters="sRGB">
<feFlood flood-opacity="0" result="BackgroundImageFix"/>
<feBlend mode="normal" in="SourceGraphic" in2="BackgroundImageFix" result="shape"/>
<feColorMatrix in="SourceAlpha" type="matrix" values="0 0 0 0 0 0 0 0 0 0 0 0 0 0 0 0 0 0 127 0" result="hardAlpha"/>
<feOffset dx="8" dy="8"/>
<feGaussianBlur stdDeviation="4"/>
<feComposite in2="hardAlpha" operator="arithmetic" k2="-1" k3="1"/>
<feColorMatrix type="matrix" values="0 0 0 0 0 0 0 0 0 0 0 0 0 0 0 0 0 0 0.28 0"/>
<feBlend mode="normal" in2="shape" result="effect1_innerShadow_892_286720"/>
</filter>
<filter id="filter1_d_892_286720" x="62.207" y="155.119" width="4" height="16.1228" filterUnits="userSpaceOnUse" color-interpolation-filters="sRGB">
<feFlood flood-opacity="0" result="BackgroundImageFix"/>
<feColorMatrix in="SourceAlpha" type="matrix" values="0 0 0 0 0 0 0 0 0 0 0 0 0 0 0 0 0 0 127 0" result="hardAlpha"/>
<feOffset dx="-2"/>
<feComposite in2="hardAlpha" operator="out"/>
<feColorMatrix type="matrix" values="0 0 0 0 0 0 0 0 0 0 0 0 0 0 0 0 0 0 1 0"/>
<feBlend mode="normal" in2="BackgroundImageFix" result="effect1_dropShadow_892_286720"/>
<feBlend mode="normal" in="SourceGraphic" in2="effect1_dropShadow_892_286720" result="shape"/>
</filter>
<filter id="filter2_d_892_286720" x="94.3047" y="190.333" width="4" height="16.1228" filterUnits="userSpaceOnUse" color-interpolation-filters="sRGB">
<feFlood flood-opacity="0" result="BackgroundImageFix"/>
<feColorMatrix in="SourceAlpha" type="matrix" values="0 0 0 0 0 0 0 0 0 0 0 0 0 0 0 0 0 0 127 0" result="hardAlpha"/>
<feOffset dx="-2"/>
<feComposite in2="hardAlpha" operator="out"/>
<feColorMatrix type="matrix" values="0 0 0 0 0 0 0 0 0 0 0 0 0 0 0 0 0 0 1 0"/>
<feBlend mode="normal" in2="BackgroundImageFix" result="effect1_dropShadow_892_286720"/>
<feBlend mode="normal" in="SourceGraphic" in2="effect1_dropShadow_892_286720" result="shape"/>
</filter>
<filter id="filter3_d_892_286720" x="100.725" y="229.187" width="4" height="16.1228" filterUnits="userSpaceOnUse" color-interpolation-filters="sRGB">
<feFlood flood-opacity="0" result="BackgroundImageFix"/>
<feColorMatrix in="SourceAlpha" type="matrix" values="0 0 0 0 0 0 0 0 0 0 0 0 0 0 0 0 0 0 127 0" result="hardAlpha"/>
<feOffset dx="-2"/>
<feComposite in2="hardAlpha" operator="out"/>
<feColorMatrix type="matrix" values="0 0 0 0 0 0 0 0 0 0 0 0 0 0 0 0 0 0 1 0"/>
<feBlend mode="normal" in2="BackgroundImageFix" result="effect1_dropShadow_892_286720"/>
<feBlend mode="normal" in="SourceGraphic" in2="effect1_dropShadow_892_286720" result="shape"/>
</filter>
<filter id="filter4_d_892_286720" x="57.5" y="198" width="4" height="16.1228" filterUnits="userSpaceOnUse" color-interpolation-filters="sRGB">
<feFlood flood-opacity="0" result="BackgroundImageFix"/>
<feColorMatrix in="SourceAlpha" type="matrix" values="0 0 0 0 0 0 0 0 0 0 0 0 0 0 0 0 0 0 127 0" result="hardAlpha"/>
<feOffset dx="-2"/>
<feComposite in2="hardAlpha" operator="out"/>
<feColorMatrix type="matrix" values="0 0 0 0 0 0 0 0 0 0 0 0 0 0 0 0 0 0 1 0"/>
<feBlend mode="normal" in2="BackgroundImageFix" result="effect1_dropShadow_892_286720"/>
<feBlend mode="normal" in="SourceGraphic" in2="effect1_dropShadow_892_286720" result="shape"/>
</filter>
<filter id="filter5_d_892_286720" x="21.5508" y="162.895" width="4" height="16.1228" filterUnits="userSpaceOnUse" color-interpolation-filters="sRGB">
<feFlood flood-opacity="0" result="BackgroundImageFix"/>
<feColorMatrix in="SourceAlpha" type="matrix" values="0 0 0 0 0 0 0 0 0 0 0 0 0 0 0 0 0 0 127 0" result="hardAlpha"/>
<feOffset dx="-2"/>
<feComposite in2="hardAlpha" operator="out"/>
<feColorMatrix type="matrix" values="0 0 0 0 0 0 0 0 0 0 0 0 0 0 0 0 0 0 1 0"/>
<feBlend mode="normal" in2="BackgroundImageFix" result="effect1_dropShadow_892_286720"/>
<feBlend mode="normal" in="SourceGraphic" in2="effect1_dropShadow_892_286720" result="shape"/>
</filter>
<filter id="filter6_d_892_286720" x="45.5166" y="223.825" width="4" height="16.1228" filterUnits="userSpaceOnUse" color-interpolation-filters="sRGB">
<feFlood flood-opacity="0" result="BackgroundImageFix"/>
<feColorMatrix in="SourceAlpha" type="matrix" values="0 0 0 0 0 0 0 0 0 0 0 0 0 0 0 0 0 0 127 0" result="hardAlpha"/>
<feOffset dx="-2"/>
<feComposite in2="hardAlpha" operator="out"/>
<feColorMatrix type="matrix" values="0 0 0 0 0 0 0 0 0 0 0 0 0 0 0 0 0 0 1 0"/>
<feBlend mode="normal" in2="BackgroundImageFix" result="effect1_dropShadow_892_286720"/>
<feBlend mode="normal" in="SourceGraphic" in2="effect1_dropShadow_892_286720" result="shape"/>
</filter>
<filter id="filter7_d_892_286720" x="49.3682" y="168.948" width="4" height="23.7896" filterUnits="userSpaceOnUse" color-interpolation-filters="sRGB">
<feFlood flood-opacity="0" result="BackgroundImageFix"/>
<feColorMatrix in="SourceAlpha" type="matrix" values="0 0 0 0 0 0 0 0 0 0 0 0 0 0 0 0 0 0 127 0" result="hardAlpha"/>
<feOffset dx="-2"/>
<feComposite in2="hardAlpha" operator="out"/>
<feColorMatrix type="matrix" values="0 0 0 0 0 0 0 0 0 0 0 0 0 0 0 0 0 0 1 0"/>
<feBlend mode="normal" in2="BackgroundImageFix" result="effect1_dropShadow_892_286720"/>
<feBlend mode="normal" in="SourceGraphic" in2="effect1_dropShadow_892_286720" result="shape"/>
</filter>
<filter id="filter8_d_892_286720" x="14.7031" y="210.913" width="4" height="23.7896" filterUnits="userSpaceOnUse" color-interpolation-filters="sRGB">
<feFlood flood-opacity="0" result="BackgroundImageFix"/>
<feColorMatrix in="SourceAlpha" type="matrix" values="0 0 0 0 0 0 0 0 0 0 0 0 0 0 0 0 0 0 127 0" result="hardAlpha"/>
<feOffset dx="-2"/>
<feComposite in2="hardAlpha" operator="out"/>
<feColorMatrix type="matrix" values="0 0 0 0 0 0 0 0 0 0 0 0 0 0 0 0 0 0 1 0"/>
<feBlend mode="normal" in2="BackgroundImageFix" result="effect1_dropShadow_892_286720"/>
<feBlend mode="normal" in="SourceGraphic" in2="effect1_dropShadow_892_286720" result="shape"/>
</filter>
<filter id="filter9_d_892_286720" x="84.8896" y="211.316" width="4" height="23.7896" filterUnits="userSpaceOnUse" color-interpolation-filters="sRGB">
<feFlood flood-opacity="0" result="BackgroundImageFix"/>
<feColorMatrix in="SourceAlpha" type="matrix" values="0 0 0 0 0 0 0 0 0 0 0 0 0 0 0 0 0 0 127 0" result="hardAlpha"/>
<feOffset dx="-2"/>
<feComposite in2="hardAlpha" operator="out"/>
<feColorMatrix type="matrix" values="0 0 0 0 0 0 0 0 0 0 0 0 0 0 0 0 0 0 1 0"/>
<feBlend mode="normal" in2="BackgroundImageFix" result="effect1_dropShadow_892_286720"/>
<feBlend mode="normal" in="SourceGraphic" in2="effect1_dropShadow_892_286720" result="shape"/>
</filter>
<filter id="filter10_d_892_286720" x="103.72" y="152" width="4" height="23.7896" filterUnits="userSpaceOnUse" color-interpolation-filters="sRGB">
<feFlood flood-opacity="0" result="BackgroundImageFix"/>
<feColorMatrix in="SourceAlpha" type="matrix" values="0 0 0 0 0 0 0 0 0 0 0 0 0 0 0 0 0 0 127 0" result="hardAlpha"/>
<feOffset dx="-2"/>
<feComposite in2="hardAlpha" operator="out"/>
<feColorMatrix type="matrix" values="0 0 0 0 0 0 0 0 0 0 0 0 0 0 0 0 0 0 1 0"/>
<feBlend mode="normal" in2="BackgroundImageFix" result="effect1_dropShadow_892_286720"/>
<feBlend mode="normal" in="SourceGraphic" in2="effect1_dropShadow_892_286720" result="shape"/>
</filter>
<filter id="filter11_d_892_286720" x="68.1992" y="184.281" width="4" height="7.85083" filterUnits="userSpaceOnUse" color-interpolation-filters="sRGB">
<feFlood flood-opacity="0" result="BackgroundImageFix"/>
<feColorMatrix in="SourceAlpha" type="matrix" values="0 0 0 0 0 0 0 0 0 0 0 0 0 0 0 0 0 0 127 0" result="hardAlpha"/>
<feOffset dx="-2"/>
<feComposite in2="hardAlpha" operator="out"/>
<feColorMatrix type="matrix" values="0 0 0 0 0 0 0 0 0 0 0 0 0 0 0 0 0 0 1 0"/>
<feBlend mode="normal" in2="BackgroundImageFix" result="effect1_dropShadow_892_286720"/>
<feBlend mode="normal" in="SourceGraphic" in2="effect1_dropShadow_892_286720" result="shape"/>
</filter>
<filter id="filter12_d_892_286720" x="11.2793" y="152" width="4" height="7.85083" filterUnits="userSpaceOnUse" color-interpolation-filters="sRGB">
<feFlood flood-opacity="0" result="BackgroundImageFix"/>
<feColorMatrix in="SourceAlpha" type="matrix" values="0 0 0 0 0 0 0 0 0 0 0 0 0 0 0 0 0 0 127 0" result="hardAlpha"/>
<feOffset dx="-2"/>
<feComposite in2="hardAlpha" operator="out"/>
<feColorMatrix type="matrix" values="0 0 0 0 0 0 0 0 0 0 0 0 0 0 0 0 0 0 1 0"/>
<feBlend mode="normal" in2="BackgroundImageFix" result="effect1_dropShadow_892_286720"/>
<feBlend mode="normal" in="SourceGraphic" in2="effect1_dropShadow_892_286720" result="shape"/>
</filter>
<filter id="filter13_d_892_286720" x="29.2539" y="201.632" width="4" height="7.85083" filterUnits="userSpaceOnUse" color-interpolation-filters="sRGB">
<feFlood flood-opacity="0" result="BackgroundImageFix"/>
<feColorMatrix in="SourceAlpha" type="matrix" values="0 0 0 0 0 0 0 0 0 0 0 0 0 0 0 0 0 0 127 0" result="hardAlpha"/>
<feOffset dx="-2"/>
<feComposite in2="hardAlpha" operator="out"/>
<feColorMatrix type="matrix" values="0 0 0 0 0 0 0 0 0 0 0 0 0 0 0 0 0 0 1 0"/>
<feBlend mode="normal" in2="BackgroundImageFix" result="effect1_dropShadow_892_286720"/>
<feBlend mode="normal" in="SourceGraphic" in2="effect1_dropShadow_892_286720" result="shape"/>
</filter>
<filter id="filter14_d_892_286720" x="25.4023" y="234.254" width="4" height="7.85083" filterUnits="userSpaceOnUse" color-interpolation-filters="sRGB">
<feFlood flood-opacity="0" result="BackgroundImageFix"/>
<feColorMatrix in="SourceAlpha" type="matrix" values="0 0 0 0 0 0 0 0 0 0 0 0 0 0 0 0 0 0 127 0" result="hardAlpha"/>
<feOffset dx="-2"/>
<feComposite in2="hardAlpha" operator="out"/>
<feColorMatrix type="matrix" values="0 0 0 0 0 0 0 0 0 0 0 0 0 0 0 0 0 0 1 0"/>
<feBlend mode="normal" in2="BackgroundImageFix" result="effect1_dropShadow_892_286720"/>
<feBlend mode="normal" in="SourceGraphic" in2="effect1_dropShadow_892_286720" result="shape"/>
</filter>
<filter id="filter15_i_892_286720" x="4.14844" y="-0.732422" width="184.09" height="82.6956" filterUnits="userSpaceOnUse" color-interpolation-filters="sRGB">
<feFlood flood-opacity="0" result="BackgroundImageFix"/>
<feBlend mode="normal" in="SourceGraphic" in2="BackgroundImageFix" result="shape"/>
<feColorMatrix in="SourceAlpha" type="matrix" values="0 0 0 0 0 0 0 0 0 0 0 0 0 0 0 0 0 0 127 0" result="hardAlpha"/>
<feOffset dx="1" dy="-6.63"/>
<feGaussianBlur stdDeviation="1.25"/>
<feComposite in2="hardAlpha" operator="arithmetic" k2="-1" k3="1"/>
<feColorMatrix type="matrix" values="0 0 0 0 0 0 0 0 0 0 0 0 0 0 0 0 0 0 0.25 0"/>
<feBlend mode="normal" in2="shape" result="effect1_innerShadow_892_286720"/>
</filter>
<filter id="filter16_diii_892_286720" x="22.0381" y="73.178" width="56.2959" height="60.7317" filterUnits="userSpaceOnUse" color-interpolation-filters="sRGB">
<feFlood flood-opacity="0" result="BackgroundImageFix"/>
<feColorMatrix in="SourceAlpha" type="matrix" values="0 0 0 0 0 0 0 0 0 0 0 0 0 0 0 0 0 0 127 0" result="hardAlpha"/>
<feOffset dy="1"/>
<feComposite in2="hardAlpha" operator="out"/>
<feColorMatrix type="matrix" values="0 0 0 0 0 0 0 0 0 0 0 0 0 0 0 0 0 0 0.25 0"/>
<feBlend mode="normal" in2="BackgroundImageFix" result="effect1_dropShadow_892_286720"/>
<feBlend mode="normal" in="SourceGraphic" in2="effect1_dropShadow_892_286720" result="shape"/>
<feColorMatrix in="SourceAlpha" type="matrix" values="0 0 0 0 0 0 0 0 0 0 0 0 0 0 0 0 0 0 127 0" result="hardAlpha"/>
<feOffset dy="0.875"/>
<feGaussianBlur stdDeviation="5.25"/>
<feComposite in2="hardAlpha" operator="arithmetic" k2="-1" k3="1"/>
<feColorMatrix type="matrix" values="0 0 0 0 0 0 0 0 0 0 0 0 0 0 0 0 0 0 0.25 0"/>
<feBlend mode="normal" in2="shape" result="effect2_innerShadow_892_286720"/>
<feColorMatrix in="SourceAlpha" type="matrix" values="0 0 0 0 0 0 0 0 0 0 0 0 0 0 0 0 0 0 127 0" result="hardAlpha"/>
<feOffset dx="3" dy="3.5"/>
<feGaussianBlur stdDeviation="1.75"/>
<feComposite in2="hardAlpha" operator="arithmetic" k2="-1" k3="1"/>
<feColorMatrix type="matrix" values="0 0 0 0 0 0 0 0 0 0 0 0 0 0 0 0 0 0 0.25 0"/>
<feBlend mode="normal" in2="effect2_innerShadow_892_286720" result="effect3_innerShadow_892_286720"/>
<feColorMatrix in="SourceAlpha" type="matrix" values="0 0 0 0 0 0 0 0 0 0 0 0 0 0 0 0 0 0 127 0" result="hardAlpha"/>
<feOffset dx="-0.5"/>
<feGaussianBlur stdDeviation="0.75"/>
<feComposite in2="hardAlpha" operator="arithmetic" k2="-1" k3="1"/>
<feColorMatrix type="matrix" values="0 0 0 0 1 0 0 0 0 1 0 0 0 0 1 0 0 0 0.5 0"/>
<feBlend mode="normal" in2="effect3_innerShadow_892_286720" result="effect4_innerShadow_892_286720"/>
</filter>
<filter id="filter17_ii_892_286720" x="12.7783" y="48.0625" width="36.4697" height="37.28" filterUnits="userSpaceOnUse" color-interpolation-filters="sRGB">
<feFlood flood-opacity="0" result="BackgroundImageFix"/>
<feBlend mode="normal" in="SourceGraphic" in2="BackgroundImageFix" result="shape"/>
<feColorMatrix in="SourceAlpha" type="matrix" values="0 0 0 0 0 0 0 0 0 0 0 0 0 0 0 0 0 0 127 0" result="hardAlpha"/>
<feOffset dy="-8.75"/>
<feGaussianBlur stdDeviation="2.1875"/>
<feComposite in2="hardAlpha" operator="arithmetic" k2="-1" k3="1"/>
<feColorMatrix type="matrix" values="0 0 0 0 0 0 0 0 0 0 0 0 0 0 0 0 0 0 0.25 0"/>
<feBlend mode="normal" in2="shape" result="effect1_innerShadow_892_286720"/>
<feColorMatrix in="SourceAlpha" type="matrix" values="0 0 0 0 0 0 0 0 0 0 0 0 0 0 0 0 0 0 127 0" result="hardAlpha"/>
<feOffset dy="1.5"/>
<feGaussianBlur stdDeviation="0.75"/>
<feComposite in2="hardAlpha" operator="arithmetic" k2="-1" k3="1"/>
<feColorMatrix type="matrix" values="0 0 0 0 1 0 0 0 0 1 0 0 0 0 1 0 0 0 0.5 0"/>
<feBlend mode="normal" in2="effect1_innerShadow_892_286720" result="effect2_innerShadow_892_286720"/>
</filter>
<linearGradient id="paint0_linear_892_286720" x1="50.25" y1="122" x2="50.25" y2="176.391" gradientUnits="userSpaceOnUse">
<stop stop-opacity="0.24"/>
<stop offset="1" stop-opacity="0"/>
</linearGradient>
</defs>
</svg>
