<svg fill="none" height="67" viewBox="0 0 46 67" width="46" xmlns="http://www.w3.org/2000/svg" xmlns:xlink="http://www.w3.org/1999/xlink"><filter id="a" color-interpolation-filters="sRGB" filterUnits="userSpaceOnUse" height="56" width="32" x="2" y="0"><feFlood flood-opacity="0" result="BackgroundImageFix"/><feBlend in="SourceGraphic" in2="BackgroundImageFix" mode="normal" result="shape"/><feColorMatrix in="SourceAlpha" result="hardAlpha" type="matrix" values="0 0 0 0 0 0 0 0 0 0 0 0 0 0 0 0 0 0 127 0"/><feOffset dx="8"/><feGaussianBlur stdDeviation="4"/><feComposite in2="hardAlpha" k2="-1" k3="1" operator="arithmetic"/><feColorMatrix type="matrix" values="0 0 0 0 0 0 0 0 0 0 0 0 0 0 0 0 0 0 0.25 0"/><feBlend in2="shape" mode="normal" result="effect1_innerShadow_9_45490"/></filter><filter id="b" color-interpolation-filters="sRGB" filterUnits="userSpaceOnUse" height="40" width="32" x="20" y="25"><feFlood flood-opacity="0" result="BackgroundImageFix"/><feBlend in="SourceGraphic" in2="BackgroundImageFix" mode="normal" result="shape"/><feColorMatrix in="SourceAlpha" result="hardAlpha" type="matrix" values="0 0 0 0 0 0 0 0 0 0 0 0 0 0 0 0 0 0 127 0"/><feOffset dx="8"/><feGaussianBlur stdDeviation="4"/><feComposite in2="hardAlpha" k2="-1" k3="1" operator="arithmetic"/><feColorMatrix type="matrix" values="0 0 0 0 0 0 0 0 0 0 0 0 0 0 0 0 0 0 0.25 0"/><feBlend in2="shape" mode="normal" result="effect1_innerShadow_9_45490"/></filter><ellipse cx="14" cy="49.5" fill="#000" fill-opacity=".12" rx="14" ry="8.5"/><g filter="url(#a)"><path clip-rule="evenodd" d="m14 0c-6.62742 0-12 5.37258-12 12v36c0 4.4183 5.37258 8 12 8 6.6274 0 12-3.5817 12-8v-36c0-6.62742-5.3726-12-12-12z" fill="#61a560" fill-rule="evenodd"/></g><ellipse cx="32" cy="58.5" fill="#000" fill-opacity=".12" rx="14" ry="8.5"/><g filter="url(#b)"><path clip-rule="evenodd" d="m32 25c-6.6274 0-12 5.3726-12 12v20c0 4.4183 5.3726 8 12 8s12-3.5817 12-8v-20c0-6.6274-5.3726-12-12-12z" fill="#61a560" fill-rule="evenodd"/></g></svg>