<svg fill="none" height="432" viewBox="0 0 462 432" width="462" xmlns="http://www.w3.org/2000/svg" xmlns:xlink="http://www.w3.org/1999/xlink"><filter id="a" color-interpolation-filters="sRGB" filterUnits="userSpaceOnUse" height="142.849" width="230.254" x="-6.75977" y="106.127"><feFlood flood-opacity="0" result="BackgroundImageFix"/><feBlend in="SourceGraphic" in2="BackgroundImageFix" mode="normal" result="shape"/><feColorMatrix in="SourceAlpha" result="hardAlpha" type="matrix" values="0 0 0 0 0 0 0 0 0 0 0 0 0 0 0 0 0 0 127 0"/><feOffset dx="-66" dy="-67.5"/><feGaussianBlur stdDeviation="22.875"/><feComposite in2="hardAlpha" k2="-1" k3="1" operator="arithmetic"/><feColorMatrix type="matrix" values="0 0 0 0 0 0 0 0 0 0 0 0 0 0 0 0 0 0 0.25 0"/><feBlend in2="shape" mode="normal" result="effect1_innerShadow_1241_307110"/></filter><filter id="b" color-interpolation-filters="sRGB" filterUnits="userSpaceOnUse" height="200.842" width="183.936" x="83.6729" y="138.591"><feFlood flood-opacity="0" result="BackgroundImageFix"/><feBlend in="SourceGraphic" in2="BackgroundImageFix" mode="normal" result="shape"/><feColorMatrix in="SourceAlpha" result="hardAlpha" type="matrix" values="0 0 0 0 0 0 0 0 0 0 0 0 0 0 0 0 0 0 127 0"/><feOffset dx="-66" dy="-67.5"/><feGaussianBlur stdDeviation="22.875"/><feComposite in2="hardAlpha" k2="-1" k3="1" operator="arithmetic"/><feColorMatrix type="matrix" values="0 0 0 0 0 0 0 0 0 0 0 0 0 0 0 0 0 0 0.25 0"/><feBlend in2="shape" mode="normal" result="effect1_innerShadow_1241_307110"/></filter><filter id="c" color-interpolation-filters="sRGB" filterUnits="userSpaceOnUse" height="144.592" width="226.384" x="253.153" y="98.991"><feFlood flood-opacity="0" result="BackgroundImageFix"/><feBlend in="SourceGraphic" in2="BackgroundImageFix" mode="normal" result="shape"/><feColorMatrix in="SourceAlpha" result="hardAlpha" type="matrix" values="0 0 0 0 0 0 0 0 0 0 0 0 0 0 0 0 0 0 127 0"/><feOffset dx="58.5" dy="-67.5"/><feGaussianBlur stdDeviation="22.875"/><feComposite in2="hardAlpha" k2="-1" k3="1" operator="arithmetic"/><feColorMatrix type="matrix" values="0 0 0 0 0 0 0 0 0 0 0 0 0 0 0 0 0 0 0.25 0"/><feBlend in2="shape" mode="normal" result="effect1_innerShadow_1241_307110"/></filter><filter id="d" color-interpolation-filters="sRGB" filterUnits="userSpaceOnUse" height="170.243" width="207.076" x="182.956" y="159.995"><feFlood flood-opacity="0" result="BackgroundImageFix"/><feBlend in="SourceGraphic" in2="BackgroundImageFix" mode="normal" result="shape"/><feColorMatrix in="SourceAlpha" result="hardAlpha" type="matrix" values="0 0 0 0 0 0 0 0 0 0 0 0 0 0 0 0 0 0 127 0"/><feOffset dx="58.5" dy="-67.5"/><feGaussianBlur stdDeviation="22.875"/><feComposite in2="hardAlpha" k2="-1" k3="1" operator="arithmetic"/><feColorMatrix type="matrix" values="0 0 0 0 0 0 0 0 0 0 0 0 0 0 0 0 0 0 0.25 0"/><feBlend in2="shape" mode="normal" result="effect1_innerShadow_1241_307110"/></filter><filter id="e" color-interpolation-filters="sRGB" filterUnits="userSpaceOnUse" height="192.758" width="223.508" x="12.0039" y="43.5122"><feFlood flood-opacity="0" result="BackgroundImageFix"/><feBlend in="SourceGraphic" in2="BackgroundImageFix" mode="normal" result="shape"/><feColorMatrix in="SourceAlpha" result="hardAlpha" type="matrix" values="0 0 0 0 0 0 0 0 0 0 0 0 0 0 0 0 0 0 127 0"/><feOffset dx="-66" dy="-67.5"/><feGaussianBlur stdDeviation="22.875"/><feComposite in2="hardAlpha" k2="-1" k3="1" operator="arithmetic"/><feColorMatrix type="matrix" values="0 0 0 0 0 0 0 0 0 0 0 0 0 0 0 0 0 0 0.25 0"/><feBlend in2="shape" mode="normal" result="effect1_innerShadow_1241_307110"/></filter><filter id="f" color-interpolation-filters="sRGB" filterUnits="userSpaceOnUse" height="70.5402" width="84.2357" x="118.022" y="128.391"><feFlood flood-opacity="0" result="BackgroundImageFix"/><feColorMatrix in="SourceAlpha" result="hardAlpha" type="matrix" values="0 0 0 0 0 0 0 0 0 0 0 0 0 0 0 0 0 0 127 0"/><feOffset dy="4.25653"/><feGaussianBlur stdDeviation="2.12826"/><feComposite in2="hardAlpha" operator="out"/><feColorMatrix type="matrix" values="0 0 0 0 1 0 0 0 0 1 0 0 0 0 1 0 0 0 0.25 0"/><feBlend in2="BackgroundImageFix" mode="normal" result="effect1_dropShadow_1241_307110"/><feBlend in="SourceGraphic" in2="effect1_dropShadow_1241_307110" mode="normal" result="shape"/><feGaussianBlur result="effect2_foregroundBlur_1241_307110" stdDeviation=".375"/></filter><filter id="g" color-interpolation-filters="sRGB" filterUnits="userSpaceOnUse" height="198.741" width="216.743" x="239.262" y="39.7627"><feFlood flood-opacity="0" result="BackgroundImageFix"/><feBlend in="SourceGraphic" in2="BackgroundImageFix" mode="normal" result="shape"/><feColorMatrix in="SourceAlpha" result="hardAlpha" type="matrix" values="0 0 0 0 0 0 0 0 0 0 0 0 0 0 0 0 0 0 127 0"/><feOffset dx="58.5" dy="-67.5"/><feGaussianBlur stdDeviation="22.875"/><feComposite in2="hardAlpha" k2="-1" k3="1" operator="arithmetic"/><feColorMatrix type="matrix" values="0 0 0 0 0 0 0 0 0 0 0 0 0 0 0 0 0 0 0.25 0"/><feBlend in2="shape" mode="normal" result="effect1_innerShadow_1241_307110"/></filter><filter id="h" color-interpolation-filters="sRGB" filterUnits="userSpaceOnUse" height="169.736" width="240.56" x="26.1104" y="155.172"><feFlood flood-opacity="0" result="BackgroundImageFix"/><feBlend in="SourceGraphic" in2="BackgroundImageFix" mode="normal" result="shape"/><feColorMatrix in="SourceAlpha" result="hardAlpha" type="matrix" values="0 0 0 0 0 0 0 0 0 0 0 0 0 0 0 0 0 0 127 0"/><feOffset dx="-60" dy="-9"/><feGaussianBlur stdDeviation="22.5"/><feComposite in2="hardAlpha" k2="-1" k3="1" operator="arithmetic"/><feColorMatrix type="matrix" values="0 0 0 0 0 0 0 0 0 0 0 0 0 0 0 0 0 0 0.25 0"/><feBlend in2="shape" mode="normal" result="effect1_innerShadow_1241_307110"/></filter><filter id="i" color-interpolation-filters="sRGB" filterUnits="userSpaceOnUse" height="172.586" width="242.345" x="212.646" y="162.486"><feFlood flood-opacity="0" result="BackgroundImageFix"/><feBlend in="SourceGraphic" in2="BackgroundImageFix" mode="normal" result="shape"/><feColorMatrix in="SourceAlpha" result="hardAlpha" type="matrix" values="0 0 0 0 0 0 0 0 0 0 0 0 0 0 0 0 0 0 127 0"/><feOffset dx="48" dy="-9"/><feGaussianBlur stdDeviation="22.5"/><feComposite in2="hardAlpha" k2="-1" k3="1" operator="arithmetic"/><feColorMatrix type="matrix" values="0 0 0 0 0 0 0 0 0 0 0 0 0 0 0 0 0 0 0.25 0"/><feBlend in2="shape" mode="normal" result="effect1_innerShadow_1241_307110"/></filter><filter id="j" color-interpolation-filters="sRGB" filterUnits="userSpaceOnUse" height="55.4318" width="85.5199" x="273.66" y="189.656"><feFlood flood-opacity="0" result="BackgroundImageFix"/><feColorMatrix in="SourceAlpha" result="hardAlpha" type="matrix" values="0 0 0 0 0 0 0 0 0 0 0 0 0 0 0 0 0 0 127 0"/><feOffset dy="4.25653"/><feGaussianBlur stdDeviation="2.12826"/><feComposite in2="hardAlpha" operator="out"/><feColorMatrix type="matrix" values="0 0 0 0 1 0 0 0 0 1 0 0 0 0 1 0 0 0 0.25 0"/><feBlend in2="BackgroundImageFix" mode="normal" result="effect1_dropShadow_1241_307110"/><feBlend in="SourceGraphic" in2="effect1_dropShadow_1241_307110" mode="normal" result="shape"/><feGaussianBlur result="effect2_foregroundBlur_1241_307110" stdDeviation=".375"/></filter><filter id="k" color-interpolation-filters="sRGB" filterUnits="userSpaceOnUse" height="199.5" width="152.251" x="172.511" y="-17.2417"><feFlood flood-opacity="0" result="BackgroundImageFix"/><feBlend in="SourceGraphic" in2="BackgroundImageFix" mode="normal" result="shape"/><feColorMatrix in="SourceAlpha" result="hardAlpha" type="matrix" values="0 0 0 0 0 0 0 0 0 0 0 0 0 0 0 0 0 0 127 0"/><feOffset dx="30" dy="-45"/><feGaussianBlur stdDeviation="19.5"/><feComposite in2="hardAlpha" k2="-1" k3="1" operator="arithmetic"/><feColorMatrix type="matrix" values="0 0 0 0 0 0 0 0 0 0 0 0 0 0 0 0 0 0 0.25 0"/><feBlend in2="shape" mode="normal" result="effect1_innerShadow_1241_307110"/></filter><filter id="l" color-interpolation-filters="sRGB" filterUnits="userSpaceOnUse" height="148.013" width="13.0131" x="227.493" y="39.7502"><feFlood flood-opacity="0" result="BackgroundImageFix"/><feColorMatrix in="SourceAlpha" result="hardAlpha" type="matrix" values="0 0 0 0 0 0 0 0 0 0 0 0 0 0 0 0 0 0 127 0"/><feOffset dy="4.25653"/><feGaussianBlur stdDeviation="2.12826"/><feComposite in2="hardAlpha" operator="out"/><feColorMatrix type="matrix" values="0 0 0 0 1 0 0 0 0 1 0 0 0 0 1 0 0 0 0.25 0"/><feBlend in2="BackgroundImageFix" mode="normal" result="effect1_dropShadow_1241_307110"/><feBlend in="SourceGraphic" in2="effect1_dropShadow_1241_307110" mode="normal" result="shape"/><feGaussianBlur result="effect2_foregroundBlur_1241_307110" stdDeviation=".375"/></filter><filter id="m" color-interpolation-filters="sRGB" filterUnits="userSpaceOnUse" height="240.754" width="168.75" x="158.265" y="159.757"><feFlood flood-opacity="0" result="BackgroundImageFix"/><feBlend in="SourceGraphic" in2="BackgroundImageFix" mode="normal" result="shape"/><feColorMatrix in="SourceAlpha" result="hardAlpha" type="matrix" values="0 0 0 0 0 0 0 0 0 0 0 0 0 0 0 0 0 0 127 0"/><feOffset dx="18" dy="-9"/><feGaussianBlur stdDeviation="13.5"/><feComposite in2="hardAlpha" k2="-1" k3="1" operator="arithmetic"/><feColorMatrix type="matrix" values="0 0 0 0 0 0 0 0 0 0 0 0 0 0 0 0 0 0 0.25 0"/><feBlend in2="shape" mode="normal" result="effect1_innerShadow_1241_307110"/></filter><filter id="n" color-interpolation-filters="sRGB" filterUnits="userSpaceOnUse" height="194.514" width="14.5131" x="226.743" y="173.999"><feFlood flood-opacity="0" result="BackgroundImageFix"/><feColorMatrix in="SourceAlpha" result="hardAlpha" type="matrix" values="0 0 0 0 0 0 0 0 0 0 0 0 0 0 0 0 0 0 127 0"/><feOffset dy="4.25653"/><feGaussianBlur stdDeviation="2.12826"/><feComposite in2="hardAlpha" operator="out"/><feColorMatrix type="matrix" values="0 0 0 0 1 0 0 0 0 1 0 0 0 0 1 0 0 0 0.25 0"/><feBlend in2="BackgroundImageFix" mode="normal" result="effect1_dropShadow_1241_307110"/><feBlend in="SourceGraphic" in2="effect1_dropShadow_1241_307110" mode="normal" result="shape"/><feGaussianBlur result="effect2_foregroundBlur_1241_307110" stdDeviation=".375"/></filter><circle cx="235.125" cy="248.625" fill="#000" fill-opacity=".12" opacity=".5" r="152.625"/><circle cx="235.5" cy="248.25" fill="#000" fill-opacity=".2" opacity=".5" r="123.75"/><g filter="url(#a)"><path d="m125.902 162.738c-9.7-3.026-24.947-2.671-26.9071-.358-1.4128 1.667-3.5774 7.509-4.1295 13.4-10.6409.337-25.4129 5.056-26.6602 10.355-.7975 3.388.8326 8.825 3.887 13.562-2.2694 1.431-5.0711 3.264-8.5474 5.576-19.0308 12.655-25.8017 27.431-24.3693 27.974 1.4325.544 16.0008 5.729 35.1448-4.075.6226-.318 1.2262-.641 1.8112-.966-1.7651 8.723-1.4296 16.499.7391 16.698 3.2672.3 17.3789-6.98 26.7524-15.7-2.356 9.717-1.829 19.353.832 19.742 3.968.58 22.022-7.151 31.669-16.417 3.089.076 6.339-.284 8.959-1.386 3.013-1.268 6.616-4.147 9.75-7.122-2.218 5.659-2.352 11.979-.65 12.262 2.558.425 15.608-4.392 20.696-9.951 1.034-1.13 1.961-2.541 2.776-4.084.211 5.97 4.869 11.826 9.947 9.529 5.018-2.271 10.282-8.445 12.929-14.041 1.83 3.262 4.991 5.283 8.335 3.771 6.468-2.926 13.344-12.339 14.499-18.638.518-2.825-.586-6.077-2.12-8.829 1.901-2.807.315-8.765-2.903-12.44-1.937-2.212-6.11-4.509-9.605-6.07.472-2.497.731-4.841.649-6.702-.345-7.827-13.746-15.399-19.823-10.115-2.37 2.06-4.208 5.084-5.421 8.388-4.401-5.093-15.248-8.249-21.34-8.328-6.84-7.689-31.999-8.374-34.821-4.868-1.109 1.378-1.901 4.769-2.079 8.833z" fill="#15803d"/></g><g filter="url(#b)"><path d="m163.082 231.651c-9.653 3.171-21.856 12.317-22.108 15.339-.182 2.177 1.451 8.191 4.424 13.307-8.465 6.456-17.747 18.878-15.683 23.916 1.319 3.221 5.804 6.7 11.042 8.782-1.016 2.483-2.231 5.603-3.717 9.504-8.137 21.357-5.064 37.317-3.583 36.928 1.482-.39 16.36 1.364 26.245-17.737.322-.622.626-1.235.913-1.839 3.631 8.125 8.413 8.265 10.294 7.167 2.834-1.654 10.09-15.777 12.653-28.321 3.727 9.279 9.754 16.816 12.146 15.587 3.566-1.833 13.769-18.613 16.238-31.761 2.559-1.732 4.994-3.913 6.486-6.332 1.716-2.782 2.977-7.219 3.798-11.462 1.483 5.896 5.045 11.118 6.595 10.36 2.329-1.14 10.152-12.642 11.063-20.124.185-1.519.12-3.207-.113-4.936 3.64 4.737 10.833 6.798 13.632 1.978 2.765-4.763 3.462-12.847 2.366-18.94 3.384 1.592 7.131 1.401 8.974-1.772 3.564-6.139 3.693-17.796.973-23.594-1.219-2.601-4.008-4.607-6.854-5.956-.084-3.389-4.836-7.318-9.59-8.44-2.862-.675-7.592-.121-11.344.639-1.066-2.307-2.217-4.365-3.365-5.833-4.828-6.171-20.134-4.55-22.011 3.282-.731 3.054-.471 6.582.462 9.977-6.541-1.589-17.203 2.143-22.207 5.618-10.034-2.286-30.909 11.772-31.169 16.265-.102 1.766 1.223 4.986 3.44 8.398z" fill="#15803d"/></g><g filter="url(#c)"><path d="m351.162 159.187c10.467-3.23 29.828-1.075 31.977 1.877 1.373 1.886 3.243 8.038 3.562 14.242 9.622.488 20.074 3.429 21.398 7.719.701 2.275.338 5.626-.831 9.144 1.587 1.199 3.388 2.58 5.436 4.164 17.891 13.845 22.395 28.489 20.777 28.862-1.355.313-13.077 2.799-27.737-2.961 3.346 9.881 3.925 19.986 1.469 20.472-3.258.644-17.91-5.235-27.91-13.065 1.38 7.21 1.005 13.307-1.062 13.832-3.507.89-18.644-3.699-29.204-10.603-4.162 1.387-10.51 2.342-15.145.903-3.11-.966-6.922-3.498-10.27-6.178 2.611 5.487 3.174 11.858 1.485 12.322-2.538.697-15.962-2.807-21.447-7.892-1.114-1.034-2.14-2.363-3.062-3.837.193 6.054-4.084 12.458-9.337 10.668-5.19-1.77-10.892-7.458-13.929-12.836-1.615 3.487-4.651 5.86-8.109 4.681-6.69-2.281-14.231-11.073-15.818-17.317-.711-2.8.176-6.202 1.528-9.143-2.098-2.637-.911-8.823 2.069-12.872 1.794-2.438 5.826-5.194 9.228-7.137-.644-2.474-1.063-4.815-1.107-6.705-.185-7.944 12.75-16.995 19.208-12.291 2.519 1.834 4.568 4.697 6.01 7.909 1.929-2.656 5.34-5.024 9.046-6.857.137-.588.287-1.157.45-1.702 4.184-13.987 41.004-23.123 45.933-18.738 1.991 1.771 4.106 6.986 5.392 13.339z" fill="#15803d"/></g><g filter="url(#d)"><path d="m294.497 231.161c10.879 1.286 27.711 11.095 28.481 14.664.492 2.281-.29 8.662-2.51 14.464 8.601 4.342 16.968 11.263 16.441 15.721-.28 2.364-1.969 5.28-4.463 8.024.967 1.738 2.054 3.73 3.285 6.008 10.755 19.903 8.943 35.114 7.313 34.8-1.366-.263-13.092-2.736-24.166-13.938-.941 10.389-4.504 19.862-6.946 19.311-3.24-.73-14.258-12.037-20.232-23.245-1.657 7.15-4.469 12.573-6.571 12.215-3.568-.606-15.551-10.931-22.412-21.519-4.368-.417-10.559-2.114-14.215-5.307-2.453-2.142-4.913-6.001-6.889-9.806.165 6.073-1.9 12.127-3.632 11.867-2.603-.391-13.46-9.03-16.416-15.9-.6-1.396-1-3.027-1.247-4.748-2.274 5.614-8.779 9.737-12.857 5.973-4.03-3.72-6.941-11.23-7.54-17.376-2.889 2.534-6.625 3.474-9.31.996-5.194-4.794-8.53-15.886-7.452-22.237.483-2.848 2.672-5.599 5.099-7.74-.851-3.261 2.739-8.436 7.104-10.931 2.628-1.502 7.431-2.39 11.329-2.788.412-2.523.977-4.833 1.702-6.579 3.048-7.338 18.541-10.375 22.542-3.459 1.56 2.697 2.275 6.144 2.293 9.664 2.84-1.647 6.918-2.431 11.048-2.606.364-.483.731-.942 1.101-1.375 9.49-11.093 46.859-4.536 49.591 1.468 1.103 2.425.926 8.051-.471 14.379z" fill="#15803d"/></g><path clip-rule="evenodd" d="m159.345 228.334c-1.09.118-2.228.237-3.413.36-15.624 1.621-27.85-3.757-27.678-6.071.172-2.313 12.574-9.442 21.521-11.275 17.658-3.618 26.369.096 29.188 4.575-.027-.365-.025-.705.007-1.016.523-5.008 17.5-6.282 24.274-2.672 2.295 1.224 4.849 3.178 7.165 5.267.567-1.129 1.183-2.062 1.833-2.738 4.972-5.169 24.633 7.181 28.859 16.708 4.225 9.526 5.321 27.972 2.766 27.968-.381-.001-1.255-.06-2.487-.187 2.191 1.534 3.459 2.826 3.117 3.446-1.087 1.967-16.769 11.675-26.01 12.053s-22.057-7.959-22.99-10.943c-.255-.816.839-2.327 2.754-4.056-7.063-.577-16.689-8.541-17.809-12.727-.258-.968.232-2.013 1.231-3.043-4.088-.474-7.416-.776-9.325-.765-9.161.054-19.839-3.621-20.631-8.298-.322-1.901 2.982-4.317 7.628-6.586zm20.241-6.705c.146-.366.258-.756.336-1.171.032-.17.057-.343.073-.517.195.497.414 1.007.655 1.525-.341.046-.696.101-1.064.163z" fill="#000" fill-opacity=".12" fill-rule="evenodd"/><g filter="url(#e)"><path d="m169.269 110.009c-6.218-10.5782-18.919-21.6962-21.851-20.6824-2.112.7306-7.233 5.394-11.06 11.3264-8.916-7.6634-23.727-13.7209-27.785-8.9509-2.594 3.05-4.372 10.1389-4.582 17.5479-2.68-.17-6.0266-.307-10.2002-.438-22.8483-.717-36.8618 10.099-35.9989 11.765.8628 1.666 9.834 18.244 31.1419 22.119.6929.126 1.3723.234 2.038.325-6.4429 8.068-10.6225 16.702-8.9588 18.553 2.5064 2.787 18.243 5.586 30.923 3.259-7.498 8.695-12.586 19.476-10.627 21.903 2.92 3.618 22.147 8.905 35.363 6.195 2.488 2.414 5.359 4.476 8.137 5.265 3.196.906 7.798.522 12.072-.321-5.06 4.426-8.79 11.136-7.557 12.724 1.853 2.388 15.31 7.04 22.665 4.887 1.494-.437 3.062-1.259 4.614-2.307-3.247 6.592-2.783 16.417 2.696 17.772 5.413 1.338 13.265-1.345 18.64-5.378-.368 4.895 1.065 9.458 4.672 10.349 6.978 1.726 18.006-3.231 22.561-9.148 2.042-2.654 3-6.992 3.32-11.114 3.165-1.591 5.278-9.209 4.745-15.596-.321-3.846-2.425-9.468-4.396-13.787 1.817-2.334 3.372-4.665 4.371-6.733 4.2-8.696-2.447-26.964-10.455-25.854-3.123.433-6.361 2.306-9.248 4.951-.69-8.808-7.774-20.391-12.722-25.071-1.203-13.446-21.433-33.162-25.754-31.512-1.699.648-4.29 3.705-6.764 7.951z" fill="#16a34a"/></g><g filter="url(#f)"><path d="m122.279 129.141c49.452 4.548 70.265 35.972 75.722 57.611l-2.298 3.666c-10.102-40.659-50.775-58.098-73.424-61.277z" fill="#000" fill-opacity=".12" shape-rendering="crispEdges"/></g><g filter="url(#g)"><path d="m305.874 104.42c7.451-10.4367 25.297-20.5954 28.634-18.6712 2.132 1.2297 6.827 6.9363 10.205 13.7091 8.577-5.7053 19.099-9.1886 22.39-5.2219 1.745 2.1026 3.105 6.109 3.851 10.828 1.974.316 4.225.7 6.79 1.152 22.416 3.948 33.637 17.498 32.422 18.969-1.017 1.232-9.927 11.649-25.503 14.696 7.837 8.943 13.389 19.936 11.505 22.079-2.5 2.842-18.129 5.751-30.704 3.441 4.799 7.214 7.523 14.318 5.995 16.251-2.593 3.281-17.997 7.957-30.594 7.052-2.912 4.266-7.932 9.467-12.666 10.86-3.177.934-7.744.563-11.983-.276 5.004 4.476 8.677 11.279 7.446 12.898-1.85 2.434-15.229 7.217-22.521 5.059-1.481-.438-3.034-1.267-4.57-2.325 3.194 6.685 2.691 16.671-2.754 18.07-5.38 1.382-13.162-1.312-18.48-5.388.344 4.972-1.099 9.615-4.684 10.536-6.934 1.782-17.86-3.209-22.356-9.203-2.016-2.688-2.947-7.092-3.247-11.28-3.135-1.603-5.199-9.335-4.642-15.828.335-3.909 2.449-9.63 4.425-14.027-1.794-2.364-3.327-4.726-4.31-6.824-4.131-8.818 2.547-27.409 10.492-26.314 3.098.428 6.305 2.317 9.159 4.993.343-4.242 2.114-9.124 4.407-13.594-.176-.751-.33-1.488-.461-2.208-3.368-18.457 23.955-52.6665 30.416-50.9369 2.61.6987 7.049 5.1919 11.338 11.5039z" fill="#16a34a"/></g><g filter="url(#h)"><path clip-rule="evenodd" d="m191.829 258.016c-11.764 18.739-28.419 30.488-38.948 26.799-2.427-.85-4.335-2.453-5.726-4.657-6.515 18.476-18.567 31.987-27.716 30.647-6.395-.937-9.763-8.892-9.485-19.978-10.7651 17.652-23.3884 34.13-28.0519 34.081-8.3684-.087-12.8027-14.457-9.9042-32.096.815-4.96 2.607-11.034 4.9482-17.202-.3019-.364-.5748-.755-.8168-1.174-4.1727-7.222 2.1964-20.27 14.485-30.992-2.6511-8.126 2.4724-20.962 12.8867-30.855 5.691-5.405 11.941-8.962 17.568-10.411.222-8.794 10.804-20.58 25.986-28.139 9.415-4.688 18.674-6.791 25.734-6.331 9.382-2.281 19.4 2.47 29.376 8.599-.526-4.202.434-7.759 3.064-9.951 6.363-5.305 20.093-.613 30.668 10.48 5.203 5.458 8.673 11.448 10.097 16.758 2.416-.981 4.736-2.608 6.943-5.025 30.921 44.417 5.81 50.197-37.423 60.15-.975.224-1.959.45-2.951.679-6.548 3.397-13.569 6.26-20.734 8.618z" fill="#16a34a" fill-rule="evenodd"/></g><g filter="url(#i)"><path clip-rule="evenodd" d="m322.796 179.044c7.172-.263 16.35 1.806 25.733 6.243 16.018 7.576 27.338 19.554 27.746 28.563 14.486 8.605 23.406 20.526 20.568 28.506-.282.793-.671 1.521-1.159 2.184 11.477 11.082 17.137 23.815 12.907 30.769-1.467 2.412-3.964 3.864-7.166 4.413 2.631 8.042 4.552 16.232 5.112 22.597 1.637 18.602-4.017 33.259-12.628 32.739-3.877-.234-12.277-12.099-20.489-26.77-1.213 6.699-4.301 11.182-9.047 11.969-9.666 1.604-22.68-12.704-29.657-32.295-.906.695-1.919 1.247-3.04 1.642-10.623 3.743-27.316-7.855-39.462-26.593-8.078-2.548-16.012-5.709-23.371-9.519-1.032-.237-2.054-.471-3.067-.703-44.927-10.285-71.021-16.259-38.801-62.472 16.705-7.915 63.012-28.432 91.726-13.564 1.392.72 2.757 1.485 4.095 2.291z" fill="#16a34a" fill-rule="evenodd"/></g><g filter="url(#j)"><path d="m354.924 236.575c-21.371-45.739-61.213-49.057-76.726-44.801l-.281 3.635c46.116-7.316 68.894 28.594 77.007 41.166z" fill="#000" fill-opacity=".12" shape-rendering="crispEdges"/></g><g filter="url(#k)"><path d="m261.292 38.798c5.609-1.4245 10.752-1.1082 12.425 1.5532 2.187 3.4804 1.331 11.3117-1.208 18.7714 6.676-.4404 12.46 1.0233 13.979 4.6381 2.435 5.7947-1.861 16.8085-8.139 25.4048 9.07 2.4608 18.004 14.7155 16.171 17.8985-1.486 2.583-9.829 8.164-17.927 11.081 7.415 7.236 12.516 23.661 11.832 26.513-.465 1.937-9.175 4.542-18.515 5.902 2.999 6.137 3.462 14.704-.018 18.873-2.681 3.212-10.2 1.129-15.779-2.76-5.211 8.741-19.194 18.833-24.084 14.582-.171-.149-.348-.302-.531-.461l-.001-.001-.004-.004c-4.083-3.544-11.122-9.653-15.127-15.518-5.641 4.521-14.237 7.262-17.145 3.778-4.041-4.84-2.771-15.601 1.61-21.612.018-.024.035-.049.054-.073-8.829-1.247-19.877-7.016-21.034-8.803-1.004-1.552 4.682-9.279 11.07-15.344-8.879-6.076-17.2-16.187-16.35-18.942.865-2.801 8.314-8.2318 16.353-10.7189-7.924-5.7684-13.345-24.1438-8.51-29.6748 2.927-3.3474 9.213-4.8806 15.488-4.5998-2.241-6.8261-2.737-14.3019.372-17.6768 2.741-2.9759 7.18-3.2885 11.516-1.8511 3.98-8.8637 15.705-18.4304 27.754-17.9799 12.65.473 23.202 8.8425 25.748 17.0243z" fill="#16a34a"/></g><g filter="url(#l)"><path d="m234.424 40.5004-2.674 137.8426c4.499-3.627 2.25-1.813 4.5.908l-.701-138.7505c-.917.2556-.317.4299-1.125-.0001z" fill="#000" fill-opacity=".12" shape-rendering="crispEdges"/></g><g filter="url(#m)"><path d="m166.966 205.996c.416-3.522 19.687-30.297 32.236-35.398 12.122-4.927 27.538.718 34.133 8.844.326-.167.654-.328.986-.481 6.8-7.863 21.844-13.186 33.727-8.353 12.55 5.104 31.829 31.884 32.246 35.406.22 1.855-6.817 4.364-15.558 6.032 11.433 6.456 24.097 20.955 20.383 26.371-1.798 2.622-5.477 4.218-9.972 4.865 10.427 10.326 16.432 36.281 12.806 38.853-2.185 1.55-9.988 1.729-18.354.084 9.114 11.089 12.677 34.372 6.231 40.694-3.575 3.507-10.517 2.518-17.609-.773 1.511 2.958 2.772 5.863 3.579 8.456 3.836 12.332-6.347 35.434-13.228 35.853-2.903.177-7.365-2.594-11.633-6.783.147 1.548.225 2.927.223 4.095-.025 14.282-9.85 34.743-19.977 36.669-10.128 1.925-24.952-31.082-21.713-45.682.1-.454.218-.933.351-1.433-5.418 7.458-12.887 13.382-17.092 13.124-6.881-.421-17.07-23.525-13.237-35.856.806-2.592 2.066-5.498 3.576-8.455-7.09 3.289-14.032 4.276-17.608.768-6.448-6.324-2.892-29.605 6.219-40.692-8.365 1.642-16.168 1.462-18.354-.089-3.626-2.573 2.372-28.526 12.797-38.85-4.497-.648-8.175-2.245-9.974-4.867-3.716-5.417 8.944-19.913 20.376-26.366-8.741-1.67-15.779-4.182-15.56-6.036z" fill="#16a34a"/></g><g filter="url(#n)"><path d="m234.299 360 2.701-184.245c-3.999 4.022-4 2.011-6-1.006z" fill="#000" fill-opacity=".12" shape-rendering="crispEdges"/></g></svg>