<svg fill="none" height="546" viewBox="0 0 563 546" width="563" xmlns="http://www.w3.org/2000/svg" xmlns:xlink="http://www.w3.org/1999/xlink"><filter id="a" color-interpolation-filters="sRGB" filterUnits="userSpaceOnUse" height="546" width="563" x="0" y="0"><feFlood flood-opacity="0" result="BackgroundImageFix"/><feColorMatrix in="SourceAlpha" result="hardAlpha" type="matrix" values="0 0 0 0 0 0 0 0 0 0 0 0 0 0 0 0 0 0 127 0"/><feOffset dy="332"/><feComposite in2="hardAlpha" operator="out"/><feColorMatrix type="matrix" values="0 0 0 0 0 0 0 0 0 0 0 0 0 0 0 0 0 0 0.05 0"/><feBlend in2="BackgroundImageFix" mode="normal" result="effect1_dropShadow_9_45536"/><feBlend in="SourceGraphic" in2="effect1_dropShadow_9_45536" mode="normal" result="shape"/><feColorMatrix in="SourceAlpha" result="hardAlpha" type="matrix" values="0 0 0 0 0 0 0 0 0 0 0 0 0 0 0 0 0 0 127 0"/><feOffset dy="-36"/><feComposite in2="hardAlpha" k2="-1" k3="1" operator="arithmetic"/><feColorMatrix type="matrix" values="0 0 0 0 0 0 0 0 0 0 0 0 0 0 0 0 0 0 0.08 0"/><feBlend in2="shape" mode="normal" result="effect2_innerShadow_9_45536"/></filter><g filter="url(#a)"><path clip-rule="evenodd" d="m356.5 26h-89.317c-14.881-15.9949-36.113-26-59.683-26h-62c-40.104 0-73.4424 28.9662-80.2351 67.1183-1.7828 3.4794-3.3035 7.1153-4.5359 10.8817h-12.729c-26.5097 0-48 21.4903-48 48 0 26.51 21.4903 48 48 48h63.358c6.709 1.953 13.803 3 21.142 3h73.766c4.973 21.208 24.009 37 46.734 37h205c26.51 0 48-21.49 48-48 0-3.785-.438-7.468-1.266-11h13.266c24.853 0 45-20.147 45-45 0-24.8528-20.147-45-45-45h-95.393c-12.867-23.2545-37.648-39-66.107-39z" fill="#fff" fill-rule="evenodd"/></g></svg>