<svg fill="none" height="93" viewBox="0 0 87 93" width="87" xmlns="http://www.w3.org/2000/svg" xmlns:xlink="http://www.w3.org/1999/xlink"><filter id="a" color-interpolation-filters="sRGB" filterUnits="userSpaceOnUse" height="64" width="47" x="20" y="26"><feFlood flood-opacity="0" result="BackgroundImageFix"/><feBlend in="SourceGraphic" in2="BackgroundImageFix" mode="normal" result="shape"/><feColorMatrix in="SourceAlpha" result="hardAlpha" type="matrix" values="0 0 0 0 0 0 0 0 0 0 0 0 0 0 0 0 0 0 127 0"/><feOffset dx="8" dy="-8"/><feGaussianBlur stdDeviation="4"/><feComposite in2="hardAlpha" k2="-1" k3="1" operator="arithmetic"/><feColorMatrix type="matrix" values="0 0 0 0 0 0 0 0 0 0 0 0 0 0 0 0 0 0 0.25 0"/><feBlend in2="shape" mode="normal" result="effect1_innerShadow_9_45478"/><feColorMatrix in="SourceAlpha" result="hardAlpha" type="matrix" values="0 0 0 0 0 0 0 0 0 0 0 0 0 0 0 0 0 0 127 0"/><feOffset dx="-8" dy="8"/><feGaussianBlur stdDeviation="4"/><feComposite in2="hardAlpha" k2="-1" k3="1" operator="arithmetic"/><feColorMatrix type="matrix" values="0 0 0 0 1 0 0 0 0 1 0 0 0 0 1 0 0 0 0.25 0"/><feBlend in2="effect1_innerShadow_9_45478" mode="normal" result="effect2_innerShadow_9_45478"/></filter><filter id="b" color-interpolation-filters="sRGB" filterUnits="userSpaceOnUse" height="75.0801" width="93" x="-3" y="-4.08008"><feFlood flood-opacity="0" result="BackgroundImageFix"/><feBlend in="SourceGraphic" in2="BackgroundImageFix" mode="normal" result="shape"/><feColorMatrix in="SourceAlpha" result="hardAlpha" type="matrix" values="0 0 0 0 0 0 0 0 0 0 0 0 0 0 0 0 0 0 127 0"/><feOffset dx="8" dy="-8"/><feGaussianBlur stdDeviation="4"/><feComposite in2="hardAlpha" k2="-1" k3="1" operator="arithmetic"/><feColorMatrix type="matrix" values="0 0 0 0 0 0 0 0 0 0 0 0 0 0 0 0 0 0 0.25 0"/><feBlend in2="shape" mode="normal" result="effect1_innerShadow_9_45478"/><feColorMatrix in="SourceAlpha" result="hardAlpha" type="matrix" values="0 0 0 0 0 0 0 0 0 0 0 0 0 0 0 0 0 0 127 0"/><feOffset dx="-8" dy="8"/><feGaussianBlur stdDeviation="4"/><feComposite in2="hardAlpha" k2="-1" k3="1" operator="arithmetic"/><feColorMatrix type="matrix" values="0 0 0 0 1 0 0 0 0 1 0 0 0 0 1 0 0 0 0.25 0"/><feBlend in2="effect1_innerShadow_9_45478" mode="normal" result="effect2_innerShadow_9_45478"/></filter><mask id="c" height="60" maskUnits="userSpaceOnUse" width="77" x="5" y="3"><path d="m81.6202 43.5665c-.9903 4.7296-4.6275 9.3094-10.9117 12.9393-14.9195 8.6178-39.1088 8.6178-54.0283 0-6.2842-3.6299-9.92144-8.2097-10.91172-12.9393-3.50341-16.7323 15.56672-40.4767 40.53802-39.62425 22.7822.00002 38.3588 25.08075 35.3137 39.62425z" fill="#edb146"/></mask><path d="m62.3848 84.3137c-10.1537 6.2484-26.6159 6.2484-36.7696 0-10.1536-6.2484-10.1536-16.379 0-22.6274 10.1537-6.2484 26.6159-6.2484 36.7696 0 10.1536 6.2484 10.1536 16.379 0 22.6274z" fill="#000" fill-opacity=".12"/><path d="m55.1673 80.0711c-6.4437 3.9052-16.8909 3.9052-23.3346 0-6.4436-3.9053-6.4436-10.2369 0-14.1422 6.4437-3.9052 16.8909-3.9052 23.3346 0 6.4436 3.9053 6.4436 10.2369 0 14.1422z" fill="#000" fill-opacity=".12"/><g filter="url(#a)"><path d="m58.8463 74.2775c-.4005 1.8824-1.8716 3.7053-4.4132 5.15-6.0342 3.43-15.8175 3.43-21.8516 0-2.5417-1.4447-4.0128-3.2676-4.4133-5.15-1.4169-6.6597 6.2958-40.6143 16.3954-40.275 9.2142 0 15.5143 34.4865 14.2827 40.275z" fill="#fed7aa"/></g><g filter="url(#b)"><path d="m81.6183 43.6135c-.9948 4.7256-4.6488 9.3017-10.9619 12.9286-14.9881 8.6106-39.2886 8.6105-54.2766-.0001-6.3131-3.6268-9.96712-8.2029-10.96195-12.9285-3.51951-16.7183 15.63835-40.44293 40.72435-39.59119 22.887.00002 38.5352 25.05989 35.4761 39.59119z" fill="#eab308"/><g fill="#fef9c3" mask="url(#c)" opacity=".7"><ellipse cx="5.07963" cy="35.1687" rx="12.1372" ry="11.9299"/><ellipse cx="80.9927" cy="35.1687" rx="12.1372" ry="11.9299"/><ellipse cx="59.8589" cy="5.13072" rx="12.1372" ry="12.1429"/><ellipse cx="59.8589" cy="65.2064" rx="12.1372" ry="12.1429"/><ellipse cx="25.5757" cy="5.13072" rx="11.9243" ry="12.1429"/><ellipse cx="25.5757" cy="65.2064" rx="11.9243" ry="12.1429"/></g><g fill="#0f172a" opacity=".8"><ellipse cx="27.2036" cy="34.074" rx="3.85498" ry="3.9036"/><ellipse cx="57.273" cy="34.074" rx="3.85499" ry="3.9036"/><path clip-rule="evenodd" d="m38.7692 35.1152c.5678 0 1.028.4661 1.028 1.041 0 1.4373 1.1506 2.6024 2.57 2.6024s2.57-1.1651 2.57-2.6024c0-.5749.4602-1.041 1.028-1.041.5677 0 1.028.4661 1.028 1.041 0 2.5871-2.0711 4.6843-4.626 4.6843s-4.626-2.0972-4.626-4.6843c0-.5749.4603-1.041 1.028-1.041z" fill-rule="evenodd"/></g></g></svg>