<svg fill="none" height="114" viewBox="0 0 137 114" width="137" xmlns="http://www.w3.org/2000/svg" xmlns:xlink="http://www.w3.org/1999/xlink"><filter id="a" color-interpolation-filters="sRGB" filterUnits="userSpaceOnUse" height="101" width="124.482" x="4.02246" y=".016602"><feFlood flood-opacity="0" result="BackgroundImageFix"/><feBlend in="SourceGraphic" in2="BackgroundImageFix" mode="normal" result="shape"/><feColorMatrix in="SourceAlpha" result="hardAlpha" type="matrix" values="0 0 0 0 0 0 0 0 0 0 0 0 0 0 0 0 0 0 127 0"/><feOffset dx="-4" dy="2"/><feGaussianBlur stdDeviation="2"/><feComposite in2="hardAlpha" k2="-1" k3="1" operator="arithmetic"/><feColorMatrix type="matrix" values="0 0 0 0 1 0 0 0 0 1 0 0 0 0 1 0 0 0 0.25 0"/><feBlend in2="shape" mode="normal" result="effect1_innerShadow_9_45498"/></filter><ellipse cx="68" cy="56.5" fill="#000" fill-opacity=".12" rx="68" ry="56.5" transform="matrix(.999998 -.00217949 .00045132 1 0 .148438)"/><path d="m122.45 52.899c3.618-.0079 6.729-2.7885 6.49-6.3986-.8-12.0795-7.465-19.875-16.49-27.8069-10.522-9.24762-24.9147-14.82115-40.2492-15.58625-15.3345-.76511-30.4582 3.33571-42.2931 11.46785-11.8349 8.1321-19.4915 19.6844-21.41145 32.3056-1.91998 12.6212 2.04095 25.3629 11.07655 35.6317 9.0357 10.2689 22.467 17.2932 37.5604 19.6436 15.0934 2.35 30.7145-.151 43.6838-6.9935 10.769-5.6815 19.268-14.1557 24.026-23.9239 1.552-3.1859-.566-6.7544-4.033-7.4665l-52.3797-10.7554z" fill="#427a42"/><g filter="url(#a)"><path d="m122.022 49.3999c3.866-.0084 7.058-3.1721 6.395-6.9796-1.747-10.0298-7.231-19.4342-15.808-26.8849-10.537-9.15485-24.9523-14.672284-40.3102-15.429354-15.3579-.757069-30.5047 3.303124-42.3577 11.354254-11.853 8.0511-19.5213 19.488-21.44432 31.9831-1.92298 12.495 2.04392 25.1092 11.09332 35.2751s22.5012 17.1196 37.6176 19.4458c15.1164 2.3267 30.7614-.1498 43.7513-6.9243 10.386-5.4167 18.45-13.256 23.218-22.4187 1.91-3.6697-.554-7.8508-4.6-8.6919l-41.635-8.6548c-1.1764-.2445-.9973-1.9764.2047-1.979z" fill="#61a560"/></g></svg>