<svg fill="none" height="262" viewBox="0 0 291 262" width="291" xmlns="http://www.w3.org/2000/svg" xmlns:xlink="http://www.w3.org/1999/xlink"><filter id="a" color-interpolation-filters="sRGB" filterUnits="userSpaceOnUse" height="223.715" width="72" x="111" y="37.4629"><feFlood flood-opacity="0" result="BackgroundImageFix"/><feBlend in="SourceGraphic" in2="BackgroundImageFix" mode="normal" result="shape"/><feColorMatrix in="SourceAlpha" result="hardAlpha" type="matrix" values="0 0 0 0 0 0 0 0 0 0 0 0 0 0 0 0 0 0 127 0"/><feOffset dx="16" dy="-8"/><feGaussianBlur stdDeviation="12"/><feComposite in2="hardAlpha" k2="-1" k3="1" operator="arithmetic"/><feColorMatrix type="matrix" values="0 0 0 0 0 0 0 0 0 0 0 0 0 0 0 0 0 0 0.25 0"/><feBlend in2="shape" mode="normal" result="effect1_innerShadow_9_45531"/><feColorMatrix in="SourceAlpha" result="hardAlpha" type="matrix" values="0 0 0 0 0 0 0 0 0 0 0 0 0 0 0 0 0 0 127 0"/><feOffset dx="-16" dy="24"/><feGaussianBlur stdDeviation="12"/><feComposite in2="hardAlpha" k2="-1" k3="1" operator="arithmetic"/><feColorMatrix type="matrix" values="0 0 0 0 1 0 0 0 0 1 0 0 0 0 1 0 0 0 0.25 0"/><feBlend in2="effect1_innerShadow_9_45531" mode="normal" result="effect2_innerShadow_9_45531"/></filter><filter id="b" color-interpolation-filters="sRGB" filterUnits="userSpaceOnUse" height="84" width="150.815" x="18.3105" y="-9.53711"><feFlood flood-opacity="0" result="BackgroundImageFix"/><feBlend in="SourceGraphic" in2="BackgroundImageFix" mode="normal" result="shape"/><feColorMatrix in="SourceAlpha" result="hardAlpha" type="matrix" values="0 0 0 0 0 0 0 0 0 0 0 0 0 0 0 0 0 0 127 0"/><feOffset dx="24" dy="-24"/><feGaussianBlur stdDeviation="21"/><feComposite in2="hardAlpha" k2="-1" k3="1" operator="arithmetic"/><feColorMatrix type="matrix" values="0 0 0 0 0 0 0 0 0 0 0 0 0 0 0 0 0 0 0.25 0"/><feBlend in2="shape" mode="normal" result="effect1_innerShadow_9_45531"/><feColorMatrix in="SourceAlpha" result="hardAlpha" type="matrix" values="0 0 0 0 0 0 0 0 0 0 0 0 0 0 0 0 0 0 127 0"/><feOffset dx="-16" dy="24"/><feGaussianBlur stdDeviation="12"/><feComposite in2="hardAlpha" k2="-1" k3="1" operator="arithmetic"/><feColorMatrix type="matrix" values="0 0 0 0 1 0 0 0 0 1 0 0 0 0 1 0 0 0 0.25 0"/><feBlend in2="effect1_innerShadow_9_45531" mode="normal" result="effect2_innerShadow_9_45531"/></filter><filter id="c" color-interpolation-filters="sRGB" filterUnits="userSpaceOnUse" height="109.304" width="175.405" x="-2.9043" y="8.2666"><feFlood flood-opacity="0" result="BackgroundImageFix"/><feBlend in="SourceGraphic" in2="BackgroundImageFix" mode="normal" result="shape"/><feColorMatrix in="SourceAlpha" result="hardAlpha" type="matrix" values="0 0 0 0 0 0 0 0 0 0 0 0 0 0 0 0 0 0 127 0"/><feOffset dx="24" dy="-24"/><feGaussianBlur stdDeviation="21"/><feComposite in2="hardAlpha" k2="-1" k3="1" operator="arithmetic"/><feColorMatrix type="matrix" values="0 0 0 0 0 0 0 0 0 0 0 0 0 0 0 0 0 0 0.25 0"/><feBlend in2="shape" mode="normal" result="effect1_innerShadow_9_45531"/><feColorMatrix in="SourceAlpha" result="hardAlpha" type="matrix" values="0 0 0 0 0 0 0 0 0 0 0 0 0 0 0 0 0 0 127 0"/><feOffset dx="-16" dy="24"/><feGaussianBlur stdDeviation="12"/><feComposite in2="hardAlpha" k2="-1" k3="1" operator="arithmetic"/><feColorMatrix type="matrix" values="0 0 0 0 1 0 0 0 0 1 0 0 0 0 1 0 0 0 0.25 0"/><feBlend in2="effect1_innerShadow_9_45531" mode="normal" result="effect2_innerShadow_9_45531"/></filter><filter id="d" color-interpolation-filters="sRGB" filterUnits="userSpaceOnUse" height="147.788" width="140.237" x="29" y="23.1338"><feFlood flood-opacity="0" result="BackgroundImageFix"/><feBlend in="SourceGraphic" in2="BackgroundImageFix" mode="normal" result="shape"/><feColorMatrix in="SourceAlpha" result="hardAlpha" type="matrix" values="0 0 0 0 0 0 0 0 0 0 0 0 0 0 0 0 0 0 127 0"/><feOffset dx="24" dy="-24"/><feGaussianBlur stdDeviation="21"/><feComposite in2="hardAlpha" k2="-1" k3="1" operator="arithmetic"/><feColorMatrix type="matrix" values="0 0 0 0 0 0 0 0 0 0 0 0 0 0 0 0 0 0 0.25 0"/><feBlend in2="shape" mode="normal" result="effect1_innerShadow_9_45531"/><feColorMatrix in="SourceAlpha" result="hardAlpha" type="matrix" values="0 0 0 0 0 0 0 0 0 0 0 0 0 0 0 0 0 0 127 0"/><feOffset dx="-16" dy="24"/><feGaussianBlur stdDeviation="12"/><feComposite in2="hardAlpha" k2="-1" k3="1" operator="arithmetic"/><feColorMatrix type="matrix" values="0 0 0 0 1 0 0 0 0 1 0 0 0 0 1 0 0 0 0.25 0"/><feBlend in2="effect1_innerShadow_9_45531" mode="normal" result="effect2_innerShadow_9_45531"/></filter><filter id="e" color-interpolation-filters="sRGB" filterUnits="userSpaceOnUse" height="84" width="150.815" x="129.874" y="-9.53711"><feFlood flood-opacity="0" result="BackgroundImageFix"/><feBlend in="SourceGraphic" in2="BackgroundImageFix" mode="normal" result="shape"/><feColorMatrix in="SourceAlpha" result="hardAlpha" type="matrix" values="0 0 0 0 0 0 0 0 0 0 0 0 0 0 0 0 0 0 127 0"/><feOffset dx="24" dy="-24"/><feGaussianBlur stdDeviation="21"/><feComposite in2="hardAlpha" k2="-1" k3="1" operator="arithmetic"/><feColorMatrix type="matrix" values="0 0 0 0 0 0 0 0 0 0 0 0 0 0 0 0 0 0 0.25 0"/><feBlend in2="shape" mode="normal" result="effect1_innerShadow_9_45531"/><feColorMatrix in="SourceAlpha" result="hardAlpha" type="matrix" values="0 0 0 0 0 0 0 0 0 0 0 0 0 0 0 0 0 0 127 0"/><feOffset dx="-16" dy="24"/><feGaussianBlur stdDeviation="12"/><feComposite in2="hardAlpha" k2="-1" k3="1" operator="arithmetic"/><feColorMatrix type="matrix" values="0 0 0 0 1 0 0 0 0 1 0 0 0 0 1 0 0 0 0.25 0"/><feBlend in2="effect1_innerShadow_9_45531" mode="normal" result="effect2_innerShadow_9_45531"/></filter><filter id="f" color-interpolation-filters="sRGB" filterUnits="userSpaceOnUse" height="109.304" width="175.405" x="126.499" y="8.2666"><feFlood flood-opacity="0" result="BackgroundImageFix"/><feBlend in="SourceGraphic" in2="BackgroundImageFix" mode="normal" result="shape"/><feColorMatrix in="SourceAlpha" result="hardAlpha" type="matrix" values="0 0 0 0 0 0 0 0 0 0 0 0 0 0 0 0 0 0 127 0"/><feOffset dx="24" dy="-24"/><feGaussianBlur stdDeviation="21"/><feComposite in2="hardAlpha" k2="-1" k3="1" operator="arithmetic"/><feColorMatrix type="matrix" values="0 0 0 0 0 0 0 0 0 0 0 0 0 0 0 0 0 0 0.25 0"/><feBlend in2="shape" mode="normal" result="effect1_innerShadow_9_45531"/><feColorMatrix in="SourceAlpha" result="hardAlpha" type="matrix" values="0 0 0 0 0 0 0 0 0 0 0 0 0 0 0 0 0 0 127 0"/><feOffset dx="-16" dy="24"/><feGaussianBlur stdDeviation="12"/><feComposite in2="hardAlpha" k2="-1" k3="1" operator="arithmetic"/><feColorMatrix type="matrix" values="0 0 0 0 1 0 0 0 0 1 0 0 0 0 1 0 0 0 0.25 0"/><feBlend in2="effect1_innerShadow_9_45531" mode="normal" result="effect2_innerShadow_9_45531"/></filter><filter id="g" color-interpolation-filters="sRGB" filterUnits="userSpaceOnUse" height="147.788" width="140.237" x="129.763" y="23.1338"><feFlood flood-opacity="0" result="BackgroundImageFix"/><feBlend in="SourceGraphic" in2="BackgroundImageFix" mode="normal" result="shape"/><feColorMatrix in="SourceAlpha" result="hardAlpha" type="matrix" values="0 0 0 0 0 0 0 0 0 0 0 0 0 0 0 0 0 0 127 0"/><feOffset dx="24" dy="-24"/><feGaussianBlur stdDeviation="21"/><feComposite in2="hardAlpha" k2="-1" k3="1" operator="arithmetic"/><feColorMatrix type="matrix" values="0 0 0 0 0 0 0 0 0 0 0 0 0 0 0 0 0 0 0.25 0"/><feBlend in2="shape" mode="normal" result="effect1_innerShadow_9_45531"/><feColorMatrix in="SourceAlpha" result="hardAlpha" type="matrix" values="0 0 0 0 0 0 0 0 0 0 0 0 0 0 0 0 0 0 127 0"/><feOffset dx="-16" dy="24"/><feGaussianBlur stdDeviation="12"/><feComposite in2="hardAlpha" k2="-1" k3="1" operator="arithmetic"/><feColorMatrix type="matrix" values="0 0 0 0 1 0 0 0 0 1 0 0 0 0 1 0 0 0 0.25 0"/><feBlend in2="effect1_innerShadow_9_45531" mode="normal" result="effect2_innerShadow_9_45531"/></filter><path d="m187.305 251.797c-22.26 12.888-58.35 12.888-80.61 0-22.26-12.887-22.26-33.781 0-46.669 22.26-12.887 58.35-12.887 80.61 0 22.26 12.888 22.26 33.782 0 46.669z" fill="#000" fill-opacity=".12"/><path d="m169.627 239.898c-12.496 7.42-32.758 7.42-45.254 0-12.497-7.42-12.497-19.45 0-26.87 12.496-7.42 32.758-7.42 45.254 0 12.497 7.42 12.497 19.45 0 26.87z" fill="#000" fill-opacity=".12"/><g filter="url(#a)"><path clip-rule="evenodd" d="m159.81 45.4629h-26.412l-6.398 181.0001h.36c-.357 2.788 1.567 5.637 5.769 7.768 7.749 3.929 20.311 3.929 28.06 0 4.537-2.3 6.417-5.438 5.641-8.432z" fill="#f97316" fill-rule="evenodd"/></g><g fill="#000"><path d="m154.128 115.463c-2.485 0-5.143 1.917-5.143 6.032 0 4.116 2.015 4.968 4.5 4.968 2.486 0 4.5-.852 4.5-4.968 0-4.115-1.372-6.032-3.857-6.032z" opacity=".1"/><path d="m136.186 169.882c2.538-.419 5.035-2.183 4.568-5.009-.466-2.825-2.62-3.071-5.158-2.651-2.539.419-4.499 1.344-4.033 4.169.467 2.826 2.085 3.91 4.623 3.491z" opacity=".1"/><path d="m142 194.463c3.866 0 8 2.962 8 9.322 0 6.361-3.134 7.678-7 7.678s-7-1.317-7-7.678c0-6.36 2.134-9.322 6-9.322z" opacity=".1"/></g><path d="m153.085 133.001c-6.001.483-8.947.931-8.64 4.753.308 3.821 3.503 6.47 9.504 5.988 6.002-.483 8.279-4.85 7.972-8.671-.308-3.821-2.834-2.553-8.836-2.07z" fill="#fff" opacity=".1"/><path d="m140.899 177.813c6.742 1.317 15.51-1.697 14.432 3.82-1.077 5.517-8.876 7.877-15.619 6.56-6.743-1.318-9.935-3.825-8.857-9.342s3.301-2.355 10.044-1.038z" fill="#fff" opacity=".1"/><g filter="url(#b)"><path d="m37.3407 19.5617c60.2183-15.82258 95.7003 8.7617 107.4333 25.0234.687.9529.333 2.269-.759 2.7028-18.325 7.2804-63.3241.1373-73.6733-2.6106-.8262-.2194-1.3418-.9705-1.3418-1.8254v-3.7025c0-1.2519-1.137-2.196-2.3675-1.966l-8.2304 1.5387c-.2654.0496-.5452.0438-.8084-.0163-12.9588-2.9574-18.4015-7.9019-22.2901-12.3727-1.9692-2.2639-.8648-6.0089 2.0372-6.7714z" fill="#15803d"/></g><g filter="url(#c)"><path d="m13.9481 79.6647c19.3826-24.5162 59.066-70.43166 133.4349-33.6277 1.606.7949 1.448 3.1649-.255 3.7242-16.729 5.495-47.1467 17.9125-68.1662 34.6168-1.3903 1.1048-3.3584.0605-2.9991-1.6786.2225-1.0772.5033-2.2366.8508-3.4399.6417-2.2215-2.1426-4.3443-3.6183-2.5641-4.1849 5.0487-8.5041 10.999-12.0792 16.0032-.9073 1.27-2.977 1.1197-3.7398-.2421-2.0099-3.5881-4.2976-8.3154-1.1923-14.5065-2.394 4.3605-22.7878 10.8551-40.2358 7.6009-2.727-.5086-3.7204-3.7102-2-5.8862z" fill="#16a34a"/></g><g filter="url(#d)"><path d="m52.6108 144.608c-28.1263-62.9191 26.108-93.9588 90.5362-97.4707 1.384-.0755 2.414 1.2582 1.997 2.5805l-7.161 22.7453c-.502 1.5948-2.695 1.9387-3.949.8325-1.398-1.233-2.888-2.0713-4.402-2.6342-1.805-.6703-2.82 1.6746-1.664 3.214 7.689 10.2487-.679 21.0089-7.633 27.4896-1.305 1.216-3.411.107-3.617-1.6649-.643-5.5367-3.859-7.8039-7.532-9.4026-1.504-.6544-3.096.8098-2.826 2.4273 4.915 29.4392-29.2669 46.0412-48.7442 53.9162-1.9336.782-4.1537-.129-5.005-2.033z" fill="#22c55e"/></g><g filter="url(#e)"><path d="m253.659 19.5617c-60.218-15.82258-95.7 8.7617-107.433 25.0234-.687.9529-.333 2.269.759 2.7028 18.325 7.2804 63.324.1373 73.673-2.6106.827-.2194 1.342-.9705 1.342-1.8254v-3.7025c0-1.2519 1.137-2.196 2.368-1.966l8.23 1.5387c.265.0496.545.0438.808-.0163 12.959-2.9574 18.402-7.9019 22.291-12.3727 1.969-2.2639.864-6.0089-2.038-6.7714z" fill="#15803d"/></g><g filter="url(#f)"><path d="m277.052 79.6647c-19.383-24.5162-59.066-70.43166-133.435-33.6277-1.606.7949-1.448 3.1649.255 3.7242 16.729 5.495 47.147 17.9125 68.166 34.6168 1.391 1.1048 3.359.0605 2.999-1.6786-.222-1.0772-.503-2.2366-.851-3.4399-.641-2.2215 2.143-4.3443 3.619-2.5641 4.185 5.0487 8.504 10.999 12.079 16.0032.907 1.27 2.977 1.1197 3.74-.2421 2.01-3.5881 4.297-8.3154 1.192-14.5065 2.394 4.3605 22.788 10.8551 40.236 7.6009 2.727-.5086 3.72-3.7102 2-5.8862z" fill="#16a34a"/></g><g filter="url(#g)"><path d="m238.389 144.608c28.127-62.9191-26.108-93.9588-90.536-97.4707-1.384-.0755-2.414 1.2582-1.997 2.5805l7.161 22.7453c.502 1.5948 2.695 1.9387 3.949.8325 1.398-1.233 2.888-2.0713 4.402-2.6342 1.805-.6703 2.82 1.6746 1.664 3.214-7.689 10.2487.679 21.0089 7.633 27.4896 1.305 1.216 3.411.107 3.617-1.6649.643-5.5367 3.859-7.8039 7.532-9.4026 1.504-.6544 3.096.8098 2.826 2.4273-4.915 29.4392 29.267 46.0412 48.744 53.9162 1.934.782 4.154-.129 5.005-2.033z" fill="#22c55e"/></g></svg>