<svg fill="none" height="640" viewBox="0 0 286 640" width="286" xmlns="http://www.w3.org/2000/svg" xmlns:xlink="http://www.w3.org/1999/xlink"><filter id="a" color-interpolation-filters="sRGB" filterUnits="userSpaceOnUse" height="387.689" width="94.605" x="95.6973" y="166.021"><feFlood flood-opacity="0" result="BackgroundImageFix"/><feBlend in="SourceGraphic" in2="BackgroundImageFix" mode="normal" result="shape"/><feColorMatrix in="SourceAlpha" result="hardAlpha" type="matrix" values="0 0 0 0 0 0 0 0 0 0 0 0 0 0 0 0 0 0 127 0"/><feOffset dx="21.1626" dy="-10.5813"/><feGaussianBlur stdDeviation="15.8719"/><feComposite in2="hardAlpha" k2="-1" k3="1" operator="arithmetic"/><feColorMatrix type="matrix" values="0 0 0 0 0 0 0 0 0 0 0 0 0 0 0 0 0 0 0.25 0"/><feBlend in2="shape" mode="normal" result="effect1_innerShadow_1241_306598"/><feColorMatrix in="SourceAlpha" result="hardAlpha" type="matrix" values="0 0 0 0 0 0 0 0 0 0 0 0 0 0 0 0 0 0 127 0"/><feOffset dx="-21.1626" dy="31.7439"/><feGaussianBlur stdDeviation="15.2106"/><feComposite in2="hardAlpha" k2="-1" k3="1" operator="arithmetic"/><feColorMatrix type="matrix" values="0 0 0 0 1 0 0 0 0 1 0 0 0 0 1 0 0 0 0.25 0"/><feBlend in2="effect1_innerShadow_1241_306598" mode="normal" result="effect2_innerShadow_1241_306598"/></filter><filter id="b" color-interpolation-filters="sRGB" filterUnits="userSpaceOnUse" height="374.873" width="345.885" x="-23.0337" y="81.5041"><feFlood flood-opacity="0" result="BackgroundImageFix"/><feBlend in="SourceGraphic" in2="BackgroundImageFix" mode="normal" result="shape"/><feColorMatrix in="SourceAlpha" result="hardAlpha" type="matrix" values="0 0 0 0 0 0 0 0 0 0 0 0 0 0 0 0 0 0 127 0"/><feOffset dx="39.9275" dy="-40.9683"/><feGaussianBlur stdDeviation="26.6286"/><feComposite in2="hardAlpha" k2="-1" k3="1" operator="arithmetic"/><feColorMatrix type="matrix" values="0 0 0 0 0 0 0 0 0 0 0 0 0 0 0 0 0 0 0.25 0"/><feBlend in2="shape" mode="normal" result="effect1_innerShadow_1241_306598"/><feColorMatrix in="SourceAlpha" result="hardAlpha" type="matrix" values="0 0 0 0 0 0 0 0 0 0 0 0 0 0 0 0 0 0 127 0"/><feOffset dx="-24.5708" dy="27.8725"/><feGaussianBlur stdDeviation="32.3643"/><feComposite in2="hardAlpha" k2="-1" k3="1" operator="arithmetic"/><feColorMatrix type="matrix" values="0 0 0 0 1 0 0 0 0 1 0 0 0 0 1 0 0 0 0.25 0"/><feBlend in2="effect1_innerShadow_1241_306598" mode="normal" result="effect2_innerShadow_1241_306598"/></filter><filter id="c" color-interpolation-filters="sRGB" filterUnits="userSpaceOnUse" height="346.808" width="293.606" x="3.10596" y="-2.04597"><feFlood flood-opacity="0" result="BackgroundImageFix"/><feBlend in="SourceGraphic" in2="BackgroundImageFix" mode="normal" result="shape"/><feColorMatrix in="SourceAlpha" result="hardAlpha" type="matrix" values="0 0 0 0 0 0 0 0 0 0 0 0 0 0 0 0 0 0 127 0"/><feOffset dx="39.9275" dy="-40.9683"/><feGaussianBlur stdDeviation="26.6286"/><feComposite in2="hardAlpha" k2="-1" k3="1" operator="arithmetic"/><feColorMatrix type="matrix" values="0 0 0 0 0 0 0 0 0 0 0 0 0 0 0 0 0 0 0.25 0"/><feBlend in2="shape" mode="normal" result="effect1_innerShadow_1241_306598"/><feColorMatrix in="SourceAlpha" result="hardAlpha" type="matrix" values="0 0 0 0 0 0 0 0 0 0 0 0 0 0 0 0 0 0 127 0"/><feOffset dx="-24.5708" dy="27.8725"/><feGaussianBlur stdDeviation="32.3643"/><feComposite in2="hardAlpha" k2="-1" k3="1" operator="arithmetic"/><feColorMatrix type="matrix" values="0 0 0 0 1 0 0 0 0 1 0 0 0 0 1 0 0 0 0.25 0"/><feBlend in2="effect1_innerShadow_1241_306598" mode="normal" result="effect2_innerShadow_1241_306598"/></filter><linearGradient id="d" gradientUnits="userSpaceOnUse" x1="143.001" x2="143.001" y1="419.482" y2="474.827"><stop offset="0" stop-opacity=".24"/><stop offset="1" stop-opacity="0"/></linearGradient><g fill="#000"><path d="m41.8837 598.169c55.845 55.774 146.3873 55.774 202.2323.001 55.845-55.774 55.845-146.201 0-201.975s-146.3873-55.774-202.2323 0c-55.8449 55.774-55.8449 146.201 0 201.974z" fill-opacity=".12" opacity=".3"/><path d="m83.1995 556.906c33.0265 32.984 86.5735 32.984 119.5995 0 33.027-32.985 33.027-86.463 0-119.448-33.026-32.984-86.573-32.984-119.5995 0-33.0266 32.985-33.0266 86.463 0 119.448z" fill-opacity=".12"/><path d="m112.332 526.276c16.513 16.492 43.286 16.492 59.8 0 16.513-16.492 16.513-43.231 0-59.724-16.514-16.492-43.287-16.492-59.8 0-16.5136 16.493-16.5136 43.232 0 59.724z" fill-opacity=".2"/></g><g filter="url(#a)"><path d="m169.14 176.603h-52.28v320.546c0 14.437 11.703 26.14 26.14 26.14 14.436 0 26.14-11.703 26.14-26.14z" fill="#82644d"/></g><path d="m169.141 400.811h-52.28v24.538c0 14.436 11.703 26.139 26.14 26.139 14.436 0 26.14-11.703 26.14-26.139z" fill="url(#d)"/><g filter="url(#b)"><path d="m282.924 316.157c0 12.002-10.523 14.73-13.838 25.701-3.235 10.702-11.488 24.557-17.426 33.846-6.799 10.635-20.546 15.081-30.265 23.262-11.466 9.651-19.41 22.494-33.928 27.755-14.069 5.099-29.314-2.356-45.236-2.356s-31.168 7.455-45.2371 2.356c-14.5176-5.261-22.4615-18.104-33.9275-27.755-9.7186-8.181-23.4662-12.627-30.2652-23.262-5.9383-9.289-9.5784-23.144-12.8125-33.846-3.3156-10.971-18.45159-13.699-18.45159-25.701 0-44.035 58.57129-121.408 100.13189-170.767 25.328-30.082 56.474-30.799 81.75-.673 41.52 49.487 99.505 127.626 99.505 171.44z" fill="#65a30d"/></g><path d="m250.634 230.843c0 9.82-3.431 10.249-6.151 19.226-2.653 8.756-7.61 21.894-12.481 29.494-5.578 8.701-16.856 12.339-24.829 19.033-9.406 7.897-15.923 18.404-27.832 22.709-11.542 4.172-24.049-1.928-37.111-1.928s-25.568 6.1-37.11 1.928c-11.9097-4.305-18.4265-14.812-27.8328-22.709-7.9728-6.694-19.2507-10.332-24.8283-19.033-4.8716-7.6-10.597-20.738-13.2501-29.494-2.72-8.977-3.8441-9.406-3.8441-19.226 0-22.09 16.724-58.278 36.9401-93.953 41.1812-72.671 99.5182-73.329 140.8552-.746 20.508 36.009 37.474 72.609 37.474 94.699z" fill="#000" fill-opacity=".12"/><g filter="url(#c)"><path d="m256.784 224.969c0 9.819-9.581 10.249-12.301 19.226-2.653 8.756-7.609 21.893-12.481 29.493-5.578 8.702-16.856 12.34-24.828 19.033-9.407 7.897-15.923 18.404-27.833 22.709-11.542 4.172-24.049-1.927-37.11-1.927-13.062 0-25.569 6.099-37.111 1.927-11.9095-4.305-18.4263-14.812-27.8326-22.709-7.9728-6.693-19.2508-10.331-24.8283-19.033-4.8716-7.6-10.597-20.737-13.2501-29.493-2.72-8.977-11.5322-9.407-11.5322-19.226 0-34.257 43.1133-107.042 76.4412-158.1903 24.015-36.855 52.773-37.2956 76.713-.3915 33.259 51.2718 75.953 124.4918 75.953 158.5818z" fill="#65a30d"/></g></svg>