<svg fill="none" height="885" viewBox="0 0 363 885" width="363" xmlns="http://www.w3.org/2000/svg" xmlns:xlink="http://www.w3.org/1999/xlink"><filter id="a" color-interpolation-filters="sRGB" filterUnits="userSpaceOnUse" height="533.952" width="120.972" x="117.653" y="241.87"><feFlood flood-opacity="0" result="BackgroundImageFix"/><feBlend in="SourceGraphic" in2="BackgroundImageFix" mode="normal" result="shape"/><feColorMatrix in="SourceAlpha" result="hardAlpha" type="matrix" values="0 0 0 0 0 0 0 0 0 0 0 0 0 0 0 0 0 0 127 0"/><feOffset dx="26.8745" dy="-13.4372"/><feGaussianBlur stdDeviation="20.1558"/><feComposite in2="hardAlpha" k2="-1" k3="1" operator="arithmetic"/><feColorMatrix type="matrix" values="0 0 0 0 0 0 0 0 0 0 0 0 0 0 0 0 0 0 0.25 0"/><feBlend in2="shape" mode="normal" result="effect1_innerShadow_1241_306592"/><feColorMatrix in="SourceAlpha" result="hardAlpha" type="matrix" values="0 0 0 0 0 0 0 0 0 0 0 0 0 0 0 0 0 0 127 0"/><feOffset dx="-26.8745" dy="40.3117"/><feGaussianBlur stdDeviation="19.316"/><feComposite in2="hardAlpha" k2="-1" k3="1" operator="arithmetic"/><feColorMatrix type="matrix" values="0 0 0 0 1 0 0 0 0 1 0 0 0 0 1 0 0 0 0.25 0"/><feBlend in2="effect1_innerShadow_1241_306592" mode="normal" result="effect2_innerShadow_1241_306592"/></filter><filter id="b" color-interpolation-filters="sRGB" filterUnits="userSpaceOnUse" height="365.409" width="421.782" x="-20.1528" y="253.346"><feFlood flood-opacity="0" result="BackgroundImageFix"/><feBlend in="SourceGraphic" in2="BackgroundImageFix" mode="normal" result="shape"/><feColorMatrix in="SourceAlpha" result="hardAlpha" type="matrix" values="0 0 0 0 0 0 0 0 0 0 0 0 0 0 0 0 0 0 127 0"/><feOffset dx="43.671" dy="-44.8094"/><feGaussianBlur stdDeviation="29.1252"/><feComposite in2="hardAlpha" k2="-1" k3="1" operator="arithmetic"/><feColorMatrix type="matrix" values="0 0 0 0 0 0 0 0 0 0 0 0 0 0 0 0 0 0 0.25 0"/><feBlend in2="shape" mode="normal" result="effect1_innerShadow_1241_306592"/><feColorMatrix in="SourceAlpha" result="hardAlpha" type="matrix" values="0 0 0 0 0 0 0 0 0 0 0 0 0 0 0 0 0 0 127 0"/><feOffset dx="-26.8745" dy="30.4857"/><feGaussianBlur stdDeviation="35.3987"/><feComposite in2="hardAlpha" k2="-1" k3="1" operator="arithmetic"/><feColorMatrix type="matrix" values="0 0 0 0 1 0 0 0 0 1 0 0 0 0 1 0 0 0 0.25 0"/><feBlend in2="effect1_innerShadow_1241_306592" mode="normal" result="effect2_innerShadow_1241_306592"/></filter><filter id="c" color-interpolation-filters="sRGB" filterUnits="userSpaceOnUse" height="410.026" width="378.087" x="1.69488" y="97.5383"><feFlood flood-opacity="0" result="BackgroundImageFix"/><feBlend in="SourceGraphic" in2="BackgroundImageFix" mode="normal" result="shape"/><feColorMatrix in="SourceAlpha" result="hardAlpha" type="matrix" values="0 0 0 0 0 0 0 0 0 0 0 0 0 0 0 0 0 0 127 0"/><feOffset dx="43.671" dy="-44.8094"/><feGaussianBlur stdDeviation="29.1252"/><feComposite in2="hardAlpha" k2="-1" k3="1" operator="arithmetic"/><feColorMatrix type="matrix" values="0 0 0 0 0 0 0 0 0 0 0 0 0 0 0 0 0 0 0.25 0"/><feBlend in2="shape" mode="normal" result="effect1_innerShadow_1241_306592"/><feColorMatrix in="SourceAlpha" result="hardAlpha" type="matrix" values="0 0 0 0 0 0 0 0 0 0 0 0 0 0 0 0 0 0 127 0"/><feOffset dx="-26.8745" dy="30.4857"/><feGaussianBlur stdDeviation="35.3987"/><feComposite in2="hardAlpha" k2="-1" k3="1" operator="arithmetic"/><feColorMatrix type="matrix" values="0 0 0 0 1 0 0 0 0 1 0 0 0 0 1 0 0 0 0.25 0"/><feBlend in2="effect1_innerShadow_1241_306592" mode="normal" result="effect2_innerShadow_1241_306592"/></filter><filter id="d" color-interpolation-filters="sRGB" filterUnits="userSpaceOnUse" height="386.983" width="320.948" x="30.2642" y="-1.49858"><feFlood flood-opacity="0" result="BackgroundImageFix"/><feBlend in="SourceGraphic" in2="BackgroundImageFix" mode="normal" result="shape"/><feColorMatrix in="SourceAlpha" result="hardAlpha" type="matrix" values="0 0 0 0 0 0 0 0 0 0 0 0 0 0 0 0 0 0 127 0"/><feOffset dx="43.671" dy="-44.8094"/><feGaussianBlur stdDeviation="29.1252"/><feComposite in2="hardAlpha" k2="-1" k3="1" operator="arithmetic"/><feColorMatrix type="matrix" values="0 0 0 0 0 0 0 0 0 0 0 0 0 0 0 0 0 0 0.25 0"/><feBlend in2="shape" mode="normal" result="effect1_innerShadow_1241_306592"/><feColorMatrix in="SourceAlpha" result="hardAlpha" type="matrix" values="0 0 0 0 0 0 0 0 0 0 0 0 0 0 0 0 0 0 127 0"/><feOffset dx="-26.8745" dy="30.4857"/><feGaussianBlur stdDeviation="35.3987"/><feComposite in2="hardAlpha" k2="-1" k3="1" operator="arithmetic"/><feColorMatrix type="matrix" values="0 0 0 0 1 0 0 0 0 1 0 0 0 0 1 0 0 0 0.25 0"/><feBlend in2="effect1_innerShadow_1241_306592" mode="normal" result="effect2_innerShadow_1241_306592"/></filter><linearGradient id="e" gradientUnits="userSpaceOnUse" x1="178.138" x2="178.138" y1="562.684" y2="632.39"><stop offset="0" stop-opacity=".24"/><stop offset="1" stop-opacity="0"/></linearGradient><g fill="#000"><path d="m309.84 831.869c-70.88 70.842-185.8 70.842-256.6799 0-70.8801-70.842-70.8801-185.7 0-256.542 70.8799-70.842 185.7999-70.842 256.6799 0s70.88 185.7 0 256.542z" fill-opacity=".12" opacity=".3"/><path d="m254.192 779.61c-42.003 41.981-110.104 41.981-152.107 0-42.0028-41.98-42.0028-110.044 0-152.025 42.003-41.98 110.104-41.98 152.107 0 42.003 41.981 42.003 110.045 0 152.025z" fill-opacity=".12"/><path d="m216.166 741.604c-21.002 20.99-55.052 20.99-76.054 0-21.001-20.99-21.001-55.022 0-76.012 21.002-20.991 55.052-20.991 76.054 0 21.001 20.99 21.001 55.022 0 76.012z" fill-opacity=".2"/></g><g filter="url(#a)"><path d="m144.527 255.307h67.223v448.272c0 18.563-15.049 33.612-33.612 33.612-18.562 0-33.611-15.049-33.611-33.612z" fill="#82644d"/></g><path d="m144.527 539.169h67.223v30.216c0 18.563-15.049 33.611-33.612 33.611-18.562 0-33.611-15.048-33.611-33.611z" fill="url(#e)"/><g filter="url(#b)"><path d="m357.958 460.197c0 15.054-8.968 10.332-13.156 24.094-4.085 13.424-3.296 26.096-10.797 37.748-8.587 13.34-31.834 18.917-44.11 29.178-14.483 12.107-28.718 28.216-47.055 34.816-17.772 6.395-38.708-2.956-58.82-2.956-20.111 0-39.367 9.351-57.139 2.956-18.337-6.6-30.0515-22.709-44.5343-34.816-12.2757-10.261-43.0849-15.838-51.6726-29.178-7.5008-11.652-6.7119-24.324-10.7969-37.748-4.188-13.762-13.15552-9.04-13.15552-24.094 0-216.055 351.23632-216.055 351.23632 0z" fill="#65a30d"/></g><path d="m331.071 367.047c0 13.127-3.099 12.898-6.722 24.898-3.535 11.706-12.555 26.859-19.046 37.019-7.43 11.632-22.456 16.495-33.078 25.443-12.532 10.557-21.214 24.603-37.081 30.358-15.377 5.577-32.039.635-52.802-2.577-17.402 0-37.426 8.154-52.803 2.577-15.867-5.755-24.549-19.801-37.081-30.358-10.622-8.948-25.6474-13.811-33.0783-25.443-6.4903-10.16-10.4687-25.313-14.0034-37.019-3.6238-12-10.0833-18.196-10.0833-31.323 0-48.372 61.7472-133.523 105.217-187.476 26.161-32.47 57.993-32.959 83.777-.188 43.985 55.903 106.784 145.584 106.784 194.089z" fill="#000" fill-opacity=".12"/><g filter="url(#c)"><path d="m336.111 354.197c0 13.127-11.501 16.11-15.125 28.111-3.535 11.705-12.555 26.859-19.045 37.018-7.431 11.632-22.456 16.495-33.078 25.443-12.532 10.557-21.214 24.604-37.081 30.358-15.378 5.577-32.04-2.577-49.442-2.577s-34.064 8.154-49.441 2.577c-15.867-5.754-24.55-19.801-37.0813-30.358-10.622-8.948-25.6474-13.811-33.0783-25.443-6.4903-10.159-10.4687-25.313-14.0034-37.018-3.6238-12.001-20.1667-14.984-20.1667-28.111 0-48.167 64.0239-132.803 109.4477-186.789 27.678-32.895 61.711-33.679 89.331-.735 45.38 54.126 108.763 139.599 108.763 187.524z" fill="#65a30d"/></g><path d="m300.818 260.884c0 10.74-3.75 11.21-6.722 21.029-2.9 9.577-8.317 23.946-13.642 32.259-6.096 9.517-18.422 13.496-27.136 20.817-10.28 8.637-17.403 20.13-30.42 24.838-12.614 4.563-26.283-2.108-40.559-2.108s-27.945 6.671-40.56 2.108c-13.017-4.708-20.139-16.201-30.42-24.838-8.714-7.321-21.04-11.3-27.1359-20.817-5.3244-8.313-11.582-22.682-14.4817-32.259-2.9728-9.819-4.2014-10.289-4.2014-21.029 0-24.17 18.2929-63.773 40.4-102.808 44.996-79.4507 108.729-80.1697 153.895-.815 22.426 39.4 40.983 79.452 40.983 103.623z" fill="#000" fill-opacity=".12"/><g filter="url(#d)"><path d="m307.541 254.459c0 10.74-10.471 11.21-13.444 21.029-2.9 9.577-8.317 23.946-13.641 32.259-6.096 9.517-18.423 13.496-27.136 20.817-10.281 8.637-17.403 20.13-30.42 24.838-12.615 4.563-26.284-2.108-40.56-2.108s-27.945 6.671-40.56 2.108c-13.016-4.708-20.139-16.201-30.419-24.838-8.714-7.321-21.0405-11.3-27.1365-20.817-5.3244-8.313-11.5819-22.682-14.4817-32.259-2.9728-9.819-12.6041-10.289-12.6041-21.029 0-36.021 43.5503-115.664 79.2813-174.945 28.92-47.9813 63.535-48.4308 92.346-.3837 35.634 59.4267 78.775 139.4777 78.775 175.3287z" fill="#65a30d"/></g></svg>