<svg fill="none" height="588" viewBox="0 0 435 588" width="435" xmlns="http://www.w3.org/2000/svg" xmlns:xlink="http://www.w3.org/1999/xlink"><filter id="a" color-interpolation-filters="sRGB" filterUnits="userSpaceOnUse" height="473.683" width="202.5" x="29" y="28.3174"><feFlood flood-opacity="0" result="BackgroundImageFix"/><feColorMatrix in="SourceAlpha" result="hardAlpha" type="matrix" values="0 0 0 0 0 0 0 0 0 0 0 0 0 0 0 0 0 0 127 0"/><feOffset dy="1"/><feComposite in2="hardAlpha" operator="out"/><feColorMatrix type="matrix" values="0 0 0 0 0 0 0 0 0 0 0 0 0 0 0 0 0 0 0.25 0"/><feBlend in2="BackgroundImageFix" mode="normal" result="effect1_dropShadow_20_39709"/><feBlend in="SourceGraphic" in2="effect1_dropShadow_20_39709" mode="normal" result="shape"/></filter><filter id="b" color-interpolation-filters="sRGB" filterUnits="userSpaceOnUse" height="493.287" width="233.983" x="201.017" y="8.71289"><feFlood flood-opacity="0" result="BackgroundImageFix"/><feColorMatrix in="SourceAlpha" result="hardAlpha" type="matrix" values="0 0 0 0 0 0 0 0 0 0 0 0 0 0 0 0 0 0 127 0"/><feOffset dy="1"/><feComposite in2="hardAlpha" operator="out"/><feColorMatrix type="matrix" values="0 0 0 0 0 0 0 0 0 0 0 0 0 0 0 0 0 0 0.25 0"/><feBlend in2="BackgroundImageFix" mode="normal" result="effect1_dropShadow_20_39709"/><feBlend in="SourceGraphic" in2="effect1_dropShadow_20_39709" mode="normal" result="shape"/></filter><path d="m371 539 64-102-405.9998 7-28.99995586 136 102.99975586 8z" fill="#000" fill-opacity=".2"/><path d="m231 168.5 98.483-159.78696-54.435-8.71304-74.032 28.3174z" fill="#d6d3d1"/><g filter="url(#a)"><path d="m135.694 95.8435-106.694 348.5215 172.016 56.635 30.484-335.452-30.484-137.2306z" fill="#78716c"/></g><g filter="url(#b)"><path d="m255.452 470.504 69.677 17.426 16.871-5.93 26 16 67-61-5-83-15-27-28.903-167.987-32.662-23.961-23.951-126.33911-62.484 94.28711-35.5 62.548-30.484 335.452z" fill="#a8a29e"/></g><path d="m255.451 470.505 19.646-259.439 21.903 21.934 28.129 254.931z" fill="#78716c"/><path d="m342.5 482-9.5-128 24 49 11 95z" fill="#78716c"/><g fill="#d6d3d1"><path d="m353.435 135.053-78.387 76.239 21.952 21.708 89.097-73.986z"/><path d="m415 327-82 27 24 49 73-49z"/></g></svg>