<svg fill="none" height="98" viewBox="0 0 95 98" width="95" xmlns="http://www.w3.org/2000/svg" xmlns:xlink="http://www.w3.org/1999/xlink"><filter id="a" color-interpolation-filters="sRGB" filterUnits="userSpaceOnUse" height="64" width="47" x="24" y="30.5156"><feFlood flood-opacity="0" result="BackgroundImageFix"/><feBlend in="SourceGraphic" in2="BackgroundImageFix" mode="normal" result="shape"/><feColorMatrix in="SourceAlpha" result="hardAlpha" type="matrix" values="0 0 0 0 0 0 0 0 0 0 0 0 0 0 0 0 0 0 127 0"/><feOffset dx="8" dy="-8"/><feGaussianBlur stdDeviation="4"/><feComposite in2="hardAlpha" k2="-1" k3="1" operator="arithmetic"/><feColorMatrix type="matrix" values="0 0 0 0 0 0 0 0 0 0 0 0 0 0 0 0 0 0 0.25 0"/><feBlend in2="shape" mode="normal" result="effect1_innerShadow_9_45481"/><feColorMatrix in="SourceAlpha" result="hardAlpha" type="matrix" values="0 0 0 0 0 0 0 0 0 0 0 0 0 0 0 0 0 0 127 0"/><feOffset dx="-8" dy="8"/><feGaussianBlur stdDeviation="4"/><feComposite in2="hardAlpha" k2="-1" k3="1" operator="arithmetic"/><feColorMatrix type="matrix" values="0 0 0 0 1 0 0 0 0 1 0 0 0 0 1 0 0 0 0.25 0"/><feBlend in2="effect1_innerShadow_9_45481" mode="normal" result="effect2_innerShadow_9_45481"/></filter><filter id="b" color-interpolation-filters="sRGB" filterUnits="userSpaceOnUse" height="72" width="92" x="5" y="-3.48438"><feFlood flood-opacity="0" result="BackgroundImageFix"/><feBlend in="SourceGraphic" in2="BackgroundImageFix" mode="normal" result="shape"/><feColorMatrix in="SourceAlpha" result="hardAlpha" type="matrix" values="0 0 0 0 0 0 0 0 0 0 0 0 0 0 0 0 0 0 127 0"/><feOffset dx="8" dy="-8"/><feGaussianBlur stdDeviation="4"/><feComposite in2="hardAlpha" k2="-1" k3="1" operator="arithmetic"/><feColorMatrix type="matrix" values="0 0 0 0 0 0 0 0 0 0 0 0 0 0 0 0 0 0 0.25 0"/><feBlend in2="shape" mode="normal" result="effect1_innerShadow_9_45481"/></filter><filter id="c" color-interpolation-filters="sRGB" filterUnits="userSpaceOnUse" height="80" width="100" x="-3" y="-3.48438"><feFlood flood-opacity="0" result="BackgroundImageFix"/><feBlend in="SourceGraphic" in2="BackgroundImageFix" mode="normal" result="shape"/><feColorMatrix in="SourceAlpha" result="hardAlpha" type="matrix" values="0 0 0 0 0 0 0 0 0 0 0 0 0 0 0 0 0 0 127 0"/><feOffset dx="8" dy="-8"/><feGaussianBlur stdDeviation="8"/><feComposite in2="hardAlpha" k2="-1" k3="1" operator="arithmetic"/><feColorMatrix type="matrix" values="0 0 0 0 0 0 0 0 0 0 0 0 0 0 0 0 0 0 0.25 0"/><feBlend in2="shape" mode="normal" result="effect1_innerShadow_9_45481"/><feColorMatrix in="SourceAlpha" result="hardAlpha" type="matrix" values="0 0 0 0 0 0 0 0 0 0 0 0 0 0 0 0 0 0 127 0"/><feOffset dx="-8" dy="8"/><feGaussianBlur stdDeviation="8"/><feComposite in2="hardAlpha" k2="-1" k3="1" operator="arithmetic"/><feColorMatrix type="matrix" values="0 0 0 0 1 0 0 0 0 1 0 0 0 0 1 0 0 0 0.25 0"/><feBlend in2="effect1_innerShadow_9_45481" mode="normal" result="effect2_innerShadow_9_45481"/></filter><filter id="d" color-interpolation-filters="sRGB" filterUnits="userSpaceOnUse" height="46.5156" width="87.8535" x="4.77441" y="-3"><feFlood flood-opacity="0" result="BackgroundImageFix"/><feColorMatrix in="SourceAlpha" result="hardAlpha" type="matrix" values="0 0 0 0 0 0 0 0 0 0 0 0 0 0 0 0 0 0 127 0"/><feOffset dy="2"/><feGaussianBlur stdDeviation="2"/><feComposite in2="hardAlpha" operator="out"/><feColorMatrix type="matrix" values="0 0 0 0 0 0 0 0 0 0 0 0 0 0 0 0 0 0 0.25 0"/><feBlend in2="BackgroundImageFix" mode="normal" result="effect1_dropShadow_9_45481"/><feBlend in="SourceGraphic" in2="effect1_dropShadow_9_45481" mode="normal" result="shape"/><feColorMatrix in="SourceAlpha" result="hardAlpha" type="matrix" values="0 0 0 0 0 0 0 0 0 0 0 0 0 0 0 0 0 0 127 0"/><feOffset dx="8" dy="-5"/><feGaussianBlur stdDeviation="4"/><feComposite in2="hardAlpha" k2="-1" k3="1" operator="arithmetic"/><feColorMatrix type="matrix" values="0 0 0 0 0 0 0 0 0 0 0 0 0 0 0 0 0 0 0.25 0"/><feBlend in2="shape" mode="normal" result="effect2_innerShadow_9_45481"/><feColorMatrix in="SourceAlpha" result="hardAlpha" type="matrix" values="0 0 0 0 0 0 0 0 0 0 0 0 0 0 0 0 0 0 127 0"/><feOffset dx="-8" dy="8"/><feGaussianBlur stdDeviation="4"/><feComposite in2="hardAlpha" k2="-1" k3="1" operator="arithmetic"/><feColorMatrix type="matrix" values="0 0 0 0 1 0 0 0 0 1 0 0 0 0 1 0 0 0 0.25 0"/><feBlend in2="effect2_innerShadow_9_45481" mode="normal" result="effect3_innerShadow_9_45481"/></filter><mask id="e" height="65" maskUnits="userSpaceOnUse" width="84" x="5" y="4"><path d="m88.5836 47.4862c-1.0853 5.1261-5.0714 10.09-11.9585 14.0242-16.3506 9.3403-42.8602 9.3403-59.2108 0-6.887-3.9343-10.87319-8.8981-11.95846-14.0242-3.83947-18.1351 17.05996-43.8703 44.42656-42.94638 24.9676.00002 42.0384 27.18358 38.7012 42.94638z" fill="#edb146"/></mask><path d="m66.3848 88.8293c-10.1537 6.2484-26.6159 6.2484-36.7696 0-10.1536-6.2484-10.1536-16.379 0-22.6274 10.1537-6.2484 26.6159-6.2484 36.7696 0 10.1536 6.2484 10.1536 16.379 0 22.6274z" fill="#000" fill-opacity=".12"/><path d="m59.1673 84.5867c-6.4437 3.9052-16.8909 3.9052-23.3346 0-6.4436-3.9053-6.4436-10.2369 0-14.1421 6.4437-3.9053 16.8909-3.9053 23.3346 0 6.4436 3.9052 6.4436 10.2368 0 14.1421z" fill="#000" fill-opacity=".12"/><g filter="url(#a)"><path d="m62.8463 78.7931c-.4005 1.8824-1.8716 3.7053-4.4132 5.15-6.0342 3.43-15.8175 3.43-21.8516 0-2.5417-1.4447-4.0128-3.2676-4.4133-5.15-1.4169-6.6597 6.2958-40.6142 16.3954-40.2749 9.2142 0 15.5143 34.4864 14.2827 40.2749z" fill="#ffedd5"/></g><g filter="url(#b)"><g filter="url(#c)"><path d="m88.5836 47.4862c-1.0853 5.1261-5.0714 10.09-11.9585 14.0242-16.3506 9.3403-42.8602 9.3403-59.2108 0-6.887-3.9343-10.87319-8.8981-11.95846-14.0242-3.83947-18.1351 17.05996-43.8703 44.42656-42.94638 24.9676.00002 42.0384 27.18358 38.7012 42.94638z" fill="#ef4444"/></g><g fill="#ffedd5" mask="url(#e)" opacity=".9"><ellipse cx="12.6684" cy="40.2958" rx="12.0444" ry="12.1098"/><ellipse cx="88.0004" cy="40.2958" rx="12.0444" ry="12.1098"/><ellipse cx="47.4575" cy="38.0234" rx="12.0444" ry="12.1098"/><ellipse cx="67.0278" cy="9.80504" rx="12.0444" ry="12.326"/><ellipse cx="67.0278" cy="70.7865" rx="12.0444" ry="12.326"/><ellipse cx="33.0069" cy="9.80504" rx="11.8331" ry="12.326"/><ellipse cx="33.0069" cy="70.7865" rx="11.8331" ry="12.326"/></g></g><g filter="url(#d)"><path d="m27.3153 25.9974c-4.4839-.5077-16.3152-1.5017-14.3152-5.4818 2-3.98 11.1571-17.86545 35.5004-18.49999 24.3432-.63455 37.6668 18.27079 35.9853 22.07809s-6.7259 0-14.0123 0c-7.2865 0-8.4075 11.4219-21.2989 11.4219s-16.2543-8.8837-21.8593-9.5182z" fill="#fff"/></g></svg>