<svg fill="none" height="160" viewBox="0 0 162 160" width="162" xmlns="http://www.w3.org/2000/svg" xmlns:xlink="http://www.w3.org/1999/xlink"><filter id="a" color-interpolation-filters="sRGB" filterUnits="userSpaceOnUse" height="184.502" width="167.999" x="1" y="-18.5884"><feFlood flood-opacity="0" result="BackgroundImageFix"/><feBlend in="SourceGraphic" in2="BackgroundImageFix" mode="normal" result="shape"/><feColorMatrix in="SourceAlpha" result="hardAlpha" type="matrix" values="0 0 0 0 0 0 0 0 0 0 0 0 0 0 0 0 0 0 127 0"/><feOffset dx="24" dy="-24"/><feGaussianBlur stdDeviation="21"/><feComposite in2="hardAlpha" k2="-1" k3="1" operator="arithmetic"/><feColorMatrix type="matrix" values="0 0 0 0 0 0 0 0 0 0 0 0 0 0 0 0 0 0 0.25 0"/><feBlend in2="shape" mode="normal" result="effect1_innerShadow_9_45516"/><feColorMatrix in="SourceAlpha" result="hardAlpha" type="matrix" values="0 0 0 0 0 0 0 0 0 0 0 0 0 0 0 0 0 0 127 0"/><feOffset dx="-16" dy="24"/><feGaussianBlur stdDeviation="12"/><feComposite in2="hardAlpha" k2="-1" k3="1" operator="arithmetic"/><feColorMatrix type="matrix" values="0 0 0 0 1 0 0 0 0 1 0 0 0 0 1 0 0 0 0.25 0"/><feBlend in2="effect1_innerShadow_9_45516" mode="normal" result="effect2_innerShadow_9_45516"/></filter><filter id="b" color-interpolation-filters="sRGB" filterUnits="userSpaceOnUse" height="52.2324" width="97.9385" x="34.292" y="-4"><feFlood flood-opacity="0" result="BackgroundImageFix"/><feColorMatrix in="SourceAlpha" result="hardAlpha" type="matrix" values="0 0 0 0 0 0 0 0 0 0 0 0 0 0 0 0 0 0 127 0"/><feOffset dy="3"/><feGaussianBlur stdDeviation="1.5"/><feComposite in2="hardAlpha" operator="out"/><feColorMatrix type="matrix" values="0 0 0 0 0 0 0 0 0 0 0 0 0 0 0 0 0 0 0.2 0"/><feBlend in2="BackgroundImageFix" mode="normal" result="effect1_dropShadow_9_45516"/><feBlend in="SourceGraphic" in2="effect1_dropShadow_9_45516" mode="normal" result="shape"/><feColorMatrix in="SourceAlpha" result="hardAlpha" type="matrix" values="0 0 0 0 0 0 0 0 0 0 0 0 0 0 0 0 0 0 127 0"/><feOffset dx="6" dy="-4"/><feGaussianBlur stdDeviation="4"/><feComposite in2="hardAlpha" k2="-1" k3="1" operator="arithmetic"/><feColorMatrix type="matrix" values="0 0 0 0 0 0 0 0 0 0 0 0 0 0 0 0 0 0 0.25 0"/><feBlend in2="shape" mode="normal" result="effect2_innerShadow_9_45516"/></filter><path d="m132.022 139.608c-28.179 16.287-73.8651 16.287-102.0435 0-28.17838-16.287-28.17837-42.6938 0-58.981 28.1785-16.2872 73.8645-16.2872 102.0435 0 28.178 16.2872 28.178 42.694 0 58.981z" fill="#000" fill-opacity=".12"/><g filter="url(#a)"><path clip-rule="evenodd" d="m81.0338 5.41162c-35.3273 0-63.9656 28.63838-63.9656 63.96568v34.2887c-.799 9.911 5.4264 19.972 18.6762 27.541 24.9925 14.276 65.5136 14.276 90.5056 0 13.092-7.478 19.326-17.39 18.702-27.186h.047v-34.6437c0-35.3273-28.638-63.96568-63.9652-63.96568z" fill="#16a34a" fill-rule="evenodd"/></g><g fill="#000" fill-opacity=".7" opacity=".6"><ellipse cx="50.8094" cy="78.5" rx="7.61307" ry="7.5"/><ellipse cx="110.191" cy="78.5" rx="7.61306" ry="7.5"/><path clip-rule="evenodd" d="m73.6483 80.5c1.1212 0 2.0302.8954 2.0302 2 0 2.7614 2.2723 5 5.0753 5 2.8031 0 5.0754-2.2386 5.0754-5 0-1.1046.9089-2 2.0302-2 1.1212 0 2.0301.8954 2.0301 2 0 4.9706-4.0902 9-9.1357 9s-9.1356-4.0294-9.1356-9c0-1.1046.9089-2 2.0301-2z" fill-rule="evenodd"/></g><path d="m110.012 23.1248c-8.002-4.5108-16.9693-5.1905-18.0486-3.7576-1.8305 2.43 5.8756 6.5557 12.3256 11.2728 5.583 4.0829 7.044 9.8117 13.647 7.9328 7.599-2.162.395-10.7586-7.924-15.448z" fill="#fff" opacity=".7"/><g filter="url(#b)"><path d="m54.7793 23.9976c-5.4825-.5077-15.0551 3.198-17.2788-1.9974-2.2237-5.1953 13.4174-21.349819 43.1813-21.9843605 29.7642-.6345415 47.8182 17.9843605 45.3182 21.9843605s-13.125-2.467-22-1.6953c-19.5 1.6953-13 18.6953-31 21.6953-15.5475 2.5913-11.3677-17.3681-18.2207-18.0026z" fill="#fff"/></g></svg>