<svg fill="none" height="262" viewBox="0 0 220 262" width="220" xmlns="http://www.w3.org/2000/svg" xmlns:xlink="http://www.w3.org/1999/xlink"><filter id="a" color-interpolation-filters="sRGB" filterUnits="userSpaceOnUse" height="95.2881" width="107.523" x="111.746" y="121.322"><feFlood flood-opacity="0" result="BackgroundImageFix"/><feBlend in="SourceGraphic" in2="BackgroundImageFix" mode="normal" result="shape"/><feColorMatrix in="SourceAlpha" result="hardAlpha" type="matrix" values="0 0 0 0 0 0 0 0 0 0 0 0 0 0 0 0 0 0 127 0"/><feOffset dx="8" dy="-8"/><feGaussianBlur stdDeviation="4"/><feComposite in2="hardAlpha" k2="-1" k3="1" operator="arithmetic"/><feColorMatrix type="matrix" values="0 0 0 0 0 0 0 0 0 0 0 0 0 0 0 0 0 0 0.28 0"/><feBlend in2="shape" mode="normal" result="effect1_innerShadow_9_45467"/></filter><filter id="b" color-interpolation-filters="sRGB" filterUnits="userSpaceOnUse" height="72.2085" width="63.165" x="6.98438" y="142.271"><feFlood flood-opacity="0" result="BackgroundImageFix"/><feBlend in="SourceGraphic" in2="BackgroundImageFix" mode="normal" result="shape"/><feColorMatrix in="SourceAlpha" result="hardAlpha" type="matrix" values="0 0 0 0 0 0 0 0 0 0 0 0 0 0 0 0 0 0 127 0"/><feOffset dx="8" dy="-8"/><feGaussianBlur stdDeviation="4"/><feComposite in2="hardAlpha" k2="-1" k3="1" operator="arithmetic"/><feColorMatrix type="matrix" values="0 0 0 0 0 0 0 0 0 0 0 0 0 0 0 0 0 0 0.28 0"/><feBlend in2="shape" mode="normal" result="effect1_innerShadow_9_45467"/></filter><filter id="c" color-interpolation-filters="sRGB" filterUnits="userSpaceOnUse" height="140.678" width="119.746" x="52.3809" y="101.39"><feFlood flood-opacity="0" result="BackgroundImageFix"/><feBlend in="SourceGraphic" in2="BackgroundImageFix" mode="normal" result="shape"/><feColorMatrix in="SourceAlpha" result="hardAlpha" type="matrix" values="0 0 0 0 0 0 0 0 0 0 0 0 0 0 0 0 0 0 127 0"/><feOffset dx="8" dy="8"/><feGaussianBlur stdDeviation="4"/><feComposite in2="hardAlpha" k2="-1" k3="1" operator="arithmetic"/><feColorMatrix type="matrix" values="0 0 0 0 0 0 0 0 0 0 0 0 0 0 0 0 0 0 0.28 0"/><feBlend in2="shape" mode="normal" result="effect1_innerShadow_9_45467"/></filter><filter id="d" color-interpolation-filters="sRGB" filterUnits="userSpaceOnUse" height="117.016" width="93.0107" x="123.75" y="140.281"><feFlood flood-opacity="0" result="BackgroundImageFix"/><feBlend in="SourceGraphic" in2="BackgroundImageFix" mode="normal" result="shape"/><feColorMatrix in="SourceAlpha" result="hardAlpha" type="matrix" values="0 0 0 0 0 0 0 0 0 0 0 0 0 0 0 0 0 0 127 0"/><feOffset dx="2" dy="-8"/><feGaussianBlur stdDeviation="4"/><feComposite in2="hardAlpha" k2="-1" k3="1" operator="arithmetic"/><feColorMatrix type="matrix" values="0 0 0 0 0 0 0 0 0 0 0 0 0 0 0 0 0 0 0.28 0"/><feBlend in2="shape" mode="normal" result="effect1_innerShadow_9_45467"/></filter><filter id="e" color-interpolation-filters="sRGB" filterUnits="userSpaceOnUse" height="81.3223" width="64.8574" x="34.9209" y="170.203"><feFlood flood-opacity="0" result="BackgroundImageFix"/><feBlend in="SourceGraphic" in2="BackgroundImageFix" mode="normal" result="shape"/><feColorMatrix in="SourceAlpha" result="hardAlpha" type="matrix" values="0 0 0 0 0 0 0 0 0 0 0 0 0 0 0 0 0 0 127 0"/><feOffset dx="2" dy="-8"/><feGaussianBlur stdDeviation="4"/><feComposite in2="hardAlpha" k2="-1" k3="1" operator="arithmetic"/><feColorMatrix type="matrix" values="0 0 0 0 0 0 0 0 0 0 0 0 0 0 0 0 0 0 0.28 0"/><feBlend in2="shape" mode="normal" result="effect1_innerShadow_9_45467"/></filter><path clip-rule="evenodd" d="m137.921 153.537c-3.65 0-7.193.228-10.577.656-3.96-.284-8.001-.43-12.106-.43-41.0911 0-75.8067 14.696-87.0023 34.858-16.2074 3.06-27.925362 11.439-27.06094 20.016.87906 8.723 14.46784 14.648 31.35194 14.197 2.5193 2.987 5.5803 5.813 9.1156 8.442-6.6744 3.984-10.5509 8.996-9.9696 13.988 1.1153 9.577 18.2161 15.454 38.1956 13.127 10.0214-1.167 18.8636-4.176 25.0475-8.095 6.5332.805 13.3362 1.229 20.3222 1.229 12.587 0 24.576-1.379 35.474-3.871 2.935 8.157 17.206 14.346 34.368 14.346 19.286 0 34.92-7.816 34.92-17.458 0-8.217-11.356-15.108-26.651-16.965 8.056-7.3 12.683-15.826 12.683-24.933 0-13.881-10.747-26.41-28.006-35.308-6.168-8.069-21.798-13.799-40.105-13.799z" fill="#000" fill-opacity=".2" fill-rule="evenodd"/><ellipse cx="115.238" cy="202.644" fill="#000" fill-opacity=".2" rx="73.3333" ry="38.4068"/><g filter="url(#a)"><path d="m133.405 150.44c-11.174 0-13.967-14.078-13.967-21.118-5.121 29.096-12.85 87.288-2.794 87.288 12.571 0 51.678-32.381 55.868-36.604 5.399-5.443 10.821.732 21.298 0 10.476-.733 17.46-7.04 17.46-14.023s-5.238-31.423-26.191-31.423c-29.682 0-37.707 15.88-51.674 15.88z" fill="#ea580c"/></g><path d="m171.578 149.323c-5.324 2.263-9.605 6.539-11.65 1.731-2.045-4.809 1.084-8.197 6.408-10.46 5.325-2.264 10.829-2.546 12.874 2.263 2.045 4.808-2.307 4.202-7.632 6.466z" fill="#fff" opacity=".1"/><g filter="url(#b)"><path d="m62.1492 151.436-2.7839 58.191c-20.765-6.388-12.3049 7.678-40.6648 4.33-5.5598-.657-10.3401-4.607-11.19466-10.14-4.69689-30.41 23.04416-59.815 54.64336-52.381z" fill="#ea580c"/></g><g filter="url(#c)"><path clip-rule="evenodd" d="m164.127 101.39h-111.7461v83.796c0 30.853 25.0152 48.882 55.8731 48.882 30.858 0 55.873-18.029 55.873-48.882z" fill="#ea580c" fill-rule="evenodd"/></g><path d="m164.127 101.39c0 28.649-25.015 45.39-55.873 45.39-30.8579 0-55.8731-16.741-55.8731-45.39 0-28.6494 25.0152-45.39 55.8731-45.39 30.858 0 55.873 16.7406 55.873 45.39z" fill="#fb923c"/><g clip-rule="evenodd" fill="#f97316" fill-rule="evenodd"><path d="m77.036 76.8812c-7.8622 5.7174-12.6786 14.0115-12.6786 24.5088 0 10.497 4.8164 18.791 12.6786 24.509 7.9009 5.745 18.9191 8.906 31.218 8.906 12.299 0 23.318-3.161 31.218-8.906 7.863-5.718 12.679-14.012 12.679-24.509 0-10.4973-4.816-18.7914-12.679-24.5088-7.9-5.7455-18.919-8.9066-31.218-8.9066-12.2989 0-23.3171 3.1611-31.218 8.9066zm-1.7644-2.4263c8.5296-6.2027 20.2098-9.4803 32.9824-9.4803 12.773 0 24.453 3.2776 32.983 9.4803 8.568 6.2307 13.914 15.3942 13.914 26.9351 0 11.541-5.346 20.704-13.914 26.935-8.53 6.203-20.21 9.48-32.983 9.48-12.7726 0-24.4528-3.277-32.9824-9.48-8.5681-6.231-13.9142-15.394-13.9142-26.935 0-11.5409 5.3461-20.7044 13.9142-26.9351z"/><path d="m89.3674 87.1806c-4.7032 3.3346-7.55 8.1363-7.55 14.2094 0 6.073 2.8468 10.875 7.55 14.21 4.7427 3.362 11.4016 5.239 18.8866 5.239s14.144-1.877 18.886-5.239c4.704-3.335 7.55-8.137 7.55-14.21 0-6.0731-2.846-10.8748-7.55-14.2094-4.742-3.3626-11.401-5.2397-18.886-5.2397s-14.1439 1.8771-18.8866 5.2397zm-1.7352-2.4473c5.3683-3.8062 12.6778-5.7924 20.6218-5.7924s15.253 1.9862 20.622 5.7924c5.407 3.8343 8.814 9.5072 8.814 16.6567 0 7.15-3.407 12.823-8.814 16.657-5.369 3.806-12.678 5.792-20.622 5.792s-15.2535-1.986-20.6218-5.792c-5.4078-3.834-8.8148-9.507-8.8148-16.657 0-7.1495 3.407-12.8224 8.8148-16.6567z"/><path d="m101.774 94.3917c-1.545 1.2171-2.4967 2.9698-2.4967 5.2522 0 2.2821.9517 4.0351 2.4967 5.2521 1.578 1.243 3.849 1.977 6.48 1.977 2.63 0 4.901-.734 6.479-1.977 1.545-1.217 2.497-2.97 2.497-5.2521 0-2.2824-.952-4.0351-2.497-5.2522-1.578-1.2434-3.849-1.9767-6.479-1.9767-2.631 0-4.902.7333-6.48 1.9767zm-1.8565-2.3566c2.2135-1.7436 5.1805-2.6201 8.3365-2.6201 3.155 0 6.122.8765 8.336 2.6201 2.246 1.7699 3.64 4.3816 3.64 7.6088 0 3.2271-1.394 5.8391-3.64 7.6091-2.214 1.743-5.181 2.62-8.336 2.62-3.156 0-6.123-.877-8.3365-2.62-2.2467-1.77-3.6402-4.382-3.6402-7.6091 0-3.2272 1.3935-5.8389 3.6402-7.6088z"/><path d="m106.195 99.8584c-.001-.0002.003-.0067.017-.0186-.009.0129-.016.0189-.017.0186zm.398-.2142c.38-.1405.95-.2458 1.661-.2458s1.281.1053 1.66.2458c-.379.1405-.949.2458-1.66.2458s-1.281-.1053-1.661-.2458zm3.72.2142c-.001.0003-.008-.0057-.017-.0186.013.0119.018.0184.017.0186zm-.017-.4098c.009-.0129.016-.0189.017-.0186.001.0002-.004.0067-.017.0186zm-4.084 0c-.014-.0119-.018-.0184-.017-.0186.001-.0003.008.0057.017.0186zm-1.068-2.4466c.895-.4233 2.006-.6036 3.11-.6036 1.103 0 2.215.1803 3.11.6036.869.4109 1.882 1.2497 1.882 2.6422 0 1.3928-1.013 2.2318-1.882 2.6418-.895.424-2.007.604-3.11.604-1.104 0-2.215-.18-3.11-.604-.87-.41-1.882-1.249-1.882-2.6418 0-1.3925 1.012-2.2313 1.882-2.6422z"/></g><path d="m125.714 159.25c0 5.785-2.434 11.971-7.66 11.971s-6.308-4.69-6.308-10.475 1.082-10.475 6.308-10.475 7.66 3.194 7.66 8.979z" fill="#fff" opacity=".1"/><path d="m38.8801 170.271c-5.3245 2.264-9.6057 6.54-11.6505 1.731-2.0448-4.808 1.084-8.196 6.4086-10.46 5.3245-2.263 10.8285-2.545 12.8733 2.263 2.0448 4.809-2.3068 4.203-7.6314 6.466z" fill="#fff" opacity=".1"/><path d="m108.254 173.714c0 3.857-4.26 7.981-13.405 7.981-9.1454 0-11.0394-3.127-11.0394-6.983 0-3.857 1.894-6.983 11.0394-6.983 9.145 0 13.405 2.128 13.405 5.985z" fill="#000" opacity=".1"/><path d="m150.16 202.644c0 13.499-7.303 27.933-22.98 27.933-29.4025 5.237-20.666-50.627 3.781-64.594 15.678 0 19.199 23.163 19.199 36.661z" fill="#000" opacity=".1"/><path d="m83.8097 157.254c0 6.749-4.2597 13.966-13.405 13.966-9.1454 0-11.0395-5.471-11.0395-12.22s1.8941-12.22 11.0395-12.22c9.1453 0 13.405 3.725 13.405 10.474z" fill="#000" opacity=".1"/><g filter="url(#d)"><path d="m185.079 190.424c-10.477-3.491-20.952-26.187-20.953-41.898-52.38-5.238-43.656 75.068-29.687 80.305s27.943 6.983 36.672 10.475c8.729 3.491 8.729 15.712 17.46 17.457 8.731 1.746 26.189 0 26.189-17.457 0-17.458-19.203-45.391-29.681-48.882z" fill="#ea580c"/></g><path d="m167.054 181.244c4.804 6.459 7.079 15.493.934 20.062-6.144 4.569-11.311.28-16.115-6.179-4.804-6.458-7.426-12.64-1.281-17.209s11.658-3.132 16.462 3.326z" fill="#000" opacity=".1"/><g filter="url(#e)"><path d="m55.4203 206.548c7.2366-2.348 14.471-17.613 14.472-28.18 36.1767-3.523 30.1507 50.489 20.5033 54.012-9.6478 3.522-19.2988 4.697-25.3276 7.045-6.0289 2.348-6.0289 10.567-12.0592 11.742-6.0303 1.174-18.0879 0-18.0879-11.742s13.2629-30.529 20.4994-32.877z" fill="#ea580c"/></g><path d="m67.9532 200.609c-3.2652 4.39-4.8115 10.531-.6349 13.636 4.1767 3.106 7.6887.19 10.954-4.2 3.2652-4.39 5.0473-8.592.8706-11.697-4.1766-3.106-7.9244-2.129-11.1897 2.261z" fill="#000" opacity=".1"/></svg>