<svg width="900" height="1047" viewBox="0 0 900 1047" fill="none" xmlns="http://www.w3.org/2000/svg">
<g filter="url(#filter0_d_565_187863)">
<rect y="508" width="900" height="505" fill="#475569"/>
<rect width="900" height="508" transform="matrix(-1 0 0 1 900 0)" fill="#64748B"/>
<g filter="url(#filter1_ii_565_187863)">
<path d="M79 846H238V886C238 894.837 230.837 902 222 902H95C86.1634 902 79 894.837 79 886V846Z" fill="white" fill-opacity="0.2"/>
</g>
<g filter="url(#filter2_i_565_187863)">
<path d="M79 648C79 639.163 86.1634 632 95 632H222C230.837 632 238 639.163 238 648V861C238 869.837 230.837 877 222 877H95C86.1634 877 79 869.837 79 861V648Z" fill="#0F172A"/>
</g>
<mask id="mask0_565_187863" style="mask-type:alpha" maskUnits="userSpaceOnUse" x="79" y="632" width="159" height="245">
<path d="M79 648C79 639.163 86.1634 632 95 632H222C230.837 632 238 639.163 238 648V861C238 869.837 230.837 877 222 877H95C86.1634 877 79 869.837 79 861V648Z" fill="#0F172A"/>
</mask>
<g mask="url(#mask0_565_187863)">
<g opacity="0.1">
<path d="M372 -82H341.231L-35 1590H-4.23077L372 -82Z" fill="white"/>
<path d="M323 -37H311.75L-54 1590H-42.75L323 -37Z" fill="white"/>
</g>
</g>
<g filter="url(#filter3_ii_565_187863)">
<path d="M468 846H627V886C627 894.837 619.837 902 611 902H484C475.163 902 468 894.837 468 886V846Z" fill="white" fill-opacity="0.2"/>
</g>
<g filter="url(#filter4_i_565_187863)">
<path d="M468 648C468 639.163 475.163 632 484 632H611C619.837 632 627 639.163 627 648V861C627 869.837 619.837 877 611 877H484C475.163 877 468 869.837 468 861V648Z" fill="#0F172A"/>
</g>
<mask id="mask1_565_187863" style="mask-type:alpha" maskUnits="userSpaceOnUse" x="468" y="632" width="159" height="245">
<path d="M468 648C468 639.163 475.163 632 484 632H611C619.837 632 627 639.163 627 648V861C627 869.837 619.837 877 611 877H484C475.163 877 468 869.837 468 861V648Z" fill="#0F172A"/>
</mask>
<g mask="url(#mask1_565_187863)">
<g opacity="0.1">
<path d="M761 -82H730.231L354 1590H384.769L761 -82Z" fill="white"/>
<path d="M712 -37H700.75L335 1590H346.25L712 -37Z" fill="white"/>
</g>
</g>
<g filter="url(#filter5_ii_565_187863)">
<path d="M274 846H433V886C433 894.837 425.837 902 417 902H290C281.163 902 274 894.837 274 886V846Z" fill="white" fill-opacity="0.2"/>
</g>
<g filter="url(#filter6_i_565_187863)">
<path d="M274 648C274 639.163 281.163 632 290 632H417C425.837 632 433 639.163 433 648V861C433 869.837 425.837 877 417 877H290C281.163 877 274 869.837 274 861V648Z" fill="#0F172A"/>
</g>
<mask id="mask2_565_187863" style="mask-type:alpha" maskUnits="userSpaceOnUse" x="274" y="632" width="159" height="245">
<path d="M274 648C274 639.163 281.163 632 290 632H417C425.837 632 433 639.163 433 648V861C433 869.837 425.837 877 417 877H290C281.163 877 274 869.837 274 861V648Z" fill="#0F172A"/>
</mask>
<g mask="url(#mask2_565_187863)">
<g opacity="0.1">
<path d="M567 -82H536.231L160 1590H190.769L567 -82Z" fill="white"/>
<path d="M518 -37H506.75L141 1590H152.25L518 -37Z" fill="white"/>
</g>
</g>
<g filter="url(#filter7_ii_565_187863)">
<path d="M663 846H822V886C822 894.837 814.837 902 806 902H679C670.163 902 663 894.837 663 886V846Z" fill="white" fill-opacity="0.2"/>
</g>
<g filter="url(#filter8_i_565_187863)">
<path d="M663 648C663 639.163 670.163 632 679 632H806C814.837 632 822 639.163 822 648V861C822 869.837 814.837 877 806 877H679C670.163 877 663 869.837 663 861V648Z" fill="#0F172A"/>
</g>
<mask id="mask3_565_187863" style="mask-type:alpha" maskUnits="userSpaceOnUse" x="663" y="632" width="159" height="245">
<path d="M663 648C663 639.163 670.163 632 679 632H806C814.837 632 822 639.163 822 648V861C822 869.837 814.837 877 806 877H679C670.163 877 663 869.837 663 861V648Z" fill="#0F172A"/>
</mask>
<g mask="url(#mask3_565_187863)">
<g opacity="0.1">
<path d="M956 -82H925.231L549 1590H579.769L956 -82Z" fill="white"/>
<path d="M907 -37H895.75L530 1590H541.25L907 -37Z" fill="white"/>
</g>
</g>
<g filter="url(#filter9_d_565_187863)">
<rect x="38" y="601" width="825" height="332" rx="13.2928" stroke="black" stroke-opacity="0.12" stroke-width="4" shape-rendering="crispEdges"/>
<circle cx="49.8793" cy="612.881" r="4.23481" fill="black" fill-opacity="0.4"/>
<circle cx="49.8793" cy="921.119" r="4.23481" fill="black" fill-opacity="0.4"/>
<circle cx="851.118" cy="612.881" r="4.23481" fill="black" fill-opacity="0.4"/>
<circle cx="851.118" cy="921.119" r="4.23481" fill="black" fill-opacity="0.4"/>
</g>
</g>
<defs>
<filter id="filter0_d_565_187863" x="0" y="0" width="900" height="1051" filterUnits="userSpaceOnUse" color-interpolation-filters="sRGB">
<feFlood flood-opacity="0" result="BackgroundImageFix"/>
<feColorMatrix in="SourceAlpha" type="matrix" values="0 0 0 0 0 0 0 0 0 0 0 0 0 0 0 0 0 0 127 0" result="hardAlpha"/>
<feOffset dy="4"/>
<feComposite in2="hardAlpha" operator="out"/>
<feColorMatrix type="matrix" values="0 0 0 0 0 0 0 0 0 0 0 0 0 0 0 0 0 0 0.25 0"/>
<feBlend mode="normal" in2="BackgroundImageFix" result="effect1_dropShadow_565_187863"/>
<feBlend mode="normal" in="SourceGraphic" in2="effect1_dropShadow_565_187863" result="shape"/>
</filter>
<filter id="filter1_ii_565_187863" x="75" y="846" width="167" height="68" filterUnits="userSpaceOnUse" color-interpolation-filters="sRGB">
<feFlood flood-opacity="0" result="BackgroundImageFix"/>
<feBlend mode="normal" in="SourceGraphic" in2="BackgroundImageFix" result="shape"/>
<feColorMatrix in="SourceAlpha" type="matrix" values="0 0 0 0 0 0 0 0 0 0 0 0 0 0 0 0 0 0 127 0" result="hardAlpha"/>
<feOffset dx="-4" dy="18"/>
<feGaussianBlur stdDeviation="6"/>
<feComposite in2="hardAlpha" operator="arithmetic" k2="-1" k3="1"/>
<feColorMatrix type="matrix" values="0 0 0 0 0 0 0 0 0 0 0 0 0 0 0 0 0 0 0.25 0"/>
<feBlend mode="normal" in2="shape" result="effect1_innerShadow_565_187863"/>
<feColorMatrix in="SourceAlpha" type="matrix" values="0 0 0 0 0 0 0 0 0 0 0 0 0 0 0 0 0 0 127 0" result="hardAlpha"/>
<feOffset dx="4" dy="17"/>
<feGaussianBlur stdDeviation="6"/>
<feComposite in2="hardAlpha" operator="arithmetic" k2="-1" k3="1"/>
<feColorMatrix type="matrix" values="0 0 0 0 1 0 0 0 0 1 0 0 0 0 1 0 0 0 0.25 0"/>
<feBlend mode="normal" in2="effect1_innerShadow_565_187863" result="effect2_innerShadow_565_187863"/>
</filter>
<filter id="filter2_i_565_187863" x="79" y="632" width="159" height="245" filterUnits="userSpaceOnUse" color-interpolation-filters="sRGB">
<feFlood flood-opacity="0" result="BackgroundImageFix"/>
<feBlend mode="normal" in="SourceGraphic" in2="BackgroundImageFix" result="shape"/>
<feColorMatrix in="SourceAlpha" type="matrix" values="0 0 0 0 0 0 0 0 0 0 0 0 0 0 0 0 0 0 127 0" result="hardAlpha"/>
<feOffset dy="8"/>
<feComposite in2="hardAlpha" operator="arithmetic" k2="-1" k3="1"/>
<feColorMatrix type="matrix" values="0 0 0 0 0 0 0 0 0 0 0 0 0 0 0 0 0 0 0.35 0"/>
<feBlend mode="normal" in2="shape" result="effect1_innerShadow_565_187863"/>
</filter>
<filter id="filter3_ii_565_187863" x="464" y="846" width="167" height="68" filterUnits="userSpaceOnUse" color-interpolation-filters="sRGB">
<feFlood flood-opacity="0" result="BackgroundImageFix"/>
<feBlend mode="normal" in="SourceGraphic" in2="BackgroundImageFix" result="shape"/>
<feColorMatrix in="SourceAlpha" type="matrix" values="0 0 0 0 0 0 0 0 0 0 0 0 0 0 0 0 0 0 127 0" result="hardAlpha"/>
<feOffset dx="-4" dy="18"/>
<feGaussianBlur stdDeviation="6"/>
<feComposite in2="hardAlpha" operator="arithmetic" k2="-1" k3="1"/>
<feColorMatrix type="matrix" values="0 0 0 0 0 0 0 0 0 0 0 0 0 0 0 0 0 0 0.25 0"/>
<feBlend mode="normal" in2="shape" result="effect1_innerShadow_565_187863"/>
<feColorMatrix in="SourceAlpha" type="matrix" values="0 0 0 0 0 0 0 0 0 0 0 0 0 0 0 0 0 0 127 0" result="hardAlpha"/>
<feOffset dx="4" dy="17"/>
<feGaussianBlur stdDeviation="6"/>
<feComposite in2="hardAlpha" operator="arithmetic" k2="-1" k3="1"/>
<feColorMatrix type="matrix" values="0 0 0 0 1 0 0 0 0 1 0 0 0 0 1 0 0 0 0.25 0"/>
<feBlend mode="normal" in2="effect1_innerShadow_565_187863" result="effect2_innerShadow_565_187863"/>
</filter>
<filter id="filter4_i_565_187863" x="468" y="632" width="159" height="245" filterUnits="userSpaceOnUse" color-interpolation-filters="sRGB">
<feFlood flood-opacity="0" result="BackgroundImageFix"/>
<feBlend mode="normal" in="SourceGraphic" in2="BackgroundImageFix" result="shape"/>
<feColorMatrix in="SourceAlpha" type="matrix" values="0 0 0 0 0 0 0 0 0 0 0 0 0 0 0 0 0 0 127 0" result="hardAlpha"/>
<feOffset dy="8"/>
<feComposite in2="hardAlpha" operator="arithmetic" k2="-1" k3="1"/>
<feColorMatrix type="matrix" values="0 0 0 0 0 0 0 0 0 0 0 0 0 0 0 0 0 0 0.35 0"/>
<feBlend mode="normal" in2="shape" result="effect1_innerShadow_565_187863"/>
</filter>
<filter id="filter5_ii_565_187863" x="270" y="846" width="167" height="68" filterUnits="userSpaceOnUse" color-interpolation-filters="sRGB">
<feFlood flood-opacity="0" result="BackgroundImageFix"/>
<feBlend mode="normal" in="SourceGraphic" in2="BackgroundImageFix" result="shape"/>
<feColorMatrix in="SourceAlpha" type="matrix" values="0 0 0 0 0 0 0 0 0 0 0 0 0 0 0 0 0 0 127 0" result="hardAlpha"/>
<feOffset dx="-4" dy="18"/>
<feGaussianBlur stdDeviation="6"/>
<feComposite in2="hardAlpha" operator="arithmetic" k2="-1" k3="1"/>
<feColorMatrix type="matrix" values="0 0 0 0 0 0 0 0 0 0 0 0 0 0 0 0 0 0 0.25 0"/>
<feBlend mode="normal" in2="shape" result="effect1_innerShadow_565_187863"/>
<feColorMatrix in="SourceAlpha" type="matrix" values="0 0 0 0 0 0 0 0 0 0 0 0 0 0 0 0 0 0 127 0" result="hardAlpha"/>
<feOffset dx="4" dy="17"/>
<feGaussianBlur stdDeviation="6"/>
<feComposite in2="hardAlpha" operator="arithmetic" k2="-1" k3="1"/>
<feColorMatrix type="matrix" values="0 0 0 0 1 0 0 0 0 1 0 0 0 0 1 0 0 0 0.25 0"/>
<feBlend mode="normal" in2="effect1_innerShadow_565_187863" result="effect2_innerShadow_565_187863"/>
</filter>
<filter id="filter6_i_565_187863" x="274" y="632" width="159" height="245" filterUnits="userSpaceOnUse" color-interpolation-filters="sRGB">
<feFlood flood-opacity="0" result="BackgroundImageFix"/>
<feBlend mode="normal" in="SourceGraphic" in2="BackgroundImageFix" result="shape"/>
<feColorMatrix in="SourceAlpha" type="matrix" values="0 0 0 0 0 0 0 0 0 0 0 0 0 0 0 0 0 0 127 0" result="hardAlpha"/>
<feOffset dy="8"/>
<feComposite in2="hardAlpha" operator="arithmetic" k2="-1" k3="1"/>
<feColorMatrix type="matrix" values="0 0 0 0 0 0 0 0 0 0 0 0 0 0 0 0 0 0 0.35 0"/>
<feBlend mode="normal" in2="shape" result="effect1_innerShadow_565_187863"/>
</filter>
<filter id="filter7_ii_565_187863" x="659" y="846" width="167" height="68" filterUnits="userSpaceOnUse" color-interpolation-filters="sRGB">
<feFlood flood-opacity="0" result="BackgroundImageFix"/>
<feBlend mode="normal" in="SourceGraphic" in2="BackgroundImageFix" result="shape"/>
<feColorMatrix in="SourceAlpha" type="matrix" values="0 0 0 0 0 0 0 0 0 0 0 0 0 0 0 0 0 0 127 0" result="hardAlpha"/>
<feOffset dx="-4" dy="18"/>
<feGaussianBlur stdDeviation="6"/>
<feComposite in2="hardAlpha" operator="arithmetic" k2="-1" k3="1"/>
<feColorMatrix type="matrix" values="0 0 0 0 0 0 0 0 0 0 0 0 0 0 0 0 0 0 0.25 0"/>
<feBlend mode="normal" in2="shape" result="effect1_innerShadow_565_187863"/>
<feColorMatrix in="SourceAlpha" type="matrix" values="0 0 0 0 0 0 0 0 0 0 0 0 0 0 0 0 0 0 127 0" result="hardAlpha"/>
<feOffset dx="4" dy="17"/>
<feGaussianBlur stdDeviation="6"/>
<feComposite in2="hardAlpha" operator="arithmetic" k2="-1" k3="1"/>
<feColorMatrix type="matrix" values="0 0 0 0 1 0 0 0 0 1 0 0 0 0 1 0 0 0 0.25 0"/>
<feBlend mode="normal" in2="effect1_innerShadow_565_187863" result="effect2_innerShadow_565_187863"/>
</filter>
<filter id="filter8_i_565_187863" x="663" y="632" width="159" height="245" filterUnits="userSpaceOnUse" color-interpolation-filters="sRGB">
<feFlood flood-opacity="0" result="BackgroundImageFix"/>
<feBlend mode="normal" in="SourceGraphic" in2="BackgroundImageFix" result="shape"/>
<feColorMatrix in="SourceAlpha" type="matrix" values="0 0 0 0 0 0 0 0 0 0 0 0 0 0 0 0 0 0 127 0" result="hardAlpha"/>
<feOffset dy="8"/>
<feComposite in2="hardAlpha" operator="arithmetic" k2="-1" k3="1"/>
<feColorMatrix type="matrix" values="0 0 0 0 0 0 0 0 0 0 0 0 0 0 0 0 0 0 0.35 0"/>
<feBlend mode="normal" in2="shape" result="effect1_innerShadow_565_187863"/>
</filter>
<filter id="filter9_d_565_187863" x="34" y="599" width="831" height="339.41" filterUnits="userSpaceOnUse" color-interpolation-filters="sRGB">
<feFlood flood-opacity="0" result="BackgroundImageFix"/>
<feColorMatrix in="SourceAlpha" type="matrix" values="0 0 0 0 0 0 0 0 0 0 0 0 0 0 0 0 0 0 127 0" result="hardAlpha"/>
<feOffset dx="-2" dy="3.41"/>
<feComposite in2="hardAlpha" operator="out"/>
<feColorMatrix type="matrix" values="0 0 0 0 1 0 0 0 0 1 0 0 0 0 1 0 0 0 0.15 0"/>
<feBlend mode="normal" in2="BackgroundImageFix" result="effect1_dropShadow_565_187863"/>
<feBlend mode="normal" in="SourceGraphic" in2="effect1_dropShadow_565_187863" result="shape"/>
</filter>
</defs>
</svg>
