<svg width="432" height="680" viewBox="0 0 432 680" fill="none" xmlns="http://www.w3.org/2000/svg">
<path opacity="0.4" d="M420.149 637.551L261.79 76.1575C257.774 61.9193 244.783 52.0859 229.989 52.0859H202.011C187.217 52.0859 174.226 61.9193 170.21 76.1575L11.851 637.551C5.90372 658.634 21.7458 679.563 43.652 679.563H388.348C410.254 679.563 426.096 658.634 420.149 637.551Z" fill="url(#paint0_linear_565_190872)"/>
<g filter="url(#filter0_i_565_190872)">
<rect x="200" width="16" height="53" rx="8" fill="#334155"/>
</g>
<g filter="url(#filter1_i_565_190872)">
<rect x="218" width="16" height="53" rx="8" fill="#334155"/>
</g>
<g filter="url(#filter2_i_565_190872)">
<path d="M260 51.2511C260 42.8287 253.172 36.001 244.75 36.0009L188.25 36.0002C179.828 36.0001 173 42.8279 173 51.2504V72.7489C173 81.1713 179.828 87.999 188.25 87.9991L244.75 87.9998C253.172 87.9999 260 81.1721 260 72.7496V51.2511Z" fill="#FEF08A"/>
</g>
<g filter="url(#filter3_ii_565_190872)">
<path d="M267 43.251C267 34.8287 260.172 28.001 251.75 28.0009L181.25 28.0002C172.828 28.0001 166 34.8278 166 43.2503V60.749C166 69.1713 172.828 75.999 181.25 75.9991L251.75 75.9998C260.172 75.9999 267 69.1722 267 60.7497V43.251Z" fill="#334155"/>
</g>
<path d="M267 35.2502C267 26.8277 260.172 20 251.75 20L181.25 20C172.828 20 166 26.8277 166 35.2502V40.7498C166 49.1723 172.828 56 181.25 56H251.75C260.172 56 267 49.1723 267 40.7498V35.2502Z" fill="#64748B"/>
<defs>
<filter id="filter0_i_565_190872" x="197" y="-4" width="19" height="57" filterUnits="userSpaceOnUse" color-interpolation-filters="sRGB">
<feFlood flood-opacity="0" result="BackgroundImageFix"/>
<feBlend mode="normal" in="SourceGraphic" in2="BackgroundImageFix" result="shape"/>
<feColorMatrix in="SourceAlpha" type="matrix" values="0 0 0 0 0 0 0 0 0 0 0 0 0 0 0 0 0 0 127 0" result="hardAlpha"/>
<feOffset dx="-3" dy="-4"/>
<feGaussianBlur stdDeviation="3.5"/>
<feComposite in2="hardAlpha" operator="arithmetic" k2="-1" k3="1"/>
<feColorMatrix type="matrix" values="0 0 0 0 1 0 0 0 0 1 0 0 0 0 1 0 0 0 0.25 0"/>
<feBlend mode="normal" in2="shape" result="effect1_innerShadow_565_190872"/>
</filter>
<filter id="filter1_i_565_190872" x="215" y="-4" width="19" height="57" filterUnits="userSpaceOnUse" color-interpolation-filters="sRGB">
<feFlood flood-opacity="0" result="BackgroundImageFix"/>
<feBlend mode="normal" in="SourceGraphic" in2="BackgroundImageFix" result="shape"/>
<feColorMatrix in="SourceAlpha" type="matrix" values="0 0 0 0 0 0 0 0 0 0 0 0 0 0 0 0 0 0 127 0" result="hardAlpha"/>
<feOffset dx="-3" dy="-4"/>
<feGaussianBlur stdDeviation="3.5"/>
<feComposite in2="hardAlpha" operator="arithmetic" k2="-1" k3="1"/>
<feColorMatrix type="matrix" values="0 0 0 0 1 0 0 0 0 1 0 0 0 0 1 0 0 0 0.25 0"/>
<feBlend mode="normal" in2="shape" result="effect1_innerShadow_565_190872"/>
</filter>
<filter id="filter2_i_565_190872" x="173" y="30.9168" width="87" height="57.083" filterUnits="userSpaceOnUse" color-interpolation-filters="sRGB">
<feFlood flood-opacity="0" result="BackgroundImageFix"/>
<feBlend mode="normal" in="SourceGraphic" in2="BackgroundImageFix" result="shape"/>
<feColorMatrix in="SourceAlpha" type="matrix" values="0 0 0 0 0 0 0 0 0 0 0 0 0 0 0 0 0 0 127 0" result="hardAlpha"/>
<feOffset dy="-7.62509"/>
<feGaussianBlur stdDeviation="2.5417"/>
<feComposite in2="hardAlpha" operator="arithmetic" k2="-1" k3="1"/>
<feColorMatrix type="matrix" values="0 0 0 0 1 0 0 0 0 1 0 0 0 0 1 0 0 0 0.55 0"/>
<feBlend mode="normal" in2="shape" result="effect1_innerShadow_565_190872"/>
</filter>
<filter id="filter3_ii_565_190872" x="160.917" y="28.0002" width="111.167" height="53.0831" filterUnits="userSpaceOnUse" color-interpolation-filters="sRGB">
<feFlood flood-opacity="0" result="BackgroundImageFix"/>
<feBlend mode="normal" in="SourceGraphic" in2="BackgroundImageFix" result="shape"/>
<feColorMatrix in="SourceAlpha" type="matrix" values="0 0 0 0 0 0 0 0 0 0 0 0 0 0 0 0 0 0 127 0" result="hardAlpha"/>
<feOffset dx="5.08339" dy="5.08339"/>
<feGaussianBlur stdDeviation="5.08339"/>
<feComposite in2="hardAlpha" operator="arithmetic" k2="-1" k3="1"/>
<feColorMatrix type="matrix" values="0 0 0 0 0 0 0 0 0 0 0 0 0 0 0 0 0 0 0.25 0"/>
<feBlend mode="normal" in2="shape" result="effect1_innerShadow_565_190872"/>
<feColorMatrix in="SourceAlpha" type="matrix" values="0 0 0 0 0 0 0 0 0 0 0 0 0 0 0 0 0 0 127 0" result="hardAlpha"/>
<feOffset dx="-5.08339" dy="5.08339"/>
<feGaussianBlur stdDeviation="5.08339"/>
<feComposite in2="hardAlpha" operator="arithmetic" k2="-1" k3="1"/>
<feColorMatrix type="matrix" values="0 0 0 0 1 0 0 0 0 1 0 0 0 0 1 0 0 0 0.25 0"/>
<feBlend mode="normal" in2="effect1_innerShadow_565_190872" result="effect2_innerShadow_565_190872"/>
</filter>
<linearGradient id="paint0_linear_565_190872" x1="214.992" y1="52.0859" x2="214.992" y2="698" gradientUnits="userSpaceOnUse">
<stop offset="0.140625" stop-color="#FEFCE8"/>
<stop offset="0.380208" stop-color="#FEFCE8" stop-opacity="0"/>
</linearGradient>
</defs>
</svg>
