<svg width="900" height="1226" viewBox="0 0 900 1226" fill="none" xmlns="http://www.w3.org/2000/svg">
<path d="M833 1101C833 1096.58 829.418 1093 825 1093H75C70.5817 1093 67 1096.58 67 1101V1218C67 1222.42 70.5817 1226 75 1226H825C829.418 1226 833 1222.42 833 1218V1101Z" fill="black" fill-opacity="0.2"/>
<g filter="url(#filter0_i_565_187707)">
<path d="M825 1093H75V1217H825V1093Z" fill="#334155"/>
</g>
<g filter="url(#filter1_ii_565_187707)">
<path d="M900 442C900 400.579 866.421 367 825 367H75C33.5786 367 0 400.579 0 442V1063C0 1104.42 33.5787 1138 75 1138H825C866.421 1138 900 1104.42 900 1063V442Z" fill="#475569"/>
</g>
<g filter="url(#filter2_ii_565_187707)">
<path d="M114 772H787V812C787 820.837 779.837 828 771 828H130C121.163 828 114 820.837 114 812V772Z" fill="white" fill-opacity="0.2"/>
</g>
<g filter="url(#filter3_i_565_187707)">
<path d="M114 625C114 616.163 121.163 609 130 609H771C779.837 609 787 616.163 787 625V787C787 795.837 779.837 803 771 803H130C121.163 803 114 795.837 114 787V625Z" fill="#0F172A"/>
</g>
<mask id="mask0_565_187707" style="mask-type:alpha" maskUnits="userSpaceOnUse" x="114" y="609" width="673" height="194">
<path d="M114 625C114 616.163 121.163 609 130 609H771C779.837 609 787 616.163 787 625V787C787 795.837 779.837 803 771 803H130C121.163 803 114 795.837 114 787V625Z" fill="#0F172A"/>
</mask>
<g mask="url(#mask0_565_187707)">
<g opacity="0.1">
<path d="M664 -130H633.231L257 1542H287.769L664 -130Z" fill="white"/>
<path d="M615 -85H603.75L238 1542H249.25L615 -85Z" fill="white"/>
</g>
</g>
<g filter="url(#filter4_ii_565_187707)">
<path d="M114 1020H787V1060C787 1068.84 779.837 1076 771 1076H130C121.163 1076 114 1068.84 114 1060V1020Z" fill="white" fill-opacity="0.2"/>
</g>
<g filter="url(#filter5_i_565_187707)">
<path d="M114 873C114 864.163 121.163 857 130 857H771C779.837 857 787 864.163 787 873V1035C787 1043.84 779.837 1051 771 1051H130C121.163 1051 114 1043.84 114 1035V873Z" fill="#0F172A"/>
</g>
<mask id="mask1_565_187707" style="mask-type:alpha" maskUnits="userSpaceOnUse" x="114" y="857" width="673" height="194">
<path d="M114 873C114 864.163 121.163 857 130 857H771C779.837 857 787 864.163 787 873V1035C787 1043.84 779.837 1051 771 1051H130C121.163 1051 114 1043.84 114 1035V873Z" fill="#0F172A"/>
</mask>
<g mask="url(#mask1_565_187707)">
<g opacity="0.1">
<path d="M664 118H633.231L257 1790H287.769L664 118Z" fill="white"/>
<path d="M615 163H603.75L238 1790H249.25L615 163Z" fill="white"/>
</g>
</g>
<path d="M900 75C900 33.5786 866.421 0 825 0H75C33.5786 0 0 33.5786 0 75V467C0 508.421 33.5787 542 75 542H825C866.421 542 900 508.421 900 467V75Z" fill="#64748B"/>
<g filter="url(#filter6_i_565_187707)">
<rect x="112" y="428" width="69.6429" height="208" rx="16" transform="rotate(-90 112 428)" fill="black" fill-opacity="0.2"/>
</g>
<g filter="url(#filter7_i_565_187707)">
<rect x="112" y="342.881" width="69.6429" height="208" rx="16" transform="rotate(-90 112 342.881)" fill="black" fill-opacity="0.2"/>
</g>
<g filter="url(#filter8_i_565_187707)">
<rect x="112" y="257.762" width="69.6429" height="208" rx="16" transform="rotate(-90 112 257.762)" fill="black" fill-opacity="0.2"/>
</g>
<g filter="url(#filter9_i_565_187707)">
<rect x="112" y="172.643" width="69.6429" height="208" rx="16" transform="rotate(-90 112 172.643)" fill="black" fill-opacity="0.2"/>
</g>
<g filter="url(#filter10_i_565_187707)">
<rect x="581" y="428" width="69.6429" height="208" rx="16" transform="rotate(-90 581 428)" fill="black" fill-opacity="0.2"/>
</g>
<g filter="url(#filter11_i_565_187707)">
<rect x="581" y="342.881" width="69.6429" height="208" rx="16" transform="rotate(-90 581 342.881)" fill="black" fill-opacity="0.2"/>
</g>
<g filter="url(#filter12_i_565_187707)">
<rect x="581" y="257.762" width="69.6429" height="208" rx="16" transform="rotate(-90 581 257.762)" fill="black" fill-opacity="0.2"/>
</g>
<g filter="url(#filter13_i_565_187707)">
<rect x="581" y="172.643" width="69.6429" height="208" rx="16" transform="rotate(-90 581 172.643)" fill="black" fill-opacity="0.2"/>
</g>
<g filter="url(#filter14_d_565_187707)">
<rect x="74" y="570" width="753" height="537" rx="13.2928" stroke="black" stroke-opacity="0.12" stroke-width="4" shape-rendering="crispEdges"/>
<circle cx="85.8793" cy="581.881" r="4.23481" fill="black" fill-opacity="0.4"/>
<circle cx="85.8793" cy="1095.12" r="4.23481" fill="black" fill-opacity="0.4"/>
<circle cx="815.118" cy="581.881" r="4.23481" fill="black" fill-opacity="0.4"/>
<circle cx="815.118" cy="1095.12" r="4.23481" fill="black" fill-opacity="0.4"/>
</g>
<defs>
<filter id="filter0_i_565_187707" x="75" y="1093" width="750" height="124" filterUnits="userSpaceOnUse" color-interpolation-filters="sRGB">
<feFlood flood-opacity="0" result="BackgroundImageFix"/>
<feBlend mode="normal" in="SourceGraphic" in2="BackgroundImageFix" result="shape"/>
<feColorMatrix in="SourceAlpha" type="matrix" values="0 0 0 0 0 0 0 0 0 0 0 0 0 0 0 0 0 0 127 0" result="hardAlpha"/>
<feOffset dy="76"/>
<feComposite in2="hardAlpha" operator="arithmetic" k2="-1" k3="1"/>
<feColorMatrix type="matrix" values="0 0 0 0 0 0 0 0 0 0 0 0 0 0 0 0 0 0 0.25 0"/>
<feBlend mode="normal" in2="shape" result="effect1_innerShadow_565_187707"/>
</filter>
<filter id="filter1_ii_565_187707" x="-56" y="367" width="1012" height="839" filterUnits="userSpaceOnUse" color-interpolation-filters="sRGB">
<feFlood flood-opacity="0" result="BackgroundImageFix"/>
<feBlend mode="normal" in="SourceGraphic" in2="BackgroundImageFix" result="shape"/>
<feColorMatrix in="SourceAlpha" type="matrix" values="0 0 0 0 0 0 0 0 0 0 0 0 0 0 0 0 0 0 127 0" result="hardAlpha"/>
<feOffset dx="56" dy="116"/>
<feGaussianBlur stdDeviation="34"/>
<feComposite in2="hardAlpha" operator="arithmetic" k2="-1" k3="1"/>
<feColorMatrix type="matrix" values="0 0 0 0 0 0 0 0 0 0 0 0 0 0 0 0 0 0 0.25 0"/>
<feBlend mode="normal" in2="shape" result="effect1_innerShadow_565_187707"/>
<feColorMatrix in="SourceAlpha" type="matrix" values="0 0 0 0 0 0 0 0 0 0 0 0 0 0 0 0 0 0 127 0" result="hardAlpha"/>
<feOffset dx="-56" dy="116"/>
<feGaussianBlur stdDeviation="34"/>
<feComposite in2="hardAlpha" operator="arithmetic" k2="-1" k3="1"/>
<feColorMatrix type="matrix" values="0 0 0 0 1 0 0 0 0 1 0 0 0 0 1 0 0 0 0.15 0"/>
<feBlend mode="normal" in2="effect1_innerShadow_565_187707" result="effect2_innerShadow_565_187707"/>
</filter>
<filter id="filter2_ii_565_187707" x="110" y="772" width="681" height="68" filterUnits="userSpaceOnUse" color-interpolation-filters="sRGB">
<feFlood flood-opacity="0" result="BackgroundImageFix"/>
<feBlend mode="normal" in="SourceGraphic" in2="BackgroundImageFix" result="shape"/>
<feColorMatrix in="SourceAlpha" type="matrix" values="0 0 0 0 0 0 0 0 0 0 0 0 0 0 0 0 0 0 127 0" result="hardAlpha"/>
<feOffset dx="-4" dy="18"/>
<feGaussianBlur stdDeviation="6"/>
<feComposite in2="hardAlpha" operator="arithmetic" k2="-1" k3="1"/>
<feColorMatrix type="matrix" values="0 0 0 0 0 0 0 0 0 0 0 0 0 0 0 0 0 0 0.25 0"/>
<feBlend mode="normal" in2="shape" result="effect1_innerShadow_565_187707"/>
<feColorMatrix in="SourceAlpha" type="matrix" values="0 0 0 0 0 0 0 0 0 0 0 0 0 0 0 0 0 0 127 0" result="hardAlpha"/>
<feOffset dx="4" dy="17"/>
<feGaussianBlur stdDeviation="6"/>
<feComposite in2="hardAlpha" operator="arithmetic" k2="-1" k3="1"/>
<feColorMatrix type="matrix" values="0 0 0 0 1 0 0 0 0 1 0 0 0 0 1 0 0 0 0.25 0"/>
<feBlend mode="normal" in2="effect1_innerShadow_565_187707" result="effect2_innerShadow_565_187707"/>
</filter>
<filter id="filter3_i_565_187707" x="114" y="609" width="673" height="194" filterUnits="userSpaceOnUse" color-interpolation-filters="sRGB">
<feFlood flood-opacity="0" result="BackgroundImageFix"/>
<feBlend mode="normal" in="SourceGraphic" in2="BackgroundImageFix" result="shape"/>
<feColorMatrix in="SourceAlpha" type="matrix" values="0 0 0 0 0 0 0 0 0 0 0 0 0 0 0 0 0 0 127 0" result="hardAlpha"/>
<feOffset dy="8"/>
<feComposite in2="hardAlpha" operator="arithmetic" k2="-1" k3="1"/>
<feColorMatrix type="matrix" values="0 0 0 0 0 0 0 0 0 0 0 0 0 0 0 0 0 0 0.35 0"/>
<feBlend mode="normal" in2="shape" result="effect1_innerShadow_565_187707"/>
</filter>
<filter id="filter4_ii_565_187707" x="110" y="1020" width="681" height="68" filterUnits="userSpaceOnUse" color-interpolation-filters="sRGB">
<feFlood flood-opacity="0" result="BackgroundImageFix"/>
<feBlend mode="normal" in="SourceGraphic" in2="BackgroundImageFix" result="shape"/>
<feColorMatrix in="SourceAlpha" type="matrix" values="0 0 0 0 0 0 0 0 0 0 0 0 0 0 0 0 0 0 127 0" result="hardAlpha"/>
<feOffset dx="-4" dy="18"/>
<feGaussianBlur stdDeviation="6"/>
<feComposite in2="hardAlpha" operator="arithmetic" k2="-1" k3="1"/>
<feColorMatrix type="matrix" values="0 0 0 0 0 0 0 0 0 0 0 0 0 0 0 0 0 0 0.25 0"/>
<feBlend mode="normal" in2="shape" result="effect1_innerShadow_565_187707"/>
<feColorMatrix in="SourceAlpha" type="matrix" values="0 0 0 0 0 0 0 0 0 0 0 0 0 0 0 0 0 0 127 0" result="hardAlpha"/>
<feOffset dx="4" dy="17"/>
<feGaussianBlur stdDeviation="6"/>
<feComposite in2="hardAlpha" operator="arithmetic" k2="-1" k3="1"/>
<feColorMatrix type="matrix" values="0 0 0 0 1 0 0 0 0 1 0 0 0 0 1 0 0 0 0.25 0"/>
<feBlend mode="normal" in2="effect1_innerShadow_565_187707" result="effect2_innerShadow_565_187707"/>
</filter>
<filter id="filter5_i_565_187707" x="114" y="857" width="673" height="194" filterUnits="userSpaceOnUse" color-interpolation-filters="sRGB">
<feFlood flood-opacity="0" result="BackgroundImageFix"/>
<feBlend mode="normal" in="SourceGraphic" in2="BackgroundImageFix" result="shape"/>
<feColorMatrix in="SourceAlpha" type="matrix" values="0 0 0 0 0 0 0 0 0 0 0 0 0 0 0 0 0 0 127 0" result="hardAlpha"/>
<feOffset dy="8"/>
<feComposite in2="hardAlpha" operator="arithmetic" k2="-1" k3="1"/>
<feColorMatrix type="matrix" values="0 0 0 0 0 0 0 0 0 0 0 0 0 0 0 0 0 0 0.35 0"/>
<feBlend mode="normal" in2="shape" result="effect1_innerShadow_565_187707"/>
</filter>
<filter id="filter6_i_565_187707" x="112" y="358.357" width="208" height="69.6431" filterUnits="userSpaceOnUse" color-interpolation-filters="sRGB">
<feFlood flood-opacity="0" result="BackgroundImageFix"/>
<feBlend mode="normal" in="SourceGraphic" in2="BackgroundImageFix" result="shape"/>
<feColorMatrix in="SourceAlpha" type="matrix" values="0 0 0 0 0 0 0 0 0 0 0 0 0 0 0 0 0 0 127 0" result="hardAlpha"/>
<feOffset dy="8"/>
<feComposite in2="hardAlpha" operator="arithmetic" k2="-1" k3="1"/>
<feColorMatrix type="matrix" values="0 0 0 0 0 0 0 0 0 0 0 0 0 0 0 0 0 0 0.35 0"/>
<feBlend mode="normal" in2="shape" result="effect1_innerShadow_565_187707"/>
</filter>
<filter id="filter7_i_565_187707" x="112" y="273.238" width="208" height="69.6431" filterUnits="userSpaceOnUse" color-interpolation-filters="sRGB">
<feFlood flood-opacity="0" result="BackgroundImageFix"/>
<feBlend mode="normal" in="SourceGraphic" in2="BackgroundImageFix" result="shape"/>
<feColorMatrix in="SourceAlpha" type="matrix" values="0 0 0 0 0 0 0 0 0 0 0 0 0 0 0 0 0 0 127 0" result="hardAlpha"/>
<feOffset dy="8"/>
<feComposite in2="hardAlpha" operator="arithmetic" k2="-1" k3="1"/>
<feColorMatrix type="matrix" values="0 0 0 0 0 0 0 0 0 0 0 0 0 0 0 0 0 0 0.35 0"/>
<feBlend mode="normal" in2="shape" result="effect1_innerShadow_565_187707"/>
</filter>
<filter id="filter8_i_565_187707" x="112" y="188.119" width="208" height="69.6431" filterUnits="userSpaceOnUse" color-interpolation-filters="sRGB">
<feFlood flood-opacity="0" result="BackgroundImageFix"/>
<feBlend mode="normal" in="SourceGraphic" in2="BackgroundImageFix" result="shape"/>
<feColorMatrix in="SourceAlpha" type="matrix" values="0 0 0 0 0 0 0 0 0 0 0 0 0 0 0 0 0 0 127 0" result="hardAlpha"/>
<feOffset dy="8"/>
<feComposite in2="hardAlpha" operator="arithmetic" k2="-1" k3="1"/>
<feColorMatrix type="matrix" values="0 0 0 0 0 0 0 0 0 0 0 0 0 0 0 0 0 0 0.35 0"/>
<feBlend mode="normal" in2="shape" result="effect1_innerShadow_565_187707"/>
</filter>
<filter id="filter9_i_565_187707" x="112" y="103" width="208" height="69.6431" filterUnits="userSpaceOnUse" color-interpolation-filters="sRGB">
<feFlood flood-opacity="0" result="BackgroundImageFix"/>
<feBlend mode="normal" in="SourceGraphic" in2="BackgroundImageFix" result="shape"/>
<feColorMatrix in="SourceAlpha" type="matrix" values="0 0 0 0 0 0 0 0 0 0 0 0 0 0 0 0 0 0 127 0" result="hardAlpha"/>
<feOffset dy="8"/>
<feComposite in2="hardAlpha" operator="arithmetic" k2="-1" k3="1"/>
<feColorMatrix type="matrix" values="0 0 0 0 0 0 0 0 0 0 0 0 0 0 0 0 0 0 0.35 0"/>
<feBlend mode="normal" in2="shape" result="effect1_innerShadow_565_187707"/>
</filter>
<filter id="filter10_i_565_187707" x="581" y="358.357" width="208" height="69.6431" filterUnits="userSpaceOnUse" color-interpolation-filters="sRGB">
<feFlood flood-opacity="0" result="BackgroundImageFix"/>
<feBlend mode="normal" in="SourceGraphic" in2="BackgroundImageFix" result="shape"/>
<feColorMatrix in="SourceAlpha" type="matrix" values="0 0 0 0 0 0 0 0 0 0 0 0 0 0 0 0 0 0 127 0" result="hardAlpha"/>
<feOffset dy="8"/>
<feComposite in2="hardAlpha" operator="arithmetic" k2="-1" k3="1"/>
<feColorMatrix type="matrix" values="0 0 0 0 0 0 0 0 0 0 0 0 0 0 0 0 0 0 0.35 0"/>
<feBlend mode="normal" in2="shape" result="effect1_innerShadow_565_187707"/>
</filter>
<filter id="filter11_i_565_187707" x="581" y="273.238" width="208" height="69.6431" filterUnits="userSpaceOnUse" color-interpolation-filters="sRGB">
<feFlood flood-opacity="0" result="BackgroundImageFix"/>
<feBlend mode="normal" in="SourceGraphic" in2="BackgroundImageFix" result="shape"/>
<feColorMatrix in="SourceAlpha" type="matrix" values="0 0 0 0 0 0 0 0 0 0 0 0 0 0 0 0 0 0 127 0" result="hardAlpha"/>
<feOffset dy="8"/>
<feComposite in2="hardAlpha" operator="arithmetic" k2="-1" k3="1"/>
<feColorMatrix type="matrix" values="0 0 0 0 0 0 0 0 0 0 0 0 0 0 0 0 0 0 0.35 0"/>
<feBlend mode="normal" in2="shape" result="effect1_innerShadow_565_187707"/>
</filter>
<filter id="filter12_i_565_187707" x="581" y="188.119" width="208" height="69.6431" filterUnits="userSpaceOnUse" color-interpolation-filters="sRGB">
<feFlood flood-opacity="0" result="BackgroundImageFix"/>
<feBlend mode="normal" in="SourceGraphic" in2="BackgroundImageFix" result="shape"/>
<feColorMatrix in="SourceAlpha" type="matrix" values="0 0 0 0 0 0 0 0 0 0 0 0 0 0 0 0 0 0 127 0" result="hardAlpha"/>
<feOffset dy="8"/>
<feComposite in2="hardAlpha" operator="arithmetic" k2="-1" k3="1"/>
<feColorMatrix type="matrix" values="0 0 0 0 0 0 0 0 0 0 0 0 0 0 0 0 0 0 0.35 0"/>
<feBlend mode="normal" in2="shape" result="effect1_innerShadow_565_187707"/>
</filter>
<filter id="filter13_i_565_187707" x="581" y="103" width="208" height="69.6431" filterUnits="userSpaceOnUse" color-interpolation-filters="sRGB">
<feFlood flood-opacity="0" result="BackgroundImageFix"/>
<feBlend mode="normal" in="SourceGraphic" in2="BackgroundImageFix" result="shape"/>
<feColorMatrix in="SourceAlpha" type="matrix" values="0 0 0 0 0 0 0 0 0 0 0 0 0 0 0 0 0 0 127 0" result="hardAlpha"/>
<feOffset dy="8"/>
<feComposite in2="hardAlpha" operator="arithmetic" k2="-1" k3="1"/>
<feColorMatrix type="matrix" values="0 0 0 0 0 0 0 0 0 0 0 0 0 0 0 0 0 0 0.35 0"/>
<feBlend mode="normal" in2="shape" result="effect1_innerShadow_565_187707"/>
</filter>
<filter id="filter14_d_565_187707" x="70" y="568" width="759" height="544.41" filterUnits="userSpaceOnUse" color-interpolation-filters="sRGB">
<feFlood flood-opacity="0" result="BackgroundImageFix"/>
<feColorMatrix in="SourceAlpha" type="matrix" values="0 0 0 0 0 0 0 0 0 0 0 0 0 0 0 0 0 0 127 0" result="hardAlpha"/>
<feOffset dx="-2" dy="3.41"/>
<feComposite in2="hardAlpha" operator="out"/>
<feColorMatrix type="matrix" values="0 0 0 0 1 0 0 0 0 1 0 0 0 0 1 0 0 0 0.15 0"/>
<feBlend mode="normal" in2="BackgroundImageFix" result="effect1_dropShadow_565_187707"/>
<feBlend mode="normal" in="SourceGraphic" in2="effect1_dropShadow_565_187707" result="shape"/>
</filter>
</defs>
</svg>
