<svg width="335" height="248" viewBox="0 0 335 248" fill="none" xmlns="http://www.w3.org/2000/svg">
<path d="M110.395 83.8377L139.868 93.5702C155.077 98.5922 171.779 93.0279 180.936 79.8877L186.381 72.076C195.542 58.9313 210.551 51.0968 226.573 51.0968L230.563 51.0968C260.618 51.0968 285.439 74.5746 287.11 104.584L288.006 120.699C290.014 156.778 265.567 188.992 230.277 196.766L172.128 209.575C167.724 210.545 163.227 211.035 158.716 211.035L92.6159 211.035C56.585 211.035 40.3117 165.952 68.0355 142.939L77.4149 135.153C84.3576 129.39 86.9082 119.874 83.7783 111.411C77.5976 94.6991 93.4752 78.2508 110.395 83.8377Z" fill="black" fill-opacity="0.12"/>
<path d="M91.1844 153.448L104.984 132.227C113.109 119.734 128.251 113.643 142.787 116.925C156.798 120.089 171.426 114.474 179.639 102.689C186.578 92.7329 198.142 87.0362 210.265 87.6028L216.947 87.915C246.268 89.2854 267.32 116.688 261.088 145.372L260.766 146.85C256.57 166.167 241.116 181.033 221.651 184.478L165.126 194.482C163.046 194.85 160.942 195.062 158.83 195.116L102.108 196.561C81.534 197.085 71.626 171.545 87.1705 158.058C88.717 156.716 90.0681 155.164 91.1844 153.448Z" fill="black" fill-opacity="0.12"/>
</svg>
