<svg width="325" height="340" viewBox="0 0 325 340" fill="none" xmlns="http://www.w3.org/2000/svg">
<g filter="url(#filter0_i_565_190589)">
<rect width="76" height="20" transform="matrix(-1 0 0 1 76 161)" fill="#64748B"/>
</g>
<g filter="url(#filter1_i_565_190589)">
<rect width="56" height="20" transform="matrix(-1 0 0 1 56 24)" fill="#64748B"/>
</g>
<g filter="url(#filter2_i_565_190589)">
<rect width="56" height="20" transform="matrix(-1 0 0 1 56 299)" fill="#64748B"/>
</g>
<g filter="url(#filter3_i_565_190589)">
<rect x="32" width="293" height="340" rx="16" fill="#64748B"/>
</g>
<rect x="32" y="16" width="293" height="324" rx="16" fill="#1E293B"/>
<g filter="url(#filter4_d_565_190589)">
<rect x="48.5" y="31.5" width="260" height="293" rx="5.5" stroke="#FACC15" stroke-width="5" shape-rendering="crispEdges"/>
</g>
<g filter="url(#filter5_d_565_190589)">
<mask id="path-7-inside-1_565_190589" fill="white">
<rect x="63" y="46" width="231" height="264" rx="4"/>
</mask>
<rect x="63" y="46" width="231" height="264" rx="4" stroke="#EF4444" stroke-width="10" shape-rendering="crispEdges" mask="url(#path-7-inside-1_565_190589)"/>
</g>
<g filter="url(#filter6_di_565_190589)">
<path d="M224.257 132.673H225.616C226.727 132.673 227.633 131.726 227.633 130.615C227.633 129.503 226.727 128.639 225.616 128.597H224.298C221.705 128.597 219.605 130.697 219.605 133.249C219.605 134.196 219.894 135.101 220.429 135.884C218.947 138.024 219.523 140.906 221.623 142.388C222.405 142.923 223.31 143.211 224.257 143.211H225.574C226.686 143.211 227.592 142.264 227.592 141.153C227.592 140.041 226.686 139.177 225.574 139.136H224.257C223.928 139.136 223.64 138.889 223.64 138.559C223.64 138.23 223.887 137.942 224.216 137.942H225.574C226.686 137.942 227.592 136.995 227.592 135.884C227.592 134.772 226.686 133.908 225.574 133.866H224.257C223.928 133.866 223.64 133.619 223.64 133.29C223.64 132.961 223.928 132.673 224.257 132.673Z" fill="#FFEDD5"/>
</g>
<g filter="url(#filter7_di_565_190589)">
<path d="M175.966 231.222L174.772 230.646C173.784 230.152 172.549 230.564 172.055 231.593C171.561 232.581 171.972 233.816 173.002 234.31C173.043 234.31 173.043 234.31 173.084 234.351L174.278 234.927C174.566 235.051 174.731 235.421 174.566 235.751C174.401 236.039 174.072 236.203 173.743 236.039L172.549 235.462C171.52 234.968 170.326 235.421 169.832 236.45C169.338 237.48 169.791 238.673 170.82 239.167L172.014 239.744C172.302 239.867 172.466 240.238 172.302 240.567C172.137 240.855 171.808 241.02 171.478 240.855L170.285 240.279C169.255 239.785 168.062 240.238 167.568 241.267C167.074 242.296 167.526 243.49 168.556 243.984L169.749 244.56C172.096 245.672 174.854 244.643 175.966 242.337C176.377 241.473 176.501 240.526 176.336 239.579C178.559 238.262 179.3 235.421 178.024 233.198C177.53 232.293 176.789 231.634 175.966 231.222Z" fill="#FFEDD5"/>
</g>
<g filter="url(#filter8_di_565_190589)">
<path d="M148.018 239.292C147.072 238.674 145.837 238.921 145.219 239.868L144.478 240.98C144.272 241.268 143.902 241.35 143.614 241.144C143.326 240.98 143.243 240.568 143.449 240.321L144.19 239.209C144.807 238.263 144.561 237.028 143.614 236.41C142.667 235.793 141.432 236.04 140.814 236.986L140.073 238.098C138.674 240.239 139.25 243.161 141.432 244.561C143.573 245.961 146.495 245.384 147.895 243.203L148.636 242.091C149.212 241.185 148.924 239.909 148.018 239.292Z" fill="#FFEDD5"/>
</g>
<g filter="url(#filter9_di_565_190589)">
<path d="M136.243 251.313L135.255 252.178C135.008 252.384 134.597 252.384 134.391 252.137C134.185 251.89 134.185 251.519 134.432 251.272L135.42 250.408C136.243 249.667 136.325 248.391 135.585 247.526C134.843 246.703 133.567 246.62 132.703 247.361L131.715 248.226C129.78 249.955 129.615 252.919 131.344 254.812C133.073 256.747 136.037 256.912 137.931 255.183L138.919 254.318C139.742 253.577 139.825 252.301 139.084 251.437C138.343 250.655 137.066 250.572 136.243 251.313Z" fill="#FFEDD5"/>
</g>
<g filter="url(#filter10_di_565_190589)">
<path d="M119.611 254.441L120.928 254.523C122.04 254.606 123.028 253.741 123.069 252.589C123.151 251.477 122.287 250.489 121.134 250.448L119.817 250.366C117.223 250.201 115.041 252.177 114.877 254.77C114.712 257.364 116.688 259.546 119.281 259.71L120.599 259.793H120.722C121.834 259.793 122.739 258.887 122.739 257.775C122.739 256.705 121.916 255.799 120.805 255.758L119.487 255.676C119.158 255.676 118.911 255.388 118.911 255.017C118.993 254.647 119.282 254.4 119.611 254.441Z" fill="#FFEDD5"/>
</g>
<g filter="url(#filter11_di_565_190589)">
<path d="M191.407 236.781L190.254 236.123C189.266 235.588 188.031 235.917 187.496 236.905C186.961 237.852 187.29 239.087 188.237 239.663L189.39 240.322C189.678 240.486 189.802 240.857 189.596 241.145C189.431 241.433 189.061 241.557 188.772 241.351L187.62 240.692C186.632 240.116 185.397 240.445 184.821 241.433C184.244 242.421 184.574 243.656 185.562 244.232L186.714 244.891C187.002 245.056 187.126 245.426 186.92 245.714C186.755 246.003 186.385 246.085 186.097 245.92L184.944 245.262C183.956 244.685 182.721 245.015 182.186 246.003C181.61 246.991 181.939 248.225 182.927 248.761L184.08 249.419C186.303 250.695 189.184 249.954 190.46 247.69C190.954 246.867 191.16 245.92 191.078 244.973C193.424 243.862 194.371 241.062 193.301 238.757C192.889 237.975 192.23 237.275 191.407 236.781Z" fill="#FFEDD5"/>
</g>
<g filter="url(#filter12_di_565_190589)">
<path d="M208.57 242.503C207.911 241.844 207.047 241.391 206.141 241.227L204.824 240.98C203.712 240.774 202.642 241.515 202.436 242.585C202.23 243.655 202.971 244.767 204.042 244.973L205.359 245.22C205.688 245.302 205.894 245.59 205.853 245.919C205.771 246.249 205.483 246.455 205.153 246.413L203.836 246.166C202.724 245.961 201.654 246.702 201.448 247.772C201.242 248.883 201.983 249.954 203.054 250.16L204.371 250.407C204.7 250.489 204.906 250.777 204.865 251.106C204.824 251.436 204.494 251.642 204.165 251.6L202.848 251.353C201.736 251.148 200.666 251.889 200.46 252.959C200.254 254.029 200.995 255.141 202.066 255.347L203.383 255.594C205.935 256.088 208.364 254.4 208.858 251.847C209.023 250.901 208.94 249.954 208.529 249.089C210.381 247.319 210.381 244.355 208.57 242.503Z" fill="#FFEDD5"/>
</g>
<g filter="url(#filter13_ddd_565_190589)">
<path d="M141.183 176.472H141.553C145.794 176.513 149.869 174.743 152.751 171.614C153.492 170.791 153.45 169.515 152.627 168.733C151.804 167.992 150.528 168.033 149.745 168.856C147.605 171.244 144.476 172.561 141.265 172.396C140.154 172.355 139.207 173.261 139.207 174.372C139.207 175.484 140.071 176.472 141.183 176.472Z" fill="#F1F5F9"/>
</g>
<g filter="url(#filter14_ddd_565_190589)">
<path d="M132.826 174.537C133.69 174.908 134.596 175.237 135.501 175.525C136.572 175.854 137.724 175.237 138.013 174.167C138.342 173.096 137.724 171.985 136.695 171.655C135.954 171.408 135.213 171.161 134.472 170.832C133.443 170.379 132.249 170.832 131.796 171.861C131.344 172.89 131.796 174.084 132.826 174.537Z" fill="#F1F5F9"/>
</g>
<g filter="url(#filter15_di_565_190589)">
<path d="M254.265 127.155C254.224 127.155 254.224 127.155 254.265 127.155C254.224 127.155 253.524 127.279 252.66 126.332C252.289 125.92 252.001 125.509 251.754 125.015C249.778 121.269 245.991 118.881 241.751 118.675C240.639 118.675 239.733 119.581 239.733 120.692C239.733 121.145 239.898 121.598 240.145 121.927C237.675 125.138 238.293 129.749 241.545 132.219C244.756 134.689 249.366 134.071 251.836 130.819C251.878 130.778 251.919 130.737 251.919 130.696C252.619 131.025 253.401 131.19 254.224 131.19C254.636 131.19 255.089 131.148 255.5 131.025C256.571 130.696 257.188 129.584 256.859 128.473C256.447 127.443 255.335 126.826 254.265 127.155ZM246.32 129.584C244.509 129.79 242.903 128.473 242.739 126.661C242.656 125.879 242.862 125.097 243.315 124.438C243.356 126.661 245.167 128.39 247.349 128.39C247.802 128.39 248.296 128.308 248.749 128.143C248.173 128.967 247.308 129.502 246.32 129.584Z" fill="#F87171"/>
</g>
<g filter="url(#filter16_ddd_565_190589)">
<path d="M238.871 205.369C238.912 205.369 238.912 205.369 238.871 205.369C239.571 205.493 240.27 205.534 240.97 205.534C242.782 205.534 244.552 205.163 246.198 204.381C247.228 203.928 247.68 202.693 247.186 201.664C246.692 200.635 245.499 200.182 244.469 200.676C242.905 201.376 241.176 201.623 239.53 201.335C238.418 201.17 237.389 201.911 237.183 203.023C237.018 204.134 237.759 205.163 238.871 205.369Z" fill="#F1F5F9"/>
</g>
<g filter="url(#filter17_ddd_565_190589)">
<path d="M232.901 203.066C233.271 203.313 233.683 203.56 234.054 203.766C235.042 204.301 236.276 203.931 236.812 202.943C237.347 201.955 236.976 200.72 235.988 200.185L235.947 200.143C235.7 200.02 235.453 199.855 235.206 199.732C234.301 199.073 233.024 199.32 232.366 200.226C231.789 201.131 231.995 202.407 232.901 203.066Z" fill="#F1F5F9"/>
</g>
<g filter="url(#filter18_ddd_565_190589)">
<path d="M110.553 108.96C111.499 109.577 112.776 109.289 113.352 108.342C113.928 107.478 114.505 106.572 115.122 105.749C115.781 104.843 115.575 103.567 114.669 102.908C113.764 102.25 112.487 102.455 111.829 103.361C111.17 104.267 110.511 105.213 109.894 106.201C109.318 107.107 109.606 108.342 110.553 108.96Z" fill="#F1F5F9"/>
</g>
<g filter="url(#filter19_ddd_565_190589)">
<path d="M120.021 100.068C121.791 98.2983 123.726 96.6928 125.743 95.252C126.649 94.5933 126.855 93.3172 126.237 92.4115C125.62 91.5058 124.302 91.3 123.397 91.9175C121.174 93.4818 119.115 95.252 117.18 97.1457C116.398 97.9279 116.398 99.2452 117.18 100.027C117.963 100.809 119.239 100.809 120.021 100.068Z" fill="#F1F5F9"/>
</g>
<g filter="url(#filter20_ddd_565_190589)">
<path d="M131.26 91.8752C131.26 91.8752 131.301 91.8752 131.301 91.8341C134.554 90.1463 137.97 88.8701 141.511 88.0056C142.581 87.7174 143.281 86.6471 142.993 85.5356C142.704 84.4653 141.634 83.7655 140.523 84.0536C136.653 85.0005 132.948 86.4001 129.408 88.2115C128.42 88.7055 128.008 89.9405 128.502 90.9284C129.037 91.9576 130.272 92.3692 131.26 91.8752Z" fill="#F1F5F9"/>
</g>
<g filter="url(#filter21_ddd_565_190589)">
<path d="M238.373 270.535C236.191 271.523 233.927 272.346 231.622 273.005C230.551 273.293 229.893 274.446 230.222 275.516C230.51 276.586 231.663 277.245 232.733 276.916C235.244 276.216 237.714 275.31 240.061 274.24C241.09 273.787 241.543 272.552 241.049 271.564C240.596 270.494 239.402 270.041 238.373 270.535Z" fill="#F1F5F9"/>
</g>
<g filter="url(#filter22_ddd_565_190589)">
<path d="M250.312 262.631C250.271 262.631 250.271 262.631 250.312 262.631C248.501 264.278 246.566 265.801 244.549 267.118C243.602 267.736 243.314 268.971 243.932 269.918C244.549 270.864 245.784 271.152 246.731 270.535C246.731 270.535 246.772 270.535 246.772 270.494C248.954 269.053 251.054 267.406 252.988 265.636C253.812 264.895 253.894 263.619 253.153 262.755C252.412 261.89 251.136 261.849 250.312 262.631Z" fill="#F1F5F9"/>
</g>
<g filter="url(#filter23_ddd_565_190589)">
<path d="M267.112 226.488C265.959 226.488 265.053 227.434 265.095 228.546C265.177 237.561 262.625 246.412 257.685 253.945C257.067 254.892 257.314 256.127 258.22 256.786C259.167 257.403 260.402 257.156 261.06 256.25L261.101 256.209C266.494 247.976 269.294 238.343 269.211 228.546C269.17 227.393 268.223 226.488 267.112 226.488Z" fill="#F1F5F9"/>
</g>
<g filter="url(#filter24_di_565_190589)">
<path d="M203.715 114.23L202.562 113.572C200.339 112.255 197.458 112.996 196.182 115.218C195.688 116.042 195.482 116.989 195.523 117.935C193.176 119.006 192.188 121.805 193.259 124.152C193.67 125.016 194.329 125.716 195.111 126.21L196.264 126.869C197.252 127.445 198.487 127.074 199.022 126.128C199.557 125.181 199.269 123.946 198.322 123.37L197.17 122.711C196.881 122.546 196.758 122.176 196.923 121.888C197.087 121.599 197.458 121.476 197.746 121.641H197.787L198.94 122.299C199.928 122.876 201.163 122.505 201.698 121.558C202.233 120.611 201.945 119.376 200.998 118.8L199.845 118.141C199.557 117.977 199.434 117.606 199.598 117.318C199.763 117.03 200.133 116.906 200.422 117.071H200.463L201.615 117.73C202.603 118.306 203.838 117.936 204.374 116.989C204.991 116.001 204.662 114.807 203.715 114.23Z" fill="#FFEDD5"/>
</g>
<g filter="url(#filter25_di_565_190589)">
<path d="M242.696 228.589C241.585 228.589 240.72 229.494 240.679 230.606V231.923C240.679 232.252 240.432 232.54 240.103 232.54C239.774 232.54 239.485 232.293 239.485 231.964V230.606C239.485 229.494 238.539 228.589 237.427 228.589C236.316 228.589 235.451 229.494 235.41 230.606V231.923C235.41 232.252 235.163 232.54 234.834 232.54C234.504 232.54 234.216 232.293 234.216 231.964V230.606C234.216 229.494 233.269 228.589 232.158 228.589C231.046 228.589 230.182 229.494 230.141 230.606V231.923C230.141 234.516 232.199 236.616 234.792 236.616C235.739 236.616 236.686 236.328 237.468 235.793C239.609 237.275 242.49 236.74 243.972 234.599C244.507 233.817 244.796 232.911 244.796 231.964V230.647C244.754 229.453 243.849 228.547 242.696 228.589Z" fill="#FFEDD5"/>
</g>
<g filter="url(#filter26_di_565_190589)">
<path d="M246.567 218.667V217.309C246.567 216.197 245.621 215.292 244.509 215.292C243.398 215.292 242.533 216.197 242.492 217.309V218.626C242.492 218.955 242.245 219.244 241.916 219.244C241.586 219.244 241.298 218.997 241.298 218.667V217.309C241.298 216.197 240.351 215.292 239.24 215.292C238.128 215.292 237.264 216.197 237.223 217.309V218.626C237.223 221.22 239.281 223.319 241.874 223.319C242.821 223.319 243.768 223.031 244.55 222.496C246.691 223.978 249.572 223.443 251.054 221.302C251.589 220.52 251.878 219.614 251.878 218.667V217.35C251.878 216.239 250.931 215.333 249.819 215.333C248.708 215.333 247.843 216.239 247.802 217.35V218.667C247.802 218.997 247.555 219.285 247.226 219.285C246.855 219.285 246.567 218.997 246.567 218.667Z" fill="#FFEDD5"/>
</g>
<g filter="url(#filter27_di_565_190589)">
<path d="M194.081 174.209L195.399 174.045C195.728 174.004 196.057 174.251 196.099 174.58C196.14 174.909 195.893 175.239 195.563 175.28H195.522L194.205 175.444C193.093 175.568 192.311 176.597 192.435 177.708C192.558 178.82 193.546 179.602 194.658 179.479L195.975 179.314C196.304 179.273 196.634 179.52 196.675 179.849C196.716 180.178 196.469 180.508 196.14 180.549H196.099L194.781 180.714C193.67 180.837 192.888 181.866 193.011 182.978C193.135 184.089 194.123 184.871 195.234 184.748L196.551 184.583C199.104 184.295 200.956 181.99 200.668 179.437C200.545 178.491 200.174 177.626 199.557 176.885C200.751 174.621 199.886 171.781 197.622 170.587C196.799 170.134 195.852 169.969 194.905 170.052L193.588 170.216C192.476 170.34 191.694 171.369 191.818 172.48C192.023 173.551 193.011 174.333 194.081 174.209Z" fill="#FFEDD5"/>
</g>
<g filter="url(#filter28_di_565_190589)">
<path d="M174.363 174.168L175.68 174.003C176.009 173.962 176.339 174.209 176.38 174.539C176.421 174.868 176.174 175.197 175.845 175.238H175.804L174.486 175.403C173.375 175.527 172.593 176.556 172.716 177.667C172.84 178.779 173.828 179.561 174.939 179.437L176.256 179.273C176.586 179.231 176.915 179.479 176.956 179.808C176.997 180.137 176.75 180.466 176.421 180.508H176.38L175.063 180.672C173.951 180.796 173.169 181.825 173.292 182.936C173.416 184.048 174.404 184.83 175.515 184.707L176.833 184.542C179.385 184.254 181.237 181.948 180.949 179.396C180.826 178.449 180.455 177.585 179.838 176.844C181.032 174.58 180.167 171.739 177.903 170.546C177.08 170.093 176.133 169.928 175.186 170.01L173.869 170.175C172.757 170.299 171.975 171.328 172.099 172.439C172.305 173.468 173.292 174.25 174.363 174.168Z" fill="#FFEDD5"/>
</g>
<g filter="url(#filter29_di_565_190589)">
<path d="M131.672 124.686L130.396 124.974C130.067 125.056 129.737 124.85 129.655 124.521C129.573 124.192 129.778 123.862 130.108 123.78H130.149L131.425 123.492C132.537 123.245 133.195 122.133 132.948 121.063C132.701 119.993 131.631 119.293 130.561 119.499L129.284 119.787C128.955 119.869 128.626 119.664 128.543 119.334C128.461 119.005 128.667 118.676 128.996 118.593H129.037L130.314 118.305C131.425 118.058 132.084 116.947 131.837 115.876C131.59 114.806 130.519 114.106 129.449 114.312L128.173 114.6C125.662 115.135 124.015 117.605 124.55 120.116C124.756 121.063 125.209 121.886 125.909 122.545C124.921 124.933 126.032 127.649 128.42 128.638C129.284 129.008 130.272 129.091 131.178 128.885L132.454 128.597C133.566 128.35 134.224 127.238 133.977 126.168C133.813 125.139 132.784 124.48 131.672 124.686Z" fill="#FFEDD5"/>
</g>
<g filter="url(#filter30_di_565_190589)">
<path d="M143.653 114.313H142.336C142.006 114.313 141.718 114.066 141.718 113.736C141.718 113.407 141.965 113.119 142.294 113.119H143.653C144.764 113.078 145.67 112.172 145.629 111.061C145.588 109.949 144.723 109.085 143.612 109.085H142.294C141.965 109.085 141.677 108.838 141.677 108.508C141.677 108.179 141.924 107.891 142.253 107.891H143.612C144.723 107.85 145.629 106.944 145.588 105.833C145.546 104.721 144.682 103.857 143.57 103.857H142.253C139.66 103.857 137.602 105.956 137.602 108.55C137.602 109.496 137.89 110.402 138.425 111.184C136.984 113.325 137.519 116.207 139.66 117.688C140.442 118.224 141.389 118.512 142.336 118.512H143.653C144.764 118.471 145.67 117.565 145.629 116.453C145.629 115.177 144.764 114.313 143.653 114.313Z" fill="#FFEDD5"/>
</g>
<g filter="url(#filter31_di_565_190589)">
<path d="M157.977 108.136H156.66C156.33 108.136 156.042 107.889 156.042 107.56C156.042 107.23 156.289 106.942 156.619 106.942H157.977C159.089 106.901 159.994 105.995 159.953 104.884C159.912 103.772 159.047 102.908 157.936 102.908H156.619C156.289 102.908 156.001 102.661 156.001 102.332C156.001 102.002 156.248 101.714 156.577 101.714H157.936C159.047 101.673 159.953 100.767 159.912 99.6559C159.871 98.5444 159.006 97.6799 157.895 97.6799H156.577C153.984 97.6799 151.926 99.7794 151.926 102.373C151.926 103.32 152.214 104.225 152.749 105.008C151.308 107.148 151.843 110.03 153.984 111.512C154.766 112.047 155.713 112.335 156.66 112.335H157.977C159.089 112.294 159.994 111.388 159.953 110.277C159.994 109.042 159.089 108.177 157.977 108.136Z" fill="#FFEDD5"/>
</g>
<g filter="url(#filter32_di_565_190589)">
<path d="M180.37 101.797L179.135 101.344C176.706 100.479 174.03 101.714 173.166 104.143C172.837 105.049 172.795 105.996 173.042 106.901C170.943 108.383 170.449 111.306 171.972 113.405C172.507 114.188 173.289 114.764 174.195 115.093L175.43 115.546C176.5 115.917 177.653 115.34 178.023 114.27C178.394 113.241 177.859 112.088 176.83 111.718L175.595 111.265C175.265 111.141 175.101 110.812 175.224 110.483C175.348 110.153 175.677 109.989 176.006 110.112H176.047L177.282 110.565C178.353 110.936 179.505 110.359 179.876 109.289C180.246 108.26 179.711 107.107 178.682 106.737L177.447 106.284C177.118 106.16 176.953 105.831 177.077 105.502C177.2 105.172 177.529 105.008 177.859 105.131H177.9L179.135 105.584C180.205 105.954 181.358 105.378 181.728 104.308C181.934 103.32 181.399 102.167 180.37 101.797Z" fill="#FFEDD5"/>
</g>
<g filter="url(#filter33_di_565_190589)">
<path d="M274.848 125.303H274.272C272.172 125.303 270.361 126.497 269.496 128.267C267.644 127.608 265.297 125.838 263.074 123.451C262.169 122.463 261.14 121.557 260.069 120.775C258.67 119.787 251.672 114.518 250.436 108.919C250.107 107.519 249.119 106.984 248.296 106.902C247.349 106.861 246.649 107.272 245.949 108.178L246.279 104.802C246.567 101.55 244.673 98.4217 241.586 97.2688L239.774 96.569C238.333 96.0338 237.51 94.5107 237.757 92.9876C238.416 89.0766 235.905 85.413 232.035 84.5899L227.713 83.6842C226.601 83.4372 225.49 84.1371 225.284 85.2897C225.078 86.4424 225.737 87.5127 226.889 87.7185L231.212 88.6241C232.9 88.9946 234.011 90.6001 233.723 92.3291C233.147 95.7459 235.081 99.1626 238.333 100.398L240.145 101.098C241.503 101.633 242.327 102.991 242.203 104.432L241.38 113.488H241.092C238.333 113.324 235.781 114.435 234.093 116.37C231.664 110.771 226.148 106.943 219.932 106.943H218.203C218.038 106.655 217.833 106.202 217.586 105.502C215.075 99.0391 208.57 95.0461 201.737 95.8282C200.625 95.9517 199.802 96.9809 199.926 98.0923C200.049 99.2038 201.078 100.027 202.19 99.9036C207.171 99.3273 211.905 102.25 213.757 106.984C214.539 109.042 215.486 111.059 217.38 111.059H219.932C220.097 111.059 220.261 111.059 220.426 111.101C220.097 111.265 219.809 111.553 219.644 111.883C219.562 112.006 219.068 112.912 218.656 114.27C213.387 111.718 202.642 106.202 196.056 102.744C195.274 98.6685 193.38 89.9825 186.217 85.7423C185.723 85.4541 185.105 85.3718 184.57 85.5364C183.994 85.7011 183.541 86.1127 183.335 86.6479L182.965 87.43C181.442 84.5896 178.766 81.9139 174.443 81.2138C173.826 81.1315 173.208 81.2962 172.756 81.7078C172.303 82.1195 172.056 82.6958 172.056 83.3133L172.097 83.9719C171.274 83.3545 170.368 82.6958 169.339 82.1195C163.905 78.9085 158.306 78.1675 153.119 79.9377C152.378 80.1846 151.843 80.8021 151.761 81.5843C151.678 82.3664 151.967 83.1074 152.584 83.5603C152.625 83.6014 156.413 86.3596 160.241 89.5292C155.96 89.7762 152.131 90.0232 148.179 91.0112C144.31 91.958 140.522 93.3988 136.941 95.2514C129.902 98.7917 123.727 104.061 119.075 110.442C117.387 112.747 115.946 115.135 114.67 117.646C112.941 117.563 109.936 117.687 106.437 118.881C101.538 120.569 94.6222 124.768 89.6823 135.182C89.2706 136.088 89.5177 137.158 90.341 137.735C91.1643 138.311 92.2758 138.229 92.9756 137.488C93.0168 137.446 95.2809 135.265 99.3973 136.376C96.0629 138.97 91.5345 144.074 91.0817 152.637C91.0405 153.336 91.3287 153.954 91.905 154.366C92.4402 154.777 93.14 154.901 93.7986 154.695L99.7265 152.719C98.2034 156.753 96.5567 163.628 96.5567 174.249C96.5567 175.113 97.133 175.895 97.9564 176.184C98.7798 176.472 99.7265 176.184 100.262 175.525L105.531 168.815C106.19 173.961 108.289 181.412 114.67 186.475C115.04 186.763 115.493 186.928 115.946 186.928C116.234 186.928 116.563 186.846 116.851 186.722C117.551 186.393 118.004 185.652 118.004 184.87V179.23C121.833 182.482 128.543 186.475 137.311 185.693C144.391 189.316 152.419 191.374 160.899 191.374H207.54C219.684 191.374 230.016 201.46 230.057 213.398C230.099 221.014 226.476 227.806 220.095 232.005C213.756 236.163 206.14 236.863 199.183 233.858L166.333 219.779C170.408 215.457 175.101 212.534 180.617 210.97C180.37 216.527 182.264 225.172 191.156 227.889C191.773 228.054 192.391 227.971 192.926 227.601C193.461 227.23 193.749 226.654 193.79 226.036V225.831L194.078 226.119C196.301 228.095 199.183 229.042 202.682 229.042C203.094 229.042 203.547 229.042 203.999 229C204.699 228.959 205.317 228.589 205.646 227.971C205.975 227.354 206.016 226.654 205.687 226.036L205.399 225.46C205.934 225.501 206.51 225.543 207.128 225.543C210.545 225.501 215.485 224.308 219.725 218.874C221.824 216.157 222.607 212.781 221.866 209.652C221.701 208.952 221.166 208.376 220.466 208.17C219.766 207.965 218.984 208.129 218.449 208.664C215.444 211.505 209.845 215.416 207.54 214.798C207.334 214.757 206.881 214.633 206.511 213.481C206.428 213.151 206.428 212.987 206.428 212.905C206.634 212.699 207.581 212.493 208.981 212.658C209.022 212.658 209.104 212.658 209.145 212.699C210.257 212.822 211.245 212.04 211.409 210.929C211.451 210.558 211.409 210.229 211.286 209.899C211.162 209.488 210.751 207.882 210.463 206.688C209.845 204.26 209.639 203.436 209.557 203.148C208.24 199.279 205.07 196.521 200.706 195.327C192.885 193.268 185.722 198.291 182.387 203.889C182.14 204.301 181.934 204.713 181.729 205.124C170.696 205.536 161.598 209.447 154.188 214.675L143.485 210.105C142.374 209.076 138.092 205.124 132.782 201.172C124.384 194.956 117.674 191.91 112.94 192.239C112.24 192.281 111.622 192.651 111.293 193.269C110.964 193.886 110.922 194.586 111.252 195.203L111.952 196.644C107.506 195.533 100.713 194.668 94.7855 197.22C94.0857 197.55 93.5917 198.208 93.5505 198.991C93.5094 199.773 93.921 200.514 94.5797 200.884L97.7495 202.696C93.2623 204.754 86.3464 208.829 83.5473 215.292C83.2592 215.992 83.3415 216.816 83.8355 217.392C84.3295 217.968 85.0705 218.256 85.8115 218.133L86.9229 217.927C83.1768 221.344 78.8542 226.407 76.1375 233.323C75.8494 234.105 76.014 234.97 76.6315 235.546C77.249 236.122 78.1135 236.287 78.8956 235.958L84.9884 233.282C83.2183 239.127 82.395 249.625 91.1222 263.004C91.5339 263.621 92.2337 263.992 92.9747 263.951C93.7157 263.91 94.3743 263.457 94.7037 262.798L95.4858 261.151C98.1616 266.38 104.007 274.654 114.422 275.642H114.628C115.245 275.642 115.822 275.395 116.192 274.901C116.645 274.366 116.768 273.666 116.604 273.048L114.71 266.132C118.045 267.285 121.585 267.903 125.084 267.903C125.496 267.903 125.907 267.903 126.319 267.861C136.816 267.45 146.325 260.74 150.566 250.777C151.348 248.966 152.13 246.866 152.953 244.644C153.118 244.232 153.283 243.82 153.406 243.367C159.581 247.114 166.044 250.407 172.672 253.247L187.986 259.834C194.367 262.592 201.118 263.909 207.869 263.909C217.584 263.909 227.217 261.11 235.574 255.594C249.899 246.167 258.38 230.276 258.215 213.108C258.174 207.345 257.145 201.705 255.128 196.313C255.292 196.23 255.457 196.107 255.622 196.024C255.622 196.024 255.663 195.983 255.704 195.983C257.021 195.325 258.544 195.201 259.944 195.654C261.385 196.148 262.538 197.136 263.237 198.494L263.69 199.441C264.061 200.141 264.761 200.594 265.543 200.594C265.749 200.594 265.954 200.553 266.119 200.512C267.066 200.223 267.683 199.277 267.56 198.289L267.519 197.918C267.848 198.494 268.424 198.906 269.124 198.988C269.989 199.071 270.853 198.618 271.224 197.795C271.306 197.63 271.965 196.107 272.129 194.09C272.376 191.208 271.471 188.697 269.495 186.885C266.942 184.539 263.526 183.304 259.615 183.345C256.198 183.386 253.316 184.374 250.558 185.362C250.229 185.486 249.941 185.568 249.612 185.692C245.166 179.146 239.197 173.671 232.24 169.76C224.583 165.479 215.938 163.215 207.128 163.215H160.198C158.345 163.215 156.575 163.009 154.805 162.556L155.299 162.186C157.522 160.539 159.622 158.934 161.927 157.863C166.002 155.929 171.189 153.953 175.347 155.805C176.006 156.093 176.582 156.546 177.117 157.122L180.204 160.58C180.74 161.198 181.604 161.404 182.386 161.157C183.168 160.91 183.704 160.21 183.786 159.387L184.033 156.546C184.033 156.505 184.033 156.505 184.074 156.505H184.115L187.285 158.399C188.026 158.81 188.932 158.769 189.59 158.275C190.249 157.781 190.537 156.917 190.331 156.093L189.879 154.447C189.879 154.447 189.92 154.405 189.961 154.405L193.131 156.011C193.995 156.423 195.024 156.217 195.642 155.476C196.259 154.735 196.259 153.664 195.683 152.923L191.566 147.572C191.525 147.531 191.484 147.448 191.443 147.407C187.491 143.249 185.021 142.014 181.522 141.109C176.458 139.792 171.313 140.821 167.896 141.726C163.615 142.838 159.21 144.484 153.982 146.955C149.248 149.178 144.102 149.877 139.121 149.095C137.968 146.214 137.392 143.167 137.474 140.039C137.762 127.771 148.136 117.809 160.568 117.809C164.726 117.809 169.09 118.674 174.688 120.691C176.006 121.144 177.323 121.679 178.599 122.173C180.205 122.79 181.81 123.449 183.498 123.984C183.375 124.355 183.21 124.808 182.922 125.302C181.81 127.154 179.546 128.513 176.335 129.213C175.512 129.377 174.894 130.036 174.73 130.859C174.565 131.682 174.936 132.506 175.677 132.959C178.517 134.77 184.404 136.581 189.714 133.411C189.426 134.688 188.85 135.84 187.821 136.417C187.121 136.828 186.709 137.569 186.75 138.393C186.833 139.216 187.327 139.875 188.109 140.163C188.397 140.245 194.407 142.386 200.294 138.557C203.917 143.95 209.721 148.272 214.661 150.207C222.071 153.089 228.822 151.36 235.368 149.631C237.138 149.178 238.949 148.684 240.719 148.314C246.112 147.202 253.604 146.173 257.598 149.837L258.462 156.012C258.544 156.67 258.956 157.205 259.491 157.535C260.067 157.864 260.767 157.864 261.344 157.617C261.508 157.535 264.513 156.135 265.954 153.047C266.448 153.788 266.778 154.612 266.572 155.435C266.366 156.341 266.819 157.329 267.642 157.74C267.93 157.905 268.26 157.946 268.548 157.946C269.124 157.946 269.7 157.699 270.112 157.205C270.277 157.041 273.117 153.541 271.717 148.602H274.681C275.834 148.602 276.74 147.696 276.74 146.543V140.615C276.74 139.998 276.493 139.463 276.04 139.051C275.587 138.681 274.97 138.475 274.393 138.557C274.27 138.557 262.826 140.245 253.934 138.598C257.309 137.034 263.484 135.593 273.447 137.981C275.052 138.351 276.699 137.981 277.975 136.993C279.251 135.964 279.992 134.441 279.992 132.794V130.818C280.157 127.689 277.769 125.302 274.846 125.302L274.848 125.303ZM184.777 209.611L184.819 209.035C184.942 207.923 185.313 206.894 185.848 205.947C188.441 201.666 193.834 197.714 199.597 199.237C201.738 199.814 204.496 201.172 205.608 204.383C205.69 204.671 206.102 206.359 206.431 207.594C206.513 207.924 206.596 208.212 206.637 208.5C205.402 208.664 204.126 209.117 203.22 210.146C202.644 210.805 201.779 212.246 202.479 214.592C203.302 217.35 205.072 218.338 206.348 218.668C209.724 219.573 214.129 217.062 217.299 214.757C217.052 215.292 216.764 215.786 216.393 216.28C210.3 224.101 202.685 220.602 202.396 220.479C201.614 220.108 200.667 220.273 200.05 220.89C199.432 221.508 199.268 222.455 199.679 223.278L200.379 224.678C194.781 223.566 194.245 218.503 194.204 217.885C194.163 216.815 193.258 215.95 192.146 215.95C191.076 215.95 190.17 216.774 190.088 217.885L189.758 222.866C183.419 219.079 184.736 210.063 184.778 209.611L184.777 209.611ZM230.142 117.934C227.878 117.275 225.902 115.958 224.543 114.229C224.008 113.529 223.597 112.829 223.308 112.129C223.226 111.882 223.061 111.635 222.897 111.429C226.149 112.376 228.866 114.764 230.142 117.934ZM158.8 83.0659C161.476 83.0659 164.275 83.9304 167.116 85.5771C170.532 87.5942 172.755 90.0642 172.797 90.1052C173.373 90.7639 174.279 90.9697 175.102 90.6815C175.925 90.3522 176.419 89.5701 176.378 88.6644L176.255 86.071C180.001 88.1704 180.536 93.0279 180.536 93.2337C180.618 94.1806 181.318 94.9216 182.224 95.0862C183.129 95.2509 184.076 94.7569 184.447 93.8924L185.97 90.5579C188.851 93.1514 190.375 96.9386 191.198 100.067C191.157 100.067 191.157 100.026 191.116 100.026C187.617 98.0503 183.624 96.1568 178.56 94.0984L177.819 93.8102C174.485 92.4517 170.862 91.0109 167.157 90.1464C164.605 87.7176 161.312 85.042 158.801 83.066L158.8 83.0659ZM117.553 173.053C117.018 172.354 116.112 172.066 115.248 172.354C114.383 172.642 113.848 173.424 113.848 174.288V179.805C108.744 172.765 109.32 163.462 109.32 163.379C109.402 162.474 108.867 161.65 108.003 161.321C107.138 160.992 106.191 161.28 105.656 161.98L100.881 168.113C101.292 162.391 102.198 158.398 103.021 155.846C104.174 152.182 105.327 150.618 105.327 150.618C105.903 149.918 105.944 148.889 105.409 148.148C104.874 147.407 103.927 147.077 103.063 147.365L95.6114 149.877C97.4227 141.437 104.256 138.186 104.586 138.062C105.286 137.732 105.738 137.074 105.78 136.292C105.821 135.509 105.45 134.81 104.792 134.398C101.416 132.381 98.5343 131.887 96.229 132.093C101.992 123.695 109.032 122.048 112.86 121.843C111.214 125.959 110.143 130.282 109.649 134.727C109.402 136.744 109.32 138.762 109.32 140.779C109.402 157.163 117.389 171.777 129.697 181.04C122.205 178.899 117.595 173.136 117.553 173.053ZM97.5465 255.593C97.2995 254.81 96.5585 254.234 95.7352 254.152C94.9119 254.111 94.0886 254.563 93.718 255.304L92.6066 257.569C83.5502 241.185 90.3013 230.852 90.6306 230.399C91.1658 229.658 91.1246 228.629 90.5483 227.929C89.9719 227.229 88.984 226.982 88.1195 227.353L82.3564 229.905C87.955 220.437 96.4351 216.032 96.5175 215.991C97.4232 215.538 97.876 214.467 97.5467 213.479C97.2174 212.491 96.2294 211.915 95.2002 212.121L89.7251 213.15C94.5416 207.675 102.981 204.999 103.063 204.958C103.845 204.711 104.422 204.052 104.504 203.229C104.586 202.406 104.216 201.623 103.475 201.212L100.922 199.73C107.879 198.906 115.043 201.829 115.125 201.87C115.907 202.2 116.854 201.994 117.43 201.376C118.006 200.759 118.171 199.812 117.759 199.03L116.565 196.684C121.135 198.001 126.939 201.788 131.879 205.575C123.934 203.764 115.536 205.123 108.415 209.527C98.6172 215.579 92.8952 226.529 93.5124 238.055C94.0887 248.841 100.305 258.68 109.732 263.867L111.667 270.865C101.622 267.942 97.5879 255.716 97.5465 255.593ZM149.046 243.202C148.223 245.383 147.482 247.442 146.741 249.171C143.118 257.692 135.008 263.414 126.116 263.743C125.746 263.743 125.417 263.785 125.046 263.785C120.641 263.785 116.442 262.755 112.491 260.738C103.887 256.334 98.206 247.606 97.6708 237.932C97.1356 227.723 101.952 218.461 110.597 213.109C118.583 208.169 128.422 207.675 136.902 211.751C136.943 211.751 136.943 211.792 136.985 211.792L150.405 217.555C145.959 221.219 142.212 225.253 139.084 229.122L130.974 223.812C129.081 222.412 127.022 221.548 124.881 221.177C121.588 220.601 118.748 221.342 116.978 222.083C114.178 223.236 109.239 226.158 108.045 233.115C106.974 239.208 109.403 244.601 114.631 247.894C116.443 249.047 119.159 250.282 122.494 250.282C122.906 250.282 123.359 250.282 123.811 250.199C127.352 249.829 130.604 247.894 132.786 244.889C133.362 244.066 134.021 243.119 134.762 242.049C136.45 239.579 138.549 236.491 141.142 233.198L141.266 233.074C147.77 224.8 157.197 215.332 170.206 211.256C166.912 213.356 163.908 216.073 161.273 219.325C155.139 226.776 151.763 235.874 149.047 243.201L149.046 243.202ZM136.572 232.334C134.514 235.051 132.785 237.603 131.344 239.702C130.603 240.773 129.986 241.678 129.409 242.461C127.927 244.519 125.704 245.836 123.358 246.083C120.6 246.371 118.254 245.301 116.813 244.354C114.137 242.666 111.132 239.414 112.12 233.733C112.943 228.999 116.071 226.817 118.541 225.829C119.529 225.418 120.929 225.047 122.576 225.047C123.111 225.047 123.646 225.088 124.222 225.171C125.745 225.418 127.269 226.076 128.627 227.105C128.668 227.147 128.709 227.147 128.709 227.188L136.572 232.334ZM201.697 132.011C201.326 130.941 200.132 130.364 199.062 130.735C197.992 131.105 197.415 132.299 197.786 133.369C197.951 133.863 198.156 134.357 198.362 134.81C196.469 136.086 194.493 136.498 192.928 136.58C194.657 133.04 194.04 128.553 193.998 128.306C193.875 127.483 193.299 126.824 192.516 126.618C191.734 126.412 190.87 126.701 190.376 127.318C187.988 130.323 185.23 131.064 182.925 130.941C184.901 129.706 186.053 128.224 186.712 127.03C188.029 124.642 187.906 122.543 187.864 122.296C187.782 121.431 187.206 120.731 186.383 120.484C184.283 119.867 182.266 119.085 180.125 118.262C178.808 117.768 177.449 117.232 176.091 116.738C172.304 115.421 166.623 113.651 160.571 113.651C153.45 113.651 146.74 116.368 141.594 121.266C136.448 126.206 133.484 132.834 133.32 139.915C133.237 142.632 133.608 145.307 134.349 147.86L129.244 146.172C128.174 145.801 127.021 146.419 126.651 147.489C126.28 148.559 126.898 149.712 127.968 150.083L133.896 152.017C141.059 154.364 148.798 153.911 155.755 150.659C160.778 148.312 164.976 146.748 168.969 145.678C173.703 144.443 177.409 144.237 180.537 145.06C183.089 145.719 184.901 146.378 188.441 150.124L188.688 150.453C188.194 150.618 187.741 150.865 187.329 151.194C186.794 151.647 186.341 152.223 186.094 152.841C184.901 152.182 183.46 152.182 182.225 152.841C181.443 153.253 180.825 153.87 180.455 154.611L180.249 154.405C179.343 153.376 178.273 152.594 177.079 152.059C171.398 149.548 165.058 151.853 160.201 154.158C157.525 155.434 155.138 157.204 152.873 158.934C149.827 161.198 146.945 163.379 143.611 164.203C139.247 165.314 134.225 163.832 131.179 160.498C130.397 159.675 129.121 159.592 128.256 160.374C127.433 161.157 127.351 162.433 128.133 163.297C131.303 166.755 135.996 168.731 140.688 168.731C142.006 168.731 143.323 168.567 144.599 168.237C146.781 167.702 148.716 166.755 150.527 165.603C153.615 166.796 156.825 167.414 160.16 167.414H207.09C215.159 167.414 223.145 169.472 230.184 173.424C236.153 176.759 241.34 181.369 245.292 186.844C241.381 187.091 237.1 185.033 235.042 181.699C234.466 180.711 233.19 180.422 232.202 180.999C231.214 181.575 230.926 182.851 231.502 183.839C234.836 189.273 242.205 192.196 248.298 190.467C249.533 190.096 250.726 189.685 251.879 189.314C254.431 188.408 256.86 187.544 259.618 187.544C261.594 187.503 264.435 187.956 266.657 190.014C267.193 190.508 267.563 191.084 267.769 191.661C266.987 190.961 266.287 190.384 265.875 190.096C265.217 189.602 264.311 189.561 263.611 189.973C262.911 190.384 262.5 191.208 262.582 191.99L262.623 192.443C262.17 192.196 261.676 191.99 261.182 191.825C258.712 191.002 256.078 191.208 253.772 192.36L253.525 192.484C253.484 192.484 253.484 192.525 253.443 192.525C240.187 200.758 233.189 190.673 232.901 190.22C232.284 189.273 231.007 189.026 230.061 189.643C229.114 190.261 228.826 191.537 229.484 192.484C229.567 192.607 237.347 204.093 251.385 198.247C253.114 203.022 254.02 208.044 254.061 213.19C254.184 228.957 246.445 243.529 233.272 252.217C220.264 260.779 203.921 262.261 189.552 256.128L174.238 249.541C167.569 246.659 161.024 243.325 154.849 239.496C156.99 234.104 159.624 228.258 163.452 223.153L197.456 237.726C200.872 239.167 204.372 239.908 207.871 239.908C212.893 239.908 217.833 238.426 222.238 235.503C229.812 230.522 234.094 222.495 234.053 213.438C234.011 206.522 231.171 199.936 226.066 194.996C221.003 190.056 214.375 187.339 207.418 187.339H160.86C134.843 187.339 113.561 166.427 113.437 140.74C113.437 138.887 113.519 136.994 113.725 135.141C114.631 127.114 117.636 119.457 122.411 112.912C126.692 107.066 132.332 102.208 138.754 98.8741C142.047 97.1863 145.506 95.869 149.087 95.0046C152.668 94.1402 156.209 93.8931 160.407 93.6461C165.594 93.3579 171.275 95.6632 176.339 97.7215L177.08 98.0096C181.979 99.9856 185.807 101.797 189.141 103.691C192.558 105.625 211.577 115.505 218.122 118.593C218.163 119.869 218.41 121.145 218.863 122.38C216.393 122.215 213.059 121.433 211.33 118.675C210.836 117.893 209.93 117.522 209.066 117.769C208.201 118.016 207.584 118.799 207.542 119.704C207.501 121.021 207.295 130.243 210.301 136.088C206.554 135.471 202.52 134.318 201.697 132.013L201.697 132.011ZM276.125 132.628H276.043C276.043 133.122 275.754 133.452 275.59 133.575C275.425 133.699 275.055 133.905 274.561 133.781C255.501 129.211 248.008 137.527 247.721 137.898C247.268 138.392 247.103 139.092 247.268 139.75C247.432 140.409 247.926 140.944 248.544 141.191C256.324 144.114 267.851 143.291 272.791 142.797V144.361H268.715C267.974 144.361 267.275 144.773 266.904 145.431C266.533 146.09 266.575 146.872 266.986 147.531C267.151 147.778 267.274 148.025 267.398 148.23C266.575 147.531 265.957 147.078 265.875 147.037C265.216 146.625 264.352 146.625 263.693 147.037C263.034 147.448 262.664 148.23 262.746 149.013C262.87 150.042 262.582 150.906 262.211 151.565L261.799 148.477C261.758 148.066 261.552 147.654 261.264 147.366C258.218 144.073 253.813 143.044 249.367 143.044C246.115 143.044 242.863 143.579 240.064 144.155C238.17 144.567 236.318 145.02 234.506 145.514C228.331 147.119 222.486 148.642 216.352 146.255C212.853 144.896 209.395 142.426 206.637 139.503C210.63 140.45 214.582 140.409 215.364 140.409C216.352 140.368 217.135 139.709 217.34 138.762C217.505 137.815 217.011 136.869 216.147 136.498C213.553 135.387 212.236 129.829 211.865 124.56C216.517 127.194 222.28 126.453 222.569 126.412C223.269 126.33 223.886 125.836 224.174 125.177C224.462 124.519 224.38 123.778 223.968 123.16C222.816 121.514 222.281 119.743 222.322 117.85C224.215 119.826 226.644 121.267 229.402 122.008L233.519 123.119C234.095 123.284 234.672 123.16 235.166 122.872C235.66 122.543 235.989 122.049 236.071 121.473C236.4 119.167 238.459 117.521 240.805 117.644L244.634 117.891C245.539 117.932 246.363 117.397 246.692 116.533C247.063 115.586 247.474 114.515 247.886 113.569C250.603 118.755 255.913 122.872 257.766 124.19C258.63 124.807 259.412 125.507 260.153 126.289C261.923 128.224 266.575 132.752 271.104 132.752C272.256 132.752 273.162 131.847 273.162 130.694C273.162 130.035 273.697 129.5 274.356 129.5H274.932C275.591 129.5 276.126 130.035 276.126 130.694L276.125 132.628Z" fill="#ECFCCB"/>
</g>
<defs>
<filter id="filter0_i_565_190589" x="0" y="153" width="76" height="28" filterUnits="userSpaceOnUse" color-interpolation-filters="sRGB">
<feFlood flood-opacity="0" result="BackgroundImageFix"/>
<feBlend mode="normal" in="SourceGraphic" in2="BackgroundImageFix" result="shape"/>
<feColorMatrix in="SourceAlpha" type="matrix" values="0 0 0 0 0 0 0 0 0 0 0 0 0 0 0 0 0 0 127 0" result="hardAlpha"/>
<feOffset dy="-8"/>
<feGaussianBlur stdDeviation="4.5"/>
<feComposite in2="hardAlpha" operator="arithmetic" k2="-1" k3="1"/>
<feColorMatrix type="matrix" values="0 0 0 0 0 0 0 0 0 0 0 0 0 0 0 0 0 0 0.45 0"/>
<feBlend mode="normal" in2="shape" result="effect1_innerShadow_565_190589"/>
</filter>
<filter id="filter1_i_565_190589" x="0" y="16" width="56" height="28" filterUnits="userSpaceOnUse" color-interpolation-filters="sRGB">
<feFlood flood-opacity="0" result="BackgroundImageFix"/>
<feBlend mode="normal" in="SourceGraphic" in2="BackgroundImageFix" result="shape"/>
<feColorMatrix in="SourceAlpha" type="matrix" values="0 0 0 0 0 0 0 0 0 0 0 0 0 0 0 0 0 0 127 0" result="hardAlpha"/>
<feOffset dy="-8"/>
<feGaussianBlur stdDeviation="4.5"/>
<feComposite in2="hardAlpha" operator="arithmetic" k2="-1" k3="1"/>
<feColorMatrix type="matrix" values="0 0 0 0 0 0 0 0 0 0 0 0 0 0 0 0 0 0 0.45 0"/>
<feBlend mode="normal" in2="shape" result="effect1_innerShadow_565_190589"/>
</filter>
<filter id="filter2_i_565_190589" x="0" y="291" width="56" height="28" filterUnits="userSpaceOnUse" color-interpolation-filters="sRGB">
<feFlood flood-opacity="0" result="BackgroundImageFix"/>
<feBlend mode="normal" in="SourceGraphic" in2="BackgroundImageFix" result="shape"/>
<feColorMatrix in="SourceAlpha" type="matrix" values="0 0 0 0 0 0 0 0 0 0 0 0 0 0 0 0 0 0 127 0" result="hardAlpha"/>
<feOffset dy="-8"/>
<feGaussianBlur stdDeviation="4.5"/>
<feComposite in2="hardAlpha" operator="arithmetic" k2="-1" k3="1"/>
<feColorMatrix type="matrix" values="0 0 0 0 0 0 0 0 0 0 0 0 0 0 0 0 0 0 0.45 0"/>
<feBlend mode="normal" in2="shape" result="effect1_innerShadow_565_190589"/>
</filter>
<filter id="filter3_i_565_190589" x="32" y="-44" width="301" height="384" filterUnits="userSpaceOnUse" color-interpolation-filters="sRGB">
<feFlood flood-opacity="0" result="BackgroundImageFix"/>
<feBlend mode="normal" in="SourceGraphic" in2="BackgroundImageFix" result="shape"/>
<feColorMatrix in="SourceAlpha" type="matrix" values="0 0 0 0 0 0 0 0 0 0 0 0 0 0 0 0 0 0 127 0" result="hardAlpha"/>
<feOffset dx="8" dy="-44"/>
<feGaussianBlur stdDeviation="26"/>
<feComposite in2="hardAlpha" operator="arithmetic" k2="-1" k3="1"/>
<feColorMatrix type="matrix" values="0 0 0 0 0 0 0 0 0 0 0 0 0 0 0 0 0 0 0.45 0"/>
<feBlend mode="normal" in2="shape" result="effect1_innerShadow_565_190589"/>
</filter>
<filter id="filter4_d_565_190589" x="34" y="17" width="289" height="322" filterUnits="userSpaceOnUse" color-interpolation-filters="sRGB">
<feFlood flood-opacity="0" result="BackgroundImageFix"/>
<feColorMatrix in="SourceAlpha" type="matrix" values="0 0 0 0 0 0 0 0 0 0 0 0 0 0 0 0 0 0 127 0" result="hardAlpha"/>
<feOffset/>
<feGaussianBlur stdDeviation="6"/>
<feComposite in2="hardAlpha" operator="out"/>
<feColorMatrix type="matrix" values="0 0 0 0 1 0 0 0 0 0.866084 0 0 0 0 0.333333 0 0 0 1 0"/>
<feBlend mode="normal" in2="BackgroundImageFix" result="effect1_dropShadow_565_190589"/>
<feBlend mode="normal" in="SourceGraphic" in2="effect1_dropShadow_565_190589" result="shape"/>
</filter>
<filter id="filter5_d_565_190589" x="51" y="34" width="255" height="288" filterUnits="userSpaceOnUse" color-interpolation-filters="sRGB">
<feFlood flood-opacity="0" result="BackgroundImageFix"/>
<feColorMatrix in="SourceAlpha" type="matrix" values="0 0 0 0 0 0 0 0 0 0 0 0 0 0 0 0 0 0 127 0" result="hardAlpha"/>
<feOffset/>
<feGaussianBlur stdDeviation="6"/>
<feComposite in2="hardAlpha" operator="out"/>
<feColorMatrix type="matrix" values="0 0 0 0 1 0 0 0 0 0.558333 0 0 0 0 0.558333 0 0 0 1 0"/>
<feBlend mode="normal" in2="BackgroundImageFix" result="effect1_dropShadow_565_190589"/>
<feBlend mode="normal" in="SourceGraphic" in2="effect1_dropShadow_565_190589" result="shape"/>
</filter>
<filter id="filter6_di_565_190589" x="191.602" y="100.597" width="64.0312" height="70.6137" filterUnits="userSpaceOnUse" color-interpolation-filters="sRGB">
<feFlood flood-opacity="0" result="BackgroundImageFix"/>
<feColorMatrix in="SourceAlpha" type="matrix" values="0 0 0 0 0 0 0 0 0 0 0 0 0 0 0 0 0 0 127 0" result="hardAlpha"/>
<feOffset/>
<feGaussianBlur stdDeviation="14"/>
<feComposite in2="hardAlpha" operator="out"/>
<feColorMatrix type="matrix" values="0 0 0 0 1 0 0 0 0 0.733333 0 0 0 0 0.583333 0 0 0 1 0"/>
<feBlend mode="normal" in2="BackgroundImageFix" result="effect1_dropShadow_565_190589"/>
<feBlend mode="normal" in="SourceGraphic" in2="effect1_dropShadow_565_190589" result="shape"/>
<feColorMatrix in="SourceAlpha" type="matrix" values="0 0 0 0 0 0 0 0 0 0 0 0 0 0 0 0 0 0 127 0" result="hardAlpha"/>
<feOffset/>
<feGaussianBlur stdDeviation="1.5"/>
<feComposite in2="hardAlpha" operator="arithmetic" k2="-1" k3="1"/>
<feColorMatrix type="matrix" values="0 0 0 0 0.92549 0 0 0 0 0.668235 0 0 0 0 0.282353 0 0 0 1 0"/>
<feBlend mode="normal" in2="shape" result="effect2_innerShadow_565_190589"/>
</filter>
<filter id="filter7_di_565_190589" x="139.367" y="202.438" width="67.2812" height="70.5718" filterUnits="userSpaceOnUse" color-interpolation-filters="sRGB">
<feFlood flood-opacity="0" result="BackgroundImageFix"/>
<feColorMatrix in="SourceAlpha" type="matrix" values="0 0 0 0 0 0 0 0 0 0 0 0 0 0 0 0 0 0 127 0" result="hardAlpha"/>
<feOffset/>
<feGaussianBlur stdDeviation="14"/>
<feComposite in2="hardAlpha" operator="out"/>
<feColorMatrix type="matrix" values="0 0 0 0 1 0 0 0 0 0.733333 0 0 0 0 0.583333 0 0 0 1 0"/>
<feBlend mode="normal" in2="BackgroundImageFix" result="effect1_dropShadow_565_190589"/>
<feBlend mode="normal" in="SourceGraphic" in2="effect1_dropShadow_565_190589" result="shape"/>
<feColorMatrix in="SourceAlpha" type="matrix" values="0 0 0 0 0 0 0 0 0 0 0 0 0 0 0 0 0 0 127 0" result="hardAlpha"/>
<feOffset/>
<feGaussianBlur stdDeviation="1.5"/>
<feComposite in2="hardAlpha" operator="arithmetic" k2="-1" k3="1"/>
<feColorMatrix type="matrix" values="0 0 0 0 0.92549 0 0 0 0 0.668235 0 0 0 0 0.282353 0 0 0 1 0"/>
<feBlend mode="normal" in2="shape" result="effect2_innerShadow_565_190589"/>
</filter>
<filter id="filter8_di_565_190589" x="111.312" y="208.071" width="65.6211" height="65.2505" filterUnits="userSpaceOnUse" color-interpolation-filters="sRGB">
<feFlood flood-opacity="0" result="BackgroundImageFix"/>
<feColorMatrix in="SourceAlpha" type="matrix" values="0 0 0 0 0 0 0 0 0 0 0 0 0 0 0 0 0 0 127 0" result="hardAlpha"/>
<feOffset/>
<feGaussianBlur stdDeviation="14"/>
<feComposite in2="hardAlpha" operator="out"/>
<feColorMatrix type="matrix" values="0 0 0 0 1 0 0 0 0 0.733333 0 0 0 0 0.583333 0 0 0 1 0"/>
<feBlend mode="normal" in2="BackgroundImageFix" result="effect1_dropShadow_565_190589"/>
<feBlend mode="normal" in="SourceGraphic" in2="effect1_dropShadow_565_190589" result="shape"/>
<feColorMatrix in="SourceAlpha" type="matrix" values="0 0 0 0 0 0 0 0 0 0 0 0 0 0 0 0 0 0 127 0" result="hardAlpha"/>
<feOffset/>
<feGaussianBlur stdDeviation="1.5"/>
<feComposite in2="hardAlpha" operator="arithmetic" k2="-1" k3="1"/>
<feColorMatrix type="matrix" values="0 0 0 0 0.92549 0 0 0 0 0.668235 0 0 0 0 0.282353 0 0 0 1 0"/>
<feBlend mode="normal" in2="shape" result="effect2_innerShadow_565_190589"/>
</filter>
<filter id="filter9_di_565_190589" x="102.148" y="218.853" width="65.4414" height="65.5255" filterUnits="userSpaceOnUse" color-interpolation-filters="sRGB">
<feFlood flood-opacity="0" result="BackgroundImageFix"/>
<feColorMatrix in="SourceAlpha" type="matrix" values="0 0 0 0 0 0 0 0 0 0 0 0 0 0 0 0 0 0 127 0" result="hardAlpha"/>
<feOffset/>
<feGaussianBlur stdDeviation="14"/>
<feComposite in2="hardAlpha" operator="out"/>
<feColorMatrix type="matrix" values="0 0 0 0 1 0 0 0 0 0.733333 0 0 0 0 0.583333 0 0 0 1 0"/>
<feBlend mode="normal" in2="BackgroundImageFix" result="effect1_dropShadow_565_190589"/>
<feBlend mode="normal" in="SourceGraphic" in2="effect1_dropShadow_565_190589" result="shape"/>
<feColorMatrix in="SourceAlpha" type="matrix" values="0 0 0 0 0 0 0 0 0 0 0 0 0 0 0 0 0 0 127 0" result="hardAlpha"/>
<feOffset/>
<feGaussianBlur stdDeviation="1.5"/>
<feComposite in2="hardAlpha" operator="arithmetic" k2="-1" k3="1"/>
<feColorMatrix type="matrix" values="0 0 0 0 0.92549 0 0 0 0 0.668235 0 0 0 0 0.282353 0 0 0 1 0"/>
<feBlend mode="normal" in2="shape" result="effect2_innerShadow_565_190589"/>
</filter>
<filter id="filter10_di_565_190589" x="86.8672" y="222.356" width="64.207" height="65.4366" filterUnits="userSpaceOnUse" color-interpolation-filters="sRGB">
<feFlood flood-opacity="0" result="BackgroundImageFix"/>
<feColorMatrix in="SourceAlpha" type="matrix" values="0 0 0 0 0 0 0 0 0 0 0 0 0 0 0 0 0 0 127 0" result="hardAlpha"/>
<feOffset/>
<feGaussianBlur stdDeviation="14"/>
<feComposite in2="hardAlpha" operator="out"/>
<feColorMatrix type="matrix" values="0 0 0 0 1 0 0 0 0 0.733333 0 0 0 0 0.583333 0 0 0 1 0"/>
<feBlend mode="normal" in2="BackgroundImageFix" result="effect1_dropShadow_565_190589"/>
<feBlend mode="normal" in="SourceGraphic" in2="effect1_dropShadow_565_190589" result="shape"/>
<feColorMatrix in="SourceAlpha" type="matrix" values="0 0 0 0 0 0 0 0 0 0 0 0 0 0 0 0 0 0 127 0" result="hardAlpha"/>
<feOffset/>
<feGaussianBlur stdDeviation="1.5"/>
<feComposite in2="hardAlpha" operator="arithmetic" k2="-1" k3="1"/>
<feColorMatrix type="matrix" values="0 0 0 0 0.92549 0 0 0 0 0.668235 0 0 0 0 0.282353 0 0 0 1 0"/>
<feBlend mode="normal" in2="shape" result="effect2_innerShadow_565_190589"/>
</filter>
<filter id="filter11_di_565_190589" x="153.902" y="207.868" width="67.8359" height="70.1737" filterUnits="userSpaceOnUse" color-interpolation-filters="sRGB">
<feFlood flood-opacity="0" result="BackgroundImageFix"/>
<feColorMatrix in="SourceAlpha" type="matrix" values="0 0 0 0 0 0 0 0 0 0 0 0 0 0 0 0 0 0 127 0" result="hardAlpha"/>
<feOffset/>
<feGaussianBlur stdDeviation="14"/>
<feComposite in2="hardAlpha" operator="out"/>
<feColorMatrix type="matrix" values="0 0 0 0 1 0 0 0 0 0.733333 0 0 0 0 0.583333 0 0 0 1 0"/>
<feBlend mode="normal" in2="BackgroundImageFix" result="effect1_dropShadow_565_190589"/>
<feBlend mode="normal" in="SourceGraphic" in2="effect1_dropShadow_565_190589" result="shape"/>
<feColorMatrix in="SourceAlpha" type="matrix" values="0 0 0 0 0 0 0 0 0 0 0 0 0 0 0 0 0 0 127 0" result="hardAlpha"/>
<feOffset/>
<feGaussianBlur stdDeviation="1.5"/>
<feComposite in2="hardAlpha" operator="arithmetic" k2="-1" k3="1"/>
<feColorMatrix type="matrix" values="0 0 0 0 0.92549 0 0 0 0 0.668235 0 0 0 0 0.282353 0 0 0 1 0"/>
<feBlend mode="normal" in2="shape" result="effect2_innerShadow_565_190589"/>
</filter>
<filter id="filter12_di_565_190589" x="172.426" y="212.945" width="65.4961" height="70.7343" filterUnits="userSpaceOnUse" color-interpolation-filters="sRGB">
<feFlood flood-opacity="0" result="BackgroundImageFix"/>
<feColorMatrix in="SourceAlpha" type="matrix" values="0 0 0 0 0 0 0 0 0 0 0 0 0 0 0 0 0 0 127 0" result="hardAlpha"/>
<feOffset/>
<feGaussianBlur stdDeviation="14"/>
<feComposite in2="hardAlpha" operator="out"/>
<feColorMatrix type="matrix" values="0 0 0 0 1 0 0 0 0 0.733333 0 0 0 0 0.583333 0 0 0 1 0"/>
<feBlend mode="normal" in2="BackgroundImageFix" result="effect1_dropShadow_565_190589"/>
<feBlend mode="normal" in="SourceGraphic" in2="effect1_dropShadow_565_190589" result="shape"/>
<feColorMatrix in="SourceAlpha" type="matrix" values="0 0 0 0 0 0 0 0 0 0 0 0 0 0 0 0 0 0 127 0" result="hardAlpha"/>
<feOffset/>
<feGaussianBlur stdDeviation="1.5"/>
<feComposite in2="hardAlpha" operator="arithmetic" k2="-1" k3="1"/>
<feColorMatrix type="matrix" values="0 0 0 0 0.92549 0 0 0 0 0.668235 0 0 0 0 0.282353 0 0 0 1 0"/>
<feBlend mode="normal" in2="shape" result="effect2_innerShadow_565_190589"/>
</filter>
<filter id="filter13_ddd_565_190589" x="119.207" y="148.206" width="54.0703" height="48.2663" filterUnits="userSpaceOnUse" color-interpolation-filters="sRGB">
<feFlood flood-opacity="0" result="BackgroundImageFix"/>
<feColorMatrix in="SourceAlpha" type="matrix" values="0 0 0 0 0 0 0 0 0 0 0 0 0 0 0 0 0 0 127 0" result="hardAlpha"/>
<feOffset/>
<feGaussianBlur stdDeviation="6"/>
<feComposite in2="hardAlpha" operator="out"/>
<feColorMatrix type="matrix" values="0 0 0 0 1 0 0 0 0 1 0 0 0 0 1 0 0 0 0.15 0"/>
<feBlend mode="normal" in2="BackgroundImageFix" result="effect1_dropShadow_565_190589"/>
<feColorMatrix in="SourceAlpha" type="matrix" values="0 0 0 0 0 0 0 0 0 0 0 0 0 0 0 0 0 0 127 0" result="hardAlpha"/>
<feOffset/>
<feGaussianBlur stdDeviation="10"/>
<feComposite in2="hardAlpha" operator="out"/>
<feColorMatrix type="matrix" values="0 0 0 0 0.323754 0 0 0 0 0.259792 0 0 0 0 0.716667 0 0 0 1 0"/>
<feBlend mode="normal" in2="effect1_dropShadow_565_190589" result="effect2_dropShadow_565_190589"/>
<feColorMatrix in="SourceAlpha" type="matrix" values="0 0 0 0 0 0 0 0 0 0 0 0 0 0 0 0 0 0 127 0" result="hardAlpha"/>
<feOffset/>
<feGaussianBlur stdDeviation="2.5"/>
<feComposite in2="hardAlpha" operator="out"/>
<feColorMatrix type="matrix" values="0 0 0 0 0.85 0 0 0 0 0.85 0 0 0 0 0.85 0 0 0 1 0"/>
<feBlend mode="normal" in2="effect2_dropShadow_565_190589" result="effect3_dropShadow_565_190589"/>
<feBlend mode="normal" in="SourceGraphic" in2="effect3_dropShadow_565_190589" result="shape"/>
</filter>
<filter id="filter14_ddd_565_190589" x="111.621" y="150.657" width="46.4805" height="44.957" filterUnits="userSpaceOnUse" color-interpolation-filters="sRGB">
<feFlood flood-opacity="0" result="BackgroundImageFix"/>
<feColorMatrix in="SourceAlpha" type="matrix" values="0 0 0 0 0 0 0 0 0 0 0 0 0 0 0 0 0 0 127 0" result="hardAlpha"/>
<feOffset/>
<feGaussianBlur stdDeviation="6"/>
<feComposite in2="hardAlpha" operator="out"/>
<feColorMatrix type="matrix" values="0 0 0 0 1 0 0 0 0 1 0 0 0 0 1 0 0 0 0.15 0"/>
<feBlend mode="normal" in2="BackgroundImageFix" result="effect1_dropShadow_565_190589"/>
<feColorMatrix in="SourceAlpha" type="matrix" values="0 0 0 0 0 0 0 0 0 0 0 0 0 0 0 0 0 0 127 0" result="hardAlpha"/>
<feOffset/>
<feGaussianBlur stdDeviation="10"/>
<feComposite in2="hardAlpha" operator="out"/>
<feColorMatrix type="matrix" values="0 0 0 0 0.323754 0 0 0 0 0.259792 0 0 0 0 0.716667 0 0 0 1 0"/>
<feBlend mode="normal" in2="effect1_dropShadow_565_190589" result="effect2_dropShadow_565_190589"/>
<feColorMatrix in="SourceAlpha" type="matrix" values="0 0 0 0 0 0 0 0 0 0 0 0 0 0 0 0 0 0 127 0" result="hardAlpha"/>
<feOffset/>
<feGaussianBlur stdDeviation="2.5"/>
<feComposite in2="hardAlpha" operator="out"/>
<feColorMatrix type="matrix" values="0 0 0 0 0.85 0 0 0 0 0.85 0 0 0 0 0.85 0 0 0 1 0"/>
<feBlend mode="normal" in2="effect2_dropShadow_565_190589" result="effect3_dropShadow_565_190589"/>
<feBlend mode="normal" in="SourceGraphic" in2="effect3_dropShadow_565_190589" result="shape"/>
</filter>
<filter id="filter15_di_565_190589" x="206.633" y="86.675" width="82.3164" height="79.056" filterUnits="userSpaceOnUse" color-interpolation-filters="sRGB">
<feFlood flood-opacity="0" result="BackgroundImageFix"/>
<feColorMatrix in="SourceAlpha" type="matrix" values="0 0 0 0 0 0 0 0 0 0 0 0 0 0 0 0 0 0 127 0" result="hardAlpha"/>
<feOffset/>
<feGaussianBlur stdDeviation="16"/>
<feComposite in2="hardAlpha" operator="out"/>
<feColorMatrix type="matrix" values="0 0 0 0 1 0 0 0 0 0.583333 0 0 0 0 0.808333 0 0 0 1 0"/>
<feBlend mode="normal" in2="BackgroundImageFix" result="effect1_dropShadow_565_190589"/>
<feBlend mode="normal" in="SourceGraphic" in2="effect1_dropShadow_565_190589" result="shape"/>
<feColorMatrix in="SourceAlpha" type="matrix" values="0 0 0 0 0 0 0 0 0 0 0 0 0 0 0 0 0 0 127 0" result="hardAlpha"/>
<feOffset/>
<feGaussianBlur stdDeviation="2"/>
<feComposite in2="hardAlpha" operator="arithmetic" k2="-1" k3="1"/>
<feColorMatrix type="matrix" values="0 0 0 0 0.92549 0 0 0 0 0.282353 0 0 0 0 0.6 0 0 0 1 0"/>
<feBlend mode="normal" in2="shape" result="effect2_innerShadow_565_190589"/>
</filter>
<filter id="filter16_ddd_565_190589" x="217.16" y="180.476" width="50.2266" height="45.058" filterUnits="userSpaceOnUse" color-interpolation-filters="sRGB">
<feFlood flood-opacity="0" result="BackgroundImageFix"/>
<feColorMatrix in="SourceAlpha" type="matrix" values="0 0 0 0 0 0 0 0 0 0 0 0 0 0 0 0 0 0 127 0" result="hardAlpha"/>
<feOffset/>
<feGaussianBlur stdDeviation="6"/>
<feComposite in2="hardAlpha" operator="out"/>
<feColorMatrix type="matrix" values="0 0 0 0 1 0 0 0 0 1 0 0 0 0 1 0 0 0 0.15 0"/>
<feBlend mode="normal" in2="BackgroundImageFix" result="effect1_dropShadow_565_190589"/>
<feColorMatrix in="SourceAlpha" type="matrix" values="0 0 0 0 0 0 0 0 0 0 0 0 0 0 0 0 0 0 127 0" result="hardAlpha"/>
<feOffset/>
<feGaussianBlur stdDeviation="10"/>
<feComposite in2="hardAlpha" operator="out"/>
<feColorMatrix type="matrix" values="0 0 0 0 0.323754 0 0 0 0 0.259792 0 0 0 0 0.716667 0 0 0 1 0"/>
<feBlend mode="normal" in2="effect1_dropShadow_565_190589" result="effect2_dropShadow_565_190589"/>
<feColorMatrix in="SourceAlpha" type="matrix" values="0 0 0 0 0 0 0 0 0 0 0 0 0 0 0 0 0 0 127 0" result="hardAlpha"/>
<feOffset/>
<feGaussianBlur stdDeviation="2.5"/>
<feComposite in2="hardAlpha" operator="out"/>
<feColorMatrix type="matrix" values="0 0 0 0 0.85 0 0 0 0 0.85 0 0 0 0 0.85 0 0 0 1 0"/>
<feBlend mode="normal" in2="effect2_dropShadow_565_190589" result="effect3_dropShadow_565_190589"/>
<feBlend mode="normal" in="SourceGraphic" in2="effect3_dropShadow_565_190589" result="shape"/>
</filter>
<filter id="filter17_ddd_565_190589" x="212.043" y="179.36" width="45.0156" height="44.6516" filterUnits="userSpaceOnUse" color-interpolation-filters="sRGB">
<feFlood flood-opacity="0" result="BackgroundImageFix"/>
<feColorMatrix in="SourceAlpha" type="matrix" values="0 0 0 0 0 0 0 0 0 0 0 0 0 0 0 0 0 0 127 0" result="hardAlpha"/>
<feOffset/>
<feGaussianBlur stdDeviation="6"/>
<feComposite in2="hardAlpha" operator="out"/>
<feColorMatrix type="matrix" values="0 0 0 0 1 0 0 0 0 1 0 0 0 0 1 0 0 0 0.15 0"/>
<feBlend mode="normal" in2="BackgroundImageFix" result="effect1_dropShadow_565_190589"/>
<feColorMatrix in="SourceAlpha" type="matrix" values="0 0 0 0 0 0 0 0 0 0 0 0 0 0 0 0 0 0 127 0" result="hardAlpha"/>
<feOffset/>
<feGaussianBlur stdDeviation="10"/>
<feComposite in2="hardAlpha" operator="out"/>
<feColorMatrix type="matrix" values="0 0 0 0 0.323754 0 0 0 0 0.259792 0 0 0 0 0.716667 0 0 0 1 0"/>
<feBlend mode="normal" in2="effect1_dropShadow_565_190589" result="effect2_dropShadow_565_190589"/>
<feColorMatrix in="SourceAlpha" type="matrix" values="0 0 0 0 0 0 0 0 0 0 0 0 0 0 0 0 0 0 127 0" result="hardAlpha"/>
<feOffset/>
<feGaussianBlur stdDeviation="2.5"/>
<feComposite in2="hardAlpha" operator="out"/>
<feColorMatrix type="matrix" values="0 0 0 0 0.85 0 0 0 0 0.85 0 0 0 0 0.85 0 0 0 1 0"/>
<feBlend mode="normal" in2="effect2_dropShadow_565_190589" result="effect3_dropShadow_565_190589"/>
<feBlend mode="normal" in="SourceGraphic" in2="effect3_dropShadow_565_190589" result="shape"/>
</filter>
<filter id="filter18_ddd_565_190589" x="89.5977" y="82.5222" width="45.9102" height="46.7637" filterUnits="userSpaceOnUse" color-interpolation-filters="sRGB">
<feFlood flood-opacity="0" result="BackgroundImageFix"/>
<feColorMatrix in="SourceAlpha" type="matrix" values="0 0 0 0 0 0 0 0 0 0 0 0 0 0 0 0 0 0 127 0" result="hardAlpha"/>
<feOffset/>
<feGaussianBlur stdDeviation="6"/>
<feComposite in2="hardAlpha" operator="out"/>
<feColorMatrix type="matrix" values="0 0 0 0 1 0 0 0 0 1 0 0 0 0 1 0 0 0 0.15 0"/>
<feBlend mode="normal" in2="BackgroundImageFix" result="effect1_dropShadow_565_190589"/>
<feColorMatrix in="SourceAlpha" type="matrix" values="0 0 0 0 0 0 0 0 0 0 0 0 0 0 0 0 0 0 127 0" result="hardAlpha"/>
<feOffset/>
<feGaussianBlur stdDeviation="10"/>
<feComposite in2="hardAlpha" operator="out"/>
<feColorMatrix type="matrix" values="0 0 0 0 0.323754 0 0 0 0 0.259792 0 0 0 0 0.716667 0 0 0 1 0"/>
<feBlend mode="normal" in2="effect1_dropShadow_565_190589" result="effect2_dropShadow_565_190589"/>
<feColorMatrix in="SourceAlpha" type="matrix" values="0 0 0 0 0 0 0 0 0 0 0 0 0 0 0 0 0 0 127 0" result="hardAlpha"/>
<feOffset/>
<feGaussianBlur stdDeviation="2.5"/>
<feComposite in2="hardAlpha" operator="out"/>
<feColorMatrix type="matrix" values="0 0 0 0 0.85 0 0 0 0 0.85 0 0 0 0 0.85 0 0 0 1 0"/>
<feBlend mode="normal" in2="effect2_dropShadow_565_190589" result="effect3_dropShadow_565_190589"/>
<feBlend mode="normal" in="SourceGraphic" in2="effect3_dropShadow_565_190589" result="shape"/>
</filter>
<filter id="filter19_ddd_565_190589" x="96.5938" y="71.5634" width="49.9961" height="49.0558" filterUnits="userSpaceOnUse" color-interpolation-filters="sRGB">
<feFlood flood-opacity="0" result="BackgroundImageFix"/>
<feColorMatrix in="SourceAlpha" type="matrix" values="0 0 0 0 0 0 0 0 0 0 0 0 0 0 0 0 0 0 127 0" result="hardAlpha"/>
<feOffset/>
<feGaussianBlur stdDeviation="6"/>
<feComposite in2="hardAlpha" operator="out"/>
<feColorMatrix type="matrix" values="0 0 0 0 1 0 0 0 0 1 0 0 0 0 1 0 0 0 0.15 0"/>
<feBlend mode="normal" in2="BackgroundImageFix" result="effect1_dropShadow_565_190589"/>
<feColorMatrix in="SourceAlpha" type="matrix" values="0 0 0 0 0 0 0 0 0 0 0 0 0 0 0 0 0 0 127 0" result="hardAlpha"/>
<feOffset/>
<feGaussianBlur stdDeviation="10"/>
<feComposite in2="hardAlpha" operator="out"/>
<feColorMatrix type="matrix" values="0 0 0 0 0.323754 0 0 0 0 0.259792 0 0 0 0 0.716667 0 0 0 1 0"/>
<feBlend mode="normal" in2="effect1_dropShadow_565_190589" result="effect2_dropShadow_565_190589"/>
<feColorMatrix in="SourceAlpha" type="matrix" values="0 0 0 0 0 0 0 0 0 0 0 0 0 0 0 0 0 0 127 0" result="hardAlpha"/>
<feOffset/>
<feGaussianBlur stdDeviation="2.5"/>
<feComposite in2="hardAlpha" operator="out"/>
<feColorMatrix type="matrix" values="0 0 0 0 0.85 0 0 0 0 0.85 0 0 0 0 0.85 0 0 0 1 0"/>
<feBlend mode="normal" in2="effect2_dropShadow_565_190589" result="effect3_dropShadow_565_190589"/>
<feBlend mode="normal" in="SourceGraphic" in2="effect3_dropShadow_565_190589" result="shape"/>
</filter>
<filter id="filter20_ddd_565_190589" x="108.293" y="63.9886" width="54.7656" height="48.095" filterUnits="userSpaceOnUse" color-interpolation-filters="sRGB">
<feFlood flood-opacity="0" result="BackgroundImageFix"/>
<feColorMatrix in="SourceAlpha" type="matrix" values="0 0 0 0 0 0 0 0 0 0 0 0 0 0 0 0 0 0 127 0" result="hardAlpha"/>
<feOffset/>
<feGaussianBlur stdDeviation="6"/>
<feComposite in2="hardAlpha" operator="out"/>
<feColorMatrix type="matrix" values="0 0 0 0 1 0 0 0 0 1 0 0 0 0 1 0 0 0 0.15 0"/>
<feBlend mode="normal" in2="BackgroundImageFix" result="effect1_dropShadow_565_190589"/>
<feColorMatrix in="SourceAlpha" type="matrix" values="0 0 0 0 0 0 0 0 0 0 0 0 0 0 0 0 0 0 127 0" result="hardAlpha"/>
<feOffset/>
<feGaussianBlur stdDeviation="10"/>
<feComposite in2="hardAlpha" operator="out"/>
<feColorMatrix type="matrix" values="0 0 0 0 0.323754 0 0 0 0 0.259792 0 0 0 0 0.716667 0 0 0 1 0"/>
<feBlend mode="normal" in2="effect1_dropShadow_565_190589" result="effect2_dropShadow_565_190589"/>
<feColorMatrix in="SourceAlpha" type="matrix" values="0 0 0 0 0 0 0 0 0 0 0 0 0 0 0 0 0 0 127 0" result="hardAlpha"/>
<feOffset/>
<feGaussianBlur stdDeviation="2.5"/>
<feComposite in2="hardAlpha" operator="out"/>
<feColorMatrix type="matrix" values="0 0 0 0 0.85 0 0 0 0 0.85 0 0 0 0 0.85 0 0 0 1 0"/>
<feBlend mode="normal" in2="effect2_dropShadow_565_190589" result="effect3_dropShadow_565_190589"/>
<feBlend mode="normal" in="SourceGraphic" in2="effect3_dropShadow_565_190589" result="shape"/>
</filter>
<filter id="filter21_ddd_565_190589" x="210.137" y="250.335" width="51.1133" height="46.6656" filterUnits="userSpaceOnUse" color-interpolation-filters="sRGB">
<feFlood flood-opacity="0" result="BackgroundImageFix"/>
<feColorMatrix in="SourceAlpha" type="matrix" values="0 0 0 0 0 0 0 0 0 0 0 0 0 0 0 0 0 0 127 0" result="hardAlpha"/>
<feOffset/>
<feGaussianBlur stdDeviation="6"/>
<feComposite in2="hardAlpha" operator="out"/>
<feColorMatrix type="matrix" values="0 0 0 0 1 0 0 0 0 1 0 0 0 0 1 0 0 0 0.15 0"/>
<feBlend mode="normal" in2="BackgroundImageFix" result="effect1_dropShadow_565_190589"/>
<feColorMatrix in="SourceAlpha" type="matrix" values="0 0 0 0 0 0 0 0 0 0 0 0 0 0 0 0 0 0 127 0" result="hardAlpha"/>
<feOffset/>
<feGaussianBlur stdDeviation="10"/>
<feComposite in2="hardAlpha" operator="out"/>
<feColorMatrix type="matrix" values="0 0 0 0 0.323754 0 0 0 0 0.259792 0 0 0 0 0.716667 0 0 0 1 0"/>
<feBlend mode="normal" in2="effect1_dropShadow_565_190589" result="effect2_dropShadow_565_190589"/>
<feColorMatrix in="SourceAlpha" type="matrix" values="0 0 0 0 0 0 0 0 0 0 0 0 0 0 0 0 0 0 127 0" result="hardAlpha"/>
<feOffset/>
<feGaussianBlur stdDeviation="2.5"/>
<feComposite in2="hardAlpha" operator="out"/>
<feColorMatrix type="matrix" values="0 0 0 0 0.85 0 0 0 0 0.85 0 0 0 0 0.85 0 0 0 1 0"/>
<feBlend mode="normal" in2="effect2_dropShadow_565_190589" result="effect3_dropShadow_565_190589"/>
<feBlend mode="normal" in="SourceGraphic" in2="effect3_dropShadow_565_190589" result="shape"/>
</filter>
<filter id="filter22_ddd_565_190589" x="223.605" y="242.074" width="50.0547" height="48.7874" filterUnits="userSpaceOnUse" color-interpolation-filters="sRGB">
<feFlood flood-opacity="0" result="BackgroundImageFix"/>
<feColorMatrix in="SourceAlpha" type="matrix" values="0 0 0 0 0 0 0 0 0 0 0 0 0 0 0 0 0 0 127 0" result="hardAlpha"/>
<feOffset/>
<feGaussianBlur stdDeviation="6"/>
<feComposite in2="hardAlpha" operator="out"/>
<feColorMatrix type="matrix" values="0 0 0 0 1 0 0 0 0 1 0 0 0 0 1 0 0 0 0.15 0"/>
<feBlend mode="normal" in2="BackgroundImageFix" result="effect1_dropShadow_565_190589"/>
<feColorMatrix in="SourceAlpha" type="matrix" values="0 0 0 0 0 0 0 0 0 0 0 0 0 0 0 0 0 0 127 0" result="hardAlpha"/>
<feOffset/>
<feGaussianBlur stdDeviation="10"/>
<feComposite in2="hardAlpha" operator="out"/>
<feColorMatrix type="matrix" values="0 0 0 0 0.323754 0 0 0 0 0.259792 0 0 0 0 0.716667 0 0 0 1 0"/>
<feBlend mode="normal" in2="effect1_dropShadow_565_190589" result="effect2_dropShadow_565_190589"/>
<feColorMatrix in="SourceAlpha" type="matrix" values="0 0 0 0 0 0 0 0 0 0 0 0 0 0 0 0 0 0 127 0" result="hardAlpha"/>
<feOffset/>
<feGaussianBlur stdDeviation="2.5"/>
<feComposite in2="hardAlpha" operator="out"/>
<feColorMatrix type="matrix" values="0 0 0 0 0.85 0 0 0 0 0.85 0 0 0 0 0.85 0 0 0 1 0"/>
<feBlend mode="normal" in2="effect2_dropShadow_565_190589" result="effect3_dropShadow_565_190589"/>
<feBlend mode="normal" in="SourceGraphic" in2="effect3_dropShadow_565_190589" result="shape"/>
</filter>
<filter id="filter23_ddd_565_190589" x="237.344" y="206.488" width="51.8711" height="70.6389" filterUnits="userSpaceOnUse" color-interpolation-filters="sRGB">
<feFlood flood-opacity="0" result="BackgroundImageFix"/>
<feColorMatrix in="SourceAlpha" type="matrix" values="0 0 0 0 0 0 0 0 0 0 0 0 0 0 0 0 0 0 127 0" result="hardAlpha"/>
<feOffset/>
<feGaussianBlur stdDeviation="6"/>
<feComposite in2="hardAlpha" operator="out"/>
<feColorMatrix type="matrix" values="0 0 0 0 1 0 0 0 0 1 0 0 0 0 1 0 0 0 0.15 0"/>
<feBlend mode="normal" in2="BackgroundImageFix" result="effect1_dropShadow_565_190589"/>
<feColorMatrix in="SourceAlpha" type="matrix" values="0 0 0 0 0 0 0 0 0 0 0 0 0 0 0 0 0 0 127 0" result="hardAlpha"/>
<feOffset/>
<feGaussianBlur stdDeviation="10"/>
<feComposite in2="hardAlpha" operator="out"/>
<feColorMatrix type="matrix" values="0 0 0 0 0.323754 0 0 0 0 0.259792 0 0 0 0 0.716667 0 0 0 1 0"/>
<feBlend mode="normal" in2="effect1_dropShadow_565_190589" result="effect2_dropShadow_565_190589"/>
<feColorMatrix in="SourceAlpha" type="matrix" values="0 0 0 0 0 0 0 0 0 0 0 0 0 0 0 0 0 0 127 0" result="hardAlpha"/>
<feOffset/>
<feGaussianBlur stdDeviation="2.5"/>
<feComposite in2="hardAlpha" operator="out"/>
<feColorMatrix type="matrix" values="0 0 0 0 0.85 0 0 0 0 0.85 0 0 0 0 0.85 0 0 0 1 0"/>
<feBlend mode="normal" in2="effect2_dropShadow_565_190589" result="effect3_dropShadow_565_190589"/>
<feBlend mode="normal" in="SourceGraphic" in2="effect3_dropShadow_565_190589" result="shape"/>
</filter>
<filter id="filter24_di_565_190589" x="164.828" y="84.9193" width="67.8594" height="70.224" filterUnits="userSpaceOnUse" color-interpolation-filters="sRGB">
<feFlood flood-opacity="0" result="BackgroundImageFix"/>
<feColorMatrix in="SourceAlpha" type="matrix" values="0 0 0 0 0 0 0 0 0 0 0 0 0 0 0 0 0 0 127 0" result="hardAlpha"/>
<feOffset/>
<feGaussianBlur stdDeviation="14"/>
<feComposite in2="hardAlpha" operator="out"/>
<feColorMatrix type="matrix" values="0 0 0 0 1 0 0 0 0 0.733333 0 0 0 0 0.583333 0 0 0 1 0"/>
<feBlend mode="normal" in2="BackgroundImageFix" result="effect1_dropShadow_565_190589"/>
<feBlend mode="normal" in="SourceGraphic" in2="effect1_dropShadow_565_190589" result="shape"/>
<feColorMatrix in="SourceAlpha" type="matrix" values="0 0 0 0 0 0 0 0 0 0 0 0 0 0 0 0 0 0 127 0" result="hardAlpha"/>
<feOffset/>
<feGaussianBlur stdDeviation="1.5"/>
<feComposite in2="hardAlpha" operator="arithmetic" k2="-1" k3="1"/>
<feColorMatrix type="matrix" values="0 0 0 0 0.92549 0 0 0 0 0.668235 0 0 0 0 0.282353 0 0 0 1 0"/>
<feBlend mode="normal" in2="shape" result="effect2_innerShadow_565_190589"/>
</filter>
<filter id="filter25_di_565_190589" x="202.141" y="200.587" width="70.6562" height="64.0437" filterUnits="userSpaceOnUse" color-interpolation-filters="sRGB">
<feFlood flood-opacity="0" result="BackgroundImageFix"/>
<feColorMatrix in="SourceAlpha" type="matrix" values="0 0 0 0 0 0 0 0 0 0 0 0 0 0 0 0 0 0 127 0" result="hardAlpha"/>
<feOffset/>
<feGaussianBlur stdDeviation="14"/>
<feComposite in2="hardAlpha" operator="out"/>
<feColorMatrix type="matrix" values="0 0 0 0 1 0 0 0 0 0.733333 0 0 0 0 0.583333 0 0 0 1 0"/>
<feBlend mode="normal" in2="BackgroundImageFix" result="effect1_dropShadow_565_190589"/>
<feBlend mode="normal" in="SourceGraphic" in2="effect1_dropShadow_565_190589" result="shape"/>
<feColorMatrix in="SourceAlpha" type="matrix" values="0 0 0 0 0 0 0 0 0 0 0 0 0 0 0 0 0 0 127 0" result="hardAlpha"/>
<feOffset/>
<feGaussianBlur stdDeviation="1.5"/>
<feComposite in2="hardAlpha" operator="arithmetic" k2="-1" k3="1"/>
<feColorMatrix type="matrix" values="0 0 0 0 0.92549 0 0 0 0 0.668235 0 0 0 0 0.282353 0 0 0 1 0"/>
<feBlend mode="normal" in2="shape" result="effect2_innerShadow_565_190589"/>
</filter>
<filter id="filter26_di_565_190589" x="209.223" y="187.292" width="70.6562" height="64.0424" filterUnits="userSpaceOnUse" color-interpolation-filters="sRGB">
<feFlood flood-opacity="0" result="BackgroundImageFix"/>
<feColorMatrix in="SourceAlpha" type="matrix" values="0 0 0 0 0 0 0 0 0 0 0 0 0 0 0 0 0 0 127 0" result="hardAlpha"/>
<feOffset/>
<feGaussianBlur stdDeviation="14"/>
<feComposite in2="hardAlpha" operator="out"/>
<feColorMatrix type="matrix" values="0 0 0 0 1 0 0 0 0 0.733333 0 0 0 0 0.583333 0 0 0 1 0"/>
<feBlend mode="normal" in2="BackgroundImageFix" result="effect1_dropShadow_565_190589"/>
<feBlend mode="normal" in="SourceGraphic" in2="effect1_dropShadow_565_190589" result="shape"/>
<feColorMatrix in="SourceAlpha" type="matrix" values="0 0 0 0 0 0 0 0 0 0 0 0 0 0 0 0 0 0 127 0" result="hardAlpha"/>
<feOffset/>
<feGaussianBlur stdDeviation="1.5"/>
<feComposite in2="hardAlpha" operator="arithmetic" k2="-1" k3="1"/>
<feColorMatrix type="matrix" values="0 0 0 0 0.92549 0 0 0 0 0.668235 0 0 0 0 0.282353 0 0 0 1 0"/>
<feBlend mode="normal" in2="shape" result="effect2_innerShadow_565_190589"/>
</filter>
<filter id="filter27_di_565_190589" x="163.805" y="142.031" width="64.8945" height="70.7294" filterUnits="userSpaceOnUse" color-interpolation-filters="sRGB">
<feFlood flood-opacity="0" result="BackgroundImageFix"/>
<feColorMatrix in="SourceAlpha" type="matrix" values="0 0 0 0 0 0 0 0 0 0 0 0 0 0 0 0 0 0 127 0" result="hardAlpha"/>
<feOffset/>
<feGaussianBlur stdDeviation="14"/>
<feComposite in2="hardAlpha" operator="out"/>
<feColorMatrix type="matrix" values="0 0 0 0 1 0 0 0 0 0.733333 0 0 0 0 0.583333 0 0 0 1 0"/>
<feBlend mode="normal" in2="BackgroundImageFix" result="effect1_dropShadow_565_190589"/>
<feBlend mode="normal" in="SourceGraphic" in2="effect1_dropShadow_565_190589" result="shape"/>
<feColorMatrix in="SourceAlpha" type="matrix" values="0 0 0 0 0 0 0 0 0 0 0 0 0 0 0 0 0 0 127 0" result="hardAlpha"/>
<feOffset/>
<feGaussianBlur stdDeviation="1.5"/>
<feComposite in2="hardAlpha" operator="arithmetic" k2="-1" k3="1"/>
<feColorMatrix type="matrix" values="0 0 0 0 0.92549 0 0 0 0 0.668235 0 0 0 0 0.282353 0 0 0 1 0"/>
<feBlend mode="normal" in2="shape" result="effect2_innerShadow_565_190589"/>
</filter>
<filter id="filter28_di_565_190589" x="144.086" y="141.99" width="64.8945" height="70.7294" filterUnits="userSpaceOnUse" color-interpolation-filters="sRGB">
<feFlood flood-opacity="0" result="BackgroundImageFix"/>
<feColorMatrix in="SourceAlpha" type="matrix" values="0 0 0 0 0 0 0 0 0 0 0 0 0 0 0 0 0 0 127 0" result="hardAlpha"/>
<feOffset/>
<feGaussianBlur stdDeviation="14"/>
<feComposite in2="hardAlpha" operator="out"/>
<feColorMatrix type="matrix" values="0 0 0 0 1 0 0 0 0 0.733333 0 0 0 0 0.583333 0 0 0 1 0"/>
<feBlend mode="normal" in2="BackgroundImageFix" result="effect1_dropShadow_565_190589"/>
<feBlend mode="normal" in="SourceGraphic" in2="effect1_dropShadow_565_190589" result="shape"/>
<feColorMatrix in="SourceAlpha" type="matrix" values="0 0 0 0 0 0 0 0 0 0 0 0 0 0 0 0 0 0 127 0" result="hardAlpha"/>
<feOffset/>
<feGaussianBlur stdDeviation="1.5"/>
<feComposite in2="hardAlpha" operator="arithmetic" k2="-1" k3="1"/>
<feColorMatrix type="matrix" values="0 0 0 0 0.92549 0 0 0 0 0.668235 0 0 0 0 0.282353 0 0 0 1 0"/>
<feBlend mode="normal" in2="shape" result="effect2_innerShadow_565_190589"/>
</filter>
<filter id="filter29_di_565_190589" x="96.4492" y="86.2761" width="65.5781" height="70.7191" filterUnits="userSpaceOnUse" color-interpolation-filters="sRGB">
<feFlood flood-opacity="0" result="BackgroundImageFix"/>
<feColorMatrix in="SourceAlpha" type="matrix" values="0 0 0 0 0 0 0 0 0 0 0 0 0 0 0 0 0 0 127 0" result="hardAlpha"/>
<feOffset/>
<feGaussianBlur stdDeviation="14"/>
<feComposite in2="hardAlpha" operator="out"/>
<feColorMatrix type="matrix" values="0 0 0 0 1 0 0 0 0 0.733333 0 0 0 0 0.583333 0 0 0 1 0"/>
<feBlend mode="normal" in2="BackgroundImageFix" result="effect1_dropShadow_565_190589"/>
<feBlend mode="normal" in="SourceGraphic" in2="effect1_dropShadow_565_190589" result="shape"/>
<feColorMatrix in="SourceAlpha" type="matrix" values="0 0 0 0 0 0 0 0 0 0 0 0 0 0 0 0 0 0 127 0" result="hardAlpha"/>
<feOffset/>
<feGaussianBlur stdDeviation="1.5"/>
<feComposite in2="hardAlpha" operator="arithmetic" k2="-1" k3="1"/>
<feColorMatrix type="matrix" values="0 0 0 0 0.92549 0 0 0 0 0.668235 0 0 0 0 0.282353 0 0 0 1 0"/>
<feBlend mode="normal" in2="shape" result="effect2_innerShadow_565_190589"/>
</filter>
<filter id="filter30_di_565_190589" x="109.602" y="75.8566" width="64.0273" height="70.6551" filterUnits="userSpaceOnUse" color-interpolation-filters="sRGB">
<feFlood flood-opacity="0" result="BackgroundImageFix"/>
<feColorMatrix in="SourceAlpha" type="matrix" values="0 0 0 0 0 0 0 0 0 0 0 0 0 0 0 0 0 0 127 0" result="hardAlpha"/>
<feOffset/>
<feGaussianBlur stdDeviation="14"/>
<feComposite in2="hardAlpha" operator="out"/>
<feColorMatrix type="matrix" values="0 0 0 0 1 0 0 0 0 0.733333 0 0 0 0 0.583333 0 0 0 1 0"/>
<feBlend mode="normal" in2="BackgroundImageFix" result="effect1_dropShadow_565_190589"/>
<feBlend mode="normal" in="SourceGraphic" in2="effect1_dropShadow_565_190589" result="shape"/>
<feColorMatrix in="SourceAlpha" type="matrix" values="0 0 0 0 0 0 0 0 0 0 0 0 0 0 0 0 0 0 127 0" result="hardAlpha"/>
<feOffset/>
<feGaussianBlur stdDeviation="1.5"/>
<feComposite in2="hardAlpha" operator="arithmetic" k2="-1" k3="1"/>
<feColorMatrix type="matrix" values="0 0 0 0 0.92549 0 0 0 0 0.668235 0 0 0 0 0.282353 0 0 0 1 0"/>
<feBlend mode="normal" in2="shape" result="effect2_innerShadow_565_190589"/>
</filter>
<filter id="filter31_di_565_190589" x="123.926" y="69.6799" width="64.0273" height="70.6551" filterUnits="userSpaceOnUse" color-interpolation-filters="sRGB">
<feFlood flood-opacity="0" result="BackgroundImageFix"/>
<feColorMatrix in="SourceAlpha" type="matrix" values="0 0 0 0 0 0 0 0 0 0 0 0 0 0 0 0 0 0 127 0" result="hardAlpha"/>
<feOffset/>
<feGaussianBlur stdDeviation="14"/>
<feComposite in2="hardAlpha" operator="out"/>
<feColorMatrix type="matrix" values="0 0 0 0 1 0 0 0 0 0.733333 0 0 0 0 0.583333 0 0 0 1 0"/>
<feBlend mode="normal" in2="BackgroundImageFix" result="effect1_dropShadow_565_190589"/>
<feBlend mode="normal" in="SourceGraphic" in2="effect1_dropShadow_565_190589" result="shape"/>
<feColorMatrix in="SourceAlpha" type="matrix" values="0 0 0 0 0 0 0 0 0 0 0 0 0 0 0 0 0 0 127 0" result="hardAlpha"/>
<feOffset/>
<feGaussianBlur stdDeviation="1.5"/>
<feComposite in2="hardAlpha" operator="arithmetic" k2="-1" k3="1"/>
<feColorMatrix type="matrix" values="0 0 0 0 0.92549 0 0 0 0 0.668235 0 0 0 0 0.282353 0 0 0 1 0"/>
<feBlend mode="normal" in2="shape" result="effect2_innerShadow_565_190589"/>
</filter>
<filter id="filter32_di_565_190589" x="143.086" y="73.0684" width="66.6875" height="70.59" filterUnits="userSpaceOnUse" color-interpolation-filters="sRGB">
<feFlood flood-opacity="0" result="BackgroundImageFix"/>
<feColorMatrix in="SourceAlpha" type="matrix" values="0 0 0 0 0 0 0 0 0 0 0 0 0 0 0 0 0 0 127 0" result="hardAlpha"/>
<feOffset/>
<feGaussianBlur stdDeviation="14"/>
<feComposite in2="hardAlpha" operator="out"/>
<feColorMatrix type="matrix" values="0 0 0 0 1 0 0 0 0 0.733333 0 0 0 0 0.583333 0 0 0 1 0"/>
<feBlend mode="normal" in2="BackgroundImageFix" result="effect1_dropShadow_565_190589"/>
<feBlend mode="normal" in="SourceGraphic" in2="effect1_dropShadow_565_190589" result="shape"/>
<feColorMatrix in="SourceAlpha" type="matrix" values="0 0 0 0 0 0 0 0 0 0 0 0 0 0 0 0 0 0 127 0" result="hardAlpha"/>
<feOffset/>
<feGaussianBlur stdDeviation="1.5"/>
<feComposite in2="hardAlpha" operator="arithmetic" k2="-1" k3="1"/>
<feColorMatrix type="matrix" values="0 0 0 0 0.92549 0 0 0 0 0.668235 0 0 0 0 0.282353 0 0 0 1 0"/>
<feBlend mode="normal" in2="shape" result="effect2_innerShadow_565_190589"/>
</filter>
<filter id="filter33_di_565_190589" x="67" y="70" width="222" height="214.642" filterUnits="userSpaceOnUse" color-interpolation-filters="sRGB">
<feFlood flood-opacity="0" result="BackgroundImageFix"/>
<feColorMatrix in="SourceAlpha" type="matrix" values="0 0 0 0 0 0 0 0 0 0 0 0 0 0 0 0 0 0 127 0" result="hardAlpha"/>
<feOffset/>
<feGaussianBlur stdDeviation="4.5"/>
<feComposite in2="hardAlpha" operator="out"/>
<feColorMatrix type="matrix" values="0 0 0 0 0.752 0 0 0 0 1 0 0 0 0 0.225 0 0 0 1 0"/>
<feBlend mode="normal" in2="BackgroundImageFix" result="effect1_dropShadow_565_190589"/>
<feBlend mode="normal" in="SourceGraphic" in2="effect1_dropShadow_565_190589" result="shape"/>
<feColorMatrix in="SourceAlpha" type="matrix" values="0 0 0 0 0 0 0 0 0 0 0 0 0 0 0 0 0 0 127 0" result="hardAlpha"/>
<feOffset/>
<feGaussianBlur stdDeviation="2"/>
<feComposite in2="hardAlpha" operator="arithmetic" k2="-1" k3="1"/>
<feColorMatrix type="matrix" values="0 0 0 0 0.558083 0 0 0 0 0.754167 0 0 0 0 0 0 0 0 1 0"/>
<feBlend mode="normal" in2="shape" result="effect2_innerShadow_565_190589"/>
</filter>
</defs>
</svg>
