<svg width="54" height="61" viewBox="0 0 54 61" fill="none" xmlns="http://www.w3.org/2000/svg">
<g filter="url(#filter0_di_1230_304280)">
<path d="M1.17046 28.7435C0.494201 43.9592 11.016 55.3721 24.112 56.4201C25.0709 56.5878 26.0464 56.6558 27.0232 56.619C28.2027 56.6527 29.3834 56.5356 30.5372 56.2743C42.4732 54.4642 51.9415 43.6009 52.534 30.066L52.7103 26.0364C53.1817 15.2685 41.7917 5.54041 29.5698 5.07497C13.3917 4.45887 2.8611 11.8371 1.17046 28.7435Z" fill="#DC2626"/>
</g>
<path d="M26.0591 21C26.0591 9.40202 35.4611 0 47.0591 0C47.0591 11.598 37.6571 21 26.0591 21Z" fill="#15803D"/>
<ellipse cx="26.5303" cy="18.3045" rx="9.12947" ry="8.11508" fill="black" fill-opacity="0.2"/>
<g filter="url(#filter1_i_1230_304280)">
<path d="M26.2585 18.6426C25.5165 17.2901 25.8543 12.2182 28.9635 9.51318" stroke="#854D0E" stroke-width="8" stroke-linecap="round"/>
</g>
<rect x="35.4507" y="26.8137" width="10.1439" height="8.11508" rx="4.05754" transform="rotate(-28.2384 35.4507 26.8137)" fill="white" fill-opacity="0.2"/>
<defs>
<filter id="filter0_di_1230_304280" x="1.13965" y="-5.96045" width="65.585" height="66.5891" filterUnits="userSpaceOnUse" color-interpolation-filters="sRGB">
<feFlood flood-opacity="0" result="BackgroundImageFix"/>
<feColorMatrix in="SourceAlpha" type="matrix" values="0 0 0 0 0 0 0 0 0 0 0 0 0 0 0 0 0 0 127 0" result="hardAlpha"/>
<feOffset dy="4"/>
<feComposite in2="hardAlpha" operator="out"/>
<feColorMatrix type="matrix" values="0 0 0 0 0 0 0 0 0 0 0 0 0 0 0 0 0 0 0.25 0"/>
<feBlend mode="normal" in2="BackgroundImageFix" result="effect1_dropShadow_1230_304280"/>
<feBlend mode="normal" in="SourceGraphic" in2="effect1_dropShadow_1230_304280" result="shape"/>
<feColorMatrix in="SourceAlpha" type="matrix" values="0 0 0 0 0 0 0 0 0 0 0 0 0 0 0 0 0 0 127 0" result="hardAlpha"/>
<feOffset dx="14" dy="-11"/>
<feGaussianBlur stdDeviation="8"/>
<feComposite in2="hardAlpha" operator="arithmetic" k2="-1" k3="1"/>
<feColorMatrix type="matrix" values="0 0 0 0 0 0 0 0 0 0 0 0 0 0 0 0 0 0 0.25 0"/>
<feBlend mode="normal" in2="shape" result="effect2_innerShadow_1230_304280"/>
</filter>
<filter id="filter1_i_1230_304280" x="21.9263" y="4.16318" width="14.0371" height="18.4801" filterUnits="userSpaceOnUse" color-interpolation-filters="sRGB">
<feFlood flood-opacity="0" result="BackgroundImageFix"/>
<feBlend mode="normal" in="SourceGraphic" in2="BackgroundImageFix" result="shape"/>
<feColorMatrix in="SourceAlpha" type="matrix" values="0 0 0 0 0 0 0 0 0 0 0 0 0 0 0 0 0 0 127 0" result="hardAlpha"/>
<feOffset dx="3.35" dy="-1.35"/>
<feGaussianBlur stdDeviation="1.5"/>
<feComposite in2="hardAlpha" operator="arithmetic" k2="-1" k3="1"/>
<feColorMatrix type="matrix" values="0 0 0 0 0 0 0 0 0 0 0 0 0 0 0 0 0 0 0.25 0"/>
<feBlend mode="normal" in2="shape" result="effect1_innerShadow_1230_304280"/>
</filter>
</defs>
</svg>
