<svg width="86" height="124" viewBox="0 0 86 124" fill="none" xmlns="http://www.w3.org/2000/svg">
<circle cx="42.7111" cy="81.2889" r="42.7111" fill="black" fill-opacity="0.12"/>
<g filter="url(#filter0_di_1230_304149)">
<circle cx="42.0219" cy="79.2222" r="36.5111" fill="#CA8A04"/>
<circle cx="42.0219" cy="68.2" r="36.5111" fill="#ECDECE"/>
</g>
<g filter="url(#filter1_dii_1230_304149)">
<path d="M74.0731 100.669C79.745 100.669 76.3345 89.8205 76.3345 87.0425L82.5731 80.7774C82.6372 81.0854 82.6665 81.1187 82.6665 80.6836L82.5731 80.7774C82.391 79.9029 81.9282 76.8132 81.0584 75.9396C79.8425 74.7186 77.2391 74.347 77.2391 72.0537V57.0648C77.2391 45.664 60.9016 47.9807 52.8157 47.9807C51.1216 47.9807 46.1921 48.8365 44.8756 47.7788C43.0489 46.3113 41.8265 45.0796 39.6994 43.8928C36.949 42.3583 28.094 39.9635 25.4776 42.3283C22.8982 44.6596 19.3899 45.8724 16.8339 48.1826C15.3157 49.5547 14.8323 52.3342 13.4669 53.4312C9.91895 56.2816 12.6695 65.6708 10.5019 69.7826C9.45248 71.7733 6.89939 72.4628 5.577 74.1228C4.29415 75.7332 5.27515 79.2708 3.51659 80.6836C1.44681 82.3465 3.96506 94.1493 6.68259 94.3098C8.28074 94.4042 17.459 95.6959 17.5374 97.035C17.6314 98.6399 17.6046 102.358 18.8943 103.394C20.4427 104.638 20.5988 107.936 23.4171 107.936C25.4299 107.936 27.7855 108.844 30.2014 108.844C36.0668 108.844 40.4804 105.211 46.0314 105.211C49.2037 105.211 50.1931 107.066 53.3182 106.17C55.9658 105.41 57.5203 104.012 58.9467 101.577C61.1043 97.8935 70.0854 100.669 74.0731 100.669Z" fill="#65A30D"/>
</g>
<g filter="url(#filter2_ii_1230_304149)">
<ellipse cx="34.2297" cy="77.6188" rx="10.8513" ry="11.5295" fill="#DC2626"/>
<ellipse cx="34.058" cy="75.8587" rx="10.8675" ry="10.8675" fill="#EF4444"/>
<circle cx="34.0588" cy="75.8587" r="8.91528" fill="#B91C1C"/>
<path d="M35.0013 71.1456C37.5986 70.5296 39.8204 73.0816 38.8526 75.5694L38.7878 75.7357C38.5289 76.4012 38.5289 77.1395 38.7878 77.805L38.8202 77.888C39.7081 80.1702 37.406 82.3984 35.1238 81.5104C34.4498 81.2482 33.6885 81.2685 33.0326 81.573C31.0311 82.5023 28.8349 80.7274 29.3235 78.5755L29.5449 77.6004C29.6683 77.0568 29.6452 76.4902 29.4778 75.9585L29.4446 75.8531C28.658 73.3542 30.8057 70.8992 33.3985 71.2736C33.831 71.3361 34.2776 71.3173 34.7028 71.2164L35.0013 71.1456Z" fill="#EF4444"/>
<path d="M31.9411 67.9837C31.7214 66.6912 32.7174 65.5117 34.0284 65.5117C35.3159 65.5117 36.3053 66.6512 36.1248 67.9259L35.1441 74.8509C35.0372 75.6057 35.0379 76.3718 35.1461 77.1264L36.1207 83.9226C36.3033 85.196 35.3153 86.3357 34.0289 86.3357C32.7185 86.3357 31.7241 85.1555 31.9463 83.8642L33.0772 77.292C33.2256 76.4294 33.2265 75.548 33.0799 74.6852L31.9411 67.9837Z" fill="#EF4444"/>
<path d="M42.0634 74.2589C43.3566 74.0405 44.5356 75.0372 44.5356 76.3486C44.5356 77.6365 43.3963 78.6267 42.121 78.4472L35.1326 77.4637C34.3767 77.3574 33.6095 77.358 32.8538 77.4657L25.9951 78.4431C24.7211 78.6247 23.5815 77.636 23.5815 76.349C23.5815 75.0383 24.7613 74.0431 26.0533 74.2641L32.6877 75.3986C33.5518 75.5464 34.4346 75.5473 35.2989 75.4013L42.0634 74.2589Z" fill="#EF4444"/>
<path d="M29.2518 70.7184C29.4708 70.9981 29.7095 71.6148 29.5229 71.7609C29.3362 71.9071 28.7948 71.5274 28.5758 71.2477C28.3568 70.9679 28.3305 70.6227 28.5172 70.4765C28.7039 70.3303 29.0328 70.4386 29.2518 70.7184Z" fill="white" fill-opacity="0.4"/>
<path d="M30.6288 70.049C30.7255 70.3909 30.7129 71.052 30.4848 71.1165C30.2566 71.1811 29.8994 70.6247 29.8026 70.2828C29.7059 69.941 29.8124 69.6115 30.0405 69.5469C30.2686 69.4823 30.532 69.7071 30.6288 70.049Z" fill="white" fill-opacity="0.4"/>
<path d="M32.0599 70.1215C32.0335 70.4758 31.7948 71.0924 31.5584 71.0748C31.322 71.0572 31.1773 70.412 31.2037 70.0577C31.2301 69.7034 31.4431 69.4304 31.6796 69.448C31.916 69.4656 32.0863 69.7671 32.0599 70.1215Z" fill="white" fill-opacity="0.4"/>
<path d="M28.1998 71.8039C28.5125 71.9725 28.9782 72.4419 28.8657 72.6506C28.7532 72.8593 28.1051 72.7282 27.7923 72.5596C27.4796 72.391 27.3173 72.0852 27.4298 71.8765C27.5423 71.6678 27.8871 71.6353 28.1998 71.8039Z" fill="white" fill-opacity="0.4"/>
<path d="M27.8694 73.3479C28.2246 73.3381 28.8623 73.5128 28.8688 73.7498C28.8754 73.9868 28.2482 74.1963 27.8931 74.2061C27.5379 74.2159 27.2447 74.0317 27.2382 73.7947C27.2317 73.5577 27.5143 73.3576 27.8694 73.3479Z" fill="white" fill-opacity="0.4"/>
<path d="M39.6377 70.651C39.3813 70.897 38.7918 71.1964 38.6276 71.0254C38.4634 70.8543 38.7868 70.2776 39.0432 70.0316C39.2995 69.7856 39.6404 69.7248 39.8046 69.8958C39.9687 70.0669 39.894 70.405 39.6377 70.651Z" fill="white" fill-opacity="0.4"/>
<path d="M40.4419 71.9545C40.1115 72.0851 39.4525 72.1389 39.3653 71.9185C39.2782 71.698 39.7959 71.2867 40.1263 71.1561C40.4567 71.0255 40.7953 71.0984 40.8824 71.3189C40.9695 71.5393 40.7723 71.824 40.4419 71.9545Z" fill="white" fill-opacity="0.4"/>
<path d="M40.5137 73.3855C40.1585 73.3948 39.521 73.2193 39.5148 72.9823C39.5086 72.7453 40.136 72.5366 40.4912 72.5272C40.8464 72.5179 41.1393 72.7025 41.1455 72.9395C41.1518 73.1765 40.8689 73.3762 40.5137 73.3855Z" fill="white" fill-opacity="0.4"/>
<path d="M38.4522 69.7137C38.3158 70.0418 37.8955 70.5523 37.6766 70.4613C37.4576 70.3703 37.523 69.7123 37.6593 69.3842C37.7957 69.0561 38.0837 68.8639 38.3027 68.9549C38.5216 69.0459 38.5885 69.3856 38.4522 69.7137Z" fill="white" fill-opacity="0.4"/>
<path d="M36.8829 69.54C36.9283 69.8924 36.8185 70.5444 36.5834 70.5747C36.3483 70.605 36.0768 70.0021 36.0314 69.6497C35.986 69.2973 36.1398 68.9871 36.375 68.9568C36.6101 68.9265 36.8376 69.1876 36.8829 69.54Z" fill="white" fill-opacity="0.4"/>
<path d="M39.6377 81.8698C39.3813 81.6238 38.7918 81.3244 38.6276 81.4954C38.4634 81.6665 38.7868 82.2432 39.0432 82.4892C39.2995 82.7353 39.6404 82.796 39.8046 82.625C39.9687 82.4539 39.894 82.1158 39.6377 81.8698Z" fill="white" fill-opacity="0.4"/>
<path d="M40.4419 80.5663C40.1115 80.4357 39.4525 80.3819 39.3653 80.6024C39.2782 80.8229 39.7959 81.2341 40.1263 81.3647C40.4567 81.4953 40.7953 81.4225 40.8824 81.202C40.9695 80.9815 40.7723 80.6969 40.4419 80.5663Z" fill="white" fill-opacity="0.4"/>
<path d="M40.5137 79.1352C40.1585 79.1259 39.521 79.3015 39.5148 79.5385C39.5086 79.7755 40.136 79.9842 40.4912 79.9935C40.8464 80.0028 41.1393 79.8182 41.1455 79.5812C41.1518 79.3442 40.8689 79.1445 40.5137 79.1352Z" fill="white" fill-opacity="0.4"/>
<path d="M38.4522 82.807C38.3158 82.4789 37.8955 81.9685 37.6766 82.0595C37.4576 82.1505 37.523 82.8084 37.6593 83.1365C37.7957 83.4646 38.0837 83.6568 38.3027 83.5658C38.5216 83.4748 38.5885 83.1351 38.4522 82.807Z" fill="white" fill-opacity="0.4"/>
<path d="M36.8825 82.9808C36.9278 82.6284 36.8181 81.9764 36.5829 81.9461C36.3478 81.9158 36.0763 82.5187 36.0309 82.8711C35.9855 83.2235 36.1394 83.5337 36.3745 83.564C36.6096 83.5943 36.8371 83.3332 36.8825 82.9808Z" fill="white" fill-opacity="0.4"/>
<path d="M28.453 81.3061C28.8228 81.1375 29.599 81.0125 29.7443 81.2287C29.8896 81.4449 29.3489 81.9205 28.9791 82.0891C28.6093 82.2578 28.1918 82.2192 28.0465 82.003C27.9012 81.7868 28.0832 81.4748 28.453 81.3061Z" fill="white" fill-opacity="0.4"/>
<path d="M27.9453 79.8362C28.3504 79.8043 29.1034 79.9354 29.1425 80.1669C29.1816 80.3984 28.492 80.6427 28.087 80.6745C27.6819 80.7063 27.3218 80.5444 27.2827 80.3129C27.2436 80.0814 27.5403 79.868 27.9453 79.8362Z" fill="white" fill-opacity="0.4"/>
<path d="M28.245 78.4698C28.6456 78.559 29.3135 78.8999 29.2575 79.1246C29.2016 79.3494 28.4428 79.3728 28.0422 79.2837C27.6416 79.1946 27.3623 78.9401 27.4183 78.7154C27.4743 78.4906 27.8444 78.3807 28.245 78.4698Z" fill="white" fill-opacity="0.4"/>
<path d="M29.5812 82.4935C29.8212 82.2223 30.4279 81.8578 30.6491 82.0038C30.8703 82.1498 30.6223 82.7509 30.3823 83.0221C30.1423 83.2933 29.7684 83.3947 29.5472 83.2488C29.3259 83.1028 29.3412 82.7646 29.5812 82.4935Z" fill="white" fill-opacity="0.4"/>
<path d="M31.2939 83.0895C31.3366 82.7454 31.6329 82.1621 31.9045 82.1984C32.1762 82.2347 32.3203 82.8769 32.2776 83.221C32.2348 83.5651 31.98 83.8146 31.7084 83.7783C31.4368 83.742 31.2512 83.4336 31.2939 83.0895Z" fill="white" fill-opacity="0.4"/>
</g>
<g filter="url(#filter3_ii_1230_304149)">
<ellipse cx="19.0734" cy="69.3531" rx="10.8513" ry="11.5295" fill="#DC2626"/>
<ellipse cx="18.9017" cy="67.5931" rx="10.8675" ry="10.8675" fill="#EF4444"/>
<circle cx="18.9026" cy="67.5931" r="8.91528" fill="#B91C1C"/>
<path d="M19.8451 62.88C22.4424 62.2639 24.6642 64.816 23.6963 67.3038L23.6316 67.4701C23.3727 68.1355 23.3727 68.8739 23.6316 69.5393L23.6639 69.6224C24.5518 71.9046 22.2497 74.1327 19.9675 73.2448C19.2935 72.9826 18.5323 73.0028 17.8763 73.3074C15.8749 74.2366 13.6787 72.4618 14.1673 70.3099L14.3887 69.3347C14.5121 68.7912 14.4889 68.2245 14.3216 67.6928L14.2884 67.5874C13.5018 65.0886 15.6494 62.6336 18.2423 63.008C18.6747 63.0705 19.1214 63.0517 19.5466 62.9508L19.8451 62.88Z" fill="#EF4444"/>
<path d="M16.7848 59.7181C16.5652 58.4256 17.5611 57.2461 18.8722 57.2461C20.1596 57.2461 21.1491 58.3855 20.9686 59.6603L19.9879 66.5853C19.881 67.3401 19.8817 68.1062 19.9899 68.8608L20.9644 75.657C21.147 76.9304 20.1591 78.0701 18.8726 78.0701C17.5623 78.0701 16.5678 76.8899 16.79 75.5986L17.921 69.0263C18.0694 68.1638 18.0703 67.2824 17.9237 66.4196L16.7848 59.7181Z" fill="#EF4444"/>
<path d="M26.9072 65.9933C28.2003 65.7749 29.3794 66.7715 29.3794 68.083C29.3794 69.3709 28.2401 70.3611 26.9647 70.1816L19.9764 69.1981C19.2205 69.0917 18.4533 69.0924 17.6975 69.2001L10.8389 70.1775C9.56482 70.359 8.42523 69.3703 8.42523 68.0834C8.42523 66.7727 9.60506 65.7775 10.897 65.9984L17.5315 67.133C18.3955 67.2807 19.2783 67.2816 20.1427 67.1357L26.9072 65.9933Z" fill="#EF4444"/>
<path d="M14.0956 62.4528C14.3146 62.7325 14.5533 63.3491 14.3666 63.4953C14.1799 63.6415 13.6386 63.2618 13.4195 62.9821C13.2005 62.7023 13.1743 62.357 13.361 62.2109C13.5476 62.0647 13.8765 62.173 14.0956 62.4528Z" fill="white" fill-opacity="0.4"/>
<path d="M15.4725 61.7834C15.5693 62.1252 15.5566 62.7863 15.3285 62.8509C15.1004 62.9155 14.7432 62.3591 14.6464 62.0172C14.5496 61.6753 14.6561 61.3459 14.8843 61.2813C15.1124 61.2167 15.3757 61.4415 15.4725 61.7834Z" fill="white" fill-opacity="0.4"/>
<path d="M16.9036 61.8558C16.8772 62.2101 16.6386 62.8268 16.4022 62.8092C16.1657 62.7916 16.021 62.1464 16.0474 61.7921C16.0738 61.4377 16.2869 61.1648 16.5233 61.1824C16.7597 61.2 16.93 61.5015 16.9036 61.8558Z" fill="white" fill-opacity="0.4"/>
<path d="M13.0435 63.5383C13.3563 63.7069 13.822 64.1763 13.7094 64.385C13.5969 64.5937 12.9488 64.4626 12.6361 64.294C12.3233 64.1254 12.161 63.8195 12.2735 63.6108C12.3861 63.4022 12.7308 63.3697 13.0435 63.5383Z" fill="white" fill-opacity="0.4"/>
<path d="M12.7132 65.0822C13.0684 65.0724 13.7061 65.2472 13.7126 65.4842C13.7191 65.7211 13.092 65.9307 12.7368 65.9405C12.3817 65.9503 12.0885 65.7661 12.0819 65.5291C12.0754 65.2921 12.358 65.092 12.7132 65.0822Z" fill="white" fill-opacity="0.4"/>
<path d="M24.4814 62.3854C24.2251 62.6314 23.6355 62.9308 23.4714 62.7598C23.3072 62.5887 23.6306 62.012 23.8869 61.7659C24.1433 61.5199 24.4842 61.4592 24.6483 61.6302C24.8125 61.8013 24.7378 62.1394 24.4814 62.3854Z" fill="white" fill-opacity="0.4"/>
<path d="M25.2857 63.6889C24.9552 63.8195 24.2962 63.8733 24.2091 63.6528C24.1219 63.4323 24.6396 63.021 24.9701 62.8905C25.3005 62.7599 25.639 62.8327 25.7261 63.0532C25.8133 63.2737 25.6161 63.5583 25.2857 63.6889Z" fill="white" fill-opacity="0.4"/>
<path d="M25.3574 65.1199C25.0023 65.1292 24.3648 64.9537 24.3586 64.7167C24.3523 64.4797 24.9798 64.2709 25.3349 64.2616C25.6901 64.2523 25.9831 64.4369 25.9893 64.6739C25.9955 64.9109 25.7126 65.1106 25.3574 65.1199Z" fill="white" fill-opacity="0.4"/>
<path d="M23.2959 61.4481C23.1596 61.7762 22.7393 62.2866 22.5203 62.1957C22.3014 62.1047 22.3667 61.4467 22.5031 61.1186C22.6395 60.7905 22.9275 60.5983 23.1464 60.6893C23.3653 60.7803 23.4323 61.12 23.2959 61.4481Z" fill="white" fill-opacity="0.4"/>
<path d="M21.7267 61.2743C21.7721 61.6267 21.6623 62.2788 21.4271 62.309C21.192 62.3393 20.9206 61.7364 20.8752 61.384C20.8298 61.0316 20.9836 60.7214 21.2187 60.6911C21.4539 60.6608 21.6813 60.9219 21.7267 61.2743Z" fill="white" fill-opacity="0.4"/>
<path d="M24.4814 73.6042C24.2251 73.3581 23.6355 73.0587 23.4714 73.2298C23.3072 73.4009 23.6306 73.9776 23.8869 74.2236C24.1433 74.4696 24.4842 74.5304 24.6483 74.3593C24.8125 74.1883 24.7378 73.8502 24.4814 73.6042Z" fill="white" fill-opacity="0.4"/>
<path d="M25.2857 72.3006C24.9552 72.17 24.2962 72.1162 24.2091 72.3367C24.1219 72.5572 24.6396 72.9685 24.9701 73.0991C25.3005 73.2297 25.639 73.1568 25.7261 72.9363C25.8133 72.7158 25.6161 72.4312 25.2857 72.3006Z" fill="white" fill-opacity="0.4"/>
<path d="M25.3574 70.8697C25.0023 70.8603 24.3648 71.0359 24.3586 71.2729C24.3523 71.5099 24.9797 71.7186 25.3349 71.7279C25.6901 71.7373 25.9831 71.5527 25.9893 71.3157C25.9955 71.0787 25.7126 70.879 25.3574 70.8697Z" fill="white" fill-opacity="0.4"/>
<path d="M23.2959 74.5414C23.1596 74.2133 22.7393 73.7029 22.5203 73.7939C22.3014 73.8848 22.3667 74.5428 22.5031 74.8709C22.6395 75.199 22.9275 75.3912 23.1464 75.3002C23.3653 75.2092 23.4323 74.8695 23.2959 74.5414Z" fill="white" fill-opacity="0.4"/>
<path d="M21.7262 74.7152C21.7716 74.3628 21.6618 73.7107 21.4267 73.6805C21.1915 73.6502 20.9201 74.2531 20.8747 74.6055C20.8293 74.9579 20.9831 75.2681 21.2182 75.2984C21.4534 75.3287 21.6808 75.0676 21.7262 74.7152Z" fill="white" fill-opacity="0.4"/>
<path d="M13.2967 73.0405C13.6665 72.8719 14.4428 72.7468 14.5881 72.9631C14.7334 73.1793 14.1927 73.6548 13.8229 73.8235C13.4531 73.9921 13.0355 73.9536 12.8902 73.7374C12.7449 73.5211 12.9269 73.2091 13.2967 73.0405Z" fill="white" fill-opacity="0.4"/>
<path d="M12.7891 71.5705C13.1941 71.5387 13.9471 71.6697 13.9863 71.9012C14.0254 72.1328 13.3358 72.3771 12.9307 72.4089C12.5256 72.4407 12.1656 72.2788 12.1264 72.0473C12.0873 71.8158 12.384 71.6023 12.7891 71.5705Z" fill="white" fill-opacity="0.4"/>
<path d="M13.0887 70.2042C13.4893 70.2934 14.1573 70.6343 14.1013 70.859C14.0453 71.0837 13.2866 71.1072 12.886 71.0181C12.4854 70.9289 12.206 70.6745 12.262 70.4498C12.318 70.225 12.6881 70.1151 13.0887 70.2042Z" fill="white" fill-opacity="0.4"/>
<path d="M14.4249 74.2279C14.6649 73.9567 15.2716 73.5922 15.4929 73.7382C15.7141 73.8842 15.4661 74.4853 15.2261 74.7565C14.9861 75.0276 14.6122 75.1291 14.3909 74.9831C14.1697 74.8372 14.1849 74.499 14.4249 74.2279Z" fill="white" fill-opacity="0.4"/>
<path d="M16.1377 74.8239C16.1804 74.4797 16.4767 73.8964 16.7483 73.9327C17.0199 73.9691 17.164 74.6112 17.1213 74.9554C17.0786 75.2995 16.8238 75.549 16.5521 75.5127C16.2805 75.4764 16.0949 75.168 16.1377 74.8239Z" fill="white" fill-opacity="0.4"/>
</g>
<g filter="url(#filter4_di_1230_304149)">
<path d="M35.5474 25.135C40.1194 23.1625 45.3025 23.1625 49.8745 25.135C51.488 25.831 53.1943 26.2882 54.9396 26.4922C59.8854 27.07 64.374 29.6615 67.3473 33.6557C68.3965 35.0653 69.6456 36.3144 71.0552 37.3636C75.0494 40.3369 77.641 44.8256 78.2188 49.7713C78.4227 51.5166 78.8799 53.223 79.576 54.8364C81.5484 59.4085 81.5484 64.5915 79.576 69.1636C78.8799 70.777 78.4227 72.4833 78.2188 74.2287C77.641 79.1744 75.0494 83.6631 71.0552 86.6363C69.6456 87.6856 68.3965 88.9347 67.3473 90.3443C64.374 94.3385 59.8854 96.93 54.9396 97.5078C53.1943 97.7117 51.488 98.1689 49.8745 98.865C45.3025 100.838 40.1194 100.838 35.5474 98.865C33.9339 98.1689 32.2276 97.7117 30.4822 97.5078C25.5365 96.93 21.0478 94.3385 18.0746 90.3443C17.0253 88.9347 15.7762 87.6856 14.3667 86.6363C10.3724 83.6631 7.78089 79.1744 7.20309 74.2287C6.99919 72.4833 6.54198 70.777 5.84589 69.1635C3.87341 64.5915 3.87341 59.4085 5.84589 54.8364C6.54198 53.223 6.99919 51.5166 7.20309 49.7713C7.78089 44.8256 10.3724 40.3369 14.3667 37.3636C15.7762 36.3144 17.0253 35.0653 18.0746 33.6557C21.0478 29.6615 25.5365 27.07 30.4822 26.4922C32.2276 26.2882 33.9339 25.831 35.5474 25.135Z" fill="#713F12"/>
</g>
<g filter="url(#filter5_dii_1230_304149)">
<path d="M54.2558 43.7306C51.115 40.8056 47.0825 39.0187 42.8072 38.6573C26.8215 37.3064 14.2282 51.9506 18.7269 67.3368C23.3995 83.3177 28.8823 99.0331 31.9232 97.1331C43.2849 91.101 44.5253 92.6434 55.7574 87.6643C55.9656 87.572 56.1756 87.4547 56.3641 87.3271C66.0856 80.7474 72.5362 78.3713 75.3522 77.5616C76.1617 77.3288 76.6402 76.4153 76.3052 75.6422L68.3638 57.3111C68.1523 56.8228 67.8419 56.3833 67.4522 56.0204L54.2558 43.7306Z" fill="#FACC15"/>
</g>
<g filter="url(#filter6_dii_1230_304149)">
<path d="M11.3488 80.002C5.67692 80.002 9.08736 69.1538 9.08736 66.3758L2.8488 60.1107C2.78467 60.4187 2.75537 60.452 2.75537 60.0169L2.8488 60.1107C3.03087 59.2362 3.49366 56.1465 4.3635 55.273C5.57933 54.052 8.18279 53.6803 8.18279 51.387V36.3981C8.18279 24.9973 24.5203 27.314 32.6062 27.314C34.3002 27.314 39.2298 28.1698 40.5463 27.1121C42.373 25.6446 43.5953 24.4129 45.7225 23.2261C48.4729 21.6916 57.3279 19.2968 59.9443 21.6616C62.5237 23.9929 66.032 25.2057 68.588 27.5159C70.1062 28.8881 70.5896 31.6675 71.955 32.7645C75.5029 35.6149 72.7524 45.0042 74.92 49.1159C75.9694 51.1066 78.5225 51.7961 79.8449 53.4561C81.1277 55.0665 80.1467 58.6041 81.9053 60.0169C83.9751 61.6798 81.4568 73.4826 78.7393 73.6431C77.1411 73.7375 67.9629 75.0292 67.8844 76.3684C67.7904 77.9732 67.8172 81.6912 66.5276 82.7273C64.9792 83.9712 64.8231 87.2693 62.0047 87.2693C59.992 87.2693 57.6364 88.1777 55.2205 88.1777C49.3551 88.1777 44.9415 84.5441 39.3905 84.5441C36.2182 84.5441 35.2288 86.3997 32.1037 85.503C29.456 84.7433 27.9016 83.3455 26.4752 80.9104C24.3176 77.2268 15.3365 80.002 11.3488 80.002Z" fill="#65A30D"/>
</g>
<g filter="url(#filter7_ii_1230_304149)">
<ellipse cx="31.3483" cy="62.7447" rx="17.362" ry="18.4471" fill="#DC2626"/>
<ellipse cx="31.0741" cy="59.9286" rx="17.3881" ry="17.3881" fill="#EF4444"/>
<circle cx="31.075" cy="59.9286" r="14.2645" fill="#B91C1C"/>
<path d="M32.5828 52.3878C36.7386 51.402 40.2935 55.4854 38.7448 59.4658L38.6413 59.7319C38.2271 60.7966 38.2271 61.978 38.6413 63.0427L38.693 63.1756C40.1137 66.8271 36.4303 70.3921 32.7788 68.9714C31.7004 68.5519 30.4824 68.5843 29.4329 69.0716C26.2305 70.5584 22.7167 67.7186 23.4984 64.2756L23.8526 62.7153C24.0501 61.8456 24.013 60.939 23.7453 60.0883L23.6922 59.9197C22.4336 55.9215 25.8698 51.9935 30.0184 52.5926C30.7103 52.6925 31.425 52.6624 32.1052 52.5011L32.5828 52.3878Z" fill="#EF4444"/>
<path d="M27.6873 47.3287C27.3358 45.2606 28.9293 43.3735 31.0271 43.3735C33.087 43.3735 34.6701 45.1966 34.3813 47.2361L32.7903 58.4706C32.6338 59.5758 32.6347 60.6976 32.7932 61.8026L34.3746 72.8309C34.6668 74.8683 33.086 76.6919 31.0277 76.6919C28.9312 76.6919 27.3401 74.8036 27.6956 72.7374L29.5214 62.1269C29.7481 60.8097 29.7495 59.4636 29.5255 58.146L27.6873 47.3287Z" fill="#EF4444"/>
<path d="M43.8828 57.3688C45.9518 57.0194 47.8384 58.6141 47.8384 60.7124C47.8384 62.7731 46.0155 64.3574 43.9749 64.0702L32.6263 62.4731C31.5278 62.3185 30.4129 62.3194 29.3146 62.4759L18.1736 64.0636C16.1351 64.3541 14.3117 62.7722 14.3117 60.7131C14.3117 58.6159 16.1994 57.0236 18.2666 57.3771L28.9922 59.2113C30.3015 59.4352 31.6393 59.4365 32.9491 59.2153L43.8828 57.3688Z" fill="#EF4444"/>
<path d="M23.3841 51.7042C23.7346 52.1518 24.1165 53.1384 23.8178 53.3722C23.5192 53.6061 22.653 52.9986 22.3025 52.551C21.9521 52.1035 21.9101 51.551 22.2088 51.3172C22.5075 51.0833 23.0337 51.2566 23.3841 51.7042Z" fill="white" fill-opacity="0.4"/>
<path d="M25.587 50.6331C25.7418 51.1801 25.7216 52.2379 25.3566 52.3412C24.9916 52.4445 24.42 51.5542 24.2652 51.0073C24.1104 50.4603 24.2808 49.9331 24.6458 49.8298C25.0108 49.7265 25.4322 50.0862 25.587 50.6331Z" fill="white" fill-opacity="0.4"/>
<path d="M27.877 50.749C27.8347 51.316 27.4529 52.3026 27.0746 52.2744C26.6963 52.2462 26.4648 51.2139 26.507 50.647C26.5493 50.0801 26.8902 49.6434 27.2685 49.6716C27.6467 49.6997 27.9192 50.1821 27.877 50.749Z" fill="white" fill-opacity="0.4"/>
<path d="M21.701 53.4411C22.2014 53.7108 22.9465 54.4619 22.7664 54.7958C22.5864 55.1297 21.5495 54.92 21.0491 54.6502C20.5487 54.3804 20.289 53.8911 20.469 53.5572C20.649 53.2233 21.2006 53.1713 21.701 53.4411Z" fill="white" fill-opacity="0.4"/>
<path d="M21.1723 55.9113C21.7405 55.8956 22.7609 56.1751 22.7713 56.5543C22.7817 56.9335 21.7783 57.2688 21.2101 57.2845C20.6418 57.3001 20.1727 57.0054 20.1622 56.6262C20.1518 56.247 20.604 55.9269 21.1723 55.9113Z" fill="white" fill-opacity="0.4"/>
<path d="M40.0015 51.5964C39.5914 51.99 38.6481 52.469 38.3854 52.1953C38.1228 51.9217 38.6402 50.9989 39.0503 50.6052C39.4605 50.2116 40.0059 50.1144 40.2686 50.3881C40.5312 50.6618 40.4117 51.2027 40.0015 51.5964Z" fill="white" fill-opacity="0.4"/>
<path d="M41.2884 53.682C40.7597 53.8909 39.7053 53.977 39.5658 53.6242C39.4264 53.2714 40.2548 52.6134 40.7835 52.4044C41.3121 52.1955 41.8538 52.3121 41.9932 52.6648C42.1326 53.0176 41.8171 53.473 41.2884 53.682Z" fill="white" fill-opacity="0.4"/>
<path d="M41.4026 55.9716C40.8343 55.9865 39.8143 55.7056 39.8044 55.3264C39.7944 54.9472 40.7983 54.6133 41.3665 54.5983C41.9348 54.5834 42.4036 54.8788 42.4135 55.258C42.4235 55.6372 41.9709 55.9567 41.4026 55.9716Z" fill="white" fill-opacity="0.4"/>
<path d="M38.1044 50.0967C37.8862 50.6216 37.2138 51.4383 36.8635 51.2927C36.5132 51.1472 36.6177 50.0944 36.8359 49.5694C37.0541 49.0445 37.5149 48.737 37.8652 48.8826C38.2155 49.0282 38.3226 49.5717 38.1044 50.0967Z" fill="white" fill-opacity="0.4"/>
<path d="M35.5936 49.8187C35.6662 50.3825 35.4905 51.4258 35.1143 51.4742C34.7381 51.5227 34.3037 50.558 34.2311 49.9942C34.1585 49.4304 34.4046 48.934 34.7808 48.8856C35.1571 48.8371 35.5209 49.2549 35.5936 49.8187Z" fill="white" fill-opacity="0.4"/>
<path d="M40.0015 69.5463C39.5914 69.1527 38.6481 68.6737 38.3854 68.9474C38.1228 69.221 38.6402 70.1438 39.0503 70.5375C39.4605 70.9311 40.0059 71.0283 40.2686 70.7546C40.5312 70.4809 40.4117 69.94 40.0015 69.5463Z" fill="white" fill-opacity="0.4"/>
<path d="M41.2884 67.4607C40.7597 67.2518 39.7053 67.1657 39.5658 67.5185C39.4264 67.8713 40.2548 68.5293 40.7835 68.7383C41.3121 68.9472 41.8538 68.8306 41.9932 68.4779C42.1326 68.1251 41.8171 67.6697 41.2884 67.4607Z" fill="white" fill-opacity="0.4"/>
<path d="M41.4026 65.1711C40.8343 65.1562 39.8143 65.4371 39.8044 65.8163C39.7944 66.1955 40.7983 66.5294 41.3665 66.5444C41.9348 66.5593 42.4036 66.2639 42.4135 65.8847C42.4235 65.5055 41.9709 65.186 41.4026 65.1711Z" fill="white" fill-opacity="0.4"/>
<path d="M38.1044 71.046C37.8862 70.521 37.2138 69.7043 36.8635 69.8499C36.5132 69.9955 36.6177 71.0483 36.8359 71.5732C37.0541 72.0981 37.5149 72.4057 37.8652 72.2601C38.2155 72.1145 38.3226 71.5709 38.1044 71.046Z" fill="white" fill-opacity="0.4"/>
<path d="M35.5931 71.3239C35.6657 70.7601 35.49 69.7169 35.1138 69.6684C34.7376 69.6199 34.3033 70.5846 34.2306 71.1484C34.158 71.7122 34.4041 72.2086 34.7803 72.2571C35.1566 72.3055 35.5205 71.8877 35.5931 71.3239Z" fill="white" fill-opacity="0.4"/>
<path d="M22.1064 68.6445C22.6981 68.3747 23.9401 68.1746 24.1725 68.5206C24.405 68.8665 23.5399 69.6275 22.9483 69.8973C22.3566 70.1671 21.6885 70.1054 21.456 69.7595C21.2236 69.4135 21.5147 68.9143 22.1064 68.6445Z" fill="white" fill-opacity="0.4"/>
<path d="M21.2936 66.2925C21.9417 66.2416 23.1465 66.4513 23.2091 66.8217C23.2716 67.1921 22.1683 67.583 21.5202 67.6339C20.8721 67.6848 20.2959 67.4258 20.2334 67.0554C20.1708 66.685 20.6455 66.3434 21.2936 66.2925Z" fill="white" fill-opacity="0.4"/>
<path d="M21.7735 64.1064C22.4145 64.249 23.4832 64.7944 23.3936 65.154C23.304 65.5136 22.0901 65.5512 21.4491 65.4086C20.8082 65.2659 20.3612 64.8588 20.4508 64.4992C20.5404 64.1397 21.1326 63.9638 21.7735 64.1064Z" fill="white" fill-opacity="0.4"/>
<path d="M23.911 70.5443C24.295 70.1104 25.2657 69.5272 25.6197 69.7608C25.9737 69.9944 25.5769 70.9562 25.1929 71.3901C24.8089 71.8239 24.2106 71.9863 23.8566 71.7527C23.5027 71.5191 23.527 70.9781 23.911 70.5443Z" fill="white" fill-opacity="0.4"/>
<path d="M26.6515 71.4978C26.7199 70.9472 27.1939 70.0139 27.6285 70.072C28.0631 70.1301 28.2937 71.1576 28.2253 71.7082C28.157 72.2588 27.7493 72.658 27.3147 72.5999C26.8801 72.5418 26.5832 72.0484 26.6515 71.4978Z" fill="white" fill-opacity="0.4"/>
</g>
<g filter="url(#filter8_ii_1230_304149)">
<ellipse cx="54.7702" cy="64.1197" rx="17.362" ry="18.4471" fill="#DC2626"/>
<ellipse cx="54.496" cy="61.3036" rx="17.3881" ry="17.3881" fill="#EF4444"/>
<circle cx="54.4969" cy="61.3036" r="14.2645" fill="#B91C1C"/>
<path d="M56.0047 53.7628C60.1605 52.777 63.7153 56.8604 62.1667 60.8408L62.0632 61.1069C61.6489 62.1716 61.6489 63.353 62.0632 64.4177L62.1149 64.5506C63.5356 68.2021 59.8522 71.7671 56.2007 70.3464C55.1222 69.9269 53.9043 69.9593 52.8547 70.4466C49.6524 71.9334 46.1385 69.0936 46.9203 65.6506L47.2745 64.0903C47.472 63.2206 47.4349 62.314 47.1671 61.4633L47.114 61.2947C45.8554 57.2965 49.2917 53.3685 53.4403 53.9676C54.1322 54.0675 54.8469 54.0374 55.5271 53.8761L56.0047 53.7628Z" fill="#EF4444"/>
<path d="M51.1092 48.7037C50.7577 46.6356 52.3512 44.7485 54.4489 44.7485C56.5088 44.7485 58.092 46.5716 57.8031 48.6111L56.2122 59.8456C56.0556 60.9508 56.0566 62.0726 56.2151 63.1776L57.7965 74.2059C58.0886 76.2433 56.5079 78.0669 54.4496 78.0669C52.3531 78.0669 50.7619 76.1786 51.1175 74.1124L52.9433 63.5019C53.1699 62.1847 53.1713 60.8386 52.9474 59.521L51.1092 48.7037Z" fill="#EF4444"/>
<path d="M67.3047 58.7438C69.3737 58.3944 71.2603 59.9891 71.2603 62.0874C71.2603 64.1481 69.4374 65.7324 67.3968 65.4452L56.0482 63.8481C54.9496 63.6935 53.8348 63.6944 52.7365 63.8509L41.5954 65.4386C39.5569 65.7291 37.7336 64.1472 37.7336 62.0881C37.7336 59.9909 39.6213 58.3986 41.6884 58.7521L52.414 60.5863C53.7234 60.8102 55.0611 60.8115 56.371 60.5903L67.3047 58.7438Z" fill="#EF4444"/>
<path d="M46.806 53.0792C47.1565 53.5268 47.5384 54.5134 47.2397 54.7472C46.941 54.9811 46.0749 54.3736 45.7244 53.926C45.3739 53.4785 45.332 52.926 45.6307 52.6922C45.9293 52.4583 46.4556 52.6316 46.806 53.0792Z" fill="white" fill-opacity="0.4"/>
<path d="M49.0088 52.0081C49.1637 52.5551 49.1434 53.6129 48.7784 53.7162C48.4134 53.8195 47.8419 52.9292 47.6871 52.3823C47.5322 51.8353 47.7026 51.3081 48.0676 51.2048C48.4326 51.1015 48.854 51.4612 49.0088 52.0081Z" fill="white" fill-opacity="0.4"/>
<path d="M51.2988 52.124C51.2566 52.691 50.8748 53.6776 50.4965 53.6494C50.1182 53.6212 49.8867 52.5889 49.9289 52.022C49.9711 51.4551 50.312 51.0184 50.6903 51.0466C51.0686 51.0747 51.3411 51.5571 51.2988 52.124Z" fill="white" fill-opacity="0.4"/>
<path d="M45.1229 54.8161C45.6233 55.0858 46.3683 55.8369 46.1883 56.1708C46.0083 56.5047 44.9713 56.295 44.471 56.0252C43.9706 55.7554 43.7109 55.2661 43.8909 54.9322C44.0709 54.5983 44.6225 54.5463 45.1229 54.8161Z" fill="white" fill-opacity="0.4"/>
<path d="M44.5941 57.2863C45.1624 57.2706 46.1827 57.5501 46.1932 57.9293C46.2036 58.3085 45.2002 58.6438 44.632 58.6595C44.0637 58.6751 43.5946 58.3804 43.5841 58.0012C43.5737 57.622 44.0259 57.3019 44.5941 57.2863Z" fill="white" fill-opacity="0.4"/>
<path d="M63.4234 52.9714C63.0132 53.365 62.07 53.844 61.8073 53.5703C61.5446 53.2967 62.0621 52.3739 62.4722 51.9802C62.8824 51.5866 63.4278 51.4894 63.6904 51.7631C63.9531 52.0368 63.8335 52.5777 63.4234 52.9714Z" fill="white" fill-opacity="0.4"/>
<path d="M64.7103 55.057C64.1816 55.2659 63.1271 55.352 62.9877 54.9992C62.8483 54.6464 63.6767 53.9884 64.2053 53.7794C64.734 53.5705 65.2756 53.6871 65.4151 54.0398C65.5545 54.3926 65.2389 54.848 64.7103 55.057Z" fill="white" fill-opacity="0.4"/>
<path d="M64.8244 57.3466C64.2562 57.3615 63.2362 57.0806 63.2262 56.7014C63.2163 56.3222 64.2201 55.9883 64.7884 55.9733C65.3567 55.9584 65.8254 56.2538 65.8354 56.633C65.8453 57.0122 65.3927 57.3317 64.8244 57.3466Z" fill="white" fill-opacity="0.4"/>
<path d="M61.5263 51.4717C61.3081 51.9966 60.6356 52.8133 60.2854 52.6677C59.9351 52.5222 60.0396 51.4694 60.2578 50.9444C60.476 50.4195 60.9368 50.112 61.2871 50.2576C61.6374 50.4032 61.7445 50.9467 61.5263 51.4717Z" fill="white" fill-opacity="0.4"/>
<path d="M59.0154 51.1937C59.0881 51.7575 58.9124 52.8008 58.5362 52.8492C58.1599 52.8977 57.7256 51.933 57.653 51.3692C57.5804 50.8054 57.8265 50.309 58.2027 50.2606C58.5789 50.2121 58.9428 50.6299 59.0154 51.1937Z" fill="white" fill-opacity="0.4"/>
<path d="M63.4234 70.9213C63.0132 70.5277 62.07 70.0487 61.8073 70.3224C61.5446 70.596 62.0621 71.5188 62.4722 71.9125C62.8824 72.3061 63.4278 72.4033 63.6904 72.1296C63.9531 71.8559 63.8335 71.315 63.4234 70.9213Z" fill="white" fill-opacity="0.4"/>
<path d="M64.7103 68.8357C64.1816 68.6268 63.1271 68.5407 62.9877 68.8935C62.8483 69.2463 63.6767 69.9043 64.2053 70.1133C64.734 70.3222 65.2756 70.2056 65.4151 69.8529C65.5545 69.5001 65.2389 69.0447 64.7103 68.8357Z" fill="white" fill-opacity="0.4"/>
<path d="M64.8244 66.5461C64.2562 66.5312 63.2362 66.8121 63.2262 67.1913C63.2163 67.5705 64.2201 67.9044 64.7884 67.9194C65.3567 67.9343 65.8254 67.6389 65.8354 67.2597C65.8453 66.8805 65.3927 66.561 64.8244 66.5461Z" fill="white" fill-opacity="0.4"/>
<path d="M61.5263 72.421C61.3081 71.896 60.6356 71.0793 60.2854 71.2249C59.9351 71.3705 60.0396 72.4233 60.2578 72.9482C60.476 73.4731 60.9368 73.7807 61.2871 73.6351C61.6374 73.4895 61.7445 72.9459 61.5263 72.421Z" fill="white" fill-opacity="0.4"/>
<path d="M59.015 72.6989C59.0876 72.1351 58.9119 71.0919 58.5357 71.0434C58.1594 70.9949 57.7251 71.9596 57.6525 72.5234C57.5799 73.0872 57.826 73.5836 58.2022 73.6321C58.5785 73.6805 58.9423 73.2627 59.015 72.6989Z" fill="white" fill-opacity="0.4"/>
<path d="M45.5283 70.0195C46.1199 69.7497 47.3619 69.5496 47.5944 69.8956C47.8269 70.2415 46.9618 71.0025 46.3701 71.2723C45.7785 71.5421 45.1104 71.4804 44.8779 71.1345C44.6454 70.7885 44.9366 70.2893 45.5283 70.0195Z" fill="white" fill-opacity="0.4"/>
<path d="M44.7155 67.6675C45.3636 67.6166 46.5684 67.8263 46.6309 68.1967C46.6935 68.5671 45.5902 68.958 44.9421 69.0089C44.294 69.0598 43.7178 68.8008 43.6552 68.4304C43.5927 68.06 44.0673 67.7184 44.7155 67.6675Z" fill="white" fill-opacity="0.4"/>
<path d="M45.1954 65.4814C45.8364 65.624 46.9051 66.1694 46.8155 66.529C46.7259 66.8886 45.512 66.9262 44.871 66.7836C44.23 66.6409 43.7831 66.2338 43.8726 65.8742C43.9622 65.5147 44.5544 65.3388 45.1954 65.4814Z" fill="white" fill-opacity="0.4"/>
<path d="M47.3329 71.9193C47.7169 71.4854 48.6876 70.9022 49.0416 71.1358C49.3956 71.3694 48.9987 72.3312 48.6147 72.7651C48.2307 73.1989 47.6325 73.3613 47.2785 73.1277C46.9245 72.8941 46.9489 72.3531 47.3329 71.9193Z" fill="white" fill-opacity="0.4"/>
<path d="M50.0734 72.8728C50.1418 72.3222 50.6158 71.3889 51.0504 71.447C51.485 71.5051 51.7156 72.5326 51.6472 73.0832C51.5789 73.6338 51.1711 74.033 50.7365 73.9749C50.3019 73.9168 50.005 73.4234 50.0734 72.8728Z" fill="white" fill-opacity="0.4"/>
</g>
<g filter="url(#filter9_di_1230_304149)">
<path d="M35.5474 4.46827C40.1194 2.49579 45.3025 2.49579 49.8745 4.46827C51.488 5.16436 53.1943 5.62156 54.9396 5.82547C59.8854 6.40327 64.374 8.99479 67.3473 12.989C68.3965 14.3986 69.6456 15.6477 71.0552 16.697C75.0494 19.6702 77.641 24.1589 78.2188 29.1046C78.4227 30.85 78.8799 32.5563 79.576 34.1697C81.5484 38.7418 81.5484 43.9248 79.576 48.4969C78.8799 50.1103 78.4227 51.8166 78.2188 53.562C77.641 58.5077 75.0494 62.9964 71.0552 65.9696C69.6456 67.0189 68.3965 68.268 67.3473 69.6776C64.374 73.6718 59.8854 76.2633 54.9396 76.8411C53.1943 77.045 51.488 77.5022 49.8745 78.1983C45.3025 80.1708 40.1194 80.1708 35.5474 78.1983C33.9339 77.5022 32.2276 77.045 30.4822 76.8411C25.5365 76.2633 21.0478 73.6718 18.0746 69.6776C17.0253 68.268 15.7762 67.0189 14.3667 65.9696C10.3724 62.9964 7.78089 58.5077 7.20309 53.562C6.99919 51.8166 6.54198 50.1103 5.84589 48.4969C3.87341 43.9248 3.87341 38.7418 5.84589 34.1697C6.54198 32.5563 6.99919 30.85 7.20309 29.1046C7.78089 24.1589 10.3724 19.6702 14.3667 16.697C15.7762 15.6477 17.0253 14.3986 18.0746 12.989C21.0478 8.99479 25.5365 6.40327 30.4822 5.82547C32.2276 5.62156 33.9339 5.16436 35.5474 4.46827Z" fill="#713F12"/>
</g>
<g filter="url(#filter10_dii_1230_304149)">
<path d="M11.4421 43.2482C13.4105 32.4554 21.5403 23.8284 32.1974 21.2235C55.4621 15.5369 77.8106 35.0086 72.243 58.3021C70.199 66.8538 67.9936 72.789 65.9195 71.82C53.713 67.1025 41.9239 66.66 29.4163 66.1833C29.1443 66.1729 28.8724 66.1922 28.6036 66.2355C22.9939 67.1392 16.3208 66.5311 13.843 66.247C13.258 66.1799 12.8114 65.7119 12.7521 65.1261L10.9056 46.8937C10.8752 46.5936 10.8872 46.2907 10.9413 45.9939L11.4421 43.2482Z" fill="#FACC15"/>
</g>
<g filter="url(#filter11_iiii_1230_304149)">
<path d="M75.3725 19.7732C82.3648 30.1908 82.2988 44.4114 74.6158 54.3306C67.0847 64.0534 55.5901 70.2667 42.7109 70.2667C29.8318 70.2667 18.3372 64.0534 10.8061 54.3305C3.12309 44.4114 3.05709 30.1908 10.0494 19.7732C17.5546 8.59159 29.3925 1.37777 42.711 1.37777C56.0294 1.37777 67.8673 8.59159 75.3725 19.7732Z" fill="#CA8A04"/>
</g>
<g filter="url(#filter12_d_1230_304149)">
<path d="M32.0075 41.9397C31.8302 42.6797 31.0911 43.1184 30.3566 42.9195C29.6222 42.7207 29.1704 41.9596 29.3477 41.2196C29.5249 40.4796 31.1971 37.44 31.6405 37.5601C32.0838 37.6801 32.1848 41.1997 32.0075 41.9397Z" fill="white" fill-opacity="0.4"/>
<path d="M46.0741 48.8414C45.9411 49.3964 45.5356 49.7657 45.1684 49.6663C44.8012 49.5669 44.6112 49.0364 44.7442 48.4814C44.8771 47.9264 45.9096 45.5867 46.1313 45.6467C46.3529 45.7067 46.207 48.2864 46.0741 48.8414Z" fill="white" fill-opacity="0.4"/>
<path d="M41.692 35.5245C41.7607 36.2824 41.2027 36.9595 40.4458 37.0371C39.6888 37.1146 39.0195 36.5632 38.9508 35.8054C38.8821 35.0475 39.4914 31.5953 39.9482 31.5485C40.4051 31.5017 41.6233 34.7667 41.692 35.5245Z" fill="white" fill-opacity="0.4"/>
<path d="M66.1361 42.5037C66.4439 43.1996 66.1416 44.0396 65.461 44.3798C64.7803 44.72 63.9791 44.4316 63.6713 43.7357C63.3635 43.0398 62.8211 39.5449 63.2319 39.3396C63.6427 39.1342 65.8283 41.8078 66.1361 42.5037Z" fill="white" fill-opacity="0.4"/>
<path d="M71.5317 30.2821C71.9508 30.6695 71.9001 31.461 71.4183 32.0501C70.9366 32.6391 70.2064 32.8026 69.7873 32.4152C69.3682 32.0279 68.0922 29.6001 68.383 29.2446C68.6737 28.889 71.1126 29.8948 71.5317 30.2821Z" fill="white" fill-opacity="0.4"/>
<path d="M65.8922 20.0627C66.4501 19.9426 67.0178 20.4512 67.1602 21.1986C67.3027 21.9461 66.9659 22.6495 66.408 22.7696C65.8501 22.8897 63.2055 22.52 63.1195 22.0688C63.0336 21.6177 65.3343 20.1829 65.8922 20.0627Z" fill="white" fill-opacity="0.4"/>
<path d="M24.395 35.5342C23.8762 35.7721 23.2238 35.3932 22.9378 34.6881C22.6518 33.983 22.8405 33.2186 23.3592 32.9807C23.878 32.7429 26.5225 32.5401 26.6951 32.9657C26.8677 33.3912 24.9138 35.2964 24.395 35.5342Z" fill="white" fill-opacity="0.4"/>
<path d="M13.0809 35.9024C12.648 36.2723 11.9251 36.0802 11.4661 35.4732C11.0072 34.8663 10.986 34.0744 11.4189 33.7045C11.8517 33.3346 14.1768 31.9166 14.601 32.7941C15.0252 33.6716 13.5137 35.5325 13.0809 35.9024Z" fill="white" fill-opacity="0.4"/>
<path d="M34.5433 50.901C34.5618 51.6617 33.9601 52.2953 33.1995 52.3162C32.4388 52.3371 31.8073 51.7373 31.7888 50.9766C31.7703 50.2159 32.6066 46.8193 33.0657 46.8067C33.5248 46.7941 34.5248 50.1403 34.5433 50.901Z" fill="white" fill-opacity="0.4"/>
<path d="M53.0788 51.394C52.9655 52.1464 52.2655 52.6529 51.5154 52.5253C50.7652 52.3977 50.249 51.6842 50.3622 50.9318C50.4755 50.1793 51.883 46.9985 52.3358 47.0756C52.7886 47.1526 53.192 50.6415 53.0788 51.394Z" fill="white" fill-opacity="0.4"/>
<path d="M29.2538 27.143C28.8913 27.7972 28.0746 28.0001 27.4297 27.5962C26.7848 27.1924 26.5559 26.3347 26.9184 25.6805C27.2808 25.0263 28.5709 22.8262 30.0551 22.8583C31.5392 22.8903 29.6162 26.4888 29.2538 27.143Z" fill="white" fill-opacity="0.4"/>
<path d="M18.8173 47.1807C18.7362 47.9242 18.0582 48.4514 17.303 48.3583C16.5478 48.2652 16.0013 47.587 16.0824 46.8435C16.1635 46.1 16.5021 43.5697 17.8904 42.9735C19.2787 42.3773 18.8984 46.4372 18.8173 47.1807Z" fill="white" fill-opacity="0.4"/>
<path d="M27.5826 9.76068C27.2911 9.07192 27.6113 8.24742 28.2978 7.91911C28.9842 7.5908 29.777 7.883 30.0685 8.57176C30.3599 9.26053 31.2987 11.6385 30.4088 12.9076C29.5188 14.1766 27.874 10.4494 27.5826 9.76068Z" fill="white" fill-opacity="0.4"/>
<path d="M16.2622 26.7185C15.9033 26.8237 15.535 26.6104 15.4394 26.2422C15.3439 25.8739 15.5573 25.4901 15.9162 25.3848C16.275 25.2796 17.5077 24.9505 18.0384 25.4801C18.569 26.0096 16.621 26.6132 16.2622 26.7185Z" fill="white" fill-opacity="0.4"/>
<path d="M73.9688 37.8838C74.2043 38.1743 74.1678 38.6182 73.8872 38.8752C73.6067 39.1322 73.1884 39.1051 72.9529 38.8146C72.7174 38.5241 71.9365 37.5115 72.1817 36.7713C72.4269 36.0311 73.7333 37.5934 73.9688 37.8838Z" fill="white" fill-opacity="0.4"/>
<path d="M66.2834 50.5003C66.6328 51.173 66.384 52.0305 65.7277 52.4157C65.0715 52.8009 64.2563 52.5678 63.907 51.8952C63.5577 51.2225 62.3442 48.434 63.1977 47.5439C64.0511 46.6539 65.9341 49.8277 66.2834 50.5003Z" fill="white" fill-opacity="0.4"/>
<path d="M50.4902 32.204C50.673 32.9424 50.2274 33.7071 49.4951 33.9119C48.7628 34.1168 48.021 33.6842 47.8382 32.9459C47.6555 32.2075 46.7881 29.0495 48.1715 28.5641C49.555 28.0786 50.3075 31.4657 50.4902 32.204Z" fill="white" fill-opacity="0.4"/>
<path d="M44.1815 24.1156C43.9702 24.8463 43.213 25.2473 42.4902 25.0111C41.7673 24.7749 41.3526 23.9911 41.5638 23.2604C41.775 22.5296 42.6057 19.3563 44.0201 19.7186C45.4344 20.0809 44.3927 23.3848 44.1815 24.1156Z" fill="white" fill-opacity="0.4"/>
<path d="M60.4943 31.2754C60.9489 31.6204 60.9735 32.4121 60.5494 33.0438C60.1252 33.6755 59.4128 33.908 58.9582 33.563C58.5036 33.218 56.4887 31.7246 57.2569 30.5451C58.0252 29.3657 60.0397 30.9304 60.4943 31.2754Z" fill="white" fill-opacity="0.4"/>
<path d="M54.3232 21.0141C54.8905 21.0757 55.2913 21.7397 55.2185 22.4971C55.1457 23.2546 54.6269 23.8186 54.0596 23.757C53.4924 23.6954 51.0966 22.7459 51.1101 22.0509C51.1237 21.3559 53.756 20.9525 54.3232 21.0141Z" fill="white" fill-opacity="0.4"/>
<path d="M59.3395 12.5463C59.8368 12.2664 60.5149 12.5916 60.8541 13.2728C61.1933 13.9539 61.0651 14.733 60.5678 15.0129C60.0704 15.2928 57.4568 15.7111 57.2521 15.3C57.0473 14.8889 58.8421 12.8262 59.3395 12.5463Z" fill="white" fill-opacity="0.4"/>
<path d="M47.1891 7.44098C47.4638 6.73136 48.2516 6.40332 48.9487 6.70829C49.6459 7.01326 49.9884 7.83575 49.7137 8.54537C49.439 9.25499 47.3802 12.0319 46.9594 11.8478C46.5386 11.6638 46.9145 8.1506 47.1891 7.44098Z" fill="white" fill-opacity="0.4"/>
<path d="M37.0414 8.39093C37.0118 7.63058 37.6041 6.98708 38.3643 6.95364C39.1245 6.92019 39.7647 7.50947 39.7943 8.26982C39.8239 9.03017 39.0374 12.4404 38.5786 12.4606C38.1198 12.4808 37.071 9.15128 37.0414 8.39093Z" fill="white" fill-opacity="0.4"/>
<path d="M17.64 15.9006C17.2508 15.2483 17.4466 14.3746 18.0774 13.9491C18.7083 13.5236 19.5352 13.7075 19.9245 14.3598C20.3138 15.0121 21.5935 17.9413 20.8968 18.6734C20.2001 19.4055 18.0293 16.5529 17.64 15.9006Z" fill="white" fill-opacity="0.4"/>
</g>
<defs>
<filter id="filter0_di_1230_304149" x="5.51074" y="27.4873" width="76.1736" height="91.3971" filterUnits="userSpaceOnUse" color-interpolation-filters="sRGB">
<feFlood flood-opacity="0" result="BackgroundImageFix"/>
<feColorMatrix in="SourceAlpha" type="matrix" values="0 0 0 0 0 0 0 0 0 0 0 0 0 0 0 0 0 0 127 0" result="hardAlpha"/>
<feOffset dy="3.15116"/>
<feComposite in2="hardAlpha" operator="out"/>
<feColorMatrix type="matrix" values="0 0 0 0 0 0 0 0 0 0 0 0 0 0 0 0 0 0 0.25 0"/>
<feBlend mode="normal" in2="BackgroundImageFix" result="effect1_dropShadow_1230_304149"/>
<feBlend mode="normal" in="SourceGraphic" in2="effect1_dropShadow_1230_304149" result="shape"/>
<feColorMatrix in="SourceAlpha" type="matrix" values="0 0 0 0 0 0 0 0 0 0 0 0 0 0 0 0 0 0 127 0" result="hardAlpha"/>
<feOffset dx="3.15116" dy="-5.25193"/>
<feGaussianBlur stdDeviation="2.10077"/>
<feComposite in2="hardAlpha" operator="arithmetic" k2="-1" k3="1"/>
<feColorMatrix type="matrix" values="0 0 0 0 0 0 0 0 0 0 0 0 0 0 0 0 0 0 0.25 0"/>
<feBlend mode="normal" in2="shape" result="effect2_innerShadow_1230_304149"/>
</filter>
<filter id="filter1_dii_1230_304149" x="-2.04788" y="37.4907" width="89.5176" height="75.1963" filterUnits="userSpaceOnUse" color-interpolation-filters="sRGB">
<feFlood flood-opacity="0" result="BackgroundImageFix"/>
<feColorMatrix in="SourceAlpha" type="matrix" values="0 0 0 0 0 0 0 0 0 0 0 0 0 0 0 0 0 0 127 0" result="hardAlpha"/>
<feOffset dy="1.9213"/>
<feGaussianBlur stdDeviation="0.480325"/>
<feComposite in2="hardAlpha" operator="out"/>
<feColorMatrix type="matrix" values="0 0 0 0 0 0 0 0 0 0 0 0 0 0 0 0 0 0 0.25 0"/>
<feBlend mode="normal" in2="BackgroundImageFix" result="effect1_dropShadow_1230_304149"/>
<feBlend mode="normal" in="SourceGraphic" in2="effect1_dropShadow_1230_304149" result="shape"/>
<feColorMatrix in="SourceAlpha" type="matrix" values="0 0 0 0 0 0 0 0 0 0 0 0 0 0 0 0 0 0 127 0" result="hardAlpha"/>
<feOffset dx="4.80325" dy="-3.8426"/>
<feGaussianBlur stdDeviation="2.40163"/>
<feComposite in2="hardAlpha" operator="arithmetic" k2="-1" k3="1"/>
<feColorMatrix type="matrix" values="0 0 0 0 0 0 0 0 0 0 0 0 0 0 0 0 0 0 0.25 0"/>
<feBlend mode="normal" in2="shape" result="effect2_innerShadow_1230_304149"/>
<feColorMatrix in="SourceAlpha" type="matrix" values="0 0 0 0 0 0 0 0 0 0 0 0 0 0 0 0 0 0 127 0" result="hardAlpha"/>
<feOffset dx="-4.80325" dy="3.8426"/>
<feGaussianBlur stdDeviation="4.32293"/>
<feComposite in2="hardAlpha" operator="arithmetic" k2="-1" k3="1"/>
<feColorMatrix type="matrix" values="0 0 0 0 1 0 0 0 0 1 0 0 0 0 1 0 0 0 0.25 0"/>
<feBlend mode="normal" in2="effect2_innerShadow_1230_304149" result="effect3_innerShadow_1230_304149"/>
</filter>
<filter id="filter2_ii_1230_304149" x="13.487" y="46.9684" width="50.1168" height="52.1677" filterUnits="userSpaceOnUse" color-interpolation-filters="sRGB">
<feFlood flood-opacity="0" result="BackgroundImageFix"/>
<feBlend mode="normal" in="SourceGraphic" in2="BackgroundImageFix" result="shape"/>
<feColorMatrix in="SourceAlpha" type="matrix" values="0 0 0 0 0 0 0 0 0 0 0 0 0 0 0 0 0 0 127 0" result="hardAlpha"/>
<feOffset dx="15.3826" dy="-16.4081"/>
<feGaussianBlur stdDeviation="10.7678"/>
<feComposite in2="hardAlpha" operator="arithmetic" k2="-1" k3="1"/>
<feColorMatrix type="matrix" values="0 0 0 0 0 0 0 0 0 0 0 0 0 0 0 0 0 0 0.25 0"/>
<feBlend mode="normal" in2="shape" result="effect1_innerShadow_1230_304149"/>
<feColorMatrix in="SourceAlpha" type="matrix" values="0 0 0 0 0 0 0 0 0 0 0 0 0 0 0 0 0 0 127 0" result="hardAlpha"/>
<feOffset dx="-7.17855" dy="8.20405"/>
<feGaussianBlur stdDeviation="7.6913"/>
<feComposite in2="hardAlpha" operator="arithmetic" k2="-1" k3="1"/>
<feColorMatrix type="matrix" values="0 0 0 0 1 0 0 0 0 1 0 0 0 0 1 0 0 0 0.25 0"/>
<feBlend mode="normal" in2="effect1_innerShadow_1230_304149" result="effect2_innerShadow_1230_304149"/>
</filter>
<filter id="filter3_ii_1230_304149" x="-1.66927" y="38.7027" width="50.1168" height="52.1677" filterUnits="userSpaceOnUse" color-interpolation-filters="sRGB">
<feFlood flood-opacity="0" result="BackgroundImageFix"/>
<feBlend mode="normal" in="SourceGraphic" in2="BackgroundImageFix" result="shape"/>
<feColorMatrix in="SourceAlpha" type="matrix" values="0 0 0 0 0 0 0 0 0 0 0 0 0 0 0 0 0 0 127 0" result="hardAlpha"/>
<feOffset dx="15.3826" dy="-16.4081"/>
<feGaussianBlur stdDeviation="10.7678"/>
<feComposite in2="hardAlpha" operator="arithmetic" k2="-1" k3="1"/>
<feColorMatrix type="matrix" values="0 0 0 0 0 0 0 0 0 0 0 0 0 0 0 0 0 0 0.25 0"/>
<feBlend mode="normal" in2="shape" result="effect1_innerShadow_1230_304149"/>
<feColorMatrix in="SourceAlpha" type="matrix" values="0 0 0 0 0 0 0 0 0 0 0 0 0 0 0 0 0 0 127 0" result="hardAlpha"/>
<feOffset dx="-7.17855" dy="8.20405"/>
<feGaussianBlur stdDeviation="7.6913"/>
<feComposite in2="hardAlpha" operator="arithmetic" k2="-1" k3="1"/>
<feColorMatrix type="matrix" values="0 0 0 0 1 0 0 0 0 1 0 0 0 0 1 0 0 0 0.25 0"/>
<feBlend mode="normal" in2="effect1_innerShadow_1230_304149" result="effect2_innerShadow_1230_304149"/>
</filter>
<filter id="filter4_di_1230_304149" x="4.3667" y="23.6556" width="76.6885" height="78.6845" filterUnits="userSpaceOnUse" color-interpolation-filters="sRGB">
<feFlood flood-opacity="0" result="BackgroundImageFix"/>
<feColorMatrix in="SourceAlpha" type="matrix" values="0 0 0 0 0 0 0 0 0 0 0 0 0 0 0 0 0 0 127 0" result="hardAlpha"/>
<feOffset dy="1.99573"/>
<feComposite in2="hardAlpha" operator="out"/>
<feColorMatrix type="matrix" values="0 0 0 0 0 0 0 0 0 0 0 0 0 0 0 0 0 0 0.25 0"/>
<feBlend mode="normal" in2="BackgroundImageFix" result="effect1_dropShadow_1230_304149"/>
<feBlend mode="normal" in="SourceGraphic" in2="effect1_dropShadow_1230_304149" result="shape"/>
<feColorMatrix in="SourceAlpha" type="matrix" values="0 0 0 0 0 0 0 0 0 0 0 0 0 0 0 0 0 0 127 0" result="hardAlpha"/>
<feOffset dx="0.928247" dy="-7.42598"/>
<feComposite in2="hardAlpha" operator="arithmetic" k2="-1" k3="1"/>
<feColorMatrix type="matrix" values="0 0 0 0 0 0 0 0 0 0 0 0 0 0 0 0 0 0 0.25 0"/>
<feBlend mode="normal" in2="shape" result="effect2_innerShadow_1230_304149"/>
</filter>
<filter id="filter5_dii_1230_304149" x="17.8047" y="36.0025" width="63.7446" height="62.5713" filterUnits="userSpaceOnUse" color-interpolation-filters="sRGB">
<feFlood flood-opacity="0" result="BackgroundImageFix"/>
<feColorMatrix in="SourceAlpha" type="matrix" values="0 0 0 0 0 0 0 0 0 0 0 0 0 0 0 0 0 0 127 0" result="hardAlpha"/>
<feOffset dy="1.28405"/>
<feComposite in2="hardAlpha" operator="out"/>
<feColorMatrix type="matrix" values="0 0 0 0 0 0 0 0 0 0 0 0 0 0 0 0 0 0 0.25 0"/>
<feBlend mode="normal" in2="BackgroundImageFix" result="effect1_dropShadow_1230_304149"/>
<feBlend mode="normal" in="SourceGraphic" in2="effect1_dropShadow_1230_304149" result="shape"/>
<feColorMatrix in="SourceAlpha" type="matrix" values="0 0 0 0 0 0 0 0 0 0 0 0 0 0 0 0 0 0 127 0" result="hardAlpha"/>
<feOffset dx="3.85215" dy="-1.28405"/>
<feGaussianBlur stdDeviation="1.28405"/>
<feComposite in2="hardAlpha" operator="arithmetic" k2="-1" k3="1"/>
<feColorMatrix type="matrix" values="0 0 0 0 0 0 0 0 0 0 0 0 0 0 0 0 0 0 0.25 0"/>
<feBlend mode="normal" in2="shape" result="effect2_innerShadow_1230_304149"/>
<feColorMatrix in="SourceAlpha" type="matrix" values="0 0 0 0 0 0 0 0 0 0 0 0 0 0 0 0 0 0 127 0" result="hardAlpha"/>
<feOffset dx="5.1362" dy="-2.5681"/>
<feGaussianBlur stdDeviation="3.21013"/>
<feComposite in2="hardAlpha" operator="arithmetic" k2="-1" k3="1"/>
<feColorMatrix type="matrix" values="0 0 0 0 0 0 0 0 0 0 0 0 0 0 0 0 0 0 0.25 0"/>
<feBlend mode="normal" in2="effect2_innerShadow_1230_304149" result="effect3_innerShadow_1230_304149"/>
</filter>
<filter id="filter6_dii_1230_304149" x="-2.04788" y="16.824" width="89.5176" height="75.1963" filterUnits="userSpaceOnUse" color-interpolation-filters="sRGB">
<feFlood flood-opacity="0" result="BackgroundImageFix"/>
<feColorMatrix in="SourceAlpha" type="matrix" values="0 0 0 0 0 0 0 0 0 0 0 0 0 0 0 0 0 0 127 0" result="hardAlpha"/>
<feOffset dy="1.9213"/>
<feGaussianBlur stdDeviation="0.480325"/>
<feComposite in2="hardAlpha" operator="out"/>
<feColorMatrix type="matrix" values="0 0 0 0 0 0 0 0 0 0 0 0 0 0 0 0 0 0 0.25 0"/>
<feBlend mode="normal" in2="BackgroundImageFix" result="effect1_dropShadow_1230_304149"/>
<feBlend mode="normal" in="SourceGraphic" in2="effect1_dropShadow_1230_304149" result="shape"/>
<feColorMatrix in="SourceAlpha" type="matrix" values="0 0 0 0 0 0 0 0 0 0 0 0 0 0 0 0 0 0 127 0" result="hardAlpha"/>
<feOffset dx="4.80325" dy="-3.8426"/>
<feGaussianBlur stdDeviation="2.40163"/>
<feComposite in2="hardAlpha" operator="arithmetic" k2="-1" k3="1"/>
<feColorMatrix type="matrix" values="0 0 0 0 0 0 0 0 0 0 0 0 0 0 0 0 0 0 0.25 0"/>
<feBlend mode="normal" in2="shape" result="effect2_innerShadow_1230_304149"/>
<feColorMatrix in="SourceAlpha" type="matrix" values="0 0 0 0 0 0 0 0 0 0 0 0 0 0 0 0 0 0 127 0" result="hardAlpha"/>
<feOffset dx="-4.80325" dy="3.8426"/>
<feGaussianBlur stdDeviation="4.32293"/>
<feComposite in2="hardAlpha" operator="arithmetic" k2="-1" k3="1"/>
<feColorMatrix type="matrix" values="0 0 0 0 1 0 0 0 0 1 0 0 0 0 1 0 0 0 0.25 0"/>
<feBlend mode="normal" in2="effect2_innerShadow_1230_304149" result="effect3_innerShadow_1230_304149"/>
</filter>
<filter id="filter7_ii_1230_304149" x="2.46745" y="23.5489" width="66.65" height="68.701" filterUnits="userSpaceOnUse" color-interpolation-filters="sRGB">
<feFlood flood-opacity="0" result="BackgroundImageFix"/>
<feBlend mode="normal" in="SourceGraphic" in2="BackgroundImageFix" result="shape"/>
<feColorMatrix in="SourceAlpha" type="matrix" values="0 0 0 0 0 0 0 0 0 0 0 0 0 0 0 0 0 0 127 0" result="hardAlpha"/>
<feOffset dx="15.3826" dy="-16.4081"/>
<feGaussianBlur stdDeviation="10.7678"/>
<feComposite in2="hardAlpha" operator="arithmetic" k2="-1" k3="1"/>
<feColorMatrix type="matrix" values="0 0 0 0 0 0 0 0 0 0 0 0 0 0 0 0 0 0 0.25 0"/>
<feBlend mode="normal" in2="shape" result="effect1_innerShadow_1230_304149"/>
<feColorMatrix in="SourceAlpha" type="matrix" values="0 0 0 0 0 0 0 0 0 0 0 0 0 0 0 0 0 0 127 0" result="hardAlpha"/>
<feOffset dx="-7.17855" dy="8.20405"/>
<feGaussianBlur stdDeviation="7.6913"/>
<feComposite in2="hardAlpha" operator="arithmetic" k2="-1" k3="1"/>
<feColorMatrix type="matrix" values="0 0 0 0 1 0 0 0 0 1 0 0 0 0 1 0 0 0 0.25 0"/>
<feBlend mode="normal" in2="effect1_innerShadow_1230_304149" result="effect2_innerShadow_1230_304149"/>
</filter>
<filter id="filter8_ii_1230_304149" x="25.8893" y="24.9239" width="66.65" height="68.701" filterUnits="userSpaceOnUse" color-interpolation-filters="sRGB">
<feFlood flood-opacity="0" result="BackgroundImageFix"/>
<feBlend mode="normal" in="SourceGraphic" in2="BackgroundImageFix" result="shape"/>
<feColorMatrix in="SourceAlpha" type="matrix" values="0 0 0 0 0 0 0 0 0 0 0 0 0 0 0 0 0 0 127 0" result="hardAlpha"/>
<feOffset dx="15.3826" dy="-16.4081"/>
<feGaussianBlur stdDeviation="10.7678"/>
<feComposite in2="hardAlpha" operator="arithmetic" k2="-1" k3="1"/>
<feColorMatrix type="matrix" values="0 0 0 0 0 0 0 0 0 0 0 0 0 0 0 0 0 0 0.25 0"/>
<feBlend mode="normal" in2="shape" result="effect1_innerShadow_1230_304149"/>
<feColorMatrix in="SourceAlpha" type="matrix" values="0 0 0 0 0 0 0 0 0 0 0 0 0 0 0 0 0 0 127 0" result="hardAlpha"/>
<feOffset dx="-7.17855" dy="8.20405"/>
<feGaussianBlur stdDeviation="7.6913"/>
<feComposite in2="hardAlpha" operator="arithmetic" k2="-1" k3="1"/>
<feColorMatrix type="matrix" values="0 0 0 0 1 0 0 0 0 1 0 0 0 0 1 0 0 0 0.25 0"/>
<feBlend mode="normal" in2="effect1_innerShadow_1230_304149" result="effect2_innerShadow_1230_304149"/>
</filter>
<filter id="filter9_di_1230_304149" x="4.3667" y="2.98889" width="76.6885" height="78.6845" filterUnits="userSpaceOnUse" color-interpolation-filters="sRGB">
<feFlood flood-opacity="0" result="BackgroundImageFix"/>
<feColorMatrix in="SourceAlpha" type="matrix" values="0 0 0 0 0 0 0 0 0 0 0 0 0 0 0 0 0 0 127 0" result="hardAlpha"/>
<feOffset dy="1.99573"/>
<feComposite in2="hardAlpha" operator="out"/>
<feColorMatrix type="matrix" values="0 0 0 0 0 0 0 0 0 0 0 0 0 0 0 0 0 0 0.25 0"/>
<feBlend mode="normal" in2="BackgroundImageFix" result="effect1_dropShadow_1230_304149"/>
<feBlend mode="normal" in="SourceGraphic" in2="effect1_dropShadow_1230_304149" result="shape"/>
<feColorMatrix in="SourceAlpha" type="matrix" values="0 0 0 0 0 0 0 0 0 0 0 0 0 0 0 0 0 0 127 0" result="hardAlpha"/>
<feOffset dx="0.928247" dy="-7.42598"/>
<feComposite in2="hardAlpha" operator="arithmetic" k2="-1" k3="1"/>
<feColorMatrix type="matrix" values="0 0 0 0 0 0 0 0 0 0 0 0 0 0 0 0 0 0 0.25 0"/>
<feBlend mode="normal" in2="shape" result="effect2_innerShadow_1230_304149"/>
</filter>
<filter id="filter10_dii_1230_304149" x="10.8892" y="17.6639" width="67.3405" height="55.5408" filterUnits="userSpaceOnUse" color-interpolation-filters="sRGB">
<feFlood flood-opacity="0" result="BackgroundImageFix"/>
<feColorMatrix in="SourceAlpha" type="matrix" values="0 0 0 0 0 0 0 0 0 0 0 0 0 0 0 0 0 0 127 0" result="hardAlpha"/>
<feOffset dy="1.28117"/>
<feComposite in2="hardAlpha" operator="out"/>
<feColorMatrix type="matrix" values="0 0 0 0 0 0 0 0 0 0 0 0 0 0 0 0 0 0 0.25 0"/>
<feBlend mode="normal" in2="BackgroundImageFix" result="effect1_dropShadow_1230_304149"/>
<feBlend mode="normal" in="SourceGraphic" in2="effect1_dropShadow_1230_304149" result="shape"/>
<feColorMatrix in="SourceAlpha" type="matrix" values="0 0 0 0 0 0 0 0 0 0 0 0 0 0 0 0 0 0 127 0" result="hardAlpha"/>
<feOffset dx="3.84351" dy="-1.28117"/>
<feGaussianBlur stdDeviation="1.28117"/>
<feComposite in2="hardAlpha" operator="arithmetic" k2="-1" k3="1"/>
<feColorMatrix type="matrix" values="0 0 0 0 0 0 0 0 0 0 0 0 0 0 0 0 0 0 0.25 0"/>
<feBlend mode="normal" in2="shape" result="effect2_innerShadow_1230_304149"/>
<feColorMatrix in="SourceAlpha" type="matrix" values="0 0 0 0 0 0 0 0 0 0 0 0 0 0 0 0 0 0 127 0" result="hardAlpha"/>
<feOffset dx="5.12467" dy="-2.56234"/>
<feGaussianBlur stdDeviation="3.20292"/>
<feComposite in2="hardAlpha" operator="arithmetic" k2="-1" k3="1"/>
<feColorMatrix type="matrix" values="0 0 0 0 0 0 0 0 0 0 0 0 0 0 0 0 0 0 0.25 0"/>
<feBlend mode="normal" in2="effect2_innerShadow_1230_304149" result="effect3_innerShadow_1230_304149"/>
</filter>
<filter id="filter11_iiii_1230_304149" x="1.98349" y="-11.3489" width="82.4344" height="83.5735" filterUnits="userSpaceOnUse" color-interpolation-filters="sRGB">
<feFlood flood-opacity="0" result="BackgroundImageFix"/>
<feBlend mode="normal" in="SourceGraphic" in2="BackgroundImageFix" result="shape"/>
<feColorMatrix in="SourceAlpha" type="matrix" values="0 0 0 0 0 0 0 0 0 0 0 0 0 0 0 0 0 0 127 0" result="hardAlpha"/>
<feOffset dx="5.87384" dy="-4.89486"/>
<feGaussianBlur stdDeviation="1.95795"/>
<feComposite in2="hardAlpha" operator="arithmetic" k2="-1" k3="1"/>
<feColorMatrix type="matrix" values="0 0 0 0 0 0 0 0 0 0 0 0 0 0 0 0 0 0 0.16 0"/>
<feBlend mode="normal" in2="shape" result="effect1_innerShadow_1230_304149"/>
<feColorMatrix in="SourceAlpha" type="matrix" values="0 0 0 0 0 0 0 0 0 0 0 0 0 0 0 0 0 0 127 0" result="hardAlpha"/>
<feOffset dx="2.93692" dy="-4.89486"/>
<feComposite in2="hardAlpha" operator="arithmetic" k2="-1" k3="1"/>
<feColorMatrix type="matrix" values="0 0 0 0 0 0 0 0 0 0 0 0 0 0 0 0 0 0 0.1 0"/>
<feBlend mode="normal" in2="effect1_innerShadow_1230_304149" result="effect2_innerShadow_1230_304149"/>
<feColorMatrix in="SourceAlpha" type="matrix" values="0 0 0 0 0 0 0 0 0 0 0 0 0 0 0 0 0 0 127 0" result="hardAlpha"/>
<feOffset dx="-2.93692" dy="1.95795"/>
<feGaussianBlur stdDeviation="2.93692"/>
<feComposite in2="hardAlpha" operator="arithmetic" k2="-1" k3="1"/>
<feColorMatrix type="matrix" values="0 0 0 0 1 0 0 0 0 1 0 0 0 0 1 0 0 0 0.25 0"/>
<feBlend mode="normal" in2="effect2_innerShadow_1230_304149" result="effect3_innerShadow_1230_304149"/>
<feColorMatrix in="SourceAlpha" type="matrix" values="0 0 0 0 0 0 0 0 0 0 0 0 0 0 0 0 0 0 127 0" result="hardAlpha"/>
<feOffset dx="3.91589" dy="-12.7266"/>
<feGaussianBlur stdDeviation="10.7687"/>
<feComposite in2="hardAlpha" operator="arithmetic" k2="-1" k3="1"/>
<feColorMatrix type="matrix" values="0 0 0 0 0 0 0 0 0 0 0 0 0 0 0 0 0 0 0.25 0"/>
<feBlend mode="normal" in2="effect3_innerShadow_1230_304149" result="effect4_innerShadow_1230_304149"/>
</filter>
<filter id="filter12_d_1230_304149" x="11.1074" y="6.5943" width="63.0166" height="46.9862" filterUnits="userSpaceOnUse" color-interpolation-filters="sRGB">
<feFlood flood-opacity="0" result="BackgroundImageFix"/>
<feColorMatrix in="SourceAlpha" type="matrix" values="0 0 0 0 0 0 0 0 0 0 0 0 0 0 0 0 0 0 127 0" result="hardAlpha"/>
<feOffset dy="0.978973"/>
<feComposite in2="hardAlpha" operator="out"/>
<feColorMatrix type="matrix" values="0 0 0 0 0 0 0 0 0 0 0 0 0 0 0 0 0 0 0.25 0"/>
<feBlend mode="normal" in2="BackgroundImageFix" result="effect1_dropShadow_1230_304149"/>
<feBlend mode="normal" in="SourceGraphic" in2="effect1_dropShadow_1230_304149" result="shape"/>
</filter>
</defs>
</svg>
