<svg width="86" height="102" viewBox="0 0 86 102" fill="none" xmlns="http://www.w3.org/2000/svg">
<circle cx="42.7111" cy="59.2445" r="42.7111" fill="black" fill-opacity="0.12"/>
<g filter="url(#filter0_di_1230_304148)">
<circle cx="42.0219" cy="55.8001" r="36.5111" fill="#CA8A04"/>
<circle cx="42.0219" cy="44.7778" r="36.5111" fill="#ECDECE"/>
</g>
<g filter="url(#filter1_dii_1230_304148)">
<path d="M11.3488 78.6243C5.67692 78.6243 9.08736 67.7762 9.08736 64.9981L2.8488 58.733C2.78467 59.041 2.75537 59.0743 2.75537 58.6392L2.8488 58.733C3.03087 57.8585 3.49366 54.7688 4.3635 53.8953C5.57933 52.6743 8.18279 52.3026 8.18279 50.0093V35.0205C8.18279 23.6196 24.5203 25.9363 32.6062 25.9363C34.3002 25.9363 39.2298 26.7921 40.5463 25.7344C42.373 24.2669 43.5953 23.0352 45.7225 21.8484C48.4729 20.314 57.3279 17.9192 59.9443 20.284C62.5237 22.6152 66.032 23.828 68.588 26.1382C70.1062 27.5104 70.5896 30.2898 71.955 31.3868C75.5029 34.2372 72.7524 43.6265 74.92 47.7382C75.9694 49.7289 78.5225 50.4184 79.8449 52.0784C81.1277 53.6888 80.1467 57.2264 81.9053 58.6392C83.9751 60.3021 81.4568 72.1049 78.7393 72.2654C77.1411 72.3598 67.9629 73.6515 67.8844 74.9907C67.7904 76.5955 67.8172 80.3135 66.5276 81.3496C64.9792 82.5935 64.8231 85.8916 62.0047 85.8916C59.992 85.8916 57.6364 86.8 55.2205 86.8C49.3551 86.8 44.9415 83.1664 39.3905 83.1664C36.2182 83.1664 35.2288 85.022 32.1037 84.1253C29.456 83.3656 27.9016 81.9678 26.4752 79.5327C24.3176 75.8491 15.3365 78.6243 11.3488 78.6243Z" fill="#65A30D"/>
</g>
<g filter="url(#filter2_ii_1230_304148)">
<ellipse cx="31.3483" cy="61.3659" rx="17.362" ry="18.4471" fill="#DC2626"/>
<ellipse cx="31.0741" cy="58.5497" rx="17.3881" ry="17.3881" fill="#EF4444"/>
<circle cx="31.075" cy="58.5498" r="14.2645" fill="#B91C1C"/>
<path d="M32.5828 51.0089C36.7386 50.0232 40.2935 54.1065 38.7448 58.0869L38.6413 58.3531C38.2271 59.4178 38.2271 60.5991 38.6413 61.6638L38.693 61.7968C40.1137 65.4483 36.4303 69.0133 32.7788 67.5926C31.7004 67.173 30.4824 67.2054 29.4329 67.6927C26.2305 69.1795 22.7167 66.3398 23.4984 62.8967L23.8526 61.3365C24.0501 60.4668 24.013 59.5602 23.7453 58.7095L23.6922 58.5408C22.4336 54.5426 25.8698 50.6147 30.0184 51.2137C30.7103 51.3137 31.425 51.2836 32.1052 51.1222L32.5828 51.0089Z" fill="#EF4444"/>
<path d="M27.6873 45.9498C27.3358 43.8818 28.9293 41.9946 31.0271 41.9946C33.087 41.9946 34.6701 43.8177 34.3813 45.8573L32.7903 57.0918C32.6338 58.197 32.6347 59.3188 32.7932 60.4237L34.3746 71.452C34.6668 73.4895 33.086 75.3131 31.0277 75.3131C28.9312 75.3131 27.3401 73.4247 27.6956 71.3586L29.5214 60.7481C29.7481 59.4309 29.7495 58.0848 29.5255 56.7671L27.6873 45.9498Z" fill="#EF4444"/>
<path d="M43.8828 55.99C45.9518 55.6406 47.8384 57.2352 47.8384 59.3335C47.8384 61.3942 46.0155 62.9785 43.9749 62.6914L32.6263 61.0942C31.5278 60.9396 30.4129 60.9406 29.3146 61.0971L18.1736 62.6848C16.1351 62.9752 14.3117 61.3933 14.3117 59.3342C14.3117 57.2371 16.1994 55.6448 18.2666 55.9983L28.9922 57.8324C30.3015 58.0563 31.6393 58.0577 32.9491 57.8365L43.8828 55.99Z" fill="#EF4444"/>
<path d="M23.3841 50.3253C23.7346 50.7729 24.1165 51.7595 23.8178 51.9934C23.5192 52.2272 22.653 51.6198 22.3025 51.1722C21.9521 50.7246 21.9101 50.1722 22.2088 49.9383C22.5075 49.7045 23.0337 49.8777 23.3841 50.3253Z" fill="white" fill-opacity="0.4"/>
<path d="M25.587 49.2543C25.7418 49.8013 25.7216 50.859 25.3566 50.9623C24.9916 51.0657 24.42 50.1754 24.2652 49.6284C24.1104 49.0814 24.2808 48.5543 24.6458 48.4509C25.0108 48.3476 25.4322 48.7073 25.587 49.2543Z" fill="white" fill-opacity="0.4"/>
<path d="M27.877 49.3702C27.8347 49.9371 27.4529 50.9237 27.0746 50.8956C26.6963 50.8674 26.4648 49.8351 26.507 49.2682C26.5493 48.7013 26.8902 48.2645 27.2685 48.2927C27.6467 48.3209 27.9192 48.8033 27.877 49.3702Z" fill="white" fill-opacity="0.4"/>
<path d="M21.701 52.0622C22.2014 52.332 22.9465 53.0831 22.7664 53.417C22.5864 53.7509 21.5495 53.5412 21.0491 53.2714C20.5487 53.0016 20.289 52.5122 20.469 52.1783C20.649 51.8444 21.2006 51.7924 21.701 52.0622Z" fill="white" fill-opacity="0.4"/>
<path d="M21.1723 54.5324C21.7405 54.5168 22.7609 54.7963 22.7713 55.1755C22.7817 55.5547 21.7783 55.89 21.2101 55.9056C20.6418 55.9213 20.1727 55.6266 20.1622 55.2474C20.1518 54.8682 20.604 54.5481 21.1723 54.5324Z" fill="white" fill-opacity="0.4"/>
<path d="M40.0015 50.2175C39.5914 50.6111 38.6481 51.0902 38.3854 50.8165C38.1228 50.5428 38.6402 49.62 39.0503 49.2264C39.4605 48.8328 40.0059 48.7355 40.2686 49.0092C40.5312 49.2829 40.4117 49.8239 40.0015 50.2175Z" fill="white" fill-opacity="0.4"/>
<path d="M41.2884 52.3031C40.7597 52.5121 39.7053 52.5981 39.5658 52.2454C39.4264 51.8926 40.2548 51.2345 40.7835 51.0256C41.3121 50.8166 41.8538 50.9332 41.9932 51.286C42.1326 51.6388 41.8171 52.0942 41.2884 52.3031Z" fill="white" fill-opacity="0.4"/>
<path d="M41.4026 54.5927C40.8343 54.6076 39.8143 54.3268 39.8044 53.9476C39.7944 53.5684 40.7983 53.2344 41.3665 53.2195C41.9348 53.2046 42.4036 53.4999 42.4135 53.8791C42.4235 54.2583 41.9709 54.5778 41.4026 54.5927Z" fill="white" fill-opacity="0.4"/>
<path d="M38.1044 48.7178C37.8862 49.2428 37.2138 50.0595 36.8635 49.9139C36.5132 49.7683 36.6177 48.7155 36.8359 48.1906C37.0541 47.6657 37.5149 47.3581 37.8652 47.5037C38.2155 47.6493 38.3226 48.1929 38.1044 48.7178Z" fill="white" fill-opacity="0.4"/>
<path d="M35.5936 48.4399C35.6662 49.0037 35.4905 50.0469 35.1143 50.0954C34.7381 50.1439 34.3037 49.1792 34.2311 48.6154C34.1585 48.0515 34.4046 47.5552 34.7808 47.5067C35.1571 47.4583 35.5209 47.876 35.5936 48.4399Z" fill="white" fill-opacity="0.4"/>
<path d="M40.0015 68.1675C39.5914 67.7739 38.6481 67.2948 38.3854 67.5685C38.1228 67.8422 38.6402 68.765 39.0503 69.1586C39.4605 69.5522 40.0059 69.6495 40.2686 69.3758C40.5312 69.1021 40.4117 68.5611 40.0015 68.1675Z" fill="white" fill-opacity="0.4"/>
<path d="M41.2884 66.0819C40.7597 65.873 39.7053 65.7869 39.5658 66.1397C39.4264 66.4924 40.2548 67.1505 40.7835 67.3595C41.3121 67.5684 41.8538 67.4518 41.9932 67.099C42.1326 66.7462 41.8171 66.2909 41.2884 66.0819Z" fill="white" fill-opacity="0.4"/>
<path d="M41.4026 63.7923C40.8343 63.7774 39.8143 64.0582 39.8044 64.4374C39.7944 64.8166 40.7983 65.1506 41.3665 65.1655C41.9348 65.1804 42.4036 64.8851 42.4135 64.5059C42.4235 64.1267 41.9709 63.8072 41.4026 63.7923Z" fill="white" fill-opacity="0.4"/>
<path d="M38.1044 69.6671C37.8862 69.1422 37.2138 68.3255 36.8635 68.4711C36.5132 68.6166 36.6177 69.6694 36.8359 70.1943C37.0541 70.7193 37.5149 71.0268 37.8652 70.8812C38.2155 70.7356 38.3226 70.1921 38.1044 69.6671Z" fill="white" fill-opacity="0.4"/>
<path d="M35.5931 69.9451C35.6657 69.3813 35.49 68.338 35.1138 68.2896C34.7376 68.2411 34.3033 69.2058 34.2306 69.7696C34.158 70.3334 34.4041 70.8298 34.7803 70.8782C35.1566 70.9267 35.5205 70.5089 35.5931 69.9451Z" fill="white" fill-opacity="0.4"/>
<path d="M22.1064 67.2657C22.6981 66.9958 23.9401 66.7958 24.1725 67.1417C24.405 67.4877 23.5399 68.2486 22.9483 68.5184C22.3566 68.7883 21.6885 68.7266 21.456 68.3806C21.2236 68.0347 21.5147 67.5355 22.1064 67.2657Z" fill="white" fill-opacity="0.4"/>
<path d="M21.2936 64.9137C21.9417 64.8628 23.1465 65.0724 23.2091 65.4428C23.2716 65.8133 22.1683 66.2042 21.5202 66.2551C20.8721 66.306 20.2959 66.047 20.2334 65.6765C20.1708 65.3061 20.6455 64.9646 21.2936 64.9137Z" fill="white" fill-opacity="0.4"/>
<path d="M21.7735 62.7275C22.4145 62.8701 23.4832 63.4156 23.3936 63.7752C23.304 64.1348 22.0901 64.1723 21.4491 64.0297C20.8082 63.8871 20.3612 63.48 20.4508 63.1204C20.5404 62.7608 21.1326 62.5849 21.7735 62.7275Z" fill="white" fill-opacity="0.4"/>
<path d="M23.911 69.1654C24.295 68.7316 25.2657 68.1484 25.6197 68.382C25.9737 68.6155 25.5769 69.5774 25.1929 70.0112C24.8089 70.4451 24.2106 70.6074 23.8566 70.3739C23.5027 70.1403 23.527 69.5993 23.911 69.1654Z" fill="white" fill-opacity="0.4"/>
<path d="M26.6515 70.119C26.7199 69.5684 27.1939 68.6351 27.6285 68.6932C28.0631 68.7513 28.2937 69.7788 28.2253 70.3294C28.157 70.88 27.7493 71.2792 27.3147 71.2211C26.8801 71.163 26.5832 70.6696 26.6515 70.119Z" fill="white" fill-opacity="0.4"/>
</g>
<g filter="url(#filter3_ii_1230_304148)">
<ellipse cx="54.7702" cy="62.7448" rx="17.362" ry="18.4471" fill="#DC2626"/>
<ellipse cx="54.496" cy="59.9286" rx="17.3881" ry="17.3881" fill="#EF4444"/>
<circle cx="54.4969" cy="59.9287" r="14.2645" fill="#B91C1C"/>
<path d="M56.0047 52.3878C60.1605 51.4021 63.7153 55.4854 62.1667 59.4658L62.0632 59.732C61.6489 60.7967 61.6489 61.978 62.0632 63.0427L62.1149 63.1757C63.5356 66.8272 59.8522 70.3922 56.2007 68.9715C55.1222 68.5519 53.9043 68.5843 52.8547 69.0716C49.6524 70.5584 46.1385 67.7187 46.9203 64.2756L47.2745 62.7154C47.472 61.8457 47.4349 60.9391 47.1671 60.0884L47.114 59.9197C45.8554 55.9215 49.2917 51.9936 53.4403 52.5926C54.1322 52.6926 54.8469 52.6625 55.5271 52.5011L56.0047 52.3878Z" fill="#EF4444"/>
<path d="M51.1092 47.3288C50.7577 45.2607 52.3512 43.3735 54.4489 43.3735C56.5088 43.3735 58.092 45.1967 57.8031 47.2362L56.2122 58.4707C56.0556 59.5759 56.0566 60.6977 56.2151 61.8026L57.7965 72.8309C58.0886 74.8684 56.5079 76.692 54.4496 76.692C52.3531 76.692 50.7619 74.8036 51.1175 72.7375L52.9433 62.127C53.1699 60.8098 53.1713 59.4637 52.9474 58.146L51.1092 47.3288Z" fill="#EF4444"/>
<path d="M67.3047 57.3689C69.3737 57.0195 71.2603 58.6141 71.2603 60.7125C71.2603 62.7731 69.4374 64.3575 67.3968 64.0703L56.0482 62.4731C54.9496 62.3185 53.8348 62.3195 52.7365 62.476L41.5954 64.0637C39.5569 64.3542 37.7336 62.7722 37.7336 60.7131C37.7336 58.616 39.6213 57.0237 41.6884 57.3772L52.414 59.2113C53.7234 59.4352 55.0611 59.4366 56.371 59.2154L67.3047 57.3689Z" fill="#EF4444"/>
<path d="M46.806 51.7042C47.1565 52.1518 47.5384 53.1384 47.2397 53.3723C46.941 53.6061 46.0749 52.9987 45.7244 52.5511C45.3739 52.1035 45.332 51.5511 45.6307 51.3172C45.9293 51.0834 46.4556 51.2566 46.806 51.7042Z" fill="white" fill-opacity="0.4"/>
<path d="M49.0088 50.6332C49.1637 51.1802 49.1434 52.2379 48.7784 52.3413C48.4134 52.4446 47.8419 51.5543 47.6871 51.0073C47.5322 50.4603 47.7026 49.9332 48.0676 49.8299C48.4326 49.7265 48.854 50.0862 49.0088 50.6332Z" fill="white" fill-opacity="0.4"/>
<path d="M51.2988 50.7491C51.2566 51.316 50.8748 52.3026 50.4965 52.2745C50.1182 52.2463 49.8867 51.214 49.9289 50.6471C49.9711 50.0802 50.312 49.6434 50.6903 49.6716C51.0686 49.6998 51.3411 50.1822 51.2988 50.7491Z" fill="white" fill-opacity="0.4"/>
<path d="M45.1229 53.4411C45.6233 53.7109 46.3683 54.462 46.1883 54.7959C46.0083 55.1298 44.9713 54.9201 44.471 54.6503C43.9706 54.3805 43.7109 53.8911 43.8909 53.5572C44.0709 53.2233 44.6225 53.1713 45.1229 53.4411Z" fill="white" fill-opacity="0.4"/>
<path d="M44.5941 55.9113C45.1624 55.8957 46.1827 56.1752 46.1932 56.5544C46.2036 56.9336 45.2002 57.2689 44.632 57.2845C44.0637 57.3002 43.5946 57.0055 43.5841 56.6263C43.5737 56.2471 44.0259 55.927 44.5941 55.9113Z" fill="white" fill-opacity="0.4"/>
<path d="M63.4234 51.5964C63.0132 51.9901 62.07 52.4691 61.8073 52.1954C61.5446 51.9217 62.0621 50.9989 62.4722 50.6053C62.8824 50.2117 63.4278 50.1144 63.6904 50.3881C63.9531 50.6618 63.8335 51.2028 63.4234 51.5964Z" fill="white" fill-opacity="0.4"/>
<path d="M64.7103 53.682C64.1816 53.891 63.1271 53.977 62.9877 53.6243C62.8483 53.2715 63.6767 52.6134 64.2053 52.4045C64.734 52.1955 65.2756 52.3121 65.4151 52.6649C65.5545 53.0177 65.2389 53.4731 64.7103 53.682Z" fill="white" fill-opacity="0.4"/>
<path d="M64.8244 55.9716C64.2562 55.9866 63.2362 55.7057 63.2262 55.3265C63.2163 54.9473 64.2201 54.6133 64.7884 54.5984C65.3567 54.5835 65.8254 54.8788 65.8354 55.258C65.8453 55.6372 65.3927 55.9567 64.8244 55.9716Z" fill="white" fill-opacity="0.4"/>
<path d="M61.5263 50.0967C61.3081 50.6217 60.6356 51.4384 60.2854 51.2928C59.9351 51.1472 60.0396 50.0944 60.2578 49.5695C60.476 49.0446 60.9368 48.737 61.2871 48.8826C61.6374 49.0282 61.7445 49.5718 61.5263 50.0967Z" fill="white" fill-opacity="0.4"/>
<path d="M59.0154 49.8188C59.0881 50.3826 58.9124 51.4258 58.5362 51.4743C58.1599 51.5228 57.7256 50.5581 57.653 49.9943C57.5804 49.4305 57.8265 48.9341 58.2027 48.8856C58.5789 48.8372 58.9428 49.255 59.0154 49.8188Z" fill="white" fill-opacity="0.4"/>
<path d="M63.4234 69.5464C63.0132 69.1528 62.07 68.6737 61.8073 68.9474C61.5446 69.2211 62.0621 70.1439 62.4722 70.5375C62.8824 70.9311 63.4278 71.0284 63.6904 70.7547C63.9531 70.481 63.8335 69.94 63.4234 69.5464Z" fill="white" fill-opacity="0.4"/>
<path d="M64.7103 67.4608C64.1816 67.2519 63.1271 67.1658 62.9877 67.5186C62.8483 67.8713 63.6767 68.5294 64.2053 68.7384C64.734 68.9473 65.2756 68.8307 65.4151 68.4779C65.5545 68.1251 65.2389 67.6698 64.7103 67.4608Z" fill="white" fill-opacity="0.4"/>
<path d="M64.8244 65.1712C64.2562 65.1563 63.2362 65.4371 63.2262 65.8163C63.2163 66.1956 64.2201 66.5295 64.7884 66.5444C65.3567 66.5593 65.8254 66.264 65.8354 65.8848C65.8453 65.5056 65.3927 65.1861 64.8244 65.1712Z" fill="white" fill-opacity="0.4"/>
<path d="M61.5263 71.046C61.3081 70.5211 60.6356 69.7044 60.2854 69.85C59.9351 69.9955 60.0396 71.0483 60.2578 71.5733C60.476 72.0982 60.9368 72.4057 61.2871 72.2601C61.6374 72.1145 61.7445 71.571 61.5263 71.046Z" fill="white" fill-opacity="0.4"/>
<path d="M59.015 71.324C59.0876 70.7602 58.9119 69.7169 58.5357 69.6685C58.1594 69.62 57.7251 70.5847 57.6525 71.1485C57.5799 71.7123 57.826 72.2087 58.2022 72.2571C58.5785 72.3056 58.9423 71.8878 59.015 71.324Z" fill="white" fill-opacity="0.4"/>
<path d="M45.5283 68.6446C46.1199 68.3747 47.3619 68.1747 47.5944 68.5207C47.8269 68.8666 46.9618 69.6275 46.3701 69.8974C45.7785 70.1672 45.1104 70.1055 44.8779 69.7595C44.6454 69.4136 44.9366 68.9144 45.5283 68.6446Z" fill="white" fill-opacity="0.4"/>
<path d="M44.7155 66.2926C45.3636 66.2417 46.5684 66.4513 46.6309 66.8217C46.6935 67.1922 45.5902 67.5831 44.9421 67.634C44.294 67.6849 43.7178 67.4259 43.6552 67.0554C43.5927 66.685 44.0673 66.3435 44.7155 66.2926Z" fill="white" fill-opacity="0.4"/>
<path d="M45.1954 64.1064C45.8364 64.2491 46.9051 64.7945 46.8155 65.1541C46.7259 65.5137 45.512 65.5512 44.871 65.4086C44.23 65.266 43.7831 64.8589 43.8726 64.4993C43.9622 64.1397 44.5544 63.9638 45.1954 64.1064Z" fill="white" fill-opacity="0.4"/>
<path d="M47.3329 70.5443C47.7169 70.1105 48.6876 69.5273 49.0416 69.7609C49.3956 69.9944 48.9987 70.9563 48.6147 71.3901C48.2307 71.824 47.6325 71.9863 47.2785 71.7528C46.9245 71.5192 46.9489 70.9782 47.3329 70.5443Z" fill="white" fill-opacity="0.4"/>
<path d="M50.0734 71.4979C50.1418 70.9473 50.6158 70.014 51.0504 70.0721C51.485 70.1302 51.7156 71.1577 51.6472 71.7083C51.5789 72.2589 51.1711 72.6581 50.7365 72.6C50.3019 72.5419 50.005 72.0485 50.0734 71.4979Z" fill="white" fill-opacity="0.4"/>
</g>
<g filter="url(#filter4_di_1230_304148)">
<path d="M35.5474 3.09058C40.1194 1.1181 45.3025 1.1181 49.8745 3.09058C51.488 3.78667 53.1943 4.24388 54.9396 4.44778C59.8854 5.02558 64.374 7.61711 67.3473 11.6113C68.3965 13.0209 69.6456 14.27 71.0552 15.3193C75.0494 18.2925 77.641 22.7812 78.2188 27.7269C78.4227 29.4723 78.8799 31.1786 79.576 32.7921C81.5484 37.3641 81.5484 42.5471 79.576 47.1192C78.8799 48.7326 78.4227 50.439 78.2188 52.1843C77.641 57.13 75.0494 61.6187 71.0552 64.592C69.6456 65.6412 68.3965 66.8903 67.3473 68.2999C64.374 72.2941 59.8854 74.8857 54.9396 75.4634C53.1943 75.6674 51.488 76.1246 49.8745 76.8206C45.3025 78.7931 40.1194 78.7931 35.5474 76.8206C33.9339 76.1246 32.2276 75.6674 30.4822 75.4634C25.5365 74.8857 21.0478 72.2941 18.0746 68.2999C17.0253 66.8903 15.7762 65.6412 14.3667 64.592C10.3724 61.6187 7.78089 57.13 7.20309 52.1843C6.99919 50.439 6.54198 48.7326 5.84589 47.1192C3.87341 42.5471 3.87341 37.3641 5.84589 32.7921C6.54198 31.1786 6.99919 29.4723 7.20309 27.7269C7.78089 22.7812 10.3724 18.2925 14.3667 15.3193C15.7762 14.27 17.0253 13.0209 18.0746 11.6113C21.0478 7.61711 25.5365 5.02558 30.4822 4.44778C32.2276 4.24388 33.9339 3.78667 35.5474 3.09058Z" fill="#713F12"/>
</g>
<g filter="url(#filter5_dii_1230_304148)">
<path d="M12.1269 41.7731C14.0587 31.148 22.0247 22.6339 32.498 20.0005C55.5898 14.1942 77.8286 33.5002 72.4148 56.6872C70.3263 65.632 68.0713 71.9184 65.9722 70.9247C53.8871 66.1989 42.2037 65.7838 29.8088 65.3374C29.5321 65.3275 29.2557 65.3482 28.9826 65.3937C23.4308 66.3172 16.8371 65.7264 14.3721 65.446C13.7848 65.3793 13.3374 64.9083 13.2805 64.32L11.4995 45.9161C11.4705 45.6164 11.4831 45.314 11.537 45.0177L12.1269 41.7731Z" fill="#FACC15"/>
</g>
<g filter="url(#filter6_iiii_1230_304148)">
<path d="M75.3725 18.3955C82.3648 28.813 82.2988 43.0337 74.6158 52.9528C67.0847 62.6757 55.5901 68.8889 42.7109 68.8889C29.8318 68.8889 18.3372 62.6757 10.8061 52.9528C3.12309 43.0337 3.05709 28.813 10.0494 18.3955C17.5546 7.21385 29.3925 2.55901e-05 42.711 2.6822e-05C56.0294 2.80538e-05 67.8673 7.21385 75.3725 18.3955Z" fill="#CA8A04"/>
</g>
<g filter="url(#filter7_d_1230_304148)">
<path d="M32.005 41.9361C31.8271 42.676 31.0872 43.1151 30.3525 42.917C29.6178 42.719 29.1665 41.9586 29.3444 41.2188C29.5224 40.479 31.1979 37.4392 31.6413 37.5587C32.0847 37.6783 32.1829 41.1963 32.005 41.9361Z" fill="white" fill-opacity="0.4"/>
<path d="M46.5961 44.4201C46.6489 44.9884 46.1944 45.4815 45.5811 45.5216C44.9678 45.5617 44.4278 45.1335 44.375 44.5653C44.3223 43.997 44.8287 41.4302 45.1989 41.406C45.5691 41.3818 46.5433 43.8519 46.5961 44.4201Z" fill="white" fill-opacity="0.4"/>
<path d="M41.6936 35.5256C41.7626 36.2834 41.2048 36.9603 40.4478 37.0375C39.6908 37.1148 39.0213 36.5631 38.9523 35.8053C38.8833 35.0475 39.4914 31.5957 39.9483 31.5491C40.4052 31.5025 41.6246 34.7678 41.6936 35.5256Z" fill="white" fill-opacity="0.4"/>
<path d="M66.1438 42.5053C66.4527 43.2007 66.1508 44.0394 65.4696 44.3785C64.7884 44.7176 63.9858 44.4287 63.677 43.7332C63.3682 43.0378 62.8218 39.5463 63.2329 39.3416C63.6441 39.137 65.835 41.8098 66.1438 42.5053Z" fill="white" fill-opacity="0.4"/>
<path d="M71.5403 30.2811C71.9601 30.6676 71.9091 31.4577 71.4262 32.0457C70.9433 32.6338 70.2115 32.7972 69.7916 32.4107C69.3717 32.0242 68.0936 29.6014 68.3851 29.2464C68.6765 28.8915 71.1204 29.8946 71.5403 30.2811Z" fill="white" fill-opacity="0.4"/>
<path d="M65.8907 18.6879C66.4487 18.5683 67.017 19.0771 67.16 19.8245C67.3029 20.5718 66.9665 21.2747 66.4085 21.3944C65.8505 21.5141 63.2048 21.1423 63.1185 20.6913C63.0322 20.2402 65.3327 18.8076 65.8907 18.6879Z" fill="white" fill-opacity="0.4"/>
<path d="M24.3966 35.5285C23.8775 35.7655 23.224 35.3863 22.9369 34.6816C22.6499 33.9769 22.8381 33.2135 23.3572 32.9764C23.8764 32.7394 26.5237 32.5396 26.6969 32.965C26.8702 33.3903 24.9158 35.2914 24.3966 35.5285Z" fill="white" fill-opacity="0.4"/>
<path d="M13.0811 35.8945C12.6475 36.2635 11.923 36.0714 11.4629 35.4654C11.0028 34.8593 10.9812 34.0689 11.4148 33.6998C11.8484 33.3308 14.1777 31.9165 14.6032 32.7926C15.0286 33.6686 13.5147 35.5255 13.0811 35.8945Z" fill="white" fill-opacity="0.4"/>
<path d="M34.5437 50.9014C34.5623 51.6621 33.9607 52.2956 33.2 52.3164C32.4394 52.3372 31.8077 51.7373 31.7892 50.9766C31.7707 50.2159 32.6067 46.8195 33.0657 46.8069C33.5248 46.7944 34.5252 50.1407 34.5437 50.9014Z" fill="white" fill-opacity="0.4"/>
<path d="M53.0766 51.3918C52.9629 52.1442 52.2625 52.6511 51.5123 52.5239C50.762 52.3968 50.246 51.6838 50.3598 50.9315C50.4735 50.1791 51.8831 46.998 52.336 47.0747C52.7888 47.1514 53.1903 50.6394 53.0766 51.3918Z" fill="white" fill-opacity="0.4"/>
<path d="M29.2501 25.7576C28.8865 26.4111 28.0683 26.6145 27.4227 26.2118C26.7771 25.8092 26.5484 24.9529 26.9121 24.2994C27.2757 23.6458 28.5697 21.4478 30.0563 21.4784C31.5428 21.509 29.6138 25.104 29.2501 25.7576Z" fill="white" fill-opacity="0.4"/>
<path d="M18.8156 47.1793C18.7342 47.9227 18.0559 48.4502 17.3007 48.3575C16.5454 48.2648 15.9992 47.5869 16.0806 46.8435C16.162 46.1 16.5017 43.5698 17.8904 42.973C19.2791 42.3761 18.897 46.4358 18.8156 47.1793Z" fill="white" fill-opacity="0.4"/>
<path d="M27.5751 8.38143C27.2826 7.69309 27.6024 6.86982 28.2894 6.54261C28.9764 6.21539 29.7704 6.50813 30.0628 7.19646C30.3553 7.8848 31.2975 10.2612 30.4077 11.528C29.5178 12.7947 27.8676 9.06976 27.5751 8.38143Z" fill="white" fill-opacity="0.4"/>
<path d="M16.2629 26.716C15.9039 26.8209 15.5352 26.6074 15.4393 26.2392C15.3433 25.871 15.5566 25.4876 15.9155 25.3828C16.2745 25.2779 17.5076 24.9502 18.039 25.48C18.5704 26.0098 16.6218 26.6112 16.2629 26.716Z" fill="white" fill-opacity="0.4"/>
<path d="M73.9739 37.8834C74.21 38.1734 74.1735 38.6164 73.8925 38.8729C73.6114 39.1293 73.1922 39.1021 72.9561 38.8121C72.7201 38.5221 71.9372 37.5111 72.1827 36.7724C72.4282 36.0337 73.7378 37.5934 73.9739 37.8834Z" fill="white" fill-opacity="0.4"/>
<path d="M66.2921 50.5015C66.6425 51.1736 66.3941 52.0297 65.7372 52.4137C65.0802 52.7977 64.2636 52.5642 63.9131 51.8921C63.5627 51.22 62.3449 48.4341 63.1989 47.5461C64.053 46.6582 65.9416 49.8294 66.2921 50.5015Z" fill="white" fill-opacity="0.4"/>
<path d="M50.4948 32.206C50.6783 32.9442 50.2332 33.7081 49.5006 33.9122C48.7681 34.1162 48.0255 33.6832 47.842 32.945C47.6586 32.2068 46.7882 29.0495 48.1719 28.5656C49.5557 28.0816 50.3114 31.4678 50.4948 32.206Z" fill="white" fill-opacity="0.4"/>
<path d="M44.1782 22.7335C43.9661 23.464 43.208 23.8655 42.4849 23.6302C41.7618 23.3949 41.3474 22.612 41.5595 21.8815C41.7715 21.151 42.6056 17.9787 44.0206 18.3394C45.4356 18.7 44.3902 22.003 44.1782 22.7335Z" fill="white" fill-opacity="0.4"/>
<path d="M60.5023 31.2736C60.9576 31.6177 60.9818 32.408 60.5564 33.0389C60.1311 33.6698 59.4171 33.9023 58.9619 33.5582C58.5066 33.2141 56.4886 31.7247 57.2591 30.5467C58.0296 29.3688 60.047 30.9295 60.5023 31.2736Z" fill="white" fill-opacity="0.4"/>
<path d="M54.3244 19.6352C54.8917 19.6965 55.2923 20.3603 55.2192 21.1177C55.1461 21.8751 54.627 22.4393 54.0598 22.378C53.4925 22.3166 51.0969 21.3682 51.1107 20.6732C51.1245 19.9783 53.7572 19.5738 54.3244 19.6352Z" fill="white" fill-opacity="0.4"/>
<path d="M59.3381 11.1754C59.8359 10.8963 60.5153 11.2219 60.8556 11.9025C61.1959 12.583 61.0682 13.361 60.5704 13.64C60.0726 13.919 57.4554 14.3342 57.25 13.9234C57.0447 13.5126 58.8403 11.4544 59.3381 11.1754Z" fill="white" fill-opacity="0.4"/>
<path d="M47.1933 6.06913C47.4689 5.35989 48.2579 5.03132 48.9555 5.33524C49.6531 5.63917 49.9951 6.4605 49.7195 7.16974C49.4438 7.87899 47.3801 10.6555 46.9591 10.472C46.538 10.2886 46.9176 6.77838 47.1933 6.06913Z" fill="white" fill-opacity="0.4"/>
<path d="M37.0407 7.01271C37.011 6.25237 37.6032 5.60899 38.3634 5.57568C39.1236 5.54237 39.7639 6.13175 39.7937 6.8921C39.8234 7.65244 39.0374 11.0625 38.5786 11.0826C38.1198 11.1027 37.0705 7.77306 37.0407 7.01271Z" fill="white" fill-opacity="0.4"/>
<path d="M17.6307 14.5224C17.2403 13.8708 17.4358 12.9986 18.0675 12.5743C18.6991 12.15 19.5277 12.3343 19.9181 12.9858C20.3086 13.6374 21.5927 16.5632 20.8954 17.2935C20.198 18.0238 18.0212 15.174 17.6307 14.5224Z" fill="white" fill-opacity="0.4"/>
</g>
<defs>
<filter id="filter0_di_1230_304148" x="5.51074" y="4.06518" width="76.1736" height="91.3971" filterUnits="userSpaceOnUse" color-interpolation-filters="sRGB">
<feFlood flood-opacity="0" result="BackgroundImageFix"/>
<feColorMatrix in="SourceAlpha" type="matrix" values="0 0 0 0 0 0 0 0 0 0 0 0 0 0 0 0 0 0 127 0" result="hardAlpha"/>
<feOffset dy="3.15116"/>
<feComposite in2="hardAlpha" operator="out"/>
<feColorMatrix type="matrix" values="0 0 0 0 0 0 0 0 0 0 0 0 0 0 0 0 0 0 0.25 0"/>
<feBlend mode="normal" in2="BackgroundImageFix" result="effect1_dropShadow_1230_304148"/>
<feBlend mode="normal" in="SourceGraphic" in2="effect1_dropShadow_1230_304148" result="shape"/>
<feColorMatrix in="SourceAlpha" type="matrix" values="0 0 0 0 0 0 0 0 0 0 0 0 0 0 0 0 0 0 127 0" result="hardAlpha"/>
<feOffset dx="3.15116" dy="-5.25193"/>
<feGaussianBlur stdDeviation="2.10077"/>
<feComposite in2="hardAlpha" operator="arithmetic" k2="-1" k3="1"/>
<feColorMatrix type="matrix" values="0 0 0 0 0 0 0 0 0 0 0 0 0 0 0 0 0 0 0.25 0"/>
<feBlend mode="normal" in2="shape" result="effect2_innerShadow_1230_304148"/>
</filter>
<filter id="filter1_dii_1230_304148" x="-2.04788" y="15.4463" width="89.5176" height="75.1963" filterUnits="userSpaceOnUse" color-interpolation-filters="sRGB">
<feFlood flood-opacity="0" result="BackgroundImageFix"/>
<feColorMatrix in="SourceAlpha" type="matrix" values="0 0 0 0 0 0 0 0 0 0 0 0 0 0 0 0 0 0 127 0" result="hardAlpha"/>
<feOffset dy="1.9213"/>
<feGaussianBlur stdDeviation="0.480325"/>
<feComposite in2="hardAlpha" operator="out"/>
<feColorMatrix type="matrix" values="0 0 0 0 0 0 0 0 0 0 0 0 0 0 0 0 0 0 0.25 0"/>
<feBlend mode="normal" in2="BackgroundImageFix" result="effect1_dropShadow_1230_304148"/>
<feBlend mode="normal" in="SourceGraphic" in2="effect1_dropShadow_1230_304148" result="shape"/>
<feColorMatrix in="SourceAlpha" type="matrix" values="0 0 0 0 0 0 0 0 0 0 0 0 0 0 0 0 0 0 127 0" result="hardAlpha"/>
<feOffset dx="4.80325" dy="-3.8426"/>
<feGaussianBlur stdDeviation="2.40163"/>
<feComposite in2="hardAlpha" operator="arithmetic" k2="-1" k3="1"/>
<feColorMatrix type="matrix" values="0 0 0 0 0 0 0 0 0 0 0 0 0 0 0 0 0 0 0.25 0"/>
<feBlend mode="normal" in2="shape" result="effect2_innerShadow_1230_304148"/>
<feColorMatrix in="SourceAlpha" type="matrix" values="0 0 0 0 0 0 0 0 0 0 0 0 0 0 0 0 0 0 127 0" result="hardAlpha"/>
<feOffset dx="-4.80325" dy="3.8426"/>
<feGaussianBlur stdDeviation="4.32293"/>
<feComposite in2="hardAlpha" operator="arithmetic" k2="-1" k3="1"/>
<feColorMatrix type="matrix" values="0 0 0 0 1 0 0 0 0 1 0 0 0 0 1 0 0 0 0.25 0"/>
<feBlend mode="normal" in2="effect2_innerShadow_1230_304148" result="effect3_innerShadow_1230_304148"/>
</filter>
<filter id="filter2_ii_1230_304148" x="2.46745" y="22.1701" width="66.65" height="68.701" filterUnits="userSpaceOnUse" color-interpolation-filters="sRGB">
<feFlood flood-opacity="0" result="BackgroundImageFix"/>
<feBlend mode="normal" in="SourceGraphic" in2="BackgroundImageFix" result="shape"/>
<feColorMatrix in="SourceAlpha" type="matrix" values="0 0 0 0 0 0 0 0 0 0 0 0 0 0 0 0 0 0 127 0" result="hardAlpha"/>
<feOffset dx="15.3826" dy="-16.4081"/>
<feGaussianBlur stdDeviation="10.7678"/>
<feComposite in2="hardAlpha" operator="arithmetic" k2="-1" k3="1"/>
<feColorMatrix type="matrix" values="0 0 0 0 0 0 0 0 0 0 0 0 0 0 0 0 0 0 0.25 0"/>
<feBlend mode="normal" in2="shape" result="effect1_innerShadow_1230_304148"/>
<feColorMatrix in="SourceAlpha" type="matrix" values="0 0 0 0 0 0 0 0 0 0 0 0 0 0 0 0 0 0 127 0" result="hardAlpha"/>
<feOffset dx="-7.17855" dy="8.20405"/>
<feGaussianBlur stdDeviation="7.6913"/>
<feComposite in2="hardAlpha" operator="arithmetic" k2="-1" k3="1"/>
<feColorMatrix type="matrix" values="0 0 0 0 1 0 0 0 0 1 0 0 0 0 1 0 0 0 0.25 0"/>
<feBlend mode="normal" in2="effect1_innerShadow_1230_304148" result="effect2_innerShadow_1230_304148"/>
</filter>
<filter id="filter3_ii_1230_304148" x="25.8893" y="23.549" width="66.65" height="68.701" filterUnits="userSpaceOnUse" color-interpolation-filters="sRGB">
<feFlood flood-opacity="0" result="BackgroundImageFix"/>
<feBlend mode="normal" in="SourceGraphic" in2="BackgroundImageFix" result="shape"/>
<feColorMatrix in="SourceAlpha" type="matrix" values="0 0 0 0 0 0 0 0 0 0 0 0 0 0 0 0 0 0 127 0" result="hardAlpha"/>
<feOffset dx="15.3826" dy="-16.4081"/>
<feGaussianBlur stdDeviation="10.7678"/>
<feComposite in2="hardAlpha" operator="arithmetic" k2="-1" k3="1"/>
<feColorMatrix type="matrix" values="0 0 0 0 0 0 0 0 0 0 0 0 0 0 0 0 0 0 0.25 0"/>
<feBlend mode="normal" in2="shape" result="effect1_innerShadow_1230_304148"/>
<feColorMatrix in="SourceAlpha" type="matrix" values="0 0 0 0 0 0 0 0 0 0 0 0 0 0 0 0 0 0 127 0" result="hardAlpha"/>
<feOffset dx="-7.17855" dy="8.20405"/>
<feGaussianBlur stdDeviation="7.6913"/>
<feComposite in2="hardAlpha" operator="arithmetic" k2="-1" k3="1"/>
<feColorMatrix type="matrix" values="0 0 0 0 1 0 0 0 0 1 0 0 0 0 1 0 0 0 0.25 0"/>
<feBlend mode="normal" in2="effect1_innerShadow_1230_304148" result="effect2_innerShadow_1230_304148"/>
</filter>
<filter id="filter4_di_1230_304148" x="4.3667" y="1.61121" width="76.6885" height="78.6845" filterUnits="userSpaceOnUse" color-interpolation-filters="sRGB">
<feFlood flood-opacity="0" result="BackgroundImageFix"/>
<feColorMatrix in="SourceAlpha" type="matrix" values="0 0 0 0 0 0 0 0 0 0 0 0 0 0 0 0 0 0 127 0" result="hardAlpha"/>
<feOffset dy="1.99573"/>
<feComposite in2="hardAlpha" operator="out"/>
<feColorMatrix type="matrix" values="0 0 0 0 0 0 0 0 0 0 0 0 0 0 0 0 0 0 0.25 0"/>
<feBlend mode="normal" in2="BackgroundImageFix" result="effect1_dropShadow_1230_304148"/>
<feBlend mode="normal" in="SourceGraphic" in2="effect1_dropShadow_1230_304148" result="shape"/>
<feColorMatrix in="SourceAlpha" type="matrix" values="0 0 0 0 0 0 0 0 0 0 0 0 0 0 0 0 0 0 127 0" result="hardAlpha"/>
<feOffset dx="0.928247" dy="-7.42598"/>
<feComposite in2="hardAlpha" operator="arithmetic" k2="-1" k3="1"/>
<feColorMatrix type="matrix" values="0 0 0 0 0 0 0 0 0 0 0 0 0 0 0 0 0 0 0.25 0"/>
<feBlend mode="normal" in2="shape" result="effect2_innerShadow_1230_304148"/>
</filter>
<filter id="filter5_dii_1230_304148" x="11.4844" y="16.3959" width="66.8771" height="55.9133" filterUnits="userSpaceOnUse" color-interpolation-filters="sRGB">
<feFlood flood-opacity="0" result="BackgroundImageFix"/>
<feColorMatrix in="SourceAlpha" type="matrix" values="0 0 0 0 0 0 0 0 0 0 0 0 0 0 0 0 0 0 127 0" result="hardAlpha"/>
<feOffset dy="1.28117"/>
<feComposite in2="hardAlpha" operator="out"/>
<feColorMatrix type="matrix" values="0 0 0 0 0 0 0 0 0 0 0 0 0 0 0 0 0 0 0.25 0"/>
<feBlend mode="normal" in2="BackgroundImageFix" result="effect1_dropShadow_1230_304148"/>
<feBlend mode="normal" in="SourceGraphic" in2="effect1_dropShadow_1230_304148" result="shape"/>
<feColorMatrix in="SourceAlpha" type="matrix" values="0 0 0 0 0 0 0 0 0 0 0 0 0 0 0 0 0 0 127 0" result="hardAlpha"/>
<feOffset dx="3.84351" dy="-1.28117"/>
<feGaussianBlur stdDeviation="1.28117"/>
<feComposite in2="hardAlpha" operator="arithmetic" k2="-1" k3="1"/>
<feColorMatrix type="matrix" values="0 0 0 0 0 0 0 0 0 0 0 0 0 0 0 0 0 0 0.25 0"/>
<feBlend mode="normal" in2="shape" result="effect2_innerShadow_1230_304148"/>
<feColorMatrix in="SourceAlpha" type="matrix" values="0 0 0 0 0 0 0 0 0 0 0 0 0 0 0 0 0 0 127 0" result="hardAlpha"/>
<feOffset dx="5.12467" dy="-2.56234"/>
<feGaussianBlur stdDeviation="3.20292"/>
<feComposite in2="hardAlpha" operator="arithmetic" k2="-1" k3="1"/>
<feColorMatrix type="matrix" values="0 0 0 0 0 0 0 0 0 0 0 0 0 0 0 0 0 0 0.25 0"/>
<feBlend mode="normal" in2="effect2_innerShadow_1230_304148" result="effect3_innerShadow_1230_304148"/>
</filter>
<filter id="filter6_iiii_1230_304148" x="1.98349" y="-12.7266" width="82.4344" height="83.5735" filterUnits="userSpaceOnUse" color-interpolation-filters="sRGB">
<feFlood flood-opacity="0" result="BackgroundImageFix"/>
<feBlend mode="normal" in="SourceGraphic" in2="BackgroundImageFix" result="shape"/>
<feColorMatrix in="SourceAlpha" type="matrix" values="0 0 0 0 0 0 0 0 0 0 0 0 0 0 0 0 0 0 127 0" result="hardAlpha"/>
<feOffset dx="5.87384" dy="-4.89486"/>
<feGaussianBlur stdDeviation="1.95795"/>
<feComposite in2="hardAlpha" operator="arithmetic" k2="-1" k3="1"/>
<feColorMatrix type="matrix" values="0 0 0 0 0 0 0 0 0 0 0 0 0 0 0 0 0 0 0.16 0"/>
<feBlend mode="normal" in2="shape" result="effect1_innerShadow_1230_304148"/>
<feColorMatrix in="SourceAlpha" type="matrix" values="0 0 0 0 0 0 0 0 0 0 0 0 0 0 0 0 0 0 127 0" result="hardAlpha"/>
<feOffset dx="2.93692" dy="-4.89486"/>
<feComposite in2="hardAlpha" operator="arithmetic" k2="-1" k3="1"/>
<feColorMatrix type="matrix" values="0 0 0 0 0 0 0 0 0 0 0 0 0 0 0 0 0 0 0.1 0"/>
<feBlend mode="normal" in2="effect1_innerShadow_1230_304148" result="effect2_innerShadow_1230_304148"/>
<feColorMatrix in="SourceAlpha" type="matrix" values="0 0 0 0 0 0 0 0 0 0 0 0 0 0 0 0 0 0 127 0" result="hardAlpha"/>
<feOffset dx="-2.93692" dy="1.95795"/>
<feGaussianBlur stdDeviation="2.93692"/>
<feComposite in2="hardAlpha" operator="arithmetic" k2="-1" k3="1"/>
<feColorMatrix type="matrix" values="0 0 0 0 1 0 0 0 0 1 0 0 0 0 1 0 0 0 0.25 0"/>
<feBlend mode="normal" in2="effect2_innerShadow_1230_304148" result="effect3_innerShadow_1230_304148"/>
<feColorMatrix in="SourceAlpha" type="matrix" values="0 0 0 0 0 0 0 0 0 0 0 0 0 0 0 0 0 0 127 0" result="hardAlpha"/>
<feOffset dx="3.91589" dy="-12.7266"/>
<feGaussianBlur stdDeviation="10.7687"/>
<feComposite in2="hardAlpha" operator="arithmetic" k2="-1" k3="1"/>
<feColorMatrix type="matrix" values="0 0 0 0 0 0 0 0 0 0 0 0 0 0 0 0 0 0 0.25 0"/>
<feBlend mode="normal" in2="effect3_innerShadow_1230_304148" result="effect4_innerShadow_1230_304148"/>
</filter>
<filter id="filter7_d_1230_304148" x="11.103" y="5.22192" width="63.0264" height="48.3556" filterUnits="userSpaceOnUse" color-interpolation-filters="sRGB">
<feFlood flood-opacity="0" result="BackgroundImageFix"/>
<feColorMatrix in="SourceAlpha" type="matrix" values="0 0 0 0 0 0 0 0 0 0 0 0 0 0 0 0 0 0 127 0" result="hardAlpha"/>
<feOffset dy="0.978973"/>
<feComposite in2="hardAlpha" operator="out"/>
<feColorMatrix type="matrix" values="0 0 0 0 0 0 0 0 0 0 0 0 0 0 0 0 0 0 0.25 0"/>
<feBlend mode="normal" in2="BackgroundImageFix" result="effect1_dropShadow_1230_304148"/>
<feBlend mode="normal" in="SourceGraphic" in2="effect1_dropShadow_1230_304148" result="shape"/>
</filter>
</defs>
</svg>
