<svg width="112" height="173" viewBox="0 0 112 173" fill="none" xmlns="http://www.w3.org/2000/svg">
<ellipse cx="56" cy="117.246" rx="56" ry="55.7549" fill="black" fill-opacity="0.12"/>
<ellipse cx="56.0002" cy="117.246" rx="44.8" ry="44.6039" fill="black" fill-opacity="0.2"/>
<g filter="url(#filter0_ii_1230_304178)">
<ellipse cx="55.9998" cy="117.246" rx="43.2" ry="43.0109" fill="#82644D"/>
</g>
<ellipse cx="55.9998" cy="114.06" rx="43.2" ry="43.0109" fill="#9A7858"/>
<g filter="url(#filter1_ii_1230_304178)">
<path d="M63.2002 79.1629C63.2002 75.6437 60.3473 72.7909 56.8282 72.7909H55.1722C51.653 72.7909 48.8002 75.6437 48.8002 79.1629L48.8002 110.046C48.8002 114.023 52.0238 117.246 56.0002 117.246C59.9766 117.246 63.2002 114.023 63.2002 110.046L63.2002 79.1629Z" fill="#82644D"/>
</g>
<g filter="url(#filter2_ii_1230_304178)">
<ellipse cx="56" cy="85.5348" rx="56" ry="55.7549" fill="#82644D"/>
</g>
<g filter="url(#filter3_i_1230_304178)">
<ellipse cx="56" cy="80.7558" rx="56" ry="55.7549" fill="#C8A078"/>
</g>
<ellipse cx="56" cy="80.0033" rx="54" ry="54.0022" fill="black" fill-opacity="0.12"/>
<g filter="url(#filter4_d_1230_304178)">
<g filter="url(#filter5_i_1230_304178)">
<rect x="56.2998" y="54.8064" width="48.6502" height="23.5527" fill="#FDBA74"/>
</g>
<g filter="url(#filter6_i_1230_304178)">
<path fill-rule="evenodd" clip-rule="evenodd" d="M96.5176 108.31L97.1651 81.4379L56.9997 55.0021L93.5975 54.902C84.6138 45.1278 71.0943 38.9083 55.9746 38.9083C37.5143 38.9083 21.4396 48.1795 13.0931 61.8723H7.00007V83.2887L7 83.364L7.00007 83.4392V83.6585H7.00105C7.17556 108.075 29.0349 127.82 55.9746 127.82C72.8364 127.82 87.7079 120.084 96.5176 108.31Z" fill="#FED7AA"/>
</g>
<rect x="56.2998" y="61.8722" width="48.6502" height="1.76638" fill="#FFEDD5"/>
<rect x="56.2998" y="70.1156" width="48.6502" height="1.76638" fill="#FFEDD5"/>
<g filter="url(#filter7_ii_1230_304178)">
<path fill-rule="evenodd" clip-rule="evenodd" d="M104.869 54.8908L56.9991 55.0021L97.2508 81.3929C88.548 93.7326 73.3136 101.912 55.9746 101.912C28.9267 101.912 7 82.0083 7 57.4561C7 32.9039 28.9267 13.0005 55.9746 13.0005C82.0739 13.0005 103.405 31.5324 104.869 54.8908Z" fill="#FFEDD5"/>
</g>
</g>
<path d="M44.5193 72.2496C44.6077 72.1279 44.7892 72.1279 44.8775 72.2496L44.8846 72.2593C44.9129 72.2984 44.955 72.3252 45.0023 72.3345L45.0449 72.3429C45.1784 72.369 45.2273 72.5344 45.1296 72.6289C45.0925 72.6647 45.074 72.7154 45.0791 72.7666L45.0797 72.7726C45.0929 72.9042 44.965 73.0049 44.8402 72.9611L44.7732 72.9376C44.7248 72.9206 44.6721 72.9206 44.6237 72.9376L44.5566 72.9611C44.4319 73.0049 44.3039 72.9042 44.3172 72.7726L44.3178 72.7666C44.3229 72.7154 44.3043 72.6647 44.2673 72.6289C44.1696 72.5344 44.2185 72.369 44.3519 72.3429L44.3945 72.3345C44.4419 72.3252 44.484 72.2984 44.5123 72.2593L44.5193 72.2496Z" fill="#FED7AA"/>
<path d="M87.5193 36.2482C87.6077 36.1264 87.7892 36.1264 87.8775 36.2482L87.8846 36.2579C87.9129 36.2969 87.955 36.3238 88.0023 36.3331L88.0449 36.3414C88.1784 36.3675 88.2273 36.5329 88.1296 36.6274C88.0925 36.6632 88.074 36.7139 88.0791 36.7652L88.0797 36.7711C88.0929 36.9027 87.965 37.0034 87.8402 36.9596L87.7732 36.9361C87.7248 36.9192 87.6721 36.9192 87.6237 36.9361L87.5566 36.9596C87.4319 37.0034 87.3039 36.9027 87.3172 36.7711L87.3178 36.7652C87.3229 36.7139 87.3043 36.6632 87.2673 36.6274C87.1696 36.5329 87.2185 36.3675 87.3519 36.3414L87.3945 36.3331C87.4419 36.3238 87.484 36.2969 87.5123 36.2579L87.5193 36.2482Z" fill="#FDBA74"/>
<path d="M68.5193 46.2485C68.6077 46.1268 68.7892 46.1268 68.8775 46.2485L68.8846 46.2582C68.9129 46.2973 68.955 46.3241 69.0023 46.3334L69.0449 46.3418C69.1784 46.3679 69.2273 46.5333 69.1296 46.6278C69.0925 46.6636 69.074 46.7143 69.0791 46.7655L69.0797 46.7715C69.0929 46.9031 68.965 47.0038 68.8402 46.96L68.7732 46.9365C68.7248 46.9195 68.6721 46.9195 68.6237 46.9365L68.5566 46.96C68.4319 47.0038 68.3039 46.9031 68.3172 46.7715L68.3178 46.7655C68.3229 46.7143 68.3043 46.6636 68.2673 46.6278C68.1696 46.5333 68.2185 46.3679 68.3519 46.3418L68.3945 46.3334C68.4419 46.3241 68.484 46.2973 68.5123 46.2582L68.5193 46.2485Z" fill="#FED7AA"/>
<path d="M32.5193 77.2499C32.6077 77.1282 32.7892 77.1282 32.8775 77.2499L32.8846 77.2596C32.9129 77.2986 32.955 77.3255 33.0023 77.3348L33.0449 77.3431C33.1784 77.3692 33.2273 77.5346 33.1296 77.6291C33.0925 77.6649 33.074 77.7157 33.0791 77.7669L33.0797 77.7729C33.0929 77.9044 32.965 78.0051 32.8402 77.9614L32.7732 77.9378C32.7248 77.9209 32.6721 77.9209 32.6237 77.9378L32.5566 77.9614C32.4319 78.0051 32.3039 77.9044 32.3172 77.7729L32.3178 77.7669C32.3229 77.7157 32.3043 77.6649 32.2673 77.6291C32.1696 77.5346 32.2185 77.3692 32.3519 77.3431L32.3945 77.3348C32.4419 77.3255 32.484 77.2986 32.5123 77.2596L32.5193 77.2499Z" fill="#FDBA74"/>
<path d="M37.0372 73.4964C37.214 73.2529 37.5769 73.2529 37.7536 73.4964L37.7677 73.5157C37.8244 73.5938 37.9085 73.6476 38.0032 73.6661L38.0884 73.6828C38.3553 73.735 38.4531 74.0658 38.2576 74.2548C38.1836 74.3264 38.1465 74.4279 38.1568 74.5303L38.158 74.5423C38.1844 74.8054 37.9285 75.0068 37.679 74.9193L37.5449 74.8723C37.4481 74.8383 37.3427 74.8383 37.2459 74.8723L37.1118 74.9193C36.8623 75.0068 36.6064 74.8054 36.6328 74.5423L36.634 74.5303C36.6443 74.4279 36.6072 74.3264 36.5332 74.2548C36.3377 74.0658 36.4355 73.735 36.7024 73.6828L36.7876 73.6661C36.8823 73.6476 36.9665 73.5938 37.0231 73.5157L37.0372 73.4964Z" fill="#FED7AA"/>
<path d="M74.0372 24.4944C74.214 24.2509 74.5769 24.2509 74.7536 24.4944L74.7677 24.5138C74.8244 24.5919 74.9085 24.6456 75.0032 24.6642L75.0884 24.6808C75.3553 24.7331 75.4531 25.0639 75.2576 25.2529C75.1836 25.3244 75.1465 25.4259 75.1568 25.5284L75.158 25.5403C75.1844 25.8034 74.9285 26.0048 74.679 25.9173L74.5449 25.8703C74.4481 25.8364 74.3427 25.8364 74.2459 25.8703L74.1118 25.9173C73.8623 26.0048 73.6064 25.8034 73.6328 25.5403L73.634 25.5284C73.6443 25.4259 73.6072 25.3244 73.5332 25.2529C73.3377 25.0639 73.4355 24.7331 73.7024 24.6808L73.7876 24.6642C73.8823 24.6456 73.9665 24.5919 74.0231 24.5138L74.0372 24.4944Z" fill="#FED7AA"/>
<path d="M75.0372 32.4948C75.214 32.2513 75.5769 32.2513 75.7536 32.4948L75.7677 32.5142C75.8244 32.5923 75.9085 32.646 76.0032 32.6645L76.0884 32.6812C76.3553 32.7335 76.4531 33.0642 76.2576 33.2532C76.1836 33.3248 76.1465 33.4263 76.1568 33.5287L76.158 33.5407C76.1844 33.8038 75.9285 34.0052 75.679 33.9177L75.5449 33.8707C75.4481 33.8367 75.3427 33.8367 75.2459 33.8707L75.1118 33.9177C74.8623 34.0052 74.6064 33.8038 74.6328 33.5407L74.634 33.5287C74.6443 33.4263 74.6072 33.3248 74.5332 33.2532C74.3377 33.0642 74.4355 32.7335 74.7024 32.6812L74.7876 32.6645C74.8823 32.646 74.9665 32.5923 75.0231 32.5142L75.0372 32.4948Z" fill="#FED7AA"/>
<path d="M39.1925 67.2205C39.1824 66.9451 39.5049 66.7705 39.8022 66.8905L39.8116 66.8943C39.9137 66.9356 40.0279 66.9416 40.1296 66.9111L40.1647 66.9006C40.4487 66.8155 40.7534 67.0349 40.7108 67.2937C40.6952 67.3885 40.7284 67.4881 40.801 67.5663C40.9971 67.7775 40.8824 68.0811 40.5862 68.1255L40.526 68.1345C40.4165 68.1509 40.321 68.2026 40.2584 68.2793L40.224 68.3215C40.0546 68.5291 39.6757 68.4927 39.5245 68.2571C39.4686 68.17 39.3732 68.104 39.2631 68.0773C38.9625 68.0042 38.8467 67.6825 39.0556 67.5009L39.0815 67.4784C39.1563 67.4133 39.1963 67.3238 39.1928 67.2292L39.1925 67.2205Z" fill="#FED7AA"/>
<path d="M89.1925 42.2195C89.1824 41.9441 89.5049 41.7695 89.8022 41.8896L89.8116 41.8934C89.9137 41.9346 90.0279 41.9406 90.1296 41.9102L90.1647 41.8996C90.4487 41.8145 90.7534 42.0339 90.7108 42.2927C90.6952 42.3876 90.7284 42.4872 90.801 42.5653C90.9971 42.7766 90.8824 43.0801 90.5862 43.1245L90.526 43.1335C90.4165 43.1499 90.321 43.2016 90.2584 43.2784L90.224 43.3205C90.0546 43.5282 89.6757 43.4917 89.5245 43.2561C89.4686 43.169 89.3732 43.1031 89.2631 43.0763C88.9625 43.0032 88.8467 42.6815 89.0556 42.4999L89.0815 42.4774C89.1563 42.4124 89.1963 42.3229 89.1928 42.2283L89.1925 42.2195Z" fill="#FED7AA"/>
<path d="M73.5703 39.8574C73.7262 39.6301 74.0893 39.682 74.2566 39.9555L74.2619 39.9641C74.3193 40.058 74.4075 40.1309 74.5073 40.167L74.5418 40.1795C74.8206 40.2802 74.9347 40.638 74.7463 40.8205C74.6773 40.8874 74.6447 40.9872 74.6564 41.0931C74.6881 41.3797 74.4152 41.5552 74.1508 41.4144L74.0971 41.3858C73.9994 41.3337 73.8918 41.3184 73.7958 41.3427L73.7431 41.3561C73.4834 41.422 73.2007 41.1671 73.2196 40.8878C73.2266 40.7845 73.1892 40.6747 73.1167 40.5876C72.9188 40.3499 73.0174 40.0225 73.2934 40.001L73.3276 39.9984C73.4264 39.9907 73.5118 39.9426 73.5654 39.8645L73.5703 39.8574Z" fill="#FDBA74"/>
<path d="M62.0291 70.4465C62.1777 70.3863 62.3391 70.4734 62.3342 70.6111L62.3341 70.6155C62.3324 70.6628 62.3524 70.7075 62.3899 70.74L62.4029 70.7513C62.5075 70.8419 62.4498 71.0028 62.2996 71.0395C62.2446 71.053 62.1969 71.086 62.169 71.1296C62.0936 71.2475 61.9042 71.266 61.8194 71.1623L61.8021 71.1411C61.7708 71.1028 61.723 71.077 61.6682 71.0688L61.6379 71.0643C61.4899 71.0423 61.4324 70.8906 61.5302 70.7849C61.5664 70.7458 61.583 70.696 61.5751 70.6486C61.5536 70.5192 61.7058 70.4093 61.8478 70.4517L61.8655 70.457C61.9163 70.4721 61.9734 70.4691 62.0244 70.4484L62.0291 70.4465Z" fill="#FED7AA"/>
<path d="M65.5193 46.2485C65.6077 46.1268 65.7892 46.1268 65.8775 46.2485L65.8846 46.2582C65.9129 46.2973 65.955 46.3241 66.0023 46.3334L66.0449 46.3418C66.1784 46.3679 66.2273 46.5333 66.1296 46.6278C66.0925 46.6636 66.074 46.7143 66.0791 46.7655L66.0797 46.7715C66.0929 46.9031 65.965 47.0038 65.8402 46.96L65.7732 46.9365C65.7248 46.9195 65.6721 46.9195 65.6237 46.9365L65.5566 46.96C65.4319 47.0038 65.3039 46.9031 65.3172 46.7715L65.3178 46.7655C65.3229 46.7143 65.3043 46.6636 65.2673 46.6278C65.1696 46.5333 65.2185 46.3679 65.3519 46.3418L65.3945 46.3334C65.4419 46.3241 65.484 46.2973 65.5123 46.2582L65.5193 46.2485Z" fill="#FED7AA"/>
<path opacity="0.6" d="M55.0372 80.4967C55.214 80.2533 55.5769 80.2533 55.7536 80.4967L55.7677 80.5161C55.8244 80.5942 55.9085 80.6479 56.0032 80.6665L56.0884 80.6832C56.3553 80.7354 56.4531 81.0662 56.2576 81.2552C56.1836 81.3267 56.1465 81.4283 56.1568 81.5307L56.158 81.5426C56.1844 81.8057 55.9285 82.0072 55.679 81.9197L55.5449 81.8726C55.4481 81.8387 55.3427 81.8387 55.2459 81.8726L55.1118 81.9197C54.8623 82.0072 54.6064 81.8057 54.6328 81.5426L54.634 81.5307C54.6443 81.4283 54.6072 81.3267 54.5332 81.2552C54.3377 81.0662 54.4355 80.7354 54.7024 80.6832L54.7876 80.6665C54.8823 80.6479 54.9665 80.5942 55.0231 80.5161L55.0372 80.4967Z" fill="#FDBA74"/>
<path opacity="0.6" d="M39.0372 84.4968C39.214 84.2534 39.5769 84.2534 39.7536 84.4968L39.7677 84.5162C39.8244 84.5943 39.9085 84.6481 40.0032 84.6666L40.0884 84.6833C40.3553 84.7355 40.4531 85.0663 40.2576 85.2553C40.1836 85.3269 40.1465 85.4284 40.1568 85.5308L40.158 85.5428C40.1844 85.8059 39.9285 86.0073 39.679 85.9198L39.5449 85.8727C39.4481 85.8388 39.3427 85.8388 39.2459 85.8727L39.1118 85.9198C38.8623 86.0073 38.6064 85.8059 38.6328 85.5428L38.634 85.5308C38.6443 85.4284 38.6072 85.3269 38.5332 85.2553C38.3377 85.0663 38.4355 84.7355 38.7024 84.6833L38.7876 84.6666C38.8823 84.6481 38.9665 84.5943 39.0231 84.5162L39.0372 84.4968Z" fill="#FB923C"/>
<path opacity="0.6" d="M79.0372 41.4951C79.214 41.2517 79.5769 41.2517 79.7536 41.4951L79.7677 41.5145C79.8244 41.5926 79.9085 41.6463 80.0032 41.6649L80.0884 41.6816C80.3553 41.7338 80.4531 42.0646 80.2576 42.2536C80.1836 42.3252 80.1465 42.4267 80.1568 42.5291L80.158 42.5411C80.1844 42.8042 79.9285 43.0056 79.679 42.9181L79.5449 42.871C79.4481 42.8371 79.3427 42.8371 79.2459 42.871L79.1118 42.9181C78.8623 43.0056 78.6064 42.8042 78.6328 42.5411L78.634 42.5291C78.6443 42.4267 78.6072 42.3252 78.5332 42.2536C78.3377 42.0646 78.4355 41.7338 78.7024 41.6816L78.7876 41.6649C78.8823 41.6463 78.9665 41.5926 79.0231 41.5145L79.0372 41.4951Z" fill="#FDBA74"/>
<path opacity="0.4" d="M49.0372 65.4961C49.214 65.2527 49.5769 65.2527 49.7536 65.4961L49.7677 65.5155C49.8244 65.5936 49.9085 65.6473 50.0032 65.6659L50.0884 65.6825C50.3553 65.7348 50.4531 66.0656 50.2576 66.2546C50.1836 66.3261 50.1465 66.4276 50.1568 66.5301L50.158 66.542C50.1844 66.8051 49.9285 67.0065 49.679 66.919L49.5449 66.872C49.4481 66.8381 49.3427 66.8381 49.2459 66.872L49.1118 66.919C48.8623 67.0065 48.6064 66.8051 48.6328 66.542L48.634 66.5301C48.6443 66.4276 48.6072 66.3261 48.5332 66.2546C48.3377 66.0656 48.4355 65.7348 48.7024 65.6825L48.7876 65.6659C48.8823 65.6473 48.9665 65.5936 49.0231 65.5155L49.0372 65.4961Z" fill="#FB923C"/>
<path opacity="0.4" d="M71.0372 35.4949C71.214 35.2514 71.5769 35.2514 71.7536 35.4949L71.7677 35.5143C71.8244 35.5924 71.9085 35.6461 72.0032 35.6646L72.0884 35.6813C72.3553 35.7336 72.4531 36.0644 72.2576 36.2534C72.1836 36.3249 72.1465 36.4264 72.1568 36.5289L72.158 36.5408C72.1844 36.8039 71.9285 37.0053 71.679 36.9178L71.5449 36.8708C71.4481 36.8369 71.3427 36.8369 71.2459 36.8708L71.1118 36.9178C70.8623 37.0053 70.6064 36.8039 70.6328 36.5408L70.634 36.5289C70.6443 36.4264 70.6072 36.3249 70.5332 36.2534C70.3377 36.0644 70.4355 35.7336 70.7024 35.6813L70.7876 35.6646C70.8823 35.6461 70.9665 35.5924 71.0231 35.5143L71.0372 35.4949Z" fill="#FFF7ED"/>
<path d="M48.9108 84.1154C48.7939 84.2102 48.6187 84.1632 48.5648 84.0227L48.5605 84.0116C48.5432 83.9665 48.5096 83.9297 48.4662 83.9084L48.4272 83.8894C48.3051 83.8296 48.3007 83.6572 48.4195 83.5912C48.4645 83.5662 48.4956 83.522 48.5039 83.4712L48.5049 83.4653C48.5261 83.3348 48.6758 83.2706 48.785 83.3452L48.8437 83.3852C48.886 83.4141 48.9369 83.4278 48.988 83.4239L49.0589 83.4186C49.1907 83.4086 49.2883 83.539 49.2414 83.6626L49.2393 83.6682C49.2211 83.7164 49.2259 83.7702 49.2524 83.8144C49.3223 83.9309 49.2323 84.078 49.0966 84.0687L49.0533 84.0658C49.0052 84.0625 48.9576 84.0775 48.9201 84.1079L48.9108 84.1154Z" fill="#FED7AA"/>
<path opacity="0.6" d="M59.098 77.2271C58.8642 77.4165 58.5137 77.3226 58.406 77.0417L58.3974 77.0193C58.3629 76.9292 58.2955 76.8555 58.2088 76.8131L58.1308 76.7749C57.8866 76.6554 57.8777 76.3106 58.1154 76.1786C58.2054 76.1286 58.2676 76.0402 58.2842 75.9386L58.2861 75.9267C58.3286 75.6658 58.6279 75.5374 58.8463 75.6865L58.9637 75.7667C59.0484 75.8245 59.1502 75.8518 59.2524 75.8441L59.3942 75.8333C59.6578 75.8134 59.8529 76.0742 59.7592 76.3215L59.755 76.3327C59.7185 76.429 59.7282 76.5367 59.7811 76.6249C59.921 76.8581 59.7409 77.1523 59.4696 77.1337L59.383 77.1277C59.2867 77.1211 59.1915 77.1513 59.1166 77.212L59.098 77.2271Z" fill="#FDBA74"/>
<path opacity="0.6" d="M75.5882 77.5046C75.3545 77.694 75.0039 77.6001 74.8962 77.3191L74.8876 77.2968C74.8531 77.2067 74.7857 77.133 74.699 77.0906L74.621 77.0524C74.3768 76.9329 74.3679 76.588 74.6056 76.4561C74.6957 76.4061 74.7578 76.3177 74.7744 76.2161L74.7763 76.2042C74.8189 75.9432 75.1182 75.8149 75.3365 75.964L75.4539 76.0442C75.5386 76.102 75.6404 76.1293 75.7427 76.1215L75.8844 76.1108C76.1481 76.0909 76.3431 76.3517 76.2495 76.5989L76.2452 76.6102C76.2088 76.7065 76.2184 76.8141 76.2714 76.9024C76.4112 77.1356 76.2311 77.4297 75.9599 77.4112L75.8733 77.4052C75.777 77.3986 75.6818 77.4287 75.6068 77.4895L75.5882 77.5046Z" fill="#FB923C"/>
<path opacity="0.6" d="M20.8216 71.2269C20.5879 71.4163 20.2373 71.3224 20.1296 71.0414L20.121 71.0191C20.0865 70.929 20.0191 70.8553 19.9324 70.8129L19.8544 70.7747C19.6102 70.6552 19.6013 70.3103 19.839 70.1784C19.929 70.1284 19.9912 70.04 20.0078 69.9383L20.0097 69.9265C20.0523 69.6655 20.3516 69.5372 20.5699 69.6863L20.6873 69.7664C20.772 69.8243 20.8738 69.8516 20.9761 69.8438L21.1178 69.8331C21.3815 69.8132 21.5765 70.074 21.4829 70.3212L21.4786 70.3325C21.4422 70.4288 21.4518 70.5364 21.5048 70.6247C21.6446 70.8579 21.4645 71.152 21.1933 71.1334L21.1067 71.1275C21.0104 71.1209 20.9152 71.151 20.8402 71.2118L20.8216 71.2269Z" fill="#FDBA74"/>
<path opacity="0.4" d="M61.012 93.2696C60.7783 93.459 60.4278 93.3651 60.32 93.0842L60.3115 93.0618C60.2769 92.9717 60.2095 92.898 60.1228 92.8556L60.0449 92.8174C59.8007 92.6979 59.7917 92.3531 60.0295 92.2211C60.1195 92.1711 60.1817 92.0827 60.1982 91.9811L60.2002 91.9692C60.2427 91.7082 60.542 91.5799 60.7604 91.729L60.8778 91.8092C60.9624 91.867 61.0643 91.8943 61.1665 91.8865L61.3082 91.8758C61.5719 91.8559 61.7669 92.1167 61.6733 92.364L61.669 92.3752C61.6326 92.4715 61.6422 92.5791 61.6952 92.6674C61.8351 92.9006 61.655 93.1948 61.3837 93.1762L61.2971 93.1702C61.2008 93.1636 61.1056 93.1937 61.0306 93.2545L61.012 93.2696Z" fill="#FB923C"/>
<path opacity="0.4" d="M83.8221 27.2249C83.5883 27.4143 83.2378 27.3204 83.1301 27.0395L83.1215 27.0171C83.087 26.927 83.0196 26.8534 82.9329 26.8109L82.8549 26.7728C82.6107 26.6532 82.6018 26.3084 82.8395 26.1764C82.9295 26.1265 82.9917 26.038 83.0083 25.9364L83.0102 25.9246C83.0528 25.6636 83.3521 25.5353 83.5704 25.6844L83.6878 25.7645C83.7725 25.8223 83.8743 25.8496 83.9766 25.8419L84.1183 25.8312C84.382 25.8112 84.577 26.072 84.4834 26.3193L84.4791 26.3305C84.4427 26.4268 84.4523 26.5345 84.5053 26.6228C84.6451 26.8559 84.465 27.1501 84.1938 27.1315L84.1071 27.1256C84.0109 27.119 83.9157 27.1491 83.8407 27.2098L83.8221 27.2249Z" fill="#FFF7ED"/>
<g filter="url(#filter8_f_1230_304178)">
<ellipse cx="28.999" cy="15.4846" rx="28.999" ry="15.4846" transform="matrix(0.93335 -0.358967 0.358942 0.93336 5.64258 36.6775)" fill="black" fill-opacity="0.12"/>
</g>
<g filter="url(#filter9_i_1230_304178)">
<g filter="url(#filter10_di_1230_304178)">
<path d="M33.6271 43.161C28.6887 33.6441 31.8611 21.3562 41.3933 16.4096C50.9255 11.4629 61.9537 16.394 66.8921 25.911C66.8921 25.911 60.4189 29.2576 50.8867 34.2043C41.3545 39.1509 33.6271 43.161 33.6271 43.161Z" fill="#F97316"/>
<path d="M35.3379 42.288C30.816 33.5738 33.5668 22.6384 42.2809 18.1162C50.995 13.5941 62.3727 17.1976 66.8945 25.9119C66.8945 25.9119 59.8303 29.5778 51.1162 34.1C42.4021 38.6221 35.3379 42.288 35.3379 42.288Z" fill="#FB923C"/>
</g>
<path d="M50.2446 33.4673L39.7667 24.0877C38.7191 23.15 38.9406 21.4525 40.1937 20.8149L45.8955 17.9138C47.1463 17.2773 48.6465 18.0935 48.7916 19.4895L50.2446 33.4673Z" fill="#FDBA74"/>
<path d="M49.6216 34.4271L35.5673 34.9149C34.1621 34.9637 33.1466 33.5856 33.6093 32.2579L35.7145 26.2167C36.1764 24.8914 37.824 24.4415 38.8952 25.3482L49.6216 34.4271Z" fill="#FDBA74"/>
<path d="M51.0601 33.2304L50.171 19.1953C50.0821 17.7921 51.4305 16.7377 52.7708 17.1622L58.8696 19.0938C60.2075 19.5175 60.7043 21.1516 59.8286 22.2483L51.0601 33.2304Z" fill="#FDBA74"/>
<path d="M51.7422 33.2294L61.7063 22.9508C62.7268 21.898 64.4957 22.2648 65.0134 23.6366L65.3917 24.639C65.7578 25.6091 65.3218 26.6982 64.3873 27.1476L51.7422 33.2294Z" fill="#FDBA74"/>
<path d="M49.2876 35.0291L36.1999 36.3127C34.7207 36.4577 33.9109 38.1083 34.7014 39.3669L35.2258 40.2018C35.7778 41.0808 36.9106 41.3913 37.8337 40.9168L49.2876 35.0291Z" fill="#FDBA74"/>
</g>
<g filter="url(#filter11_i_1230_304178)">
<g filter="url(#filter12_di_1230_304178)">
<path d="M16.1981 57.5128C9.34402 49.267 9.82383 36.5847 18.0826 29.7192C26.3414 22.8538 38.1679 25.3206 45.022 33.5664C45.022 33.5664 39.4108 38.2163 31.152 45.0817C22.8932 51.9472 16.1981 57.5128 16.1981 57.5128Z" fill="#F97316"/>
<path d="M17.6834 56.295C11.4074 48.7447 11.7636 37.4737 19.3136 31.1974C26.8636 24.9212 38.7484 26.0163 45.0244 33.5667C45.0244 33.5667 38.9039 38.6546 31.3539 44.9308C23.8039 51.2071 17.6834 56.295 17.6834 56.295Z" fill="#FB923C"/>
</g>
<path d="M30.3674 44.4986L18.1301 37.5679C16.9067 36.8751 16.7612 35.1695 17.8496 34.2794L22.8022 30.229C23.8886 29.3405 25.5283 29.8181 25.9677 31.1511L30.3674 44.4986Z" fill="#FDBA74"/>
<path d="M29.9632 45.5692L16.3353 49.0422C14.9729 49.3895 13.6869 48.2596 13.8559 46.8638L14.6248 40.512C14.7935 39.1187 16.3073 38.3279 17.5472 38.9855L29.9632 45.5692Z" fill="#FDBA74"/>
<path d="M31.1138 44.0933L27.2528 30.5695C26.8668 29.2176 27.9594 27.8999 29.3594 28.0289L35.7303 28.616C37.1278 28.7448 37.9616 30.2353 37.3398 31.4936L31.1138 44.0933Z" fill="#FDBA74"/>
<path d="M31.7803 43.9468L39.3243 31.7795C40.097 30.5334 41.9034 30.5147 42.7016 31.7446L43.2851 32.6435C43.8496 33.5133 43.6558 34.6703 42.8386 35.3086L31.7803 43.9468Z" fill="#FDBA74"/>
<path d="M29.7651 46.2286L17.2513 50.2731C15.8371 50.7302 15.3978 52.5155 16.4384 53.5767L17.1289 54.2808C17.8557 55.0219 19.0286 55.0838 19.8293 54.4234L29.7651 46.2286Z" fill="#FDBA74"/>
</g>
<path d="M20.9257 52.2414C19.9995 53.1676 19.1931 54.4395 18.0402 55.107C16.9828 55.7192 16.2622 56.2199 15.0194 55.9437C14.9824 55.9354 11.7833 57.5502 11.6579 57.8324C9.20078 63.3611 14.1962 63.074 17.2737 60.192C19.2883 58.3054 21.5472 56.6913 23.691 54.9567C26.103 53.0052 28.5017 50.85 31.1253 49.1804C32.3456 48.4038 33.7064 47.8519 34.9427 47.0913C35.8485 46.534 36.7254 45.9663 37.728 45.5933C38.3997 45.3435 39.1383 45.2612 39.6918 44.7567C40.8427 43.7077 41.6254 41.7544 41.4803 40.1577C41.3654 38.8943 40.5495 37.0015 39.0556 37.0015C37.4566 37.0015 34.7068 41.2887 32.9217 42.7784C32.6192 43.0309 32.143 43.2742 32.1582 43.6679C29.6541 45.061 28.2999 45.7702 24.3874 48.4139C22.9509 49.3845 22.1452 51.0219 20.9257 52.2414Z" fill="#FFEDD5"/>
<g filter="url(#filter13_i_1230_304178)">
<g filter="url(#filter14_di_1230_304178)">
<path d="M23.6783 62.3972C17.7776 54.639 18.712 43.1398 26.4825 37.2294C34.253 31.3189 44.8967 34.0243 50.7974 41.7826C50.7974 41.7826 45.5185 45.785 37.748 51.6954C29.9775 57.6059 23.6783 62.3972 23.6783 62.3972Z" fill="#F97316"/>
<path d="M25.0748 61.3497C19.6718 54.2458 20.4384 44.0235 27.542 38.6203C34.6457 33.2171 45.3963 34.679 50.7993 41.783C50.7993 41.783 45.0407 46.1631 37.9371 51.5663C30.8334 56.9695 25.0748 61.3497 25.0748 61.3497Z" fill="#FB923C"/>
</g>
<path d="M37.0578 51.1351L26.4417 44.5003C25.2494 43.7552 25.1778 42.0449 26.3036 41.2027L30.536 38.0367C31.6598 37.196 33.2774 37.7441 33.6587 39.0948L37.0578 51.1351Z" fill="#FDBA74"/>
<path d="M36.6491 52.0915L24.3959 54.6554C23.0197 54.9434 21.7838 53.7589 22.013 52.3718L22.8746 47.1568C23.1034 45.7721 24.65 45.0475 25.8603 45.758L36.6491 52.0915Z" fill="#FDBA74"/>
<path d="M37.752 50.7962L34.8389 38.6206C34.5117 37.2532 35.6603 35.984 37.0535 36.1735L42.2907 36.8856C43.6813 37.0747 44.4498 38.6 43.7743 39.8301L37.752 50.7962Z" fill="#FDBA74"/>
<path d="M38.3628 50.6895L45.5311 40.1727C46.3569 38.9612 48.1625 39.0207 48.9068 40.2839L49.1712 40.7326C49.6975 41.626 49.4539 42.7735 48.6099 43.3759L38.3628 50.6895Z" fill="#FDBA74"/>
<path d="M36.4434 52.6825L25.2029 55.7854C23.7702 56.1809 23.2542 57.9455 24.2479 59.0507L24.5391 59.3745C25.2331 60.1463 26.4022 60.2589 27.2308 59.6337L36.4434 52.6825Z" fill="#FDBA74"/>
</g>
<g filter="url(#filter15_di_1230_304178)">
<g filter="url(#filter16_ii_1230_304178)">
<path d="M35.8447 55.6255C32.4861 59.1647 26.9379 59.6159 23.1392 56.6587L19.292 53.6638C19.1819 53.5781 19.1683 53.4192 19.262 53.3134L20.0706 52.4003C24.2465 47.6851 31.3315 46.715 36.5372 50.1456C37.9976 51.108 38.216 53.1268 36.9986 54.4097L35.8447 55.6255Z" fill="#7AB87B"/>
</g>
<path d="M22.3764 53.3981L38.527 52.7834C38.9844 52.766 39.2742 52.1901 38.8269 52.1016C38.6095 52.0586 38.3238 52.0901 37.9392 52.2511L22.3764 53.3981Z" fill="black" fill-opacity="0.12"/>
<g filter="url(#filter17_di_1230_304178)">
<g filter="url(#filter18_ii_1230_304178)">
<path d="M38.2873 58.3565C38.178 63.2345 34.3723 67.297 29.572 67.6596L24.7105 68.0268C24.5713 68.0373 24.4544 67.9287 24.4527 67.7874L24.4381 66.5679C24.3625 60.2696 28.9576 54.7901 35.118 53.8327C36.8462 53.5641 38.3644 54.9125 38.3248 56.6806L38.2873 58.3565Z" fill="#61A560"/>
</g>
<g filter="url(#filter19_f_1230_304178)">
<path d="M36.6935 59.1061C36.3348 60.7867 35.2025 62.2093 33.6538 62.9255L26.5169 66.2259L27.9373 62.3616C28.9148 59.7022 30.9073 57.5332 33.4554 56.3547C35.2325 55.5327 37.1284 57.0691 36.7167 58.9976L36.6935 59.1061Z" fill="black" fill-opacity="0.12"/>
</g>
<g filter="url(#filter20_d_1230_304178)">
<path d="M26.8167 65.7577L38.3647 54.4494C38.6916 54.1291 38.5193 53.5079 38.1286 53.7429C37.9387 53.8571 37.7483 54.0725 37.5716 54.4501L26.8167 65.7577Z" fill="#579858"/>
</g>
<path d="M26.8167 65.7577L38.3647 54.4494C38.6916 54.1291 38.5193 53.5079 38.1286 53.7429C37.9387 53.8571 37.7483 54.0725 37.5716 54.4501L26.8167 65.7577Z" fill="black" fill-opacity="0.12"/>
</g>
</g>
<g filter="url(#filter21_ii_1230_304178)">
<path d="M59.0266 24.4556C62.4489 23.0008 64.1837 19.083 62.9423 15.613L61.1081 10.4864C56.1871 12.4245 53.4917 17.8612 54.9483 22.9109L55.055 23.2809C55.4499 24.65 56.9301 25.3468 58.2508 24.7854L59.0266 24.4556Z" fill="#61A560"/>
</g>
<path d="M60.3534 13.0083L56.5323 25.5417C56.4468 25.8219 56.0535 25.9255 55.999 25.6398C55.9621 25.4468 56.0133 25.201 56.2471 24.8785C56.2726 24.8433 56.2937 24.8048 56.3078 24.7639L60.3534 13.0083Z" fill="#579858"/>
<path d="M60.3534 13.0083L56.5323 25.5417C56.4468 25.8219 56.0535 25.9255 55.999 25.6398C55.9601 25.4364 56.0191 25.1744 56.2865 24.8256L60.3534 13.0083Z" fill="black" fill-opacity="0.2"/>
<g filter="url(#filter22_ii_1230_304178)">
<path d="M59.3801 22.8916C60.5198 18.7755 65.0072 16.4626 68.9753 17.9462L71.3551 18.8359C71.5723 18.9171 71.6386 19.1878 71.4853 19.3676L69.0791 22.1908C67.297 24.2816 64.899 25.7693 62.2388 26.4344C60.3701 26.9015 58.7288 25.2435 59.2384 23.4033L59.3801 22.8916Z" fill="#7AB87B"/>
</g>
<path d="M59.5462 25.6567C59.2242 25.9971 58.9495 26.2993 58.9495 26.2993L59.9461 25.1497C61.716 23.1081 63.9697 21.5277 66.5094 20.5473L67.8339 20.0359L64.4962 21.8113C63.4322 22.3773 62.4368 23.0596 61.5287 23.8455C60.8532 24.4302 60.1591 25.0088 59.5462 25.6567Z" fill="black" fill-opacity="0.12"/>
<g filter="url(#filter23_i_1230_304178)">
<g filter="url(#filter24_di_1230_304178)">
<path d="M46.3189 51.7618C40.4182 44.0036 41.3526 32.5045 49.1231 26.594C56.8936 20.6836 67.5373 23.389 73.438 31.1472C73.438 31.1472 68.1591 35.1496 60.3886 41.06C52.6181 46.9705 46.3189 51.7618 46.3189 51.7618Z" fill="#F97316"/>
<path d="M47.7154 50.7143C42.3124 43.6104 43.079 33.3882 50.1827 27.985C57.2863 22.5817 68.037 24.0437 73.4399 31.1476C73.4399 31.1476 67.6813 35.5277 60.5777 40.931C53.4741 46.3342 47.7154 50.7143 47.7154 50.7143Z" fill="#FB923C"/>
</g>
<path d="M59.6984 40.4997L49.0823 33.865C47.89 33.1198 47.8184 31.4095 48.9443 30.5673L53.1766 27.4013C54.3004 26.5606 55.918 27.1087 56.2993 28.4594L59.6984 40.4997Z" fill="#FDBA74"/>
<path d="M59.2898 41.4561L47.0365 44.02C45.6603 44.308 44.4244 43.1236 44.6536 41.7364L45.5152 36.5214C45.744 35.1367 47.2906 34.4121 48.5009 35.1227L59.2898 41.4561Z" fill="#FDBA74"/>
<path d="M60.3926 40.1608L57.4795 27.9852C57.1524 26.6178 58.301 25.3486 59.6941 25.5381L64.9313 26.2503C66.322 26.4394 67.0905 27.9646 66.4149 29.1948L60.3926 40.1608Z" fill="#FDBA74"/>
<path d="M61.0034 40.0541L68.1718 29.5374C68.9976 28.3258 70.8031 28.3853 71.5474 29.6485L71.8118 30.0973C72.3382 30.9906 72.0945 32.1382 71.2505 32.7405L61.0034 40.0541Z" fill="#FDBA74"/>
<path d="M59.084 42.0471L47.8435 45.15C46.4109 45.5455 45.8948 47.3101 46.8885 48.4153L47.1797 48.7391C47.8737 49.5109 49.0428 49.6235 49.8714 48.9983L59.084 42.0471Z" fill="#FDBA74"/>
</g>
<path d="M54.9267 44.2411C54.0005 45.1674 53.1941 46.4392 52.0412 47.1068C50.9837 47.719 50.2632 48.2196 49.0203 47.9434C48.9834 47.9352 45.7843 49.55 45.6589 49.8321C43.2018 55.3609 48.1971 55.0737 51.2747 52.1918C53.2893 50.3052 55.5482 48.6911 57.692 46.9565C60.1039 45.005 62.5027 42.8498 65.1263 41.1801C66.3465 40.4036 67.7074 39.8516 68.9437 39.091C69.8495 38.5338 70.7264 37.966 71.729 37.5931C72.4006 37.3433 73.1393 37.261 73.6928 36.7564C74.8436 35.7074 75.6264 33.7541 75.4812 32.1574C75.3664 30.8941 74.5505 29.0012 73.0566 29.0012C71.4576 29.0012 68.7078 33.2884 66.9227 34.7782C66.6202 35.0306 66.1439 35.2739 66.1592 35.6676C63.655 37.0608 62.3009 37.7699 58.3884 40.4136C56.9519 41.3843 56.1462 43.0216 54.9267 44.2411Z" fill="#FFEDD5"/>
<path d="M54.9267 44.2411C54.0005 45.1674 53.1941 46.4392 52.0412 47.1068C50.9837 47.719 50.2632 48.2196 49.0203 47.9434C48.9834 47.9352 45.7843 49.55 45.6589 49.8321C43.2018 55.3609 48.1971 55.0737 51.2747 52.1918C53.2893 50.3052 55.5482 48.6911 57.692 46.9565C60.1039 45.005 62.5027 42.8498 65.1263 41.1801C66.3465 40.4036 67.7074 39.8516 68.9437 39.091C69.8495 38.5338 70.7264 37.966 71.729 37.5931C72.4006 37.3433 73.1393 37.261 73.6928 36.7564C74.8436 35.7074 75.6264 33.7541 75.4812 32.1574C75.3664 30.8941 74.5505 29.0012 73.0566 29.0012C71.4576 29.0012 68.7078 33.2884 66.9227 34.7782C66.6202 35.0306 66.1439 35.2739 66.1592 35.6676C63.655 37.0608 62.3009 37.7699 58.3884 40.4136C56.9519 41.3843 56.1462 43.0216 54.9267 44.2411Z" fill="#FFEDD5"/>
<g filter="url(#filter25_i_1230_304178)">
<g filter="url(#filter26_di_1230_304178)">
<path d="M38.8443 63.4622C32.9436 55.7039 33.878 44.2048 41.6485 38.2943C49.419 32.3839 60.0627 35.0893 65.9634 42.8475C65.9634 42.8475 60.6845 46.8499 52.914 52.7603C45.1435 58.6708 38.8443 63.4622 38.8443 63.4622Z" fill="#F97316"/>
<path d="M40.2408 62.4146C34.8378 55.3107 35.6044 45.0885 42.7081 39.6853C49.8117 34.2821 60.5623 35.744 65.9653 42.8479C65.9653 42.8479 60.2067 47.2281 53.1031 52.6313C45.9994 58.0345 40.2408 62.4146 40.2408 62.4146Z" fill="#FB923C"/>
</g>
<path d="M52.2238 52.2L41.6077 45.5653C40.4154 44.8202 40.3438 43.1098 41.4696 42.2677L45.702 39.1016C46.8258 38.2609 48.4434 38.809 48.8247 40.1597L52.2238 52.2Z" fill="#FDBA74"/>
<path d="M51.8151 53.1564L39.5619 55.7204C38.1857 56.0083 36.9498 54.8239 37.179 53.4367L38.0406 48.2217C38.2694 46.837 39.816 46.1125 41.0263 46.823L51.8151 53.1564Z" fill="#FDBA74"/>
<path d="M52.918 51.8611L50.0049 39.6855C49.6778 38.3181 50.8263 37.0489 52.2195 37.2384L57.4567 37.9506C58.8474 38.1397 59.6158 39.6649 58.9403 40.8951L52.918 51.8611Z" fill="#FDBA74"/>
<path d="M53.5288 51.7544L60.6971 41.2377C61.523 40.0261 63.3285 40.0856 64.0728 41.3489L64.3372 41.7976C64.8636 42.691 64.6199 43.8385 63.7759 44.4409L53.5288 51.7544Z" fill="#FDBA74"/>
<path d="M51.6094 53.7474L40.3689 56.8503C38.9362 57.2458 38.4202 59.0104 39.4139 60.1156L39.7051 60.4394C40.3991 61.2112 41.5682 61.3238 42.3968 60.6986L51.6094 53.7474Z" fill="#FDBA74"/>
</g>
<path d="M47.7675 56.0754C46.8413 57.0016 46.0349 58.2735 44.882 58.941C43.8246 59.5532 43.104 60.0538 41.8612 59.7776C41.8242 59.7694 38.6251 61.3842 38.4997 61.6664C36.0426 67.1951 41.038 66.908 44.1155 64.026C46.1301 62.1394 48.389 60.5253 50.5328 58.7907C52.9448 56.8392 55.3435 54.684 57.9671 53.0144C59.1874 52.2378 60.5482 51.6858 61.7845 50.9253C62.6903 50.368 63.5672 49.8003 64.5699 49.4273C65.2415 49.1775 65.9801 49.0952 66.5336 48.5907C67.6845 47.5417 68.4672 45.5884 68.3221 43.9916C68.2072 42.7283 67.3913 40.8354 65.8974 40.8354C64.2984 40.8354 61.5486 45.1227 59.7635 46.6124C59.461 46.8649 58.9848 47.1081 59 47.5019C56.4959 48.895 55.1417 49.6042 51.2292 52.2479C49.7927 53.2185 48.987 54.8558 47.7675 56.0754Z" fill="#FFEDD5"/>
<path d="M86.3683 58.2197C86.4283 58.1208 86.5717 58.1208 86.6317 58.2197C86.6531 58.255 86.6879 58.2803 86.7281 58.2898C86.8407 58.3162 86.8851 58.4526 86.8095 58.5402C86.7825 58.5715 86.7692 58.6124 86.7727 58.6536C86.7823 58.7688 86.6662 58.8532 86.5596 58.8084C86.5215 58.7924 86.4785 58.7924 86.4404 58.8084C86.3338 58.8532 86.2177 58.7688 86.2273 58.6536C86.2308 58.6124 86.2175 58.5715 86.1905 58.5402C86.1149 58.4526 86.1593 58.3162 86.2719 58.2898C86.3121 58.2803 86.3469 58.255 86.3683 58.2197Z" fill="white" fill-opacity="0.2"/>
<path d="M68.7367 58.437C68.8565 58.2392 69.1435 58.2392 69.2633 58.437C69.3062 58.5078 69.3757 58.5583 69.4563 58.5772C69.6814 58.63 69.7701 58.903 69.619 59.078C69.565 59.1407 69.5384 59.2225 69.5453 59.3049C69.5646 59.5354 69.3325 59.704 69.1193 59.6144C69.043 59.5824 68.957 59.5824 68.8807 59.6144C68.6675 59.704 68.4354 59.5354 68.4547 59.3049C68.4616 59.2225 68.435 59.1407 68.381 59.078C68.2299 58.903 68.3186 58.63 68.5437 58.5772C68.6243 58.5583 68.6938 58.5078 68.7367 58.437Z" fill="white" fill-opacity="0.2"/>
<path d="M98.4713 74.6719C98.4642 74.4408 98.705 74.2846 98.9131 74.3854C98.9876 74.4214 99.0734 74.426 99.1513 74.398C99.3689 74.3198 99.5919 74.5005 99.5604 74.7297C99.5491 74.8116 99.5713 74.8947 99.622 74.9601C99.7636 75.1429 99.6606 75.4108 99.4329 75.4516C99.3515 75.4663 99.2794 75.513 99.2328 75.5814C99.1027 75.7726 98.8161 75.7574 98.707 75.5536C98.6679 75.4806 98.6011 75.4265 98.5217 75.4033C98.2996 75.3387 98.2255 75.0614 98.3857 74.8946C98.443 74.8349 98.4738 74.7547 98.4713 74.6719Z" fill="white" fill-opacity="0.2"/>
<path d="M93.5428 67.1938C93.6469 67.1433 93.7673 67.2212 93.7639 67.3368C93.7627 67.3782 93.7782 67.4183 93.8069 67.4481C93.8871 67.5314 93.8502 67.6701 93.7392 67.7025C93.6995 67.7142 93.6662 67.7413 93.6467 67.7778C93.5922 67.8798 93.449 67.8876 93.3838 67.7921C93.3605 67.7579 93.3244 67.7345 93.2836 67.7273C93.1698 67.707 93.1181 67.5732 93.1888 67.4816C93.2141 67.4489 93.2251 67.4074 93.2194 67.3664C93.2035 67.2518 93.3149 67.1613 93.4238 67.2003C93.4627 67.2142 93.5056 67.2119 93.5428 67.1938Z" fill="white" fill-opacity="0.2"/>
<path d="M100.368 60.2197C100.428 60.1208 100.572 60.1208 100.632 60.2197C100.653 60.255 100.688 60.2803 100.728 60.2898C100.841 60.3162 100.885 60.4526 100.81 60.5402C100.782 60.5715 100.769 60.6124 100.773 60.6536C100.782 60.7688 100.666 60.8532 100.56 60.8084C100.521 60.7924 100.479 60.7924 100.44 60.8084C100.334 60.8532 100.218 60.7688 100.227 60.6536C100.231 60.6124 100.218 60.5715 100.19 60.5402C100.115 60.4526 100.159 60.3162 100.272 60.2898C100.312 60.2803 100.347 60.255 100.368 60.2197Z" fill="white" fill-opacity="0.2"/>
<path opacity="0.6" d="M81.7367 67.4374C81.8565 67.2396 82.1435 67.2396 82.2633 67.4374C82.3062 67.5081 82.3757 67.5587 82.4563 67.5776C82.6814 67.6304 82.7701 67.9033 82.619 68.0784C82.565 68.1411 82.5384 68.2228 82.5453 68.3053C82.5646 68.5357 82.3325 68.7044 82.1193 68.6148C82.043 68.5828 81.957 68.5828 81.8807 68.6148C81.6675 68.7044 81.4354 68.5357 81.4547 68.3053C81.4616 68.2228 81.435 68.1411 81.381 68.0784C81.2299 67.9033 81.3186 67.6304 81.5437 67.5776C81.6243 67.5587 81.6938 67.5081 81.7367 67.4374Z" fill="black" fill-opacity="0.12"/>
<path opacity="0.4" d="M86.7367 72.4376C86.8565 72.2398 87.1435 72.2398 87.2633 72.4376C87.3062 72.5084 87.3757 72.5589 87.4563 72.5778C87.6814 72.6306 87.7701 72.9036 87.619 73.0787C87.565 73.1413 87.5384 73.2231 87.5453 73.3055C87.5646 73.536 87.3325 73.7046 87.1193 73.6151C87.043 73.583 86.957 73.583 86.8807 73.6151C86.6675 73.7046 86.4354 73.536 86.4547 73.3055C86.4616 73.2231 86.435 73.1413 86.381 73.0787C86.2299 72.9036 86.3186 72.6306 86.5437 72.5778C86.6243 72.5589 86.6938 72.5084 86.7367 72.4376Z" fill="black" fill-opacity="0.12"/>
<path opacity="0.6" d="M49.7447 61.8227C49.5553 61.589 49.6492 61.2384 49.9301 61.1307L49.9524 61.1221C50.0426 61.0876 50.1162 61.0202 50.1587 60.9335L50.1968 60.8555C50.3163 60.6113 50.6612 60.6024 50.7931 60.8402C50.8431 60.9302 50.9316 60.9923 51.0332 61.0089L51.045 61.0108C51.306 61.0534 51.4343 61.3527 51.2852 61.5711L51.2051 61.6884C51.1473 61.7731 51.12 61.875 51.1277 61.9772L51.1384 62.1189C51.1584 62.3826 50.8976 62.5776 50.6503 62.484L50.6391 62.4797C50.5428 62.4433 50.4351 62.4529 50.3468 62.5059C50.1137 62.6458 49.8195 62.4656 49.8381 62.1944L49.844 62.1078C49.8506 62.0115 49.8205 61.9163 49.7598 61.8413L49.7447 61.8227Z" fill="#FDBA74"/>
<path opacity="0.6" d="M47.7447 72.8231C47.5553 72.5893 47.6492 72.2388 47.9301 72.1311L47.9524 72.1225C48.0426 72.088 48.1162 72.0206 48.1587 71.9339L48.1968 71.8559C48.3163 71.6117 48.6612 71.6028 48.7931 71.8405C48.8431 71.9305 48.9316 71.9927 49.0332 72.0093L49.045 72.0112C49.306 72.0538 49.4343 72.3531 49.2852 72.5714L49.2051 72.6888C49.1473 72.7735 49.12 72.8753 49.1277 72.9776L49.1384 73.1193C49.1584 73.383 48.8976 73.578 48.6503 73.4844L48.6391 73.4801C48.5428 73.4436 48.4351 73.4533 48.3468 73.5062C48.1137 73.6461 47.8195 73.466 47.8381 73.1947L47.844 73.1081C47.8506 73.0118 47.8205 72.9166 47.7598 72.8417L47.7447 72.8231Z" fill="#FB923C"/>
<path d="M77.903 29.6688C77.7238 29.4593 77.8679 29.122 78.1753 29.0313L78.1851 29.0284C78.2907 28.9972 78.3839 28.9309 78.4446 28.8438L78.4655 28.8137C78.635 28.5705 79.0101 28.5529 79.1377 28.7821C79.1844 28.8661 79.2724 28.9234 79.3777 28.9395C79.6627 28.983 79.7616 29.2921 79.5572 29.511L79.5157 29.5555C79.4401 29.6364 79.3974 29.7363 79.3961 29.8354L79.3954 29.8898C79.3919 30.1577 79.0724 30.3647 78.8075 30.2742C78.7096 30.2407 78.5938 30.2484 78.4909 30.2959C78.2101 30.4256 77.9194 30.2456 77.9701 29.9734L77.9764 29.9397C77.9945 29.8423 77.9702 29.7473 77.9087 29.6754L77.903 29.6688Z" fill="#FDBA74"/>
<path d="M73.4984 47.8233C73.4787 47.6642 73.6046 47.5309 73.7363 47.5712L73.7405 47.5725C73.7858 47.5863 73.8342 47.5785 73.8752 47.5508L73.8895 47.5411C74.0041 47.4636 74.1446 47.5609 74.1412 47.7155C74.1399 47.7722 74.1595 47.8268 74.1944 47.865C74.2887 47.9683 74.2576 48.156 74.1355 48.2111L74.1106 48.2224C74.0654 48.2427 74.0281 48.2822 74.0061 48.333L73.9939 48.3611C73.9343 48.4984 73.7729 48.5147 73.6961 48.3928C73.6677 48.3477 73.6239 48.3188 73.5761 48.3141C73.4455 48.3014 73.3788 48.126 73.4565 47.9998L73.4661 47.9841C73.494 47.9389 73.5058 47.883 73.499 47.8283L73.4984 47.8233Z" fill="#FED7AA"/>
<path d="M81.9934 39.1004C81.8987 38.9835 81.9457 38.8082 82.0861 38.7544L82.0973 38.7501C82.1424 38.7328 82.1792 38.6991 82.2004 38.6558L82.2195 38.6168C82.2793 38.4947 82.4517 38.4902 82.5177 38.6091C82.5427 38.6541 82.5869 38.6852 82.6377 38.6935L82.6436 38.6944C82.7741 38.7157 82.8383 38.8654 82.7637 38.9746L82.7236 39.0332C82.6947 39.0756 82.6811 39.1265 82.6849 39.1776L82.6903 39.2485C82.7003 39.3803 82.5699 39.4778 82.4462 39.431L82.4406 39.4289C82.3925 39.4107 82.3387 39.4155 82.2945 39.442C82.1779 39.5119 82.0308 39.4218 82.0401 39.2862L82.0431 39.2429C82.0464 39.1948 82.0314 39.1472 82.001 39.1097L81.9934 39.1004Z" fill="#FED7AA"/>
<defs>
<filter id="filter0_ii_1230_304178" x="4.7998" y="74.2352" width="102.4" height="94.0217" filterUnits="userSpaceOnUse" color-interpolation-filters="sRGB">
<feFlood flood-opacity="0" result="BackgroundImageFix"/>
<feBlend mode="normal" in="SourceGraphic" in2="BackgroundImageFix" result="shape"/>
<feColorMatrix in="SourceAlpha" type="matrix" values="0 0 0 0 0 0 0 0 0 0 0 0 0 0 0 0 0 0 127 0" result="hardAlpha"/>
<feOffset dx="8" dy="8"/>
<feGaussianBlur stdDeviation="8"/>
<feComposite in2="hardAlpha" operator="arithmetic" k2="-1" k3="1"/>
<feColorMatrix type="matrix" values="0 0 0 0 0 0 0 0 0 0 0 0 0 0 0 0 0 0 0.25 0"/>
<feBlend mode="normal" in2="shape" result="effect1_innerShadow_1230_304178"/>
<feColorMatrix in="SourceAlpha" type="matrix" values="0 0 0 0 0 0 0 0 0 0 0 0 0 0 0 0 0 0 127 0" result="hardAlpha"/>
<feOffset dx="-8" dy="8"/>
<feGaussianBlur stdDeviation="8"/>
<feComposite in2="hardAlpha" operator="arithmetic" k2="-1" k3="1"/>
<feColorMatrix type="matrix" values="0 0 0 0 1 0 0 0 0 1 0 0 0 0 1 0 0 0 0.25 0"/>
<feBlend mode="normal" in2="effect1_innerShadow_1230_304178" result="effect2_innerShadow_1230_304178"/>
</filter>
<filter id="filter1_ii_1230_304178" x="32.8003" y="48.7909" width="54.3999" height="92.4552" filterUnits="userSpaceOnUse" color-interpolation-filters="sRGB">
<feFlood flood-opacity="0" result="BackgroundImageFix"/>
<feBlend mode="normal" in="SourceGraphic" in2="BackgroundImageFix" result="shape"/>
<feColorMatrix in="SourceAlpha" type="matrix" values="0 0 0 0 0 0 0 0 0 0 0 0 0 0 0 0 0 0 127 0" result="hardAlpha"/>
<feOffset dx="24" dy="-24"/>
<feGaussianBlur stdDeviation="21"/>
<feComposite in2="hardAlpha" operator="arithmetic" k2="-1" k3="1"/>
<feColorMatrix type="matrix" values="0 0 0 0 0 0 0 0 0 0 0 0 0 0 0 0 0 0 0.25 0"/>
<feBlend mode="normal" in2="shape" result="effect1_innerShadow_1230_304178"/>
<feColorMatrix in="SourceAlpha" type="matrix" values="0 0 0 0 0 0 0 0 0 0 0 0 0 0 0 0 0 0 127 0" result="hardAlpha"/>
<feOffset dx="-16" dy="24"/>
<feGaussianBlur stdDeviation="12"/>
<feComposite in2="hardAlpha" operator="arithmetic" k2="-1" k3="1"/>
<feColorMatrix type="matrix" values="0 0 0 0 1 0 0 0 0 1 0 0 0 0 1 0 0 0 0.25 0"/>
<feBlend mode="normal" in2="effect1_innerShadow_1230_304178" result="effect2_innerShadow_1230_304178"/>
</filter>
<filter id="filter2_ii_1230_304178" x="-8" y="29.7799" width="128" height="119.51" filterUnits="userSpaceOnUse" color-interpolation-filters="sRGB">
<feFlood flood-opacity="0" result="BackgroundImageFix"/>
<feBlend mode="normal" in="SourceGraphic" in2="BackgroundImageFix" result="shape"/>
<feColorMatrix in="SourceAlpha" type="matrix" values="0 0 0 0 0 0 0 0 0 0 0 0 0 0 0 0 0 0 127 0" result="hardAlpha"/>
<feOffset dx="8" dy="8"/>
<feGaussianBlur stdDeviation="8"/>
<feComposite in2="hardAlpha" operator="arithmetic" k2="-1" k3="1"/>
<feColorMatrix type="matrix" values="0 0 0 0 0 0 0 0 0 0 0 0 0 0 0 0 0 0 0.25 0"/>
<feBlend mode="normal" in2="shape" result="effect1_innerShadow_1230_304178"/>
<feColorMatrix in="SourceAlpha" type="matrix" values="0 0 0 0 0 0 0 0 0 0 0 0 0 0 0 0 0 0 127 0" result="hardAlpha"/>
<feOffset dx="-8" dy="8"/>
<feGaussianBlur stdDeviation="8"/>
<feComposite in2="hardAlpha" operator="arithmetic" k2="-1" k3="1"/>
<feColorMatrix type="matrix" values="0 0 0 0 1 0 0 0 0 1 0 0 0 0 1 0 0 0 0.25 0"/>
<feBlend mode="normal" in2="effect1_innerShadow_1230_304178" result="effect2_innerShadow_1230_304178"/>
</filter>
<filter id="filter3_i_1230_304178" x="-0.398249" y="25.001" width="112.398" height="111.51" filterUnits="userSpaceOnUse" color-interpolation-filters="sRGB">
<feFlood flood-opacity="0" result="BackgroundImageFix"/>
<feBlend mode="normal" in="SourceGraphic" in2="BackgroundImageFix" result="shape"/>
<feColorMatrix in="SourceAlpha" type="matrix" values="0 0 0 0 0 0 0 0 0 0 0 0 0 0 0 0 0 0 127 0" result="hardAlpha"/>
<feOffset dx="-1.593"/>
<feGaussianBlur stdDeviation="0.199125"/>
<feComposite in2="hardAlpha" operator="arithmetic" k2="-1" k3="1"/>
<feColorMatrix type="matrix" values="0 0 0 0 1 0 0 0 0 1 0 0 0 0 1 0 0 0 0.25 0"/>
<feBlend mode="normal" in2="shape" result="effect1_innerShadow_1230_304178"/>
</filter>
<filter id="filter4_d_1230_304178" x="7" y="13.0005" width="97.9502" height="115.819" filterUnits="userSpaceOnUse" color-interpolation-filters="sRGB">
<feFlood flood-opacity="0" result="BackgroundImageFix"/>
<feColorMatrix in="SourceAlpha" type="matrix" values="0 0 0 0 0 0 0 0 0 0 0 0 0 0 0 0 0 0 127 0" result="hardAlpha"/>
<feOffset dy="1"/>
<feComposite in2="hardAlpha" operator="out"/>
<feColorMatrix type="matrix" values="0 0 0 0 0 0 0 0 0 0 0 0 0 0 0 0 0 0 0.25 0"/>
<feBlend mode="normal" in2="BackgroundImageFix" result="effect1_dropShadow_1230_304178"/>
<feBlend mode="normal" in="SourceGraphic" in2="effect1_dropShadow_1230_304178" result="shape"/>
</filter>
<filter id="filter5_i_1230_304178" x="56.2998" y="50.8064" width="64.6504" height="27.5526" filterUnits="userSpaceOnUse" color-interpolation-filters="sRGB">
<feFlood flood-opacity="0" result="BackgroundImageFix"/>
<feBlend mode="normal" in="SourceGraphic" in2="BackgroundImageFix" result="shape"/>
<feColorMatrix in="SourceAlpha" type="matrix" values="0 0 0 0 0 0 0 0 0 0 0 0 0 0 0 0 0 0 127 0" result="hardAlpha"/>
<feOffset dx="16" dy="-4"/>
<feGaussianBlur stdDeviation="10"/>
<feComposite in2="hardAlpha" operator="arithmetic" k2="-1" k3="1"/>
<feColorMatrix type="matrix" values="0 0 0 0 0 0 0 0 0 0 0 0 0 0 0 0 0 0 0.25 0"/>
<feBlend mode="normal" in2="shape" result="effect1_innerShadow_1230_304178"/>
</filter>
<filter id="filter6_i_1230_304178" x="7" y="38.9083" width="114.165" height="108.911" filterUnits="userSpaceOnUse" color-interpolation-filters="sRGB">
<feFlood flood-opacity="0" result="BackgroundImageFix"/>
<feBlend mode="normal" in="SourceGraphic" in2="BackgroundImageFix" result="shape"/>
<feColorMatrix in="SourceAlpha" type="matrix" values="0 0 0 0 0 0 0 0 0 0 0 0 0 0 0 0 0 0 127 0" result="hardAlpha"/>
<feOffset dx="24" dy="20"/>
<feGaussianBlur stdDeviation="14"/>
<feComposite in2="hardAlpha" operator="arithmetic" k2="-1" k3="1"/>
<feColorMatrix type="matrix" values="0 0 0 0 0 0 0 0 0 0 0 0 0 0 0 0 0 0 0.25 0"/>
<feBlend mode="normal" in2="shape" result="effect1_innerShadow_1230_304178"/>
</filter>
<filter id="filter7_ii_1230_304178" x="5" y="13.0005" width="100.869" height="92.9113" filterUnits="userSpaceOnUse" color-interpolation-filters="sRGB">
<feFlood flood-opacity="0" result="BackgroundImageFix"/>
<feBlend mode="normal" in="SourceGraphic" in2="BackgroundImageFix" result="shape"/>
<feColorMatrix in="SourceAlpha" type="matrix" values="0 0 0 0 0 0 0 0 0 0 0 0 0 0 0 0 0 0 127 0" result="hardAlpha"/>
<feOffset dx="-2" dy="4"/>
<feGaussianBlur stdDeviation="2"/>
<feComposite in2="hardAlpha" operator="arithmetic" k2="-1" k3="1"/>
<feColorMatrix type="matrix" values="0 0 0 0 1 0 0 0 0 1 0 0 0 0 1 0 0 0 0.25 0"/>
<feBlend mode="normal" in2="shape" result="effect1_innerShadow_1230_304178"/>
<feColorMatrix in="SourceAlpha" type="matrix" values="0 0 0 0 0 0 0 0 0 0 0 0 0 0 0 0 0 0 127 0" result="hardAlpha"/>
<feOffset dx="1"/>
<feGaussianBlur stdDeviation="0.5"/>
<feComposite in2="hardAlpha" operator="arithmetic" k2="-1" k3="1"/>
<feColorMatrix type="matrix" values="0 0 0 0 0 0 0 0 0 0 0 0 0 0 0 0 0 0 0.22 0"/>
<feBlend mode="normal" in2="effect1_innerShadow_1230_304178" result="effect2_innerShadow_1230_304178"/>
</filter>
<filter id="filter8_f_1230_304178" x="8.15971" y="20.4373" width="60.2143" height="40.5666" filterUnits="userSpaceOnUse" color-interpolation-filters="sRGB">
<feFlood flood-opacity="0" result="BackgroundImageFix"/>
<feBlend mode="normal" in="SourceGraphic" in2="BackgroundImageFix" result="shape"/>
<feGaussianBlur stdDeviation="1.23533" result="effect1_foregroundBlur_1230_304178"/>
</filter>
<filter id="filter9_i_1230_304178" x="20.0303" y="0" width="51.1729" height="52.5309" filterUnits="userSpaceOnUse" color-interpolation-filters="sRGB">
<feFlood flood-opacity="0" result="BackgroundImageFix"/>
<feBlend mode="normal" in="SourceGraphic" in2="BackgroundImageFix" result="shape"/>
<feColorMatrix in="SourceAlpha" type="matrix" values="0 0 0 0 0 0 0 0 0 0 0 0 0 0 0 0 0 0 127 0" result="hardAlpha"/>
<feOffset dy="1.35887"/>
<feGaussianBlur stdDeviation="0.679436"/>
<feComposite in2="hardAlpha" operator="arithmetic" k2="-1" k3="1"/>
<feColorMatrix type="matrix" values="0 0 0 0 1 0 0 0 0 1 0 0 0 0 1 0 0 0 0.42 0"/>
<feBlend mode="normal" in2="shape" result="effect1_innerShadow_1230_304178"/>
</filter>
<filter id="filter10_di_1230_304178" x="29.961" y="14.4589" width="38.2924" height="31.4199" filterUnits="userSpaceOnUse" color-interpolation-filters="sRGB">
<feFlood flood-opacity="0" result="BackgroundImageFix"/>
<feColorMatrix in="SourceAlpha" type="matrix" values="0 0 0 0 0 0 0 0 0 0 0 0 0 0 0 0 0 0 127 0" result="hardAlpha"/>
<feOffset dy="1.35887"/>
<feGaussianBlur stdDeviation="0.679436"/>
<feComposite in2="hardAlpha" operator="out"/>
<feColorMatrix type="matrix" values="0 0 0 0 0 0 0 0 0 0 0 0 0 0 0 0 0 0 0.1 0"/>
<feBlend mode="normal" in2="BackgroundImageFix" result="effect1_dropShadow_1230_304178"/>
<feBlend mode="normal" in="SourceGraphic" in2="effect1_dropShadow_1230_304178" result="shape"/>
<feColorMatrix in="SourceAlpha" type="matrix" values="0 0 0 0 0 0 0 0 0 0 0 0 0 0 0 0 0 0 127 0" result="hardAlpha"/>
<feOffset dx="1.35887"/>
<feGaussianBlur stdDeviation="0.679436"/>
<feComposite in2="hardAlpha" operator="arithmetic" k2="-1" k3="1"/>
<feColorMatrix type="matrix" values="0 0 0 0 0 0 0 0 0 0 0 0 0 0 0 0 0 0 0.1 0"/>
<feBlend mode="normal" in2="shape" result="effect2_innerShadow_1230_304178"/>
</filter>
<filter id="filter11_i_1230_304178" x="1.99658" y="15.6165" width="44.3374" height="45.6955" filterUnits="userSpaceOnUse" color-interpolation-filters="sRGB">
<feFlood flood-opacity="0" result="BackgroundImageFix"/>
<feBlend mode="normal" in="SourceGraphic" in2="BackgroundImageFix" result="shape"/>
<feColorMatrix in="SourceAlpha" type="matrix" values="0 0 0 0 0 0 0 0 0 0 0 0 0 0 0 0 0 0 127 0" result="hardAlpha"/>
<feOffset dy="1.35893"/>
<feGaussianBlur stdDeviation="0.679467"/>
<feComposite in2="hardAlpha" operator="arithmetic" k2="-1" k3="1"/>
<feColorMatrix type="matrix" values="0 0 0 0 1 0 0 0 0 1 0 0 0 0 1 0 0 0 0.42 0"/>
<feBlend mode="normal" in2="shape" result="effect1_innerShadow_1230_304178"/>
</filter>
<filter id="filter12_di_1230_304178" x="10.0795" y="25.7327" width="36.3038" height="34.498" filterUnits="userSpaceOnUse" color-interpolation-filters="sRGB">
<feFlood flood-opacity="0" result="BackgroundImageFix"/>
<feColorMatrix in="SourceAlpha" type="matrix" values="0 0 0 0 0 0 0 0 0 0 0 0 0 0 0 0 0 0 127 0" result="hardAlpha"/>
<feOffset dy="1.35893"/>
<feGaussianBlur stdDeviation="0.679467"/>
<feComposite in2="hardAlpha" operator="out"/>
<feColorMatrix type="matrix" values="0 0 0 0 0 0 0 0 0 0 0 0 0 0 0 0 0 0 0.1 0"/>
<feBlend mode="normal" in2="BackgroundImageFix" result="effect1_dropShadow_1230_304178"/>
<feBlend mode="normal" in="SourceGraphic" in2="effect1_dropShadow_1230_304178" result="shape"/>
<feColorMatrix in="SourceAlpha" type="matrix" values="0 0 0 0 0 0 0 0 0 0 0 0 0 0 0 0 0 0 127 0" result="hardAlpha"/>
<feOffset dx="1.35893"/>
<feGaussianBlur stdDeviation="0.679467"/>
<feComposite in2="hardAlpha" operator="arithmetic" k2="-1" k3="1"/>
<feColorMatrix type="matrix" values="0 0 0 0 0 0 0 0 0 0 0 0 0 0 0 0 0 0 0.1 0"/>
<feBlend mode="normal" in2="shape" result="effect2_innerShadow_1230_304178"/>
</filter>
<filter id="filter13_i_1230_304178" x="10.8315" y="23.936" width="41.7158" height="42.9507" filterUnits="userSpaceOnUse" color-interpolation-filters="sRGB">
<feFlood flood-opacity="0" result="BackgroundImageFix"/>
<feBlend mode="normal" in="SourceGraphic" in2="BackgroundImageFix" result="shape"/>
<feColorMatrix in="SourceAlpha" type="matrix" values="0 0 0 0 0 0 0 0 0 0 0 0 0 0 0 0 0 0 127 0" result="hardAlpha"/>
<feOffset dy="1.23533"/>
<feGaussianBlur stdDeviation="0.617666"/>
<feComposite in2="hardAlpha" operator="arithmetic" k2="-1" k3="1"/>
<feColorMatrix type="matrix" values="0 0 0 0 1 0 0 0 0 1 0 0 0 0 1 0 0 0 0.42 0"/>
<feBlend mode="normal" in2="shape" result="effect1_innerShadow_1230_304178"/>
</filter>
<filter id="filter14_di_1230_304178" x="18.6226" y="34.0267" width="33.4121" height="30.8411" filterUnits="userSpaceOnUse" color-interpolation-filters="sRGB">
<feFlood flood-opacity="0" result="BackgroundImageFix"/>
<feColorMatrix in="SourceAlpha" type="matrix" values="0 0 0 0 0 0 0 0 0 0 0 0 0 0 0 0 0 0 127 0" result="hardAlpha"/>
<feOffset dy="1.23533"/>
<feGaussianBlur stdDeviation="0.617666"/>
<feComposite in2="hardAlpha" operator="out"/>
<feColorMatrix type="matrix" values="0 0 0 0 0 0 0 0 0 0 0 0 0 0 0 0 0 0 0.1 0"/>
<feBlend mode="normal" in2="BackgroundImageFix" result="effect1_dropShadow_1230_304178"/>
<feBlend mode="normal" in="SourceGraphic" in2="effect1_dropShadow_1230_304178" result="shape"/>
<feColorMatrix in="SourceAlpha" type="matrix" values="0 0 0 0 0 0 0 0 0 0 0 0 0 0 0 0 0 0 127 0" result="hardAlpha"/>
<feOffset dx="1.23533"/>
<feGaussianBlur stdDeviation="0.617666"/>
<feComposite in2="hardAlpha" operator="arithmetic" k2="-1" k3="1"/>
<feColorMatrix type="matrix" values="0 0 0 0 0 0 0 0 0 0 0 0 0 0 0 0 0 0 0.1 0"/>
<feBlend mode="normal" in2="shape" result="effect2_innerShadow_1230_304178"/>
</filter>
<filter id="filter15_di_1230_304178" x="16.8312" y="48.0992" width="23.0086" height="23.0863" filterUnits="userSpaceOnUse" color-interpolation-filters="sRGB">
<feFlood flood-opacity="0" result="BackgroundImageFix"/>
<feColorMatrix in="SourceAlpha" type="matrix" values="0 0 0 0 0 0 0 0 0 0 0 0 0 0 0 0 0 0 127 0" result="hardAlpha"/>
<feOffset dy="2.36854"/>
<feGaussianBlur stdDeviation="0.394756"/>
<feComposite in2="hardAlpha" operator="out"/>
<feColorMatrix type="matrix" values="0 0 0 0 0 0 0 0 0 0 0 0 0 0 0 0 0 0 0.1 0"/>
<feBlend mode="normal" in2="BackgroundImageFix" result="effect1_dropShadow_1230_304178"/>
<feBlend mode="normal" in="SourceGraphic" in2="effect1_dropShadow_1230_304178" result="shape"/>
<feColorMatrix in="SourceAlpha" type="matrix" values="0 0 0 0 0 0 0 0 0 0 0 0 0 0 0 0 0 0 127 0" result="hardAlpha"/>
<feOffset dx="-2.36854" dy="0.789512"/>
<feGaussianBlur stdDeviation="1.18427"/>
<feComposite in2="hardAlpha" operator="arithmetic" k2="-1" k3="1"/>
<feColorMatrix type="matrix" values="0 0 0 0 0 0 0 0 0 0 0 0 0 0 0 0 0 0 0.25 0"/>
<feBlend mode="normal" in2="shape" result="effect2_innerShadow_1230_304178"/>
</filter>
<filter id="filter16_ii_1230_304178" x="14.6644" y="43.5639" width="23.1237" height="15.0461" filterUnits="userSpaceOnUse" color-interpolation-filters="sRGB">
<feFlood flood-opacity="0" result="BackgroundImageFix"/>
<feBlend mode="normal" in="SourceGraphic" in2="BackgroundImageFix" result="shape"/>
<feColorMatrix in="SourceAlpha" type="matrix" values="0 0 0 0 0 0 0 0 0 0 0 0 0 0 0 0 0 0 127 0" result="hardAlpha"/>
<feOffset dx="-6.04711" dy="-4.53534"/>
<feGaussianBlur stdDeviation="2.26767"/>
<feComposite in2="hardAlpha" operator="arithmetic" k2="-1" k3="1"/>
<feColorMatrix type="matrix" values="0 0 0 0 0 0 0 0 0 0 0 0 0 0 0 0 0 0 0.25 0"/>
<feBlend mode="normal" in2="shape" result="effect1_innerShadow_1230_304178"/>
<feColorMatrix in="SourceAlpha" type="matrix" values="0 0 0 0 0 0 0 0 0 0 0 0 0 0 0 0 0 0 127 0" result="hardAlpha"/>
<feOffset dy="-1.51178"/>
<feGaussianBlur stdDeviation="0.755889"/>
<feComposite in2="hardAlpha" operator="arithmetic" k2="-1" k3="1"/>
<feColorMatrix type="matrix" values="0 0 0 0 0 0 0 0 0 0 0 0 0 0 0 0 0 0 0.25 0"/>
<feBlend mode="normal" in2="effect1_innerShadow_1230_304178" result="effect2_innerShadow_1230_304178"/>
</filter>
<filter id="filter17_di_1230_304178" x="22.0685" y="53.691" width="17.2577" height="17.4945" filterUnits="userSpaceOnUse" color-interpolation-filters="sRGB">
<feFlood flood-opacity="0" result="BackgroundImageFix"/>
<feColorMatrix in="SourceAlpha" type="matrix" values="0 0 0 0 0 0 0 0 0 0 0 0 0 0 0 0 0 0 127 0" result="hardAlpha"/>
<feOffset dy="2.36854"/>
<feGaussianBlur stdDeviation="0.394756"/>
<feComposite in2="hardAlpha" operator="out"/>
<feColorMatrix type="matrix" values="0 0 0 0 0 0 0 0 0 0 0 0 0 0 0 0 0 0 0.1 0"/>
<feBlend mode="normal" in2="BackgroundImageFix" result="effect1_dropShadow_1230_304178"/>
<feBlend mode="normal" in="SourceGraphic" in2="effect1_dropShadow_1230_304178" result="shape"/>
<feColorMatrix in="SourceAlpha" type="matrix" values="0 0 0 0 0 0 0 0 0 0 0 0 0 0 0 0 0 0 127 0" result="hardAlpha"/>
<feOffset dx="-2.36854" dy="0.789512"/>
<feGaussianBlur stdDeviation="1.18427"/>
<feComposite in2="hardAlpha" operator="arithmetic" k2="-1" k3="1"/>
<feColorMatrix type="matrix" values="0 0 0 0 0 0 0 0 0 0 0 0 0 0 0 0 0 0 0.25 0"/>
<feBlend mode="normal" in2="shape" result="effect2_innerShadow_1230_304178"/>
</filter>
<filter id="filter18_ii_1230_304178" x="19.9017" y="49.2632" width="18.424" height="18.7642" filterUnits="userSpaceOnUse" color-interpolation-filters="sRGB">
<feFlood flood-opacity="0" result="BackgroundImageFix"/>
<feBlend mode="normal" in="SourceGraphic" in2="BackgroundImageFix" result="shape"/>
<feColorMatrix in="SourceAlpha" type="matrix" values="0 0 0 0 0 0 0 0 0 0 0 0 0 0 0 0 0 0 127 0" result="hardAlpha"/>
<feOffset dx="-6.04711" dy="-4.53534"/>
<feGaussianBlur stdDeviation="2.26767"/>
<feComposite in2="hardAlpha" operator="arithmetic" k2="-1" k3="1"/>
<feColorMatrix type="matrix" values="0 0 0 0 0 0 0 0 0 0 0 0 0 0 0 0 0 0 0.25 0"/>
<feBlend mode="normal" in2="shape" result="effect1_innerShadow_1230_304178"/>
<feColorMatrix in="SourceAlpha" type="matrix" values="0 0 0 0 0 0 0 0 0 0 0 0 0 0 0 0 0 0 127 0" result="hardAlpha"/>
<feOffset dy="-1.51178"/>
<feGaussianBlur stdDeviation="0.755889"/>
<feComposite in2="hardAlpha" operator="arithmetic" k2="-1" k3="1"/>
<feColorMatrix type="matrix" values="0 0 0 0 0 0 0 0 0 0 0 0 0 0 0 0 0 0 0.25 0"/>
<feBlend mode="normal" in2="effect1_innerShadow_1230_304178" result="effect2_innerShadow_1230_304178"/>
</filter>
<filter id="filter19_f_1230_304178" x="25.2952" y="54.9061" width="12.7002" height="12.5416" filterUnits="userSpaceOnUse" color-interpolation-filters="sRGB">
<feFlood flood-opacity="0" result="BackgroundImageFix"/>
<feBlend mode="normal" in="SourceGraphic" in2="BackgroundImageFix" result="shape"/>
<feGaussianBlur stdDeviation="0.610958" result="effect1_foregroundBlur_1230_304178"/>
</filter>
<filter id="filter20_d_1230_304178" x="25.3051" y="52.1793" width="14.7433" height="15.0902" filterUnits="userSpaceOnUse" color-interpolation-filters="sRGB">
<feFlood flood-opacity="0" result="BackgroundImageFix"/>
<feColorMatrix in="SourceAlpha" type="matrix" values="0 0 0 0 0 0 0 0 0 0 0 0 0 0 0 0 0 0 127 0" result="hardAlpha"/>
<feOffset/>
<feGaussianBlur stdDeviation="0.755889"/>
<feComposite in2="hardAlpha" operator="out"/>
<feColorMatrix type="matrix" values="0 0 0 0 1 0 0 0 0 1 0 0 0 0 1 0 0 0 0.25 0"/>
<feBlend mode="normal" in2="BackgroundImageFix" result="effect1_dropShadow_1230_304178"/>
<feBlend mode="normal" in="SourceGraphic" in2="effect1_dropShadow_1230_304178" result="shape"/>
</filter>
<filter id="filter21_ii_1230_304178" x="54.5537" y="7.7525" width="11.5234" height="17.2278" filterUnits="userSpaceOnUse" color-interpolation-filters="sRGB">
<feFlood flood-opacity="0" result="BackgroundImageFix"/>
<feBlend mode="normal" in="SourceGraphic" in2="BackgroundImageFix" result="shape"/>
<feColorMatrix in="SourceAlpha" type="matrix" values="0 0 0 0 0 0 0 0 0 0 0 0 0 0 0 0 0 0 127 0" result="hardAlpha"/>
<feOffset dx="4.92088" dy="-2.73382"/>
<feGaussianBlur stdDeviation="1.36691"/>
<feComposite in2="hardAlpha" operator="arithmetic" k2="-1" k3="1"/>
<feColorMatrix type="matrix" values="0 0 0 0 0 0 0 0 0 0 0 0 0 0 0 0 0 0 0.25 0"/>
<feBlend mode="normal" in2="shape" result="effect1_innerShadow_1230_304178"/>
<feColorMatrix in="SourceAlpha" type="matrix" values="0 0 0 0 0 0 0 0 0 0 0 0 0 0 0 0 0 0 127 0" result="hardAlpha"/>
<feOffset dy="-0.967841"/>
<feGaussianBlur stdDeviation="0.48392"/>
<feComposite in2="hardAlpha" operator="arithmetic" k2="-1" k3="1"/>
<feColorMatrix type="matrix" values="0 0 0 0 0 0 0 0 0 0 0 0 0 0 0 0 0 0 0.25 0"/>
<feBlend mode="normal" in2="effect1_innerShadow_1230_304178" result="effect2_innerShadow_1230_304178"/>
</filter>
<filter id="filter22_ii_1230_304178" x="59.1445" y="15.0522" width="13.4243" height="11.4619" filterUnits="userSpaceOnUse" color-interpolation-filters="sRGB">
<feFlood flood-opacity="0" result="BackgroundImageFix"/>
<feBlend mode="normal" in="SourceGraphic" in2="BackgroundImageFix" result="shape"/>
<feColorMatrix in="SourceAlpha" type="matrix" values="0 0 0 0 0 0 0 0 0 0 0 0 0 0 0 0 0 0 127 0" result="hardAlpha"/>
<feOffset dx="1" dy="-2"/>
<feGaussianBlur stdDeviation="1.5"/>
<feComposite in2="hardAlpha" operator="arithmetic" k2="-1" k3="1"/>
<feColorMatrix type="matrix" values="0 0 0 0 0 0 0 0 0 0 0 0 0 0 0 0 0 0 0.25 0"/>
<feBlend mode="normal" in2="shape" result="effect1_innerShadow_1230_304178"/>
<feColorMatrix in="SourceAlpha" type="matrix" values="0 0 0 0 0 0 0 0 0 0 0 0 0 0 0 0 0 0 127 0" result="hardAlpha"/>
<feOffset dy="-2.44302"/>
<feGaussianBlur stdDeviation="1.22151"/>
<feComposite in2="hardAlpha" operator="arithmetic" k2="-1" k3="1"/>
<feColorMatrix type="matrix" values="0 0 0 0 0 0 0 0 0 0 0 0 0 0 0 0 0 0 0.25 0"/>
<feBlend mode="normal" in2="effect1_innerShadow_1230_304178" result="effect2_innerShadow_1230_304178"/>
</filter>
<filter id="filter23_i_1230_304178" x="33.4722" y="13.3007" width="41.7158" height="42.9507" filterUnits="userSpaceOnUse" color-interpolation-filters="sRGB">
<feFlood flood-opacity="0" result="BackgroundImageFix"/>
<feBlend mode="normal" in="SourceGraphic" in2="BackgroundImageFix" result="shape"/>
<feColorMatrix in="SourceAlpha" type="matrix" values="0 0 0 0 0 0 0 0 0 0 0 0 0 0 0 0 0 0 127 0" result="hardAlpha"/>
<feOffset dy="1.23533"/>
<feGaussianBlur stdDeviation="0.617666"/>
<feComposite in2="hardAlpha" operator="arithmetic" k2="-1" k3="1"/>
<feColorMatrix type="matrix" values="0 0 0 0 1 0 0 0 0 1 0 0 0 0 1 0 0 0 0.42 0"/>
<feBlend mode="normal" in2="shape" result="effect1_innerShadow_1230_304178"/>
</filter>
<filter id="filter24_di_1230_304178" x="41.2632" y="23.3914" width="33.4121" height="30.8411" filterUnits="userSpaceOnUse" color-interpolation-filters="sRGB">
<feFlood flood-opacity="0" result="BackgroundImageFix"/>
<feColorMatrix in="SourceAlpha" type="matrix" values="0 0 0 0 0 0 0 0 0 0 0 0 0 0 0 0 0 0 127 0" result="hardAlpha"/>
<feOffset dy="1.23533"/>
<feGaussianBlur stdDeviation="0.617666"/>
<feComposite in2="hardAlpha" operator="out"/>
<feColorMatrix type="matrix" values="0 0 0 0 0 0 0 0 0 0 0 0 0 0 0 0 0 0 0.1 0"/>
<feBlend mode="normal" in2="BackgroundImageFix" result="effect1_dropShadow_1230_304178"/>
<feBlend mode="normal" in="SourceGraphic" in2="effect1_dropShadow_1230_304178" result="shape"/>
<feColorMatrix in="SourceAlpha" type="matrix" values="0 0 0 0 0 0 0 0 0 0 0 0 0 0 0 0 0 0 127 0" result="hardAlpha"/>
<feOffset dx="1.23533"/>
<feGaussianBlur stdDeviation="0.617666"/>
<feComposite in2="hardAlpha" operator="arithmetic" k2="-1" k3="1"/>
<feColorMatrix type="matrix" values="0 0 0 0 0 0 0 0 0 0 0 0 0 0 0 0 0 0 0.1 0"/>
<feBlend mode="normal" in2="shape" result="effect2_innerShadow_1230_304178"/>
</filter>
<filter id="filter25_i_1230_304178" x="25.9976" y="25.001" width="41.7158" height="42.9507" filterUnits="userSpaceOnUse" color-interpolation-filters="sRGB">
<feFlood flood-opacity="0" result="BackgroundImageFix"/>
<feBlend mode="normal" in="SourceGraphic" in2="BackgroundImageFix" result="shape"/>
<feColorMatrix in="SourceAlpha" type="matrix" values="0 0 0 0 0 0 0 0 0 0 0 0 0 0 0 0 0 0 127 0" result="hardAlpha"/>
<feOffset dy="1.23533"/>
<feGaussianBlur stdDeviation="0.617666"/>
<feComposite in2="hardAlpha" operator="arithmetic" k2="-1" k3="1"/>
<feColorMatrix type="matrix" values="0 0 0 0 1 0 0 0 0 1 0 0 0 0 1 0 0 0 0.42 0"/>
<feBlend mode="normal" in2="shape" result="effect1_innerShadow_1230_304178"/>
</filter>
<filter id="filter26_di_1230_304178" x="33.7886" y="35.0917" width="33.4121" height="30.8411" filterUnits="userSpaceOnUse" color-interpolation-filters="sRGB">
<feFlood flood-opacity="0" result="BackgroundImageFix"/>
<feColorMatrix in="SourceAlpha" type="matrix" values="0 0 0 0 0 0 0 0 0 0 0 0 0 0 0 0 0 0 127 0" result="hardAlpha"/>
<feOffset dy="1.23533"/>
<feGaussianBlur stdDeviation="0.617666"/>
<feComposite in2="hardAlpha" operator="out"/>
<feColorMatrix type="matrix" values="0 0 0 0 0 0 0 0 0 0 0 0 0 0 0 0 0 0 0.1 0"/>
<feBlend mode="normal" in2="BackgroundImageFix" result="effect1_dropShadow_1230_304178"/>
<feBlend mode="normal" in="SourceGraphic" in2="effect1_dropShadow_1230_304178" result="shape"/>
<feColorMatrix in="SourceAlpha" type="matrix" values="0 0 0 0 0 0 0 0 0 0 0 0 0 0 0 0 0 0 127 0" result="hardAlpha"/>
<feOffset dx="1.23533"/>
<feGaussianBlur stdDeviation="0.617666"/>
<feComposite in2="hardAlpha" operator="arithmetic" k2="-1" k3="1"/>
<feColorMatrix type="matrix" values="0 0 0 0 0 0 0 0 0 0 0 0 0 0 0 0 0 0 0.1 0"/>
<feBlend mode="normal" in2="shape" result="effect2_innerShadow_1230_304178"/>
</filter>
</defs>
</svg>
