<svg width="70" height="90" viewBox="0 0 70 90" fill="none" xmlns="http://www.w3.org/2000/svg">
<g filter="url(#filter0_ii_1230_304258)">
<g filter="url(#filter1_i_1230_304258)">
<rect x="5.43433" y="15.5183" width="56.4714" height="65.7429" rx="1.68571" fill="#713F12"/>
</g>
<g filter="url(#filter2_iii_1230_304258)">
<path d="M33.2488 59.3468C33.2488 58.4159 34.0035 57.6611 34.9345 57.6611H60.2202C61.1512 57.6611 61.9059 58.4159 61.9059 59.3468V84.6326C61.9059 85.5636 61.1512 86.3183 60.2202 86.3183H34.9345C34.0035 86.3183 33.2488 85.5636 33.2488 84.6326V59.3468Z" fill="#A16207"/>
</g>
<g filter="url(#filter3_iii_1230_304258)">
<path d="M4.59155 59.3468C4.59155 58.4159 5.34627 57.6611 6.27727 57.6611H31.563C32.494 57.6611 33.2487 58.4159 33.2487 59.3468V84.6326C33.2487 85.5636 32.494 86.3183 31.563 86.3183H6.27727C5.34627 86.3183 4.59155 85.5636 4.59155 84.6326V59.3468Z" fill="#A16207"/>
</g>
<g filter="url(#filter4_iii_1230_304258)">
<path d="M4.59155 30.6899C4.59155 29.7589 5.34627 29.0042 6.27727 29.0042H31.563C32.494 29.0042 33.2487 29.7589 33.2487 30.6899V55.9756C33.2487 56.9066 32.494 57.6613 31.563 57.6613H6.27727C5.34627 57.6613 4.59155 56.9066 4.59155 55.9756V30.6899Z" fill="#A16207"/>
</g>
<g filter="url(#filter5_iii_1230_304258)">
<path d="M33.2488 30.6899C33.2488 29.7589 34.0035 29.0042 34.9345 29.0042H60.2202C61.1512 29.0042 61.9059 29.7589 61.9059 30.6899V55.9756C61.9059 56.9066 61.1512 57.6613 60.2202 57.6613H34.9345C34.0035 57.6613 33.2488 56.9066 33.2488 55.9756V30.6899Z" fill="#A16207"/>
</g>
<g filter="url(#filter6_ii_1230_304258)">
<path d="M4.59155 2.03239C4.59155 1.1014 5.34627 0.34668 6.27727 0.34668H31.563C32.494 0.34668 33.2487 1.1014 33.2487 2.03239V27.3181C33.2487 28.2491 32.494 29.0038 31.563 29.0038H6.27727C5.34627 29.0038 4.59155 28.2491 4.59155 27.3181V2.03239Z" fill="#A16207"/>
</g>
<g filter="url(#filter7_ii_1230_304258)">
<path d="M33.2488 2.03239C33.2488 1.1014 34.0035 0.34668 34.9345 0.34668H60.2202C61.1512 0.34668 61.9059 1.1014 61.9059 2.03239V27.3181C61.9059 28.2491 61.1512 29.0038 60.2202 29.0038H34.9345C34.0035 29.0038 33.2488 28.2491 33.2488 27.3181V2.03239Z" fill="#A16207"/>
</g>
<path d="M4.59155 2.24225C4.59155 1.01926 5.58298 0.027832 6.80597 0.027832L59.6914 0.027832C60.9144 0.027832 61.9058 1.01926 61.9058 2.24225C61.9058 3.05758 61.2449 3.71853 60.4296 3.71853L6.06783 3.71853C5.2525 3.71853 4.59155 3.05758 4.59155 2.24225Z" fill="#A16207"/>
<path opacity="0.28" d="M4.59155 2.23099C4.59155 0.998849 5.5904 0 6.82255 0L59.6748 0C60.907 0 61.9058 0.998849 61.9058 2.23099C61.9058 3.05242 61.2399 3.71832 60.4185 3.71832L6.07888 3.71832C5.25745 3.71832 4.59155 3.05242 4.59155 2.23099Z" fill="white" fill-opacity="0.2"/>
<g filter="url(#filter8_f_1230_304258)">
<path d="M6.09155 5.28849C6.09155 4.85302 6.44457 4.5 6.88005 4.5H31.1452C31.5806 4.5 31.9336 4.85302 31.9336 5.28849C31.9336 5.57881 31.6983 5.81415 31.408 5.81415H6.61721C6.3269 5.81415 6.09155 5.57881 6.09155 5.28849Z" fill="white" fill-opacity="0.2"/>
</g>
<g filter="url(#filter9_f_1230_304258)">
<path d="M6.00464 32.1943C6.00464 31.7588 6.35766 31.4058 6.79313 31.4058H31.0582C31.4937 31.4058 31.8467 31.7588 31.8467 32.1943C31.8467 32.4846 31.6114 32.7199 31.3211 32.7199H6.5303C6.23998 32.7199 6.00464 32.4846 6.00464 32.1943Z" fill="white" fill-opacity="0.2"/>
</g>
<g filter="url(#filter10_f_1230_304258)">
<path d="M5.87378 60.2162C5.87378 59.7808 6.2268 59.4277 6.66227 59.4277H30.9274C31.3629 59.4277 31.7159 59.7808 31.7159 60.2162C31.7159 60.5065 31.4805 60.7419 31.1902 60.7419H6.39944C6.10913 60.7419 5.87378 60.5065 5.87378 60.2162Z" fill="white" fill-opacity="0.2"/>
</g>
<g filter="url(#filter11_f_1230_304258)">
<path d="M36.0916 5.28849C36.0916 4.85302 36.4446 4.5 36.88 4.5H61.1452C61.5806 4.5 61.9336 4.85302 61.9336 5.28849C61.9336 5.57881 61.6983 5.81415 61.408 5.81415H36.6172C36.3269 5.81415 36.0916 5.57881 36.0916 5.28849Z" fill="white" fill-opacity="0.2"/>
</g>
<g filter="url(#filter12_f_1230_304258)">
<path d="M34.0266 32.3249C34.0266 31.8894 34.3796 31.5364 34.8151 31.5364H59.0802C59.5157 31.5364 59.8687 31.8894 59.8687 32.3249C59.8687 32.6152 59.6334 32.8505 59.343 32.8505H34.5523C34.262 32.8505 34.0266 32.6152 34.0266 32.3249Z" fill="white" fill-opacity="0.2"/>
</g>
<g filter="url(#filter13_f_1230_304258)">
<path d="M33.8958 60.3471C33.8958 59.9116 34.2488 59.5586 34.6842 59.5586H58.9494C59.3848 59.5586 59.7378 59.9116 59.7378 60.3471C59.7378 60.6374 59.5025 60.8727 59.2122 60.8727H34.4214C34.1311 60.8727 33.8958 60.6374 33.8958 60.3471Z" fill="white" fill-opacity="0.2"/>
</g>
</g>
<g filter="url(#filter14_i_1230_304258)">
<path d="M3.83423 37.4128H62.3342V83.9128C62.3342 87.2266 59.6479 89.9128 56.3342 89.9128H9.83423C6.52052 89.9128 3.83423 87.2266 3.83423 83.9128V37.4128Z" fill="#7E22CE"/>
</g>
<mask id="mask0_1230_304258" style="mask-type:alpha" maskUnits="userSpaceOnUse" x="3" y="37" width="60" height="53">
<path d="M3.83423 37.4128H62.3342V83.9128C62.3342 87.2266 59.6479 89.9128 56.3342 89.9128H9.83423C6.52052 89.9128 3.83423 87.2266 3.83423 83.9128V37.4128Z" fill="#7E22CE"/>
</mask>
<g mask="url(#mask0_1230_304258)">
<mask id="mask1_1230_304258" style="mask-type:alpha" maskUnits="userSpaceOnUse" x="0" y="22" width="65" height="82">
<rect x="0.363281" y="22.0938" width="64.5" height="81.5002" transform="rotate(-0.0160579 0.363281 22.0938)" fill="#16A34A"/>
</mask>
<g mask="url(#mask1_1230_304258)">
<rect x="-15.6301" y="45.1047" width="128.701" height="10.5" transform="rotate(-45.0161 -15.6301 45.1047)" fill="#F97316"/>
<rect x="-15.6216" y="76.6047" width="128.701" height="10.5" transform="rotate(-45.0161 -15.6216 76.6047)" fill="#F97316"/>
<rect x="-15.6123" y="108.105" width="128.701" height="10.5" transform="rotate(-45.0161 -15.6123 108.105)" fill="#F97316"/>
<rect x="-15.6035" y="139.605" width="128.701" height="10.5" transform="rotate(-45.0161 -15.6035 139.605)" fill="#F97316"/>
<rect x="-15.5947" y="171.105" width="128.701" height="10.5" transform="rotate(-45.0161 -15.5947 171.105)" fill="#F97316"/>
<mask id="path-24-outside-1_1230_304258" maskUnits="userSpaceOnUse" x="10.369" y="41.578" width="47.012" height="43.0132" fill="black">
<rect fill="white" x="10.369" y="41.578" width="47.012" height="43.0132"/>
<path d="M34.4975 58.0822C35.4012 58.082 36.0508 58.2653 36.4462 58.6323C36.8417 58.9711 37.0395 59.4229 37.0397 59.9877C37.0398 60.5807 36.814 61.0609 36.3623 61.4281C35.9106 61.7671 35.2893 61.9367 34.4986 61.937L29.2883 61.9384L29.2873 58.0837L34.4975 58.0822ZM32.9762 71.0872C34.1905 71.0868 35.0096 71.2843 35.4333 71.6795C35.857 72.0465 36.069 72.7807 36.0693 73.882L36.07 76.5507C36.0701 76.9178 36.155 77.2991 36.3245 77.6944C36.494 78.0614 36.7907 78.3579 37.2143 78.5837L51.2355 78.5798C50.7836 78.354 50.4305 78.0293 50.1762 77.6058C49.9219 77.1822 49.7947 76.7022 49.7946 76.1656L49.794 74.2171C49.7936 72.6356 49.6661 71.3225 49.4117 70.2777C49.1572 69.2047 48.6769 68.3294 47.9707 67.6518C47.6317 67.3412 47.1939 67.059 46.6573 66.805C46.1489 66.5509 45.5417 66.3393 44.8356 66.1701C46.7558 65.4353 48.1534 64.4324 49.0284 63.1613C49.9035 61.8903 50.3408 60.3228 50.3403 58.459C50.3396 56.1151 49.8449 54.1808 48.8561 52.6561C47.8672 51.1032 46.2007 49.9599 43.8566 49.2263C42.6704 48.8313 41.2583 48.5493 39.6204 48.3803C38.0106 48.1831 36.175 48.0848 34.1135 48.0854L16.407 48.0903L16.4156 78.5895L29.293 78.5859L29.2909 71.0882L32.9762 71.0872Z"/>
</mask>
<path d="M34.4975 58.0822C35.4012 58.082 36.0508 58.2653 36.4462 58.6323C36.8417 58.9711 37.0395 59.4229 37.0397 59.9877C37.0398 60.5807 36.814 61.0609 36.3623 61.4281C35.9106 61.7671 35.2893 61.9367 34.4986 61.937L29.2883 61.9384L29.2873 58.0837L34.4975 58.0822ZM32.9762 71.0872C34.1905 71.0868 35.0096 71.2843 35.4333 71.6795C35.857 72.0465 36.069 72.7807 36.0693 73.882L36.07 76.5507C36.0701 76.9178 36.155 77.2991 36.3245 77.6944C36.494 78.0614 36.7907 78.3579 37.2143 78.5837L51.2355 78.5798C50.7836 78.354 50.4305 78.0293 50.1762 77.6058C49.9219 77.1822 49.7947 76.7022 49.7946 76.1656L49.794 74.2171C49.7936 72.6356 49.6661 71.3225 49.4117 70.2777C49.1572 69.2047 48.6769 68.3294 47.9707 67.6518C47.6317 67.3412 47.1939 67.059 46.6573 66.805C46.1489 66.5509 45.5417 66.3393 44.8356 66.1701C46.7558 65.4353 48.1534 64.4324 49.0284 63.1613C49.9035 61.8903 50.3408 60.3228 50.3403 58.459C50.3396 56.1151 49.8449 54.1808 48.8561 52.6561C47.8672 51.1032 46.2007 49.9599 43.8566 49.2263C42.6704 48.8313 41.2583 48.5493 39.6204 48.3803C38.0106 48.1831 36.175 48.0848 34.1135 48.0854L16.407 48.0903L16.4156 78.5895L29.293 78.5859L29.2909 71.0882L32.9762 71.0872Z" fill="#9A3412"/>
<path d="M36.4462 58.6323L32.3648 63.0302C32.423 63.0843 32.4824 63.1372 32.5428 63.189L36.4462 58.6323ZM36.3623 61.4281L39.9637 66.2271C40.0257 66.1805 40.0869 66.1327 40.1472 66.0838L36.3623 61.4281ZM29.2883 61.9384L23.2883 61.9401C23.2893 65.2538 25.9763 67.9394 29.29 67.9384L29.2883 61.9384ZM29.2873 58.0837L29.2856 52.0837C25.9719 52.0846 23.2863 54.7716 23.2873 58.0853L29.2873 58.0837ZM35.4333 71.6795L31.3406 76.067C31.3945 76.1172 31.4493 76.1665 31.505 76.2147L35.4333 71.6795ZM36.3245 77.6944L30.8103 80.0594C30.832 80.11 30.8544 80.1603 30.8775 80.2102L36.3245 77.6944ZM37.2143 78.5837L34.3923 83.8786C35.2614 84.3418 36.2312 84.584 37.216 84.5837L37.2143 78.5837ZM51.2355 78.5798L51.2372 84.5798C54.0198 84.579 56.4368 82.665 57.0754 79.9566C57.7139 77.2482 56.4065 74.4562 53.9173 73.2124L51.2355 78.5798ZM50.1762 77.6058L55.3203 74.5174V74.5174L50.1762 77.6058ZM49.4117 70.2777L43.5736 71.6621C43.5764 71.6739 43.5792 71.6857 43.5821 71.6975L49.4117 70.2777ZM47.9707 67.6518L52.1247 63.3223C52.0914 63.2904 52.0578 63.2589 52.0238 63.2277L47.9707 67.6518ZM46.6573 66.805L43.9755 72.1723C44.0136 72.1913 44.0518 72.2099 44.0903 72.2281L46.6573 66.805ZM44.8356 66.1701L42.6912 60.5664C40.2351 61.5063 38.6772 63.9361 38.8484 66.5604C39.0195 69.1847 40.8796 71.3918 43.437 72.0048L44.8356 66.1701ZM49.0284 63.1613L44.0864 59.7589L44.0864 59.7589L49.0284 63.1613ZM48.856 52.6561L43.795 55.8788C43.8039 55.8928 43.813 55.9069 43.822 55.9209L48.856 52.6561ZM43.8566 49.2263L41.9608 54.919C41.9953 54.9305 42.0299 54.9416 42.0646 54.9525L43.8566 49.2263ZM39.6204 48.3803L38.8907 54.3358C38.9286 54.3404 38.9666 54.3447 39.0046 54.3487L39.6204 48.3803ZM16.407 48.0903L16.4053 42.0903C13.0916 42.0912 10.4061 44.7783 10.407 48.092L16.407 48.0903ZM16.4156 78.5895L10.4156 78.5912C10.4165 81.9049 13.1035 84.5904 16.4172 84.5895L16.4156 78.5895ZM29.293 78.5859L29.2947 84.5859C32.6084 84.585 35.2939 81.8979 35.293 78.5842L29.293 78.5859ZM29.2909 71.0882L29.2892 65.0882C25.9755 65.0891 23.29 67.7762 23.2909 71.0899L29.2909 71.0882ZM34.4992 64.0822C34.5732 64.0822 34.3833 64.0929 34.0323 63.9939C33.6672 63.8908 33.0166 63.6352 32.3648 63.0302L40.5277 54.2344C38.4792 52.3333 35.9599 52.0818 34.4958 52.0822L34.4992 64.0822ZM32.5428 63.189C32.0937 62.8043 31.6785 62.2794 31.3949 61.6317C31.117 60.9969 31.0398 60.4151 31.0397 59.9894L43.0397 59.986C43.0391 57.8374 42.1977 55.6588 40.3497 54.0757L32.5428 63.189ZM31.0397 59.9894C31.0395 59.5073 31.1357 58.8881 31.4408 58.2393C31.7475 57.5872 32.1731 57.1012 32.5775 56.7725L40.1472 66.0838C42.0309 64.5523 43.0403 62.3467 43.0397 59.986L31.0397 59.9894ZM32.761 56.6291C33.6906 55.9315 34.4961 55.937 34.4969 55.937L34.5003 67.937C36.0825 67.9365 38.1306 67.6027 39.9637 66.2271L32.761 56.6291ZM34.4969 55.937L29.2866 55.9384L29.29 67.9384L34.5003 67.937L34.4969 55.937ZM35.2883 61.9367L35.2873 58.082L23.2873 58.0853L23.2883 61.9401L35.2883 61.9367ZM29.2889 64.0837L34.4992 64.0822L34.4958 52.0822L29.2856 52.0837L29.2889 64.0837ZM32.9779 77.0872C33.2997 77.0871 33.2997 77.1172 33.095 77.0679C32.9261 77.0272 32.1514 76.8233 31.3406 76.067L39.5259 67.292C38.2915 66.1405 36.8953 65.6403 35.9074 65.4021C34.8837 65.1553 33.867 65.0869 32.9745 65.0872L32.9779 77.0872ZM31.505 76.2147C30.5754 75.4096 30.248 74.5246 30.1456 74.17C30.0434 73.8162 30.0692 73.6707 30.0693 73.8837L42.0693 73.8804C42.0689 72.5407 41.9195 69.3599 39.3616 67.1443L31.505 76.2147ZM30.0693 73.8837L30.07 76.5524L42.07 76.549L42.0693 73.8804L30.0693 73.8837ZM30.07 76.5524C30.0704 77.8593 30.3747 79.0439 30.8103 80.0594L41.8387 75.3293C41.9352 75.5542 42.0699 75.9764 42.07 76.549L30.07 76.5524ZM30.8775 80.2102C31.6931 81.9761 33.0375 83.1565 34.3923 83.8786L40.0364 73.2888C40.5438 73.5592 41.295 74.1468 41.7716 75.1785L30.8775 80.2102ZM37.216 84.5837L51.2372 84.5798L51.2338 72.5798L37.2126 72.5837L37.216 84.5837ZM53.9173 73.2124C54.4617 73.4845 54.9733 73.9394 55.3203 74.5174L45.0321 80.6942C45.8876 82.1192 47.1054 83.2234 48.5537 83.9471L53.9173 73.2124ZM55.3203 74.5174C55.6736 75.1059 55.7944 75.71 55.7946 76.164L43.7946 76.1673C43.795 77.6944 44.1702 79.2586 45.0321 80.6942L55.3203 74.5174ZM55.7946 76.164L55.794 74.2154L43.794 74.2188L43.7946 76.1673L55.7946 76.164ZM55.794 74.2154C55.7935 72.3576 55.6482 70.5287 55.2413 68.858L43.5821 71.6975C43.6841 72.1163 43.7936 72.9137 43.794 74.2188L55.794 74.2154ZM55.2498 68.8933C54.7638 66.8438 53.7665 64.8976 52.1247 63.3223L43.8167 71.9813C43.721 71.8895 43.6476 71.7887 43.6005 71.7029C43.556 71.6217 43.5579 71.5959 43.5736 71.6621L55.2498 68.8933ZM52.0238 63.2277C51.135 62.4135 50.1542 61.822 49.2243 61.3818L44.0903 72.2281C44.1544 72.2585 44.1653 72.2683 44.1368 72.2499C44.1082 72.2315 44.0278 72.1768 43.9176 72.0759L52.0238 63.2277ZM49.3391 61.4376C48.3277 60.9323 47.2685 60.5833 46.2342 60.3354L43.437 72.0048C43.6197 72.0486 43.7537 72.0893 43.8459 72.1215C43.9386 72.1538 43.9779 72.1735 43.9755 72.1723L49.3391 61.4376ZM46.98 71.7738C49.6634 70.7469 52.2119 69.118 53.9704 66.5638L44.0864 59.7589C44.084 59.7624 44.0261 59.8483 43.8258 59.992C43.617 60.1419 43.261 60.3483 42.6912 60.5664L46.98 71.7738ZM53.9704 66.5638C55.6674 64.0989 56.3411 61.2801 56.3403 58.4573L44.3403 58.4607C44.3405 59.3656 44.1396 59.6817 44.0864 59.7589L53.9704 66.5638ZM56.3403 58.4573C56.3394 55.287 55.6681 52.1329 53.8901 49.3913L43.822 55.9209C44.0217 56.2287 44.3399 56.9431 44.3403 58.4607L56.3403 58.4573ZM53.9171 49.4334C51.9462 46.3381 48.8887 44.5142 45.6486 43.5002L42.0646 54.9525C43.5128 55.4057 43.7883 55.8682 43.795 55.8788L53.9171 49.4334ZM45.7524 43.5337C44.044 42.9648 42.1811 42.6127 40.2361 42.412L39.0046 54.3487C40.3356 54.486 41.2968 54.6978 41.9608 54.919L45.7524 43.5337ZM40.35 42.4249C38.443 42.1912 36.3558 42.0847 34.1118 42.0854L34.1152 54.0854C35.9943 54.0848 37.5782 54.175 38.8907 54.3358L40.35 42.4249ZM34.1118 42.0854L16.4053 42.0903L16.4087 54.0903L34.1152 54.0854L34.1118 42.0854ZM10.407 48.092L10.4156 78.5912L22.4156 78.5878L22.407 48.0886L10.407 48.092ZM16.4172 84.5895L29.2947 84.5859L29.2913 72.5859L16.4139 72.5895L16.4172 84.5895ZM35.293 78.5842L35.2909 71.0865L23.2909 71.0899L23.293 78.5876L35.293 78.5842ZM29.2926 77.0882L32.9779 77.0872L32.9745 65.0872L29.2892 65.0882L29.2926 77.0882Z" fill="#E2E8F0" mask="url(#path-24-outside-1_1230_304258)"/>
</g>
</g>
<g filter="url(#filter15_i_1230_304258)">
<path d="M0.0843195 47.9128C-0.492672 45.0279 2.03758 40.3674 3.23564 38.0292C3.61341 37.2919 4.50589 36.6628 5.33432 36.6628H63.0842C64.8342 36.6628 68.4842 38.9128 69.0842 47.9128C69.8342 59.1628 62.3342 47.9128 58.5842 47.9128C54.8342 47.9128 49.5842 41.1628 45.0842 47.9128C40.5842 54.6628 34.5842 47.9128 20.3342 47.9128C6.08423 47.9128 0.83432 51.6628 0.0843195 47.9128Z" fill="#D9D9D9"/>
</g>
<defs>
<filter id="filter0_ii_1230_304258" x="3.09155" y="-7.5" width="64.842" height="99.8184" filterUnits="userSpaceOnUse" color-interpolation-filters="sRGB">
<feFlood flood-opacity="0" result="BackgroundImageFix"/>
<feBlend mode="normal" in="SourceGraphic" in2="BackgroundImageFix" result="shape"/>
<feColorMatrix in="SourceAlpha" type="matrix" values="0 0 0 0 0 0 0 0 0 0 0 0 0 0 0 0 0 0 127 0" result="hardAlpha"/>
<feOffset dx="6" dy="-7.5"/>
<feGaussianBlur stdDeviation="6"/>
<feComposite in2="hardAlpha" operator="arithmetic" k2="-1" k3="1"/>
<feColorMatrix type="matrix" values="0 0 0 0 0 0 0 0 0 0 0 0 0 0 0 0 0 0 0.25 0"/>
<feBlend mode="normal" in2="shape" result="effect1_innerShadow_1230_304258"/>
<feColorMatrix in="SourceAlpha" type="matrix" values="0 0 0 0 0 0 0 0 0 0 0 0 0 0 0 0 0 0 127 0" result="hardAlpha"/>
<feOffset dx="-1.5" dy="7.5"/>
<feGaussianBlur stdDeviation="3"/>
<feComposite in2="hardAlpha" operator="arithmetic" k2="-1" k3="1"/>
<feColorMatrix type="matrix" values="0 0 0 0 1 0 0 0 0 1 0 0 0 0 1 0 0 0 0.25 0"/>
<feBlend mode="normal" in2="effect1_innerShadow_1230_304258" result="effect2_innerShadow_1230_304258"/>
</filter>
<filter id="filter1_i_1230_304258" x="5.43433" y="15.5183" width="56.4714" height="65.7429" filterUnits="userSpaceOnUse" color-interpolation-filters="sRGB">
<feFlood flood-opacity="0" result="BackgroundImageFix"/>
<feBlend mode="normal" in="SourceGraphic" in2="BackgroundImageFix" result="shape"/>
<feColorMatrix in="SourceAlpha" type="matrix" values="0 0 0 0 0 0 0 0 0 0 0 0 0 0 0 0 0 0 127 0" result="hardAlpha"/>
<feOffset dx="93.5571" dy="-76.7"/>
<feComposite in2="hardAlpha" operator="arithmetic" k2="-1" k3="1"/>
<feColorMatrix type="matrix" values="0 0 0 0 0 0 0 0 0 0 0 0 0 0 0 0 0 0 0.25 0"/>
<feBlend mode="normal" in2="shape" result="effect1_innerShadow_1230_304258"/>
</filter>
<filter id="filter2_iii_1230_304258" x="32.4059" y="55.9754" width="31.1858" height="32.0287" filterUnits="userSpaceOnUse" color-interpolation-filters="sRGB">
<feFlood flood-opacity="0" result="BackgroundImageFix"/>
<feBlend mode="normal" in="SourceGraphic" in2="BackgroundImageFix" result="shape"/>
<feColorMatrix in="SourceAlpha" type="matrix" values="0 0 0 0 0 0 0 0 0 0 0 0 0 0 0 0 0 0 127 0" result="hardAlpha"/>
<feOffset dy="2.52857"/>
<feGaussianBlur stdDeviation="0.842857"/>
<feComposite in2="hardAlpha" operator="arithmetic" k2="-1" k3="1"/>
<feColorMatrix type="matrix" values="0 0 0 0 0 0 0 0 0 0 0 0 0 0 0 0 0 0 0.25 0"/>
<feBlend mode="normal" in2="shape" result="effect1_innerShadow_1230_304258"/>
<feColorMatrix in="SourceAlpha" type="matrix" values="0 0 0 0 0 0 0 0 0 0 0 0 0 0 0 0 0 0 127 0" result="hardAlpha"/>
<feOffset dx="1.68571" dy="-1.68571"/>
<feGaussianBlur stdDeviation="1.26429"/>
<feComposite in2="hardAlpha" operator="arithmetic" k2="-1" k3="1"/>
<feColorMatrix type="matrix" values="0 0 0 0 0 0 0 0 0 0 0 0 0 0 0 0 0 0 0.25 0"/>
<feBlend mode="normal" in2="effect1_innerShadow_1230_304258" result="effect2_innerShadow_1230_304258"/>
<feColorMatrix in="SourceAlpha" type="matrix" values="0 0 0 0 0 0 0 0 0 0 0 0 0 0 0 0 0 0 127 0" result="hardAlpha"/>
<feOffset dx="-0.842857" dy="-1.68571"/>
<feGaussianBlur stdDeviation="1.26429"/>
<feComposite in2="hardAlpha" operator="arithmetic" k2="-1" k3="1"/>
<feColorMatrix type="matrix" values="0 0 0 0 0 0 0 0 0 0 0 0 0 0 0 0 0 0 0.25 0"/>
<feBlend mode="normal" in2="effect2_innerShadow_1230_304258" result="effect3_innerShadow_1230_304258"/>
</filter>
<filter id="filter3_iii_1230_304258" x="3.7487" y="55.9754" width="31.1858" height="32.0287" filterUnits="userSpaceOnUse" color-interpolation-filters="sRGB">
<feFlood flood-opacity="0" result="BackgroundImageFix"/>
<feBlend mode="normal" in="SourceGraphic" in2="BackgroundImageFix" result="shape"/>
<feColorMatrix in="SourceAlpha" type="matrix" values="0 0 0 0 0 0 0 0 0 0 0 0 0 0 0 0 0 0 127 0" result="hardAlpha"/>
<feOffset dy="2.52857"/>
<feGaussianBlur stdDeviation="0.842857"/>
<feComposite in2="hardAlpha" operator="arithmetic" k2="-1" k3="1"/>
<feColorMatrix type="matrix" values="0 0 0 0 0 0 0 0 0 0 0 0 0 0 0 0 0 0 0.25 0"/>
<feBlend mode="normal" in2="shape" result="effect1_innerShadow_1230_304258"/>
<feColorMatrix in="SourceAlpha" type="matrix" values="0 0 0 0 0 0 0 0 0 0 0 0 0 0 0 0 0 0 127 0" result="hardAlpha"/>
<feOffset dx="1.68571" dy="-1.68571"/>
<feGaussianBlur stdDeviation="1.26429"/>
<feComposite in2="hardAlpha" operator="arithmetic" k2="-1" k3="1"/>
<feColorMatrix type="matrix" values="0 0 0 0 0 0 0 0 0 0 0 0 0 0 0 0 0 0 0.25 0"/>
<feBlend mode="normal" in2="effect1_innerShadow_1230_304258" result="effect2_innerShadow_1230_304258"/>
<feColorMatrix in="SourceAlpha" type="matrix" values="0 0 0 0 0 0 0 0 0 0 0 0 0 0 0 0 0 0 127 0" result="hardAlpha"/>
<feOffset dx="-0.842857" dy="-1.68571"/>
<feGaussianBlur stdDeviation="1.26429"/>
<feComposite in2="hardAlpha" operator="arithmetic" k2="-1" k3="1"/>
<feColorMatrix type="matrix" values="0 0 0 0 0 0 0 0 0 0 0 0 0 0 0 0 0 0 0.25 0"/>
<feBlend mode="normal" in2="effect2_innerShadow_1230_304258" result="effect3_innerShadow_1230_304258"/>
</filter>
<filter id="filter4_iii_1230_304258" x="3.7487" y="27.3184" width="31.1858" height="32.0287" filterUnits="userSpaceOnUse" color-interpolation-filters="sRGB">
<feFlood flood-opacity="0" result="BackgroundImageFix"/>
<feBlend mode="normal" in="SourceGraphic" in2="BackgroundImageFix" result="shape"/>
<feColorMatrix in="SourceAlpha" type="matrix" values="0 0 0 0 0 0 0 0 0 0 0 0 0 0 0 0 0 0 127 0" result="hardAlpha"/>
<feOffset dy="2.52857"/>
<feGaussianBlur stdDeviation="0.842857"/>
<feComposite in2="hardAlpha" operator="arithmetic" k2="-1" k3="1"/>
<feColorMatrix type="matrix" values="0 0 0 0 0 0 0 0 0 0 0 0 0 0 0 0 0 0 0.25 0"/>
<feBlend mode="normal" in2="shape" result="effect1_innerShadow_1230_304258"/>
<feColorMatrix in="SourceAlpha" type="matrix" values="0 0 0 0 0 0 0 0 0 0 0 0 0 0 0 0 0 0 127 0" result="hardAlpha"/>
<feOffset dx="1.68571" dy="-1.68571"/>
<feGaussianBlur stdDeviation="1.26429"/>
<feComposite in2="hardAlpha" operator="arithmetic" k2="-1" k3="1"/>
<feColorMatrix type="matrix" values="0 0 0 0 0 0 0 0 0 0 0 0 0 0 0 0 0 0 0.25 0"/>
<feBlend mode="normal" in2="effect1_innerShadow_1230_304258" result="effect2_innerShadow_1230_304258"/>
<feColorMatrix in="SourceAlpha" type="matrix" values="0 0 0 0 0 0 0 0 0 0 0 0 0 0 0 0 0 0 127 0" result="hardAlpha"/>
<feOffset dx="-0.842857" dy="-1.68571"/>
<feGaussianBlur stdDeviation="1.26429"/>
<feComposite in2="hardAlpha" operator="arithmetic" k2="-1" k3="1"/>
<feColorMatrix type="matrix" values="0 0 0 0 0 0 0 0 0 0 0 0 0 0 0 0 0 0 0.25 0"/>
<feBlend mode="normal" in2="effect2_innerShadow_1230_304258" result="effect3_innerShadow_1230_304258"/>
</filter>
<filter id="filter5_iii_1230_304258" x="32.4059" y="27.3184" width="31.1858" height="32.0287" filterUnits="userSpaceOnUse" color-interpolation-filters="sRGB">
<feFlood flood-opacity="0" result="BackgroundImageFix"/>
<feBlend mode="normal" in="SourceGraphic" in2="BackgroundImageFix" result="shape"/>
<feColorMatrix in="SourceAlpha" type="matrix" values="0 0 0 0 0 0 0 0 0 0 0 0 0 0 0 0 0 0 127 0" result="hardAlpha"/>
<feOffset dy="2.52857"/>
<feGaussianBlur stdDeviation="0.842857"/>
<feComposite in2="hardAlpha" operator="arithmetic" k2="-1" k3="1"/>
<feColorMatrix type="matrix" values="0 0 0 0 0 0 0 0 0 0 0 0 0 0 0 0 0 0 0.25 0"/>
<feBlend mode="normal" in2="shape" result="effect1_innerShadow_1230_304258"/>
<feColorMatrix in="SourceAlpha" type="matrix" values="0 0 0 0 0 0 0 0 0 0 0 0 0 0 0 0 0 0 127 0" result="hardAlpha"/>
<feOffset dx="1.68571" dy="-1.68571"/>
<feGaussianBlur stdDeviation="1.26429"/>
<feComposite in2="hardAlpha" operator="arithmetic" k2="-1" k3="1"/>
<feColorMatrix type="matrix" values="0 0 0 0 0 0 0 0 0 0 0 0 0 0 0 0 0 0 0.25 0"/>
<feBlend mode="normal" in2="effect1_innerShadow_1230_304258" result="effect2_innerShadow_1230_304258"/>
<feColorMatrix in="SourceAlpha" type="matrix" values="0 0 0 0 0 0 0 0 0 0 0 0 0 0 0 0 0 0 127 0" result="hardAlpha"/>
<feOffset dx="-0.842857" dy="-1.68571"/>
<feGaussianBlur stdDeviation="1.26429"/>
<feComposite in2="hardAlpha" operator="arithmetic" k2="-1" k3="1"/>
<feColorMatrix type="matrix" values="0 0 0 0 0 0 0 0 0 0 0 0 0 0 0 0 0 0 0.25 0"/>
<feBlend mode="normal" in2="effect2_innerShadow_1230_304258" result="effect3_innerShadow_1230_304258"/>
</filter>
<filter id="filter6_ii_1230_304258" x="3.7487" y="-1.33903" width="31.1858" height="30.3429" filterUnits="userSpaceOnUse" color-interpolation-filters="sRGB">
<feFlood flood-opacity="0" result="BackgroundImageFix"/>
<feBlend mode="normal" in="SourceGraphic" in2="BackgroundImageFix" result="shape"/>
<feColorMatrix in="SourceAlpha" type="matrix" values="0 0 0 0 0 0 0 0 0 0 0 0 0 0 0 0 0 0 127 0" result="hardAlpha"/>
<feOffset dx="1.68571" dy="-1.68571"/>
<feGaussianBlur stdDeviation="1.26429"/>
<feComposite in2="hardAlpha" operator="arithmetic" k2="-1" k3="1"/>
<feColorMatrix type="matrix" values="0 0 0 0 0 0 0 0 0 0 0 0 0 0 0 0 0 0 0.25 0"/>
<feBlend mode="normal" in2="shape" result="effect1_innerShadow_1230_304258"/>
<feColorMatrix in="SourceAlpha" type="matrix" values="0 0 0 0 0 0 0 0 0 0 0 0 0 0 0 0 0 0 127 0" result="hardAlpha"/>
<feOffset dx="-0.842857" dy="-1.68571"/>
<feGaussianBlur stdDeviation="1.26429"/>
<feComposite in2="hardAlpha" operator="arithmetic" k2="-1" k3="1"/>
<feColorMatrix type="matrix" values="0 0 0 0 0 0 0 0 0 0 0 0 0 0 0 0 0 0 0.25 0"/>
<feBlend mode="normal" in2="effect1_innerShadow_1230_304258" result="effect2_innerShadow_1230_304258"/>
</filter>
<filter id="filter7_ii_1230_304258" x="32.4059" y="-1.33903" width="31.1858" height="30.3429" filterUnits="userSpaceOnUse" color-interpolation-filters="sRGB">
<feFlood flood-opacity="0" result="BackgroundImageFix"/>
<feBlend mode="normal" in="SourceGraphic" in2="BackgroundImageFix" result="shape"/>
<feColorMatrix in="SourceAlpha" type="matrix" values="0 0 0 0 0 0 0 0 0 0 0 0 0 0 0 0 0 0 127 0" result="hardAlpha"/>
<feOffset dx="1.68571" dy="-1.68571"/>
<feGaussianBlur stdDeviation="1.26429"/>
<feComposite in2="hardAlpha" operator="arithmetic" k2="-1" k3="1"/>
<feColorMatrix type="matrix" values="0 0 0 0 0 0 0 0 0 0 0 0 0 0 0 0 0 0 0.25 0"/>
<feBlend mode="normal" in2="shape" result="effect1_innerShadow_1230_304258"/>
<feColorMatrix in="SourceAlpha" type="matrix" values="0 0 0 0 0 0 0 0 0 0 0 0 0 0 0 0 0 0 127 0" result="hardAlpha"/>
<feOffset dx="-0.842857" dy="-1.68571"/>
<feGaussianBlur stdDeviation="1.26429"/>
<feComposite in2="hardAlpha" operator="arithmetic" k2="-1" k3="1"/>
<feColorMatrix type="matrix" values="0 0 0 0 0 0 0 0 0 0 0 0 0 0 0 0 0 0 0.25 0"/>
<feBlend mode="normal" in2="effect1_innerShadow_1230_304258" result="effect2_innerShadow_1230_304258"/>
</filter>
<filter id="filter8_f_1230_304258" x="4.59155" y="3" width="28.842" height="4.31421" filterUnits="userSpaceOnUse" color-interpolation-filters="sRGB">
<feFlood flood-opacity="0" result="BackgroundImageFix"/>
<feBlend mode="normal" in="SourceGraphic" in2="BackgroundImageFix" result="shape"/>
<feGaussianBlur stdDeviation="0.75" result="effect1_foregroundBlur_1230_304258"/>
</filter>
<filter id="filter9_f_1230_304258" x="4.50464" y="29.9058" width="28.842" height="4.31421" filterUnits="userSpaceOnUse" color-interpolation-filters="sRGB">
<feFlood flood-opacity="0" result="BackgroundImageFix"/>
<feBlend mode="normal" in="SourceGraphic" in2="BackgroundImageFix" result="shape"/>
<feGaussianBlur stdDeviation="0.75" result="effect1_foregroundBlur_1230_304258"/>
</filter>
<filter id="filter10_f_1230_304258" x="4.37378" y="57.9277" width="28.842" height="4.31421" filterUnits="userSpaceOnUse" color-interpolation-filters="sRGB">
<feFlood flood-opacity="0" result="BackgroundImageFix"/>
<feBlend mode="normal" in="SourceGraphic" in2="BackgroundImageFix" result="shape"/>
<feGaussianBlur stdDeviation="0.75" result="effect1_foregroundBlur_1230_304258"/>
</filter>
<filter id="filter11_f_1230_304258" x="34.5916" y="3" width="28.842" height="4.31421" filterUnits="userSpaceOnUse" color-interpolation-filters="sRGB">
<feFlood flood-opacity="0" result="BackgroundImageFix"/>
<feBlend mode="normal" in="SourceGraphic" in2="BackgroundImageFix" result="shape"/>
<feGaussianBlur stdDeviation="0.75" result="effect1_foregroundBlur_1230_304258"/>
</filter>
<filter id="filter12_f_1230_304258" x="32.5266" y="30.0364" width="28.842" height="4.31421" filterUnits="userSpaceOnUse" color-interpolation-filters="sRGB">
<feFlood flood-opacity="0" result="BackgroundImageFix"/>
<feBlend mode="normal" in="SourceGraphic" in2="BackgroundImageFix" result="shape"/>
<feGaussianBlur stdDeviation="0.75" result="effect1_foregroundBlur_1230_304258"/>
</filter>
<filter id="filter13_f_1230_304258" x="32.3958" y="58.0586" width="28.842" height="4.31421" filterUnits="userSpaceOnUse" color-interpolation-filters="sRGB">
<feFlood flood-opacity="0" result="BackgroundImageFix"/>
<feBlend mode="normal" in="SourceGraphic" in2="BackgroundImageFix" result="shape"/>
<feGaussianBlur stdDeviation="0.75" result="effect1_foregroundBlur_1230_304258"/>
</filter>
<filter id="filter14_i_1230_304258" x="3.83423" y="31.4128" width="63" height="58.5" filterUnits="userSpaceOnUse" color-interpolation-filters="sRGB">
<feFlood flood-opacity="0" result="BackgroundImageFix"/>
<feBlend mode="normal" in="SourceGraphic" in2="BackgroundImageFix" result="shape"/>
<feColorMatrix in="SourceAlpha" type="matrix" values="0 0 0 0 0 0 0 0 0 0 0 0 0 0 0 0 0 0 127 0" result="hardAlpha"/>
<feOffset dx="4.5" dy="-6"/>
<feGaussianBlur stdDeviation="3.75"/>
<feComposite in2="hardAlpha" operator="arithmetic" k2="-1" k3="1"/>
<feColorMatrix type="matrix" values="0 0 0 0 0 0 0 0 0 0 0 0 0 0 0 0 0 0 0.25 0"/>
<feBlend mode="normal" in2="shape" result="effect1_innerShadow_1230_304258"/>
</filter>
<filter id="filter15_i_1230_304258" x="0" y="36.6628" width="72.1365" height="19.25" filterUnits="userSpaceOnUse" color-interpolation-filters="sRGB">
<feFlood flood-opacity="0" result="BackgroundImageFix"/>
<feBlend mode="normal" in="SourceGraphic" in2="BackgroundImageFix" result="shape"/>
<feColorMatrix in="SourceAlpha" type="matrix" values="0 0 0 0 0 0 0 0 0 0 0 0 0 0 0 0 0 0 127 0" result="hardAlpha"/>
<feOffset dx="3" dy="3"/>
<feGaussianBlur stdDeviation="3.75"/>
<feComposite in2="hardAlpha" operator="arithmetic" k2="-1" k3="1"/>
<feColorMatrix type="matrix" values="0 0 0 0 0 0 0 0 0 0 0 0 0 0 0 0 0 0 0.25 0"/>
<feBlend mode="normal" in2="shape" result="effect1_innerShadow_1230_304258"/>
</filter>
</defs>
</svg>
