<svg width="68" height="81" viewBox="0 0 68 81" fill="none" xmlns="http://www.w3.org/2000/svg">
<g filter="url(#filter0_d_1230_304177)">
<g filter="url(#filter1_iiii_1230_304177)">
<path fill-rule="evenodd" clip-rule="evenodd" d="M33.75 77.1233C52.3896 77.1233 67.5 62.0129 67.5 43.3733C67.5 24.7337 52.3896 9.62329 33.75 9.62329C15.1104 9.62329 0 24.7337 0 43.3733C0 62.0129 15.1104 77.1233 33.75 77.1233ZM33.75 54.0068C39.6228 54.0068 44.3836 49.246 44.3836 43.3733C44.3836 37.5005 39.6228 32.7397 33.75 32.7397C27.8773 32.7397 23.1165 37.5005 23.1165 43.3733C23.1165 49.246 27.8773 54.0068 33.75 54.0068Z" fill="#A6815E"/>
</g>
<g filter="url(#filter2_ii_1230_304177)">
<path fill-rule="evenodd" clip-rule="evenodd" d="M33.75 68.3733C52.3896 68.3733 67.5 53.2629 67.5 34.6233C67.5 15.9837 52.3896 0.873291 33.75 0.873291C15.1104 0.873291 0 15.9837 0 34.6233C0 53.2629 15.1104 68.3733 33.75 68.3733ZM33.75 45.2568C39.6228 45.2568 44.3836 40.496 44.3836 34.6233C44.3836 28.7505 39.6228 23.9897 33.75 23.9897C27.8773 23.9897 23.1165 28.7505 23.1165 34.6233C23.1165 40.496 27.8773 45.2568 33.75 45.2568Z" fill="#C8A078"/>
</g>
</g>
<g filter="url(#filter3_ii_1230_304177)">
<path fill-rule="evenodd" clip-rule="evenodd" d="M44.4674 3.73359C40.8848 2.12766 37.6093 2.13497 33.966 3.49238C33.7138 3.58635 33.4482 3.67189 33.1699 3.75C33.1549 3.74999 33.1399 3.74998 33.125 3.74998C29.6077 3.74998 25.9699 4.06422 22.5497 4.8607C21.9171 4.91124 21.2869 4.96925 20.6673 5.03885C15.7612 5.58991 10.5604 6.9434 8.39565 11.9339C7.23397 14.612 6.45125 17.2767 5.72531 19.8715C5.63924 20.1791 5.55404 20.4855 5.46915 20.7907L5.46871 20.7923C4.8322 23.0811 4.21338 25.3062 3.37959 27.5274L3.29985 27.7398L3.29986 27.9667C3.29989 28.7573 2.98005 29.6857 2.46116 30.9172C2.3814 31.1065 2.29711 31.3026 2.21026 31.5046C1.76876 32.5316 1.26131 33.712 0.94857 34.934C0.563968 36.4368 0.439623 38.1072 1.04141 39.8753C1.6347 41.6184 2.88751 43.3211 5.00609 45.0012C6.22275 46.2494 7.17431 47.3199 7.94774 48.2797C8.67675 49.4155 9.45067 50.5299 10.2533 51.6104C10.4791 51.9981 10.689 52.38 10.8936 52.7641C11.1269 53.2022 11.356 53.6493 11.5946 54.1151C12.5772 56.0329 13.723 58.2691 15.999 61.5079C17.8467 64.1373 21.3794 65.5718 25.4338 66.0569C29.5413 66.5483 34.4434 66.103 39.3922 64.7085L39.4849 64.6824L39.5724 64.6424C43.0277 63.0646 45.5253 61.3125 47.5757 59.8741L47.5758 59.874C47.8312 59.6948 48.0797 59.5205 48.3222 59.352C50.5479 57.8056 52.1543 56.8433 54.1049 56.6834C57.0743 56.44 59.2699 54.9389 60.8203 52.8102C62.3428 50.7196 63.2483 48.0261 63.7645 45.2838C64.7961 39.8042 64.3481 33.7121 63.6832 30.6465C63.5967 30.2476 63.4239 29.7482 63.2567 29.2816C63.2036 29.1336 63.1497 28.985 63.0955 28.8357L63.0954 28.8355C62.9662 28.4797 62.8357 28.1201 62.7125 27.7548C62.538 27.2378 62.4 26.7711 62.3259 26.3885C62.2676 26.0873 62.2701 25.9379 62.2709 25.8926C62.2711 25.8823 62.2711 25.8774 62.2704 25.8773C62.2697 25.8771 62.2683 25.8811 62.2657 25.8887L62.265 25.8906C63.2792 22.9811 62.5524 20.1537 61.2448 17.7171C59.9423 15.29 57.9897 13.1058 56.2944 11.3688C53.1547 8.15192 48.3586 5.47787 44.4674 3.73359ZM56.4108 53.4785C56.5237 53.4187 56.6344 53.3555 56.743 53.2891C56.632 53.3524 56.5213 53.4155 56.4108 53.4785ZM3.1405 36.9141C3.12548 37.1247 3.1211 37.3349 3.12861 37.5451C3.13119 37.3371 3.13515 37.1267 3.1405 36.9141ZM3.29943 38.7096C3.331 38.8295 3.36714 38.9495 3.40808 39.0698C3.42977 39.1335 3.45294 39.1977 3.47767 39.2624C3.41605 39.0778 3.35662 38.8936 3.29943 38.7096ZM43.125 33.75C43.125 39.2728 38.6478 43.75 33.125 43.75C27.6021 43.75 23.125 39.2728 23.125 33.75C23.125 28.2271 27.6021 23.75 33.125 23.75C38.6478 23.75 43.125 28.2271 43.125 33.75Z" fill="#F7F1EB"/>
</g>
<path fill-rule="evenodd" clip-rule="evenodd" d="M61.9773 16.2302C62.8703 19.064 63.3644 21.5713 63.5441 23.7029C63.8554 27.3946 63.2088 29.7291 62.3356 30.791C61.9331 31.2804 61.5119 31.4729 61.0854 31.4929C60.6262 31.5145 59.9784 31.3428 59.1585 30.7455C57.4956 29.5341 55.4791 26.8209 53.5755 22.1343C53.287 21.4238 52.9398 20.2549 52.5 18.774L52.346 18.2557C51.8445 16.5708 51.2481 14.6082 50.5439 12.7375C49.8444 10.8795 49.0112 9.03636 48.011 7.61979C47.0388 6.24306 45.712 4.99383 43.9617 4.89243C41.87 4.77126 40.242 5.55746 39.1574 7.08923C38.1413 8.5242 37.6791 10.5034 37.5174 12.6802C37.2733 15.9641 37.6906 20.105 38.3918 24.5103C39.5264 25.1584 40.5302 26.0095 41.3536 27.0142C40.3728 21.5567 39.7372 16.5428 40.0105 12.8655C40.1602 10.8511 40.5729 9.41632 41.1977 8.53394C41.754 7.74834 42.533 7.31386 43.8171 7.38825C44.396 7.42179 45.1245 7.86612 45.9688 9.06182C46.7849 10.2177 47.5294 11.8258 48.2042 13.6183C48.8742 15.3979 49.4486 17.2849 49.9498 18.9688C50.0034 19.1487 50.0563 19.3271 50.1086 19.5036L50.111 19.5116L50.111 19.5117C50.5358 20.9433 50.9213 22.2429 51.2593 23.0751C53.2317 27.9313 55.4701 31.1515 57.6865 32.7662C58.8063 33.5819 60.0043 34.0465 61.2027 33.9902C62.4338 33.9323 63.482 33.3329 64.2665 32.3789C65.3568 31.0531 65.9703 29.0237 66.098 26.5157C65.292 22.8252 63.8822 19.3605 61.9773 16.2302ZM43.3038 36.8367C42.9145 38.1223 42.2883 39.305 41.476 40.3339C41.9244 42.5122 42.3443 44.6091 42.6956 46.5656C43.1683 49.1982 43.5098 51.54 43.6315 53.4551C43.7567 55.4254 43.6318 56.7428 43.3292 57.4579C42.9637 58.322 42.6378 58.7052 42.4369 58.8517C42.3183 58.9381 42.2557 58.95 42.1011 58.8943C41.8594 58.8071 41.4714 58.5475 40.9491 57.9624C40.4425 57.3949 39.8868 56.6094 39.2883 55.6154C37.6509 52.8956 35.8614 48.9054 33.9971 44.3484C33.7095 44.3718 33.4187 44.3837 33.1252 44.3837C32.4836 44.3837 31.8552 44.3269 31.2449 44.218C33.2826 49.2601 35.2878 53.8175 37.1465 56.9049C37.7881 57.9705 38.4347 58.8998 39.0841 59.6273C39.7178 60.3371 40.4395 60.9526 41.2529 61.246C42.1534 61.5708 43.0912 61.4686 43.9099 60.8717C44.6463 60.3347 45.1946 59.465 45.6316 58.432C46.1805 57.1347 46.2537 55.2996 46.1265 53.2966C45.9957 51.2384 45.6343 48.7862 45.1562 46.1238C44.6774 43.4566 44.0746 40.5418 43.4534 37.5555L43.3551 37.083L43.355 37.0827C43.338 37.0008 43.3209 36.9188 43.3038 36.8367ZM24.6446 27.3341C25.1967 26.6055 25.8404 25.9504 26.5586 25.3857C25.3432 22.3555 24.1476 19.5061 22.9969 17.0454C21.6844 14.2386 20.3897 11.8462 19.1452 10.2504C18.5276 9.45849 17.8548 8.77306 17.1212 8.3561C16.3477 7.91643 15.416 7.73537 14.4867 8.16605C12.8845 8.90858 11.9331 10.3418 11.413 12.0368C10.8982 13.7143 10.7645 15.7647 10.8601 17.9977C11.0516 22.4697 12.1846 28.0438 13.5116 33.6544C14.0666 36.0005 14.6528 38.3435 15.2252 40.631C16.0381 43.8797 16.823 47.0163 17.4501 49.8904C17.9809 52.3228 18.3848 54.5091 18.5851 56.3438C18.789 58.2113 18.7651 59.5814 18.5331 60.4495C18.4226 60.8632 18.3122 61.0471 18.2567 61.1201C18.2001 61.1057 18.1006 61.0697 17.9461 60.9818C17.5626 60.7636 17.0657 60.3447 16.4747 59.7123C15.8954 59.0924 15.2765 58.323 14.6429 57.4631C13.3755 55.7429 12.1 53.7306 11.0227 51.9769C10.7132 51.4732 10.4155 50.9828 10.1376 50.5251C9.47587 49.4351 8.9266 48.5305 8.59949 48.072C6.9625 45.7778 6.25948 43.1907 5.53757 40.3446L5.45322 40.0115C4.77118 37.3155 4.03068 34.3884 2.30099 31.7034C1.92712 31.123 1.15357 30.9556 0.573212 31.3295C-0.00714818 31.7033 -0.174547 32.4769 0.199317 33.0573C1.70315 35.3917 2.35485 37.963 3.06219 40.7537L3.11431 40.9593C3.8273 43.7702 4.61924 46.798 6.56444 49.5241C6.83518 49.9035 7.2989 50.6674 7.91894 51.6887C8.21023 52.1685 8.53601 52.7051 8.89249 53.2854C9.97681 55.0505 11.2975 57.1372 12.6303 58.9461C13.2968 59.8507 13.9791 60.7034 14.6482 61.4193C15.3056 62.1227 16.0043 62.7533 16.7099 63.1548C17.3945 63.5442 18.3495 63.8593 19.304 63.4133C20.2228 62.9841 20.6929 62.0509 20.9484 61.0949C21.3054 59.7588 21.2812 58.0036 21.0703 56.0724C20.8559 54.1084 20.4306 51.8227 19.8926 49.3574C19.2617 46.4656 18.4565 43.246 17.6329 39.9531L17.6329 39.953L17.6328 39.9525C17.0615 37.6683 16.4814 35.3488 15.9445 33.079C14.6177 27.4693 13.5381 22.1014 13.3579 17.8908C13.2676 15.7825 13.4083 14.0565 13.803 12.7701C14.1924 11.5012 14.7855 10.783 15.5379 10.4343L15.539 10.4336C15.549 10.4269 15.6208 10.3789 15.8858 10.5295C16.2041 10.7105 16.6381 11.1008 17.1738 11.7878C18.2359 13.1497 19.4337 15.3273 20.7323 18.1044C21.9893 20.7925 23.3024 23.9566 24.6446 27.3341ZM18.3168 61.1288C18.317 61.1292 18.3136 61.1296 18.3064 61.1291C18.3131 61.1283 18.3167 61.1285 18.3168 61.1288Z" fill="#713F12"/>
<defs>
<filter id="filter0_d_1230_304177" x="0" y="0.873291" width="67.5" height="79.9486" filterUnits="userSpaceOnUse" color-interpolation-filters="sRGB">
<feFlood flood-opacity="0" result="BackgroundImageFix"/>
<feColorMatrix in="SourceAlpha" type="matrix" values="0 0 0 0 0 0 0 0 0 0 0 0 0 0 0 0 0 0 127 0" result="hardAlpha"/>
<feOffset dy="3.69863"/>
<feComposite in2="hardAlpha" operator="out"/>
<feColorMatrix type="matrix" values="0 0 0 0 0 0 0 0 0 0 0 0 0 0 0 0 0 0 0.25 0"/>
<feBlend mode="normal" in2="BackgroundImageFix" result="effect1_dropShadow_1230_304177"/>
<feBlend mode="normal" in="SourceGraphic" in2="effect1_dropShadow_1230_304177" result="shape"/>
</filter>
<filter id="filter1_iiii_1230_304177" x="-0.924658" y="7.12329" width="71.1986" height="70.9247" filterUnits="userSpaceOnUse" color-interpolation-filters="sRGB">
<feFlood flood-opacity="0" result="BackgroundImageFix"/>
<feBlend mode="normal" in="SourceGraphic" in2="BackgroundImageFix" result="shape"/>
<feColorMatrix in="SourceAlpha" type="matrix" values="0 0 0 0 0 0 0 0 0 0 0 0 0 0 0 0 0 0 127 0" result="hardAlpha"/>
<feOffset dx="2.77397" dy="-1.84932"/>
<feGaussianBlur stdDeviation="2.77397"/>
<feComposite in2="hardAlpha" operator="arithmetic" k2="-1" k3="1"/>
<feColorMatrix type="matrix" values="0 0 0 0 0 0 0 0 0 0 0 0 0 0 0 0 0 0 0.25 0"/>
<feBlend mode="normal" in2="shape" result="effect1_innerShadow_1230_304177"/>
<feColorMatrix in="SourceAlpha" type="matrix" values="0 0 0 0 0 0 0 0 0 0 0 0 0 0 0 0 0 0 127 0" result="hardAlpha"/>
<feOffset dx="-0.924658" dy="0.924658"/>
<feGaussianBlur stdDeviation="0.924658"/>
<feComposite in2="hardAlpha" operator="arithmetic" k2="-1" k3="1"/>
<feColorMatrix type="matrix" values="0 0 0 0 1 0 0 0 0 1 0 0 0 0 1 0 0 0 0.4 0"/>
<feBlend mode="normal" in2="effect1_innerShadow_1230_304177" result="effect2_innerShadow_1230_304177"/>
<feColorMatrix in="SourceAlpha" type="matrix" values="0 0 0 0 0 0 0 0 0 0 0 0 0 0 0 0 0 0 127 0" result="hardAlpha"/>
<feOffset dy="-2.5"/>
<feGaussianBlur stdDeviation="1.875"/>
<feComposite in2="hardAlpha" operator="arithmetic" k2="-1" k3="1"/>
<feColorMatrix type="matrix" values="0 0 0 0 0 0 0 0 0 0 0 0 0 0 0 0 0 0 0.2 0"/>
<feBlend mode="normal" in2="effect2_innerShadow_1230_304177" result="effect3_innerShadow_1230_304177"/>
<feColorMatrix in="SourceAlpha" type="matrix" values="0 0 0 0 0 0 0 0 0 0 0 0 0 0 0 0 0 0 127 0" result="hardAlpha"/>
<feOffset dy="-1.25"/>
<feComposite in2="hardAlpha" operator="arithmetic" k2="-1" k3="1"/>
<feColorMatrix type="matrix" values="0 0 0 0 0 0 0 0 0 0 0 0 0 0 0 0 0 0 0.1 0"/>
<feBlend mode="normal" in2="effect3_innerShadow_1230_304177" result="effect4_innerShadow_1230_304177"/>
</filter>
<filter id="filter2_ii_1230_304177" x="0" y="-0.976024" width="70.274" height="71.1986" filterUnits="userSpaceOnUse" color-interpolation-filters="sRGB">
<feFlood flood-opacity="0" result="BackgroundImageFix"/>
<feBlend mode="normal" in="SourceGraphic" in2="BackgroundImageFix" result="shape"/>
<feColorMatrix in="SourceAlpha" type="matrix" values="0 0 0 0 0 0 0 0 0 0 0 0 0 0 0 0 0 0 127 0" result="hardAlpha"/>
<feOffset dx="2.77397" dy="-1.84932"/>
<feGaussianBlur stdDeviation="2.77397"/>
<feComposite in2="hardAlpha" operator="arithmetic" k2="-1" k3="1"/>
<feColorMatrix type="matrix" values="0 0 0 0 0 0 0 0 0 0 0 0 0 0 0 0 0 0 0.25 0"/>
<feBlend mode="normal" in2="shape" result="effect1_innerShadow_1230_304177"/>
<feColorMatrix in="SourceAlpha" type="matrix" values="0 0 0 0 0 0 0 0 0 0 0 0 0 0 0 0 0 0 127 0" result="hardAlpha"/>
<feOffset dy="1.84932"/>
<feGaussianBlur stdDeviation="0.924658"/>
<feComposite in2="hardAlpha" operator="arithmetic" k2="-1" k3="1"/>
<feColorMatrix type="matrix" values="0 0 0 0 1 0 0 0 0 1 0 0 0 0 1 0 0 0 0.4 0"/>
<feBlend mode="normal" in2="effect1_innerShadow_1230_304177" result="effect2_innerShadow_1230_304177"/>
</filter>
<filter id="filter3_ii_1230_304177" x="0.625" y="0.856164" width="66.2158" height="67.0377" filterUnits="userSpaceOnUse" color-interpolation-filters="sRGB">
<feFlood flood-opacity="0" result="BackgroundImageFix"/>
<feBlend mode="normal" in="SourceGraphic" in2="BackgroundImageFix" result="shape"/>
<feColorMatrix in="SourceAlpha" type="matrix" values="0 0 0 0 0 0 0 0 0 0 0 0 0 0 0 0 0 0 127 0" result="hardAlpha"/>
<feOffset dx="2.46575" dy="-1.64384"/>
<feGaussianBlur stdDeviation="2.46575"/>
<feComposite in2="hardAlpha" operator="arithmetic" k2="-1" k3="1"/>
<feColorMatrix type="matrix" values="0 0 0 0 0 0 0 0 0 0 0 0 0 0 0 0 0 0 0.25 0"/>
<feBlend mode="normal" in2="shape" result="effect1_innerShadow_1230_304177"/>
<feColorMatrix in="SourceAlpha" type="matrix" values="0 0 0 0 0 0 0 0 0 0 0 0 0 0 0 0 0 0 127 0" result="hardAlpha"/>
<feOffset dy="1.64384"/>
<feGaussianBlur stdDeviation="0.821918"/>
<feComposite in2="hardAlpha" operator="arithmetic" k2="-1" k3="1"/>
<feColorMatrix type="matrix" values="0 0 0 0 1 0 0 0 0 1 0 0 0 0 1 0 0 0 0.4 0"/>
<feBlend mode="normal" in2="effect1_innerShadow_1230_304177" result="effect2_innerShadow_1230_304177"/>
</filter>
</defs>
</svg>
