<svg width="68" height="81" viewBox="0 0 68 81" fill="none" xmlns="http://www.w3.org/2000/svg">
<g filter="url(#filter0_d_1230_304175)">
<g filter="url(#filter1_iiii_1230_304175)">
<path fill-rule="evenodd" clip-rule="evenodd" d="M33.75 77.1233C52.3896 77.1233 67.5 62.0129 67.5 43.3733C67.5 24.7337 52.3896 9.62329 33.75 9.62329C15.1104 9.62329 0 24.7337 0 43.3733C0 62.0129 15.1104 77.1233 33.75 77.1233ZM33.75 54.0068C39.6228 54.0068 44.3836 49.246 44.3836 43.3733C44.3836 37.5005 39.6228 32.7397 33.75 32.7397C27.8773 32.7397 23.1165 37.5005 23.1165 43.3733C23.1165 49.246 27.8773 54.0068 33.75 54.0068Z" fill="#A6815E"/>
</g>
<g filter="url(#filter2_ii_1230_304175)">
<path fill-rule="evenodd" clip-rule="evenodd" d="M33.75 68.3733C52.3896 68.3733 67.5 53.2629 67.5 34.6233C67.5 15.9837 52.3896 0.873291 33.75 0.873291C15.1104 0.873291 0 15.9837 0 34.6233C0 53.2629 15.1104 68.3733 33.75 68.3733ZM33.75 45.2568C39.6228 45.2568 44.3836 40.496 44.3836 34.6233C44.3836 28.7505 39.6228 23.9897 33.75 23.9897C27.8773 23.9897 23.1165 28.7505 23.1165 34.6233C23.1165 40.496 27.8773 45.2568 33.75 45.2568Z" fill="#C8A078"/>
</g>
</g>
<g filter="url(#filter3_ii_1230_304175)">
<path fill-rule="evenodd" clip-rule="evenodd" d="M45.0924 4.23017C41.5098 2.62425 38.2343 2.63155 34.591 3.98897C34.3388 4.08293 34.0732 4.16847 33.7949 4.24659C33.7799 4.24657 33.7649 4.24656 33.75 4.24656C30.2327 4.24656 26.5949 4.56081 23.1747 5.35728C22.5421 5.40783 21.9119 5.46584 21.2923 5.53543C16.3862 6.08649 11.1854 7.43998 9.02065 12.4305C7.85897 15.1085 7.07625 17.7733 6.35031 20.368C6.26424 20.6757 6.17904 20.9821 6.09415 21.2873L6.09371 21.2889C5.4572 23.5776 4.83838 25.8028 4.00459 28.0239L3.92485 28.2364L3.92486 28.4633C3.92489 29.2539 3.60505 30.1823 3.08616 31.4138C3.0064 31.6031 2.92211 31.7992 2.83526 32.0012C2.39376 33.0282 1.88631 34.2086 1.57357 35.4306C1.18897 36.9334 1.06462 38.6038 1.66641 40.3719C2.2597 42.115 3.51251 43.8177 5.63109 45.4978C6.84775 46.7459 7.79931 47.8165 8.57274 48.7763C9.30175 49.9121 10.0757 51.0265 10.8783 52.107C11.1041 52.4947 11.314 52.8765 11.5186 53.2607C11.7519 53.6988 11.981 54.1459 12.2196 54.6117C13.2022 56.5295 14.348 58.7657 16.624 62.0044C18.4717 64.6339 22.0044 66.0683 26.0588 66.5534C30.1663 67.0449 35.0684 66.5996 40.0172 65.205L40.1099 65.1789L40.1974 65.139C43.6527 63.5612 46.1503 61.8091 48.2007 60.3706L48.2008 60.3706C48.4562 60.1914 48.7047 60.0171 48.9472 59.8486C51.1729 58.3022 52.7793 57.3399 54.7299 57.18C57.6993 56.9366 59.8949 55.4355 61.4453 53.3068C62.9678 51.2162 63.8733 48.5227 64.3895 45.7804C65.4211 40.3008 64.9731 34.2087 64.3082 31.1431C64.2217 30.7442 64.0489 30.2448 63.8817 29.7782C63.8286 29.6302 63.7747 29.4816 63.7205 29.3323L63.7204 29.332C63.5912 28.9762 63.4607 28.6166 63.3375 28.2514C63.163 27.7343 63.025 27.2677 62.9509 26.8851C62.8926 26.5839 62.8951 26.4345 62.8959 26.3892C62.8961 26.3789 62.8961 26.374 62.8954 26.3738C62.8947 26.3737 62.8931 26.3784 62.89 26.3872C63.9042 23.4777 63.1774 20.6503 61.8698 18.2136C60.5673 15.7866 58.6147 13.6023 56.9194 11.8654C53.7797 8.64851 48.9836 5.97445 45.0924 4.23017ZM57.0358 53.975C57.1487 53.9153 57.2594 53.8521 57.368 53.7856C57.257 53.849 57.1463 53.9121 57.0358 53.975ZM3.7655 37.4107C3.75048 37.6213 3.7461 37.8315 3.75361 38.0416C3.75619 37.8337 3.76015 37.6233 3.7655 37.4107ZM3.92443 39.2062C3.956 39.326 3.99214 39.4461 4.03308 39.5664C4.05477 39.6301 4.07794 39.6943 4.10267 39.7589C4.04105 39.5744 3.98162 39.3902 3.92443 39.2062ZM43.75 34.2465C43.75 39.7693 39.2728 44.2465 33.75 44.2465C28.2271 44.2465 23.75 39.7693 23.75 34.2465C23.75 28.7237 28.2271 24.2465 33.75 24.2465C39.2728 24.2465 43.75 28.7237 43.75 34.2465Z" fill="#713F12"/>
</g>
<rect x="55" y="18.9122" width="1.4362" height="4.30859" rx="0.718098" transform="rotate(-22.0337 55 18.9122)" fill="#EC4899"/>
<rect x="58.7793" y="45.8734" width="1.4362" height="4.30859" rx="0.718098" transform="rotate(17.2775 58.7793 45.8734)" fill="#EC4899"/>
<rect x="30.7124" y="17.9724" width="1.4362" height="4.30859" rx="0.718098" transform="rotate(119.155 30.7124 17.9724)" fill="#EC4899"/>
<rect x="17.877" y="32.1234" width="1.4362" height="4.30859" rx="0.718098" transform="rotate(41.897 17.877 32.1234)" fill="#EC4899"/>
<rect x="14.127" y="13.3734" width="1.4362" height="4.30859" rx="0.718098" transform="rotate(41.897 14.127 13.3734)" fill="#EC4899"/>
<rect x="31.25" y="49.8567" width="1.4362" height="4.30859" rx="0.718098" transform="rotate(-9.35343 31.25 49.8567)" fill="#EC4899"/>
<rect x="47.749" y="52.1379" width="1.4362" height="4.30859" rx="0.718098" transform="rotate(29.6097 47.749 52.1379)" fill="#EC4899"/>
<rect x="52.1543" y="32.1234" width="1.4362" height="4.30859" rx="0.718098" transform="rotate(30 52.1543 32.1234)" fill="#60A5FA"/>
<rect x="53.4043" y="50.8734" width="1.4362" height="4.30859" rx="0.718098" transform="rotate(30 53.4043 50.8734)" fill="#60A5FA"/>
<rect x="42.439" y="11.8641" width="1.4362" height="4.30859" rx="0.718098" transform="rotate(144.114 42.439 11.8641)" fill="#60A5FA"/>
<rect x="6.62354" y="42.3877" width="1.4362" height="4.30859" rx="0.718098" transform="rotate(-22.4224 6.62354 42.3877)" fill="#60A5FA"/>
<rect x="38.2588" y="54.6234" width="1.4362" height="4.30859" rx="0.718098" transform="rotate(10.1425 38.2588 54.6234)" fill="#60A5FA"/>
<rect x="20.4126" y="8.86328" width="1.4362" height="4.30859" rx="0.718098" transform="rotate(-3.20048 20.4126 8.86328)" fill="#60A5FA"/>
<rect x="41.7432" y="18.2913" width="1.4362" height="4.30859" rx="0.718098" transform="rotate(-72.5146 41.7432 18.2913)" fill="#FACC15"/>
<rect x="27.5" y="8.49316" width="1.4362" height="4.30859" rx="0.718098" transform="rotate(-72.5146 27.5 8.49316)" fill="#FACC15"/>
<rect x="18.75" y="21.0178" width="1.4362" height="4.30859" rx="0.718098" transform="rotate(-5.76741 18.75 21.0178)" fill="#FACC15"/>
<rect x="41.25" y="46.6602" width="1.4362" height="4.30859" rx="0.718098" transform="rotate(-33.216 41.25 46.6602)" fill="#FACC15"/>
<rect x="18.5742" y="48.3734" width="1.4362" height="4.30859" rx="0.718098" transform="rotate(56.0516 18.5742 48.3734)" fill="#FACC15"/>
<rect x="61.4067" y="34.6234" width="1.4362" height="4.30859" rx="0.718098" transform="rotate(19.0563 61.4067 34.6234)" fill="#FACC15"/>
<rect x="7.65674" y="33.3734" width="1.4362" height="4.30859" rx="0.718098" transform="rotate(19.0563 7.65674 33.3734)" fill="#FACC15"/>
<rect x="32.9839" y="59.0345" width="1.4362" height="4.30859" rx="0.718098" transform="rotate(63.3007 32.9839 59.0345)" fill="#FACC15"/>
<rect x="10.3281" y="24.6234" width="1.4362" height="4.30859" rx="0.718098" transform="rotate(21.492 10.3281 24.6234)" fill="#FEFCE8"/>
<rect x="33.8501" y="16.3207" width="1.4362" height="4.30859" rx="0.718098" transform="rotate(-18.2787 33.8501 16.3207)" fill="#FEFCE8"/>
<rect x="51.7236" y="10.2151" width="1.4362" height="4.30859" rx="0.718098" transform="rotate(122.081 51.7236 10.2151)" fill="#FEFCE8"/>
<rect x="18.1636" y="43.1617" width="1.4362" height="4.30859" rx="0.718098" transform="rotate(122.081 18.1636 43.1617)" fill="#FEFCE8"/>
<rect x="61.9136" y="30.6617" width="1.4362" height="4.30859" rx="0.718098" transform="rotate(122.081 61.9136 30.6617)" fill="#FEFCE8"/>
<rect x="51.7583" y="47.6696" width="1.4362" height="4.30859" rx="0.718098" transform="rotate(175.65 51.7583 47.6696)" fill="#FEFCE8"/>
<rect x="21.7188" y="62.1509" width="1.4362" height="4.30859" rx="0.718098" transform="rotate(-163.254 21.7188 62.1509)" fill="#FEFCE8"/>
<rect x="50.125" y="27.9131" width="1.4362" height="4.30859" rx="0.718098" transform="rotate(-163.254 50.125 27.9131)" fill="#FEFCE8"/>
<defs>
<filter id="filter0_d_1230_304175" x="0" y="0.873291" width="67.5" height="79.9486" filterUnits="userSpaceOnUse" color-interpolation-filters="sRGB">
<feFlood flood-opacity="0" result="BackgroundImageFix"/>
<feColorMatrix in="SourceAlpha" type="matrix" values="0 0 0 0 0 0 0 0 0 0 0 0 0 0 0 0 0 0 127 0" result="hardAlpha"/>
<feOffset dy="3.69863"/>
<feComposite in2="hardAlpha" operator="out"/>
<feColorMatrix type="matrix" values="0 0 0 0 0 0 0 0 0 0 0 0 0 0 0 0 0 0 0.25 0"/>
<feBlend mode="normal" in2="BackgroundImageFix" result="effect1_dropShadow_1230_304175"/>
<feBlend mode="normal" in="SourceGraphic" in2="effect1_dropShadow_1230_304175" result="shape"/>
</filter>
<filter id="filter1_iiii_1230_304175" x="-0.924658" y="7.12329" width="71.1986" height="70.9247" filterUnits="userSpaceOnUse" color-interpolation-filters="sRGB">
<feFlood flood-opacity="0" result="BackgroundImageFix"/>
<feBlend mode="normal" in="SourceGraphic" in2="BackgroundImageFix" result="shape"/>
<feColorMatrix in="SourceAlpha" type="matrix" values="0 0 0 0 0 0 0 0 0 0 0 0 0 0 0 0 0 0 127 0" result="hardAlpha"/>
<feOffset dx="2.77397" dy="-1.84932"/>
<feGaussianBlur stdDeviation="2.77397"/>
<feComposite in2="hardAlpha" operator="arithmetic" k2="-1" k3="1"/>
<feColorMatrix type="matrix" values="0 0 0 0 0 0 0 0 0 0 0 0 0 0 0 0 0 0 0.25 0"/>
<feBlend mode="normal" in2="shape" result="effect1_innerShadow_1230_304175"/>
<feColorMatrix in="SourceAlpha" type="matrix" values="0 0 0 0 0 0 0 0 0 0 0 0 0 0 0 0 0 0 127 0" result="hardAlpha"/>
<feOffset dx="-0.924658" dy="0.924658"/>
<feGaussianBlur stdDeviation="0.924658"/>
<feComposite in2="hardAlpha" operator="arithmetic" k2="-1" k3="1"/>
<feColorMatrix type="matrix" values="0 0 0 0 1 0 0 0 0 1 0 0 0 0 1 0 0 0 0.4 0"/>
<feBlend mode="normal" in2="effect1_innerShadow_1230_304175" result="effect2_innerShadow_1230_304175"/>
<feColorMatrix in="SourceAlpha" type="matrix" values="0 0 0 0 0 0 0 0 0 0 0 0 0 0 0 0 0 0 127 0" result="hardAlpha"/>
<feOffset dy="-2.5"/>
<feGaussianBlur stdDeviation="1.875"/>
<feComposite in2="hardAlpha" operator="arithmetic" k2="-1" k3="1"/>
<feColorMatrix type="matrix" values="0 0 0 0 0 0 0 0 0 0 0 0 0 0 0 0 0 0 0.2 0"/>
<feBlend mode="normal" in2="effect2_innerShadow_1230_304175" result="effect3_innerShadow_1230_304175"/>
<feColorMatrix in="SourceAlpha" type="matrix" values="0 0 0 0 0 0 0 0 0 0 0 0 0 0 0 0 0 0 127 0" result="hardAlpha"/>
<feOffset dy="-1.25"/>
<feComposite in2="hardAlpha" operator="arithmetic" k2="-1" k3="1"/>
<feColorMatrix type="matrix" values="0 0 0 0 0 0 0 0 0 0 0 0 0 0 0 0 0 0 0.1 0"/>
<feBlend mode="normal" in2="effect3_innerShadow_1230_304175" result="effect4_innerShadow_1230_304175"/>
</filter>
<filter id="filter2_ii_1230_304175" x="0" y="-0.976024" width="70.274" height="71.1986" filterUnits="userSpaceOnUse" color-interpolation-filters="sRGB">
<feFlood flood-opacity="0" result="BackgroundImageFix"/>
<feBlend mode="normal" in="SourceGraphic" in2="BackgroundImageFix" result="shape"/>
<feColorMatrix in="SourceAlpha" type="matrix" values="0 0 0 0 0 0 0 0 0 0 0 0 0 0 0 0 0 0 127 0" result="hardAlpha"/>
<feOffset dx="2.77397" dy="-1.84932"/>
<feGaussianBlur stdDeviation="2.77397"/>
<feComposite in2="hardAlpha" operator="arithmetic" k2="-1" k3="1"/>
<feColorMatrix type="matrix" values="0 0 0 0 0 0 0 0 0 0 0 0 0 0 0 0 0 0 0.25 0"/>
<feBlend mode="normal" in2="shape" result="effect1_innerShadow_1230_304175"/>
<feColorMatrix in="SourceAlpha" type="matrix" values="0 0 0 0 0 0 0 0 0 0 0 0 0 0 0 0 0 0 127 0" result="hardAlpha"/>
<feOffset dy="1.84932"/>
<feGaussianBlur stdDeviation="0.924658"/>
<feComposite in2="hardAlpha" operator="arithmetic" k2="-1" k3="1"/>
<feColorMatrix type="matrix" values="0 0 0 0 1 0 0 0 0 1 0 0 0 0 1 0 0 0 0.4 0"/>
<feBlend mode="normal" in2="effect1_innerShadow_1230_304175" result="effect2_innerShadow_1230_304175"/>
</filter>
<filter id="filter3_ii_1230_304175" x="1.25" y="1.35275" width="66.2158" height="67.0377" filterUnits="userSpaceOnUse" color-interpolation-filters="sRGB">
<feFlood flood-opacity="0" result="BackgroundImageFix"/>
<feBlend mode="normal" in="SourceGraphic" in2="BackgroundImageFix" result="shape"/>
<feColorMatrix in="SourceAlpha" type="matrix" values="0 0 0 0 0 0 0 0 0 0 0 0 0 0 0 0 0 0 127 0" result="hardAlpha"/>
<feOffset dx="2.46575" dy="-1.64384"/>
<feGaussianBlur stdDeviation="2.46575"/>
<feComposite in2="hardAlpha" operator="arithmetic" k2="-1" k3="1"/>
<feColorMatrix type="matrix" values="0 0 0 0 0 0 0 0 0 0 0 0 0 0 0 0 0 0 0.25 0"/>
<feBlend mode="normal" in2="shape" result="effect1_innerShadow_1230_304175"/>
<feColorMatrix in="SourceAlpha" type="matrix" values="0 0 0 0 0 0 0 0 0 0 0 0 0 0 0 0 0 0 127 0" result="hardAlpha"/>
<feOffset dy="1.64384"/>
<feGaussianBlur stdDeviation="0.821918"/>
<feComposite in2="hardAlpha" operator="arithmetic" k2="-1" k3="1"/>
<feColorMatrix type="matrix" values="0 0 0 0 1 0 0 0 0 1 0 0 0 0 1 0 0 0 0.4 0"/>
<feBlend mode="normal" in2="effect1_innerShadow_1230_304175" result="effect2_innerShadow_1230_304175"/>
</filter>
</defs>
</svg>
