<svg width="99" height="191" viewBox="0 0 99 191" fill="none" xmlns="http://www.w3.org/2000/svg">
<path fill-rule="evenodd" clip-rule="evenodd" d="M59.7044 54.058C55.0249 50.6559 48.8059 50.2484 43.7224 53.0107L41.3267 54.3124C39.8251 55.1284 38.1952 55.6817 36.5072 55.9485L33.8141 56.3742C28.0996 57.2776 23.4139 61.3869 21.7726 66.9347L20.999 69.5492C20.5142 71.1879 19.7529 72.7317 18.748 74.114L17.1448 76.3193C13.7427 80.9989 13.3352 87.2178 16.0975 92.3014L17.3992 94.697C17.4491 94.7888 17.498 94.8811 17.5459 94.9739L19.1325 100.131L19.461 102.21C19.7695 104.161 20.4516 105.992 21.4372 107.623L41.7103 173.523C43.4141 179.062 51.2013 179.207 53.1102 173.735L75.207 110.4C76.1382 109.082 76.8647 107.602 77.338 106.002L78.1115 103.388C78.5963 101.749 79.3576 100.205 80.3625 98.823L81.9658 96.6177C85.3678 91.9381 85.7754 85.7191 83.0131 80.6356L81.7113 78.2399C80.8954 76.7384 80.3421 75.1084 80.0752 73.4204L79.6495 70.7273C78.7462 65.0128 74.6369 60.3271 69.0891 58.6858L66.4746 57.9123C64.8359 57.4274 63.292 56.6661 61.9098 55.6612L59.7044 54.058Z" fill="#CA8A04"/>
<mask id="mask0_1230_304170" style="mask-type:alpha" maskUnits="userSpaceOnUse" x="16" y="91" width="66" height="87">
<path d="M16.5933 91.877L81.3939 92.6672L53.1359 173.662C51.2246 179.14 43.4237 178.985 41.7316 173.435L34.5869 150C32.983 148.717 31.9385 146.862 31.6728 144.825L30.5869 136.5L16.5933 91.877Z" fill="#A16207"/>
</mask>
<g mask="url(#mask0_1230_304170)">
<g opacity="0.2">
<g filter="url(#filter0_dd_1230_304170)">
<path d="M73.1621 113.016C68.5843 132.848 52.7468 159.723 34.1202 159.248" stroke="#713F12" stroke-width="1.4965" stroke-linecap="round"/>
</g>
<g filter="url(#filter1_dd_1230_304170)">
<path d="M70.8589 101.819C66.282 121.823 50.4457 148.931 31.8191 148.451" stroke="#713F12" stroke-width="1.4965" stroke-linecap="round"/>
</g>
<g filter="url(#filter2_dd_1230_304170)">
<path d="M64.459 94.2465C59.8812 114.078 44.0437 140.953 25.4171 140.478" stroke="#713F12" stroke-width="1.4965" stroke-linecap="round"/>
</g>
<g filter="url(#filter3_dd_1230_304170)">
<path d="M63.6479 82.2412C59.0702 102.073 43.2326 128.948 24.606 128.473" stroke="#713F12" stroke-width="1.4965" stroke-linecap="round"/>
</g>
<g filter="url(#filter4_dd_1230_304170)">
<path d="M72.8591 126.629C68.2814 146.46 52.4438 173.335 33.8172 172.86" stroke="#713F12" stroke-width="1.4965" stroke-linecap="round"/>
</g>
<path d="M24.5264 113.27C29.3113 133.053 45.429 159.761 64.0496 159.091" stroke="#713F12" stroke-width="1.4965" stroke-linecap="round"/>
<path d="M26.7124 102.05C31.4982 122.005 47.6171 148.946 66.2377 148.271" stroke="#713F12" stroke-width="1.4965" stroke-linecap="round"/>
<path d="M32.6589 94.4129C37.4438 114.196 53.5615 140.904 72.1822 140.234" stroke="#713F12" stroke-width="1.4965" stroke-linecap="round"/>
<path d="M33.718 82.3978C38.5029 102.181 54.6206 128.889 73.2412 128.219" stroke="#713F12" stroke-width="1.4965" stroke-linecap="round"/>
<path d="M24.9714 126.879C29.7563 146.662 45.874 173.37 64.4947 172.7" stroke="#713F12" stroke-width="1.4965" stroke-linecap="round"/>
</g>
<path fill-rule="evenodd" clip-rule="evenodd" d="M59.7044 54.058C55.0249 50.6559 48.8059 50.2484 43.7224 53.0107L41.3267 54.3124C39.8251 55.1284 38.1952 55.6817 36.5072 55.9485L33.8141 56.3742C28.0996 57.2776 23.4139 61.3869 21.7726 66.9347L20.999 69.5492C20.5142 71.1879 19.7529 72.7317 18.748 74.114L17.1448 76.3193C13.7427 80.9989 13.3352 87.2178 16.0975 92.3014L17.3992 94.697C17.4491 94.7888 17.498 94.8811 17.5459 94.9739L19.1325 100.131L19.461 102.21C19.7695 104.161 20.4516 105.992 21.4372 107.623L41.7103 173.523C43.4141 179.062 51.2013 179.207 53.1102 173.735L75.207 110.4C76.1382 109.082 76.8647 107.602 77.338 106.002L78.1115 103.388C78.5963 101.749 79.3576 100.205 80.3625 98.823L81.9658 96.6177C85.3678 91.9381 85.7754 85.7191 83.0131 80.6356L81.7113 78.2399C80.8954 76.7384 80.3421 75.1084 80.0752 73.4204L79.6495 70.7273C78.7462 65.0128 74.6369 60.3271 69.0891 58.6858L66.4746 57.9123C64.8359 57.4274 63.292 56.6661 61.9098 55.6612L59.7044 54.058Z" fill="url(#paint0_linear_1230_304170)"/>
<path d="M30.1564 136.134C29.9541 136.648 30.2068 137.228 30.7207 137.431C31.2347 137.633 31.8152 137.38 32.0175 136.866L30.1564 136.134ZM33.4523 130.489L32.5269 130.11L32.5218 130.123L33.4523 130.489ZM33.5667 130.21L32.6414 129.831L32.6414 129.831L33.5667 130.21ZM44.9396 121.11L44.7725 120.124V120.124L44.9396 121.11ZM45.5869 121L45.754 121.986L45.8146 121.976L45.8735 121.958L45.5869 121ZM32.0175 136.866L34.3829 130.855L32.5218 130.123L30.1564 136.134L32.0175 136.866ZM34.3776 130.868L34.492 130.589L32.6414 129.831L32.527 130.11L34.3776 130.868ZM45.1067 122.096L45.754 121.986L45.4198 120.014L44.7725 120.124L45.1067 122.096ZM45.8735 121.958L53.5944 119.648L53.0212 117.732L45.3003 120.042L45.8735 121.958ZM34.492 130.589C36.3259 126.115 40.339 122.904 45.1067 122.096L44.7725 120.124C39.3238 121.047 34.7373 124.717 32.6414 129.831L34.492 130.589Z" fill="black" fill-opacity="0.2"/>
<g filter="url(#filter5_i_1230_304170)">
<path d="M55.308 118.69L49.0512 121.309C47.9222 121.782 46.7207 122.058 45.4987 122.126C41.3616 122.355 37.7253 124.944 36.1539 128.778C35.6897 129.91 35.0354 130.955 34.2193 131.867C31.4563 134.955 30.7153 139.356 32.3151 143.178C32.7877 144.307 33.0639 145.509 33.1317 146.731L33.5076 153.503" stroke="#CA8A04" stroke-width="2"/>
</g>
</g>
<path d="M43.7224 53.0106C48.8059 50.2483 55.0249 50.6558 59.7044 54.0579L61.9098 55.6611C63.292 56.666 64.8359 57.4273 66.4746 57.9121L69.0891 58.6857C74.6369 60.327 78.7462 65.0127 79.6495 70.7272L80.0752 73.4203C80.3421 75.1083 80.8954 76.7382 81.7113 78.2398L83.0131 80.6355C85.7754 85.719 85.3678 91.938 81.9658 96.6175L80.3625 98.8229C79.3576 100.205 78.5963 101.749 78.1115 103.388L77.338 106.002C75.6966 111.55 71.011 115.659 65.2964 116.563L62.6034 116.988C60.9154 117.255 59.2854 117.808 57.7838 118.624L55.3881 119.926C50.3046 122.688 44.0857 122.281 39.4061 118.879L37.2008 117.276C35.8185 116.271 34.2747 115.509 32.636 115.025L30.0215 114.251C24.4737 112.61 20.3644 107.924 19.461 102.21L19.0353 99.5165C18.7685 97.8285 18.2151 96.1985 17.3992 94.6969L16.0975 92.3012C13.3352 87.2177 13.7427 80.9988 17.1448 76.3192L18.748 74.1139C19.7529 72.7316 20.5142 71.1878 20.9991 69.5491L21.7726 66.9346C23.4139 61.3868 28.0996 57.2775 33.8141 56.3741L36.5072 55.9484C38.1952 55.6816 39.8251 55.1282 41.3267 54.3123L43.7224 53.0106Z" fill="#CA8A04"/>
<mask id="mask1_1230_304170" style="mask-type:alpha" maskUnits="userSpaceOnUse" x="17" y="53" width="66" height="66">
<path d="M43.5417 55.7667C48.6252 53.0045 54.8442 53.412 59.5238 56.814L60.8616 57.7866C62.2438 58.7915 63.7877 59.5528 65.4264 60.0376L67.0124 60.5069C72.5602 62.1482 76.6695 66.8339 77.5729 72.5484L77.8311 74.1821C78.0979 75.8701 78.6513 77.5001 79.4672 79.0016L80.2569 80.4549C83.0191 85.5384 82.6116 91.7574 79.2096 96.437L78.237 97.7748C77.2321 99.157 76.4708 100.701 75.986 102.34L75.5167 103.926C73.8754 109.473 69.1897 113.583 63.4752 114.486L61.8415 114.744C60.1535 115.011 58.5235 115.564 57.022 116.38L55.5687 117.17C50.4852 119.932 44.2662 119.525 39.5866 116.123L38.2488 115.15C36.8666 114.145 35.3227 113.384 33.684 112.899L32.098 112.43C26.5502 110.789 22.4409 106.103 21.5375 100.388L21.2793 98.7547C21.0124 97.0667 20.4591 95.4367 19.6432 93.9352L18.8535 92.4819C16.0912 87.3984 16.4988 81.1794 19.9008 76.4998L20.8734 75.162C21.8783 73.7798 22.6396 72.2359 23.1244 70.5972L23.5937 69.0112C25.235 63.4634 29.9206 59.3541 35.6352 58.4507L37.2689 58.1925C38.9569 57.9257 40.5869 57.3723 42.0884 56.5564L43.5417 55.7667Z" fill="#854D0E"/>
</mask>
<g mask="url(#mask1_1230_304170)">
<g filter="url(#filter6_i_1230_304170)">
<circle cx="49.1209" cy="94.3808" r="40.807" fill="#854D0E"/>
</g>
</g>
<path d="M17.0315 98.2434C17.0316 110.5 31.417 134.593 49.2399 134.5C67.0629 134.407 76.6738 114 81.5743 97.9059C81.4846 80.748 67.0629 85.9399 49.2399 86.0331C31.417 86.1263 16.9418 81.0854 17.0315 98.2434Z" fill="black" fill-opacity="0.12"/>
<g filter="url(#filter7_ii_1230_304170)">
<path d="M10.3769 85.197C10.4901 106.844 28.0493 124.301 49.5965 124.188C71.1437 124.076 88.5193 106.436 88.4062 84.789C88.293 63.1421 76.3092 46.0172 54.762 46.1299C33.2148 46.2425 10.2637 63.55 10.3769 85.197Z" fill="#F7F1EB"/>
</g>
<g filter="url(#filter8_f_1230_304170)">
<path d="M17.0315 68.2434C17.1213 85.4013 31.6424 99.235 49.4653 99.1419C67.2883 99.0487 81.664 85.0639 81.5743 67.9059C81.4846 50.748 67.0629 55.9399 49.2399 56.0331C31.417 56.1263 16.9418 51.0854 17.0315 68.2434Z" fill="black" fill-opacity="0.12"/>
</g>
<g filter="url(#filter9_ii_1230_304170)">
<path d="M17.4963 64.9917C17.5815 81.284 31.7755 94.4176 49.1994 94.3265C66.6234 94.2354 80.6792 80.954 80.5941 64.6618C80.5089 48.3696 65.8985 27.0049 48.888 34.7579C31.8775 42.5108 17.4112 48.6995 17.4963 64.9917Z" fill="#F7F1EB"/>
</g>
<g filter="url(#filter10_f_1230_304170)">
<path d="M26.5818 52.2982C26.6451 64.4019 36.8318 74.1608 49.3345 74.0955C61.8372 74.0301 71.9213 64.1651 71.8581 52.0615C71.7948 39.9578 61.7063 48.9837 49.2036 49.0491C36.7009 49.1145 26.5185 40.1945 26.5818 52.2982Z" fill="black" fill-opacity="0.12"/>
</g>
<g filter="url(#filter11_ii_1230_304170)">
<path d="M26.5609 48.3318C26.6259 60.7639 36.814 70.7892 49.3167 70.7238C61.8194 70.6584 71.9021 60.5272 71.8371 48.0951C71.7721 35.6629 44.1288 5.12972 43.6107 17.1279C43.0925 29.1261 26.4959 35.8996 26.5609 48.3318Z" fill="#F7F1EB"/>
</g>
<defs>
<filter id="filter0_dd_1230_304170" x="31.8753" y="112.268" width="43.5318" height="50.7277" filterUnits="userSpaceOnUse" color-interpolation-filters="sRGB">
<feFlood flood-opacity="0" result="BackgroundImageFix"/>
<feColorMatrix in="SourceAlpha" type="matrix" values="0 0 0 0 0 0 0 0 0 0 0 0 0 0 0 0 0 0 127 0" result="hardAlpha"/>
<feOffset dx="-0.74825" dy="0.74825"/>
<feComposite in2="hardAlpha" operator="out"/>
<feColorMatrix type="matrix" values="0 0 0 0 1 0 0 0 0 1 0 0 0 0 1 0 0 0 0.95 0"/>
<feBlend mode="normal" in2="BackgroundImageFix" result="effect1_dropShadow_1230_304170"/>
<feColorMatrix in="SourceAlpha" type="matrix" values="0 0 0 0 0 0 0 0 0 0 0 0 0 0 0 0 0 0 127 0" result="hardAlpha"/>
<feOffset dy="1.4965"/>
<feGaussianBlur stdDeviation="0.74825"/>
<feComposite in2="hardAlpha" operator="out"/>
<feColorMatrix type="matrix" values="0 0 0 0 0 0 0 0 0 0 0 0 0 0 0 0 0 0 0.25 0"/>
<feBlend mode="normal" in2="effect1_dropShadow_1230_304170" result="effect2_dropShadow_1230_304170"/>
<feBlend mode="normal" in="SourceGraphic" in2="effect2_dropShadow_1230_304170" result="shape"/>
</filter>
<filter id="filter1_dd_1230_304170" x="29.5743" y="101.071" width="43.5296" height="51.128" filterUnits="userSpaceOnUse" color-interpolation-filters="sRGB">
<feFlood flood-opacity="0" result="BackgroundImageFix"/>
<feColorMatrix in="SourceAlpha" type="matrix" values="0 0 0 0 0 0 0 0 0 0 0 0 0 0 0 0 0 0 127 0" result="hardAlpha"/>
<feOffset dx="-0.74825" dy="0.74825"/>
<feComposite in2="hardAlpha" operator="out"/>
<feColorMatrix type="matrix" values="0 0 0 0 1 0 0 0 0 1 0 0 0 0 1 0 0 0 0.95 0"/>
<feBlend mode="normal" in2="BackgroundImageFix" result="effect1_dropShadow_1230_304170"/>
<feColorMatrix in="SourceAlpha" type="matrix" values="0 0 0 0 0 0 0 0 0 0 0 0 0 0 0 0 0 0 127 0" result="hardAlpha"/>
<feOffset dy="1.4965"/>
<feGaussianBlur stdDeviation="0.74825"/>
<feComposite in2="hardAlpha" operator="out"/>
<feColorMatrix type="matrix" values="0 0 0 0 0 0 0 0 0 0 0 0 0 0 0 0 0 0 0.25 0"/>
<feBlend mode="normal" in2="effect1_dropShadow_1230_304170" result="effect2_dropShadow_1230_304170"/>
<feBlend mode="normal" in="SourceGraphic" in2="effect2_dropShadow_1230_304170" result="shape"/>
</filter>
<filter id="filter2_dd_1230_304170" x="23.1722" y="93.4981" width="43.5318" height="50.7277" filterUnits="userSpaceOnUse" color-interpolation-filters="sRGB">
<feFlood flood-opacity="0" result="BackgroundImageFix"/>
<feColorMatrix in="SourceAlpha" type="matrix" values="0 0 0 0 0 0 0 0 0 0 0 0 0 0 0 0 0 0 127 0" result="hardAlpha"/>
<feOffset dx="-0.74825" dy="0.74825"/>
<feComposite in2="hardAlpha" operator="out"/>
<feColorMatrix type="matrix" values="0 0 0 0 1 0 0 0 0 1 0 0 0 0 1 0 0 0 0.95 0"/>
<feBlend mode="normal" in2="BackgroundImageFix" result="effect1_dropShadow_1230_304170"/>
<feColorMatrix in="SourceAlpha" type="matrix" values="0 0 0 0 0 0 0 0 0 0 0 0 0 0 0 0 0 0 127 0" result="hardAlpha"/>
<feOffset dy="1.4965"/>
<feGaussianBlur stdDeviation="0.74825"/>
<feComposite in2="hardAlpha" operator="out"/>
<feColorMatrix type="matrix" values="0 0 0 0 0 0 0 0 0 0 0 0 0 0 0 0 0 0 0.25 0"/>
<feBlend mode="normal" in2="effect1_dropShadow_1230_304170" result="effect2_dropShadow_1230_304170"/>
<feBlend mode="normal" in="SourceGraphic" in2="effect2_dropShadow_1230_304170" result="shape"/>
</filter>
<filter id="filter3_dd_1230_304170" x="22.3612" y="81.4928" width="43.5318" height="50.7277" filterUnits="userSpaceOnUse" color-interpolation-filters="sRGB">
<feFlood flood-opacity="0" result="BackgroundImageFix"/>
<feColorMatrix in="SourceAlpha" type="matrix" values="0 0 0 0 0 0 0 0 0 0 0 0 0 0 0 0 0 0 127 0" result="hardAlpha"/>
<feOffset dx="-0.74825" dy="0.74825"/>
<feComposite in2="hardAlpha" operator="out"/>
<feColorMatrix type="matrix" values="0 0 0 0 1 0 0 0 0 1 0 0 0 0 1 0 0 0 0.95 0"/>
<feBlend mode="normal" in2="BackgroundImageFix" result="effect1_dropShadow_1230_304170"/>
<feColorMatrix in="SourceAlpha" type="matrix" values="0 0 0 0 0 0 0 0 0 0 0 0 0 0 0 0 0 0 127 0" result="hardAlpha"/>
<feOffset dy="1.4965"/>
<feGaussianBlur stdDeviation="0.74825"/>
<feComposite in2="hardAlpha" operator="out"/>
<feColorMatrix type="matrix" values="0 0 0 0 0 0 0 0 0 0 0 0 0 0 0 0 0 0 0.25 0"/>
<feBlend mode="normal" in2="effect1_dropShadow_1230_304170" result="effect2_dropShadow_1230_304170"/>
<feBlend mode="normal" in="SourceGraphic" in2="effect2_dropShadow_1230_304170" result="shape"/>
</filter>
<filter id="filter4_dd_1230_304170" x="31.5723" y="125.88" width="43.5318" height="50.7277" filterUnits="userSpaceOnUse" color-interpolation-filters="sRGB">
<feFlood flood-opacity="0" result="BackgroundImageFix"/>
<feColorMatrix in="SourceAlpha" type="matrix" values="0 0 0 0 0 0 0 0 0 0 0 0 0 0 0 0 0 0 127 0" result="hardAlpha"/>
<feOffset dx="-0.74825" dy="0.74825"/>
<feComposite in2="hardAlpha" operator="out"/>
<feColorMatrix type="matrix" values="0 0 0 0 1 0 0 0 0 1 0 0 0 0 1 0 0 0 0.95 0"/>
<feBlend mode="normal" in2="BackgroundImageFix" result="effect1_dropShadow_1230_304170"/>
<feColorMatrix in="SourceAlpha" type="matrix" values="0 0 0 0 0 0 0 0 0 0 0 0 0 0 0 0 0 0 127 0" result="hardAlpha"/>
<feOffset dy="1.4965"/>
<feGaussianBlur stdDeviation="0.74825"/>
<feComposite in2="hardAlpha" operator="out"/>
<feColorMatrix type="matrix" values="0 0 0 0 0 0 0 0 0 0 0 0 0 0 0 0 0 0 0.25 0"/>
<feBlend mode="normal" in2="effect1_dropShadow_1230_304170" result="effect2_dropShadow_1230_304170"/>
<feBlend mode="normal" in="SourceGraphic" in2="effect2_dropShadow_1230_304170" result="shape"/>
</filter>
<filter id="filter5_i_1230_304170" x="30.4819" y="115.768" width="26.2122" height="37.7909" filterUnits="userSpaceOnUse" color-interpolation-filters="sRGB">
<feFlood flood-opacity="0" result="BackgroundImageFix"/>
<feBlend mode="normal" in="SourceGraphic" in2="BackgroundImageFix" result="shape"/>
<feColorMatrix in="SourceAlpha" type="matrix" values="0 0 0 0 0 0 0 0 0 0 0 0 0 0 0 0 0 0 127 0" result="hardAlpha"/>
<feOffset dx="1" dy="-2"/>
<feGaussianBlur stdDeviation="1.5"/>
<feComposite in2="hardAlpha" operator="arithmetic" k2="-1" k3="1"/>
<feColorMatrix type="matrix" values="0 0 0 0 0 0 0 0 0 0 0 0 0 0 0 0 0 0 0.25 0"/>
<feBlend mode="normal" in2="shape" result="effect1_innerShadow_1230_304170"/>
</filter>
<filter id="filter6_i_1230_304170" x="8.31396" y="28.5739" width="106.614" height="106.614" filterUnits="userSpaceOnUse" color-interpolation-filters="sRGB">
<feFlood flood-opacity="0" result="BackgroundImageFix"/>
<feBlend mode="normal" in="SourceGraphic" in2="BackgroundImageFix" result="shape"/>
<feColorMatrix in="SourceAlpha" type="matrix" values="0 0 0 0 0 0 0 0 0 0 0 0 0 0 0 0 0 0 127 0" result="hardAlpha"/>
<feOffset dx="29" dy="-32"/>
<feGaussianBlur stdDeviation="12.5"/>
<feComposite in2="hardAlpha" operator="arithmetic" k2="-1" k3="1"/>
<feColorMatrix type="matrix" values="0 0 0 0 0 0 0 0 0 0 0 0 0 0 0 0 0 0 0.38 0"/>
<feBlend mode="normal" in2="shape" result="effect1_innerShadow_1230_304170"/>
</filter>
<filter id="filter7_ii_1230_304170" x="-0.220244" y="40.3493" width="100.187" height="83.8395" filterUnits="userSpaceOnUse" color-interpolation-filters="sRGB">
<feFlood flood-opacity="0" result="BackgroundImageFix"/>
<feBlend mode="normal" in="SourceGraphic" in2="BackgroundImageFix" result="shape"/>
<feColorMatrix in="SourceAlpha" type="matrix" values="0 0 0 0 0 0 0 0 0 0 0 0 0 0 0 0 0 0 127 0" result="hardAlpha"/>
<feOffset dx="11.56" dy="-5.78002"/>
<feGaussianBlur stdDeviation="6.74336"/>
<feComposite in2="hardAlpha" operator="arithmetic" k2="-1" k3="1"/>
<feColorMatrix type="matrix" values="0 0 0 0 0 0 0 0 0 0 0 0 0 0 0 0 0 0 0.11 0"/>
<feBlend mode="normal" in2="shape" result="effect1_innerShadow_1230_304170"/>
<feColorMatrix in="SourceAlpha" type="matrix" values="0 0 0 0 0 0 0 0 0 0 0 0 0 0 0 0 0 0 127 0" result="hardAlpha"/>
<feOffset dx="-11.56" dy="-1.92667"/>
<feGaussianBlur stdDeviation="5.29835"/>
<feComposite in2="hardAlpha" operator="arithmetic" k2="-1" k3="1"/>
<feColorMatrix type="matrix" values="0 0 0 0 1 0 0 0 0 1 0 0 0 0 1 0 0 0 0.45 0"/>
<feBlend mode="normal" in2="effect1_innerShadow_1230_304170" result="effect2_innerShadow_1230_304170"/>
</filter>
<filter id="filter8_f_1230_304170" x="13.1779" y="51.3709" width="72.2502" height="51.6248" filterUnits="userSpaceOnUse" color-interpolation-filters="sRGB">
<feFlood flood-opacity="0" result="BackgroundImageFix"/>
<feBlend mode="normal" in="SourceGraphic" in2="BackgroundImageFix" result="shape"/>
<feGaussianBlur stdDeviation="1.92667" result="effect1_foregroundBlur_1230_304170"/>
</filter>
<filter id="filter9_ii_1230_304170" x="6.89914" y="27.3377" width="85.2554" height="66.9893" filterUnits="userSpaceOnUse" color-interpolation-filters="sRGB">
<feFlood flood-opacity="0" result="BackgroundImageFix"/>
<feBlend mode="normal" in="SourceGraphic" in2="BackgroundImageFix" result="shape"/>
<feColorMatrix in="SourceAlpha" type="matrix" values="0 0 0 0 0 0 0 0 0 0 0 0 0 0 0 0 0 0 127 0" result="hardAlpha"/>
<feOffset dx="11.56" dy="-5.78002"/>
<feGaussianBlur stdDeviation="6.74336"/>
<feComposite in2="hardAlpha" operator="arithmetic" k2="-1" k3="1"/>
<feColorMatrix type="matrix" values="0 0 0 0 0 0 0 0 0 0 0 0 0 0 0 0 0 0 0.11 0"/>
<feBlend mode="normal" in2="shape" result="effect1_innerShadow_1230_304170"/>
<feColorMatrix in="SourceAlpha" type="matrix" values="0 0 0 0 0 0 0 0 0 0 0 0 0 0 0 0 0 0 127 0" result="hardAlpha"/>
<feOffset dx="-11.56" dy="-1.92667"/>
<feGaussianBlur stdDeviation="5.29835"/>
<feComposite in2="hardAlpha" operator="arithmetic" k2="-1" k3="1"/>
<feColorMatrix type="matrix" values="0 0 0 0 1 0 0 0 0 1 0 0 0 0 1 0 0 0 0.45 0"/>
<feBlend mode="normal" in2="effect1_innerShadow_1230_304170" result="effect2_innerShadow_1230_304170"/>
</filter>
<filter id="filter10_f_1230_304170" x="22.7282" y="41.9001" width="52.9836" height="36.049" filterUnits="userSpaceOnUse" color-interpolation-filters="sRGB">
<feFlood flood-opacity="0" result="BackgroundImageFix"/>
<feBlend mode="normal" in="SourceGraphic" in2="BackgroundImageFix" result="shape"/>
<feGaussianBlur stdDeviation="1.92667" result="effect1_foregroundBlur_1230_304170"/>
</filter>
<filter id="filter11_ii_1230_304170" x="15.9641" y="8.60676" width="67.4334" height="62.1174" filterUnits="userSpaceOnUse" color-interpolation-filters="sRGB">
<feFlood flood-opacity="0" result="BackgroundImageFix"/>
<feBlend mode="normal" in="SourceGraphic" in2="BackgroundImageFix" result="shape"/>
<feColorMatrix in="SourceAlpha" type="matrix" values="0 0 0 0 0 0 0 0 0 0 0 0 0 0 0 0 0 0 127 0" result="hardAlpha"/>
<feOffset dx="11.56" dy="-5.78002"/>
<feGaussianBlur stdDeviation="6.74336"/>
<feComposite in2="hardAlpha" operator="arithmetic" k2="-1" k3="1"/>
<feColorMatrix type="matrix" values="0 0 0 0 0 0 0 0 0 0 0 0 0 0 0 0 0 0 0.11 0"/>
<feBlend mode="normal" in2="shape" result="effect1_innerShadow_1230_304170"/>
<feColorMatrix in="SourceAlpha" type="matrix" values="0 0 0 0 0 0 0 0 0 0 0 0 0 0 0 0 0 0 127 0" result="hardAlpha"/>
<feOffset dx="-11.56" dy="-1.92667"/>
<feGaussianBlur stdDeviation="5.29835"/>
<feComposite in2="hardAlpha" operator="arithmetic" k2="-1" k3="1"/>
<feColorMatrix type="matrix" values="0 0 0 0 1 0 0 0 0 1 0 0 0 0 1 0 0 0 0.45 0"/>
<feBlend mode="normal" in2="effect1_innerShadow_1230_304170" result="effect2_innerShadow_1230_304170"/>
</filter>
<linearGradient id="paint0_linear_1230_304170" x1="35.0869" y1="159.5" x2="57.5869" y2="159.5" gradientUnits="userSpaceOnUse">
<stop offset="0.0666667" stop-opacity="0.28"/>
<stop offset="1" stop-opacity="0"/>
</linearGradient>
</defs>
</svg>
