<svg width="102" height="156" viewBox="0 0 102 156" fill="none" xmlns="http://www.w3.org/2000/svg">
<ellipse cx="41.3812" cy="95.2463" rx="27.4383" ry="27.2758" fill="black" fill-opacity="0.12"/>
<path d="M35.4234 63.2074C40.5545 60.4358 46.8171 60.8438 51.5405 64.2573L52.992 65.3063C54.3884 66.3155 55.9466 67.0795 57.5998 67.5658L59.2828 68.0607C64.9027 69.7136 69.0685 74.4515 69.9885 80.2367L70.2489 81.8747C70.5218 83.5905 71.0871 85.2467 71.9203 86.7709L72.6978 88.1932C75.521 93.3581 75.1035 99.6914 71.6264 104.446L70.6689 105.755C69.6427 107.158 68.8648 108.727 68.3691 110.393L67.8958 111.983C66.2242 117.599 61.4721 121.756 55.6833 122.666L53.9497 122.938C52.2468 123.206 50.6016 123.761 49.0846 124.581L47.5079 125.432C42.3768 128.204 36.1142 127.796 31.3908 124.383L29.9393 123.334C28.5429 122.324 26.9847 121.56 25.3315 121.074L23.6485 120.579C18.0286 118.926 13.8628 114.188 12.9428 108.403L12.6823 106.765C12.4095 105.049 11.8441 103.393 11.011 101.869L10.2335 100.447C7.41033 95.2818 7.82782 88.9485 11.3049 84.194L12.2624 82.8847C13.2886 81.4816 14.0665 79.913 14.5622 78.2472L15.0355 76.657C16.7071 71.0406 21.4592 66.8836 27.248 65.974L28.9816 65.7015C30.6845 65.4339 32.3297 64.8785 33.8466 64.0591L35.4234 63.2074Z" fill="black" fill-opacity="0.12"/>
<path fill-rule="evenodd" clip-rule="evenodd" d="M53.1276 34.6485C48.4042 31.235 42.1416 30.827 37.0105 33.5986L34.4974 34.9561C32.9804 35.7755 31.3353 36.3309 29.6324 36.5985L26.8463 37.0363C21.0574 37.946 16.3053 42.103 14.6337 47.7194L13.8581 50.3253C13.3624 51.9911 12.5845 53.5597 11.5583 54.9629L9.97419 57.129C6.49713 61.8834 6.07964 68.2167 8.90283 73.3815L10.189 75.7346C10.242 75.8315 10.2939 75.9289 10.3446 76.0268L11.9566 81.2356L12.2873 83.3151C12.6018 85.2931 13.2958 87.1488 14.2977 88.8005L18.5971 102.693C25.5235 125.075 56.9895 125.664 64.7483 103.557L68.9431 91.6047C69.8905 90.2692 70.6301 88.769 71.1128 87.1471L71.8884 84.5412C72.3842 82.8753 73.1621 81.3067 74.1883 79.9036L75.7724 77.7375C79.2494 72.9831 79.6669 66.6498 76.8437 61.4849L75.5575 59.1319C74.7243 57.6076 74.159 55.9515 73.8861 54.2356L73.4593 51.5514C72.5393 45.7661 68.3735 41.0282 62.7536 39.3754L60.0488 38.5799C58.3956 38.0936 56.8374 37.3296 55.441 36.3204L53.1276 34.6485Z" fill="#CA8A04"/>
<mask id="mask0_1230_304256" style="mask-type:alpha" maskUnits="userSpaceOnUse" x="9" y="72" width="67" height="48">
<path d="M9.37646 72.8972L75.2291 73.6955L64.7548 105.348L62.1988 108.944C51.2379 124.363 27.7582 122.384 19.5324 105.348L9.37646 72.8972Z" fill="#A16207"/>
</mask>
<g mask="url(#mask0_1230_304256)">
<g opacity="0.2">
<g filter="url(#filter0_dd_1230_304256)">
<path d="M66.8618 94.2522C62.2105 114.287 46.1173 141.437 27.189 140.956" stroke="#713F12" stroke-width="1.51549" stroke-linecap="round"/>
</g>
<g filter="url(#filter1_dd_1230_304256)">
<path d="M64.5215 82.9409C59.8711 103.15 43.7791 130.535 24.8508 130.049" stroke="#713F12" stroke-width="1.51549" stroke-linecap="round"/>
</g>
<g filter="url(#filter2_dd_1230_304256)">
<path d="M58.0176 75.2908C53.3663 95.3256 37.273 122.475 18.3447 121.995" stroke="#713F12" stroke-width="1.51549" stroke-linecap="round"/>
</g>
<g filter="url(#filter3_dd_1230_304256)">
<path d="M57.1934 63.1628C52.5421 83.1977 36.4488 110.347 17.5205 109.867" stroke="#713F12" stroke-width="1.51549" stroke-linecap="round"/>
</g>
<g filter="url(#filter4_dd_1230_304256)">
<path d="M66.5542 108.004C61.9029 128.039 45.8097 155.188 26.8813 154.708" stroke="#713F12" stroke-width="1.51549" stroke-linecap="round"/>
</g>
<path d="M17.438 94.5078C22.301 114.493 38.6806 141.476 57.6029 140.799" stroke="#713F12" stroke-width="1.51549" stroke-linecap="round"/>
<path d="M19.6597 83.1726C24.5236 103.332 40.9045 130.55 59.8267 129.869" stroke="#713F12" stroke-width="1.51549" stroke-linecap="round"/>
<path d="M25.7031 75.4578C30.5662 95.4434 46.9458 122.425 65.868 121.749" stroke="#713F12" stroke-width="1.51549" stroke-linecap="round"/>
<path d="M26.7793 63.3198C31.6423 83.3055 48.022 110.288 66.9442 109.611" stroke="#713F12" stroke-width="1.51549" stroke-linecap="round"/>
<path d="M17.8906 108.255C22.7537 128.241 39.1333 155.223 58.0555 154.547" stroke="#713F12" stroke-width="1.51549" stroke-linecap="round"/>
</g>
<path fill-rule="evenodd" clip-rule="evenodd" d="M53.1281 34.6488C48.4047 31.2352 42.1421 30.8273 37.011 33.5989L34.4979 34.9564C32.9809 35.7758 31.3358 36.3312 29.6329 36.5988L26.8467 37.0366C21.0579 37.9463 16.3058 42.1033 14.6342 47.7197L13.8586 50.3256C13.3629 51.9914 12.585 53.56 11.5588 54.9631L9.97468 57.1292C6.49762 61.8837 6.08013 68.2169 8.90331 73.3818L10.1895 75.7348C10.2425 75.8317 10.2943 75.9291 10.3451 76.027L11.9571 81.2358L12.2878 83.3153C12.6023 85.2934 13.2963 87.149 14.2982 88.8007L18.5976 102.694C25.5239 125.075 56.99 125.664 64.7488 103.557L68.9436 91.605C69.8909 90.2695 70.6306 88.7693 71.1133 87.1473L71.8889 84.5414C72.3847 82.8756 73.1626 81.307 74.1887 79.9038L75.7729 77.7377C79.2499 72.9833 79.6674 66.65 76.8442 61.4852L75.558 59.1321C74.7248 57.6078 74.1595 55.9517 73.8866 54.2358L73.4598 51.5516C72.5398 45.7664 68.374 41.0285 62.7541 39.3756L60.0493 38.5801C58.3961 38.0939 56.8379 37.3298 55.4415 36.3206L53.1281 34.6488Z" fill="url(#paint0_linear_1230_304256)"/>
<path d="M23.1634 117.605C22.9575 118.125 23.2123 118.713 23.7324 118.918C24.2526 119.123 24.8413 118.867 25.0472 118.347L23.1634 117.605ZM26.5091 111.904L25.5726 111.519L25.5699 111.526L25.5672 111.533L26.5091 111.904ZM26.6169 111.642L25.6804 111.258L25.6804 111.258L26.6169 111.642ZM38.1653 102.431L38.3319 103.43V103.43L38.1653 102.431ZM38.8407 102.318L39.0073 103.316L39.0685 103.306L39.128 103.288L38.8407 102.318ZM25.0472 118.347L27.451 112.275L25.5672 111.533L23.1634 117.605L25.0472 118.347ZM27.4456 112.288L27.5534 112.026L25.6804 111.258L25.5726 111.519L27.4456 112.288ZM38.3319 103.43L39.0073 103.316L38.6741 101.319L37.9987 101.433L38.3319 103.43ZM39.128 103.288L46.9742 100.955L46.3997 99.0143L38.5535 101.347L39.128 103.288ZM27.5534 112.026C29.4219 107.495 33.4975 104.244 38.3319 103.43L37.9987 101.433C32.4736 102.364 27.8158 106.079 25.6804 111.258L27.5534 112.026Z" fill="black" fill-opacity="0.2"/>
<g filter="url(#filter5_i_1230_304256)">
<path d="M48.7198 99.9843L42.3583 102.631C41.213 103.108 39.9852 103.387 38.7471 103.455C34.5676 103.686 30.8508 106.304 29.2552 110.173C28.7835 111.317 28.1186 112.374 27.2903 113.294C24.4839 116.411 23.7297 120.866 25.3546 124.725C25.8342 125.864 26.1145 127.077 26.1835 128.311L26.5654 135.153" stroke="#CA8A04" stroke-width="2.02537"/>
</g>
</g>
<path d="M37.0104 33.5987C42.1415 30.8271 48.4041 31.235 53.1275 34.6486L55.4409 36.3204C56.8373 37.3296 58.3955 38.0937 60.0487 38.5799L62.7535 39.3754C68.3734 41.0283 72.5392 45.7662 73.4592 51.5514L73.886 54.2356C74.1589 55.9515 74.7242 57.6076 75.5574 59.1319L76.8436 61.485C79.6668 66.6498 79.2493 72.9831 75.7722 77.7376L74.1881 79.9036C73.162 81.3068 72.3841 82.8754 71.8883 84.5412L71.1127 87.1471C69.4411 92.7635 64.689 96.9205 58.9002 97.8302L56.1141 98.268C54.4112 98.5356 52.766 99.091 51.249 99.9104L48.7359 101.268C43.6048 104.039 37.3423 103.632 32.6189 100.218L30.3055 98.5461C28.909 97.5369 27.3508 96.7729 25.6976 96.2866L22.9928 95.4911C17.3729 93.8383 13.2071 89.1004 12.2872 83.3151L11.8603 80.6309C11.5874 78.915 11.0221 77.2589 10.1889 75.7347L8.90271 73.3816C6.07952 68.2167 6.49701 61.8835 9.97407 57.129L11.5582 54.9629C12.5843 53.5598 13.3622 51.9912 13.858 50.3254L14.6336 47.7195C16.3052 42.1031 21.0573 37.9461 26.8461 37.0364L29.6322 36.5986C31.3352 36.331 32.9803 35.7756 34.4973 34.9562L37.0104 33.5987Z" fill="#CA8A04"/>
<path d="M37.0104 33.5987C42.1415 30.8271 48.4041 31.235 53.1275 34.6486L55.4409 36.3204C56.8373 37.3296 58.3955 38.0937 60.0487 38.5799L62.7535 39.3754C68.3734 41.0283 72.5392 45.7662 73.4592 51.5514L73.886 54.2356C74.1589 55.9515 74.7242 57.6076 75.5574 59.1319L76.8436 61.485C79.6668 66.6498 79.2493 72.9831 75.7722 77.7376L74.1881 79.9036C73.162 81.3068 72.3841 82.8754 71.8883 84.5412L71.1127 87.1471C69.4411 92.7635 64.689 96.9205 58.9002 97.8302L56.1141 98.268C54.4112 98.5356 52.766 99.091 51.249 99.9104L48.7359 101.268C43.6048 104.039 37.3423 103.632 32.6189 100.218L30.3055 98.5461C28.909 97.5369 27.3508 96.7729 25.6976 96.2866L22.9928 95.4911C17.3729 93.8383 13.2071 89.1004 12.2872 83.3151L11.8603 80.6309C11.5874 78.915 11.0221 77.2589 10.1889 75.7347L8.90271 73.3816C6.07952 68.2167 6.49701 61.8835 9.97407 57.129L11.5582 54.9629C12.5843 53.5598 13.3622 51.9912 13.858 50.3254L14.6336 47.7195C16.3052 42.1031 21.0573 37.9461 26.8461 37.0364L29.6322 36.5986C31.3352 36.331 32.9803 35.7756 34.4973 34.9562L37.0104 33.5987Z" fill="#CA8A04"/>
<mask id="mask1_1230_304256" style="mask-type:alpha" maskUnits="userSpaceOnUse" x="9" y="34" width="67" height="67">
<path d="M36.8272 36.3828C41.9583 33.6112 48.2209 34.0191 52.9443 37.4327L54.3761 38.4674C55.7725 39.4766 57.3307 40.2407 58.9839 40.7269L60.6435 41.215C66.2634 42.8679 70.4292 47.6058 71.3492 53.391L71.6059 55.005C71.8787 56.7209 72.4441 58.377 73.2773 59.9013L74.0431 61.3023C76.8663 66.4672 76.4488 72.8005 72.9717 77.5549L72.0285 78.8446C71.0024 80.2478 70.2245 81.8164 69.7287 83.4822L69.2623 85.0491C67.5908 90.6655 62.8386 94.8225 57.0498 95.7322L55.3403 96.0009C53.6373 96.2685 51.9922 96.8238 50.4752 97.6433L48.9198 98.4834C43.7887 101.255 37.5261 100.847 32.8027 97.4335L31.3709 96.3988C29.9745 95.3896 28.4163 94.6255 26.7631 94.1393L25.1035 93.6512C19.4836 91.9983 15.3178 87.2604 14.3978 81.4752L14.1411 79.8612C13.8683 78.1453 13.3029 76.4892 12.4697 74.9649L11.7039 73.5639C8.88074 68.399 9.29823 62.0657 12.7753 57.3113L13.7185 56.0216C14.7446 54.6184 15.5225 53.0498 16.0183 51.384L16.4847 49.8171C18.1562 44.2007 22.9084 40.0437 28.6972 39.134L30.4067 38.8654C32.1097 38.5978 33.7548 38.0424 35.2718 37.223L36.8272 36.3828Z" fill="#854D0E"/>
</mask>
<g mask="url(#mask1_1230_304256)">
<g filter="url(#filter6_i_1230_304256)">
<ellipse cx="42.4319" cy="75.4265" rx="41.4695" ry="41.2238" fill="#854D0E"/>
</g>
<g filter="url(#filter7_i_1230_304256)">
<path d="M10.6415 89.3262C10.6163 89.1137 10.603 88.9027 10.603 88.6949C10.603 78.3867 18.9682 76.0148 24.7486 76.2923C37.4164 76.9003 58.0655 67.804 69.0067 78.6465C69.2072 78.8452 69.4077 79.054 69.6061 79.2683C71.1064 80.889 72.3328 81.8868 72.8551 84.0327C74.1923 89.5274 70.8882 95.7661 68.3055 100.797C68.2737 100.859 68.2408 100.919 68.2066 100.976C66.5536 103.761 64.294 110.907 61.8062 110.076C61.0304 109.816 59.7088 110.091 59.0845 112.298C58.6478 113.842 58.376 113.433 57.406 114.175C55.2875 115.793 53.6632 116.124 52.2637 115.825C45.5472 114.387 38.5529 120.748 34.0404 115.57C33.7705 115.26 33.5543 114.806 33.4045 114.175C32.839 111.793 30.4743 111.484 29.6477 111.722C28.2478 112.125 26.0745 112.033 24.7486 111.722C22.3785 111.168 23.9733 106.782 21.7019 106.782C20.1916 106.782 17.4494 104.171 16.6034 101.479C15.1915 96.986 11.1959 94.003 10.6415 89.3262Z" fill="black" fill-opacity="0.2"/>
<g filter="url(#filter8_i_1230_304256)">
<path d="M11.4168 92.6838C9.53272 92.6838 6.76074 89.569 6.76074 86.9818C6.76074 77.4098 16.4972 75.2074 23.2253 75.465C37.9697 76.0296 62.0039 67.5831 74.7388 77.6511C75.9029 78.5715 77.0668 79.7246 77.9289 80.5885C79.8604 81.7981 80.7916 88.5369 76.6899 90.7406C74.7388 90.7406 75.3951 96.2523 73.8076 98.3859C71.8836 100.972 69.2535 103.823 66.3579 103.051C65.4549 102.81 63.9166 103.065 63.19 105.115C62.6817 106.548 62.3653 107.676 61.2363 108.364C53.1493 113.294 51.25 107.642 44.4746 108.364C40.7498 109.79 34.6632 115.222 33.3001 110.641C32.6419 108.43 29.8895 108.143 28.9275 108.364C27.2981 108.739 24.7685 108.652 23.2253 108.364C20.4666 107.849 20.1133 103.57 17.4696 103.57C15.7117 103.57 14.7295 101.353 13.7448 98.8527C12.6072 95.9647 13.7448 93.7205 11.4168 92.6838Z" fill="#E9D5FF"/>
</g>
<g filter="url(#filter9_iiii_1230_304256)">
<path d="M61.8796 101.25C79.6959 91.0243 85.0217 67.9274 74.7828 50.2982C64.544 32.669 41.8007 26.667 23.9844 36.8923C6.16805 47.1177 0.475627 69.5128 10.7145 87.142C12.2798 89.8372 13.9872 92.512 15.9163 94.9455C20.395 100.595 27.5787 102.965 34.7046 104.142C44.76 105.804 53.0103 106.34 61.8796 101.25Z" fill="#E9D5FF"/>
</g>
<mask id="mask2_1230_304256" style="mask-type:alpha" maskUnits="userSpaceOnUse" x="5" y="31" width="75" height="75">
<path d="M61.3223 100.733C79.1387 90.5079 85.2814 67.9274 75.0426 50.2982C64.8037 32.669 42.0605 26.667 24.2442 36.8923C6.42781 47.1177 0.735393 69.5128 10.9743 87.142C21.2131 104.771 43.506 110.959 61.3223 100.733Z" fill="#FCA5A5"/>
</mask>
<g mask="url(#mask2_1230_304256)">
<g opacity="0.24" filter="url(#filter10_f_1230_304256)">
<path fill-rule="evenodd" clip-rule="evenodd" d="M76.0973 75.3429C76.0809 75.3632 76.0603 75.3903 76.0352 75.4259C75.9686 75.5205 75.9188 75.6015 75.8494 75.7145C75.8082 75.7814 75.7601 75.8597 75.6975 75.9587C75.5616 76.1736 75.3567 76.4841 75.0759 76.7632C73.355 78.4739 70.7325 79.2435 68.8272 80.8106C66.8191 82.4623 65.9174 85.2307 63.6776 86.5677C63.5972 86.6157 63.515 86.6619 63.431 86.7061C61.6539 87.6414 59.6287 88.0948 57.9444 89.1586C57.0596 89.7172 56.1823 89.9778 55.1699 90.1659C52.5628 90.6502 49.5429 91.2112 46.5518 90.6706C44.5558 90.3098 42.5942 89.7642 40.5843 89.4788C39.1834 89.2798 38.0994 88.4604 36.8424 87.905C35.5941 87.3536 33.8685 86.4561 32.7241 85.2515C32.4607 84.9744 32.2492 84.6999 32.0987 84.5071C31.9309 84.292 31.8452 84.1876 31.7663 84.1113C31.7062 84.0532 31.6803 84.0424 31.6674 84.0372C31.6506 84.0304 31.573 84.0012 31.3776 84.0012H27.1729C24.0294 84.0012 21.8655 81.8361 20.3128 80.2824C20.2267 80.1963 18.4303 77.9494 18.3479 77.8675C16.2374 75.7694 11.9264 74.7372 9.05639 77.2732C8.42141 77.8343 7.4491 77.7774 6.88467 77.1462C6.32024 76.515 6.37744 75.5484 7.01242 74.9874C8.14706 73.9848 9.58122 73.5801 10.9881 73.5043C14.9004 73.2936 19.4994 75.1475 22.2356 77.8675C24.0604 79.6815 25.3667 80.9428 27.1729 80.9428H31.3776C32.728 80.9428 33.7224 81.5979 34.5174 82.6168C35.4331 83.7904 36.7417 84.5137 38.0919 85.1103C38.5299 85.3038 39.0056 85.5661 39.3878 85.7769C39.9011 86.0599 40.4299 86.3674 41.0194 86.4512C43.0687 86.7422 45.0673 87.2938 47.1021 87.6615C51.2461 88.4105 54.3418 86.779 58.0521 85.6825C60.6225 84.9228 62.6046 83.8361 64.0573 81.5931C64.2329 81.3219 64.4154 81.0401 64.6334 80.7249C65.2034 79.9007 66.0693 79.1094 66.8659 78.4542C68.2854 77.2867 70.7184 77.2558 72.3946 76.4866C73.0042 76.2069 72.7237 74.9146 73.093 74.3307C73.1129 74.2992 73.1385 74.2577 73.1682 74.2095C73.2605 74.0597 73.3922 73.8461 73.5149 73.6718C73.879 73.155 74.5702 72.3695 75.7988 72.2977C76.2518 72.2712 77.2526 72.1386 78.0334 72.0052C78.1034 71.9932 78.1701 71.9815 78.2332 71.9701C78.4759 71.8111 78.7665 71.7185 79.0789 71.7185C79.1662 71.7185 79.28 71.7206 79.3957 71.7329C79.4504 71.7386 79.5502 71.7511 79.6668 71.7816L79.6724 71.783C79.7346 71.7988 80.0862 71.8881 80.3918 72.1962C80.5919 72.398 80.8159 72.7414 80.836 73.2104C80.8552 73.6583 80.6778 73.991 80.5481 74.1713C80.3339 74.4689 80.0663 74.6108 80.0111 74.64L80.0065 74.6424C79.8428 74.73 79.6856 74.777 79.6318 74.7931C79.3637 74.8733 78.9415 74.9533 78.5543 75.0194C77.7886 75.1502 76.7401 75.2956 76.0973 75.3429Z" fill="#FDE047"/>
<path fill-rule="evenodd" clip-rule="evenodd" d="M20.3172 95.8344C9.42455 89.6887 8.47611 83.2925 22.8483 91.4014C24.5808 92.3789 26.8589 95.9558 28.8097 97.2024C32.9339 99.838 51.8595 95.6051 52.9096 97.2024C53.3574 98.5377 47.0156 99.7224 45.6723 100.167C41.4494 101.567 36.0076 100.84 31.6548 100.658C30.0235 100.589 28.1195 100.293 26.3664 99.1729C25.2378 98.4516 24.0916 97.8502 22.8569 97.2024C22.0542 96.7813 21.2142 96.3405 20.3172 95.8344Z" fill="#FDE047"/>
<path fill-rule="evenodd" clip-rule="evenodd" d="M79.5386 66.8273C81.5104 67.0451 81.1707 70.0848 79.1989 69.867C76.618 69.5819 74.9028 67.4917 72.5522 66.686C69.4665 65.6282 65.0204 66.2803 62.0777 67.3387C57.1994 69.0935 51.1873 73.9688 45.9905 72.2191C43.772 71.4722 38.298 67.0734 43.953 68.5758C49.2007 69.97 51.6433 68.0606 56.1518 66.4007C57.7946 65.7958 59.3833 65.0555 61.0309 64.4629C68.9325 61.6206 72.6433 66.0657 79.5386 66.8273Z" fill="#FDE047"/>
<path d="M8.04639 63.5104C11.4613 66.9051 16.9567 60.0249 19.0655 58.0334C21.331 55.894 24.2753 54.6348 27.3138 56.0156C34.2266 59.157 41.5755 58.9338 48.9977 57.5209C52.8506 56.7875 55.417 54.4584 58.7925 52.7807C60.6577 51.8536 64.3942 51.8627 66.4608 52.3323C67.4798 52.5638 69.1004 52.4521 69.8761 53.0689C70.229 53.3496 71.9826 53.9432 72.4214 53.9978C73.4587 54.1267 74.4005 55.1508 75.6112 55.1508C76.6534 55.1508 77.6496 55.4391 78.8009 55.4391" stroke="#FDE047" stroke-width="3.06585" stroke-linecap="round"/>
<path fill-rule="evenodd" clip-rule="evenodd" d="M16.3862 44.013C16.3804 44.0158 16.3267 44.0414 16.2144 44.1386C16.0795 44.2555 15.9486 44.3944 15.7515 44.6035C15.7286 44.6279 15.7047 44.6531 15.6799 44.6794C15.4733 44.8983 15.1806 45.2057 14.8376 45.4638C14.4829 45.7308 13.9917 46.0103 13.3645 46.0882C12.5215 46.193 11.7527 45.5986 11.6473 44.7605C11.5442 43.9404 12.1147 43.1909 12.9293 43.0611C12.9407 43.054 12.9577 43.0427 12.9806 43.0255C13.0899 42.9432 13.2208 42.815 13.4365 42.5866C13.4582 42.5636 13.4811 42.5392 13.5052 42.5135C13.6857 42.3213 13.931 42.06 14.1931 41.833C14.4987 41.5682 14.9243 41.2603 15.4761 41.0915C19.1198 39.977 23.4795 40.0434 27.12 41.2278C30.77 42.4153 32.8169 42.8445 36.501 42.8445C36.9531 42.8445 37.7935 42.4081 38.3706 42.3337C39.2628 42.2188 41.8178 43.225 42.6541 42.8445C48.2945 43.3543 51.3587 43.7336 50.8584 44.8834C50.8584 46.8936 37.6842 44.3504 34.4499 44.8834C33.6126 45.0215 32.5952 46.1 31.5873 46.1C29.5657 46.1 28.0839 43.4426 26.2457 42.8445C23.1951 41.8521 19.4058 43.0908 16.3862 44.013Z" fill="#FDE047"/>
</g>
<g opacity="0.28" filter="url(#filter11_f_1230_304256)">
<path fill-rule="evenodd" clip-rule="evenodd" d="M11.5219 70.7555C11.5382 70.7758 11.5589 70.8029 11.5839 70.8385C11.6506 70.9331 11.7003 71.0141 11.7698 71.1271C11.8109 71.194 11.859 71.2723 11.9216 71.3713C12.0576 71.5862 12.2624 71.8967 12.5432 72.1758C14.2642 73.8865 16.8866 74.6561 18.7919 76.2232C20.8001 77.8749 21.7018 80.6433 23.9415 81.9803C24.022 82.0283 24.1041 82.0745 24.1881 82.1187C25.9652 83.0539 27.9905 83.5074 29.6748 84.5711C30.5596 85.1298 31.4369 85.3904 32.4493 85.5785C35.0563 86.0628 38.0762 86.6238 41.0674 86.0832C43.0633 85.7224 45.0249 85.1768 47.0348 84.8914C48.4358 84.6924 49.5198 83.873 50.7768 83.3176C52.025 82.7662 53.7507 81.8687 54.8951 80.6641C55.1584 80.387 55.3699 80.1125 55.5204 79.9197C55.6883 79.7046 55.774 79.6002 55.8529 79.5239C55.913 79.4658 55.9389 79.455 55.9517 79.4498C55.9685 79.443 56.0462 79.4138 56.2415 79.4138H60.4462C63.5898 79.4138 65.7536 77.2486 67.3064 75.695C67.3924 75.6089 69.1888 73.362 69.2712 73.2801C71.3818 71.182 75.6928 70.1498 78.5627 72.6858C79.1977 73.2469 80.17 73.19 80.7345 72.5588C81.2989 71.9276 81.2417 70.961 80.6067 70.4C79.4721 69.3974 78.0379 68.9927 76.6311 68.9169C72.7187 68.7062 68.1198 70.5601 65.3836 73.2801C63.5588 75.0941 62.2525 76.3554 60.4462 76.3554H56.2415C54.8911 76.3554 53.8967 77.0105 53.1017 78.0294C52.186 79.203 50.8774 79.9263 49.5272 80.5229C49.0892 80.7164 48.6136 80.9787 48.2314 81.1894C47.718 81.4725 47.1892 81.78 46.5997 81.8637C44.5504 82.1548 42.5518 82.7064 40.517 83.0741C36.3731 83.8231 33.2774 82.1916 29.567 81.095C26.9966 80.3354 25.0145 79.2487 23.5619 77.0057C23.3862 76.7345 23.2037 76.4527 22.9857 76.1375C22.4157 75.3133 21.5498 74.522 20.7532 73.8668C19.3337 72.6993 16.9008 72.6684 15.2245 71.8992C14.615 71.6195 14.8955 70.3272 14.5262 69.7433C14.5062 69.7118 14.4806 69.6703 14.4509 69.6221C14.3586 69.4723 14.2269 69.2587 14.1042 69.0844C13.7402 68.5676 13.0489 67.7821 11.8203 67.7103C11.3673 67.6838 10.3665 67.5511 9.58578 67.4178C9.51578 67.4058 9.44899 67.3941 9.38592 67.3827C9.14327 67.2237 8.85263 67.1311 8.54023 67.1311C8.45291 67.1311 8.33917 67.1332 8.22346 67.1455C8.16872 67.1512 8.06891 67.1637 7.95232 67.1942L7.94673 67.1956C7.88459 67.2114 7.53297 67.3007 7.22737 67.6088C7.02728 67.8106 6.8032 68.154 6.78311 68.623C6.76394 69.0709 6.94136 69.4036 7.07106 69.5839C7.28524 69.8815 7.55283 70.0234 7.60807 70.0526L7.61259 70.055C7.77639 70.1426 7.93358 70.1896 7.98738 70.2057C8.2554 70.2859 8.67764 70.3659 9.0648 70.432C9.83056 70.5628 10.879 70.7082 11.5219 70.7555Z" stroke="white" stroke-opacity="0.4" stroke-width="3.06585" stroke-linecap="round"/>
<path d="M81.6147 89.9914C78.4901 89.9914 75.7613 89.104 72.7221 88.486C70.6237 88.0593 67.9448 87.9538 66.0365 89.0305C64.0318 90.1616 61.7729 91.2232 59.8664 92.4416C57.4557 93.9821 54.3442 93.4505 51.586 93.4505C48.8726 93.4505 45.3544 94.0226 42.7577 93.1622" stroke="white" stroke-opacity="0.4" stroke-width="3.06585" stroke-linecap="round"/>
<path fill-rule="evenodd" clip-rule="evenodd" d="M8.08052 62.2399C6.10872 62.4577 6.44847 65.4973 8.42026 65.2796C11.0011 64.9945 12.7164 62.9043 15.0669 62.0986C18.1526 61.0408 22.5988 61.6928 25.5414 62.7513C30.4198 64.5061 36.4319 69.3814 41.6286 67.6317C43.8471 66.8848 49.3211 62.486 43.6661 63.9884C38.4184 65.3826 35.9759 63.4732 31.4674 61.8133C29.8246 61.2084 28.2358 60.4681 26.5882 59.8755C18.6866 57.0332 14.9759 61.4783 8.08052 62.2399Z" stroke="white" stroke-opacity="0.4" stroke-width="3.06585" stroke-linecap="round"/>
<path d="M79.5732 58.9229C76.1583 62.3177 70.6629 55.4375 68.5541 53.446C66.2887 51.3066 63.3443 50.0474 60.3058 51.4282C53.393 54.5696 46.0441 54.3464 38.622 52.9335C34.769 52.2001 32.2026 49.871 28.8272 48.1933C26.9619 47.2662 23.2254 47.2753 21.1589 47.7449C20.1398 47.9764 18.5192 47.8647 17.7436 48.4815C17.3906 48.7622 15.637 49.3558 15.1982 49.4104C14.161 49.5393 13.2191 50.5634 12.0085 50.5634C10.9662 50.5634 9.97006 50.8517 8.81871 50.8517" stroke="white" stroke-opacity="0.4" stroke-width="3.06585" stroke-linecap="round"/>
<path fill-rule="evenodd" clip-rule="evenodd" d="M71.233 39.4256C71.2387 39.4284 71.2925 39.454 71.4047 39.5512C71.5396 39.6681 71.6705 39.807 71.8677 40.0161C71.8906 40.0405 71.9144 40.0657 71.9392 40.092C72.1459 40.3109 72.4385 40.6183 72.7815 40.8764C73.1362 41.1434 73.6274 41.4229 74.2546 41.5008C75.0976 41.6056 75.8665 41.0112 75.9718 40.1731C76.075 39.353 75.5045 38.6035 74.6899 38.4737C74.6785 38.4666 74.6615 38.4553 74.6385 38.4381C74.5292 38.3558 74.3983 38.2276 74.1827 37.9992C74.161 37.9762 74.138 37.9518 74.114 37.9261C73.9334 37.7338 73.6881 37.4726 73.4261 37.2456C73.1204 36.9808 72.6948 36.6729 72.143 36.5041C68.4993 35.3896 64.1396 35.456 60.4991 36.6404C56.8491 37.8279 54.8022 38.2571 51.1182 38.2571C50.666 38.2571 49.8256 37.8207 49.2485 37.7463C48.3564 37.6314 45.8013 38.6376 44.965 38.2571C39.3246 38.7669 36.2604 39.1462 36.7608 40.296C36.7608 42.3062 49.935 39.763 53.1692 40.296C54.0066 40.4341 55.024 41.5126 56.0319 41.5126C58.0534 41.5126 59.5352 38.8552 61.3735 38.2571C64.4241 37.2647 68.2133 38.5034 71.233 39.4256Z" stroke="white" stroke-opacity="0.4" stroke-width="3.06585" stroke-linecap="round"/>
</g>
</g>
</g>
</g>
<ellipse cx="42.4033" cy="61.2322" rx="28.0981" ry="27.9316" fill="black" fill-opacity="0.12"/>
<g filter="url(#filter12_i_1230_304256)">
<path d="M94.7525 9.22892C95.6289 7.79014 97.5077 7.32672 98.949 8.19385C100.39 9.06098 100.848 10.9303 99.9718 12.3691L68.2866 64.3869L63.0674 61.2468L94.7525 9.22892Z" fill="#C8A078"/>
</g>
<g filter="url(#filter13_i_1230_304256)">
<ellipse cx="7.22164" cy="17.0587" rx="7.22164" ry="17.0587" transform="matrix(0.630315 0.774524 -0.569545 0.823101 71.7056 43.0374)" fill="#C8A078"/>
</g>
<ellipse opacity="0.47" cx="5.04198" cy="13.0293" rx="5.04198" ry="13.0293" transform="matrix(0.597975 0.799716 -0.60283 0.799159 69.812 47.4441)" fill="black" fill-opacity="0.12"/>
<g filter="url(#filter14_iiii_1230_304256)">
<path d="M58.5799 81.176C73.546 72.6735 78.0198 53.468 69.4189 38.8091C60.818 24.1502 41.7132 19.1595 26.747 27.662C11.7809 36.1645 6.99913 54.7864 15.6 69.4453C16.6473 71.2303 17.7704 73.0045 19.0029 74.6752C23.1979 80.3614 30.2835 82.7639 37.3073 83.8267C45.0609 85 51.5917 85.1461 58.5799 81.176Z" fill="#E9D5FF"/>
</g>
<mask id="mask3_1230_304256" style="mask-type:alpha" maskUnits="userSpaceOnUse" x="11" y="23" width="63" height="62">
<path d="M58.1118 80.7466C73.078 72.2441 78.238 53.468 69.6372 38.8091C61.0363 24.1502 41.9314 19.1595 26.9653 27.662C11.9992 36.1645 7.2174 54.7864 15.8183 69.4453C24.4192 84.1042 43.1457 89.2491 58.1118 80.7466Z" fill="#FCA5A5"/>
</mask>
<g mask="url(#mask3_1230_304256)">
<g opacity="0.24" filter="url(#filter15_f_1230_304256)">
<path fill-rule="evenodd" clip-rule="evenodd" d="M70.5233 59.6341C70.5095 59.651 70.4922 59.6735 70.4711 59.7031C70.4151 59.7818 70.3733 59.8491 70.315 59.9431C70.2804 59.9987 70.24 60.0638 70.1874 60.1461C70.0733 60.3248 69.9012 60.583 69.6653 60.8151C68.2197 62.2376 66.0167 62.8775 64.4162 64.1805C62.7293 65.5539 61.9719 67.8559 60.0905 68.9677C60.0229 69.0076 59.9539 69.046 59.8833 69.0827C58.3905 69.8604 56.6893 70.2375 55.2744 71.122C54.5311 71.5865 53.7942 71.8032 52.9437 71.9596C50.7538 72.3623 48.217 72.8288 45.7044 72.3792C44.0277 72.0793 42.3799 71.6256 40.6916 71.3883C39.5147 71.2228 38.6041 70.5415 37.5482 70.0797C36.4997 69.6211 35.0501 68.8749 34.0887 67.8733C33.8675 67.6428 33.6899 67.4145 33.5634 67.2542C33.4225 67.0754 33.3504 66.9886 33.2842 66.9252C33.2337 66.8768 33.2119 66.8679 33.2011 66.8635C33.187 66.8579 33.1218 66.8336 32.9577 66.8336H29.4257C26.785 66.8336 24.9673 65.0332 23.663 63.7414C23.5907 63.6697 22.0817 61.8015 22.0125 61.7334C20.2395 59.9888 16.6182 59.1305 14.2074 61.2392C13.674 61.7057 12.8572 61.6584 12.3831 61.1336C11.9089 60.6087 11.957 59.805 12.4904 59.3385C13.4435 58.5048 14.6482 58.1683 15.83 58.1053C19.1165 57.9301 22.9797 59.4717 25.2782 61.7334C26.811 63.2417 27.9084 64.2905 29.4257 64.2905H32.9577C34.0921 64.2905 34.9274 64.8352 35.5952 65.6825C36.3644 66.6583 37.4637 67.2598 38.5978 67.7558C38.9658 67.9167 39.3653 68.1348 39.6864 68.3101C40.1177 68.5455 40.5618 68.8011 41.057 68.8707C42.7785 69.1127 44.4574 69.5714 46.1667 69.8772C49.6477 70.5 52.2481 69.1434 55.3649 68.2316C57.5241 67.5999 59.1891 66.6963 60.4094 64.8312C60.5569 64.6057 60.7102 64.3714 60.8934 64.1093C61.3722 63.424 62.0995 62.766 62.7687 62.2212C63.9611 61.2504 66.0048 61.2247 67.4129 60.5851C67.925 60.3525 67.6894 59.278 67.9996 58.7925C68.0163 58.7663 68.0378 58.7317 68.0628 58.6917C68.1403 58.5671 68.2509 58.3895 68.354 58.2446C68.6598 57.8148 69.2405 57.1617 70.2726 57.1019C70.6531 57.0799 71.4938 56.9696 72.1496 56.8587C72.2084 56.8488 72.2645 56.8391 72.3175 56.8296C72.5213 56.6973 72.7655 56.6204 73.0279 56.6204C73.1012 56.6204 73.1968 56.6221 73.294 56.6323C73.34 56.6371 73.4238 56.6474 73.5218 56.6728L73.5265 56.674C73.5786 56.6871 73.874 56.7614 74.1307 57.0176C74.2988 57.1854 74.487 57.4709 74.5039 57.8609C74.52 58.2333 74.371 58.51 74.262 58.6599C74.0821 58.9074 73.8573 59.0253 73.8109 59.0497L73.8071 59.0517C73.6695 59.1244 73.5375 59.1635 73.4923 59.1769C73.2672 59.2436 72.9125 59.3101 72.5872 59.3651C71.944 59.4738 71.0633 59.5947 70.5233 59.6341Z" fill="#A855F7"/>
<path fill-rule="evenodd" clip-rule="evenodd" d="M23.6666 76.6733C14.5165 71.563 13.7198 66.2445 25.7927 72.9871C27.2481 73.8 29.1618 76.7741 30.8004 77.8107C34.2649 80.0022 50.1628 76.4826 51.0449 77.8107C51.4211 78.9211 46.0938 79.9061 44.9654 80.2762C41.4181 81.4398 36.8468 80.8354 33.1904 80.6837C31.8201 80.6269 30.2206 80.3807 28.7481 79.4492C27.8 78.8494 26.8371 78.3494 25.7999 77.8107C25.1257 77.4605 24.4201 77.0941 23.6666 76.6733Z" fill="#A855F7"/>
<path fill-rule="evenodd" clip-rule="evenodd" d="M73.4141 52.5534C75.0705 52.7345 74.7851 55.2621 73.1287 55.081C70.9608 54.8439 69.5199 53.1059 67.5454 52.4359C64.9533 51.5564 61.2185 52.0986 58.7466 52.9787C54.6487 54.4378 49.5983 58.4917 45.233 57.0368C43.3693 56.4157 38.771 52.7581 43.5214 54.0073C47.9296 55.1667 49.9814 53.579 53.7686 52.1987C55.1486 51.6958 56.4832 51.0802 57.8672 50.5874C64.5048 48.224 67.6219 51.9201 73.4141 52.5534Z" fill="#A855F7"/>
<path d="M13.3589 49.7955C16.2275 52.6182 20.8438 46.8973 22.6152 45.2413C24.5182 43.4624 26.9916 42.4154 29.544 43.5635C35.3509 46.1756 41.5241 45.99 47.7589 44.8152C50.9955 44.2054 53.1513 42.2687 55.9868 40.8736C57.5536 40.1027 60.6924 40.1103 62.4283 40.5008C63.2843 40.6933 64.6457 40.6004 65.2972 41.1133C65.5938 41.3467 67.0668 41.8403 67.4354 41.8857C68.3067 41.9928 69.0979 42.8444 70.1149 42.8444C70.9904 42.8444 71.8272 43.0841 72.7943 43.0841" stroke="#C084FC" stroke-width="3" stroke-linecap="round"/>
<path fill-rule="evenodd" clip-rule="evenodd" d="M20.3644 33.583C20.3596 33.5853 20.3144 33.6066 20.2201 33.6875C20.1068 33.7846 19.9968 33.9001 19.8313 34.074C19.812 34.0943 19.792 34.1153 19.7711 34.1371C19.5975 34.3192 19.3517 34.5748 19.0636 34.7894C18.7657 35.0114 18.353 35.2438 17.8262 35.3086C17.118 35.3957 16.4722 34.9014 16.3836 34.2046C16.297 33.5226 16.7763 32.8994 17.4605 32.7915C17.4701 32.7856 17.4844 32.7762 17.5037 32.7618C17.5955 32.6934 17.7054 32.5869 17.8866 32.3969C17.9048 32.3778 17.9241 32.3575 17.9443 32.3362C18.096 32.1763 18.302 31.9591 18.5222 31.7703C18.7789 31.5501 19.1364 31.2941 19.5999 31.1537C22.6607 30.227 26.323 30.2823 29.3811 31.2671C32.4472 32.2545 34.1666 32.6114 37.2613 32.6114C37.6411 32.6114 38.3471 32.2485 38.8318 32.1867C39.5813 32.0911 41.7276 32.9278 42.4301 32.6114C47.1682 33.0353 49.7422 33.3507 49.3219 34.3068C49.3219 35.9783 38.2552 33.8636 35.5384 34.3068C34.835 34.4216 33.9804 35.3184 33.1337 35.3184C31.4356 35.3184 30.1908 33.1087 28.6466 32.6114C26.0841 31.7862 22.901 32.8161 20.3644 33.583Z" fill="#A855F7"/>
</g>
<g opacity="0.28" filter="url(#filter16_f_1230_304256)">
<path fill-rule="evenodd" clip-rule="evenodd" d="M16.2785 55.8194C16.2922 55.8363 16.3096 55.8588 16.3306 55.8884C16.3866 55.9671 16.4284 56.0344 16.4868 56.1284C16.5213 56.184 16.5617 56.2491 16.6143 56.3314C16.7285 56.5101 16.9006 56.7683 17.1365 57.0004C18.5821 58.4229 20.785 59.0628 22.3855 60.3658C24.0724 61.7392 24.8299 64.0412 26.7113 65.153C26.7789 65.1929 26.8479 65.2313 26.9184 65.268C28.4113 66.0457 30.1125 66.4228 31.5274 67.3073C32.2706 67.7718 33.0076 67.9885 33.858 68.1449C36.048 68.5476 38.5848 69.0141 41.0974 68.5645C42.7741 68.2646 44.4219 67.8109 46.1102 67.5736C47.287 67.4081 48.1976 66.7268 49.2535 66.265C50.3021 65.8064 51.7517 65.0602 52.713 64.0586C52.9342 63.8281 53.1119 63.5998 53.2383 63.4395C53.3793 63.2607 53.4513 63.1739 53.5176 63.1105C53.5681 63.0621 53.5898 63.0532 53.6006 63.0488C53.6147 63.0432 53.68 63.0189 53.8441 63.0189H57.3761C60.0167 63.0189 61.8345 61.2185 63.1388 59.9267C63.2111 59.855 64.7201 57.9868 64.7893 57.9187C66.5622 56.1741 70.1836 55.3158 72.5944 57.4245C73.1278 57.891 73.9446 57.8437 74.4187 57.3189C74.8928 56.794 74.8448 55.9903 74.3114 55.5238C73.3583 54.6901 72.1535 54.3536 70.9718 54.2906C67.6853 54.1154 63.8221 55.657 61.5236 57.9187C59.9907 59.427 58.8934 60.4758 57.3761 60.4758H53.8441C52.7097 60.4758 51.8744 61.0205 51.2065 61.8678C50.4374 62.8436 49.3381 63.4451 48.2039 63.9411C47.836 64.102 47.4364 64.3201 47.1153 64.4954C46.6841 64.7308 46.2399 64.9864 45.7447 65.0561C44.0233 65.298 42.3444 65.7567 40.6351 66.0625C37.1541 66.6853 34.5536 65.3287 31.4368 64.4169C29.2777 63.7852 27.6127 62.8816 26.3924 61.0165C26.2448 60.791 26.0915 60.5567 25.9084 60.2946C25.4296 59.6093 24.7022 58.9513 24.033 58.4065C22.8407 57.4357 20.7969 57.41 19.3888 56.7704C18.8768 56.5379 19.1124 55.4633 18.8022 54.9778C18.7854 54.9516 18.7639 54.917 18.739 54.877C18.6615 54.7524 18.5508 54.5748 18.4477 54.4299C18.142 54.0001 17.5612 53.347 16.5292 53.2872C16.1487 53.2652 15.308 53.1549 14.6522 53.044C14.5934 53.0341 14.5372 53.0244 14.4843 53.0149C14.2804 52.8826 14.0363 52.8057 13.7739 52.8057C13.7005 52.8057 13.605 52.8074 13.5078 52.8176C13.4618 52.8224 13.3779 52.8327 13.28 52.8581L13.2753 52.8593C13.2231 52.8724 12.9277 52.9467 12.671 53.2029C12.503 53.3707 12.3147 53.6562 12.2978 54.0462C12.2817 54.4186 12.4308 54.6953 12.5397 54.8452C12.7196 55.0927 12.9444 55.2106 12.9908 55.235L12.9946 55.237C13.1322 55.3097 13.2643 55.3489 13.3095 55.3622C13.5346 55.429 13.8893 55.4954 14.2145 55.5504C14.8578 55.6592 15.7385 55.78 16.2785 55.8194Z" stroke="white" stroke-opacity="0.4" stroke-width="3" stroke-linecap="round"/>
<path d="M75.1582 71.8145C72.5334 71.8145 70.2412 71.0766 67.6882 70.5627C65.9255 70.208 63.6751 70.1202 62.0721 71.0155C60.3881 71.956 58.4906 72.8388 56.8891 73.8518C54.864 75.1329 52.2503 74.6908 49.9333 74.6908C47.6541 74.6908 44.6986 75.1665 42.5174 74.4511" stroke="white" stroke-opacity="0.4" stroke-width="3" stroke-linecap="round"/>
<path fill-rule="evenodd" clip-rule="evenodd" d="M13.3876 48.7387C11.7313 48.9198 12.0167 51.4474 13.673 51.2663C15.841 51.0292 17.2818 49.2912 19.2564 48.6212C21.8484 47.7417 25.5833 48.2839 28.0552 49.164C32.1531 50.6231 37.2034 54.677 41.5688 53.2221C43.4324 52.601 48.0307 48.9434 43.2804 50.1926C38.8722 51.352 36.8204 49.7643 33.0331 48.384C31.6531 47.8811 30.3186 47.2655 28.9345 46.7727C22.297 44.4093 19.1799 48.1055 13.3876 48.7387Z" stroke="white" stroke-opacity="0.4" stroke-width="3" stroke-linecap="round"/>
<path d="M73.4434 45.9808C70.5747 48.8035 65.9585 43.0826 64.187 41.4266C62.284 39.6477 59.8107 38.6007 57.2583 39.7488C51.4514 42.3609 45.2781 42.1753 39.0433 41.0005C35.8068 40.3907 33.6509 38.454 30.8155 37.0589C29.2486 36.288 26.1099 36.2956 24.3739 36.6861C23.5179 36.8786 22.1566 36.7857 21.505 37.2986C21.2085 37.532 19.7355 38.0256 19.3668 38.071C18.4955 38.1781 17.7044 39.0297 16.6874 39.0297C15.8119 39.0297 14.9751 39.2694 14.0079 39.2694" stroke="white" stroke-opacity="0.4" stroke-width="3" stroke-linecap="round"/>
<path fill-rule="evenodd" clip-rule="evenodd" d="M66.4373 29.7683C66.4422 29.7707 66.4873 29.7919 66.5816 29.8728C66.6949 29.9699 66.8049 30.0854 66.9705 30.2594C66.9898 30.2796 67.0098 30.3006 67.0306 30.3224C67.2042 30.5045 67.45 30.7601 67.7382 30.9747C68.0361 31.1967 68.4487 31.4291 68.9756 31.4939C69.6838 31.581 70.3296 31.0867 70.4181 30.3899C70.5047 29.7079 70.0255 29.0847 69.3412 28.9768C69.3316 28.9709 69.3174 28.9615 69.2981 28.9472C69.2063 28.8787 69.0963 28.7722 68.9151 28.5822C68.8969 28.5631 68.8777 28.5428 68.8574 28.5215C68.7058 28.3616 68.4997 28.1444 68.2796 27.9556C68.0228 27.7354 67.6653 27.4794 67.2018 27.339C64.141 26.4123 60.4788 26.4676 57.4207 27.4524C54.3546 28.4398 52.6351 28.7967 49.5405 28.7967C49.1606 28.7967 48.4547 28.4338 47.9699 28.372C47.2205 28.2764 45.0742 29.1131 44.3716 28.7967C39.6336 29.2206 37.0596 29.536 37.4799 30.4921C37.4799 32.1636 48.5465 30.0489 51.2634 30.4921C51.9668 30.6069 52.8214 31.5037 53.6681 31.5037C55.3662 31.5037 56.611 29.294 58.1551 28.7967C60.7177 27.9715 63.9008 29.0015 66.4373 29.7683Z" stroke="white" stroke-opacity="0.4" stroke-width="3" stroke-linecap="round"/>
</g>
</g>
<g filter="url(#filter17_i_1230_304256)">
<g filter="url(#filter18_i_1230_304256)">
<path d="M18.1655 43.7705V41.6516C18.1655 41.468 18.2161 41.2878 18.3117 41.131L19.5962 39.0246C19.7777 38.7268 20.1012 38.5452 20.4499 38.5452H23.1958C23.7481 38.5452 24.1958 38.9929 24.1958 39.5452V40.8976C24.1958 41.1971 24.0615 41.4809 23.8299 41.6709L22.6621 42.6284C22.5364 42.7315 22.4238 42.8495 22.3266 42.9798L21.0171 44.737C20.7557 45.0878 20.2965 45.2279 19.8838 45.0828L18.834 44.7139C18.4335 44.5732 18.1655 44.195 18.1655 43.7705Z" fill="#F472B6"/>
</g>
<g filter="url(#filter19_i_1230_304256)">
<path d="M56.9848 27.0654L59.4767 27.2805C59.7521 27.3043 60.0046 27.4399 60.1743 27.6555L61.5807 29.4411C61.8132 29.7362 61.8573 30.1374 61.695 30.4784L60.6096 32.7581C60.4632 33.0657 60.1698 33.2794 59.831 33.3254L58.0482 33.5676C57.5737 33.632 57.122 33.3554 56.969 32.9067L56.5972 31.8161C56.5452 31.6634 56.4745 31.5176 56.3868 31.3821L55.2043 29.5547C54.9634 29.1824 55.0011 28.6948 55.2967 28.3592L56.1365 27.4056C56.3491 27.1643 56.6645 27.0377 56.9848 27.0654Z" fill="#F472B6"/>
</g>
<g filter="url(#filter20_i_1230_304256)">
<path d="M58.7581 41.2329L58.96 40.688C59.1847 40.0813 59.9275 39.8583 60.4493 40.2407L62.4626 41.4051C62.7716 41.5838 62.9619 41.9137 62.9619 42.2707L62.9619 44.3268C62.9619 44.8791 62.5142 45.3268 61.9619 45.3268L60.9067 45.3268C60.6162 45.3268 60.3401 45.2006 60.1502 44.9808L59.5191 44.2509C59.305 44.0032 59.1549 43.7067 59.0821 43.3875L58.7208 41.8027C58.6776 41.6132 58.6905 41.4152 58.7581 41.2329Z" fill="#F472B6"/>
</g>
<g filter="url(#filter21_i_1230_304256)">
<path d="M52.5799 42.3932L52.6226 42.6493C52.6859 43.0287 52.3693 43.3623 51.9822 43.324L50.8365 43.332C50.4733 43.3346 50.1355 43.1435 49.9528 42.8321L49.6845 42.3747C49.405 41.8984 49.5677 41.2911 50.0479 41.0183L50.0932 40.9926C50.3418 40.8513 50.6404 40.8224 50.9136 40.9131L51.0809 40.9686C51.3986 41.074 51.6851 41.2558 51.9148 41.4975L52.3731 41.9799C52.4821 42.0946 52.554 42.2385 52.5799 42.3932Z" fill="#F472B6"/>
</g>
<g filter="url(#filter22_i_1230_304256)">
<path d="M31.4068 50.7343L31.3116 51.3706C31.237 51.8684 30.7866 52.2227 30.2781 52.1835C30.1505 52.1737 30.0223 52.1888 29.9009 52.2279L28.4936 52.6815C28.0083 52.8379 27.4789 52.6087 27.2633 52.149L26.5076 50.5375C26.2885 50.0703 26.4645 49.5175 26.9138 49.2623L27.6344 48.8529C27.8759 48.7157 28.165 48.6843 28.4324 48.7663L29.5512 49.1091L30.8212 49.6772C31.2334 49.8616 31.4728 50.2937 31.4068 50.7343Z" fill="#F472B6"/>
</g>
<g filter="url(#filter23_i_1230_304256)">
<path d="M41.724 42.8804L43.2296 43.3742C43.4805 43.4565 43.6878 43.6336 43.8063 43.8669L44.3158 44.8697C44.4235 45.0816 44.4504 45.3251 44.3917 45.5561L43.8139 47.8305C43.7008 48.2756 43.2949 48.5888 42.8312 48.5888L41.6536 48.5888C41.2752 48.5888 40.9302 48.3789 40.7609 48.0457L40.4734 47.4798C40.2799 47.099 39.9669 46.7908 39.5809 46.6009L39.529 46.5754C38.9685 46.2996 38.8014 45.5879 39.1803 45.0907L40.5989 43.2295C40.8604 42.8864 41.3137 42.7458 41.724 42.8804Z" fill="#F472B6"/>
</g>
<g filter="url(#filter24_i_1230_304256)">
<path d="M34.8075 25.4074L34.8093 25.3783C34.8232 25.1505 34.9284 24.9372 35.1013 24.7864L35.1084 24.7802C35.2656 24.643 35.4662 24.5658 35.6744 24.5624L36.1244 24.5549C36.4253 24.55 36.6901 24.748 36.7687 25.0367L36.7901 25.1153C36.8432 25.3103 36.7795 25.5192 36.6262 25.653L36.5431 25.7255C36.4218 25.8313 36.3385 25.9736 36.3058 26.1305C36.2593 26.354 36.0213 26.4826 35.809 26.3987L35.3145 26.2034C34.9905 26.0754 34.7863 25.7549 34.8075 25.4074Z" fill="#F472B6"/>
</g>
<g filter="url(#filter25_i_1230_304256)">
<path d="M30.1774 33.7662L30.9318 33.3771C31.0721 33.3048 31.228 33.2665 31.3866 33.2653L32.1437 33.2596C32.5217 33.2567 32.871 33.4639 33.0478 33.7958L33.1465 33.9812C33.4061 34.4687 33.2117 35.0726 32.7208 35.3257C32.4822 35.4488 32.1999 35.4729 31.9427 35.3899L31.5952 35.2778C31.4431 35.2287 31.2857 35.1977 31.1265 35.1854L30.4688 35.1345C30.1092 35.1067 29.8212 34.8247 29.7894 34.4692C29.7633 34.1779 29.9162 33.9008 30.1774 33.7662Z" fill="#F472B6"/>
</g>
<g filter="url(#filter26_i_1230_304256)">
<path d="M55.3029 52.6442L55.1523 53.4426C55.1224 53.601 55.0546 53.75 54.9548 53.877L54.4942 54.4627C54.2634 54.7561 53.889 54.8982 53.5226 54.8312L53.2783 54.7866C52.74 54.6883 52.386 54.1728 52.4874 53.6351C52.5375 53.3696 52.6939 53.1355 52.9205 52.9869L53.2214 52.7897C53.3552 52.7019 53.4781 52.5986 53.5874 52.4818L54.0325 52.0067C54.2784 51.7442 54.6764 51.694 54.9776 51.8875C55.2301 52.0497 55.3586 52.3487 55.3029 52.6442Z" fill="#F472B6"/>
</g>
<g filter="url(#filter27_i_1230_304256)">
<path d="M38.6761 24.5891L39.8356 23.935C40.002 23.8411 40.1925 23.7966 40.3844 23.8066L42.8587 23.9365C43.2153 23.9552 43.5366 24.1594 43.7028 24.4731L44.5612 26.093C44.749 26.4474 44.7054 26.877 44.4503 27.1841L43.1647 28.732C43.0032 28.9265 42.7724 29.0524 42.5192 29.084L42.1085 29.1353C41.6656 29.1906 41.2155 29.0983 40.8294 28.8729L39.1777 27.9087C38.9609 27.7822 38.7992 27.5804 38.7243 27.3431L38.2195 25.7436C38.0791 25.2985 38.2687 24.8189 38.6761 24.5891Z" fill="#F472B6"/>
</g>
<g filter="url(#filter28_i_1230_304256)">
<path d="M51.8663 32.0511L52.0071 32.0833C52.1927 32.1257 52.3619 32.2201 52.4948 32.3554L53.0732 32.944C53.3217 33.1969 53.4156 33.5632 53.3199 33.9059L53.2342 34.2125C53.1261 34.5995 52.7964 34.886 52.3971 34.9401L51.7736 35.0244C51.5964 35.0484 51.4171 35.0047 51.2719 34.9021C51.0169 34.7219 50.8299 34.4619 50.7405 34.1631L50.5583 33.5543C50.4867 33.3151 50.508 33.0572 50.6182 32.8317L50.735 32.5925C50.9404 32.1716 51.4103 31.9468 51.8663 32.0511Z" fill="#F472B6"/>
</g>
<g filter="url(#filter29_i_1230_304256)">
<path d="M25.5866 33.0432L24.9288 33.1183C24.423 33.1761 23.9581 32.8385 23.8651 32.3459C23.8417 32.2223 23.7938 32.1044 23.7239 31.9991L22.9151 30.7799C22.6355 30.3584 22.7211 29.7975 23.1144 29.4754L24.5074 28.3345C24.9079 28.0064 25.4965 28.0329 25.865 28.3955L26.4474 28.9685C26.6463 29.1643 26.7531 29.433 26.7418 29.7097L26.6949 30.8595L26.4648 32.2207C26.3911 32.6568 26.0329 32.9922 25.5866 33.0432Z" fill="#F472B6"/>
</g>
<g filter="url(#filter30_i_1230_304256)">
<path d="M42.1756 36.0828L42.2275 36.0723C42.4508 36.0274 42.6828 36.0717 42.8739 36.1958L42.8799 36.1997C43.0585 36.3158 43.1895 36.4922 43.2489 36.6967L43.3631 37.0893C43.4491 37.3851 43.3207 37.7013 43.0528 37.8535L42.9904 37.889C42.8126 37.99 42.5933 37.9835 42.4218 37.8721L42.3267 37.8103C42.1925 37.7231 42.0339 37.6811 41.8741 37.6905C41.6404 37.7043 41.4514 37.5031 41.4799 37.2708L41.5414 36.7677C41.5832 36.4266 41.8387 36.1506 42.1756 36.0828Z" fill="#F472B6"/>
</g>
<g filter="url(#filter31_i_1230_304256)">
<path d="M49.1217 25.6517L49.6911 26.2599C49.7999 26.3761 49.879 26.5163 49.9218 26.6686L50.1228 27.3849C50.2234 27.7431 50.1122 28.1262 49.8347 28.3778L49.6698 28.5273C49.2606 28.8983 48.6227 28.8719 48.2452 28.4688C48.0604 28.2714 47.9645 28.0089 47.9795 27.7411L47.9994 27.3853C48.0082 27.2277 47.9979 27.0697 47.9686 26.9144L47.8486 26.2774C47.7827 25.9275 47.983 25.5822 48.3225 25.4604C48.6035 25.3595 48.9188 25.435 49.1217 25.6517Z" fill="#F472B6"/>
</g>
<g filter="url(#filter32_i_1230_304256)">
<path d="M41.0304 54.0278L41.0343 54.1423C41.0409 54.3374 40.9903 54.5302 40.8887 54.6969L40.4631 55.3947C40.2804 55.6944 39.9539 55.8763 39.6029 55.8741L39.2446 55.8718C38.8467 55.8692 38.4881 55.631 38.3316 55.2651L38.0887 54.6975C38.0185 54.5332 38.0149 54.3481 38.0789 54.1813C38.1887 53.8949 38.3912 53.6536 38.6541 53.4956L39.2273 53.1512C39.4365 53.0254 39.6845 52.9806 39.9245 53.025L40.2131 53.0785C40.6745 53.164 41.0145 53.5588 41.0304 54.0278Z" fill="#F472B6"/>
</g>
</g>
<defs>
<filter id="filter0_dd_1230_304256" x="24.9157" y="93.4944" width="44.2194" height="51.257" filterUnits="userSpaceOnUse" color-interpolation-filters="sRGB">
<feFlood flood-opacity="0" result="BackgroundImageFix"/>
<feColorMatrix in="SourceAlpha" type="matrix" values="0 0 0 0 0 0 0 0 0 0 0 0 0 0 0 0 0 0 127 0" result="hardAlpha"/>
<feOffset dx="-0.757743" dy="0.757743"/>
<feComposite in2="hardAlpha" operator="out"/>
<feColorMatrix type="matrix" values="0 0 0 0 1 0 0 0 0 1 0 0 0 0 1 0 0 0 0.95 0"/>
<feBlend mode="normal" in2="BackgroundImageFix" result="effect1_dropShadow_1230_304256"/>
<feColorMatrix in="SourceAlpha" type="matrix" values="0 0 0 0 0 0 0 0 0 0 0 0 0 0 0 0 0 0 127 0" result="hardAlpha"/>
<feOffset dy="1.51549"/>
<feGaussianBlur stdDeviation="0.757743"/>
<feComposite in2="hardAlpha" operator="out"/>
<feColorMatrix type="matrix" values="0 0 0 0 0 0 0 0 0 0 0 0 0 0 0 0 0 0 0.25 0"/>
<feBlend mode="normal" in2="effect1_dropShadow_1230_304256" result="effect2_dropShadow_1230_304256"/>
<feBlend mode="normal" in="SourceGraphic" in2="effect2_dropShadow_1230_304256" result="shape"/>
</filter>
<filter id="filter1_dd_1230_304256" x="22.5778" y="82.1831" width="44.217" height="51.6613" filterUnits="userSpaceOnUse" color-interpolation-filters="sRGB">
<feFlood flood-opacity="0" result="BackgroundImageFix"/>
<feColorMatrix in="SourceAlpha" type="matrix" values="0 0 0 0 0 0 0 0 0 0 0 0 0 0 0 0 0 0 127 0" result="hardAlpha"/>
<feOffset dx="-0.757743" dy="0.757743"/>
<feComposite in2="hardAlpha" operator="out"/>
<feColorMatrix type="matrix" values="0 0 0 0 1 0 0 0 0 1 0 0 0 0 1 0 0 0 0.95 0"/>
<feBlend mode="normal" in2="BackgroundImageFix" result="effect1_dropShadow_1230_304256"/>
<feColorMatrix in="SourceAlpha" type="matrix" values="0 0 0 0 0 0 0 0 0 0 0 0 0 0 0 0 0 0 127 0" result="hardAlpha"/>
<feOffset dy="1.51549"/>
<feGaussianBlur stdDeviation="0.757743"/>
<feComposite in2="hardAlpha" operator="out"/>
<feColorMatrix type="matrix" values="0 0 0 0 0 0 0 0 0 0 0 0 0 0 0 0 0 0 0.25 0"/>
<feBlend mode="normal" in2="effect1_dropShadow_1230_304256" result="effect2_dropShadow_1230_304256"/>
<feBlend mode="normal" in="SourceGraphic" in2="effect2_dropShadow_1230_304256" result="shape"/>
</filter>
<filter id="filter2_dd_1230_304256" x="16.0714" y="74.533" width="44.2194" height="51.257" filterUnits="userSpaceOnUse" color-interpolation-filters="sRGB">
<feFlood flood-opacity="0" result="BackgroundImageFix"/>
<feColorMatrix in="SourceAlpha" type="matrix" values="0 0 0 0 0 0 0 0 0 0 0 0 0 0 0 0 0 0 127 0" result="hardAlpha"/>
<feOffset dx="-0.757743" dy="0.757743"/>
<feComposite in2="hardAlpha" operator="out"/>
<feColorMatrix type="matrix" values="0 0 0 0 1 0 0 0 0 1 0 0 0 0 1 0 0 0 0.95 0"/>
<feBlend mode="normal" in2="BackgroundImageFix" result="effect1_dropShadow_1230_304256"/>
<feColorMatrix in="SourceAlpha" type="matrix" values="0 0 0 0 0 0 0 0 0 0 0 0 0 0 0 0 0 0 127 0" result="hardAlpha"/>
<feOffset dy="1.51549"/>
<feGaussianBlur stdDeviation="0.757743"/>
<feComposite in2="hardAlpha" operator="out"/>
<feColorMatrix type="matrix" values="0 0 0 0 0 0 0 0 0 0 0 0 0 0 0 0 0 0 0.25 0"/>
<feBlend mode="normal" in2="effect1_dropShadow_1230_304256" result="effect2_dropShadow_1230_304256"/>
<feBlend mode="normal" in="SourceGraphic" in2="effect2_dropShadow_1230_304256" result="shape"/>
</filter>
<filter id="filter3_dd_1230_304256" x="15.2472" y="62.405" width="44.2194" height="51.257" filterUnits="userSpaceOnUse" color-interpolation-filters="sRGB">
<feFlood flood-opacity="0" result="BackgroundImageFix"/>
<feColorMatrix in="SourceAlpha" type="matrix" values="0 0 0 0 0 0 0 0 0 0 0 0 0 0 0 0 0 0 127 0" result="hardAlpha"/>
<feOffset dx="-0.757743" dy="0.757743"/>
<feComposite in2="hardAlpha" operator="out"/>
<feColorMatrix type="matrix" values="0 0 0 0 1 0 0 0 0 1 0 0 0 0 1 0 0 0 0.95 0"/>
<feBlend mode="normal" in2="BackgroundImageFix" result="effect1_dropShadow_1230_304256"/>
<feColorMatrix in="SourceAlpha" type="matrix" values="0 0 0 0 0 0 0 0 0 0 0 0 0 0 0 0 0 0 127 0" result="hardAlpha"/>
<feOffset dy="1.51549"/>
<feGaussianBlur stdDeviation="0.757743"/>
<feComposite in2="hardAlpha" operator="out"/>
<feColorMatrix type="matrix" values="0 0 0 0 0 0 0 0 0 0 0 0 0 0 0 0 0 0 0.25 0"/>
<feBlend mode="normal" in2="effect1_dropShadow_1230_304256" result="effect2_dropShadow_1230_304256"/>
<feBlend mode="normal" in="SourceGraphic" in2="effect2_dropShadow_1230_304256" result="shape"/>
</filter>
<filter id="filter4_dd_1230_304256" x="24.608" y="107.246" width="44.2194" height="51.257" filterUnits="userSpaceOnUse" color-interpolation-filters="sRGB">
<feFlood flood-opacity="0" result="BackgroundImageFix"/>
<feColorMatrix in="SourceAlpha" type="matrix" values="0 0 0 0 0 0 0 0 0 0 0 0 0 0 0 0 0 0 127 0" result="hardAlpha"/>
<feOffset dx="-0.757743" dy="0.757743"/>
<feComposite in2="hardAlpha" operator="out"/>
<feColorMatrix type="matrix" values="0 0 0 0 1 0 0 0 0 1 0 0 0 0 1 0 0 0 0.95 0"/>
<feBlend mode="normal" in2="BackgroundImageFix" result="effect1_dropShadow_1230_304256"/>
<feColorMatrix in="SourceAlpha" type="matrix" values="0 0 0 0 0 0 0 0 0 0 0 0 0 0 0 0 0 0 127 0" result="hardAlpha"/>
<feOffset dy="1.51549"/>
<feGaussianBlur stdDeviation="0.757743"/>
<feComposite in2="hardAlpha" operator="out"/>
<feColorMatrix type="matrix" values="0 0 0 0 0 0 0 0 0 0 0 0 0 0 0 0 0 0 0.25 0"/>
<feBlend mode="normal" in2="effect1_dropShadow_1230_304256" result="effect2_dropShadow_1230_304256"/>
<feBlend mode="normal" in="SourceGraphic" in2="effect2_dropShadow_1230_304256" result="shape"/>
</filter>
<filter id="filter5_i_1230_304256" x="23.4956" y="97.0244" width="26.625" height="38.1868" filterUnits="userSpaceOnUse" color-interpolation-filters="sRGB">
<feFlood flood-opacity="0" result="BackgroundImageFix"/>
<feBlend mode="normal" in="SourceGraphic" in2="BackgroundImageFix" result="shape"/>
<feColorMatrix in="SourceAlpha" type="matrix" values="0 0 0 0 0 0 0 0 0 0 0 0 0 0 0 0 0 0 127 0" result="hardAlpha"/>
<feOffset dx="1.01269" dy="-2.02537"/>
<feGaussianBlur stdDeviation="1.51903"/>
<feComposite in2="hardAlpha" operator="arithmetic" k2="-1" k3="1"/>
<feColorMatrix type="matrix" values="0 0 0 0 0 0 0 0 0 0 0 0 0 0 0 0 0 0 0.25 0"/>
<feBlend mode="normal" in2="shape" result="effect1_innerShadow_1230_304256"/>
</filter>
<filter id="filter6_i_1230_304256" x="0.962402" y="8.88545" width="108.256" height="107.765" filterUnits="userSpaceOnUse" color-interpolation-filters="sRGB">
<feFlood flood-opacity="0" result="BackgroundImageFix"/>
<feBlend mode="normal" in="SourceGraphic" in2="BackgroundImageFix" result="shape"/>
<feColorMatrix in="SourceAlpha" type="matrix" values="0 0 0 0 0 0 0 0 0 0 0 0 0 0 0 0 0 0 127 0" result="hardAlpha"/>
<feOffset dx="29.3679" dy="-32.406"/>
<feGaussianBlur stdDeviation="12.6586"/>
<feComposite in2="hardAlpha" operator="arithmetic" k2="-1" k3="1"/>
<feColorMatrix type="matrix" values="0 0 0 0 0 0 0 0 0 0 0 0 0 0 0 0 0 0 0.38 0"/>
<feBlend mode="normal" in2="shape" result="effect1_innerShadow_1230_304256"/>
</filter>
<filter id="filter7_i_1230_304256" x="-7.85645" y="8.37769" width="108.438" height="110.63" filterUnits="userSpaceOnUse" color-interpolation-filters="sRGB">
<feFlood flood-opacity="0" result="BackgroundImageFix"/>
<feBlend mode="normal" in="SourceGraphic" in2="BackgroundImageFix" result="shape"/>
<feColorMatrix in="SourceAlpha" type="matrix" values="0 0 0 0 0 0 0 0 0 0 0 0 0 0 0 0 0 0 127 0" result="hardAlpha"/>
<feOffset dx="7" dy="-18"/>
<feGaussianBlur stdDeviation="5"/>
<feComposite in2="hardAlpha" operator="arithmetic" k2="-1" k3="1"/>
<feColorMatrix type="matrix" values="0 0 0 0 0 0 0 0 0 0 0 0 0 0 0 0 0 0 0.25 0"/>
<feBlend mode="normal" in2="shape" result="effect1_innerShadow_1230_304256"/>
</filter>
<filter id="filter8_i_1230_304256" x="6.76074" y="69.6177" width="74.8564" height="42.8246" filterUnits="userSpaceOnUse" color-interpolation-filters="sRGB">
<feFlood flood-opacity="0" result="BackgroundImageFix"/>
<feBlend mode="normal" in="SourceGraphic" in2="BackgroundImageFix" result="shape"/>
<feColorMatrix in="SourceAlpha" type="matrix" values="0 0 0 0 0 0 0 0 0 0 0 0 0 0 0 0 0 0 127 0" result="hardAlpha"/>
<feOffset dx="2.0439" dy="-3.06585"/>
<feGaussianBlur stdDeviation="2.55487"/>
<feComposite in2="hardAlpha" operator="arithmetic" k2="-1" k3="1"/>
<feColorMatrix type="matrix" values="0 0 0 0 0 0 0 0 0 0 0 0 0 0 0 0 0 0 0.2 0"/>
<feBlend mode="normal" in2="shape" result="effect1_innerShadow_1230_304256"/>
</filter>
<filter id="filter9_iiii_1230_304256" x="-10.7062" y="15.5541" width="105.985" height="109.171" filterUnits="userSpaceOnUse" color-interpolation-filters="sRGB">
<feFlood flood-opacity="0" result="BackgroundImageFix"/>
<feBlend mode="normal" in="SourceGraphic" in2="BackgroundImageFix" result="shape"/>
<feColorMatrix in="SourceAlpha" type="matrix" values="0 0 0 0 0 0 0 0 0 0 0 0 0 0 0 0 0 0 127 0" result="hardAlpha"/>
<feOffset dx="4.0878" dy="-8.1756"/>
<feGaussianBlur stdDeviation="6.64267"/>
<feComposite in2="hardAlpha" operator="arithmetic" k2="-1" k3="1"/>
<feColorMatrix type="matrix" values="0 0 0 0 0 0 0 0 0 0 0 0 0 0 0 0 0 0 0.15 0"/>
<feBlend mode="normal" in2="shape" result="effect1_innerShadow_1230_304256"/>
<feColorMatrix in="SourceAlpha" type="matrix" values="0 0 0 0 0 0 0 0 0 0 0 0 0 0 0 0 0 0 127 0" result="hardAlpha"/>
<feOffset dx="-9.19755" dy="7.15365"/>
<feGaussianBlur stdDeviation="5.62072"/>
<feComposite in2="hardAlpha" operator="arithmetic" k2="-1" k3="1"/>
<feColorMatrix type="matrix" values="0 0 0 0 1 0 0 0 0 1 0 0 0 0 1 0 0 0 0.3 0"/>
<feBlend mode="normal" in2="effect1_innerShadow_1230_304256" result="effect2_innerShadow_1230_304256"/>
<feColorMatrix in="SourceAlpha" type="matrix" values="0 0 0 0 0 0 0 0 0 0 0 0 0 0 0 0 0 0 127 0" result="hardAlpha"/>
<feOffset dx="15.3292" dy="-16.3512"/>
<feGaussianBlur stdDeviation="10.2195"/>
<feComposite in2="hardAlpha" operator="arithmetic" k2="-1" k3="1"/>
<feColorMatrix type="matrix" values="0 0 0 0 0 0 0 0 0 0 0 0 0 0 0 0 0 0 0.15 0"/>
<feBlend mode="normal" in2="effect2_innerShadow_1230_304256" result="effect3_innerShadow_1230_304256"/>
<feColorMatrix in="SourceAlpha" type="matrix" values="0 0 0 0 0 0 0 0 0 0 0 0 0 0 0 0 0 0 127 0" result="hardAlpha"/>
<feOffset dx="-16.3512" dy="28.6146"/>
<feGaussianBlur stdDeviation="9.70852"/>
<feComposite in2="hardAlpha" operator="arithmetic" k2="-1" k3="1"/>
<feColorMatrix type="matrix" values="0 0 0 0 1 0 0 0 0 1 0 0 0 0 1 0 0 0 0.25 0"/>
<feBlend mode="normal" in2="effect3_innerShadow_1230_304256" result="effect4_innerShadow_1230_304256"/>
</filter>
<filter id="filter10_f_1230_304256" x="5.47414" y="39.2739" width="76.4062" height="62.7568" filterUnits="userSpaceOnUse" color-interpolation-filters="sRGB">
<feFlood flood-opacity="0" result="BackgroundImageFix"/>
<feBlend mode="normal" in="SourceGraphic" in2="BackgroundImageFix" result="shape"/>
<feGaussianBlur stdDeviation="0.510975" result="effect1_foregroundBlur_1230_304256"/>
</filter>
<filter id="filter11_f_1230_304256" x="4.20608" y="33.1536" width="79.9633" height="63.0383" filterUnits="userSpaceOnUse" color-interpolation-filters="sRGB">
<feFlood flood-opacity="0" result="BackgroundImageFix"/>
<feBlend mode="normal" in="SourceGraphic" in2="BackgroundImageFix" result="shape"/>
<feGaussianBlur stdDeviation="0.510975" result="effect1_foregroundBlur_1230_304256"/>
</filter>
<filter id="filter12_i_1230_304256" x="63.0674" y="7.75684" width="37.3496" height="56.6301" filterUnits="userSpaceOnUse" color-interpolation-filters="sRGB">
<feFlood flood-opacity="0" result="BackgroundImageFix"/>
<feBlend mode="normal" in="SourceGraphic" in2="BackgroundImageFix" result="shape"/>
<feColorMatrix in="SourceAlpha" type="matrix" values="0 0 0 0 0 0 0 0 0 0 0 0 0 0 0 0 0 0 127 0" result="hardAlpha"/>
<feOffset dx="-3.04754" dy="3.04754"/>
<feComposite in2="hardAlpha" operator="arithmetic" k2="-1" k3="1"/>
<feColorMatrix type="matrix" values="0 0 0 0 1 0 0 0 0 1 0 0 0 0 1 0 0 0 0.25 0"/>
<feBlend mode="normal" in2="shape" result="effect1_innerShadow_1230_304256"/>
</filter>
<filter id="filter13_i_1230_304256" x="55.8101" y="47.5537" width="21.4634" height="30.2363" filterUnits="userSpaceOnUse" color-interpolation-filters="sRGB">
<feFlood flood-opacity="0" result="BackgroundImageFix"/>
<feBlend mode="normal" in="SourceGraphic" in2="BackgroundImageFix" result="shape"/>
<feColorMatrix in="SourceAlpha" type="matrix" values="0 0 0 0 0 0 0 0 0 0 0 0 0 0 0 0 0 0 127 0" result="hardAlpha"/>
<feOffset dx="-1.52377" dy="-1.52377"/>
<feComposite in2="hardAlpha" operator="arithmetic" k2="-1" k3="1"/>
<feColorMatrix type="matrix" values="0 0 0 0 1 0 0 0 0 1 0 0 0 0 1 0 0 0 0.25 0"/>
<feBlend mode="normal" in2="shape" result="effect1_innerShadow_1230_304256"/>
</filter>
<filter id="filter14_iiii_1230_304256" x="-4.65869" y="7.51538" width="93.4175" height="96.0354" filterUnits="userSpaceOnUse" color-interpolation-filters="sRGB">
<feFlood flood-opacity="0" result="BackgroundImageFix"/>
<feBlend mode="normal" in="SourceGraphic" in2="BackgroundImageFix" result="shape"/>
<feColorMatrix in="SourceAlpha" type="matrix" values="0 0 0 0 0 0 0 0 0 0 0 0 0 0 0 0 0 0 127 0" result="hardAlpha"/>
<feOffset dx="4" dy="-8"/>
<feGaussianBlur stdDeviation="6.5"/>
<feComposite in2="hardAlpha" operator="arithmetic" k2="-1" k3="1"/>
<feColorMatrix type="matrix" values="0 0 0 0 0 0 0 0 0 0 0 0 0 0 0 0 0 0 0.15 0"/>
<feBlend mode="normal" in2="shape" result="effect1_innerShadow_1230_304256"/>
<feColorMatrix in="SourceAlpha" type="matrix" values="0 0 0 0 0 0 0 0 0 0 0 0 0 0 0 0 0 0 127 0" result="hardAlpha"/>
<feOffset dx="-9" dy="7"/>
<feGaussianBlur stdDeviation="5.5"/>
<feComposite in2="hardAlpha" operator="arithmetic" k2="-1" k3="1"/>
<feColorMatrix type="matrix" values="0 0 0 0 1 0 0 0 0 1 0 0 0 0 1 0 0 0 0.3 0"/>
<feBlend mode="normal" in2="effect1_innerShadow_1230_304256" result="effect2_innerShadow_1230_304256"/>
<feColorMatrix in="SourceAlpha" type="matrix" values="0 0 0 0 0 0 0 0 0 0 0 0 0 0 0 0 0 0 127 0" result="hardAlpha"/>
<feOffset dx="15" dy="-16"/>
<feGaussianBlur stdDeviation="10"/>
<feComposite in2="hardAlpha" operator="arithmetic" k2="-1" k3="1"/>
<feColorMatrix type="matrix" values="0 0 0 0 0 0 0 0 0 0 0 0 0 0 0 0 0 0 0.15 0"/>
<feBlend mode="normal" in2="effect2_innerShadow_1230_304256" result="effect3_innerShadow_1230_304256"/>
<feColorMatrix in="SourceAlpha" type="matrix" values="0 0 0 0 0 0 0 0 0 0 0 0 0 0 0 0 0 0 127 0" result="hardAlpha"/>
<feOffset dx="-16" dy="28"/>
<feGaussianBlur stdDeviation="9.5"/>
<feComposite in2="hardAlpha" operator="arithmetic" k2="-1" k3="1"/>
<feColorMatrix type="matrix" values="0 0 0 0 1 0 0 0 0 1 0 0 0 0 1 0 0 0 0.25 0"/>
<feBlend mode="normal" in2="effect3_innerShadow_1230_304256" result="effect4_innerShadow_1230_304256"/>
</filter>
<filter id="filter15_f_1230_304256" x="10.8589" y="29.4922" width="64.6641" height="52.4836" filterUnits="userSpaceOnUse" color-interpolation-filters="sRGB">
<feFlood flood-opacity="0" result="BackgroundImageFix"/>
<feBlend mode="normal" in="SourceGraphic" in2="BackgroundImageFix" result="shape"/>
<feGaussianBlur stdDeviation="0.5" result="effect1_foregroundBlur_1230_304256"/>
</filter>
<filter id="filter16_f_1230_304256" x="9.77881" y="24.1775" width="67.8794" height="53.1685" filterUnits="userSpaceOnUse" color-interpolation-filters="sRGB">
<feFlood flood-opacity="0" result="BackgroundImageFix"/>
<feBlend mode="normal" in="SourceGraphic" in2="BackgroundImageFix" result="shape"/>
<feGaussianBlur stdDeviation="0.5" result="effect1_foregroundBlur_1230_304256"/>
</filter>
<filter id="filter17_i_1230_304256" x="17.1655" y="23.8052" width="45.7964" height="33.0688" filterUnits="userSpaceOnUse" color-interpolation-filters="sRGB">
<feFlood flood-opacity="0" result="BackgroundImageFix"/>
<feBlend mode="normal" in="SourceGraphic" in2="BackgroundImageFix" result="shape"/>
<feColorMatrix in="SourceAlpha" type="matrix" values="0 0 0 0 0 0 0 0 0 0 0 0 0 0 0 0 0 0 127 0" result="hardAlpha"/>
<feOffset dx="-1" dy="1"/>
<feGaussianBlur stdDeviation="2.5"/>
<feComposite in2="hardAlpha" operator="arithmetic" k2="-1" k3="1"/>
<feColorMatrix type="matrix" values="0 0 0 0 1 0 0 0 0 1 0 0 0 0 1 0 0 0 0.25 0"/>
<feBlend mode="normal" in2="shape" result="effect1_innerShadow_1230_304256"/>
</filter>
<filter id="filter18_i_1230_304256" x="18.1655" y="38.5452" width="6.03027" height="6.59424" filterUnits="userSpaceOnUse" color-interpolation-filters="sRGB">
<feFlood flood-opacity="0" result="BackgroundImageFix"/>
<feBlend mode="normal" in="SourceGraphic" in2="BackgroundImageFix" result="shape"/>
<feColorMatrix in="SourceAlpha" type="matrix" values="0 0 0 0 0 0 0 0 0 0 0 0 0 0 0 0 0 0 127 0" result="hardAlpha"/>
<feOffset dx="1" dy="-1"/>
<feComposite in2="hardAlpha" operator="arithmetic" k2="-1" k3="1"/>
<feColorMatrix type="matrix" values="0 0 0 0 0 0 0 0 0 0 0 0 0 0 0 0 0 0 0.25 0"/>
<feBlend mode="normal" in2="shape" result="effect1_innerShadow_1230_304256"/>
</filter>
<filter id="filter19_i_1230_304256" x="55.0464" y="27.0615" width="6.74561" height="6.51538" filterUnits="userSpaceOnUse" color-interpolation-filters="sRGB">
<feFlood flood-opacity="0" result="BackgroundImageFix"/>
<feBlend mode="normal" in="SourceGraphic" in2="BackgroundImageFix" result="shape"/>
<feColorMatrix in="SourceAlpha" type="matrix" values="0 0 0 0 0 0 0 0 0 0 0 0 0 0 0 0 0 0 127 0" result="hardAlpha"/>
<feOffset dx="1" dy="-1"/>
<feComposite in2="hardAlpha" operator="arithmetic" k2="-1" k3="1"/>
<feColorMatrix type="matrix" values="0 0 0 0 0 0 0 0 0 0 0 0 0 0 0 0 0 0 0.25 0"/>
<feBlend mode="normal" in2="shape" result="effect1_innerShadow_1230_304256"/>
</filter>
<filter id="filter20_i_1230_304256" x="58.6958" y="40.0518" width="4.26611" height="5.27515" filterUnits="userSpaceOnUse" color-interpolation-filters="sRGB">
<feFlood flood-opacity="0" result="BackgroundImageFix"/>
<feBlend mode="normal" in="SourceGraphic" in2="BackgroundImageFix" result="shape"/>
<feColorMatrix in="SourceAlpha" type="matrix" values="0 0 0 0 0 0 0 0 0 0 0 0 0 0 0 0 0 0 127 0" result="hardAlpha"/>
<feOffset dx="1" dy="-1"/>
<feComposite in2="hardAlpha" operator="arithmetic" k2="-1" k3="1"/>
<feColorMatrix type="matrix" values="0 0 0 0 0 0 0 0 0 0 0 0 0 0 0 0 0 0 0.25 0"/>
<feBlend mode="normal" in2="shape" result="effect1_innerShadow_1230_304256"/>
</filter>
<filter id="filter21_i_1230_304256" x="49.5479" y="40.8611" width="3.08301" height="2.47095" filterUnits="userSpaceOnUse" color-interpolation-filters="sRGB">
<feFlood flood-opacity="0" result="BackgroundImageFix"/>
<feBlend mode="normal" in="SourceGraphic" in2="BackgroundImageFix" result="shape"/>
<feColorMatrix in="SourceAlpha" type="matrix" values="0 0 0 0 0 0 0 0 0 0 0 0 0 0 0 0 0 0 127 0" result="hardAlpha"/>
<feOffset dx="1" dy="-1"/>
<feComposite in2="hardAlpha" operator="arithmetic" k2="-1" k3="1"/>
<feColorMatrix type="matrix" values="0 0 0 0 0 0 0 0 0 0 0 0 0 0 0 0 0 0 0.25 0"/>
<feBlend mode="normal" in2="shape" result="effect1_innerShadow_1230_304256"/>
</filter>
<filter id="filter22_i_1230_304256" x="26.4136" y="48.7214" width="5.00391" height="4.00903" filterUnits="userSpaceOnUse" color-interpolation-filters="sRGB">
<feFlood flood-opacity="0" result="BackgroundImageFix"/>
<feBlend mode="normal" in="SourceGraphic" in2="BackgroundImageFix" result="shape"/>
<feColorMatrix in="SourceAlpha" type="matrix" values="0 0 0 0 0 0 0 0 0 0 0 0 0 0 0 0 0 0 127 0" result="hardAlpha"/>
<feOffset dx="1" dy="-1"/>
<feComposite in2="hardAlpha" operator="arithmetic" k2="-1" k3="1"/>
<feColorMatrix type="matrix" values="0 0 0 0 0 0 0 0 0 0 0 0 0 0 0 0 0 0 0.25 0"/>
<feBlend mode="normal" in2="shape" result="effect1_innerShadow_1230_304256"/>
</filter>
<filter id="filter23_i_1230_304256" x="38.9761" y="42.8298" width="5.4458" height="5.75903" filterUnits="userSpaceOnUse" color-interpolation-filters="sRGB">
<feFlood flood-opacity="0" result="BackgroundImageFix"/>
<feBlend mode="normal" in="SourceGraphic" in2="BackgroundImageFix" result="shape"/>
<feColorMatrix in="SourceAlpha" type="matrix" values="0 0 0 0 0 0 0 0 0 0 0 0 0 0 0 0 0 0 127 0" result="hardAlpha"/>
<feOffset dx="1" dy="-1"/>
<feComposite in2="hardAlpha" operator="arithmetic" k2="-1" k3="1"/>
<feColorMatrix type="matrix" values="0 0 0 0 0 0 0 0 0 0 0 0 0 0 0 0 0 0 0.25 0"/>
<feBlend mode="normal" in2="shape" result="effect1_innerShadow_1230_304256"/>
</filter>
<filter id="filter24_i_1230_304256" x="34.8062" y="24.5549" width="2.00244" height="1.86963" filterUnits="userSpaceOnUse" color-interpolation-filters="sRGB">
<feFlood flood-opacity="0" result="BackgroundImageFix"/>
<feBlend mode="normal" in="SourceGraphic" in2="BackgroundImageFix" result="shape"/>
<feColorMatrix in="SourceAlpha" type="matrix" values="0 0 0 0 0 0 0 0 0 0 0 0 0 0 0 0 0 0 127 0" result="hardAlpha"/>
<feOffset dx="1" dy="-1"/>
<feComposite in2="hardAlpha" operator="arithmetic" k2="-1" k3="1"/>
<feColorMatrix type="matrix" values="0 0 0 0 0 0 0 0 0 0 0 0 0 0 0 0 0 0 0.25 0"/>
<feBlend mode="normal" in2="shape" result="effect1_innerShadow_1230_304256"/>
</filter>
<filter id="filter25_i_1230_304256" x="29.7866" y="33.2595" width="3.4751" height="2.1792" filterUnits="userSpaceOnUse" color-interpolation-filters="sRGB">
<feFlood flood-opacity="0" result="BackgroundImageFix"/>
<feBlend mode="normal" in="SourceGraphic" in2="BackgroundImageFix" result="shape"/>
<feColorMatrix in="SourceAlpha" type="matrix" values="0 0 0 0 0 0 0 0 0 0 0 0 0 0 0 0 0 0 127 0" result="hardAlpha"/>
<feOffset dx="1" dy="-1"/>
<feComposite in2="hardAlpha" operator="arithmetic" k2="-1" k3="1"/>
<feColorMatrix type="matrix" values="0 0 0 0 0 0 0 0 0 0 0 0 0 0 0 0 0 0 0.25 0"/>
<feBlend mode="normal" in2="shape" result="effect1_innerShadow_1230_304256"/>
</filter>
<filter id="filter26_i_1230_304256" x="52.4702" y="51.7703" width="2.8457" height="3.07739" filterUnits="userSpaceOnUse" color-interpolation-filters="sRGB">
<feFlood flood-opacity="0" result="BackgroundImageFix"/>
<feBlend mode="normal" in="SourceGraphic" in2="BackgroundImageFix" result="shape"/>
<feColorMatrix in="SourceAlpha" type="matrix" values="0 0 0 0 0 0 0 0 0 0 0 0 0 0 0 0 0 0 127 0" result="hardAlpha"/>
<feOffset dx="1" dy="-1"/>
<feComposite in2="hardAlpha" operator="arithmetic" k2="-1" k3="1"/>
<feColorMatrix type="matrix" values="0 0 0 0 0 0 0 0 0 0 0 0 0 0 0 0 0 0 0.25 0"/>
<feBlend mode="normal" in2="shape" result="effect1_innerShadow_1230_304256"/>
</filter>
<filter id="filter27_i_1230_304256" x="38.1733" y="23.8052" width="6.50342" height="5.3457" filterUnits="userSpaceOnUse" color-interpolation-filters="sRGB">
<feFlood flood-opacity="0" result="BackgroundImageFix"/>
<feBlend mode="normal" in="SourceGraphic" in2="BackgroundImageFix" result="shape"/>
<feColorMatrix in="SourceAlpha" type="matrix" values="0 0 0 0 0 0 0 0 0 0 0 0 0 0 0 0 0 0 127 0" result="hardAlpha"/>
<feOffset dx="1" dy="-1"/>
<feComposite in2="hardAlpha" operator="arithmetic" k2="-1" k3="1"/>
<feColorMatrix type="matrix" values="0 0 0 0 0 0 0 0 0 0 0 0 0 0 0 0 0 0 0.25 0"/>
<feBlend mode="normal" in2="shape" result="effect1_innerShadow_1230_304256"/>
</filter>
<filter id="filter28_i_1230_304256" x="50.5166" y="32.0256" width="2.84033" height="3.00513" filterUnits="userSpaceOnUse" color-interpolation-filters="sRGB">
<feFlood flood-opacity="0" result="BackgroundImageFix"/>
<feBlend mode="normal" in="SourceGraphic" in2="BackgroundImageFix" result="shape"/>
<feColorMatrix in="SourceAlpha" type="matrix" values="0 0 0 0 0 0 0 0 0 0 0 0 0 0 0 0 0 0 127 0" result="hardAlpha"/>
<feOffset dx="1" dy="-1"/>
<feComposite in2="hardAlpha" operator="arithmetic" k2="-1" k3="1"/>
<feColorMatrix type="matrix" values="0 0 0 0 0 0 0 0 0 0 0 0 0 0 0 0 0 0 0.25 0"/>
<feBlend mode="normal" in2="shape" result="effect1_innerShadow_1230_304256"/>
</filter>
<filter id="filter29_i_1230_304256" x="22.751" y="28.105" width="3.9917" height="5.01978" filterUnits="userSpaceOnUse" color-interpolation-filters="sRGB">
<feFlood flood-opacity="0" result="BackgroundImageFix"/>
<feBlend mode="normal" in="SourceGraphic" in2="BackgroundImageFix" result="shape"/>
<feColorMatrix in="SourceAlpha" type="matrix" values="0 0 0 0 0 0 0 0 0 0 0 0 0 0 0 0 0 0 127 0" result="hardAlpha"/>
<feOffset dx="1" dy="-1"/>
<feComposite in2="hardAlpha" operator="arithmetic" k2="-1" k3="1"/>
<feColorMatrix type="matrix" values="0 0 0 0 0 0 0 0 0 0 0 0 0 0 0 0 0 0 0.25 0"/>
<feBlend mode="normal" in2="shape" result="effect1_innerShadow_1230_304256"/>
</filter>
<filter id="filter30_i_1230_304256" x="41.4771" y="36.0552" width="1.9126" height="1.90527" filterUnits="userSpaceOnUse" color-interpolation-filters="sRGB">
<feFlood flood-opacity="0" result="BackgroundImageFix"/>
<feBlend mode="normal" in="SourceGraphic" in2="BackgroundImageFix" result="shape"/>
<feColorMatrix in="SourceAlpha" type="matrix" values="0 0 0 0 0 0 0 0 0 0 0 0 0 0 0 0 0 0 127 0" result="hardAlpha"/>
<feOffset dx="1" dy="-1"/>
<feComposite in2="hardAlpha" operator="arithmetic" k2="-1" k3="1"/>
<feColorMatrix type="matrix" values="0 0 0 0 0 0 0 0 0 0 0 0 0 0 0 0 0 0 0.25 0"/>
<feBlend mode="normal" in2="shape" result="effect1_innerShadow_1230_304256"/>
</filter>
<filter id="filter31_i_1230_304256" x="47.8359" y="25.4163" width="2.32324" height="3.37305" filterUnits="userSpaceOnUse" color-interpolation-filters="sRGB">
<feFlood flood-opacity="0" result="BackgroundImageFix"/>
<feBlend mode="normal" in="SourceGraphic" in2="BackgroundImageFix" result="shape"/>
<feColorMatrix in="SourceAlpha" type="matrix" values="0 0 0 0 0 0 0 0 0 0 0 0 0 0 0 0 0 0 127 0" result="hardAlpha"/>
<feOffset dx="1" dy="-1"/>
<feComposite in2="hardAlpha" operator="arithmetic" k2="-1" k3="1"/>
<feColorMatrix type="matrix" values="0 0 0 0 0 0 0 0 0 0 0 0 0 0 0 0 0 0 0.25 0"/>
<feBlend mode="normal" in2="shape" result="effect1_innerShadow_1230_304256"/>
</filter>
<filter id="filter32_i_1230_304256" x="38.0332" y="53.0083" width="3.00146" height="2.86572" filterUnits="userSpaceOnUse" color-interpolation-filters="sRGB">
<feFlood flood-opacity="0" result="BackgroundImageFix"/>
<feBlend mode="normal" in="SourceGraphic" in2="BackgroundImageFix" result="shape"/>
<feColorMatrix in="SourceAlpha" type="matrix" values="0 0 0 0 0 0 0 0 0 0 0 0 0 0 0 0 0 0 127 0" result="hardAlpha"/>
<feOffset dx="1" dy="-1"/>
<feComposite in2="hardAlpha" operator="arithmetic" k2="-1" k3="1"/>
<feColorMatrix type="matrix" values="0 0 0 0 0 0 0 0 0 0 0 0 0 0 0 0 0 0 0.25 0"/>
<feBlend mode="normal" in2="shape" result="effect1_innerShadow_1230_304256"/>
</filter>
<linearGradient id="paint0_linear_1230_304256" x1="28.1789" y1="107.112" x2="51.0312" y2="107.112" gradientUnits="userSpaceOnUse">
<stop offset="0.0666667" stop-opacity="0.28"/>
<stop offset="1" stop-opacity="0"/>
</linearGradient>
</defs>
</svg>
