<svg width="102" height="157" viewBox="0 0 102 157" fill="none" xmlns="http://www.w3.org/2000/svg">
<circle cx="41.2371" cy="95.4793" r="27.3426" fill="black" fill-opacity="0.12"/>
<path d="M35.2352 63.397C40.3832 60.5997 46.681 61.0124 51.42 64.4576L52.7944 65.4568C54.1942 66.4744 55.7576 67.2454 57.4171 67.7364L59.0465 68.2184C64.6647 69.8806 68.8261 74.6257 69.741 80.4128L70.0063 82.0911C70.2765 83.8005 70.8368 85.4512 71.6631 86.9718L72.4744 88.4649C75.2717 93.6129 74.859 99.9107 71.4138 104.65L70.4146 106.024C69.397 107.424 68.626 108.987 68.135 110.647L67.653 112.276C65.9908 117.894 61.2457 122.056 55.4586 122.971L53.7803 123.236C52.0709 123.506 50.4202 124.067 48.8996 124.893L47.4065 125.704C42.2585 128.501 35.9607 128.089 31.2217 124.644L29.8473 123.644C28.4475 122.627 26.8841 121.856 25.2246 121.365L23.5952 120.883C17.977 119.22 13.8156 114.475 12.9008 108.688L12.6354 107.01C12.3652 105.301 11.8049 103.65 10.9786 102.129L10.1673 100.636C7.37 95.4882 7.78269 89.1904 11.2279 84.4514L12.2271 83.077C13.2447 81.6772 14.0157 80.1138 14.5067 78.4543L14.9887 76.8249C16.6509 71.2067 21.396 67.0453 27.1831 66.1305L28.8614 65.8651C30.5708 65.5949 32.2215 65.0346 33.7421 64.2083L35.2352 63.397Z" fill="black" fill-opacity="0.12"/>
<path fill-rule="evenodd" clip-rule="evenodd" d="M53.002 34.7766C48.263 31.3314 41.9652 30.9187 36.8172 33.716L34.3911 35.0343C32.8705 35.8606 31.2198 36.4209 29.5104 36.6911L26.7832 37.1223C20.9961 38.0371 16.2511 42.1985 14.5889 47.8167L13.8055 50.4643C13.3145 52.1239 12.5436 53.6873 11.5259 55.0871L9.90233 57.3204C6.45713 62.0593 6.04444 68.3572 8.84175 73.5052L10.16 75.9313C10.2105 76.0242 10.26 76.1176 10.3085 76.2115L11.9153 81.4344L12.248 83.5392C12.5603 85.5151 13.2512 87.3695 14.2492 89.0212L18.4455 102.662C25.3472 125.096 56.8913 125.684 64.6235 103.522L68.7012 91.8338C69.6443 90.4989 70.3799 89 70.8593 87.3799L71.6426 84.7323C72.1336 83.0728 72.9045 81.5094 73.9222 80.1095L75.5458 77.8763C78.991 73.1373 79.4037 66.8395 76.6064 61.6914L75.2881 59.2654C74.4618 57.7447 73.9015 56.0941 73.6312 54.3847L73.2001 51.6575C72.2853 45.8704 68.1239 41.1253 62.5057 39.4631L59.858 38.6798C58.1985 38.1888 56.6351 37.4178 55.2353 36.4002L53.002 34.7766Z" fill="#CA8A04"/>
<mask id="mask0_1230_304241" style="mask-type:alpha" maskUnits="userSpaceOnUse" x="9" y="73" width="66" height="47">
<path d="M9.34375 73.0754L74.9666 73.8757L64.5288 105.606L62.0028 109.181C51.1022 124.606 27.6378 122.634 19.4642 105.606L9.34375 73.0754Z" fill="#A16207"/>
</mask>
<g mask="url(#mask0_1230_304241)">
<g opacity="0.2">
<g filter="url(#filter0_dd_1230_304241)">
<path d="M66.6301 94.4829C61.9943 114.566 45.9558 141.782 27.0929 141.301" stroke="#713F12" stroke-width="1.51549" stroke-linecap="round"/>
</g>
<g filter="url(#filter1_dd_1230_304241)">
<path d="M64.2976 83.1438C59.6627 103.402 43.6254 130.854 24.7625 130.367" stroke="#713F12" stroke-width="1.51549" stroke-linecap="round"/>
</g>
<g filter="url(#filter2_dd_1230_304241)">
<path d="M57.8167 75.4751C53.1808 95.5586 37.1423 122.775 18.2794 122.293" stroke="#713F12" stroke-width="1.51549" stroke-linecap="round"/>
</g>
<g filter="url(#filter3_dd_1230_304241)">
<path d="M56.9951 63.3174C52.3593 83.4009 36.3208 110.617 17.4578 110.136" stroke="#713F12" stroke-width="1.51549" stroke-linecap="round"/>
</g>
<g filter="url(#filter4_dd_1230_304241)">
<path d="M66.3235 108.268C61.6876 128.352 45.6491 155.568 26.7862 155.086" stroke="#713F12" stroke-width="1.51549" stroke-linecap="round"/>
</g>
<path d="M17.3774 94.7405C22.2231 114.774 38.5453 141.821 57.4021 141.143" stroke="#713F12" stroke-width="1.51549" stroke-linecap="round"/>
<path d="M19.5913 83.3774C24.4378 103.586 40.7613 130.869 59.6181 130.185" stroke="#713F12" stroke-width="1.51549" stroke-linecap="round"/>
<path d="M25.6133 75.6436C30.4589 95.6775 46.7811 122.724 65.638 122.046" stroke="#713F12" stroke-width="1.51549" stroke-linecap="round"/>
<path d="M26.6855 63.4761C31.5312 83.51 47.8534 110.557 66.7102 109.878" stroke="#713F12" stroke-width="1.51549" stroke-linecap="round"/>
<path d="M17.8281 108.521C22.6737 128.555 38.9959 155.602 57.8528 154.924" stroke="#713F12" stroke-width="1.51549" stroke-linecap="round"/>
</g>
<path fill-rule="evenodd" clip-rule="evenodd" d="M53.002 34.7766C48.263 31.3314 41.9652 30.9187 36.8172 33.716L34.3911 35.0343C32.8705 35.8606 31.2198 36.4209 29.5104 36.6911L26.7832 37.1223C20.9961 38.0371 16.2511 42.1985 14.5889 47.8167L13.8055 50.4643C13.3145 52.1239 12.5436 53.6873 11.5259 55.0871L9.90233 57.3204C6.45713 62.0593 6.04444 68.3572 8.84175 73.5052L10.16 75.9313C10.2105 76.0242 10.26 76.1176 10.3085 76.2115L11.9153 81.4344L12.248 83.5392C12.5603 85.5151 13.2512 87.3695 14.2492 89.0212L18.4455 102.662C25.3472 125.096 56.8913 125.684 64.6235 103.522L68.7012 91.8338C69.6443 90.4989 70.3799 89 70.8593 87.3799L71.6426 84.7323C72.1336 83.0728 72.9045 81.5093 73.9222 80.1095L75.5458 77.8763C78.991 73.1373 79.4037 66.8395 76.6064 61.6914L75.2881 59.2654C74.4618 57.7447 73.9015 56.0941 73.6312 54.3847L73.2001 51.6575C72.2853 45.8704 68.1239 41.1253 62.5057 39.4631L59.858 38.6798C58.1985 38.1888 56.6351 37.4178 55.2353 36.4002L53.002 34.7766Z" fill="url(#paint0_linear_1230_304241)"/>
<path d="M23.0793 117.894C22.8745 118.414 23.1304 119.002 23.6508 119.207C24.1713 119.412 24.7592 119.156 24.964 118.635L23.0793 117.894ZM26.4171 112.177L25.48 111.793L25.4773 111.8L25.4747 111.807L26.4171 112.177ZM26.5329 111.895L27.4699 112.279V112.279L26.5329 111.895ZM38.0501 102.679L37.8809 101.681V101.681L38.0501 102.679ZM38.7056 102.568L38.8748 103.566L38.9362 103.556L38.9958 103.538L38.7056 102.568ZM24.964 118.635L27.3594 112.548L25.4747 111.807L23.0793 117.894L24.964 118.635ZM27.3541 112.561L27.4699 112.279L25.5959 111.511L25.48 111.793L27.3541 112.561ZM38.2193 103.678L38.8748 103.566L38.5364 101.57L37.8809 101.681L38.2193 103.678ZM38.9958 103.538L46.8147 101.199L46.2343 99.2589L38.4154 101.598L38.9958 103.538ZM27.4699 112.279C29.3271 107.748 33.3912 104.496 38.2193 103.678L37.8809 101.681C32.363 102.616 27.7184 106.332 25.5959 111.511L27.4699 112.279Z" fill="black" fill-opacity="0.2"/>
<g filter="url(#filter5_i_1230_304241)">
<path d="M48.5498 100.229L42.2136 102.881C41.0702 103.36 39.8535 103.639 38.616 103.708C34.4264 103.941 30.744 106.562 29.1526 110.444C28.6826 111.591 28.02 112.649 27.1935 113.573C24.3954 116.7 23.6451 121.157 25.2652 125.028C25.7437 126.171 26.0234 127.388 26.0921 128.625L26.4727 135.484" stroke="#CA8A04" stroke-width="2.02537"/>
</g>
</g>
<path d="M36.8169 33.716C41.965 30.9186 48.2628 31.3313 53.0018 34.7765L55.2351 36.4001C56.6349 37.4178 58.1983 38.1887 59.8578 38.6797L62.5054 39.4631C68.1236 41.1253 72.2851 45.8703 73.1999 51.6574L73.631 54.3846C73.9012 56.094 74.4616 57.7447 75.2879 59.2653L76.6061 61.6914C79.4034 66.8394 78.9908 73.1373 75.5456 77.8762L73.922 80.1095C72.9043 81.5093 72.1333 83.0727 71.6424 84.7322L70.859 87.3799C69.1968 92.9981 64.4518 97.1595 58.6647 98.0743L55.9375 98.5054C54.2281 98.7757 52.5774 99.336 51.0568 100.162L48.6307 101.481C43.4827 104.278 37.1848 103.865 32.4459 100.42L30.2126 98.7964C28.8128 97.7787 27.2494 97.0078 25.5899 96.5168L22.9422 95.7335C17.324 94.0713 13.1626 89.3262 12.2478 83.5391L11.8166 80.8119C11.5464 79.1025 10.9861 77.4518 10.1598 75.9312L8.84153 73.5051C6.04421 68.3571 6.45691 62.0593 9.90211 57.3203L11.5257 55.087C12.5433 53.6872 13.3143 52.1238 13.8053 50.4643L14.5886 47.8167C16.2508 42.1985 20.9959 38.037 26.783 37.1222L29.5102 36.6911C31.2196 36.4209 32.8702 35.8605 34.3909 35.0342L36.8169 33.716Z" fill="#CA8A04"/>
<path d="M36.8169 33.716C41.965 30.9186 48.2628 31.3313 53.0018 34.7765L55.2351 36.4001C56.6349 37.4178 58.1983 38.1887 59.8578 38.6797L62.5054 39.4631C68.1236 41.1253 72.2851 45.8703 73.1999 51.6574L73.631 54.3846C73.9012 56.094 74.4616 57.7447 75.2879 59.2653L76.6061 61.6914C79.4034 66.8394 78.9908 73.1373 75.5456 77.8762L73.922 80.1095C72.9043 81.5093 72.1333 83.0727 71.6424 84.7322L70.859 87.3799C69.1968 92.9981 64.4518 97.1595 58.6647 98.0743L55.9375 98.5054C54.2281 98.7757 52.5774 99.336 51.0568 100.162L48.6307 101.481C43.4827 104.278 37.1848 103.865 32.4459 100.42L30.2126 98.7964C28.8128 97.7787 27.2494 97.0078 25.5899 96.5168L22.9422 95.7335C17.324 94.0713 13.1626 89.3262 12.2478 83.5391L11.8166 80.8119C11.5464 79.1025 10.9861 77.4518 10.1598 75.9312L8.84153 73.5051C6.04421 68.3571 6.45691 62.0593 9.90211 57.3203L11.5257 55.087C12.5433 53.6872 13.3143 52.1238 13.8053 50.4643L14.5886 47.8167C16.2508 42.1985 20.9959 38.037 26.783 37.1222L29.5102 36.6911C31.2196 36.4209 32.8702 35.8605 34.3909 35.0342L36.8169 33.716Z" fill="#CA8A04"/>
<mask id="mask1_1230_304241" style="mask-type:alpha" maskUnits="userSpaceOnUse" x="9" y="34" width="67" height="67">
<path d="M36.6342 36.5069C41.7823 33.7096 48.0801 34.1223 52.8191 37.5675L54.1738 38.5524C55.5736 39.5701 57.1371 40.341 58.7966 40.832L60.4027 41.3072C66.0209 42.9694 70.1823 47.7145 71.0972 53.5016L71.3587 55.156C71.6289 56.8654 72.1893 58.516 73.0155 60.0367L73.8152 61.5084C76.6125 66.6564 76.1999 72.9542 72.7547 77.6932L71.7697 79.048C70.7521 80.4478 69.9811 82.0112 69.4901 83.6707L69.015 85.2768C67.3528 90.895 62.6077 95.0565 56.8206 95.9713L55.1662 96.2328C53.4568 96.503 51.8062 97.0634 50.2855 97.8897L48.8138 98.6894C43.6658 101.487 37.3679 101.074 32.629 97.6288L31.2742 96.6439C29.8744 95.6262 28.311 94.8552 26.6515 94.3643L25.0454 93.8891C19.4272 92.2269 15.2657 87.4818 14.3509 81.6947L14.0894 80.0403C13.8191 78.3309 13.2588 76.6803 12.4325 75.1596L11.6328 73.6879C8.83551 68.5399 9.2482 62.2421 12.6934 57.5031L13.6783 56.1483C14.696 54.7485 15.4669 53.1851 15.9579 51.5256L16.4331 49.9195C18.0953 44.3013 22.8404 40.1398 28.6274 39.225L30.2818 38.9635C31.9912 38.6933 33.6419 38.1329 35.1625 37.3066L36.6342 36.5069Z" fill="#854D0E"/>
</mask>
<g mask="url(#mask1_1230_304241)">
<g filter="url(#filter6_i_1230_304241)">
<circle cx="42.2842" cy="75.6111" r="41.3247" fill="#854D0E"/>
</g>
<g filter="url(#filter7_i_1230_304241)">
<path d="M10.6036 89.535C10.5792 89.3253 10.5664 89.1171 10.5664 88.912C10.5664 78.5786 18.9024 76.2009 24.6626 76.479C37.2861 77.0885 57.8632 67.97 68.7662 78.8391C68.9675 79.0398 69.1689 79.2507 69.3681 79.4673C70.8601 81.0896 72.0775 82.0857 72.5985 84.2273C73.9386 89.7368 70.6538 96.0087 68.0631 101.052C68.0327 101.111 68.0014 101.168 67.9689 101.223C66.3217 104.015 64.07 111.179 61.5909 110.345C60.8178 110.085 59.5007 110.36 58.8786 112.573C58.4435 114.121 58.1726 113.711 57.206 114.454C55.132 116.048 53.5334 116.396 52.1556 116.124C45.3847 114.782 38.1972 121.18 33.876 115.798C33.6284 115.489 33.4289 115.05 33.2882 114.454C32.7247 112.067 30.3683 111.757 29.5446 111.996C28.1496 112.4 25.9839 112.307 24.6626 111.996C22.3007 111.44 23.89 107.043 21.6265 107.043C20.1215 107.043 17.3889 104.426 16.5458 101.727C15.1394 97.2253 11.1477 94.2202 10.6036 89.535Z" fill="black" fill-opacity="0.2"/>
<g filter="url(#filter8_i_1230_304241)">
<path d="M11.3776 92.9105C9.50009 92.9105 6.73779 89.7881 6.73779 87.1945C6.73779 77.5991 16.4403 75.3913 23.1449 75.6496C37.8378 76.2155 61.7881 67.7483 74.4785 77.841C75.6386 78.7636 76.7984 79.9196 77.6575 80.7856C79.5823 81.9981 80.5103 88.7534 76.4229 90.9625C74.4785 90.9625 75.1325 96.4877 73.5506 98.6265C71.6333 101.219 69.0124 104.077 66.1269 103.303C65.2271 103.062 63.6941 103.317 62.9701 105.372C62.4636 106.809 62.1483 107.94 61.0232 108.629C52.9644 113.571 51.0718 107.905 44.32 108.629C40.6082 110.059 34.5429 115.503 33.1845 110.912C32.5286 108.695 29.7859 108.408 28.8272 108.629C27.2035 109.005 24.6827 108.918 23.1449 108.629C20.3958 108.113 20.0438 103.823 17.4093 103.823C15.6575 103.823 14.6787 101.6 13.6975 99.0945C12.5638 96.1994 13.6975 93.9498 11.3776 92.9105Z" fill="#FECACA"/>
</g>
<g filter="url(#filter9_iiii_1230_304241)">
<path d="M61.664 101.497C79.4181 91.2469 84.7253 68.0933 74.5222 50.421C64.3191 32.7487 41.6552 26.732 23.9011 36.9824C6.14692 47.2327 0.474376 69.6827 10.6775 87.355C12.2395 90.0606 13.9436 92.7456 15.8692 95.1878C20.3276 100.842 27.4836 103.217 34.5867 104.398C44.6057 106.062 52.8265 106.6 61.664 101.497Z" fill="#FECACA"/>
</g>
<mask id="mask2_1230_304241" style="mask-type:alpha" maskUnits="userSpaceOnUse" x="5" y="31" width="75" height="75">
<path d="M61.1086 100.98C78.8628 90.7292 84.9841 68.0933 74.781 50.421C64.5779 32.7487 41.914 26.732 24.1599 36.9824C6.40571 47.2327 0.733165 69.6827 10.9363 87.355C21.1394 105.027 43.3545 111.23 61.1086 100.98Z" fill="#FCA5A5"/>
</mask>
<g mask="url(#mask2_1230_304241)">
<g opacity="0.24" filter="url(#filter10_f_1230_304241)">
<path fill-rule="evenodd" clip-rule="evenodd" d="M75.8324 75.5273C75.8161 75.5477 75.7955 75.5748 75.7705 75.6105C75.7041 75.7054 75.6545 75.7865 75.5853 75.8998C75.5443 75.9669 75.4964 76.0453 75.434 76.1446C75.2985 76.36 75.0944 76.6713 74.8146 76.9511C73.0996 78.666 70.4864 79.4374 68.5877 81.0084C66.5865 82.6641 65.688 85.4393 63.4561 86.7796C63.3759 86.8277 63.294 86.874 63.2103 86.9183C61.4394 87.8559 59.4213 88.3104 57.7428 89.3768C56.8611 89.9368 55.9869 90.198 54.978 90.3865C52.3801 90.872 49.3707 91.4344 46.39 90.8925C44.401 90.5308 42.4462 89.9839 40.4434 89.6978C39.0473 89.4983 37.9671 88.6769 36.7145 88.1202C35.4706 87.5674 33.751 86.6677 32.6105 85.4602C32.3481 85.1824 32.1374 84.9072 31.9874 84.7139C31.8201 84.4983 31.7347 84.3937 31.6561 84.3172C31.5962 84.2589 31.5704 84.2481 31.5576 84.2429C31.5408 84.2361 31.4634 84.2068 31.2688 84.2068H27.0788C23.9462 84.2068 21.7899 82.0363 20.2426 80.4789C20.1568 80.3926 18.3667 78.1402 18.2846 78.0581C16.1814 75.9549 11.8854 74.9202 9.02548 77.4623C8.39272 78.0248 7.4238 77.9678 6.86134 77.335C6.29888 76.7023 6.35588 75.7334 6.98864 75.1709C8.11933 74.1658 9.54848 73.7602 10.9504 73.6842C14.8491 73.473 19.432 75.3315 22.1587 78.0581C23.9771 79.8766 25.2788 81.1409 27.0788 81.1409H31.2688C32.6145 81.1409 33.6054 81.7976 34.3976 82.819C35.3101 83.9954 36.6142 84.7206 37.9596 85.3186C38.3961 85.5126 38.8701 85.7755 39.251 85.9868C39.7626 86.2706 40.2895 86.5788 40.8769 86.6627C42.9191 86.9545 44.9107 87.5074 46.9384 87.8761C51.0679 88.6269 54.1528 86.9914 57.8502 85.8922C60.4116 85.1307 62.3868 84.0413 63.8344 81.7928C64.0094 81.521 64.1913 81.2385 64.4085 80.9225C64.9766 80.0963 65.8394 79.3031 66.6333 78.6462C68.0478 77.4759 70.4722 77.4448 72.1426 76.6738C72.7501 76.3935 72.4705 75.098 72.8386 74.5127C72.8584 74.4811 72.8839 74.4394 72.9135 74.3912C73.0055 74.241 73.1367 74.0268 73.259 73.8521C73.6218 73.334 74.3107 72.5466 75.535 72.4746C75.9863 72.4481 76.9837 72.3151 77.7617 72.1814C77.8315 72.1694 77.898 72.1577 77.9609 72.1463C78.2027 71.9868 78.4923 71.894 78.8036 71.894C78.8906 71.894 79.004 71.8962 79.1193 71.9084C79.1738 71.9142 79.2733 71.9267 79.3895 71.9573L79.395 71.9587C79.4569 71.9745 79.8073 72.0641 80.1119 72.373C80.3113 72.5752 80.5346 72.9194 80.5546 73.3896C80.5737 73.8385 80.3969 74.1721 80.2676 74.3528C80.0542 74.6512 79.7876 74.7934 79.7325 74.8227L79.728 74.8251C79.5648 74.9129 79.4081 74.96 79.3545 74.9762C79.0874 75.0566 78.6667 75.1367 78.2809 75.203C77.5178 75.3341 76.473 75.4799 75.8324 75.5273Z" fill="#F87171"/>
<path fill-rule="evenodd" clip-rule="evenodd" d="M20.247 96.069C9.39238 89.9082 8.44725 83.4964 22.7692 91.6251C24.4958 92.605 26.7659 96.1906 28.7098 97.4403C32.8197 100.082 51.6792 95.8391 52.7257 97.4403C53.1719 98.7789 46.8522 99.9664 45.5136 100.413C41.3055 101.815 35.8826 101.087 31.545 100.904C29.9195 100.835 28.0221 100.539 26.2751 99.4156C25.1504 98.6925 24.0082 98.0897 22.7778 97.4403C21.978 97.0181 21.1409 96.5763 20.247 96.069Z" fill="#F87171"/>
<path fill-rule="evenodd" clip-rule="evenodd" d="M79.2617 66.9909C81.2266 67.2092 80.8881 70.2563 78.9231 70.038C76.3513 69.7522 74.6421 67.6569 72.2997 66.8492C69.2248 65.7889 64.7941 66.4425 61.8618 67.5036C57.0004 69.2627 51.0093 74.1499 45.8307 72.3959C43.6199 71.6471 38.165 67.2376 43.8003 68.7436C49.0297 70.1413 51.4637 68.2272 55.9565 66.5632C57.5936 65.9569 59.1767 65.2148 60.8186 64.6207C68.6926 61.7714 72.3904 66.2274 79.2617 66.9909Z" fill="#F87171"/>
<path d="M8.01904 63.6659C11.4221 67.0689 16.8983 60.1719 18.9997 58.1756C21.2573 56.0309 24.1913 54.7686 27.2192 56.1528C34.1079 59.3019 41.4311 59.0782 48.8274 57.6619C52.6669 56.9266 55.2243 54.5918 58.588 52.91C60.4467 51.9806 64.1702 51.9898 66.2295 52.4605C67.245 52.6926 68.86 52.5806 69.6329 53.1989C69.9847 53.4803 71.7321 54.0754 72.1694 54.1301C73.203 54.2593 74.1416 55.2859 75.348 55.2859C76.3866 55.2859 77.3793 55.5749 78.5266 55.5749" stroke="#F87171" stroke-width="3.06585" stroke-linecap="round"/>
<path fill-rule="evenodd" clip-rule="evenodd" d="M16.3296 44.1207C16.3238 44.1236 16.2702 44.1492 16.1584 44.2467C16.024 44.3638 15.8935 44.5031 15.6971 44.7127C15.6742 44.7371 15.6505 44.7624 15.6258 44.7888C15.4198 45.0082 15.1282 45.3164 14.7864 45.5751C14.433 45.8427 13.9435 46.1229 13.3184 46.201C12.4784 46.3061 11.7122 45.7102 11.6072 44.8701C11.5044 44.0479 12.073 43.2966 12.8847 43.1665C12.8961 43.1594 12.913 43.1481 12.9359 43.1308C13.0448 43.0483 13.1752 42.9198 13.3902 42.6908C13.4118 42.6678 13.4346 42.6433 13.4586 42.6176C13.6385 42.4248 13.883 42.163 14.1441 41.9354C14.4487 41.6699 14.8728 41.3613 15.4227 41.1921C19.0536 40.0748 23.3981 40.1415 27.0259 41.3287C30.6632 42.5191 32.703 42.9494 36.3741 42.9494C36.8247 42.9494 37.6622 42.5119 38.2372 42.4373C39.1263 42.3221 41.6724 43.3308 42.5058 42.9494C48.1266 43.4604 51.18 43.8407 50.6814 44.9933C50.6814 47.0084 37.5532 44.459 34.3302 44.9933C33.4958 45.1317 32.482 46.2129 31.4776 46.2129C29.4631 46.2129 27.9864 43.5489 26.1546 42.9494C23.1147 41.9545 19.3386 43.1962 16.3296 44.1207Z" fill="#F87171"/>
</g>
<g opacity="0.28" filter="url(#filter11_f_1230_304241)">
<path fill-rule="evenodd" clip-rule="evenodd" d="M11.4826 70.9285C11.4989 70.9488 11.5194 70.976 11.5444 71.0116C11.6108 71.1065 11.6604 71.1877 11.7296 71.3009C11.7706 71.368 11.8186 71.4465 11.8809 71.5457C12.0164 71.7611 12.2205 72.0724 12.5003 72.3522C14.2153 74.0671 16.8286 74.8385 18.7273 76.4095C20.7284 78.0652 21.627 80.8404 23.8589 82.1807C23.939 82.2288 24.0209 82.2751 24.1046 82.3194C25.8755 83.257 27.8937 83.7116 29.5721 84.7779C30.4538 85.3379 31.3281 85.5991 32.337 85.7877C34.9349 86.2732 37.9443 86.8355 40.9249 86.2936C42.914 85.932 44.8687 85.385 46.8716 85.0989C48.2676 84.8995 49.3479 84.078 50.6005 83.5213C51.8443 82.9685 53.564 82.0688 54.7044 80.8613C54.9668 80.5835 55.1776 80.3083 55.3276 80.115C55.4948 79.8994 55.5802 79.7948 55.6588 79.7183C55.7187 79.66 55.7445 79.6493 55.7573 79.644C55.7741 79.6372 55.8515 79.6079 56.0462 79.6079H60.2362C63.3687 79.6079 65.5251 77.4375 67.0724 75.88C67.1581 75.7937 68.9482 73.5413 69.0303 73.4592C71.1336 71.356 75.4295 70.3213 78.2895 72.8635C78.9222 73.4259 79.8911 73.3689 80.4536 72.7362C81.0161 72.1034 80.9591 71.1345 80.3263 70.572C79.1956 69.567 77.7665 69.1613 76.3645 69.0854C72.4658 68.8742 67.8829 70.7326 65.1563 73.4592C63.3378 75.2777 62.0361 76.5421 60.2362 76.5421H56.0462C54.7004 76.5421 53.7095 77.1988 52.9173 78.2202C52.0048 79.3966 50.7008 80.1217 49.3553 80.7197C48.9188 80.9137 48.4448 81.1766 48.0639 81.3879C47.5524 81.6717 47.0254 81.9799 46.438 82.0639C44.3958 82.3556 42.4042 82.9085 40.3765 83.2772C36.247 84.028 33.1622 82.3925 29.4647 81.2933C26.9033 80.5318 24.9281 79.4424 23.4806 77.194C23.3055 76.9221 23.1237 76.6396 22.9064 76.3236C22.3384 75.4974 21.4755 74.7042 20.6817 74.0474C19.2672 72.877 16.8427 72.846 15.1723 72.075C14.5649 71.7946 14.8444 70.4991 14.4764 69.9138C14.4565 69.8822 14.431 69.8406 14.4014 69.7923C14.3094 69.6421 14.1782 69.4279 14.0559 69.2532C13.6932 68.7351 13.0043 67.9478 11.78 67.8757C11.3286 67.8492 10.3313 67.7162 9.55325 67.5826C9.48349 67.5706 9.41694 67.5588 9.35409 67.5474C9.11228 67.388 8.82265 67.2952 8.51134 67.2952C8.42433 67.2952 8.31098 67.2973 8.19569 67.3096C8.14113 67.3154 8.04167 67.3278 7.92548 67.3584L7.91992 67.3598C7.858 67.3756 7.5076 67.4652 7.20307 67.7741C7.00368 67.9763 6.78038 68.3205 6.76036 68.7908C6.74125 69.2397 6.91805 69.5733 7.0473 69.7539C7.26074 70.0523 7.52739 70.1945 7.58244 70.2239L7.58695 70.2263C7.75017 70.314 7.90681 70.3612 7.96042 70.3773C8.22751 70.4577 8.64828 70.5378 9.03408 70.6041C9.79718 70.7352 10.842 70.881 11.4826 70.9285Z" stroke="white" stroke-opacity="0.4" stroke-width="3.06585" stroke-linecap="round"/>
<path d="M81.3306 90.2114C78.2168 90.2114 75.4976 89.3218 72.469 88.7023C70.3779 88.2746 67.7083 88.1689 65.8067 89.2482C63.809 90.382 61.558 91.4462 59.6582 92.6676C57.2558 94.2119 54.1552 93.679 51.4066 93.679C48.7028 93.679 45.1968 94.2525 42.6092 93.39" stroke="white" stroke-opacity="0.4" stroke-width="3.06585" stroke-linecap="round"/>
<path fill-rule="evenodd" clip-rule="evenodd" d="M8.05274 62.392C6.08783 62.6103 6.42639 65.6574 8.3913 65.4391C10.9631 65.1534 12.6724 63.0581 15.0148 62.2504C18.0897 61.19 22.5203 61.8436 25.4527 62.9047C30.314 64.6638 36.3051 69.551 41.4837 67.797C43.6945 67.0483 49.1494 62.6388 43.5141 64.1448C38.2847 65.5424 35.8507 63.6284 31.3579 61.9644C29.7209 61.358 28.1377 60.6159 26.4959 60.0218C18.6218 57.1726 14.924 61.6285 8.05274 62.392Z" stroke="white" stroke-opacity="0.4" stroke-width="3.06585" stroke-linecap="round"/>
<path d="M79.2961 59.067C75.8931 62.4701 70.4169 55.5731 68.3155 53.5767C66.0579 51.432 63.1239 50.1698 60.096 51.5539C53.2073 54.703 45.884 54.4793 38.4878 53.063C34.6483 52.3278 32.0909 49.9929 28.7272 48.3111C26.8685 47.3817 23.145 47.3909 21.0857 47.8616C20.0702 48.0937 18.4552 47.9817 17.6823 48.6001C17.3305 48.8815 15.5831 49.4765 15.1458 49.5312C14.1122 49.6604 13.1736 50.687 11.9672 50.687C10.9286 50.687 9.93591 50.976 8.78857 50.976" stroke="white" stroke-opacity="0.4" stroke-width="3.06585" stroke-linecap="round"/>
<path fill-rule="evenodd" clip-rule="evenodd" d="M70.9849 39.5218C70.9906 39.5247 71.0442 39.5503 71.156 39.6478C71.2905 39.7649 71.4209 39.9042 71.6174 40.1138C71.6402 40.1382 71.664 40.1635 71.6887 40.1899C71.8946 40.4093 72.1863 40.7175 72.528 40.9762C72.8815 41.2438 73.371 41.524 73.996 41.6022C74.8361 41.7072 75.6022 41.1113 75.7072 40.2712C75.81 39.4491 75.2415 38.6977 74.4297 38.5676C74.4184 38.5605 74.4014 38.5492 74.3786 38.5319C74.2697 38.4494 74.1392 38.3209 73.9243 38.0919C73.9027 38.0689 73.8798 38.0444 73.8558 38.0187C73.6759 37.826 73.4315 37.5641 73.1704 37.3365C72.8657 37.071 72.4417 36.7624 71.8918 36.5932C68.2608 35.476 63.9163 35.5426 60.2885 36.7299C56.6513 37.9202 54.6115 38.3505 50.9403 38.3505C50.4897 38.3505 49.6523 37.913 49.0772 37.8385C48.1882 37.7232 45.642 38.732 44.8086 38.3505C39.1879 38.8615 36.1344 39.2418 36.633 40.3944C36.633 42.4095 49.7613 39.8601 52.9842 40.3944C53.8186 40.5328 54.8325 41.614 55.8368 41.614C57.8513 41.614 59.328 38.95 61.1598 38.3505C64.1998 37.3556 67.9758 38.5974 70.9849 39.5218Z" stroke="white" stroke-opacity="0.4" stroke-width="3.06585" stroke-linecap="round"/>
</g>
</g>
</g>
</g>
<circle cx="42.2554" cy="61.3818" r="28" fill="black" fill-opacity="0.12"/>
<g filter="url(#filter12_i_1230_304241)">
<path d="M94.4118 9.24694C95.2834 7.80711 97.1572 7.34649 98.597 8.21812C100.037 9.08975 100.497 10.9636 99.6259 12.4034L68.0613 64.5444L62.8472 61.3879L94.4118 9.24694Z" fill="#C8A078"/>
</g>
<g filter="url(#filter13_i_1230_304241)">
<ellipse cx="7.2248" cy="17.0714" rx="7.2248" ry="17.0714" transform="matrix(0.629321 0.777146 -0.566511 0.824054 71.4336 43.1428)" fill="#C8A078"/>
</g>
<ellipse opacity="0.47" cx="5.04527" cy="13.0377" rx="5.04527" ry="13.0377" transform="matrix(0.596982 0.802255 -0.599768 0.800174 69.553 47.5601)" fill="black" fill-opacity="0.12"/>
<g filter="url(#filter14_iiii_1230_304241)">
<path d="M58.3754 81.3745C73.2893 72.8512 77.7474 53.5987 69.1766 38.904C60.6057 24.2092 41.5676 19.2062 26.6537 27.7296C11.7398 36.2529 6.9747 54.9203 15.5456 69.6151C16.8454 71.8436 18.2622 74.0554 19.8611 76.0707C23.6285 80.8194 29.6804 82.8094 35.6803 83.7944C44.0737 85.1723 50.9666 85.6086 58.3754 81.3745Z" fill="#FECACA"/>
</g>
<mask id="mask3_1230_304241" style="mask-type:alpha" maskUnits="userSpaceOnUse" x="11" y="23" width="63" height="63">
<path d="M57.9093 80.944C72.8232 72.4207 77.9652 53.5987 69.3943 38.904C60.8235 24.2092 41.7853 19.2062 26.8714 27.7296C11.9575 36.2529 7.19248 54.9203 15.7633 69.6151C24.3342 84.3099 42.9954 89.4673 57.9093 80.944Z" fill="#FCA5A5"/>
</mask>
<g mask="url(#mask3_1230_304241)">
<g opacity="0.24" filter="url(#filter15_f_1230_304241)">
<path fill-rule="evenodd" clip-rule="evenodd" d="M70.2772 59.7799C70.2635 59.7968 70.2462 59.8194 70.2252 59.8491C70.1694 59.928 70.1278 59.9954 70.0697 60.0896C70.0352 60.1454 69.9949 60.2106 69.9425 60.2932C69.8287 60.4723 69.6573 60.7311 69.4222 60.9638C67.9816 62.3898 65.7864 63.0312 64.1915 64.3375C62.5105 65.7142 61.7557 68.0218 59.8808 69.1363C59.8135 69.1763 59.7447 69.2148 59.6744 69.2517C58.1867 70.0312 56.4915 70.4092 55.0815 71.2959C54.3409 71.7616 53.6065 71.9788 52.759 72.1355C50.5767 72.5392 48.0488 73.0069 45.5449 72.5562C43.8741 72.2555 42.2321 71.8007 40.5496 71.5628C39.3769 71.397 38.4695 70.714 37.4172 70.251C36.3724 69.7914 34.9278 69.0433 33.9698 68.0392C33.7494 67.8082 33.5724 67.5794 33.4464 67.4187C33.3059 67.2394 33.2341 67.1524 33.1681 67.0888C33.1178 67.0403 33.0961 67.0314 33.0854 67.027C33.0713 67.0213 33.0063 66.997 32.8427 66.997H29.323C26.6916 66.997 24.8802 65.1922 23.5805 63.8972C23.5084 63.8254 22.0047 61.9526 21.9357 61.8843C20.169 60.1354 16.5603 59.2751 14.1579 61.3889C13.6263 61.8566 12.8124 61.8092 12.3399 61.2831C11.8674 60.7569 11.9153 59.9512 12.4469 59.4835C13.3967 58.6478 14.5972 58.3105 15.7748 58.2474C19.0499 58.0717 22.8996 59.6171 25.19 61.8843C26.7176 63.3964 27.811 64.4477 29.323 64.4477H32.8427C33.9732 64.4477 34.8056 64.9938 35.4711 65.8431C36.2376 66.8213 37.333 67.4242 38.4632 67.9215C38.8299 68.0828 39.228 68.3014 39.548 68.4771C39.9777 68.7131 40.4203 68.9694 40.9138 69.0392C42.6293 69.2817 44.3023 69.7415 46.0056 70.0481C49.4744 70.6724 52.0658 69.3124 55.1718 68.3984C57.3234 67.7652 58.9826 66.8594 60.1986 64.9898C60.3456 64.7637 60.4984 64.5288 60.6809 64.266C61.158 63.579 61.8828 62.9195 62.5497 62.3733C63.7379 61.4002 65.7745 61.3744 67.1777 60.7332C67.688 60.5001 67.4532 59.4229 67.7623 58.9362C67.779 58.9099 67.8004 58.8753 67.8253 58.8352C67.9025 58.7103 68.0128 58.5322 68.1155 58.387C68.4202 57.9561 68.9989 57.3014 70.0274 57.2415C70.4065 57.2195 71.2443 57.1089 71.8979 56.9978C71.9565 56.9878 72.0124 56.978 72.0652 56.9685C72.2683 56.836 72.5116 56.7588 72.7731 56.7588C72.8462 56.7588 72.9414 56.7606 73.0382 56.7708C73.0841 56.7756 73.1676 56.7859 73.2652 56.8114L73.2699 56.8125C73.3219 56.8257 73.6162 56.9002 73.8721 57.157C74.0396 57.3252 74.2271 57.6114 74.2439 58.0024C74.26 58.3757 74.1115 58.653 74.0029 58.8033C73.8236 59.0514 73.5996 59.1696 73.5534 59.194L73.5496 59.196C73.4125 59.269 73.2809 59.3082 73.2359 59.3216C73.0115 59.3885 72.6581 59.4551 72.334 59.5102C71.693 59.6193 70.8153 59.7404 70.2772 59.7799Z" fill="#F87171"/>
<path fill-rule="evenodd" clip-rule="evenodd" d="M23.5844 76.8607C14.4662 71.738 13.6723 66.4064 25.7031 73.1656C27.1534 73.9804 29.0604 76.9618 30.6933 78.0009C34.1457 80.1978 49.9881 76.6696 50.8672 78.0009C51.242 79.114 45.9333 80.1015 44.8089 80.4725C41.274 81.6389 36.7186 81.033 33.075 80.881C31.7094 80.824 30.1156 80.5772 28.6481 79.6434C27.7033 79.0422 26.7439 78.5409 25.7103 78.0009C25.0384 77.6499 24.3352 77.2825 23.5844 76.8607Z" fill="#F87171"/>
<path fill-rule="evenodd" clip-rule="evenodd" d="M73.158 52.6817C74.8085 52.8633 74.5242 55.397 72.8736 55.2154C70.7132 54.9778 69.2774 53.2356 67.3097 52.5639C64.7267 51.6823 61.0049 52.2258 58.5416 53.108C54.458 54.5707 49.4253 58.6345 45.0752 57.1761C43.2181 56.5535 38.6358 52.8869 43.3696 54.1392C47.7624 55.3014 49.807 53.7098 53.5811 52.3261C54.9562 51.822 56.2861 51.2049 57.6653 50.7109C64.2797 48.3417 67.3859 52.0469 73.158 52.6817Z" fill="#F87171"/>
<path d="M13.312 49.917C16.1706 52.7467 20.7708 47.0117 22.536 45.3517C24.4324 43.5684 26.8971 42.5188 29.4406 43.6698C35.2272 46.2883 41.379 46.1022 47.592 44.9246C50.8172 44.3132 52.9655 42.3718 55.7911 40.9733C57.3525 40.2005 60.4803 40.2081 62.2102 40.5995C63.0632 40.7925 64.4198 40.6994 65.0691 41.2136C65.3646 41.4476 66.8324 41.9424 67.1998 41.9878C68.0681 42.0953 68.8564 42.9489 69.8699 42.9489C70.7423 42.9489 71.5762 43.1892 72.54 43.1892" stroke="#F87171" stroke-width="2.57538" stroke-linecap="round"/>
<path fill-rule="evenodd" clip-rule="evenodd" d="M20.2938 33.665C20.289 33.6674 20.244 33.6887 20.1501 33.7697C20.0372 33.8671 19.9276 33.9829 19.7625 34.1573C19.7434 34.1775 19.7234 34.1986 19.7026 34.2205C19.5297 34.403 19.2847 34.6592 18.9976 34.8744C18.7007 35.0969 18.2895 35.3299 17.7644 35.3948C17.0588 35.4822 16.4152 34.9867 16.327 34.2881C16.2406 33.6045 16.7182 32.9798 17.4001 32.8716C17.4096 32.8657 17.4239 32.8563 17.4431 32.8419C17.5346 32.7733 17.6441 32.6665 17.8247 32.476C17.8428 32.4569 17.862 32.4365 17.8822 32.4151C18.0333 32.2549 18.2387 32.0371 18.458 31.8479C18.7139 31.6271 19.0701 31.3705 19.532 31.2298C22.5821 30.3008 26.2316 30.3562 29.2791 31.3435C32.3344 32.3333 34.0479 32.6911 37.1318 32.6911C37.5103 32.6911 38.2138 32.3272 38.6968 32.2653C39.4436 32.1695 41.5824 33.0082 42.2825 32.6911C47.0041 33.1159 49.569 33.4322 49.1502 34.3906C49.1502 36.0662 38.1222 33.9463 35.4148 34.3906C34.7139 34.5057 33.8623 35.4047 33.0186 35.4047C31.3263 35.4047 30.0859 33.1896 28.5471 32.6911C25.9935 31.8638 22.8216 32.8963 20.2938 33.665Z" fill="#F87171"/>
</g>
<g opacity="0.28" filter="url(#filter16_f_1230_304241)">
<path fill-rule="evenodd" clip-rule="evenodd" d="M16.2218 55.9559C16.2355 55.9729 16.2528 55.9954 16.2738 56.0251C16.3296 56.104 16.3712 56.1715 16.4294 56.2656C16.4638 56.3215 16.5041 56.3867 16.5565 56.4692C16.6703 56.6483 16.8418 56.9071 17.0768 57.1398C18.5174 58.5658 20.7126 59.2072 22.3076 60.5135C23.9885 61.8902 24.7434 64.1978 26.6182 65.3123C26.6856 65.3523 26.7543 65.3908 26.8246 65.4277C28.3123 66.2073 30.0076 66.5853 31.4175 67.4719C32.1581 67.9376 32.8925 68.1548 33.74 68.3116C35.9223 68.7153 38.4503 69.1829 40.9541 68.7323C42.6249 68.4316 44.267 67.9768 45.9494 67.7389C47.1221 67.573 48.0296 66.89 49.0818 66.4271C50.1267 65.9674 51.5712 65.2193 52.5292 64.2152C52.7496 63.9842 52.9267 63.7554 53.0526 63.5947C53.1931 63.4154 53.2649 63.3284 53.3309 63.2648C53.3812 63.2164 53.4029 63.2074 53.4137 63.2031C53.4278 63.1974 53.4928 63.173 53.6563 63.173H57.176C59.8074 63.173 61.6188 61.3683 62.9186 60.0732C62.9906 60.0014 64.4943 58.1286 64.5633 58.0603C66.3301 56.3115 69.9388 55.4511 72.3412 57.5649C72.8727 58.0326 73.6866 57.9852 74.1591 57.4591C74.6316 56.9329 74.5837 56.1273 74.0522 55.6596C73.1024 54.8238 71.9018 54.4865 70.7242 54.4234C67.4492 54.2478 63.5994 55.7931 61.309 58.0603C59.7815 59.5724 58.688 60.6237 57.176 60.6237H53.6563C52.5259 60.6237 51.6934 61.1698 51.028 62.0191C50.2615 62.9973 49.166 63.6003 48.0358 64.0975C47.6691 64.2588 47.271 64.4774 46.951 64.6531C46.5213 64.8891 46.0787 65.1454 45.5852 65.2152C43.8697 65.4578 42.1968 65.9175 40.4934 66.2241C37.0246 66.8484 34.4332 65.4885 31.3273 64.5744C29.1756 63.9412 27.5164 63.0354 26.3004 61.1658C26.1534 60.9397 26.0006 60.7048 25.8181 60.4421C25.341 59.7551 24.6162 59.0955 23.9493 58.5493C22.7611 57.5762 20.7245 57.5504 19.3213 56.9093C18.8111 56.6761 19.0459 55.5989 18.7367 55.1122C18.72 55.086 18.6986 55.0513 18.6738 55.0112C18.5965 54.8863 18.4862 54.7082 18.3835 54.563C18.0788 54.1322 17.5001 53.4775 16.4717 53.4176C16.0925 53.3955 15.2547 53.2849 14.6012 53.1738C14.5426 53.1638 14.4867 53.154 14.4339 53.1446C14.2307 53.012 13.9875 52.9348 13.7259 52.9348C13.6528 52.9348 13.5576 52.9366 13.4608 52.9468C13.415 52.9516 13.3314 52.962 13.2338 52.9874L13.2291 52.9886C13.1771 53.0017 12.8828 53.0762 12.627 53.333C12.4595 53.5012 12.2719 53.7874 12.2551 54.1784C12.239 54.5517 12.3875 54.8291 12.4961 54.9793C12.6754 55.2274 12.8994 55.3457 12.9456 55.3701L12.9494 55.3721C13.0865 55.445 13.2181 55.4842 13.2632 55.4976C13.4875 55.5645 13.841 55.6311 14.1651 55.6863C14.8061 55.7953 15.6837 55.9165 16.2218 55.9559Z" stroke="white" stroke-opacity="0.4" stroke-width="2.57538" stroke-linecap="round"/>
<path d="M74.896 71.99C72.2804 71.99 69.9961 71.2503 67.452 70.7352C65.6955 70.3796 63.453 70.2916 61.8556 71.1891C60.1775 72.1319 58.2866 73.0168 56.6907 74.0324C54.6727 75.3165 52.0681 74.8734 49.7592 74.8734C47.4879 74.8734 44.5428 75.3503 42.3691 74.6331" stroke="white" stroke-opacity="0.4" stroke-width="2.57538" stroke-linecap="round"/>
<path fill-rule="evenodd" clip-rule="evenodd" d="M13.341 48.8578C11.6905 49.0393 11.9749 51.573 13.6254 51.3915C15.7859 51.1539 17.2217 49.4116 19.1893 48.74C21.7723 47.8583 25.4942 48.4018 27.9574 49.2841C32.041 50.7468 37.0737 54.8106 41.4238 53.3521C43.281 52.7295 47.8632 49.0629 43.1294 50.3152C38.7366 51.4774 36.692 49.8858 32.918 48.5022C31.5428 47.998 30.2129 47.3809 28.8337 46.8869C22.2193 44.5177 19.1131 48.2229 13.341 48.8578Z" stroke="white" stroke-opacity="0.4" stroke-width="2.57538" stroke-linecap="round"/>
<path d="M73.187 46.093C70.3284 48.9227 65.7282 43.1878 63.963 41.5277C62.0666 39.7444 59.6019 38.6948 57.0584 39.8458C51.2718 42.4643 45.1201 42.2783 38.9071 41.1006C35.6818 40.4892 33.5335 38.5478 30.7079 37.1493C29.1466 36.3766 26.0188 36.3842 24.2889 36.7756C23.4358 36.9686 22.0792 36.8754 21.4299 37.3896C21.1345 37.6236 19.6666 38.1184 19.2993 38.1638C18.431 38.2713 17.6426 39.125 16.6291 39.125C15.7567 39.125 14.9228 39.3652 13.959 39.3652" stroke="white" stroke-opacity="0.4" stroke-width="2.57538" stroke-linecap="round"/>
<path fill-rule="evenodd" clip-rule="evenodd" d="M66.2054 29.841C66.2102 29.8434 66.2552 29.8647 66.3492 29.9458C66.4621 30.0432 66.5717 30.159 66.7367 30.3333C66.7559 30.3536 66.7758 30.3746 66.7966 30.3965C66.9696 30.579 67.2146 30.8352 67.5017 31.0504C67.7986 31.2729 68.2098 31.5059 68.7348 31.5709C69.4405 31.6582 70.0841 31.1627 70.1723 30.4642C70.2586 29.7805 69.781 29.1558 69.0992 29.0476C69.0896 29.0417 69.0754 29.0323 69.0562 29.0179C68.9647 28.9493 68.8551 28.8425 68.6746 28.652C68.6564 28.6329 68.6372 28.6126 68.6171 28.5912C68.4659 28.4309 68.2606 28.2131 68.0413 28.0239C67.7854 27.8032 67.4291 27.5465 66.9672 27.4058C63.9171 26.4768 60.2677 26.5322 57.2202 27.5195C54.1648 28.5093 52.4514 28.8671 49.3675 28.8671C48.989 28.8671 48.2855 28.5033 47.8025 28.4413C47.0556 28.3455 44.9168 29.1843 44.2167 28.8671C39.4952 29.292 36.9302 29.6082 37.349 30.5666C37.349 32.2422 48.3771 30.1223 51.0844 30.5666C51.7854 30.6817 52.637 31.5807 53.4807 31.5807C55.1729 31.5807 56.4134 29.3656 57.9521 28.8671C60.5057 28.0398 63.6777 29.0723 66.2054 29.841Z" stroke="white" stroke-opacity="0.4" stroke-width="2.57538" stroke-linecap="round"/>
</g>
</g>
<g filter="url(#filter17_dii_1230_304241)">
<path d="M62.8171 64.982C72.9575 62.4726 75.5852 46.6933 73.816 41.9775C72.0467 37.2618 63.9459 19.8643 42.4108 19.1125C20.8757 18.3607 9.08912 41.706 10.5766 46.217C12.0641 50.728 13.0189 46.217 19.4648 46.217C22.1634 46.217 25.1804 49.6215 26.3529 55.3191C26.7385 57.1924 26.437 59.1176 26.0616 60.993C24.4301 69.1441 27.5672 72.3816 31.0541 70.0806C33.6295 68.3811 31.0878 59.4555 33.6295 58.1839C46.1581 51.9161 55.9494 66.6815 62.8171 64.982Z" fill="url(#paint1_linear_1230_304241)"/>
</g>
<rect width="1.31022" height="3.90201" rx="0.65511" transform="matrix(0.928281 -0.371879 0.378444 0.925624 61.072 27.6077)" fill="#EC4899"/>
<rect width="1.31091" height="3.8999" rx="0.655456" transform="matrix(0.955728 0.294253 -0.299767 0.954012 62.5398 43.5125)" fill="#EC4899"/>
<rect width="1.31175" height="3.89738" rx="0.655873" transform="matrix(-0.987482 -0.157733 0.160895 -0.986971 38.0352 26.5474)" fill="#EC4899"/>
<rect width="1.30617" height="3.9142" rx="0.653085" transform="matrix(0.747715 0.66402 -0.671554 0.740955 27.4775 36.7864)" fill="#EC4899"/>
<rect width="1.31173" height="3.89743" rx="0.655866" transform="matrix(0.986967 -0.16092 0.164143 0.986437 46.0825 35.3162)" fill="#EC4899"/>
<rect width="1.30877" height="3.90637" rx="0.654385" transform="matrix(0.868216 0.496187 -0.503823 0.863807 57.3933 34.2642)" fill="#22C55E"/>
<rect width="1.30877" height="3.90637" rx="0.654385" transform="matrix(0.868216 0.496187 -0.503823 0.863807 48.8999 40.9902)" fill="#22C55E"/>
<rect width="1.30753" height="3.91011" rx="0.653765" transform="matrix(-0.813006 0.582255 -0.590091 -0.807337 45.2061 32.3765)" fill="#22C55E"/>
<rect width="1.31204" height="3.89649" rx="0.65602" transform="matrix(0.998472 -0.055266 0.0563996 0.998408 31.6436 38.5405)" fill="#22C55E"/>
<rect width="1.31171" height="3.89749" rx="0.655856" transform="matrix(0.986202 -0.165547 0.168857 0.985641 50.0596 25.2)" fill="#FACC15"/>
<rect width="1.31195" height="3.89677" rx="0.655974" transform="matrix(0.995039 -0.0994825 0.101508 0.994835 27.9546 29.5117)" fill="#FACC15"/>
<rect width="1.3081" height="3.90837" rx="0.654052" transform="matrix(0.839153 -0.543895 0.551702 0.834042 57.1238 48.4275)" fill="#FACC15"/>
<rect width="1.31207" height="3.8964" rx="0.656034" transform="matrix(0.999602 -0.0281927 0.0287721 0.999586 59.6719 37.6641)" fill="#FACC15"/>
<rect width="1.31168" height="3.89758" rx="0.655841" transform="matrix(0.985103 -0.171966 0.175396 0.984498 20.2437 38.887)" fill="#FACC15"/>
<rect width="1.30148" height="3.92823" rx="0.650742" transform="matrix(0.452967 0.891527 -0.8952 0.445664 41.1055 39.3086)" fill="#FACC15"/>
<rect width="1.31031" height="3.90174" rx="0.655153" transform="matrix(0.93173 0.363151 -0.369611 0.929187 23.1279 30.9915)" fill="#FEFCE8"/>
<rect width="1.31078" height="3.90031" rx="0.65539" transform="matrix(0.950485 -0.310771 0.31653 0.948583 35.8901 32.99)" fill="#FEFCE8"/>
<rect width="1.30255" height="3.92504" rx="0.651276" transform="matrix(-0.534998 0.844853 -0.849721 -0.527233 46.7173 25.4041)" fill="#FEFCE8"/>
<rect width="1.30255" height="3.92503" rx="0.651276" transform="matrix(-0.534998 0.844853 -0.84972 -0.527233 32.2783 26.2449)" fill="#FEFCE8"/>
<rect width="1.30605" height="3.91457" rx="0.653023" transform="matrix(-0.741462 -0.670995 0.678479 -0.734619 64.5283 39.6248)" fill="#FEFCE8"/>
<rect width="1.31201" height="3.8966" rx="0.656003" transform="matrix(-0.997178 0.0750764 -0.076612 -0.997061 55.3333 46.5566)" fill="#FEFCE8"/>
<rect width="1.31098" height="3.89969" rx="0.655491" transform="matrix(-0.958395 -0.285447 0.290827 -0.956776 49.887 37.5288)" fill="#FEFCE8"/>
<rect width="1.31098" height="3.89969" rx="0.655492" transform="matrix(-0.958395 -0.285446 0.290827 -0.956776 56.6816 31.6436)" fill="#FEFCE8"/>
<defs>
<filter id="filter0_dd_1230_304241" x="24.8195" y="93.7251" width="44.084" height="51.3713" filterUnits="userSpaceOnUse" color-interpolation-filters="sRGB">
<feFlood flood-opacity="0" result="BackgroundImageFix"/>
<feColorMatrix in="SourceAlpha" type="matrix" values="0 0 0 0 0 0 0 0 0 0 0 0 0 0 0 0 0 0 127 0" result="hardAlpha"/>
<feOffset dx="-0.757743" dy="0.757743"/>
<feComposite in2="hardAlpha" operator="out"/>
<feColorMatrix type="matrix" values="0 0 0 0 1 0 0 0 0 1 0 0 0 0 1 0 0 0 0.95 0"/>
<feBlend mode="normal" in2="BackgroundImageFix" result="effect1_dropShadow_1230_304241"/>
<feColorMatrix in="SourceAlpha" type="matrix" values="0 0 0 0 0 0 0 0 0 0 0 0 0 0 0 0 0 0 127 0" result="hardAlpha"/>
<feOffset dy="1.51549"/>
<feGaussianBlur stdDeviation="0.757743"/>
<feComposite in2="hardAlpha" operator="out"/>
<feColorMatrix type="matrix" values="0 0 0 0 0 0 0 0 0 0 0 0 0 0 0 0 0 0 0.25 0"/>
<feBlend mode="normal" in2="effect1_dropShadow_1230_304241" result="effect2_dropShadow_1230_304241"/>
<feBlend mode="normal" in="SourceGraphic" in2="effect2_dropShadow_1230_304241" result="shape"/>
</filter>
<filter id="filter1_dd_1230_304241" x="22.4894" y="82.386" width="44.0815" height="51.7766" filterUnits="userSpaceOnUse" color-interpolation-filters="sRGB">
<feFlood flood-opacity="0" result="BackgroundImageFix"/>
<feColorMatrix in="SourceAlpha" type="matrix" values="0 0 0 0 0 0 0 0 0 0 0 0 0 0 0 0 0 0 127 0" result="hardAlpha"/>
<feOffset dx="-0.757743" dy="0.757743"/>
<feComposite in2="hardAlpha" operator="out"/>
<feColorMatrix type="matrix" values="0 0 0 0 1 0 0 0 0 1 0 0 0 0 1 0 0 0 0.95 0"/>
<feBlend mode="normal" in2="BackgroundImageFix" result="effect1_dropShadow_1230_304241"/>
<feColorMatrix in="SourceAlpha" type="matrix" values="0 0 0 0 0 0 0 0 0 0 0 0 0 0 0 0 0 0 127 0" result="hardAlpha"/>
<feOffset dy="1.51549"/>
<feGaussianBlur stdDeviation="0.757743"/>
<feComposite in2="hardAlpha" operator="out"/>
<feColorMatrix type="matrix" values="0 0 0 0 0 0 0 0 0 0 0 0 0 0 0 0 0 0 0.25 0"/>
<feBlend mode="normal" in2="effect1_dropShadow_1230_304241" result="effect2_dropShadow_1230_304241"/>
<feBlend mode="normal" in="SourceGraphic" in2="effect2_dropShadow_1230_304241" result="shape"/>
</filter>
<filter id="filter2_dd_1230_304241" x="16.006" y="74.7173" width="44.084" height="51.3713" filterUnits="userSpaceOnUse" color-interpolation-filters="sRGB">
<feFlood flood-opacity="0" result="BackgroundImageFix"/>
<feColorMatrix in="SourceAlpha" type="matrix" values="0 0 0 0 0 0 0 0 0 0 0 0 0 0 0 0 0 0 127 0" result="hardAlpha"/>
<feOffset dx="-0.757743" dy="0.757743"/>
<feComposite in2="hardAlpha" operator="out"/>
<feColorMatrix type="matrix" values="0 0 0 0 1 0 0 0 0 1 0 0 0 0 1 0 0 0 0.95 0"/>
<feBlend mode="normal" in2="BackgroundImageFix" result="effect1_dropShadow_1230_304241"/>
<feColorMatrix in="SourceAlpha" type="matrix" values="0 0 0 0 0 0 0 0 0 0 0 0 0 0 0 0 0 0 127 0" result="hardAlpha"/>
<feOffset dy="1.51549"/>
<feGaussianBlur stdDeviation="0.757743"/>
<feComposite in2="hardAlpha" operator="out"/>
<feColorMatrix type="matrix" values="0 0 0 0 0 0 0 0 0 0 0 0 0 0 0 0 0 0 0.25 0"/>
<feBlend mode="normal" in2="effect1_dropShadow_1230_304241" result="effect2_dropShadow_1230_304241"/>
<feBlend mode="normal" in="SourceGraphic" in2="effect2_dropShadow_1230_304241" result="shape"/>
</filter>
<filter id="filter3_dd_1230_304241" x="15.1847" y="62.5596" width="44.0837" height="51.3713" filterUnits="userSpaceOnUse" color-interpolation-filters="sRGB">
<feFlood flood-opacity="0" result="BackgroundImageFix"/>
<feColorMatrix in="SourceAlpha" type="matrix" values="0 0 0 0 0 0 0 0 0 0 0 0 0 0 0 0 0 0 127 0" result="hardAlpha"/>
<feOffset dx="-0.757743" dy="0.757743"/>
<feComposite in2="hardAlpha" operator="out"/>
<feColorMatrix type="matrix" values="0 0 0 0 1 0 0 0 0 1 0 0 0 0 1 0 0 0 0.95 0"/>
<feBlend mode="normal" in2="BackgroundImageFix" result="effect1_dropShadow_1230_304241"/>
<feColorMatrix in="SourceAlpha" type="matrix" values="0 0 0 0 0 0 0 0 0 0 0 0 0 0 0 0 0 0 127 0" result="hardAlpha"/>
<feOffset dy="1.51549"/>
<feGaussianBlur stdDeviation="0.757743"/>
<feComposite in2="hardAlpha" operator="out"/>
<feColorMatrix type="matrix" values="0 0 0 0 0 0 0 0 0 0 0 0 0 0 0 0 0 0 0.25 0"/>
<feBlend mode="normal" in2="effect1_dropShadow_1230_304241" result="effect2_dropShadow_1230_304241"/>
<feBlend mode="normal" in="SourceGraphic" in2="effect2_dropShadow_1230_304241" result="shape"/>
</filter>
<filter id="filter4_dd_1230_304241" x="24.5128" y="107.51" width="44.084" height="51.3713" filterUnits="userSpaceOnUse" color-interpolation-filters="sRGB">
<feFlood flood-opacity="0" result="BackgroundImageFix"/>
<feColorMatrix in="SourceAlpha" type="matrix" values="0 0 0 0 0 0 0 0 0 0 0 0 0 0 0 0 0 0 127 0" result="hardAlpha"/>
<feOffset dx="-0.757743" dy="0.757743"/>
<feComposite in2="hardAlpha" operator="out"/>
<feColorMatrix type="matrix" values="0 0 0 0 1 0 0 0 0 1 0 0 0 0 1 0 0 0 0.95 0"/>
<feBlend mode="normal" in2="BackgroundImageFix" result="effect1_dropShadow_1230_304241"/>
<feColorMatrix in="SourceAlpha" type="matrix" values="0 0 0 0 0 0 0 0 0 0 0 0 0 0 0 0 0 0 127 0" result="hardAlpha"/>
<feOffset dy="1.51549"/>
<feGaussianBlur stdDeviation="0.757743"/>
<feComposite in2="hardAlpha" operator="out"/>
<feColorMatrix type="matrix" values="0 0 0 0 0 0 0 0 0 0 0 0 0 0 0 0 0 0 0.25 0"/>
<feBlend mode="normal" in2="effect1_dropShadow_1230_304241" result="effect2_dropShadow_1230_304241"/>
<feBlend mode="normal" in="SourceGraphic" in2="effect2_dropShadow_1230_304241" result="shape"/>
</filter>
<filter id="filter5_i_1230_304241" x="23.4087" y="97.2695" width="26.5447" height="38.2702" filterUnits="userSpaceOnUse" color-interpolation-filters="sRGB">
<feFlood flood-opacity="0" result="BackgroundImageFix"/>
<feBlend mode="normal" in="SourceGraphic" in2="BackgroundImageFix" result="shape"/>
<feColorMatrix in="SourceAlpha" type="matrix" values="0 0 0 0 0 0 0 0 0 0 0 0 0 0 0 0 0 0 127 0" result="hardAlpha"/>
<feOffset dx="1.01269" dy="-2.02537"/>
<feGaussianBlur stdDeviation="1.51903"/>
<feComposite in2="hardAlpha" operator="arithmetic" k2="-1" k3="1"/>
<feColorMatrix type="matrix" values="0 0 0 0 0 0 0 0 0 0 0 0 0 0 0 0 0 0 0.25 0"/>
<feBlend mode="normal" in2="shape" result="effect1_innerShadow_1230_304241"/>
</filter>
<filter id="filter6_i_1230_304241" x="0.959473" y="8.96919" width="107.967" height="107.967" filterUnits="userSpaceOnUse" color-interpolation-filters="sRGB">
<feFlood flood-opacity="0" result="BackgroundImageFix"/>
<feBlend mode="normal" in="SourceGraphic" in2="BackgroundImageFix" result="shape"/>
<feColorMatrix in="SourceAlpha" type="matrix" values="0 0 0 0 0 0 0 0 0 0 0 0 0 0 0 0 0 0 127 0" result="hardAlpha"/>
<feOffset dx="29.3679" dy="-32.406"/>
<feGaussianBlur stdDeviation="12.6586"/>
<feComposite in2="hardAlpha" operator="arithmetic" k2="-1" k3="1"/>
<feColorMatrix type="matrix" values="0 0 0 0 0 0 0 0 0 0 0 0 0 0 0 0 0 0 0.38 0"/>
<feBlend mode="normal" in2="shape" result="effect1_innerShadow_1230_304241"/>
</filter>
<filter id="filter7_i_1230_304241" x="-7.82861" y="8.42261" width="108.084" height="110.876" filterUnits="userSpaceOnUse" color-interpolation-filters="sRGB">
<feFlood flood-opacity="0" result="BackgroundImageFix"/>
<feBlend mode="normal" in="SourceGraphic" in2="BackgroundImageFix" result="shape"/>
<feColorMatrix in="SourceAlpha" type="matrix" values="0 0 0 0 0 0 0 0 0 0 0 0 0 0 0 0 0 0 127 0" result="hardAlpha"/>
<feOffset dx="7" dy="-18"/>
<feGaussianBlur stdDeviation="5"/>
<feComposite in2="hardAlpha" operator="arithmetic" k2="-1" k3="1"/>
<feColorMatrix type="matrix" values="0 0 0 0 0 0 0 0 0 0 0 0 0 0 0 0 0 0 0.25 0"/>
<feBlend mode="normal" in2="shape" result="effect1_innerShadow_1230_304241"/>
</filter>
<filter id="filter8_i_1230_304241" x="6.73779" y="69.7955" width="74.6022" height="42.9218" filterUnits="userSpaceOnUse" color-interpolation-filters="sRGB">
<feFlood flood-opacity="0" result="BackgroundImageFix"/>
<feBlend mode="normal" in="SourceGraphic" in2="BackgroundImageFix" result="shape"/>
<feColorMatrix in="SourceAlpha" type="matrix" values="0 0 0 0 0 0 0 0 0 0 0 0 0 0 0 0 0 0 127 0" result="hardAlpha"/>
<feOffset dx="2.0439" dy="-3.06585"/>
<feGaussianBlur stdDeviation="2.55487"/>
<feComposite in2="hardAlpha" operator="arithmetic" k2="-1" k3="1"/>
<feColorMatrix type="matrix" values="0 0 0 0 0 0 0 0 0 0 0 0 0 0 0 0 0 0 0.2 0"/>
<feBlend mode="normal" in2="shape" result="effect1_innerShadow_1230_304241"/>
</filter>
<filter id="filter9_iiii_1230_304241" x="-10.7257" y="15.632" width="105.726" height="109.351" filterUnits="userSpaceOnUse" color-interpolation-filters="sRGB">
<feFlood flood-opacity="0" result="BackgroundImageFix"/>
<feBlend mode="normal" in="SourceGraphic" in2="BackgroundImageFix" result="shape"/>
<feColorMatrix in="SourceAlpha" type="matrix" values="0 0 0 0 0 0 0 0 0 0 0 0 0 0 0 0 0 0 127 0" result="hardAlpha"/>
<feOffset dx="4.0878" dy="-8.1756"/>
<feGaussianBlur stdDeviation="6.64267"/>
<feComposite in2="hardAlpha" operator="arithmetic" k2="-1" k3="1"/>
<feColorMatrix type="matrix" values="0 0 0 0 0 0 0 0 0 0 0 0 0 0 0 0 0 0 0.15 0"/>
<feBlend mode="normal" in2="shape" result="effect1_innerShadow_1230_304241"/>
<feColorMatrix in="SourceAlpha" type="matrix" values="0 0 0 0 0 0 0 0 0 0 0 0 0 0 0 0 0 0 127 0" result="hardAlpha"/>
<feOffset dx="-9.19755" dy="7.15365"/>
<feGaussianBlur stdDeviation="5.62072"/>
<feComposite in2="hardAlpha" operator="arithmetic" k2="-1" k3="1"/>
<feColorMatrix type="matrix" values="0 0 0 0 1 0 0 0 0 1 0 0 0 0 1 0 0 0 0.3 0"/>
<feBlend mode="normal" in2="effect1_innerShadow_1230_304241" result="effect2_innerShadow_1230_304241"/>
<feColorMatrix in="SourceAlpha" type="matrix" values="0 0 0 0 0 0 0 0 0 0 0 0 0 0 0 0 0 0 127 0" result="hardAlpha"/>
<feOffset dx="15.3292" dy="-16.3512"/>
<feGaussianBlur stdDeviation="10.2195"/>
<feComposite in2="hardAlpha" operator="arithmetic" k2="-1" k3="1"/>
<feColorMatrix type="matrix" values="0 0 0 0 0 0 0 0 0 0 0 0 0 0 0 0 0 0 0.15 0"/>
<feBlend mode="normal" in2="effect2_innerShadow_1230_304241" result="effect3_innerShadow_1230_304241"/>
<feColorMatrix in="SourceAlpha" type="matrix" values="0 0 0 0 0 0 0 0 0 0 0 0 0 0 0 0 0 0 127 0" result="hardAlpha"/>
<feOffset dx="-16.3512" dy="28.6146"/>
<feGaussianBlur stdDeviation="9.70852"/>
<feComposite in2="hardAlpha" operator="arithmetic" k2="-1" k3="1"/>
<feColorMatrix type="matrix" values="0 0 0 0 1 0 0 0 0 1 0 0 0 0 1 0 0 0 0.25 0"/>
<feBlend mode="normal" in2="effect3_innerShadow_1230_304241" result="effect4_innerShadow_1230_304241"/>
</filter>
<filter id="filter10_f_1230_304241" x="5.45217" y="39.3726" width="76.1467" height="62.9055" filterUnits="userSpaceOnUse" color-interpolation-filters="sRGB">
<feFlood flood-opacity="0" result="BackgroundImageFix"/>
<feBlend mode="normal" in="SourceGraphic" in2="BackgroundImageFix" result="shape"/>
<feGaussianBlur stdDeviation="0.510975" result="effect1_foregroundBlur_1230_304241"/>
</filter>
<filter id="filter11_f_1230_304241" x="4.18264" y="33.2407" width="79.7028" height="63.1801" filterUnits="userSpaceOnUse" color-interpolation-filters="sRGB">
<feFlood flood-opacity="0" result="BackgroundImageFix"/>
<feBlend mode="normal" in="SourceGraphic" in2="BackgroundImageFix" result="shape"/>
<feGaussianBlur stdDeviation="0.510975" result="effect1_foregroundBlur_1230_304241"/>
</filter>
<filter id="filter12_i_1230_304241" x="62.8472" y="7.7771" width="37.2197" height="56.7673" filterUnits="userSpaceOnUse" color-interpolation-filters="sRGB">
<feFlood flood-opacity="0" result="BackgroundImageFix"/>
<feBlend mode="normal" in="SourceGraphic" in2="BackgroundImageFix" result="shape"/>
<feColorMatrix in="SourceAlpha" type="matrix" values="0 0 0 0 0 0 0 0 0 0 0 0 0 0 0 0 0 0 127 0" result="hardAlpha"/>
<feOffset dx="-3.04754" dy="3.04754"/>
<feComposite in2="hardAlpha" operator="arithmetic" k2="-1" k3="1"/>
<feColorMatrix type="matrix" values="0 0 0 0 1 0 0 0 0 1 0 0 0 0 1 0 0 0 0.25 0"/>
<feBlend mode="normal" in2="shape" result="effect1_innerShadow_1230_304241"/>
</filter>
<filter id="filter13_i_1230_304241" x="55.6201" y="47.6743" width="21.3782" height="30.3018" filterUnits="userSpaceOnUse" color-interpolation-filters="sRGB">
<feFlood flood-opacity="0" result="BackgroundImageFix"/>
<feBlend mode="normal" in="SourceGraphic" in2="BackgroundImageFix" result="shape"/>
<feColorMatrix in="SourceAlpha" type="matrix" values="0 0 0 0 0 0 0 0 0 0 0 0 0 0 0 0 0 0 127 0" result="hardAlpha"/>
<feOffset dx="-1.52377" dy="-1.52377"/>
<feComposite in2="hardAlpha" operator="arithmetic" k2="-1" k3="1"/>
<feColorMatrix type="matrix" values="0 0 0 0 1 0 0 0 0 1 0 0 0 0 1 0 0 0 0.25 0"/>
<feBlend mode="normal" in2="shape" result="effect1_innerShadow_1230_304241"/>
</filter>
<filter id="filter14_iiii_1230_304241" x="-2.43363" y="9.83737" width="88.812" height="91.231" filterUnits="userSpaceOnUse" color-interpolation-filters="sRGB">
<feFlood flood-opacity="0" result="BackgroundImageFix"/>
<feBlend mode="normal" in="SourceGraphic" in2="BackgroundImageFix" result="shape"/>
<feColorMatrix in="SourceAlpha" type="matrix" values="0 0 0 0 0 0 0 0 0 0 0 0 0 0 0 0 0 0 127 0" result="hardAlpha"/>
<feOffset dx="3.43385" dy="-6.86769"/>
<feGaussianBlur stdDeviation="5.58"/>
<feComposite in2="hardAlpha" operator="arithmetic" k2="-1" k3="1"/>
<feColorMatrix type="matrix" values="0 0 0 0 0 0 0 0 0 0 0 0 0 0 0 0 0 0 0.15 0"/>
<feBlend mode="normal" in2="shape" result="effect1_innerShadow_1230_304241"/>
<feColorMatrix in="SourceAlpha" type="matrix" values="0 0 0 0 0 0 0 0 0 0 0 0 0 0 0 0 0 0 127 0" result="hardAlpha"/>
<feOffset dx="-7.72615" dy="6.00923"/>
<feGaussianBlur stdDeviation="4.72154"/>
<feComposite in2="hardAlpha" operator="arithmetic" k2="-1" k3="1"/>
<feColorMatrix type="matrix" values="0 0 0 0 1 0 0 0 0 1 0 0 0 0 1 0 0 0 0.3 0"/>
<feBlend mode="normal" in2="effect1_innerShadow_1230_304241" result="effect2_innerShadow_1230_304241"/>
<feColorMatrix in="SourceAlpha" type="matrix" values="0 0 0 0 0 0 0 0 0 0 0 0 0 0 0 0 0 0 127 0" result="hardAlpha"/>
<feOffset dx="12.8769" dy="-13.7354"/>
<feGaussianBlur stdDeviation="8.58461"/>
<feComposite in2="hardAlpha" operator="arithmetic" k2="-1" k3="1"/>
<feColorMatrix type="matrix" values="0 0 0 0 0 0 0 0 0 0 0 0 0 0 0 0 0 0 0.15 0"/>
<feBlend mode="normal" in2="effect2_innerShadow_1230_304241" result="effect3_innerShadow_1230_304241"/>
<feColorMatrix in="SourceAlpha" type="matrix" values="0 0 0 0 0 0 0 0 0 0 0 0 0 0 0 0 0 0 127 0" result="hardAlpha"/>
<feOffset dx="-13.7354" dy="24.0369"/>
<feGaussianBlur stdDeviation="8.15538"/>
<feComposite in2="hardAlpha" operator="arithmetic" k2="-1" k3="1"/>
<feColorMatrix type="matrix" values="0 0 0 0 1 0 0 0 0 1 0 0 0 0 1 0 0 0 0.25 0"/>
<feBlend mode="normal" in2="effect3_innerShadow_1230_304241" result="effect4_innerShadow_1230_304241"/>
</filter>
<filter id="filter15_f_1230_304241" x="11.1562" y="29.7082" width="63.9652" height="52.3241" filterUnits="userSpaceOnUse" color-interpolation-filters="sRGB">
<feFlood flood-opacity="0" result="BackgroundImageFix"/>
<feBlend mode="normal" in="SourceGraphic" in2="BackgroundImageFix" result="shape"/>
<feGaussianBlur stdDeviation="0.429231" result="effect1_foregroundBlur_1230_304241"/>
</filter>
<filter id="filter16_f_1230_304241" x="10.0903" y="24.5966" width="66.9518" height="52.5785" filterUnits="userSpaceOnUse" color-interpolation-filters="sRGB">
<feFlood flood-opacity="0" result="BackgroundImageFix"/>
<feBlend mode="normal" in="SourceGraphic" in2="BackgroundImageFix" result="shape"/>
<feGaussianBlur stdDeviation="0.429231" result="effect1_foregroundBlur_1230_304241"/>
</filter>
<filter id="filter17_dii_1230_304241" x="7.75449" y="17.4093" width="69.2691" height="56.0906" filterUnits="userSpaceOnUse" color-interpolation-filters="sRGB">
<feFlood flood-opacity="0" result="BackgroundImageFix"/>
<feColorMatrix in="SourceAlpha" type="matrix" values="0 0 0 0 0 0 0 0 0 0 0 0 0 0 0 0 0 0 127 0" result="hardAlpha"/>
<feOffset dy="0.67417"/>
<feComposite in2="hardAlpha" operator="out"/>
<feColorMatrix type="matrix" values="0 0 0 0 0 0 0 0 0 0 0 0 0 0 0 0 0 0 0.25 0"/>
<feBlend mode="normal" in2="BackgroundImageFix" result="effect1_dropShadow_1230_304241"/>
<feBlend mode="normal" in="SourceGraphic" in2="effect1_dropShadow_1230_304241" result="shape"/>
<feColorMatrix in="SourceAlpha" type="matrix" values="0 0 0 0 0 0 0 0 0 0 0 0 0 0 0 0 0 0 127 0" result="hardAlpha"/>
<feOffset dx="2.69668" dy="-1.68543"/>
<feGaussianBlur stdDeviation="2.02251"/>
<feComposite in2="hardAlpha" operator="arithmetic" k2="-1" k3="1"/>
<feColorMatrix type="matrix" values="0 0 0 0 0 0 0 0 0 0 0 0 0 0 0 0 0 0 0.25 0"/>
<feBlend mode="normal" in2="shape" result="effect2_innerShadow_1230_304241"/>
<feColorMatrix in="SourceAlpha" type="matrix" values="0 0 0 0 0 0 0 0 0 0 0 0 0 0 0 0 0 0 127 0" result="hardAlpha"/>
<feOffset dx="-2.69668" dy="2.69668"/>
<feGaussianBlur stdDeviation="2.69668"/>
<feComposite in2="hardAlpha" operator="arithmetic" k2="-1" k3="1"/>
<feColorMatrix type="matrix" values="0 0 0 0 1 0 0 0 0 1 0 0 0 0 1 0 0 0 0.25 0"/>
<feBlend mode="normal" in2="effect2_innerShadow_1230_304241" result="effect3_innerShadow_1230_304241"/>
</filter>
<linearGradient id="paint0_linear_1230_304241" x1="28.0721" y1="107.133" x2="50.8576" y2="107.133" gradientUnits="userSpaceOnUse">
<stop offset="0.0666667" stop-opacity="0.28"/>
<stop offset="1" stop-opacity="0"/>
</linearGradient>
<linearGradient id="paint1_linear_1230_304241" x1="14.314" y1="46.7121" x2="73.9293" y2="34.5804" gradientUnits="userSpaceOnUse">
<stop stop-color="#462406"/>
<stop offset="1" stop-color="#8B4E16"/>
</linearGradient>
</defs>
</svg>
