<svg width="67" height="73" viewBox="0 0 67 73" fill="none" xmlns="http://www.w3.org/2000/svg">
<g filter="url(#filter0_d_1230_304238)">
<g filter="url(#filter1_di_1230_304238)">
<g filter="url(#filter2_ii_1230_304238)">
<path d="M0 39C0 37.3431 1.34315 36 3 36H65C66.1046 36 67 36.8954 67 38V41H0V39Z" fill="#EF4444"/>
<rect y="42" width="67" height="5" fill="#F97316"/>
<rect y="48" width="67" height="5" fill="#EAB308"/>
<rect y="54" width="67" height="5" fill="#22C55E"/>
<rect y="60" width="67" height="5" fill="#3B82F6"/>
<path d="M0 65H67V69C67 69.5523 66.5523 70 66 70H2C0.895429 70 0 69.1046 0 68V65Z" fill="#A855F7"/>
</g>
<rect y="47" width="67" height="1" fill="#FAFAF9"/>
<rect y="41" width="67" height="1" fill="#FAFAF9"/>
<rect y="59" width="67" height="1" fill="#FAFAF9"/>
<rect y="64" width="66" height="1" fill="#FAFAF9"/>
<rect y="53" width="67" height="1" fill="#FAFAF9"/>
<g filter="url(#filter3_ii_1230_304238)">
<path fill-rule="evenodd" clip-rule="evenodd" d="M0.73699 36.7641L52.7423 1.30762C61.0547 11.2893 66.2414 23.6689 66.9232 37.1539C66.9726 37.2724 67 37.4025 67 37.5389V69.0002C67 69.5525 66.5523 70.0002 66 70.0002V37.8111L1.31236 38.5903C0.32217 38.6022 -0.0812029 37.322 0.73699 36.7641Z" fill="#FAFAF9"/>
</g>
<path opacity="0.6" d="M36.0038 25.7192C35.7605 25.3861 35.8912 24.9113 36.2731 24.7412L36.322 24.7194C36.4353 24.669 36.5269 24.5797 36.5797 24.4681L36.6598 24.2991C36.8118 23.9783 37.2683 23.9717 37.4221 24.288C37.4822 24.4116 37.6 24.4972 37.737 24.5171L37.7602 24.5204C38.0936 24.5688 38.2627 24.9423 38.0797 25.2261L37.9122 25.486C37.8379 25.6012 37.8008 25.7359 37.8059 25.8719L37.8176 26.1785C37.8302 26.5133 37.4918 26.7545 37.1783 26.6341L37.1565 26.6257C37.0276 26.5762 36.8817 26.5931 36.7662 26.6708C36.4704 26.8699 36.0784 26.642 36.1116 26.2902L36.1291 26.1049C36.1407 25.9826 36.1072 25.8607 36.035 25.7619L36.0038 25.7192Z" fill="#EAB308"/>
<path opacity="0.6" d="M11.0038 33.7192C10.7605 33.3861 10.8912 32.9113 11.2731 32.7412L11.322 32.7194C11.4353 32.669 11.5269 32.5797 11.5797 32.4681L11.6598 32.2991C11.8118 31.9783 12.2683 31.9717 12.4221 32.288C12.4822 32.4116 12.6 32.4972 12.7371 32.5171L12.7602 32.5204C13.0936 32.5688 13.2627 32.9423 13.0797 33.2261L12.9122 33.486C12.8379 33.6012 12.8008 33.7359 12.8059 33.8719L12.8176 34.1785C12.8302 34.5133 12.4918 34.7545 12.1783 34.6341L12.1565 34.6257C12.0276 34.5762 11.8817 34.5931 11.7662 34.6708C11.4704 34.8699 11.0784 34.642 11.1116 34.2902L11.1291 34.1049C11.1407 33.9826 11.1072 33.8607 11.035 33.7619L11.0038 33.7192Z" fill="#3B82F6"/>
<path d="M44.0786 30.1387C43.8621 29.9056 44.0351 29.5115 44.3961 29.4154C44.5252 29.381 44.6409 29.303 44.717 29.1989C44.9299 28.9079 45.3817 28.8807 45.5461 29.1488C45.6049 29.2448 45.7083 29.3096 45.8328 29.3286C46.1808 29.3819 46.287 29.7592 46.0277 30.021C45.9349 30.1147 45.8831 30.2327 45.8838 30.3486C45.8861 30.6725 45.4999 30.9329 45.1752 30.8266C45.0591 30.7885 44.9237 30.7967 44.7997 30.8493C44.4531 30.9962 44.1082 30.7798 44.1668 30.4523C44.1878 30.3351 44.156 30.2221 44.0786 30.1387Z" fill="#FDBA74"/>
<path d="M39.7804 21.8139C39.7421 21.5719 39.9419 21.3659 40.1471 21.4359C40.2204 21.4609 40.3 21.4508 40.3677 21.4079C40.557 21.2879 40.7866 21.4394 40.7892 21.6859C40.7901 21.774 40.8219 21.8576 40.8774 21.9176C41.0327 22.0854 40.9748 22.385 40.7713 22.4674C40.6984 22.4969 40.6386 22.5586 40.6052 22.6386C40.5119 22.8623 40.2464 22.896 40.1181 22.7004C40.0722 22.6305 40.0033 22.5851 39.9272 22.5745C39.7142 22.545 39.608 22.2662 39.7323 22.0629C39.7768 21.9902 39.7941 21.9004 39.7804 21.8139Z" fill="#EF4444"/>
<path d="M31.6161 18.3994C31.4566 18.234 31.5327 17.9573 31.7559 17.8917C31.8358 17.8682 31.9031 17.8139 31.9428 17.741C32.0537 17.5373 32.3413 17.5207 32.4706 17.7105C32.5169 17.7784 32.589 17.8247 32.6706 17.8388C32.8987 17.8784 33.0003 18.1448 32.857 18.3277C32.8058 18.3932 32.7829 18.4761 32.7937 18.5577C32.8238 18.7858 32.599 18.9671 32.3811 18.8903C32.3032 18.8629 32.217 18.8678 32.142 18.9041C31.9325 19.0056 31.692 18.8513 31.7006 18.6209C31.7037 18.5384 31.6732 18.4586 31.6161 18.3994Z" fill="#FED7AA"/>
<path d="M39.6161 32.3994C39.4566 32.234 39.5327 31.9573 39.7559 31.8917C39.8358 31.8682 39.9031 31.8139 39.9428 31.741C40.0537 31.5373 40.3413 31.5207 40.4706 31.7105C40.5169 31.7784 40.589 31.8247 40.6706 31.8388C40.8987 31.8784 41.0003 32.1448 40.857 32.3277C40.8058 32.3932 40.7829 32.4761 40.7937 32.5577C40.8238 32.7858 40.599 32.9671 40.3811 32.8903C40.3032 32.8629 40.217 32.8678 40.142 32.9041C39.9325 33.0056 39.692 32.8513 39.7006 32.6209C39.7037 32.5384 39.6732 32.4586 39.6161 32.3994Z" fill="#3B82F6"/>
<path opacity="0.6" d="M20.3062 29.0945C20.61 28.7433 21.1764 28.8359 21.3456 29.2644C21.4061 29.4178 21.5262 29.5398 21.6788 29.6031C22.1052 29.7799 22.1873 30.3464 21.8295 30.6427C21.7015 30.7487 21.6213 30.9012 21.6068 31.066C21.5666 31.5264 21.0509 31.7839 20.6606 31.5385C20.521 31.4507 20.3513 31.423 20.1898 31.4615C19.7385 31.5693 19.3376 31.1619 19.4542 30.714C19.4959 30.5537 19.4713 30.384 19.3859 30.2431C19.1473 29.8492 19.4152 29.34 19.8775 29.3085C20.043 29.2973 20.1975 29.2201 20.3062 29.0945Z" fill="#A855F7"/>
<path opacity="0.6" d="M37.6218 17.8087C37.6845 17.4031 38.1138 17.1618 38.5061 17.3118L38.5564 17.3311C38.6728 17.3756 38.8012 17.3775 38.9178 17.3364L39.0945 17.2742C39.4299 17.1561 39.7596 17.4736 39.6451 17.8044C39.6004 17.9336 39.6236 18.0768 39.7071 18.1875L39.7212 18.2061C39.9243 18.4754 39.7802 18.8571 39.4489 18.9273L39.1456 18.9916C39.0111 19.0201 38.8893 19.0885 38.7967 19.1877L38.5878 19.4112C38.3597 19.6553 37.948 19.5859 37.81 19.2801L37.8004 19.2589C37.7437 19.1331 37.6279 19.042 37.4905 19.0151C37.139 18.9463 37.0213 18.5096 37.2941 18.2859L37.4378 18.1681C37.5327 18.0903 37.5952 17.9811 37.6138 17.8608L37.6218 17.8087Z" fill="#EF4444"/>
<path d="M53.3747 18.1509C53.385 17.8339 53.7859 17.6773 54.1105 17.8636C54.2267 17.9302 54.364 17.9565 54.4916 17.9366C54.8481 17.8809 55.1889 18.1798 55.117 18.485C55.0912 18.5942 55.1191 18.7127 55.1943 18.8138C55.4044 19.0964 55.2141 19.4377 54.845 19.4401C54.7129 19.4409 54.5928 19.4879 54.5117 19.5703C54.285 19.8006 53.8266 19.7127 53.6705 19.409C53.6146 19.3003 53.5125 19.2108 53.3872 19.1606C53.0369 19.0203 52.9439 18.6247 53.2165 18.4346C53.3141 18.3666 53.3711 18.2644 53.3747 18.1509Z" fill="#3B82F6"/>
<path d="M32.676 30.4098C32.8233 30.2106 33.1101 30.2026 33.2024 30.3951C33.2354 30.464 33.2979 30.5121 33.3758 30.5286C33.5936 30.5746 33.6443 30.8424 33.4689 31.02C33.4062 31.0835 33.3683 31.1652 33.3637 31.2467C33.351 31.4744 33.0955 31.6479 32.8948 31.5652C32.823 31.5355 32.7371 31.538 32.6564 31.5718C32.4308 31.6665 32.2222 31.506 32.2735 31.2772C32.2919 31.1954 32.2767 31.1151 32.2314 31.0546C32.1047 30.8855 32.2312 30.6127 32.4636 30.5541C32.5468 30.5331 32.6233 30.4811 32.676 30.4098Z" fill="#22C55E"/>
<path d="M48.7621 29.8022C48.8258 29.6326 49.0038 29.5326 49.1865 29.5637L49.2433 29.5733C49.2796 29.5795 49.3168 29.5753 49.3505 29.5613L49.5151 29.4925C49.6309 29.4442 49.7445 29.5689 49.6821 29.6759C49.6551 29.7223 49.6604 29.7805 49.6955 29.8221L49.7041 29.8323C49.7721 29.913 49.7368 30.0345 49.6361 30.0663L49.3424 30.159C49.2948 30.1741 49.2511 30.1987 49.2139 30.2313L48.9845 30.4325C48.9058 30.5014 48.7801 30.4704 48.7423 30.3728L48.7376 30.3604C48.7181 30.31 48.6689 30.2764 48.6142 30.276C48.4878 30.2751 48.4336 30.117 48.5345 30.0436L48.6779 29.9392C48.7073 29.9178 48.7296 29.8885 48.7423 29.8548L48.7621 29.8022Z" fill="#FED7AA"/>
<path opacity="0.6" d="M25.6218 31.8087C25.6845 31.4031 26.1138 31.1618 26.5061 31.3118L26.5564 31.3311C26.6728 31.3756 26.8012 31.3775 26.9178 31.3364L27.0945 31.2742C27.4299 31.1561 27.7596 31.4736 27.6451 31.8044C27.6004 31.9336 27.6236 32.0768 27.7071 32.1875L27.7212 32.2061C27.9243 32.4754 27.7802 32.8571 27.4489 32.9273L27.1456 32.9916C27.0111 33.0201 26.8893 33.0885 26.7967 33.1877L26.5878 33.4112C26.3597 33.6553 25.948 33.5859 25.81 33.2801L25.8004 33.2589C25.7437 33.1331 25.6279 33.042 25.4905 33.0151C25.139 32.9463 25.0213 32.5096 25.2941 32.2859L25.4378 32.1681C25.5327 32.0903 25.5952 31.9811 25.6138 31.8608L25.6218 31.8087Z" fill="#EAB308"/>
<path opacity="0.6" d="M21.6218 25.8087C21.6845 25.4031 22.1138 25.1618 22.5061 25.3118L22.5564 25.3311C22.6728 25.3756 22.8012 25.3775 22.9178 25.3364L23.0945 25.2742C23.4299 25.1561 23.7596 25.4736 23.6451 25.8044C23.6004 25.9336 23.6236 26.0768 23.7071 26.1875L23.7212 26.2061C23.9243 26.4754 23.7802 26.8571 23.4489 26.9273L23.1456 26.9916C23.0111 27.0201 22.8893 27.0885 22.7967 27.1877L22.5878 27.4112C22.3597 27.6553 21.948 27.5859 21.81 27.2801L21.8004 27.2589C21.7437 27.1331 21.6279 27.042 21.4905 27.0151C21.139 26.9463 21.0213 26.5096 21.2941 26.2859L21.4378 26.1681C21.5327 26.0903 21.5952 25.9811 21.6138 25.8608L21.6218 25.8087Z" fill="#F97316"/>
<path opacity="0.6" d="M28.6218 25.8087C28.6845 25.4031 29.1138 25.1618 29.5061 25.3118L29.5564 25.3311C29.6728 25.3756 29.8012 25.3775 29.9178 25.3364L30.0945 25.2742C30.4299 25.1561 30.7596 25.4736 30.6451 25.8044C30.6004 25.9336 30.6236 26.0768 30.7071 26.1875L30.7212 26.2061C30.9243 26.4754 30.7802 26.8571 30.4489 26.9273L30.1456 26.9916C30.0111 27.0201 29.8893 27.0885 29.7967 27.1877L29.5878 27.4112C29.3597 27.6553 28.948 27.5859 28.81 27.2801L28.8004 27.2589C28.7437 27.1331 28.6279 27.042 28.4905 27.0151C28.139 26.9463 28.0213 26.5096 28.2941 26.2859L28.4378 26.1681C28.5327 26.0903 28.5952 25.9811 28.6138 25.8608L28.6218 25.8087Z" fill="#F97316"/>
</g>
<path d="M41.3683 40.2173C41.4283 40.1184 41.5717 40.1184 41.6317 40.2173C41.6531 40.2527 41.6879 40.278 41.7281 40.2874C41.8407 40.3139 41.8851 40.4503 41.8095 40.5379C41.7825 40.5692 41.7692 40.6101 41.7727 40.6513C41.7823 40.7665 41.6662 40.8509 41.5596 40.8061C41.5215 40.79 41.4785 40.79 41.4404 40.8061C41.3338 40.8509 41.2177 40.7665 41.2273 40.6513C41.2308 40.6101 41.2175 40.5692 41.1905 40.5379C41.1149 40.4503 41.1593 40.3139 41.2719 40.2874C41.3121 40.278 41.3469 40.2527 41.3683 40.2173Z" fill="white" fill-opacity="0.2"/>
<path d="M17.105 40.652C17.2848 40.3553 17.7152 40.3553 17.895 40.652C17.9593 40.7582 18.0636 40.834 18.1844 40.8623C18.5221 40.9416 18.6552 41.351 18.4285 41.6136C18.3474 41.7076 18.3076 41.8302 18.318 41.9539C18.347 42.2996 17.9987 42.5526 17.6789 42.4182C17.5645 42.3701 17.4355 42.3701 17.3211 42.4182C17.0013 42.5526 16.653 42.2996 16.682 41.9539C16.6924 41.8302 16.6526 41.7076 16.5715 41.6136C16.3448 41.351 16.4779 40.9416 16.8156 40.8623C16.9364 40.834 17.0407 40.7582 17.105 40.652Z" fill="white" fill-opacity="0.2"/>
<path d="M57.2833 62.9464C57.2725 62.6001 57.6339 62.3663 57.9466 62.5174C58.0585 62.5715 58.1874 62.5784 58.3043 62.5365C58.6311 62.4195 58.966 62.6905 58.9188 63.0337C58.902 63.1566 58.9354 63.281 59.0115 63.3791C59.2243 63.6531 59.0699 64.0544 58.7281 64.1154C58.6058 64.1372 58.4975 64.2073 58.4276 64.3097C58.2324 64.5961 57.802 64.5731 57.6379 64.2676C57.5792 64.1582 57.4789 64.0771 57.3595 64.0423C57.0261 63.9453 56.9146 63.5298 57.1549 63.28C57.2409 63.1906 57.2872 63.0704 57.2833 62.9464Z" fill="white" fill-opacity="0.2"/>
<path d="M51.1913 52.382C51.2955 52.3315 51.416 52.4093 51.4126 52.5247C51.4113 52.566 51.4268 52.6061 51.4555 52.6358C51.5358 52.719 51.4988 52.8575 51.3877 52.89C51.3479 52.9017 51.3145 52.9288 51.295 52.9652C51.2404 53.0672 51.097 53.075 51.0317 52.9796C51.0084 52.9455 50.9723 52.9222 50.9315 52.915C50.8176 52.8948 50.7659 52.7611 50.8367 52.6697C50.862 52.637 50.8731 52.5955 50.8674 52.5545C50.8516 52.4401 50.9631 52.3497 51.0721 52.3885C51.1111 52.4024 51.154 52.4001 51.1913 52.382Z" fill="white" fill-opacity="0.2"/>
<path d="M60.3683 43.2173C60.4283 43.1184 60.5717 43.1184 60.6317 43.2173C60.6531 43.2527 60.6879 43.278 60.7281 43.2874C60.8407 43.3139 60.8851 43.4503 60.8095 43.5379C60.7825 43.5692 60.7692 43.6101 60.7727 43.6513C60.7823 43.7665 60.6662 43.8509 60.5596 43.8061C60.5215 43.79 60.4785 43.79 60.4404 43.8061C60.3338 43.8509 60.2177 43.7665 60.2273 43.6513C60.2308 43.6101 60.2175 43.5692 60.1905 43.5379C60.1149 43.4503 60.1593 43.3139 60.2719 43.2874C60.3121 43.278 60.3469 43.2527 60.3683 43.2173Z" fill="white" fill-opacity="0.2"/>
<path opacity="0.6" d="M35.105 52.652C35.2848 52.3553 35.7152 52.3553 35.895 52.652C35.9593 52.7582 36.0636 52.834 36.1844 52.8623C36.5221 52.9416 36.6552 53.351 36.4285 53.6136C36.3474 53.7076 36.3076 53.8302 36.318 53.9539C36.347 54.2996 35.9987 54.5526 35.6789 54.4182C35.5645 54.3701 35.4355 54.3701 35.3211 54.4182C35.0013 54.5526 34.653 54.2996 34.682 53.9539C34.6924 53.8302 34.6526 53.7076 34.5715 53.6136C34.3448 53.351 34.4779 52.9416 34.8156 52.8623C34.9364 52.834 35.0407 52.7582 35.105 52.652Z" fill="black" fill-opacity="0.12"/>
<path opacity="0.4" d="M42.105 59.652C42.2848 59.3553 42.7152 59.3553 42.895 59.652C42.9593 59.7582 43.0636 59.834 43.1844 59.8623C43.5221 59.9416 43.6552 60.351 43.4285 60.6136C43.3474 60.7076 43.3076 60.8302 43.318 60.9539C43.347 61.2996 42.9987 61.5526 42.6789 61.4182C42.5645 61.3701 42.4355 61.3701 42.3211 61.4182C42.0013 61.5526 41.653 61.2996 41.682 60.9539C41.6924 60.8302 41.6526 60.7076 41.5715 60.6136C41.3448 60.351 41.4779 59.9416 41.8156 59.8623C41.9364 59.834 42.0407 59.7582 42.105 59.652Z" fill="black" fill-opacity="0.12"/>
<g filter="url(#filter4_di_1230_304238)">
<g filter="url(#filter5_i_1230_304238)">
<path fill-rule="evenodd" clip-rule="evenodd" d="M50.8062 10.7538C53.425 10.7538 55.548 8.51084 55.548 5.74406C55.548 2.97729 53.425 0.734375 50.8062 0.734375C48.1874 0.734375 46.0645 2.97729 46.0645 5.74406C46.0645 8.51084 48.1874 10.7538 50.8062 10.7538ZM50.8062 6.96263C52.0802 6.96263 53.113 5.87148 53.113 4.52548C53.113 3.17948 52.0802 2.08833 50.8062 2.08833C49.5322 2.08833 48.4994 3.17948 48.4994 4.52548C48.4994 5.87148 49.5322 6.96263 50.8062 6.96263Z" fill="#FAFAF9"/>
</g>
<g opacity="0.84" filter="url(#filter6_d_1230_304238)">
<path d="M54.4595 3.15845C57.3356 7.03692 53.4433 9.94577 51.0392 9.94577C48.635 9.94577 45.4423 7.60253 47.6189 3.15845" stroke="white" stroke-opacity="0.4" stroke-width="0.952568" shape-rendering="crispEdges"/>
</g>
<g filter="url(#filter7_i_1230_304238)">
<path fill-rule="evenodd" clip-rule="evenodd" d="M52.7794 10.6886C55.1103 9.9644 56.427 7.27811 55.7204 4.68864C55.0138 2.09917 52.5513 0.587096 50.2204 1.31133C47.8895 2.03557 46.5727 4.72186 47.2794 7.31133C47.986 9.90081 50.4484 11.4129 52.7794 10.6886ZM51.7996 7.12874C52.9335 6.77641 53.5741 5.46957 53.2304 4.20982C52.8866 2.95008 51.6886 2.21448 50.5547 2.56681C49.4207 2.91914 48.7801 4.22599 49.1239 5.48573C49.4677 6.74547 50.6656 7.48107 51.7996 7.12874Z" fill="#FAFAF9"/>
</g>
<g opacity="0.84" filter="url(#filter8_d_1230_304238)">
<path d="M53.7042 2.62132C57.1013 5.39567 54.5428 9.04971 52.5135 9.67496C50.4842 10.3002 47.2037 9.00245 47.9302 4.40036" stroke="white" stroke-opacity="0.4" stroke-width="0.952568" shape-rendering="crispEdges"/>
</g>
<g filter="url(#filter9_i_1230_304238)">
<path fill-rule="evenodd" clip-rule="evenodd" d="M51.0392 8.87037C53.2717 8.87037 55.0814 6.98921 55.0814 4.66869C55.0814 2.34817 53.2717 0.815186 51.0392 0.815186C48.8068 0.815186 46.9971 2.34817 46.9971 4.66869C46.9971 6.98921 48.8068 8.87037 51.0392 8.87037ZM51.0394 5.69071C52.1255 5.69071 53.0059 4.77556 53.0059 3.64665C53.0059 2.51775 52.1255 1.60259 51.0394 1.60259C49.9534 1.60259 49.073 2.51775 49.073 3.64665C49.073 4.77556 49.9534 5.69071 51.0394 5.69071Z" fill="#FAFAF9"/>
</g>
<g opacity="0.84" filter="url(#filter10_d_1230_304238)">
<path d="M50.6084 1.9314L50.7676 2.05542L50.9854 2.00757C51.6133 1.87015 52.4076 1.96819 53.0312 2.31909C53.6353 2.65905 54.0605 3.22073 54.0605 4.04761C54.0605 4.9602 53.7206 5.86258 53.1631 6.53198C52.6068 7.19977 51.8577 7.61108 51.0391 7.61108C50.1716 7.61104 49.4857 7.30206 49.0146 6.79565C48.5405 6.2859 48.251 5.53968 48.251 4.61304C48.251 3.78075 48.7617 3.01431 49.3975 2.49487C49.7109 2.23878 50.029 2.06529 50.2832 1.98218C50.4104 1.94061 50.5056 1.92692 50.5664 1.92749C50.588 1.92771 50.6015 1.93003 50.6084 1.9314Z" stroke="white" stroke-opacity="0.4" stroke-width="0.952568" shape-rendering="crispEdges"/>
</g>
<g filter="url(#filter11_i_1230_304238)">
<path d="M50.9423 4.57948C51.6296 5.11667 52.658 5.11867 53.1741 4.40532C53.6901 3.69197 53.4983 2.5334 52.811 1.99621C52.1237 1.45903 48.8614 0.620083 50.01 1.82886C51.1586 3.03765 50.255 4.0423 50.9423 4.57948Z" fill="#FAFAF9"/>
</g>
<g filter="url(#filter12_i_1230_304238)">
<path d="M52.7497 4.18383C52.7497 5.34409 51.8448 6.28467 50.7286 6.28467C49.6124 6.28467 48.7075 5.34409 48.7075 4.18383C48.7075 3.02357 50.4177 -1.14907 50.7286 1.03258C51.0395 3.21422 52.7497 3.02357 52.7497 4.18383Z" fill="#FAFAF9"/>
</g>
<mask id="mask0_1230_304238" style="mask-type:alpha" maskUnits="userSpaceOnUse" x="48" y="0" width="5" height="7">
<path d="M52.7497 4.18383C52.7497 5.34409 51.8448 6.28467 50.7286 6.28467C49.6124 6.28467 48.7075 5.34409 48.7075 4.18383C48.7075 3.02357 50.4177 -1.14907 50.7286 1.03258C51.0395 3.21422 52.7497 3.02357 52.7497 4.18383Z" fill="#F7F1EB"/>
</mask>
<g mask="url(#mask0_1230_304238)">
<g opacity="0.84" filter="url(#filter13_d_1230_304238)">
<path fill-rule="evenodd" clip-rule="evenodd" d="M52.8155 5.1511L52.3372 5.77251C51.9785 6.51821 50.3362 5.43097 49.7068 4.65396C49.3454 4.20797 49.1927 3.49297 49.1687 2.78972C49.1449 2.09174 49.6913 1.01177 50.2321 0.146973L51.0142 0.675403C50.0057 1.48474 49.9308 1.97352 49.9459 2.41687C49.9608 2.85493 50.1636 3.58664 50.4242 3.90827C51.2052 4.87234 52.086 4.54449 52.8155 5.1511Z" fill="white" fill-opacity="0.4" shape-rendering="crispEdges"/>
</g>
</g>
</g>
<g filter="url(#filter14_di_1230_304238)">
<g filter="url(#filter15_i_1230_304238)">
<path fill-rule="evenodd" clip-rule="evenodd" d="M54.7386 24.8191C59.5001 24.8191 63.36 20.894 63.36 16.0521C63.36 11.2103 59.5001 7.28516 54.7386 7.28516C49.9771 7.28516 46.1172 11.2103 46.1172 16.0521C46.1172 20.894 49.9771 24.8191 54.7386 24.8191ZM54.7385 18.1846C57.0549 18.1846 58.9327 16.2751 58.9327 13.9196C58.9327 11.5641 57.0549 9.65461 54.7385 9.65461C52.4221 9.65461 50.5443 11.5641 50.5443 13.9196C50.5443 16.2751 52.4221 18.1846 54.7385 18.1846Z" fill="#FAFAF9"/>
</g>
<g opacity="0.84" filter="url(#filter16_d_1230_304238)">
<path d="M61.3813 11.5273C66.6107 18.3147 59.5338 23.4052 55.1626 23.4052C50.7914 23.4052 44.9865 19.3045 48.9439 11.5273" stroke="white" stroke-opacity="0.4" stroke-width="1.71388" shape-rendering="crispEdges"/>
</g>
<g filter="url(#filter17_i_1230_304238)">
<path fill-rule="evenodd" clip-rule="evenodd" d="M58.4119 24.7888C62.6028 23.5674 64.9206 18.8664 63.5887 14.2888C62.2568 9.71109 57.7797 6.99025 53.5887 8.21158C49.3977 9.43291 47.08 14.1339 48.4119 18.7116C49.7437 23.2892 54.2209 26.0101 58.4119 24.7888ZM56.5866 18.516C58.6255 17.9219 59.7531 15.6349 59.1051 13.4079C58.4572 11.181 56.2791 9.85732 54.2403 10.4515C52.2014 11.0456 51.0738 13.3326 51.7218 15.5596C52.3697 17.7866 54.5478 19.1102 56.5866 18.516Z" fill="#FAFAF9"/>
</g>
<g opacity="0.84" filter="url(#filter18_d_1230_304238)">
<path d="M59.9355 10.5766C66.1311 15.5149 61.5512 21.9072 57.8843 22.9757C54.2175 24.0442 48.255 21.7073 49.502 13.6168" stroke="white" stroke-opacity="0.4" stroke-width="1.71388" shape-rendering="crispEdges"/>
</g>
<g filter="url(#filter19_i_1230_304238)">
<path fill-rule="evenodd" clip-rule="evenodd" d="M55.1629 21.5231C59.2218 21.5231 62.5123 18.2311 62.5123 14.1701C62.5123 10.1092 59.2218 7.42651 55.1629 7.42651C51.1039 7.42651 47.8135 10.1092 47.8135 14.1701C47.8135 18.2311 51.1039 21.5231 55.1629 21.5231ZM55.163 15.9588C57.1377 15.9588 58.7384 14.3573 58.7384 12.3817C58.7384 10.4061 57.1377 8.80458 55.163 8.80458C53.1884 8.80458 51.5877 10.4061 51.5877 12.3817C51.5877 14.3573 53.1884 15.9588 55.163 15.9588Z" fill="#FAFAF9"/>
</g>
<g opacity="0.84" filter="url(#filter20_d_1230_304238)">
<path d="M54.3931 9.40527L54.6772 9.61816L55.0571 9.53809C56.2088 9.29552 57.661 9.46818 58.8003 10.085C59.9068 10.6841 60.6665 11.6623 60.6665 13.083C60.6663 16.3221 58.1686 19.2956 55.1636 19.2959C53.5734 19.2959 52.3201 18.7497 51.4644 17.8643C50.6057 16.9757 50.0845 15.6798 50.0845 14.0723C50.0846 12.6394 51 11.3065 52.1597 10.3945C52.7299 9.94611 53.3102 9.63995 53.7769 9.49316C54.0106 9.41968 54.1878 9.39538 54.3042 9.39648C54.3518 9.39695 54.3798 9.40235 54.3931 9.40527Z" stroke="white" stroke-opacity="0.4" stroke-width="1.71388" shape-rendering="crispEdges"/>
</g>
<g filter="url(#filter21_i_1230_304238)">
<path d="M54.986 14.0142C56.2357 14.9543 58.1055 14.9578 59.0437 13.7094C59.982 12.4611 59.6333 10.4336 58.3836 9.4935C57.134 8.55343 51.2025 7.08527 53.2908 9.20064C55.3792 11.316 53.7364 13.0741 54.986 14.0142Z" fill="#FAFAF9"/>
</g>
<g filter="url(#filter22_i_1230_304238)">
<path d="M58.2718 13.3217C58.2718 15.3522 56.6265 16.9982 54.5971 16.9982C52.5676 16.9982 50.9224 15.3522 50.9224 13.3217C50.9224 11.2912 54.0317 3.98913 54.5971 7.80701C55.1624 11.6249 58.2718 11.2912 58.2718 13.3217Z" fill="#FAFAF9"/>
</g>
<mask id="mask1_1230_304238" style="mask-type:alpha" maskUnits="userSpaceOnUse" x="50" y="6" width="9" height="11">
<path d="M58.2718 13.3217C58.2718 15.3522 56.6265 16.9982 54.5971 16.9982C52.5676 16.9982 50.9224 15.3522 50.9224 13.3217C50.9224 11.2912 54.0317 3.98913 54.5971 7.80701C55.1624 11.6249 58.2718 11.2912 58.2718 13.3217Z" fill="#F7F1EB"/>
</mask>
<g mask="url(#mask1_1230_304238)">
<g opacity="0.84" filter="url(#filter23_d_1230_304238)">
<path fill-rule="evenodd" clip-rule="evenodd" d="M58.3911 15.0143L57.5215 16.1018C56.8693 17.4067 53.8834 15.5041 52.7389 14.1443C52.082 13.3638 51.8042 12.1126 51.7606 10.8819C51.7174 9.66042 52.7109 7.77047 53.6941 6.25708L55.1161 7.18183C53.2824 8.59818 53.1462 9.45354 53.1737 10.2294C53.2008 10.996 53.5695 12.2765 54.0432 12.8393C55.4633 14.5265 57.0648 13.9527 58.3911 15.0143Z" fill="white" fill-opacity="0.4" shape-rendering="crispEdges"/>
</g>
</g>
</g>
<g filter="url(#filter24_di_1230_304238)">
<g filter="url(#filter25_i_1230_304238)">
<path fill-rule="evenodd" clip-rule="evenodd" d="M60.8062 33.7538C63.425 33.7538 65.548 31.5108 65.548 28.7441C65.548 25.9773 63.425 23.7344 60.8062 23.7344C58.1874 23.7344 56.0645 25.9773 56.0645 28.7441C56.0645 31.5108 58.1874 33.7538 60.8062 33.7538ZM60.8062 29.9626C62.0802 29.9626 63.113 28.8715 63.113 27.5255C63.113 26.1795 62.0802 25.0883 60.8062 25.0883C59.5322 25.0883 58.4994 26.1795 58.4994 27.5255C58.4994 28.8715 59.5322 29.9626 60.8062 29.9626Z" fill="#FAFAF9"/>
</g>
<g opacity="0.84" filter="url(#filter26_d_1230_304238)">
<path d="M64.4595 26.1584C67.3356 30.0369 63.4433 32.9458 61.0392 32.9458C58.635 32.9458 55.4423 30.6025 57.6189 26.1584" stroke="white" stroke-opacity="0.4" stroke-width="0.952568" shape-rendering="crispEdges"/>
</g>
<g filter="url(#filter27_i_1230_304238)">
<path fill-rule="evenodd" clip-rule="evenodd" d="M62.7794 33.6886C65.1103 32.9644 66.427 30.2781 65.7204 27.6886C65.0138 25.0992 62.5513 23.5871 60.2204 24.3113C57.8895 25.0356 56.5727 27.7219 57.2794 30.3113C57.986 32.9008 60.4484 34.4129 62.7794 33.6886ZM61.7996 30.1287C62.9335 29.7764 63.5741 28.4696 63.2304 27.2098C62.8866 25.9501 61.6886 25.2145 60.5547 25.5668C59.4207 25.9191 58.7801 27.226 59.1239 28.4857C59.4677 29.7455 60.6656 30.4811 61.7996 30.1287Z" fill="#FAFAF9"/>
</g>
<g opacity="0.84" filter="url(#filter28_d_1230_304238)">
<path d="M63.7042 25.6213C67.1013 28.3957 64.5428 32.0497 62.5135 32.675C60.4842 33.3002 57.2037 32.0025 57.9302 27.4004" stroke="white" stroke-opacity="0.4" stroke-width="0.952568" shape-rendering="crispEdges"/>
</g>
<g filter="url(#filter29_i_1230_304238)">
<path fill-rule="evenodd" clip-rule="evenodd" d="M61.0392 31.8704C63.2717 31.8704 65.0814 29.9892 65.0814 27.6687C65.0814 25.3482 63.2717 23.8152 61.0392 23.8152C58.8068 23.8152 56.9971 25.3482 56.9971 27.6687C56.9971 29.9892 58.8068 31.8704 61.0392 31.8704ZM61.0394 28.6907C62.1255 28.6907 63.0059 27.7756 63.0059 26.6467C63.0059 25.5178 62.1255 24.6026 61.0394 24.6026C59.9534 24.6026 59.073 25.5178 59.073 26.6467C59.073 27.7756 59.9534 28.6907 61.0394 28.6907Z" fill="#FAFAF9"/>
</g>
<g opacity="0.84" filter="url(#filter30_d_1230_304238)">
<path d="M60.6084 24.9314L60.7676 25.0554L60.9854 25.0076C61.6133 24.8701 62.4076 24.9682 63.0312 25.3191C63.6353 25.659 64.0605 26.2207 64.0605 27.0476C64.0605 27.9602 63.7206 28.8626 63.1631 29.532C62.6068 30.1998 61.8577 30.6111 61.0391 30.6111C60.1716 30.611 59.4857 30.3021 59.0146 29.7957C58.5405 29.2859 58.251 28.5397 58.251 27.613C58.251 26.7807 58.7617 26.0143 59.3975 25.4949C59.7109 25.2388 60.029 25.0653 60.2832 24.9822C60.4104 24.9406 60.5056 24.9269 60.5664 24.9275C60.588 24.9277 60.6015 24.93 60.6084 24.9314Z" stroke="white" stroke-opacity="0.4" stroke-width="0.952568" shape-rendering="crispEdges"/>
</g>
<g filter="url(#filter31_i_1230_304238)">
<path d="M60.9423 27.5795C61.6296 28.1167 62.658 28.1187 63.1741 27.4053C63.6901 26.692 63.4983 25.5334 62.811 24.9962C62.1237 24.459 58.8614 23.6201 60.01 24.8289C61.1586 26.0376 60.255 27.0423 60.9423 27.5795Z" fill="#FAFAF9"/>
</g>
<g filter="url(#filter32_i_1230_304238)">
<path d="M62.7497 27.1838C62.7497 28.3441 61.8448 29.2847 60.7286 29.2847C59.6124 29.2847 58.7075 28.3441 58.7075 27.1838C58.7075 26.0236 60.4177 21.8509 60.7286 24.0326C61.0395 26.2142 62.7497 26.0236 62.7497 27.1838Z" fill="#FAFAF9"/>
</g>
<mask id="mask2_1230_304238" style="mask-type:alpha" maskUnits="userSpaceOnUse" x="58" y="23" width="5" height="7">
<path d="M62.7497 27.1838C62.7497 28.3441 61.8448 29.2847 60.7286 29.2847C59.6124 29.2847 58.7075 28.3441 58.7075 27.1838C58.7075 26.0236 60.4177 21.8509 60.7286 24.0326C61.0395 26.2142 62.7497 26.0236 62.7497 27.1838Z" fill="#F7F1EB"/>
</mask>
<g mask="url(#mask2_1230_304238)">
<g opacity="0.84" filter="url(#filter33_d_1230_304238)">
<path fill-rule="evenodd" clip-rule="evenodd" d="M62.8155 28.1511L62.3372 28.7725C61.9785 29.5182 60.3362 28.431 59.7068 27.654C59.3454 27.208 59.1927 26.493 59.1687 25.7897C59.1449 25.0917 59.6913 24.0118 60.2321 23.147L61.0142 23.6754C60.0057 24.4847 59.9308 24.9735 59.9459 25.4169C59.9608 25.8549 60.1636 26.5866 60.4242 26.9083C61.2052 27.8723 62.086 27.5445 62.8155 28.1511Z" fill="white" fill-opacity="0.4" shape-rendering="crispEdges"/>
</g>
</g>
</g>
</g>
<defs>
<filter id="filter0_d_1230_304238" x="0" y="0" width="67" height="73.0002" filterUnits="userSpaceOnUse" color-interpolation-filters="sRGB">
<feFlood flood-opacity="0" result="BackgroundImageFix"/>
<feColorMatrix in="SourceAlpha" type="matrix" values="0 0 0 0 0 0 0 0 0 0 0 0 0 0 0 0 0 0 127 0" result="hardAlpha"/>
<feOffset dy="3"/>
<feComposite in2="hardAlpha" operator="out"/>
<feColorMatrix type="matrix" values="0 0 0 0 0 0 0 0 0 0 0 0 0 0 0 0 0 0 0.25 0"/>
<feBlend mode="normal" in2="BackgroundImageFix" result="effect1_dropShadow_1230_304238"/>
<feBlend mode="normal" in="SourceGraphic" in2="effect1_dropShadow_1230_304238" result="shape"/>
</filter>
<filter id="filter1_di_1230_304238" x="0" y="-1.44238" width="69.75" height="72.8176" filterUnits="userSpaceOnUse" color-interpolation-filters="sRGB">
<feFlood flood-opacity="0" result="BackgroundImageFix"/>
<feColorMatrix in="SourceAlpha" type="matrix" values="0 0 0 0 0 0 0 0 0 0 0 0 0 0 0 0 0 0 127 0" result="hardAlpha"/>
<feOffset dy="1.375"/>
<feComposite in2="hardAlpha" operator="out"/>
<feColorMatrix type="matrix" values="0 0 0 0 0 0 0 0 0 0 0 0 0 0 0 0 0 0 0.25 0"/>
<feBlend mode="normal" in2="BackgroundImageFix" result="effect1_dropShadow_1230_304238"/>
<feBlend mode="normal" in="SourceGraphic" in2="effect1_dropShadow_1230_304238" result="shape"/>
<feColorMatrix in="SourceAlpha" type="matrix" values="0 0 0 0 0 0 0 0 0 0 0 0 0 0 0 0 0 0 127 0" result="hardAlpha"/>
<feOffset dx="2.75" dy="-2.75"/>
<feGaussianBlur stdDeviation="4.125"/>
<feComposite in2="hardAlpha" operator="arithmetic" k2="-1" k3="1"/>
<feColorMatrix type="matrix" values="0 0 0 0 0 0 0 0 0 0 0 0 0 0 0 0 0 0 0.11 0"/>
<feBlend mode="normal" in2="shape" result="effect2_innerShadow_1230_304238"/>
</filter>
<filter id="filter2_ii_1230_304238" x="-2.75" y="34.625" width="89" height="38.125" filterUnits="userSpaceOnUse" color-interpolation-filters="sRGB">
<feFlood flood-opacity="0" result="BackgroundImageFix"/>
<feBlend mode="normal" in="SourceGraphic" in2="BackgroundImageFix" result="shape"/>
<feColorMatrix in="SourceAlpha" type="matrix" values="0 0 0 0 0 0 0 0 0 0 0 0 0 0 0 0 0 0 127 0" result="hardAlpha"/>
<feOffset dx="19.25" dy="-1.375"/>
<feGaussianBlur stdDeviation="9.625"/>
<feComposite in2="hardAlpha" operator="arithmetic" k2="-1" k3="1"/>
<feColorMatrix type="matrix" values="0 0 0 0 0 0 0 0 0 0 0 0 0 0 0 0 0 0 0.25 0"/>
<feBlend mode="normal" in2="shape" result="effect1_innerShadow_1230_304238"/>
<feColorMatrix in="SourceAlpha" type="matrix" values="0 0 0 0 0 0 0 0 0 0 0 0 0 0 0 0 0 0 127 0" result="hardAlpha"/>
<feOffset dx="-2.75" dy="2.75"/>
<feGaussianBlur stdDeviation="4.125"/>
<feComposite in2="hardAlpha" operator="arithmetic" k2="-1" k3="1"/>
<feColorMatrix type="matrix" values="0 0 0 0 1 0 0 0 0 1 0 0 0 0 1 0 0 0 0.25 0"/>
<feBlend mode="normal" in2="effect1_innerShadow_1230_304238" result="effect2_innerShadow_1230_304238"/>
</filter>
<filter id="filter3_ii_1230_304238" x="-2.45166" y="1.30762" width="70.8267" height="74.1926" filterUnits="userSpaceOnUse" color-interpolation-filters="sRGB">
<feFlood flood-opacity="0" result="BackgroundImageFix"/>
<feBlend mode="normal" in="SourceGraphic" in2="BackgroundImageFix" result="shape"/>
<feColorMatrix in="SourceAlpha" type="matrix" values="0 0 0 0 0 0 0 0 0 0 0 0 0 0 0 0 0 0 127 0" result="hardAlpha"/>
<feOffset dx="-2.75" dy="5.5"/>
<feGaussianBlur stdDeviation="2.75"/>
<feComposite in2="hardAlpha" operator="arithmetic" k2="-1" k3="1"/>
<feColorMatrix type="matrix" values="0 0 0 0 1 0 0 0 0 1 0 0 0 0 1 0 0 0 0.25 0"/>
<feBlend mode="normal" in2="shape" result="effect1_innerShadow_1230_304238"/>
<feColorMatrix in="SourceAlpha" type="matrix" values="0 0 0 0 0 0 0 0 0 0 0 0 0 0 0 0 0 0 127 0" result="hardAlpha"/>
<feOffset dx="1.375"/>
<feGaussianBlur stdDeviation="0.6875"/>
<feComposite in2="hardAlpha" operator="arithmetic" k2="-1" k3="1"/>
<feColorMatrix type="matrix" values="0 0 0 0 0 0 0 0 0 0 0 0 0 0 0 0 0 0 0.22 0"/>
<feBlend mode="normal" in2="effect1_innerShadow_1230_304238" result="effect2_innerShadow_1230_304238"/>
</filter>
<filter id="filter4_di_1230_304238" x="46" y="-0.366294" width="12.0989" height="13.3663" filterUnits="userSpaceOnUse" color-interpolation-filters="sRGB">
<feFlood flood-opacity="0" result="BackgroundImageFix"/>
<feColorMatrix in="SourceAlpha" type="matrix" values="0 0 0 0 0 0 0 0 0 0 0 0 0 0 0 0 0 0 127 0" result="hardAlpha"/>
<feOffset dy="1"/>
<feComposite in2="hardAlpha" operator="out"/>
<feColorMatrix type="matrix" values="0 0 0 0 0 0 0 0 0 0 0 0 0 0 0 0 0 0 0.15 0"/>
<feBlend mode="normal" in2="BackgroundImageFix" result="effect1_dropShadow_1230_304238"/>
<feBlend mode="normal" in="SourceGraphic" in2="effect1_dropShadow_1230_304238" result="shape"/>
<feColorMatrix in="SourceAlpha" type="matrix" values="0 0 0 0 0 0 0 0 0 0 0 0 0 0 0 0 0 0 127 0" result="hardAlpha"/>
<feOffset dx="1.09888" dy="-0.366294"/>
<feGaussianBlur stdDeviation="0.732587"/>
<feComposite in2="hardAlpha" operator="arithmetic" k2="-1" k3="1"/>
<feColorMatrix type="matrix" values="0 0 0 0 0 0 0 0 0 0 0 0 0 0 0 0 0 0 0.25 0"/>
<feBlend mode="normal" in2="shape" result="effect2_innerShadow_1230_304238"/>
</filter>
<filter id="filter5_i_1230_304238" x="46.0645" y="-0.059432" width="10.1184" height="10.8131" filterUnits="userSpaceOnUse" color-interpolation-filters="sRGB">
<feFlood flood-opacity="0" result="BackgroundImageFix"/>
<feBlend mode="normal" in="SourceGraphic" in2="BackgroundImageFix" result="shape"/>
<feColorMatrix in="SourceAlpha" type="matrix" values="0 0 0 0 0 0 0 0 0 0 0 0 0 0 0 0 0 0 127 0" result="hardAlpha"/>
<feOffset dx="0.635046" dy="-0.793807"/>
<feGaussianBlur stdDeviation="0.396904"/>
<feComposite in2="hardAlpha" operator="arithmetic" k2="-1" k3="1"/>
<feColorMatrix type="matrix" values="0 0 0 0 0 0 0 0 0 0 0 0 0 0 0 0 0 0 0.16 0"/>
<feBlend mode="normal" in2="shape" result="effect1_innerShadow_1230_304238"/>
</filter>
<filter id="filter6_d_1230_304238" x="46.418" y="2.87476" width="9.53467" height="7.70612" filterUnits="userSpaceOnUse" color-interpolation-filters="sRGB">
<feFlood flood-opacity="0" result="BackgroundImageFix"/>
<feColorMatrix in="SourceAlpha" type="matrix" values="0 0 0 0 0 0 0 0 0 0 0 0 0 0 0 0 0 0 127 0" result="hardAlpha"/>
<feOffset dy="0.158761"/>
<feComposite in2="hardAlpha" operator="out"/>
<feColorMatrix type="matrix" values="0 0 0 0 0 0 0 0 0 0 0 0 0 0 0 0 0 0 0.1 0"/>
<feBlend mode="normal" in2="BackgroundImageFix" result="effect1_dropShadow_1230_304238"/>
<feBlend mode="normal" in="SourceGraphic" in2="effect1_dropShadow_1230_304238" result="shape"/>
</filter>
<filter id="filter7_i_1230_304238" x="47.0884" y="0.33632" width="9.4578" height="10.5336" filterUnits="userSpaceOnUse" color-interpolation-filters="sRGB">
<feFlood flood-opacity="0" result="BackgroundImageFix"/>
<feBlend mode="normal" in="SourceGraphic" in2="BackgroundImageFix" result="shape"/>
<feColorMatrix in="SourceAlpha" type="matrix" values="0 0 0 0 0 0 0 0 0 0 0 0 0 0 0 0 0 0 127 0" result="hardAlpha"/>
<feOffset dx="0.635046" dy="-0.793807"/>
<feGaussianBlur stdDeviation="0.396904"/>
<feComposite in2="hardAlpha" operator="arithmetic" k2="-1" k3="1"/>
<feColorMatrix type="matrix" values="0 0 0 0 0 0 0 0 0 0 0 0 0 0 0 0 0 0 0.16 0"/>
<feBlend mode="normal" in2="shape" result="effect1_innerShadow_1230_304238"/>
</filter>
<filter id="filter8_d_1230_304238" x="47.355" y="2.2439" width="8.47803" height="8.21687" filterUnits="userSpaceOnUse" color-interpolation-filters="sRGB">
<feFlood flood-opacity="0" result="BackgroundImageFix"/>
<feColorMatrix in="SourceAlpha" type="matrix" values="0 0 0 0 0 0 0 0 0 0 0 0 0 0 0 0 0 0 127 0" result="hardAlpha"/>
<feOffset dy="0.158761"/>
<feComposite in2="hardAlpha" operator="out"/>
<feColorMatrix type="matrix" values="0 0 0 0 0 0 0 0 0 0 0 0 0 0 0 0 0 0 0.1 0"/>
<feBlend mode="normal" in2="BackgroundImageFix" result="effect1_dropShadow_1230_304238"/>
<feBlend mode="normal" in="SourceGraphic" in2="effect1_dropShadow_1230_304238" result="shape"/>
</filter>
<filter id="filter9_i_1230_304238" x="46.9971" y="0.0213785" width="8.71952" height="8.84898" filterUnits="userSpaceOnUse" color-interpolation-filters="sRGB">
<feFlood flood-opacity="0" result="BackgroundImageFix"/>
<feBlend mode="normal" in="SourceGraphic" in2="BackgroundImageFix" result="shape"/>
<feColorMatrix in="SourceAlpha" type="matrix" values="0 0 0 0 0 0 0 0 0 0 0 0 0 0 0 0 0 0 127 0" result="hardAlpha"/>
<feOffset dx="0.635046" dy="-0.793807"/>
<feGaussianBlur stdDeviation="0.396904"/>
<feComposite in2="hardAlpha" operator="arithmetic" k2="-1" k3="1"/>
<feColorMatrix type="matrix" values="0 0 0 0 0 0 0 0 0 0 0 0 0 0 0 0 0 0 0.16 0"/>
<feBlend mode="normal" in2="shape" result="effect1_innerShadow_1230_304238"/>
</filter>
<filter id="filter10_d_1230_304238" x="47.7744" y="1.45093" width="6.7627" height="6.79524" filterUnits="userSpaceOnUse" color-interpolation-filters="sRGB">
<feFlood flood-opacity="0" result="BackgroundImageFix"/>
<feColorMatrix in="SourceAlpha" type="matrix" values="0 0 0 0 0 0 0 0 0 0 0 0 0 0 0 0 0 0 127 0" result="hardAlpha"/>
<feOffset dy="0.158761"/>
<feComposite in2="hardAlpha" operator="out"/>
<feColorMatrix type="matrix" values="0 0 0 0 0 0 0 0 0 0 0 0 0 0 0 0 0 0 0.1 0"/>
<feBlend mode="normal" in2="BackgroundImageFix" result="effect1_dropShadow_1230_304238"/>
<feBlend mode="normal" in="SourceGraphic" in2="effect1_dropShadow_1230_304238" result="shape"/>
</filter>
<filter id="filter11_i_1230_304238" x="49.7671" y="-0.0119947" width="4.67698" height="4.97562" filterUnits="userSpaceOnUse" color-interpolation-filters="sRGB">
<feFlood flood-opacity="0" result="BackgroundImageFix"/>
<feBlend mode="normal" in="SourceGraphic" in2="BackgroundImageFix" result="shape"/>
<feColorMatrix in="SourceAlpha" type="matrix" values="0 0 0 0 0 0 0 0 0 0 0 0 0 0 0 0 0 0 127 0" result="hardAlpha"/>
<feOffset dx="0.976783" dy="-1.46517"/>
<feGaussianBlur stdDeviation="0.61049"/>
<feComposite in2="hardAlpha" operator="arithmetic" k2="-1" k3="1"/>
<feColorMatrix type="matrix" values="0 0 0 0 0 0 0 0 0 0 0 0 0 0 0 0 0 0 0.16 0"/>
<feBlend mode="normal" in2="shape" result="effect1_innerShadow_1230_304238"/>
</filter>
<filter id="filter12_i_1230_304238" x="48.7075" y="-0.382674" width="4.67704" height="6.66734" filterUnits="userSpaceOnUse" color-interpolation-filters="sRGB">
<feFlood flood-opacity="0" result="BackgroundImageFix"/>
<feBlend mode="normal" in="SourceGraphic" in2="BackgroundImageFix" result="shape"/>
<feColorMatrix in="SourceAlpha" type="matrix" values="0 0 0 0 0 0 0 0 0 0 0 0 0 0 0 0 0 0 127 0" result="hardAlpha"/>
<feOffset dx="0.635046" dy="-0.793807"/>
<feGaussianBlur stdDeviation="0.396904"/>
<feComposite in2="hardAlpha" operator="arithmetic" k2="-1" k3="1"/>
<feColorMatrix type="matrix" values="0 0 0 0 0 0 0 0 0 0 0 0 0 0 0 0 0 0 0.16 0"/>
<feBlend mode="normal" in2="shape" result="effect1_innerShadow_1230_304238"/>
</filter>
<filter id="filter13_d_1230_304238" x="49.0092" y="0.146973" width="3.80622" height="5.87549" filterUnits="userSpaceOnUse" color-interpolation-filters="sRGB">
<feFlood flood-opacity="0" result="BackgroundImageFix"/>
<feColorMatrix in="SourceAlpha" type="matrix" values="0 0 0 0 0 0 0 0 0 0 0 0 0 0 0 0 0 0 127 0" result="hardAlpha"/>
<feOffset dx="-0.158761"/>
<feComposite in2="hardAlpha" operator="out"/>
<feColorMatrix type="matrix" values="0 0 0 0 0 0 0 0 0 0 0 0 0 0 0 0 0 0 0.05 0"/>
<feBlend mode="normal" in2="BackgroundImageFix" result="effect1_dropShadow_1230_304238"/>
<feBlend mode="normal" in="SourceGraphic" in2="effect1_dropShadow_1230_304238" result="shape"/>
</filter>
<filter id="filter14_di_1230_304238" x="46" y="5.34096" width="21.9771" height="22.659" filterUnits="userSpaceOnUse" color-interpolation-filters="sRGB">
<feFlood flood-opacity="0" result="BackgroundImageFix"/>
<feColorMatrix in="SourceAlpha" type="matrix" values="0 0 0 0 0 0 0 0 0 0 0 0 0 0 0 0 0 0 127 0" result="hardAlpha"/>
<feOffset dy="1"/>
<feComposite in2="hardAlpha" operator="out"/>
<feColorMatrix type="matrix" values="0 0 0 0 0 0 0 0 0 0 0 0 0 0 0 0 0 0 0.15 0"/>
<feBlend mode="normal" in2="BackgroundImageFix" result="effect1_dropShadow_1230_304238"/>
<feBlend mode="normal" in="SourceGraphic" in2="effect1_dropShadow_1230_304238" result="shape"/>
<feColorMatrix in="SourceAlpha" type="matrix" values="0 0 0 0 0 0 0 0 0 0 0 0 0 0 0 0 0 0 127 0" result="hardAlpha"/>
<feOffset dx="1.97713" dy="-0.659043"/>
<feGaussianBlur stdDeviation="1.31809"/>
<feComposite in2="hardAlpha" operator="arithmetic" k2="-1" k3="1"/>
<feColorMatrix type="matrix" values="0 0 0 0 0 0 0 0 0 0 0 0 0 0 0 0 0 0 0.25 0"/>
<feBlend mode="normal" in2="shape" result="effect2_innerShadow_1230_304238"/>
</filter>
<filter id="filter15_i_1230_304238" x="46.1172" y="5.85692" width="18.3853" height="18.9622" filterUnits="userSpaceOnUse" color-interpolation-filters="sRGB">
<feFlood flood-opacity="0" result="BackgroundImageFix"/>
<feBlend mode="normal" in="SourceGraphic" in2="BackgroundImageFix" result="shape"/>
<feColorMatrix in="SourceAlpha" type="matrix" values="0 0 0 0 0 0 0 0 0 0 0 0 0 0 0 0 0 0 127 0" result="hardAlpha"/>
<feOffset dx="1.14259" dy="-1.42823"/>
<feGaussianBlur stdDeviation="0.714117"/>
<feComposite in2="hardAlpha" operator="arithmetic" k2="-1" k3="1"/>
<feColorMatrix type="matrix" values="0 0 0 0 0 0 0 0 0 0 0 0 0 0 0 0 0 0 0.16 0"/>
<feBlend mode="normal" in2="shape" result="effect1_innerShadow_1230_304238"/>
</filter>
<filter id="filter16_d_1230_304238" x="46.769" y="11.0044" width="17.3184" height="13.5435" filterUnits="userSpaceOnUse" color-interpolation-filters="sRGB">
<feFlood flood-opacity="0" result="BackgroundImageFix"/>
<feColorMatrix in="SourceAlpha" type="matrix" values="0 0 0 0 0 0 0 0 0 0 0 0 0 0 0 0 0 0 127 0" result="hardAlpha"/>
<feOffset dy="0.285647"/>
<feComposite in2="hardAlpha" operator="out"/>
<feColorMatrix type="matrix" values="0 0 0 0 0 0 0 0 0 0 0 0 0 0 0 0 0 0 0.1 0"/>
<feBlend mode="normal" in2="BackgroundImageFix" result="effect1_dropShadow_1230_304238"/>
<feBlend mode="normal" in="SourceGraphic" in2="effect1_dropShadow_1230_304238" result="shape"/>
</filter>
<filter id="filter17_i_1230_304238" x="48.0356" y="6.4912" width="17.0718" height="18.5896" filterUnits="userSpaceOnUse" color-interpolation-filters="sRGB">
<feFlood flood-opacity="0" result="BackgroundImageFix"/>
<feBlend mode="normal" in="SourceGraphic" in2="BackgroundImageFix" result="shape"/>
<feColorMatrix in="SourceAlpha" type="matrix" values="0 0 0 0 0 0 0 0 0 0 0 0 0 0 0 0 0 0 127 0" result="hardAlpha"/>
<feOffset dx="1.14259" dy="-1.42823"/>
<feGaussianBlur stdDeviation="0.714117"/>
<feComposite in2="hardAlpha" operator="arithmetic" k2="-1" k3="1"/>
<feColorMatrix type="matrix" values="0 0 0 0 0 0 0 0 0 0 0 0 0 0 0 0 0 0 0.16 0"/>
<feBlend mode="normal" in2="shape" result="effect1_innerShadow_1230_304238"/>
</filter>
<filter id="filter18_d_1230_304238" x="48.4771" y="9.90625" width="15.3628" height="14.4551" filterUnits="userSpaceOnUse" color-interpolation-filters="sRGB">
<feFlood flood-opacity="0" result="BackgroundImageFix"/>
<feColorMatrix in="SourceAlpha" type="matrix" values="0 0 0 0 0 0 0 0 0 0 0 0 0 0 0 0 0 0 127 0" result="hardAlpha"/>
<feOffset dy="0.285647"/>
<feComposite in2="hardAlpha" operator="out"/>
<feColorMatrix type="matrix" values="0 0 0 0 0 0 0 0 0 0 0 0 0 0 0 0 0 0 0.1 0"/>
<feBlend mode="normal" in2="BackgroundImageFix" result="effect1_dropShadow_1230_304238"/>
<feBlend mode="normal" in="SourceGraphic" in2="effect1_dropShadow_1230_304238" result="shape"/>
</filter>
<filter id="filter19_i_1230_304238" x="47.8135" y="5.99828" width="15.8413" height="15.5249" filterUnits="userSpaceOnUse" color-interpolation-filters="sRGB">
<feFlood flood-opacity="0" result="BackgroundImageFix"/>
<feBlend mode="normal" in="SourceGraphic" in2="BackgroundImageFix" result="shape"/>
<feColorMatrix in="SourceAlpha" type="matrix" values="0 0 0 0 0 0 0 0 0 0 0 0 0 0 0 0 0 0 127 0" result="hardAlpha"/>
<feOffset dx="1.14259" dy="-1.42823"/>
<feGaussianBlur stdDeviation="0.714117"/>
<feComposite in2="hardAlpha" operator="arithmetic" k2="-1" k3="1"/>
<feColorMatrix type="matrix" values="0 0 0 0 0 0 0 0 0 0 0 0 0 0 0 0 0 0 0.16 0"/>
<feBlend mode="normal" in2="shape" result="effect1_innerShadow_1230_304238"/>
</filter>
<filter id="filter20_d_1230_304238" x="49.2271" y="8.53906" width="12.2959" height="11.8994" filterUnits="userSpaceOnUse" color-interpolation-filters="sRGB">
<feFlood flood-opacity="0" result="BackgroundImageFix"/>
<feColorMatrix in="SourceAlpha" type="matrix" values="0 0 0 0 0 0 0 0 0 0 0 0 0 0 0 0 0 0 127 0" result="hardAlpha"/>
<feOffset dy="0.285647"/>
<feComposite in2="hardAlpha" operator="out"/>
<feColorMatrix type="matrix" values="0 0 0 0 0 0 0 0 0 0 0 0 0 0 0 0 0 0 0.1 0"/>
<feBlend mode="normal" in2="BackgroundImageFix" result="effect1_dropShadow_1230_304238"/>
<feBlend mode="normal" in="SourceGraphic" in2="effect1_dropShadow_1230_304238" result="shape"/>
</filter>
<filter id="filter21_i_1230_304238" x="52.8496" y="5.91891" width="8.48499" height="8.76737" filterUnits="userSpaceOnUse" color-interpolation-filters="sRGB">
<feFlood flood-opacity="0" result="BackgroundImageFix"/>
<feBlend mode="normal" in="SourceGraphic" in2="BackgroundImageFix" result="shape"/>
<feColorMatrix in="SourceAlpha" type="matrix" values="0 0 0 0 0 0 0 0 0 0 0 0 0 0 0 0 0 0 127 0" result="hardAlpha"/>
<feOffset dx="1.75745" dy="-2.63617"/>
<feGaussianBlur stdDeviation="1.0984"/>
<feComposite in2="hardAlpha" operator="arithmetic" k2="-1" k3="1"/>
<feColorMatrix type="matrix" values="0 0 0 0 0 0 0 0 0 0 0 0 0 0 0 0 0 0 0.16 0"/>
<feBlend mode="normal" in2="shape" result="effect1_innerShadow_1230_304238"/>
</filter>
<filter id="filter22_i_1230_304238" x="50.9224" y="5.29125" width="8.4922" height="11.7068" filterUnits="userSpaceOnUse" color-interpolation-filters="sRGB">
<feFlood flood-opacity="0" result="BackgroundImageFix"/>
<feBlend mode="normal" in="SourceGraphic" in2="BackgroundImageFix" result="shape"/>
<feColorMatrix in="SourceAlpha" type="matrix" values="0 0 0 0 0 0 0 0 0 0 0 0 0 0 0 0 0 0 127 0" result="hardAlpha"/>
<feOffset dx="1.14259" dy="-1.42823"/>
<feGaussianBlur stdDeviation="0.714117"/>
<feComposite in2="hardAlpha" operator="arithmetic" k2="-1" k3="1"/>
<feColorMatrix type="matrix" values="0 0 0 0 0 0 0 0 0 0 0 0 0 0 0 0 0 0 0.16 0"/>
<feBlend mode="normal" in2="shape" result="effect1_innerShadow_1230_304238"/>
</filter>
<filter id="filter23_d_1230_304238" x="51.4736" y="6.25708" width="6.91748" height="10.282" filterUnits="userSpaceOnUse" color-interpolation-filters="sRGB">
<feFlood flood-opacity="0" result="BackgroundImageFix"/>
<feColorMatrix in="SourceAlpha" type="matrix" values="0 0 0 0 0 0 0 0 0 0 0 0 0 0 0 0 0 0 127 0" result="hardAlpha"/>
<feOffset dx="-0.285647"/>
<feComposite in2="hardAlpha" operator="out"/>
<feColorMatrix type="matrix" values="0 0 0 0 0 0 0 0 0 0 0 0 0 0 0 0 0 0 0.05 0"/>
<feBlend mode="normal" in2="BackgroundImageFix" result="effect1_dropShadow_1230_304238"/>
<feBlend mode="normal" in="SourceGraphic" in2="effect1_dropShadow_1230_304238" result="shape"/>
</filter>
<filter id="filter24_di_1230_304238" x="56" y="22.6337" width="12.0989" height="13.3663" filterUnits="userSpaceOnUse" color-interpolation-filters="sRGB">
<feFlood flood-opacity="0" result="BackgroundImageFix"/>
<feColorMatrix in="SourceAlpha" type="matrix" values="0 0 0 0 0 0 0 0 0 0 0 0 0 0 0 0 0 0 127 0" result="hardAlpha"/>
<feOffset dy="1"/>
<feComposite in2="hardAlpha" operator="out"/>
<feColorMatrix type="matrix" values="0 0 0 0 0 0 0 0 0 0 0 0 0 0 0 0 0 0 0.15 0"/>
<feBlend mode="normal" in2="BackgroundImageFix" result="effect1_dropShadow_1230_304238"/>
<feBlend mode="normal" in="SourceGraphic" in2="effect1_dropShadow_1230_304238" result="shape"/>
<feColorMatrix in="SourceAlpha" type="matrix" values="0 0 0 0 0 0 0 0 0 0 0 0 0 0 0 0 0 0 127 0" result="hardAlpha"/>
<feOffset dx="1.09888" dy="-0.366294"/>
<feGaussianBlur stdDeviation="0.732587"/>
<feComposite in2="hardAlpha" operator="arithmetic" k2="-1" k3="1"/>
<feColorMatrix type="matrix" values="0 0 0 0 0 0 0 0 0 0 0 0 0 0 0 0 0 0 0.25 0"/>
<feBlend mode="normal" in2="shape" result="effect2_innerShadow_1230_304238"/>
</filter>
<filter id="filter25_i_1230_304238" x="56.0645" y="22.9406" width="10.1184" height="10.8131" filterUnits="userSpaceOnUse" color-interpolation-filters="sRGB">
<feFlood flood-opacity="0" result="BackgroundImageFix"/>
<feBlend mode="normal" in="SourceGraphic" in2="BackgroundImageFix" result="shape"/>
<feColorMatrix in="SourceAlpha" type="matrix" values="0 0 0 0 0 0 0 0 0 0 0 0 0 0 0 0 0 0 127 0" result="hardAlpha"/>
<feOffset dx="0.635046" dy="-0.793807"/>
<feGaussianBlur stdDeviation="0.396904"/>
<feComposite in2="hardAlpha" operator="arithmetic" k2="-1" k3="1"/>
<feColorMatrix type="matrix" values="0 0 0 0 0 0 0 0 0 0 0 0 0 0 0 0 0 0 0.16 0"/>
<feBlend mode="normal" in2="shape" result="effect1_innerShadow_1230_304238"/>
</filter>
<filter id="filter26_d_1230_304238" x="56.418" y="25.8748" width="9.53467" height="7.70612" filterUnits="userSpaceOnUse" color-interpolation-filters="sRGB">
<feFlood flood-opacity="0" result="BackgroundImageFix"/>
<feColorMatrix in="SourceAlpha" type="matrix" values="0 0 0 0 0 0 0 0 0 0 0 0 0 0 0 0 0 0 127 0" result="hardAlpha"/>
<feOffset dy="0.158761"/>
<feComposite in2="hardAlpha" operator="out"/>
<feColorMatrix type="matrix" values="0 0 0 0 0 0 0 0 0 0 0 0 0 0 0 0 0 0 0.1 0"/>
<feBlend mode="normal" in2="BackgroundImageFix" result="effect1_dropShadow_1230_304238"/>
<feBlend mode="normal" in="SourceGraphic" in2="effect1_dropShadow_1230_304238" result="shape"/>
</filter>
<filter id="filter27_i_1230_304238" x="57.0884" y="23.3363" width="9.4578" height="10.5336" filterUnits="userSpaceOnUse" color-interpolation-filters="sRGB">
<feFlood flood-opacity="0" result="BackgroundImageFix"/>
<feBlend mode="normal" in="SourceGraphic" in2="BackgroundImageFix" result="shape"/>
<feColorMatrix in="SourceAlpha" type="matrix" values="0 0 0 0 0 0 0 0 0 0 0 0 0 0 0 0 0 0 127 0" result="hardAlpha"/>
<feOffset dx="0.635046" dy="-0.793807"/>
<feGaussianBlur stdDeviation="0.396904"/>
<feComposite in2="hardAlpha" operator="arithmetic" k2="-1" k3="1"/>
<feColorMatrix type="matrix" values="0 0 0 0 0 0 0 0 0 0 0 0 0 0 0 0 0 0 0.16 0"/>
<feBlend mode="normal" in2="shape" result="effect1_innerShadow_1230_304238"/>
</filter>
<filter id="filter28_d_1230_304238" x="57.355" y="25.2439" width="8.47803" height="8.21687" filterUnits="userSpaceOnUse" color-interpolation-filters="sRGB">
<feFlood flood-opacity="0" result="BackgroundImageFix"/>
<feColorMatrix in="SourceAlpha" type="matrix" values="0 0 0 0 0 0 0 0 0 0 0 0 0 0 0 0 0 0 127 0" result="hardAlpha"/>
<feOffset dy="0.158761"/>
<feComposite in2="hardAlpha" operator="out"/>
<feColorMatrix type="matrix" values="0 0 0 0 0 0 0 0 0 0 0 0 0 0 0 0 0 0 0.1 0"/>
<feBlend mode="normal" in2="BackgroundImageFix" result="effect1_dropShadow_1230_304238"/>
<feBlend mode="normal" in="SourceGraphic" in2="effect1_dropShadow_1230_304238" result="shape"/>
</filter>
<filter id="filter29_i_1230_304238" x="56.9971" y="23.0214" width="8.71952" height="8.84898" filterUnits="userSpaceOnUse" color-interpolation-filters="sRGB">
<feFlood flood-opacity="0" result="BackgroundImageFix"/>
<feBlend mode="normal" in="SourceGraphic" in2="BackgroundImageFix" result="shape"/>
<feColorMatrix in="SourceAlpha" type="matrix" values="0 0 0 0 0 0 0 0 0 0 0 0 0 0 0 0 0 0 127 0" result="hardAlpha"/>
<feOffset dx="0.635046" dy="-0.793807"/>
<feGaussianBlur stdDeviation="0.396904"/>
<feComposite in2="hardAlpha" operator="arithmetic" k2="-1" k3="1"/>
<feColorMatrix type="matrix" values="0 0 0 0 0 0 0 0 0 0 0 0 0 0 0 0 0 0 0.16 0"/>
<feBlend mode="normal" in2="shape" result="effect1_innerShadow_1230_304238"/>
</filter>
<filter id="filter30_d_1230_304238" x="57.7744" y="24.4509" width="6.7627" height="6.79524" filterUnits="userSpaceOnUse" color-interpolation-filters="sRGB">
<feFlood flood-opacity="0" result="BackgroundImageFix"/>
<feColorMatrix in="SourceAlpha" type="matrix" values="0 0 0 0 0 0 0 0 0 0 0 0 0 0 0 0 0 0 127 0" result="hardAlpha"/>
<feOffset dy="0.158761"/>
<feComposite in2="hardAlpha" operator="out"/>
<feColorMatrix type="matrix" values="0 0 0 0 0 0 0 0 0 0 0 0 0 0 0 0 0 0 0.1 0"/>
<feBlend mode="normal" in2="BackgroundImageFix" result="effect1_dropShadow_1230_304238"/>
<feBlend mode="normal" in="SourceGraphic" in2="effect1_dropShadow_1230_304238" result="shape"/>
</filter>
<filter id="filter31_i_1230_304238" x="59.7671" y="22.988" width="4.67698" height="4.97562" filterUnits="userSpaceOnUse" color-interpolation-filters="sRGB">
<feFlood flood-opacity="0" result="BackgroundImageFix"/>
<feBlend mode="normal" in="SourceGraphic" in2="BackgroundImageFix" result="shape"/>
<feColorMatrix in="SourceAlpha" type="matrix" values="0 0 0 0 0 0 0 0 0 0 0 0 0 0 0 0 0 0 127 0" result="hardAlpha"/>
<feOffset dx="0.976783" dy="-1.46517"/>
<feGaussianBlur stdDeviation="0.61049"/>
<feComposite in2="hardAlpha" operator="arithmetic" k2="-1" k3="1"/>
<feColorMatrix type="matrix" values="0 0 0 0 0 0 0 0 0 0 0 0 0 0 0 0 0 0 0.16 0"/>
<feBlend mode="normal" in2="shape" result="effect1_innerShadow_1230_304238"/>
</filter>
<filter id="filter32_i_1230_304238" x="58.7075" y="22.6173" width="4.67704" height="6.66734" filterUnits="userSpaceOnUse" color-interpolation-filters="sRGB">
<feFlood flood-opacity="0" result="BackgroundImageFix"/>
<feBlend mode="normal" in="SourceGraphic" in2="BackgroundImageFix" result="shape"/>
<feColorMatrix in="SourceAlpha" type="matrix" values="0 0 0 0 0 0 0 0 0 0 0 0 0 0 0 0 0 0 127 0" result="hardAlpha"/>
<feOffset dx="0.635046" dy="-0.793807"/>
<feGaussianBlur stdDeviation="0.396904"/>
<feComposite in2="hardAlpha" operator="arithmetic" k2="-1" k3="1"/>
<feColorMatrix type="matrix" values="0 0 0 0 0 0 0 0 0 0 0 0 0 0 0 0 0 0 0.16 0"/>
<feBlend mode="normal" in2="shape" result="effect1_innerShadow_1230_304238"/>
</filter>
<filter id="filter33_d_1230_304238" x="59.0092" y="23.147" width="3.80622" height="5.87549" filterUnits="userSpaceOnUse" color-interpolation-filters="sRGB">
<feFlood flood-opacity="0" result="BackgroundImageFix"/>
<feColorMatrix in="SourceAlpha" type="matrix" values="0 0 0 0 0 0 0 0 0 0 0 0 0 0 0 0 0 0 127 0" result="hardAlpha"/>
<feOffset dx="-0.158761"/>
<feComposite in2="hardAlpha" operator="out"/>
<feColorMatrix type="matrix" values="0 0 0 0 0 0 0 0 0 0 0 0 0 0 0 0 0 0 0.05 0"/>
<feBlend mode="normal" in2="BackgroundImageFix" result="effect1_dropShadow_1230_304238"/>
<feBlend mode="normal" in="SourceGraphic" in2="effect1_dropShadow_1230_304238" result="shape"/>
</filter>
</defs>
</svg>
