<svg width="167" height="137" viewBox="0 0 167 137" fill="none" xmlns="http://www.w3.org/2000/svg">
<ellipse cx="69.29" cy="59.581" rx="69.29" ry="59.581" transform="matrix(1 0 0 -1 0 136.208)" fill="black" fill-opacity="0.12"/>
<path fill-rule="evenodd" clip-rule="evenodd" d="M99.9922 118.102C120.323 113.377 135.484 95.0003 135.484 73.0507C135.484 47.5189 114.971 26.8213 89.6683 26.8213C82.7769 26.8213 76.2408 28.3566 70.3777 31.1067C64.5147 28.3566 57.9786 26.8213 51.0872 26.8213C25.7841 26.8213 5.27197 47.5189 5.27197 73.0507C5.27197 95.5386 21.1848 114.276 42.2684 118.424C49.7339 126.394 59.8464 131.287 70.9806 131.287C82.2643 131.287 92.4987 126.261 99.9922 118.102Z" fill="black" fill-opacity="0.2"/>
<g filter="url(#filter0_i_1230_304287)">
<g filter="url(#filter1_ii_1230_304287)">
<path d="M41.1968 32.4206C41.1968 16.0154 54.5711 2.71646 71.0691 2.71647C87.5671 2.71647 100.941 16.0154 100.941 32.4206C100.941 48.8257 85.0516 74.0063 68.5536 74.0063C52.0555 74.0063 41.1968 48.8257 41.1968 32.4206Z" fill="#F97316"/>
</g>
<g filter="url(#filter2_iii_1230_304287)">
<path d="M74.4508 44.3193C74.4508 60.7151 60.9503 74.0065 44.2967 74.0065C27.643 74.0065 14.1426 60.7151 14.1426 44.3193C14.1426 27.9235 27.643 13.3821 44.2967 13.3821C60.9503 13.3821 74.4508 27.9235 74.4508 44.3193Z" fill="#F97316"/>
</g>
<g filter="url(#filter3_iii_1230_304287)">
<path d="M125.741 44.3193C125.741 60.7151 112.367 74.0065 95.8686 74.0065C79.3706 74.0065 65.9963 60.7151 65.9963 44.3193C65.9963 27.9235 79.3706 13.3821 95.8686 13.3821C112.367 13.3821 125.741 27.9235 125.741 44.3193Z" fill="#FB923C"/>
</g>
<g filter="url(#filter4_iii_1230_304287)">
<path d="M76.7053 73.0911C76.7053 92.4444 58.8083 111.616 41.7604 111.616C24.7124 111.616 6.81543 92.4444 6.81543 73.0911C6.81543 42.9062 26.6176 29.2906 49.3318 33.0904C66.3797 33.0904 76.7053 53.7378 76.7053 73.0911Z" fill="#F97316"/>
</g>
<g filter="url(#filter5_iiii_1230_304287)">
<path d="M133.632 73.0911C133.632 92.4444 115.735 111.616 98.6869 111.616C81.6389 111.616 63.7419 92.4444 63.7419 73.0911C63.7419 42.9062 83.5441 29.2906 106.258 33.0904C123.306 33.0904 133.632 53.7378 133.632 73.0911Z" fill="#F97316"/>
</g>
<g filter="url(#filter6_iii_1230_304287)">
<path d="M107.141 90.8465C107.141 107.777 90.1338 125.649 69.5249 125.649C48.9161 125.649 32.7424 104.97 32.7424 88.0399C32.7424 71.1097 43.342 38.0808 71.4978 38.0808C99.6535 38.0808 107.141 73.9164 107.141 90.8465Z" fill="#F97316"/>
</g>
<g filter="url(#filter7_f_1230_304287)">
<path d="M78.0684 11.4299C74.1953 7.8012 68.1708 7.8012 64.2978 11.4299L64.0384 11.6728C62.384 13.2229 60.213 14.1033 57.9462 14.1435L54.6341 14.2022C50.3975 14.2773 47.3638 18.3556 48.4353 22.4552C49.0012 24.6205 48.4 26.9488 46.8397 28.5532C43.6649 31.8174 44.8241 37.26 49.0535 38.9472L50.446 39.5027C52.4925 40.3191 54.0684 42.0056 54.7443 44.1027L54.8392 44.397C56.2319 48.7184 60.9201 51.0344 65.1985 49.5146L67.6441 48.6458C69.9333 47.8326 72.4328 47.8326 74.722 48.6458L77.1676 49.5146C81.446 51.0344 86.1342 48.7184 87.527 44.397L87.6218 44.1027C88.2977 42.0056 89.8736 40.3191 91.9201 39.5027L93.3126 38.9472C97.542 37.26 98.7012 31.8174 95.5264 28.5532C93.9661 26.9488 93.3649 24.6205 93.9308 22.4552C95.0023 18.3556 91.9686 14.2773 87.732 14.2022L84.4199 14.1435C82.1531 14.1033 79.9821 13.2229 78.3277 11.6728L78.0684 11.4299Z" fill="black" fill-opacity="0.2"/>
</g>
<g filter="url(#filter8_i_1230_304287)">
<path d="M76.7096 11.4003C73.4485 8.01886 68.0325 8.01886 64.7714 11.4003L64.654 11.522C63.2054 13.024 61.2204 13.8905 59.134 13.9314L57.3846 13.9657C53.2626 14.0466 50.2759 17.9509 51.2235 21.9633C51.6966 23.9664 51.1745 26.0912 49.8158 27.6373C46.9808 30.8633 48.0945 35.9141 52.0234 37.6486L52.7431 37.9664C54.6158 38.7932 56.0274 40.4053 56.5998 42.3707L56.6469 42.5325C57.8468 46.6528 62.3267 48.8524 66.3207 47.2822L67.6089 46.7757C69.6217 45.9844 71.8593 45.9844 73.8721 46.7757L75.1603 47.2822C79.1543 48.8524 83.6342 46.6528 84.8341 42.5325L84.8812 42.3707C85.4536 40.4053 86.8652 38.7932 88.7379 37.9664L89.4576 37.6486C93.3865 35.9141 94.5002 30.8633 91.6652 27.6373C90.3065 26.0912 89.7844 23.9664 90.2575 21.9633C91.2051 17.9509 88.2184 14.0466 84.0964 13.9657L82.347 13.9314C80.2606 13.8905 78.2756 13.024 76.827 11.522L76.7096 11.4003Z" fill="#15803D"/>
</g>
<g filter="url(#filter9_f_1230_304287)">
<rect width="28.9393" height="23.4382" rx="11.7191" transform="matrix(1 -7.51645e-08 -0.00299402 -0.999996 55.9556 35.2048)" fill="white" fill-opacity="0.2"/>
</g>
<g filter="url(#filter10_ii_1230_304287)">
<path d="M72.6778 13.0051C69.2476 10.5261 64.5172 11.6159 62.9882 15.2374L62.9049 15.4347C62.4531 16.5049 61.6483 17.386 60.6076 17.95L59.9288 18.3178C56.6599 20.0891 56.6402 24.6586 59.892 26.866C60.9716 27.5988 61.762 28.6686 62.1151 29.8751L62.1496 29.9931C63.196 33.5682 67.4976 35.3521 70.6562 33.5209L71.7399 32.8927C72.8132 32.2705 74.0746 31.9799 75.366 32.0573L76.6698 32.1355C80.4702 32.3635 83.158 28.9694 81.9852 25.4234L81.9465 25.3064C81.5507 24.1097 81.613 22.8435 82.1218 21.7447C83.6542 18.4351 80.9799 14.4864 77.1187 14.3576L76.317 14.3309C75.0878 14.2899 73.8784 13.8728 72.8647 13.1401L72.6778 13.0051Z" fill="#15803D"/>
</g>
</g>
<g filter="url(#filter11_f_1230_304287)">
<rect width="32.4408" height="21.9288" rx="10.9644" transform="matrix(-0.898567 -0.438837 0.444041 -0.896007 129.263 66.6858)" fill="white" fill-opacity="0.4"/>
</g>
<g filter="url(#filter12_f_1230_304287)">
<rect width="43.2226" height="39.9722" rx="19.9861" transform="matrix(-1 -8.70675e-08 0.00258471 -0.999997 106.396 93.2195)" fill="white" fill-opacity="0.2"/>
</g>
<g filter="url(#filter13_dii_1230_304287)">
<path d="M69.9397 20.0791C69.9397 20.0791 70.5923 12.2665 67.1746 7.3927" stroke="#16A34A" stroke-width="15" stroke-linecap="round"/>
</g>
<defs>
<filter id="filter0_i_1230_304287" x="6.81543" y="-6.28345" width="132.816" height="131.933" filterUnits="userSpaceOnUse" color-interpolation-filters="sRGB">
<feFlood flood-opacity="0" result="BackgroundImageFix"/>
<feBlend mode="normal" in="SourceGraphic" in2="BackgroundImageFix" result="shape"/>
<feColorMatrix in="SourceAlpha" type="matrix" values="0 0 0 0 0 0 0 0 0 0 0 0 0 0 0 0 0 0 127 0" result="hardAlpha"/>
<feOffset dx="6" dy="-9"/>
<feGaussianBlur stdDeviation="10.5"/>
<feComposite in2="hardAlpha" operator="arithmetic" k2="-1" k3="1"/>
<feColorMatrix type="matrix" values="0 0 0 0 0 0 0 0 0 0 0 0 0 0 0 0 0 0 0.15 0"/>
<feBlend mode="normal" in2="shape" result="effect1_innerShadow_1230_304287"/>
</filter>
<filter id="filter1_ii_1230_304287" x="23.3338" y="-15.1465" width="80.1243" height="89.1528" filterUnits="userSpaceOnUse" color-interpolation-filters="sRGB">
<feFlood flood-opacity="0" result="BackgroundImageFix"/>
<feBlend mode="normal" in="SourceGraphic" in2="BackgroundImageFix" result="shape"/>
<feColorMatrix in="SourceAlpha" type="matrix" values="0 0 0 0 0 0 0 0 0 0 0 0 0 0 0 0 0 0 127 0" result="hardAlpha"/>
<feOffset dx="2.51666" dy="-4.02666"/>
<feGaussianBlur stdDeviation="1.51"/>
<feComposite in2="hardAlpha" operator="arithmetic" k2="-1" k3="1"/>
<feColorMatrix type="matrix" values="0 0 0 0 0 0 0 0 0 0 0 0 0 0 0 0 0 0 0.12 0"/>
<feBlend mode="normal" in2="shape" result="effect1_innerShadow_1230_304287"/>
<feColorMatrix in="SourceAlpha" type="matrix" values="0 0 0 0 0 0 0 0 0 0 0 0 0 0 0 0 0 0 127 0" result="hardAlpha"/>
<feOffset dx="-32.0046" dy="-37.2146"/>
<feGaussianBlur stdDeviation="8.93151"/>
<feComposite in2="hardAlpha" operator="arithmetic" k2="-1" k3="1"/>
<feColorMatrix type="matrix" values="0 0 0 0 1 0 0 0 0 1 0 0 0 0 1 0 0 0 0.25 0"/>
<feBlend mode="normal" in2="effect1_innerShadow_1230_304287" result="effect2_innerShadow_1230_304287"/>
</filter>
<filter id="filter2_iii_1230_304287" x="8.18824" y="8.91633" width="69.9839" height="71.0446" filterUnits="userSpaceOnUse" color-interpolation-filters="sRGB">
<feFlood flood-opacity="0" result="BackgroundImageFix"/>
<feBlend mode="normal" in="SourceGraphic" in2="BackgroundImageFix" result="shape"/>
<feColorMatrix in="SourceAlpha" type="matrix" values="0 0 0 0 0 0 0 0 0 0 0 0 0 0 0 0 0 0 127 0" result="hardAlpha"/>
<feOffset dx="2.51666" dy="-4.02666"/>
<feGaussianBlur stdDeviation="1.51"/>
<feComposite in2="hardAlpha" operator="arithmetic" k2="-1" k3="1"/>
<feColorMatrix type="matrix" values="0 0 0 0 0 0 0 0 0 0 0 0 0 0 0 0 0 0 0.12 0"/>
<feBlend mode="normal" in2="shape" result="effect1_innerShadow_1230_304287"/>
<feColorMatrix in="SourceAlpha" type="matrix" values="0 0 0 0 0 0 0 0 0 0 0 0 0 0 0 0 0 0 127 0" result="hardAlpha"/>
<feOffset dx="3.72146" dy="-4.46575"/>
<feGaussianBlur stdDeviation="2.97717"/>
<feComposite in2="hardAlpha" operator="arithmetic" k2="-1" k3="1"/>
<feColorMatrix type="matrix" values="0 0 0 0 0 0 0 0 0 0 0 0 0 0 0 0 0 0 0.2 0"/>
<feBlend mode="normal" in2="effect1_innerShadow_1230_304287" result="effect2_innerShadow_1230_304287"/>
<feColorMatrix in="SourceAlpha" type="matrix" values="0 0 0 0 0 0 0 0 0 0 0 0 0 0 0 0 0 0 127 0" result="hardAlpha"/>
<feOffset dx="-8.93151" dy="6.19251"/>
<feGaussianBlur stdDeviation="2.97717"/>
<feComposite in2="hardAlpha" operator="arithmetic" k2="-1" k3="1"/>
<feColorMatrix type="matrix" values="0 0 0 0 1 0 0 0 0 1 0 0 0 0 1 0 0 0 0.05 0"/>
<feBlend mode="normal" in2="effect2_innerShadow_1230_304287" result="effect3_innerShadow_1230_304287"/>
</filter>
<filter id="filter3_iii_1230_304287" x="65.252" y="10.3621" width="63.0056" height="65.8774" filterUnits="userSpaceOnUse" color-interpolation-filters="sRGB">
<feFlood flood-opacity="0" result="BackgroundImageFix"/>
<feBlend mode="normal" in="SourceGraphic" in2="BackgroundImageFix" result="shape"/>
<feColorMatrix in="SourceAlpha" type="matrix" values="0 0 0 0 0 0 0 0 0 0 0 0 0 0 0 0 0 0 127 0" result="hardAlpha"/>
<feOffset dx="2.51666" dy="-4.02666"/>
<feGaussianBlur stdDeviation="1.51"/>
<feComposite in2="hardAlpha" operator="arithmetic" k2="-1" k3="1"/>
<feColorMatrix type="matrix" values="0 0 0 0 0 0 0 0 0 0 0 0 0 0 0 0 0 0 0.12 0"/>
<feBlend mode="normal" in2="shape" result="effect1_innerShadow_1230_304287"/>
<feColorMatrix in="SourceAlpha" type="matrix" values="0 0 0 0 0 0 0 0 0 0 0 0 0 0 0 0 0 0 127 0" result="hardAlpha"/>
<feOffset dx="-0.744292" dy="2.23288"/>
<feGaussianBlur stdDeviation="2.23288"/>
<feComposite in2="hardAlpha" operator="arithmetic" k2="-1" k3="1"/>
<feColorMatrix type="matrix" values="0 0 0 0 1 0 0 0 0 1 0 0 0 0 1 0 0 0 0.25 0"/>
<feBlend mode="normal" in2="effect1_innerShadow_1230_304287" result="effect2_innerShadow_1230_304287"/>
<feColorMatrix in="SourceAlpha" type="matrix" values="0 0 0 0 0 0 0 0 0 0 0 0 0 0 0 0 0 0 127 0" result="hardAlpha"/>
<feOffset dx="1.48858" dy="0.744292"/>
<feGaussianBlur stdDeviation="0.744292"/>
<feComposite in2="hardAlpha" operator="arithmetic" k2="-1" k3="1"/>
<feColorMatrix type="matrix" values="0 0 0 0 0 0 0 0 0 0 0 0 0 0 0 0 0 0 0.05 0"/>
<feBlend mode="normal" in2="effect2_innerShadow_1230_304287" result="effect3_innerShadow_1230_304287"/>
</filter>
<filter id="filter4_iii_1230_304287" x="-2.11608" y="12.3716" width="87.0086" height="105.943" filterUnits="userSpaceOnUse" color-interpolation-filters="sRGB">
<feFlood flood-opacity="0" result="BackgroundImageFix"/>
<feBlend mode="normal" in="SourceGraphic" in2="BackgroundImageFix" result="shape"/>
<feColorMatrix in="SourceAlpha" type="matrix" values="0 0 0 0 0 0 0 0 0 0 0 0 0 0 0 0 0 0 127 0" result="hardAlpha"/>
<feOffset dy="-5.95434"/>
<feGaussianBlur stdDeviation="5.95434"/>
<feComposite in2="hardAlpha" operator="arithmetic" k2="-1" k3="1"/>
<feColorMatrix type="matrix" values="0 0 0 0 0 0 0 0 0 0 0 0 0 0 0 0 0 0 0.15 0"/>
<feBlend mode="normal" in2="shape" result="effect1_innerShadow_1230_304287"/>
<feColorMatrix in="SourceAlpha" type="matrix" values="0 0 0 0 0 0 0 0 0 0 0 0 0 0 0 0 0 0 127 0" result="hardAlpha"/>
<feOffset dx="8.18721" dy="-20.0959"/>
<feGaussianBlur stdDeviation="11.9087"/>
<feComposite in2="hardAlpha" operator="arithmetic" k2="-1" k3="1"/>
<feColorMatrix type="matrix" values="0 0 0 0 0 0 0 0 0 0 0 0 0 0 0 0 0 0 0.15 0"/>
<feBlend mode="normal" in2="effect1_innerShadow_1230_304287" result="effect2_innerShadow_1230_304287"/>
<feColorMatrix in="SourceAlpha" type="matrix" values="0 0 0 0 0 0 0 0 0 0 0 0 0 0 0 0 0 0 127 0" result="hardAlpha"/>
<feOffset dx="-8.93151" dy="6.69863"/>
<feGaussianBlur stdDeviation="6.32648"/>
<feComposite in2="hardAlpha" operator="arithmetic" k2="-1" k3="1"/>
<feColorMatrix type="matrix" values="0 0 0 0 1 0 0 0 0 1 0 0 0 0 1 0 0 0 0.15 0"/>
<feBlend mode="normal" in2="effect2_innerShadow_1230_304287" result="effect3_innerShadow_1230_304287"/>
</filter>
<filter id="filter5_iiii_1230_304287" x="54.8104" y="21.3031" width="83.2872" height="96.2674" filterUnits="userSpaceOnUse" color-interpolation-filters="sRGB">
<feFlood flood-opacity="0" result="BackgroundImageFix"/>
<feBlend mode="normal" in="SourceGraphic" in2="BackgroundImageFix" result="shape"/>
<feColorMatrix in="SourceAlpha" type="matrix" values="0 0 0 0 0 0 0 0 0 0 0 0 0 0 0 0 0 0 127 0" result="hardAlpha"/>
<feOffset dx="2.23288" dy="-2.97717"/>
<feGaussianBlur stdDeviation="1.11644"/>
<feComposite in2="hardAlpha" operator="arithmetic" k2="-1" k3="1"/>
<feColorMatrix type="matrix" values="0 0 0 0 0 0 0 0 0 0 0 0 0 0 0 0 0 0 0.12 0"/>
<feBlend mode="normal" in2="shape" result="effect1_innerShadow_1230_304287"/>
<feColorMatrix in="SourceAlpha" type="matrix" values="0 0 0 0 0 0 0 0 0 0 0 0 0 0 0 0 0 0 127 0" result="hardAlpha"/>
<feOffset dx="4.46575" dy="-11.1644"/>
<feGaussianBlur stdDeviation="8.18721"/>
<feComposite in2="hardAlpha" operator="arithmetic" k2="-1" k3="1"/>
<feColorMatrix type="matrix" values="0 0 0 0 0 0 0 0 0 0 0 0 0 0 0 0 0 0 0.2 0"/>
<feBlend mode="normal" in2="effect1_innerShadow_1230_304287" result="effect2_innerShadow_1230_304287"/>
<feColorMatrix in="SourceAlpha" type="matrix" values="0 0 0 0 0 0 0 0 0 0 0 0 0 0 0 0 0 0 127 0" result="hardAlpha"/>
<feOffset dx="-8.93151" dy="5.95434"/>
<feGaussianBlur stdDeviation="5.21004"/>
<feComposite in2="hardAlpha" operator="arithmetic" k2="-1" k3="1"/>
<feColorMatrix type="matrix" values="0 0 0 0 1 0 0 0 0 1 0 0 0 0 1 0 0 0 0.15 0"/>
<feBlend mode="normal" in2="effect2_innerShadow_1230_304287" result="effect3_innerShadow_1230_304287"/>
<feColorMatrix in="SourceAlpha" type="matrix" values="0 0 0 0 0 0 0 0 0 0 0 0 0 0 0 0 0 0 127 0" result="hardAlpha"/>
<feOffset dy="2.97717"/>
<feGaussianBlur stdDeviation="4.46575"/>
<feComposite in2="hardAlpha" operator="arithmetic" k2="-1" k3="1"/>
<feColorMatrix type="matrix" values="0 0 0 0 1 0 0 0 0 1 0 0 0 0 1 0 0 0 0.25 0"/>
<feBlend mode="normal" in2="effect3_innerShadow_1230_304287" result="effect4_innerShadow_1230_304287"/>
</filter>
<filter id="filter6_iii_1230_304287" x="26.7881" y="20.9621" width="81.8418" height="104.687" filterUnits="userSpaceOnUse" color-interpolation-filters="sRGB">
<feFlood flood-opacity="0" result="BackgroundImageFix"/>
<feBlend mode="normal" in="SourceGraphic" in2="BackgroundImageFix" result="shape"/>
<feColorMatrix in="SourceAlpha" type="matrix" values="0 0 0 0 0 0 0 0 0 0 0 0 0 0 0 0 0 0 127 0" result="hardAlpha"/>
<feOffset dx="1.48858" dy="-17.1187"/>
<feGaussianBlur stdDeviation="8.93151"/>
<feComposite in2="hardAlpha" operator="arithmetic" k2="-1" k3="1"/>
<feColorMatrix type="matrix" values="0 0 0 0 0 0 0 0 0 0 0 0 0 0 0 0 0 0 0.15 0"/>
<feBlend mode="normal" in2="shape" result="effect1_innerShadow_1230_304287"/>
<feColorMatrix in="SourceAlpha" type="matrix" values="0 0 0 0 0 0 0 0 0 0 0 0 0 0 0 0 0 0 127 0" result="hardAlpha"/>
<feOffset dx="1.48858" dy="-5.95434"/>
<feGaussianBlur stdDeviation="11.9087"/>
<feComposite in2="hardAlpha" operator="arithmetic" k2="-1" k3="1"/>
<feColorMatrix type="matrix" values="0 0 0 0 0 0 0 0 0 0 0 0 0 0 0 0 0 0 0.1 0"/>
<feBlend mode="normal" in2="effect1_innerShadow_1230_304287" result="effect2_innerShadow_1230_304287"/>
<feColorMatrix in="SourceAlpha" type="matrix" values="0 0 0 0 0 0 0 0 0 0 0 0 0 0 0 0 0 0 127 0" result="hardAlpha"/>
<feOffset dx="-5.95434"/>
<feGaussianBlur stdDeviation="5.21004"/>
<feComposite in2="hardAlpha" operator="arithmetic" k2="-1" k3="1"/>
<feColorMatrix type="matrix" values="0 0 0 0 1 0 0 0 0 1 0 0 0 0 1 0 0 0 0.2 0"/>
<feBlend mode="normal" in2="effect2_innerShadow_1230_304287" result="effect3_innerShadow_1230_304287"/>
</filter>
<filter id="filter7_f_1230_304287" x="38.0278" y="1.70825" width="66.3105" height="55.2732" filterUnits="userSpaceOnUse" color-interpolation-filters="sRGB">
<feFlood flood-opacity="0" result="BackgroundImageFix"/>
<feBlend mode="normal" in="SourceGraphic" in2="BackgroundImageFix" result="shape"/>
<feGaussianBlur stdDeviation="3.5" result="effect1_foregroundBlur_1230_304287"/>
</filter>
<filter id="filter8_i_1230_304287" x="48.2322" y="3.86426" width="48.0166" height="43.9265" filterUnits="userSpaceOnUse" color-interpolation-filters="sRGB">
<feFlood flood-opacity="0" result="BackgroundImageFix"/>
<feBlend mode="normal" in="SourceGraphic" in2="BackgroundImageFix" result="shape"/>
<feColorMatrix in="SourceAlpha" type="matrix" values="0 0 0 0 0 0 0 0 0 0 0 0 0 0 0 0 0 0 127 0" result="hardAlpha"/>
<feOffset dx="3" dy="-5"/>
<feGaussianBlur stdDeviation="3.5"/>
<feComposite in2="hardAlpha" operator="arithmetic" k2="-1" k3="1"/>
<feColorMatrix type="matrix" values="0 0 0 0 0 0 0 0 0 0 0 0 0 0 0 0 0 0 0.25 0"/>
<feBlend mode="normal" in2="shape" result="effect1_innerShadow_1230_304287"/>
</filter>
<filter id="filter9_f_1230_304287" x="50.9204" y="6.76685" width="38.9395" height="33.438" filterUnits="userSpaceOnUse" color-interpolation-filters="sRGB">
<feFlood flood-opacity="0" result="BackgroundImageFix"/>
<feBlend mode="normal" in="SourceGraphic" in2="BackgroundImageFix" result="shape"/>
<feGaussianBlur stdDeviation="2.5" result="effect1_foregroundBlur_1230_304287"/>
</filter>
<filter id="filter10_ii_1230_304287" x="57.4651" y="7.6665" width="27.0957" height="26.583" filterUnits="userSpaceOnUse" color-interpolation-filters="sRGB">
<feFlood flood-opacity="0" result="BackgroundImageFix"/>
<feBlend mode="normal" in="SourceGraphic" in2="BackgroundImageFix" result="shape"/>
<feColorMatrix in="SourceAlpha" type="matrix" values="0 0 0 0 0 0 0 0 0 0 0 0 0 0 0 0 0 0 127 0" result="hardAlpha"/>
<feOffset dx="2" dy="-4"/>
<feGaussianBlur stdDeviation="2.5"/>
<feComposite in2="hardAlpha" operator="arithmetic" k2="-1" k3="1"/>
<feColorMatrix type="matrix" values="0 0 0 0 0 0 0 0 0 0 0 0 0 0 0 0 0 0 0.25 0"/>
<feBlend mode="normal" in2="shape" result="effect1_innerShadow_1230_304287"/>
<feColorMatrix in="SourceAlpha" type="matrix" values="0 0 0 0 0 0 0 0 0 0 0 0 0 0 0 0 0 0 127 0" result="hardAlpha"/>
<feOffset dx="2" dy="-4"/>
<feGaussianBlur stdDeviation="5.5"/>
<feComposite in2="hardAlpha" operator="arithmetic" k2="-1" k3="1"/>
<feColorMatrix type="matrix" values="0 0 0 0 0 0 0 0 0 0 0 0 0 0 0 0 0 0 0.1 0"/>
<feBlend mode="normal" in2="effect1_innerShadow_1230_304287" result="effect2_innerShadow_1230_304287"/>
</filter>
<filter id="filter11_f_1230_304287" x="72.8413" y="5.49536" width="93.4297" height="88.4963" filterUnits="userSpaceOnUse" color-interpolation-filters="sRGB">
<feFlood flood-opacity="0" result="BackgroundImageFix"/>
<feBlend mode="normal" in="SourceGraphic" in2="BackgroundImageFix" result="shape"/>
<feGaussianBlur stdDeviation="15.5" result="effect1_foregroundBlur_1230_304287"/>
</filter>
<filter id="filter12_f_1230_304287" x="40.2249" y="30.2473" width="89.2229" height="85.9722" filterUnits="userSpaceOnUse" color-interpolation-filters="sRGB">
<feFlood flood-opacity="0" result="BackgroundImageFix"/>
<feBlend mode="normal" in="SourceGraphic" in2="BackgroundImageFix" result="shape"/>
<feGaussianBlur stdDeviation="11.5" result="effect1_foregroundBlur_1230_304287"/>
</filter>
<filter id="filter13_dii_1230_304287" x="55.5674" y="-2" width="26.0288" height="37.4719" filterUnits="userSpaceOnUse" color-interpolation-filters="sRGB">
<feFlood flood-opacity="0" result="BackgroundImageFix"/>
<feColorMatrix in="SourceAlpha" type="matrix" values="0 0 0 0 0 0 0 0 0 0 0 0 0 0 0 0 0 0 127 0" result="hardAlpha"/>
<feOffset dy="4"/>
<feGaussianBlur stdDeviation="2"/>
<feComposite in2="hardAlpha" operator="out"/>
<feColorMatrix type="matrix" values="0 0 0 0 0 0 0 0 0 0 0 0 0 0 0 0 0 0 0.25 0"/>
<feBlend mode="normal" in2="BackgroundImageFix" result="effect1_dropShadow_1230_304287"/>
<feBlend mode="normal" in="SourceGraphic" in2="effect1_dropShadow_1230_304287" result="shape"/>
<feColorMatrix in="SourceAlpha" type="matrix" values="0 0 0 0 0 0 0 0 0 0 0 0 0 0 0 0 0 0 127 0" result="hardAlpha"/>
<feOffset dx="4" dy="1"/>
<feGaussianBlur stdDeviation="3"/>
<feComposite in2="hardAlpha" operator="arithmetic" k2="-1" k3="1"/>
<feColorMatrix type="matrix" values="0 0 0 0 0 0 0 0 0 0 0 0 0 0 0 0 0 0 0.25 0"/>
<feBlend mode="normal" in2="shape" result="effect2_innerShadow_1230_304287"/>
<feColorMatrix in="SourceAlpha" type="matrix" values="0 0 0 0 0 0 0 0 0 0 0 0 0 0 0 0 0 0 127 0" result="hardAlpha"/>
<feOffset dx="-3" dy="-2"/>
<feGaussianBlur stdDeviation="3.5"/>
<feComposite in2="hardAlpha" operator="arithmetic" k2="-1" k3="1"/>
<feColorMatrix type="matrix" values="0 0 0 0 1 0 0 0 0 1 0 0 0 0 1 0 0 0 0.25 0"/>
<feBlend mode="normal" in2="effect2_innerShadow_1230_304287" result="effect3_innerShadow_1230_304287"/>
</filter>
</defs>
</svg>
