<svg width="127" height="159" viewBox="0 0 127 159" fill="none" xmlns="http://www.w3.org/2000/svg">
<circle cx="63.5" cy="95.5" r="63.5" fill="black" fill-opacity="0.12"/>
<circle cx="63.5" cy="92.5" r="59.5" fill="black" fill-opacity="0.2"/>
<g filter="url(#filter0_ii_1230_304278)">
<rect x="4" y="24" width="119" height="125" rx="59.5" fill="#9A7858"/>
</g>
<mask id="mask0_1230_304278" style="mask-type:alpha" maskUnits="userSpaceOnUse" x="4" y="24" width="119" height="125">
<rect x="4" y="24" width="119" height="125" rx="59.5" fill="#9A7858"/>
</mask>
<g mask="url(#mask0_1230_304278)">
<g opacity="0.1" filter="url(#filter1_dd_1230_304278)">
<rect x="6.02637" y="-1.00879" width="113.948" height="129.287" rx="55.9211" stroke="black" stroke-width="0.93985" stroke-linecap="round" shape-rendering="crispEdges"/>
</g>
<g opacity="0.1" filter="url(#filter2_dd_1230_304278)">
<rect x="8" y="14" width="110" height="107" rx="53.5" stroke="black" stroke-width="0.93985" stroke-linecap="round" shape-rendering="crispEdges"/>
</g>
<g opacity="0.1" filter="url(#filter3_dd_1230_304278)">
<rect x="14" y="12" width="98" height="101" rx="49" stroke="black" stroke-width="0.93985" stroke-linecap="round" shape-rendering="crispEdges"/>
</g>
<g opacity="0.1" filter="url(#filter4_dd_1230_304278)">
<rect x="3" y="22" width="121" height="119" rx="55.9211" stroke="black" stroke-width="0.93985" stroke-linecap="round" shape-rendering="crispEdges"/>
</g>
<g opacity="0.1" filter="url(#filter5_dd_1230_304278)">
<rect x="4" y="24" width="119" height="111" rx="55.5" stroke="black" stroke-width="0.93985" stroke-linecap="round" shape-rendering="crispEdges"/>
</g>
<path opacity="0.1" d="M109.455 56.1582L111.359 47.2769" stroke="#3C2D24" stroke-width="0.93985" stroke-linecap="round"/>
<path opacity="0.1" d="M109.964 56.1303L117.241 52.0125" stroke="#3C2D24" stroke-width="0.93985" stroke-linecap="round"/>
<path opacity="0.1" d="M114.379 62.5389L115.905 49.3911" stroke="#3C2D24" stroke-width="0.93985" stroke-linecap="round"/>
<path opacity="0.1" d="M114.379 62.539L120.788 57.4138" stroke="#3C2D24" stroke-width="0.93985" stroke-linecap="round"/>
<path opacity="0.1" d="M111.326 69.1133L112.344 59.2524" stroke="#3C2D24" stroke-width="0.93985" stroke-linecap="round"/>
<path opacity="0.1" d="M111.326 69.1133L116.412 65.2786" stroke="#3C2D24" stroke-width="0.93985" stroke-linecap="round"/>
<path opacity="0.1" d="M116.208 73.4959L117.226 63.635" stroke="#3C2D24" stroke-width="0.93985" stroke-linecap="round"/>
<path opacity="0.1" d="M116.207 73.4959L121.294 69.6611" stroke="#3C2D24" stroke-width="0.93985" stroke-linecap="round"/>
<path opacity="0.1" d="M113.155 81.1656L114.173 71.3047" stroke="#3C2D24" stroke-width="0.93985" stroke-linecap="round"/>
<path opacity="0.1" d="M113.155 81.1655L117.938 76.2351" stroke="#3C2D24" stroke-width="0.93985" stroke-linecap="round"/>
<path opacity="0.1" d="M117.869 84.9679L117.961 75.6497" stroke="#3C2D24" stroke-width="0.93985" stroke-linecap="round"/>
<path opacity="0.1" d="M117.869 84.9681L120.35 82.1638" stroke="#3C2D24" stroke-width="0.93985" stroke-linecap="round"/>
<path opacity="0.1" d="M114.291 93.2814L115.302 83.939" stroke="#3C2D24" stroke-width="0.93985" stroke-linecap="round"/>
<path opacity="0.1" d="M114.291 93.2823L118.961 88.2273" stroke="#3C2D24" stroke-width="0.93985" stroke-linecap="round"/>
<path opacity="0.1" d="M110.602 100.28L111.857 91.0264" stroke="#3C2D24" stroke-width="0.93985" stroke-linecap="round"/>
<path opacity="0.1" d="M110.603 100.28L115.905 97.0525" stroke="#3C2D24" stroke-width="0.93985" stroke-linecap="round"/>
<path opacity="0.1" d="M115.396 105.27L115.905 97.0525" stroke="#3C2D24" stroke-width="0.93985" stroke-linecap="round"/>
<path opacity="0.1" d="M115.395 105.27L119.974 100.339" stroke="#3C2D24" stroke-width="0.93985" stroke-linecap="round"/>
<path opacity="0.1" d="M111.424 113.39L112.565 105.27" stroke="#3C2D24" stroke-width="0.93985" stroke-linecap="round"/>
<path opacity="0.1" d="M111.424 113.389L115.905 108.983" stroke="#3C2D24" stroke-width="0.93985" stroke-linecap="round"/>
<path opacity="0.1" d="M106.336 121.059L107.477 112.939" stroke="#3C2D24" stroke-width="0.93985" stroke-linecap="round"/>
<path opacity="0.1" d="M106.336 121.059L112.852 117.322" stroke="#3C2D24" stroke-width="0.93985" stroke-linecap="round"/>
<path opacity="0.1" d="M100.644 127.462L102.169 118.966" stroke="#3C2D24" stroke-width="0.93985" stroke-linecap="round"/>
<path opacity="0.1" d="M100.643 127.46L107.533 124.605" stroke="#3C2D24" stroke-width="0.93985" stroke-linecap="round"/>
<path opacity="0.1" d="M91.9955 134.305L94.0303 126.114" stroke="#3C2D24" stroke-width="0.93985" stroke-linecap="round"/>
<path opacity="0.1" d="M91.9953 134.305L101.152 132.661" stroke="#3C2D24" stroke-width="0.93985" stroke-linecap="round"/>
<path opacity="0.1" d="M81.3126 139.235L84.3647 131.603" stroke="#3C2D24" stroke-width="0.93985" stroke-linecap="round"/>
<path opacity="0.1" d="M81.3127 139.235L93.0127 140.878" stroke="#3C2D24" stroke-width="0.93985" stroke-linecap="round"/>
<path opacity="0.1" d="M63.5086 142.522L67.5781 135.948" stroke="#3C2D24" stroke-width="0.93985" stroke-linecap="round"/>
<path opacity="0.1" d="M63.508 142.522L75.208 148.548" stroke="#3C2D24" stroke-width="0.93985" stroke-linecap="round"/>
<path opacity="0.1" d="M47.7385 140.331L52.812 135.074" stroke="#3C2D24" stroke-width="0.93985" stroke-linecap="round"/>
<path opacity="0.1" d="M47.7388 140.331L55.8779 149.644" stroke="#3C2D24" stroke-width="0.93985" stroke-linecap="round"/>
<path opacity="0.2" d="M29.4259 131.018L38.0737 129.922" stroke="#3C2D24" stroke-width="0.93985" stroke-linecap="round"/>
<path opacity="0.2" d="M29.4261 130.973L36.5479 142.522" stroke="#3C2D24" stroke-width="0.93985" stroke-linecap="round"/>
<path opacity="0.1" d="M118.341 97.0524L118.85 88.835" stroke="#3C2D24" stroke-width="0.93985" stroke-linecap="round"/>
<path opacity="0.1" d="M118.341 97.0525L122.919 92.1221" stroke="#3C2D24" stroke-width="0.93985" stroke-linecap="round"/>
<path opacity="0.1" d="M105.602 107.95L107.256 97.6003" stroke="#3C2D24" stroke-width="0.93985" stroke-linecap="round"/>
<path opacity="0.1" d="M105.603 107.95L112.852 104.722" stroke="#3C2D24" stroke-width="0.93985" stroke-linecap="round"/>
<path opacity="0.1" d="M98.8409 114.583L101.893 104.174" stroke="#3C2D24" stroke-width="0.93985" stroke-linecap="round"/>
<path opacity="0.1" d="M98.8411 114.583L107.765 112.392" stroke="#3C2D24" stroke-width="0.93985" stroke-linecap="round"/>
<path opacity="0.1" d="M90.682 120.5L94.5396 110.2" stroke="#3C2D24" stroke-width="0.93985" stroke-linecap="round"/>
<path opacity="0.1" d="M90.6816 120.501L102.169 118.966" stroke="#3C2D24" stroke-width="0.93985" stroke-linecap="round"/>
<path opacity="0.1" d="M80.295 125.254L85.584 115.719" stroke="#3C2D24" stroke-width="0.93985" stroke-linecap="round"/>
<path opacity="0.1" d="M80.2957 125.255L94.0303 126.087" stroke="#3C2D24" stroke-width="0.93985" stroke-linecap="round"/>
<path opacity="0.1" d="M70.6307 127.731L75.4111 119.006" stroke="#3C2D24" stroke-width="0.93985" stroke-linecap="round"/>
<path opacity="0.1" d="M70.63 127.731L84.3647 131.565" stroke="#3C2D24" stroke-width="0.93985" stroke-linecap="round"/>
<path opacity="0.1" d="M56.3864 127.731L65.543 120.609" stroke="#3C2D24" stroke-width="0.93985" stroke-linecap="round"/>
<path opacity="0.1" d="M56.3868 127.731L67.5781 135.948" stroke="#3C2D24" stroke-width="0.93985" stroke-linecap="round"/>
<path opacity="0.1" d="M109.086 87.7393L110.309 78.4263" stroke="#3C2D24" stroke-width="0.93985" stroke-linecap="round"/>
<path opacity="0.1" d="M109.086 87.7393L115.395 83.9045" stroke="#3C2D24" stroke-width="0.93985" stroke-linecap="round"/>
<path opacity="0.1" d="M97.7943 100.219L100.134 90.4785" stroke="#3C2D24" stroke-width="0.93985" stroke-linecap="round"/>
<path opacity="0.1" d="M97.7947 100.218L107.256 97.6003" stroke="#3C2D24" stroke-width="0.93985" stroke-linecap="round"/>
<path opacity="0.1" d="M90.9279 105.149L95.0474 94.3132" stroke="#3C2D24" stroke-width="0.93985" stroke-linecap="round"/>
<path opacity="0.1" d="M90.9288 105.148L102.169 104.174" stroke="#3C2D24" stroke-width="0.93985" stroke-linecap="round"/>
<path opacity="0.1" d="M81.8194 109.532L88.9434 98.6958" stroke="#3C2D24" stroke-width="0.93985" stroke-linecap="round"/>
<path opacity="0.1" d="M81.8205 109.53L94.5396 110.2" stroke="#3C2D24" stroke-width="0.93985" stroke-linecap="round"/>
<path opacity="0.1" d="M73.1736 111.844L79.7866 103.079" stroke="#3C2D24" stroke-width="0.93985" stroke-linecap="round"/>
<path opacity="0.1" d="M73.1733 111.844L85.3745 115.678" stroke="#3C2D24" stroke-width="0.93985" stroke-linecap="round"/>
<path opacity="0.1" d="M63.0029 113.212L73.1738 104.174" stroke="#3C2D24" stroke-width="0.93985" stroke-linecap="round"/>
<path opacity="0.1" d="M63.0036 113.211L75.7173 118.966" stroke="#3C2D24" stroke-width="0.93985" stroke-linecap="round"/>
<path opacity="0.1" d="M54.7879 112.532L64.0171 105.27" stroke="#3C2D24" stroke-width="0.93985" stroke-linecap="round"/>
<path opacity="0.1" d="M54.7871 112.532L65.543 120.609" stroke="#3C2D24" stroke-width="0.93985" stroke-linecap="round"/>
<path opacity="0.2" d="M44.4623 109.411L54.2881 105.465" stroke="#3C2D24" stroke-width="0.93985" stroke-linecap="round"/>
<path opacity="0.2" d="M44.4623 109.411L53.1758 119.376" stroke="#3C2D24" stroke-width="0.93985" stroke-linecap="round"/>
<path opacity="0.2" d="M35.0496 105.039L48.0708 102.799" stroke="#3C2D24" stroke-width="0.93985" stroke-linecap="round"/>
<path opacity="0.2" d="M35.0515 105.039L43.3032 116.939" stroke="#3C2D24" stroke-width="0.93985" stroke-linecap="round"/>
<path opacity="0.2" d="M31.1707 117.739L43.1602 116.774" stroke="#3C2D24" stroke-width="0.93985" stroke-linecap="round"/>
<path opacity="0.2" d="M31.1726 117.738L38.0737 129.922" stroke="#3C2D24" stroke-width="0.93985" stroke-linecap="round"/>
<path opacity="0.2" d="M28.2895 99.9694L37.5654 99.2437" stroke="#3C2D24" stroke-width="0.93985" stroke-linecap="round"/>
<path opacity="0.2" d="M28.2883 99.9692L33.4951 111.844" stroke="#3C2D24" stroke-width="0.93985" stroke-linecap="round"/>
<path opacity="0.2" d="M24.1506 111.734L33.4951 111.734" stroke="#3C2D24" stroke-width="0.93985" stroke-linecap="round"/>
<path opacity="0.2" d="M24.1503 111.734L28.917 123.896" stroke="#3C2D24" stroke-width="0.93985" stroke-linecap="round"/>
<path opacity="0.2" d="M19.2518 120.609L28.917 123.896" stroke="#3C2D24" stroke-width="0.93985" stroke-linecap="round"/>
<path opacity="0.2" d="M19.2521 120.609L24.8726 135.615" stroke="#3C2D24" stroke-width="0.93985" stroke-linecap="round"/>
<path opacity="0.2" d="M13.1122 111.212L21.2871 116.774" stroke="#3C2D24" stroke-width="0.93985" stroke-linecap="round"/>
<path opacity="0.2" d="M13.1122 111.212L15.4209 127.201" stroke="#3C2D24" stroke-width="0.93985" stroke-linecap="round"/>
<path opacity="0.2" d="M8.56957 99.2438L15.1826 107.744" stroke="#3C2D24" stroke-width="0.93985" stroke-linecap="round"/>
<path opacity="0.2" d="M8.60944 99.7012L11.0537 115.667" stroke="#3C2D24" stroke-width="0.93985" stroke-linecap="round"/>
<path opacity="0.2" d="M17.6383 104.141L25.356 105.27" stroke="#3C2D24" stroke-width="0.93985" stroke-linecap="round"/>
<path opacity="0.2" d="M17.6385 104.14L21.2871 116.226" stroke="#3C2D24" stroke-width="0.93985" stroke-linecap="round"/>
<path opacity="0.2" d="M11.6219 93.7656L18.7437 97.6003" stroke="#3C2D24" stroke-width="0.93985" stroke-linecap="round"/>
<path opacity="0.2" d="M11.6211 93.7656L15.0776 107.782" stroke="#3C2D24" stroke-width="0.93985" stroke-linecap="round"/>
<path opacity="0.2" d="M7.55143 82.2611L11.1123 85.0002" stroke="#3C2D24" stroke-width="0.93985" stroke-linecap="round"/>
<path opacity="0.2" d="M7.55194 82.2612L8.56934 91.5742" stroke="#3C2D24" stroke-width="0.93985" stroke-linecap="round"/>
<path opacity="0.2" d="M21.2865 92.7123L30.5869 92.7117" stroke="#3C2D24" stroke-width="0.93985" stroke-linecap="round"/>
<path opacity="0.2" d="M20.8995 92.6909L25.2944 104.94" stroke="#3C2D24" stroke-width="0.93985" stroke-linecap="round"/>
<path opacity="0.2" d="M14.6732 84.4525L21.7949 86.0959" stroke="#3C2D24" stroke-width="0.93985" stroke-linecap="round"/>
<path opacity="0.2" d="M14.9776 84.7202L18.5532 97.2749" stroke="#3C2D24" stroke-width="0.93985" stroke-linecap="round"/>
<path opacity="0.2" d="M10.3155 75.1808L16.4819 79.355" stroke="#3C2D24" stroke-width="0.93985" stroke-linecap="round"/>
<path opacity="0.2" d="M10.35 75.3426L11.1128 84.4524" stroke="#3C2D24" stroke-width="0.93985" stroke-linecap="round"/>
<path opacity="0.2" d="M7.06125 66.2466L11.6216 70.209" stroke="#3C2D24" stroke-width="0.93985" stroke-linecap="round"/>
<path opacity="0.2" d="M7.09463 66.4083L7.85742 75.5181" stroke="#3C2D24" stroke-width="0.93985" stroke-linecap="round"/>
<path opacity="0.1" d="M103.336 94.7459L105.163 85.5481" stroke="#3C2D24" stroke-width="0.93985" stroke-linecap="round"/>
<path opacity="0.1" d="M103.336 94.7456L111.834 91.0264" stroke="#3C2D24" stroke-width="0.93985" stroke-linecap="round"/>
<path opacity="0.1" d="M107.257 74.5916L108.783 65.2786" stroke="#3C2D24" stroke-width="0.93985" stroke-linecap="round"/>
<path opacity="0.1" d="M107.256 74.5916L114.378 70.7568" stroke="#3C2D24" stroke-width="0.93985" stroke-linecap="round"/>
<path opacity="0.1" d="M102.895 82.8089L104.421 73.4958" stroke="#3C2D24" stroke-width="0.93985" stroke-linecap="round"/>
<path opacity="0.1" d="M102.896 82.8089L110.018 78.9741" stroke="#3C2D24" stroke-width="0.93985" stroke-linecap="round"/>
<path opacity="0.1" d="M96.7913 90.4786L98.3174 81.1655" stroke="#3C2D24" stroke-width="0.93985" stroke-linecap="round"/>
<path opacity="0.1" d="M96.7918 90.4786L103.914 86.6438" stroke="#3C2D24" stroke-width="0.93985" stroke-linecap="round"/>
<path opacity="0.2" d="M43.6691 124.768L53.3345 119.513" stroke="#3C2D24" stroke-width="0.93985" stroke-linecap="round"/>
<path opacity="0.2" d="M43.6688 124.767L52.3823 134.733" stroke="#3C2D24" stroke-width="0.93985" stroke-linecap="round"/>
<path opacity="0.1" d="M105.468 63.2488L106.759 54.2405" stroke="#3C2D24" stroke-width="0.93985" stroke-linecap="round"/>
<path opacity="0.1" d="M105.973 63.1808L112.344 59.2522" stroke="#3C2D24" stroke-width="0.93985" stroke-linecap="round"/>
<path opacity="0.1" d="M15.8461 56.1582L13.9419 47.2769" stroke="#3C2D24" stroke-width="0.93985" stroke-linecap="round"/>
<path opacity="0.1" d="M15.338 56.1303L8.06104 52.0125" stroke="#3C2D24" stroke-width="0.93985" stroke-linecap="round"/>
<path opacity="0.1" d="M19.8336 63.2488L18.542 54.2405" stroke="#3C2D24" stroke-width="0.93985" stroke-linecap="round"/>
<path opacity="0.1" d="M19.329 63.1808L12.958 59.2522" stroke="#3C2D24" stroke-width="0.93985" stroke-linecap="round"/>
<g opacity="0.2">
<path opacity="0.1" d="M36.2877 86.7755L43.3989 91.7188" stroke="#3C2D24" stroke-width="0.93985" stroke-linecap="round"/>
<path opacity="0.1" d="M36.1396 87.3002L37.2666 96.0693" stroke="#3C2D24" stroke-width="0.93985" stroke-linecap="round"/>
</g>
<g opacity="0.2">
<path opacity="0.1" d="M29.0432 89.6004L40.0093 95.6086" stroke="#3C2D24" stroke-width="0.93985" stroke-linecap="round"/>
<path opacity="0.1" d="M29.0434 89.6011L31.3447 97.8333" stroke="#3C2D24" stroke-width="0.93985" stroke-linecap="round"/>
</g>
<path opacity="0.2" d="M24.3369 84.2782L32.6045 88.656" stroke="#3C2D24" stroke-width="0.93985" stroke-linecap="round"/>
<path opacity="0.2" d="M24.3368 84.2786L25.96 90.7327" stroke="#3C2D24" stroke-width="0.93985" stroke-linecap="round"/>
<path opacity="0.2" d="M20.9332 78.2955L28.5498 83.0022" stroke="#3C2D24" stroke-width="0.93985" stroke-linecap="round"/>
<path opacity="0.2" d="M20.9333 78.2954L21.8657 86.8113" stroke="#3C2D24" stroke-width="0.93985" stroke-linecap="round"/>
<path opacity="0.2" d="M15.2355 71.0891L16.168 79.605" stroke="#3C2D24" stroke-width="0.93985" stroke-linecap="round"/>
<path opacity="0.2" d="M10.6085 62.3026L18.2251 67.0093" stroke="#3C2D24" stroke-width="0.93985" stroke-linecap="round"/>
<path opacity="0.2" d="M10.6086 62.3025L11.541 70.8184" stroke="#3C2D24" stroke-width="0.93985" stroke-linecap="round"/>
<g opacity="0.2">
<path opacity="0.1" d="M31.447 80.3337L38.877 84.6995" stroke="#3C2D24" stroke-width="0.93985" stroke-linecap="round"/>
<path opacity="0.1" d="M31.3353 80.8679L32.6045 88.655" stroke="#3C2D24" stroke-width="0.93985" stroke-linecap="round"/>
</g>
</g>
<g filter="url(#filter6_i_1230_304278)">
<path d="M104 74C112.845 71.6412 119 63.6304 119 54.4758V46C119 37.4073 110.869 31.1396 102.56 33.3264L100 34" stroke="#C8A078" stroke-width="6" stroke-linecap="round"/>
</g>
<g filter="url(#filter7_i_1230_304278)">
<path d="M19 74C10.1546 71.6412 4 63.6304 4 54.4758V46C4 37.4073 12.1305 31.1396 20.4403 33.3264L23 34" stroke="#C8A078" stroke-width="6" stroke-linecap="round"/>
</g>
<g filter="url(#filter8_di_1230_304278)">
<rect x="17" y="1" width="92" height="104" rx="46" fill="#A6815E"/>
</g>
<g filter="url(#filter9_f_1230_304278)">
<rect x="18" y="2" width="90" height="90" rx="45" fill="#C8A078"/>
</g>
<g filter="url(#filter10_i_1230_304278)">
<rect x="21" y="5" width="84" height="84" rx="42" fill="#A6815E"/>
</g>
<mask id="mask1_1230_304278" style="mask-type:alpha" maskUnits="userSpaceOnUse" x="21" y="5" width="84" height="84">
<path d="M21 47C21 70.196 39.804 89 63 89C86.196 89 105 70.196 105 47C105 23.804 86.196 5 63 5C39.804 5 21 23.804 21 47Z" fill="#82644D"/>
</mask>
<g mask="url(#mask1_1230_304278)">
<g filter="url(#filter11_iiii_1230_304278)">
<path d="M20.0705 47.5376C20.0315 44.8878 20.3635 42.2281 21.1753 39.7055C23.7516 31.6994 26.1505 27.5565 29.425 23.8627C42.7294 8.85411 66.2253 4.29717 83.0632 15.1943C94.8597 22.8287 100.016 29.2261 103.48 36.013C105.307 39.5917 105.923 43.6405 105.798 47.6565L105.208 66.5275C104.528 88.2773 87.5112 105.99 65.806 107.541C41.4813 109.278 20.698 90.2099 20.3394 65.8259L20.0705 47.5376Z" fill="#E7E5E4"/>
</g>
<g filter="url(#filter12_if_1230_304278)">
<path d="M81.8378 35.9064C80.3016 35.0381 78.8961 33.876 78.0969 32.3027C76.4425 29.0456 76.7766 26.5763 77.0593 23.7436C78.287 11.4467 62.455 7.75967 51.2563 12.9857L48.9111 14.0802C43.7356 16.4954 39.4146 20.4239 36.5188 25.3467L33.6587 30.2088C31.972 33.0763 31.0825 36.3427 31.0825 39.6696C31.0825 62.5153 49.6026 81.0355 72.4484 81.0355H83.5766C84.7976 81.0355 86.0002 80.739 87.0812 80.1714C103.429 71.589 103.79 48.3139 87.716 39.2288L81.8378 35.9064Z" fill="#E7E5E4"/>
</g>
<g filter="url(#filter13_if_1230_304278)">
<path d="M22.431 63.5697C22.9241 65.3181 23.77 67.5852 25.549 67.2174C27.9485 66.7213 31.088 63.0972 34.4209 60.5881C40.0695 56.3355 49.5961 59.0691 55.9936 56.0586L57.1245 55.5264C60.1187 54.1173 62.6265 51.8499 64.3291 49.0123L66.3408 45.6594C67.1954 44.235 67.6468 42.6052 67.6468 40.9441C67.6468 28.0093 55.7203 18.3677 43.0726 21.0779L37.9211 22.1818C24.0463 25.155 15.5651 39.2272 19.4171 52.8841L22.431 63.5697Z" fill="#E7E5E4"/>
</g>
</g>
<g opacity="0.5">
<ellipse cx="3.45882" cy="1.48235" rx="3.45882" ry="1.48235" transform="matrix(0.947224 0.320572 -0.322039 0.946726 74.3647 44.53)" fill="white" fill-opacity="0.2"/>
<ellipse cx="3.45882" cy="1.48235" rx="3.45882" ry="1.48235" transform="matrix(0.947224 0.320572 -0.322039 0.946726 67.4468 15.8711)" fill="black" fill-opacity="0.12"/>
<ellipse cx="3.45882" cy="1.48235" rx="3.45882" ry="1.48235" transform="matrix(0.783156 -0.621826 0.623767 0.78161 52.6235 26.7417)" fill="white" fill-opacity="0.2"/>
<ellipse cx="3.45882" cy="1.48235" rx="3.45882" ry="1.48235" transform="matrix(0.783156 -0.621826 0.623767 0.78161 45.7056 84.0593)" fill="white" fill-opacity="0.2"/>
<ellipse cx="3.45882" cy="1.48235" rx="3.45882" ry="1.48235" transform="matrix(-0.947224 0.320572 0.322039 0.946726 32.8589 47.4946)" fill="black" fill-opacity="0.12"/>
<ellipse cx="3.45882" cy="1.48235" rx="3.45882" ry="1.48235" transform="matrix(0.783156 -0.621826 0.623767 0.78161 50.647 66.271)" fill="black" fill-opacity="0.12"/>
<ellipse cx="3.45882" cy="1.48235" rx="3.45882" ry="1.48235" transform="matrix(-0.947224 0.320572 0.322039 0.946726 64.4824 76.1536)" fill="black" fill-opacity="0.12"/>
<ellipse cx="3.45882" cy="1.48235" rx="3.45882" ry="1.48235" transform="matrix(-0.783156 -0.621826 -0.623767 0.78161 102.035 51.4475)" fill="white" fill-opacity="0.2"/>
<ellipse cx="3.45882" cy="1.48235" rx="3.45882" ry="1.48235" transform="matrix(-0.947224 0.320572 0.322039 0.946726 44.7178 53.4241)" fill="white" fill-opacity="0.2"/>
<ellipse cx="3.45882" cy="1.48235" rx="3.45882" ry="1.48235" transform="matrix(-0.998199 0.0599978 0.0644794 0.997919 72.3882 33.6594)" fill="black" fill-opacity="0.12"/>
<ellipse cx="3.45882" cy="1.48235" rx="3.45882" ry="1.48235" transform="matrix(-0.947224 0.320572 0.322039 0.946726 91.1646 32.6711)" fill="black" fill-opacity="0.12"/>
<ellipse cx="3.45882" cy="1.48235" rx="3.45882" ry="1.48235" transform="matrix(-0.783156 -0.621826 -0.623767 0.78161 38.7881 29.7063)" fill="white" fill-opacity="0.2"/>
</g>
<defs>
<filter id="filter0_ii_1230_304278" x="-12" y="24" width="159" height="153" filterUnits="userSpaceOnUse" color-interpolation-filters="sRGB">
<feFlood flood-opacity="0" result="BackgroundImageFix"/>
<feBlend mode="normal" in="SourceGraphic" in2="BackgroundImageFix" result="shape"/>
<feColorMatrix in="SourceAlpha" type="matrix" values="0 0 0 0 0 0 0 0 0 0 0 0 0 0 0 0 0 0 127 0" result="hardAlpha"/>
<feOffset dx="24" dy="2.11"/>
<feGaussianBlur stdDeviation="15.41"/>
<feComposite in2="hardAlpha" operator="arithmetic" k2="-1" k3="1"/>
<feColorMatrix type="matrix" values="0 0 0 0 0 0 0 0 0 0 0 0 0 0 0 0 0 0 0.25 0"/>
<feBlend mode="normal" in2="shape" result="effect1_innerShadow_1230_304278"/>
<feColorMatrix in="SourceAlpha" type="matrix" values="0 0 0 0 0 0 0 0 0 0 0 0 0 0 0 0 0 0 127 0" result="hardAlpha"/>
<feOffset dx="-16" dy="34"/>
<feGaussianBlur stdDeviation="14"/>
<feComposite in2="hardAlpha" operator="arithmetic" k2="-1" k3="1"/>
<feColorMatrix type="matrix" values="0 0 0 0 1 0 0 0 0 1 0 0 0 0 1 0 0 0 0.25 0"/>
<feBlend mode="normal" in2="effect1_innerShadow_1230_304278" result="effect2_innerShadow_1230_304278"/>
</filter>
<filter id="filter1_dd_1230_304278" x="4.61679" y="-1.47876" width="115.828" height="130.227" filterUnits="userSpaceOnUse" color-interpolation-filters="sRGB">
<feFlood flood-opacity="0" result="BackgroundImageFix"/>
<feColorMatrix in="SourceAlpha" type="matrix" values="0 0 0 0 0 0 0 0 0 0 0 0 0 0 0 0 0 0 127 0" result="hardAlpha"/>
<feOffset dx="-0.93985"/>
<feComposite in2="hardAlpha" operator="out"/>
<feColorMatrix type="matrix" values="0 0 0 0 1 0 0 0 0 1 0 0 0 0 1 0 0 0 1 0"/>
<feBlend mode="normal" in2="BackgroundImageFix" result="effect1_dropShadow_1230_304278"/>
<feColorMatrix in="SourceAlpha" type="matrix" values="0 0 0 0 0 0 0 0 0 0 0 0 0 0 0 0 0 0 127 0" result="hardAlpha"/>
<feOffset dx="-0.93985"/>
<feComposite in2="hardAlpha" operator="out"/>
<feColorMatrix type="matrix" values="0 0 0 0 1 0 0 0 0 1 0 0 0 0 1 0 0 0 1 0"/>
<feBlend mode="normal" in2="effect1_dropShadow_1230_304278" result="effect2_dropShadow_1230_304278"/>
<feBlend mode="normal" in="SourceGraphic" in2="effect2_dropShadow_1230_304278" result="shape"/>
</filter>
<filter id="filter2_dd_1230_304278" x="6.59042" y="13.53" width="111.879" height="107.94" filterUnits="userSpaceOnUse" color-interpolation-filters="sRGB">
<feFlood flood-opacity="0" result="BackgroundImageFix"/>
<feColorMatrix in="SourceAlpha" type="matrix" values="0 0 0 0 0 0 0 0 0 0 0 0 0 0 0 0 0 0 127 0" result="hardAlpha"/>
<feOffset dx="-0.93985"/>
<feComposite in2="hardAlpha" operator="out"/>
<feColorMatrix type="matrix" values="0 0 0 0 1 0 0 0 0 1 0 0 0 0 1 0 0 0 1 0"/>
<feBlend mode="normal" in2="BackgroundImageFix" result="effect1_dropShadow_1230_304278"/>
<feColorMatrix in="SourceAlpha" type="matrix" values="0 0 0 0 0 0 0 0 0 0 0 0 0 0 0 0 0 0 127 0" result="hardAlpha"/>
<feOffset dx="-0.93985"/>
<feComposite in2="hardAlpha" operator="out"/>
<feColorMatrix type="matrix" values="0 0 0 0 1 0 0 0 0 1 0 0 0 0 1 0 0 0 1 0"/>
<feBlend mode="normal" in2="effect1_dropShadow_1230_304278" result="effect2_dropShadow_1230_304278"/>
<feBlend mode="normal" in="SourceGraphic" in2="effect2_dropShadow_1230_304278" result="shape"/>
</filter>
<filter id="filter3_dd_1230_304278" x="12.5904" y="11.53" width="99.8793" height="101.94" filterUnits="userSpaceOnUse" color-interpolation-filters="sRGB">
<feFlood flood-opacity="0" result="BackgroundImageFix"/>
<feColorMatrix in="SourceAlpha" type="matrix" values="0 0 0 0 0 0 0 0 0 0 0 0 0 0 0 0 0 0 127 0" result="hardAlpha"/>
<feOffset dx="-0.93985"/>
<feComposite in2="hardAlpha" operator="out"/>
<feColorMatrix type="matrix" values="0 0 0 0 1 0 0 0 0 1 0 0 0 0 1 0 0 0 1 0"/>
<feBlend mode="normal" in2="BackgroundImageFix" result="effect1_dropShadow_1230_304278"/>
<feColorMatrix in="SourceAlpha" type="matrix" values="0 0 0 0 0 0 0 0 0 0 0 0 0 0 0 0 0 0 127 0" result="hardAlpha"/>
<feOffset dx="-0.93985"/>
<feComposite in2="hardAlpha" operator="out"/>
<feColorMatrix type="matrix" values="0 0 0 0 1 0 0 0 0 1 0 0 0 0 1 0 0 0 1 0"/>
<feBlend mode="normal" in2="effect1_dropShadow_1230_304278" result="effect2_dropShadow_1230_304278"/>
<feBlend mode="normal" in="SourceGraphic" in2="effect2_dropShadow_1230_304278" result="shape"/>
</filter>
<filter id="filter4_dd_1230_304278" x="1.59042" y="21.53" width="122.879" height="119.94" filterUnits="userSpaceOnUse" color-interpolation-filters="sRGB">
<feFlood flood-opacity="0" result="BackgroundImageFix"/>
<feColorMatrix in="SourceAlpha" type="matrix" values="0 0 0 0 0 0 0 0 0 0 0 0 0 0 0 0 0 0 127 0" result="hardAlpha"/>
<feOffset dx="-0.93985"/>
<feComposite in2="hardAlpha" operator="out"/>
<feColorMatrix type="matrix" values="0 0 0 0 1 0 0 0 0 1 0 0 0 0 1 0 0 0 1 0"/>
<feBlend mode="normal" in2="BackgroundImageFix" result="effect1_dropShadow_1230_304278"/>
<feColorMatrix in="SourceAlpha" type="matrix" values="0 0 0 0 0 0 0 0 0 0 0 0 0 0 0 0 0 0 127 0" result="hardAlpha"/>
<feOffset dx="-0.93985"/>
<feComposite in2="hardAlpha" operator="out"/>
<feColorMatrix type="matrix" values="0 0 0 0 1 0 0 0 0 1 0 0 0 0 1 0 0 0 1 0"/>
<feBlend mode="normal" in2="effect1_dropShadow_1230_304278" result="effect2_dropShadow_1230_304278"/>
<feBlend mode="normal" in="SourceGraphic" in2="effect2_dropShadow_1230_304278" result="shape"/>
</filter>
<filter id="filter5_dd_1230_304278" x="2.59042" y="23.53" width="120.879" height="111.94" filterUnits="userSpaceOnUse" color-interpolation-filters="sRGB">
<feFlood flood-opacity="0" result="BackgroundImageFix"/>
<feColorMatrix in="SourceAlpha" type="matrix" values="0 0 0 0 0 0 0 0 0 0 0 0 0 0 0 0 0 0 127 0" result="hardAlpha"/>
<feOffset dx="-0.93985"/>
<feComposite in2="hardAlpha" operator="out"/>
<feColorMatrix type="matrix" values="0 0 0 0 1 0 0 0 0 1 0 0 0 0 1 0 0 0 1 0"/>
<feBlend mode="normal" in2="BackgroundImageFix" result="effect1_dropShadow_1230_304278"/>
<feColorMatrix in="SourceAlpha" type="matrix" values="0 0 0 0 0 0 0 0 0 0 0 0 0 0 0 0 0 0 127 0" result="hardAlpha"/>
<feOffset dx="-0.93985"/>
<feComposite in2="hardAlpha" operator="out"/>
<feColorMatrix type="matrix" values="0 0 0 0 1 0 0 0 0 1 0 0 0 0 1 0 0 0 1 0"/>
<feBlend mode="normal" in2="effect1_dropShadow_1230_304278" result="effect2_dropShadow_1230_304278"/>
<feBlend mode="normal" in="SourceGraphic" in2="effect2_dropShadow_1230_304278" result="shape"/>
</filter>
<filter id="filter6_i_1230_304278" x="96.999" y="28.8862" width="26.001" height="48.1145" filterUnits="userSpaceOnUse" color-interpolation-filters="sRGB">
<feFlood flood-opacity="0" result="BackgroundImageFix"/>
<feBlend mode="normal" in="SourceGraphic" in2="BackgroundImageFix" result="shape"/>
<feColorMatrix in="SourceAlpha" type="matrix" values="0 0 0 0 0 0 0 0 0 0 0 0 0 0 0 0 0 0 127 0" result="hardAlpha"/>
<feOffset dx="1" dy="-1"/>
<feGaussianBlur stdDeviation="0.5"/>
<feComposite in2="hardAlpha" operator="arithmetic" k2="-1" k3="1"/>
<feColorMatrix type="matrix" values="0 0 0 0 0 0 0 0 0 0 0 0 0 0 0 0 0 0 0.25 0"/>
<feBlend mode="normal" in2="shape" result="effect1_innerShadow_1230_304278"/>
</filter>
<filter id="filter7_i_1230_304278" x="1" y="28.8862" width="26.001" height="48.1145" filterUnits="userSpaceOnUse" color-interpolation-filters="sRGB">
<feFlood flood-opacity="0" result="BackgroundImageFix"/>
<feBlend mode="normal" in="SourceGraphic" in2="BackgroundImageFix" result="shape"/>
<feColorMatrix in="SourceAlpha" type="matrix" values="0 0 0 0 0 0 0 0 0 0 0 0 0 0 0 0 0 0 127 0" result="hardAlpha"/>
<feOffset dx="1" dy="-1"/>
<feGaussianBlur stdDeviation="0.5"/>
<feComposite in2="hardAlpha" operator="arithmetic" k2="-1" k3="1"/>
<feColorMatrix type="matrix" values="0 0 0 0 0 0 0 0 0 0 0 0 0 0 0 0 0 0 0.25 0"/>
<feBlend mode="normal" in2="shape" result="effect1_innerShadow_1230_304278"/>
</filter>
<filter id="filter8_di_1230_304278" x="8.82672" y="1" width="100.173" height="112.17" filterUnits="userSpaceOnUse" color-interpolation-filters="sRGB">
<feFlood flood-opacity="0" result="BackgroundImageFix"/>
<feColorMatrix in="SourceAlpha" type="matrix" values="0 0 0 0 0 0 0 0 0 0 0 0 0 0 0 0 0 0 127 0" result="hardAlpha"/>
<feOffset dy="4.08664"/>
<feComposite in2="hardAlpha" operator="out"/>
<feColorMatrix type="matrix" values="0 0 0 0 0 0 0 0 0 0 0 0 0 0 0 0 0 0 0.25 0"/>
<feBlend mode="normal" in2="BackgroundImageFix" result="effect1_dropShadow_1230_304278"/>
<feBlend mode="normal" in="SourceGraphic" in2="effect1_dropShadow_1230_304278" result="shape"/>
<feColorMatrix in="SourceAlpha" type="matrix" values="0 0 0 0 0 0 0 0 0 0 0 0 0 0 0 0 0 0 127 0" result="hardAlpha"/>
<feOffset dx="-8.17328" dy="8.17"/>
<feGaussianBlur stdDeviation="8.17328"/>
<feComposite in2="hardAlpha" operator="arithmetic" k2="-1" k3="1"/>
<feColorMatrix type="matrix" values="0 0 0 0 1 0 0 0 0 1 0 0 0 0 1 0 0 0 0.15 0"/>
<feBlend mode="normal" in2="shape" result="effect2_innerShadow_1230_304278"/>
</filter>
<filter id="filter9_f_1230_304278" x="16" y="0" width="94" height="94" filterUnits="userSpaceOnUse" color-interpolation-filters="sRGB">
<feFlood flood-opacity="0" result="BackgroundImageFix"/>
<feBlend mode="normal" in="SourceGraphic" in2="BackgroundImageFix" result="shape"/>
<feGaussianBlur stdDeviation="1" result="effect1_foregroundBlur_1230_304278"/>
</filter>
<filter id="filter10_i_1230_304278" x="9" y="-7" width="96" height="96" filterUnits="userSpaceOnUse" color-interpolation-filters="sRGB">
<feFlood flood-opacity="0" result="BackgroundImageFix"/>
<feBlend mode="normal" in="SourceGraphic" in2="BackgroundImageFix" result="shape"/>
<feColorMatrix in="SourceAlpha" type="matrix" values="0 0 0 0 0 0 0 0 0 0 0 0 0 0 0 0 0 0 127 0" result="hardAlpha"/>
<feOffset dx="-32" dy="-12"/>
<feGaussianBlur stdDeviation="6"/>
<feComposite in2="hardAlpha" operator="arithmetic" k2="-1" k3="1"/>
<feColorMatrix type="matrix" values="0 0 0 0 0 0 0 0 0 0 0 0 0 0 0 0 0 0 0.25 0"/>
<feBlend mode="normal" in2="shape" result="effect1_innerShadow_1230_304278"/>
</filter>
<filter id="filter11_iiii_1230_304278" x="15.0674" y="-2.80908" width="96.159" height="114.46" filterUnits="userSpaceOnUse" color-interpolation-filters="sRGB">
<feFlood flood-opacity="0" result="BackgroundImageFix"/>
<feBlend mode="normal" in="SourceGraphic" in2="BackgroundImageFix" result="shape"/>
<feColorMatrix in="SourceAlpha" type="matrix" values="0 0 0 0 0 0 0 0 0 0 0 0 0 0 0 0 0 0 127 0" result="hardAlpha"/>
<feOffset dx="11.67" dy="-11.67"/>
<feGaussianBlur stdDeviation="2.70643"/>
<feComposite in2="hardAlpha" operator="arithmetic" k2="-1" k3="1"/>
<feColorMatrix type="matrix" values="0 0 0 0 1 0 0 0 0 0.916667 0 0 0 0 0.791667 0 0 0 0.25 0"/>
<feBlend mode="normal" in2="shape" result="effect1_innerShadow_1230_304278"/>
<feColorMatrix in="SourceAlpha" type="matrix" values="0 0 0 0 0 0 0 0 0 0 0 0 0 0 0 0 0 0 127 0" result="hardAlpha"/>
<feOffset dx="3.83779" dy="-3.83779"/>
<feGaussianBlur stdDeviation="0.959448"/>
<feComposite in2="hardAlpha" operator="arithmetic" k2="-1" k3="1"/>
<feColorMatrix type="matrix" values="0 0 0 0 0.858333 0 0 0 0 0.858333 0 0 0 0 0.858333 0 0 0 0.12 0"/>
<feBlend mode="normal" in2="effect1_innerShadow_1230_304278" result="effect2_innerShadow_1230_304278"/>
<feColorMatrix in="SourceAlpha" type="matrix" values="0 0 0 0 0 0 0 0 0 0 0 0 0 0 0 0 0 0 127 0" result="hardAlpha"/>
<feOffset dy="-24"/>
<feGaussianBlur stdDeviation="6"/>
<feComposite in2="hardAlpha" operator="arithmetic" k2="-1" k3="1"/>
<feColorMatrix type="matrix" values="0 0 0 0 0 0 0 0 0 0 0 0 0 0 0 0 0 0 0.25 0"/>
<feBlend mode="normal" in2="effect2_innerShadow_1230_304278" result="effect3_innerShadow_1230_304278"/>
<feColorMatrix in="SourceAlpha" type="matrix" values="0 0 0 0 0 0 0 0 0 0 0 0 0 0 0 0 0 0 127 0" result="hardAlpha"/>
<feOffset dx="-5" dy="4"/>
<feGaussianBlur stdDeviation="4.5"/>
<feComposite in2="hardAlpha" operator="arithmetic" k2="-1" k3="1"/>
<feColorMatrix type="matrix" values="0 0 0 0 0 0 0 0 0 0 0 0 0 0 0 0 0 0 0.25 0"/>
<feBlend mode="normal" in2="effect3_innerShadow_1230_304278" result="effect4_innerShadow_1230_304278"/>
</filter>
<filter id="filter12_if_1230_304278" x="28.0825" y="7.67993" width="74.4771" height="76.3555" filterUnits="userSpaceOnUse" color-interpolation-filters="sRGB">
<feFlood flood-opacity="0" result="BackgroundImageFix"/>
<feBlend mode="normal" in="SourceGraphic" in2="BackgroundImageFix" result="shape"/>
<feColorMatrix in="SourceAlpha" type="matrix" values="0 0 0 0 0 0 0 0 0 0 0 0 0 0 0 0 0 0 127 0" result="hardAlpha"/>
<feOffset dy="-3"/>
<feGaussianBlur stdDeviation="6"/>
<feComposite in2="hardAlpha" operator="arithmetic" k2="-1" k3="1"/>
<feColorMatrix type="matrix" values="0 0 0 0 0 0 0 0 0 0 0 0 0 0 0 0 0 0 0.25 0"/>
<feBlend mode="normal" in2="shape" result="effect1_innerShadow_1230_304278"/>
<feGaussianBlur stdDeviation="1.5" result="effect2_foregroundBlur_1230_304278"/>
</filter>
<filter id="filter13_if_1230_304278" x="15.4863" y="17.6191" width="55.1606" height="52.6379" filterUnits="userSpaceOnUse" color-interpolation-filters="sRGB">
<feFlood flood-opacity="0" result="BackgroundImageFix"/>
<feBlend mode="normal" in="SourceGraphic" in2="BackgroundImageFix" result="shape"/>
<feColorMatrix in="SourceAlpha" type="matrix" values="0 0 0 0 0 0 0 0 0 0 0 0 0 0 0 0 0 0 127 0" result="hardAlpha"/>
<feOffset dy="-3"/>
<feGaussianBlur stdDeviation="6"/>
<feComposite in2="hardAlpha" operator="arithmetic" k2="-1" k3="1"/>
<feColorMatrix type="matrix" values="0 0 0 0 0 0 0 0 0 0 0 0 0 0 0 0 0 0 0.25 0"/>
<feBlend mode="normal" in2="shape" result="effect1_innerShadow_1230_304278"/>
<feGaussianBlur stdDeviation="1.5" result="effect2_foregroundBlur_1230_304278"/>
</filter>
</defs>
</svg>
