<svg width="46" height="47" viewBox="0 0 46 47" fill="none" xmlns="http://www.w3.org/2000/svg">
<g filter="url(#filter0_i_1230_304271)">
<g filter="url(#filter1_i_1230_304271)">
<path d="M25.9155 45.4543C19.4879 47.9975 11.5014 41.533 5.99639 35.7533C1.42099 30.9495 -0.950177 24.2323 1.16862 17.9458C2.83916 12.9892 6.14974 7.60899 12.7083 5.44403C18.9637 3.37917 24.6531 5.40116 28.9562 8.16334C34.964 12.0199 37.199 19.4413 36.0331 26.4846C34.7894 33.9983 32.0309 43.0345 25.9155 45.4543Z" fill="#DC2626"/>
</g>
<ellipse cx="9.75548" cy="35.1629" rx="0.682387" ry="1.36477" transform="rotate(-18.2678 9.75548 35.1629)" fill="white" fill-opacity="0.4"/>
<ellipse cx="9.4298" cy="19.9913" rx="0.682387" ry="1.36477" transform="rotate(-18.2678 9.4298 19.9913)" fill="white" fill-opacity="0.4"/>
<ellipse cx="3.73254" cy="21.8721" rx="0.682387" ry="1.36477" transform="rotate(-18.2678 3.73254 21.8721)" fill="white" fill-opacity="0.4"/>
<ellipse cx="14.4864" cy="40.7872" rx="0.682387" ry="1.36477" transform="rotate(-18.2678 14.4864 40.7872)" fill="white" fill-opacity="0.4"/>
<ellipse cx="3.72863" cy="29.9664" rx="0.682387" ry="1.36477" transform="rotate(-18.2678 3.72863 29.9664)" fill="white" fill-opacity="0.4"/>
<ellipse cx="20.1612" cy="26.9796" rx="0.682387" ry="1.36477" transform="rotate(-18.2678 20.1612 26.9796)" fill="white" fill-opacity="0.4"/>
<ellipse cx="10.0387" cy="28.2149" rx="0.682387" ry="1.36477" transform="rotate(-18.2678 10.0387 28.2149)" fill="white" fill-opacity="0.4"/>
<ellipse cx="15.7174" cy="32.6588" rx="0.682387" ry="1.36477" transform="rotate(-18.2678 15.7174 32.6588)" fill="white" fill-opacity="0.4"/>
<ellipse cx="19.4977" cy="37.7296" rx="0.682387" ry="1.36477" transform="rotate(-18.2678 19.4977 37.7296)" fill="white" fill-opacity="0.4"/>
<ellipse cx="28.422" cy="13.722" rx="0.682387" ry="1.36477" transform="rotate(-18.2678 28.422 13.722)" fill="white" fill-opacity="0.4"/>
<ellipse cx="24.1647" cy="32.7264" rx="0.682387" ry="1.36477" transform="rotate(-18.2678 24.1647 32.7264)" fill="white" fill-opacity="0.4"/>
<ellipse cx="32.2023" cy="33.502" rx="0.682387" ry="1.36477" transform="rotate(-18.2678 32.2023 33.502)" fill="white" fill-opacity="0.4"/>
<ellipse cx="33.5109" cy="28.7584" rx="0.682387" ry="1.36477" transform="rotate(-18.2678 33.5109 28.7584)" fill="white" fill-opacity="0.4"/>
<ellipse cx="29.6207" cy="36.494" rx="0.682387" ry="1.36477" transform="rotate(-18.2678 29.6207 36.494)" fill="white" fill-opacity="0.4"/>
<ellipse cx="28.7677" cy="27.4498" rx="0.682387" ry="1.36477" transform="rotate(-18.2678 28.7677 27.4498)" fill="white" fill-opacity="0.4"/>
<ellipse cx="33.5362" cy="20.1268" rx="0.682387" ry="1.36477" transform="rotate(-18.2678 33.5362 20.1268)" fill="white" fill-opacity="0.4"/>
<ellipse cx="22.0792" cy="20.0281" rx="0.682387" ry="1.36477" transform="rotate(-18.2678 22.0792 20.0281)" fill="white" fill-opacity="0.4"/>
<ellipse cx="29.0304" cy="21.9459" rx="0.682387" ry="1.36477" transform="rotate(-18.2678 29.0304 21.9459)" fill="white" fill-opacity="0.4"/>
<ellipse cx="25.4" cy="42.8492" rx="0.682387" ry="1.36477" transform="rotate(-18.2678 25.4 42.8492)" fill="white" fill-opacity="0.4"/>
<g filter="url(#filter2_di_1230_304271)">
<path d="M15.7285 25.0557C15.591 25.2347 15.33 25.2581 15.1627 25.1065L14.0543 24.1015C10.3394 20.7333 10.5891 14.8211 14.5748 11.7781C14.7772 11.6235 15.0597 11.6267 15.2595 11.7846C18.9276 14.683 19.6073 20.0073 16.7591 23.7144L15.7285 25.0557Z" fill="#579858"/>
<path d="M27.8426 16.0353C28.1433 16.4201 27.8823 16.9838 27.3943 17.0033L24.3865 17.1235C20.2885 17.2872 16.4934 14.9676 14.768 11.2469C14.5876 10.8577 14.7946 10.3988 15.2059 10.277C19.1922 9.09613 23.4952 10.473 26.0554 13.7487L27.8426 16.0353Z" fill="#579858"/>
<path d="M11.7096 1.15178C11.7719 1.10701 11.853 1.09811 11.9235 1.12832L13.7926 1.92917C17.5962 3.55898 18.401 8.5976 15.2944 11.3312C15.173 11.438 14.9985 11.4591 14.8552 11.3843L12.3448 10.0739C8.8774 8.2639 8.53356 3.43482 11.7096 1.15178Z" fill="#579858"/>
<path d="M28.3268 7.30282C28.7094 7.42189 28.7761 7.93488 28.4367 8.14779L27.7562 8.57465C24.3954 10.6829 20.4431 11.648 16.4889 11.326L15.548 11.2494C15.2669 11.2265 15.0716 10.9593 15.1352 10.6845C16.008 6.91398 19.9016 4.68052 23.5969 5.83067L28.3268 7.30282Z" fill="#579858"/>
<path d="M2.69119 14.8552C2.23622 14.7867 2.06042 14.2239 2.39553 13.9086L5.61157 10.8829C8.51915 8.14743 12.988 7.94351 16.1327 10.4028C16.4026 10.6139 16.4221 11.0155 16.1739 11.2517L15.8574 11.5531C12.834 14.4318 8.65022 15.7523 4.52206 15.1308L2.69119 14.8552Z" fill="#579858"/>
</g>
<rect x="12.3149" y="6.82178" width="3.33208" height="5.55346" rx="1.66604" transform="rotate(-18.2678 12.3149 6.82178)" fill="#427A42"/>
</g>
<defs>
<filter id="filter0_i_1230_304271" x="0.385742" y="-0.254179" width="40.0396" height="46.2779" filterUnits="userSpaceOnUse" color-interpolation-filters="sRGB">
<feFlood flood-opacity="0" result="BackgroundImageFix"/>
<feBlend mode="normal" in="SourceGraphic" in2="BackgroundImageFix" result="shape"/>
<feColorMatrix in="SourceAlpha" type="matrix" values="0 0 0 0 0 0 0 0 0 0 0 0 0 0 0 0 0 0 127 0" result="hardAlpha"/>
<feOffset dx="4.09432" dy="-1.36477"/>
<feGaussianBlur stdDeviation="2.72955"/>
<feComposite in2="hardAlpha" operator="arithmetic" k2="-1" k3="1"/>
<feColorMatrix type="matrix" values="0 0 0 0 0 0 0 0 0 0 0 0 0 0 0 0 0 0 0.25 0"/>
<feBlend mode="normal" in2="shape" result="effect1_innerShadow_1230_304271"/>
</filter>
<filter id="filter1_i_1230_304271" x="0.385742" y="4.59692" width="35.9453" height="41.4268" filterUnits="userSpaceOnUse" color-interpolation-filters="sRGB">
<feFlood flood-opacity="0" result="BackgroundImageFix"/>
<feBlend mode="normal" in="SourceGraphic" in2="BackgroundImageFix" result="shape"/>
<feColorMatrix in="SourceAlpha" type="matrix" values="0 0 0 0 0 0 0 0 0 0 0 0 0 0 0 0 0 0 127 0" result="hardAlpha"/>
<feOffset dx="4" dy="-4"/>
<feComposite in2="hardAlpha" operator="arithmetic" k2="-1" k3="1"/>
<feColorMatrix type="matrix" values="0 0 0 0 0 0 0 0 0 0 0 0 0 0 0 0 0 0 0.17 0"/>
<feBlend mode="normal" in2="shape" result="effect1_innerShadow_1230_304271"/>
</filter>
<filter id="filter2_di_1230_304271" x="-0.000192881" y="-9.64403e-05" width="30.8783" height="28.5387" filterUnits="userSpaceOnUse" color-interpolation-filters="sRGB">
<feFlood flood-opacity="0" result="BackgroundImageFix"/>
<feColorMatrix in="SourceAlpha" type="matrix" values="0 0 0 0 0 0 0 0 0 0 0 0 0 0 0 0 0 0 127 0" result="hardAlpha"/>
<feOffset dy="1.11069"/>
<feGaussianBlur stdDeviation="1.11069"/>
<feComposite in2="hardAlpha" operator="out"/>
<feColorMatrix type="matrix" values="0 0 0 0 0 0 0 0 0 0 0 0 0 0 0 0 0 0 0.25 0"/>
<feBlend mode="normal" in2="BackgroundImageFix" result="effect1_dropShadow_1230_304271"/>
<feBlend mode="normal" in="SourceGraphic" in2="effect1_dropShadow_1230_304271" result="shape"/>
<feColorMatrix in="SourceAlpha" type="matrix" values="0 0 0 0 0 0 0 0 0 0 0 0 0 0 0 0 0 0 127 0" result="hardAlpha"/>
<feOffset dy="-2.22138"/>
<feGaussianBlur stdDeviation="0.555346"/>
<feComposite in2="hardAlpha" operator="arithmetic" k2="-1" k3="1"/>
<feColorMatrix type="matrix" values="0 0 0 0 0 0 0 0 0 0 0 0 0 0 0 0 0 0 0.25 0"/>
<feBlend mode="normal" in2="shape" result="effect2_innerShadow_1230_304271"/>
</filter>
</defs>
</svg>
