<svg width="107" height="188" viewBox="0 0 107 188" fill="none" xmlns="http://www.w3.org/2000/svg">
<ellipse cx="53.5" cy="152.792" rx="42.5" ry="28" fill="black" fill-opacity="0.12"/>
<ellipse cx="53.5" cy="152.792" rx="53.5" ry="35" fill="black" fill-opacity="0.12"/>
<g filter="url(#filter0_ii_1230_304253)">
<path fill-rule="evenodd" clip-rule="evenodd" d="M30.0135 41.6566C21.4953 49.1167 15.2687 58.8406 12.057 69.6986L11.3913 71.949C4.25888 96.0619 4.91522 121.802 13.2532 145.508C17.7495 163.488 33.8406 176.792 53.0017 176.792C71.0357 176.792 86.3503 165.007 91.8382 148.631C92.4153 147.648 92.9024 146.599 93.2864 145.493C101.434 122.032 102.541 96.7001 96.4707 72.6177L96.2417 71.7092C93.1835 59.5758 86.5035 48.661 77.0903 40.417L74.6254 38.2583C72.5055 36.4017 70.8503 34.0741 69.7926 31.4622L65.5218 20.9158C64.7573 19.0279 62.9242 17.7925 60.8874 17.7925H54.2596H47.6317C45.595 17.7925 43.7618 19.0279 42.9973 20.9158L38.8287 31.2097C37.7038 33.9876 35.9434 36.4632 33.6888 38.4377L30.0135 41.6566Z" fill="#3C2D24"/>
</g>
<g filter="url(#filter1_di_1230_304253)">
<ellipse cx="52.9995" cy="105.292" rx="40" ry="52.5" fill="black" fill-opacity="0.2" shape-rendering="crispEdges"/>
</g>
<g filter="url(#filter2_i_1230_304253)">
<ellipse cx="52.9995" cy="105.292" rx="37" ry="47.5" fill="#B91C1C"/>
<ellipse cx="52.9995" cy="105.292" rx="32" ry="43.5" fill="#7C2D12"/>
<circle cx="51.4928" cy="139.286" r="3.86628" transform="rotate(23.8949 51.4928 139.286)" stroke="#D6D3D1" stroke-width="0.594812"/>
<path fill-rule="evenodd" clip-rule="evenodd" d="M49.5884 141.778C50.3616 142.352 51.7653 141.813 52.7392 140.563C53.5649 139.502 53.5747 137.46 53.5568 136.837C53.554 136.738 53.464 136.668 53.3674 136.689C52.7583 136.825 50.7809 137.334 49.9552 138.395C49.0838 139.514 48.8493 140.827 49.3443 141.527C49.7847 140.493 50.7541 139.155 51.9675 138.183C52.9758 137.376 52.2559 138.301 51.19 139.669C50.6848 140.318 50.1018 141.066 49.5884 141.778Z" fill="#D6D3D1"/>
<path d="M29.1515 113.511C29.359 113.511 29.5081 113.557 29.5988 113.647C29.6896 113.731 29.7349 113.843 29.7349 113.982C29.7349 114.128 29.6831 114.247 29.5794 114.338C29.4756 114.421 29.333 114.463 29.1515 114.463H27.9555V113.511H29.1515ZM28.8015 116.722C29.0802 116.722 29.2682 116.771 29.3654 116.868C29.4627 116.959 29.5113 117.14 29.5113 117.412V118.071C29.5113 118.162 29.5307 118.256 29.5696 118.353C29.6085 118.444 29.6766 118.517 29.7738 118.573H32.9924C32.8887 118.517 32.8076 118.437 32.7493 118.332C32.6909 118.228 32.6618 118.109 32.6618 117.977V117.496C32.6618 117.105 32.6326 116.781 32.5743 116.523C32.5159 116.258 32.4057 116.042 32.2436 115.875C32.1659 115.798 32.0654 115.728 31.9422 115.666C31.8255 115.603 31.6862 115.551 31.5241 115.509C31.9649 115.328 32.2858 115.08 32.4867 114.766C32.6877 114.453 32.7882 114.066 32.7882 113.606C32.7882 113.027 32.6747 112.549 32.4478 112.173C32.221 111.789 31.8385 111.507 31.3005 111.326C31.0282 111.228 30.7041 111.158 30.3281 111.117C29.9586 111.068 29.5372 111.043 29.064 111.043H24.9995V118.573H27.9555V116.722H28.8015Z" fill="#D6D3D1"/>
<path d="M36.9522 118.772C37.8338 118.772 38.589 118.629 39.2178 118.343C39.8531 118.057 40.3425 117.625 40.6861 117.046C40.8611 116.753 40.9908 116.422 41.075 116.053C41.1593 115.683 41.2014 115.275 41.2014 114.829C41.2014 113.999 41.0264 113.288 40.6764 112.696C40.3263 112.096 39.8369 111.64 39.2081 111.326C38.8969 111.165 38.5566 111.047 38.1871 110.97C37.8241 110.887 37.4319 110.845 37.0105 110.845C36.1484 110.845 35.3932 111.005 34.7449 111.326C34.0967 111.64 33.5943 112.096 33.2377 112.696C33.0627 112.989 32.9298 113.313 32.8391 113.668C32.7483 114.024 32.7029 114.411 32.7029 114.829C32.7029 116.168 33.0757 117.161 33.8212 117.809C34.5666 118.451 35.6103 118.772 36.9522 118.772ZM36.9522 115.938C36.6216 115.938 36.3558 115.843 36.1548 115.655C35.9604 115.46 35.8631 115.185 35.8631 114.829C35.8631 114.487 35.9604 114.216 36.1548 114.013C36.3558 113.804 36.6216 113.7 36.9522 113.7C37.2828 113.7 37.5453 113.804 37.7398 114.013C37.9408 114.216 38.0412 114.487 38.0412 114.829C38.0412 115.185 37.9408 115.46 37.7398 115.655C37.5453 115.843 37.2828 115.938 36.9522 115.938Z" fill="#D6D3D1"/>
<path d="M45.724 118.573C46.8584 118.573 47.7368 118.402 48.3591 118.06C48.9814 117.719 49.2926 117.161 49.2926 116.387C49.2926 115.878 49.1565 115.491 48.8842 115.226C48.6119 114.962 48.1841 114.773 47.6007 114.662C48.0674 114.557 48.4304 114.383 48.6897 114.139C48.949 113.888 49.0787 113.539 49.0787 113.093C49.0787 112.626 48.9652 112.243 48.7383 111.943C48.5115 111.643 48.142 111.416 47.6298 111.263C47.377 111.193 47.0788 111.141 46.7353 111.106C46.3982 111.064 46.0157 111.043 45.5879 111.043H41.3095V118.573H45.724ZM45.267 113.302C45.4939 113.302 45.6495 113.337 45.7337 113.407C45.818 113.477 45.8569 113.557 45.8504 113.647C45.8504 113.738 45.8115 113.822 45.7337 113.898C45.6559 113.975 45.5004 114.013 45.267 114.013H44.3627V113.302H45.267ZM45.2184 115.498C45.5101 115.498 45.7046 115.53 45.8018 115.592C45.9055 115.655 45.9574 115.742 45.9574 115.854C45.9574 115.965 45.9088 116.06 45.8115 116.136C45.7208 116.206 45.523 116.241 45.2184 116.241H44.3627V115.498H45.2184Z" fill="#D6D3D1"/>
<path d="M53.3381 118.772C54.2197 118.772 54.9749 118.629 55.6037 118.343C56.239 118.057 56.7284 117.625 57.072 117.046C57.247 116.753 57.3767 116.422 57.4609 116.053C57.5452 115.683 57.5873 115.275 57.5873 114.829C57.5873 113.999 57.4123 113.288 57.0623 112.696C56.7122 112.096 56.2228 111.64 55.594 111.326C55.2828 111.165 54.9425 111.047 54.573 110.97C54.21 110.887 53.8178 110.845 53.3964 110.845C52.5343 110.845 51.7791 111.005 51.1308 111.326C50.4826 111.64 49.9802 112.096 49.6236 112.696C49.4486 112.989 49.3157 113.313 49.225 113.668C49.1342 114.024 49.0888 114.411 49.0888 114.829C49.0888 116.168 49.4616 117.161 50.2071 117.809C50.9526 118.451 51.9962 118.772 53.3381 118.772ZM53.3381 115.938C53.0075 115.938 52.7417 115.843 52.5408 115.655C52.3463 115.46 52.249 115.185 52.249 114.829C52.249 114.487 52.3463 114.216 52.5408 114.013C52.7417 113.804 53.0075 113.7 53.3381 113.7C53.6687 113.7 53.9312 113.804 54.1257 114.013C54.3267 114.216 54.4271 114.487 54.4271 114.829C54.4271 115.185 54.3267 115.46 54.1257 115.655C53.9312 115.843 53.6687 115.938 53.3381 115.938Z" fill="#D6D3D1"/>
<path d="M64.6302 113.94V111.043H57.4346V113.94H59.4572V118.573H62.5687V113.94H64.6302Z" fill="#D6D3D1"/>
<path d="M68.7364 118.772C69.6181 118.772 70.3733 118.629 71.0021 118.343C71.6373 118.057 72.1268 117.625 72.4703 117.046C72.6454 116.753 72.775 116.422 72.8593 116.053C72.9436 115.683 72.9857 115.275 72.9857 114.829C72.9857 113.999 72.8107 113.288 72.4606 112.696C72.1106 112.096 71.6211 111.64 70.9923 111.326C70.6812 111.165 70.3408 111.047 69.9713 110.97C69.6083 110.887 69.2161 110.845 68.7948 110.845C67.9326 110.845 67.1774 111.005 66.5292 111.326C65.8809 111.64 65.3785 112.096 65.022 112.696C64.847 112.989 64.7141 113.313 64.6233 113.668C64.5326 114.024 64.4872 114.411 64.4872 114.829C64.4872 116.168 64.8599 117.161 65.6054 117.809C66.3509 118.451 67.3946 118.772 68.7364 118.772ZM68.7364 115.938C68.4058 115.938 68.1401 115.843 67.9391 115.655C67.7446 115.46 67.6474 115.185 67.6474 114.829C67.6474 114.487 67.7446 114.216 67.9391 114.013C68.1401 113.804 68.4058 113.7 68.7364 113.7C69.067 113.7 69.3296 113.804 69.5241 114.013C69.725 114.216 69.8255 114.487 69.8255 114.829C69.8255 115.185 69.725 115.46 69.5241 115.655C69.3296 115.843 69.067 115.938 68.7364 115.938Z" fill="#D6D3D1"/>
<path d="M76.9836 118.792C77.9301 118.792 78.6982 118.677 79.2881 118.447C79.878 118.21 80.3124 117.886 80.5911 117.475C80.7272 117.273 80.8277 117.057 80.8926 116.826C80.9639 116.589 80.9995 116.342 80.9995 116.084C80.9995 115.533 80.8763 115.094 80.63 114.766C80.3902 114.439 80.0336 114.191 79.5604 114.024C79.327 113.94 79.0645 113.874 78.7728 113.825C78.4876 113.769 78.1732 113.728 77.8296 113.7C77.2851 113.658 76.8767 113.623 76.6044 113.595C76.3386 113.56 76.1604 113.522 76.0696 113.48C76.0307 113.466 75.9983 113.445 75.9724 113.417C75.9529 113.389 75.9432 113.362 75.9432 113.334C75.9432 113.257 75.9918 113.187 76.0891 113.125C76.1863 113.062 76.3678 113.03 76.6336 113.03C76.9383 113.03 77.1814 113.069 77.3629 113.145C77.5444 113.222 77.661 113.337 77.7129 113.491H80.9217C80.7532 112.828 80.4906 112.302 80.1341 111.911C79.7776 111.514 79.3173 111.228 78.7533 111.054C78.4746 110.97 78.1667 110.908 77.8296 110.866C77.4925 110.817 77.1262 110.792 76.7308 110.792C75.927 110.792 75.2366 110.904 74.6597 111.127C74.0827 111.343 73.6387 111.66 73.3275 112.079C73.172 112.288 73.0553 112.518 72.9775 112.769C72.8997 113.013 72.8608 113.281 72.8608 113.574C72.8608 114.327 73.1169 114.881 73.629 115.237C74.1476 115.592 74.9255 115.809 75.9627 115.885C76.5266 115.927 76.948 115.965 77.2267 116C77.512 116.035 77.6999 116.077 77.7907 116.126C77.8426 116.147 77.8782 116.171 77.8977 116.199C77.9236 116.227 77.9366 116.262 77.9366 116.304C77.9366 116.387 77.8847 116.453 77.781 116.502C77.6837 116.544 77.512 116.565 77.2656 116.565C77.0128 116.565 76.7697 116.53 76.5363 116.46C76.303 116.391 76.1604 116.269 76.1085 116.094H72.6858C72.77 116.666 72.9548 117.154 73.24 117.558C73.5317 117.956 73.9758 118.263 74.5722 118.479C74.8704 118.583 75.2204 118.66 75.6223 118.709C76.0242 118.765 76.478 118.792 76.9836 118.792Z" fill="#D6D3D1"/>
<path fill-rule="evenodd" clip-rule="evenodd" d="M40.9995 86.7087C40.9995 85.3145 42.1297 84.1843 43.5238 84.1843H61.7378C63.1319 84.1843 64.2621 85.3145 64.2621 86.7087V100.792C64.2621 102.186 63.1319 103.316 61.7378 103.316H43.5238C42.1297 103.316 40.9995 102.186 40.9995 100.792V86.7087ZM50.2296 96.7925C50.561 96.7925 50.8296 97.068 50.8296 97.4079V97.7156C50.8296 98.7352 51.6355 99.5617 52.6296 99.5617C53.6237 99.5617 54.4296 98.7352 54.4296 97.7156V97.4079C54.4296 97.068 54.6982 96.7925 55.0296 96.7925C55.361 96.7925 55.6296 97.068 55.6296 97.4079V97.7156C55.6296 99.4149 54.2865 100.792 52.6296 100.792C50.9728 100.792 49.6296 99.4149 49.6296 97.7156V97.4079C49.6296 97.068 49.8982 96.7925 50.2296 96.7925ZM44.7554 91.7925C43.9082 91.7925 43.2214 92.4793 43.2214 93.3265C43.2214 94.1737 43.9082 94.8605 44.7554 94.8605H60.0956C60.9428 94.8605 61.6296 94.1737 61.6296 93.3265C61.6296 92.4793 60.9428 91.7925 60.0956 91.7925H44.7554Z" fill="#D6D3D1"/>
<path fill-rule="evenodd" clip-rule="evenodd" d="M53.1724 80.5943C53.9321 80.3255 54.4763 79.6009 54.4763 78.7491C54.4763 77.6685 53.6003 76.7925 52.5197 76.7925C51.439 76.7925 50.563 77.6685 50.563 78.7491C50.563 79.6013 51.1077 80.3262 51.868 80.5947V84.1843H53.1724V80.5943Z" fill="#D6D3D1"/>
</g>
<circle cx="54.0225" cy="24.8074" r="14.9795" fill="black" fill-opacity="0.4"/>
<circle cx="54.0225" cy="23.3086" r="14.9795" fill="#3C2D24"/>
<g filter="url(#filter3_i_1230_304253)">
<circle cx="54.0225" cy="20.313" r="14.9795" fill="#82644D"/>
</g>
<circle cx="54.0216" cy="17.7242" r="12.2252" fill="black" fill-opacity="0.4"/>
<circle cx="54.0216" cy="16.5023" r="12.2252" fill="#3C2D24"/>
<g filter="url(#filter4_i_1230_304253)">
<circle cx="54.0216" cy="14.057" r="12.2252" fill="#82644D"/>
</g>
<g filter="url(#filter5_d_1230_304253)">
<circle cx="54.0226" cy="13.4469" r="12.2252" fill="black" fill-opacity="0.4"/>
<path fill-rule="evenodd" clip-rule="evenodd" d="M54.0231 24.4504C60.7749 24.4504 66.2483 18.977 66.2483 12.2252C66.2483 5.47342 60.7749 0 54.0231 0C47.3463 0 41.9197 5.3525 41.7999 12.0007L39.2496 14.551C38.5495 15.2511 39.0454 16.4483 40.0355 16.4483H42.5469C44.2663 21.1191 48.7556 24.4504 54.0231 24.4504Z" fill="#3C2D24"/>
</g>
<circle opacity="0.3" cx="54.024" cy="12.2252" r="12.2252" fill="white" fill-opacity="0.2"/>
<defs>
<filter id="filter0_ii_1230_304253" x="3.48242" y="17.7925" width="96.8491" height="166" filterUnits="userSpaceOnUse" color-interpolation-filters="sRGB">
<feFlood flood-opacity="0" result="BackgroundImageFix"/>
<feBlend mode="normal" in="SourceGraphic" in2="BackgroundImageFix" result="shape"/>
<feColorMatrix in="SourceAlpha" type="matrix" values="0 0 0 0 0 0 0 0 0 0 0 0 0 0 0 0 0 0 127 0" result="hardAlpha"/>
<feOffset dx="-3"/>
<feGaussianBlur stdDeviation="2.5"/>
<feComposite in2="hardAlpha" operator="arithmetic" k2="-1" k3="1"/>
<feColorMatrix type="matrix" values="0 0 0 0 1 0 0 0 0 1 0 0 0 0 1 0 0 0 0.25 0"/>
<feBlend mode="normal" in2="shape" result="effect1_innerShadow_1230_304253"/>
<feColorMatrix in="SourceAlpha" type="matrix" values="0 0 0 0 0 0 0 0 0 0 0 0 0 0 0 0 0 0 127 0" result="hardAlpha"/>
<feOffset dx="-1" dy="7"/>
<feGaussianBlur stdDeviation="4.5"/>
<feComposite in2="hardAlpha" operator="arithmetic" k2="-1" k3="1"/>
<feColorMatrix type="matrix" values="0 0 0 0 1 0 0 0 0 1 0 0 0 0 1 0 0 0 0.25 0"/>
<feBlend mode="normal" in2="effect1_innerShadow_1230_304253" result="effect2_innerShadow_1230_304253"/>
</filter>
<filter id="filter1_di_1230_304253" x="9.99951" y="49.7925" width="84" height="109" filterUnits="userSpaceOnUse" color-interpolation-filters="sRGB">
<feFlood flood-opacity="0" result="BackgroundImageFix"/>
<feColorMatrix in="SourceAlpha" type="matrix" values="0 0 0 0 0 0 0 0 0 0 0 0 0 0 0 0 0 0 127 0" result="hardAlpha"/>
<feOffset dx="-1" dy="-1"/>
<feGaussianBlur stdDeviation="1"/>
<feComposite in2="hardAlpha" operator="out"/>
<feColorMatrix type="matrix" values="0 0 0 0 1 0 0 0 0 1 0 0 0 0 1 0 0 0 0.25 0"/>
<feBlend mode="normal" in2="BackgroundImageFix" result="effect1_dropShadow_1230_304253"/>
<feBlend mode="normal" in="SourceGraphic" in2="effect1_dropShadow_1230_304253" result="shape"/>
<feColorMatrix in="SourceAlpha" type="matrix" values="0 0 0 0 0 0 0 0 0 0 0 0 0 0 0 0 0 0 127 0" result="hardAlpha"/>
<feOffset dy="1"/>
<feGaussianBlur stdDeviation="4"/>
<feComposite in2="hardAlpha" operator="arithmetic" k2="-1" k3="1"/>
<feColorMatrix type="matrix" values="0 0 0 0 1 0 0 0 0 1 0 0 0 0 1 0 0 0 0.17 0"/>
<feBlend mode="normal" in2="shape" result="effect2_innerShadow_1230_304253"/>
</filter>
<filter id="filter2_i_1230_304253" x="15.9995" y="52.7925" width="81" height="100" filterUnits="userSpaceOnUse" color-interpolation-filters="sRGB">
<feFlood flood-opacity="0" result="BackgroundImageFix"/>
<feBlend mode="normal" in="SourceGraphic" in2="BackgroundImageFix" result="shape"/>
<feColorMatrix in="SourceAlpha" type="matrix" values="0 0 0 0 0 0 0 0 0 0 0 0 0 0 0 0 0 0 127 0" result="hardAlpha"/>
<feOffset dx="7" dy="-5"/>
<feGaussianBlur stdDeviation="6"/>
<feComposite in2="hardAlpha" operator="arithmetic" k2="-1" k3="1"/>
<feColorMatrix type="matrix" values="0 0 0 0 0 0 0 0 0 0 0 0 0 0 0 0 0 0 0.25 0"/>
<feBlend mode="normal" in2="shape" result="effect1_innerShadow_1230_304253"/>
</filter>
<filter id="filter3_i_1230_304253" x="39.043" y="5.3335" width="29.959" height="29.959" filterUnits="userSpaceOnUse" color-interpolation-filters="sRGB">
<feFlood flood-opacity="0" result="BackgroundImageFix"/>
<feBlend mode="normal" in="SourceGraphic" in2="BackgroundImageFix" result="shape"/>
<feColorMatrix in="SourceAlpha" type="matrix" values="0 0 0 0 0 0 0 0 0 0 0 0 0 0 0 0 0 0 127 0" result="hardAlpha"/>
<feOffset dx="44.4554" dy="4.44554"/>
<feGaussianBlur stdDeviation="2.22277"/>
<feComposite in2="hardAlpha" operator="arithmetic" k2="-1" k3="1"/>
<feColorMatrix type="matrix" values="0 0 0 0 0 0 0 0 0 0 0 0 0 0 0 0 0 0 0.25 0"/>
<feBlend mode="normal" in2="shape" result="effect1_innerShadow_1230_304253"/>
</filter>
<filter id="filter4_i_1230_304253" x="41.7964" y="1.83179" width="24.4507" height="24.4504" filterUnits="userSpaceOnUse" color-interpolation-filters="sRGB">
<feFlood flood-opacity="0" result="BackgroundImageFix"/>
<feBlend mode="normal" in="SourceGraphic" in2="BackgroundImageFix" result="shape"/>
<feColorMatrix in="SourceAlpha" type="matrix" values="0 0 0 0 0 0 0 0 0 0 0 0 0 0 0 0 0 0 127 0" result="hardAlpha"/>
<feOffset dx="44.4554" dy="4.44554"/>
<feGaussianBlur stdDeviation="2.22277"/>
<feComposite in2="hardAlpha" operator="arithmetic" k2="-1" k3="1"/>
<feColorMatrix type="matrix" values="0 0 0 0 0 0 0 0 0 0 0 0 0 0 0 0 0 0 0.25 0"/>
<feBlend mode="normal" in2="shape" result="effect1_innerShadow_1230_304253"/>
</filter>
<filter id="filter5_d_1230_304253" x="38.9219" y="0" width="27.3267" height="26.7835" filterUnits="userSpaceOnUse" color-interpolation-filters="sRGB">
<feFlood flood-opacity="0" result="BackgroundImageFix"/>
<feColorMatrix in="SourceAlpha" type="matrix" values="0 0 0 0 0 0 0 0 0 0 0 0 0 0 0 0 0 0 127 0" result="hardAlpha"/>
<feOffset dy="1.11138"/>
<feComposite in2="hardAlpha" operator="out"/>
<feColorMatrix type="matrix" values="0 0 0 0 0 0 0 0 0 0 0 0 0 0 0 0 0 0 0.25 0"/>
<feBlend mode="normal" in2="BackgroundImageFix" result="effect1_dropShadow_1230_304253"/>
<feBlend mode="normal" in="SourceGraphic" in2="effect1_dropShadow_1230_304253" result="shape"/>
</filter>
</defs>
</svg>
