<svg width="61" height="61" viewBox="0 0 61 61" fill="none" xmlns="http://www.w3.org/2000/svg">
<g filter="url(#filter0_ii_1230_304267)">
<ellipse cx="28.4715" cy="24.4408" rx="24.0359" ry="24.036" fill="#EF4444"/>
<ellipse cx="29.6204" cy="27.6073" rx="24.0359" ry="24.036" fill="#DC2626"/>
<ellipse cx="29.6219" cy="27.6073" rx="19.7181" ry="19.7181" fill="#B91C1C"/>
<path d="M35.1469 16.3671C39.4358 15.3498 43.1045 19.5639 41.5063 23.6718L39.9622 27.6405C39.466 28.916 39.466 30.3311 39.9622 31.6066L40.7749 33.6955C42.5005 38.1308 38.1301 42.5012 33.6948 40.7756L31.6059 39.9629C30.3304 39.4667 28.9153 39.4667 27.6398 39.9629L25.551 40.7756C21.1157 42.5012 16.7453 38.1308 18.4709 33.6955L19.358 31.4152C19.8092 30.2555 19.8514 28.9767 19.4778 27.7899L18.2722 23.9599C17.0624 20.1165 20.2828 16.3288 24.2707 16.9046L28.5922 17.5286C29.2732 17.6269 29.9666 17.5959 30.6361 17.4371L35.1469 16.3671Z" fill="#DC2626"/>
<path d="M24.9386 10.19C24.4528 7.33128 26.6555 4.72266 29.5553 4.72266C32.4027 4.72266 34.5911 7.24279 34.1919 10.0621L31.7758 27.1234C31.7033 27.6353 31.7037 28.1548 31.7771 28.6666L34.1827 45.4424C34.5866 48.2588 32.4015 50.7796 29.5562 50.7796C26.6582 50.7796 24.4587 48.1693 24.9501 45.3133L27.7888 28.8168C27.8938 28.2067 27.8944 27.5833 27.7907 26.973L24.9386 10.19Z" fill="#DC2626"/>
<path d="M47.3265 24.0689C50.1866 23.5859 52.7944 25.7902 52.7944 28.6908C52.7944 31.5394 50.2746 33.7294 47.4539 33.3324L30.2443 30.9104C29.7355 30.8388 29.2191 30.8393 28.7104 30.9118L11.7881 33.3233C8.9702 33.7249 6.44974 31.5381 6.44974 28.6918C6.44974 25.7928 9.0592 23.5917 11.9166 24.0804L28.5611 26.9267C29.1675 27.0304 29.7871 27.0311 30.3938 26.9286L47.3265 24.0689Z" fill="#DC2626"/>
<path d="M18.9902 16.2385C19.4747 16.8572 20.0026 18.221 19.5897 18.5443C19.1769 18.8675 17.9795 18.0279 17.4951 17.4091C17.0106 16.7904 16.9526 16.0268 17.3655 15.7035C17.7784 15.3802 18.5058 15.6197 18.9902 16.2385Z" fill="white" fill-opacity="0.4"/>
<path d="M22.0357 14.7579C22.2497 15.5141 22.2217 16.9762 21.7172 17.119C21.2126 17.2618 20.4225 16.0312 20.2085 15.2751C19.9945 14.519 20.2301 13.7902 20.7346 13.6474C21.2392 13.5046 21.8217 14.0018 22.0357 14.7579Z" fill="white" fill-opacity="0.4"/>
<path d="M25.2008 14.9181C25.1425 15.7018 24.6146 17.0656 24.0917 17.0267C23.5688 16.9877 23.2488 15.5607 23.3072 14.7771C23.3655 13.9934 23.8368 13.3897 24.3597 13.4287C24.8826 13.4676 25.2592 14.1345 25.2008 14.9181Z" fill="white" fill-opacity="0.4"/>
<path d="M16.6638 18.6393C17.3555 19.0122 18.3855 20.0504 18.1366 20.512C17.8878 20.9735 16.4544 20.6837 15.7627 20.3107C15.071 19.9378 14.712 19.2613 14.9608 18.7998C15.2097 18.3382 15.9721 18.2663 16.6638 18.6393Z" fill="white" fill-opacity="0.4"/>
<path d="M15.933 22.0541C16.7185 22.0324 18.129 22.4188 18.1434 22.943C18.1579 23.4672 16.7708 23.9306 15.9853 23.9523C15.1998 23.9739 14.5513 23.5665 14.5368 23.0424C14.5224 22.5182 15.1475 22.0757 15.933 22.0541Z" fill="white" fill-opacity="0.4"/>
<path d="M41.9614 16.0892C41.3944 16.6333 40.0905 17.2955 39.7274 16.9171C39.3643 16.5388 40.0796 15.2632 40.6465 14.7191C41.2135 14.175 41.9674 14.0406 42.3305 14.4189C42.6936 14.7972 42.5283 15.545 41.9614 16.0892Z" fill="white" fill-opacity="0.4"/>
<path d="M43.7402 18.9723C43.0094 19.2612 41.5518 19.3802 41.3591 18.8925C41.1663 18.4048 42.3114 17.4952 43.0422 17.2063C43.773 16.9175 44.5217 17.0787 44.7145 17.5663C44.9072 18.054 44.471 18.6835 43.7402 18.9723Z" fill="white" fill-opacity="0.4"/>
<path d="M43.8982 22.1372C43.1126 22.1579 41.7027 21.7696 41.689 21.2454C41.6752 20.7212 43.0628 20.2596 43.8484 20.239C44.6339 20.2184 45.2819 20.6266 45.2957 21.1508C45.3094 21.675 44.6837 22.1166 43.8982 22.1372Z" fill="white" fill-opacity="0.4"/>
<path d="M39.3385 14.0163C39.0369 14.742 38.1073 15.8709 37.6231 15.6697C37.1389 15.4684 37.2834 14.0132 37.585 13.2875C37.8866 12.5619 38.5236 12.1368 39.0078 12.338C39.4921 12.5393 39.6401 13.2907 39.3385 14.0163Z" fill="white" fill-opacity="0.4"/>
<path d="M35.8684 13.632C35.9688 14.4114 35.7259 15.8535 35.2058 15.9205C34.6858 15.9875 34.0854 14.654 33.985 13.8746C33.8846 13.0952 34.2248 12.4091 34.7449 12.3421C35.265 12.2751 35.768 12.8526 35.8684 13.632Z" fill="white" fill-opacity="0.4"/>
<path d="M41.9614 40.9021C41.3944 40.3579 40.0905 39.6957 39.7274 40.0741C39.3643 40.4524 40.0796 41.728 40.6465 42.2721C41.2135 42.8162 41.9674 42.9506 42.3305 42.5723C42.6936 42.194 42.5283 41.4462 41.9614 40.9021Z" fill="white" fill-opacity="0.4"/>
<path d="M43.7402 38.0191C43.0094 37.7303 41.5518 37.6113 41.3591 38.099C41.1663 38.5866 42.3114 39.4963 43.0422 39.7851C43.773 40.074 44.5217 39.9128 44.7145 39.4251C44.9072 38.9374 44.471 38.308 43.7402 38.0191Z" fill="white" fill-opacity="0.4"/>
<path d="M43.8982 34.854C43.1126 34.8334 41.7027 35.2216 41.689 35.7458C41.6752 36.27 43.0628 36.7316 43.8484 36.7522C44.6339 36.7728 45.2819 36.3646 45.2957 35.8404C45.3094 35.3162 44.6837 34.8746 43.8982 34.854Z" fill="white" fill-opacity="0.4"/>
<path d="M39.3385 42.9749C39.0369 42.2493 38.1073 41.1203 37.6231 41.3215C37.1389 41.5228 37.2834 42.978 37.585 43.7037C37.8866 44.4293 38.5236 44.8544 39.0078 44.6532C39.4921 44.4519 39.6401 43.7005 39.3385 42.9749Z" fill="white" fill-opacity="0.4"/>
<path d="M35.8676 43.3592C35.968 42.5799 35.7252 41.1377 35.2051 41.0707C34.685 41.0038 34.0847 42.3373 33.9843 43.1166C33.8839 43.896 34.2241 44.5821 34.7442 44.6491C35.2642 44.7161 35.7672 44.1386 35.8676 43.3592Z" fill="white" fill-opacity="0.4"/>
</g>
<defs>
<filter id="filter0_ii_1230_304267" x="-3.32476" y="-7.59944" width="71.3943" height="72.3445" filterUnits="userSpaceOnUse" color-interpolation-filters="sRGB">
<feFlood flood-opacity="0" result="BackgroundImageFix"/>
<feBlend mode="normal" in="SourceGraphic" in2="BackgroundImageFix" result="shape"/>
<feColorMatrix in="SourceAlpha" type="matrix" values="0 0 0 0 0 0 0 0 0 0 0 0 0 0 0 0 0 0 127 0" result="hardAlpha"/>
<feOffset dx="7.12448" dy="-7.59944"/>
<feGaussianBlur stdDeviation="4.98713"/>
<feComposite in2="hardAlpha" operator="arithmetic" k2="-1" k3="1"/>
<feColorMatrix type="matrix" values="0 0 0 0 0 0 0 0 0 0 0 0 0 0 0 0 0 0 0.25 0"/>
<feBlend mode="normal" in2="shape" result="effect1_innerShadow_1230_304267"/>
<feColorMatrix in="SourceAlpha" type="matrix" values="0 0 0 0 0 0 0 0 0 0 0 0 0 0 0 0 0 0 127 0" result="hardAlpha"/>
<feOffset dx="-3.32476" dy="3.79972"/>
<feGaussianBlur stdDeviation="3.56224"/>
<feComposite in2="hardAlpha" operator="arithmetic" k2="-1" k3="1"/>
<feColorMatrix type="matrix" values="0 0 0 0 1 0 0 0 0 1 0 0 0 0 1 0 0 0 0.25 0"/>
<feBlend mode="normal" in2="effect1_innerShadow_1230_304267" result="effect2_innerShadow_1230_304267"/>
</filter>
</defs>
</svg>
