<svg width="412" height="530" viewBox="0 0 412 530" fill="none" xmlns="http://www.w3.org/2000/svg">
<g filter="url(#filter0_iii_33_92042)">
<path d="M215.105 305.763C215.105 312.588 209.572 318.121 202.747 318.121C195.921 318.121 190.388 312.588 190.388 305.763L190.388 11.1064L215.105 11.1064L215.105 305.763Z" fill="#A6815E"/>
</g>
<path d="M203.266 1.35059C203.61 1.3612 203.825 1.5714 203.925 1.69336C203.957 1.73301 203.985 1.77567 204.012 1.81641C204.089 1.7593 204.187 1.68985 204.285 1.63379C204.374 1.58347 204.572 1.47678 204.818 1.47754L204.927 1.48438L205.422 1.55957C207.882 1.97085 210.075 2.96357 211.69 4.49805C213.423 6.14422 214.463 8.38803 214.463 11.1064C214.463 11.6684 214.257 12.1374 214.079 12.4971C213.881 12.8974 213.743 13.1302 213.674 13.3984C213.604 13.6681 213.609 13.9462 213.593 14.3701C213.578 14.7444 213.543 15.2466 213.279 15.7051C211.337 19.0774 207.282 20.8701 202.747 20.8701C200.216 20.8701 197.849 20.3144 195.908 19.2432C195.687 19.1211 195.578 18.9267 195.531 18.7686C195.488 18.6242 195.489 18.4886 195.494 18.3994C195.497 18.3558 195.502 18.3108 195.508 18.2666C195.409 18.2986 195.303 18.3319 195.202 18.3535C195.115 18.3723 194.998 18.3915 194.874 18.3877C194.757 18.3841 194.55 18.3577 194.363 18.2061C192.302 16.5308 191.032 14.1113 191.032 11.1064C191.032 8.02239 192.369 5.55703 194.524 3.87891C196.665 2.21259 199.58 1.3428 202.747 1.34277C202.921 1.34277 203.094 1.34539 203.266 1.35059Z" fill="#C8A078" stroke="#82644D" stroke-width="1.31521"/>
<path opacity="0.5" fill-rule="evenodd" clip-rule="evenodd" d="M196.251 5.64039C194.615 6.76391 193.613 8.39364 193.613 10.456C193.613 12.5184 194.615 14.1482 196.251 15.2717C197.895 16.4007 200.188 17.0219 202.747 17.0219C205.306 17.0219 207.599 16.4007 209.243 15.2717C210.879 14.1482 211.881 12.5184 211.881 10.456C211.881 8.39364 210.879 6.76391 209.243 5.64039C207.599 4.51136 205.306 3.89019 202.747 3.89019C200.188 3.89018 197.895 4.51136 196.251 5.64039ZM195.885 5.16361C197.66 3.94498 200.09 3.30103 202.747 3.30103C205.404 3.30103 207.834 3.94498 209.609 5.16361C211.391 6.38776 212.504 8.18824 212.504 10.456C212.504 12.7238 211.391 14.5243 209.609 15.7485C207.834 16.9671 205.404 17.611 202.747 17.611C200.09 17.611 197.66 16.9671 195.885 15.7485C194.103 14.5243 192.99 12.7238 192.99 10.456C192.99 8.18824 194.103 6.38776 195.885 5.16361Z" fill="#A6815E"/>
<path opacity="0.5" fill-rule="evenodd" clip-rule="evenodd" d="M197.922 8.87472C196.882 9.55121 196.253 10.5252 196.253 11.7568C196.253 12.9884 196.882 13.9624 197.922 14.6389C198.97 15.321 200.442 15.7018 202.096 15.7018C203.751 15.7018 205.223 15.321 206.271 14.6389C207.31 13.9624 207.939 12.9884 207.939 11.7568C207.939 10.5252 207.31 9.55121 206.271 8.87472C205.223 8.19256 203.751 7.81179 202.096 7.81179C200.442 7.81179 198.97 8.19256 197.922 8.87472ZM197.54 8.37831C198.726 7.60641 200.341 7.20361 202.096 7.20361C203.852 7.20361 205.467 7.60641 206.653 8.37831C207.848 9.15588 208.601 10.3065 208.601 11.7568C208.601 13.2071 207.848 14.3577 206.653 15.1353C205.467 15.9072 203.852 16.31 202.096 16.31C200.341 16.31 198.726 15.9072 197.54 15.1353C196.345 14.3577 195.592 13.2071 195.592 11.7568C195.592 10.3065 196.345 9.15588 197.54 8.37831Z" fill="#A6815E"/>
<path opacity="0.5" fill-rule="evenodd" clip-rule="evenodd" d="M201.284 9.454C200.78 9.68631 200.47 10.0207 200.47 10.456C200.47 10.8913 200.78 11.2257 201.284 11.458C201.798 11.6953 202.539 11.8353 203.397 11.8353C204.255 11.8353 204.995 11.6953 205.51 11.458C206.014 11.2257 206.324 10.8913 206.324 10.456C206.324 10.0207 206.014 9.68631 205.51 9.454C204.995 9.21666 204.255 9.0767 203.397 9.0767C202.539 9.0767 201.798 9.21666 201.284 9.454ZM200.681 9.00433C201.402 8.67178 202.369 8.50464 203.397 8.50464C204.425 8.50464 205.392 8.67178 206.113 9.00433C206.845 9.3419 207.3 9.84016 207.3 10.456C207.3 11.0719 206.845 11.5701 206.113 11.9077C205.392 12.2402 204.425 12.4074 203.397 12.4074C202.369 12.4074 201.402 12.2402 200.681 11.9077C199.948 11.5701 199.494 11.0719 199.494 10.456C199.494 9.84016 199.948 9.3419 200.681 9.00433Z" fill="#A6815E"/>
<path opacity="0.5" fill-rule="evenodd" clip-rule="evenodd" d="M201.02 10.4989C201.02 10.4989 201.022 10.4976 201.029 10.4952C201.025 10.4978 201.021 10.499 201.02 10.4989ZM201.228 10.4559C201.427 10.4276 201.724 10.4065 202.096 10.4065C202.467 10.4065 202.765 10.4276 202.964 10.4559C202.765 10.4841 202.467 10.5053 202.096 10.5053C201.724 10.5053 201.427 10.4841 201.228 10.4559ZM203.172 10.4989C203.171 10.499 203.167 10.4978 203.163 10.4952C203.17 10.4976 203.172 10.4989 203.172 10.4989ZM203.163 10.4166C203.167 10.414 203.171 10.4128 203.172 10.4128C203.172 10.4129 203.17 10.4142 203.163 10.4166ZM201.029 10.4166C201.022 10.4142 201.02 10.4129 201.02 10.4128C201.021 10.4128 201.025 10.414 201.029 10.4166ZM200.475 9.9263C200.942 9.84153 201.521 9.80542 202.096 9.80542C202.671 9.80542 203.25 9.84153 203.717 9.9263C204.169 10.0085 204.698 10.1765 204.698 10.4559C204.698 10.7352 204.169 10.9032 203.717 10.9855C203.25 11.0702 202.671 11.1063 202.096 11.1063C201.521 11.1063 200.942 11.0702 200.475 10.9855C200.022 10.9032 199.494 10.7352 199.494 10.4559C199.494 10.1765 200.022 10.0085 200.475 9.9263Z" fill="#A6815E"/>
<path opacity="0.1" d="M200.795 218.323C200.795 211.857 200.568 204.942 200.082 204.942C199.595 204.942 199.494 210.184 199.494 216.65C199.494 223.116 199.595 228.358 200.082 228.358C200.568 228.358 200.795 224.789 200.795 218.323Z" fill="white"/>
<path opacity="0.1" d="M207.299 173.906C207.299 168.158 207.072 162.012 206.586 162.012C206.099 162.012 205.998 166.671 205.998 172.419C205.998 178.167 206.099 182.827 206.586 182.827C207.072 182.827 207.299 179.654 207.299 173.906Z" fill="white"/>
<path opacity="0.1" d="M205.998 244.341C205.998 240.389 205.545 236.164 204.572 236.164C203.598 236.164 203.396 239.367 203.396 243.319C203.396 247.27 203.598 250.474 204.572 250.474C205.545 250.474 205.998 248.293 205.998 244.341Z" fill="black"/>
<path opacity="0.1" d="M195.592 161.083C195.592 157.131 195.365 152.906 194.879 152.906C194.392 152.906 194.291 156.109 194.291 160.061C194.291 164.012 194.392 167.216 194.879 167.216C195.365 167.216 195.592 165.034 195.592 161.083Z" fill="white"/>
<path opacity="0.1" d="M200.795 139.339C200.795 131.436 200.342 122.985 199.368 122.985C198.395 122.985 198.193 129.391 198.193 137.295C198.193 145.198 198.395 151.605 199.368 151.605C200.342 151.605 200.795 147.242 200.795 139.339Z" fill="black"/>
<path opacity="0.1" d="M192.99 242.483C192.99 235.657 193.217 228.358 193.704 228.358C194.19 228.358 194.291 233.892 194.291 240.717C194.291 247.543 194.19 253.076 193.704 253.076C193.217 253.076 192.99 249.308 192.99 242.483Z" fill="white"/>
<path opacity="0.1" d="M194.291 275.749C194.291 271.079 194.744 266.085 195.718 266.085C196.691 266.085 196.893 269.871 196.893 274.541C196.893 279.211 196.691 282.997 195.718 282.997C194.744 282.997 194.291 280.419 194.291 275.749Z" fill="black"/>
<path opacity="0.1" d="M208.601 285.598C208.601 280.569 208.828 275.191 209.315 275.191C209.802 275.191 209.902 279.268 209.902 284.297C209.902 289.327 209.802 293.404 209.315 293.404C208.828 293.404 208.601 290.628 208.601 285.598Z" fill="white"/>
<path opacity="0.1" d="M208.601 143.799C208.601 138.77 208.828 133.392 209.315 133.392C209.802 133.392 209.902 137.469 209.902 142.498C209.902 147.528 209.802 151.605 209.315 151.605C208.828 151.605 208.601 148.828 208.601 143.799Z" fill="black"/>
<path opacity="0.1" d="M212.504 255.863C212.504 250.116 212.73 243.969 213.217 243.969C213.704 243.969 213.805 248.629 213.805 254.377C213.805 260.124 213.704 264.784 213.217 264.784C212.73 264.784 212.504 261.611 212.504 255.863Z" fill="white"/>
<path opacity="0.1" d="M211.203 199.181C211.203 191.277 211.43 182.826 211.916 182.826C212.403 182.826 212.504 189.233 212.504 197.136C212.504 205.04 212.403 211.446 211.916 211.446C211.43 211.446 211.203 207.084 211.203 199.181Z" fill="black"/>
<g filter="url(#filter1_i_33_92042)">
<path d="M144 388.477C144 391.614 142.895 393.75 141.068 395.947C138.868 398.594 135.621 401 132 401C127.72 401 123.963 398.661 121.838 395.141C120.674 393.211 120 390.926 120 388.477C120 385.34 122.469 382.911 124.295 380.714C126.496 378.067 128.379 377 132 377C135.621 377 138.05 378.067 140.25 380.714C142.077 382.911 144 385.34 144 388.477Z" fill="#C8A078"/>
</g>
<g filter="url(#filter2_i_33_92042)">
<path d="M284 413.466C284 432.37 279.391 449.76 267.659 463C253.527 478.949 236.181 488.927 212.922 488.927C185.429 488.927 147.017 492.791 121.884 444.217C110.714 401.715 153.081 413.359 148.054 383C141.91 370.304 163.07 358.867 178.709 349.104C194.347 339.342 196.367 342.481 219.627 342.481C242.886 342.481 253.527 349.714 267.659 365.664C279.391 378.904 284 394.562 284 413.466Z" fill="#A6815E"/>
</g>
<g filter="url(#filter3_d_33_92042)">
<g filter="url(#filter4_ii_33_92042)">
<path d="M230.814 462.443C231.16 464.063 230.129 465.661 228.509 466.011L203.098 471.514C201.479 471.865 199.885 470.836 199.538 469.216L176.517 361.652C174.667 353.011 180.169 344.49 188.806 342.62C197.442 340.749 205.943 346.238 207.792 354.879L230.814 462.443Z" fill="#A16207"/>
</g>
<g filter="url(#filter5_i_33_92042)">
<rect width="32" height="32" rx="16" transform="matrix(-0.977346 0.211648 -0.209287 -0.977854 235 482)" fill="#CA8A04"/>
</g>
<path opacity="0.2" d="M204.311 424.624C203.56 421.114 203.438 417.212 204.9 416.896C206.363 416.579 207.275 419.359 208.026 422.869C208.778 426.38 209.084 429.291 207.621 429.608C206.159 429.924 205.063 428.134 204.311 424.624Z" fill="white"/>
<path opacity="0.2" d="M192.518 393.413C191.766 389.903 191.814 385.964 193.643 385.569C195.471 385.173 196.459 387.936 197.21 391.447C197.961 394.957 198.192 397.885 196.363 398.281C194.535 398.677 193.269 396.923 192.518 393.413Z" fill="#1C1917"/>
<path opacity="0.2" d="M210.482 443.897C210.019 441.737 210.376 439.243 212.205 438.847C214.033 438.451 214.786 440.12 215.249 442.28C215.711 444.441 215.707 446.274 213.879 446.67C212.051 447.066 210.944 446.058 210.482 443.897Z" fill="#1C1917"/>
<path opacity="0.2" d="M194.157 367.625C193.695 365.465 194.052 362.97 195.881 362.574C197.709 362.178 198.462 363.848 198.925 366.008C199.387 368.168 199.383 370.001 197.555 370.397C195.727 370.793 194.62 369.785 194.157 367.625Z" fill="white"/>
</g>
<g filter="url(#filter6_i_33_92042)">
<circle cx="18" cy="18" r="18" transform="matrix(0.605907 0.795536 -0.79209 0.610405 154.41 400.891)" fill="black" fill-opacity="0.2"/>
<g filter="url(#filter7_ii_33_92042)">
<path d="M222.159 351.208C223.471 350.197 225.349 350.445 226.353 351.763L242.106 372.447C243.11 373.765 242.86 375.654 241.548 376.665L160.755 438.926C153.755 444.32 143.741 442.994 138.387 435.964C133.033 428.935 134.366 418.863 141.366 413.469L222.159 351.208Z" fill="#A16207"/>
</g>
<g filter="url(#filter8_i_33_92042)">
<rect width="32" height="32" rx="16" transform="matrix(0.605907 0.795536 -0.79209 0.610405 238 339)" fill="#CA8A04"/>
</g>
<path opacity="0.2" d="M202.513 389.072C199.669 391.263 196.206 393.052 195.299 391.861C194.393 390.671 196.51 388.648 199.353 386.457C202.197 384.265 204.69 382.736 205.596 383.926C206.503 385.117 205.356 386.881 202.513 389.072Z" fill="white"/>
<path opacity="0.2" d="M179.402 413.193C176.558 415.384 172.99 417.034 171.856 415.546C170.723 414.058 172.793 411.973 175.637 409.782C178.48 407.591 181.02 406.123 182.153 407.611C183.287 409.099 182.245 411.002 179.402 413.193Z" fill="#1C1917"/>
<path opacity="0.2" d="M217.255 375.186C215.505 376.534 213.106 377.283 211.973 375.795C210.839 374.307 212.023 372.905 213.773 371.557C215.523 370.208 217.176 369.423 218.31 370.911C219.443 372.4 219.005 373.837 217.255 375.186Z" fill="#1C1917"/>
<path opacity="0.2" d="M155.472 422.797C153.722 424.146 151.323 424.894 150.19 423.406C149.056 421.918 150.24 420.517 151.99 419.168C153.74 417.82 155.393 417.035 156.526 418.523C157.66 420.011 157.222 421.449 155.472 422.797Z" fill="white"/>
</g>
<circle cx="18" cy="18" r="18" transform="matrix(0.356456 -0.934312 0.932905 0.360122 237.115 431)" fill="black" fill-opacity="0.2"/>
<g filter="url(#filter9_ii_33_92042)">
<path d="M170.658 403.202C169.112 402.606 168.338 400.867 168.929 399.319L178.197 375.027C178.787 373.479 180.519 372.708 182.065 373.304L266.026 405.715C274.27 408.898 278.399 418.17 275.249 426.426C272.1 434.682 262.863 438.796 254.62 435.613L170.658 403.202Z" fill="#A16207"/>
</g>
<g filter="url(#filter10_ii_33_92042)">
<rect width="32" height="32" rx="16" transform="matrix(0.356456 -0.934312 0.932905 0.360122 152 396)" fill="#CA8A04"/>
</g>
<path opacity="0.2" d="M207.459 398.114C210.808 399.407 214.141 401.441 213.608 402.839C213.074 404.237 210.249 403.479 206.9 402.186C203.551 400.893 200.946 399.556 201.48 398.158C202.013 396.759 204.11 396.822 207.459 398.114Z" fill="white"/>
<path opacity="0.2" d="M240.029 405.327C243.378 406.62 246.648 408.816 245.981 410.564C245.315 412.312 242.462 411.626 239.113 410.333C235.764 409.04 233.187 407.63 233.854 405.882C234.521 404.135 236.68 404.034 240.029 405.327Z" fill="#1C1917"/>
<path opacity="0.2" d="M187.955 392.729C190.016 393.525 191.91 395.19 191.243 396.937C190.576 398.685 188.767 398.402 186.706 397.607C184.645 396.811 183.113 395.804 183.78 394.056C184.446 392.309 185.895 391.934 187.955 392.729Z" fill="#1C1917"/>
<path opacity="0.2" d="M260.723 420.819C262.784 421.614 264.677 423.279 264.01 425.027C263.344 426.775 261.535 426.492 259.474 425.696C257.413 424.901 255.88 423.894 256.547 422.146C257.214 420.398 258.662 420.023 260.723 420.819Z" fill="white"/>
<path d="M183.061 361.883C183.095 355.648 174.169 350.546 163.123 350.486C152.078 350.427 143.096 355.433 143.062 361.667C143.028 367.902 151.954 373.004 163 373.064C174.045 373.123 183.027 368.117 183.061 361.883Z" fill="black" fill-opacity="0.12"/>
<path d="M180.576 360.467C180.606 354.999 172.786 350.525 163.109 350.473C153.432 350.421 145.563 354.811 145.533 360.278C145.503 365.745 153.323 370.219 163 370.272C172.677 370.324 180.546 365.934 180.576 360.467Z" fill="black" fill-opacity="0.12"/>
<g filter="url(#filter11_diii_33_92042)">
<path d="M175.148 357.158C174.901 356.297 174.561 354.639 173.3 352.891C168.41 346.109 157.121 346.027 150.852 351.561C149.168 353.048 147.959 354.796 147.32 356.602C146.901 358.135 146.621 359.667 147.32 361.199C147.879 362.592 148.717 363.846 149.974 364.821C151.651 366.214 153.467 367.05 155.562 367.747C157.099 368.304 158.636 368.583 160.173 368.722C162.929 368.972 164.168 369.358 166.766 368.581C169.56 367.745 171.935 366.491 173.891 364.262C174.869 363.148 175.567 361.755 175.567 360.222C175.567 359.247 175.427 358.133 175.148 357.158Z" fill="#A8A29E"/>
</g>
<path opacity="0.1" d="M149.656 360.062C149.382 361.378 149.767 362.785 151.224 362.785C152.681 362.785 153.205 361.718 153.479 360.402C153.753 359.087 153.673 358.02 152.216 358.02C150.759 358.02 149.93 358.746 149.656 360.062Z" fill="black"/>
<path opacity="0.05" d="M155.178 356.957C155.041 357.615 155.203 358.318 155.865 358.318C156.527 358.318 156.775 357.785 156.912 357.127C157.049 356.469 157.023 355.936 156.361 355.936C155.699 355.936 155.315 356.299 155.178 356.957Z" fill="black"/>
<path opacity="0.05" d="M157.251 353.247C157.309 353.529 157.187 353.831 156.79 353.831C156.393 353.831 156.263 353.602 156.204 353.32C156.145 353.038 156.18 352.81 156.577 352.81C156.975 352.81 157.192 352.965 157.251 353.247Z" fill="black"/>
<path opacity="0.05" d="M169.286 362.626C169.345 362.908 169.222 363.209 168.825 363.209C168.428 363.209 168.298 362.981 168.239 362.699C168.18 362.417 168.215 362.188 168.612 362.188C169.01 362.188 169.227 362.344 169.286 362.626Z" fill="black"/>
<path opacity="0.1" d="M155.128 365.752C155.186 366.034 155.064 366.335 154.667 366.335C154.269 366.335 154.14 366.107 154.081 365.825C154.022 365.543 154.057 365.314 154.454 365.314C154.852 365.314 155.069 365.47 155.128 365.752Z" fill="black"/>
<path opacity="0.1" d="M151.637 353.483C151.5 354.141 151.662 354.845 152.324 354.845C152.986 354.845 153.234 354.311 153.371 353.654C153.508 352.996 153.482 352.463 152.82 352.463C152.158 352.463 151.774 352.826 151.637 353.483Z" fill="white"/>
<path opacity="0.1" d="M158.313 361.931C158.372 362.213 158.25 362.514 157.852 362.514C157.455 362.514 157.325 362.286 157.266 362.004C157.208 361.722 157.242 361.494 157.64 361.494C158.037 361.494 158.255 361.649 158.313 361.931Z" fill="white"/>
<path d="M250 403.043C250 426.767 228.062 446 201 446C173.938 446 152 426.767 152 403.043C152 392.602 156.024 377.454 163.058 359.144C163.817 357.167 166.372 356.647 168.028 357.966C192.672 377.592 182.78 323.749 201 307C228.062 307 250 379.318 250 403.043Z" fill="#F97316"/>
<path d="M233 406.135C233 422.077 218.002 435 199.5 435C180.998 435 166 422.077 166 406.135C166 399.364 167.462 389.208 171.741 377.39C172.455 375.416 174.95 374.902 176.783 375.924C194.301 385.691 203.932 341 213.099 341C218.406 372.025 233 390.193 233 406.135Z" fill="#FACC15"/>
<path d="M175.32 351.135C169.873 352.049 164.497 347.12 163.312 340.126C162.193 333.525 169.04 329.052 169.186 316.904C169.196 316.038 170.198 315.539 170.827 316.135C174.655 319.762 178.886 325.726 183.036 336.817C184.221 343.81 180.766 350.221 175.32 351.135Z" fill="#FDBA74"/>
<path d="M173.419 347.587C170.423 348.09 167.397 344.973 166.66 340.625C166.629 340.438 166.606 340.253 166.592 340.07C166.157 334.431 175.308 332.713 177.234 338.034C177.355 338.366 177.543 338.98 177.586 339.331C178.095 343.465 176.293 347.105 173.419 347.587Z" fill="#FDE047"/>
<path d="M339.116 455.46C339.181 443.381 322.22 433.495 301.234 433.38C280.247 433.265 263.182 442.964 263.117 455.043C263.052 467.122 280.013 477.008 300.999 477.123C321.986 477.238 339.051 467.539 339.116 455.46Z" fill="black" fill-opacity="0.12"/>
<path d="M334.393 452.716C334.45 442.124 319.591 433.455 301.204 433.354C282.818 433.253 267.867 441.758 267.81 452.351C267.753 462.944 282.612 471.613 300.999 471.714C319.385 471.814 334.336 463.309 334.393 452.716Z" fill="black" fill-opacity="0.12"/>
<g filter="url(#filter12_diii_33_92042)">
<path d="M324.08 446.305C323.274 443.435 321.938 435.988 312.066 430.951C304.474 427.076 295.295 426.526 287.372 429.67C279.142 432.935 273.405 438.897 271.207 445.229C270.411 448.198 269.88 451.167 271.207 454.136C272.269 456.835 273.861 459.264 276.25 461.154C279.435 463.853 282.886 465.472 286.867 466.822C289.787 467.901 292.707 468.441 295.627 468.711C300.863 469.195 303.217 469.944 308.154 468.438C313.463 466.818 317.975 464.389 321.691 460.071C323.549 457.911 324.876 455.212 324.876 452.243C324.876 450.354 324.611 448.195 324.08 446.305Z" fill="#A8A29E"/>
</g>
<path opacity="0.1" d="M275.644 451.933C275.123 454.482 275.856 457.208 278.623 457.208C281.391 457.208 282.387 455.141 282.907 452.592C283.428 450.043 283.276 447.976 280.508 447.976C277.741 447.976 276.164 449.384 275.644 451.933Z" fill="black"/>
<path opacity="0.05" d="M286.136 445.917C285.875 447.191 286.183 448.554 287.441 448.554C288.699 448.554 289.171 447.521 289.431 446.246C289.691 444.972 289.642 443.938 288.384 443.938C287.126 443.938 286.396 444.642 286.136 445.917Z" fill="black"/>
<path opacity="0.05" d="M290.076 438.729C290.187 439.276 289.955 439.86 289.2 439.86C288.445 439.86 288.198 439.417 288.087 438.871C287.975 438.324 288.041 437.882 288.796 437.882C289.551 437.882 289.964 438.183 290.076 438.729Z" fill="black"/>
<path opacity="0.05" d="M312.943 456.9C313.054 457.446 312.822 458.03 312.067 458.03C311.312 458.03 311.065 457.588 310.954 457.041C310.842 456.495 310.908 456.052 311.663 456.052C312.418 456.052 312.831 456.354 312.943 456.9Z" fill="black"/>
<path opacity="0.1" d="M286.04 462.957C286.152 463.503 285.92 464.087 285.165 464.087C284.41 464.087 284.163 463.644 284.052 463.098C283.94 462.552 284.006 462.109 284.761 462.109C285.516 462.109 285.929 462.411 286.04 462.957Z" fill="black"/>
<path opacity="0.1" d="M279.411 439.187C279.151 440.461 279.458 441.824 280.717 441.824C281.975 441.824 282.446 440.791 282.706 439.516C282.967 438.242 282.917 437.209 281.659 437.209C280.401 437.209 279.671 437.912 279.411 439.187Z" fill="white"/>
<path opacity="0.1" d="M292.093 455.554C292.205 456.1 291.972 456.684 291.218 456.684C290.463 456.684 290.216 456.242 290.104 455.695C289.993 455.149 290.059 454.706 290.814 454.706C291.568 454.706 291.982 455.008 292.093 455.554Z" fill="white"/>
<path d="M299.092 490.976C299.143 481.43 285.753 473.617 269.185 473.526C252.616 473.435 239.144 481.1 239.093 490.647C239.041 500.194 252.431 508.006 269 508.097C285.568 508.188 299.041 500.523 299.092 490.976Z" fill="black" fill-opacity="0.12"/>
<path d="M295.364 488.808C295.408 480.436 283.678 473.585 269.162 473.505C254.646 473.426 242.843 480.148 242.798 488.519C242.753 496.891 254.484 503.742 269 503.822C283.515 503.902 295.319 497.18 295.364 488.808Z" fill="black" fill-opacity="0.12"/>
<g filter="url(#filter13_diii_33_92042)">
<path d="M291.999 482.678C291.161 479.691 284.455 459 268.11 459C256.375 459.427 247.993 475.638 245.478 482.891C244.849 485.237 244.43 487.584 245.478 489.93C246.316 492.063 247.574 493.983 249.46 495.476C251.974 497.609 254.698 498.889 257.842 499.956C260.147 500.809 262.452 501.236 264.757 501.449C269.786 501.662 274.606 501.662 279.426 500.169C283.617 498.889 287.179 496.97 290.113 493.557C291.58 491.85 292.627 489.717 292.627 487.37C292.627 485.877 292.418 484.171 291.999 482.678Z" fill="#A8A29E"/>
</g>
<path opacity="0.1" d="M248.98 488.189C248.57 490.203 249.148 492.357 251.333 492.357C253.518 492.357 254.304 490.724 254.715 488.71C255.126 486.695 255.006 485.062 252.821 485.062C250.636 485.062 249.391 486.174 248.98 488.189Z" fill="black"/>
<path opacity="0.05" d="M257.265 483.434C257.059 484.441 257.302 485.518 258.295 485.518C259.288 485.518 259.661 484.702 259.866 483.694C260.072 482.687 260.033 481.871 259.039 481.871C258.046 481.871 257.47 482.427 257.265 483.434Z" fill="black"/>
<path opacity="0.05" d="M260.376 477.754C260.464 478.185 260.281 478.647 259.685 478.647C259.089 478.647 258.894 478.297 258.806 477.865C258.718 477.434 258.77 477.084 259.366 477.084C259.962 477.084 260.288 477.322 260.376 477.754Z" fill="black"/>
<path opacity="0.05" d="M289.048 491.583C289.136 492.014 288.953 492.476 288.357 492.476C287.761 492.476 287.566 492.126 287.478 491.694C287.39 491.263 287.442 490.913 288.038 490.913C288.634 490.913 288.96 491.151 289.048 491.583Z" fill="black"/>
<path opacity="0.1" d="M257.189 496.901C257.277 497.333 257.093 497.795 256.497 497.795C255.901 497.795 255.706 497.445 255.618 497.013C255.53 496.581 255.582 496.231 256.178 496.231C256.774 496.231 257.101 496.47 257.189 496.901Z" fill="black"/>
<path opacity="0.1" d="M251.956 478.115C251.75 479.123 251.993 480.2 252.987 480.2C253.98 480.2 254.352 479.383 254.558 478.376C254.763 477.368 254.724 476.552 253.731 476.552C252.737 476.552 252.161 477.108 251.956 478.115Z" fill="white"/>
<path opacity="0.1" d="M261.968 491.051C262.056 491.482 261.873 491.944 261.277 491.944C260.681 491.944 260.486 491.594 260.398 491.162C260.31 490.731 260.362 490.381 260.958 490.381C261.554 490.381 261.88 490.619 261.968 491.051Z" fill="white"/>
<path d="M316.055 368.925C316.086 363.275 308.052 358.651 298.111 358.597C288.17 358.543 280.086 363.08 280.056 368.73C280.025 374.38 288.059 379.004 298 379.058C307.941 379.112 316.024 374.575 316.055 368.925Z" fill="black" fill-opacity="0.12"/>
<path d="M313.819 367.642C313.845 362.687 306.807 358.632 298.098 358.585C289.388 358.538 282.306 362.516 282.279 367.471C282.252 372.425 289.291 376.48 298 376.527C306.71 376.575 313.792 372.596 313.819 367.642Z" fill="black" fill-opacity="0.12"/>
<g filter="url(#filter14_diii_33_92042)">
<path d="M311.799 364.013C311.296 362.246 307.273 350 297.466 350C290.425 350.252 285.396 359.847 283.887 364.14C283.51 365.528 283.258 366.917 283.887 368.306C284.39 369.568 285.144 370.704 286.276 371.588C287.785 372.85 289.419 373.608 291.305 374.239C292.688 374.744 294.071 374.997 295.454 375.123C298.472 375.249 301.364 375.249 304.255 374.365C306.77 373.608 308.907 372.472 310.668 370.452C311.548 369.442 312.176 368.179 312.176 366.791C312.176 365.907 312.051 364.897 311.799 364.013Z" fill="#A8A29E"/>
</g>
<path opacity="0.1" d="M285.988 367.275C285.741 368.467 286.088 369.742 287.399 369.742C288.711 369.742 289.182 368.776 289.429 367.583C289.675 366.391 289.603 365.424 288.292 365.424C286.981 365.424 286.234 366.083 285.988 367.275Z" fill="black"/>
<path opacity="0.05" d="M290.958 364.461C290.835 365.057 290.98 365.695 291.576 365.695C292.172 365.695 292.396 365.211 292.519 364.615C292.642 364.019 292.619 363.536 292.023 363.536C291.427 363.536 291.081 363.865 290.958 364.461Z" fill="black"/>
<path opacity="0.05" d="M292.825 361.099C292.878 361.355 292.768 361.628 292.41 361.628C292.053 361.628 291.936 361.421 291.883 361.165C291.83 360.91 291.861 360.703 292.219 360.703C292.576 360.703 292.772 360.844 292.825 361.099Z" fill="black"/>
<path opacity="0.05" d="M310.028 369.284C310.081 369.539 309.971 369.812 309.613 369.812C309.256 369.812 309.139 369.605 309.086 369.35C309.033 369.094 309.064 368.887 309.422 368.887C309.779 368.887 309.975 369.028 310.028 369.284Z" fill="black"/>
<path opacity="0.1" d="M290.913 372.431C290.966 372.687 290.856 372.96 290.498 372.96C290.14 372.96 290.024 372.753 289.971 372.498C289.918 372.242 289.949 372.035 290.307 372.035C290.664 372.035 290.86 372.176 290.913 372.431Z" fill="black"/>
<path opacity="0.1" d="M287.772 361.313C287.649 361.909 287.795 362.547 288.391 362.547C288.987 362.547 289.21 362.064 289.333 361.467C289.457 360.871 289.433 360.388 288.837 360.388C288.241 360.388 287.896 360.717 287.772 361.313Z" fill="white"/>
<path opacity="0.1" d="M293.78 368.969C293.833 369.224 293.723 369.498 293.365 369.498C293.008 369.498 292.891 369.291 292.838 369.035C292.785 368.78 292.816 368.572 293.174 368.572C293.531 368.572 293.727 368.713 293.78 368.969Z" fill="white"/>
<path d="M124.092 456.976C124.143 447.43 110.753 439.617 94.1847 439.526C77.6164 439.435 64.1437 447.1 64.0926 456.647C64.0414 466.194 77.4313 474.006 93.9996 474.097C110.568 474.188 124.041 466.523 124.092 456.976Z" fill="black" fill-opacity="0.12"/>
<path d="M120.364 454.808C120.408 446.436 108.678 439.585 94.162 439.505C79.6464 439.426 67.8428 446.148 67.798 454.519C67.7531 462.891 79.484 469.742 93.9996 469.822C108.515 469.902 120.319 463.18 120.364 454.808Z" fill="black" fill-opacity="0.12"/>
<g filter="url(#filter15_diii_33_92042)">
<path d="M116.999 448.678C116.161 445.691 109.455 425 93.1097 425C81.3748 425.427 72.9927 441.638 70.478 448.891C69.8494 451.237 69.4303 453.584 70.478 455.93C71.3163 458.063 72.5736 459.983 74.4596 461.476C76.9742 463.609 79.6984 464.889 82.8417 465.956C85.1468 466.809 87.4519 467.236 89.7569 467.449C94.7862 467.662 99.6059 467.662 104.426 466.169C108.617 464.889 112.179 462.97 115.113 459.557C116.58 457.85 117.627 455.717 117.627 453.37C117.627 451.877 117.418 450.171 116.999 448.678Z" fill="#A8A29E"/>
</g>
<path opacity="0.1" d="M73.9805 454.189C73.5695 456.203 74.1479 458.357 76.3331 458.357C78.5182 458.357 79.3039 456.724 79.7149 454.71C80.1258 452.695 80.0064 451.062 77.8212 451.062C75.6361 451.062 74.3914 452.174 73.9805 454.189Z" fill="black"/>
<path opacity="0.05" d="M82.2645 449.434C82.059 450.441 82.302 451.518 83.2952 451.518C84.2885 451.518 84.6608 450.702 84.8662 449.694C85.0717 448.687 85.0326 447.871 84.0393 447.871C83.046 447.871 82.47 448.427 82.2645 449.434Z" fill="black"/>
<path opacity="0.05" d="M85.3761 443.754C85.4641 444.185 85.2807 444.647 84.6848 444.647C84.0888 444.647 83.894 444.297 83.8059 443.865C83.7179 443.434 83.7699 443.084 84.3659 443.084C84.9618 443.084 85.288 443.322 85.3761 443.754Z" fill="black"/>
<path opacity="0.05" d="M114.048 457.583C114.136 458.014 113.953 458.476 113.357 458.476C112.761 458.476 112.566 458.126 112.478 457.694C112.39 457.263 112.442 456.913 113.038 456.913C113.634 456.913 113.96 457.151 114.048 457.583Z" fill="black"/>
<path opacity="0.1" d="M82.1886 462.901C82.2766 463.333 82.0932 463.795 81.4973 463.795C80.9013 463.795 80.7065 463.445 80.6184 463.013C80.5304 462.581 80.5824 462.231 81.1784 462.231C81.7743 462.231 82.1005 462.47 82.1886 462.901Z" fill="black"/>
<path opacity="0.1" d="M76.9559 444.115C76.7504 445.123 76.9934 446.2 77.9866 446.2C78.9799 446.2 79.3522 445.383 79.5576 444.376C79.7631 443.368 79.724 442.552 78.7307 442.552C77.7375 442.552 77.1614 443.108 76.9559 444.115Z" fill="white"/>
<path opacity="0.1" d="M86.9679 457.051C87.0559 457.482 86.8725 457.944 86.2766 457.944C85.6806 457.944 85.4858 457.594 85.3977 457.162C85.3097 456.731 85.3617 456.381 85.9577 456.381C86.5536 456.381 86.8798 456.619 86.9679 457.051Z" fill="white"/>
<g filter="url(#filter16_ii_33_92042)">
<rect x="131.848" y="236.164" width="135.295" height="145.702" rx="67.6473" fill="#334155"/>
</g>
<g filter="url(#filter17_di_33_92042)">
<rect x="137.051" y="234.863" width="124.887" height="133.994" rx="62.4437" stroke="black" stroke-opacity="0.12" stroke-width="3.77045" shape-rendering="crispEdges"/>
</g>
<path d="M258.414 277.793H265.048C266.204 277.793 267.142 276.855 267.142 275.698V254.377C267.142 217.016 236.856 186.729 199.495 186.729C162.134 186.729 131.848 217.016 131.848 254.377V275.698C131.848 276.855 132.786 277.793 133.942 277.793H140.576" stroke="#334155" stroke-width="8"/>
<path d="M137.051 267.132C137.051 266.554 137.52 266.085 138.098 266.085H145.11C145.688 266.085 146.157 266.554 146.157 267.132V276.492H137.051V267.132Z" fill="#64748B"/>
<path d="M137.051 276.492H146.157V286.899H139.128C138.594 286.899 138.145 286.497 138.087 285.966L137.051 276.492Z" fill="#475569"/>
<path d="M261.939 267.132C261.939 266.554 261.471 266.085 260.892 266.085H253.88C253.302 266.085 252.833 266.554 252.833 267.132V276.492H261.939V267.132Z" fill="#64748B"/>
<path d="M261.939 276.492H252.833V286.899H259.862C260.396 286.899 260.845 286.497 260.903 285.966L261.939 276.492Z" fill="#475569"/>
<g filter="url(#filter18_dii_33_92042)">
<rect x="142.256" y="221.854" width="114.48" height="114.48" rx="57.2401" fill="#334155"/>
</g>
<rect x="142.256" y="216.65" width="114.48" height="114.48" rx="57.2401" fill="#64748B"/>
<rect x="150.061" y="223.155" width="100.17" height="100.17" rx="50.085" fill="#334155"/>
<rect x="150.061" y="223.155" width="100.17" height="100.17" rx="50.085" fill="black" fill-opacity="0.12"/>
<mask id="mask0_33_92042" style="mask-type:alpha" maskUnits="userSpaceOnUse" x="150" y="233" width="101" height="101">
<rect x="150.061" y="233.562" width="100.17" height="100.17" rx="50.085" fill="#82644D"/>
</mask>
<g mask="url(#mask0_33_92042)">
<rect x="150.061" y="223.155" width="100.17" height="100.17" rx="50.085" fill="black" fill-opacity="0.4"/>
</g>
<mask id="mask1_33_92042" style="mask-type:alpha" maskUnits="userSpaceOnUse" x="150" y="224" width="101" height="101">
<rect x="150.061" y="224.456" width="100.17" height="100.17" rx="50.085" fill="#334155"/>
</mask>
<g mask="url(#mask1_33_92042)">
<g filter="url(#filter19_i_33_92042)">
<ellipse cx="200.146" cy="284.948" rx="50.085" ry="50.0851" fill="#9A3412"/>
</g>
<rect opacity="0.75" width="23.4164" height="6.50455" rx="3.25228" transform="matrix(-1 0 0 1 229.416 256.978)" fill="#C2410C"/>
<rect opacity="0.75" width="18.2127" height="5.20364" rx="2.60182" transform="matrix(-1 0 0 1 217.707 303.811)" fill="#CA8A04"/>
<rect opacity="0.75" width="9.10637" height="2.60182" rx="1.30091" transform="matrix(-1 0 0 1 237.221 290.802)" fill="#CA8A04"/>
<rect opacity="0.75" x="176.078" y="273.89" width="20.8146" height="6.50455" rx="3.25228" fill="#EAB308"/>
<rect opacity="0.75" width="10.4073" height="2.60182" rx="1.30091" transform="matrix(-1 0 0 1 168.273 293.404)" fill="#C2410C"/>
<rect opacity="0.75" width="7.80546" height="2.60182" rx="1.30091" transform="matrix(-1 0 0 1 187.787 249.173)" fill="#C2410C"/>
</g>
<g filter="url(#filter20_ii_33_92042)">
<path d="M203 81C203 81 203 147.413 203 192" stroke="#7C2D12" stroke-width="8" stroke-linecap="round"/>
</g>
<g filter="url(#filter21_ii_33_92042)">
<path d="M198.193 184.127C198.193 184.127 203.117 189.11 206.423 192.455" stroke="#7C2D12" stroke-width="8" stroke-linecap="round"/>
</g>
<g filter="url(#filter22_ii_33_92042)">
<path d="M206 184.127C206 184.127 201.076 189.11 197.77 192.455" stroke="#7C2D12" stroke-width="8" stroke-linecap="round"/>
</g>
<g filter="url(#filter23_ii_33_92042)">
<path d="M218.983 40.5167C221.872 34.3324 229.229 31.6545 235.417 34.5355C241.604 37.4164 244.279 44.7652 241.391 50.9495L26.9764 510.053L4.56873 499.62L218.983 40.5167Z" fill="#A6815E"/>
</g>
<path d="M11.1741 513.457C10.866 513.302 10.76 513.021 10.7216 512.868C10.7091 512.819 10.7014 512.768 10.6948 512.72C10.6002 512.739 10.4826 512.761 10.3697 512.77C10.2682 512.778 10.0433 512.791 9.82017 512.687L9.72479 512.635L9.30776 512.358C7.25123 510.946 5.68355 509.122 4.86838 507.049C3.99405 504.826 4.00105 502.355 5.15136 499.892C5.38917 499.382 5.77455 499.045 6.08774 498.794C6.43628 498.514 6.65996 498.362 6.83656 498.148C7.01409 497.933 7.12679 497.679 7.32121 497.302C7.4929 496.969 7.73689 496.528 8.17029 496.224C11.3582 493.989 15.7924 494.076 19.904 495.99C22.1989 497.059 24.1096 498.561 25.4153 500.351C25.5639 500.555 25.5805 500.777 25.5562 500.94C25.534 501.089 25.4764 501.212 25.4337 501.29C25.4128 501.328 25.3895 501.367 25.3651 501.405C25.4687 501.417 25.5787 501.432 25.679 501.455C25.7662 501.475 25.8798 501.507 25.9909 501.562C26.0951 501.615 26.2718 501.726 26.3771 501.943C27.5371 504.331 27.6641 507.059 26.3926 509.781C25.0876 512.576 22.8323 514.245 20.1684 514.856C17.5232 515.462 14.5117 515.02 11.6409 513.683C11.4836 513.61 11.3276 513.534 11.1741 513.457Z" fill="#C8A078" stroke="#82644D" stroke-width="1.31521"/>
<path opacity="0.5" fill-rule="evenodd" clip-rule="evenodd" d="M19.3482 512.531C21.3068 512.204 22.9048 511.15 23.7775 509.281C24.6503 507.413 24.4315 505.513 23.4238 503.805C22.4111 502.088 20.5955 500.557 18.2754 499.477C15.9553 498.397 13.6139 497.992 11.6458 498.321C9.6872 498.648 8.08917 499.702 7.21646 501.571C6.34375 503.439 6.56251 505.339 7.57023 507.047C8.58291 508.764 10.3985 510.295 12.7186 511.375C15.0387 512.455 17.3801 512.86 19.3482 512.531ZM19.4782 513.117C17.3538 513.473 14.8784 513.03 12.4693 511.909C10.0603 510.787 8.12985 509.178 7.03682 507.325C5.93883 505.463 5.69225 503.363 6.65188 501.308C7.6115 499.253 9.38185 498.091 11.5158 497.734C13.6402 497.379 16.1156 497.821 18.5247 498.943C20.9337 500.065 22.8642 501.674 23.9572 503.527C25.0552 505.389 25.3018 507.489 24.3421 509.544C23.3825 511.599 21.6122 512.761 19.4782 513.117Z" fill="#A6815E"/>
<path opacity="0.5" fill-rule="evenodd" clip-rule="evenodd" d="M19.2022 508.895C20.4309 508.721 21.4133 508.104 21.9345 506.988C22.4556 505.872 22.2975 504.724 21.6413 503.672C20.9797 502.612 19.8065 501.646 18.3067 500.947C16.8069 500.249 15.3115 499.973 14.0725 500.149C12.8439 500.323 11.8615 500.94 11.3403 502.056C10.8191 503.171 10.9772 504.319 11.6334 505.371C12.2951 506.432 13.4682 507.398 14.968 508.096C16.4678 508.794 17.9632 509.071 19.2022 508.895ZM19.3386 509.506C17.9366 509.705 16.302 509.388 14.7107 508.647C13.1194 507.906 11.8256 506.86 11.0769 505.66C10.3227 504.451 10.1269 503.09 10.7406 501.776C11.3543 500.462 12.5239 499.738 13.9362 499.537C15.3381 499.339 16.9728 499.655 18.5641 500.396C20.1554 501.137 21.4491 502.184 22.1978 503.384C22.9521 504.593 23.1478 505.953 22.5341 507.267C21.9204 508.581 20.7509 509.306 19.3386 509.506Z" fill="#A6815E"/>
<path opacity="0.5" fill-rule="evenodd" clip-rule="evenodd" d="M16.3985 506.951C16.9535 506.953 17.3762 506.781 17.5604 506.387C17.7446 505.992 17.6049 505.559 17.2465 505.135C16.8803 504.703 16.2682 504.264 15.4905 503.902C14.7128 503.54 13.9822 503.354 13.4152 503.352C12.8601 503.349 12.4375 503.521 12.2533 503.916C12.0691 504.31 12.2087 504.744 12.5671 505.167C12.9333 505.6 13.5455 506.039 14.3232 506.401C15.1008 506.763 15.8314 506.949 16.3985 506.951ZM16.755 507.613C15.9604 507.61 15.0132 507.353 14.0811 506.919C13.149 506.485 12.3432 505.926 11.8301 505.32C11.3092 504.705 11.1082 504.062 11.3688 503.504C11.6294 502.946 12.2521 502.686 13.0587 502.69C13.8532 502.693 14.8005 502.949 15.7325 503.383C16.6646 503.817 17.4704 504.377 17.9835 504.983C18.5044 505.597 18.7055 506.241 18.4449 506.799C18.1843 507.357 17.5615 507.616 16.755 507.613Z" fill="#A6815E"/>
<path opacity="0.5" fill-rule="evenodd" clip-rule="evenodd" d="M17.0798 506.116C17.0804 506.116 17.0777 506.116 17.07 506.115C17.0754 506.115 17.0792 506.115 17.0798 506.116ZM16.873 506.067C16.6812 506.009 16.4023 505.902 16.0656 505.745C15.7288 505.588 15.4678 505.444 15.2999 505.334C15.4917 505.392 15.7706 505.499 16.1074 505.656C16.4442 505.813 16.7051 505.957 16.873 506.067ZM15.1296 505.208C15.1302 505.208 15.133 505.21 15.1361 505.215C15.1305 505.209 15.129 505.207 15.1296 505.208ZM15.1029 505.286C15.0975 505.286 15.0937 505.286 15.0931 505.286C15.0926 505.285 15.0953 505.285 15.1029 505.286ZM17.0368 506.186C17.0424 506.192 17.044 506.194 17.0434 506.194C17.0428 506.193 17.04 506.191 17.0368 506.186ZM17.3318 506.865C16.873 506.744 16.3327 506.533 15.8112 506.29C15.2898 506.047 14.78 505.77 14.3929 505.496C14.0174 505.231 13.6096 504.855 13.7278 504.602C13.846 504.349 14.396 504.42 14.8411 504.537C15.3 504.657 15.8402 504.868 16.3617 505.111C16.8832 505.354 17.3929 505.631 17.78 505.905C18.1555 506.17 18.5634 506.546 18.4452 506.799C18.327 507.052 17.7769 506.981 17.3318 506.865Z" fill="#A6815E"/>
<path opacity="0.1" d="M167.116 185.391C162.404 195.481 157.57 206.366 158.012 206.572C158.453 206.777 162.364 198.64 167.077 188.55C171.789 178.46 175.518 170.237 175.077 170.032C174.636 169.826 171.829 175.301 167.116 185.391Z" fill="white"/>
<path opacity="0.1" d="M130.236 248.989C126.132 257.777 121.948 267.271 122.389 267.476C122.831 267.681 126.249 260.6 130.354 251.811C134.458 243.023 137.694 235.857 137.253 235.651C136.811 235.446 134.34 240.201 130.236 248.989Z" fill="white"/>
<path opacity="0.1" d="M181.43 142.445C178.694 148.304 176.179 154.76 177.061 155.171C177.944 155.582 180.345 150.917 183.081 145.059C185.817 139.2 187.852 134.365 186.97 133.954C186.087 133.543 184.166 136.586 181.43 142.445Z" fill="black"/>
<path opacity="0.1" d="M130.863 275.316C128.127 281.175 125.406 287.535 125.848 287.741C126.289 287.946 128.598 283.239 131.335 277.381C134.071 271.522 136.198 266.73 135.756 266.524C135.315 266.319 133.599 269.457 130.863 275.316Z" fill="white"/>
<path opacity="0.1" d="M112.068 306.336C106.596 318.053 101.155 330.774 102.037 331.185C102.92 331.596 107.539 322.182 113.011 310.465C118.484 298.747 122.737 289.163 121.855 288.752C120.972 288.341 117.54 294.618 112.068 306.336Z" fill="black"/>
<path opacity="0.1" d="M191.888 150.798C186.872 161.539 181.302 172.93 180.861 172.724C180.419 172.519 184.395 163.769 189.411 153.028C194.428 142.287 198.586 133.622 199.027 133.827C199.468 134.033 196.904 140.057 191.888 150.798Z" fill="white"/>
<path opacity="0.1" d="M214.221 99.9019C210.877 107.063 206.89 114.529 206.007 114.118C205.125 113.707 207.653 107.817 210.997 100.656C214.342 93.4952 217.235 87.7754 218.118 88.1863C219 88.5971 217.565 92.7412 214.221 99.9019Z" fill="black"/>
<path opacity="0.1" d="M207.618 80.2228C204.122 87.709 200.178 95.6185 199.737 95.4131C199.295 95.2077 202.038 89.0963 205.535 81.6101C209.031 74.1239 211.957 68.0976 212.398 68.303C212.839 68.5085 211.115 72.7365 207.618 80.2228Z" fill="white"/>
<path opacity="0.1" d="M106.88 295.925C103.384 303.411 99.4396 311.321 98.9984 311.115C98.5571 310.91 101.3 304.798 104.796 297.312C108.293 289.826 111.218 283.8 111.66 284.005C112.101 284.21 110.376 288.439 106.88 295.925Z" fill="black"/>
<path opacity="0.1" d="M183.319 123.029C179.215 131.817 174.62 141.119 174.179 140.914C173.738 140.708 176.974 133.542 181.078 124.753C185.183 115.965 188.601 108.883 189.042 109.089C189.484 109.294 187.424 114.241 183.319 123.029Z" fill="white"/>
<path opacity="0.1" d="M144.391 209.455C138.919 221.173 132.861 233.607 132.42 233.401C131.979 233.196 136.324 223.655 141.796 211.937C147.269 200.219 151.796 190.763 152.238 190.968C152.679 191.174 149.864 197.737 144.391 209.455Z" fill="black"/>
<g filter="url(#filter24_ii_33_92042)">
<path d="M178.706 21.0031C175.818 14.8188 168.46 12.1409 162.273 15.0218C156.085 17.9027 153.41 25.2515 156.299 31.4358L385.026 521.185L407.433 510.753L178.706 21.0031Z" fill="#A6815E"/>
</g>
<path d="M400.828 524.59C401.136 524.434 401.242 524.153 401.28 524.001C401.293 523.951 401.301 523.901 401.307 523.853C401.402 523.871 401.519 523.893 401.632 523.903C401.734 523.911 401.959 523.924 402.182 523.819L402.277 523.767L402.694 523.49C404.751 522.079 406.318 520.254 407.134 518.182C408.008 515.959 408.001 513.487 406.851 511.024C406.613 510.515 406.227 510.177 405.914 509.926C405.566 509.647 405.342 509.494 405.165 509.28C404.988 509.066 404.875 508.811 404.681 508.434C404.509 508.101 404.265 507.661 403.832 507.357C400.644 505.121 396.21 505.208 392.098 507.123C389.803 508.191 387.892 509.694 386.587 511.483C386.438 511.687 386.421 511.909 386.446 512.072C386.468 512.221 386.526 512.344 386.568 512.423C386.589 512.461 386.612 512.5 386.637 512.537C386.533 512.55 386.423 512.564 386.323 512.587C386.236 512.607 386.122 512.639 386.011 512.695C385.907 512.747 385.73 512.859 385.625 513.075C384.465 515.463 384.338 518.191 385.609 520.914C386.914 523.708 389.17 525.377 391.834 525.988C394.479 526.595 397.49 526.152 400.361 524.815C400.518 524.742 400.674 524.667 400.828 524.59Z" fill="#C8A078" stroke="#82644D" stroke-width="1.31521"/>
<path opacity="0.5" fill-rule="evenodd" clip-rule="evenodd" d="M392.654 523.663C390.695 523.336 389.097 522.282 388.224 520.414C387.352 518.545 387.57 516.645 388.578 514.937C389.591 513.22 391.406 511.69 393.727 510.609C396.047 509.529 398.388 509.124 400.356 509.453C402.315 509.781 403.913 510.834 404.785 512.703C405.658 514.572 405.439 516.471 404.432 518.18C403.419 519.897 401.603 521.427 399.283 522.507C396.963 523.588 394.622 523.993 392.654 523.663ZM392.524 524.25C394.648 524.605 397.124 524.163 399.533 523.041C401.942 521.92 403.872 520.311 404.965 518.457C406.063 516.596 406.31 514.495 405.35 512.44C404.39 510.385 402.62 509.224 400.486 508.867C398.362 508.512 395.886 508.954 393.477 510.076C391.068 511.197 389.138 512.806 388.045 514.659C386.947 516.521 386.7 518.622 387.66 520.677C388.619 522.731 390.39 523.893 392.524 524.25Z" fill="#A6815E"/>
<path opacity="0.5" fill-rule="evenodd" clip-rule="evenodd" d="M392.8 520.028C391.571 519.853 390.589 519.236 390.067 518.12C389.546 517.005 389.704 515.857 390.361 514.805C391.022 513.744 392.195 512.778 393.695 512.08C395.195 511.382 396.69 511.105 397.929 511.281C399.158 511.455 400.14 512.072 400.662 513.188C401.183 514.304 401.025 515.452 400.369 516.504C399.707 517.564 398.534 518.53 397.034 519.229C395.534 519.927 394.039 520.203 392.8 520.028ZM392.663 520.639C394.065 520.837 395.7 520.521 397.291 519.78C398.883 519.039 400.176 517.992 400.925 516.792C401.679 515.583 401.875 514.223 401.261 512.909C400.648 511.595 399.478 510.87 398.066 510.67C396.664 510.471 395.029 510.788 393.438 511.529C391.847 512.27 390.553 513.316 389.804 514.516C389.05 515.725 388.854 517.086 389.468 518.4C390.082 519.714 391.251 520.438 392.663 520.639Z" fill="#A6815E"/>
<path opacity="0.5" fill-rule="evenodd" clip-rule="evenodd" d="M395.603 518.084C395.048 518.086 394.626 517.914 394.442 517.519C394.257 517.125 394.397 516.691 394.755 516.268C395.122 515.836 395.734 515.396 396.511 515.034C397.289 514.672 398.02 514.486 398.587 514.484C399.142 514.482 399.564 514.654 399.749 515.048C399.933 515.443 399.793 515.877 399.435 516.3C399.069 516.732 398.456 517.171 397.679 517.534C396.901 517.896 396.171 518.081 395.603 518.084ZM395.247 518.746C396.042 518.742 396.989 518.486 397.921 518.052C398.853 517.618 399.659 517.058 400.172 516.453C400.693 515.838 400.894 515.194 400.633 514.637C400.373 514.079 399.75 513.819 398.943 513.822C398.149 513.825 397.201 514.082 396.269 514.516C395.337 514.95 394.532 515.509 394.018 516.115C393.498 516.73 393.296 517.373 393.557 517.931C393.818 518.489 394.44 518.749 395.247 518.746Z" fill="#A6815E"/>
<path opacity="0.5" fill-rule="evenodd" clip-rule="evenodd" d="M394.922 517.248C394.922 517.248 394.924 517.248 394.932 517.248C394.927 517.247 394.923 517.248 394.922 517.248ZM395.129 517.199C395.321 517.141 395.6 517.035 395.936 516.878C396.273 516.721 396.534 516.576 396.702 516.467C396.51 516.525 396.231 516.631 395.895 516.788C395.558 516.945 395.297 517.09 395.129 517.199ZM396.872 516.34C396.872 516.34 396.869 516.343 396.866 516.347C396.871 516.342 396.873 516.34 396.872 516.34ZM396.899 516.418C396.904 516.419 396.908 516.418 396.909 516.418C396.909 516.418 396.907 516.417 396.899 516.418ZM394.965 517.319C394.96 517.324 394.958 517.326 394.959 517.326C394.959 517.326 394.962 517.323 394.965 517.319ZM394.67 517.997C395.129 517.877 395.669 517.665 396.191 517.422C396.712 517.18 397.222 516.902 397.609 516.629C397.985 516.363 398.392 515.988 398.274 515.735C398.156 515.482 397.606 515.552 397.161 515.669C396.702 515.789 396.162 516.001 395.64 516.244C395.119 516.486 394.609 516.764 394.222 517.037C393.846 517.303 393.439 517.678 393.557 517.931C393.675 518.184 394.225 518.113 394.67 517.997Z" fill="#A6815E"/>
<path opacity="0.1" d="M235.451 176.317C240.468 187.058 245.626 198.639 245.185 198.845C244.744 199.05 240.586 190.385 235.569 179.644C230.553 168.903 226.578 160.153 227.019 159.948C227.46 159.742 230.435 165.576 235.451 176.317Z" fill="white"/>
<path opacity="0.1" d="M273.982 243.452C278.39 252.891 282.899 263.08 282.458 263.285C282.016 263.491 278.351 255.881 273.943 246.442C269.535 237.003 266.052 229.309 266.494 229.103C266.935 228.898 269.574 234.012 273.982 243.452Z" fill="white"/>
<path opacity="0.1" d="M219.8 130.509C222.688 136.693 225.366 143.497 224.483 143.908C223.601 144.319 221.077 139.391 218.189 133.207C215.3 127.022 213.142 121.924 214.024 121.513C214.907 121.102 216.912 124.324 219.8 130.509Z" fill="black"/>
<path opacity="0.1" d="M273.67 270.452C276.558 276.636 279.441 283.345 279 283.55C278.558 283.756 276.126 278.785 273.237 272.601C270.349 266.416 268.099 261.36 268.54 261.155C268.982 260.95 270.781 264.268 273.67 270.452Z" fill="white"/>
<path opacity="0.1" d="M292.306 304.21C298.235 316.904 304.369 330.573 303.927 330.779C303.486 330.984 298.589 320.736 292.66 308.042C286.732 295.348 282.017 285.015 282.458 284.81C282.9 284.604 286.378 291.515 292.306 304.21Z" fill="black"/>
<path opacity="0.1" d="M209.578 139.367C214.898 150.759 220.793 162.846 221.234 162.64C221.676 162.435 217.454 153.157 212.134 141.765C206.813 130.373 202.409 121.18 201.967 121.386C201.526 121.591 204.258 127.975 209.578 139.367Z" fill="white"/>
<path opacity="0.1" d="M185.905 85.6083C189.402 93.0945 193.551 100.908 194.434 100.498C195.316 100.087 192.665 93.9328 189.168 86.4465C185.672 78.9603 182.655 72.9766 181.773 73.3874C180.89 73.7983 182.409 78.122 185.905 85.6083Z" fill="black"/>
<path opacity="0.1" d="M191.646 64.0768C195.447 72.214 199.716 80.8197 200.157 80.6143C200.599 80.4088 197.609 73.7698 193.809 65.6325C190.009 57.4953 186.836 50.9413 186.395 51.1468C185.954 51.3522 187.846 55.9396 191.646 64.0768Z" fill="white"/>
<path opacity="0.1" d="M298.99 293.923C302.791 302.06 307.06 310.666 307.501 310.461C307.942 310.255 304.953 303.616 301.153 295.479C297.352 287.342 294.18 280.788 293.739 280.993C293.298 281.199 295.19 285.786 298.99 293.923Z" fill="black"/>
<path opacity="0.1" d="M217.596 110.419C222.004 119.859 226.924 129.857 227.365 129.651C227.806 129.446 224.324 121.751 219.916 112.312C215.507 102.873 211.842 95.2634 211.401 95.4688C210.96 95.6742 213.188 100.98 217.596 110.419Z" fill="white"/>
<path opacity="0.1" d="M258.963 202.065C264.892 214.759 271.437 228.238 271.878 228.032C272.319 227.827 267.604 217.494 261.676 204.8C255.747 192.106 250.85 181.858 250.409 182.063C249.968 182.268 253.035 189.371 258.963 202.065Z" fill="black"/>
<mask id="mask2_33_92042" style="mask-type:alpha" maskUnits="userSpaceOnUse" x="161" y="84" width="75" height="58">
<path d="M190.465 104.152L182.497 87.6887L161.749 141.799L225.535 141.778L235.914 102.569L225.554 84.5381L215 106.5L190.465 104.152Z" fill="black"/>
</mask>
<g mask="url(#mask2_33_92042)">
<g filter="url(#filter25_ii_33_92042)">
<circle cx="22.1155" cy="22.1155" r="18.1155" transform="matrix(1 -0.000328462 -0.0003296 1 179.98 89.1609)" stroke="#7C2D12" stroke-width="8"/>
</g>
<g filter="url(#filter26_ii_33_92042)">
<path d="M202.094 85.3482C211.753 85.345 220.207 94.6701 220.203 105.038C220.2 114.662 212.488 121.575 202.082 121.579C192.078 121.582 183.97 113.474 183.973 103.469C183.977 93.4647 192.09 85.3516 202.094 85.3482Z" stroke="#7C2D12" stroke-width="8"/>
</g>
</g>
<defs>
<filter id="filter0_iii_33_92042" x="186.18" y="9.00212" width="31.0298" height="309.119" filterUnits="userSpaceOnUse" color-interpolation-filters="sRGB">
<feFlood flood-opacity="0" result="BackgroundImageFix"/>
<feBlend mode="normal" in="SourceGraphic" in2="BackgroundImageFix" result="shape"/>
<feColorMatrix in="SourceAlpha" type="matrix" values="0 0 0 0 0 0 0 0 0 0 0 0 0 0 0 0 0 0 127 0" result="hardAlpha"/>
<feOffset dx="2.10433" dy="-2.10433"/>
<feGaussianBlur stdDeviation="4.20866"/>
<feComposite in2="hardAlpha" operator="arithmetic" k2="-1" k3="1"/>
<feColorMatrix type="matrix" values="0 0 0 0 0 0 0 0 0 0 0 0 0 0 0 0 0 0 0.45 0"/>
<feBlend mode="normal" in2="shape" result="effect1_innerShadow_33_92042"/>
<feColorMatrix in="SourceAlpha" type="matrix" values="0 0 0 0 0 0 0 0 0 0 0 0 0 0 0 0 0 0 127 0" result="hardAlpha"/>
<feOffset dx="-4.20866"/>
<feGaussianBlur stdDeviation="3.15649"/>
<feComposite in2="hardAlpha" operator="arithmetic" k2="-1" k3="1"/>
<feColorMatrix type="matrix" values="0 0 0 0 1 0 0 0 0 1 0 0 0 0 1 0 0 0 0.25 0"/>
<feBlend mode="normal" in2="effect1_innerShadow_33_92042" result="effect2_innerShadow_33_92042"/>
<feColorMatrix in="SourceAlpha" type="matrix" values="0 0 0 0 0 0 0 0 0 0 0 0 0 0 0 0 0 0 127 0" result="hardAlpha"/>
<feOffset dx="-31.2218" dy="5.20364"/>
<feGaussianBlur stdDeviation="2.60182"/>
<feComposite in2="hardAlpha" operator="arithmetic" k2="-1" k3="1"/>
<feColorMatrix type="matrix" values="0 0 0 0 0 0 0 0 0 0 0 0 0 0 0 0 0 0 0.25 0"/>
<feBlend mode="normal" in2="effect2_innerShadow_33_92042" result="effect3_innerShadow_33_92042"/>
</filter>
<filter id="filter1_i_33_92042" x="118" y="376" width="26" height="25" filterUnits="userSpaceOnUse" color-interpolation-filters="sRGB">
<feFlood flood-opacity="0" result="BackgroundImageFix"/>
<feBlend mode="normal" in="SourceGraphic" in2="BackgroundImageFix" result="shape"/>
<feColorMatrix in="SourceAlpha" type="matrix" values="0 0 0 0 0 0 0 0 0 0 0 0 0 0 0 0 0 0 127 0" result="hardAlpha"/>
<feOffset dx="-2" dy="-1"/>
<feGaussianBlur stdDeviation="3.5"/>
<feComposite in2="hardAlpha" operator="arithmetic" k2="-1" k3="1"/>
<feColorMatrix type="matrix" values="0 0 0 0 1 0 0 0 0 1 0 0 0 0 1 0 0 0 0.25 0"/>
<feBlend mode="normal" in2="shape" result="effect1_innerShadow_33_92042"/>
</filter>
<filter id="filter2_i_33_92042" x="104" y="342" width="180" height="151" filterUnits="userSpaceOnUse" color-interpolation-filters="sRGB">
<feFlood flood-opacity="0" result="BackgroundImageFix"/>
<feBlend mode="normal" in="SourceGraphic" in2="BackgroundImageFix" result="shape"/>
<feColorMatrix in="SourceAlpha" type="matrix" values="0 0 0 0 0 0 0 0 0 0 0 0 0 0 0 0 0 0 127 0" result="hardAlpha"/>
<feOffset dx="-16" dy="4"/>
<feGaussianBlur stdDeviation="14"/>
<feComposite in2="hardAlpha" operator="arithmetic" k2="-1" k3="1"/>
<feColorMatrix type="matrix" values="0 0 0 0 1 0 0 0 0 1 0 0 0 0 1 0 0 0 0.25 0"/>
<feBlend mode="normal" in2="shape" result="effect1_innerShadow_33_92042"/>
</filter>
<filter id="filter3_d_33_92042" x="173.17" y="339.233" width="61.8301" height="153.539" filterUnits="userSpaceOnUse" color-interpolation-filters="sRGB">
<feFlood flood-opacity="0" result="BackgroundImageFix"/>
<feColorMatrix in="SourceAlpha" type="matrix" values="0 0 0 0 0 0 0 0 0 0 0 0 0 0 0 0 0 0 127 0" result="hardAlpha"/>
<feOffset dy="4"/>
<feComposite in2="hardAlpha" operator="out"/>
<feColorMatrix type="matrix" values="0 0 0 0 0 0 0 0 0 0 0 0 0 0 0 0 0 0 0.25 0"/>
<feBlend mode="normal" in2="BackgroundImageFix" result="effect1_dropShadow_33_92042"/>
<feBlend mode="normal" in="SourceGraphic" in2="effect1_dropShadow_33_92042" result="shape"/>
</filter>
<filter id="filter4_ii_33_92042" x="168.158" y="334.254" width="70.7227" height="145.329" filterUnits="userSpaceOnUse" color-interpolation-filters="sRGB">
<feFlood flood-opacity="0" result="BackgroundImageFix"/>
<feBlend mode="normal" in="SourceGraphic" in2="BackgroundImageFix" result="shape"/>
<feColorMatrix in="SourceAlpha" type="matrix" values="0 0 0 0 0 0 0 0 0 0 0 0 0 0 0 0 0 0 127 0" result="hardAlpha"/>
<feOffset dx="8" dy="-8"/>
<feGaussianBlur stdDeviation="4"/>
<feComposite in2="hardAlpha" operator="arithmetic" k2="-1" k3="1"/>
<feColorMatrix type="matrix" values="0 0 0 0 0 0 0 0 0 0 0 0 0 0 0 0 0 0 0.25 0"/>
<feBlend mode="normal" in2="shape" result="effect1_innerShadow_33_92042"/>
<feColorMatrix in="SourceAlpha" type="matrix" values="0 0 0 0 0 0 0 0 0 0 0 0 0 0 0 0 0 0 127 0" result="hardAlpha"/>
<feOffset dx="-8" dy="8"/>
<feGaussianBlur stdDeviation="4"/>
<feComposite in2="hardAlpha" operator="arithmetic" k2="-1" k3="1"/>
<feColorMatrix type="matrix" values="0 0 0 0 1 0 0 0 0 1 0 0 0 0 1 0 0 0 0.25 0"/>
<feBlend mode="normal" in2="effect1_innerShadow_33_92042" result="effect2_innerShadow_33_92042"/>
</filter>
<filter id="filter5_i_33_92042" x="200.018" y="453.729" width="31.9922" height="32.0226" filterUnits="userSpaceOnUse" color-interpolation-filters="sRGB">
<feFlood flood-opacity="0" result="BackgroundImageFix"/>
<feBlend mode="normal" in="SourceGraphic" in2="BackgroundImageFix" result="shape"/>
<feColorMatrix in="SourceAlpha" type="matrix" values="0 0 0 0 0 0 0 0 0 0 0 0 0 0 0 0 0 0 127 0" result="hardAlpha"/>
<feOffset dx="-1" dy="-1"/>
<feComposite in2="hardAlpha" operator="arithmetic" k2="-1" k3="1"/>
<feColorMatrix type="matrix" values="0 0 0 0 1 0 0 0 0 1 0 0 0 0 1 0 0 0 0.15 0"/>
<feBlend mode="normal" in2="shape" result="effect1_innerShadow_33_92042"/>
</filter>
<filter id="filter6_i_33_92042" x="128.691" y="335" width="132.697" height="113.693" filterUnits="userSpaceOnUse" color-interpolation-filters="sRGB">
<feFlood flood-opacity="0" result="BackgroundImageFix"/>
<feBlend mode="normal" in="SourceGraphic" in2="BackgroundImageFix" result="shape"/>
<feColorMatrix in="SourceAlpha" type="matrix" values="0 0 0 0 0 0 0 0 0 0 0 0 0 0 0 0 0 0 127 0" result="hardAlpha"/>
<feOffset dx="40" dy="-32"/>
<feGaussianBlur stdDeviation="2"/>
<feComposite in2="hardAlpha" operator="arithmetic" k2="-1" k3="1"/>
<feColorMatrix type="matrix" values="0 0 0 0 0 0 0 0 0 0 0 0 0 0 0 0 0 0 0.25 0"/>
<feBlend mode="normal" in2="shape" result="effect1_innerShadow_33_92042"/>
</filter>
<filter id="filter7_ii_33_92042" x="127.104" y="342.586" width="123.619" height="107.656" filterUnits="userSpaceOnUse" color-interpolation-filters="sRGB">
<feFlood flood-opacity="0" result="BackgroundImageFix"/>
<feBlend mode="normal" in="SourceGraphic" in2="BackgroundImageFix" result="shape"/>
<feColorMatrix in="SourceAlpha" type="matrix" values="0 0 0 0 0 0 0 0 0 0 0 0 0 0 0 0 0 0 127 0" result="hardAlpha"/>
<feOffset dx="8" dy="-8"/>
<feGaussianBlur stdDeviation="4"/>
<feComposite in2="hardAlpha" operator="arithmetic" k2="-1" k3="1"/>
<feColorMatrix type="matrix" values="0 0 0 0 0 0 0 0 0 0 0 0 0 0 0 0 0 0 0.25 0"/>
<feBlend mode="normal" in2="shape" result="effect1_innerShadow_33_92042"/>
<feColorMatrix in="SourceAlpha" type="matrix" values="0 0 0 0 0 0 0 0 0 0 0 0 0 0 0 0 0 0 127 0" result="hardAlpha"/>
<feOffset dx="-8" dy="8"/>
<feGaussianBlur stdDeviation="4"/>
<feComposite in2="hardAlpha" operator="arithmetic" k2="-1" k3="1"/>
<feColorMatrix type="matrix" values="0 0 0 0 1 0 0 0 0 1 0 0 0 0 1 0 0 0 0.25 0"/>
<feBlend mode="normal" in2="effect1_innerShadow_33_92042" result="effect2_innerShadow_33_92042"/>
</filter>
<filter id="filter8_i_33_92042" x="219.064" y="345.451" width="31.9141" height="32.089" filterUnits="userSpaceOnUse" color-interpolation-filters="sRGB">
<feFlood flood-opacity="0" result="BackgroundImageFix"/>
<feBlend mode="normal" in="SourceGraphic" in2="BackgroundImageFix" result="shape"/>
<feColorMatrix in="SourceAlpha" type="matrix" values="0 0 0 0 0 0 0 0 0 0 0 0 0 0 0 0 0 0 127 0" result="hardAlpha"/>
<feOffset dx="-1" dy="-1"/>
<feComposite in2="hardAlpha" operator="arithmetic" k2="-1" k3="1"/>
<feColorMatrix type="matrix" values="0 0 0 0 1 0 0 0 0 1 0 0 0 0 1 0 0 0 0.15 0"/>
<feBlend mode="normal" in2="shape" result="effect1_innerShadow_33_92042"/>
</filter>
<filter id="filter9_ii_33_92042" x="160.73" y="365.103" width="123.576" height="79.587" filterUnits="userSpaceOnUse" color-interpolation-filters="sRGB">
<feFlood flood-opacity="0" result="BackgroundImageFix"/>
<feBlend mode="normal" in="SourceGraphic" in2="BackgroundImageFix" result="shape"/>
<feColorMatrix in="SourceAlpha" type="matrix" values="0 0 0 0 0 0 0 0 0 0 0 0 0 0 0 0 0 0 127 0" result="hardAlpha"/>
<feOffset dx="8" dy="-8"/>
<feGaussianBlur stdDeviation="4"/>
<feComposite in2="hardAlpha" operator="arithmetic" k2="-1" k3="1"/>
<feColorMatrix type="matrix" values="0 0 0 0 0 0 0 0 0 0 0 0 0 0 0 0 0 0 0.25 0"/>
<feBlend mode="normal" in2="shape" result="effect1_innerShadow_33_92042"/>
<feColorMatrix in="SourceAlpha" type="matrix" values="0 0 0 0 0 0 0 0 0 0 0 0 0 0 0 0 0 0 127 0" result="hardAlpha"/>
<feOffset dx="-8" dy="8"/>
<feGaussianBlur stdDeviation="4"/>
<feComposite in2="hardAlpha" operator="arithmetic" k2="-1" k3="1"/>
<feColorMatrix type="matrix" values="0 0 0 0 1 0 0 0 0 1 0 0 0 0 1 0 0 0 0.25 0"/>
<feBlend mode="normal" in2="effect1_innerShadow_33_92042" result="effect2_innerShadow_33_92042"/>
</filter>
<filter id="filter10_ii_33_92042" x="156.646" y="370.788" width="31.9668" height="32.0507" filterUnits="userSpaceOnUse" color-interpolation-filters="sRGB">
<feFlood flood-opacity="0" result="BackgroundImageFix"/>
<feBlend mode="normal" in="SourceGraphic" in2="BackgroundImageFix" result="shape"/>
<feColorMatrix in="SourceAlpha" type="matrix" values="0 0 0 0 0 0 0 0 0 0 0 0 0 0 0 0 0 0 127 0" result="hardAlpha"/>
<feOffset dx="-1" dy="-1"/>
<feComposite in2="hardAlpha" operator="arithmetic" k2="-1" k3="1"/>
<feColorMatrix type="matrix" values="0 0 0 0 1 0 0 0 0 1 0 0 0 0 1 0 0 0 0.15 0"/>
<feBlend mode="normal" in2="shape" result="effect1_innerShadow_33_92042"/>
<feColorMatrix in="SourceAlpha" type="matrix" values="0 0 0 0 0 0 0 0 0 0 0 0 0 0 0 0 0 0 127 0" result="hardAlpha"/>
<feOffset dy="60"/>
<feGaussianBlur stdDeviation="2.5"/>
<feComposite in2="hardAlpha" operator="arithmetic" k2="-1" k3="1"/>
<feColorMatrix type="matrix" values="0 0 0 0 0 0 0 0 0 0 0 0 0 0 0 0 0 0 0.1 0"/>
<feBlend mode="normal" in2="effect1_innerShadow_33_92042" result="effect2_innerShadow_33_92042"/>
</filter>
<filter id="filter11_diii_33_92042" x="144.895" y="344.593" width="40.6719" height="28.4492" filterUnits="userSpaceOnUse" color-interpolation-filters="sRGB">
<feFlood flood-opacity="0" result="BackgroundImageFix"/>
<feColorMatrix in="SourceAlpha" type="matrix" values="0 0 0 0 0 0 0 0 0 0 0 0 0 0 0 0 0 0 127 0" result="hardAlpha"/>
<feOffset dy="1"/>
<feGaussianBlur stdDeviation="0.5"/>
<feComposite in2="hardAlpha" operator="out"/>
<feColorMatrix type="matrix" values="0 0 0 0 0 0 0 0 0 0 0 0 0 0 0 0 0 0 0.25 0"/>
<feBlend mode="normal" in2="BackgroundImageFix" result="effect1_dropShadow_33_92042"/>
<feBlend mode="normal" in="SourceGraphic" in2="effect1_dropShadow_33_92042" result="shape"/>
<feColorMatrix in="SourceAlpha" type="matrix" values="0 0 0 0 0 0 0 0 0 0 0 0 0 0 0 0 0 0 127 0" result="hardAlpha"/>
<feOffset dx="16" dy="-3"/>
<feGaussianBlur stdDeviation="5"/>
<feComposite in2="hardAlpha" operator="arithmetic" k2="-1" k3="1"/>
<feColorMatrix type="matrix" values="0 0 0 0 0 0 0 0 0 0 0 0 0 0 0 0 0 0 0.25 0"/>
<feBlend mode="normal" in2="shape" result="effect2_innerShadow_33_92042"/>
<feColorMatrix in="SourceAlpha" type="matrix" values="0 0 0 0 0 0 0 0 0 0 0 0 0 0 0 0 0 0 127 0" result="hardAlpha"/>
<feOffset dx="-2" dy="-1"/>
<feGaussianBlur stdDeviation="3.5"/>
<feComposite in2="hardAlpha" operator="arithmetic" k2="-1" k3="1"/>
<feColorMatrix type="matrix" values="0 0 0 0 0 0 0 0 0 0 0 0 0 0 0 0 0 0 0.25 0"/>
<feBlend mode="normal" in2="effect2_innerShadow_33_92042" result="effect3_innerShadow_33_92042"/>
<feColorMatrix in="SourceAlpha" type="matrix" values="0 0 0 0 0 0 0 0 0 0 0 0 0 0 0 0 0 0 127 0" result="hardAlpha"/>
<feOffset dy="4"/>
<feGaussianBlur stdDeviation="2"/>
<feComposite in2="hardAlpha" operator="arithmetic" k2="-1" k3="1"/>
<feColorMatrix type="matrix" values="0 0 0 0 1 0 0 0 0 1 0 0 0 0 1 0 0 0 0.25 0"/>
<feBlend mode="normal" in2="effect3_innerShadow_33_92042" result="effect4_innerShadow_33_92042"/>
</filter>
<filter id="filter12_diii_33_92042" x="268.398" y="424.634" width="66.4785" height="48.6969" filterUnits="userSpaceOnUse" color-interpolation-filters="sRGB">
<feFlood flood-opacity="0" result="BackgroundImageFix"/>
<feColorMatrix in="SourceAlpha" type="matrix" values="0 0 0 0 0 0 0 0 0 0 0 0 0 0 0 0 0 0 127 0" result="hardAlpha"/>
<feOffset dy="1"/>
<feGaussianBlur stdDeviation="0.5"/>
<feComposite in2="hardAlpha" operator="out"/>
<feColorMatrix type="matrix" values="0 0 0 0 0 0 0 0 0 0 0 0 0 0 0 0 0 0 0.25 0"/>
<feBlend mode="normal" in2="BackgroundImageFix" result="effect1_dropShadow_33_92042"/>
<feBlend mode="normal" in="SourceGraphic" in2="effect1_dropShadow_33_92042" result="shape"/>
<feColorMatrix in="SourceAlpha" type="matrix" values="0 0 0 0 0 0 0 0 0 0 0 0 0 0 0 0 0 0 127 0" result="hardAlpha"/>
<feOffset dx="16" dy="-3"/>
<feGaussianBlur stdDeviation="5"/>
<feComposite in2="hardAlpha" operator="arithmetic" k2="-1" k3="1"/>
<feColorMatrix type="matrix" values="0 0 0 0 0 0 0 0 0 0 0 0 0 0 0 0 0 0 0.25 0"/>
<feBlend mode="normal" in2="shape" result="effect2_innerShadow_33_92042"/>
<feColorMatrix in="SourceAlpha" type="matrix" values="0 0 0 0 0 0 0 0 0 0 0 0 0 0 0 0 0 0 127 0" result="hardAlpha"/>
<feOffset dx="-2" dy="-1"/>
<feGaussianBlur stdDeviation="3.5"/>
<feComposite in2="hardAlpha" operator="arithmetic" k2="-1" k3="1"/>
<feColorMatrix type="matrix" values="0 0 0 0 0 0 0 0 0 0 0 0 0 0 0 0 0 0 0.25 0"/>
<feBlend mode="normal" in2="effect2_innerShadow_33_92042" result="effect3_innerShadow_33_92042"/>
<feColorMatrix in="SourceAlpha" type="matrix" values="0 0 0 0 0 0 0 0 0 0 0 0 0 0 0 0 0 0 127 0" result="hardAlpha"/>
<feOffset dy="4"/>
<feGaussianBlur stdDeviation="2"/>
<feComposite in2="hardAlpha" operator="arithmetic" k2="-1" k3="1"/>
<feColorMatrix type="matrix" values="0 0 0 0 1 0 0 0 0 1 0 0 0 0 1 0 0 0 0.25 0"/>
<feBlend mode="normal" in2="effect3_innerShadow_33_92042" result="effect4_innerShadow_33_92042"/>
</filter>
<filter id="filter13_diii_33_92042" x="242.84" y="456" width="59.7871" height="49.5502" filterUnits="userSpaceOnUse" color-interpolation-filters="sRGB">
<feFlood flood-opacity="0" result="BackgroundImageFix"/>
<feColorMatrix in="SourceAlpha" type="matrix" values="0 0 0 0 0 0 0 0 0 0 0 0 0 0 0 0 0 0 127 0" result="hardAlpha"/>
<feOffset dy="1"/>
<feGaussianBlur stdDeviation="0.5"/>
<feComposite in2="hardAlpha" operator="out"/>
<feColorMatrix type="matrix" values="0 0 0 0 0 0 0 0 0 0 0 0 0 0 0 0 0 0 0.25 0"/>
<feBlend mode="normal" in2="BackgroundImageFix" result="effect1_dropShadow_33_92042"/>
<feBlend mode="normal" in="SourceGraphic" in2="effect1_dropShadow_33_92042" result="shape"/>
<feColorMatrix in="SourceAlpha" type="matrix" values="0 0 0 0 0 0 0 0 0 0 0 0 0 0 0 0 0 0 127 0" result="hardAlpha"/>
<feOffset dx="16" dy="-3"/>
<feGaussianBlur stdDeviation="5"/>
<feComposite in2="hardAlpha" operator="arithmetic" k2="-1" k3="1"/>
<feColorMatrix type="matrix" values="0 0 0 0 0 0 0 0 0 0 0 0 0 0 0 0 0 0 0.25 0"/>
<feBlend mode="normal" in2="shape" result="effect2_innerShadow_33_92042"/>
<feColorMatrix in="SourceAlpha" type="matrix" values="0 0 0 0 0 0 0 0 0 0 0 0 0 0 0 0 0 0 127 0" result="hardAlpha"/>
<feOffset dx="-2" dy="-1"/>
<feGaussianBlur stdDeviation="3.5"/>
<feComposite in2="hardAlpha" operator="arithmetic" k2="-1" k3="1"/>
<feColorMatrix type="matrix" values="0 0 0 0 0 0 0 0 0 0 0 0 0 0 0 0 0 0 0.25 0"/>
<feBlend mode="normal" in2="effect2_innerShadow_33_92042" result="effect3_innerShadow_33_92042"/>
<feColorMatrix in="SourceAlpha" type="matrix" values="0 0 0 0 0 0 0 0 0 0 0 0 0 0 0 0 0 0 127 0" result="hardAlpha"/>
<feOffset dy="4"/>
<feGaussianBlur stdDeviation="2"/>
<feComposite in2="hardAlpha" operator="arithmetic" k2="-1" k3="1"/>
<feColorMatrix type="matrix" values="0 0 0 0 1 0 0 0 0 1 0 0 0 0 1 0 0 0 0.25 0"/>
<feBlend mode="normal" in2="effect3_innerShadow_33_92042" result="effect4_innerShadow_33_92042"/>
</filter>
<filter id="filter14_diii_33_92042" x="281.504" y="347" width="40.6719" height="32.1827" filterUnits="userSpaceOnUse" color-interpolation-filters="sRGB">
<feFlood flood-opacity="0" result="BackgroundImageFix"/>
<feColorMatrix in="SourceAlpha" type="matrix" values="0 0 0 0 0 0 0 0 0 0 0 0 0 0 0 0 0 0 127 0" result="hardAlpha"/>
<feOffset dy="1"/>
<feGaussianBlur stdDeviation="0.5"/>
<feComposite in2="hardAlpha" operator="out"/>
<feColorMatrix type="matrix" values="0 0 0 0 0 0 0 0 0 0 0 0 0 0 0 0 0 0 0.25 0"/>
<feBlend mode="normal" in2="BackgroundImageFix" result="effect1_dropShadow_33_92042"/>
<feBlend mode="normal" in="SourceGraphic" in2="effect1_dropShadow_33_92042" result="shape"/>
<feColorMatrix in="SourceAlpha" type="matrix" values="0 0 0 0 0 0 0 0 0 0 0 0 0 0 0 0 0 0 127 0" result="hardAlpha"/>
<feOffset dx="16" dy="-3"/>
<feGaussianBlur stdDeviation="5"/>
<feComposite in2="hardAlpha" operator="arithmetic" k2="-1" k3="1"/>
<feColorMatrix type="matrix" values="0 0 0 0 0 0 0 0 0 0 0 0 0 0 0 0 0 0 0.25 0"/>
<feBlend mode="normal" in2="shape" result="effect2_innerShadow_33_92042"/>
<feColorMatrix in="SourceAlpha" type="matrix" values="0 0 0 0 0 0 0 0 0 0 0 0 0 0 0 0 0 0 127 0" result="hardAlpha"/>
<feOffset dx="-2" dy="-1"/>
<feGaussianBlur stdDeviation="3.5"/>
<feComposite in2="hardAlpha" operator="arithmetic" k2="-1" k3="1"/>
<feColorMatrix type="matrix" values="0 0 0 0 0 0 0 0 0 0 0 0 0 0 0 0 0 0 0.25 0"/>
<feBlend mode="normal" in2="effect2_innerShadow_33_92042" result="effect3_innerShadow_33_92042"/>
<feColorMatrix in="SourceAlpha" type="matrix" values="0 0 0 0 0 0 0 0 0 0 0 0 0 0 0 0 0 0 127 0" result="hardAlpha"/>
<feOffset dy="4"/>
<feGaussianBlur stdDeviation="2"/>
<feComposite in2="hardAlpha" operator="arithmetic" k2="-1" k3="1"/>
<feColorMatrix type="matrix" values="0 0 0 0 1 0 0 0 0 1 0 0 0 0 1 0 0 0 0.25 0"/>
<feBlend mode="normal" in2="effect3_innerShadow_33_92042" result="effect4_innerShadow_33_92042"/>
</filter>
<filter id="filter15_diii_33_92042" x="67.8398" y="422" width="59.7871" height="49.5502" filterUnits="userSpaceOnUse" color-interpolation-filters="sRGB">
<feFlood flood-opacity="0" result="BackgroundImageFix"/>
<feColorMatrix in="SourceAlpha" type="matrix" values="0 0 0 0 0 0 0 0 0 0 0 0 0 0 0 0 0 0 127 0" result="hardAlpha"/>
<feOffset dy="1"/>
<feGaussianBlur stdDeviation="0.5"/>
<feComposite in2="hardAlpha" operator="out"/>
<feColorMatrix type="matrix" values="0 0 0 0 0 0 0 0 0 0 0 0 0 0 0 0 0 0 0.25 0"/>
<feBlend mode="normal" in2="BackgroundImageFix" result="effect1_dropShadow_33_92042"/>
<feBlend mode="normal" in="SourceGraphic" in2="effect1_dropShadow_33_92042" result="shape"/>
<feColorMatrix in="SourceAlpha" type="matrix" values="0 0 0 0 0 0 0 0 0 0 0 0 0 0 0 0 0 0 127 0" result="hardAlpha"/>
<feOffset dx="16" dy="-3"/>
<feGaussianBlur stdDeviation="5"/>
<feComposite in2="hardAlpha" operator="arithmetic" k2="-1" k3="1"/>
<feColorMatrix type="matrix" values="0 0 0 0 0 0 0 0 0 0 0 0 0 0 0 0 0 0 0.25 0"/>
<feBlend mode="normal" in2="shape" result="effect2_innerShadow_33_92042"/>
<feColorMatrix in="SourceAlpha" type="matrix" values="0 0 0 0 0 0 0 0 0 0 0 0 0 0 0 0 0 0 127 0" result="hardAlpha"/>
<feOffset dx="-2" dy="-1"/>
<feGaussianBlur stdDeviation="3.5"/>
<feComposite in2="hardAlpha" operator="arithmetic" k2="-1" k3="1"/>
<feColorMatrix type="matrix" values="0 0 0 0 0 0 0 0 0 0 0 0 0 0 0 0 0 0 0.25 0"/>
<feBlend mode="normal" in2="effect2_innerShadow_33_92042" result="effect3_innerShadow_33_92042"/>
<feColorMatrix in="SourceAlpha" type="matrix" values="0 0 0 0 0 0 0 0 0 0 0 0 0 0 0 0 0 0 127 0" result="hardAlpha"/>
<feOffset dy="4"/>
<feGaussianBlur stdDeviation="2"/>
<feComposite in2="hardAlpha" operator="arithmetic" k2="-1" k3="1"/>
<feColorMatrix type="matrix" values="0 0 0 0 1 0 0 0 0 1 0 0 0 0 1 0 0 0 0.25 0"/>
<feBlend mode="normal" in2="effect3_innerShadow_33_92042" result="effect4_innerShadow_33_92042"/>
</filter>
<filter id="filter16_ii_33_92042" x="114.281" y="236.164" width="170.429" height="158.877" filterUnits="userSpaceOnUse" color-interpolation-filters="sRGB">
<feFlood flood-opacity="0" result="BackgroundImageFix"/>
<feBlend mode="normal" in="SourceGraphic" in2="BackgroundImageFix" result="shape"/>
<feColorMatrix in="SourceAlpha" type="matrix" values="0 0 0 0 0 0 0 0 0 0 0 0 0 0 0 0 0 0 127 0" result="hardAlpha"/>
<feOffset dx="17.567" dy="2.31665"/>
<feGaussianBlur stdDeviation="12.5275"/>
<feComposite in2="hardAlpha" operator="arithmetic" k2="-1" k3="1"/>
<feColorMatrix type="matrix" values="0 0 0 0 0 0 0 0 0 0 0 0 0 0 0 0 0 0 0.25 0"/>
<feBlend mode="normal" in2="shape" result="effect1_innerShadow_33_92042"/>
<feColorMatrix in="SourceAlpha" type="matrix" values="0 0 0 0 0 0 0 0 0 0 0 0 0 0 0 0 0 0 127 0" result="hardAlpha"/>
<feOffset dx="-17.567" dy="13.1753"/>
<feGaussianBlur stdDeviation="10.9794"/>
<feComposite in2="hardAlpha" operator="arithmetic" k2="-1" k3="1"/>
<feColorMatrix type="matrix" values="0 0 0 0 1 0 0 0 0 1 0 0 0 0 1 0 0 0 0.25 0"/>
<feBlend mode="normal" in2="effect1_innerShadow_33_92042" result="effect2_innerShadow_33_92042"/>
</filter>
<filter id="filter17_di_33_92042" x="135.166" y="232.978" width="128.658" height="138.348" filterUnits="userSpaceOnUse" color-interpolation-filters="sRGB">
<feFlood flood-opacity="0" result="BackgroundImageFix"/>
<feColorMatrix in="SourceAlpha" type="matrix" values="0 0 0 0 0 0 0 0 0 0 0 0 0 0 0 0 0 0 127 0" result="hardAlpha"/>
<feOffset dy="0.583573"/>
<feComposite in2="hardAlpha" operator="out"/>
<feColorMatrix type="matrix" values="0 0 0 0 0 0 0 0 0 0 0 0 0 0 0 0 0 0 0.25 0"/>
<feBlend mode="normal" in2="BackgroundImageFix" result="effect1_dropShadow_33_92042"/>
<feBlend mode="normal" in="SourceGraphic" in2="effect1_dropShadow_33_92042" result="shape"/>
<feColorMatrix in="SourceAlpha" type="matrix" values="0 0 0 0 0 0 0 0 0 0 0 0 0 0 0 0 0 0 127 0" result="hardAlpha"/>
<feOffset dy="-1.16715"/>
<feComposite in2="hardAlpha" operator="arithmetic" k2="-1" k3="1"/>
<feColorMatrix type="matrix" values="0 0 0 0 0 0 0 0 0 0 0 0 0 0 0 0 0 0 0.25 0"/>
<feBlend mode="normal" in2="shape" result="effect2_innerShadow_33_92042"/>
</filter>
<filter id="filter18_dii_33_92042" x="132.658" y="221.854" width="133.676" height="124.078" filterUnits="userSpaceOnUse" color-interpolation-filters="sRGB">
<feFlood flood-opacity="0" result="BackgroundImageFix"/>
<feColorMatrix in="SourceAlpha" type="matrix" values="0 0 0 0 0 0 0 0 0 0 0 0 0 0 0 0 0 0 127 0" result="hardAlpha"/>
<feOffset dy="4.79894"/>
<feComposite in2="hardAlpha" operator="out"/>
<feColorMatrix type="matrix" values="0 0 0 0 0 0 0 0 0 0 0 0 0 0 0 0 0 0 0.25 0"/>
<feBlend mode="normal" in2="BackgroundImageFix" result="effect1_dropShadow_33_92042"/>
<feBlend mode="normal" in="SourceGraphic" in2="effect1_dropShadow_33_92042" result="shape"/>
<feColorMatrix in="SourceAlpha" type="matrix" values="0 0 0 0 0 0 0 0 0 0 0 0 0 0 0 0 0 0 127 0" result="hardAlpha"/>
<feOffset dx="9.59787" dy="9.59787"/>
<feGaussianBlur stdDeviation="9.59787"/>
<feComposite in2="hardAlpha" operator="arithmetic" k2="-1" k3="1"/>
<feColorMatrix type="matrix" values="0 0 0 0 0 0 0 0 0 0 0 0 0 0 0 0 0 0 0.25 0"/>
<feBlend mode="normal" in2="shape" result="effect2_innerShadow_33_92042"/>
<feColorMatrix in="SourceAlpha" type="matrix" values="0 0 0 0 0 0 0 0 0 0 0 0 0 0 0 0 0 0 127 0" result="hardAlpha"/>
<feOffset dx="-9.59787" dy="9.59787"/>
<feGaussianBlur stdDeviation="9.59787"/>
<feComposite in2="hardAlpha" operator="arithmetic" k2="-1" k3="1"/>
<feColorMatrix type="matrix" values="0 0 0 0 1 0 0 0 0 1 0 0 0 0 1 0 0 0 0.25 0"/>
<feBlend mode="normal" in2="effect2_innerShadow_33_92042" result="effect3_innerShadow_33_92042"/>
</filter>
<filter id="filter19_i_33_92042" x="145.811" y="232.738" width="104.42" height="102.295" filterUnits="userSpaceOnUse" color-interpolation-filters="sRGB">
<feFlood flood-opacity="0" result="BackgroundImageFix"/>
<feBlend mode="normal" in="SourceGraphic" in2="BackgroundImageFix" result="shape"/>
<feColorMatrix in="SourceAlpha" type="matrix" values="0 0 0 0 0 0 0 0 0 0 0 0 0 0 0 0 0 0 127 0" result="hardAlpha"/>
<feOffset dx="-4.24971" dy="-2.12485"/>
<feGaussianBlur stdDeviation="9.56184"/>
<feComposite in2="hardAlpha" operator="arithmetic" k2="-1" k3="1"/>
<feColorMatrix type="matrix" values="0 0 0 0 0 0 0 0 0 0 0 0 0 0 0 0 0 0 0.75 0"/>
<feBlend mode="normal" in2="shape" result="effect1_innerShadow_33_92042"/>
</filter>
<filter id="filter20_ii_33_92042" x="197.699" y="74.3982" width="9.30091" height="124.204" filterUnits="userSpaceOnUse" color-interpolation-filters="sRGB">
<feFlood flood-opacity="0" result="BackgroundImageFix"/>
<feBlend mode="normal" in="SourceGraphic" in2="BackgroundImageFix" result="shape"/>
<feColorMatrix in="SourceAlpha" type="matrix" values="0 0 0 0 0 0 0 0 0 0 0 0 0 0 0 0 0 0 127 0" result="hardAlpha"/>
<feOffset dy="-2.60182"/>
<feGaussianBlur stdDeviation="1.30091"/>
<feComposite in2="hardAlpha" operator="arithmetic" k2="-1" k3="1"/>
<feColorMatrix type="matrix" values="0 0 0 0 0 0 0 0 0 0 0 0 0 0 0 0 0 0 0.25 0"/>
<feBlend mode="normal" in2="shape" result="effect1_innerShadow_33_92042"/>
<feColorMatrix in="SourceAlpha" type="matrix" values="0 0 0 0 0 0 0 0 0 0 0 0 0 0 0 0 0 0 127 0" result="hardAlpha"/>
<feOffset dx="-1.30091" dy="2.60182"/>
<feGaussianBlur stdDeviation="1.30091"/>
<feComposite in2="hardAlpha" operator="arithmetic" k2="-1" k3="1"/>
<feColorMatrix type="matrix" values="0 0 0 0 1 0 0 0 0 1 0 0 0 0 1 0 0 0 0.25 0"/>
<feBlend mode="normal" in2="effect1_innerShadow_33_92042" result="effect2_innerShadow_33_92042"/>
</filter>
<filter id="filter21_ii_33_92042" x="192.916" y="177.502" width="17.4845" height="21.5786" filterUnits="userSpaceOnUse" color-interpolation-filters="sRGB">
<feFlood flood-opacity="0" result="BackgroundImageFix"/>
<feBlend mode="normal" in="SourceGraphic" in2="BackgroundImageFix" result="shape"/>
<feColorMatrix in="SourceAlpha" type="matrix" values="0 0 0 0 0 0 0 0 0 0 0 0 0 0 0 0 0 0 127 0" result="hardAlpha"/>
<feOffset dy="-2.60182"/>
<feGaussianBlur stdDeviation="1.30091"/>
<feComposite in2="hardAlpha" operator="arithmetic" k2="-1" k3="1"/>
<feColorMatrix type="matrix" values="0 0 0 0 0 0 0 0 0 0 0 0 0 0 0 0 0 0 0.25 0"/>
<feBlend mode="normal" in2="shape" result="effect1_innerShadow_33_92042"/>
<feColorMatrix in="SourceAlpha" type="matrix" values="0 0 0 0 0 0 0 0 0 0 0 0 0 0 0 0 0 0 127 0" result="hardAlpha"/>
<feOffset dx="-1.30091" dy="2.60182"/>
<feGaussianBlur stdDeviation="1.30091"/>
<feComposite in2="hardAlpha" operator="arithmetic" k2="-1" k3="1"/>
<feColorMatrix type="matrix" values="0 0 0 0 1 0 0 0 0 1 0 0 0 0 1 0 0 0 0.25 0"/>
<feBlend mode="normal" in2="effect1_innerShadow_33_92042" result="effect2_innerShadow_33_92042"/>
</filter>
<filter id="filter22_ii_33_92042" x="192.492" y="177.502" width="17.4845" height="21.5786" filterUnits="userSpaceOnUse" color-interpolation-filters="sRGB">
<feFlood flood-opacity="0" result="BackgroundImageFix"/>
<feBlend mode="normal" in="SourceGraphic" in2="BackgroundImageFix" result="shape"/>
<feColorMatrix in="SourceAlpha" type="matrix" values="0 0 0 0 0 0 0 0 0 0 0 0 0 0 0 0 0 0 127 0" result="hardAlpha"/>
<feOffset dy="-2.60182"/>
<feGaussianBlur stdDeviation="1.30091"/>
<feComposite in2="hardAlpha" operator="arithmetic" k2="-1" k3="1"/>
<feColorMatrix type="matrix" values="0 0 0 0 0 0 0 0 0 0 0 0 0 0 0 0 0 0 0.25 0"/>
<feBlend mode="normal" in2="shape" result="effect1_innerShadow_33_92042"/>
<feColorMatrix in="SourceAlpha" type="matrix" values="0 0 0 0 0 0 0 0 0 0 0 0 0 0 0 0 0 0 127 0" result="hardAlpha"/>
<feOffset dx="-1.30091" dy="2.60182"/>
<feGaussianBlur stdDeviation="1.30091"/>
<feComposite in2="hardAlpha" operator="arithmetic" k2="-1" k3="1"/>
<feColorMatrix type="matrix" values="0 0 0 0 1 0 0 0 0 1 0 0 0 0 1 0 0 0 0.25 0"/>
<feBlend mode="normal" in2="effect1_innerShadow_33_92042" result="effect2_innerShadow_33_92042"/>
</filter>
<filter id="filter23_ii_33_92042" x="0.3597" y="31.2727" width="244.299" height="478.78" filterUnits="userSpaceOnUse" color-interpolation-filters="sRGB">
<feFlood flood-opacity="0" result="BackgroundImageFix"/>
<feBlend mode="normal" in="SourceGraphic" in2="BackgroundImageFix" result="shape"/>
<feColorMatrix in="SourceAlpha" type="matrix" values="0 0 0 0 0 0 0 0 0 0 0 0 0 0 0 0 0 0 127 0" result="hardAlpha"/>
<feOffset dx="2.10433" dy="-2.10433"/>
<feGaussianBlur stdDeviation="4.20866"/>
<feComposite in2="hardAlpha" operator="arithmetic" k2="-1" k3="1"/>
<feColorMatrix type="matrix" values="0 0 0 0 0 0 0 0 0 0 0 0 0 0 0 0 0 0 0.45 0"/>
<feBlend mode="normal" in2="shape" result="effect1_innerShadow_33_92042"/>
<feColorMatrix in="SourceAlpha" type="matrix" values="0 0 0 0 0 0 0 0 0 0 0 0 0 0 0 0 0 0 127 0" result="hardAlpha"/>
<feOffset dx="-4.20866"/>
<feGaussianBlur stdDeviation="3.15649"/>
<feComposite in2="hardAlpha" operator="arithmetic" k2="-1" k3="1"/>
<feColorMatrix type="matrix" values="0 0 0 0 1 0 0 0 0 1 0 0 0 0 1 0 0 0 0.25 0"/>
<feBlend mode="normal" in2="effect1_innerShadow_33_92042" result="effect2_innerShadow_33_92042"/>
</filter>
<filter id="filter24_ii_33_92042" x="150.926" y="11.7592" width="258.612" height="509.426" filterUnits="userSpaceOnUse" color-interpolation-filters="sRGB">
<feFlood flood-opacity="0" result="BackgroundImageFix"/>
<feBlend mode="normal" in="SourceGraphic" in2="BackgroundImageFix" result="shape"/>
<feColorMatrix in="SourceAlpha" type="matrix" values="0 0 0 0 0 0 0 0 0 0 0 0 0 0 0 0 0 0 127 0" result="hardAlpha"/>
<feOffset dx="2.10433" dy="-2.10433"/>
<feGaussianBlur stdDeviation="4.20866"/>
<feComposite in2="hardAlpha" operator="arithmetic" k2="-1" k3="1"/>
<feColorMatrix type="matrix" values="0 0 0 0 0 0 0 0 0 0 0 0 0 0 0 0 0 0 0.45 0"/>
<feBlend mode="normal" in2="shape" result="effect1_innerShadow_33_92042"/>
<feColorMatrix in="SourceAlpha" type="matrix" values="0 0 0 0 0 0 0 0 0 0 0 0 0 0 0 0 0 0 127 0" result="hardAlpha"/>
<feOffset dx="-4.20866"/>
<feGaussianBlur stdDeviation="3.15649"/>
<feComposite in2="hardAlpha" operator="arithmetic" k2="-1" k3="1"/>
<feColorMatrix type="matrix" values="0 0 0 0 1 0 0 0 0 1 0 0 0 0 1 0 0 0 0.25 0"/>
<feBlend mode="normal" in2="effect1_innerShadow_33_92042" result="effect2_innerShadow_33_92042"/>
</filter>
<filter id="filter25_ii_33_92042" x="178.672" y="86.5517" width="45.5333" height="49.4346" filterUnits="userSpaceOnUse" color-interpolation-filters="sRGB">
<feFlood flood-opacity="0" result="BackgroundImageFix"/>
<feBlend mode="normal" in="SourceGraphic" in2="BackgroundImageFix" result="shape"/>
<feColorMatrix in="SourceAlpha" type="matrix" values="0 0 0 0 0 0 0 0 0 0 0 0 0 0 0 0 0 0 127 0" result="hardAlpha"/>
<feOffset dy="-2.60182"/>
<feGaussianBlur stdDeviation="1.30091"/>
<feComposite in2="hardAlpha" operator="arithmetic" k2="-1" k3="1"/>
<feColorMatrix type="matrix" values="0 0 0 0 0 0 0 0 0 0 0 0 0 0 0 0 0 0 0.25 0"/>
<feBlend mode="normal" in2="shape" result="effect1_innerShadow_33_92042"/>
<feColorMatrix in="SourceAlpha" type="matrix" values="0 0 0 0 0 0 0 0 0 0 0 0 0 0 0 0 0 0 127 0" result="hardAlpha"/>
<feOffset dx="-1.30091" dy="2.60182"/>
<feGaussianBlur stdDeviation="1.30091"/>
<feComposite in2="hardAlpha" operator="arithmetic" k2="-1" k3="1"/>
<feColorMatrix type="matrix" values="0 0 0 0 1 0 0 0 0 1 0 0 0 0 1 0 0 0 0.25 0"/>
<feBlend mode="normal" in2="effect1_innerShadow_33_92042" result="effect2_innerShadow_33_92042"/>
</filter>
<filter id="filter26_ii_33_92042" x="178.672" y="78.7463" width="45.5314" height="49.4346" filterUnits="userSpaceOnUse" color-interpolation-filters="sRGB">
<feFlood flood-opacity="0" result="BackgroundImageFix"/>
<feBlend mode="normal" in="SourceGraphic" in2="BackgroundImageFix" result="shape"/>
<feColorMatrix in="SourceAlpha" type="matrix" values="0 0 0 0 0 0 0 0 0 0 0 0 0 0 0 0 0 0 127 0" result="hardAlpha"/>
<feOffset dy="-2.60182"/>
<feGaussianBlur stdDeviation="1.30091"/>
<feComposite in2="hardAlpha" operator="arithmetic" k2="-1" k3="1"/>
<feColorMatrix type="matrix" values="0 0 0 0 0 0 0 0 0 0 0 0 0 0 0 0 0 0 0.25 0"/>
<feBlend mode="normal" in2="shape" result="effect1_innerShadow_33_92042"/>
<feColorMatrix in="SourceAlpha" type="matrix" values="0 0 0 0 0 0 0 0 0 0 0 0 0 0 0 0 0 0 127 0" result="hardAlpha"/>
<feOffset dx="-1.30091" dy="2.60182"/>
<feGaussianBlur stdDeviation="1.30091"/>
<feComposite in2="hardAlpha" operator="arithmetic" k2="-1" k3="1"/>
<feColorMatrix type="matrix" values="0 0 0 0 1 0 0 0 0 1 0 0 0 0 1 0 0 0 0.25 0"/>
<feBlend mode="normal" in2="effect1_innerShadow_33_92042" result="effect2_innerShadow_33_92042"/>
</filter>
</defs>
</svg>
