<svg width="615" height="575" viewBox="0 0 615 575" fill="none" xmlns="http://www.w3.org/2000/svg">
<circle opacity="0.5" cx="313.5" cy="331.5" r="203.5" fill="black" fill-opacity="0.12"/>
<circle opacity="0.5" cx="314" cy="331" r="165" fill="black" fill-opacity="0.2"/>
<g filter="url(#filter0_i_33_91930)">
<path d="M167.869 216.984C154.936 212.949 134.607 213.422 131.993 216.506C130.109 218.729 127.223 226.518 126.487 234.373C112.299 234.823 92.6033 241.114 90.9402 248.18C89.8769 252.697 92.0504 259.947 96.1229 266.262C93.0971 268.17 89.3615 270.615 84.7264 273.697C59.352 290.571 50.3241 310.271 52.234 310.996C54.144 311.721 73.5684 318.635 99.0938 305.563C99.9238 305.138 100.729 304.708 101.509 304.275C99.1552 315.905 99.6025 326.274 102.494 326.539C106.85 326.939 125.666 317.232 138.165 305.605C135.023 318.561 135.725 331.409 139.273 331.928C144.564 332.701 168.636 322.393 181.499 310.038C185.618 310.14 189.951 309.659 193.444 308.19C197.461 306.5 202.266 302.662 206.444 298.694C203.487 306.24 203.308 314.666 205.578 315.044C208.988 315.611 226.388 309.188 233.172 301.775C234.55 300.27 235.786 298.388 236.873 296.33C237.154 304.29 243.365 312.099 250.136 309.035C256.827 306.008 263.845 297.776 267.375 290.315C269.815 294.664 274.03 297.359 278.487 295.342C287.111 291.441 296.28 278.89 297.82 270.492C298.511 266.726 297.038 262.389 294.994 258.719C297.528 254.978 295.413 247.033 291.123 242.133C288.539 239.183 282.977 236.121 278.315 234.04C278.946 230.711 279.291 227.586 279.181 225.103C278.721 214.668 260.853 204.571 252.75 211.617C249.591 214.364 247.141 218.395 245.523 222.801C239.655 216.01 225.192 211.803 217.069 211.697C207.949 201.445 174.404 200.532 170.641 205.206C169.163 207.044 168.107 211.565 167.869 216.984Z" fill="#427A42"/>
</g>
<g filter="url(#filter1_i_33_91930)">
<path d="M217.442 308.868C204.572 313.096 188.301 325.291 187.965 329.32C187.723 332.223 189.9 340.241 193.863 347.062C182.577 355.67 170.202 372.233 172.953 378.95C174.712 383.246 180.692 387.884 187.676 390.659C186.322 393.97 184.702 398.13 182.72 403.332C171.87 431.807 175.967 453.088 177.943 452.569C179.918 452.049 199.755 454.388 212.936 428.919C213.365 428.091 213.771 427.274 214.154 426.468C218.994 437.302 225.371 437.488 227.879 436.024C231.657 433.819 241.332 414.988 244.749 398.262C249.719 410.634 257.755 420.684 260.944 419.045C265.699 416.601 279.303 394.227 282.594 376.698C286.006 374.388 289.254 371.479 291.243 368.255C293.531 364.545 295.211 358.629 296.307 352.972C298.284 360.833 303.034 367.796 305.1 366.785C308.205 365.265 318.636 349.929 319.851 339.954C320.098 337.928 320.01 335.678 319.7 333.372C324.553 339.688 334.144 342.436 337.875 336.009C341.562 329.658 342.492 318.88 341.031 310.756C345.543 312.879 350.539 312.624 352.996 308.393C357.748 300.207 357.92 284.665 354.294 276.934C352.668 273.467 348.95 270.792 345.154 268.993C345.043 264.475 338.707 259.236 332.368 257.74C328.552 256.84 322.245 257.579 317.242 258.592C315.821 255.516 314.287 252.771 312.755 250.814C306.318 242.587 285.91 244.748 283.408 255.191C282.433 259.262 282.781 263.967 284.023 268.493C275.302 266.374 261.087 271.351 254.415 275.984C241.036 272.936 213.203 291.679 212.856 297.67C212.72 300.025 214.487 304.319 217.442 308.868Z" fill="#427A42"/>
</g>
<g filter="url(#filter2_i_33_91930)">
<path d="M468.217 212.249C482.172 207.943 507.986 210.816 510.852 214.752C512.683 217.267 515.176 225.47 515.602 233.742C528.431 234.392 542.367 238.314 544.131 244.034C545.067 247.066 544.583 251.534 543.024 256.226C545.141 257.824 547.542 259.665 550.272 261.778C574.127 280.238 580.132 299.762 577.975 300.26C576.168 300.677 560.539 303.992 540.992 296.312C545.453 309.487 546.225 322.96 542.951 323.608C538.607 324.467 519.07 316.628 505.737 306.188C507.577 315.801 507.077 323.931 504.322 324.63C499.645 325.817 479.463 319.699 465.383 310.493C459.833 312.343 451.369 313.617 445.189 311.697C441.042 310.409 435.959 307.033 431.496 303.46C434.977 310.776 435.728 319.271 433.477 319.89C430.092 320.819 412.193 316.147 404.881 309.366C403.395 307.989 402.027 306.216 400.797 304.251C401.055 312.323 395.352 320.862 388.348 318.474C381.428 316.115 373.825 308.53 369.776 301.361C367.622 306.009 363.575 309.173 358.964 307.601C350.044 304.56 339.99 292.837 337.874 284.512C336.925 280.778 338.108 276.243 339.911 272.321C337.113 268.806 338.696 260.557 342.67 255.158C345.062 251.908 350.437 248.233 354.973 245.643C354.114 242.345 353.556 239.223 353.497 236.703C353.251 226.111 370.497 214.043 379.108 220.315C382.466 222.761 385.199 226.578 387.121 230.86C389.694 227.319 394.242 224.161 399.183 221.718C399.365 220.933 399.565 220.175 399.782 219.447C405.362 200.798 454.454 188.617 461.026 194.463C463.681 196.825 466.502 203.779 468.217 212.249Z" fill="#427A42"/>
</g>
<g filter="url(#filter3_i_33_91930)">
<path d="M392.663 308.215C407.168 309.929 429.61 323.008 430.637 327.767C431.293 330.808 430.251 339.317 427.291 347.052C438.759 352.841 449.914 362.07 449.212 368.014C448.839 371.165 446.587 375.054 443.262 378.712C444.551 381.03 446.001 383.686 447.642 386.723C461.981 413.259 459.565 433.542 457.391 433.123C455.57 432.773 439.936 429.475 425.171 414.539C423.916 428.391 419.166 441.021 415.91 440.287C411.59 439.314 396.899 424.237 388.934 409.293C386.724 418.826 382.975 426.057 380.172 425.58C375.415 424.772 359.437 411.006 350.29 396.888C344.465 396.332 336.21 394.07 331.336 389.812C328.065 386.956 324.785 381.811 322.15 376.737C322.37 384.835 319.618 392.906 317.308 392.56C313.837 392.039 299.361 380.52 295.42 371.36C294.62 369.499 294.087 367.325 293.757 365.03C290.725 372.514 282.052 378.012 276.615 372.993C271.242 368.033 267.36 358.02 266.561 349.826C262.709 353.204 257.728 354.458 254.148 351.153C247.222 344.761 242.775 329.972 244.212 321.504C244.856 317.707 247.774 314.039 251.01 311.184C249.876 306.836 254.663 299.936 260.483 296.609C263.987 294.606 270.39 293.422 275.587 292.891C276.137 289.528 276.891 286.448 277.857 284.121C281.921 274.336 302.579 270.286 307.913 279.508C309.993 283.103 310.947 287.7 310.971 292.394C314.757 290.197 320.195 289.152 325.702 288.919C326.187 288.275 326.676 287.663 327.17 287.086C339.823 272.295 389.648 281.037 393.29 289.043C394.762 292.276 394.525 299.777 392.663 308.215Z" fill="#427A42"/>
</g>
<path fill-rule="evenodd" clip-rule="evenodd" d="M212.46 304.446C211.006 304.602 209.489 304.761 207.909 304.925C187.078 307.087 170.776 299.915 171.006 296.831C171.235 293.747 187.77 284.242 199.7 281.797C223.244 276.973 234.859 281.925 238.617 287.897C238.581 287.41 238.583 286.957 238.627 286.542C239.324 279.865 261.961 278.167 270.991 282.98C274.053 284.612 277.458 287.216 280.545 290.003C281.301 288.497 282.123 287.253 282.99 286.351C289.619 279.46 315.834 295.927 321.468 308.629C327.101 321.331 328.562 345.925 325.155 345.919C324.648 345.918 323.482 345.84 321.839 345.67C324.761 347.715 326.452 349.439 325.996 350.265C324.547 352.888 303.637 365.832 291.316 366.336C278.995 366.84 261.907 355.724 260.663 351.745C260.323 350.657 261.781 348.643 264.335 346.337C254.918 345.567 242.082 334.95 240.59 329.368C240.245 328.077 240.899 326.684 242.231 325.311C236.781 324.679 232.342 324.276 229.798 324.291C217.583 324.363 203.346 319.462 202.289 313.226C201.86 310.692 206.265 307.471 212.46 304.446ZM239.449 295.506C239.643 295.017 239.792 294.498 239.896 293.944C239.939 293.717 239.972 293.487 239.994 293.254C240.253 293.917 240.545 294.597 240.866 295.287C240.413 295.349 239.939 295.422 239.449 295.506Z" fill="black" fill-opacity="0.12"/>
<g filter="url(#filter4_i_33_91930)">
<path d="M225.692 146.679C217.401 132.574 200.467 117.75 196.558 119.102C193.741 120.076 186.913 126.294 181.81 134.204C169.923 123.986 150.175 115.91 144.764 122.27C141.305 126.336 138.934 135.788 138.655 145.666C135.082 145.44 130.619 145.257 125.054 145.082C94.59 144.126 75.9054 158.548 77.0558 160.769C78.2063 162.991 90.1679 185.094 118.578 190.261C119.502 190.429 120.408 190.573 121.296 190.694C112.705 201.452 107.132 212.964 109.351 215.431C112.692 219.148 133.675 222.88 150.581 219.777C140.584 231.37 133.801 245.746 136.412 248.981C140.305 253.805 165.941 260.854 183.562 257.242C186.88 260.459 190.707 263.21 194.412 264.261C198.673 265.47 204.81 264.957 210.508 263.833C203.761 269.735 198.788 278.681 200.432 280.799C202.903 283.983 220.845 290.186 230.651 287.315C232.644 286.732 234.735 285.636 236.804 284.238C232.475 293.029 233.093 306.128 240.398 307.935C247.616 309.719 258.085 306.141 265.252 300.764C264.761 307.29 266.672 313.374 271.481 314.563C280.785 316.864 295.489 310.255 301.562 302.365C304.285 298.827 305.563 293.043 305.989 287.546C310.21 285.426 313.027 275.269 312.316 266.752C311.888 261.624 309.083 254.128 306.454 248.369C308.878 245.257 310.951 242.149 312.283 239.392C317.883 227.798 309.02 203.44 298.342 204.92C294.179 205.498 289.861 207.994 286.012 211.522C285.092 199.777 275.646 184.333 269.049 178.093C267.445 160.165 240.472 133.877 234.71 136.077C232.446 136.942 228.99 141.018 225.692 146.679Z" fill="#579858"/>
</g>
<g filter="url(#filter5_df_33_91930)">
<path d="M163.038 172.189C228.974 178.251 256.726 220.15 264.002 249.002L260.938 253.891C247.468 199.678 193.237 176.427 163.038 172.189Z" fill="black" fill-opacity="0.12" shape-rendering="crispEdges"/>
</g>
<g filter="url(#filter6_i_33_91930)">
<path d="M407.833 139.226C417.767 125.311 441.561 111.766 446.01 114.332C448.853 115.971 455.113 123.58 459.617 132.611C471.053 125.003 485.083 120.359 489.471 125.648C491.797 128.451 493.611 133.794 494.606 140.085C497.238 140.507 500.238 141.018 503.659 141.621C533.547 146.886 548.508 164.951 546.888 166.913C545.532 168.556 533.652 182.445 512.883 186.509C523.333 198.432 530.736 213.09 528.224 215.946C524.891 219.736 504.053 223.614 487.286 220.534C493.684 230.154 497.315 239.625 495.278 242.203C491.821 246.578 471.283 252.811 454.487 251.605C450.605 257.294 443.911 264.228 437.599 266.085C433.363 267.331 427.273 266.835 421.622 265.717C428.293 271.686 433.19 280.756 431.549 282.915C429.083 286.16 411.244 292.537 401.522 289.66C399.547 289.076 397.476 287.971 395.428 286.56C399.687 295.474 399.016 308.788 391.756 310.653C384.583 312.496 374.206 308.904 367.116 303.469C367.574 310.099 365.65 316.289 360.871 317.517C351.625 319.893 337.057 313.238 331.063 305.247C328.375 301.663 327.133 295.79 326.734 290.207C322.553 288.07 319.801 277.76 320.544 269.103C320.991 263.891 323.81 256.263 326.444 250.4C324.052 247.248 322.007 244.098 320.697 241.302C315.189 229.544 324.094 204.756 334.687 206.217C338.818 206.786 343.093 209.305 346.899 212.874C347.356 207.217 349.717 200.708 352.775 194.748C352.541 193.746 352.335 192.764 352.16 191.804C347.67 167.195 384.101 121.582 392.715 123.888C396.194 124.82 402.114 130.811 407.833 139.226Z" fill="#579858"/>
</g>
<g filter="url(#filter7_i_33_91930)">
<path fill-rule="evenodd" clip-rule="evenodd" d="M255.773 344.022C240.087 369.007 217.881 384.672 203.841 379.753C200.606 378.62 198.062 376.483 196.207 373.544C187.521 398.179 171.451 416.194 159.252 414.407C150.726 413.158 146.235 402.551 146.606 387.769C132.253 411.306 115.421 433.276 109.203 433.211C98.0456 433.094 92.1332 413.935 95.9978 390.416C97.0846 383.803 99.4739 375.704 102.595 367.48C102.193 366.995 101.829 366.474 101.506 365.915C95.9427 356.286 104.435 338.888 120.82 324.592C117.285 313.758 124.116 296.642 138.002 283.453C145.59 276.245 153.923 271.503 161.426 269.57C161.722 257.846 175.831 242.131 196.074 232.052C208.627 225.801 220.972 222.997 230.385 223.61C242.896 220.57 256.252 226.904 269.554 235.077C268.853 229.474 270.133 224.731 273.639 221.808C282.123 214.734 300.43 220.99 314.53 235.781C321.468 243.058 326.094 251.046 327.993 258.126C331.213 256.817 334.307 254.648 337.25 251.425C378.478 310.648 344.997 318.355 287.352 331.625C286.053 331.924 284.741 332.226 283.418 332.531C274.687 337.06 265.326 340.878 255.773 344.022Z" fill="#579858"/>
</g>
<g filter="url(#filter8_i_33_91930)">
<path fill-rule="evenodd" clip-rule="evenodd" d="M430.395 238.725C439.959 238.375 452.195 241.133 464.706 247.05C486.063 257.151 501.157 273.122 501.701 285.133C521.015 296.607 532.909 312.502 529.125 323.141C528.748 324.199 528.229 325.17 527.58 326.054C542.883 340.83 550.428 357.806 544.789 367.078C542.833 370.295 539.504 372.231 535.234 372.963C538.742 383.686 541.303 394.606 542.05 403.092C544.232 427.894 536.694 447.438 525.213 446.744C520.043 446.432 508.843 430.613 497.894 411.051C496.276 419.983 492.16 425.96 485.831 427.01C472.943 429.148 455.591 410.071 446.289 383.95C445.081 384.876 443.73 385.612 442.235 386.138C428.072 391.13 405.814 375.665 389.62 350.681C378.849 347.284 368.27 343.07 358.458 337.989C357.083 337.674 355.72 337.362 354.369 337.053C294.467 323.339 259.675 315.373 302.633 253.757C324.907 243.203 386.651 215.847 424.936 235.67C426.792 236.631 428.612 237.651 430.395 238.725Z" fill="#579858"/>
</g>
<g filter="url(#filter9_df_33_91930)">
<path d="M473.232 315.433C444.737 254.448 391.615 250.024 370.931 255.698L370.555 260.545C432.044 250.791 462.414 298.671 473.232 315.433Z" fill="black" fill-opacity="0.12" shape-rendering="crispEdges"/>
</g>
<g filter="url(#filter10_i_33_91930)">
<path d="M348.389 51.7307C355.868 49.8314 362.725 50.253 364.956 53.8016C367.873 58.4422 366.73 68.8839 363.345 78.8302C372.247 78.2429 379.958 80.1946 381.984 85.0142C385.231 92.7406 379.502 107.426 371.132 118.887C383.225 122.168 395.137 138.508 392.694 142.752C390.712 146.195 379.588 153.638 368.79 157.526C378.677 167.175 385.479 189.074 384.566 192.877C383.946 195.46 372.333 198.933 359.881 200.747C363.879 208.929 364.497 220.351 359.856 225.911C356.281 230.193 346.256 227.417 338.818 222.23C331.87 233.885 313.226 247.341 306.705 241.673C306.478 241.475 306.242 241.27 305.998 241.058L305.996 241.057L305.99 241.052C300.547 236.327 291.162 228.181 285.822 220.361C278.3 226.389 266.838 230.044 262.961 225.399C257.573 218.945 259.266 204.597 265.108 196.583C265.131 196.55 265.155 196.518 265.179 196.486C253.408 194.823 238.677 187.131 237.135 184.748C235.796 182.679 243.377 172.376 251.895 164.289C240.056 156.188 228.961 142.706 230.095 139.033C231.248 135.298 241.18 128.058 251.898 124.741C241.333 117.05 234.105 92.5497 240.553 85.175C244.455 80.7119 252.837 78.6676 261.203 79.0419C258.215 69.9406 257.553 59.9728 261.699 55.4729C265.354 51.5051 271.272 51.0882 277.054 53.0047C282.36 41.1866 297.994 28.4309 314.058 29.0316C330.925 29.6622 344.994 40.8215 348.389 51.7307Z" fill="#579858"/>
</g>
<g filter="url(#filter11_df_33_91930)">
<path d="M312.565 54.0005L309 237.791C314.999 232.955 312 235.373 315 239.001L314.065 54.0007C312.843 54.3414 313.642 54.5738 312.565 54.0005Z" fill="black" fill-opacity="0.12" shape-rendering="crispEdges"/>
</g>
<g filter="url(#filter12_i_33_91930)">
<path d="M222.621 274.661C223.177 269.965 248.871 234.265 265.603 227.464C281.766 220.895 302.32 228.421 311.113 239.255C311.548 239.033 311.986 238.819 312.428 238.615C321.495 228.131 341.554 221.034 357.398 227.477C374.131 234.282 399.835 269.989 400.392 274.685C400.685 277.158 391.302 280.504 379.648 282.727C394.892 291.336 411.778 310.668 406.825 317.89C404.428 321.385 399.523 323.513 393.529 324.376C407.432 338.145 415.438 372.751 410.605 376.18C407.69 378.247 397.286 378.485 386.132 376.292C398.284 391.078 403.035 422.121 394.44 430.551C389.673 435.226 380.417 433.908 370.962 429.52C372.976 433.464 374.658 437.338 375.733 440.795C380.848 457.238 367.271 488.04 358.096 488.598C354.225 488.834 348.277 485.14 342.586 479.555C342.782 481.619 342.886 483.457 342.883 485.014C342.849 504.057 329.75 531.339 316.246 533.906C302.743 536.474 282.977 492.464 287.295 472.998C287.43 472.392 287.587 471.754 287.764 471.086C280.54 481.031 270.581 488.929 264.975 488.586C255.8 488.025 242.215 457.219 247.325 440.778C248.4 437.321 250.08 433.447 252.093 429.504C242.64 433.889 233.384 435.205 228.616 430.528C220.019 422.096 224.76 391.054 236.908 376.272C225.755 378.462 215.351 378.221 212.436 376.153C207.601 372.722 215.599 338.119 229.498 324.354C223.503 323.489 218.598 321.36 216.2 317.864C211.245 310.641 228.126 291.313 243.368 282.709C231.713 280.483 222.329 277.134 222.621 274.661Z" fill="#579858"/>
</g>
<g filter="url(#filter13_df_33_91930)">
<path d="M312.399 479.999L316 234.341C310.668 239.702 310.667 237.021 308 232.999L312.399 479.999Z" fill="black" fill-opacity="0.12" shape-rendering="crispEdges"/>
</g>
<defs>
<filter id="filter0_i_33_91930" x="-9.01172" y="141.503" width="307.004" height="190.466" filterUnits="userSpaceOnUse" color-interpolation-filters="sRGB">
<feFlood flood-opacity="0" result="BackgroundImageFix"/>
<feBlend mode="normal" in="SourceGraphic" in2="BackgroundImageFix" result="shape"/>
<feColorMatrix in="SourceAlpha" type="matrix" values="0 0 0 0 0 0 0 0 0 0 0 0 0 0 0 0 0 0 127 0" result="hardAlpha"/>
<feOffset dx="-88" dy="-90"/>
<feGaussianBlur stdDeviation="30.5"/>
<feComposite in2="hardAlpha" operator="arithmetic" k2="-1" k3="1"/>
<feColorMatrix type="matrix" values="0 0 0 0 0 0 0 0 0 0 0 0 0 0 0 0 0 0 0.25 0"/>
<feBlend mode="normal" in2="shape" result="effect1_innerShadow_33_91930"/>
</filter>
<filter id="filter1_i_33_91930" x="111.564" y="184.788" width="245.246" height="267.79" filterUnits="userSpaceOnUse" color-interpolation-filters="sRGB">
<feFlood flood-opacity="0" result="BackgroundImageFix"/>
<feBlend mode="normal" in="SourceGraphic" in2="BackgroundImageFix" result="shape"/>
<feColorMatrix in="SourceAlpha" type="matrix" values="0 0 0 0 0 0 0 0 0 0 0 0 0 0 0 0 0 0 127 0" result="hardAlpha"/>
<feOffset dx="-88" dy="-90"/>
<feGaussianBlur stdDeviation="30.5"/>
<feComposite in2="hardAlpha" operator="arithmetic" k2="-1" k3="1"/>
<feColorMatrix type="matrix" values="0 0 0 0 0 0 0 0 0 0 0 0 0 0 0 0 0 0 0.25 0"/>
<feBlend mode="normal" in2="shape" result="effect1_innerShadow_33_91930"/>
</filter>
<filter id="filter2_i_33_91930" x="337.539" y="131.988" width="301.844" height="192.789" filterUnits="userSpaceOnUse" color-interpolation-filters="sRGB">
<feFlood flood-opacity="0" result="BackgroundImageFix"/>
<feBlend mode="normal" in="SourceGraphic" in2="BackgroundImageFix" result="shape"/>
<feColorMatrix in="SourceAlpha" type="matrix" values="0 0 0 0 0 0 0 0 0 0 0 0 0 0 0 0 0 0 127 0" result="hardAlpha"/>
<feOffset dx="78" dy="-90"/>
<feGaussianBlur stdDeviation="30.5"/>
<feComposite in2="hardAlpha" operator="arithmetic" k2="-1" k3="1"/>
<feColorMatrix type="matrix" values="0 0 0 0 0 0 0 0 0 0 0 0 0 0 0 0 0 0 0.25 0"/>
<feBlend mode="normal" in2="shape" result="effect1_innerShadow_33_91930"/>
</filter>
<filter id="filter3_i_33_91930" x="243.941" y="213.327" width="276.102" height="226.99" filterUnits="userSpaceOnUse" color-interpolation-filters="sRGB">
<feFlood flood-opacity="0" result="BackgroundImageFix"/>
<feBlend mode="normal" in="SourceGraphic" in2="BackgroundImageFix" result="shape"/>
<feColorMatrix in="SourceAlpha" type="matrix" values="0 0 0 0 0 0 0 0 0 0 0 0 0 0 0 0 0 0 127 0" result="hardAlpha"/>
<feOffset dx="78" dy="-90"/>
<feGaussianBlur stdDeviation="30.5"/>
<feComposite in2="hardAlpha" operator="arithmetic" k2="-1" k3="1"/>
<feColorMatrix type="matrix" values="0 0 0 0 0 0 0 0 0 0 0 0 0 0 0 0 0 0 0.25 0"/>
<feBlend mode="normal" in2="shape" result="effect1_innerShadow_33_91930"/>
</filter>
<filter id="filter4_i_33_91930" x="16.0059" y="58.0166" width="298.01" height="257.01" filterUnits="userSpaceOnUse" color-interpolation-filters="sRGB">
<feFlood flood-opacity="0" result="BackgroundImageFix"/>
<feBlend mode="normal" in="SourceGraphic" in2="BackgroundImageFix" result="shape"/>
<feColorMatrix in="SourceAlpha" type="matrix" values="0 0 0 0 0 0 0 0 0 0 0 0 0 0 0 0 0 0 127 0" result="hardAlpha"/>
<feOffset dx="-88" dy="-90"/>
<feGaussianBlur stdDeviation="30.5"/>
<feComposite in2="hardAlpha" operator="arithmetic" k2="-1" k3="1"/>
<feColorMatrix type="matrix" values="0 0 0 0 0 0 0 0 0 0 0 0 0 0 0 0 0 0 0.25 0"/>
<feBlend mode="normal" in2="shape" result="effect1_innerShadow_33_91930"/>
</filter>
<filter id="filter5_df_33_91930" x="157.364" y="171.188" width="112.314" height="94.0539" filterUnits="userSpaceOnUse" color-interpolation-filters="sRGB">
<feFlood flood-opacity="0" result="BackgroundImageFix"/>
<feColorMatrix in="SourceAlpha" type="matrix" values="0 0 0 0 0 0 0 0 0 0 0 0 0 0 0 0 0 0 127 0" result="hardAlpha"/>
<feOffset dy="5.67537"/>
<feGaussianBlur stdDeviation="2.83768"/>
<feComposite in2="hardAlpha" operator="out"/>
<feColorMatrix type="matrix" values="0 0 0 0 1 0 0 0 0 1 0 0 0 0 1 0 0 0 0.25 0"/>
<feBlend mode="normal" in2="BackgroundImageFix" result="effect1_dropShadow_33_91930"/>
<feBlend mode="normal" in="SourceGraphic" in2="effect1_dropShadow_33_91930" result="shape"/>
<feGaussianBlur stdDeviation="0.5" result="effect2_foregroundBlur_33_91930"/>
</filter>
<filter id="filter6_i_33_91930" x="319.016" y="53.0166" width="288.992" height="264.988" filterUnits="userSpaceOnUse" color-interpolation-filters="sRGB">
<feFlood flood-opacity="0" result="BackgroundImageFix"/>
<feBlend mode="normal" in="SourceGraphic" in2="BackgroundImageFix" result="shape"/>
<feColorMatrix in="SourceAlpha" type="matrix" values="0 0 0 0 0 0 0 0 0 0 0 0 0 0 0 0 0 0 127 0" result="hardAlpha"/>
<feOffset dx="78" dy="-90"/>
<feGaussianBlur stdDeviation="30.5"/>
<feComposite in2="hardAlpha" operator="arithmetic" k2="-1" k3="1"/>
<feColorMatrix type="matrix" values="0 0 0 0 0 0 0 0 0 0 0 0 0 0 0 0 0 0 0.25 0"/>
<feBlend mode="normal" in2="shape" result="effect1_innerShadow_33_91930"/>
</filter>
<filter id="filter7_i_33_91930" x="34.8145" y="206.896" width="320.746" height="226.315" filterUnits="userSpaceOnUse" color-interpolation-filters="sRGB">
<feFlood flood-opacity="0" result="BackgroundImageFix"/>
<feBlend mode="normal" in="SourceGraphic" in2="BackgroundImageFix" result="shape"/>
<feColorMatrix in="SourceAlpha" type="matrix" values="0 0 0 0 0 0 0 0 0 0 0 0 0 0 0 0 0 0 127 0" result="hardAlpha"/>
<feOffset dx="-80" dy="-12"/>
<feGaussianBlur stdDeviation="30"/>
<feComposite in2="hardAlpha" operator="arithmetic" k2="-1" k3="1"/>
<feColorMatrix type="matrix" values="0 0 0 0 0 0 0 0 0 0 0 0 0 0 0 0 0 0 0.25 0"/>
<feBlend mode="normal" in2="shape" result="effect1_innerShadow_33_91930"/>
</filter>
<filter id="filter8_i_33_91930" x="283.529" y="216.647" width="323.125" height="230.115" filterUnits="userSpaceOnUse" color-interpolation-filters="sRGB">
<feFlood flood-opacity="0" result="BackgroundImageFix"/>
<feBlend mode="normal" in="SourceGraphic" in2="BackgroundImageFix" result="shape"/>
<feColorMatrix in="SourceAlpha" type="matrix" values="0 0 0 0 0 0 0 0 0 0 0 0 0 0 0 0 0 0 127 0" result="hardAlpha"/>
<feOffset dx="64" dy="-12"/>
<feGaussianBlur stdDeviation="30"/>
<feComposite in2="hardAlpha" operator="arithmetic" k2="-1" k3="1"/>
<feColorMatrix type="matrix" values="0 0 0 0 0 0 0 0 0 0 0 0 0 0 0 0 0 0 0.25 0"/>
<feBlend mode="normal" in2="shape" result="effect1_innerShadow_33_91930"/>
</filter>
<filter id="filter9_df_33_91930" x="364.879" y="252.875" width="114.028" height="73.9093" filterUnits="userSpaceOnUse" color-interpolation-filters="sRGB">
<feFlood flood-opacity="0" result="BackgroundImageFix"/>
<feColorMatrix in="SourceAlpha" type="matrix" values="0 0 0 0 0 0 0 0 0 0 0 0 0 0 0 0 0 0 127 0" result="hardAlpha"/>
<feOffset dy="5.67537"/>
<feGaussianBlur stdDeviation="2.83768"/>
<feComposite in2="hardAlpha" operator="out"/>
<feColorMatrix type="matrix" values="0 0 0 0 1 0 0 0 0 1 0 0 0 0 1 0 0 0 0.25 0"/>
<feBlend mode="normal" in2="BackgroundImageFix" result="effect1_dropShadow_33_91930"/>
<feBlend mode="normal" in="SourceGraphic" in2="effect1_dropShadow_33_91930" result="shape"/>
<feGaussianBlur stdDeviation="0.5" result="effect2_foregroundBlur_33_91930"/>
</filter>
<filter id="filter10_i_33_91930" x="230.016" y="-22.9893" width="203" height="266" filterUnits="userSpaceOnUse" color-interpolation-filters="sRGB">
<feFlood flood-opacity="0" result="BackgroundImageFix"/>
<feBlend mode="normal" in="SourceGraphic" in2="BackgroundImageFix" result="shape"/>
<feColorMatrix in="SourceAlpha" type="matrix" values="0 0 0 0 0 0 0 0 0 0 0 0 0 0 0 0 0 0 127 0" result="hardAlpha"/>
<feOffset dx="40" dy="-60"/>
<feGaussianBlur stdDeviation="26"/>
<feComposite in2="hardAlpha" operator="arithmetic" k2="-1" k3="1"/>
<feColorMatrix type="matrix" values="0 0 0 0 0 0 0 0 0 0 0 0 0 0 0 0 0 0 0.25 0"/>
<feBlend mode="normal" in2="shape" result="effect1_innerShadow_33_91930"/>
</filter>
<filter id="filter11_df_33_91930" x="303.325" y="53" width="17.3507" height="197.352" filterUnits="userSpaceOnUse" color-interpolation-filters="sRGB">
<feFlood flood-opacity="0" result="BackgroundImageFix"/>
<feColorMatrix in="SourceAlpha" type="matrix" values="0 0 0 0 0 0 0 0 0 0 0 0 0 0 0 0 0 0 127 0" result="hardAlpha"/>
<feOffset dy="5.67537"/>
<feGaussianBlur stdDeviation="2.83768"/>
<feComposite in2="hardAlpha" operator="out"/>
<feColorMatrix type="matrix" values="0 0 0 0 1 0 0 0 0 1 0 0 0 0 1 0 0 0 0.25 0"/>
<feBlend mode="normal" in2="BackgroundImageFix" result="effect1_dropShadow_33_91930"/>
<feBlend mode="normal" in="SourceGraphic" in2="effect1_dropShadow_33_91930" result="shape"/>
<feGaussianBlur stdDeviation="0.5" result="effect2_foregroundBlur_33_91930"/>
</filter>
<filter id="filter12_i_33_91930" x="211.02" y="213.009" width="225" height="321.005" filterUnits="userSpaceOnUse" color-interpolation-filters="sRGB">
<feFlood flood-opacity="0" result="BackgroundImageFix"/>
<feBlend mode="normal" in="SourceGraphic" in2="BackgroundImageFix" result="shape"/>
<feColorMatrix in="SourceAlpha" type="matrix" values="0 0 0 0 0 0 0 0 0 0 0 0 0 0 0 0 0 0 127 0" result="hardAlpha"/>
<feOffset dx="24" dy="-12"/>
<feGaussianBlur stdDeviation="18"/>
<feComposite in2="hardAlpha" operator="arithmetic" k2="-1" k3="1"/>
<feColorMatrix type="matrix" values="0 0 0 0 0 0 0 0 0 0 0 0 0 0 0 0 0 0 0.25 0"/>
<feBlend mode="normal" in2="shape" result="effect1_innerShadow_33_91930"/>
</filter>
<filter id="filter13_df_33_91930" x="302.325" y="231.999" width="19.3507" height="259.351" filterUnits="userSpaceOnUse" color-interpolation-filters="sRGB">
<feFlood flood-opacity="0" result="BackgroundImageFix"/>
<feColorMatrix in="SourceAlpha" type="matrix" values="0 0 0 0 0 0 0 0 0 0 0 0 0 0 0 0 0 0 127 0" result="hardAlpha"/>
<feOffset dy="5.67537"/>
<feGaussianBlur stdDeviation="2.83768"/>
<feComposite in2="hardAlpha" operator="out"/>
<feColorMatrix type="matrix" values="0 0 0 0 1 0 0 0 0 1 0 0 0 0 1 0 0 0 0.25 0"/>
<feBlend mode="normal" in2="BackgroundImageFix" result="effect1_dropShadow_33_91930"/>
<feBlend mode="normal" in="SourceGraphic" in2="effect1_dropShadow_33_91930" result="shape"/>
<feGaussianBlur stdDeviation="0.5" result="effect2_foregroundBlur_33_91930"/>
</filter>
</defs>
</svg>
