<svg width="193" height="231" viewBox="0 0 193 231" fill="none" xmlns="http://www.w3.org/2000/svg">
<rect x="0.601562" y="125.931" width="31" height="175" rx="4" transform="rotate(-90 0.601562 125.931)" fill="#9A7858"/>
<g filter="url(#filter0_i_33_92007)">
<rect x="0.601562" y="117.931" width="31" height="175" rx="4" transform="rotate(-90 0.601562 117.931)" fill="#C8A078"/>
</g>
<path opacity="0.1" d="M151.073 103.918C156.543 103.918 162.393 105.488 162.393 108.859C162.393 112.23 157.958 112.928 152.488 112.928C147.017 112.928 142.582 112.23 142.582 108.859C142.582 105.488 145.602 103.918 151.073 103.918Z" fill="white"/>
<path opacity="0.1" d="M117.228 98.3734C127.486 98.3734 138.455 99.3396 138.455 101.414C138.455 103.488 130.139 103.918 119.882 103.918C109.624 103.918 101.309 103.488 101.309 101.414C101.309 99.3396 106.971 98.3734 117.228 98.3734Z" fill="white"/>
<path opacity="0.1" d="M18.1704 92.1358C22.0455 92.1358 26.1893 94.1889 26.1893 98.597C26.1893 103.005 23.0479 103.918 19.1728 103.918C15.2976 103.918 12.1562 103.005 12.1562 98.597C12.1562 94.1889 14.2953 92.1358 18.1704 92.1358Z" fill="black"/>
<rect x="9.58594" y="229.931" width="31" height="175" rx="4" transform="rotate(-90 9.58594 229.931)" fill="#9A7858"/>
<g filter="url(#filter1_i_33_92007)">
<rect x="9.58594" y="221.931" width="31" height="175" rx="4" transform="rotate(-90 9.58594 221.931)" fill="#C8A078"/>
</g>
<path opacity="0.1" d="M160.057 207.918C165.528 207.918 171.378 209.488 171.378 212.859C171.378 216.23 166.943 216.928 161.472 216.928C156.001 216.928 151.566 216.23 151.566 212.859C151.566 209.488 154.586 207.918 160.057 207.918Z" fill="white"/>
<path opacity="0.1" d="M126.213 202.373C136.47 202.373 147.439 203.34 147.439 205.414C147.439 207.488 139.124 207.918 128.866 207.918C118.608 207.918 110.293 207.488 110.293 205.414C110.293 203.34 115.955 202.373 126.213 202.373Z" fill="white"/>
<path opacity="0.1" d="M27.1548 196.136C31.0299 196.136 35.1736 198.189 35.1736 202.597C35.1736 207.005 32.0322 207.918 28.1571 207.918C24.282 207.918 21.1406 207.005 21.1406 202.597C21.1406 198.189 23.2797 196.136 27.1548 196.136Z" fill="black"/>
<rect x="15.7734" y="175.692" width="31" height="175" rx="4" transform="rotate(-88.5405 15.7734 175.692)" fill="#9A7858"/>
<g filter="url(#filter2_i_33_92007)">
<rect x="15.9766" y="167.694" width="31" height="175" rx="4" transform="rotate(-88.5405 15.9766 167.694)" fill="#C8A078"/>
</g>
<path opacity="0.1" d="M165.104 157.476C170.573 157.615 176.381 159.334 176.295 162.704C176.209 166.073 171.758 166.658 166.289 166.519C160.82 166.38 156.405 165.569 156.49 162.199C156.576 158.829 159.635 157.337 165.104 157.476Z" fill="black"/>
<path opacity="0.1" d="M49.4271 151.062C60.5929 151.347 72.4851 153.522 72.3828 157.54C72.2804 161.558 63.2075 162.159 52.0417 161.875C40.8759 161.59 31.8454 160.528 31.9478 156.51C32.0502 152.492 38.2613 150.778 49.4271 151.062Z" fill="white"/>
<rect x="10.3086" y="80.1875" width="31" height="175" rx="4" transform="rotate(-93.5573 10.3086 80.1875)" fill="#9A7858"/>
<g filter="url(#filter3_i_33_92007)">
<rect x="9.8125" y="72.2029" width="31" height="175" rx="4" transform="rotate(-93.5573 9.8125 72.2029)" fill="#C8A078"/>
</g>
<path opacity="0.1" d="M157.478 48.9828C162.938 48.6434 168.874 49.8475 169.083 53.2118C169.292 56.5762 164.909 57.5481 159.449 57.8876C153.989 58.227 149.519 57.8054 149.31 54.441C149.101 51.0767 152.017 49.3223 157.478 48.9828Z" fill="black"/>
<path opacity="0.1" d="M41.6857 52.7091C52.8337 52.0161 64.8706 53.1434 65.1199 57.1548C65.3693 61.1661 56.3838 62.5587 45.2359 63.2518C34.088 63.9448 24.9991 63.6758 24.7498 59.6645C24.5004 55.6531 30.5378 53.4022 41.6857 52.7091Z" fill="white"/>
<defs>
<filter id="filter0_i_33_92007" x="0.601562" y="86.9314" width="175" height="31" filterUnits="userSpaceOnUse" color-interpolation-filters="sRGB">
<feFlood flood-opacity="0" result="BackgroundImageFix"/>
<feBlend mode="normal" in="SourceGraphic" in2="BackgroundImageFix" result="shape"/>
<feColorMatrix in="SourceAlpha" type="matrix" values="0 0 0 0 0 0 0 0 0 0 0 0 0 0 0 0 0 0 127 0" result="hardAlpha"/>
<feOffset dy="-1"/>
<feComposite in2="hardAlpha" operator="arithmetic" k2="-1" k3="1"/>
<feColorMatrix type="matrix" values="0 0 0 0 1 0 0 0 0 1 0 0 0 0 1 0 0 0 0.25 0"/>
<feBlend mode="normal" in2="shape" result="effect1_innerShadow_33_92007"/>
</filter>
<filter id="filter1_i_33_92007" x="9.58594" y="190.931" width="175" height="31" filterUnits="userSpaceOnUse" color-interpolation-filters="sRGB">
<feFlood flood-opacity="0" result="BackgroundImageFix"/>
<feBlend mode="normal" in="SourceGraphic" in2="BackgroundImageFix" result="shape"/>
<feColorMatrix in="SourceAlpha" type="matrix" values="0 0 0 0 0 0 0 0 0 0 0 0 0 0 0 0 0 0 127 0" result="hardAlpha"/>
<feOffset dy="-1"/>
<feComposite in2="hardAlpha" operator="arithmetic" k2="-1" k3="1"/>
<feColorMatrix type="matrix" values="0 0 0 0 1 0 0 0 0 1 0 0 0 0 1 0 0 0 0.25 0"/>
<feBlend mode="normal" in2="shape" result="effect1_innerShadow_33_92007"/>
</filter>
<filter id="filter2_i_33_92007" x="16.0781" y="136.805" width="175.531" height="35.2463" filterUnits="userSpaceOnUse" color-interpolation-filters="sRGB">
<feFlood flood-opacity="0" result="BackgroundImageFix"/>
<feBlend mode="normal" in="SourceGraphic" in2="BackgroundImageFix" result="shape"/>
<feColorMatrix in="SourceAlpha" type="matrix" values="0 0 0 0 0 0 0 0 0 0 0 0 0 0 0 0 0 0 127 0" result="hardAlpha"/>
<feOffset dy="-1"/>
<feComposite in2="hardAlpha" operator="arithmetic" k2="-1" k3="1"/>
<feColorMatrix type="matrix" values="0 0 0 0 1 0 0 0 0 1 0 0 0 0 1 0 0 0 0.25 0"/>
<feBlend mode="normal" in2="shape" result="effect1_innerShadow_33_92007"/>
</filter>
<filter id="filter3_i_33_92007" x="8.12891" y="30.6448" width="176.105" height="41.3179" filterUnits="userSpaceOnUse" color-interpolation-filters="sRGB">
<feFlood flood-opacity="0" result="BackgroundImageFix"/>
<feBlend mode="normal" in="SourceGraphic" in2="BackgroundImageFix" result="shape"/>
<feColorMatrix in="SourceAlpha" type="matrix" values="0 0 0 0 0 0 0 0 0 0 0 0 0 0 0 0 0 0 127 0" result="hardAlpha"/>
<feOffset dy="-1"/>
<feComposite in2="hardAlpha" operator="arithmetic" k2="-1" k3="1"/>
<feColorMatrix type="matrix" values="0 0 0 0 1 0 0 0 0 1 0 0 0 0 1 0 0 0 0.25 0"/>
<feBlend mode="normal" in2="shape" result="effect1_innerShadow_33_92007"/>
</filter>
</defs>
</svg>
