<svg width="211" height="205" viewBox="0 0 211 205" fill="none" xmlns="http://www.w3.org/2000/svg">
<rect x="167.207" y="190.646" width="184.048" height="39" rx="4" transform="rotate(-91.3723 167.207 190.646)" fill="#9A7858"/>
<g filter="url(#filter0_i_33_92005)">
<rect x="167.016" y="182.6" width="176" height="39" rx="4" transform="rotate(-91.3723 167.016 182.6)" fill="#C8A078"/>
</g>
<path opacity="0.1" d="M188.986 138.963C189.084 143.026 187.618 147.408 184.248 147.488C180.879 147.569 180.102 144.292 180.004 140.229C179.907 136.167 180.526 132.856 183.896 132.776C187.266 132.695 188.889 134.9 188.986 138.963Z" fill="black"/>
<path opacity="0.1" d="M190.392 52.8808C190.59 61.1757 188.931 70.0905 184.913 70.1868C180.895 70.283 179.902 63.5786 179.704 55.2837C179.505 46.9888 180.176 40.2445 184.194 40.1482C188.212 40.052 190.193 44.5859 190.392 52.8808Z" fill="white"/>
<rect x="115.562" y="204.632" width="91" height="39" rx="4" transform="rotate(-91.5927 115.562 204.632)" fill="#9A7858"/>
<g filter="url(#filter1_i_33_92005)">
<rect x="115.34" y="196.667" width="176" height="39" rx="4" transform="rotate(-91.5927 115.34 196.667)" fill="#C8A078"/>
</g>
<path opacity="0.1" d="M133.268 157.38C133.381 161.442 131.932 165.83 128.562 165.924C125.193 166.017 124.403 162.743 124.29 158.681C124.178 154.619 124.784 151.306 128.153 151.212C131.523 151.119 133.155 153.317 133.268 157.38Z" fill="white"/>
<path opacity="0.1" d="M138.109 132.094C138.321 139.711 137.582 147.883 135.508 147.941C133.435 147.998 132.834 141.836 132.622 134.219C132.41 126.602 132.668 120.415 134.741 120.357C136.815 120.3 137.898 124.477 138.109 132.094Z" fill="white"/>
<path opacity="0.1" d="M142.3 58.3643C142.38 61.2418 140.413 64.3759 136.007 64.4984C131.601 64.621 130.623 62.3136 130.543 59.4361C130.463 56.5585 131.311 54.2005 135.717 54.0779C140.124 53.9554 142.22 55.4867 142.3 58.3643Z" fill="black"/>
<rect x="54.6719" y="192.833" width="91" height="39" rx="4" transform="rotate(-89.1711 54.6719 192.833)" fill="#9A7858"/>
<g filter="url(#filter2_i_33_92005)">
<rect x="54.7852" y="184.867" width="176" height="39" rx="4" transform="rotate(-89.1711 54.7852 184.867)" fill="#C8A078"/>
</g>
<path opacity="0.1" d="M76.9451 36.5434C76.8863 40.607 75.2535 44.9295 71.883 44.8807C68.5125 44.832 67.8621 41.5277 67.9209 37.4642C67.9797 33.4006 68.7254 30.1165 72.0959 30.1653C75.4664 30.2141 77.0038 32.4798 76.9451 36.5434Z" fill="black"/>
<path opacity="0.1" d="M83.2876 172.942C83.246 175.82 80.1824 178.854 73.7007 178.761C67.219 178.667 65.9103 176.314 65.9519 173.436C65.9936 170.557 67.3698 168.243 73.8515 168.337C80.3332 168.431 83.3293 170.063 83.2876 172.942Z" fill="black"/>
<path opacity="0.1" d="M85.3846 28.0233C85.2744 35.6425 84.1904 43.7758 82.1163 43.7458C80.0421 43.7158 79.7019 37.5331 79.8121 29.9139C79.9224 22.2947 80.4413 16.1244 82.5154 16.1544C84.5896 16.1844 85.4948 20.4041 85.3846 28.0233Z" fill="white"/>
<rect y="200.205" width="184.048" height="39" rx="4" transform="rotate(-90 0 200.205)" fill="#9A7858"/>
<g filter="url(#filter3_i_33_92005)">
<rect y="192.157" width="176" height="39" rx="4" transform="rotate(-90 0 192.157)" fill="#C8A078"/>
</g>
<path opacity="0.1" d="M23.0099 149.058C23.0099 153.122 21.4398 157.468 18.069 157.468C14.6981 157.468 14 154.174 14 150.11C14 146.046 14.6981 142.751 18.069 142.751C21.4398 142.751 23.0099 144.995 23.0099 149.058Z" fill="black"/>
<path opacity="0.1" d="M26.4769 63.0348C26.4769 71.3321 24.605 80.2046 20.5859 80.2046C16.5668 80.2046 15.7344 73.4784 15.7344 65.1811C15.7344 56.8838 16.5668 50.1575 20.5859 50.1575C24.605 50.1575 26.4769 54.7375 26.4769 63.0348Z" fill="white"/>
<defs>
<filter id="filter0_i_33_92005" x="162.895" y="5.81152" width="43.0156" height="176.694" filterUnits="userSpaceOnUse" color-interpolation-filters="sRGB">
<feFlood flood-opacity="0" result="BackgroundImageFix"/>
<feBlend mode="normal" in="SourceGraphic" in2="BackgroundImageFix" result="shape"/>
<feColorMatrix in="SourceAlpha" type="matrix" values="0 0 0 0 0 0 0 0 0 0 0 0 0 0 0 0 0 0 127 0" result="hardAlpha"/>
<feOffset dx="1"/>
<feComposite in2="hardAlpha" operator="arithmetic" k2="-1" k3="1"/>
<feColorMatrix type="matrix" values="0 0 0 0 0 0 0 0 0 0 0 0 0 0 0 0 0 0 0.25 0"/>
<feBlend mode="normal" in2="shape" result="effect1_innerShadow_33_92005"/>
</filter>
<filter id="filter1_i_33_92005" x="110.559" y="19.7605" width="43.6562" height="176.797" filterUnits="userSpaceOnUse" color-interpolation-filters="sRGB">
<feFlood flood-opacity="0" result="BackgroundImageFix"/>
<feBlend mode="normal" in="SourceGraphic" in2="BackgroundImageFix" result="shape"/>
<feColorMatrix in="SourceAlpha" type="matrix" values="0 0 0 0 0 0 0 0 0 0 0 0 0 0 0 0 0 0 127 0" result="hardAlpha"/>
<feOffset dx="1"/>
<feComposite in2="hardAlpha" operator="arithmetic" k2="-1" k3="1"/>
<feColorMatrix type="matrix" values="0 0 0 0 0 0 0 0 0 0 0 0 0 0 0 0 0 0 0.25 0"/>
<feBlend mode="normal" in2="shape" result="effect1_innerShadow_33_92005"/>
</filter>
<filter id="filter2_i_33_92005" x="54.8438" y="8.94263" width="41.4258" height="176.431" filterUnits="userSpaceOnUse" color-interpolation-filters="sRGB">
<feFlood flood-opacity="0" result="BackgroundImageFix"/>
<feBlend mode="normal" in="SourceGraphic" in2="BackgroundImageFix" result="shape"/>
<feColorMatrix in="SourceAlpha" type="matrix" values="0 0 0 0 0 0 0 0 0 0 0 0 0 0 0 0 0 0 127 0" result="hardAlpha"/>
<feOffset dx="1"/>
<feComposite in2="hardAlpha" operator="arithmetic" k2="-1" k3="1"/>
<feColorMatrix type="matrix" values="0 0 0 0 0 0 0 0 0 0 0 0 0 0 0 0 0 0 0.25 0"/>
<feBlend mode="normal" in2="shape" result="effect1_innerShadow_33_92005"/>
</filter>
<filter id="filter3_i_33_92005" x="0" y="16.1575" width="39" height="176" filterUnits="userSpaceOnUse" color-interpolation-filters="sRGB">
<feFlood flood-opacity="0" result="BackgroundImageFix"/>
<feBlend mode="normal" in="SourceGraphic" in2="BackgroundImageFix" result="shape"/>
<feColorMatrix in="SourceAlpha" type="matrix" values="0 0 0 0 0 0 0 0 0 0 0 0 0 0 0 0 0 0 127 0" result="hardAlpha"/>
<feOffset dx="1"/>
<feComposite in2="hardAlpha" operator="arithmetic" k2="-1" k3="1"/>
<feColorMatrix type="matrix" values="0 0 0 0 0 0 0 0 0 0 0 0 0 0 0 0 0 0 0.25 0"/>
<feBlend mode="normal" in2="shape" result="effect1_innerShadow_33_92005"/>
</filter>
</defs>
</svg>
