<svg width="193" height="228" viewBox="0 0 193 228" fill="none" xmlns="http://www.w3.org/2000/svg">
<rect width="31" height="175" rx="4" transform="matrix(0 -1 -1 0 192.367 122.931)" fill="#9A7858"/>
<g filter="url(#filter0_i_33_92008)">
<rect width="31" height="175" rx="4" transform="matrix(0 -1 -1 0 192.367 114.931)" fill="#C8A078"/>
</g>
<path opacity="0.1" d="M41.8962 100.918C36.4254 100.918 30.5754 102.488 30.5754 105.859C30.5754 109.23 35.0103 109.928 40.4811 109.928C45.9518 109.928 50.3867 109.23 50.3867 105.859C50.3867 102.488 47.3669 100.918 41.8962 100.918Z" fill="white"/>
<path opacity="0.1" d="M75.7403 95.3734C65.4827 95.3734 54.5139 96.3396 54.5139 98.414C54.5139 100.488 62.8294 100.918 73.087 100.918C83.3447 100.918 91.6602 100.488 91.6602 98.414C91.6602 96.3396 85.998 95.3734 75.7403 95.3734Z" fill="white"/>
<path opacity="0.1" d="M174.796 89.1358C170.921 89.1358 166.778 91.1889 166.778 95.597C166.778 100.005 169.919 100.918 173.794 100.918C177.669 100.918 180.811 100.005 180.811 95.597C180.811 91.1889 178.672 89.1358 174.796 89.1358Z" fill="black"/>
<rect width="31" height="175" rx="4" transform="matrix(0 -1 -1 0 183.379 226.931)" fill="#9A7858"/>
<g filter="url(#filter1_i_33_92008)">
<rect width="31" height="175" rx="4" transform="matrix(0 -1 -1 0 183.379 218.931)" fill="#C8A078"/>
</g>
<path opacity="0.1" d="M32.9079 204.918C27.4371 204.918 21.5871 206.488 21.5871 209.859C21.5871 213.23 26.022 213.928 31.4928 213.928C36.9635 213.928 41.3984 213.23 41.3984 209.859C41.3984 206.488 38.3786 204.918 32.9079 204.918Z" fill="white"/>
<path opacity="0.1" d="M66.7521 199.373C56.4944 199.373 45.5257 200.34 45.5257 202.414C45.5257 204.488 53.8411 204.918 64.0988 204.918C74.3564 204.918 82.6719 204.488 82.6719 202.414C82.6719 200.34 77.0097 199.373 66.7521 199.373Z" fill="white"/>
<path opacity="0.1" d="M165.808 193.136C161.933 193.136 157.789 195.189 157.789 199.597C157.789 204.005 160.931 204.918 164.806 204.918C168.681 204.918 171.822 204.005 171.822 199.597C171.822 195.189 169.683 193.136 165.808 193.136Z" fill="black"/>
<rect width="31" height="175" rx="4" transform="matrix(-0.0254707 -0.999676 -0.999676 0.0254707 177.195 172.692)" fill="#9A7858"/>
<g filter="url(#filter2_i_33_92008)">
<rect width="31" height="175" rx="4" transform="matrix(-0.0254707 -0.999676 -0.999676 0.0254707 176.992 164.694)" fill="#C8A078"/>
</g>
<path opacity="0.1" d="M27.8608 154.476C22.3919 154.615 16.5837 156.334 16.6696 159.704C16.7554 163.073 21.2067 163.658 26.6757 163.519C32.1446 163.38 36.5603 162.569 36.4745 159.199C36.3886 155.829 33.3298 154.337 27.8608 154.476Z" fill="black"/>
<path opacity="0.1" d="M143.538 148.062C132.372 148.347 120.48 150.522 120.582 154.54C120.684 158.558 129.757 159.159 140.923 158.875C152.089 158.59 161.119 157.528 161.017 153.51C160.915 149.492 154.704 147.778 143.538 148.062Z" fill="white"/>
<rect width="31" height="175" rx="4" transform="matrix(0.0348999 -0.999391 -0.999391 -0.0348999 183.912 75.5278)" fill="#9A7858"/>
<g filter="url(#filter3_i_33_92008)">
<rect width="31" height="175" rx="4" transform="matrix(0.0348999 -0.999391 -0.999391 -0.0348999 184.191 67.5327)" fill="#C8A078"/>
</g>
<path opacity="0.1" d="M35.9501 48.334C30.4827 48.1431 24.5815 49.508 24.4638 52.8768C24.3462 56.2457 28.7541 57.0981 34.2215 57.2891C39.6889 57.48 44.1455 56.9371 44.2631 53.5683C44.3807 50.1995 41.4176 48.525 35.9501 48.334Z" fill="black"/>
<path opacity="0.1" d="M151.803 48.9124C140.64 48.5226 128.638 49.9766 128.498 53.9933C128.358 58.0099 137.378 59.1578 148.54 59.5476C159.703 59.9374 168.781 59.4215 168.921 55.4049C169.062 51.3882 162.965 49.3022 151.803 48.9124Z" fill="white"/>
<defs>
<filter id="filter0_i_33_92008" x="17.3672" y="83.9314" width="175" height="31" filterUnits="userSpaceOnUse" color-interpolation-filters="sRGB">
<feFlood flood-opacity="0" result="BackgroundImageFix"/>
<feBlend mode="normal" in="SourceGraphic" in2="BackgroundImageFix" result="shape"/>
<feColorMatrix in="SourceAlpha" type="matrix" values="0 0 0 0 0 0 0 0 0 0 0 0 0 0 0 0 0 0 127 0" result="hardAlpha"/>
<feOffset dy="-1"/>
<feComposite in2="hardAlpha" operator="arithmetic" k2="-1" k3="1"/>
<feColorMatrix type="matrix" values="0 0 0 0 1 0 0 0 0 1 0 0 0 0 1 0 0 0 0.25 0"/>
<feBlend mode="normal" in2="shape" result="effect1_innerShadow_33_92008"/>
</filter>
<filter id="filter1_i_33_92008" x="8.37891" y="187.931" width="175" height="31" filterUnits="userSpaceOnUse" color-interpolation-filters="sRGB">
<feFlood flood-opacity="0" result="BackgroundImageFix"/>
<feBlend mode="normal" in="SourceGraphic" in2="BackgroundImageFix" result="shape"/>
<feColorMatrix in="SourceAlpha" type="matrix" values="0 0 0 0 0 0 0 0 0 0 0 0 0 0 0 0 0 0 127 0" result="hardAlpha"/>
<feOffset dy="-1"/>
<feComposite in2="hardAlpha" operator="arithmetic" k2="-1" k3="1"/>
<feColorMatrix type="matrix" values="0 0 0 0 1 0 0 0 0 1 0 0 0 0 1 0 0 0 0.25 0"/>
<feBlend mode="normal" in2="shape" result="effect1_innerShadow_33_92008"/>
</filter>
<filter id="filter2_i_33_92008" x="1.35938" y="133.805" width="175.533" height="35.2463" filterUnits="userSpaceOnUse" color-interpolation-filters="sRGB">
<feFlood flood-opacity="0" result="BackgroundImageFix"/>
<feBlend mode="normal" in="SourceGraphic" in2="BackgroundImageFix" result="shape"/>
<feColorMatrix in="SourceAlpha" type="matrix" values="0 0 0 0 0 0 0 0 0 0 0 0 0 0 0 0 0 0 127 0" result="hardAlpha"/>
<feOffset dy="-1"/>
<feComposite in2="hardAlpha" operator="arithmetic" k2="-1" k3="1"/>
<feColorMatrix type="matrix" values="0 0 0 0 1 0 0 0 0 1 0 0 0 0 1 0 0 0 0.25 0"/>
<feBlend mode="normal" in2="shape" result="effect1_innerShadow_33_92008"/>
</filter>
<filter id="filter3_i_33_92008" x="9.43359" y="30.5813" width="175.703" height="36.8142" filterUnits="userSpaceOnUse" color-interpolation-filters="sRGB">
<feFlood flood-opacity="0" result="BackgroundImageFix"/>
<feBlend mode="normal" in="SourceGraphic" in2="BackgroundImageFix" result="shape"/>
<feColorMatrix in="SourceAlpha" type="matrix" values="0 0 0 0 0 0 0 0 0 0 0 0 0 0 0 0 0 0 127 0" result="hardAlpha"/>
<feOffset dy="-1"/>
<feComposite in2="hardAlpha" operator="arithmetic" k2="-1" k3="1"/>
<feColorMatrix type="matrix" values="0 0 0 0 1 0 0 0 0 1 0 0 0 0 1 0 0 0 0.25 0"/>
<feBlend mode="normal" in2="shape" result="effect1_innerShadow_33_92008"/>
</filter>
</defs>
</svg>
