<svg width="208" height="200" viewBox="0 0 208 200" fill="none" xmlns="http://www.w3.org/2000/svg">
<rect x="168.102" y="190.957" width="91" height="39" rx="4" transform="rotate(-91.9256 168.102 190.957)" fill="#9A7858"/>
<g filter="url(#filter0_i_33_92006)">
<rect x="167.832" y="182.994" width="176" height="39" rx="4" transform="rotate(-91.9256 167.832 182.994)" fill="#C8A078"/>
</g>
<path opacity="0.1" d="M182.838 33.7768C182.974 37.8385 181.551 42.2345 178.182 42.3478C174.813 42.4611 174.005 39.1919 173.868 35.1302C173.732 31.0685 174.319 27.7524 177.688 27.6392C181.057 27.5259 182.701 29.7152 182.838 33.7768Z" fill="black"/>
<path opacity="0.1" d="M195.729 169.713C195.826 172.59 192.911 175.768 186.433 175.986C179.954 176.203 178.534 173.916 178.437 171.039C178.34 168.162 179.604 165.785 186.082 165.567C192.561 165.349 195.632 166.836 195.729 169.713Z" fill="black"/>
<path opacity="0.1" d="M190.857 24.8609C191.113 32.4766 190.421 40.6527 188.348 40.7224C186.275 40.7921 185.638 34.6328 185.382 27.0172C185.126 19.4015 185.347 13.2133 187.421 13.1436C189.494 13.0739 190.601 17.2453 190.857 24.8609Z" fill="white"/>
<rect x="114.922" y="184.82" width="184.048" height="39" rx="4" transform="rotate(-91.1924 114.922 184.82)" fill="#9A7858"/>
<g filter="url(#filter1_i_33_92006)">
<rect x="114.754" y="176.773" width="176" height="39" rx="4" transform="rotate(-91.1924 114.754 176.773)" fill="#C8A078"/>
</g>
<path opacity="0.1" d="M136.862 133.205C136.946 137.268 135.467 141.645 132.097 141.716C128.727 141.786 127.96 138.506 127.876 134.443C127.791 130.38 128.421 127.072 131.791 127.002C135.161 126.932 136.777 129.142 136.862 133.205Z" fill="black"/>
<path opacity="0.1" d="M138.536 47.1278C138.708 55.4233 137.021 64.3329 133.003 64.4165C128.985 64.5001 128.013 57.7926 127.84 49.4971C127.667 41.2016 128.36 34.4595 132.378 34.3758C136.396 34.2922 138.363 38.8323 138.536 47.1278Z" fill="white"/>
<rect x="60.1094" y="199.13" width="91" height="39" rx="4" transform="rotate(-92.548 60.1094 199.13)" fill="#9A7858"/>
<g filter="url(#filter2_i_33_92006)">
<rect x="59.7539" y="191.17" width="176" height="39" rx="4" transform="rotate(-92.548 59.7539 191.17)" fill="#C8A078"/>
</g>
<path opacity="0.1" d="M73.1369 41.7989C73.3175 45.8589 71.9422 50.2701 68.5747 50.42C65.2072 50.5698 64.3633 47.3096 64.1826 43.2497C64.0019 39.1897 64.5529 35.8674 67.9204 35.7175C71.288 35.5677 72.9562 37.739 73.1369 41.7989Z" fill="black"/>
<path opacity="0.1" d="M87.5043 177.587C87.6323 180.462 84.7528 183.672 78.2768 183.96C71.8008 184.248 70.3558 181.976 70.2278 179.101C70.0998 176.225 71.3373 173.834 77.8133 173.546C84.2893 173.258 87.3763 174.711 87.5043 177.587Z" fill="black"/>
<path opacity="0.1" d="M81.0609 32.7965C81.3997 40.4089 80.7967 48.592 78.7244 48.6843C76.652 48.7765 75.9482 42.6245 75.6095 35.012C75.2707 27.3996 75.4253 21.2094 77.4976 21.1172C79.5699 21.025 80.7222 25.184 81.0609 32.7965Z" fill="white"/>
<rect y="195.354" width="91" height="39" rx="4" transform="rotate(-90 0 195.354)" fill="#9A7858"/>
<g filter="url(#filter3_i_33_92006)">
<rect y="187.386" width="176" height="39" rx="4" transform="rotate(-90 0 187.386)" fill="#C8A078"/>
</g>
<path opacity="0.1" d="M19.0099 148.612C19.0099 152.676 17.4398 157.022 14.069 157.022C10.6981 157.022 10 153.727 10 149.663C10 145.599 10.6981 142.305 14.069 142.305C17.4398 142.305 19.0099 144.548 19.0099 148.612Z" fill="white"/>
<path opacity="0.1" d="M24.5563 123.471C24.5563 131.091 23.5901 139.239 21.5157 139.239C19.4413 139.239 19.0117 133.062 19.0117 125.442C19.0117 117.822 19.4413 111.645 21.5157 111.645C23.5901 111.645 24.5563 115.851 24.5563 123.471Z" fill="white"/>
<path opacity="0.1" d="M30.7939 49.8859C30.7939 52.7645 28.7407 55.8427 24.3327 55.8427C19.9247 55.8427 19.0117 53.5091 19.0117 50.6305C19.0117 47.7518 19.9247 45.4182 24.3327 45.4182C28.7407 45.4182 30.7939 47.0072 30.7939 49.8859Z" fill="black"/>
<defs>
<filter id="filter0_i_33_92006" x="162.051" y="5.91455" width="44.6289" height="176.947" filterUnits="userSpaceOnUse" color-interpolation-filters="sRGB">
<feFlood flood-opacity="0" result="BackgroundImageFix"/>
<feBlend mode="normal" in="SourceGraphic" in2="BackgroundImageFix" result="shape"/>
<feColorMatrix in="SourceAlpha" type="matrix" values="0 0 0 0 0 0 0 0 0 0 0 0 0 0 0 0 0 0 127 0" result="hardAlpha"/>
<feOffset dx="1"/>
<feComposite in2="hardAlpha" operator="arithmetic" k2="-1" k3="1"/>
<feColorMatrix type="matrix" values="0 0 0 0 0 0 0 0 0 0 0 0 0 0 0 0 0 0 0.25 0"/>
<feBlend mode="normal" in2="shape" result="effect1_innerShadow_33_92006"/>
</filter>
<filter id="filter1_i_33_92006" x="111.172" y="0.0822754" width="42.4922" height="176.609" filterUnits="userSpaceOnUse" color-interpolation-filters="sRGB">
<feFlood flood-opacity="0" result="BackgroundImageFix"/>
<feBlend mode="normal" in="SourceGraphic" in2="BackgroundImageFix" result="shape"/>
<feColorMatrix in="SourceAlpha" type="matrix" values="0 0 0 0 0 0 0 0 0 0 0 0 0 0 0 0 0 0 127 0" result="hardAlpha"/>
<feOffset dx="1"/>
<feComposite in2="hardAlpha" operator="arithmetic" k2="-1" k3="1"/>
<feColorMatrix type="matrix" values="0 0 0 0 0 0 0 0 0 0 0 0 0 0 0 0 0 0 0.25 0"/>
<feBlend mode="normal" in2="shape" result="effect1_innerShadow_33_92006"/>
</filter>
<filter id="filter2_i_33_92006" x="52.1016" y="13.7837" width="46.4414" height="177.212" filterUnits="userSpaceOnUse" color-interpolation-filters="sRGB">
<feFlood flood-opacity="0" result="BackgroundImageFix"/>
<feBlend mode="normal" in="SourceGraphic" in2="BackgroundImageFix" result="shape"/>
<feColorMatrix in="SourceAlpha" type="matrix" values="0 0 0 0 0 0 0 0 0 0 0 0 0 0 0 0 0 0 127 0" result="hardAlpha"/>
<feOffset dx="1"/>
<feComposite in2="hardAlpha" operator="arithmetic" k2="-1" k3="1"/>
<feColorMatrix type="matrix" values="0 0 0 0 0 0 0 0 0 0 0 0 0 0 0 0 0 0 0.25 0"/>
<feBlend mode="normal" in2="shape" result="effect1_innerShadow_33_92006"/>
</filter>
<filter id="filter3_i_33_92006" x="0" y="11.386" width="39" height="176" filterUnits="userSpaceOnUse" color-interpolation-filters="sRGB">
<feFlood flood-opacity="0" result="BackgroundImageFix"/>
<feBlend mode="normal" in="SourceGraphic" in2="BackgroundImageFix" result="shape"/>
<feColorMatrix in="SourceAlpha" type="matrix" values="0 0 0 0 0 0 0 0 0 0 0 0 0 0 0 0 0 0 127 0" result="hardAlpha"/>
<feOffset dx="1"/>
<feComposite in2="hardAlpha" operator="arithmetic" k2="-1" k3="1"/>
<feColorMatrix type="matrix" values="0 0 0 0 0 0 0 0 0 0 0 0 0 0 0 0 0 0 0.25 0"/>
<feBlend mode="normal" in2="shape" result="effect1_innerShadow_33_92006"/>
</filter>
</defs>
</svg>
