<svg width="285" height="491" viewBox="0 0 285 491" fill="none" xmlns="http://www.w3.org/2000/svg">
<g filter="url(#filter0_i_33_91981)">
<path d="M277.5 40V112.5" stroke="#93C5FD" stroke-width="11" stroke-linecap="round"/>
</g>
<g filter="url(#filter1_i_33_91981)">
<path d="M244 37V66.5" stroke="#93C5FD" stroke-width="18" stroke-linecap="round"/>
</g>
<g filter="url(#filter2_i_33_91981)">
<path d="M277.5 133V142.5" stroke="#93C5FD" stroke-width="11" stroke-linecap="round"/>
</g>
<circle cx="91.5" cy="400.5" r="90.5" fill="url(#paint0_radial_33_91981)" fill-opacity="0.4"/>
<circle cx="91.5" cy="399.5" r="68.5" fill="url(#paint1_radial_33_91981)" fill-opacity="0.4"/>
<g filter="url(#filter3_ii_33_91981)">
<path d="M45.1562 291.382C44.9963 294.952 44.9662 298.592 45.0262 302.172L39.9509 398.153C38.4319 426.878 61.3145 451.003 90.0802 451.003C118.88 451.003 141.776 426.823 140.205 398.066L135.096 304.532C135.216 294.042 139.646 283.782 146.896 276.272C148.636 274.542 150.486 272.972 152.436 271.492C153.126 271.042 153.956 270.512 154.626 270.022C155.416 269.622 156.166 269.162 156.936 268.672C171.706 261.102 186.746 253.852 201.046 245.402C211.926 238.582 221.506 229.542 228.856 219.012C238.576 205.352 244.546 188.762 246.056 172.262C249.106 140.922 233.986 107.892 208.856 88.8325C202.498 83.5 200.168 75.26 200.498 68C201.378 54.15 209.786 42.9625 222.736 36.8625C241.016 28.7825 259.616 34.4625 278.276 42.6725C282.486 44.6225 286.686 39.7425 283.956 35.8225C268.696 14.3625 243.246 -1.49753 215.996 0.11247C173.836 2.70247 141.256 39.7025 138.556 82.0325C137.116 104.252 146.786 128.522 163.376 144.252C169.498 151 167.548 159.41 164.998 163.5C163.538 165.81 157.576 168.732 155.076 169.742C142.826 174.732 129.986 180.152 117.876 185.462C76.1963 204.002 47.4062 245.742 45.1562 291.382Z" fill="#991B1B"/>
</g>
<g filter="url(#filter4_ii_33_91981)">
<path d="M91.0003 335.495C91.0003 308.995 78.998 261.203 173.5 228C256.284 198.914 242.073 133.5 233.999 118C233.999 118 252.499 143.505 244.501 183.495C237.301 219.495 228.999 232 195.501 249.995L160.501 267.495C139.701 277.895 135.167 295.495 135.501 303.495L143.501 402.995C144.301 428.995 117.5 451.495 91.0003 451.495V335.495Z" fill="#F87171"/>
<path d="M198.999 28.9998C218.999 10.0025 253.999 18.4999 277.999 42.5015C259.999 35.0015 226.999 27.9938 209.999 45.9938C196.399 60.3938 202.332 79.3333 205.999 85.9999C195.999 78.9166 172.999 54.0016 198.999 28.9998Z" fill="#F87171"/>
</g>
<g filter="url(#filter5_di_33_91981)">
<ellipse cx="175.456" cy="255.796" rx="7.92893" ry="11.4258" transform="rotate(66.503 175.456 255.796)" fill="#EF4444"/>
<ellipse cx="175.456" cy="255.796" rx="7.92893" ry="11.4258" transform="rotate(66.503 175.456 255.796)" stroke="#FCA5A5" stroke-width="4" stroke-linecap="round"/>
</g>
<g filter="url(#filter6_di_33_91981)">
<path d="M140.999 347.166C141.573 358.379 139.202 365.545 132.673 365.879C126.144 366.213 120.505 359.494 119.931 348.281C119.357 337.068 124.303 329.807 130.832 329.473C137.361 329.139 140.426 335.953 140.999 347.166Z" fill="#EF4444"/>
<path d="M140.999 347.166C141.573 358.379 139.202 365.545 132.673 365.879C126.144 366.213 120.505 359.494 119.931 348.281C119.357 337.068 124.303 329.807 130.832 329.473C137.361 329.139 140.426 335.953 140.999 347.166Z" stroke="#FCA5A5" stroke-width="5" stroke-linecap="round"/>
</g>
<g filter="url(#filter7_di_33_91981)">
<path d="M145.134 391.616C145.753 401.484 147.347 407.663 138.383 415.865C124.919 424.396 121.224 413.416 121.575 393.344C120.956 383.476 127.335 374.047 135.657 373.525C143.979 373.003 144.515 381.749 145.134 391.616Z" fill="#EF4444"/>
<path d="M145.134 391.616C145.753 401.484 147.347 407.663 138.383 415.865C124.919 424.396 121.224 413.416 121.575 393.344C120.956 383.476 127.335 374.047 135.657 373.525C143.979 373.003 144.515 381.749 145.134 391.616Z" stroke="#FCA5A5" stroke-width="5" stroke-linecap="round"/>
</g>
<g filter="url(#filter8_di_33_91981)">
<path d="M204.564 63.0042C204.348 67.9539 203.75 71.7758 200.215 71.6216C196.681 71.4674 193.991 67.3299 194.207 62.3802C194.423 57.4305 197.463 53.543 200.997 53.6972C204.532 53.8514 204.78 58.0545 204.564 63.0042Z" fill="#EF4444"/>
<path d="M204.564 63.0042C204.348 67.9539 203.75 71.7758 200.215 71.6216C196.681 71.4674 193.991 67.3299 194.207 62.3802C194.423 57.4305 197.463 53.543 200.997 53.6972C204.532 53.8514 204.78 58.0545 204.564 63.0042Z" stroke="#FCA5A5" stroke-width="3" stroke-linecap="round"/>
</g>
<g filter="url(#filter9_di_33_91981)">
<ellipse cx="210.53" cy="40.8222" rx="5.61937" ry="8.09767" transform="rotate(47.5658 210.53 40.8222)" fill="#EF4444"/>
<ellipse cx="210.53" cy="40.8222" rx="5.61937" ry="8.09767" transform="rotate(47.5658 210.53 40.8222)" stroke="#FCA5A5" stroke-width="3" stroke-linecap="round"/>
</g>
<g filter="url(#filter10_di_33_91981)">
<ellipse cx="230.886" cy="32.7519" rx="4.54907" ry="6.55534" transform="rotate(84.1702 230.886 32.7519)" fill="#EF4444"/>
<ellipse cx="230.886" cy="32.7519" rx="4.54907" ry="6.55534" transform="rotate(84.1702 230.886 32.7519)" stroke="#FCA5A5" stroke-width="3" stroke-linecap="round"/>
</g>
<g filter="url(#filter11_di_33_91981)">
<ellipse cx="251.785" cy="33.5587" rx="3.11835" ry="4.49362" transform="rotate(99.9493 251.785 33.5587)" fill="#EF4444"/>
<ellipse cx="251.785" cy="33.5587" rx="3.11835" ry="4.49362" transform="rotate(99.9493 251.785 33.5587)" stroke="#FCA5A5" stroke-width="3" stroke-linecap="round"/>
</g>
<g filter="url(#filter12_di_33_91981)">
<path d="M152.498 281C146.796 285.529 140.857 287.734 137.249 283.192C133.642 278.65 135.339 271.297 141.04 266.768C146.741 262.239 154.288 262.251 157.896 266.793C161.504 271.335 158.199 276.472 152.498 281Z" fill="#EF4444"/>
<path d="M152.498 281C146.796 285.529 140.857 287.734 137.249 283.192C133.642 278.65 135.339 271.297 141.04 266.768C146.741 262.239 154.288 262.251 157.896 266.793C161.504 271.335 158.199 276.472 152.498 281Z" stroke="#FCA5A5" stroke-width="4" stroke-linecap="round"/>
</g>
<g filter="url(#filter13_di_33_91981)">
<ellipse cx="204.341" cy="240.104" rx="7.57035" ry="10.5072" transform="rotate(57.4529 204.341 240.104)" fill="#EF4444"/>
<ellipse cx="204.341" cy="240.104" rx="7.57035" ry="10.5072" transform="rotate(57.4529 204.341 240.104)" stroke="#FCA5A5" stroke-width="4" stroke-linecap="round"/>
</g>
<g filter="url(#filter14_di_33_91981)">
<path d="M234.124 224.697C231.308 228.996 226.469 230.806 223.316 228.74C220.162 226.674 219.889 221.515 222.705 217.216C225.521 212.918 230.979 207.829 234.132 209.895C238.925 213.673 236.94 220.398 234.124 224.697Z" fill="#EF4444"/>
<path d="M234.124 224.697C231.308 228.996 226.469 230.806 223.316 228.74C220.162 226.674 219.889 221.515 222.705 217.216C225.521 212.918 230.979 207.829 234.132 209.895C238.925 213.673 236.94 220.398 234.124 224.697Z" stroke="#FCA5A5" stroke-width="4" stroke-linecap="round"/>
</g>
<g filter="url(#filter15_di_33_91981)">
<path d="M247.029 195.5C245.627 200.569 245.88 205 240.529 204C238.234 203.365 236.167 198.248 237.57 193.179C238.972 188.109 241.97 184.515 244.265 185.15C248.029 186.192 248.432 190.431 247.029 195.5Z" fill="#EF4444"/>
<path d="M247.029 195.5C245.627 200.569 245.88 205 240.529 204C238.234 203.365 236.167 198.248 237.57 193.179C238.972 188.109 241.97 184.515 244.265 185.15C248.029 186.192 248.432 190.431 247.029 195.5Z" stroke="#FCA5A5" stroke-width="4" stroke-linecap="round"/>
</g>
<g filter="url(#filter16_dii_33_91981)">
<path d="M138.513 308.646C137.452 317.418 133.495 322.02 127.472 321.291C121.448 320.563 118.276 314.978 119.337 306.206C120.398 297.433 127.231 291.044 133.255 291.772C139.278 292.5 139.574 299.873 138.513 308.646Z" fill="#EF4444"/>
<path d="M138.513 308.646C137.452 317.418 133.495 322.02 127.472 321.291C121.448 320.563 118.276 314.978 119.337 306.206C120.398 297.433 127.231 291.044 133.255 291.772C139.278 292.5 139.574 299.873 138.513 308.646Z" stroke="#FCA5A5" stroke-width="4" stroke-linecap="round"/>
</g>
<path opacity="0.6" d="M224.209 119.463C227.306 124.689 227.587 136.035 225.091 137.515C222.594 138.995 219.055 128.987 215.958 123.761C212.86 118.535 211.582 114.16 214.079 112.68C216.576 111.2 221.111 114.237 224.209 119.463Z" fill="white"/>
<mask id="mask0_33_91981" style="mask-type:alpha" maskUnits="userSpaceOnUse" x="39" y="0" width="246" height="452">
<path d="M45.1562 291.382C44.9963 294.952 44.9662 298.592 45.0262 302.172L39.9509 398.153C38.4319 426.878 61.3145 451.003 90.0802 451.003C118.88 451.003 141.776 426.823 140.205 398.066L135.096 304.532C135.216 294.042 139.646 283.782 146.896 276.272C148.636 274.542 150.486 272.972 152.436 271.492C153.126 271.042 153.956 270.512 154.626 270.022C155.416 269.622 156.166 269.162 156.936 268.672C171.706 261.102 186.746 253.852 201.046 245.402C211.926 238.582 221.506 229.542 228.856 219.012C238.576 205.352 244.546 188.762 246.056 172.262C249.106 140.922 233.986 107.892 208.856 88.8325C202.498 83.5 200.168 75.26 200.498 68C201.378 54.15 209.786 42.9625 222.736 36.8625C241.016 28.7825 259.616 34.4625 278.276 42.6725C282.486 44.6225 286.686 39.7425 283.956 35.8225C268.696 14.3625 243.246 -1.49753 215.996 0.11247C173.836 2.70247 141.256 39.7025 138.556 82.0325C137.116 104.252 146.786 128.522 163.376 144.252C169.498 151 167.548 159.41 164.998 163.5C163.538 165.81 157.576 168.732 155.076 169.742C142.826 174.732 129.986 180.152 117.876 185.462C76.1963 204.002 47.4062 245.742 45.1562 291.382Z" fill="#991B1B"/>
</mask>
<g mask="url(#mask0_33_91981)">
<path d="M1.87936 356.348C2.06522 335.615 30.2036 302.066 44.7796 302.197C59.3556 302.328 76.6193 340.723 76.4335 361.455C76.2476 382.188 42.511 394.255 27.935 394.125C13.359 393.994 1.69349 377.081 1.87936 356.348Z" fill="black" fill-opacity="0.12"/>
<path d="M29.4766 442.059C29.6567 421.96 52.7839 406.206 61.4285 406.284C70.0731 406.361 80.1827 443.523 80.0025 463.622C79.8223 483.721 59.7724 495.532 51.1278 495.455C42.4832 495.377 29.2964 462.157 29.4766 442.059Z" fill="black" fill-opacity="0.12"/>
<path d="M50.2724 259.126C50.4228 242.349 65.9748 215.137 73.9902 215.209C82.0056 215.28 91.4101 246.309 91.2597 263.086C91.1093 279.862 72.5286 289.705 64.5132 289.633C56.4978 289.562 50.122 275.903 50.2724 259.126Z" fill="black" fill-opacity="0.12"/>
<path d="M100.279 185.211C111.479 177.527 139.518 179.254 144.639 186.718C149.76 194.183 135.289 217.371 124.089 225.055C112.889 232.739 94.3931 220.104 89.2721 212.64C84.151 205.175 89.0791 192.895 100.279 185.211Z" fill="black" fill-opacity="0.12"/>
<path d="M150.167 167.643C151.916 159.034 162.622 146.597 166.735 147.432C170.848 148.268 172.589 165.155 170.84 173.763C169.091 182.372 158.559 185.579 154.446 184.743C150.333 183.908 148.417 176.251 150.167 167.643Z" fill="black" fill-opacity="0.12"/>
<path d="M141.777 123.948C136.539 115.256 141.489 92.9573 148.552 88.7016C155.615 84.4459 173.806 95.3378 179.044 104.031C184.282 112.724 171.112 127.727 164.049 131.983C156.986 136.239 147.015 132.641 141.777 123.948Z" fill="black" fill-opacity="0.12"/>
<path d="M164.975 56.8559C165.017 65.6403 153.182 80.0176 146.949 80.0474C140.716 80.0771 133.109 63.912 133.067 55.1276C133.025 46.3431 147.38 41.0339 153.613 41.0041C159.846 40.9744 164.934 48.0715 164.975 56.8559Z" fill="black" fill-opacity="0.12"/>
<path d="M164.576 10.2558C170.417 3.69513 185.926 -1.67024 189.061 1.12074C192.195 3.91172 185.208 19.3827 179.366 25.9434C173.524 32.5041 162.808 29.9794 159.674 27.1884C156.539 24.3974 158.734 16.8164 164.576 10.2558Z" fill="black" fill-opacity="0.12"/>
</g>
<path opacity="0.6" d="M227.914 5.77708C231.714 6.28071 234.619 8.0134 234.402 9.64714C234.186 11.2809 231.56 12.1939 227.761 11.6903C223.961 11.1866 220.426 9.45705 220.643 7.82331C220.859 6.18957 224.115 5.27344 227.914 5.77708Z" fill="white"/>
<defs>
<filter id="filter0_i_33_91981" x="268" y="34.5" width="15" height="85.5" filterUnits="userSpaceOnUse" color-interpolation-filters="sRGB">
<feFlood flood-opacity="0" result="BackgroundImageFix"/>
<feBlend mode="normal" in="SourceGraphic" in2="BackgroundImageFix" result="shape"/>
<feColorMatrix in="SourceAlpha" type="matrix" values="0 0 0 0 0 0 0 0 0 0 0 0 0 0 0 0 0 0 127 0" result="hardAlpha"/>
<feOffset dx="-4" dy="2"/>
<feGaussianBlur stdDeviation="2"/>
<feComposite in2="hardAlpha" operator="arithmetic" k2="-1" k3="1"/>
<feColorMatrix type="matrix" values="0 0 0 0 1 0 0 0 0 1 0 0 0 0 1 0 0 0 0.25 0"/>
<feBlend mode="normal" in2="shape" result="effect1_innerShadow_33_91981"/>
</filter>
<filter id="filter1_i_33_91981" x="231" y="28" width="22" height="49.5" filterUnits="userSpaceOnUse" color-interpolation-filters="sRGB">
<feFlood flood-opacity="0" result="BackgroundImageFix"/>
<feBlend mode="normal" in="SourceGraphic" in2="BackgroundImageFix" result="shape"/>
<feColorMatrix in="SourceAlpha" type="matrix" values="0 0 0 0 0 0 0 0 0 0 0 0 0 0 0 0 0 0 127 0" result="hardAlpha"/>
<feOffset dx="-4" dy="2"/>
<feGaussianBlur stdDeviation="2"/>
<feComposite in2="hardAlpha" operator="arithmetic" k2="-1" k3="1"/>
<feColorMatrix type="matrix" values="0 0 0 0 1 0 0 0 0 1 0 0 0 0 1 0 0 0 0.25 0"/>
<feBlend mode="normal" in2="shape" result="effect1_innerShadow_33_91981"/>
</filter>
<filter id="filter2_i_33_91981" x="268" y="127.5" width="15" height="22.5" filterUnits="userSpaceOnUse" color-interpolation-filters="sRGB">
<feFlood flood-opacity="0" result="BackgroundImageFix"/>
<feBlend mode="normal" in="SourceGraphic" in2="BackgroundImageFix" result="shape"/>
<feColorMatrix in="SourceAlpha" type="matrix" values="0 0 0 0 0 0 0 0 0 0 0 0 0 0 0 0 0 0 127 0" result="hardAlpha"/>
<feOffset dx="-4" dy="2"/>
<feGaussianBlur stdDeviation="2"/>
<feComposite in2="hardAlpha" operator="arithmetic" k2="-1" k3="1"/>
<feColorMatrix type="matrix" values="0 0 0 0 1 0 0 0 0 1 0 0 0 0 1 0 0 0 0.25 0"/>
<feBlend mode="normal" in2="shape" result="effect1_innerShadow_33_91981"/>
</filter>
<filter id="filter3_ii_33_91981" x="31.8789" y="0" width="276.945" height="471.003" filterUnits="userSpaceOnUse" color-interpolation-filters="sRGB">
<feFlood flood-opacity="0" result="BackgroundImageFix"/>
<feBlend mode="normal" in="SourceGraphic" in2="BackgroundImageFix" result="shape"/>
<feColorMatrix in="SourceAlpha" type="matrix" values="0 0 0 0 0 0 0 0 0 0 0 0 0 0 0 0 0 0 127 0" result="hardAlpha"/>
<feOffset dx="24" dy="12"/>
<feGaussianBlur stdDeviation="14"/>
<feComposite in2="hardAlpha" operator="arithmetic" k2="-1" k3="1"/>
<feColorMatrix type="matrix" values="0 0 0 0 0 0 0 0 0 0 0 0 0 0 0 0 0 0 0.25 0"/>
<feBlend mode="normal" in2="shape" result="effect1_innerShadow_33_91981"/>
<feColorMatrix in="SourceAlpha" type="matrix" values="0 0 0 0 0 0 0 0 0 0 0 0 0 0 0 0 0 0 127 0" result="hardAlpha"/>
<feOffset dx="-8" dy="20"/>
<feGaussianBlur stdDeviation="10"/>
<feComposite in2="hardAlpha" operator="arithmetic" k2="-1" k3="1"/>
<feColorMatrix type="matrix" values="0 0 0 0 1 0 0 0 0 1 0 0 0 0 1 0 0 0 0.25 0"/>
<feBlend mode="normal" in2="effect1_innerShadow_33_91981" result="effect2_innerShadow_33_91981"/>
</filter>
<filter id="filter4_ii_33_91981" x="74.5078" y="18.5947" width="203.492" height="452.9" filterUnits="userSpaceOnUse" color-interpolation-filters="sRGB">
<feFlood flood-opacity="0" result="BackgroundImageFix"/>
<feBlend mode="normal" in="SourceGraphic" in2="BackgroundImageFix" result="shape"/>
<feColorMatrix in="SourceAlpha" type="matrix" values="0 0 0 0 0 0 0 0 0 0 0 0 0 0 0 0 0 0 127 0" result="hardAlpha"/>
<feOffset dy="4"/>
<feGaussianBlur stdDeviation="2"/>
<feComposite in2="hardAlpha" operator="arithmetic" k2="-1" k3="1"/>
<feColorMatrix type="matrix" values="0 0 0 0 1 0 0 0 0 1 0 0 0 0 1 0 0 0 0.25 0"/>
<feBlend mode="normal" in2="shape" result="effect1_innerShadow_33_91981"/>
<feColorMatrix in="SourceAlpha" type="matrix" values="0 0 0 0 0 0 0 0 0 0 0 0 0 0 0 0 0 0 127 0" result="hardAlpha"/>
<feOffset dx="-16" dy="20"/>
<feGaussianBlur stdDeviation="10"/>
<feComposite in2="hardAlpha" operator="arithmetic" k2="-1" k3="1"/>
<feColorMatrix type="matrix" values="0 0 0 0 1 0 0 0 0 1 0 0 0 0 1 0 0 0 0.25 0"/>
<feBlend mode="normal" in2="effect1_innerShadow_33_91981" result="effect2_innerShadow_33_91981"/>
</filter>
<filter id="filter5_di_33_91981" x="156.508" y="241.214" width="31.8984" height="26.1636" filterUnits="userSpaceOnUse" color-interpolation-filters="sRGB">
<feFlood flood-opacity="0" result="BackgroundImageFix"/>
<feColorMatrix in="SourceAlpha" type="matrix" values="0 0 0 0 0 0 0 0 0 0 0 0 0 0 0 0 0 0 127 0" result="hardAlpha"/>
<feOffset dx="-4" dy="1"/>
<feComposite in2="hardAlpha" operator="out"/>
<feColorMatrix type="matrix" values="0 0 0 0 0 0 0 0 0 0 0 0 0 0 0 0 0 0 0.1 0"/>
<feBlend mode="normal" in2="BackgroundImageFix" result="effect1_dropShadow_33_91981"/>
<feBlend mode="normal" in="SourceGraphic" in2="effect1_dropShadow_33_91981" result="shape"/>
<feColorMatrix in="SourceAlpha" type="matrix" values="0 0 0 0 0 0 0 0 0 0 0 0 0 0 0 0 0 0 127 0" result="hardAlpha"/>
<feOffset dx="-6" dy="-4"/>
<feGaussianBlur stdDeviation="8.5"/>
<feComposite in2="hardAlpha" operator="arithmetic" k2="-1" k3="1"/>
<feColorMatrix type="matrix" values="0 0 0 0 0 0 0 0 0 0 0 0 0 0 0 0 0 0 0.25 0"/>
<feBlend mode="normal" in2="shape" result="effect2_innerShadow_33_91981"/>
</filter>
<filter id="filter6_di_33_91981" x="113.387" y="322.961" width="32.1953" height="46.4297" filterUnits="userSpaceOnUse" color-interpolation-filters="sRGB">
<feFlood flood-opacity="0" result="BackgroundImageFix"/>
<feColorMatrix in="SourceAlpha" type="matrix" values="0 0 0 0 0 0 0 0 0 0 0 0 0 0 0 0 0 0 127 0" result="hardAlpha"/>
<feOffset dx="-4" dy="1"/>
<feComposite in2="hardAlpha" operator="out"/>
<feColorMatrix type="matrix" values="0 0 0 0 0 0 0 0 0 0 0 0 0 0 0 0 0 0 0.1 0"/>
<feBlend mode="normal" in2="BackgroundImageFix" result="effect1_dropShadow_33_91981"/>
<feBlend mode="normal" in="SourceGraphic" in2="effect1_dropShadow_33_91981" result="shape"/>
<feColorMatrix in="SourceAlpha" type="matrix" values="0 0 0 0 0 0 0 0 0 0 0 0 0 0 0 0 0 0 127 0" result="hardAlpha"/>
<feOffset dx="2" dy="-4"/>
<feGaussianBlur stdDeviation="12.5"/>
<feComposite in2="hardAlpha" operator="arithmetic" k2="-1" k3="1"/>
<feColorMatrix type="matrix" values="0 0 0 0 0 0 0 0 0 0 0 0 0 0 0 0 0 0 0.25 0"/>
<feBlend mode="normal" in2="shape" result="effect2_innerShadow_33_91981"/>
</filter>
<filter id="filter7_di_33_91981" x="115.035" y="367.003" width="35.1133" height="55.2793" filterUnits="userSpaceOnUse" color-interpolation-filters="sRGB">
<feFlood flood-opacity="0" result="BackgroundImageFix"/>
<feColorMatrix in="SourceAlpha" type="matrix" values="0 0 0 0 0 0 0 0 0 0 0 0 0 0 0 0 0 0 127 0" result="hardAlpha"/>
<feOffset dx="-4" dy="1"/>
<feComposite in2="hardAlpha" operator="out"/>
<feColorMatrix type="matrix" values="0 0 0 0 0 0 0 0 0 0 0 0 0 0 0 0 0 0 0.1 0"/>
<feBlend mode="normal" in2="BackgroundImageFix" result="effect1_dropShadow_33_91981"/>
<feBlend mode="normal" in="SourceGraphic" in2="effect1_dropShadow_33_91981" result="shape"/>
<feColorMatrix in="SourceAlpha" type="matrix" values="0 0 0 0 0 0 0 0 0 0 0 0 0 0 0 0 0 0 127 0" result="hardAlpha"/>
<feOffset dx="2" dy="-4"/>
<feGaussianBlur stdDeviation="12.5"/>
<feComposite in2="hardAlpha" operator="arithmetic" k2="-1" k3="1"/>
<feColorMatrix type="matrix" values="0 0 0 0 0 0 0 0 0 0 0 0 0 0 0 0 0 0 0.25 0"/>
<feBlend mode="normal" in2="shape" result="effect2_innerShadow_33_91981"/>
</filter>
<filter id="filter8_di_33_91981" x="186.695" y="48.1929" width="19.4258" height="25.9331" filterUnits="userSpaceOnUse" color-interpolation-filters="sRGB">
<feFlood flood-opacity="0" result="BackgroundImageFix"/>
<feColorMatrix in="SourceAlpha" type="matrix" values="0 0 0 0 0 0 0 0 0 0 0 0 0 0 0 0 0 0 127 0" result="hardAlpha"/>
<feOffset dx="-2" dy="1"/>
<feComposite in2="hardAlpha" operator="out"/>
<feColorMatrix type="matrix" values="0 0 0 0 0 0 0 0 0 0 0 0 0 0 0 0 0 0 0.1 0"/>
<feBlend mode="normal" in2="BackgroundImageFix" result="effect1_dropShadow_33_91981"/>
<feBlend mode="normal" in="SourceGraphic" in2="effect1_dropShadow_33_91981" result="shape"/>
<feColorMatrix in="SourceAlpha" type="matrix" values="0 0 0 0 0 0 0 0 0 0 0 0 0 0 0 0 0 0 127 0" result="hardAlpha"/>
<feOffset dx="-6" dy="-4"/>
<feGaussianBlur stdDeviation="8.5"/>
<feComposite in2="hardAlpha" operator="arithmetic" k2="-1" k3="1"/>
<feColorMatrix type="matrix" values="0 0 0 0 0 0 0 0 0 0 0 0 0 0 0 0 0 0 0.25 0"/>
<feBlend mode="normal" in2="shape" result="effect2_innerShadow_33_91981"/>
</filter>
<filter id="filter9_di_33_91981" x="195.953" y="28.4629" width="23.1562" height="21.7188" filterUnits="userSpaceOnUse" color-interpolation-filters="sRGB">
<feFlood flood-opacity="0" result="BackgroundImageFix"/>
<feColorMatrix in="SourceAlpha" type="matrix" values="0 0 0 0 0 0 0 0 0 0 0 0 0 0 0 0 0 0 127 0" result="hardAlpha"/>
<feOffset dx="-2" dy="1"/>
<feComposite in2="hardAlpha" operator="out"/>
<feColorMatrix type="matrix" values="0 0 0 0 0 0 0 0 0 0 0 0 0 0 0 0 0 0 0.1 0"/>
<feBlend mode="normal" in2="BackgroundImageFix" result="effect1_dropShadow_33_91981"/>
<feBlend mode="normal" in="SourceGraphic" in2="effect1_dropShadow_33_91981" result="shape"/>
<feColorMatrix in="SourceAlpha" type="matrix" values="0 0 0 0 0 0 0 0 0 0 0 0 0 0 0 0 0 0 127 0" result="hardAlpha"/>
<feOffset dx="-6" dy="-4"/>
<feGaussianBlur stdDeviation="8.5"/>
<feComposite in2="hardAlpha" operator="arithmetic" k2="-1" k3="1"/>
<feColorMatrix type="matrix" values="0 0 0 0 0 0 0 0 0 0 0 0 0 0 0 0 0 0 0.25 0"/>
<feBlend mode="normal" in2="shape" result="effect2_innerShadow_33_91981"/>
</filter>
<filter id="filter10_di_33_91981" x="216.848" y="22.6772" width="22.0781" height="17.1494" filterUnits="userSpaceOnUse" color-interpolation-filters="sRGB">
<feFlood flood-opacity="0" result="BackgroundImageFix"/>
<feColorMatrix in="SourceAlpha" type="matrix" values="0 0 0 0 0 0 0 0 0 0 0 0 0 0 0 0 0 0 127 0" result="hardAlpha"/>
<feOffset dx="-2" dy="1"/>
<feComposite in2="hardAlpha" operator="out"/>
<feColorMatrix type="matrix" values="0 0 0 0 0 0 0 0 0 0 0 0 0 0 0 0 0 0 0.1 0"/>
<feBlend mode="normal" in2="BackgroundImageFix" result="effect1_dropShadow_33_91981"/>
<feBlend mode="normal" in="SourceGraphic" in2="effect1_dropShadow_33_91981" result="shape"/>
<feColorMatrix in="SourceAlpha" type="matrix" values="0 0 0 0 0 0 0 0 0 0 0 0 0 0 0 0 0 0 127 0" result="hardAlpha"/>
<feOffset dx="-6" dy="-4"/>
<feGaussianBlur stdDeviation="8.5"/>
<feComposite in2="hardAlpha" operator="arithmetic" k2="-1" k3="1"/>
<feColorMatrix type="matrix" values="0 0 0 0 0 0 0 0 0 0 0 0 0 0 0 0 0 0 0.25 0"/>
<feBlend mode="normal" in2="shape" result="effect2_innerShadow_33_91981"/>
</filter>
<filter id="filter11_di_33_91981" x="239.824" y="24.8901" width="17.9219" height="14.3374" filterUnits="userSpaceOnUse" color-interpolation-filters="sRGB">
<feFlood flood-opacity="0" result="BackgroundImageFix"/>
<feColorMatrix in="SourceAlpha" type="matrix" values="0 0 0 0 0 0 0 0 0 0 0 0 0 0 0 0 0 0 127 0" result="hardAlpha"/>
<feOffset dx="-2" dy="1"/>
<feComposite in2="hardAlpha" operator="out"/>
<feColorMatrix type="matrix" values="0 0 0 0 0 0 0 0 0 0 0 0 0 0 0 0 0 0 0.1 0"/>
<feBlend mode="normal" in2="BackgroundImageFix" result="effect1_dropShadow_33_91981"/>
<feBlend mode="normal" in="SourceGraphic" in2="effect1_dropShadow_33_91981" result="shape"/>
<feColorMatrix in="SourceAlpha" type="matrix" values="0 0 0 0 0 0 0 0 0 0 0 0 0 0 0 0 0 0 127 0" result="hardAlpha"/>
<feOffset dx="-6" dy="-4"/>
<feGaussianBlur stdDeviation="8.5"/>
<feComposite in2="hardAlpha" operator="arithmetic" k2="-1" k3="1"/>
<feColorMatrix type="matrix" values="0 0 0 0 0 0 0 0 0 0 0 0 0 0 0 0 0 0 0.25 0"/>
<feBlend mode="normal" in2="shape" result="effect2_innerShadow_33_91981"/>
</filter>
<filter id="filter12_di_33_91981" x="127.34" y="257.379" width="34.0625" height="31.3115" filterUnits="userSpaceOnUse" color-interpolation-filters="sRGB">
<feFlood flood-opacity="0" result="BackgroundImageFix"/>
<feColorMatrix in="SourceAlpha" type="matrix" values="0 0 0 0 0 0 0 0 0 0 0 0 0 0 0 0 0 0 127 0" result="hardAlpha"/>
<feOffset dx="-4" dy="1"/>
<feComposite in2="hardAlpha" operator="out"/>
<feColorMatrix type="matrix" values="0 0 0 0 0 0 0 0 0 0 0 0 0 0 0 0 0 0 0.1 0"/>
<feBlend mode="normal" in2="BackgroundImageFix" result="effect1_dropShadow_33_91981"/>
<feBlend mode="normal" in="SourceGraphic" in2="effect1_dropShadow_33_91981" result="shape"/>
<feColorMatrix in="SourceAlpha" type="matrix" values="0 0 0 0 0 0 0 0 0 0 0 0 0 0 0 0 0 0 127 0" result="hardAlpha"/>
<feOffset dx="-6" dy="-4"/>
<feGaussianBlur stdDeviation="8.5"/>
<feComposite in2="hardAlpha" operator="arithmetic" k2="-1" k3="1"/>
<feColorMatrix type="matrix" values="0 0 0 0 0 0 0 0 0 0 0 0 0 0 0 0 0 0 0.25 0"/>
<feBlend mode="normal" in2="shape" result="effect2_innerShadow_33_91981"/>
</filter>
<filter id="filter13_di_33_91981" x="186.59" y="225.579" width="29.5" height="26.0503" filterUnits="userSpaceOnUse" color-interpolation-filters="sRGB">
<feFlood flood-opacity="0" result="BackgroundImageFix"/>
<feColorMatrix in="SourceAlpha" type="matrix" values="0 0 0 0 0 0 0 0 0 0 0 0 0 0 0 0 0 0 127 0" result="hardAlpha"/>
<feOffset dx="-4" dy="1"/>
<feComposite in2="hardAlpha" operator="out"/>
<feColorMatrix type="matrix" values="0 0 0 0 0 0 0 0 0 0 0 0 0 0 0 0 0 0 0.1 0"/>
<feBlend mode="normal" in2="BackgroundImageFix" result="effect1_dropShadow_33_91981"/>
<feBlend mode="normal" in="SourceGraphic" in2="effect1_dropShadow_33_91981" result="shape"/>
<feColorMatrix in="SourceAlpha" type="matrix" values="0 0 0 0 0 0 0 0 0 0 0 0 0 0 0 0 0 0 127 0" result="hardAlpha"/>
<feOffset dx="-6" dy="-4"/>
<feGaussianBlur stdDeviation="8.5"/>
<feComposite in2="hardAlpha" operator="arithmetic" k2="-1" k3="1"/>
<feColorMatrix type="matrix" values="0 0 0 0 0 0 0 0 0 0 0 0 0 0 0 0 0 0 0.25 0"/>
<feBlend mode="normal" in2="shape" result="effect2_innerShadow_33_91981"/>
</filter>
<filter id="filter14_di_33_91981" x="212.758" y="203.421" width="26.2695" height="29.1724" filterUnits="userSpaceOnUse" color-interpolation-filters="sRGB">
<feFlood flood-opacity="0" result="BackgroundImageFix"/>
<feColorMatrix in="SourceAlpha" type="matrix" values="0 0 0 0 0 0 0 0 0 0 0 0 0 0 0 0 0 0 127 0" result="hardAlpha"/>
<feOffset dx="-4" dy="1"/>
<feComposite in2="hardAlpha" operator="out"/>
<feColorMatrix type="matrix" values="0 0 0 0 0 0 0 0 0 0 0 0 0 0 0 0 0 0 0.1 0"/>
<feBlend mode="normal" in2="BackgroundImageFix" result="effect1_dropShadow_33_91981"/>
<feBlend mode="normal" in="SourceGraphic" in2="effect1_dropShadow_33_91981" result="shape"/>
<feColorMatrix in="SourceAlpha" type="matrix" values="0 0 0 0 0 0 0 0 0 0 0 0 0 0 0 0 0 0 127 0" result="hardAlpha"/>
<feOffset dx="-6" dy="-4"/>
<feGaussianBlur stdDeviation="8.5"/>
<feComposite in2="hardAlpha" operator="arithmetic" k2="-1" k3="1"/>
<feColorMatrix type="matrix" values="0 0 0 0 0 0 0 0 0 0 0 0 0 0 0 0 0 0 0.25 0"/>
<feBlend mode="normal" in2="shape" result="effect2_innerShadow_33_91981"/>
</filter>
<filter id="filter15_di_33_91981" x="229.113" y="179.072" width="20.6602" height="28.0698" filterUnits="userSpaceOnUse" color-interpolation-filters="sRGB">
<feFlood flood-opacity="0" result="BackgroundImageFix"/>
<feColorMatrix in="SourceAlpha" type="matrix" values="0 0 0 0 0 0 0 0 0 0 0 0 0 0 0 0 0 0 127 0" result="hardAlpha"/>
<feOffset dx="-4" dy="1"/>
<feComposite in2="hardAlpha" operator="out"/>
<feColorMatrix type="matrix" values="0 0 0 0 0 0 0 0 0 0 0 0 0 0 0 0 0 0 0.1 0"/>
<feBlend mode="normal" in2="BackgroundImageFix" result="effect1_dropShadow_33_91981"/>
<feBlend mode="normal" in="SourceGraphic" in2="effect1_dropShadow_33_91981" result="shape"/>
<feColorMatrix in="SourceAlpha" type="matrix" values="0 0 0 0 0 0 0 0 0 0 0 0 0 0 0 0 0 0 127 0" result="hardAlpha"/>
<feOffset dx="-6" dy="-4"/>
<feGaussianBlur stdDeviation="8.5"/>
<feComposite in2="hardAlpha" operator="arithmetic" k2="-1" k3="1"/>
<feColorMatrix type="matrix" values="0 0 0 0 0 0 0 0 0 0 0 0 0 0 0 0 0 0 0.25 0"/>
<feBlend mode="normal" in2="shape" result="effect2_innerShadow_33_91981"/>
</filter>
<filter id="filter16_dii_33_91981" x="111.137" y="285.715" width="29.8516" height="41.6514" filterUnits="userSpaceOnUse" color-interpolation-filters="sRGB">
<feFlood flood-opacity="0" result="BackgroundImageFix"/>
<feColorMatrix in="SourceAlpha" type="matrix" values="0 0 0 0 0 0 0 0 0 0 0 0 0 0 0 0 0 0 127 0" result="hardAlpha"/>
<feOffset dx="-4" dy="1"/>
<feComposite in2="hardAlpha" operator="out"/>
<feColorMatrix type="matrix" values="0 0 0 0 0 0 0 0 0 0 0 0 0 0 0 0 0 0 0.1 0"/>
<feBlend mode="normal" in2="BackgroundImageFix" result="effect1_dropShadow_33_91981"/>
<feBlend mode="normal" in="SourceGraphic" in2="effect1_dropShadow_33_91981" result="shape"/>
<feColorMatrix in="SourceAlpha" type="matrix" values="0 0 0 0 0 0 0 0 0 0 0 0 0 0 0 0 0 0 127 0" result="hardAlpha"/>
<feOffset dx="-6" dy="-4"/>
<feGaussianBlur stdDeviation="8.5"/>
<feComposite in2="hardAlpha" operator="arithmetic" k2="-1" k3="1"/>
<feColorMatrix type="matrix" values="0 0 0 0 0 0 0 0 0 0 0 0 0 0 0 0 0 0 0.25 0"/>
<feBlend mode="normal" in2="shape" result="effect2_innerShadow_33_91981"/>
<feColorMatrix in="SourceAlpha" type="matrix" values="0 0 0 0 0 0 0 0 0 0 0 0 0 0 0 0 0 0 127 0" result="hardAlpha"/>
<feOffset dy="4"/>
<feGaussianBlur stdDeviation="2"/>
<feComposite in2="hardAlpha" operator="arithmetic" k2="-1" k3="1"/>
<feColorMatrix type="matrix" values="0 0 0 0 0 0 0 0 0 0 0 0 0 0 0 0 0 0 0.25 0"/>
<feBlend mode="normal" in2="effect2_innerShadow_33_91981" result="effect3_innerShadow_33_91981"/>
</filter>
<radialGradient id="paint0_radial_33_91981" cx="0" cy="0" r="1" gradientUnits="userSpaceOnUse" gradientTransform="translate(92 400) rotate(90) scale(91)">
<stop offset="0.779747" stop-color="white" stop-opacity="0"/>
<stop offset="1" stop-color="white"/>
</radialGradient>
<radialGradient id="paint1_radial_33_91981" cx="0" cy="0" r="1" gradientUnits="userSpaceOnUse" gradientTransform="translate(91.5 399.5) rotate(90) scale(68.5)">
<stop offset="0.828125" stop-color="white" stop-opacity="0"/>
<stop offset="1" stop-color="white"/>
</radialGradient>
</defs>
</svg>
