<svg width="184" height="268" viewBox="0 0 184 268" fill="none" xmlns="http://www.w3.org/2000/svg">
<circle cx="46" cy="222" r="46" fill="url(#paint0_radial_33_91983)" fill-opacity="0.4"/>
<ellipse cx="46" cy="223.5" rx="34" ry="33.5" fill="url(#paint1_radial_33_91983)" fill-opacity="0.4"/>
<g filter="url(#filter0_ii_33_91983)">
<path d="M50.7159 129.584C60.1211 139.806 70.9933 154.335 70.9062 169L72.7148 222.278C73.2293 237.434 61.0826 250 45.9181 250C30.6523 250 18.4671 237.272 19.1313 222.021L20.7005 185.995C20.8189 182.962 20.3764 179.952 19.3867 177.105C18.6166 174.946 17.512 172.88 16.1599 171.093C-9.42566 120 0.901367 92.4995 16.1599 79.4995C28.5087 68.9786 43.7293 68.2123 52.6537 66.0103L82.744 61.2179C97.0312 58.5265 99.5521 60.0056 105.142 45.772C105.731 44.269 106.274 42.7544 106.797 41.2048L106.924 40.8702C108.623 36.3821 112.209 26.9081 114.438 23.0002C124.568 4.69659 149.891 -5.50059 167.394 3.49968C184.897 12.5 183.55 24.4995 183.101 33.4995C182.652 37.4989 181.578 40.1019 181.186 41.6511C179.96 46.4997 174.501 45.9997 174.501 41.6938C174.501 41.6938 174.779 36.4997 174.779 34.2217C174.779 31.9437 174.574 24.5002 165.15 24.5002C159.316 24.5002 151.508 27.8528 146.267 32.1909C138.514 38.5562 134.151 48.8284 131.942 59.155C125.812 81.0316 114.438 97.4995 94.8254 100.566L61.5222 108.446C50.7159 110.682 43.9794 122.263 50.7159 129.584Z" fill="#991B1B"/>
</g>
<mask id="mask0_33_91983" style="mask-type:alpha" maskUnits="userSpaceOnUse" x="0" y="0" width="184" height="251">
<path d="M50.7159 129.585C60.1211 139.807 70.9933 154.335 70.9062 169L72.7148 222.279C73.2293 237.434 61.0826 250 45.9181 250C30.6523 250 18.4671 237.273 19.1313 222.021L20.7005 185.995C20.8189 182.962 20.3764 179.952 19.3867 177.106C18.6166 174.946 17.512 172.88 16.1599 171.094C-9.42566 120 0.901367 92.5 16.1599 79.5C28.5087 68.9791 43.7293 68.2128 52.6537 66.0108L82.744 61.2184C97.0312 58.527 99.5521 60.006 105.142 45.7725C105.731 44.2695 106.274 42.7549 106.797 41.2053L106.924 40.8707C108.623 36.3826 112.209 26.9086 114.438 23.0007C124.568 4.69708 149.891 -5.5001 167.394 3.50017C184.897 12.5004 183.55 24.5 183.101 33.5C182.652 37.4994 181.578 40.1024 181.186 41.6516C179.96 46.5002 174.501 46.0002 174.501 41.6943C174.501 41.6943 174.779 36.5002 174.779 34.2222C174.779 31.9442 174.574 24.5007 165.15 24.5007C159.316 24.5007 151.508 27.8533 146.267 32.1913C138.514 38.5566 134.151 48.8289 131.942 59.1555C125.812 81.0321 114.438 97.5 94.8254 100.567L61.5222 108.447C50.7159 110.683 43.9794 122.263 50.7159 129.585Z" fill="#991B1B"/>
</mask>
<g mask="url(#mask0_33_91983)">
<path d="M57.1046 216.043C56.9944 202.34 40.301 180.165 31.6537 180.251C23.0063 180.338 12.7645 205.715 12.8747 219.419C12.985 233.123 32.9996 241.099 41.6469 241.012C50.2942 240.926 57.2149 229.747 57.1046 216.043Z" fill="black" fill-opacity="0.12"/>
<path d="M44.7306 149.888C44.5994 134.996 22.7555 110.956 11.429 111.08C0.102534 111.204 -13.3368 138.818 -13.2056 153.71C-13.0744 168.601 13.1333 177.2 24.4598 177.076C35.7863 176.952 44.8618 164.779 44.7306 149.888Z" fill="black" fill-opacity="0.12"/>
<path d="M48.6931 68.8126C42.6954 58.6186 20.6335 50.9716 14.2008 55.6695C7.76805 60.3674 11.0594 84.8429 17.0571 95.0369C23.0547 105.231 41.4726 100.475 47.9054 95.7769C54.3381 91.079 54.6907 79.0067 48.6931 68.8126Z" fill="black" fill-opacity="0.12"/>
<path d="M77.8657 54.0145C70.312 57.3361 62.0007 74.05 64.0967 79.9667C66.1928 85.8834 82.6558 86.9041 90.2095 83.5825C97.7632 80.2609 97.4341 64.6299 95.3381 58.7132C93.2421 52.7965 85.4194 50.6928 77.8657 54.0145Z" fill="black" fill-opacity="0.12"/>
<path d="M94.1229 36.6188C92.1075 44.2447 98.0116 59.691 102.824 61.2696C107.636 62.8483 117.165 50.6908 119.181 43.0649C121.196 35.439 111.297 27.2479 106.485 25.6693C101.673 24.0907 96.1382 28.9929 94.1229 36.6188Z" fill="black" fill-opacity="0.12"/>
<path d="M134.07 25.3786C137.3 20.6361 136.851 8.07319 133.858 5.54309C130.866 3.01298 121.293 8.70338 118.063 13.4459C114.833 18.1883 119.81 26.8543 122.803 29.3844C125.795 31.9145 130.84 30.121 134.07 25.3786Z" fill="black" fill-opacity="0.12"/>
<path d="M151.879 13.7394C156.943 15.6389 167.488 11.1605 168.687 7.19379C169.885 3.2271 161.993 -5.06766 156.929 -6.96722C151.865 -8.86677 146.079 -0.849121 144.88 3.11757C143.681 7.08427 146.815 11.8398 151.879 13.7394Z" fill="black" fill-opacity="0.12"/>
</g>
<defs>
<filter id="filter0_ii_33_91983" x="-7.39453" y="0.175293" width="214.715" height="269.825" filterUnits="userSpaceOnUse" color-interpolation-filters="sRGB">
<feFlood flood-opacity="0" result="BackgroundImageFix"/>
<feBlend mode="normal" in="SourceGraphic" in2="BackgroundImageFix" result="shape"/>
<feColorMatrix in="SourceAlpha" type="matrix" values="0 0 0 0 0 0 0 0 0 0 0 0 0 0 0 0 0 0 127 0" result="hardAlpha"/>
<feOffset dx="24" dy="12"/>
<feGaussianBlur stdDeviation="14"/>
<feComposite in2="hardAlpha" operator="arithmetic" k2="-1" k3="1"/>
<feColorMatrix type="matrix" values="0 0 0 0 0 0 0 0 0 0 0 0 0 0 0 0 0 0 0.25 0"/>
<feBlend mode="normal" in2="shape" result="effect1_innerShadow_33_91983"/>
<feColorMatrix in="SourceAlpha" type="matrix" values="0 0 0 0 0 0 0 0 0 0 0 0 0 0 0 0 0 0 127 0" result="hardAlpha"/>
<feOffset dx="-8" dy="20"/>
<feGaussianBlur stdDeviation="10"/>
<feComposite in2="hardAlpha" operator="arithmetic" k2="-1" k3="1"/>
<feColorMatrix type="matrix" values="0 0 0 0 1 0 0 0 0 1 0 0 0 0 1 0 0 0 0.25 0"/>
<feBlend mode="normal" in2="effect1_innerShadow_33_91983" result="effect2_innerShadow_33_91983"/>
</filter>
<radialGradient id="paint0_radial_33_91983" cx="0" cy="0" r="1" gradientUnits="userSpaceOnUse" gradientTransform="translate(46.2541 221.746) rotate(90) scale(46.2541)">
<stop offset="0.779747" stop-color="white" stop-opacity="0"/>
<stop offset="1" stop-color="white"/>
</radialGradient>
<radialGradient id="paint1_radial_33_91983" cx="0" cy="0" r="1" gradientUnits="userSpaceOnUse" gradientTransform="translate(46 223.5) rotate(90) scale(33.5 34)">
<stop offset="0.828125" stop-color="white" stop-opacity="0"/>
<stop offset="1" stop-color="white"/>
</radialGradient>
</defs>
</svg>
