<svg width="508" height="806" viewBox="0 0 508 806" fill="none" xmlns="http://www.w3.org/2000/svg">
<circle cx="309" cy="693" r="113" fill="black" fill-opacity="0.12"/>
<circle cx="306" cy="689" r="37" fill="black" fill-opacity="0.12"/>
<g filter="url(#filter0_ii_33_91938)">
<path d="M234.147 159.096C240.612 150.159 247.82 150.987 256.746 157.477C327.813 296.813 339.371 509.105 337.462 688.066C337.278 705.254 323.244 719 306.072 719C287.702 719 273.252 703.35 274.72 685.02C286.291 540.475 297.941 373.301 243.895 183.198C234.969 176.708 227.681 168.033 234.147 159.096Z" fill="#854D0E"/>
</g>
<mask id="mask0_33_91938" style="mask-type:alpha" maskUnits="userSpaceOnUse" x="231" y="152" width="107" height="567">
<path d="M234.148 159.097C240.613 150.16 247.821 150.988 256.747 157.478C327.814 296.814 339.372 509.106 337.462 688.067C337.279 705.254 323.245 719 306.073 719C287.703 719.001 273.253 703.35 274.72 685.021C286.292 540.475 297.942 373.301 243.895 183.199C234.97 176.709 227.682 168.034 234.148 159.097Z" fill="#854D0E"/>
</mask>
<g mask="url(#mask0_33_91938)">
<path opacity="0.1" d="M284.385 662.5C292.891 666.863 295.269 667.657 293.885 670.5C292.501 673.343 292.891 676.863 284.385 672.501C275.878 668.138 271.98 655.593 273.365 652.75C279.087 641 275.878 658.137 284.385 662.5Z" fill="white"/>
<path opacity="0.1" d="M338.343 540.276C322.86 545.786 317.602 544.913 314.883 547.569C316.34 552.842 328.646 555.758 340.14 551.14C346.539 548.569 349.935 542.26 348.477 536.986C347.871 534.794 345.53 537.719 338.343 540.276Z" fill="white"/>
<path opacity="0.1" d="M310.544 607.882C294.113 607.567 295.259 602.615 291.777 604.14C291.278 609.588 297.511 615.166 309.895 614.906C316.79 614.762 326.445 611.554 326.944 606.106C327.152 603.841 318.171 608.028 310.544 607.882Z" fill="white"/>
<path opacity="0.1" d="M289.143 572.325C283.077 570.3 279.698 565.225 279.344 566.16C277.649 571.051 282.611 576.783 288.677 578.808C294.743 580.833 300.213 579.248 301.273 577.524C301.455 575.978 299.66 574.467 289.143 572.325Z" fill="white"/>
<path opacity="0.1" d="M332.195 643.801C325.313 646.544 318.386 643.801 319.662 647.512C322.055 654.476 328.49 651.853 335.372 649.11C342.254 646.366 344.799 645.684 342.406 638.72C340.013 631.756 339.077 641.058 332.195 643.801Z" fill="white"/>
<path opacity="0.1" d="M344.023 506.573C336.138 511.978 333.88 513.067 335.614 515.712C337.347 518.357 337.406 521.898 345.291 516.493C353.175 511.087 355.452 498.149 353.718 495.504C346.553 484.574 351.908 501.167 344.023 506.573Z" fill="white"/>
<path opacity="0.1" d="M275.004 392.175C291.061 395.677 296.166 394.145 299.2 396.435C298.422 401.851 286.586 406.303 274.599 403.179C267.926 401.44 263.757 395.612 264.535 390.197C264.858 387.945 267.551 390.549 275.004 392.175Z" fill="white"/>
<path opacity="0.1" d="M311.152 455.712C327.41 453.317 325.645 448.55 329.292 449.62C330.478 454.962 325.003 461.285 312.685 462.597C305.828 463.328 295.844 461.37 294.658 456.029C294.165 453.809 303.604 456.824 311.152 455.712Z" fill="white"/>
<path opacity="0.1" d="M327.871 417.729C333.631 414.951 336.339 409.489 336.81 410.371C339.111 415.008 334.916 421.323 329.156 424.1C323.395 426.877 317.768 425.999 316.498 424.423C316.122 422.913 317.71 421.186 327.871 417.729Z" fill="white"/>
<path opacity="0.1" d="M294.227 494.086C301.401 495.935 307.924 492.336 307.129 496.178C305.638 503.389 298.923 501.603 291.749 499.755C284.575 497.906 281.963 497.552 283.454 490.341C284.945 483.13 287.052 492.238 294.227 494.086Z" fill="white"/>
</g>
<g filter="url(#filter1_ii_33_91938)">
<path d="M244.014 67.9915C324.474 38.875 303.903 134.557 257.209 176.775C256.295 177.601 254.92 177.687 253.872 177.04C168.587 124.365 183.793 55.0683 240.473 68.2029C241.614 68.4672 242.914 68.3899 244.014 67.9915Z" fill="#65A30D"/>
</g>
<g filter="url(#filter2_df_33_91938)">
<path d="M243.354 75.08L256.921 174.51C253.802 180.371 254.25 179.825 251.022 175.817L241.861 75.2295C243.098 75.3075 242.316 75.5233 243.354 75.08Z" fill="black" fill-opacity="0.12" shape-rendering="crispEdges"/>
</g>
<g filter="url(#filter3_ii_33_91938)">
<path d="M101.028 112.601C172.561 47.2862 240.887 146.815 253.514 186.236C253.895 187.425 253.408 188.664 252.31 189.259C225.148 203.99 160.863 180.26 147.516 172.728C146.606 172.214 146.168 171.211 146.28 170.172L146.92 164.233C147.218 161.467 143.773 159.969 141.952 162.072L137.903 166.752C137.069 167.716 135.687 168.011 134.559 167.417C113.199 156.157 105.251 132.423 99.6599 119.178C98.713 116.934 99.2295 114.243 101.028 112.601Z" fill="#65A30D"/>
</g>
<g filter="url(#filter4_ii_33_91938)">
<path d="M36.7118 277.484C61.8733 215.56 115.843 84.4388 245.897 168.697C247.75 169.897 248.029 172.585 246.349 173.627C221.904 188.8 173.353 225.71 142.014 272.393C140.515 274.625 136.653 273.156 136.645 270.295C136.639 268.3 136.7 266.227 136.885 264.048C137.167 260.727 132.518 258.061 131.041 260.891C125.665 271.194 120.327 283.541 115.558 296.038C114.654 298.408 110.998 298.071 109.941 295.518C105.696 285.261 100.034 269.979 103.858 253.765C100.802 265.332 69.1669 291.108 40.6156 285.03C37.2696 284.318 35.4826 280.509 36.7118 277.484Z" fill="#65A30D"/>
</g>
<g filter="url(#filter5_ii_33_91938)">
<path d="M143.642 425.933C78.1682 281.908 150.352 196.051 247.149 174.145C248.545 173.829 249.941 174.597 250.348 175.97C252.998 184.894 261.129 217.226 248.146 241.268C247.163 243.089 244.62 243.055 243.366 241.409C238.948 235.611 234.458 233.065 230.223 232.166C227.83 231.658 226.744 234.545 228.393 236.351C252.994 263.297 247.478 296.137 237.284 322.781C221.801 353.822 189.832 398.008 152.074 428.056C149.272 430.285 145.123 429.192 143.642 425.933Z" fill="#4D7C0F"/>
</g>
<g filter="url(#filter6_ii_33_91938)">
<path d="M392.748 80.8808C296.45 33.3277 262.016 136.205 256.248 177.905C255.998 179.712 257.543 181.22 259.351 180.977C288.219 177.101 311.935 168.329 331.105 157.296C367.821 136.166 387.856 106.744 395.459 87.5561C396.472 84.9982 395.215 82.0992 392.748 80.8808Z" fill="#84CC16"/>
</g>
<g filter="url(#filter7_df_33_91938)">
<path d="M351.74 88.4059C286.225 98.3859 262.662 147.755 257.117 177.012L262.162 183.555C277.489 110.308 332.366 92.7072 351.74 88.4059Z" fill="black" fill-opacity="0.12" shape-rendering="crispEdges"/>
</g>
<g filter="url(#filter8_df_33_91938)">
<path d="M123.594 173.326C184.556 138.165 228.05 162.361 249.581 179.653L250.637 184.694C195.514 142.335 142.4 163.891 123.594 173.326Z" fill="black" fill-opacity="0.12" shape-rendering="crispEdges"/>
</g>
<g filter="url(#filter9_ii_33_91938)">
<path d="M258.995 188.186C341.928 54.4252 440.34 179.876 471.133 237.249C472.408 239.625 471.88 242.813 469.579 244.196C453.63 253.779 424.933 239.602 412.798 232.955C411.177 232.067 409.151 233.289 409.216 235.347C409.26 236.735 409.437 238.004 409.699 239.153C410.341 241.962 407.9 246.788 405.284 246.575C314.58 239.181 296.03 213.136 259.82 192.549C258.439 191.764 258.065 189.686 258.995 188.186Z" fill="#84CC16"/>
</g>
<g filter="url(#filter10_ii_33_91938)">
<path d="M420.589 391.891C448.712 236.894 358.549 171.19 259.907 173.145C258.239 173.178 256.977 174.696 257.197 176.351C266.912 249.238 289.825 277.122 307.931 297.708C309.831 299.868 313.646 298.099 313.51 295.225C312.831 280.846 317.397 274.772 322.829 270.262C324.703 268.707 327.538 270.294 327.469 272.728C325.428 344.642 380.774 379.688 412.642 395.917C415.948 397.601 419.927 395.541 420.589 391.891Z" fill="#65A30D"/>
</g>
<g filter="url(#filter11_ii_33_91938)">
<path d="M257.587 173.754C363.659 110.993 354.36 379.895 281.583 428.116C280.743 428.672 279.704 428.695 278.821 428.209C180.997 374.336 151.268 133.224 251.906 174.172C253.673 174.891 255.945 174.725 257.587 173.754Z" fill="#84CC16"/>
</g>
<g filter="url(#filter12_df_33_91938)">
<path d="M274.764 374.248L250.634 171.949C256.696 175.81 256.475 173.598 258.952 169.999L274.764 374.248Z" fill="black" fill-opacity="0.12" shape-rendering="crispEdges"/>
</g>
<defs>
<filter id="filter0_ii_33_91938" x="215.678" y="144.498" width="137.973" height="597.502" filterUnits="userSpaceOnUse" color-interpolation-filters="sRGB">
<feFlood flood-opacity="0" result="BackgroundImageFix"/>
<feBlend mode="normal" in="SourceGraphic" in2="BackgroundImageFix" result="shape"/>
<feColorMatrix in="SourceAlpha" type="matrix" values="0 0 0 0 0 0 0 0 0 0 0 0 0 0 0 0 0 0 127 0" result="hardAlpha"/>
<feOffset dx="16" dy="-8"/>
<feGaussianBlur stdDeviation="12"/>
<feComposite in2="hardAlpha" operator="arithmetic" k2="-1" k3="1"/>
<feColorMatrix type="matrix" values="0 0 0 0 0 0 0 0 0 0 0 0 0 0 0 0 0 0 0.25 0"/>
<feBlend mode="normal" in2="shape" result="effect1_innerShadow_33_91938"/>
<feColorMatrix in="SourceAlpha" type="matrix" values="0 0 0 0 0 0 0 0 0 0 0 0 0 0 0 0 0 0 127 0" result="hardAlpha"/>
<feOffset dx="-16" dy="24"/>
<feGaussianBlur stdDeviation="11.5"/>
<feComposite in2="hardAlpha" operator="arithmetic" k2="-1" k3="1"/>
<feColorMatrix type="matrix" values="0 0 0 0 1 0 0 0 0 1 0 0 0 0 1 0 0 0 0.25 0"/>
<feBlend mode="normal" in2="effect1_innerShadow_33_91938" result="effect2_innerShadow_33_91938"/>
</filter>
<filter id="filter1_ii_33_91938" x="188.258" y="25.1713" width="136.126" height="172.16" filterUnits="userSpaceOnUse" color-interpolation-filters="sRGB">
<feFlood flood-opacity="0" result="BackgroundImageFix"/>
<feBlend mode="normal" in="SourceGraphic" in2="BackgroundImageFix" result="shape"/>
<feColorMatrix in="SourceAlpha" type="matrix" values="0 0 0 0 0 0 0 0 0 0 0 0 0 0 0 0 0 0 127 0" result="hardAlpha"/>
<feOffset dx="26.05" dy="-37.4"/>
<feGaussianBlur stdDeviation="25.445"/>
<feComposite in2="hardAlpha" operator="arithmetic" k2="-1" k3="1"/>
<feColorMatrix type="matrix" values="0 0 0 0 0 0 0 0 0 0 0 0 0 0 0 0 0 0 0.25 0"/>
<feBlend mode="normal" in2="shape" result="effect1_innerShadow_33_91938"/>
<feColorMatrix in="SourceAlpha" type="matrix" values="0 0 0 0 0 0 0 0 0 0 0 0 0 0 0 0 0 0 127 0" result="hardAlpha"/>
<feOffset dx="-5.67537" dy="19.8638"/>
<feGaussianBlur stdDeviation="11.3507"/>
<feComposite in2="hardAlpha" operator="arithmetic" k2="-1" k3="1"/>
<feColorMatrix type="matrix" values="0 0 0 0 1 0 0 0 0 1 0 0 0 0 1 0 0 0 0.25 0"/>
<feBlend mode="normal" in2="effect1_innerShadow_33_91938" result="effect2_innerShadow_33_91938"/>
</filter>
<filter id="filter2_df_33_91938" x="236.186" y="74.0801" width="26.4113" height="116.141" filterUnits="userSpaceOnUse" color-interpolation-filters="sRGB">
<feFlood flood-opacity="0" result="BackgroundImageFix"/>
<feColorMatrix in="SourceAlpha" type="matrix" values="0 0 0 0 0 0 0 0 0 0 0 0 0 0 0 0 0 0 127 0" result="hardAlpha"/>
<feOffset dy="5.67537"/>
<feGaussianBlur stdDeviation="2.83768"/>
<feComposite in2="hardAlpha" operator="out"/>
<feColorMatrix type="matrix" values="0 0 0 0 1 0 0 0 0 1 0 0 0 0 1 0 0 0 0.25 0"/>
<feBlend mode="normal" in2="BackgroundImageFix" result="effect1_dropShadow_33_91938"/>
<feBlend mode="normal" in="SourceGraphic" in2="effect1_dropShadow_33_91938" result="shape"/>
<feGaussianBlur stdDeviation="0.5" result="effect2_foregroundBlur_33_91938"/>
</filter>
<filter id="filter3_ii_33_91938" x="65.1411" y="90.9443" width="245.255" height="125.742" filterUnits="userSpaceOnUse" color-interpolation-filters="sRGB">
<feFlood flood-opacity="0" result="BackgroundImageFix"/>
<feBlend mode="normal" in="SourceGraphic" in2="BackgroundImageFix" result="shape"/>
<feColorMatrix in="SourceAlpha" type="matrix" values="0 0 0 0 0 0 0 0 0 0 0 0 0 0 0 0 0 0 127 0" result="hardAlpha"/>
<feOffset dx="56.7537"/>
<feGaussianBlur stdDeviation="29.7957"/>
<feComposite in2="hardAlpha" operator="arithmetic" k2="-1" k3="1"/>
<feColorMatrix type="matrix" values="0 0 0 0 0 0 0 0 0 0 0 0 0 0 0 0 0 0 0.25 0"/>
<feBlend mode="normal" in2="shape" result="effect1_innerShadow_33_91938"/>
<feColorMatrix in="SourceAlpha" type="matrix" values="0 0 0 0 0 0 0 0 0 0 0 0 0 0 0 0 0 0 127 0" result="hardAlpha"/>
<feOffset dx="-34.0522" dy="22.7015"/>
<feGaussianBlur stdDeviation="17.0261"/>
<feComposite in2="hardAlpha" operator="arithmetic" k2="-1" k3="1"/>
<feColorMatrix type="matrix" values="0 0 0 0 1 0 0 0 0 1 0 0 0 0 1 0 0 0 0.25 0"/>
<feBlend mode="normal" in2="effect1_innerShadow_33_91938" result="effect2_innerShadow_33_91938"/>
</filter>
<filter id="filter4_ii_33_91938" x="2.27005" y="81.685" width="304.782" height="238.655" filterUnits="userSpaceOnUse" color-interpolation-filters="sRGB">
<feFlood flood-opacity="0" result="BackgroundImageFix"/>
<feBlend mode="normal" in="SourceGraphic" in2="BackgroundImageFix" result="shape"/>
<feColorMatrix in="SourceAlpha" type="matrix" values="0 0 0 0 0 0 0 0 0 0 0 0 0 0 0 0 0 0 127 0" result="hardAlpha"/>
<feOffset dx="124.858" dy="-79.4552"/>
<feGaussianBlur stdDeviation="29.7957"/>
<feComposite in2="hardAlpha" operator="arithmetic" k2="-1" k3="1"/>
<feColorMatrix type="matrix" values="0 0 0 0 0 0 0 0 0 0 0 0 0 0 0 0 0 0 0.25 0"/>
<feBlend mode="normal" in2="shape" result="effect1_innerShadow_33_91938"/>
<feColorMatrix in="SourceAlpha" type="matrix" values="0 0 0 0 0 0 0 0 0 0 0 0 0 0 0 0 0 0 127 0" result="hardAlpha"/>
<feOffset dx="-45.403" dy="22.7015"/>
<feGaussianBlur stdDeviation="17.0261"/>
<feComposite in2="hardAlpha" operator="arithmetic" k2="-1" k3="1"/>
<feColorMatrix type="matrix" values="0 0 0 0 1 0 0 0 0 1 0 0 0 0 1 0 0 0 0.25 0"/>
<feBlend mode="normal" in2="effect1_innerShadow_33_91938" result="effect2_innerShadow_33_91938"/>
</filter>
<filter id="filter5_ii_33_91938" x="70.2457" y="174.074" width="185.055" height="273.201" filterUnits="userSpaceOnUse" color-interpolation-filters="sRGB">
<feFlood flood-opacity="0" result="BackgroundImageFix"/>
<feBlend mode="normal" in="SourceGraphic" in2="BackgroundImageFix" result="shape"/>
<feColorMatrix in="SourceAlpha" type="matrix" values="0 0 0 0 0 0 0 0 0 0 0 0 0 0 0 0 0 0 127 0" result="hardAlpha"/>
<feOffset dx="-66.6856"/>
<feGaussianBlur stdDeviation="24.1203"/>
<feComposite in2="hardAlpha" operator="arithmetic" k2="-1" k3="1"/>
<feColorMatrix type="matrix" values="0 0 0 0 0 0 0 0 0 0 0 0 0 0 0 0 0 0 0.15 0"/>
<feBlend mode="normal" in2="shape" result="effect1_innerShadow_33_91938"/>
<feColorMatrix in="SourceAlpha" type="matrix" values="0 0 0 0 0 0 0 0 0 0 0 0 0 0 0 0 0 0 127 0" result="hardAlpha"/>
<feOffset dx="-6.7" dy="18.05"/>
<feGaussianBlur stdDeviation="33.025"/>
<feComposite in2="hardAlpha" operator="arithmetic" k2="-1" k3="1"/>
<feColorMatrix type="matrix" values="0 0 0 0 1 0 0 0 0 1 0 0 0 0 1 0 0 0 0.25 0"/>
<feBlend mode="normal" in2="effect1_innerShadow_33_91938" result="effect2_innerShadow_33_91938"/>
</filter>
<filter id="filter6_ii_33_91938" x="222.168" y="23.1869" width="196.344" height="191.868" filterUnits="userSpaceOnUse" color-interpolation-filters="sRGB">
<feFlood flood-opacity="0" result="BackgroundImageFix"/>
<feBlend mode="normal" in="SourceGraphic" in2="BackgroundImageFix" result="shape"/>
<feColorMatrix in="SourceAlpha" type="matrix" values="0 0 0 0 0 0 0 0 0 0 0 0 0 0 0 0 0 0 127 0" result="hardAlpha"/>
<feOffset dx="22.7015" dy="-45.403"/>
<feGaussianBlur stdDeviation="29.7957"/>
<feComposite in2="hardAlpha" operator="arithmetic" k2="-1" k3="1"/>
<feColorMatrix type="matrix" values="0 0 0 0 0 0 0 0 0 0 0 0 0 0 0 0 0 0 0.25 0"/>
<feBlend mode="normal" in2="shape" result="effect1_innerShadow_33_91938"/>
<feColorMatrix in="SourceAlpha" type="matrix" values="0 0 0 0 0 0 0 0 0 0 0 0 0 0 0 0 0 0 127 0" result="hardAlpha"/>
<feOffset dx="-45.403" dy="34.0522"/>
<feGaussianBlur stdDeviation="17.0261"/>
<feComposite in2="hardAlpha" operator="arithmetic" k2="-1" k3="1"/>
<feColorMatrix type="matrix" values="0 0 0 0 1 0 0 0 0 1 0 0 0 0 1 0 0 0 0.25 0"/>
<feBlend mode="normal" in2="effect1_innerShadow_33_91938" result="effect2_innerShadow_33_91938"/>
</filter>
<filter id="filter7_df_33_91938" x="251.442" y="87.4062" width="105.974" height="107.499" filterUnits="userSpaceOnUse" color-interpolation-filters="sRGB">
<feFlood flood-opacity="0" result="BackgroundImageFix"/>
<feColorMatrix in="SourceAlpha" type="matrix" values="0 0 0 0 0 0 0 0 0 0 0 0 0 0 0 0 0 0 127 0" result="hardAlpha"/>
<feOffset dy="5.67537"/>
<feGaussianBlur stdDeviation="2.83768"/>
<feComposite in2="hardAlpha" operator="out"/>
<feColorMatrix type="matrix" values="0 0 0 0 1 0 0 0 0 1 0 0 0 0 1 0 0 0 0.25 0"/>
<feBlend mode="normal" in2="BackgroundImageFix" result="effect1_dropShadow_33_91938"/>
<feBlend mode="normal" in="SourceGraphic" in2="effect1_dropShadow_33_91938" result="shape"/>
<feGaussianBlur stdDeviation="0.5" result="effect2_foregroundBlur_33_91938"/>
</filter>
<filter id="filter8_df_33_91938" x="117.918" y="154.316" width="138.394" height="41.7287" filterUnits="userSpaceOnUse" color-interpolation-filters="sRGB">
<feFlood flood-opacity="0" result="BackgroundImageFix"/>
<feColorMatrix in="SourceAlpha" type="matrix" values="0 0 0 0 0 0 0 0 0 0 0 0 0 0 0 0 0 0 127 0" result="hardAlpha"/>
<feOffset dy="5.67537"/>
<feGaussianBlur stdDeviation="2.83768"/>
<feComposite in2="hardAlpha" operator="out"/>
<feColorMatrix type="matrix" values="0 0 0 0 1 0 0 0 0 1 0 0 0 0 1 0 0 0 0.25 0"/>
<feBlend mode="normal" in2="BackgroundImageFix" result="effect1_dropShadow_33_91938"/>
<feBlend mode="normal" in="SourceGraphic" in2="effect1_dropShadow_33_91938" result="shape"/>
<feGaussianBlur stdDeviation="0.5" result="effect2_foregroundBlur_33_91938"/>
</filter>
<filter id="filter9_ii_33_91938" x="235.781" y="71.9182" width="270.082" height="186.855" filterUnits="userSpaceOnUse" color-interpolation-filters="sRGB">
<feFlood flood-opacity="0" result="BackgroundImageFix"/>
<feBlend mode="normal" in="SourceGraphic" in2="BackgroundImageFix" result="shape"/>
<feColorMatrix in="SourceAlpha" type="matrix" values="0 0 0 0 0 0 0 0 0 0 0 0 0 0 0 0 0 0 127 0" result="hardAlpha"/>
<feOffset dx="34.0522" dy="-56.7537"/>
<feGaussianBlur stdDeviation="29.7957"/>
<feComposite in2="hardAlpha" operator="arithmetic" k2="-1" k3="1"/>
<feColorMatrix type="matrix" values="0 0 0 0 0 0 0 0 0 0 0 0 0 0 0 0 0 0 0.25 0"/>
<feBlend mode="normal" in2="shape" result="effect1_innerShadow_33_91938"/>
<feColorMatrix in="SourceAlpha" type="matrix" values="0 0 0 0 0 0 0 0 0 0 0 0 0 0 0 0 0 0 127 0" result="hardAlpha"/>
<feOffset dx="-22.7015" dy="11.3507"/>
<feGaussianBlur stdDeviation="17.0261"/>
<feComposite in2="hardAlpha" operator="arithmetic" k2="-1" k3="1"/>
<feColorMatrix type="matrix" values="0 0 0 0 1 0 0 0 0 1 0 0 0 0 1 0 0 0 0.25 0"/>
<feBlend mode="normal" in2="effect1_innerShadow_33_91938" result="effect2_innerShadow_33_91938"/>
</filter>
<filter id="filter10_ii_33_91938" x="245.821" y="148.982" width="191.334" height="281.583" filterUnits="userSpaceOnUse" color-interpolation-filters="sRGB">
<feFlood flood-opacity="0" result="BackgroundImageFix"/>
<feBlend mode="normal" in="SourceGraphic" in2="BackgroundImageFix" result="shape"/>
<feColorMatrix in="SourceAlpha" type="matrix" values="0 0 0 0 0 0 0 0 0 0 0 0 0 0 0 0 0 0 127 0" result="hardAlpha"/>
<feOffset dx="11.3507" dy="-24.1203"/>
<feGaussianBlur stdDeviation="18.445"/>
<feComposite in2="hardAlpha" operator="arithmetic" k2="-1" k3="1"/>
<feColorMatrix type="matrix" values="0 0 0 0 0 0 0 0 0 0 0 0 0 0 0 0 0 0 0.25 0"/>
<feBlend mode="normal" in2="shape" result="effect1_innerShadow_33_91938"/>
<feColorMatrix in="SourceAlpha" type="matrix" values="0 0 0 0 0 0 0 0 0 0 0 0 0 0 0 0 0 0 127 0" result="hardAlpha"/>
<feOffset dx="-11.3507" dy="56.7537"/>
<feGaussianBlur stdDeviation="17.0261"/>
<feComposite in2="hardAlpha" operator="arithmetic" k2="-1" k3="1"/>
<feColorMatrix type="matrix" values="0 0 0 0 1 0 0 0 0 1 0 0 0 0 1 0 0 0 0.25 0"/>
<feBlend mode="normal" in2="effect1_innerShadow_33_91938" result="effect2_innerShadow_33_91938"/>
</filter>
<filter id="filter11_ii_33_91938" x="166.746" y="130.26" width="204.074" height="332.347" filterUnits="userSpaceOnUse" color-interpolation-filters="sRGB">
<feFlood flood-opacity="0" result="BackgroundImageFix"/>
<feBlend mode="normal" in="SourceGraphic" in2="BackgroundImageFix" result="shape"/>
<feColorMatrix in="SourceAlpha" type="matrix" values="0 0 0 0 0 0 0 0 0 0 0 0 0 0 0 0 0 0 127 0" result="hardAlpha"/>
<feOffset dx="34.0522" dy="-34.0522"/>
<feGaussianBlur stdDeviation="29.7957"/>
<feComposite in2="hardAlpha" operator="arithmetic" k2="-1" k3="1"/>
<feColorMatrix type="matrix" values="0 0 0 0 0 0 0 0 0 0 0 0 0 0 0 0 0 0 0.25 0"/>
<feBlend mode="normal" in2="shape" result="effect1_innerShadow_33_91938"/>
<feColorMatrix in="SourceAlpha" type="matrix" values="0 0 0 0 0 0 0 0 0 0 0 0 0 0 0 0 0 0 127 0" result="hardAlpha"/>
<feOffset dx="-22.7015" dy="34.0522"/>
<feGaussianBlur stdDeviation="17.0261"/>
<feComposite in2="hardAlpha" operator="arithmetic" k2="-1" k3="1"/>
<feColorMatrix type="matrix" values="0 0 0 0 1 0 0 0 0 1 0 0 0 0 1 0 0 0 0.25 0"/>
<feBlend mode="normal" in2="effect1_innerShadow_33_91938" result="effect2_innerShadow_33_91938"/>
</filter>
<filter id="filter12_df_33_91938" x="244.959" y="168.999" width="35.4796" height="216.6" filterUnits="userSpaceOnUse" color-interpolation-filters="sRGB">
<feFlood flood-opacity="0" result="BackgroundImageFix"/>
<feColorMatrix in="SourceAlpha" type="matrix" values="0 0 0 0 0 0 0 0 0 0 0 0 0 0 0 0 0 0 127 0" result="hardAlpha"/>
<feOffset dy="5.67537"/>
<feGaussianBlur stdDeviation="2.83768"/>
<feComposite in2="hardAlpha" operator="out"/>
<feColorMatrix type="matrix" values="0 0 0 0 1 0 0 0 0 1 0 0 0 0 1 0 0 0 0.25 0"/>
<feBlend mode="normal" in2="BackgroundImageFix" result="effect1_dropShadow_33_91938"/>
<feBlend mode="normal" in="SourceGraphic" in2="effect1_dropShadow_33_91938" result="shape"/>
<feGaussianBlur stdDeviation="0.5" result="effect2_foregroundBlur_33_91938"/>
</filter>
</defs>
</svg>
