<svg width="237" height="129" viewBox="0 0 237 129" fill="none" xmlns="http://www.w3.org/2000/svg">
<ellipse cx="118.23" cy="108.983" rx="64" ry="19.5" fill="black" fill-opacity="0.2"/>
<g filter="url(#filter0_iii_33_92049)">
<path d="M56.2314 25.4833C119.231 -9.4578 119.231 -7.51724 178.231 25.4833C237.231 58.4839 236.231 95.9833 236.231 95.9833L225.231 104.483L119.231 92.9833L11.2314 104.483L0.231388 95.9833C0.231388 95.9833 -6.7684 60.4245 56.2314 25.4833Z" fill="#44403C"/>
</g>
<g style="mix-blend-mode:screen">
<mask id="mask0_33_92049" style="mask-type:alpha" maskUnits="userSpaceOnUse" x="0" y="0" width="237" height="105">
<path d="M118.724 0.504883C126.25 0.624651 133.678 2.83888 142.929 7.10156C152.187 11.3678 163.227 17.6639 177.987 25.9199C207.412 42.3783 221.839 59.9363 228.914 73.3418C232.453 80.0468 234.156 85.7205 234.976 89.709C235.385 91.7034 235.575 93.2769 235.661 94.3477C235.704 94.8829 235.722 95.2926 235.729 95.5664C235.73 95.6313 235.73 95.6888 235.73 95.7383L225.085 103.964L119.285 92.4863L119.231 92.4805L119.179 92.4863L11.3779 103.965L0.692383 95.708C0.684103 95.6539 0.674472 95.5878 0.664062 95.5098C0.629597 95.2514 0.586148 94.8631 0.552734 94.3545C0.485909 93.3372 0.458338 91.8368 0.620117 89.9238C0.94368 86.0984 2.02403 80.6183 5.06055 74.0459C11.1315 60.9056 25.0449 43.3521 56.4736 25.9209C72.229 17.1826 84.0194 10.7648 93.7734 6.56055C103.521 2.35901 111.197 0.385169 118.724 0.504883Z" fill="#44403C" stroke="#A16207"/>
</mask>
<g mask="url(#mask0_33_92049)">
<path d="M225.462 108.966L236.462 100.466C236.462 100.466 237.462 62.9667 178.462 29.9661C119.462 -3.03446 119.462 -4.97501 56.4619 29.9661C-6.53793 64.9073 0.461857 100.466 0.461857 100.466L11.4619 108.966" stroke="#A16207" stroke-width="10" stroke-linecap="round"/>
</g>
</g>
<g filter="url(#filter1_ii_33_92049)">
<path d="M50.7219 70.1484C60.6304 41.6128 87.5236 22.4828 117.73 22.4828C147.937 22.4828 174.831 41.6129 184.739 70.1484L194.23 97.4828H41.2305L50.7219 70.1484Z" fill="#44403C"/>
</g>
<g filter="url(#filter2_iii_33_92049)">
<path d="M118.224 56.9828C112.952 56.8239 107.348 22.6423 101.73 25.3742C92.4548 29.8851 83.1429 38.2498 75.2305 50.181C59.2486 74.2802 16.9685 110.539 0.230469 95.5887C1.47351 102.303 10.1393 122.724 34.8579 118.696L35.8185 118.539C66.1576 113.594 89.876 109.728 118.224 109.704C146.578 109.727 170.299 113.593 200.642 118.539L201.603 118.696C226.322 122.724 234.987 102.303 236.23 95.5887C214.23 111.346 177.212 74.2802 161.23 50.181C153.318 38.2498 144.001 29.8851 134.722 25.3742C129.102 22.6423 123.496 56.8239 118.224 56.9828Z" fill="#44403C"/>
</g>
<g style="mix-blend-mode:screen">
<mask id="mask1_33_92049" style="mask-type:alpha" maskUnits="userSpaceOnUse" x="0" y="25" width="237" height="95">
<path d="M118.224 56.9828C112.952 56.8239 107.348 22.6423 101.73 25.3742C92.4548 29.8851 83.1429 38.2498 75.2305 50.181C59.2486 74.2802 16.9685 110.539 0.230469 95.5887C1.47351 102.303 10.1393 122.724 34.8579 118.696L35.8185 118.539C66.1576 113.594 89.876 109.728 118.224 109.704C146.578 109.727 170.299 113.593 200.642 118.539L201.603 118.696C226.322 122.724 234.987 102.303 236.23 95.5887C214.23 111.346 177.212 74.2802 161.23 50.181C153.318 38.2498 144.001 29.8851 134.722 25.3742C129.102 22.6423 123.496 56.8239 118.224 56.9828Z" fill="#44403C"/>
<path d="M118.224 56.9828C112.952 56.8239 107.348 22.6423 101.73 25.3742C92.4548 29.8851 83.1429 38.2498 75.2305 50.181C59.2486 74.2802 16.9685 110.539 0.230469 95.5887C1.47351 102.303 10.1393 122.724 34.8579 118.696L35.8185 118.539C66.1576 113.594 89.876 109.728 118.224 109.704C146.578 109.727 170.299 113.593 200.642 118.539L201.603 118.696C226.322 122.724 234.987 102.303 236.23 95.5887C214.23 111.346 177.212 74.2802 161.23 50.181C153.318 38.2498 144.001 29.8851 134.722 25.3742C129.102 22.6423 123.496 56.8239 118.224 56.9828Z" stroke="#CA8A04"/>
</mask>
<g mask="url(#mask1_33_92049)">
<path d="M0.230469 100.853C16.9685 115.803 59.2486 79.5443 75.2305 55.445C83.1429 43.5138 92.4548 35.1491 101.73 30.6382C107.348 27.9063 112.952 62.0879 118.224 62.2468C123.496 62.0879 129.102 27.9064 134.722 30.6382C144.001 35.1491 153.318 43.5139 161.23 55.445C177.212 79.5443 214.23 116.61 236.23 100.853" stroke="#CA8A04" stroke-width="10" stroke-linecap="round"/>
</g>
</g>
<path d="M130.39 71.09L127.472 73.0282C126.314 73.797 127.026 75.8789 126.316 77.0069C126.316 77.0069 126.631 77.6154 120.418 82.9263C114.206 88.2373 108.793 91.9862 108.793 91.9862C107.254 93.3017 104.182 92.5392 103.112 93.8666L101.573 95.7764C101.073 96.3965 101.723 96.7943 102.309 97.0586C106.191 98.8099 103.786 98.8298 105.625 100.854C106.065 101.338 106.703 101.858 107.048 101.629C110.199 99.5362 109.51 98.2728 111.122 95.7121C111.122 95.7121 119.947 87.3385 122.504 85.1522C125.062 82.9659 128.645 80.7328 128.645 80.7328C129.444 80.0494 130.624 79.5567 131.74 79.5417C132.701 79.5287 133.792 79.5141 134.326 78.8524L135.865 76.9426C136.803 75.7787 134.125 75.3626 133.307 75.2917C131.686 75.1512 131.171 74.3764 131.858 73.1977C132.226 72.5665 131.348 70.4534 130.39 71.09Z" fill="#D6D3D1"/>
<path d="M136.936 96.3326L134.669 93.838C133.77 92.8486 131.334 93.4568 130.015 92.8499C130.015 92.8499 129.244 92.6336 123.031 87.3226C116.818 82.0117 112.492 77.8706 112.492 77.8706C110.953 76.5551 111.845 73.9288 110.292 73.0143L108.058 71.6986C107.333 71.2714 106.867 71.8265 106.558 72.3275C104.509 75.6461 104.486 73.5905 102.119 75.1621C101.552 75.5383 100.944 76.084 101.212 76.3787C103.66 79.0723 105.138 78.4836 108.133 79.8614C108.133 79.8614 117.929 87.4055 120.486 89.5918C123.044 91.7781 125.656 94.8407 125.656 94.8407C126.456 95.5241 127.032 96.5331 127.049 97.4864C127.065 98.3082 127.082 99.2412 127.856 99.697L130.09 101.013C131.451 101.815 131.938 99.5254 132.021 98.8262C132.185 97.4402 133.092 97.0007 134.471 97.5878C135.209 97.9022 137.681 97.1519 136.936 96.3326Z" fill="#D6D3D1"/>
<defs>
<filter id="filter0_iii_33_92049" x="-24" y="-4" width="284.232" height="112.483" filterUnits="userSpaceOnUse" color-interpolation-filters="sRGB">
<feFlood flood-opacity="0" result="BackgroundImageFix"/>
<feBlend mode="normal" in="SourceGraphic" in2="BackgroundImageFix" result="shape"/>
<feColorMatrix in="SourceAlpha" type="matrix" values="0 0 0 0 0 0 0 0 0 0 0 0 0 0 0 0 0 0 127 0" result="hardAlpha"/>
<feOffset dx="56" dy="-4"/>
<feGaussianBlur stdDeviation="12"/>
<feComposite in2="hardAlpha" operator="arithmetic" k2="-1" k3="1"/>
<feColorMatrix type="matrix" values="0 0 0 0 0 0 0 0 0 0 0 0 0 0 0 0 0 0 0.45 0"/>
<feBlend mode="normal" in2="shape" result="effect1_innerShadow_33_92049"/>
<feColorMatrix in="SourceAlpha" type="matrix" values="0 0 0 0 0 0 0 0 0 0 0 0 0 0 0 0 0 0 127 0" result="hardAlpha"/>
<feOffset dx="-3" dy="4"/>
<feGaussianBlur stdDeviation="2"/>
<feComposite in2="hardAlpha" operator="arithmetic" k2="-1" k3="1"/>
<feColorMatrix type="matrix" values="0 0 0 0 1 0 0 0 0 1 0 0 0 0 1 0 0 0 0.25 0"/>
<feBlend mode="normal" in2="effect1_innerShadow_33_92049" result="effect2_innerShadow_33_92049"/>
<feColorMatrix in="SourceAlpha" type="matrix" values="0 0 0 0 0 0 0 0 0 0 0 0 0 0 0 0 0 0 127 0" result="hardAlpha"/>
<feOffset dx="-24" dy="4"/>
<feGaussianBlur stdDeviation="22"/>
<feComposite in2="hardAlpha" operator="arithmetic" k2="-1" k3="1"/>
<feColorMatrix type="matrix" values="0 0 0 0 1 0 0 0 0 1 0 0 0 0 1 0 0 0 0.05 0"/>
<feBlend mode="normal" in2="effect2_innerShadow_33_92049" result="effect3_innerShadow_33_92049"/>
</filter>
<filter id="filter1_ii_33_92049" x="13.2305" y="2.48279" width="201" height="107" filterUnits="userSpaceOnUse" color-interpolation-filters="sRGB">
<feFlood flood-opacity="0" result="BackgroundImageFix"/>
<feBlend mode="normal" in="SourceGraphic" in2="BackgroundImageFix" result="shape"/>
<feColorMatrix in="SourceAlpha" type="matrix" values="0 0 0 0 0 0 0 0 0 0 0 0 0 0 0 0 0 0 127 0" result="hardAlpha"/>
<feOffset dx="-32" dy="12"/>
<feGaussianBlur stdDeviation="14"/>
<feComposite in2="hardAlpha" operator="arithmetic" k2="-1" k3="1"/>
<feColorMatrix type="matrix" values="0 0 0 0 1 0 0 0 0 1 0 0 0 0 1 0 0 0 0.25 0"/>
<feBlend mode="normal" in2="shape" result="effect1_innerShadow_33_92049"/>
<feColorMatrix in="SourceAlpha" type="matrix" values="0 0 0 0 0 0 0 0 0 0 0 0 0 0 0 0 0 0 127 0" result="hardAlpha"/>
<feOffset dx="64" dy="-52"/>
<feGaussianBlur stdDeviation="10"/>
<feComposite in2="hardAlpha" operator="arithmetic" k2="-1" k3="1"/>
<feColorMatrix type="matrix" values="0 0 0 0 0 0 0 0 0 0 0 0 0 0 0 0 0 0 0.25 0"/>
<feBlend mode="normal" in2="effect1_innerShadow_33_92049" result="effect2_innerShadow_33_92049"/>
</filter>
<filter id="filter2_iii_33_92049" x="-1.76953" y="5.21875" width="246" height="117.999" filterUnits="userSpaceOnUse" color-interpolation-filters="sRGB">
<feFlood flood-opacity="0" result="BackgroundImageFix"/>
<feBlend mode="normal" in="SourceGraphic" in2="BackgroundImageFix" result="shape"/>
<feColorMatrix in="SourceAlpha" type="matrix" values="0 0 0 0 0 0 0 0 0 0 0 0 0 0 0 0 0 0 127 0" result="hardAlpha"/>
<feOffset dx="8" dy="-20"/>
<feGaussianBlur stdDeviation="10"/>
<feComposite in2="hardAlpha" operator="arithmetic" k2="-1" k3="1"/>
<feColorMatrix type="matrix" values="0 0 0 0 0 0 0 0 0 0 0 0 0 0 0 0 0 0 0.25 0"/>
<feBlend mode="normal" in2="shape" result="effect1_innerShadow_33_92049"/>
<feColorMatrix in="SourceAlpha" type="matrix" values="0 0 0 0 0 0 0 0 0 0 0 0 0 0 0 0 0 0 127 0" result="hardAlpha"/>
<feOffset dx="-2" dy="6"/>
<feGaussianBlur stdDeviation="2"/>
<feComposite in2="hardAlpha" operator="arithmetic" k2="-1" k3="1"/>
<feColorMatrix type="matrix" values="0 0 0 0 1 0 0 0 0 1 0 0 0 0 1 0 0 0 0.25 0"/>
<feBlend mode="normal" in2="effect1_innerShadow_33_92049" result="effect2_innerShadow_33_92049"/>
<feColorMatrix in="SourceAlpha" type="matrix" values="0 0 0 0 0 0 0 0 0 0 0 0 0 0 0 0 0 0 127 0" result="hardAlpha"/>
<feOffset dy="-7"/>
<feGaussianBlur stdDeviation="2"/>
<feComposite in2="hardAlpha" operator="arithmetic" k2="-1" k3="1"/>
<feColorMatrix type="matrix" values="0 0 0 0 0 0 0 0 0 0 0 0 0 0 0 0 0 0 0.25 0"/>
<feBlend mode="normal" in2="effect2_innerShadow_33_92049" result="effect3_innerShadow_33_92049"/>
</filter>
</defs>
</svg>
