<svg width="92" height="168" viewBox="0 0 92 168" fill="none" xmlns="http://www.w3.org/2000/svg">
<g filter="url(#filter0_dd_33_92044)">
<rect x="8" y="84" width="76" height="76" rx="38" fill="#713F12"/>
</g>
<g filter="url(#filter1_iii_33_92044)">
<rect x="6" y="32" width="80" height="128" rx="40" fill="#713F12"/>
</g>
<g filter="url(#filter2_ii_33_92044)">
<path d="M86.5816 30.4608C91.2477 38.7591 88.943 49.1389 81.5502 54.6893C80.9466 55.1425 85.5323 59.5151 82.2264 61L77.2212 55.8363C75.2337 53.7858 74.4043 50.8768 75.0117 48.0865C75.0483 47.9183 75.1554 47.7741 75.3022 47.6841C79.5637 45.0706 81.0196 39.4871 78.5407 35.0785C76.0172 30.5906 70.3714 29.0198 65.9306 31.5702C62.1839 33.7218 60.4919 38.1196 61.5701 42.137L53.4005 46.8288C49.8818 38.2436 53.1606 28.1537 61.3615 23.444C70.2431 18.3434 81.5346 21.4849 86.5816 30.4608Z" fill="#713F12"/>
</g>
<g filter="url(#filter3_ii_33_92044)">
<path d="M14 87V113.984L15.4545 119.109L14 121.305V127.265C20.4751 137.331 31.7269 143.993 44.5251 144C44.5319 144 44.5387 144 44.5455 144H47.4545C47.4613 144 47.4681 144 47.4749 144C60.2731 143.993 71.5249 137.331 78 127.265V103.735L71.0909 108.494L78 97.0662V87C71.5215 97.0712 60.2612 103.735 47.4545 103.735H44.5455C31.7388 103.735 20.4785 97.0712 14 87Z" fill="#F2E9DE"/>
</g>
<path opacity="0.1" d="M26.2007 128.324C22.3056 125.315 17.8779 122.446 17.314 123.196C16.75 123.946 19.7907 126.541 23.6857 129.551C28.0832 131.892 32.3625 132.84 32.9265 132.09C33.4904 131.34 30.5981 130.666 26.2007 128.324Z" fill="black"/>
<path opacity="0.1" d="M64.3328 103.951C61.4359 104.706 58.3922 105.727 58.5081 106.184C58.624 106.64 60.9965 106.123 63.8934 105.368C66.687 104.205 68.8048 102.684 68.6888 102.227C68.5729 101.77 67.1264 102.789 64.3328 103.951Z" fill="black"/>
<path d="M55.3171 110.482L53.0171 112.056C52.1049 112.681 52.6213 114.322 52.0504 115.226C52.0504 115.226 52.2848 115.704 47.3676 119.995C42.4505 124.286 38.1819 127.328 38.1819 127.328C36.9639 128.391 34.5913 127.826 33.7374 128.893L32.5089 130.427C32.1101 130.925 32.6075 131.232 33.058 131.434C36.0425 132.772 34.1747 132.819 35.5673 134.399C35.9007 134.778 36.3874 135.182 36.6591 134.996C39.1426 133.296 38.6297 132.303 39.9258 130.252C39.9258 130.252 46.9249 123.499 48.949 121.733C50.9732 119.966 53.7943 118.149 53.7943 118.149C54.4271 117.597 55.3522 117.191 56.2186 117.165C56.9654 117.142 57.8132 117.116 58.2388 116.585L59.4673 115.051C60.216 114.116 58.1435 113.821 57.5095 113.775C56.2528 113.685 55.867 113.077 56.4208 112.134C56.7174 111.629 56.0724 109.965 55.3171 110.482Z" fill="#0F172A"/>
<path d="M60.7096 130.966L58.9054 128.959C58.1898 128.163 56.3089 128.614 55.2737 128.116C55.2737 128.116 54.6713 127.934 49.7542 123.643C44.837 119.352 41.4052 116.013 41.4052 116.013C40.1872 114.95 40.8344 112.88 39.6126 112.135L37.8547 111.063C37.284 110.714 36.9322 111.149 36.7008 111.542C35.1673 114.146 35.1136 112.516 33.3024 113.732C32.8687 114.022 32.4057 114.447 32.6189 114.684C34.567 116.852 35.7046 116.404 38.0548 117.535C38.0548 117.535 45.793 123.643 47.8172 125.409C49.8414 127.176 51.9233 129.638 51.9233 129.638C52.5561 130.19 53.0212 130.997 53.0514 131.753C53.0774 132.405 53.1069 133.145 53.7159 133.516L55.4738 134.588C56.5451 135.242 56.8834 133.433 56.9357 132.88C57.0393 131.783 57.7355 131.446 58.8165 131.93C59.3954 132.188 61.3021 131.626 60.7096 130.966Z" fill="#0F172A"/>
<g filter="url(#filter4_iii_33_92044)">
<rect x="30" y="16" width="32" height="46" rx="16" fill="#713F12"/>
</g>
<g filter="url(#filter5_ii_33_92044)">
<rect x="26" y="4" width="40" height="40" rx="20" fill="#713F12"/>
</g>
<g filter="url(#filter6_dii_33_92044)">
<rect x="34" width="24" height="32" rx="12" fill="#CA8A04"/>
</g>
<g filter="url(#filter7_i_33_92044)">
<rect x="34" width="24" height="24" rx="12" fill="#EAB308"/>
</g>
<defs>
<filter id="filter0_dd_33_92044" x="0" y="76" width="92" height="92" filterUnits="userSpaceOnUse" color-interpolation-filters="sRGB">
<feFlood flood-opacity="0" result="BackgroundImageFix"/>
<feColorMatrix in="SourceAlpha" type="matrix" values="0 0 0 0 0 0 0 0 0 0 0 0 0 0 0 0 0 0 127 0" result="hardAlpha"/>
<feMorphology radius="2" operator="dilate" in="SourceAlpha" result="effect1_dropShadow_33_92044"/>
<feOffset/>
<feComposite in2="hardAlpha" operator="out"/>
<feColorMatrix type="matrix" values="0 0 0 0 0 0 0 0 0 0 0 0 0 0 0 0 0 0 0.12 0"/>
<feBlend mode="normal" in2="BackgroundImageFix" result="effect1_dropShadow_33_92044"/>
<feColorMatrix in="SourceAlpha" type="matrix" values="0 0 0 0 0 0 0 0 0 0 0 0 0 0 0 0 0 0 127 0" result="hardAlpha"/>
<feMorphology radius="8" operator="dilate" in="SourceAlpha" result="effect2_dropShadow_33_92044"/>
<feOffset/>
<feComposite in2="hardAlpha" operator="out"/>
<feColorMatrix type="matrix" values="0 0 0 0 0 0 0 0 0 0 0 0 0 0 0 0 0 0 0.12 0"/>
<feBlend mode="normal" in2="effect1_dropShadow_33_92044" result="effect2_dropShadow_33_92044"/>
<feBlend mode="normal" in="SourceGraphic" in2="effect2_dropShadow_33_92044" result="shape"/>
</filter>
<filter id="filter1_iii_33_92044" x="-2" y="24" width="104" height="144" filterUnits="userSpaceOnUse" color-interpolation-filters="sRGB">
<feFlood flood-opacity="0" result="BackgroundImageFix"/>
<feBlend mode="normal" in="SourceGraphic" in2="BackgroundImageFix" result="shape"/>
<feColorMatrix in="SourceAlpha" type="matrix" values="0 0 0 0 0 0 0 0 0 0 0 0 0 0 0 0 0 0 127 0" result="hardAlpha"/>
<feOffset dx="8" dy="-8"/>
<feGaussianBlur stdDeviation="20"/>
<feComposite in2="hardAlpha" operator="arithmetic" k2="-1" k3="1"/>
<feColorMatrix type="matrix" values="0 0 0 0 0 0 0 0 0 0 0 0 0 0 0 0 0 0 0.25 0"/>
<feBlend mode="normal" in2="shape" result="effect1_innerShadow_33_92044"/>
<feColorMatrix in="SourceAlpha" type="matrix" values="0 0 0 0 0 0 0 0 0 0 0 0 0 0 0 0 0 0 127 0" result="hardAlpha"/>
<feOffset dx="-8" dy="8"/>
<feGaussianBlur stdDeviation="12"/>
<feComposite in2="hardAlpha" operator="arithmetic" k2="-1" k3="1"/>
<feColorMatrix type="matrix" values="0 0 0 0 1 0 0 0 0 1 0 0 0 0 1 0 0 0 0.25 0"/>
<feBlend mode="normal" in2="effect1_innerShadow_33_92044" result="effect2_innerShadow_33_92044"/>
<feColorMatrix in="SourceAlpha" type="matrix" values="0 0 0 0 0 0 0 0 0 0 0 0 0 0 0 0 0 0 127 0" result="hardAlpha"/>
<feOffset dx="16" dy="-8"/>
<feGaussianBlur stdDeviation="12"/>
<feComposite in2="hardAlpha" operator="arithmetic" k2="-1" k3="1"/>
<feColorMatrix type="matrix" values="0 0 0 0 0 0 0 0 0 0 0 0 0 0 0 0 0 0 0.25 0"/>
<feBlend mode="normal" in2="effect2_innerShadow_33_92044" result="effect3_innerShadow_33_92044"/>
</filter>
<filter id="filter2_ii_33_92044" x="50" y="21" width="41" height="40" filterUnits="userSpaceOnUse" color-interpolation-filters="sRGB">
<feFlood flood-opacity="0" result="BackgroundImageFix"/>
<feBlend mode="normal" in="SourceGraphic" in2="BackgroundImageFix" result="shape"/>
<feColorMatrix in="SourceAlpha" type="matrix" values="0 0 0 0 0 0 0 0 0 0 0 0 0 0 0 0 0 0 127 0" result="hardAlpha"/>
<feOffset dx="2"/>
<feGaussianBlur stdDeviation="4"/>
<feComposite in2="hardAlpha" operator="arithmetic" k2="-1" k3="1"/>
<feColorMatrix type="matrix" values="0 0 0 0 0 0 0 0 0 0 0 0 0 0 0 0 0 0 0.25 0"/>
<feBlend mode="normal" in2="shape" result="effect1_innerShadow_33_92044"/>
<feColorMatrix in="SourceAlpha" type="matrix" values="0 0 0 0 0 0 0 0 0 0 0 0 0 0 0 0 0 0 127 0" result="hardAlpha"/>
<feOffset dx="-2"/>
<feGaussianBlur stdDeviation="6"/>
<feComposite in2="hardAlpha" operator="arithmetic" k2="-1" k3="1"/>
<feColorMatrix type="matrix" values="0 0 0 0 1 0 0 0 0 1 0 0 0 0 1 0 0 0 0.25 0"/>
<feBlend mode="normal" in2="effect1_innerShadow_33_92044" result="effect2_innerShadow_33_92044"/>
</filter>
<filter id="filter3_ii_33_92044" x="6" y="79" width="80" height="73" filterUnits="userSpaceOnUse" color-interpolation-filters="sRGB">
<feFlood flood-opacity="0" result="BackgroundImageFix"/>
<feBlend mode="normal" in="SourceGraphic" in2="BackgroundImageFix" result="shape"/>
<feColorMatrix in="SourceAlpha" type="matrix" values="0 0 0 0 0 0 0 0 0 0 0 0 0 0 0 0 0 0 127 0" result="hardAlpha"/>
<feOffset dx="8" dy="-8"/>
<feGaussianBlur stdDeviation="20"/>
<feComposite in2="hardAlpha" operator="arithmetic" k2="-1" k3="1"/>
<feColorMatrix type="matrix" values="0 0 0 0 0 0 0 0 0 0 0 0 0 0 0 0 0 0 0.25 0"/>
<feBlend mode="normal" in2="shape" result="effect1_innerShadow_33_92044"/>
<feColorMatrix in="SourceAlpha" type="matrix" values="0 0 0 0 0 0 0 0 0 0 0 0 0 0 0 0 0 0 127 0" result="hardAlpha"/>
<feOffset dx="-8" dy="8"/>
<feGaussianBlur stdDeviation="12"/>
<feComposite in2="hardAlpha" operator="arithmetic" k2="-1" k3="1"/>
<feColorMatrix type="matrix" values="0 0 0 0 1 0 0 0 0 1 0 0 0 0 1 0 0 0 0.25 0"/>
<feBlend mode="normal" in2="effect1_innerShadow_33_92044" result="effect2_innerShadow_33_92044"/>
</filter>
<filter id="filter4_iii_33_92044" x="22" y="8" width="48" height="62" filterUnits="userSpaceOnUse" color-interpolation-filters="sRGB">
<feFlood flood-opacity="0" result="BackgroundImageFix"/>
<feBlend mode="normal" in="SourceGraphic" in2="BackgroundImageFix" result="shape"/>
<feColorMatrix in="SourceAlpha" type="matrix" values="0 0 0 0 0 0 0 0 0 0 0 0 0 0 0 0 0 0 127 0" result="hardAlpha"/>
<feOffset dx="8" dy="-8"/>
<feGaussianBlur stdDeviation="16"/>
<feComposite in2="hardAlpha" operator="arithmetic" k2="-1" k3="1"/>
<feColorMatrix type="matrix" values="0 0 0 0 0 0 0 0 0 0 0 0 0 0 0 0 0 0 0.25 0"/>
<feBlend mode="normal" in2="shape" result="effect1_innerShadow_33_92044"/>
<feColorMatrix in="SourceAlpha" type="matrix" values="0 0 0 0 0 0 0 0 0 0 0 0 0 0 0 0 0 0 127 0" result="hardAlpha"/>
<feOffset dx="-8" dy="8"/>
<feGaussianBlur stdDeviation="12"/>
<feComposite in2="hardAlpha" operator="arithmetic" k2="-1" k3="1"/>
<feColorMatrix type="matrix" values="0 0 0 0 1 0 0 0 0 1 0 0 0 0 1 0 0 0 0.35 0"/>
<feBlend mode="normal" in2="effect1_innerShadow_33_92044" result="effect2_innerShadow_33_92044"/>
<feColorMatrix in="SourceAlpha" type="matrix" values="0 0 0 0 0 0 0 0 0 0 0 0 0 0 0 0 0 0 127 0" result="hardAlpha"/>
<feMorphology radius="4" operator="dilate" in="SourceAlpha" result="effect3_innerShadow_33_92044"/>
<feOffset dy="-10"/>
<feGaussianBlur stdDeviation="4"/>
<feComposite in2="hardAlpha" operator="arithmetic" k2="-1" k3="1"/>
<feColorMatrix type="matrix" values="0 0 0 0 0.443137 0 0 0 0 0.247059 0 0 0 0 0.0705882 0 0 0 1 0"/>
<feBlend mode="normal" in2="effect2_innerShadow_33_92044" result="effect3_innerShadow_33_92044"/>
</filter>
<filter id="filter5_ii_33_92044" x="18" y="0" width="52" height="52" filterUnits="userSpaceOnUse" color-interpolation-filters="sRGB">
<feFlood flood-opacity="0" result="BackgroundImageFix"/>
<feBlend mode="normal" in="SourceGraphic" in2="BackgroundImageFix" result="shape"/>
<feColorMatrix in="SourceAlpha" type="matrix" values="0 0 0 0 0 0 0 0 0 0 0 0 0 0 0 0 0 0 127 0" result="hardAlpha"/>
<feOffset dx="4" dy="-4"/>
<feGaussianBlur stdDeviation="4"/>
<feComposite in2="hardAlpha" operator="arithmetic" k2="-1" k3="1"/>
<feColorMatrix type="matrix" values="0 0 0 0 0 0 0 0 0 0 0 0 0 0 0 0 0 0 0.25 0"/>
<feBlend mode="normal" in2="shape" result="effect1_innerShadow_33_92044"/>
<feColorMatrix in="SourceAlpha" type="matrix" values="0 0 0 0 0 0 0 0 0 0 0 0 0 0 0 0 0 0 127 0" result="hardAlpha"/>
<feOffset dx="-8" dy="8"/>
<feGaussianBlur stdDeviation="12"/>
<feComposite in2="hardAlpha" operator="arithmetic" k2="-1" k3="1"/>
<feColorMatrix type="matrix" values="0 0 0 0 1 0 0 0 0 1 0 0 0 0 1 0 0 0 0.25 0"/>
<feBlend mode="normal" in2="effect1_innerShadow_33_92044" result="effect2_innerShadow_33_92044"/>
</filter>
<filter id="filter6_dii_33_92044" x="30" y="-2" width="32" height="42" filterUnits="userSpaceOnUse" color-interpolation-filters="sRGB">
<feFlood flood-opacity="0" result="BackgroundImageFix"/>
<feColorMatrix in="SourceAlpha" type="matrix" values="0 0 0 0 0 0 0 0 0 0 0 0 0 0 0 0 0 0 127 0" result="hardAlpha"/>
<feOffset dy="4"/>
<feGaussianBlur stdDeviation="2"/>
<feComposite in2="hardAlpha" operator="out"/>
<feColorMatrix type="matrix" values="0 0 0 0 0 0 0 0 0 0 0 0 0 0 0 0 0 0 0.25 0"/>
<feBlend mode="normal" in2="BackgroundImageFix" result="effect1_dropShadow_33_92044"/>
<feBlend mode="normal" in="SourceGraphic" in2="effect1_dropShadow_33_92044" result="shape"/>
<feColorMatrix in="SourceAlpha" type="matrix" values="0 0 0 0 0 0 0 0 0 0 0 0 0 0 0 0 0 0 127 0" result="hardAlpha"/>
<feOffset dy="-2"/>
<feComposite in2="hardAlpha" operator="arithmetic" k2="-1" k3="1"/>
<feColorMatrix type="matrix" values="0 0 0 0 0 0 0 0 0 0 0 0 0 0 0 0 0 0 0.25 0"/>
<feBlend mode="normal" in2="shape" result="effect2_innerShadow_33_92044"/>
<feColorMatrix in="SourceAlpha" type="matrix" values="0 0 0 0 0 0 0 0 0 0 0 0 0 0 0 0 0 0 127 0" result="hardAlpha"/>
<feOffset dx="2" dy="-2"/>
<feGaussianBlur stdDeviation="2"/>
<feComposite in2="hardAlpha" operator="arithmetic" k2="-1" k3="1"/>
<feColorMatrix type="matrix" values="0 0 0 0 0 0 0 0 0 0 0 0 0 0 0 0 0 0 0.25 0"/>
<feBlend mode="normal" in2="effect2_innerShadow_33_92044" result="effect3_innerShadow_33_92044"/>
</filter>
<filter id="filter7_i_33_92044" x="30" y="0" width="28" height="28" filterUnits="userSpaceOnUse" color-interpolation-filters="sRGB">
<feFlood flood-opacity="0" result="BackgroundImageFix"/>
<feBlend mode="normal" in="SourceGraphic" in2="BackgroundImageFix" result="shape"/>
<feColorMatrix in="SourceAlpha" type="matrix" values="0 0 0 0 0 0 0 0 0 0 0 0 0 0 0 0 0 0 127 0" result="hardAlpha"/>
<feOffset dx="-4" dy="4"/>
<feGaussianBlur stdDeviation="2"/>
<feComposite in2="hardAlpha" operator="arithmetic" k2="-1" k3="1"/>
<feColorMatrix type="matrix" values="0 0 0 0 1 0 0 0 0 1 0 0 0 0 1 0 0 0 0.25 0"/>
<feBlend mode="normal" in2="shape" result="effect1_innerShadow_33_92044"/>
</filter>
</defs>
</svg>
