<svg width="105" height="206" viewBox="0 0 105 206" fill="none" xmlns="http://www.w3.org/2000/svg">
<rect y="147" width="68" height="27" rx="13.5" fill="#E4CEB8"/>
<rect x="28" y="161" width="68" height="27" rx="13.5" fill="#E4CEB8"/>
<rect x="23" y="181" width="42" height="25" rx="12.5" fill="#E4CEB8"/>
<rect x="64" y="178" width="4" height="2" rx="1" fill="white" fill-opacity="0.4"/>
<rect x="10" y="163" width="4" height="2" rx="1" fill="white" fill-opacity="0.4"/>
<rect opacity="0.7" x="27" y="188" width="20" height="4" rx="2" fill="white" fill-opacity="0.2"/>
<rect opacity="0.7" x="43" y="169" width="20" height="4" rx="2" fill="white" fill-opacity="0.2"/>
<g filter="url(#filter0_diii_33_92045)">
<rect x="84" y="128" width="80" height="128" rx="40" transform="rotate(-180 84 128)" fill="#713F12"/>
</g>
<g filter="url(#filter1_ii_33_92045)">
<path d="M3.41838 129.539C-1.24769 121.241 1.05699 110.861 8.44978 105.311C9.05343 104.858 4.46775 100.485 7.77365 99L12.7788 104.164C14.7663 106.214 15.5957 109.123 14.9883 111.914C14.9517 112.082 14.8446 112.226 14.6978 112.316C10.4363 114.929 8.98041 120.513 11.4593 124.921C13.9828 129.409 19.6286 130.98 24.0694 128.43C27.8161 126.278 29.5081 121.88 28.4299 117.863L36.5995 113.171C40.1182 121.756 36.8394 131.846 28.6385 136.556C19.7569 141.657 8.46545 138.515 3.41838 129.539Z" fill="#713F12"/>
</g>
<g filter="url(#filter2_ii_33_92045)">
<path d="M76 73L76 46.0155L74.5455 40.8909L76 38.6947L76 32.7353C69.5249 22.6694 58.2731 16.007 45.4749 16C45.4681 16 45.4613 16 45.4545 16L42.5455 16C42.5387 16 42.5319 16 42.5252 16C29.7269 16.007 18.4751 22.6694 12 32.7353L12 56.2647L18.9091 51.5062L12 62.9338L12 73C18.4785 62.9288 29.7388 56.2647 42.5455 56.2647L45.4545 56.2647C58.2612 56.2647 69.5215 62.9288 76 73Z" fill="#F2E9DE"/>
</g>
<path d="M34.6845 49.511L36.9588 47.9131C37.8609 47.2793 37.3502 45.6135 37.9148 44.6966C37.9148 44.6966 37.683 44.2112 42.5453 39.8562C47.4077 35.5013 51.6288 32.4138 51.6288 32.4138C52.8331 31.3351 55.1794 31.9082 56.0238 30.8261L57.2386 29.2692C57.6329 28.7638 57.1411 28.4522 56.6956 28.2472C53.7444 26.8891 55.5913 26.8416 54.2142 25.2374C53.8845 24.8533 53.4033 24.4433 53.1346 24.6321C50.6788 26.3574 51.186 27.3649 49.9043 29.4465C49.9043 29.4465 42.9832 36.2999 40.9816 38.0927C38.9799 39.8854 36.1903 41.7293 36.1903 41.7293C35.5646 42.2897 34.6497 42.7016 33.793 42.7284C33.0545 42.7514 32.2161 42.7776 31.7953 43.317L30.5805 44.8739C29.8401 45.8227 31.8895 46.1223 32.5164 46.1686C33.7592 46.2603 34.1407 46.877 33.593 47.8344C33.2998 48.3471 33.9376 50.0358 34.6845 49.511Z" fill="#0F172A"/>
<path d="M29.2843 29.034L31.0684 31.071C31.776 31.8789 33.6359 31.4215 34.6596 31.9272C34.6596 31.9272 35.2553 32.1114 40.1177 36.4663C44.98 40.8212 48.3736 44.21 48.3736 44.21C49.578 45.2887 48.9381 47.3901 50.1463 48.1464L51.8846 49.2344C52.4489 49.5876 52.7968 49.1471 53.0257 48.7481C54.542 46.1048 54.5951 47.7591 56.3862 46.5257C56.815 46.2304 57.2728 45.7994 57.062 45.5587C55.1356 43.3592 54.0107 43.8134 51.6867 42.6655C51.6867 42.6655 44.0346 36.4667 42.033 34.674C40.0314 32.8812 37.9727 30.3827 37.9727 30.3827C37.3469 29.8223 36.887 29.0029 36.8572 28.2356C36.8314 27.5742 36.8022 26.8233 36.2 26.4463L34.4617 25.3583C33.4023 24.6952 33.0678 26.5308 33.0161 27.0922C32.9137 28.2053 32.2252 28.547 31.1562 28.0565C30.5838 27.7938 28.6983 28.3651 29.2843 29.034Z" fill="#0F172A"/>
<path opacity="0.1" d="M63.7993 31.6755C67.6944 34.6851 72.1221 37.554 72.686 36.804C73.25 36.054 70.2093 33.4589 66.3143 30.4493C61.9168 28.108 57.6375 27.16 57.0735 27.91C56.5096 28.66 59.4019 29.3342 63.7993 31.6755Z" fill="black"/>
<path opacity="0.1" d="M25.6672 56.0491C28.5641 55.2938 31.6078 54.2734 31.4919 53.8164C31.376 53.3595 29.0035 53.8772 26.1066 54.6324C23.313 55.7948 21.1952 57.3159 21.3112 57.7729C21.4271 58.2298 22.8736 57.2115 25.6672 56.0491Z" fill="black"/>
<g filter="url(#filter3_iii_33_92045)">
<rect x="60" y="144" width="32" height="46" rx="16" transform="rotate(-180 60 144)" fill="#713F12"/>
</g>
<g filter="url(#filter4_ii_33_92045)">
<rect x="64" y="157" width="40" height="40" rx="20" transform="rotate(-180 64 157)" fill="#713F12"/>
</g>
<rect x="56" y="149" width="24" height="24" rx="12" transform="rotate(-180 56 149)" fill="#3C2D24"/>
<g filter="url(#filter5_i_33_92045)">
<rect width="24" height="37.1392" rx="12" transform="matrix(0.707906 -0.706307 0.707904 0.706308 61.3613 157.37)" fill="#CA8A04"/>
</g>
<g filter="url(#filter6_i_33_92045)">
<rect width="24" height="24" rx="12" transform="matrix(0.707906 -0.706307 0.707904 0.706308 71 166.951)" fill="#EAB308"/>
</g>
<g filter="url(#filter7_i_33_92045)">
<path d="M39 145C39 143.895 39.8954 143 41 143L46 143C47.1046 143 48 143.895 48 145L48 157L39 157L39 145Z" fill="#E4CEB8"/>
</g>
<defs>
<filter id="filter0_diii_33_92045" x="-4" y="-8" width="104" height="164" filterUnits="userSpaceOnUse" color-interpolation-filters="sRGB">
<feFlood flood-opacity="0" result="BackgroundImageFix"/>
<feColorMatrix in="SourceAlpha" type="matrix" values="0 0 0 0 0 0 0 0 0 0 0 0 0 0 0 0 0 0 127 0" result="hardAlpha"/>
<feMorphology radius="2" operator="dilate" in="SourceAlpha" result="effect1_dropShadow_33_92045"/>
<feOffset dy="26"/>
<feComposite in2="hardAlpha" operator="out"/>
<feColorMatrix type="matrix" values="0 0 0 0 0 0 0 0 0 0 0 0 0 0 0 0 0 0 0.12 0"/>
<feBlend mode="normal" in2="BackgroundImageFix" result="effect1_dropShadow_33_92045"/>
<feBlend mode="normal" in="SourceGraphic" in2="effect1_dropShadow_33_92045" result="shape"/>
<feColorMatrix in="SourceAlpha" type="matrix" values="0 0 0 0 0 0 0 0 0 0 0 0 0 0 0 0 0 0 127 0" result="hardAlpha"/>
<feOffset dx="8" dy="-8"/>
<feGaussianBlur stdDeviation="20"/>
<feComposite in2="hardAlpha" operator="arithmetic" k2="-1" k3="1"/>
<feColorMatrix type="matrix" values="0 0 0 0 0 0 0 0 0 0 0 0 0 0 0 0 0 0 0.25 0"/>
<feBlend mode="normal" in2="shape" result="effect2_innerShadow_33_92045"/>
<feColorMatrix in="SourceAlpha" type="matrix" values="0 0 0 0 0 0 0 0 0 0 0 0 0 0 0 0 0 0 127 0" result="hardAlpha"/>
<feOffset dx="-8" dy="8"/>
<feGaussianBlur stdDeviation="12"/>
<feComposite in2="hardAlpha" operator="arithmetic" k2="-1" k3="1"/>
<feColorMatrix type="matrix" values="0 0 0 0 1 0 0 0 0 1 0 0 0 0 1 0 0 0 0.25 0"/>
<feBlend mode="normal" in2="effect2_innerShadow_33_92045" result="effect3_innerShadow_33_92045"/>
<feColorMatrix in="SourceAlpha" type="matrix" values="0 0 0 0 0 0 0 0 0 0 0 0 0 0 0 0 0 0 127 0" result="hardAlpha"/>
<feOffset dx="16" dy="-8"/>
<feGaussianBlur stdDeviation="12"/>
<feComposite in2="hardAlpha" operator="arithmetic" k2="-1" k3="1"/>
<feColorMatrix type="matrix" values="0 0 0 0 0 0 0 0 0 0 0 0 0 0 0 0 0 0 0.25 0"/>
<feBlend mode="normal" in2="effect3_innerShadow_33_92045" result="effect4_innerShadow_33_92045"/>
</filter>
<filter id="filter1_ii_33_92045" x="-1" y="99" width="41" height="40" filterUnits="userSpaceOnUse" color-interpolation-filters="sRGB">
<feFlood flood-opacity="0" result="BackgroundImageFix"/>
<feBlend mode="normal" in="SourceGraphic" in2="BackgroundImageFix" result="shape"/>
<feColorMatrix in="SourceAlpha" type="matrix" values="0 0 0 0 0 0 0 0 0 0 0 0 0 0 0 0 0 0 127 0" result="hardAlpha"/>
<feOffset dx="2"/>
<feGaussianBlur stdDeviation="4"/>
<feComposite in2="hardAlpha" operator="arithmetic" k2="-1" k3="1"/>
<feColorMatrix type="matrix" values="0 0 0 0 0 0 0 0 0 0 0 0 0 0 0 0 0 0 0.25 0"/>
<feBlend mode="normal" in2="shape" result="effect1_innerShadow_33_92045"/>
<feColorMatrix in="SourceAlpha" type="matrix" values="0 0 0 0 0 0 0 0 0 0 0 0 0 0 0 0 0 0 127 0" result="hardAlpha"/>
<feOffset dx="-2"/>
<feGaussianBlur stdDeviation="6"/>
<feComposite in2="hardAlpha" operator="arithmetic" k2="-1" k3="1"/>
<feColorMatrix type="matrix" values="0 0 0 0 1 0 0 0 0 1 0 0 0 0 1 0 0 0 0.25 0"/>
<feBlend mode="normal" in2="effect1_innerShadow_33_92045" result="effect2_innerShadow_33_92045"/>
</filter>
<filter id="filter2_ii_33_92045" x="4" y="8" width="80" height="73" filterUnits="userSpaceOnUse" color-interpolation-filters="sRGB">
<feFlood flood-opacity="0" result="BackgroundImageFix"/>
<feBlend mode="normal" in="SourceGraphic" in2="BackgroundImageFix" result="shape"/>
<feColorMatrix in="SourceAlpha" type="matrix" values="0 0 0 0 0 0 0 0 0 0 0 0 0 0 0 0 0 0 127 0" result="hardAlpha"/>
<feOffset dx="8" dy="-8"/>
<feGaussianBlur stdDeviation="20"/>
<feComposite in2="hardAlpha" operator="arithmetic" k2="-1" k3="1"/>
<feColorMatrix type="matrix" values="0 0 0 0 0 0 0 0 0 0 0 0 0 0 0 0 0 0 0.25 0"/>
<feBlend mode="normal" in2="shape" result="effect1_innerShadow_33_92045"/>
<feColorMatrix in="SourceAlpha" type="matrix" values="0 0 0 0 0 0 0 0 0 0 0 0 0 0 0 0 0 0 127 0" result="hardAlpha"/>
<feOffset dx="-8" dy="8"/>
<feGaussianBlur stdDeviation="12"/>
<feComposite in2="hardAlpha" operator="arithmetic" k2="-1" k3="1"/>
<feColorMatrix type="matrix" values="0 0 0 0 1 0 0 0 0 1 0 0 0 0 1 0 0 0 0.25 0"/>
<feBlend mode="normal" in2="effect1_innerShadow_33_92045" result="effect2_innerShadow_33_92045"/>
</filter>
<filter id="filter3_iii_33_92045" x="20" y="90" width="48" height="62" filterUnits="userSpaceOnUse" color-interpolation-filters="sRGB">
<feFlood flood-opacity="0" result="BackgroundImageFix"/>
<feBlend mode="normal" in="SourceGraphic" in2="BackgroundImageFix" result="shape"/>
<feColorMatrix in="SourceAlpha" type="matrix" values="0 0 0 0 0 0 0 0 0 0 0 0 0 0 0 0 0 0 127 0" result="hardAlpha"/>
<feOffset dx="8" dy="-8"/>
<feGaussianBlur stdDeviation="16"/>
<feComposite in2="hardAlpha" operator="arithmetic" k2="-1" k3="1"/>
<feColorMatrix type="matrix" values="0 0 0 0 0 0 0 0 0 0 0 0 0 0 0 0 0 0 0.25 0"/>
<feBlend mode="normal" in2="shape" result="effect1_innerShadow_33_92045"/>
<feColorMatrix in="SourceAlpha" type="matrix" values="0 0 0 0 0 0 0 0 0 0 0 0 0 0 0 0 0 0 127 0" result="hardAlpha"/>
<feOffset dx="-8" dy="8"/>
<feGaussianBlur stdDeviation="12"/>
<feComposite in2="hardAlpha" operator="arithmetic" k2="-1" k3="1"/>
<feColorMatrix type="matrix" values="0 0 0 0 1 0 0 0 0 1 0 0 0 0 1 0 0 0 0.35 0"/>
<feBlend mode="normal" in2="effect1_innerShadow_33_92045" result="effect2_innerShadow_33_92045"/>
<feColorMatrix in="SourceAlpha" type="matrix" values="0 0 0 0 0 0 0 0 0 0 0 0 0 0 0 0 0 0 127 0" result="hardAlpha"/>
<feMorphology radius="4" operator="dilate" in="SourceAlpha" result="effect3_innerShadow_33_92045"/>
<feOffset dy="-10"/>
<feGaussianBlur stdDeviation="4"/>
<feComposite in2="hardAlpha" operator="arithmetic" k2="-1" k3="1"/>
<feColorMatrix type="matrix" values="0 0 0 0 0.443137 0 0 0 0 0.247059 0 0 0 0 0.0705882 0 0 0 1 0"/>
<feBlend mode="normal" in2="effect2_innerShadow_33_92045" result="effect3_innerShadow_33_92045"/>
</filter>
<filter id="filter4_ii_33_92045" x="16" y="113" width="52" height="52" filterUnits="userSpaceOnUse" color-interpolation-filters="sRGB">
<feFlood flood-opacity="0" result="BackgroundImageFix"/>
<feBlend mode="normal" in="SourceGraphic" in2="BackgroundImageFix" result="shape"/>
<feColorMatrix in="SourceAlpha" type="matrix" values="0 0 0 0 0 0 0 0 0 0 0 0 0 0 0 0 0 0 127 0" result="hardAlpha"/>
<feOffset dx="4" dy="-4"/>
<feGaussianBlur stdDeviation="4"/>
<feComposite in2="hardAlpha" operator="arithmetic" k2="-1" k3="1"/>
<feColorMatrix type="matrix" values="0 0 0 0 0 0 0 0 0 0 0 0 0 0 0 0 0 0 0.25 0"/>
<feBlend mode="normal" in2="shape" result="effect1_innerShadow_33_92045"/>
<feColorMatrix in="SourceAlpha" type="matrix" values="0 0 0 0 0 0 0 0 0 0 0 0 0 0 0 0 0 0 127 0" result="hardAlpha"/>
<feOffset dx="-8" dy="8"/>
<feGaussianBlur stdDeviation="12"/>
<feComposite in2="hardAlpha" operator="arithmetic" k2="-1" k3="1"/>
<feColorMatrix type="matrix" values="0 0 0 0 1 0 0 0 0 1 0 0 0 0 1 0 0 0 0.25 0"/>
<feBlend mode="normal" in2="effect1_innerShadow_33_92045" result="effect2_innerShadow_33_92045"/>
</filter>
<filter id="filter5_i_33_92045" x="66.3379" y="143.384" width="35.3281" height="35.2533" filterUnits="userSpaceOnUse" color-interpolation-filters="sRGB">
<feFlood flood-opacity="0" result="BackgroundImageFix"/>
<feBlend mode="normal" in="SourceGraphic" in2="BackgroundImageFix" result="shape"/>
<feColorMatrix in="SourceAlpha" type="matrix" values="0 0 0 0 0 0 0 0 0 0 0 0 0 0 0 0 0 0 127 0" result="hardAlpha"/>
<feOffset dx="2" dy="-2"/>
<feGaussianBlur stdDeviation="1"/>
<feComposite in2="hardAlpha" operator="arithmetic" k2="-1" k3="1"/>
<feColorMatrix type="matrix" values="0 0 0 0 0 0 0 0 0 0 0 0 0 0 0 0 0 0 0.25 0"/>
<feBlend mode="normal" in2="shape" result="effect1_innerShadow_33_92045"/>
</filter>
<filter id="filter6_i_33_92045" x="71.9766" y="154.965" width="28.0273" height="27.9729" filterUnits="userSpaceOnUse" color-interpolation-filters="sRGB">
<feFlood flood-opacity="0" result="BackgroundImageFix"/>
<feBlend mode="normal" in="SourceGraphic" in2="BackgroundImageFix" result="shape"/>
<feColorMatrix in="SourceAlpha" type="matrix" values="0 0 0 0 0 0 0 0 0 0 0 0 0 0 0 0 0 0 127 0" result="hardAlpha"/>
<feOffset dx="-4" dy="4"/>
<feGaussianBlur stdDeviation="2"/>
<feComposite in2="hardAlpha" operator="arithmetic" k2="-1" k3="1"/>
<feColorMatrix type="matrix" values="0 0 0 0 1 0 0 0 0 1 0 0 0 0 1 0 0 0 0.25 0"/>
<feBlend mode="normal" in2="shape" result="effect1_innerShadow_33_92045"/>
</filter>
<filter id="filter7_i_33_92045" x="39" y="143" width="9" height="14" filterUnits="userSpaceOnUse" color-interpolation-filters="sRGB">
<feFlood flood-opacity="0" result="BackgroundImageFix"/>
<feBlend mode="normal" in="SourceGraphic" in2="BackgroundImageFix" result="shape"/>
<feColorMatrix in="SourceAlpha" type="matrix" values="0 0 0 0 0 0 0 0 0 0 0 0 0 0 0 0 0 0 127 0" result="hardAlpha"/>
<feOffset dy="2"/>
<feComposite in2="hardAlpha" operator="arithmetic" k2="-1" k3="1"/>
<feColorMatrix type="matrix" values="0 0 0 0 0 0 0 0 0 0 0 0 0 0 0 0 0 0 0.25 0"/>
<feBlend mode="normal" in2="shape" result="effect1_innerShadow_33_92045"/>
</filter>
</defs>
</svg>
