<svg width="437" height="655" viewBox="0 0 437 655" fill="none" xmlns="http://www.w3.org/2000/svg">
<g filter="url(#filter0_i_33_91907)">
<path fill-rule="evenodd" clip-rule="evenodd" d="M190 447.137L3 509.656L167 653.7L224 634.194L225.84 633.116L270.5 652.199L363.5 632.193L430.5 606.686L433.5 546.167L406.745 527.094L436.5 509.656L190 447.137Z" fill="white" fill-opacity="0.2"/>
</g>
<path d="M256 164.05L91 218.066L24.5 518.158L166.5 637.195L407.5 509.155L383.5 208.063L256 164.05Z" fill="#78716C"/>
<g filter="url(#filter1_i_33_91907)">
<path d="M383.5 208.063L248.5 318.097L274.5 598.183L407.5 509.156L383.5 208.063Z" fill="#A8A29E"/>
</g>
<path d="M166.5 637.195C166.5 613.188 218.5 322.099 218.5 322.099L250 325.1L274.5 598.183C264.513 607.174 166.5 637.195 166.5 637.195Z" fill="#A8A29E"/>
<path d="M383.5 208.064L268 124.038L129 185.057L88 218.067C152.167 260.913 218.5 322.099 218.5 322.099L249.5 325.1L383.5 208.064Z" fill="#E7E5E4"/>
<path d="M227.553 242.074L125 187.849L162.732 41.6365L231.423 32.9219L227.553 242.074Z" fill="#78716C"/>
<path d="M363.001 192.691L317.529 157.832L283.667 24.207L223.684 47.4461L227.554 242.074L275.927 213.025L363.001 192.691Z" fill="#A8A29E"/>
<path d="M204.334 0L162.732 41.6367H193.692L223.684 47.4465L283.667 24.2074L276.895 11.6196L204.334 0Z" fill="#D6D3D1"/>
<path fill-rule="evenodd" clip-rule="evenodd" d="M180.816 330.396C194.638 335.408 209.683 340.863 209.683 358.581C209.683 364.884 209.204 372.389 208.685 380.45C207.071 382.56 206.287 385.419 206.526 388.429C201.629 389.492 197.105 392.001 194.271 395.262C189.415 400.85 189.506 409.29 193.851 416.27C192.043 416.97 190.415 418.335 189.833 420.176C188.786 423.492 191.53 427.098 194.299 427.973C195.621 428.391 197.018 428.158 198.231 427.438C198.241 427.466 198.251 427.494 198.262 427.521C198.268 427.538 198.275 427.554 198.281 427.57C198.989 429.325 200.75 430.269 202.216 429.678C203.558 429.136 204.722 427.177 204.365 425.503C205.624 426.076 206.908 426.525 208.196 426.849C209.382 437.939 212.091 447.778 217.538 454.589C230.624 470.95 235.5 459.594 235.5 442.135C235.5 418.686 238.307 409.071 245.276 433.472C254.468 465.654 267.161 423.626 275.321 396.606C277.848 388.238 279.941 381.31 281.36 378.47C288.974 363.238 296.159 351.636 313.516 347.778C337.827 342.373 337.824 332.875 337.818 311.049C337.817 310.691 337.817 310.329 337.817 309.964C337.817 303.889 342.949 300.874 348.052 297.876C350.372 296.514 352.685 295.154 354.509 293.513C357.885 290.473 358.806 287.186 359.735 283.869C360.491 281.17 361.252 278.452 363.346 275.834C373.696 262.892 360.952 239.646 352.054 231.636C331.825 213.424 313.008 217.774 288.759 223.38C286.348 223.938 283.884 224.507 281.36 225.068C268.487 227.93 237.091 248.032 227.18 257.417C226.226 255.845 224.816 254.648 223.056 254.092C219.962 253.115 215.555 254.212 212.628 256.781C212.12 249.282 207.919 242.873 201.357 240.8C192.31 237.94 177.795 243.723 174.373 254.558C173.517 257.268 173.436 260.037 173.937 262.712C169.114 265.197 165.021 269.188 163.404 274.307C163.116 275.22 162.916 276.139 162.796 277.059C162.699 277.024 162.601 276.99 162.501 276.959C158.096 275.567 151.029 278.382 149.363 283.657C147.697 288.933 152.062 294.671 156.467 296.063C159.21 296.93 162.153 296.037 164.386 293.965C149.452 319.025 164.256 324.392 180.816 330.396ZM326.434 371.4C326.126 371.95 325.758 372.479 325.328 372.978C322.081 376.742 315.882 378.1 312.328 375.032C308.774 371.965 307.318 363.998 310.565 360.234C313.166 357.219 319.113 357.891 322.45 359.203C324.587 356.178 327.169 353.45 328.841 353.326C332.171 353.081 335.351 356.208 335.546 358.851C335.582 359.352 335.62 359.967 335.633 360.638C336.225 360.818 336.695 361.055 336.995 361.359C339.351 363.725 339.051 368.176 337.173 370.046C335.295 371.915 331.003 375.879 328.647 373.512C328.282 373.146 327.782 372.674 327.206 372.131L327.204 372.129L327.112 372.043L327.045 371.977L326.739 371.689C326.639 371.594 326.537 371.498 326.434 371.4Z" fill="#84CC16"/>
<path d="M313.491 254.843C313.491 251.662 310.41 250.076 306.511 250.076C302.612 250.076 302.5 252.059 302.5 255.24C302.5 258.42 306.062 259.079 309.961 259.079C313.86 259.079 313.491 258.023 313.491 254.843Z" fill="white" fill-opacity="0.2"/>
<path d="M273.496 246.252C273.496 244.131 272.096 243.074 270.323 243.074C268.551 243.074 268.5 244.396 268.5 246.517C268.5 248.637 270.119 249.076 271.891 249.076C273.664 249.076 273.496 248.372 273.496 246.252Z" fill="white" fill-opacity="0.2"/>
<path d="M276.307 245.645C278.762 247.667 283.522 247.586 286 244.575C288.478 241.563 285.44 238.926 282.985 236.904C280.53 234.883 277.478 235.561 275 238.573C272.522 241.584 273.852 243.624 276.307 245.645Z" fill="white" fill-opacity="0.2"/>
<path d="M285.491 333.866C285.491 330.685 282.41 329.1 278.511 329.1C274.612 329.1 274.5 331.082 274.5 334.263C274.5 337.444 278.062 338.103 281.961 338.103C285.86 338.103 285.491 337.047 285.491 333.866Z" fill="black" fill-opacity="0.12"/>
<path d="M338.477 274.735C338.477 273.717 337.548 273.083 336.538 273.083C335.529 273.083 335.5 273.717 335.5 274.735C335.5 275.753 336.691 277.084 337.7 277.084C338.71 277.084 338.477 275.753 338.477 274.735Z" fill="white" fill-opacity="0.2"/>
<path d="M322.883 249.96C324.756 248.086 325.045 243.635 322.684 241.273C320.323 238.911 314.862 242.433 312.989 244.307C311.115 246.181 314.136 249.698 316.497 252.06C318.858 254.422 321.009 251.834 322.883 249.96Z" fill="white" fill-opacity="0.4"/>
<path d="M203.5 296.59C204.91 295.179 200.529 289.116 199.364 287.951C198.199 286.786 194.865 287.222 193.455 288.633C192.044 290.044 191.471 294.561 192.636 295.726C193.801 296.892 202.09 298.001 203.5 296.59Z" fill="black" fill-opacity="0.12"/>
<path d="M176.451 357.63C181.366 352.713 182.123 341.038 175.929 334.841C169.735 328.645 155.41 337.883 150.495 342.799C145.579 347.716 153.504 356.943 159.698 363.139C165.892 369.335 171.536 362.547 176.451 357.63Z" fill="#365314"/>
<path fill-rule="evenodd" clip-rule="evenodd" d="M303.676 241.963C303.772 240.457 303.346 238.837 302.252 237.743C300.242 235.732 295.593 238.73 293.998 240.326C292.403 241.922 294.975 244.916 296.985 246.927C298.172 248.114 299.297 247.832 300.347 247.074C300.944 247.948 302.025 248.532 303.26 248.532C305.141 248.532 308.368 247.177 308.368 245.504C308.368 243.832 306.844 241.719 304.963 241.719C304.577 241.719 304.135 241.808 303.676 241.963Z" fill="white" fill-opacity="0.2"/>
<path d="M296.5 255.967C296.5 257.686 293.846 259.079 292.3 259.079C290.754 259.079 289.5 257.686 289.5 255.967C289.5 254.248 292.154 252.077 293.7 252.077C295.246 252.077 296.5 254.248 296.5 255.967Z" fill="white" fill-opacity="0.2"/>
<path d="M197.821 278.418C197.821 279.892 194.788 281.086 193.021 281.086C191.253 281.086 192.317 279.058 192.317 277.585C192.317 276.112 192.853 275.084 194.621 275.084C196.388 275.084 197.821 276.945 197.821 278.418Z" fill="white" fill-opacity="0.4"/>
<path d="M243 359.109C243 362.7 239.485 367.111 237 367.111C234.515 367.111 232.5 364.2 232.5 360.609C232.5 357.018 234.515 354.107 237 354.107C239.485 354.107 243 355.518 243 359.109Z" fill="black" fill-opacity="0.12"/>
<path d="M250.841 258.452C249.373 259.869 246.183 260.172 245.202 259.155C244.222 258.139 244.617 256.166 246.084 254.749C247.552 253.332 249.537 253.008 250.518 254.024C251.498 255.041 252.309 257.035 250.841 258.452Z" fill="white" fill-opacity="0.2"/>
<path d="M258.015 260.596C257.286 261.3 255.52 261.1 255.033 260.595C254.648 259.367 255.161 257.585 255.89 256.881C256.62 256.177 257.528 257.108 258.015 257.613C258.502 258.118 258.744 259.891 258.015 260.596Z" fill="white" fill-opacity="0.2"/>
<path d="M370.087 513.566C369.358 514.27 367.592 514.071 367.105 513.566C366.72 512.337 367.233 510.556 367.962 509.852C368.692 509.148 369.6 510.078 370.087 510.583C370.575 511.089 370.817 512.862 370.087 513.566Z" fill="black" fill-opacity="0.12"/>
<path d="M245.1 371.635C243.804 372.669 241.17 372.63 240.431 371.705C239.693 370.779 240.145 369.191 241.44 368.158C242.735 367.124 244.383 367.036 245.122 367.962C245.86 368.887 246.395 370.602 245.1 371.635Z" fill="black" fill-opacity="0.12"/>
<path d="M282.5 251.577C282.5 252.958 281.381 254.078 280 254.078C278.619 254.078 277.5 252.958 277.5 251.577C277.5 250.196 280.119 249.076 281.5 249.076C282.881 249.076 282.5 250.196 282.5 251.577Z" fill="white" fill-opacity="0.2"/>
<path d="M369.915 506.421C368.447 507.838 365.257 508.141 364.276 507.125C363.296 506.108 363.691 504.136 365.159 502.719C366.626 501.302 368.611 500.977 369.592 501.994C370.573 503.01 371.383 505.005 369.915 506.421Z" fill="black" fill-opacity="0.12"/>
<path d="M380.325 433.839C384.541 429.622 385.19 419.608 379.878 414.293C374.565 408.979 346.253 412.71 342.037 416.927C337.821 421.144 355.849 436.371 361.162 441.685C366.474 446.999 376.109 438.056 380.325 433.839Z" fill="white" fill-opacity="0.4"/>
<path d="M143 515.641C143 502.187 136.255 489.15 119.828 489.15C103.401 489.15 95 507.471 95 520.925C95 534.379 110.006 537.165 126.434 537.165C142.861 537.165 143 529.095 143 515.641Z" fill="black" fill-opacity="0.12"/>
<path d="M126 470.386C126 463.659 122.627 457.14 114.414 457.14C106.2 457.14 102 466.3 102 473.027C102 479.754 109.503 481.147 117.717 481.147C125.93 481.147 126 477.112 126 470.386Z" fill="black" fill-opacity="0.12"/>
<path d="M338.491 287.853C338.491 284.673 335.41 283.087 331.511 283.087C327.612 283.087 327.5 285.07 327.5 288.25C327.5 291.431 331.062 292.09 334.961 292.09C338.86 292.09 338.491 291.034 338.491 287.853Z" fill="white" fill-opacity="0.2"/>
<path d="M398 467.703C398 460.579 388.536 453.139 379.538 453.139C370.541 453.139 368 465.422 368 472.547C368 479.672 376.22 481.147 385.217 481.147C394.215 481.147 398 474.828 398 467.703Z" fill="white" fill-opacity="0.2"/>
<path d="M352.583 468.871C356.204 469.46 360.744 465.403 361.466 460.962C362.188 456.52 356.148 454.251 352.527 453.662C348.906 453.073 347.497 457.009 346.775 461.45C346.053 465.892 348.961 468.283 352.583 468.871Z" fill="white" fill-opacity="0.2"/>
<path d="M223.322 559.081V624.587L271.439 645.107L367.673 624.587L414.5 606.185L427.322 548.077L223.322 559.081Z" fill="#78716C"/>
<path d="M367.693 624.587L414.5 606.185L399.322 541.075L271.322 606.095L271.459 645.107L367.693 624.587Z" fill="#A8A29E"/>
<path d="M425.322 602.094L427.322 548.077L414.322 528.071L399.322 541.075L414.5 606.185L425.322 602.094Z" fill="#D6D3D1"/>
<g filter="url(#filter2_i_33_91907)">
<path d="M271.322 493.061L223.322 559.081L271.322 606.095L367.322 572.085L414.322 528.071L367.322 493.061H271.322Z" fill="#D6D3D1"/>
</g>
<g filter="url(#filter3_iii_33_91907)">
<path d="M255.916 626.976C245.399 623.966 247.743 604.434 249.648 597.196L251.875 590.505C254.78 581.914 263.862 572.937 268.04 569.523C275.3 562.252 278.734 551.158 283.216 542.18C285.298 538.01 286.993 533.699 290.845 530.698C293.993 528.246 297.196 524.853 300.866 523.015C308.37 519.257 318.632 522.107 326.846 522.107C335.659 522.107 343.175 515.951 351.794 514.672C361.506 513.231 380.217 512.595 383.259 513.763C398.497 516.449 404.948 524.134 406.27 527.641C408.405 532.192 410.29 543.289 400.744 551.267C396.73 552.16 394.55 551.832 395.094 555.645C396.371 564.599 393.05 571.175 383.836 571.175C377.445 571.175 372.657 569.947 366.558 572.662C364.515 573.571 362.855 578.545 362.104 580.468C360.118 585.552 359.607 590.961 358.021 596.122C355.904 603.014 355.424 610.123 350.186 615.37C340.3 625.271 336.001 606.545 331.67 601.244C325.018 593.1 317.601 611.953 312.371 613.883C309.928 614.784 306.41 614.601 304.247 613.222C302.752 612.269 301.703 610.538 299.958 610C293.781 608.097 290.186 614.939 286.432 618.302C284.183 620.318 277.795 624.965 277.113 619.5C276.872 617.572 274.537 610.532 272.247 609.876C265.921 608.066 264.928 629.555 255.916 626.976Z" fill="#65A30D"/>
</g>
<path d="M289.985 589.121C289.985 583.82 284.944 581.177 278.564 581.177C272.184 581.177 272 584.482 272 589.783C272 595.084 277.828 596.182 284.209 596.182C290.589 596.182 289.985 594.422 289.985 589.121Z" fill="black" fill-opacity="0.12"/>
<path d="M268.62 603.591C266.237 605.894 260.987 606.313 259.344 604.608C257.701 602.903 258.302 599.654 260.685 597.351C263.068 595.048 266.332 594.563 267.974 596.267C269.617 597.972 271.004 601.288 268.62 603.591Z" fill="black" fill-opacity="0.12"/>
<path fill-rule="evenodd" clip-rule="evenodd" d="M346.189 537.637C346.827 538.908 347.677 539.979 348.666 540.683C348.929 540.87 349.196 541.063 349.466 541.259L349.467 541.259C352.703 543.603 356.364 546.254 359.053 542.321C361.967 538.06 365.548 531.84 362.128 529.409C358.709 526.977 349.318 522.9 346.404 527.161C346.192 527.471 346.005 527.795 345.842 528.129C345.663 528.057 345.467 528.013 345.254 528.001C342.829 527.859 336.954 528.766 336.799 531.799C336.645 534.831 339.574 537.682 341.999 537.823C342.186 537.834 342.377 537.847 342.569 537.86C343.838 537.945 345.197 538.036 346.189 537.637ZM330.652 540.86C328.447 540.732 325.756 538.699 325.864 536.576C325.972 534.453 331.299 533.889 333.503 534.017C335.708 534.146 335.849 537.101 335.741 539.224C335.641 541.184 333.268 541.029 331.17 540.893C330.995 540.882 330.821 540.87 330.652 540.86ZM353.859 550.755C353.75 552.878 355.606 554.862 357.149 554.952C357.268 554.959 357.389 554.967 357.512 554.976C358.98 555.075 360.641 555.188 360.741 553.229C360.849 551.106 360.795 548.155 359.252 548.065C357.709 547.975 353.967 548.632 353.859 550.755ZM377.66 542.009C376.253 542.65 373.714 541.751 372.85 539.809C372.594 539.234 372.678 538.626 372.959 538.036C372.19 537.463 371.922 535.888 371.955 535.163C371.994 534.28 373.678 534.25 374.89 534.312C375.56 534.347 375.81 534.701 375.894 535.159C376.08 535.051 376.253 534.96 376.407 534.89C377.814 534.248 379.196 536.851 380.06 538.793C380.857 540.585 379.336 541.262 377.991 541.86L377.991 541.86C377.879 541.91 377.768 541.959 377.66 542.009Z" fill="white" fill-opacity="0.2"/>
<g filter="url(#filter4_i_33_91907)">
<path fill-rule="evenodd" clip-rule="evenodd" d="M251.986 497.523C254.329 498.482 258.216 502.567 259.335 505.69C260.092 503.73 261.089 501.71 262.328 499.599C260.45 497.974 259.321 492.706 259.87 490.563C260.494 488.125 264.018 486.879 266.366 487.447C268.714 488.015 271.185 490.712 270.561 493.149C270.042 495.173 266.886 498.983 264.486 499.891C263.415 501.653 262.527 503.329 261.814 504.94C263.417 504.335 265.191 504.011 266.122 504.425C267.946 505.239 268.858 508.629 268.206 510.041C267.554 511.453 265.045 513.802 263.221 512.988C262.325 512.589 261.032 511.492 260.024 510.312C259.649 512.057 259.502 513.742 259.569 515.401C259.719 519.101 260.939 522.755 263.217 526.708C263.517 524.258 264.418 521.539 265.641 520.798C267.692 519.556 271.885 521.265 272.961 523.037C274.037 524.81 274.899 529.223 272.848 530.465C271.59 531.227 268.772 531.778 266.533 531.681C267.592 532.93 269.108 534.025 270.965 534.987C273.069 536.076 275.552 536.962 278.166 537.7L278.204 537.71C278.302 537.729 278.397 537.75 278.49 537.773C278.819 535.449 279.915 532.676 280.943 531.54C282.632 529.674 286.109 530.039 287.75 531.499C289.391 532.959 290.103 536.322 288.415 538.188C288.007 538.639 287.343 539.13 286.548 539.594C287.973 539.86 289.343 540.097 290.614 540.316L290.614 540.316L290.616 540.317L290.616 540.317C291.462 540.463 292.264 540.602 293.009 540.736C293.553 540.834 293.915 541.354 293.817 541.897C293.719 542.439 293.198 542.799 292.654 542.701C291.934 542.571 291.15 542.436 290.316 542.292L290.316 542.292L290.314 542.291C288.243 541.934 285.868 541.523 283.407 541.013C282.39 541.352 281.39 541.568 280.569 541.573C280.448 544.49 279.328 548.426 277.751 549.359C275.515 550.681 270.993 548.783 269.848 546.851C268.703 544.918 267.819 540.126 270.055 538.804C270.649 538.453 271.557 538.148 272.594 537.926C271.708 537.566 270.853 537.178 270.044 536.759C267.782 535.588 265.812 534.144 264.5 532.327C263.134 530.437 261.956 528.604 260.977 526.802C260.096 529.169 256.221 533.241 254.094 533.218C251.697 533.193 249.079 529.531 249.125 527.458C249.17 525.385 250.815 521.179 253.212 521.205C254.763 521.221 257.651 522.352 259.486 523.709C258.335 520.964 257.68 518.254 257.568 515.479C257.488 513.497 257.685 511.502 258.163 509.458C255.3 511.148 249.003 511.433 246.511 510.413C243.467 509.167 242.545 504.518 243.748 501.687C244.95 498.856 248.942 496.277 251.986 497.523Z" fill="#15803D"/>
</g>
<g filter="url(#filter5_i_33_91907)">
<path fill-rule="evenodd" clip-rule="evenodd" d="M293.431 486.046C291.018 485.936 288.147 479.867 288.227 477.352C288.307 474.837 291.431 472.939 293.844 473.049C296.258 473.159 299.295 475.34 299.215 477.855C299.156 479.717 297.335 483.375 295.414 485.102C296.137 486.795 296.729 488.42 297.191 489.991C298.64 487.945 301.039 485.974 302.536 485.566C304.963 484.905 307.85 487.581 308.576 490.116C309.302 492.65 308.268 496.444 305.841 497.106C304.212 497.55 300.678 496.931 298.311 495.71C298.485 497.664 298.419 499.547 298.113 501.391C297.631 504.288 296.56 507.042 294.941 509.776C296.638 508.33 300.129 507.216 301.779 507.403C303.963 507.651 304.957 512.013 304.751 514.077C304.545 516.14 301.727 519.477 299.543 519.229C297.38 518.984 293.84 513.418 293.975 511.308C292.643 513.303 291.022 515.3 289.128 517.347C288.753 517.753 288.12 517.778 287.714 517.403C287.309 517.028 287.284 516.395 287.659 515.99C288.532 515.047 289.338 514.122 290.079 513.209C288.025 513.489 285.435 513.342 284.125 512.871C281.868 512.06 281.582 508.218 282.16 506.589C282.737 504.961 286.287 503.019 288.543 503.83C290.118 504.397 291.951 507.311 292.718 509.573C294.523 506.733 295.659 503.952 296.139 501.063C296.408 499.45 296.475 497.787 296.332 496.041C295.228 497.012 293.923 497.85 293.042 498.12C291.131 498.705 288.929 496.067 288.456 494.586C287.982 493.105 289.301 489.851 291.211 489.266C292.128 488.985 293.708 489.445 295.155 490.164C294.75 488.846 294.247 487.475 293.64 486.042C293.57 486.048 293.5 486.049 293.431 486.046Z" fill="#15803D"/>
</g>
<path d="M231.047 250.799C231.047 260.317 231.547 281.308 220.547 285.31C209.547 289.311 195.019 280.308 185.547 280.308C165.388 280.308 156.547 268.754 156.547 250.799C156.547 232.844 172.888 218.289 193.047 218.289C213.205 218.289 231.047 232.844 231.047 250.799Z" fill="black" fill-opacity="0.12"/>
<g filter="url(#filter6_dii_33_91907)">
<path d="M160.151 247.479C160.151 228.162 173.205 214.998 192.751 214.998C228.047 216.288 231.047 242.797 226.047 268.59H214.106H203.225C203.102 268.59 202.977 268.616 202.864 268.663C195.314 271.809 192.696 272.949 185.602 272.949C170.586 272.949 160.151 262.501 160.151 247.479Z" fill="#E4CEB8"/>
</g>
<g filter="url(#filter7_dd_33_91907)">
<path d="M195.309 239.417C196.092 244.561 193.43 253.187 181.221 246.539C178.09 244.165 175.35 235.855 183.569 228.731C186.699 226.357 197.364 226.357 203.527 234.667C207.049 239.417 203.934 246.603 200.271 257.597C198.944 262.086 199.141 264.449 200.271 268.59" stroke="black" stroke-opacity="0.2" stroke-width="2" stroke-linecap="round" shape-rendering="crispEdges"/>
</g>
<g filter="url(#filter8_dii_33_91907)">
<path d="M199.547 268.304C199.547 276.039 205.367 280.308 212.547 280.308C219.727 280.308 225.547 276.039 225.547 268.304C225.547 260.57 219.727 256.301 212.547 256.301C205.367 256.301 199.547 260.57 199.547 268.304Z" fill="#C8A078"/>
</g>
<g filter="url(#filter9_i_33_91907)">
<path d="M201.547 268.305C201.547 274.382 206.248 278.308 212.047 278.308C217.846 278.308 222.547 274.382 222.547 268.305C222.547 262.228 217.846 259.302 212.047 259.302C206.248 259.302 201.547 262.228 201.547 268.305Z" fill="#D7B99A"/>
</g>
<g filter="url(#filter10_di_33_91907)">
<path d="M329.146 499.671L332.042 517.955C332.247 519.245 332.763 520.468 333.547 521.516C334.331 522.565 335.358 523.409 336.541 523.976L353.304 531.99C354.06 532.352 354.7 532.918 355.151 533.624C355.602 534.329 355.846 535.145 355.856 535.98C355.866 536.815 355.641 537.636 355.207 538.35C354.773 539.063 354.147 539.641 353.4 540.018L336.844 548.369C335.675 548.958 334.668 549.821 333.91 550.885C333.152 551.949 332.667 553.182 332.495 554.476L330.047 572.81C329.936 573.637 329.595 574.417 329.062 575.06C328.529 575.703 327.826 576.185 327.032 576.451C326.238 576.716 325.384 576.756 324.568 576.564C323.752 576.372 323.005 575.957 322.412 575.366L309.283 562.246C308.358 561.318 307.221 560.627 305.969 560.233C304.718 559.84 303.39 559.754 302.099 559.985L283.822 563.302C282.997 563.451 282.146 563.366 281.365 563.058C280.584 562.749 279.905 562.23 279.405 561.558C278.904 560.886 278.602 560.089 278.532 559.256C278.463 558.423 278.629 557.587 279.012 556.845L287.457 540.386C288.053 539.224 288.355 537.934 288.339 536.628C288.323 535.323 287.988 534.039 287.364 532.889L278.518 516.601C278.12 515.865 277.935 515.034 277.986 514.2C278.036 513.367 278.32 512.565 278.804 511.885C279.289 511.204 279.955 510.673 280.727 510.35C281.5 510.028 282.348 509.927 283.177 510.06L301.523 513.009C302.819 513.216 304.145 513.107 305.387 512.691C306.629 512.275 307.751 511.564 308.655 510.62L321.458 497.248C322.037 496.646 322.774 496.218 323.586 496.012C324.398 495.806 325.252 495.83 326.052 496.082C326.852 496.334 327.565 496.804 328.112 497.438C328.659 498.072 329.017 498.846 329.146 499.671Z" fill="#F97316"/>
</g>
<g filter="url(#filter11_f_33_91907)">
<path d="M322.806 537.378C321.68 538.747 325.907 559.593 324.437 560.389C323.059 561.135 314.534 543.458 313.007 543.684C311.342 542.507 311.748 542.981 309.864 542.422C308.207 541.931 290.038 551.591 288.618 550.428C287.383 549.415 298.5 535.395 300.402 532.711C301.636 530.969 301.892 531.15 300.409 529.599C300.158 527.916 286.501 515.984 286.904 514.312C287.36 512.42 297.715 516.963 301.771 518.294C304.736 519.267 306.142 520.291 307.96 519.981C309.233 519.313 309.352 520.078 310.439 518.544C312.206 517.135 321.248 500.065 323.15 500.603C324.866 501.088 319.698 521.198 321.164 522.4C321.909 525.42 322.294 521.607 323.087 523.758C323.7 525.42 345.49 530.105 345.415 531.865C345.296 534.645 324.71 535.062 322.806 537.378Z" fill="white" fill-opacity="0.25"/>
</g>
<g filter="url(#filter12_f_33_91907)">
<ellipse cx="3.18092" cy="3.18149" rx="3.18092" ry="3.18149" transform="matrix(0.81686 0.576902 -0.578189 0.815856 312.904 529.548)" fill="white"/>
</g>
<path opacity="0.5" d="M305.792 555.573C303.16 554.291 300.911 551.756 302.127 549.259C303.343 546.762 305.729 547.285 308.361 548.567C310.993 549.85 312.875 551.407 311.659 553.904C310.443 556.401 308.424 556.856 305.792 555.573Z" fill="black" fill-opacity="0.12"/>
<path opacity="0.5" d="M299.755 524.795C298.322 524.493 296.944 523.446 297.274 521.894C297.604 520.341 298.833 520.265 300.266 520.567C301.698 520.869 302.791 521.436 302.461 522.988C302.131 524.541 301.187 525.097 299.755 524.795Z" fill="black" fill-opacity="0.2"/>
<path opacity="0.5" d="M331.556 532.487C333.153 533.771 334.284 535.865 333.044 537.414C331.804 538.962 330.252 538.241 328.654 536.957C327.057 535.673 326.019 534.311 327.259 532.763C328.499 531.215 329.958 531.203 331.556 532.487Z" fill="black" fill-opacity="0.2"/>
<path opacity="0.2" d="M307.131 523.757C305.412 523.394 303.766 522.103 304.178 520.162C304.59 518.221 306.069 518.114 307.788 518.476C309.507 518.839 310.815 519.535 310.403 521.475C309.99 523.416 308.85 524.12 307.131 523.757Z" fill="#FAFAF9"/>
<path opacity="0.2" d="M326.851 537.099C328.555 537.427 329.076 537.999 328.913 538.84C328.749 539.681 328.564 540.67 326.86 540.341C325.157 540.012 324.585 538.878 324.748 538.036C324.912 537.195 325.148 536.77 326.851 537.099Z" fill="#FAFAF9"/>
<path opacity="0.5" d="M297.698 549.126C298.677 549.315 298.969 549.647 298.86 550.208C298.75 550.769 298.422 551.426 297.593 551.266C296.764 551.106 296.615 550.651 296.724 550.09C296.833 549.529 296.869 548.966 297.698 549.126Z" fill="black" fill-opacity="0.12"/>
<path opacity="0.5" d="M323.333 554.436C325.292 554.814 325.849 555.611 325.576 557.014C325.303 558.416 324.578 560.077 322.92 559.757C321.263 559.437 321.004 558.321 321.277 556.919C321.55 555.516 321.676 554.116 323.333 554.436Z" fill="black" fill-opacity="0.12"/>
<path opacity="0.1" d="M333.331 555.872C334.31 556.061 334.602 556.393 334.492 556.954C334.383 557.515 334.055 558.172 333.226 558.012C332.397 557.852 332.248 557.397 332.357 556.836C332.466 556.275 332.502 555.712 333.331 555.872Z" fill="black" fill-opacity="0.12"/>
<defs>
<filter id="filter0_i_33_91907" x="3" y="447.137" width="433.5" height="206.563" filterUnits="userSpaceOnUse" color-interpolation-filters="sRGB">
<feFlood flood-opacity="0" result="BackgroundImageFix"/>
<feBlend mode="normal" in="SourceGraphic" in2="BackgroundImageFix" result="shape"/>
<feColorMatrix in="SourceAlpha" type="matrix" values="0 0 0 0 0 0 0 0 0 0 0 0 0 0 0 0 0 0 127 0" result="hardAlpha"/>
<feOffset dy="200"/>
<feComposite in2="hardAlpha" operator="arithmetic" k2="-1" k3="1"/>
<feColorMatrix type="matrix" values="0 0 0 0 1 0 0 0 0 1 0 0 0 0 1 0 0 0 0.25 0"/>
<feBlend mode="normal" in2="shape" result="effect1_innerShadow_33_91907"/>
</filter>
<filter id="filter1_i_33_91907" x="248.5" y="208.063" width="159" height="390.119" filterUnits="userSpaceOnUse" color-interpolation-filters="sRGB">
<feFlood flood-opacity="0" result="BackgroundImageFix"/>
<feBlend mode="normal" in="SourceGraphic" in2="BackgroundImageFix" result="shape"/>
<feColorMatrix in="SourceAlpha" type="matrix" values="0 0 0 0 0 0 0 0 0 0 0 0 0 0 0 0 0 0 127 0" result="hardAlpha"/>
<feOffset dy="500"/>
<feComposite in2="hardAlpha" operator="arithmetic" k2="-1" k3="1"/>
<feColorMatrix type="matrix" values="0 0 0 0 1 0 0 0 0 1 0 0 0 0 1 0 0 0 0.25 0"/>
<feBlend mode="normal" in2="shape" result="effect1_innerShadow_33_91907"/>
</filter>
<filter id="filter2_i_33_91907" x="223.322" y="493.061" width="191" height="113.034" filterUnits="userSpaceOnUse" color-interpolation-filters="sRGB">
<feFlood flood-opacity="0" result="BackgroundImageFix"/>
<feBlend mode="normal" in="SourceGraphic" in2="BackgroundImageFix" result="shape"/>
<feColorMatrix in="SourceAlpha" type="matrix" values="0 0 0 0 0 0 0 0 0 0 0 0 0 0 0 0 0 0 127 0" result="hardAlpha"/>
<feOffset dy="200"/>
<feComposite in2="hardAlpha" operator="arithmetic" k2="-1" k3="1"/>
<feColorMatrix type="matrix" values="0 0 0 0 1 0 0 0 0 1 0 0 0 0 1 0 0 0 0.25 0"/>
<feBlend mode="normal" in2="shape" result="effect1_innerShadow_33_91907"/>
</filter>
<filter id="filter3_iii_33_91907" x="228" y="490.156" width="188" height="157.035" filterUnits="userSpaceOnUse" color-interpolation-filters="sRGB">
<feFlood flood-opacity="0" result="BackgroundImageFix"/>
<feBlend mode="normal" in="SourceGraphic" in2="BackgroundImageFix" result="shape"/>
<feColorMatrix in="SourceAlpha" type="matrix" values="0 0 0 0 0 0 0 0 0 0 0 0 0 0 0 0 0 0 127 0" result="hardAlpha"/>
<feOffset dx="8" dy="-35"/>
<feGaussianBlur stdDeviation="11.5"/>
<feComposite in2="hardAlpha" operator="arithmetic" k2="-1" k3="1"/>
<feColorMatrix type="matrix" values="0 0 0 0 0 0 0 0 0 0 0 0 0 0 0 0 0 0 0.25 0"/>
<feBlend mode="normal" in2="shape" result="effect1_innerShadow_33_91907"/>
<feColorMatrix in="SourceAlpha" type="matrix" values="0 0 0 0 0 0 0 0 0 0 0 0 0 0 0 0 0 0 127 0" result="hardAlpha"/>
<feOffset dx="-80" dy="52"/>
<feGaussianBlur stdDeviation="10"/>
<feComposite in2="hardAlpha" operator="arithmetic" k2="-1" k3="1"/>
<feColorMatrix type="matrix" values="0 0 0 0 1 0 0 0 0 1 0 0 0 0 1 0 0 0 0.25 0"/>
<feBlend mode="normal" in2="effect1_innerShadow_33_91907" result="effect2_innerShadow_33_91907"/>
<feColorMatrix in="SourceAlpha" type="matrix" values="0 0 0 0 0 0 0 0 0 0 0 0 0 0 0 0 0 0 127 0" result="hardAlpha"/>
<feOffset dx="4" dy="-6"/>
<feGaussianBlur stdDeviation="6"/>
<feComposite in2="hardAlpha" operator="arithmetic" k2="-1" k3="1"/>
<feColorMatrix type="matrix" values="0 0 0 0 0 0 0 0 0 0 0 0 0 0 0 0 0 0 0.25 0"/>
<feBlend mode="normal" in2="effect2_innerShadow_33_91907" result="effect3_innerShadow_33_91907"/>
</filter>
<filter id="filter4_i_33_91907" x="233" y="481.148" width="70" height="78.0225" filterUnits="userSpaceOnUse" color-interpolation-filters="sRGB">
<feFlood flood-opacity="0" result="BackgroundImageFix"/>
<feBlend mode="normal" in="SourceGraphic" in2="BackgroundImageFix" result="shape"/>
<feColorMatrix in="SourceAlpha" type="matrix" values="0 0 0 0 0 0 0 0 0 0 0 0 0 0 0 0 0 0 127 0" result="hardAlpha"/>
<feOffset dx="-1" dy="-5"/>
<feGaussianBlur stdDeviation="2"/>
<feComposite in2="hardAlpha" operator="arithmetic" k2="-1" k3="1"/>
<feColorMatrix type="matrix" values="0 0 0 0 0 0 0 0 0 0 0 0 0 0 0 0 0 0 0.25 0"/>
<feBlend mode="normal" in2="shape" result="effect1_innerShadow_33_91907"/>
</filter>
<filter id="filter5_i_33_91907" x="266.268" y="466.239" width="56.7637" height="59.6768" filterUnits="userSpaceOnUse" color-interpolation-filters="sRGB">
<feFlood flood-opacity="0" result="BackgroundImageFix"/>
<feBlend mode="normal" in="SourceGraphic" in2="BackgroundImageFix" result="shape"/>
<feColorMatrix in="SourceAlpha" type="matrix" values="0 0 0 0 0 0 0 0 0 0 0 0 0 0 0 0 0 0 127 0" result="hardAlpha"/>
<feOffset dx="-1" dy="-5"/>
<feGaussianBlur stdDeviation="2"/>
<feComposite in2="hardAlpha" operator="arithmetic" k2="-1" k3="1"/>
<feColorMatrix type="matrix" values="0 0 0 0 0 0 0 0 0 0 0 0 0 0 0 0 0 0 0.25 0"/>
<feBlend mode="normal" in2="shape" result="effect1_innerShadow_33_91907"/>
</filter>
<filter id="filter6_dii_33_91907" x="152.15" y="204.998" width="79.7812" height="71.9512" filterUnits="userSpaceOnUse" color-interpolation-filters="sRGB">
<feFlood flood-opacity="0" result="BackgroundImageFix"/>
<feColorMatrix in="SourceAlpha" type="matrix" values="0 0 0 0 0 0 0 0 0 0 0 0 0 0 0 0 0 0 127 0" result="hardAlpha"/>
<feOffset dx="-1" dy="3"/>
<feComposite in2="hardAlpha" operator="out"/>
<feColorMatrix type="matrix" values="0 0 0 0 0 0 0 0 0 0 0 0 0 0 0 0 0 0 0.25 0"/>
<feBlend mode="normal" in2="BackgroundImageFix" result="effect1_dropShadow_33_91907"/>
<feBlend mode="normal" in="SourceGraphic" in2="effect1_dropShadow_33_91907" result="shape"/>
<feColorMatrix in="SourceAlpha" type="matrix" values="0 0 0 0 0 0 0 0 0 0 0 0 0 0 0 0 0 0 127 0" result="hardAlpha"/>
<feOffset dx="4" dy="-10"/>
<feGaussianBlur stdDeviation="6.2"/>
<feComposite in2="hardAlpha" operator="arithmetic" k2="-1" k3="1"/>
<feColorMatrix type="matrix" values="0 0 0 0 0 0 0 0 0 0 0 0 0 0 0 0 0 0 0.25 0"/>
<feBlend mode="normal" in2="shape" result="effect2_innerShadow_33_91907"/>
<feColorMatrix in="SourceAlpha" type="matrix" values="0 0 0 0 0 0 0 0 0 0 0 0 0 0 0 0 0 0 127 0" result="hardAlpha"/>
<feOffset dx="-8" dy="4"/>
<feGaussianBlur stdDeviation="4"/>
<feComposite in2="hardAlpha" operator="arithmetic" k2="-1" k3="1"/>
<feColorMatrix type="matrix" values="0 0 0 0 1 0 0 0 0 1 0 0 0 0 1 0 0 0 0.4 0"/>
<feBlend mode="normal" in2="effect2_innerShadow_33_91907" result="effect3_innerShadow_33_91907"/>
</filter>
<filter id="filter7_dd_33_91907" x="166.137" y="218.365" width="47.9336" height="62.2246" filterUnits="userSpaceOnUse" color-interpolation-filters="sRGB">
<feFlood flood-opacity="0" result="BackgroundImageFix"/>
<feColorMatrix in="SourceAlpha" type="matrix" values="0 0 0 0 0 0 0 0 0 0 0 0 0 0 0 0 0 0 127 0" result="hardAlpha"/>
<feOffset dx="-2" dy="2"/>
<feGaussianBlur stdDeviation="4.5"/>
<feComposite in2="hardAlpha" operator="out"/>
<feColorMatrix type="matrix" values="0 0 0 0 1 0 0 0 0 1 0 0 0 0 1 0 0 0 1 0"/>
<feBlend mode="normal" in2="BackgroundImageFix" result="effect1_dropShadow_33_91907"/>
<feColorMatrix in="SourceAlpha" type="matrix" values="0 0 0 0 0 0 0 0 0 0 0 0 0 0 0 0 0 0 127 0" result="hardAlpha"/>
<feOffset dx="2" dy="-2"/>
<feGaussianBlur stdDeviation="3"/>
<feComposite in2="hardAlpha" operator="out"/>
<feColorMatrix type="matrix" values="0 0 0 0 0 0 0 0 0 0 0 0 0 0 0 0 0 0 0.5 0"/>
<feBlend mode="normal" in2="effect1_dropShadow_33_91907" result="effect2_dropShadow_33_91907"/>
<feBlend mode="normal" in="SourceGraphic" in2="effect2_dropShadow_33_91907" result="shape"/>
</filter>
<filter id="filter8_dii_33_91907" x="198.547" y="255.301" width="28" height="28.0078" filterUnits="userSpaceOnUse" color-interpolation-filters="sRGB">
<feFlood flood-opacity="0" result="BackgroundImageFix"/>
<feColorMatrix in="SourceAlpha" type="matrix" values="0 0 0 0 0 0 0 0 0 0 0 0 0 0 0 0 0 0 127 0" result="hardAlpha"/>
<feOffset dy="3"/>
<feComposite in2="hardAlpha" operator="out"/>
<feColorMatrix type="matrix" values="0 0 0 0 0 0 0 0 0 0 0 0 0 0 0 0 0 0 0.25 0"/>
<feBlend mode="normal" in2="BackgroundImageFix" result="effect1_dropShadow_33_91907"/>
<feBlend mode="normal" in="SourceGraphic" in2="effect1_dropShadow_33_91907" result="shape"/>
<feColorMatrix in="SourceAlpha" type="matrix" values="0 0 0 0 0 0 0 0 0 0 0 0 0 0 0 0 0 0 127 0" result="hardAlpha"/>
<feOffset dx="-1" dy="1"/>
<feGaussianBlur stdDeviation="1"/>
<feComposite in2="hardAlpha" operator="arithmetic" k2="-1" k3="1"/>
<feColorMatrix type="matrix" values="0 0 0 0 1 0 0 0 0 1 0 0 0 0 1 0 0 0 0.69 0"/>
<feBlend mode="normal" in2="shape" result="effect2_innerShadow_33_91907"/>
<feColorMatrix in="SourceAlpha" type="matrix" values="0 0 0 0 0 0 0 0 0 0 0 0 0 0 0 0 0 0 127 0" result="hardAlpha"/>
<feOffset dx="1" dy="-1"/>
<feGaussianBlur stdDeviation="1"/>
<feComposite in2="hardAlpha" operator="arithmetic" k2="-1" k3="1"/>
<feColorMatrix type="matrix" values="0 0 0 0 0 0 0 0 0 0 0 0 0 0 0 0 0 0 0.25 0"/>
<feBlend mode="normal" in2="effect2_innerShadow_33_91907" result="effect3_innerShadow_33_91907"/>
</filter>
<filter id="filter9_i_33_91907" x="201.547" y="259.302" width="21" height="31.0059" filterUnits="userSpaceOnUse" color-interpolation-filters="sRGB">
<feFlood flood-opacity="0" result="BackgroundImageFix"/>
<feBlend mode="normal" in="SourceGraphic" in2="BackgroundImageFix" result="shape"/>
<feColorMatrix in="SourceAlpha" type="matrix" values="0 0 0 0 0 0 0 0 0 0 0 0 0 0 0 0 0 0 127 0" result="hardAlpha"/>
<feOffset dy="12"/>
<feGaussianBlur stdDeviation="9"/>
<feComposite in2="hardAlpha" operator="arithmetic" k2="-1" k3="1"/>
<feColorMatrix type="matrix" values="0 0 0 0 0 0 0 0 0 0 0 0 0 0 0 0 0 0 0.45 0"/>
<feBlend mode="normal" in2="shape" result="effect1_innerShadow_33_91907"/>
</filter>
<filter id="filter10_di_33_91907" x="276.208" y="492.337" width="81.4153" height="86.1151" filterUnits="userSpaceOnUse" color-interpolation-filters="sRGB">
<feFlood flood-opacity="0" result="BackgroundImageFix"/>
<feColorMatrix in="SourceAlpha" type="matrix" values="0 0 0 0 0 0 0 0 0 0 0 0 0 0 0 0 0 0 127 0" result="hardAlpha"/>
<feOffset dx="-1.7682" dy="1.7682"/>
<feComposite in2="hardAlpha" operator="out"/>
<feColorMatrix type="matrix" values="0 0 0 0 0 0 0 0 0 0 0 0 0 0 0 0 0 0 0.2 0"/>
<feBlend mode="normal" in2="BackgroundImageFix" result="effect1_dropShadow_33_91907"/>
<feBlend mode="normal" in="SourceGraphic" in2="effect1_dropShadow_33_91907" result="shape"/>
<feColorMatrix in="SourceAlpha" type="matrix" values="0 0 0 0 0 0 0 0 0 0 0 0 0 0 0 0 0 0 127 0" result="hardAlpha"/>
<feOffset dx="1.7682" dy="-3.53639"/>
<feGaussianBlur stdDeviation="3.53639"/>
<feComposite in2="hardAlpha" operator="arithmetic" k2="-1" k3="1"/>
<feColorMatrix type="matrix" values="0 0 0 0 0 0 0 0 0 0 0 0 0 0 0 0 0 0 0.25 0"/>
<feBlend mode="normal" in2="shape" result="effect2_innerShadow_33_91907"/>
</filter>
<filter id="filter11_f_33_91907" x="281.59" y="495.285" width="69.1287" height="70.4305" filterUnits="userSpaceOnUse" color-interpolation-filters="sRGB">
<feFlood flood-opacity="0" result="BackgroundImageFix"/>
<feBlend mode="normal" in="SourceGraphic" in2="BackgroundImageFix" result="shape"/>
<feGaussianBlur stdDeviation="2.65229" result="effect1_foregroundBlur_33_91907"/>
</filter>
<filter id="filter12_f_33_91907" x="303.406" y="523.727" width="20.5147" height="20.503" filterUnits="userSpaceOnUse" color-interpolation-filters="sRGB">
<feFlood flood-opacity="0" result="BackgroundImageFix"/>
<feBlend mode="normal" in="SourceGraphic" in2="BackgroundImageFix" result="shape"/>
<feGaussianBlur stdDeviation="3.53639" result="effect1_foregroundBlur_33_91907"/>
</filter>
</defs>
</svg>
