<svg width="40" height="39" viewBox="0 0 40 39" fill="none" xmlns="http://www.w3.org/2000/svg">
<g filter="url(#filter0_i_33_91953)">
<path fill-rule="evenodd" clip-rule="evenodd" d="M29.1612 11.5191C31.0602 13.0127 37.1981 10.2965 38.7805 8.34121C40.3629 6.38595 39.2383 2.90738 37.3394 1.41373C35.4404 -0.0799131 31.717 -0.414647 30.1346 1.54061C28.9626 2.9888 27.951 6.9464 28.2767 9.50858C26.6243 10.3169 25.1139 11.1597 23.7383 12.0469C23.9774 9.55176 23.4491 6.49265 22.5831 5.20612C21.1784 3.11954 17.2441 3.25794 15.0389 4.7014C12.8337 6.14486 11.1381 9.69164 12.5428 11.7782C13.4856 13.1788 16.5646 15.0198 19.1542 15.6424C17.7464 17.0075 16.5653 18.4757 15.5932 20.0709C14.0652 22.5782 13.0766 25.3614 12.5163 28.4881C12.1757 26.285 10.261 23.1612 8.89004 22.2248C7.07524 20.9853 3.47266 23.6363 2.28063 25.3324C1.0886 27.0284 1.04198 31.3951 2.85679 32.6346C4.65486 33.8628 10.9704 31.9644 12.246 30.2798C11.9509 32.66 11.8733 35.2303 11.9699 38.0172C11.9891 38.5691 12.452 39.0014 13.004 38.9827C13.556 38.964 13.9879 38.5014 13.9688 37.9495C13.9243 36.6655 13.9182 35.4385 13.9536 34.2643C15.3263 35.8181 17.3819 37.3999 18.6813 37.8996C20.919 38.7602 23.6454 36.0398 24.2726 34.4301C24.8999 32.8205 23.481 29.0316 21.2433 28.171C19.6814 27.5703 16.39 28.5774 14.331 29.7879C14.8205 26.4589 15.7774 23.6131 17.3013 21.1126C18.1517 19.7172 19.1876 18.4146 20.4362 17.1872C20.638 18.6427 21.0781 20.1297 21.5687 20.9096C22.6324 22.6008 26.0222 22.044 27.3485 21.2327C28.6749 20.4215 29.802 17.0969 28.7383 15.4057C28.2277 14.5941 26.7315 13.9107 25.1666 13.5091C26.3339 12.7754 27.6111 12.0672 29.0063 11.3791C29.0554 11.4297 29.107 11.4764 29.1612 11.5191Z" fill="#579858"/>
</g>
<defs>
<filter id="filter0_i_33_91953" x="-1" y="-4" width="41" height="43" filterUnits="userSpaceOnUse" color-interpolation-filters="sRGB">
<feFlood flood-opacity="0" result="BackgroundImageFix"/>
<feBlend mode="normal" in="SourceGraphic" in2="BackgroundImageFix" result="shape"/>
<feColorMatrix in="SourceAlpha" type="matrix" values="0 0 0 0 0 0 0 0 0 0 0 0 0 0 0 0 0 0 127 0" result="hardAlpha"/>
<feOffset dx="-1" dy="-5"/>
<feGaussianBlur stdDeviation="2"/>
<feComposite in2="hardAlpha" operator="arithmetic" k2="-1" k3="1"/>
<feColorMatrix type="matrix" values="0 0 0 0 0 0 0 0 0 0 0 0 0 0 0 0 0 0 0.25 0"/>
<feBlend mode="normal" in2="shape" result="effect1_innerShadow_33_91953"/>
</filter>
</defs>
</svg>
