<svg width="443" height="255" viewBox="0 0 443 255" fill="none" xmlns="http://www.w3.org/2000/svg">
<path fill-rule="evenodd" clip-rule="evenodd" d="M412.506 254.58C289.744 240.819 185.796 216.913 32.9409 172.55C22.7841 169.602 22.2816 155.449 32.2293 151.858C177.312 99.4855 281.566 73.4585 430.874 55.7676C268.516 72.5352 160.13 95.1583 9.89092 147.937C-3.7451 152.727 -3.12445 171.986 10.7798 175.931C171.027 221.393 278.683 242.421 412.506 254.58Z" fill="#DBEAFE"/>
<g filter="url(#filter0_ii_33_91993)">
<path d="M192.973 0.747975C94.5785 17.5331 39.5239 83.545 25.2941 157.017C23.8373 164.539 29.003 171.589 36.526 173.038L62.7198 178.082C117.45 188.62 173.554 189.971 228.728 182.079C229.42 181.98 229.803 181.225 229.476 180.608C219.787 162.288 210.917 136.811 202.513 100.566L185.427 89.4789C183.969 88.5333 184.328 86.3071 186.008 85.8665L200.671 82.0221C198.544 63.4376 197.712 27.3576 197.61 4.65253C197.599 2.20264 195.388 0.335992 192.973 0.747975Z" fill="#475569"/>
</g>
<defs>
<filter id="filter0_ii_33_91993" x="19.0469" y="0.690918" width="226.547" height="191.446" filterUnits="userSpaceOnUse" color-interpolation-filters="sRGB">
<feFlood flood-opacity="0" result="BackgroundImageFix"/>
<feBlend mode="normal" in="SourceGraphic" in2="BackgroundImageFix" result="shape"/>
<feColorMatrix in="SourceAlpha" type="matrix" values="0 0 0 0 0 0 0 0 0 0 0 0 0 0 0 0 0 0 127 0" result="hardAlpha"/>
<feOffset dx="16" dy="1"/>
<feGaussianBlur stdDeviation="10"/>
<feComposite in2="hardAlpha" operator="arithmetic" k2="-1" k3="1"/>
<feColorMatrix type="matrix" values="0 0 0 0 0 0 0 0 0 0 0 0 0 0 0 0 0 0 0.35 0"/>
<feBlend mode="normal" in2="shape" result="effect1_innerShadow_33_91993"/>
<feColorMatrix in="SourceAlpha" type="matrix" values="0 0 0 0 0 0 0 0 0 0 0 0 0 0 0 0 0 0 127 0" result="hardAlpha"/>
<feOffset dx="-6" dy="5"/>
<feGaussianBlur stdDeviation="10"/>
<feComposite in2="hardAlpha" operator="arithmetic" k2="-1" k3="1"/>
<feColorMatrix type="matrix" values="0 0 0 0 1 0 0 0 0 1 0 0 0 0 1 0 0 0 0.35 0"/>
<feBlend mode="normal" in2="effect1_innerShadow_33_91993" result="effect2_innerShadow_33_91993"/>
</filter>
</defs>
</svg>
