<svg width="239" height="315" viewBox="0 0 239 315" fill="none" xmlns="http://www.w3.org/2000/svg">
<ellipse cx="138.001" cy="199.481" rx="100.997" ry="106.882" fill="black" fill-opacity="0.12"/>
<ellipse cx="138.002" cy="198.709" rx="93.2873" ry="99.1649" fill="black" fill-opacity="0.4"/>
<g filter="url(#filter0_ii_33_92058)">
<path fill-rule="evenodd" clip-rule="evenodd" d="M207.069 260.357C204.306 263.746 201.39 266.802 198.341 269.549C182.79 284.668 161.323 294.016 137.615 294.016C115.799 294.016 95.8806 286.101 80.7229 273.057C75.3197 268.747 70.2894 263.555 65.7294 257.375C60.8314 251.083 56.844 244.125 53.9497 236.671C44.7533 215.551 39.3164 187.162 39.3164 149.667C39.3164 40.3005 86.731 2.30933 136.169 2.30933C185.608 2.30933 235.914 40.3005 235.914 149.667C235.914 187.336 230.47 215.616 221.319 236.571C217.958 245.261 213.112 253.28 207.069 260.357Z" fill="#713F12"/>
</g>
<ellipse cx="137.616" cy="182.503" rx="99.0695" ry="93.763" fill="black" fill-opacity="0.2"/>
<path opacity="0.2" d="M94.0584 273.4C94.0584 269.564 95.5362 265.462 98.7091 265.462C101.882 265.462 102.539 268.572 102.539 272.408C102.539 276.243 101.882 279.353 98.7091 279.353C95.5362 279.353 94.0584 277.236 94.0584 273.4Z" fill="#713F12"/>
<g filter="url(#filter1_i_33_92058)">
<path fill-rule="evenodd" clip-rule="evenodd" d="M170.383 153.741L176.709 156.428C179.547 162.259 181.826 172.023 183.455 183.739C185.107 195.623 186.078 209.41 186.314 222.905C186.55 236.403 186.05 249.584 184.771 260.261C184.131 265.601 183.299 270.294 182.273 274.078C181.24 277.888 179.823 281.592 178.497 283.212L179.079 282.903L181.176 281.821C182.248 279.954 183.165 277.488 183.95 274.59C185.009 270.683 185.856 265.889 186.502 260.495C187.795 249.704 188.295 236.428 188.058 222.871C187.821 209.312 186.846 195.445 185.181 183.468C183.52 171.524 181.159 161.353 178.102 155.259C178.006 155.066 177.848 154.916 177.656 154.835L171.031 152.021L170.383 153.741Z" fill="black" fill-opacity="0.2"/>
</g>
<g filter="url(#filter2_i_33_92058)">
<path fill-rule="evenodd" clip-rule="evenodd" d="M123.972 199.867C124.432 199.867 124.805 200.281 124.805 200.792C124.805 206.02 124.278 211.245 123.756 216.429C123.683 217.158 123.609 217.886 123.538 218.613C122.953 224.535 122.469 230.415 122.833 236.335C123.684 250.144 125.297 277.595 124.804 291.548L124.772 292.472L123.106 292.4L123.139 291.475C123.627 277.645 122.024 250.312 121.171 236.461C120.795 230.362 121.296 224.338 121.881 218.412C121.954 217.679 122.027 216.947 122.101 216.218C122.623 211.024 123.138 205.909 123.138 200.792C123.138 200.281 123.511 199.867 123.972 199.867Z" fill="black" fill-opacity="0.2"/>
</g>
<path fill-rule="evenodd" clip-rule="evenodd" d="M79.4105 138.306L72.9689 140.994C70.0872 146.816 67.894 156.517 66.4263 168.146C64.9376 179.941 64.2079 193.61 64.2264 206.99C64.2448 220.371 65.0114 233.436 66.5075 244.028C67.2557 249.324 68.1837 253.983 69.2845 257.744C70.3924 261.529 71.5695 264.609 72.9252 266.234L71.1484 264.381C69.3716 262.529 68.7136 262.14 67.5851 258.284C66.4495 254.405 65.5055 249.648 64.7497 244.298C63.2377 233.594 62.4681 220.435 62.4496 206.992C62.4311 193.548 63.1638 179.796 64.6647 167.904C66.1613 156.046 68.4342 145.926 71.5502 139.825C71.6488 139.632 71.8097 139.482 72.0044 139.401L78.7505 136.586L79.4105 138.306Z" fill="black" fill-opacity="0.2"/>
<path fill-rule="evenodd" clip-rule="evenodd" d="M79.4105 138.306L72.9689 140.994C70.0872 146.816 67.894 156.517 66.4263 168.146C64.9376 179.941 64.2079 193.61 64.2264 206.99C64.2448 220.371 65.0114 233.436 66.5075 244.028C67.2557 249.324 68.1837 253.983 69.2845 257.744C70.3924 261.529 71.5695 264.609 72.9252 266.234L71.1484 264.381C69.3716 262.529 68.7136 262.14 67.5851 258.284C66.4495 254.405 65.5055 249.648 64.7497 244.298C63.2377 233.594 62.4681 220.435 62.4496 206.992C62.4311 193.548 63.1638 179.796 64.6647 167.904C66.1613 156.046 68.4342 145.926 71.5502 139.825C71.6488 139.632 71.8097 139.482 72.0044 139.401L78.7505 136.586L79.4105 138.306Z" fill="black" fill-opacity="0.2"/>
<g filter="url(#filter3_ii_33_92058)">
<ellipse cx="137.617" cy="178.645" rx="101.382" ry="93.763" fill="#78716C"/>
</g>
<ellipse cx="137.617" cy="167.069" rx="101.382" ry="93.763" fill="#A8A29E"/>
<g filter="url(#filter4_ii_33_92058)">
<path d="M236.683 158.598C236.683 211.651 192.157 254.658 137.23 254.658C82.304 254.658 37.7773 211.651 37.7773 158.598C37.7773 147.406 38.667 130.682 40.4064 118.657C40.9864 108.789 43.5958 91.5221 45.6253 87.5135C64.1213 63.225 102.3 62.5375 137.23 62.5375C172.799 62.5375 211.667 60.4596 229.441 88.1303C232.92 98.3057 235.82 122.357 235.82 137.157C235.82 140.549 236.755 151.306 236.683 158.598Z" fill="#713F12"/>
</g>
<g filter="url(#filter5_i_33_92058)">
<path fill-rule="evenodd" clip-rule="evenodd" d="M123.683 161.281C124.199 161.281 124.618 161.695 124.618 162.206C124.618 166.876 124.381 171.439 124.146 175.964C124.083 177.184 124.02 178.4 123.961 179.616C123.686 185.354 123.516 191.085 123.927 197.039C124.885 210.906 125.169 239.041 124.617 252.962L124.581 253.887L122.713 253.814L122.75 252.889C123.299 239.027 123.015 210.959 122.063 197.166C121.644 191.101 121.818 185.283 122.095 179.528C122.154 178.297 122.217 177.07 122.281 175.844C122.515 171.325 122.749 166.824 122.749 162.206C122.749 161.695 123.167 161.281 123.683 161.281Z" fill="black" fill-opacity="0.2"/>
</g>
<g filter="url(#filter6_i_33_92058)">
<path fill-rule="evenodd" clip-rule="evenodd" d="M183.49 181.624L183.628 182.545C186.314 200.43 187.281 223.099 186.499 242.311L188.658 241.069C189.444 221.753 188.163 200.282 185.458 182.266L185.319 181.346L183.49 181.624Z" fill="black" fill-opacity="0.2"/>
</g>
<path fill-rule="evenodd" clip-rule="evenodd" d="M52.6696 100.316H60.134V102.162H53.3749C49.365 106.346 46.1418 112.946 43.6811 120.999C41.1754 129.199 39.4916 139.032 38.5469 148.934L39.1295 136.317C40.0826 126.327 39.4638 128.79 42.0178 120.431C44.5662 112.091 47.9851 105.049 52.4162 100.572L52.6696 100.316Z" fill="black" fill-opacity="0.2"/>
<path fill-rule="evenodd" clip-rule="evenodd" d="M79.4066 137.537L72.9819 140.229C69.4496 147.399 66.9659 160.404 65.5768 175.586C64.1724 190.934 63.8365 209.029 64.6683 224.561L62.8962 222.705C62.0598 207.084 62.3993 190.855 63.8127 175.409C65.2218 160.009 67.7738 146.519 71.567 139.059C71.6653 138.866 71.8257 138.715 72.0199 138.634L78.7484 135.814L79.4066 137.537Z" fill="black" fill-opacity="0.2"/>
<path fill-rule="evenodd" clip-rule="evenodd" d="M79.4066 137.537L72.9819 140.229C69.4496 147.399 66.9659 160.404 65.5768 175.586C64.1724 190.934 63.8365 209.029 64.6683 224.561L62.8962 222.705C62.0598 207.084 62.3993 190.855 63.8127 175.409C65.2218 160.009 67.7738 146.519 71.567 139.059C71.6653 138.866 71.8257 138.715 72.0199 138.634L78.7484 135.814L79.4066 137.537Z" fill="black" fill-opacity="0.2"/>
<path fill-rule="evenodd" clip-rule="evenodd" d="M217.028 118.065H209.889L208.932 119.917H216.022C220.018 124.172 224.372 132.015 227.668 141.328C231.022 150.802 234.415 163.741 235.342 173.628C235.342 173.628 235.916 169.924 235.916 169.307C235.916 168.689 232.679 150.276 229.278 140.669C225.888 131.091 221.636 122.803 217.278 118.322L217.028 118.065Z" fill="black" fill-opacity="0.2"/>
<g filter="url(#filter7_dii_33_92058)">
<ellipse cx="137.231" cy="107.647" rx="92.5163" ry="85.2741" fill="#78716C"/>
</g>
<ellipse cx="137.231" cy="95.2994" rx="92.5163" ry="85.2741" fill="#A8A29E"/>
<g filter="url(#filter8_ii_33_92058)">
<ellipse cx="136.846" cy="91.4409" rx="88.276" ry="85.2741" fill="#713F12"/>
</g>
<ellipse cx="138.001" cy="84.4956" rx="86.3485" ry="83.7307" fill="#A16207"/>
<ellipse cx="137.616" cy="84.1097" rx="79.7953" ry="77.9429" fill="black" fill-opacity="0.4"/>
<g filter="url(#filter9_i_33_92058)">
<path fill-rule="evenodd" clip-rule="evenodd" d="M125.668 161.606L124.537 167.75V176.715H122.584V167.587L123.745 161.281L125.668 161.606Z" fill="black" fill-opacity="0.2"/>
</g>
<g filter="url(#filter10_i_33_92058)">
<ellipse cx="137.618" cy="89.5118" rx="76.7114" ry="74.0843" fill="#A16207"/>
</g>
<g filter="url(#filter11_i_33_92058)">
<path fill-rule="evenodd" clip-rule="evenodd" d="M172.698 154.501L177.727 158.561C177.727 158.561 179.35 162.747 180.39 166.683L181.949 165.806C180.85 161.645 179.502 157.624 179.502 157.624L174.473 153.564L172.698 154.501Z" fill="black" fill-opacity="0.2"/>
</g>
<path fill-rule="evenodd" clip-rule="evenodd" d="M56.0899 57.0997L62.4504 58.0318L61.8722 77.6052L61.294 81.0228L61.8722 59.8959L55.5117 58.9639L56.0899 57.0997Z" fill="black" fill-opacity="0.2"/>
<path fill-rule="evenodd" clip-rule="evenodd" d="M80.1491 22.3728L85.5793 25.8045V35.4755L84.071 37.0353V27.0523L78.6406 23.6207L80.1491 22.3728Z" fill="#713F12"/>
<path fill-rule="evenodd" clip-rule="evenodd" d="M80.1491 22.3728L85.5793 25.8045V35.4755L84.071 37.0353V27.0523L78.6406 23.6207L80.1491 22.3728Z" fill="url(#paint0_linear_33_92058)"/>
<path fill-rule="evenodd" clip-rule="evenodd" d="M115.491 3.07996L121.042 7.40154V16.6621L119.377 16.9708V7.85263L114.104 3.38864L115.491 3.07996Z" fill="black" fill-opacity="0.2"/>
<path fill-rule="evenodd" clip-rule="evenodd" d="M220.435 58.6432L214.329 59.2631V78.4797L214.605 81.0228L215.162 61.4327L221.268 60.8128L220.435 58.6432Z" fill="black" fill-opacity="0.2"/>
<path fill-rule="evenodd" clip-rule="evenodd" d="M195.861 23.1444L190.43 26.4734L191.034 37.0655L192.844 38.5786L192.241 27.9865L197.369 24.3549L195.861 23.1444Z" fill="black" fill-opacity="0.2"/>
<path fill-rule="evenodd" clip-rule="evenodd" d="M160.308 3.85168L154.966 8.29624V17.4378L156.7 17.7425V8.60096L161.904 4.33491L160.308 3.85168Z" fill="black" fill-opacity="0.2"/>
<path fill-rule="evenodd" clip-rule="evenodd" d="M53.1344 100.316H59.7188L60.1359 101.95H53.6227C52.7612 102.743 51.1982 103.962 50.4057 104.946L50.1133 102.767C50.8156 101.895 51.1429 101.592 51.7177 101.089C52.1271 100.73 52.6109 100.465 53.1344 100.316Z" fill="black" fill-opacity="0.2"/>
<path fill-rule="evenodd" clip-rule="evenodd" d="M78.6398 137.838L72.6685 140.773C71.7551 142.708 70.8254 145.419 70.049 148.162L68.6172 146.603C69.4548 143.645 70.2612 141.713 71.2966 139.588C71.3919 139.392 71.5475 139.24 71.7357 139.158L77.4943 136.586L78.6398 137.838Z" fill="black" fill-opacity="0.2"/>
<path fill-rule="evenodd" clip-rule="evenodd" d="M78.6398 137.838L72.6685 140.773C71.7551 142.708 70.8254 145.419 70.049 148.162L68.6172 146.603C69.4548 143.645 70.2612 141.713 71.2966 139.588C71.3919 139.392 71.5475 139.24 71.7357 139.158L77.4943 136.586L78.6398 137.838Z" fill="black" fill-opacity="0.2"/>
<path fill-rule="evenodd" clip-rule="evenodd" d="M216.809 117.609L209.808 117.293L208.933 119.188L215.934 119.503L218.851 124.239L219.727 122.345L216.809 117.609Z" fill="black" fill-opacity="0.2"/>
<g opacity="0.2">
<path d="M135.692 228.75C135.692 233.439 134.886 238.452 133.155 238.452C131.425 238.452 131.066 234.651 131.066 229.963C131.066 225.275 131.425 221.474 133.155 221.474C134.886 221.474 135.692 224.062 135.692 228.75Z" fill="#1C1917"/>
<path d="M80.9529 193.472C80.9529 197.308 79.8781 201.41 77.5706 201.41C75.2631 201.41 74.7852 198.3 74.7852 194.464C74.7852 190.629 75.2631 187.519 77.5706 187.519C79.8781 187.519 80.9529 189.636 80.9529 193.472Z" fill="white"/>
<path d="M164.218 201.41C164.218 205.885 162.471 210.67 158.722 210.67C154.972 210.67 154.195 207.042 154.195 202.567C154.195 198.092 154.972 194.464 158.722 194.464C162.471 194.464 164.218 196.935 164.218 201.41Z" fill="#1C1917"/>
<path d="M54.7395 184.763C54.7395 187.96 53.5304 191.378 50.9344 191.378C48.3384 191.378 47.8008 188.786 47.8008 185.59C47.8008 182.393 48.3384 179.802 50.9344 179.802C53.5304 179.802 54.7395 181.566 54.7395 184.763Z" fill="#1C1917"/>
<path d="M213.558 196.228C213.558 192.392 215.036 188.291 218.209 188.291C221.382 188.291 222.039 191.4 222.039 195.236C222.039 199.072 221.382 202.182 218.209 202.182C215.036 202.182 213.558 200.064 213.558 196.228Z" fill="#1C1917"/>
<path d="M165.76 278.581C165.76 281.564 164.685 284.755 162.377 284.755C160.07 284.755 159.592 282.336 159.592 279.353C159.592 276.369 160.07 273.951 162.377 273.951C164.685 273.951 165.76 275.598 165.76 278.581Z" fill="white"/>
</g>
<g filter="url(#filter12_i_33_92058)">
<path fill-rule="evenodd" clip-rule="evenodd" d="M76.6556 243.608C75.1345 242.532 75.7926 237.394 76.8897 235.793C77.9868 234.193 80.8046 234.26 82.3258 235.336C83.847 236.412 84.9127 239.092 83.8156 240.693C83.003 241.878 80.3008 243.497 78.3358 243.82C78.1016 245.22 77.8107 246.522 77.4575 247.735C79.2487 247.009 81.6254 246.727 82.7664 247.085C84.6171 247.665 85.3796 250.606 84.7976 252.554C84.2156 254.503 81.9672 256.537 80.1165 255.957C78.8743 255.568 76.8371 253.695 75.8078 251.917C75.1084 253.258 74.2831 254.455 73.318 255.525C71.8004 257.207 69.9602 258.551 67.7718 259.653C69.4746 259.419 72.2056 260.149 73.1993 260.957C74.5142 262.027 73.347 265.275 72.3556 266.53C71.3643 267.785 68.1476 268.78 66.8327 267.71C65.5296 266.65 65.5447 261.558 66.51 260.246C64.8157 260.988 62.933 261.611 60.8519 262.152C60.4398 262.259 60.0187 262.012 59.9113 261.6C59.8039 261.188 60.0509 260.767 60.4629 260.66C61.4218 260.411 62.3301 260.145 63.1902 259.861C61.7401 259.187 60.1191 258.014 59.4642 257.163C58.3363 255.697 59.7475 253.082 60.7991 252.264C61.8507 251.446 64.9625 251.662 66.0903 253.128C66.8775 254.151 66.8566 256.808 66.4146 258.597C68.7671 257.503 70.6598 256.169 72.1728 254.492C73.0174 253.555 73.7526 252.502 74.3854 251.308C73.2652 251.479 72.0692 251.481 71.3849 251.289C69.9013 250.874 69.5678 248.245 69.8757 247.085C70.1837 245.926 72.3928 244.361 73.8763 244.775C74.5885 244.974 75.4225 245.931 76.0633 247.001C76.349 245.976 76.5916 244.875 76.7935 243.692C76.7452 243.666 76.6992 243.639 76.6556 243.608Z" fill="#579858"/>
</g>
<g filter="url(#filter13_iii_33_92058)">
<path d="M117.894 220.544C109.786 218.222 111.593 203.153 113.062 197.57L114.779 192.408C117.018 185.78 124.02 178.855 127.242 176.22C132.838 170.611 135.486 162.052 138.941 155.126C140.546 151.909 141.853 148.583 144.823 146.268C147.25 144.376 149.72 141.759 152.549 140.341C158.335 137.441 166.246 139.64 172.578 139.64C179.374 139.64 185.168 134.891 191.813 133.904C199.301 132.793 213.726 132.301 216.071 133.203C227.819 135.275 232.793 141.204 233.812 143.91C235.459 147.421 236.912 155.982 229.552 162.136C226.457 162.826 224.777 162.572 225.196 165.514C226.181 172.422 223.62 177.495 216.517 177.495C211.589 177.495 207.898 176.547 203.195 178.642C201.621 179.344 200.341 183.181 199.762 184.665C198.23 188.586 197.836 192.76 196.614 196.741C194.982 202.058 194.612 207.543 190.573 211.59C182.952 219.229 179.637 204.782 176.298 200.692C171.169 194.409 165.452 208.954 161.419 210.443C159.535 211.138 156.823 210.997 155.156 209.933C154.003 209.198 153.195 207.863 151.849 207.448C147.087 205.979 144.315 211.257 141.421 213.852C139.687 215.408 134.762 218.993 134.236 214.776C134.051 213.289 132.25 207.858 130.484 207.352C125.607 205.955 124.842 222.534 117.894 220.544Z" fill="#579858"/>
</g>
<path d="M144.161 191.34C144.161 187.25 140.274 185.211 135.355 185.211C130.437 185.211 130.295 187.761 130.295 191.85C130.295 195.94 134.788 196.787 139.707 196.787C144.626 196.787 144.161 195.429 144.161 191.34Z" fill="black" fill-opacity="0.12"/>
<path d="M127.69 202.503C125.852 204.28 121.804 204.603 120.538 203.288C119.271 201.972 119.734 199.466 121.572 197.689C123.409 195.912 125.925 195.538 127.191 196.853C128.458 198.168 129.527 200.726 127.69 202.503Z" fill="black" fill-opacity="0.12"/>
<path fill-rule="evenodd" clip-rule="evenodd" d="M187.492 151.621C187.984 152.602 188.639 153.429 189.402 153.971C189.605 154.116 189.81 154.265 190.018 154.415L190.019 154.416L190.019 154.416L190.019 154.416C192.514 156.224 195.337 158.269 197.41 155.234C199.657 151.947 202.418 147.148 199.782 145.272C197.146 143.396 189.906 140.252 187.66 143.54C187.496 143.779 187.352 144.028 187.226 144.285C187.088 144.23 186.937 144.196 186.772 144.186C184.903 144.077 180.374 144.777 180.255 147.117C180.135 149.457 182.394 151.657 184.263 151.766C184.407 151.774 184.554 151.784 184.702 151.794C185.68 151.859 186.728 151.93 187.492 151.621ZM175.514 154.108C173.814 154.009 171.739 152.44 171.823 150.802C171.907 149.164 176.013 148.729 177.713 148.828C179.412 148.927 179.521 151.207 179.437 152.845C179.36 154.357 177.531 154.238 175.913 154.133L175.913 154.133C175.778 154.124 175.645 154.115 175.514 154.108ZM193.406 161.741C193.323 163.379 194.753 164.91 195.942 164.979C196.034 164.984 196.127 164.991 196.222 164.997L196.222 164.997C197.354 165.074 198.635 165.161 198.712 163.649C198.795 162.011 198.754 159.735 197.564 159.665C196.375 159.596 193.49 160.103 193.406 161.741ZM211.756 154.993C210.671 155.488 208.713 154.795 208.047 153.297C207.85 152.853 207.915 152.384 208.132 151.929C207.539 151.487 207.333 150.272 207.358 149.712C207.388 149.031 208.686 149.007 209.621 149.055C210.137 149.082 210.33 149.355 210.395 149.709C210.538 149.626 210.672 149.556 210.791 149.501C211.875 149.006 212.94 151.014 213.606 152.512C214.221 153.895 213.048 154.417 212.011 154.878L212.011 154.879C211.924 154.917 211.839 154.955 211.756 154.993Z" fill="white" fill-opacity="0.2"/>
<rect x="78.6367" y="50.1613" width="117.187" height="77.9429" rx="38.9714" fill="black" fill-opacity="0.12"/>
<rect x="90.9727" y="62.5087" width="92.5163" height="56.3349" rx="27.7548" fill="black" fill-opacity="0.12"/>
<g filter="url(#filter14_iii_33_92058)">
<g filter="url(#filter15_ii_33_92058)">
<path d="M90.9727 46.2582C90.9727 20.7105 111.683 0 137.231 0C162.778 0 183.489 20.7105 183.489 46.2582V52.5209C183.489 78.0686 162.778 98.7791 137.231 98.7791C111.683 98.7791 90.9727 78.0686 90.9727 52.5209V46.2582Z" fill="#F7F1EB"/>
</g>
<g filter="url(#filter16_ii_33_92058)">
<rect x="90.9727" y="47.8461" width="49.342" height="52.4764" rx="15.4194" fill="#F7F1EB"/>
<rect x="134.146" y="47.8463" width="49.342" height="52.4764" rx="15.4194" fill="#F7F1EB"/>
<path d="M117.185 93.3773C115.482 93.3773 114.102 94.758 114.102 96.4612V107.271C114.102 108.974 115.482 110.355 117.185 110.355H118.226C118.558 110.355 118.888 110.301 119.203 110.196L120.064 109.909C120.698 109.698 121.383 109.698 122.016 109.909L122.878 110.196C123.193 110.301 123.522 110.355 123.854 110.355H130.683C130.935 110.355 131.187 110.324 131.432 110.263L133.473 109.752C133.917 109.641 134.379 109.63 134.827 109.72L137.702 110.295C137.901 110.335 138.104 110.355 138.307 110.355H147.3C147.525 110.355 147.75 110.33 147.969 110.281L150.397 109.741C150.865 109.637 151.35 109.644 151.815 109.76L153.823 110.263C154.068 110.324 154.32 110.355 154.572 110.355H160.36C162.063 110.355 163.444 108.974 163.444 107.271V96.4612C163.444 94.758 162.063 93.3773 160.36 93.3773H117.185Z" fill="#F7F1EB"/>
</g>
</g>
<g opacity="0.25" filter="url(#filter17_f_33_92058)">
<path d="M163.866 23.514C165.771 26.322 167.095 32.0394 163.866 33.0975C161.589 33.8435 158.438 30.7725 157.071 28.573C155.556 26.1366 154.564 23.9479 156.313 21.7773C158.193 19.4433 162.141 20.9712 163.866 23.514Z" fill="#F0FDF4"/>
</g>
<g filter="url(#filter18_i_33_92058)">
<g filter="url(#filter19_ii_33_92058)">
<path d="M143.084 107.268C140.919 107.268 139.164 109.023 139.164 111.188V115.758C139.164 116.61 139.854 117.3 140.706 117.3H145.462C146.314 117.3 147.004 116.61 147.004 115.758V111.188C147.004 109.023 145.249 107.268 143.084 107.268Z" fill="white"/>
</g>
<g filter="url(#filter20_ii_33_92058)">
<path fill-rule="evenodd" clip-rule="evenodd" d="M154.061 108.808C154.061 107.105 152.681 105.724 150.977 105.724H150.873C149.17 105.724 147.789 107.105 147.789 108.808V110.354C149.716 109.848 151.737 109.817 153.678 110.266L154.061 110.354V108.808Z" fill="#44403C"/>
</g>
<path fill-rule="evenodd" clip-rule="evenodd" d="M140.086 106.29L142.96 104.977L143.45 103.371L142.94 101.555L143.223 98.8311L138.654 95.4169L144.308 98.2327L144.026 100.957L144.831 102.982L143.964 105.199L139.089 108.515L138.106 109.563V110.354L137.671 110.264C135.487 109.815 133.233 109.846 131.062 110.354V108.808C131.062 107.104 132.443 105.724 134.146 105.724H135.022C136.316 105.724 137.425 106.521 137.882 107.652L140.086 106.29Z" fill="black" fill-opacity="0.2"/>
<g filter="url(#filter21_ii_33_92058)">
<path d="M126.566 106.496C124.863 106.496 123.482 107.877 123.482 109.58V114.215C123.482 115.067 124.173 115.757 125.024 115.757H128.213C129.064 115.757 129.755 115.067 129.755 114.215V109.58C129.755 107.877 128.374 106.496 126.671 106.496H126.566Z" fill="white"/>
</g>
<g filter="url(#filter22_ii_33_92058)">
<path d="M156.413 105.725C155.114 105.725 154.061 106.778 154.061 108.077V113.443C154.061 114.295 154.751 114.985 155.602 114.985H157.223C158.074 114.985 158.765 114.295 158.765 113.443V108.077C158.765 106.778 157.712 105.725 156.413 105.725Z" fill="white"/>
</g>
<g filter="url(#filter23_ii_33_92058)">
<path d="M160.332 104.953C159.466 104.953 158.764 105.655 158.764 106.521V111.128C158.764 111.98 159.454 112.67 160.306 112.67H160.358C161.209 112.67 161.9 111.98 161.9 111.128V106.521C161.9 105.655 161.198 104.953 160.332 104.953Z" fill="white"/>
</g>
<g filter="url(#filter24_ii_33_92058)">
<path fill-rule="evenodd" clip-rule="evenodd" d="M123.352 109.58C123.352 108.303 122.317 107.267 121.039 107.267C119.762 107.267 118.727 108.303 118.727 109.58V110.354C120.151 110.015 121.633 109.995 123.067 110.295L123.352 110.354V109.58Z" fill="#44403C"/>
</g>
<g filter="url(#filter25_ii_33_92058)">
<path d="M117.211 104.953C116.345 104.953 115.643 105.655 115.643 106.521V111.128C115.643 111.98 116.333 112.67 117.185 112.67H117.237C118.088 112.67 118.779 111.98 118.779 111.128V106.521C118.779 105.655 118.077 104.953 117.211 104.953Z" fill="white"/>
</g>
</g>
<g filter="url(#filter26_i_33_92058)">
<rect x="99.4531" y="58.6501" width="30.8388" height="24.6948" rx="12.3474" fill="#0F172A"/>
</g>
<g filter="url(#filter27_i_33_92058)">
<path d="M131.503 76.0675C133.571 70.893 140.888 70.893 142.956 76.0675L146.182 84.1391C147.802 88.1944 144.818 92.6056 140.455 92.6056H134.004C129.64 92.6056 126.657 88.1944 128.277 84.1391L131.503 76.0675Z" fill="#0F172A"/>
</g>
<g filter="url(#filter28_i_33_92058)">
<rect x="144.17" y="58.6501" width="30.8388" height="24.6948" rx="12.3474" fill="#0F172A"/>
</g>
<g filter="url(#filter29_i_33_92058)">
<path fill-rule="evenodd" clip-rule="evenodd" d="M68.9059 237.845C69.6745 239.64 69.6015 243.99 68.5288 246.313C70.0039 245.645 71.6441 245.074 73.4659 244.584C73.3134 242.674 75.5403 239.167 77.0008 238.285C78.6616 237.283 81.2714 238.506 82.2545 240.09C83.2376 241.673 83.1376 244.493 81.4768 245.495C80.0971 246.328 76.3011 246.714 74.4921 245.913C72.9519 246.302 71.558 246.743 70.2955 247.242C71.5032 247.777 72.6539 248.56 72.9408 249.292C73.5034 250.727 72.1714 253.084 71.0499 253.508C69.9284 253.931 67.2803 253.865 66.7176 252.429C66.4415 251.725 66.3238 250.421 66.4082 249.227C65.2589 249.983 64.2667 250.83 63.407 251.779C61.4884 253.895 60.1838 256.564 59.2981 259.971C60.7872 258.786 62.7521 257.779 63.8247 258.034C65.6231 258.461 67.0033 261.67 66.6361 263.227C66.2689 264.784 64.3566 267.678 62.5582 267.251C61.4553 266.989 59.6093 265.766 58.4311 264.5C58.3379 265.76 58.5786 267.183 59.0793 268.717C59.6465 270.455 60.5311 272.286 61.569 274.107L61.584 274.133C61.6275 274.197 61.6687 274.26 61.7076 274.323C63.1445 273.223 65.246 272.291 66.4255 272.223C68.3615 272.111 70.0752 274.194 70.1874 275.886C70.2996 277.577 68.8724 279.811 66.9364 279.923C66.4681 279.95 65.8377 279.861 65.1494 279.686C65.7887 280.603 66.4134 281.475 66.9929 282.284L66.9932 282.284L66.9933 282.284L66.9938 282.285L66.9953 282.287C67.3807 282.825 67.7461 283.335 68.0824 283.812C68.3282 284.161 68.2462 284.642 67.8991 284.887C67.5519 285.132 67.0712 285.049 66.8254 284.7C66.4996 284.238 66.1417 283.739 65.7613 283.208C64.8171 281.89 63.7338 280.379 62.6577 278.766C61.9153 278.402 61.2494 277.979 60.7953 277.537C59.1521 279.076 56.4084 280.634 55.0374 280.293C53.094 279.81 51.6356 276.318 52.0514 274.636C52.4671 272.953 54.5721 269.84 56.5155 270.323C57.0313 270.452 57.6958 270.776 58.3859 271.216C58.0935 270.538 57.8336 269.862 57.6153 269.193C57.0056 267.325 56.7041 265.464 56.9654 263.755C57.2373 261.976 57.5807 260.331 58.0172 258.81C56.2538 259.635 51.9221 259.775 50.7659 258.612C49.4624 257.3 50.0035 253.869 51.1493 252.754C52.2951 251.639 55.4724 250.217 56.7758 251.529C57.6192 252.378 58.5953 254.564 58.8689 256.304C59.7214 254.171 60.8267 252.325 62.2653 250.739C63.2928 249.605 64.4796 248.616 65.8462 247.751C63.3601 247.13 59.7469 243.878 58.9293 241.968C57.9304 239.635 59.9369 236.58 62.1281 235.674C64.3194 234.768 67.907 235.512 68.9059 237.845Z" fill="#65A30D"/>
</g>
<g filter="url(#filter30_i_33_92058)">
<path fill-rule="evenodd" clip-rule="evenodd" d="M18.2523 264.545C18.3372 262.683 13.8809 260.05 11.9451 259.934C10.0093 259.819 8.33244 262.086 8.24755 263.949C8.16267 265.811 9.62284 268.299 11.5586 268.414C12.9926 268.5 15.9286 267.358 17.3889 266.002C18.6371 266.677 19.8431 267.246 21.0165 267.712C19.3444 268.682 17.6626 270.387 17.2443 271.508C16.5659 273.327 18.4173 275.734 20.3115 276.47C22.2058 277.206 25.1903 276.678 25.8687 274.86C26.3242 273.639 26.0974 270.879 25.3261 268.974C26.8136 269.245 28.2639 269.327 29.7004 269.221C31.959 269.054 34.1486 268.425 36.3616 267.372C35.1318 268.573 34.0301 271.181 34.0579 272.462C34.0946 274.158 37.3729 275.229 38.971 275.216C40.5692 275.203 43.3283 273.271 43.2916 271.576C43.2552 269.895 39.2282 266.781 37.6012 266.74C39.2267 265.856 40.8739 264.75 42.5789 263.438C42.9163 263.178 42.9798 262.694 42.7206 262.356C42.4615 262.018 41.9779 261.955 41.6405 262.214C40.8552 262.819 40.0885 263.374 39.3362 263.879C39.6949 262.319 39.7647 260.319 39.4952 259.279C39.0312 257.488 36.1025 256.998 34.8118 257.327C33.5212 257.656 31.7817 260.248 32.2457 262.039C32.5696 263.289 34.6774 264.903 36.3599 265.652C34.0529 266.839 31.8393 267.516 29.5879 267.682C28.3314 267.775 27.05 267.709 25.7202 267.477C26.5424 266.697 27.2773 265.753 27.5463 265.095C28.1297 263.668 26.2601 261.79 25.1565 261.322C24.0529 260.854 21.4627 261.639 20.8793 263.066C20.5994 263.751 20.8419 264.996 21.2919 266.159C20.3082 265.756 19.2913 265.272 18.234 264.705C18.2438 264.652 18.2499 264.598 18.2523 264.545Z" fill="#15803D"/>
</g>
<g filter="url(#filter31_di_33_92058)">
<path d="M176.721 127.675L169.007 138.712C168.462 139.491 167.736 140.126 166.889 140.562C166.043 140.998 165.103 141.223 164.149 141.216L150.64 141.116C150.03 141.112 149.432 141.278 148.912 141.596C148.393 141.913 147.973 142.37 147.701 142.913C147.428 143.456 147.314 144.064 147.371 144.669C147.427 145.275 147.653 145.852 148.021 146.337L156.186 157.077C156.763 157.835 157.146 158.721 157.303 159.658C157.459 160.596 157.384 161.557 157.085 162.458L152.848 175.232C152.658 175.808 152.633 176.427 152.776 177.018C152.92 177.608 153.226 178.148 153.66 178.574C154.095 179.001 154.64 179.299 155.235 179.434C155.83 179.569 156.45 179.535 157.026 179.337L169.785 174.94C170.685 174.627 171.649 174.538 172.592 174.68C173.536 174.821 174.431 175.188 175.201 175.751L186.093 183.746C186.586 184.107 187.169 184.323 187.778 184.37C188.386 184.417 188.996 184.294 189.537 184.014C190.078 183.734 190.529 183.308 190.84 182.785C191.151 182.263 191.308 181.663 191.294 181.056L191.013 167.597C190.993 166.647 191.206 165.707 191.632 164.858C192.059 164.009 192.686 163.276 193.46 162.723L204.428 154.887C204.923 154.533 205.308 154.048 205.541 153.486C205.773 152.925 205.843 152.31 205.743 151.711C205.642 151.111 205.376 150.551 204.974 150.094C204.571 149.637 204.049 149.301 203.465 149.123L190.533 145.205C189.62 144.927 188.788 144.433 188.108 143.765C187.428 143.097 186.921 142.274 186.631 141.369L182.518 128.54C182.331 127.962 181.985 127.447 181.52 127.053C181.055 126.66 180.489 126.403 179.886 126.313C179.283 126.223 178.667 126.303 178.108 126.544C177.548 126.784 177.068 127.176 176.721 127.675Z" fill="#F97316"/>
</g>
<g filter="url(#filter32_f_33_92058)">
<path d="M168.861 154.361C169.161 155.616 159.762 167.905 160.469 168.894C161.133 169.821 172.333 160.975 173.259 161.61C174.723 161.371 174.306 161.551 175.716 161.786C176.955 161.993 185.757 174.104 187.056 173.795C188.186 173.526 185.382 160.812 184.993 158.45C184.741 156.917 184.516 156.953 185.979 156.412C186.679 155.391 199.405 151.939 199.674 150.716C199.978 149.333 191.762 149.005 188.687 148.582C186.439 148.274 185.194 148.495 184.104 147.713C183.485 146.87 183.163 147.332 182.941 145.983C182.235 144.498 181.758 130.449 180.343 130.195C179.067 129.965 176.044 144.768 174.702 145.087C173.254 146.824 174.216 144.208 173.013 145.362C172.083 146.254 156.347 142.373 155.836 143.549C155.029 145.405 168.353 152.24 168.861 154.361Z" fill="white" fill-opacity="0.25"/>
</g>
<g filter="url(#filter33_f_33_92058)">
<ellipse cx="2.31296" cy="2.31508" rx="2.31296" ry="2.31508" transform="matrix(-0.986967 0.16092 0.162512 0.986707 177.828 152.395)" fill="white"/>
</g>
<path opacity="0.5" d="M174.193 171.688C176.322 171.688 178.598 170.747 178.598 168.725C178.598 166.704 176.872 166.286 174.744 166.286C172.615 166.286 170.889 166.704 170.889 168.725C170.889 170.747 172.064 171.688 174.193 171.688Z" fill="black" fill-opacity="0.12"/>
<path opacity="0.5" d="M187.936 153.477C188.969 153.736 190.203 153.491 190.481 152.37C190.76 151.25 189.98 150.808 188.948 150.549C187.915 150.29 187.02 150.312 186.742 151.433C186.463 152.553 186.903 153.218 187.936 153.477Z" fill="black" fill-opacity="0.2"/>
<path opacity="0.5" d="M164.7 148.373C163.247 148.704 161.841 149.714 162.159 151.122C162.476 152.53 163.72 152.553 165.174 152.223C166.627 151.892 167.739 151.332 167.421 149.924C167.103 148.516 166.153 148.042 164.7 148.373Z" fill="black" fill-opacity="0.2"/>
<path opacity="0.2" d="M183.445 150.447C184.684 150.758 186.171 150.437 186.52 149.036C186.868 147.636 185.936 147.094 184.697 146.783C183.458 146.473 182.381 146.512 182.032 147.912C181.684 149.313 182.205 150.137 183.445 150.447Z" fill="#FAFAF9"/>
<path opacity="0.2" d="M166.306 152.889C165.088 152.561 164.565 152.769 164.404 153.371C164.244 153.974 164.05 154.679 165.268 155.007C166.487 155.335 167.222 154.775 167.383 154.173C167.543 153.57 167.525 153.217 166.306 152.889Z" fill="#FAFAF9"/>
<path opacity="0.5" d="M181.536 170.051C180.836 169.862 180.54 169.986 180.432 170.388C180.325 170.79 180.331 171.324 180.924 171.484C181.516 171.643 181.759 171.393 181.866 170.992C181.973 170.59 182.129 170.21 181.536 170.051Z" fill="black" fill-opacity="0.12"/>
<path opacity="0.5" d="M163.086 165.353C161.685 164.976 161.067 165.32 160.799 166.324C160.531 167.328 160.476 168.646 161.662 168.965C162.847 169.284 163.372 168.636 163.64 167.632C163.908 166.628 164.271 165.672 163.086 165.353Z" fill="black" fill-opacity="0.12"/>
<path opacity="0.1" d="M156.095 163.105C155.394 162.917 155.098 163.041 154.991 163.443C154.884 163.845 154.89 164.379 155.482 164.539C156.075 164.698 156.318 164.448 156.425 164.046C156.532 163.644 156.688 163.265 156.095 163.105Z" fill="black" fill-opacity="0.12"/>
<g filter="url(#filter34_di_33_92058)">
<path fill-rule="evenodd" clip-rule="evenodd" d="M21.5147 256.859C21.8246 256.98 22.1306 257.121 22.431 257.283L72.3826 284.227C73.4437 284.8 74.3263 285.575 75.0081 286.48C75.1108 286.475 75.215 286.473 75.3204 286.473C79.067 286.473 84.3242 289.582 84.3242 293.417C84.3242 296.339 81.2733 298.839 78.1636 299.865C80.0562 301.767 80.7596 304.246 79.4492 306.694C77.6761 310.007 72.58 312.204 69.0216 310.285C65.4631 308.366 63.806 302.892 65.5791 299.579C65.6843 299.383 65.8002 299.198 65.9259 299.024C65.5245 298.884 65.1289 298.71 64.7426 298.502L14.7909 271.557C14.7322 271.526 14.674 271.493 14.6163 271.461C13.5925 274.114 11.5345 276.287 8.86385 276.287C4.98295 276.287 0.47937 274.363 0.000259399 267.714C0.000259399 264.513 3.24638 261.279 6.88274 260.255C4.27652 258.018 3.18265 254.928 4.81421 251.88C6.84536 248.084 12.6829 245.568 16.759 247.766C19.8273 249.421 21.6616 253.383 21.5147 256.859Z" fill="#F2E9DE"/>
</g>
<defs>
<filter id="filter0_ii_33_92058" x="3.04236" y="2.30933" width="268.568" height="327.981" filterUnits="userSpaceOnUse" color-interpolation-filters="sRGB">
<feFlood flood-opacity="0" result="BackgroundImageFix"/>
<feBlend mode="normal" in="SourceGraphic" in2="BackgroundImageFix" result="shape"/>
<feColorMatrix in="SourceAlpha" type="matrix" values="0 0 0 0 0 0 0 0 0 0 0 0 0 0 0 0 0 0 127 0" result="hardAlpha"/>
<feOffset dx="60.1509" dy="57.8303"/>
<feGaussianBlur stdDeviation="17.8479"/>
<feComposite in2="hardAlpha" operator="arithmetic" k2="-1" k3="1"/>
<feColorMatrix type="matrix" values="0 0 0 0 0 0 0 0 0 0 0 0 0 0 0 0 0 0 0.25 0"/>
<feBlend mode="normal" in2="shape" result="effect1_innerShadow_33_92058"/>
<feColorMatrix in="SourceAlpha" type="matrix" values="0 0 0 0 0 0 0 0 0 0 0 0 0 0 0 0 0 0 127 0" result="hardAlpha"/>
<feOffset dx="-43.1896" dy="63.9981"/>
<feGaussianBlur stdDeviation="18.137"/>
<feComposite in2="hardAlpha" operator="arithmetic" k2="-1" k3="1"/>
<feColorMatrix type="matrix" values="0 0 0 0 1 0 0 0 0 1 0 0 0 0 1 0 0 0 0.2 0"/>
<feBlend mode="normal" in2="effect1_innerShadow_33_92058" result="effect2_innerShadow_33_92058"/>
</filter>
<filter id="filter1_i_33_92058" x="170.383" y="152.021" width="18.3125" height="133.511" filterUnits="userSpaceOnUse" color-interpolation-filters="sRGB">
<feFlood flood-opacity="0" result="BackgroundImageFix"/>
<feBlend mode="normal" in="SourceGraphic" in2="BackgroundImageFix" result="shape"/>
<feColorMatrix in="SourceAlpha" type="matrix" values="0 0 0 0 0 0 0 0 0 0 0 0 0 0 0 0 0 0 127 0" result="hardAlpha"/>
<feOffset dx="0.58009" dy="2.32036"/>
<feGaussianBlur stdDeviation="1.16018"/>
<feComposite in2="hardAlpha" operator="arithmetic" k2="-1" k3="1"/>
<feColorMatrix type="matrix" values="0 0 0 0 0 0 0 0 0 0 0 0 0 0 0 0 0 0 0.25 0"/>
<feBlend mode="normal" in2="shape" result="effect1_innerShadow_33_92058"/>
</filter>
<filter id="filter2_i_33_92058" x="119.881" y="199.867" width="5.01565" height="94.9258" filterUnits="userSpaceOnUse" color-interpolation-filters="sRGB">
<feFlood flood-opacity="0" result="BackgroundImageFix"/>
<feBlend mode="normal" in="SourceGraphic" in2="BackgroundImageFix" result="shape"/>
<feColorMatrix in="SourceAlpha" type="matrix" values="0 0 0 0 0 0 0 0 0 0 0 0 0 0 0 0 0 0 127 0" result="hardAlpha"/>
<feOffset dx="-1.16018" dy="2.32036"/>
<feGaussianBlur stdDeviation="1.16018"/>
<feComposite in2="hardAlpha" operator="arithmetic" k2="-1" k3="1"/>
<feColorMatrix type="matrix" values="0 0 0 0 0 0 0 0 0 0 0 0 0 0 0 0 0 0 0.25 0"/>
<feBlend mode="normal" in2="shape" result="effect1_innerShadow_33_92058"/>
</filter>
<filter id="filter3_ii_33_92058" x="-0.039669" y="84.8817" width="274.735" height="223.8" filterUnits="userSpaceOnUse" color-interpolation-filters="sRGB">
<feFlood flood-opacity="0" result="BackgroundImageFix"/>
<feBlend mode="normal" in="SourceGraphic" in2="BackgroundImageFix" result="shape"/>
<feColorMatrix in="SourceAlpha" type="matrix" values="0 0 0 0 0 0 0 0 0 0 0 0 0 0 0 0 0 0 127 0" result="hardAlpha"/>
<feOffset dx="60.1509" dy="57.8303"/>
<feGaussianBlur stdDeviation="17.8479"/>
<feComposite in2="hardAlpha" operator="arithmetic" k2="-1" k3="1"/>
<feColorMatrix type="matrix" values="0 0 0 0 0 0 0 0 0 0 0 0 0 0 0 0 0 0 0.25 0"/>
<feBlend mode="normal" in2="shape" result="effect1_innerShadow_33_92058"/>
<feColorMatrix in="SourceAlpha" type="matrix" values="0 0 0 0 0 0 0 0 0 0 0 0 0 0 0 0 0 0 127 0" result="hardAlpha"/>
<feOffset dx="-43.1896" dy="63.9981"/>
<feGaussianBlur stdDeviation="18.137"/>
<feComposite in2="hardAlpha" operator="arithmetic" k2="-1" k3="1"/>
<feColorMatrix type="matrix" values="0 0 0 0 1 0 0 0 0 1 0 0 0 0 1 0 0 0 0.2 0"/>
<feBlend mode="normal" in2="effect1_innerShadow_33_92058" result="effect2_innerShadow_33_92058"/>
</filter>
<filter id="filter4_ii_33_92058" x="1.5033" y="62.5021" width="270.88" height="228.43" filterUnits="userSpaceOnUse" color-interpolation-filters="sRGB">
<feFlood flood-opacity="0" result="BackgroundImageFix"/>
<feBlend mode="normal" in="SourceGraphic" in2="BackgroundImageFix" result="shape"/>
<feColorMatrix in="SourceAlpha" type="matrix" values="0 0 0 0 0 0 0 0 0 0 0 0 0 0 0 0 0 0 127 0" result="hardAlpha"/>
<feOffset dx="60.1509" dy="57.8303"/>
<feGaussianBlur stdDeviation="17.8479"/>
<feComposite in2="hardAlpha" operator="arithmetic" k2="-1" k3="1"/>
<feColorMatrix type="matrix" values="0 0 0 0 0 0 0 0 0 0 0 0 0 0 0 0 0 0 0.25 0"/>
<feBlend mode="normal" in2="shape" result="effect1_innerShadow_33_92058"/>
<feColorMatrix in="SourceAlpha" type="matrix" values="0 0 0 0 0 0 0 0 0 0 0 0 0 0 0 0 0 0 127 0" result="hardAlpha"/>
<feOffset dx="-43.1896" dy="63.9981"/>
<feGaussianBlur stdDeviation="18.137"/>
<feComposite in2="hardAlpha" operator="arithmetic" k2="-1" k3="1"/>
<feColorMatrix type="matrix" values="0 0 0 0 1 0 0 0 0 1 0 0 0 0 1 0 0 0 0.2 0"/>
<feBlend mode="normal" in2="effect1_innerShadow_33_92058" result="effect2_innerShadow_33_92058"/>
</filter>
<filter id="filter5_i_33_92058" x="120.652" y="161.281" width="4.24416" height="94.9258" filterUnits="userSpaceOnUse" color-interpolation-filters="sRGB">
<feFlood flood-opacity="0" result="BackgroundImageFix"/>
<feBlend mode="normal" in="SourceGraphic" in2="BackgroundImageFix" result="shape"/>
<feColorMatrix in="SourceAlpha" type="matrix" values="0 0 0 0 0 0 0 0 0 0 0 0 0 0 0 0 0 0 127 0" result="hardAlpha"/>
<feOffset dx="-1.16018" dy="2.32036"/>
<feGaussianBlur stdDeviation="1.16018"/>
<feComposite in2="hardAlpha" operator="arithmetic" k2="-1" k3="1"/>
<feColorMatrix type="matrix" values="0 0 0 0 0 0 0 0 0 0 0 0 0 0 0 0 0 0 0.43 0"/>
<feBlend mode="normal" in2="shape" result="effect1_innerShadow_33_92058"/>
</filter>
<filter id="filter6_i_33_92058" x="183.49" y="181.346" width="7.71684" height="63.2856" filterUnits="userSpaceOnUse" color-interpolation-filters="sRGB">
<feFlood flood-opacity="0" result="BackgroundImageFix"/>
<feBlend mode="normal" in="SourceGraphic" in2="BackgroundImageFix" result="shape"/>
<feColorMatrix in="SourceAlpha" type="matrix" values="0 0 0 0 0 0 0 0 0 0 0 0 0 0 0 0 0 0 127 0" result="hardAlpha"/>
<feOffset dx="2.90045" dy="2.32036"/>
<feGaussianBlur stdDeviation="1.16018"/>
<feComposite in2="hardAlpha" operator="arithmetic" k2="-1" k3="1"/>
<feColorMatrix type="matrix" values="0 0 0 0 0 0 0 0 0 0 0 0 0 0 0 0 0 0 0.25 0"/>
<feBlend mode="normal" in2="shape" result="effect1_innerShadow_33_92058"/>
</filter>
<filter id="filter7_dii_33_92058" x="8.4408" y="22.3727" width="257.003" height="206.822" filterUnits="userSpaceOnUse" color-interpolation-filters="sRGB">
<feFlood flood-opacity="0" result="BackgroundImageFix"/>
<feColorMatrix in="SourceAlpha" type="matrix" values="0 0 0 0 0 0 0 0 0 0 0 0 0 0 0 0 0 0 127 0" result="hardAlpha"/>
<feOffset dy="3.08387"/>
<feComposite in2="hardAlpha" operator="out"/>
<feColorMatrix type="matrix" values="0 0 0 0 0 0 0 0 0 0 0 0 0 0 0 0 0 0 0.25 0"/>
<feBlend mode="normal" in2="BackgroundImageFix" result="effect1_dropShadow_33_92058"/>
<feBlend mode="normal" in="SourceGraphic" in2="effect1_dropShadow_33_92058" result="shape"/>
<feColorMatrix in="SourceAlpha" type="matrix" values="0 0 0 0 0 0 0 0 0 0 0 0 0 0 0 0 0 0 127 0" result="hardAlpha"/>
<feOffset dx="60.1509" dy="57.8303"/>
<feGaussianBlur stdDeviation="17.8479"/>
<feComposite in2="hardAlpha" operator="arithmetic" k2="-1" k3="1"/>
<feColorMatrix type="matrix" values="0 0 0 0 0 0 0 0 0 0 0 0 0 0 0 0 0 0 0.25 0"/>
<feBlend mode="normal" in2="shape" result="effect2_innerShadow_33_92058"/>
<feColorMatrix in="SourceAlpha" type="matrix" values="0 0 0 0 0 0 0 0 0 0 0 0 0 0 0 0 0 0 127 0" result="hardAlpha"/>
<feOffset dx="-43.1896" dy="63.9981"/>
<feGaussianBlur stdDeviation="18.137"/>
<feComposite in2="hardAlpha" operator="arithmetic" k2="-1" k3="1"/>
<feColorMatrix type="matrix" values="0 0 0 0 1 0 0 0 0 1 0 0 0 0 1 0 0 0 0.2 0"/>
<feBlend mode="normal" in2="effect2_innerShadow_33_92058" result="effect3_innerShadow_33_92058"/>
</filter>
<filter id="filter8_ii_33_92058" x="12.2963" y="6.16675" width="248.523" height="206.822" filterUnits="userSpaceOnUse" color-interpolation-filters="sRGB">
<feFlood flood-opacity="0" result="BackgroundImageFix"/>
<feBlend mode="normal" in="SourceGraphic" in2="BackgroundImageFix" result="shape"/>
<feColorMatrix in="SourceAlpha" type="matrix" values="0 0 0 0 0 0 0 0 0 0 0 0 0 0 0 0 0 0 127 0" result="hardAlpha"/>
<feOffset dx="60.1509" dy="57.8303"/>
<feGaussianBlur stdDeviation="17.8479"/>
<feComposite in2="hardAlpha" operator="arithmetic" k2="-1" k3="1"/>
<feColorMatrix type="matrix" values="0 0 0 0 0 0 0 0 0 0 0 0 0 0 0 0 0 0 0.25 0"/>
<feBlend mode="normal" in2="shape" result="effect1_innerShadow_33_92058"/>
<feColorMatrix in="SourceAlpha" type="matrix" values="0 0 0 0 0 0 0 0 0 0 0 0 0 0 0 0 0 0 127 0" result="hardAlpha"/>
<feOffset dx="-43.1896" dy="63.9981"/>
<feGaussianBlur stdDeviation="18.137"/>
<feComposite in2="hardAlpha" operator="arithmetic" k2="-1" k3="1"/>
<feColorMatrix type="matrix" values="0 0 0 0 1 0 0 0 0 1 0 0 0 0 1 0 0 0 0.2 0"/>
<feBlend mode="normal" in2="effect1_innerShadow_33_92058" result="effect2_innerShadow_33_92058"/>
</filter>
<filter id="filter9_i_33_92058" x="120.844" y="158.961" width="4.82425" height="17.7546" filterUnits="userSpaceOnUse" color-interpolation-filters="sRGB">
<feFlood flood-opacity="0" result="BackgroundImageFix"/>
<feBlend mode="normal" in="SourceGraphic" in2="BackgroundImageFix" result="shape"/>
<feColorMatrix in="SourceAlpha" type="matrix" values="0 0 0 0 0 0 0 0 0 0 0 0 0 0 0 0 0 0 127 0" result="hardAlpha"/>
<feOffset dx="-1.74027" dy="-8.12126"/>
<feGaussianBlur stdDeviation="1.16018"/>
<feComposite in2="hardAlpha" operator="arithmetic" k2="-1" k3="1"/>
<feColorMatrix type="matrix" values="0 0 0 0 0 0 0 0 0 0 0 0 0 0 0 0 0 0 0.25 0"/>
<feBlend mode="normal" in2="shape" result="effect1_innerShadow_33_92058"/>
</filter>
<filter id="filter10_i_33_92058" x="60.9062" y="11.3669" width="157.484" height="152.229" filterUnits="userSpaceOnUse" color-interpolation-filters="sRGB">
<feFlood flood-opacity="0" result="BackgroundImageFix"/>
<feBlend mode="normal" in="SourceGraphic" in2="BackgroundImageFix" result="shape"/>
<feColorMatrix in="SourceAlpha" type="matrix" values="0 0 0 0 0 0 0 0 0 0 0 0 0 0 0 0 0 0 127 0" result="hardAlpha"/>
<feOffset dx="4.06063" dy="-4.06063"/>
<feGaussianBlur stdDeviation="10.1516"/>
<feComposite in2="hardAlpha" operator="arithmetic" k2="-1" k3="1"/>
<feColorMatrix type="matrix" values="0 0 0 0 0 0 0 0 0 0 0 0 0 0 0 0 0 0 0.25 0"/>
<feBlend mode="normal" in2="shape" result="effect1_innerShadow_33_92058"/>
</filter>
<filter id="filter11_i_33_92058" x="172.697" y="153.564" width="11.5723" height="15.4395" filterUnits="userSpaceOnUse" color-interpolation-filters="sRGB">
<feFlood flood-opacity="0" result="BackgroundImageFix"/>
<feBlend mode="normal" in="SourceGraphic" in2="BackgroundImageFix" result="shape"/>
<feColorMatrix in="SourceAlpha" type="matrix" values="0 0 0 0 0 0 0 0 0 0 0 0 0 0 0 0 0 0 127 0" result="hardAlpha"/>
<feOffset dx="3.48054" dy="3.48054"/>
<feGaussianBlur stdDeviation="1.16018"/>
<feComposite in2="hardAlpha" operator="arithmetic" k2="-1" k3="1"/>
<feColorMatrix type="matrix" values="0 0 0 0 0 0 0 0 0 0 0 0 0 0 0 0 0 0 0.25 0"/>
<feBlend mode="normal" in2="shape" result="effect1_innerShadow_33_92058"/>
</filter>
<filter id="filter12_i_33_92058" x="53.1978" y="229.973" width="38.3803" height="41.2511" filterUnits="userSpaceOnUse" color-interpolation-filters="sRGB">
<feFlood flood-opacity="0" result="BackgroundImageFix"/>
<feBlend mode="normal" in="SourceGraphic" in2="BackgroundImageFix" result="shape"/>
<feColorMatrix in="SourceAlpha" type="matrix" values="0 0 0 0 0 0 0 0 0 0 0 0 0 0 0 0 0 0 127 0" result="hardAlpha"/>
<feOffset dx="-0.770968" dy="-3.85484"/>
<feGaussianBlur stdDeviation="1.54194"/>
<feComposite in2="hardAlpha" operator="arithmetic" k2="-1" k3="1"/>
<feColorMatrix type="matrix" values="0 0 0 0 0 0 0 0 0 0 0 0 0 0 0 0 0 0 0.25 0"/>
<feBlend mode="normal" in2="shape" result="effect1_innerShadow_33_92058"/>
</filter>
<filter id="filter13_iii_33_92058" x="96.3717" y="115.003" width="144.943" height="121.127" filterUnits="userSpaceOnUse" color-interpolation-filters="sRGB">
<feFlood flood-opacity="0" result="BackgroundImageFix"/>
<feBlend mode="normal" in="SourceGraphic" in2="BackgroundImageFix" result="shape"/>
<feColorMatrix in="SourceAlpha" type="matrix" values="0 0 0 0 0 0 0 0 0 0 0 0 0 0 0 0 0 0 127 0" result="hardAlpha"/>
<feOffset dx="6.16774" dy="-26.9839"/>
<feGaussianBlur stdDeviation="8.86613"/>
<feComposite in2="hardAlpha" operator="arithmetic" k2="-1" k3="1"/>
<feColorMatrix type="matrix" values="0 0 0 0 0 0 0 0 0 0 0 0 0 0 0 0 0 0 0.25 0"/>
<feBlend mode="normal" in2="shape" result="effect1_innerShadow_33_92058"/>
<feColorMatrix in="SourceAlpha" type="matrix" values="0 0 0 0 0 0 0 0 0 0 0 0 0 0 0 0 0 0 127 0" result="hardAlpha"/>
<feOffset dx="-61.6774" dy="40.0903"/>
<feGaussianBlur stdDeviation="7.70968"/>
<feComposite in2="hardAlpha" operator="arithmetic" k2="-1" k3="1"/>
<feColorMatrix type="matrix" values="0 0 0 0 1 0 0 0 0 1 0 0 0 0 1 0 0 0 0.25 0"/>
<feBlend mode="normal" in2="effect1_innerShadow_33_92058" result="effect2_innerShadow_33_92058"/>
<feColorMatrix in="SourceAlpha" type="matrix" values="0 0 0 0 0 0 0 0 0 0 0 0 0 0 0 0 0 0 127 0" result="hardAlpha"/>
<feOffset dx="3.08387" dy="-4.62581"/>
<feGaussianBlur stdDeviation="4.62581"/>
<feComposite in2="hardAlpha" operator="arithmetic" k2="-1" k3="1"/>
<feColorMatrix type="matrix" values="0 0 0 0 0 0 0 0 0 0 0 0 0 0 0 0 0 0 0.25 0"/>
<feBlend mode="normal" in2="effect2_innerShadow_33_92058" result="effect3_innerShadow_33_92058"/>
</filter>
<filter id="filter14_iii_33_92058" x="78.6372" y="-18.5032" width="123.354" height="147.361" filterUnits="userSpaceOnUse" color-interpolation-filters="sRGB">
<feFlood flood-opacity="0" result="BackgroundImageFix"/>
<feBlend mode="normal" in="SourceGraphic" in2="BackgroundImageFix" result="shape"/>
<feColorMatrix in="SourceAlpha" type="matrix" values="0 0 0 0 0 0 0 0 0 0 0 0 0 0 0 0 0 0 127 0" result="hardAlpha"/>
<feOffset dx="18.5032" dy="-18.5032"/>
<feGaussianBlur stdDeviation="16.1903"/>
<feComposite in2="hardAlpha" operator="arithmetic" k2="-1" k3="1"/>
<feColorMatrix type="matrix" values="0 0 0 0 0 0 0 0 0 0 0 0 0 0 0 0 0 0 0.25 0"/>
<feBlend mode="normal" in2="shape" result="effect1_innerShadow_33_92058"/>
<feColorMatrix in="SourceAlpha" type="matrix" values="0 0 0 0 0 0 0 0 0 0 0 0 0 0 0 0 0 0 127 0" result="hardAlpha"/>
<feOffset dx="6.16774" dy="-6.16774"/>
<feGaussianBlur stdDeviation="6.16774"/>
<feComposite in2="hardAlpha" operator="arithmetic" k2="-1" k3="1"/>
<feColorMatrix type="matrix" values="0 0 0 0 0 0 0 0 0 0 0 0 0 0 0 0 0 0 0.25 0"/>
<feBlend mode="normal" in2="effect1_innerShadow_33_92058" result="effect2_innerShadow_33_92058"/>
<feColorMatrix in="SourceAlpha" type="matrix" values="0 0 0 0 0 0 0 0 0 0 0 0 0 0 0 0 0 0 127 0" result="hardAlpha"/>
<feOffset dx="-12.3355" dy="18.5032"/>
<feGaussianBlur stdDeviation="9.25162"/>
<feComposite in2="hardAlpha" operator="arithmetic" k2="-1" k3="1"/>
<feColorMatrix type="matrix" values="0 0 0 0 1 0 0 0 0 1 0 0 0 0 1 0 0 0 0.25 0"/>
<feBlend mode="normal" in2="effect2_innerShadow_33_92058" result="effect3_innerShadow_33_92058"/>
</filter>
<filter id="filter15_ii_33_92058" x="78.6372" y="-18.5032" width="123.354" height="135.786" filterUnits="userSpaceOnUse" color-interpolation-filters="sRGB">
<feFlood flood-opacity="0" result="BackgroundImageFix"/>
<feBlend mode="normal" in="SourceGraphic" in2="BackgroundImageFix" result="shape"/>
<feColorMatrix in="SourceAlpha" type="matrix" values="0 0 0 0 0 0 0 0 0 0 0 0 0 0 0 0 0 0 127 0" result="hardAlpha"/>
<feOffset dx="18.5032" dy="-18.5032"/>
<feGaussianBlur stdDeviation="16.1903"/>
<feComposite in2="hardAlpha" operator="arithmetic" k2="-1" k3="1"/>
<feColorMatrix type="matrix" values="0 0 0 0 0 0 0 0 0 0 0 0 0 0 0 0 0 0 0.25 0"/>
<feBlend mode="normal" in2="shape" result="effect1_innerShadow_33_92058"/>
<feColorMatrix in="SourceAlpha" type="matrix" values="0 0 0 0 0 0 0 0 0 0 0 0 0 0 0 0 0 0 127 0" result="hardAlpha"/>
<feOffset dx="-12.3355" dy="18.5032"/>
<feGaussianBlur stdDeviation="9.25162"/>
<feComposite in2="hardAlpha" operator="arithmetic" k2="-1" k3="1"/>
<feColorMatrix type="matrix" values="0 0 0 0 1 0 0 0 0 1 0 0 0 0 1 0 0 0 0.25 0"/>
<feBlend mode="normal" in2="effect1_innerShadow_33_92058" result="effect2_innerShadow_33_92058"/>
</filter>
<filter id="filter16_ii_33_92058" x="84.8049" y="41.6783" width="104.851" height="74.8444" filterUnits="userSpaceOnUse" color-interpolation-filters="sRGB">
<feFlood flood-opacity="0" result="BackgroundImageFix"/>
<feBlend mode="normal" in="SourceGraphic" in2="BackgroundImageFix" result="shape"/>
<feColorMatrix in="SourceAlpha" type="matrix" values="0 0 0 0 0 0 0 0 0 0 0 0 0 0 0 0 0 0 127 0" result="hardAlpha"/>
<feOffset dx="6.16774" dy="-6.16774"/>
<feGaussianBlur stdDeviation="3.08387"/>
<feComposite in2="hardAlpha" operator="arithmetic" k2="-1" k3="1"/>
<feColorMatrix type="matrix" values="0 0 0 0 0 0 0 0 0 0 0 0 0 0 0 0 0 0 0.25 0"/>
<feBlend mode="normal" in2="shape" result="effect1_innerShadow_33_92058"/>
<feColorMatrix in="SourceAlpha" type="matrix" values="0 0 0 0 0 0 0 0 0 0 0 0 0 0 0 0 0 0 127 0" result="hardAlpha"/>
<feOffset dx="-6.16774" dy="6.16774"/>
<feGaussianBlur stdDeviation="3.08387"/>
<feComposite in2="hardAlpha" operator="arithmetic" k2="-1" k3="1"/>
<feColorMatrix type="matrix" values="0 0 0 0 1 0 0 0 0 1 0 0 0 0 1 0 0 0 0.25 0"/>
<feBlend mode="normal" in2="effect1_innerShadow_33_92058" result="effect2_innerShadow_33_92058"/>
</filter>
<filter id="filter17_f_33_92058" x="153.428" y="18.6672" width="14.3503" height="16.5009" filterUnits="userSpaceOnUse" color-interpolation-filters="sRGB">
<feFlood flood-opacity="0" result="BackgroundImageFix"/>
<feBlend mode="normal" in="SourceGraphic" in2="BackgroundImageFix" result="shape"/>
<feGaussianBlur stdDeviation="0.978211" result="effect1_foregroundBlur_33_92058"/>
</filter>
<filter id="filter18_i_33_92058" x="115.643" y="95.4169" width="49.3417" height="21.8833" filterUnits="userSpaceOnUse" color-interpolation-filters="sRGB">
<feFlood flood-opacity="0" result="BackgroundImageFix"/>
<feBlend mode="normal" in="SourceGraphic" in2="BackgroundImageFix" result="shape"/>
<feColorMatrix in="SourceAlpha" type="matrix" values="0 0 0 0 0 0 0 0 0 0 0 0 0 0 0 0 0 0 127 0" result="hardAlpha"/>
<feOffset dx="6.16774"/>
<feGaussianBlur stdDeviation="1.54194"/>
<feComposite in2="hardAlpha" operator="arithmetic" k2="-1" k3="1"/>
<feColorMatrix type="matrix" values="0 0 0 0 0 0 0 0 0 0 0 0 0 0 0 0 0 0 0.25 0"/>
<feBlend mode="normal" in2="shape" result="effect1_innerShadow_33_92058"/>
</filter>
<filter id="filter19_ii_33_92058" x="132.996" y="101.1" width="20.1753" height="22.3677" filterUnits="userSpaceOnUse" color-interpolation-filters="sRGB">
<feFlood flood-opacity="0" result="BackgroundImageFix"/>
<feBlend mode="normal" in="SourceGraphic" in2="BackgroundImageFix" result="shape"/>
<feColorMatrix in="SourceAlpha" type="matrix" values="0 0 0 0 0 0 0 0 0 0 0 0 0 0 0 0 0 0 127 0" result="hardAlpha"/>
<feOffset dx="6.16774" dy="-6.16774"/>
<feGaussianBlur stdDeviation="3.08387"/>
<feComposite in2="hardAlpha" operator="arithmetic" k2="-1" k3="1"/>
<feColorMatrix type="matrix" values="0 0 0 0 0 0 0 0 0 0 0 0 0 0 0 0 0 0 0.25 0"/>
<feBlend mode="normal" in2="shape" result="effect1_innerShadow_33_92058"/>
<feColorMatrix in="SourceAlpha" type="matrix" values="0 0 0 0 0 0 0 0 0 0 0 0 0 0 0 0 0 0 127 0" result="hardAlpha"/>
<feOffset dx="-6.16774" dy="6.16774"/>
<feGaussianBlur stdDeviation="3.08387"/>
<feComposite in2="hardAlpha" operator="arithmetic" k2="-1" k3="1"/>
<feColorMatrix type="matrix" values="0 0 0 0 1 0 0 0 0 1 0 0 0 0 1 0 0 0 0.25 0"/>
<feBlend mode="normal" in2="effect1_innerShadow_33_92058" result="effect2_innerShadow_33_92058"/>
</filter>
<filter id="filter20_ii_33_92058" x="141.621" y="99.5564" width="18.607" height="16.9657" filterUnits="userSpaceOnUse" color-interpolation-filters="sRGB">
<feFlood flood-opacity="0" result="BackgroundImageFix"/>
<feBlend mode="normal" in="SourceGraphic" in2="BackgroundImageFix" result="shape"/>
<feColorMatrix in="SourceAlpha" type="matrix" values="0 0 0 0 0 0 0 0 0 0 0 0 0 0 0 0 0 0 127 0" result="hardAlpha"/>
<feOffset dx="6.16774" dy="-6.16774"/>
<feGaussianBlur stdDeviation="3.08387"/>
<feComposite in2="hardAlpha" operator="arithmetic" k2="-1" k3="1"/>
<feColorMatrix type="matrix" values="0 0 0 0 0 0 0 0 0 0 0 0 0 0 0 0 0 0 0.25 0"/>
<feBlend mode="normal" in2="shape" result="effect1_innerShadow_33_92058"/>
<feColorMatrix in="SourceAlpha" type="matrix" values="0 0 0 0 0 0 0 0 0 0 0 0 0 0 0 0 0 0 127 0" result="hardAlpha"/>
<feOffset dx="-6.16774" dy="6.16774"/>
<feGaussianBlur stdDeviation="3.08387"/>
<feComposite in2="hardAlpha" operator="arithmetic" k2="-1" k3="1"/>
<feColorMatrix type="matrix" values="0 0 0 0 1 0 0 0 0 1 0 0 0 0 1 0 0 0 0.25 0"/>
<feBlend mode="normal" in2="effect1_innerShadow_33_92058" result="effect2_innerShadow_33_92058"/>
</filter>
<filter id="filter21_ii_33_92058" x="117.315" y="100.329" width="18.607" height="21.596" filterUnits="userSpaceOnUse" color-interpolation-filters="sRGB">
<feFlood flood-opacity="0" result="BackgroundImageFix"/>
<feBlend mode="normal" in="SourceGraphic" in2="BackgroundImageFix" result="shape"/>
<feColorMatrix in="SourceAlpha" type="matrix" values="0 0 0 0 0 0 0 0 0 0 0 0 0 0 0 0 0 0 127 0" result="hardAlpha"/>
<feOffset dx="6.16774" dy="-6.16774"/>
<feGaussianBlur stdDeviation="3.08387"/>
<feComposite in2="hardAlpha" operator="arithmetic" k2="-1" k3="1"/>
<feColorMatrix type="matrix" values="0 0 0 0 0 0 0 0 0 0 0 0 0 0 0 0 0 0 0.25 0"/>
<feBlend mode="normal" in2="shape" result="effect1_innerShadow_33_92058"/>
<feColorMatrix in="SourceAlpha" type="matrix" values="0 0 0 0 0 0 0 0 0 0 0 0 0 0 0 0 0 0 127 0" result="hardAlpha"/>
<feOffset dx="-6.16774" dy="6.16774"/>
<feGaussianBlur stdDeviation="3.08387"/>
<feComposite in2="hardAlpha" operator="arithmetic" k2="-1" k3="1"/>
<feColorMatrix type="matrix" values="0 0 0 0 1 0 0 0 0 1 0 0 0 0 1 0 0 0 0.25 0"/>
<feBlend mode="normal" in2="effect1_innerShadow_33_92058" result="effect2_innerShadow_33_92058"/>
</filter>
<filter id="filter22_ii_33_92058" x="147.893" y="99.5569" width="17.0406" height="21.596" filterUnits="userSpaceOnUse" color-interpolation-filters="sRGB">
<feFlood flood-opacity="0" result="BackgroundImageFix"/>
<feBlend mode="normal" in="SourceGraphic" in2="BackgroundImageFix" result="shape"/>
<feColorMatrix in="SourceAlpha" type="matrix" values="0 0 0 0 0 0 0 0 0 0 0 0 0 0 0 0 0 0 127 0" result="hardAlpha"/>
<feOffset dx="6.16774" dy="-6.16774"/>
<feGaussianBlur stdDeviation="3.08387"/>
<feComposite in2="hardAlpha" operator="arithmetic" k2="-1" k3="1"/>
<feColorMatrix type="matrix" values="0 0 0 0 0 0 0 0 0 0 0 0 0 0 0 0 0 0 0.25 0"/>
<feBlend mode="normal" in2="shape" result="effect1_innerShadow_33_92058"/>
<feColorMatrix in="SourceAlpha" type="matrix" values="0 0 0 0 0 0 0 0 0 0 0 0 0 0 0 0 0 0 127 0" result="hardAlpha"/>
<feOffset dx="-6.16774" dy="6.16774"/>
<feGaussianBlur stdDeviation="3.08387"/>
<feComposite in2="hardAlpha" operator="arithmetic" k2="-1" k3="1"/>
<feColorMatrix type="matrix" values="0 0 0 0 1 0 0 0 0 1 0 0 0 0 1 0 0 0 0.25 0"/>
<feBlend mode="normal" in2="effect1_innerShadow_33_92058" result="effect2_innerShadow_33_92058"/>
</filter>
<filter id="filter23_ii_33_92058" x="152.596" y="98.7851" width="15.4722" height="20.0527" filterUnits="userSpaceOnUse" color-interpolation-filters="sRGB">
<feFlood flood-opacity="0" result="BackgroundImageFix"/>
<feBlend mode="normal" in="SourceGraphic" in2="BackgroundImageFix" result="shape"/>
<feColorMatrix in="SourceAlpha" type="matrix" values="0 0 0 0 0 0 0 0 0 0 0 0 0 0 0 0 0 0 127 0" result="hardAlpha"/>
<feOffset dx="6.16774" dy="-6.16774"/>
<feGaussianBlur stdDeviation="3.08387"/>
<feComposite in2="hardAlpha" operator="arithmetic" k2="-1" k3="1"/>
<feColorMatrix type="matrix" values="0 0 0 0 0 0 0 0 0 0 0 0 0 0 0 0 0 0 0.25 0"/>
<feBlend mode="normal" in2="shape" result="effect1_innerShadow_33_92058"/>
<feColorMatrix in="SourceAlpha" type="matrix" values="0 0 0 0 0 0 0 0 0 0 0 0 0 0 0 0 0 0 127 0" result="hardAlpha"/>
<feOffset dx="-6.16774" dy="6.16774"/>
<feGaussianBlur stdDeviation="3.08387"/>
<feComposite in2="hardAlpha" operator="arithmetic" k2="-1" k3="1"/>
<feColorMatrix type="matrix" values="0 0 0 0 1 0 0 0 0 1 0 0 0 0 1 0 0 0 0.25 0"/>
<feBlend mode="normal" in2="effect1_innerShadow_33_92058" result="effect2_innerShadow_33_92058"/>
</filter>
<filter id="filter24_ii_33_92058" x="112.559" y="101.1" width="16.9605" height="15.4223" filterUnits="userSpaceOnUse" color-interpolation-filters="sRGB">
<feFlood flood-opacity="0" result="BackgroundImageFix"/>
<feBlend mode="normal" in="SourceGraphic" in2="BackgroundImageFix" result="shape"/>
<feColorMatrix in="SourceAlpha" type="matrix" values="0 0 0 0 0 0 0 0 0 0 0 0 0 0 0 0 0 0 127 0" result="hardAlpha"/>
<feOffset dx="6.16774" dy="-6.16774"/>
<feGaussianBlur stdDeviation="3.08387"/>
<feComposite in2="hardAlpha" operator="arithmetic" k2="-1" k3="1"/>
<feColorMatrix type="matrix" values="0 0 0 0 0 0 0 0 0 0 0 0 0 0 0 0 0 0 0.25 0"/>
<feBlend mode="normal" in2="shape" result="effect1_innerShadow_33_92058"/>
<feColorMatrix in="SourceAlpha" type="matrix" values="0 0 0 0 0 0 0 0 0 0 0 0 0 0 0 0 0 0 127 0" result="hardAlpha"/>
<feOffset dx="-6.16774" dy="6.16774"/>
<feGaussianBlur stdDeviation="3.08387"/>
<feComposite in2="hardAlpha" operator="arithmetic" k2="-1" k3="1"/>
<feColorMatrix type="matrix" values="0 0 0 0 1 0 0 0 0 1 0 0 0 0 1 0 0 0 0.25 0"/>
<feBlend mode="normal" in2="effect1_innerShadow_33_92058" result="effect2_innerShadow_33_92058"/>
</filter>
<filter id="filter25_ii_33_92058" x="109.475" y="98.785" width="15.4722" height="20.0527" filterUnits="userSpaceOnUse" color-interpolation-filters="sRGB">
<feFlood flood-opacity="0" result="BackgroundImageFix"/>
<feBlend mode="normal" in="SourceGraphic" in2="BackgroundImageFix" result="shape"/>
<feColorMatrix in="SourceAlpha" type="matrix" values="0 0 0 0 0 0 0 0 0 0 0 0 0 0 0 0 0 0 127 0" result="hardAlpha"/>
<feOffset dx="6.16774" dy="-6.16774"/>
<feGaussianBlur stdDeviation="3.08387"/>
<feComposite in2="hardAlpha" operator="arithmetic" k2="-1" k3="1"/>
<feColorMatrix type="matrix" values="0 0 0 0 0 0 0 0 0 0 0 0 0 0 0 0 0 0 0.25 0"/>
<feBlend mode="normal" in2="shape" result="effect1_innerShadow_33_92058"/>
<feColorMatrix in="SourceAlpha" type="matrix" values="0 0 0 0 0 0 0 0 0 0 0 0 0 0 0 0 0 0 127 0" result="hardAlpha"/>
<feOffset dx="-6.16774" dy="6.16774"/>
<feGaussianBlur stdDeviation="3.08387"/>
<feComposite in2="hardAlpha" operator="arithmetic" k2="-1" k3="1"/>
<feColorMatrix type="matrix" values="0 0 0 0 1 0 0 0 0 1 0 0 0 0 1 0 0 0 0.25 0"/>
<feBlend mode="normal" in2="effect1_innerShadow_33_92058" result="effect2_innerShadow_33_92058"/>
</filter>
<filter id="filter26_i_33_92058" x="99.4531" y="57.1082" width="30.8379" height="26.2368" filterUnits="userSpaceOnUse" color-interpolation-filters="sRGB">
<feFlood flood-opacity="0" result="BackgroundImageFix"/>
<feBlend mode="normal" in="SourceGraphic" in2="BackgroundImageFix" result="shape"/>
<feColorMatrix in="SourceAlpha" type="matrix" values="0 0 0 0 0 0 0 0 0 0 0 0 0 0 0 0 0 0 127 0" result="hardAlpha"/>
<feOffset dy="-6.16774"/>
<feGaussianBlur stdDeviation="0.770968"/>
<feComposite in2="hardAlpha" operator="arithmetic" k2="-1" k3="1"/>
<feColorMatrix type="matrix" values="0 0 0 0 1 0 0 0 0 1 0 0 0 0 1 0 0 0 0.25 0"/>
<feBlend mode="normal" in2="shape" result="effect1_innerShadow_33_92058"/>
</filter>
<filter id="filter27_i_33_92058" x="127.83" y="70.6447" width="18.7988" height="21.9609" filterUnits="userSpaceOnUse" color-interpolation-filters="sRGB">
<feFlood flood-opacity="0" result="BackgroundImageFix"/>
<feBlend mode="normal" in="SourceGraphic" in2="BackgroundImageFix" result="shape"/>
<feColorMatrix in="SourceAlpha" type="matrix" values="0 0 0 0 0 0 0 0 0 0 0 0 0 0 0 0 0 0 127 0" result="hardAlpha"/>
<feOffset dy="-6.16774"/>
<feGaussianBlur stdDeviation="0.770968"/>
<feComposite in2="hardAlpha" operator="arithmetic" k2="-1" k3="1"/>
<feColorMatrix type="matrix" values="0 0 0 0 1 0 0 0 0 1 0 0 0 0 1 0 0 0 0.25 0"/>
<feBlend mode="normal" in2="shape" result="effect1_innerShadow_33_92058"/>
</filter>
<filter id="filter28_i_33_92058" x="144.17" y="57.1082" width="30.8379" height="26.2368" filterUnits="userSpaceOnUse" color-interpolation-filters="sRGB">
<feFlood flood-opacity="0" result="BackgroundImageFix"/>
<feBlend mode="normal" in="SourceGraphic" in2="BackgroundImageFix" result="shape"/>
<feColorMatrix in="SourceAlpha" type="matrix" values="0 0 0 0 0 0 0 0 0 0 0 0 0 0 0 0 0 0 127 0" result="hardAlpha"/>
<feOffset dy="-6.16774"/>
<feGaussianBlur stdDeviation="0.770968"/>
<feComposite in2="hardAlpha" operator="arithmetic" k2="-1" k3="1"/>
<feColorMatrix type="matrix" values="0 0 0 0 1 0 0 0 0 1 0 0 0 0 1 0 0 0 0.25 0"/>
<feBlend mode="normal" in2="shape" result="effect1_innerShadow_33_92058"/>
</filter>
<filter id="filter29_i_33_92058" x="24.9243" y="218.22" width="78.7046" height="81.1356" filterUnits="userSpaceOnUse" color-interpolation-filters="sRGB">
<feFlood flood-opacity="0" result="BackgroundImageFix"/>
<feBlend mode="normal" in="SourceGraphic" in2="BackgroundImageFix" result="shape"/>
<feColorMatrix in="SourceAlpha" type="matrix" values="0 0 0 0 0 0 0 0 0 0 0 0 0 0 0 0 0 0 127 0" result="hardAlpha"/>
<feOffset dx="-0.770968" dy="-3.85484"/>
<feGaussianBlur stdDeviation="1.54194"/>
<feComposite in2="hardAlpha" operator="arithmetic" k2="-1" k3="1"/>
<feColorMatrix type="matrix" values="0 0 0 0 0 0 0 0 0 0 0 0 0 0 0 0 0 0 0.25 0"/>
<feBlend mode="normal" in2="shape" result="effect1_innerShadow_33_92058"/>
</filter>
<filter id="filter30_i_33_92058" x="5.397" y="242.32" width="43.1694" height="45.7003" filterUnits="userSpaceOnUse" color-interpolation-filters="sRGB">
<feFlood flood-opacity="0" result="BackgroundImageFix"/>
<feBlend mode="normal" in="SourceGraphic" in2="BackgroundImageFix" result="shape"/>
<feColorMatrix in="SourceAlpha" type="matrix" values="0 0 0 0 0 0 0 0 0 0 0 0 0 0 0 0 0 0 127 0" result="hardAlpha"/>
<feOffset dx="-0.770968" dy="-3.85484"/>
<feGaussianBlur stdDeviation="1.54194"/>
<feComposite in2="hardAlpha" operator="arithmetic" k2="-1" k3="1"/>
<feColorMatrix type="matrix" values="0 0 0 0 0 0 0 0 0 0 0 0 0 0 0 0 0 0 0.25 0"/>
<feBlend mode="normal" in2="shape" result="effect1_innerShadow_33_92058"/>
</filter>
<filter id="filter31_di_33_92058" x="145.815" y="123.193" width="61.5136" height="62.7282" filterUnits="userSpaceOnUse" color-interpolation-filters="sRGB">
<feFlood flood-opacity="0" result="BackgroundImageFix"/>
<feColorMatrix in="SourceAlpha" type="matrix" values="0 0 0 0 0 0 0 0 0 0 0 0 0 0 0 0 0 0 127 0" result="hardAlpha"/>
<feOffset dx="-1.54194" dy="1.54194"/>
<feComposite in2="hardAlpha" operator="out"/>
<feColorMatrix type="matrix" values="0 0 0 0 0 0 0 0 0 0 0 0 0 0 0 0 0 0 0.2 0"/>
<feBlend mode="normal" in2="BackgroundImageFix" result="effect1_dropShadow_33_92058"/>
<feBlend mode="normal" in="SourceGraphic" in2="effect1_dropShadow_33_92058" result="shape"/>
<feColorMatrix in="SourceAlpha" type="matrix" values="0 0 0 0 0 0 0 0 0 0 0 0 0 0 0 0 0 0 127 0" result="hardAlpha"/>
<feOffset dx="1.54194" dy="-3.08387"/>
<feGaussianBlur stdDeviation="3.08387"/>
<feComposite in2="hardAlpha" operator="arithmetic" k2="-1" k3="1"/>
<feColorMatrix type="matrix" values="0 0 0 0 0 0 0 0 0 0 0 0 0 0 0 0 0 0 0.25 0"/>
<feBlend mode="normal" in2="shape" result="effect2_innerShadow_33_92058"/>
</filter>
<filter id="filter32_f_33_92058" x="151.175" y="125.566" width="53.1325" height="52.8605" filterUnits="userSpaceOnUse" color-interpolation-filters="sRGB">
<feFlood flood-opacity="0" result="BackgroundImageFix"/>
<feBlend mode="normal" in="SourceGraphic" in2="BackgroundImageFix" result="shape"/>
<feGaussianBlur stdDeviation="2.3129" result="effect1_foregroundBlur_33_92058"/>
</filter>
<filter id="filter33_f_33_92058" x="167.44" y="146.569" width="16.9644" height="16.9651" filterUnits="userSpaceOnUse" color-interpolation-filters="sRGB">
<feFlood flood-opacity="0" result="BackgroundImageFix"/>
<feBlend mode="normal" in="SourceGraphic" in2="BackgroundImageFix" result="shape"/>
<feGaussianBlur stdDeviation="3.08387" result="effect1_foregroundBlur_33_92058"/>
</filter>
<filter id="filter34_di_33_92058" x="0" y="240.008" width="85.8662" height="74.0757" filterUnits="userSpaceOnUse" color-interpolation-filters="sRGB">
<feFlood flood-opacity="0" result="BackgroundImageFix"/>
<feColorMatrix in="SourceAlpha" type="matrix" values="0 0 0 0 0 0 0 0 0 0 0 0 0 0 0 0 0 0 127 0" result="hardAlpha"/>
<feOffset dy="3.08387"/>
<feComposite in2="hardAlpha" operator="out"/>
<feColorMatrix type="matrix" values="0 0 0 0 0 0 0 0 0 0 0 0 0 0 0 0 0 0 0.25 0"/>
<feBlend mode="normal" in2="BackgroundImageFix" result="effect1_dropShadow_33_92058"/>
<feBlend mode="normal" in="SourceGraphic" in2="effect1_dropShadow_33_92058" result="shape"/>
<feColorMatrix in="SourceAlpha" type="matrix" values="0 0 0 0 0 0 0 0 0 0 0 0 0 0 0 0 0 0 127 0" result="hardAlpha"/>
<feOffset dx="1.54194" dy="-6.93871"/>
<feGaussianBlur stdDeviation="4.24032"/>
<feComposite in2="hardAlpha" operator="arithmetic" k2="-1" k3="1"/>
<feColorMatrix type="matrix" values="0 0 0 0 0 0 0 0 0 0 0 0 0 0 0 0 0 0 0.25 0"/>
<feBlend mode="normal" in2="shape" result="effect2_innerShadow_33_92058"/>
</filter>
<linearGradient id="paint0_linear_33_92058" x1="82.11" y1="22.3728" x2="82.11" y2="37.0353" gradientUnits="userSpaceOnUse">
<stop stop-color="#AC711B" stop-opacity="0"/>
<stop offset="0.291667" stop-color="#613B04" stop-opacity="0.0844156"/>
<stop offset="1" stop-color="#613B04"/>
</linearGradient>
</defs>
</svg>
