<svg width="125" height="359" viewBox="0 0 125 359" fill="none" xmlns="http://www.w3.org/2000/svg">
<circle cx="90" cy="339" r="20" fill="black" fill-opacity="0.12"/>
<circle cx="89.5" cy="339.5" r="8.5" fill="black" fill-opacity="0.2"/>
<g filter="url(#filter0_i_33_91970)">
<path d="M66.7503 206.953L83.5079 339.901C83.9223 343.189 86.9231 345.516 90.2105 345.098C93.4978 344.681 95.8268 341.678 95.4124 338.39L78.6549 205.442C78.2405 202.154 75.2396 199.827 71.9523 200.245C68.6649 200.662 66.3359 203.665 66.7503 206.953Z" fill="#854D0E"/>
</g>
<g filter="url(#filter1_iii_33_91970)">
<g filter="url(#filter2_ii_33_91970)">
<path d="M14.7709 146.884C13.4649 121.192 33.2331 99.2994 58.9243 97.9845C84.6156 96.6697 106.501 116.431 107.807 142.123L108.088 147.656C109.394 173.348 89.6261 195.241 63.9348 196.556C38.2436 197.871 16.3581 178.11 15.0522 152.418L14.7709 146.884Z" fill="#F7F1EB"/>
</g>
<g filter="url(#filter3_ii_33_91970)">
<rect width="49.6842" height="52.4337" rx="20" transform="matrix(0.998693 -0.0511111 0.0507658 0.998711 14.832 148.111)" fill="#F7F1EB"/>
<rect width="49.6842" height="52.4337" rx="20" transform="matrix(0.998693 -0.0511111 0.0507658 0.998711 58.25 145.889)" fill="#F7F1EB"/>
<path d="M44.3971 192.152C42.1909 192.264 40.4933 194.145 40.6054 196.351L41.0605 205.303C41.1726 207.509 43.0632 209.206 45.2694 209.093C45.6961 209.071 46.1183 208.981 46.5165 208.826L46.9676 208.651C47.7692 208.339 48.6498 208.294 49.4788 208.522L49.9454 208.651C50.3572 208.764 50.7846 208.811 51.2113 208.789L57.8316 208.45C58.1561 208.433 58.4774 208.377 58.7883 208.283L60.5272 207.756C61.0903 207.585 61.684 207.54 62.2662 207.625L64.9086 208.011C65.1675 208.049 65.4295 208.061 65.6908 208.048L74.5535 207.594C74.8431 207.579 75.1302 207.533 75.4097 207.456L77.5344 206.872C78.1293 206.708 78.7539 206.685 79.3594 206.803L81.099 207.141C81.4179 207.203 81.7432 207.226 82.0677 207.21L86.888 206.963C89.0943 206.85 90.7919 204.97 90.6797 202.764L90.2247 193.811C90.1125 191.605 88.2331 189.908 86.0268 190.021L44.3971 192.152Z" fill="#F7F1EB"/>
</g>
</g>
<g opacity="0.25" filter="url(#filter4_f_33_91970)">
<path d="M86.8998 120.078C88.9581 122.782 90.5801 128.419 87.3859 129.641C85.134 130.503 81.8093 127.601 80.323 125.476C78.6766 123.123 77.5679 120.99 79.2165 118.734C80.9892 116.308 85.0359 117.629 86.8998 120.078Z" fill="#F0FDF4"/>
</g>
<g filter="url(#filter5_i_33_91970)">
<g filter="url(#filter6_ii_33_91970)">
<path d="M70.2508 204.726C68.0736 204.837 66.3983 206.693 66.509 208.87L66.7159 212.941C66.772 214.045 67.7117 214.893 68.8149 214.837L72.7045 214.638C73.8076 214.581 74.6564 213.641 74.6004 212.538L74.3934 208.467C74.2827 206.289 72.428 204.615 70.2508 204.726Z" fill="white"/>
</g>
<g filter="url(#filter7_ii_33_91970)">
<path fill-rule="evenodd" clip-rule="evenodd" d="M81.4447 207.241L81.3702 205.774C81.2816 204.033 79.7979 202.693 78.0561 202.782C76.3184 202.871 74.9803 204.348 75.062 206.085L75.1372 207.564C77.0495 206.959 79.0795 206.824 81.0545 207.172L81.4447 207.241Z" fill="#44403C"/>
</g>
<path fill-rule="evenodd" clip-rule="evenodd" d="M67.1883 203.905L70.0117 202.447L70.4233 200.818L69.8186 199.033L69.9645 196.3L65.1965 193.128L71.0256 195.647L70.8797 198.38L71.7925 200.359L71.0324 202.616L66.2989 206.176L65.3629 207.273L65.403 208.063L64.9605 207.995C62.7421 207.659 60.4772 207.806 58.3202 208.425L58.2647 207.333C58.1725 205.383 59.6752 203.723 61.6267 203.623C63.0306 203.551 64.2852 204.306 64.9183 205.461L67.1883 203.905Z" fill="black" fill-opacity="0.2"/>
<g filter="url(#filter8_ii_33_91970)">
<path d="M53.6538 204.803C51.912 204.892 50.5718 206.376 50.6603 208.118L50.8682 212.208C50.9243 213.311 51.864 214.16 52.9671 214.103L55.2799 213.985C56.383 213.928 57.2318 212.988 57.1757 211.885L56.9679 207.795C56.8793 206.054 55.3955 204.714 53.6538 204.803Z" fill="white"/>
</g>
<g filter="url(#filter9_ii_33_91970)">
<path d="M83.5763 202.5C82.2699 202.566 81.2648 203.68 81.3312 204.986L81.5791 209.864C81.6352 210.967 82.5749 211.816 83.6781 211.759L84.4139 211.722C85.5171 211.665 86.3659 210.725 86.3098 209.622L86.0618 204.744C85.9954 203.438 84.8826 202.433 83.5763 202.5Z" fill="white"/>
</g>
<g filter="url(#filter10_ii_33_91970)">
<path d="M87.4792 201.528C86.6083 201.572 85.9382 202.314 85.9825 203.185L86.2136 207.732C86.2579 208.603 86.9998 209.273 87.8707 209.229C88.7416 209.184 89.4117 208.442 89.3674 207.571L89.1363 203.024C89.092 202.153 88.3501 201.483 87.4792 201.528Z" fill="white"/>
</g>
<g filter="url(#filter11_ii_33_91970)">
<path fill-rule="evenodd" clip-rule="evenodd" d="M50.5662 208.822L50.5278 208.067C50.4625 206.783 49.3683 205.795 48.0837 205.86C46.8023 205.926 45.8156 207.015 45.8756 208.296L45.9144 209.06C47.3303 208.648 48.819 208.552 50.2759 208.777L50.5662 208.822Z" fill="#44403C"/>
</g>
<g filter="url(#filter12_ii_33_91970)">
<path d="M44.1159 203.747C43.2451 203.792 42.5749 204.534 42.6192 205.405L42.8504 209.952C42.8946 210.823 43.6365 211.492 44.5074 211.448C45.3783 211.403 46.0484 210.661 46.0041 209.79L45.773 205.243C45.7287 204.372 44.9868 203.702 44.1159 203.747Z" fill="white"/>
</g>
</g>
<g filter="url(#filter13_i_33_91970)">
<rect width="31.0526" height="24.6747" rx="12.3373" transform="matrix(0.998693 -0.0511111 0.0507658 0.998711 23.9062 158.456)" fill="#0F172A"/>
</g>
<g filter="url(#filter14_i_33_91970)">
<path d="M57.0231 174.187C58.84 168.917 66.1988 168.54 68.5406 173.597L72.1937 181.486C74.0291 185.449 71.2524 190.005 66.8644 190.229L60.3771 190.561C55.9891 190.786 52.7649 186.537 54.1888 182.407L57.0231 174.187Z" fill="#0F172A"/>
</g>
<g filter="url(#filter15_i_33_91970)">
<rect width="31.0526" height="24.6747" rx="12.3373" transform="matrix(0.998693 -0.0511111 0.0507658 0.998711 68.875 156.154)" fill="#0F172A"/>
</g>
<g filter="url(#filter16_i_33_91970)">
<path d="M47 113.449L55 112.206L63 109.914V105L59 107.414L44.6769 112.206L41 117.069L41.5846 122.619L39 129.138L51 140L42.0923 128.416L44.6769 121.897V117.069L47 113.449Z" fill="black" fill-opacity="0.2"/>
</g>
<circle cx="60" cy="105" r="8" fill="black" fill-opacity="0.2"/>
<g filter="url(#filter17_i_33_91970)">
<path d="M47.0379 21.5988C46.9449 19.1838 50.4181 18.7027 50.981 21.0526L60.5118 60.8424L66.0354 104.665C66.4498 107.953 64.1208 110.956 60.8335 111.373C57.5462 111.79 54.5453 109.463 54.1309 106.176L48.6073 62.3531L47.0379 21.5988Z" fill="#854D0E"/>
</g>
<g filter="url(#filter18_i_33_91970)">
<path fill-rule="evenodd" clip-rule="evenodd" d="M76.1612 84.5191C78.0602 86.0127 84.1981 83.2965 85.7805 81.3412C87.3629 79.386 86.2383 75.9074 84.3394 74.4137C82.4404 72.9201 78.717 72.5854 77.1346 74.5406C75.9626 75.9888 74.951 79.9464 75.2767 82.5086C73.6243 83.3169 72.1139 84.1597 70.7383 85.0469C70.9774 82.5518 70.4491 79.4926 69.5831 78.2061C68.1784 76.1195 64.2441 76.2579 62.0389 77.7014C59.8337 79.1449 58.1381 82.6916 59.5428 84.7782C60.4856 86.1788 63.5646 88.0198 66.1542 88.6424C64.7464 90.0075 63.5653 91.4757 62.5932 93.0709C61.0652 95.5782 60.0766 98.3614 59.5163 101.488C59.1757 99.285 57.261 96.1612 55.89 95.2248C54.0752 93.9853 50.4727 96.6363 49.2806 98.3324C48.0886 100.028 48.042 104.395 49.8568 105.635C51.6549 106.863 57.9704 104.964 59.246 103.28C58.9509 105.66 58.8733 108.23 58.9699 111.017C58.9891 111.569 59.452 112.001 60.004 111.983C60.556 111.964 60.9879 111.501 60.9688 110.949C60.9243 109.665 60.9182 108.438 60.9536 107.264C62.3263 108.818 64.3819 110.4 65.6813 110.9C67.919 111.76 70.6454 109.04 71.2726 107.43C71.8999 105.821 70.481 102.032 68.2433 101.171C66.6814 100.57 63.39 101.577 61.331 102.788C61.8205 99.4589 62.7774 96.6131 64.3013 94.1126C65.1517 92.7172 66.1876 91.4146 67.4362 90.1872C67.638 91.6427 68.0781 93.1297 68.5687 93.9096C69.6324 95.6008 73.0222 95.044 74.3485 94.2327C75.6749 93.4215 76.802 90.0969 75.7383 88.4057C75.2277 87.5941 73.7315 86.9107 72.1666 86.5091C73.3339 85.7754 74.6111 85.0672 76.0063 84.3791C76.0554 84.4297 76.107 84.4764 76.1612 84.5191Z" fill="#15803D"/>
</g>
<defs>
<filter id="filter0_i_33_91970" x="66.7031" y="197.196" width="32.7578" height="147.951" filterUnits="userSpaceOnUse" color-interpolation-filters="sRGB">
<feFlood flood-opacity="0" result="BackgroundImageFix"/>
<feBlend mode="normal" in="SourceGraphic" in2="BackgroundImageFix" result="shape"/>
<feColorMatrix in="SourceAlpha" type="matrix" values="0 0 0 0 0 0 0 0 0 0 0 0 0 0 0 0 0 0 127 0" result="hardAlpha"/>
<feOffset dx="5" dy="-3"/>
<feGaussianBlur stdDeviation="2"/>
<feComposite in2="hardAlpha" operator="arithmetic" k2="-1" k3="1"/>
<feColorMatrix type="matrix" values="0 0 0 0 0 0 0 0 0 0 0 0 0 0 0 0 0 0 0.25 0"/>
<feBlend mode="normal" in2="shape" result="effect1_innerShadow_33_91970"/>
</filter>
<filter id="filter1_iii_33_91970" x="-1.28906" y="73.9224" width="134.832" height="159.176" filterUnits="userSpaceOnUse" color-interpolation-filters="sRGB">
<feFlood flood-opacity="0" result="BackgroundImageFix"/>
<feBlend mode="normal" in="SourceGraphic" in2="BackgroundImageFix" result="shape"/>
<feColorMatrix in="SourceAlpha" type="matrix" values="0 0 0 0 0 0 0 0 0 0 0 0 0 0 0 0 0 0 127 0" result="hardAlpha"/>
<feOffset dx="24" dy="-24"/>
<feGaussianBlur stdDeviation="21"/>
<feComposite in2="hardAlpha" operator="arithmetic" k2="-1" k3="1"/>
<feColorMatrix type="matrix" values="0 0 0 0 0 0 0 0 0 0 0 0 0 0 0 0 0 0 0.25 0"/>
<feBlend mode="normal" in2="shape" result="effect1_innerShadow_33_91970"/>
<feColorMatrix in="SourceAlpha" type="matrix" values="0 0 0 0 0 0 0 0 0 0 0 0 0 0 0 0 0 0 127 0" result="hardAlpha"/>
<feOffset dx="8" dy="-8"/>
<feGaussianBlur stdDeviation="8"/>
<feComposite in2="hardAlpha" operator="arithmetic" k2="-1" k3="1"/>
<feColorMatrix type="matrix" values="0 0 0 0 0 0 0 0 0 0 0 0 0 0 0 0 0 0 0.25 0"/>
<feBlend mode="normal" in2="effect1_innerShadow_33_91970" result="effect2_innerShadow_33_91970"/>
<feColorMatrix in="SourceAlpha" type="matrix" values="0 0 0 0 0 0 0 0 0 0 0 0 0 0 0 0 0 0 127 0" result="hardAlpha"/>
<feOffset dx="-16" dy="24"/>
<feGaussianBlur stdDeviation="12"/>
<feComposite in2="hardAlpha" operator="arithmetic" k2="-1" k3="1"/>
<feColorMatrix type="matrix" values="0 0 0 0 1 0 0 0 0 1 0 0 0 0 1 0 0 0 0.25 0"/>
<feBlend mode="normal" in2="effect2_innerShadow_33_91970" result="effect3_innerShadow_33_91970"/>
</filter>
<filter id="filter2_ii_33_91970" x="-1.28906" y="73.9224" width="133.438" height="146.696" filterUnits="userSpaceOnUse" color-interpolation-filters="sRGB">
<feFlood flood-opacity="0" result="BackgroundImageFix"/>
<feBlend mode="normal" in="SourceGraphic" in2="BackgroundImageFix" result="shape"/>
<feColorMatrix in="SourceAlpha" type="matrix" values="0 0 0 0 0 0 0 0 0 0 0 0 0 0 0 0 0 0 127 0" result="hardAlpha"/>
<feOffset dx="24" dy="-24"/>
<feGaussianBlur stdDeviation="21"/>
<feComposite in2="hardAlpha" operator="arithmetic" k2="-1" k3="1"/>
<feColorMatrix type="matrix" values="0 0 0 0 0 0 0 0 0 0 0 0 0 0 0 0 0 0 0.25 0"/>
<feBlend mode="normal" in2="shape" result="effect1_innerShadow_33_91970"/>
<feColorMatrix in="SourceAlpha" type="matrix" values="0 0 0 0 0 0 0 0 0 0 0 0 0 0 0 0 0 0 127 0" result="hardAlpha"/>
<feOffset dx="-16" dy="24"/>
<feGaussianBlur stdDeviation="12"/>
<feComposite in2="hardAlpha" operator="arithmetic" k2="-1" k3="1"/>
<feColorMatrix type="matrix" values="0 0 0 0 1 0 0 0 0 1 0 0 0 0 1 0 0 0 0.25 0"/>
<feBlend mode="normal" in2="effect1_innerShadow_33_91970" result="effect2_innerShadow_33_91970"/>
</filter>
<filter id="filter3_ii_33_91970" x="7.82031" y="136.345" width="109.723" height="80.7534" filterUnits="userSpaceOnUse" color-interpolation-filters="sRGB">
<feFlood flood-opacity="0" result="BackgroundImageFix"/>
<feBlend mode="normal" in="SourceGraphic" in2="BackgroundImageFix" result="shape"/>
<feColorMatrix in="SourceAlpha" type="matrix" values="0 0 0 0 0 0 0 0 0 0 0 0 0 0 0 0 0 0 127 0" result="hardAlpha"/>
<feOffset dx="8" dy="-8"/>
<feGaussianBlur stdDeviation="4"/>
<feComposite in2="hardAlpha" operator="arithmetic" k2="-1" k3="1"/>
<feColorMatrix type="matrix" values="0 0 0 0 0 0 0 0 0 0 0 0 0 0 0 0 0 0 0.25 0"/>
<feBlend mode="normal" in2="shape" result="effect1_innerShadow_33_91970"/>
<feColorMatrix in="SourceAlpha" type="matrix" values="0 0 0 0 0 0 0 0 0 0 0 0 0 0 0 0 0 0 127 0" result="hardAlpha"/>
<feOffset dx="-8" dy="8"/>
<feGaussianBlur stdDeviation="4"/>
<feComposite in2="hardAlpha" operator="arithmetic" k2="-1" k3="1"/>
<feColorMatrix type="matrix" values="0 0 0 0 1 0 0 0 0 1 0 0 0 0 1 0 0 0 0.25 0"/>
<feBlend mode="normal" in2="effect1_innerShadow_33_91970" result="effect2_innerShadow_33_91970"/>
</filter>
<filter id="filter4_f_33_91970" x="75.8647" y="114.91" width="15.8604" height="17.4248" filterUnits="userSpaceOnUse" color-interpolation-filters="sRGB">
<feFlood flood-opacity="0" result="BackgroundImageFix"/>
<feBlend mode="normal" in="SourceGraphic" in2="BackgroundImageFix" result="shape"/>
<feGaussianBlur stdDeviation="1.26881" result="effect1_foregroundBlur_33_91970"/>
</filter>
<filter id="filter5_i_33_91970" x="42.6172" y="193.128" width="50.7539" height="21.7114" filterUnits="userSpaceOnUse" color-interpolation-filters="sRGB">
<feFlood flood-opacity="0" result="BackgroundImageFix"/>
<feBlend mode="normal" in="SourceGraphic" in2="BackgroundImageFix" result="shape"/>
<feColorMatrix in="SourceAlpha" type="matrix" values="0 0 0 0 0 0 0 0 0 0 0 0 0 0 0 0 0 0 127 0" result="hardAlpha"/>
<feOffset dx="8"/>
<feGaussianBlur stdDeviation="2"/>
<feComposite in2="hardAlpha" operator="arithmetic" k2="-1" k3="1"/>
<feColorMatrix type="matrix" values="0 0 0 0 0 0 0 0 0 0 0 0 0 0 0 0 0 0 0.25 0"/>
<feBlend mode="normal" in2="shape" result="effect1_innerShadow_33_91970"/>
</filter>
<filter id="filter6_ii_33_91970" x="58.5039" y="196.721" width="24.0977" height="26.1187" filterUnits="userSpaceOnUse" color-interpolation-filters="sRGB">
<feFlood flood-opacity="0" result="BackgroundImageFix"/>
<feBlend mode="normal" in="SourceGraphic" in2="BackgroundImageFix" result="shape"/>
<feColorMatrix in="SourceAlpha" type="matrix" values="0 0 0 0 0 0 0 0 0 0 0 0 0 0 0 0 0 0 127 0" result="hardAlpha"/>
<feOffset dx="8" dy="-8"/>
<feGaussianBlur stdDeviation="4"/>
<feComposite in2="hardAlpha" operator="arithmetic" k2="-1" k3="1"/>
<feColorMatrix type="matrix" values="0 0 0 0 0 0 0 0 0 0 0 0 0 0 0 0 0 0 0.25 0"/>
<feBlend mode="normal" in2="shape" result="effect1_innerShadow_33_91970"/>
<feColorMatrix in="SourceAlpha" type="matrix" values="0 0 0 0 0 0 0 0 0 0 0 0 0 0 0 0 0 0 127 0" result="hardAlpha"/>
<feOffset dx="-8" dy="8"/>
<feGaussianBlur stdDeviation="4"/>
<feComposite in2="hardAlpha" operator="arithmetic" k2="-1" k3="1"/>
<feColorMatrix type="matrix" values="0 0 0 0 1 0 0 0 0 1 0 0 0 0 1 0 0 0 0.25 0"/>
<feBlend mode="normal" in2="effect1_innerShadow_33_91970" result="effect2_innerShadow_33_91970"/>
</filter>
<filter id="filter7_ii_33_91970" x="67.0586" y="194.778" width="22.3867" height="20.7861" filterUnits="userSpaceOnUse" color-interpolation-filters="sRGB">
<feFlood flood-opacity="0" result="BackgroundImageFix"/>
<feBlend mode="normal" in="SourceGraphic" in2="BackgroundImageFix" result="shape"/>
<feColorMatrix in="SourceAlpha" type="matrix" values="0 0 0 0 0 0 0 0 0 0 0 0 0 0 0 0 0 0 127 0" result="hardAlpha"/>
<feOffset dx="8" dy="-8"/>
<feGaussianBlur stdDeviation="4"/>
<feComposite in2="hardAlpha" operator="arithmetic" k2="-1" k3="1"/>
<feColorMatrix type="matrix" values="0 0 0 0 0 0 0 0 0 0 0 0 0 0 0 0 0 0 0.25 0"/>
<feBlend mode="normal" in2="shape" result="effect1_innerShadow_33_91970"/>
<feColorMatrix in="SourceAlpha" type="matrix" values="0 0 0 0 0 0 0 0 0 0 0 0 0 0 0 0 0 0 127 0" result="hardAlpha"/>
<feOffset dx="-8" dy="8"/>
<feGaussianBlur stdDeviation="4"/>
<feComposite in2="hardAlpha" operator="arithmetic" k2="-1" k3="1"/>
<feColorMatrix type="matrix" values="0 0 0 0 1 0 0 0 0 1 0 0 0 0 1 0 0 0 0.25 0"/>
<feBlend mode="normal" in2="effect1_innerShadow_33_91970" result="effect2_innerShadow_33_91970"/>
</filter>
<filter id="filter8_ii_33_91970" x="42.6562" y="196.799" width="22.5234" height="25.3071" filterUnits="userSpaceOnUse" color-interpolation-filters="sRGB">
<feFlood flood-opacity="0" result="BackgroundImageFix"/>
<feBlend mode="normal" in="SourceGraphic" in2="BackgroundImageFix" result="shape"/>
<feColorMatrix in="SourceAlpha" type="matrix" values="0 0 0 0 0 0 0 0 0 0 0 0 0 0 0 0 0 0 127 0" result="hardAlpha"/>
<feOffset dx="8" dy="-8"/>
<feGaussianBlur stdDeviation="4"/>
<feComposite in2="hardAlpha" operator="arithmetic" k2="-1" k3="1"/>
<feColorMatrix type="matrix" values="0 0 0 0 0 0 0 0 0 0 0 0 0 0 0 0 0 0 0.25 0"/>
<feBlend mode="normal" in2="shape" result="effect1_innerShadow_33_91970"/>
<feColorMatrix in="SourceAlpha" type="matrix" values="0 0 0 0 0 0 0 0 0 0 0 0 0 0 0 0 0 0 127 0" result="hardAlpha"/>
<feOffset dx="-8" dy="8"/>
<feGaussianBlur stdDeviation="4"/>
<feComposite in2="hardAlpha" operator="arithmetic" k2="-1" k3="1"/>
<feColorMatrix type="matrix" values="0 0 0 0 1 0 0 0 0 1 0 0 0 0 1 0 0 0 0.25 0"/>
<feBlend mode="normal" in2="effect1_innerShadow_33_91970" result="effect2_innerShadow_33_91970"/>
</filter>
<filter id="filter9_ii_33_91970" x="73.3281" y="194.497" width="20.9844" height="25.2656" filterUnits="userSpaceOnUse" color-interpolation-filters="sRGB">
<feFlood flood-opacity="0" result="BackgroundImageFix"/>
<feBlend mode="normal" in="SourceGraphic" in2="BackgroundImageFix" result="shape"/>
<feColorMatrix in="SourceAlpha" type="matrix" values="0 0 0 0 0 0 0 0 0 0 0 0 0 0 0 0 0 0 127 0" result="hardAlpha"/>
<feOffset dx="8" dy="-8"/>
<feGaussianBlur stdDeviation="4"/>
<feComposite in2="hardAlpha" operator="arithmetic" k2="-1" k3="1"/>
<feColorMatrix type="matrix" values="0 0 0 0 0 0 0 0 0 0 0 0 0 0 0 0 0 0 0.25 0"/>
<feBlend mode="normal" in2="shape" result="effect1_innerShadow_33_91970"/>
<feColorMatrix in="SourceAlpha" type="matrix" values="0 0 0 0 0 0 0 0 0 0 0 0 0 0 0 0 0 0 127 0" result="hardAlpha"/>
<feOffset dx="-8" dy="8"/>
<feGaussianBlur stdDeviation="4"/>
<feComposite in2="hardAlpha" operator="arithmetic" k2="-1" k3="1"/>
<feColorMatrix type="matrix" values="0 0 0 0 1 0 0 0 0 1 0 0 0 0 1 0 0 0 0.25 0"/>
<feBlend mode="normal" in2="effect1_innerShadow_33_91970" result="effect2_innerShadow_33_91970"/>
</filter>
<filter id="filter10_ii_33_91970" x="77.9805" y="193.525" width="19.3906" height="23.7051" filterUnits="userSpaceOnUse" color-interpolation-filters="sRGB">
<feFlood flood-opacity="0" result="BackgroundImageFix"/>
<feBlend mode="normal" in="SourceGraphic" in2="BackgroundImageFix" result="shape"/>
<feColorMatrix in="SourceAlpha" type="matrix" values="0 0 0 0 0 0 0 0 0 0 0 0 0 0 0 0 0 0 127 0" result="hardAlpha"/>
<feOffset dx="8" dy="-8"/>
<feGaussianBlur stdDeviation="4"/>
<feComposite in2="hardAlpha" operator="arithmetic" k2="-1" k3="1"/>
<feColorMatrix type="matrix" values="0 0 0 0 0 0 0 0 0 0 0 0 0 0 0 0 0 0 0.25 0"/>
<feBlend mode="normal" in2="shape" result="effect1_innerShadow_33_91970"/>
<feColorMatrix in="SourceAlpha" type="matrix" values="0 0 0 0 0 0 0 0 0 0 0 0 0 0 0 0 0 0 127 0" result="hardAlpha"/>
<feOffset dx="-8" dy="8"/>
<feGaussianBlur stdDeviation="4"/>
<feComposite in2="hardAlpha" operator="arithmetic" k2="-1" k3="1"/>
<feColorMatrix type="matrix" values="0 0 0 0 1 0 0 0 0 1 0 0 0 0 1 0 0 0 0.25 0"/>
<feBlend mode="normal" in2="effect1_innerShadow_33_91970" result="effect2_innerShadow_33_91970"/>
</filter>
<filter id="filter11_ii_33_91970" x="37.8711" y="197.857" width="20.6953" height="19.2026" filterUnits="userSpaceOnUse" color-interpolation-filters="sRGB">
<feFlood flood-opacity="0" result="BackgroundImageFix"/>
<feBlend mode="normal" in="SourceGraphic" in2="BackgroundImageFix" result="shape"/>
<feColorMatrix in="SourceAlpha" type="matrix" values="0 0 0 0 0 0 0 0 0 0 0 0 0 0 0 0 0 0 127 0" result="hardAlpha"/>
<feOffset dx="8" dy="-8"/>
<feGaussianBlur stdDeviation="4"/>
<feComposite in2="hardAlpha" operator="arithmetic" k2="-1" k3="1"/>
<feColorMatrix type="matrix" values="0 0 0 0 0 0 0 0 0 0 0 0 0 0 0 0 0 0 0.25 0"/>
<feBlend mode="normal" in2="shape" result="effect1_innerShadow_33_91970"/>
<feColorMatrix in="SourceAlpha" type="matrix" values="0 0 0 0 0 0 0 0 0 0 0 0 0 0 0 0 0 0 127 0" result="hardAlpha"/>
<feOffset dx="-8" dy="8"/>
<feGaussianBlur stdDeviation="4"/>
<feComposite in2="hardAlpha" operator="arithmetic" k2="-1" k3="1"/>
<feColorMatrix type="matrix" values="0 0 0 0 1 0 0 0 0 1 0 0 0 0 1 0 0 0 0.25 0"/>
<feBlend mode="normal" in2="effect1_innerShadow_33_91970" result="effect2_innerShadow_33_91970"/>
</filter>
<filter id="filter12_ii_33_91970" x="34.6172" y="195.745" width="19.3906" height="23.7051" filterUnits="userSpaceOnUse" color-interpolation-filters="sRGB">
<feFlood flood-opacity="0" result="BackgroundImageFix"/>
<feBlend mode="normal" in="SourceGraphic" in2="BackgroundImageFix" result="shape"/>
<feColorMatrix in="SourceAlpha" type="matrix" values="0 0 0 0 0 0 0 0 0 0 0 0 0 0 0 0 0 0 127 0" result="hardAlpha"/>
<feOffset dx="8" dy="-8"/>
<feGaussianBlur stdDeviation="4"/>
<feComposite in2="hardAlpha" operator="arithmetic" k2="-1" k3="1"/>
<feColorMatrix type="matrix" values="0 0 0 0 0 0 0 0 0 0 0 0 0 0 0 0 0 0 0.25 0"/>
<feBlend mode="normal" in2="shape" result="effect1_innerShadow_33_91970"/>
<feColorMatrix in="SourceAlpha" type="matrix" values="0 0 0 0 0 0 0 0 0 0 0 0 0 0 0 0 0 0 127 0" result="hardAlpha"/>
<feOffset dx="-8" dy="8"/>
<feGaussianBlur stdDeviation="4"/>
<feComposite in2="hardAlpha" operator="arithmetic" k2="-1" k3="1"/>
<feColorMatrix type="matrix" values="0 0 0 0 1 0 0 0 0 1 0 0 0 0 1 0 0 0 0.25 0"/>
<feBlend mode="normal" in2="effect1_innerShadow_33_91970" result="effect2_innerShadow_33_91970"/>
</filter>
<filter id="filter13_i_33_91970" x="24.5156" y="155.482" width="31.0469" height="27.002" filterUnits="userSpaceOnUse" color-interpolation-filters="sRGB">
<feFlood flood-opacity="0" result="BackgroundImageFix"/>
<feBlend mode="normal" in="SourceGraphic" in2="BackgroundImageFix" result="shape"/>
<feColorMatrix in="SourceAlpha" type="matrix" values="0 0 0 0 0 0 0 0 0 0 0 0 0 0 0 0 0 0 127 0" result="hardAlpha"/>
<feOffset dy="-8"/>
<feGaussianBlur stdDeviation="1"/>
<feComposite in2="hardAlpha" operator="arithmetic" k2="-1" k3="1"/>
<feColorMatrix type="matrix" values="0 0 0 0 1 0 0 0 0 1 0 0 0 0 1 0 0 0 0.25 0"/>
<feBlend mode="normal" in2="shape" result="effect1_innerShadow_33_91970"/>
</filter>
<filter id="filter14_i_33_91970" x="53.8477" y="168.011" width="18.9219" height="22.5591" filterUnits="userSpaceOnUse" color-interpolation-filters="sRGB">
<feFlood flood-opacity="0" result="BackgroundImageFix"/>
<feBlend mode="normal" in="SourceGraphic" in2="BackgroundImageFix" result="shape"/>
<feColorMatrix in="SourceAlpha" type="matrix" values="0 0 0 0 0 0 0 0 0 0 0 0 0 0 0 0 0 0 127 0" result="hardAlpha"/>
<feOffset dy="-8"/>
<feGaussianBlur stdDeviation="1"/>
<feComposite in2="hardAlpha" operator="arithmetic" k2="-1" k3="1"/>
<feColorMatrix type="matrix" values="0 0 0 0 1 0 0 0 0 1 0 0 0 0 1 0 0 0 0.25 0"/>
<feBlend mode="normal" in2="shape" result="effect1_innerShadow_33_91970"/>
</filter>
<filter id="filter15_i_33_91970" x="69.4844" y="153.181" width="31.0469" height="27.002" filterUnits="userSpaceOnUse" color-interpolation-filters="sRGB">
<feFlood flood-opacity="0" result="BackgroundImageFix"/>
<feBlend mode="normal" in="SourceGraphic" in2="BackgroundImageFix" result="shape"/>
<feColorMatrix in="SourceAlpha" type="matrix" values="0 0 0 0 0 0 0 0 0 0 0 0 0 0 0 0 0 0 127 0" result="hardAlpha"/>
<feOffset dy="-8"/>
<feGaussianBlur stdDeviation="1"/>
<feComposite in2="hardAlpha" operator="arithmetic" k2="-1" k3="1"/>
<feColorMatrix type="matrix" values="0 0 0 0 1 0 0 0 0 1 0 0 0 0 1 0 0 0 0.25 0"/>
<feBlend mode="normal" in2="shape" result="effect1_innerShadow_33_91970"/>
</filter>
<filter id="filter16_i_33_91970" x="39" y="105" width="26" height="36.0005" filterUnits="userSpaceOnUse" color-interpolation-filters="sRGB">
<feFlood flood-opacity="0" result="BackgroundImageFix"/>
<feBlend mode="normal" in="SourceGraphic" in2="BackgroundImageFix" result="shape"/>
<feColorMatrix in="SourceAlpha" type="matrix" values="0 0 0 0 0 0 0 0 0 0 0 0 0 0 0 0 0 0 127 0" result="hardAlpha"/>
<feOffset dx="2" dy="1"/>
<feGaussianBlur stdDeviation="1.5"/>
<feComposite in2="hardAlpha" operator="arithmetic" k2="-1" k3="1"/>
<feColorMatrix type="matrix" values="0 0 0 0 0 0 0 0 0 0 0 0 0 0 0 0 0 0 0.25 0"/>
<feBlend mode="normal" in2="shape" result="effect1_innerShadow_33_91970"/>
</filter>
<filter id="filter17_i_33_91970" x="47.0352" y="16.5181" width="23.0469" height="94.9033" filterUnits="userSpaceOnUse" color-interpolation-filters="sRGB">
<feFlood flood-opacity="0" result="BackgroundImageFix"/>
<feBlend mode="normal" in="SourceGraphic" in2="BackgroundImageFix" result="shape"/>
<feColorMatrix in="SourceAlpha" type="matrix" values="0 0 0 0 0 0 0 0 0 0 0 0 0 0 0 0 0 0 127 0" result="hardAlpha"/>
<feOffset dx="5" dy="-3"/>
<feGaussianBlur stdDeviation="2"/>
<feComposite in2="hardAlpha" operator="arithmetic" k2="-1" k3="1"/>
<feColorMatrix type="matrix" values="0 0 0 0 0 0 0 0 0 0 0 0 0 0 0 0 0 0 0.25 0"/>
<feBlend mode="normal" in2="shape" result="effect1_innerShadow_33_91970"/>
</filter>
<filter id="filter18_i_33_91970" x="46" y="69" width="41" height="43" filterUnits="userSpaceOnUse" color-interpolation-filters="sRGB">
<feFlood flood-opacity="0" result="BackgroundImageFix"/>
<feBlend mode="normal" in="SourceGraphic" in2="BackgroundImageFix" result="shape"/>
<feColorMatrix in="SourceAlpha" type="matrix" values="0 0 0 0 0 0 0 0 0 0 0 0 0 0 0 0 0 0 127 0" result="hardAlpha"/>
<feOffset dx="-1" dy="-5"/>
<feGaussianBlur stdDeviation="2"/>
<feComposite in2="hardAlpha" operator="arithmetic" k2="-1" k3="1"/>
<feColorMatrix type="matrix" values="0 0 0 0 0 0 0 0 0 0 0 0 0 0 0 0 0 0 0.25 0"/>
<feBlend mode="normal" in2="shape" result="effect1_innerShadow_33_91970"/>
</filter>
</defs>
</svg>
