<svg width="79" height="79" viewBox="0 0 79 79" fill="none" xmlns="http://www.w3.org/2000/svg">
<g filter="url(#filter0_di_33_91984)">
<path d="M40.0883 2.80415L30.0823 17.1067C29.376 18.116 28.4334 18.9387 27.3358 19.504C26.2382 20.0694 25.0183 20.3603 23.7814 20.3518L6.25899 20.2216C5.46791 20.2168 4.6917 20.4323 4.01805 20.8437C3.3444 21.2551 2.80018 21.8462 2.44686 22.5499C2.09353 23.2537 1.94517 24.0422 2.01858 24.8264C2.09199 25.6105 2.38421 26.3591 2.86225 26.9874L13.4527 40.9043C14.2008 41.8864 14.6978 43.0344 14.9009 44.2493C15.104 45.4642 15.0071 46.7094 14.6186 47.8774L9.12358 64.4299C8.87624 65.177 8.8438 65.9785 9.02993 66.7438C9.21605 67.5092 9.61333 68.208 10.1769 68.7612C10.7405 69.3145 11.4479 69.7003 12.2193 69.875C12.9907 70.0496 13.7954 70.0063 14.5425 69.7498L31.0918 64.051C32.2595 63.6466 33.5091 63.531 34.7328 63.714C35.9566 63.8971 37.1179 64.3734 38.1168 65.1019L52.2447 75.4631C52.8834 75.9299 53.6402 76.2096 54.4295 76.2708C55.2188 76.332 56.0091 76.1721 56.711 75.8093C57.4129 75.4465 57.9984 74.8952 58.4013 74.2178C58.8041 73.5404 59.0082 72.7639 58.9906 71.9762L58.6253 54.5361C58.6004 53.3051 58.8762 52.0872 59.4292 50.9869C59.9821 49.8867 60.7956 48.9372 61.7995 48.2201L76.0263 38.0662C76.668 37.6074 77.1677 36.9789 77.469 36.2516C77.7702 35.5244 77.861 34.7274 77.7311 33.9506C77.6012 33.1738 77.2557 32.4482 76.7337 31.8557C76.2117 31.2632 75.534 30.8275 74.7771 30.5977L58.0026 25.5199C56.8185 25.1604 55.7393 24.5202 54.8577 23.6544C53.9762 22.7885 53.3186 21.7229 52.9417 20.5493L47.6074 3.92572C47.3647 3.17617 46.9164 2.50869 46.313 1.99875C45.7097 1.4888 44.9754 1.15673 44.1932 1.04005C43.411 0.923373 42.612 1.02674 41.8866 1.33849C41.1612 1.65023 40.5383 2.15792 40.0883 2.80415Z" fill="#F97316"/>
</g>
<g filter="url(#filter1_f_33_91984)">
<path d="M29.8933 37.3849C30.2828 39.0112 18.091 54.9353 19.009 56.217C19.8695 57.4185 34.3973 45.9556 35.5981 46.7781C37.4965 46.4686 36.9564 46.7023 38.7847 47.0069C40.3923 47.2747 51.8095 62.9681 53.4939 62.568C54.9597 62.2199 51.3221 45.7436 50.8179 42.683C50.4907 40.6965 50.1986 40.7442 52.0966 40.0426C53.0043 38.7191 69.5113 34.246 69.8602 32.6621C70.255 30.87 59.5982 30.4439 55.6093 29.8968C52.6938 29.497 51.079 29.7841 49.6655 28.7704C48.8618 27.6781 48.4448 28.277 48.1567 26.528C47.2401 24.6038 46.622 6.39963 44.7866 6.06959C43.1315 5.77197 39.2101 24.9538 37.4702 25.367C35.5919 27.6189 36.8395 24.2281 35.2789 25.7243C34.0733 26.88 13.6622 21.8503 12.999 23.374C11.952 25.7797 29.2349 34.6359 29.8933 37.3849Z" fill="white" fill-opacity="0.25"/>
</g>
<g filter="url(#filter2_f_33_91984)">
<circle cx="3" cy="3" r="3" transform="matrix(-0.986992 0.16077 0.162664 0.986681 41.5234 34.8379)" fill="white"/>
</g>
<path opacity="0.5" d="M36.8092 59.8379C39.5706 59.8379 42.5234 58.6181 42.5234 55.9992C42.5234 53.3803 40.2849 52.8379 37.5234 52.8379C34.762 52.8379 32.5234 53.3803 32.5234 55.9992C32.5234 58.6181 34.0477 59.8379 36.8092 59.8379Z" fill="black" fill-opacity="0.12"/>
<path opacity="0.5" d="M54.6362 36.2402C55.9756 36.5756 57.5761 36.2579 57.9374 34.8057C58.2988 33.3535 57.2879 32.7808 55.9485 32.4453C54.6092 32.1098 53.4486 32.1387 53.0872 33.5909C52.7259 35.0431 53.2969 35.9047 54.6362 36.2402Z" fill="black" fill-opacity="0.2"/>
<path opacity="0.5" d="M24.496 29.6263C22.6112 30.055 20.7877 31.3634 21.2001 33.188C21.6124 35.0127 23.2258 35.043 25.1106 34.6142C26.9955 34.1855 28.438 33.46 28.0257 31.6354C27.6134 29.8107 26.3809 29.1975 24.496 29.6263Z" fill="black" fill-opacity="0.2"/>
<path opacity="0.2" d="M48.8105 32.3147C50.4177 32.7173 52.3467 32.3022 52.7984 30.4869C53.2501 28.6716 52.0408 27.9693 50.4335 27.5668C48.8263 27.1642 47.4299 27.2138 46.9782 29.0291C46.5265 30.8444 47.2033 31.9121 48.8105 32.3147Z" fill="#FAFAF9"/>
<path opacity="0.2" d="M26.5807 35.4779C25.0004 35.0531 24.3222 35.3219 24.1137 36.1028C23.9052 36.8837 23.6541 37.7977 25.2343 38.2225C26.8146 38.6473 27.768 37.9221 27.9766 37.1413C28.1851 36.3604 28.161 35.9028 26.5807 35.4779Z" fill="#FAFAF9"/>
<path opacity="0.5" d="M46.3348 57.7162C45.4263 57.4719 45.0422 57.6332 44.9031 58.1537C44.7641 58.6743 44.7715 59.3669 45.5403 59.5736C46.3092 59.7803 46.6239 59.4561 46.7629 58.9355C46.902 58.415 47.1037 57.9229 46.3348 57.7162Z" fill="black" fill-opacity="0.12"/>
<path opacity="0.5" d="M22.4042 51.6283C20.5872 51.1399 19.786 51.5857 19.4384 52.8871C19.0908 54.1885 19.0195 55.8959 20.5572 56.3093C22.0949 56.7227 22.7753 55.8836 23.1229 54.5822C23.4704 53.2808 23.9419 52.0417 22.4042 51.6283Z" fill="black" fill-opacity="0.12"/>
<path opacity="0.1" d="M13.3348 48.7162C12.4263 48.4719 12.0422 48.6332 11.9031 49.1537C11.7641 49.6743 11.7715 50.3669 12.5403 50.5736C13.3092 50.7803 13.6239 50.4561 13.7629 49.9355C13.902 49.415 14.1037 48.9229 13.3348 48.7162Z" fill="black" fill-opacity="0.12"/>
<defs>
<filter id="filter0_di_33_91984" x="0" y="-3.00635" width="79.7891" height="81.29" filterUnits="userSpaceOnUse" color-interpolation-filters="sRGB">
<feFlood flood-opacity="0" result="BackgroundImageFix"/>
<feColorMatrix in="SourceAlpha" type="matrix" values="0 0 0 0 0 0 0 0 0 0 0 0 0 0 0 0 0 0 127 0" result="hardAlpha"/>
<feOffset dx="-2" dy="2"/>
<feComposite in2="hardAlpha" operator="out"/>
<feColorMatrix type="matrix" values="0 0 0 0 0 0 0 0 0 0 0 0 0 0 0 0 0 0 0.2 0"/>
<feBlend mode="normal" in2="BackgroundImageFix" result="effect1_dropShadow_33_91984"/>
<feBlend mode="normal" in="SourceGraphic" in2="effect1_dropShadow_33_91984" result="shape"/>
<feColorMatrix in="SourceAlpha" type="matrix" values="0 0 0 0 0 0 0 0 0 0 0 0 0 0 0 0 0 0 127 0" result="hardAlpha"/>
<feOffset dx="2" dy="-4"/>
<feGaussianBlur stdDeviation="4"/>
<feComposite in2="hardAlpha" operator="arithmetic" k2="-1" k3="1"/>
<feColorMatrix type="matrix" values="0 0 0 0 0 0 0 0 0 0 0 0 0 0 0 0 0 0 0.25 0"/>
<feBlend mode="normal" in2="shape" result="effect2_innerShadow_33_91984"/>
</filter>
<filter id="filter1_f_33_91984" x="6.95312" y="0.0664062" width="68.918" height="68.5093" filterUnits="userSpaceOnUse" color-interpolation-filters="sRGB">
<feFlood flood-opacity="0" result="BackgroundImageFix"/>
<feBlend mode="normal" in="SourceGraphic" in2="BackgroundImageFix" result="shape"/>
<feGaussianBlur stdDeviation="3" result="effect1_foregroundBlur_33_91984"/>
</filter>
<filter id="filter2_f_33_91984" x="28.0508" y="27.2808" width="22" height="21.999" filterUnits="userSpaceOnUse" color-interpolation-filters="sRGB">
<feFlood flood-opacity="0" result="BackgroundImageFix"/>
<feBlend mode="normal" in="SourceGraphic" in2="BackgroundImageFix" result="shape"/>
<feGaussianBlur stdDeviation="4" result="effect1_foregroundBlur_33_91984"/>
</filter>
</defs>
</svg>
