<svg width="1009" height="672" viewBox="0 0 1009 672" fill="none" xmlns="http://www.w3.org/2000/svg">
<g opacity="0.5" filter="url(#filter0_f_33_92023)">
<path d="M24.0188 483.487C24.0188 483.487 25.6867 482.618 24.0188 483.688C22.3508 484.759 132.278 648 132.278 648L504.191 521.5L876.277 648L984.019 483.688C982.202 482.517 984.019 483.487 984.019 483.487L504.191 100.963L24.0188 483.487Z" fill="url(#paint0_linear_33_92023)"/>
</g>
<g opacity="0.12" filter="url(#filter1_f_33_92023)">
<path d="M24.0188 483.487C24.0188 483.487 25.6867 482.618 24.0188 483.688C22.3508 484.759 132.278 648 132.278 648L504.191 412.959L876.277 648L984.019 483.688C982.202 482.517 984.019 483.487 984.019 483.487L504.191 100.963L24.0188 483.487Z" fill="url(#paint1_radial_33_92023)"/>
</g>
<path d="M507.121 18L668.02 255L511.02 229.145L354.02 255L507.121 18Z" fill="#3C2D24"/>
<g filter="url(#filter2_ii_33_92023)">
<g filter="url(#filter3_dd_33_92023)">
<rect x="490.02" y="429" width="32" height="32" rx="16" fill="#D9D9D9"/>
</g>
<g filter="url(#filter4_iii_33_92023)">
<path d="M522.02 445C522.02 453.837 514.856 461 506.02 461C497.183 461 490.02 453.837 490.02 445L490.02 23L522.02 23L522.02 445Z" fill="#A16207"/>
</g>
<path d="M505.754 13.3496C506.041 13.3556 506.259 13.4784 506.408 13.6035C506.541 13.7151 506.643 13.8508 506.695 13.918C506.704 13.9288 506.711 13.9392 506.718 13.9482C506.804 13.9125 506.903 13.8634 507.032 13.7979C507.158 13.7341 507.319 13.6514 507.478 13.5898C507.605 13.5404 507.798 13.4756 508.013 13.4756L508.106 13.4805L508.807 13.5518C512.284 13.9486 515.377 14.9052 517.662 16.3877C520.111 17.9766 521.677 20.2087 521.677 23C521.677 23.627 521.344 24.129 521.097 24.4717C520.946 24.6799 520.854 24.7945 520.734 24.9658C520.629 25.1166 520.561 25.2346 520.522 25.3359C520.435 25.5674 520.443 25.7961 520.418 26.2373C520.396 26.6268 520.338 27.1682 519.937 27.6445C518.538 29.3027 516.398 30.5512 513.84 31.3857C511.275 32.2224 508.248 32.6572 505.02 32.6572C501.43 32.6572 498.087 32.1202 495.352 31.0889C495.145 31.0109 494.978 30.8571 494.888 30.6494C494.809 30.4686 494.811 30.2963 494.82 30.1885C494.826 30.1242 494.838 30.0588 494.853 29.9961C494.796 30.0091 494.737 30.0227 494.676 30.0371C494.463 30.0871 494.215 30.1458 493.998 30.1777C493.889 30.1938 493.765 30.2066 493.643 30.2041C493.535 30.2018 493.349 30.1869 493.169 30.0869C490.273 28.4793 488.362 26.0864 488.362 23C488.362 19.8322 490.374 17.3972 493.397 15.7891C496.416 14.1837 500.531 13.3428 505.02 13.3428C505.266 13.3428 505.51 13.3446 505.754 13.3496Z" fill="#854D0E" stroke="#3C2D24" stroke-width="1.31521"/>
<path opacity="0.5" fill-rule="evenodd" clip-rule="evenodd" d="M494.866 17.2887C492.434 18.3879 490.945 19.9823 490.945 22C490.945 24.0177 492.434 25.6121 494.866 26.7113C497.309 27.8159 500.716 28.4236 504.52 28.4236C508.323 28.4236 511.73 27.8159 514.173 26.7113C516.605 25.6121 518.094 24.0177 518.094 22C518.094 19.9823 516.605 18.3879 514.173 17.2887C511.73 16.1841 508.323 15.5764 504.52 15.5764C500.716 15.5764 497.309 16.1841 494.866 17.2887ZM494.322 16.8222C496.959 15.63 500.57 15 504.52 15C508.469 15 512.08 15.63 514.717 16.8222C517.366 18.0199 519.02 19.7813 519.02 22C519.02 24.2187 517.366 25.9801 514.717 27.1778C512.08 28.37 508.469 29 504.52 29C500.57 29 496.959 28.37 494.322 27.1778C491.673 25.9801 490.02 24.2187 490.02 22C490.02 19.7813 491.673 18.0199 494.322 16.8222Z" fill="#A16207"/>
<path opacity="0.5" fill-rule="evenodd" clip-rule="evenodd" d="M497.139 20.6516C495.301 21.3202 494.189 22.2828 494.189 23.5C494.189 24.7172 495.301 25.6798 497.139 26.3484C498.992 27.0226 501.595 27.3989 504.52 27.3989C507.444 27.3989 510.047 27.0226 511.9 26.3484C513.738 25.6798 514.85 24.7173 514.85 23.5C514.85 22.2828 513.738 21.3202 511.9 20.6516C510.047 19.9774 507.444 19.6011 504.52 19.6011C501.595 19.6011 498.992 19.9774 497.139 20.6516ZM496.463 20.161C498.561 19.3981 501.416 19 504.52 19C507.623 19 510.478 19.3981 512.576 20.161C514.688 20.9295 516.02 22.0666 516.02 23.5C516.02 24.9334 514.688 26.0705 512.576 26.839C510.478 27.6019 507.623 28 504.52 28C501.416 28 498.561 27.6019 496.463 26.839C494.351 26.0705 493.02 24.9334 493.02 23.5C493.02 22.0666 494.351 20.9295 496.463 20.161Z" fill="#A16207"/>
<path opacity="0.5" fill-rule="evenodd" clip-rule="evenodd" d="M501.146 20.973C499.985 21.2111 499.27 21.5539 499.27 22C499.27 22.4461 499.985 22.7889 501.146 23.027C502.333 23.2702 504.041 23.4137 506.02 23.4137C507.998 23.4137 509.706 23.2702 510.893 23.027C512.054 22.7889 512.77 22.4461 512.77 22C512.77 21.5539 512.054 21.2111 510.893 20.973C509.706 20.7298 507.998 20.5863 506.02 20.5863C504.041 20.5863 502.333 20.7298 501.146 20.973ZM499.756 20.5121C501.419 20.1713 503.649 20 506.02 20C508.391 20 510.62 20.1713 512.283 20.5121C513.972 20.8581 515.02 21.3688 515.02 22C515.02 22.6312 513.972 23.1419 512.283 23.4879C510.62 23.8287 508.391 24 506.02 24C503.649 24 501.419 23.8287 499.756 23.4879C498.067 23.1419 497.02 22.6312 497.02 22C497.02 21.3688 498.067 20.8581 499.756 20.5121Z" fill="#A16207"/>
<path opacity="0.5" fill-rule="evenodd" clip-rule="evenodd" d="M501.419 22.5331C501.417 22.533 501.424 22.532 501.445 22.5302C501.431 22.5322 501.421 22.5331 501.419 22.5331ZM502.018 22.5C502.59 22.4783 503.449 22.462 504.52 22.462C505.59 22.462 506.449 22.4783 507.021 22.5C506.449 22.5217 505.59 22.538 504.52 22.538C503.449 22.538 502.59 22.5217 502.018 22.5ZM507.62 22.5331C507.618 22.5331 507.608 22.5322 507.594 22.5302C507.615 22.532 507.622 22.533 507.62 22.5331ZM507.594 22.4698C507.608 22.4678 507.618 22.4669 507.62 22.4669C507.622 22.467 507.615 22.468 507.594 22.4698ZM501.445 22.4698C501.424 22.468 501.417 22.467 501.419 22.4669C501.421 22.4669 501.431 22.4678 501.445 22.4698ZM499.847 22.0929C501.192 22.0278 502.861 22 504.52 22C506.178 22 507.847 22.0278 509.192 22.0929C510.497 22.1561 512.02 22.2853 512.02 22.5C512.02 22.7147 510.497 22.8439 509.192 22.9071C507.847 22.9722 506.178 23 504.52 23C502.861 23 501.192 22.9722 499.847 22.9071C498.542 22.8439 497.02 22.7147 497.02 22.5C497.02 22.2853 498.542 22.1561 499.847 22.0929Z" fill="#A16207"/>
<path opacity="0.1" d="M502.02 319.857C502.02 310.744 501.671 301 500.923 301C500.175 301 500.02 308.387 500.02 317.5C500.02 326.613 500.175 334 500.923 334C501.671 334 502.02 328.97 502.02 319.857Z" fill="white"/>
<path opacity="0.1" d="M511.02 256.571C511.02 248.563 510.671 240 509.923 240C509.175 240 509.02 246.492 509.02 254.5C509.02 262.508 509.175 269 509.923 269C510.671 269 511.02 264.58 511.02 256.571Z" fill="white"/>
<path opacity="0.1" d="M509.02 356.429C509.02 350.906 508.322 345 506.826 345C505.329 345 505.02 349.477 505.02 355C505.02 360.523 505.329 365 506.826 365C508.322 365 509.02 361.951 509.02 356.429Z" fill="black"/>
<path opacity="0.1" d="M495.02 239.429C495.02 233.906 494.671 228 493.923 228C493.175 228 493.02 232.477 493.02 238C493.02 243.523 493.175 248 493.923 248C494.671 248 495.02 244.951 495.02 239.429Z" fill="white"/>
<path opacity="0.1" d="M502.02 208.429C502.02 197.107 501.322 185 499.826 185C498.329 185 498.02 194.178 498.02 205.5C498.02 216.822 498.329 226 499.826 226C501.322 226 502.02 219.75 502.02 208.429Z" fill="black"/>
<path opacity="0.1" d="M491.02 354C491.02 344.335 491.368 334 492.116 334C492.865 334 493.02 341.835 493.02 351.5C493.02 361.165 492.865 369 492.116 369C491.368 369 491.02 363.665 491.02 354Z" fill="white"/>
<path opacity="0.1" d="M493.02 400.714C493.02 394.087 493.542 387 494.665 387C495.787 387 496.02 392.373 496.02 399C496.02 405.627 495.787 411 494.665 411C493.542 411 493.02 407.342 493.02 400.714Z" fill="black"/>
<path opacity="0.1" d="M513.02 414.857C513.02 407.677 513.368 400 514.116 400C514.865 400 515.02 405.82 515.02 413C515.02 420.18 514.865 426 514.116 426C513.368 426 513.02 422.037 513.02 414.857Z" fill="white"/>
<path opacity="0.1" d="M513.02 214.857C513.02 207.677 513.368 200 514.116 200C514.865 200 515.02 205.82 515.02 213C515.02 220.18 514.865 226 514.116 226C513.368 226 513.02 222.037 513.02 214.857Z" fill="black"/>
<path opacity="0.1" d="M518.02 373.571C518.02 365.563 518.368 357 519.116 357C519.865 357 520.02 363.492 520.02 371.5C520.02 379.508 519.865 386 519.116 386C518.368 386 518.02 381.58 518.02 373.571Z" fill="white"/>
<path opacity="0.1" d="M516.02 292.857C516.02 281.811 516.368 270 517.116 270C517.865 270 518.02 278.954 518.02 290C518.02 301.046 517.865 310 517.116 310C516.368 310 516.02 303.903 516.02 292.857Z" fill="black"/>
</g>
<g filter="url(#filter5_iii_33_92023)">
<path d="M8.01953 483.688C226.877 343.22 333.783 179.065 504.02 0V46.6148C435.273 292.805 132.278 648 132.278 648L8.01953 483.688Z" fill="#D7B99A"/>
</g>
<g filter="url(#filter6_i_33_92023)">
<path d="M504.02 0C411.904 46.8403 350.499 151.775 260.533 154.812C258.029 154.896 255.649 156.052 254.136 158.049L8.01953 483C232.721 365.697 343.518 188.669 504.02 0Z" fill="#D7B99A"/>
</g>
<g filter="url(#filter7_iii_33_92023)">
<path d="M1000.02 483.688C782.152 343.22 673.667 179.065 504.201 0C504.201 11.3005 504.02 33.9017 504.02 46.6148C550.729 225.977 695.042 494.204 876.322 648L1000.02 483.688Z" fill="#E4CEB8"/>
</g>
<path d="M504.02 0C595.826 46.8778 652.988 151.943 748.523 154.819C751.032 154.894 753.424 156.058 754.936 158.062L1000.02 483C777.284 364.056 667.492 188.002 504.02 0Z" fill="#F2E9DE"/>
<defs>
<filter id="filter0_f_33_92023" x="0" y="76.9634" width="1008.02" height="595.037" filterUnits="userSpaceOnUse" color-interpolation-filters="sRGB">
<feFlood flood-opacity="0" result="BackgroundImageFix"/>
<feBlend mode="normal" in="SourceGraphic" in2="BackgroundImageFix" result="shape"/>
<feGaussianBlur stdDeviation="12" result="effect1_foregroundBlur_33_92023"/>
</filter>
<filter id="filter1_f_33_92023" x="12" y="88.9634" width="984.02" height="571.037" filterUnits="userSpaceOnUse" color-interpolation-filters="sRGB">
<feFlood flood-opacity="0" result="BackgroundImageFix"/>
<feBlend mode="normal" in="SourceGraphic" in2="BackgroundImageFix" result="shape"/>
<feGaussianBlur stdDeviation="6" result="effect1_foregroundBlur_33_92023"/>
</filter>
<filter id="filter2_ii_33_92023" x="476.02" y="12.6848" width="46.3145" height="464.315" filterUnits="userSpaceOnUse" color-interpolation-filters="sRGB">
<feFlood flood-opacity="0" result="BackgroundImageFix"/>
<feBlend mode="normal" in="SourceGraphic" in2="BackgroundImageFix" result="shape"/>
<feColorMatrix in="SourceAlpha" type="matrix" values="0 0 0 0 0 0 0 0 0 0 0 0 0 0 0 0 0 0 127 0" result="hardAlpha"/>
<feOffset dy="148"/>
<feGaussianBlur stdDeviation="8"/>
<feComposite in2="hardAlpha" operator="arithmetic" k2="-1" k3="1"/>
<feColorMatrix type="matrix" values="0 0 0 0 0 0 0 0 0 0 0 0 0 0 0 0 0 0 0.25 0"/>
<feBlend mode="normal" in2="shape" result="effect1_innerShadow_33_92023"/>
<feColorMatrix in="SourceAlpha" type="matrix" values="0 0 0 0 0 0 0 0 0 0 0 0 0 0 0 0 0 0 127 0" result="hardAlpha"/>
<feOffset dx="-11" dy="4"/>
<feGaussianBlur stdDeviation="7.5"/>
<feComposite in2="hardAlpha" operator="arithmetic" k2="-1" k3="1"/>
<feColorMatrix type="matrix" values="0 0 0 0 1 0 0 0 0 1 0 0 0 0 1 0 0 0 0.12 0"/>
<feBlend mode="normal" in2="effect1_innerShadow_33_92023" result="effect2_innerShadow_33_92023"/>
</filter>
<filter id="filter3_dd_33_92023" x="474.02" y="413" width="64" height="64" filterUnits="userSpaceOnUse" color-interpolation-filters="sRGB">
<feFlood flood-opacity="0" result="BackgroundImageFix"/>
<feColorMatrix in="SourceAlpha" type="matrix" values="0 0 0 0 0 0 0 0 0 0 0 0 0 0 0 0 0 0 127 0" result="hardAlpha"/>
<feMorphology radius="2" operator="dilate" in="SourceAlpha" result="effect1_dropShadow_33_92023"/>
<feOffset/>
<feComposite in2="hardAlpha" operator="out"/>
<feColorMatrix type="matrix" values="0 0 0 0 0 0 0 0 0 0 0 0 0 0 0 0 0 0 0.12 0"/>
<feBlend mode="normal" in2="BackgroundImageFix" result="effect1_dropShadow_33_92023"/>
<feColorMatrix in="SourceAlpha" type="matrix" values="0 0 0 0 0 0 0 0 0 0 0 0 0 0 0 0 0 0 127 0" result="hardAlpha"/>
<feMorphology radius="16" operator="dilate" in="SourceAlpha" result="effect2_dropShadow_33_92023"/>
<feOffset/>
<feComposite in2="hardAlpha" operator="out"/>
<feColorMatrix type="matrix" values="0 0 0 0 0 0 0 0 0 0 0 0 0 0 0 0 0 0 0.12 0"/>
<feBlend mode="normal" in2="effect1_dropShadow_33_92023" result="effect2_dropShadow_33_92023"/>
<feBlend mode="normal" in="SourceGraphic" in2="effect2_dropShadow_33_92023" result="shape"/>
</filter>
<filter id="filter4_iii_33_92023" x="485.811" y="20.8957" width="55.2087" height="461.304" filterUnits="userSpaceOnUse" color-interpolation-filters="sRGB">
<feFlood flood-opacity="0" result="BackgroundImageFix"/>
<feBlend mode="normal" in="SourceGraphic" in2="BackgroundImageFix" result="shape"/>
<feColorMatrix in="SourceAlpha" type="matrix" values="0 0 0 0 0 0 0 0 0 0 0 0 0 0 0 0 0 0 127 0" result="hardAlpha"/>
<feOffset dx="2.10433" dy="-2.10433"/>
<feGaussianBlur stdDeviation="4.20866"/>
<feComposite in2="hardAlpha" operator="arithmetic" k2="-1" k3="1"/>
<feColorMatrix type="matrix" values="0 0 0 0 0 0 0 0 0 0 0 0 0 0 0 0 0 0 0.45 0"/>
<feBlend mode="normal" in2="shape" result="effect1_innerShadow_33_92023"/>
<feColorMatrix in="SourceAlpha" type="matrix" values="0 0 0 0 0 0 0 0 0 0 0 0 0 0 0 0 0 0 127 0" result="hardAlpha"/>
<feOffset dx="-4.20866"/>
<feGaussianBlur stdDeviation="3.15649"/>
<feComposite in2="hardAlpha" operator="arithmetic" k2="-1" k3="1"/>
<feColorMatrix type="matrix" values="0 0 0 0 1 0 0 0 0 1 0 0 0 0 1 0 0 0 0.25 0"/>
<feBlend mode="normal" in2="effect1_innerShadow_33_92023" result="effect2_innerShadow_33_92023"/>
<feColorMatrix in="SourceAlpha" type="matrix" values="0 0 0 0 0 0 0 0 0 0 0 0 0 0 0 0 0 0 127 0" result="hardAlpha"/>
<feOffset dx="19" dy="109.2"/>
<feGaussianBlur stdDeviation="10.6"/>
<feComposite in2="hardAlpha" operator="arithmetic" k2="-1" k3="1"/>
<feColorMatrix type="matrix" values="0 0 0 0 0 0 0 0 0 0 0 0 0 0 0 0 0 0 0.25 0"/>
<feBlend mode="normal" in2="effect2_innerShadow_33_92023" result="effect3_innerShadow_33_92023"/>
</filter>
<filter id="filter5_iii_33_92023" x="-14.9805" y="-2" width="521" height="673" filterUnits="userSpaceOnUse" color-interpolation-filters="sRGB">
<feFlood flood-opacity="0" result="BackgroundImageFix"/>
<feBlend mode="normal" in="SourceGraphic" in2="BackgroundImageFix" result="shape"/>
<feColorMatrix in="SourceAlpha" type="matrix" values="0 0 0 0 0 0 0 0 0 0 0 0 0 0 0 0 0 0 127 0" result="hardAlpha"/>
<feOffset dx="2" dy="2"/>
<feGaussianBlur stdDeviation="2"/>
<feComposite in2="hardAlpha" operator="arithmetic" k2="-1" k3="1"/>
<feColorMatrix type="matrix" values="0 0 0 0 1 0 0 0 0 1 0 0 0 0 1 0 0 0 0.15 0"/>
<feBlend mode="normal" in2="shape" result="effect1_innerShadow_33_92023"/>
<feColorMatrix in="SourceAlpha" type="matrix" values="0 0 0 0 0 0 0 0 0 0 0 0 0 0 0 0 0 0 127 0" result="hardAlpha"/>
<feOffset dx="-2" dy="-2"/>
<feGaussianBlur stdDeviation="2"/>
<feComposite in2="hardAlpha" operator="arithmetic" k2="-1" k3="1"/>
<feColorMatrix type="matrix" values="0 0 0 0 1 0 0 0 0 1 0 0 0 0 1 0 0 0 0.15 0"/>
<feBlend mode="normal" in2="effect1_innerShadow_33_92023" result="effect2_innerShadow_33_92023"/>
<feColorMatrix in="SourceAlpha" type="matrix" values="0 0 0 0 0 0 0 0 0 0 0 0 0 0 0 0 0 0 127 0" result="hardAlpha"/>
<feOffset dx="-35" dy="55"/>
<feGaussianBlur stdDeviation="11.5"/>
<feComposite in2="hardAlpha" operator="arithmetic" k2="-1" k3="1"/>
<feColorMatrix type="matrix" values="0 0 0 0 0 0 0 0 0 0 0 0 0 0 0 0 0 0 0.1 0"/>
<feBlend mode="normal" in2="effect2_innerShadow_33_92023" result="effect3_innerShadow_33_92023"/>
</filter>
<filter id="filter6_i_33_92023" x="8.01953" y="-15" width="511" height="498" filterUnits="userSpaceOnUse" color-interpolation-filters="sRGB">
<feFlood flood-opacity="0" result="BackgroundImageFix"/>
<feBlend mode="normal" in="SourceGraphic" in2="BackgroundImageFix" result="shape"/>
<feColorMatrix in="SourceAlpha" type="matrix" values="0 0 0 0 0 0 0 0 0 0 0 0 0 0 0 0 0 0 127 0" result="hardAlpha"/>
<feOffset dx="58" dy="-71"/>
<feGaussianBlur stdDeviation="7.5"/>
<feComposite in2="hardAlpha" operator="arithmetic" k2="-1" k3="1"/>
<feColorMatrix type="matrix" values="0 0 0 0 0 0 0 0 0 0 0 0 0 0 0 0 0 0 0.1 0"/>
<feBlend mode="normal" in2="shape" result="effect1_innerShadow_33_92023"/>
</filter>
<filter id="filter7_iii_33_92023" x="502.02" y="-2" width="514" height="702" filterUnits="userSpaceOnUse" color-interpolation-filters="sRGB">
<feFlood flood-opacity="0" result="BackgroundImageFix"/>
<feBlend mode="normal" in="SourceGraphic" in2="BackgroundImageFix" result="shape"/>
<feColorMatrix in="SourceAlpha" type="matrix" values="0 0 0 0 0 0 0 0 0 0 0 0 0 0 0 0 0 0 127 0" result="hardAlpha"/>
<feOffset dx="-2" dy="-2"/>
<feGaussianBlur stdDeviation="2"/>
<feComposite in2="hardAlpha" operator="arithmetic" k2="-1" k3="1"/>
<feColorMatrix type="matrix" values="0 0 0 0 1 0 0 0 0 1 0 0 0 0 1 0 0 0 0.15 0"/>
<feBlend mode="normal" in2="shape" result="effect1_innerShadow_33_92023"/>
<feColorMatrix in="SourceAlpha" type="matrix" values="0 0 0 0 0 0 0 0 0 0 0 0 0 0 0 0 0 0 127 0" result="hardAlpha"/>
<feOffset dx="2" dy="2"/>
<feGaussianBlur stdDeviation="2"/>
<feComposite in2="hardAlpha" operator="arithmetic" k2="-1" k3="1"/>
<feColorMatrix type="matrix" values="0 0 0 0 1 0 0 0 0 1 0 0 0 0 1 0 0 0 0.15 0"/>
<feBlend mode="normal" in2="effect1_innerShadow_33_92023" result="effect2_innerShadow_33_92023"/>
<feColorMatrix in="SourceAlpha" type="matrix" values="0 0 0 0 0 0 0 0 0 0 0 0 0 0 0 0 0 0 127 0" result="hardAlpha"/>
<feOffset dx="16" dy="76"/>
<feGaussianBlur stdDeviation="26"/>
<feComposite in2="hardAlpha" operator="arithmetic" k2="-1" k3="1"/>
<feColorMatrix type="matrix" values="0 0 0 0 1 0 0 0 0 1 0 0 0 0 1 0 0 0 0.4 0"/>
<feBlend mode="normal" in2="effect2_innerShadow_33_92023" result="effect3_innerShadow_33_92023"/>
</filter>
<linearGradient id="paint0_linear_33_92023" x1="504.011" y1="237" x2="504.011" y2="648" gradientUnits="userSpaceOnUse">
<stop/>
<stop offset="0.854167" stop-color="#C4C4C4" stop-opacity="0"/>
</linearGradient>
<radialGradient id="paint1_radial_33_92023" cx="0" cy="0" r="1" gradientUnits="userSpaceOnUse" gradientTransform="translate(491.019 634) rotate(180) scale(450 816.047)">
<stop offset="0.375" stop-opacity="0"/>
<stop offset="1"/>
</radialGradient>
</defs>
</svg>
